<?xml version="1.0" encoding="utf-8" standalone="no"?>
<!DOCTYPE svg PUBLIC "-//W3C//DTD SVG 1.1//EN"
  "http://www.w3.org/Graphics/SVG/1.1/DTD/svg11.dtd">
<!-- Created with matplotlib (http://matplotlib.org/) -->
<svg height="345.6pt" version="1.1" viewBox="0 0 460.8 345.6" width="460.8pt" xmlns="http://www.w3.org/2000/svg" xmlns:xlink="http://www.w3.org/1999/xlink">
 <defs>
  <style type="text/css">
*{stroke-linecap:butt;stroke-linejoin:round;}
  </style>
 </defs>
 <g id="figure_1">
  <g id="patch_1">
   <path d="M 0 345.6 
L 460.8 345.6 
L 460.8 0 
L 0 0 
z
" style="fill:#ffffff;"/>
  </g>
  <g id="axes_1">
   <g id="patch_2">
    <path d="M 65.401269 332.517462 
L 395.398731 332.517462 
L 395.398731 2.52 
L 65.401269 2.52 
z
" style="fill:#ffffff;"/>
   </g>
   <g id="patch_3">
    <path clip-path="url(#p25c4db7aac)" d="M 143.862204 80.980935 
L 264.053587 80.980935 
L 264.053587 76.17328 
L 143.862204 76.17328 
z
" style="fill:#808080;opacity:0.35;"/>
   </g>
   <g id="patch_4">
    <path clip-path="url(#p25c4db7aac)" d="M 143.862204 321.363701 
L 143.862204 201.172318 
L 139.054549 201.172318 
L 139.054549 321.363701 
z
" style="fill:#808080;opacity:0.35;"/>
   </g>
   <g id="patch_5">
    <path clip-path="url(#p25c4db7aac)" d="M 143.862204 321.363701 
L 264.053587 321.363701 
L 268.861243 326.171357 
L 148.669859 326.171357 
z
" style="fill:#808080;opacity:0.35;"/>
   </g>
   <g id="patch_6">
    <path clip-path="url(#p25c4db7aac)" d="M 143.862204 80.980935 
L 264.053587 80.980935 
L 264.053587 76.17328 
L 143.862204 76.17328 
z
" style="fill:#808080;opacity:0.35;"/>
   </g>
   <g id="patch_7">
    <path clip-path="url(#p25c4db7aac)" d="M 143.862204 201.172318 
L 143.862204 80.980935 
L 139.054549 80.980935 
L 139.054549 201.172318 
z
" style="fill:#808080;opacity:0.35;"/>
   </g>
   <g id="patch_8">
    <path clip-path="url(#p25c4db7aac)" d="M 264.053587 321.363701 
L 384.24497 321.363701 
L 389.052626 326.171357 
L 268.861243 326.171357 
z
" style="fill:#808080;opacity:0.35;"/>
   </g>
   <g id="patch_9">
    <path clip-path="url(#p25c4db7aac)" d="M 264.053587 80.980935 
L 384.24497 80.980935 
L 384.24497 76.17328 
L 264.053587 76.17328 
z
" style="fill:#808080;opacity:0.35;"/>
   </g>
   <g id="patch_10">
    <path clip-path="url(#p25c4db7aac)" d="M 143.862204 321.363701 
L 143.862204 201.172318 
L 139.054549 201.172318 
L 139.054549 321.363701 
z
" style="fill:#808080;opacity:0.35;"/>
   </g>
   <g id="patch_11">
    <path clip-path="url(#p25c4db7aac)" d="M 264.053587 321.363701 
L 384.24497 321.363701 
L 389.052626 326.171357 
L 268.861243 326.171357 
z
" style="fill:#808080;opacity:0.35;"/>
   </g>
   <g id="line2d_1">
    <path clip-path="url(#p25c4db7aac)" d="M 143.862204 321.363701 
L 143.862204 80.980935 
" style="fill:none;stroke:#000000;stroke-linecap:square;"/>
   </g>
   <g id="line2d_2">
    <path clip-path="url(#p25c4db7aac)" d="M 143.862204 321.363701 
L 143.862204 80.980935 
" style="fill:none;stroke:#ffffff;stroke-linecap:square;"/>
   </g>
   <g id="line2d_3">
    <path clip-path="url(#p25c4db7aac)" d="M 143.862204 80.980935 
L 264.053587 80.980935 
" style="fill:none;stroke:#000000;stroke-linecap:square;"/>
   </g>
   <g id="line2d_4">
    <path clip-path="url(#p25c4db7aac)" d="M 143.862204 321.363701 
L 143.862204 201.172318 
" style="fill:none;stroke:#000000;stroke-linecap:square;"/>
   </g>
   <g id="line2d_5">
    <path clip-path="url(#p25c4db7aac)" d="M 264.053587 8.866105 
L 384.24497 8.866105 
" style="fill:none;stroke:#000000;stroke-linecap:square;"/>
   </g>
   <g id="line2d_6">
    <path clip-path="url(#p25c4db7aac)" d="M 71.747374 201.172318 
L 71.747374 80.980935 
" style="fill:none;stroke:#000000;stroke-linecap:square;"/>
   </g>
   <g id="line2d_7">
    <path clip-path="url(#p25c4db7aac)" d="M 143.862204 80.980935 
L 264.053587 80.980935 
" style="fill:none;stroke:#ff0000;stroke-linecap:square;"/>
   </g>
   <g id="line2d_8">
    <path clip-path="url(#p25c4db7aac)" d="M 143.862204 321.363701 
L 143.862204 201.172318 
" style="fill:none;stroke:#ff0000;stroke-linecap:square;"/>
   </g>
   <g id="line2d_9">
    <path clip-path="url(#p25c4db7aac)" d="M 264.053587 8.866105 
L 384.24497 8.866105 
" style="fill:none;stroke:#ff0000;stroke-linecap:square;"/>
   </g>
   <g id="line2d_10">
    <path clip-path="url(#p25c4db7aac)" d="M 71.747374 201.172318 
L 71.747374 80.980935 
" style="fill:none;stroke:#ff0000;stroke-linecap:square;"/>
   </g>
   <g id="PathCollection_1">
    <defs>
     <path d="M 0 2.397916 
C 0.635935 2.397916 1.245909 2.145256 1.695582 1.695582 
C 2.145256 1.245909 2.397916 0.635935 2.397916 0 
C 2.397916 -0.635935 2.145256 -1.245909 1.695582 -1.695582 
C 1.245909 -2.145256 0.635935 -2.397916 0 -2.397916 
C -0.635935 -2.397916 -1.245909 -2.145256 -1.695582 -1.695582 
C -2.145256 -1.245909 -2.397916 -0.635935 -2.397916 0 
C -2.397916 0.635935 -2.145256 1.245909 -1.695582 1.695582 
C -1.245909 2.145256 -0.635935 2.397916 0 2.397916 
z
" id="C0_0_085092a19f"/>
    </defs>
    <g clip-path="url(#p25c4db7aac)">
     <use x="264.053587" xlink:href="#C0_0_085092a19f" y="80.980935"/>
    </g>
    <g clip-path="url(#p25c4db7aac)">
     <use x="143.862204" xlink:href="#C0_0_085092a19f" y="201.172318"/>
    </g>
   </g>
   <g id="PathCollection_2">
    <defs>
     <path d="M 0 1.581139 
C 0.419323 1.581139 0.821528 1.41454 1.118034 1.118034 
C 1.41454 0.821528 1.581139 0.419323 1.581139 0 
C 1.581139 -0.419323 1.41454 -0.821528 1.118034 -1.118034 
C 0.821528 -1.41454 0.419323 -1.581139 0 -1.581139 
C -0.419323 -1.581139 -0.821528 -1.41454 -1.118034 -1.118034 
C -1.41454 -0.821528 -1.581139 -0.419323 -1.581139 0 
C -1.581139 0.419323 -1.41454 0.821528 -1.118034 1.118034 
C -0.821528 1.41454 -0.419323 1.581139 0 1.581139 
z
" id="C1_0_3c718cee52"/>
    </defs>
    <g clip-path="url(#p25c4db7aac)">
     <use style="fill:#ffffff;" x="264.053587" xlink:href="#C1_0_3c718cee52" y="80.980935"/>
    </g>
    <g clip-path="url(#p25c4db7aac)">
     <use style="fill:#ffffff;" x="143.862204" xlink:href="#C1_0_3c718cee52" y="201.172318"/>
    </g>
   </g>
   <g id="PathCollection_3">
    <defs>
     <path d="M 0 2.397916 
C 0.635935 2.397916 1.245909 2.145256 1.695582 1.695582 
C 2.145256 1.245909 2.397916 0.635935 2.397916 0 
C 2.397916 -0.635935 2.145256 -1.245909 1.695582 -1.695582 
C 1.245909 -2.145256 0.635935 -2.397916 0 -2.397916 
C -0.635935 -2.397916 -1.245909 -2.145256 -1.695582 -1.695582 
C -2.145256 -1.245909 -2.397916 -0.635935 -2.397916 0 
C -2.397916 0.635935 -2.145256 1.245909 -1.695582 1.695582 
C -1.245909 2.145256 -0.635935 2.397916 0 2.397916 
z
" id="C2_0_72276886f2"/>
    </defs>
    <g clip-path="url(#p25c4db7aac)">
     <use x="264.053587" xlink:href="#C2_0_72276886f2" y="44.92352"/>
    </g>
    <g clip-path="url(#p25c4db7aac)">
     <use x="107.804789" xlink:href="#C2_0_72276886f2" y="201.172318"/>
    </g>
   </g>
   <g id="PathCollection_4">
    <defs>
     <path d="M 0 2.397916 
C 0.635935 2.397916 1.245909 2.145256 1.695582 1.695582 
C 2.145256 1.245909 2.397916 0.635935 2.397916 0 
C 2.397916 -0.635935 2.145256 -1.245909 1.695582 -1.695582 
C 1.245909 -2.145256 0.635935 -2.397916 0 -2.397916 
C -0.635935 -2.397916 -1.245909 -2.145256 -1.695582 -1.695582 
C -2.145256 -1.245909 -2.397916 -0.635935 -2.397916 0 
C -2.397916 0.635935 -2.145256 1.245909 -1.695582 1.695582 
C -1.245909 2.145256 -0.635935 2.397916 0 2.397916 
z
" id="C3_0_af6a308869"/>
    </defs>
    <g clip-path="url(#p25c4db7aac)">
     <use x="264.053587" xlink:href="#C3_0_af6a308869" y="8.866105"/>
    </g>
    <g clip-path="url(#p25c4db7aac)">
     <use x="71.747374" xlink:href="#C3_0_af6a308869" y="201.172318"/>
    </g>
   </g>
   <g id="PathCollection_5">
    <defs>
     <path d="M 0 1.581139 
C 0.419323 1.581139 0.821528 1.41454 1.118034 1.118034 
C 1.41454 0.821528 1.581139 0.419323 1.581139 0 
C 1.581139 -0.419323 1.41454 -0.821528 1.118034 -1.118034 
C 0.821528 -1.41454 0.419323 -1.581139 0 -1.581139 
C -0.419323 -1.581139 -0.821528 -1.41454 -1.118034 -1.118034 
C -1.41454 -0.821528 -1.581139 -0.419323 -1.581139 0 
C -1.581139 0.419323 -1.41454 0.821528 -1.118034 1.118034 
C -0.821528 1.41454 -0.419323 1.581139 0 1.581139 
z
" id="C4_0_23feb650e5"/>
    </defs>
    <g clip-path="url(#p25c4db7aac)">
     <use style="fill:#ffffff;" x="264.053587" xlink:href="#C4_0_23feb650e5" y="8.866105"/>
    </g>
    <g clip-path="url(#p25c4db7aac)">
     <use style="fill:#ffffff;" x="71.747374" xlink:href="#C4_0_23feb650e5" y="201.172318"/>
    </g>
   </g>
   <g id="patch_12">
    <path clip-path="url(#p25c4db7aac)" d="M 143.862204 321.363701 
L 143.862204 201.172318 
L 264.053587 321.363701 
z
" style="fill:#ff0000;"/>
   </g>
   <g id="patch_13">
    <path clip-path="url(#p25c4db7aac)" d="M 143.862204 201.172318 
L 143.862204 80.980935 
L 264.053587 201.172318 
z
" style="fill:#ff0000;"/>
   </g>
   <g id="patch_14">
    <path clip-path="url(#p25c4db7aac)" d="M 264.053587 321.363701 
L 384.24497 321.363701 
L 264.053587 201.172318 
z
" style="fill:#ff0000;"/>
   </g>
   <g id="matplotlib.axis_1">
    <g id="xtick_1">
     <g id="line2d_11">
      <path clip-path="url(#p25c4db7aac)" d="M 143.862204 332.517462 
L 143.862204 2.52 
" style="fill:none;stroke:#000000;stroke-dasharray:0.5,0.825;stroke-dashoffset:0;stroke-width:0.5;"/>
     </g>
     <g id="line2d_12">
      <defs>
       <path d="M 0 0 
L 0 3.5 
" id="m9ac9ac13e7" style="stroke:#000000;stroke-width:0.8;"/>
      </defs>
      <g>
       <use style="stroke:#000000;stroke-width:0.8;" x="143.862204" xlink:href="#m9ac9ac13e7" y="321.363701"/>
      </g>
     </g>
    </g>
    <g id="xtick_2">
     <g id="line2d_13">
      <path clip-path="url(#p25c4db7aac)" d="M 264.053587 332.517462 
L 264.053587 2.52 
" style="fill:none;stroke:#000000;stroke-dasharray:0.5,0.825;stroke-dashoffset:0;stroke-width:0.5;"/>
     </g>
     <g id="line2d_14">
      <g>
       <use style="stroke:#000000;stroke-width:0.8;" x="264.053587" xlink:href="#m9ac9ac13e7" y="321.363701"/>
      </g>
     </g>
     <g id="text_1">
      <!-- $\frac{1}{2}$ -->
      <defs>
       <path d="M 9.28125 0 
L 9.28125 3.515625 
Q 21.78125 3.515625 21.78125 6.6875 
L 21.78125 59.1875 
Q 16.609375 56.6875 8.6875 56.6875 
L 8.6875 60.203125 
Q 20.953125 60.203125 27.203125 66.609375 
L 28.609375 66.609375 
Q 28.953125 66.609375 29.265625 66.328125 
Q 29.59375 66.0625 29.59375 65.71875 
L 29.59375 6.6875 
Q 29.59375 3.515625 42.09375 3.515625 
L 42.09375 0 
z
" id="Cmr10-31"/>
       <path d="M 4.984375 0 
L 4.984375 2.6875 
Q 4.984375 2.9375 5.171875 3.21875 
L 20.703125 20.40625 
Q 24.21875 24.21875 26.40625 26.796875 
Q 28.609375 29.390625 30.75 32.765625 
Q 32.90625 36.140625 34.15625 39.625 
Q 35.40625 43.109375 35.40625 47.015625 
Q 35.40625 51.125 33.890625 54.859375 
Q 32.375 58.59375 29.375 60.84375 
Q 26.375 63.09375 22.125 63.09375 
Q 17.78125 63.09375 14.3125 60.46875 
Q 10.84375 57.859375 9.421875 53.71875 
Q 9.8125 53.8125 10.5 53.8125 
Q 12.75 53.8125 14.328125 52.296875 
Q 15.921875 50.78125 15.921875 48.390625 
Q 15.921875 46.09375 14.328125 44.5 
Q 12.75 42.921875 10.5 42.921875 
Q 8.15625 42.921875 6.5625 44.546875 
Q 4.984375 46.1875 4.984375 48.390625 
Q 4.984375 52.15625 6.390625 55.4375 
Q 7.8125 58.734375 10.46875 61.296875 
Q 13.140625 63.875 16.484375 65.234375 
Q 19.828125 66.609375 23.578125 66.609375 
Q 29.296875 66.609375 34.21875 64.1875 
Q 39.15625 61.765625 42.03125 57.34375 
Q 44.921875 52.9375 44.921875 47.015625 
Q 44.921875 42.671875 43.015625 38.765625 
Q 41.109375 34.859375 38.125 31.65625 
Q 35.15625 28.46875 30.515625 24.40625 
Q 25.875 20.359375 24.421875 19 
L 13.09375 8.109375 
L 22.703125 8.109375 
Q 29.78125 8.109375 34.546875 8.21875 
Q 39.3125 8.34375 39.59375 8.59375 
Q 40.765625 9.859375 42 17.828125 
L 44.921875 17.828125 
L 42.09375 0 
z
" id="Cmr10-32"/>
      </defs>
      <g transform="translate(261.653587 336.863701)scale(0.1 -0.1)">
       <use transform="translate(0 38.373438)scale(0.7)" xlink:href="#Cmr10-31"/>
       <use transform="translate(0 -39.503125)scale(0.7)" xlink:href="#Cmr10-32"/>
       <path d="M 0 13.373437 
L 0 19.623437 
L 35 19.623437 
L 35 13.373437 
L 0 13.373437 
z
"/>
      </g>
     </g>
    </g>
    <g id="xtick_3">
     <g id="line2d_15">
      <path clip-path="url(#p25c4db7aac)" d="M 384.24497 332.517462 
L 384.24497 2.52 
" style="fill:none;stroke:#000000;stroke-dasharray:0.5,0.825;stroke-dashoffset:0;stroke-width:0.5;"/>
     </g>
     <g id="line2d_16">
      <g>
       <use style="stroke:#000000;stroke-width:0.8;" x="384.24497" xlink:href="#m9ac9ac13e7" y="321.363701"/>
      </g>
     </g>
     <g id="text_2">
      <!-- $1$ -->
      <g transform="translate(381.74497 335.962139)scale(0.1 -0.1)">
       <use transform="translate(0 0.390625)" xlink:href="#Cmr10-31"/>
      </g>
     </g>
    </g>
   </g>
   <g id="matplotlib.axis_2">
    <g id="ytick_1">
     <g id="line2d_17">
      <path clip-path="url(#p25c4db7aac)" d="M 65.401269 321.363701 
L 395.398731 321.363701 
" style="fill:none;stroke:#000000;stroke-dasharray:0.5,0.825;stroke-dashoffset:0;stroke-width:0.5;"/>
     </g>
     <g id="line2d_18">
      <defs>
       <path d="M 0 0 
L -3.5 0 
" id="ma3033385d7" style="stroke:#000000;stroke-width:0.8;"/>
      </defs>
      <g>
       <use style="stroke:#000000;stroke-width:0.8;" x="143.862204" xlink:href="#ma3033385d7" y="321.363701"/>
      </g>
     </g>
    </g>
    <g id="ytick_2">
     <g id="line2d_19">
      <path clip-path="url(#p25c4db7aac)" d="M 65.401269 201.172318 
L 395.398731 201.172318 
" style="fill:none;stroke:#000000;stroke-dasharray:0.5,0.825;stroke-dashoffset:0;stroke-width:0.5;"/>
     </g>
     <g id="line2d_20">
      <g>
       <use style="stroke:#000000;stroke-width:0.8;" x="143.862204" xlink:href="#ma3033385d7" y="201.172318"/>
      </g>
     </g>
     <g id="text_3">
      <!-- $\frac{1}{2}$ -->
      <g transform="translate(132.062204 205.422318)scale(0.1 -0.1)">
       <use transform="translate(0 38.373438)scale(0.7)" xlink:href="#Cmr10-31"/>
       <use transform="translate(0 -39.503125)scale(0.7)" xlink:href="#Cmr10-32"/>
       <path d="M 0 13.373437 
L 0 19.623437 
L 35 19.623437 
L 35 13.373437 
L 0 13.373437 
z
"/>
      </g>
     </g>
    </g>
    <g id="ytick_3">
     <g id="line2d_21">
      <path clip-path="url(#p25c4db7aac)" d="M 65.401269 80.980935 
L 395.398731 80.980935 
" style="fill:none;stroke:#000000;stroke-dasharray:0.5,0.825;stroke-dashoffset:0;stroke-width:0.5;"/>
     </g>
     <g id="line2d_22">
      <g>
       <use style="stroke:#000000;stroke-width:0.8;" x="143.862204" xlink:href="#ma3033385d7" y="80.980935"/>
      </g>
     </g>
     <g id="text_4">
      <!-- $1$ -->
      <g transform="translate(131.862204 84.780154)scale(0.1 -0.1)">
       <use transform="translate(0 0.390625)" xlink:href="#Cmr10-31"/>
      </g>
     </g>
    </g>
   </g>
   <g id="line2d_23">
    <path clip-path="url(#p25c4db7aac)" d="M 143.862204 321.363701 
L 143.862204 201.172318 
" style="fill:none;stroke:#00fa9a;stroke-linecap:square;stroke-width:2;"/>
   </g>
   <g id="line2d_24">
    <path clip-path="url(#p25c4db7aac)" d="M 143.862204 321.363701 
L 264.053587 321.363701 
" style="fill:none;stroke:#00fa9a;stroke-linecap:square;stroke-width:2;"/>
   </g>
   <g id="line2d_25">
    <path clip-path="url(#p25c4db7aac)" d="M 143.862204 201.172318 
L 143.862204 80.980935 
" style="fill:none;stroke:#00fa9a;stroke-linecap:square;stroke-width:2;"/>
   </g>
   <g id="line2d_26">
    <path clip-path="url(#p25c4db7aac)" d="M 264.053587 321.363701 
L 384.24497 321.363701 
" style="fill:none;stroke:#00fa9a;stroke-linecap:square;stroke-width:2;"/>
   </g>
   <g id="line2d_27">
    <path clip-path="url(#p25c4db7aac)" d="M 264.053587 321.363701 
L 264.053587 201.172318 
" style="fill:none;stroke:#00fa9a;stroke-linecap:square;stroke-width:2;"/>
   </g>
   <g id="line2d_28">
    <path clip-path="url(#p25c4db7aac)" d="M 143.862204 201.172318 
L 264.053587 201.172318 
" style="fill:none;stroke:#00fa9a;stroke-linecap:square;stroke-width:2;"/>
   </g>
   <g id="line2d_29">
    <path clip-path="url(#p25c4db7aac)" d="M 143.862204 201.172318 
L 264.053587 321.363701 
" style="fill:none;stroke:#00fa9a;stroke-linecap:square;stroke-width:2;"/>
   </g>
   <g id="line2d_30">
    <path clip-path="url(#p25c4db7aac)" d="M 143.862204 80.980935 
L 264.053587 201.172318 
" style="fill:none;stroke:#00fa9a;stroke-linecap:square;stroke-width:2;"/>
   </g>
   <g id="line2d_31">
    <path clip-path="url(#p25c4db7aac)" d="M 264.053587 201.172318 
L 384.24497 321.363701 
" style="fill:none;stroke:#00fa9a;stroke-linecap:square;stroke-width:2;"/>
   </g>
   <g id="line2d_32">
    <path clip-path="url(#p25c4db7aac)" d="M 143.862204 201.172318 
L 264.053587 321.363701 
" style="fill:none;stroke:#808080;stroke-linecap:square;"/>
   </g>
   <g id="line2d_33">
    <path clip-path="url(#p25c4db7aac)" d="M 143.862204 80.980935 
L 384.24497 321.363701 
" style="fill:none;stroke:#808080;stroke-linecap:square;"/>
   </g>
   <g id="line2d_34">
    <path clip-path="url(#p25c4db7aac)" d="M 143.862204 321.363701 
L 384.24497 321.363701 
L 384.24497 321.363701 
" style="fill:none;stroke:#808080;stroke-linecap:square;"/>
   </g>
   <g id="line2d_35">
    <path clip-path="url(#p25c4db7aac)" d="M 143.862204 201.172318 
L 144.718732 201.172318 
L 145.2026 201.172318 
L 145.796081 201.172318 
L 146.032192 201.172318 
L 146.919542 201.172318 
L 147.735682 201.172318 
L 147.887166 201.172318 
L 148.985955 201.172318 
L 149.395761 201.172318 
L 149.649679 201.172318 
L 150.464995 201.172318 
L 150.849037 201.172318 
L 151.768167 201.172318 
L 152.469385 201.172318 
L 152.658262 201.172318 
L 153.749981 201.172318 
L 154.40666 201.172318 
L 154.799496 201.172318 
L 155.560317 201.172318 
L 156.206194 201.172318 
L 156.631629 201.172318 
L 157.426802 201.172318 
L 157.959447 201.172318 
L 158.104212 201.172318 
L 159.072044 201.172318 
L 159.571339 201.172318 
L 160.245664 201.172318 
L 160.822082 201.172318 
L 161.129259 201.172318 
L 161.807625 201.172318 
L 162.845292 201.172318 
L 163.288805 201.172318 
L 163.901966 201.172318 
L 164.637862 201.172318 
L 165.29073 201.172318 
L 165.567974 201.172318 
L 166.499542 201.172318 
L 166.679494 201.172318 
L 167.17647 201.172318 
L 167.809588 201.172318 
L 168.419131 201.172318 
L 169.433385 201.172318 
L 169.764395 201.172318 
L 170.38283 201.172318 
L 170.868579 201.172318 
L 171.354939 201.172318 
L 172.548407 201.172318 
L 173.042618 201.172318 
L 173.253571 201.172318 
L 173.8313 201.172318 
L 174.505605 201.172318 
L 175.362779 201.172318 
L 175.735253 201.172318 
L 176.369399 201.172318 
L 176.88617 201.172318 
L 177.594678 201.172318 
L 177.99212 201.172318 
L 178.770972 201.172318 
L 179.519472 201.172318 
L 179.799468 201.172318 
L 180.739139 201.172318 
L 181.579048 201.172318 
L 181.805737 201.172318 
L 182.604065 201.172318 
L 183.28838 201.172318 
L 183.937951 201.172318 
L 184.60161 201.172318 
L 185.131529 201.172318 
L 185.652258 201.172318 
L 185.967638 201.172318 
L 186.591127 201.172318 
L 187.402553 201.172318 
L 187.726209 201.172318 
L 188.839305 201.172318 
L 189.130131 201.172318 
L 189.509175 201.172318 
L 190.076638 201.172318 
L 191.205848 201.172318 
L 191.829831 201.172318 
L 192.368586 201.172318 
L 192.954209 201.172318 
L 193.246346 201.172318 
L 193.729823 201.172318 
L 194.609507 201.172318 
L 195.347076 201.172318 
L 195.686531 201.172318 
L 196.509259 201.172318 
L 197.18664 201.172318 
L 197.67975 201.172318 
L 198.350631 201.172318 
L 198.643237 201.172318 
L 199.675848 201.172318 
L 200.044694 201.172318 
L 200.465976 201.172318 
L 201.372788 201.172318 
L 201.800239 201.172318 
L 202.321216 201.172318 
L 202.901642 201.172318 
L 203.623615 201.172318 
L 204.321984 201.172318 
L 205.104865 201.172318 
L 205.313388 201.172318 
L 206.258222 201.172318 
L 206.667565 201.172318 
" style="fill:none;stroke:#808080;stroke-linecap:square;"/>
   </g>
   <g id="line2d_36">
    <path clip-path="url(#p25c4db7aac)" d="M 208.711712 201.172318 
L 209.274284 201.172318 
L 209.962389 201.172318 
L 210.081225 201.172318 
L 210.841464 201.172318 
L 211.209518 201.172318 
L 211.818137 201.172318 
L 213.008069 201.172318 
L 213.370967 201.172318 
L 214.16351 201.172318 
L 214.659322 201.172318 
L 215.390368 201.172318 
L 215.646053 201.172318 
L 216.591276 201.172318 
L 216.770479 201.172318 
L 217.573014 201.172318 
L 218.451925 201.172318 
L 218.895807 201.172318 
L 219.138962 201.172318 
L 219.672101 201.172318 
L 220.292387 201.172318 
L 220.922355 201.172318 
L 221.829031 201.172318 
L 222.14865 201.172318 
L 222.933232 201.172318 
L 223.888112 201.172318 
L 224.087912 201.172318 
L 224.524713 201.172318 
L 225.613622 201.172318 
L 226.276055 201.172318 
L 226.76502 201.172318 
L 227.495015 201.172318 
L 228.033427 201.172318 
L 228.265419 201.172318 
L 229.276734 201.172318 
L 229.452258 201.172318 
L 230.003864 201.172318 
L 231.049374 201.172318 
L 231.374821 201.172318 
L 232.001268 201.172318 
L 232.732443 201.172318 
L 233.469883 201.172318 
L 233.920922 201.172318 
L 234.597347 201.172318 
L 234.980338 201.172318 
L 235.588663 201.172318 
L 236.382643 201.172318 
L 237.034523 201.172318 
L 237.49579 201.172318 
L 238.348981 201.172318 
L 238.967309 201.172318 
L 239.573811 201.172318 
L 239.645814 201.172318 
L 240.563586 201.172318 
L 241.245094 201.172318 
L 241.947582 201.172318 
L 242.374079 201.172318 
L 242.841352 201.172318 
L 243.790125 201.172318 
L 244.250807 201.172318 
L 244.727238 201.172318 
L 245.088201 201.172318 
L 246.173063 201.172318 
L 246.242457 201.172318 
L 247.378653 201.172318 
L 247.768359 201.172318 
L 248.249241 201.172318 
L 248.75899 201.172318 
L 249.495015 201.172318 
L 250.225811 201.172318 
L 250.555301 201.172318 
L 251.29212 201.172318 
L 251.869535 201.172318 
L 252.297972 201.172318 
L 253.041499 201.172318 
L 253.500356 201.172318 
L 254.323669 201.172318 
L 254.73841 201.172318 
L 255.835495 201.172318 
L 256.29147 201.172318 
L 256.595168 201.172318 
L 257.655876 201.172318 
L 257.82622 201.172318 
L 258.362514 201.172318 
L 259.0392 201.172318 
L 259.60665 201.172318 
L 260.435977 201.172318 
L 261.000927 201.172318 
L 261.836472 201.172318 
L 262.207228 201.172318 
L 262.828319 201.172318 
L 263.664188 201.172318 
L 264.053587 201.172318 
" style="fill:none;stroke:#808080;stroke-linecap:square;"/>
   </g>
   <g id="line2d_37">
    <path clip-path="url(#p25c4db7aac)" d="M 143.862204 321.363701 
L 143.862204 80.980935 
L 143.862204 80.980935 
" style="fill:none;stroke:#808080;stroke-linecap:square;"/>
   </g>
   <g id="line2d_38">
    <path clip-path="url(#p25c4db7aac)" d="M 264.053587 321.363701 
L 264.053587 201.172318 
L 264.053587 201.172318 
" style="fill:none;stroke:#808080;stroke-linecap:square;"/>
   </g>
   <g id="patch_15">
    <path d="M 143.862204 332.517462 
L 143.862204 2.52 
" style="fill:none;stroke:#000000;stroke-linecap:square;stroke-linejoin:miter;stroke-width:0.8;"/>
   </g>
   <g id="patch_16">
    <path d="M 65.401269 321.363701 
L 395.398731 321.363701 
" style="fill:none;stroke:#000000;stroke-linecap:square;stroke-linejoin:miter;stroke-width:0.8;"/>
   </g>
  </g>
 </g>
 <defs>
  <clipPath id="p25c4db7aac">
   <rect height="329.997462" width="329.997462" x="65.401269" y="2.52"/>
  </clipPath>
 </defs>
</svg>
