<?xml version="1.0" encoding="utf-8" standalone="no"?>
<!DOCTYPE svg PUBLIC "-//W3C//DTD SVG 1.1//EN"
  "http://www.w3.org/Graphics/SVG/1.1/DTD/svg11.dtd">
<!-- Created with matplotlib (http://matplotlib.org/) -->
<svg height="108pt" version="1.1" viewBox="0 0 576 108" width="576pt" xmlns="http://www.w3.org/2000/svg" xmlns:xlink="http://www.w3.org/1999/xlink">
 <defs>
  <style type="text/css">
*{stroke-linecap:butt;stroke-linejoin:round;}
  </style>
 </defs>
 <g id="figure_1">
  <g id="patch_1">
   <path d="M 0 108 
L 576 108 
L 576 0 
L 0 0 
z
" style="fill:#ffffff;"/>
  </g>
  <g id="axes_1">
   <g id="patch_2">
    <path d="M 4.074135 87.704405 
L 573.48 87.704405 
L 573.48 16.528672 
L 4.074135 16.528672 
z
" style="fill:#ffffff;"/>
   </g>
   <g id="line2d_1">
    <path clip-path="url(#p4b496d9d8a)" d="M 15.024247 86.335641 
L 35.302234 61.008116 
L 35.302234 61.008116 
" style="fill:none;stroke:#ff0000;stroke-linecap:square;stroke-width:2;"/>
   </g>
   <g id="line2d_2">
    <path clip-path="url(#p4b496d9d8a)" d="M 55.580221 64.780301 
L 75.858207 39.452776 
L 75.858207 39.452776 
" style="fill:none;stroke:#ff0000;stroke-linecap:square;stroke-width:2;"/>
   </g>
   <g id="line2d_3">
    <path clip-path="url(#p4b496d9d8a)" d="M 96.136194 43.224961 
L 116.414181 17.897436 
L 116.414181 17.897436 
" style="fill:none;stroke:#ff0000;stroke-linecap:square;stroke-width:2;"/>
   </g>
   <g id="line2d_4">
    <path clip-path="url(#p4b496d9d8a)" d="M 136.692167 65.319184 
L 156.970154 39.99166 
L 156.970154 39.99166 
" style="fill:none;stroke:#ff0000;stroke-linecap:square;stroke-width:2;"/>
   </g>
   <g id="line2d_5">
    <path clip-path="url(#p4b496d9d8a)" d="M 521.973914 64.241417 
L 542.251901 38.913893 
L 542.251901 38.913893 
" style="fill:none;stroke:#ff0000;stroke-linecap:square;stroke-width:2;"/>
   </g>
   <g id="line2d_6">
    <path clip-path="url(#p4b496d9d8a)" d="M 116.414181 17.897436 
L 116.554018 18.224456 
L 116.622711 18.3851 
L 116.67299 18.502684 
L 116.857246 18.933582 
L 116.901709 19.03756 
L 117.019587 19.313228 
L 117.150949 19.620429 
" style="fill:none;stroke:#ffff00;stroke-linecap:square;stroke-width:2;"/>
   </g>
   <g id="line2d_7">
    <path clip-path="url(#p4b496d9d8a)" d="M 117.464919 20.354673 
L 136.692167 65.319184 
L 136.692167 65.319184 
" style="fill:none;stroke:#ffff00;stroke-linecap:square;stroke-width:2;"/>
   </g>
   <g id="line2d_8">
    <path clip-path="url(#p4b496d9d8a)" d="M 542.251901 38.913893 
L 562.529887 86.335641 
L 562.529887 86.335641 
" style="fill:none;stroke:#ffff00;stroke-linecap:square;stroke-width:2;"/>
   </g>
   <g id="line2d_9">
    <path clip-path="url(#p4b496d9d8a)" d="M 197.526127 62.085883 
L 238.082101 55.080398 
L 238.082101 55.080398 
" style="fill:none;stroke:#00ff00;stroke-linecap:square;stroke-width:2;"/>
   </g>
   <g id="line2d_10">
    <path clip-path="url(#p4b496d9d8a)" d="M 278.638074 33.525058 
L 298.916061 30.022315 
L 298.916061 30.022315 
" style="fill:none;stroke:#00ff00;stroke-linecap:square;stroke-width:2;"/>
   </g>
   <g id="line2d_11">
    <path clip-path="url(#p4b496d9d8a)" d="M 380.028007 74.210762 
L 380.117824 74.195248 
L 380.273983 74.168273 
L 380.351557 74.154873 
L 380.433399 74.140736 
L 380.566114 74.117812 
L 380.658149 74.101914 
L 380.741104 74.087584 
L 380.872996 74.064802 
L 380.988404 74.044867 
L 381.00766 74.041541 
L 381.103221 74.025034 
L 381.211547 74.006322 
L 381.33817 73.98445 
L 381.471525 73.961414 
L 381.512429 73.954349 
L 381.693545 73.923063 
L 381.719185 73.918634 
L 381.813286 73.90238 
L 381.986582 73.872445 
L 382.038102 73.863546 
L 382.154042 73.843519 
L 382.259569 73.825291 
L 382.384489 73.803712 
L 382.426556 73.796446 
L 382.60486 73.765646 
L 382.653008 73.757329 
L 382.828708 73.72698 
L 382.894239 73.71566 
L 382.956568 73.704894 
L 383.089765 73.681886 
L 383.152951 73.670971 
L 383.278553 73.649275 
L 383.364719 73.634391 
L 383.48898 73.612927 
L 383.558792 73.600868 
L 383.650324 73.585057 
L 383.810696 73.557355 
L 383.931255 73.53653 
L 384.029012 73.519644 
L 384.101073 73.507196 
L 384.213901 73.487707 
L 384.332514 73.467218 
L 384.443437 73.448057 
L 384.494748 73.439194 
L 384.579523 73.424551 
L 384.749038 73.395269 
L 384.82284 73.382521 
L 384.874499 73.373597 
L 384.970883 73.356949 
L 385.146835 73.326555 
L 385.208017 73.315987 
L 385.362531 73.289297 
L 385.404992 73.281962 
L 385.554003 73.256223 
L 385.627473 73.243531 
L 385.697527 73.231431 
L 385.830472 73.208466 
L 385.956881 73.186631 
L 386.026361 73.174629 
L 386.191686 73.146072 
L 386.258881 73.134465 
L 386.383169 73.112995 
L 386.482924 73.095764 
L 386.505028 73.091946 
L 386.692596 73.059546 
L 386.800697 73.040873 
L 386.8082 73.039577 
L 386.919836 73.020294 
L 387.050212 72.997773 
L 387.11323 72.986888 
L 387.311004 72.952725 
L 387.333988 72.948755 
L 387.417309 72.934362 
L 387.522885 72.916125 
" style="fill:none;stroke:#00ff00;stroke-linecap:square;stroke-width:2;"/>
   </g>
   <g id="line2d_12">
    <path clip-path="url(#p4b496d9d8a)" d="M 387.846854 72.860164 
L 387.92826 72.846102 
L 388.038428 72.827072 
L 388.204613 72.798366 
L 388.250576 72.790427 
L 388.356172 72.772186 
L 388.461454 72.754 
L 388.563015 72.736457 
L 388.712301 72.71067 
L 388.815441 72.692854 
L 388.868026 72.683771 
L 388.977507 72.664859 
L 389.105573 72.642738 
L 389.162504 72.632904 
L 389.319569 72.605773 
L 389.450649 72.583131 
L 389.542667 72.567236 
L 389.572059 72.562159 
L 389.709862 72.538355 
L 389.788523 72.524767 
L 389.90392 72.504834 
L 390.026924 72.483587 
L 390.153107 72.461791 
L 390.195941 72.454392 
L 390.364888 72.425208 
L 390.387709 72.421266 
L 390.475746 72.406059 
L 390.644791 72.376859 
L 390.728079 72.362472 
L 390.872531 72.33752 
L 390.912919 72.330544 
L 391.066244 72.304059 
L 391.092301 72.299558 
L 391.273395 72.268276 
L 391.329421 72.258599 
L 391.43802 72.23984 
L 391.551921 72.220165 
L 391.605638 72.210886 
L 391.757459 72.184661 
L 391.89373 72.161122 
L 391.92713 72.155353 
L 392.070154 72.130647 
L 392.155151 72.115965 
L 392.274196 72.095402 
L 392.353702 72.081668 
L 392.476858 72.060395 
L 392.524091 72.052236 
L 392.678159 72.025623 
L 392.7246 72.017601 
L 392.906935 71.986105 
L 392.999586 71.970101 
L 393.078939 71.956393 
L 393.137145 71.946339 
L 393.300148 71.918183 
L 393.406874 71.899747 
L 393.475125 71.887958 
L 393.609438 71.864757 
L 393.721275 71.845439 
L 393.745922 71.841181 
L 393.899278 71.814691 
L 393.988307 71.799313 
L 394.110534 71.7782 
L 394.152467 71.770956 
L 394.276427 71.749544 
L 394.424594 71.72395 
L 394.5394 71.704119 
L 394.628654 71.688702 
L 394.707116 71.675148 
L 394.756142 71.66668 
L 394.952277 71.6328 
L 394.987508 71.626715 
L 395.096527 71.607883 
L 395.186397 71.592359 
L 395.329895 71.567572 
L 395.386917 71.557722 
L 395.55154 71.529286 
L 395.570865 71.525948 
L 395.694695 71.504558 
L 395.871146 71.474078 
L 395.876449 71.473162 
L 395.984024 71.45458 
L 396.125257 71.430184 
L 396.227532 71.412518 
L 396.281641 71.403171 
L 396.454625 71.37329 
L 396.575289 71.352447 
L 396.650887 71.339389 
L 396.716716 71.328018 
L 396.874301 71.300797 
L 396.93721 71.28993 
L 397.058029 71.26906 
L 397.181008 71.247818 
L 397.294922 71.22814 
L 397.390447 71.21164 
L 397.446 71.202044 
L 397.550575 71.18398 
L 397.627116 71.170759 
L 397.802171 71.14052 
L 397.90824 71.122198 
L 397.987281 71.108545 
L 398.036698 71.100009 
L 398.173115 71.076445 
L 398.302814 71.054041 
L 398.330611 71.04924 
L 398.497969 71.020331 
L 398.565067 71.008741 
L 398.684841 70.988051 
L 398.746953 70.977322 
L 398.836786 70.961805 
L 399.010181 70.931853 
L 399.075423 70.920584 
L 399.201076 70.898879 
L 399.297292 70.882259 
L 399.397525 70.864945 
L 399.533608 70.841438 
L 399.579383 70.833531 
L 399.73413 70.806801 
L 399.77069 70.800486 
L 399.87896 70.781783 
L 400.016217 70.758074 
L 400.150947 70.734802 
L 400.224181 70.722151 
L 400.305994 70.708019 
" style="fill:none;stroke:#00ff00;stroke-linecap:square;stroke-width:2;"/>
   </g>
   <g id="line2d_13">
    <path clip-path="url(#p4b496d9d8a)" d="M 440.861967 49.152679 
L 481.417941 42.147194 
L 481.417941 42.147194 
" style="fill:none;stroke:#00ff00;stroke-linecap:square;stroke-width:2;"/>
   </g>
   <g id="line2d_14">
    <path clip-path="url(#p4b496d9d8a)" d="M 238.082101 55.080398 
L 278.638074 33.525058 
L 278.638074 33.525058 
" style="fill:none;stroke:#00ffff;stroke-linecap:square;stroke-width:2;"/>
   </g>
   <g id="line2d_15">
    <path clip-path="url(#p4b496d9d8a)" d="M 400.305994 70.708019 
L 440.861967 49.152679 
L 440.861967 49.152679 
" style="fill:none;stroke:#00ffff;stroke-linecap:square;stroke-width:2;"/>
   </g>
   <g id="line2d_16">
    <path clip-path="url(#p4b496d9d8a)" d="M 35.302234 61.008116 
L 55.580221 64.780301 
L 55.580221 64.780301 
" style="fill:none;stroke:#0000ff;stroke-linecap:square;stroke-width:2;"/>
   </g>
   <g id="line2d_17">
    <path clip-path="url(#p4b496d9d8a)" d="M 75.858207 39.452776 
L 96.136194 43.224961 
L 96.136194 43.224961 
" style="fill:none;stroke:#0000ff;stroke-linecap:square;stroke-width:2;"/>
   </g>
   <g id="line2d_18">
    <path clip-path="url(#p4b496d9d8a)" d="M 156.970154 39.99166 
L 197.526127 62.085883 
L 197.526127 62.085883 
" style="fill:none;stroke:#ff00ff;stroke-linecap:square;stroke-width:2;"/>
   </g>
   <g id="line2d_19">
    <path clip-path="url(#p4b496d9d8a)" d="M 298.916061 30.022315 
L 380.028007 74.210762 
L 380.028007 74.210762 
" style="fill:none;stroke:#ff00ff;stroke-linecap:square;stroke-width:2;"/>
   </g>
   <g id="line2d_20">
    <path clip-path="url(#p4b496d9d8a)" d="M 481.417941 42.147194 
L 521.973914 64.241417 
L 521.973914 64.241417 
" style="fill:none;stroke:#ff00ff;stroke-linecap:square;stroke-width:2;"/>
   </g>
   <g id="matplotlib.axis_1">
    <g id="xtick_1">
     <g id="line2d_21">
      <path clip-path="url(#p4b496d9d8a)" d="M 15.024247 87.704405 
L 15.024247 16.528672 
" style="fill:none;stroke:#000000;stroke-dasharray:0.5,0.825;stroke-dashoffset:0;stroke-width:0.5;"/>
     </g>
     <g id="line2d_22">
      <defs>
       <path d="M 0 0 
L 0 3.5 
" id="m0a2f58458a" style="stroke:#000000;stroke-width:0.8;"/>
      </defs>
      <g>
       <use style="stroke:#000000;stroke-width:0.8;" x="15.024247" xlink:href="#m0a2f58458a" y="86.335641"/>
      </g>
     </g>
    </g>
    <g id="xtick_2">
     <g id="line2d_23">
      <path clip-path="url(#p4b496d9d8a)" d="M 116.414181 87.704405 
L 116.414181 16.528672 
" style="fill:none;stroke:#000000;stroke-dasharray:0.5,0.825;stroke-dashoffset:0;stroke-width:0.5;"/>
     </g>
     <g id="line2d_24">
      <g>
       <use style="stroke:#000000;stroke-width:0.8;" x="116.414181" xlink:href="#m0a2f58458a" y="86.335641"/>
      </g>
     </g>
     <g id="text_1">
      <!-- $f$ -->
      <defs>
       <path d="M 9.71875 -16.5 
Q 11.578125 -17.921875 14.203125 -17.921875 
Q 17.78125 -17.921875 20.015625 -10.015625 
Q 20.953125 -6.203125 25.09375 15.09375 
L 29.6875 39.59375 
L 21.09375 39.59375 
Q 20.125 39.59375 20.125 40.921875 
Q 20.515625 43.109375 21.390625 43.109375 
L 30.328125 43.109375 
L 31.5 49.609375 
Q 32.078125 52.640625 32.5625 54.8125 
Q 33.0625 56.984375 33.625 58.828125 
Q 34.1875 60.6875 35.296875 62.984375 
Q 37.015625 66.265625 39.921875 68.390625 
Q 42.828125 70.515625 46.1875 70.515625 
Q 48.390625 70.515625 50.46875 69.703125 
Q 52.546875 68.890625 53.859375 67.28125 
Q 55.171875 65.671875 55.171875 63.484375 
Q 55.171875 60.9375 53.484375 59.046875 
Q 51.8125 57.171875 49.421875 57.171875 
Q 47.796875 57.171875 46.65625 58.171875 
Q 45.515625 59.1875 45.515625 60.796875 
Q 45.515625 62.984375 47 64.625 
Q 48.484375 66.265625 50.6875 66.5 
Q 48.828125 67.921875 46.09375 67.921875 
Q 44.578125 67.921875 43.234375 66.5 
Q 41.890625 65.09375 41.5 63.484375 
Q 40.875 60.9375 38.71875 49.703125 
L 37.5 43.109375 
L 47.796875 43.109375 
Q 48.78125 43.109375 48.78125 41.796875 
Q 48.734375 41.546875 48.578125 40.9375 
Q 48.4375 40.328125 48.171875 39.953125 
Q 47.90625 39.59375 47.515625 39.59375 
L 36.8125 39.59375 
L 32.171875 15.1875 
Q 31.296875 9.859375 30.140625 4.359375 
Q 29 -1.125 26.921875 -6.90625 
Q 24.859375 -12.703125 21.625 -16.609375 
Q 18.40625 -20.515625 14.015625 -20.515625 
Q 10.640625 -20.515625 7.984375 -18.578125 
Q 5.328125 -16.65625 5.328125 -13.484375 
Q 5.328125 -10.9375 6.953125 -9.046875 
Q 8.59375 -7.171875 11.078125 -7.171875 
Q 12.75 -7.171875 13.859375 -8.171875 
Q 14.984375 -9.1875 14.984375 -10.796875 
Q 14.984375 -12.9375 13.390625 -14.71875 
Q 11.8125 -16.5 9.71875 -16.5 
z
" id="Cmmi10-66"/>
      </defs>
      <g transform="translate(113.964181 100.913766)scale(0.1 -0.1)">
       <use transform="translate(0 0.484375)" xlink:href="#Cmmi10-66"/>
      </g>
     </g>
    </g>
    <g id="xtick_3">
     <g id="line2d_25">
      <path clip-path="url(#p4b496d9d8a)" d="M 562.529887 87.704405 
L 562.529887 16.528672 
" style="fill:none;stroke:#000000;stroke-dasharray:0.5,0.825;stroke-dashoffset:0;stroke-width:0.5;"/>
     </g>
     <g id="line2d_26">
      <g>
       <use style="stroke:#000000;stroke-width:0.8;" x="562.529887" xlink:href="#m0a2f58458a" y="86.335641"/>
      </g>
     </g>
     <g id="text_2">
      <!-- $1$ -->
      <defs>
       <path d="M 9.28125 0 
L 9.28125 3.515625 
Q 21.78125 3.515625 21.78125 6.6875 
L 21.78125 59.1875 
Q 16.609375 56.6875 8.6875 56.6875 
L 8.6875 60.203125 
Q 20.953125 60.203125 27.203125 66.609375 
L 28.609375 66.609375 
Q 28.953125 66.609375 29.265625 66.328125 
Q 29.59375 66.0625 29.59375 65.71875 
L 29.59375 6.6875 
Q 29.59375 3.515625 42.09375 3.515625 
L 42.09375 0 
z
" id="Cmr10-31"/>
      </defs>
      <g transform="translate(560.029887 100.934078)scale(0.1 -0.1)">
       <use transform="translate(0 0.390625)" xlink:href="#Cmr10-31"/>
      </g>
     </g>
    </g>
   </g>
   <g id="matplotlib.axis_2">
    <g id="ytick_1">
     <g id="line2d_27">
      <path clip-path="url(#p4b496d9d8a)" d="M 4.074135 86.335641 
L 573.48 86.335641 
" style="fill:none;stroke:#000000;stroke-dasharray:0.5,0.825;stroke-dashoffset:0;stroke-width:0.5;"/>
     </g>
     <g id="line2d_28">
      <defs>
       <path d="M 0 0 
L -3.5 0 
" id="mc90aa96515" style="stroke:#000000;stroke-width:0.8;"/>
      </defs>
      <g>
       <use style="stroke:#000000;stroke-width:0.8;" x="15.024247" xlink:href="#mc90aa96515" y="86.335641"/>
      </g>
     </g>
    </g>
    <g id="ytick_2">
     <g id="line2d_29">
      <path clip-path="url(#p4b496d9d8a)" d="M 4.074135 17.897436 
L 573.48 17.897436 
" style="fill:none;stroke:#000000;stroke-dasharray:0.5,0.825;stroke-dashoffset:0;stroke-width:0.5;"/>
     </g>
     <g id="line2d_30">
      <g>
       <use style="stroke:#000000;stroke-width:0.8;" x="15.024247" xlink:href="#mc90aa96515" y="17.897436"/>
      </g>
     </g>
     <g id="text_3">
      <!-- $1$ -->
      <g transform="translate(3.024247 21.696655)scale(0.1 -0.1)">
       <use transform="translate(0 0.390625)" xlink:href="#Cmr10-31"/>
      </g>
     </g>
    </g>
   </g>
   <g id="patch_3">
    <path d="M 15.024247 87.704405 
L 15.024247 16.528672 
" style="fill:none;stroke:#000000;stroke-linecap:square;stroke-linejoin:miter;stroke-width:0.8;"/>
   </g>
   <g id="patch_4">
    <path d="M 4.074135 86.335641 
L 573.48 86.335641 
" style="fill:none;stroke:#000000;stroke-linecap:square;stroke-linejoin:miter;stroke-width:0.8;"/>
   </g>
  </g>
 </g>
 <defs>
  <clipPath id="p4b496d9d8a">
   <rect height="71.175733" width="569.405865" x="4.074135" y="16.528672"/>
  </clipPath>
 </defs>
</svg>
