<?xml version="1.0" encoding="utf-8" standalone="no"?>
<!DOCTYPE svg PUBLIC "-//W3C//DTD SVG 1.1//EN"
  "http://www.w3.org/Graphics/SVG/1.1/DTD/svg11.dtd">
<!-- Created with matplotlib (http://matplotlib.org/) -->
<svg height="108pt" version="1.1" viewBox="0 0 576 108" width="576pt" xmlns="http://www.w3.org/2000/svg" xmlns:xlink="http://www.w3.org/1999/xlink">
 <defs>
  <style type="text/css">
*{stroke-linecap:butt;stroke-linejoin:round;}
  </style>
 </defs>
 <g id="figure_1">
  <g id="patch_1">
   <path d="M 0 108 
L 576 108 
L 576 0 
L 0 0 
z
" style="fill:#ffffff;"/>
  </g>
  <g id="axes_1">
   <g id="patch_2">
    <path d="M 4.074135 87.704405 
L 573.48 87.704405 
L 573.48 16.528672 
L 4.074135 16.528672 
z
" style="fill:#ffffff;"/>
   </g>
   <g id="line2d_1">
    <path clip-path="url(#pade07e31aa)" d="M 256.570853 45.921701 
L 272.67396 53.5915 
L 272.67396 53.5915 
" style="fill:none;stroke:#ff0000;stroke-linecap:square;stroke-width:2;"/>
   </g>
   <g id="line2d_2">
    <path clip-path="url(#pade07e31aa)" d="M 288.777067 41.201825 
L 320.983281 56.541422 
L 320.983281 56.541422 
" style="fill:none;stroke:#ff0000;stroke-linecap:square;stroke-width:2;"/>
   </g>
   <g id="line2d_3">
    <path clip-path="url(#pade07e31aa)" d="M 337.086388 69.22609 
L 353.189496 76.895889 
L 353.189496 76.895889 
" style="fill:none;stroke:#ff0000;stroke-linecap:square;stroke-width:2;"/>
   </g>
   <g id="line2d_4">
    <path clip-path="url(#pade07e31aa)" d="M 417.601924 27.337188 
L 433.705031 35.006987 
L 433.705031 35.006987 
" style="fill:none;stroke:#ff0000;stroke-linecap:square;stroke-width:2;"/>
   </g>
   <g id="line2d_5">
    <path clip-path="url(#pade07e31aa)" d="M 449.808138 47.691655 
L 482.014352 63.031252 
L 482.014352 63.031252 
" style="fill:none;stroke:#ff0000;stroke-linecap:square;stroke-width:2;"/>
   </g>
   <g id="line2d_6">
    <path clip-path="url(#pade07e31aa)" d="M 498.117459 50.641577 
L 514.220566 58.311376 
L 514.220566 58.311376 
" style="fill:none;stroke:#ff0000;stroke-linecap:square;stroke-width:2;"/>
   </g>
   <g id="line2d_7">
    <path clip-path="url(#pade07e31aa)" d="M 272.67396 53.5915 
L 288.777067 41.201825 
L 288.777067 41.201825 
" style="fill:none;stroke:#ffda00;stroke-linecap:square;stroke-width:2;"/>
   </g>
   <g id="line2d_8">
    <path clip-path="url(#pade07e31aa)" d="M 353.189496 76.895889 
L 417.601924 27.337188 
L 417.601924 27.337188 
" style="fill:none;stroke:#ffda00;stroke-linecap:square;stroke-width:2;"/>
   </g>
   <g id="line2d_9">
    <path clip-path="url(#pade07e31aa)" d="M 482.014352 63.031252 
L 498.117459 50.641577 
L 498.117459 50.641577 
" style="fill:none;stroke:#ffda00;stroke-linecap:square;stroke-width:2;"/>
   </g>
   <g id="line2d_10">
    <path clip-path="url(#pade07e31aa)" d="M 95.539783 39.431871 
L 127.745997 64.801206 
L 127.745997 64.801206 
" style="fill:none;stroke:#48ff00;stroke-linecap:square;stroke-width:2;"/>
   </g>
   <g id="line2d_11">
    <path clip-path="url(#pade07e31aa)" d="M 320.983281 56.541422 
L 337.086388 69.22609 
L 337.086388 69.22609 
" style="fill:none;stroke:#48ff00;stroke-linecap:square;stroke-width:2;"/>
   </g>
   <g id="line2d_12">
    <path clip-path="url(#pade07e31aa)" d="M 433.705031 35.006987 
L 449.808138 47.691655 
L 449.808138 47.691655 
" style="fill:none;stroke:#48ff00;stroke-linecap:square;stroke-width:2;"/>
   </g>
   <g id="line2d_13">
    <path clip-path="url(#pade07e31aa)" d="M 79.436676 36.776941 
L 95.539783 39.431871 
L 95.539783 39.431871 
" style="fill:none;stroke:#00ff91;stroke-linecap:square;stroke-width:2;"/>
   </g>
   <g id="line2d_14">
    <path clip-path="url(#pade07e31aa)" d="M 127.745997 64.801206 
L 143.849104 67.456136 
L 143.849104 67.456136 
" style="fill:none;stroke:#00ff91;stroke-linecap:square;stroke-width:2;"/>
   </g>
   <g id="line2d_15">
    <path clip-path="url(#pade07e31aa)" d="M 240.467746 43.266771 
L 256.570853 45.921701 
L 256.570853 45.921701 
" style="fill:none;stroke:#00ff91;stroke-linecap:square;stroke-width:2;"/>
   </g>
   <g id="line2d_16">
    <path clip-path="url(#pade07e31aa)" d="M 514.220566 58.311376 
L 530.323673 60.966306 
L 530.323673 60.966306 
" style="fill:none;stroke:#00ff91;stroke-linecap:square;stroke-width:2;"/>
   </g>
   <g id="line2d_17">
    <path clip-path="url(#pade07e31aa)" d="M 31.127354 68.931097 
L 31.19078 68.90205 
L 31.255906 68.872224 
L 31.334615 68.836178 
L 31.452422 68.782225 
L 31.512644 68.754645 
L 31.595478 68.716709 
L 31.712108 68.663295 
L 31.798983 68.623509 
L 31.834823 68.607095 
L 31.89622 68.578977 
L 32.027257 68.518966 
L 32.077392 68.496005 
L 32.180815 68.44864 
L 32.219814 68.430779 
L 32.34065 68.375439 
L 32.402409 68.347155 
L 32.54156 68.283428 
L 32.600363 68.256498 
L 32.67899 68.220488 
L 32.753412 68.186405 
L 32.791541 68.168943 
L 32.878281 68.129218 
L 33.007726 68.069936 
L 33.059358 68.04629 
L 33.150488 68.004554 
L 33.210047 67.977278 
L 33.296741 67.937574 
L 33.413325 67.884182 
L 33.459915 67.862845 
L 33.545312 67.823735 
L 33.601079 67.798196 
L 33.719269 67.744068 
L 33.791966 67.710774 
L 33.896485 67.662907 
L 33.925639 67.649556 
L 34.013932 67.60912 
L 34.155207 67.544419 
L 34.228753 67.510737 
L 34.280263 67.487147 
L 34.376258 67.443184 
L 34.434148 67.416671 
L 34.531547 67.372065 
L 34.571851 67.353607 
L 34.706729 67.291836 
L 34.741583 67.275874 
L 34.825114 67.237619 
L 34.931154 67.189055 
L 34.985157 67.164324 
L 35.072295 67.124417 
L 35.155037 67.086523 
L 35.266471 67.035489 
L 35.302812 67.018846 
L 35.433439 66.959022 
L 35.492457 66.931993 
L 35.559219 66.901418 
L 35.681852 66.845255 
L 35.758503 66.810151 
L 35.852883 66.766928 
L 35.882218 66.753493 
L 35.996397 66.701202 
L 36.067494 66.668641 
L 36.137495 66.636583 
L 36.198162 66.608799 
L 36.320709 66.552675 
L 36.371084 66.529605 
L 36.458284 66.48967 
L 36.5602 66.442995 
L 36.62541 66.41313 
L 36.729693 66.365371 
L 36.756834 66.352941 
L 36.909972 66.282808 
L 36.920994 66.27776 
L 37.054167 66.216771 
L 37.089569 66.200557 
L 37.162393 66.167206 
L 37.255574 66.124531 
L 37.396793 66.059857 
L 37.475739 66.023702 
L 37.557159 65.986413 
L 37.589529 65.971588 
L 37.705844 65.918319 
L 37.758513 65.894198 
L 37.803804 65.873456 
L 37.946356 65.808171 
L 38.026463 65.771484 
L 38.058059 65.757014 
L 38.148243 65.715712 
L 38.215 65.685139 
L 38.36259 65.617547 
L 38.393146 65.603553 
L 38.502524 65.553461 
L 38.5427 65.535061 
L 38.648875 65.486436 
L 38.709687 65.458585 
L 38.819567 65.408263 
L 38.935117 65.355344 
" style="fill:none;stroke:#0091ff;stroke-linecap:square;stroke-width:2;"/>
   </g>
   <g id="line2d_18">
    <path clip-path="url(#pade07e31aa)" d="M 39.128196 65.266919 
L 39.213769 65.227729 
L 39.286531 65.194406 
L 39.417434 65.134456 
L 39.467746 65.111414 
L 39.521714 65.086698 
L 39.595749 65.052792 
L 39.720732 64.995553 
L 39.811525 64.953972 
L 39.906583 64.910438 
L 39.969384 64.881676 
L 40.015509 64.860552 
L 40.070826 64.835219 
L 40.226061 64.764125 
L 40.282834 64.738124 
L 40.346064 64.709167 
L 40.44896 64.662043 
L 40.50827 64.634881 
L 40.618816 64.584253 
L 40.638404 64.575283 
L 40.724442 64.53588 
L 40.859107 64.474207 
L 40.935062 64.439421 
L 41.007831 64.406095 
L 41.081394 64.372405 
L 41.171917 64.330948 
L 41.253481 64.293593 
L 41.291034 64.276395 
L 41.436052 64.20998 
L 41.449623 64.203765 
L 41.569627 64.148807 
L 41.65858 64.108068 
L 41.724708 64.077784 
L 41.791111 64.047373 
L 41.866568 64.012816 
L 41.954574 63.972511 
L 42.076226 63.916797 
L 42.097726 63.906951 
L 42.211523 63.854835 
L 42.264694 63.830484 
L 42.403886 63.766738 
L 42.442917 63.748862 
L 42.545844 63.701725 
L 42.586137 63.683271 
L 42.684068 63.638422 
L 42.815678 63.578148 
L 42.828516 63.572268 
L 42.932906 63.52446 
L 43.03054 63.479746 
L 43.101563 63.44722 
L 43.194982 63.404436 
L 43.242449 63.382697 
L 43.342122 63.33705 
L 43.41549 63.303449 
L 43.510279 63.260038 
L 43.556152 63.23903 
L 43.698799 63.173701 
L 43.754858 63.148027 
L 43.796645 63.12889 
L 43.942802 63.061954 
L 43.996657 63.03729 
L 44.047786 63.013874 
L 44.185686 62.950719 
L 44.241732 62.925052 
L 44.288627 62.903575 
L 44.404032 62.850723 
L 44.468078 62.821391 
L 44.584103 62.768255 
L 44.647298 62.739313 
L 44.713516 62.708987 
L 44.801987 62.66847 
L 44.913019 62.61762 
L 44.943115 62.603837 
L 45.085996 62.538401 
L 45.145227 62.511274 
L 45.176395 62.497 
L 45.292844 62.443669 
L 45.404807 62.392394 
L 45.412915 62.38868 
L 45.498454 62.349505 
L 45.611038 62.297945 
L 45.659884 62.275575 
L 45.736396 62.240534 
L 45.885491 62.172253 
L 45.918335 62.157211 
L 46.054432 62.094882 
L 46.095683 62.07599 
L 46.159308 62.046851 
L 46.277524 61.992711 
L 46.315612 61.975268 
L 46.448666 61.914333 
L 46.461777 61.908328 
L 46.605568 61.842476 
L 46.663451 61.815967 
L 46.779775 61.762693 
L 46.85588 61.72784 
L 46.905659 61.705042 
L 46.959594 61.680341 
L 47.051583 61.638213 
L 47.15918 61.588936 
L 47.230462 61.556291 
" style="fill:none;stroke:#0091ff;stroke-linecap:square;stroke-width:2;"/>
   </g>
   <g id="line2d_19">
    <path clip-path="url(#pade07e31aa)" d="M 63.333569 44.151747 
L 79.436676 36.776941 
L 79.436676 36.776941 
" style="fill:none;stroke:#0091ff;stroke-linecap:square;stroke-width:2;"/>
   </g>
   <g id="line2d_20">
    <path clip-path="url(#pade07e31aa)" d="M 143.849104 67.456136 
L 159.952211 60.08133 
L 159.952211 60.08133 
" style="fill:none;stroke:#0091ff;stroke-linecap:square;stroke-width:2;"/>
   </g>
   <g id="line2d_21">
    <path clip-path="url(#pade07e31aa)" d="M 176.055318 42.676786 
L 192.158425 35.301979 
L 192.158425 35.301979 
" style="fill:none;stroke:#0091ff;stroke-linecap:square;stroke-width:2;"/>
   </g>
   <g id="line2d_22">
    <path clip-path="url(#pade07e31aa)" d="M 15.024247 86.335641 
L 31.127354 68.931097 
L 31.127354 68.931097 
" style="fill:none;stroke:#4800ff;stroke-linecap:square;stroke-width:2;"/>
   </g>
   <g id="line2d_23">
    <path clip-path="url(#pade07e31aa)" d="M 47.230462 61.556291 
L 63.333569 44.151747 
L 63.333569 44.151747 
" style="fill:none;stroke:#4800ff;stroke-linecap:square;stroke-width:2;"/>
   </g>
   <g id="line2d_24">
    <path clip-path="url(#pade07e31aa)" d="M 159.952211 60.08133 
L 176.055318 42.676786 
L 176.055318 42.676786 
" style="fill:none;stroke:#4800ff;stroke-linecap:square;stroke-width:2;"/>
   </g>
   <g id="line2d_25">
    <path clip-path="url(#pade07e31aa)" d="M 192.158425 35.301979 
L 208.261532 17.897436 
L 208.261532 17.897436 
" style="fill:none;stroke:#4800ff;stroke-linecap:square;stroke-width:2;"/>
   </g>
   <g id="line2d_26">
    <path clip-path="url(#pade07e31aa)" d="M 224.364639 60.671314 
L 240.467746 43.266771 
L 240.467746 43.266771 
" style="fill:none;stroke:#4800ff;stroke-linecap:square;stroke-width:2;"/>
   </g>
   <g id="line2d_27">
    <path clip-path="url(#pade07e31aa)" d="M 530.323673 60.966306 
L 546.42678 43.561763 
L 546.42678 43.561763 
" style="fill:none;stroke:#4800ff;stroke-linecap:square;stroke-width:2;"/>
   </g>
   <g id="line2d_28">
    <path clip-path="url(#pade07e31aa)" d="M 208.261532 17.897436 
L 224.364639 60.671314 
L 224.364639 60.671314 
" style="fill:none;stroke:#ff00da;stroke-linecap:square;stroke-width:2;"/>
   </g>
   <g id="line2d_29">
    <path clip-path="url(#pade07e31aa)" d="M 546.42678 43.561763 
L 562.529887 86.335641 
L 562.529887 86.335641 
" style="fill:none;stroke:#ff00da;stroke-linecap:square;stroke-width:2;"/>
   </g>
   <g id="matplotlib.axis_1">
    <g id="xtick_1">
     <g id="line2d_30">
      <path clip-path="url(#pade07e31aa)" d="M 15.024247 87.704405 
L 15.024247 16.528672 
" style="fill:none;stroke:#000000;stroke-dasharray:0.5,0.825;stroke-dashoffset:0;stroke-width:0.5;"/>
     </g>
     <g id="line2d_31">
      <defs>
       <path d="M 0 0 
L 0 3.5 
" id="m003a03e1d1" style="stroke:#000000;stroke-width:0.8;"/>
      </defs>
      <g>
       <use style="stroke:#000000;stroke-width:0.8;" x="15.024247" xlink:href="#m003a03e1d1" y="86.335641"/>
      </g>
     </g>
    </g>
    <g id="xtick_2">
     <g id="line2d_32">
      <path clip-path="url(#pade07e31aa)" d="M 208.261532 87.704405 
L 208.261532 16.528672 
" style="fill:none;stroke:#000000;stroke-dasharray:0.5,0.825;stroke-dashoffset:0;stroke-width:0.5;"/>
     </g>
     <g id="line2d_33">
      <g>
       <use style="stroke:#000000;stroke-width:0.8;" x="208.261532" xlink:href="#m003a03e1d1" y="86.335641"/>
      </g>
     </g>
     <g id="text_1">
      <!-- $f$ -->
      <defs>
       <path d="M 9.71875 -16.5 
Q 11.578125 -17.921875 14.203125 -17.921875 
Q 17.78125 -17.921875 20.015625 -10.015625 
Q 20.953125 -6.203125 25.09375 15.09375 
L 29.6875 39.59375 
L 21.09375 39.59375 
Q 20.125 39.59375 20.125 40.921875 
Q 20.515625 43.109375 21.390625 43.109375 
L 30.328125 43.109375 
L 31.5 49.609375 
Q 32.078125 52.640625 32.5625 54.8125 
Q 33.0625 56.984375 33.625 58.828125 
Q 34.1875 60.6875 35.296875 62.984375 
Q 37.015625 66.265625 39.921875 68.390625 
Q 42.828125 70.515625 46.1875 70.515625 
Q 48.390625 70.515625 50.46875 69.703125 
Q 52.546875 68.890625 53.859375 67.28125 
Q 55.171875 65.671875 55.171875 63.484375 
Q 55.171875 60.9375 53.484375 59.046875 
Q 51.8125 57.171875 49.421875 57.171875 
Q 47.796875 57.171875 46.65625 58.171875 
Q 45.515625 59.1875 45.515625 60.796875 
Q 45.515625 62.984375 47 64.625 
Q 48.484375 66.265625 50.6875 66.5 
Q 48.828125 67.921875 46.09375 67.921875 
Q 44.578125 67.921875 43.234375 66.5 
Q 41.890625 65.09375 41.5 63.484375 
Q 40.875 60.9375 38.71875 49.703125 
L 37.5 43.109375 
L 47.796875 43.109375 
Q 48.78125 43.109375 48.78125 41.796875 
Q 48.734375 41.546875 48.578125 40.9375 
Q 48.4375 40.328125 48.171875 39.953125 
Q 47.90625 39.59375 47.515625 39.59375 
L 36.8125 39.59375 
L 32.171875 15.1875 
Q 31.296875 9.859375 30.140625 4.359375 
Q 29 -1.125 26.921875 -6.90625 
Q 24.859375 -12.703125 21.625 -16.609375 
Q 18.40625 -20.515625 14.015625 -20.515625 
Q 10.640625 -20.515625 7.984375 -18.578125 
Q 5.328125 -16.65625 5.328125 -13.484375 
Q 5.328125 -10.9375 6.953125 -9.046875 
Q 8.59375 -7.171875 11.078125 -7.171875 
Q 12.75 -7.171875 13.859375 -8.171875 
Q 14.984375 -9.1875 14.984375 -10.796875 
Q 14.984375 -12.9375 13.390625 -14.71875 
Q 11.8125 -16.5 9.71875 -16.5 
z
" id="Cmmi10-66"/>
      </defs>
      <g transform="translate(205.811532 100.913766)scale(0.1 -0.1)">
       <use transform="translate(0 0.484375)" xlink:href="#Cmmi10-66"/>
      </g>
     </g>
    </g>
    <g id="xtick_3">
     <g id="line2d_34">
      <path clip-path="url(#pade07e31aa)" d="M 562.529887 87.704405 
L 562.529887 16.528672 
" style="fill:none;stroke:#000000;stroke-dasharray:0.5,0.825;stroke-dashoffset:0;stroke-width:0.5;"/>
     </g>
     <g id="line2d_35">
      <g>
       <use style="stroke:#000000;stroke-width:0.8;" x="562.529887" xlink:href="#m003a03e1d1" y="86.335641"/>
      </g>
     </g>
     <g id="text_2">
      <!-- $1$ -->
      <defs>
       <path d="M 9.28125 0 
L 9.28125 3.515625 
Q 21.78125 3.515625 21.78125 6.6875 
L 21.78125 59.1875 
Q 16.609375 56.6875 8.6875 56.6875 
L 8.6875 60.203125 
Q 20.953125 60.203125 27.203125 66.609375 
L 28.609375 66.609375 
Q 28.953125 66.609375 29.265625 66.328125 
Q 29.59375 66.0625 29.59375 65.71875 
L 29.59375 6.6875 
Q 29.59375 3.515625 42.09375 3.515625 
L 42.09375 0 
z
" id="Cmr10-31"/>
      </defs>
      <g transform="translate(560.029887 100.934078)scale(0.1 -0.1)">
       <use transform="translate(0 0.390625)" xlink:href="#Cmr10-31"/>
      </g>
     </g>
    </g>
   </g>
   <g id="matplotlib.axis_2">
    <g id="ytick_1">
     <g id="line2d_36">
      <path clip-path="url(#pade07e31aa)" d="M 4.074135 86.335641 
L 573.48 86.335641 
" style="fill:none;stroke:#000000;stroke-dasharray:0.5,0.825;stroke-dashoffset:0;stroke-width:0.5;"/>
     </g>
     <g id="line2d_37">
      <defs>
       <path d="M 0 0 
L -3.5 0 
" id="mfaad5c91a8" style="stroke:#000000;stroke-width:0.8;"/>
      </defs>
      <g>
       <use style="stroke:#000000;stroke-width:0.8;" x="15.024247" xlink:href="#mfaad5c91a8" y="86.335641"/>
      </g>
     </g>
    </g>
    <g id="ytick_2">
     <g id="line2d_38">
      <path clip-path="url(#pade07e31aa)" d="M 4.074135 17.897436 
L 573.48 17.897436 
" style="fill:none;stroke:#000000;stroke-dasharray:0.5,0.825;stroke-dashoffset:0;stroke-width:0.5;"/>
     </g>
     <g id="line2d_39">
      <g>
       <use style="stroke:#000000;stroke-width:0.8;" x="15.024247" xlink:href="#mfaad5c91a8" y="17.897436"/>
      </g>
     </g>
     <g id="text_3">
      <!-- $1$ -->
      <g transform="translate(3.024247 21.696655)scale(0.1 -0.1)">
       <use transform="translate(0 0.390625)" xlink:href="#Cmr10-31"/>
      </g>
     </g>
    </g>
   </g>
   <g id="patch_3">
    <path d="M 15.024247 87.704405 
L 15.024247 16.528672 
" style="fill:none;stroke:#000000;stroke-linecap:square;stroke-linejoin:miter;stroke-width:0.8;"/>
   </g>
   <g id="patch_4">
    <path d="M 4.074135 86.335641 
L 573.48 86.335641 
" style="fill:none;stroke:#000000;stroke-linecap:square;stroke-linejoin:miter;stroke-width:0.8;"/>
   </g>
  </g>
 </g>
 <defs>
  <clipPath id="pade07e31aa">
   <rect height="71.175733" width="569.405865" x="4.074135" y="16.528672"/>
  </clipPath>
 </defs>
</svg>
