<?xml version="1.0" encoding="utf-8" standalone="no"?>
<!DOCTYPE svg PUBLIC "-//W3C//DTD SVG 1.1//EN"
  "http://www.w3.org/Graphics/SVG/1.1/DTD/svg11.dtd">
<!-- Created with matplotlib (http://matplotlib.org/) -->
<svg height="108pt" version="1.1" viewBox="0 0 576 108" width="576pt" xmlns="http://www.w3.org/2000/svg" xmlns:xlink="http://www.w3.org/1999/xlink">
 <defs>
  <style type="text/css">
*{stroke-linecap:butt;stroke-linejoin:round;}
  </style>
 </defs>
 <g id="figure_1">
  <g id="patch_1">
   <path d="M 0 108 
L 576 108 
L 576 0 
L 0 0 
z
" style="fill:#ffffff;"/>
  </g>
  <g id="axes_1">
   <g id="patch_2">
    <path d="M 4.074135 87.704405 
L 573.48 87.704405 
L 573.48 16.528672 
L 4.074135 16.528672 
z
" style="fill:#ffffff;"/>
   </g>
   <g id="line2d_1">
    <path clip-path="url(#p935e647273)" d="M 288.777067 17.897436 
L 292.075294 22.459983 
L 292.075294 22.459983 
" style="fill:none;stroke:#ff0000;stroke-linecap:square;stroke-width:2;"/>
   </g>
   <g id="line2d_2">
    <path clip-path="url(#p935e647273)" d="M 424.004364 49.835265 
L 427.302591 54.397812 
L 427.302591 54.397812 
" style="fill:none;stroke:#ff0000;stroke-linecap:square;stroke-width:2;"/>
   </g>
   <g id="line2d_3">
    <path clip-path="url(#p935e647273)" d="M 559.23166 81.773094 
L 562.529887 86.335641 
L 562.529887 86.335641 
" style="fill:none;stroke:#ff0000;stroke-linecap:square;stroke-width:2;"/>
   </g>
   <g id="line2d_4">
    <path clip-path="url(#p935e647273)" d="M 84.287009 36.849554 
L 87.585236 41.061136 
L 87.585236 41.061136 
" style="fill:none;stroke:#ff9900;stroke-linecap:square;stroke-width:2;"/>
   </g>
   <g id="line2d_5">
    <path clip-path="url(#p935e647273)" d="M 90.883463 44.570788 
L 90.904893 44.598153 
L 90.917198 44.613866 
L 90.932452 44.633343 
L 90.94642 44.651179 
L 90.95905 44.667307 
L 90.977615 44.691013 
L 91.006504 44.727903 
L 91.010876 44.733485 
L 91.035696 44.765179 
L 91.046017 44.778357 
L 91.061436 44.798045 
L 91.088174 44.832189 
L 91.101957 44.849788 
L 91.111656 44.862173 
L 91.131093 44.886992 
L 91.150991 44.912401 
L 91.171788 44.938958 
L 91.175078 44.943158 
L 91.196477 44.970482 
L 91.214208 44.993124 
L 91.233637 45.017933 
L 91.251133 45.040274 
L 91.258068 45.04913 
L 91.288142 45.087532 
L 91.303976 45.107751 
L 91.31926 45.127268 
L 91.33876 45.152168 
L 91.349942 45.166447 
L 91.365406 45.186192 
L 91.375677 45.199307 
L 91.38957 45.217047 
L 91.408023 45.240611 
L 91.431149 45.27014 
L 91.448839 45.29273 
L 91.462254 45.30986 
L 91.486724 45.341106 
L 91.490652 45.346122 
L 91.517035 45.379811 
L 91.529578 45.395828 
L 91.539697 45.408748 
L 91.555149 45.428479 
L 91.576698 45.455996 
L 91.60124 45.487335 
L 91.605127 45.492298 
L 91.62138 45.513051 
L 91.652623 45.552946 
L 91.659377 45.561571 
L 91.674621 45.581037 
L 91.696282 45.608696 
L 91.712401 45.629279 
L 91.731994 45.654296 
L 91.751567 45.67929 
L 91.753659 45.681962 
L 91.776346 45.710931 
L 91.801108 45.74255 
L 91.808946 45.752559 
L 91.823308 45.770898 
L 91.84246 45.795354 
L 91.867797 45.827708 
L 91.871571 45.832526 
L 91.891917 45.858506 
L 91.90461 45.874715 
L 91.927357 45.903761 
L 91.949784 45.932398 
L 91.967821 45.95543 
L 91.978766 45.969406 
L 91.986183 45.978876 
L 92.016001 46.016952 
L 92.024949 46.028378 
L 92.047565 46.057257 
L 92.06296 46.076915 
L 92.078715 46.097034 
L 92.096703 46.120003 
L 92.110213 46.137254 
L 92.122117 46.152454 
L 92.145357 46.18213 
L 92.165502 46.207853 
L 92.171072 46.214966 
L 92.195788 46.246526 
L 92.213557 46.269217 
L 92.219873 46.277281 
L 92.249074 46.314568 
L 92.258709 46.326872 
L 92.282958 46.357835 
L 92.299789 46.379327 
L 92.306814 46.388299 
L 92.326437 46.413355 
L 92.347696 46.440501 
L 92.352052 46.446063 
L 92.373284 46.473175 
L 92.394902 46.50078 
L 92.405819 46.514719 
L 92.428554 46.54375 
L 92.434892 46.551843 
L 92.451259 46.572743 
L 92.468041 46.594172 
L 92.489018 46.620958 
L 92.499839 46.634776 
L 92.525456 46.667487 
L 92.533528 46.677795 
L 92.553418 46.703193 
L 92.574479 46.730086 
L 92.585508 46.744168 
L 92.614664 46.781399 
L 92.630579 46.801721 
L 92.645439 46.820696 
L 92.648724 46.824891 
L 92.666496 46.847585 
L 92.695125 46.884141 
L 92.705777 46.897743 
" style="fill:none;stroke:#ff9900;stroke-linecap:square;stroke-width:2;"/>
   </g>
   <g id="line2d_6">
    <path clip-path="url(#p935e647273)" d="M 92.753997 46.959316 
L 92.777599 46.989454 
L 92.7976 47.014994 
L 92.802513 47.021267 
L 92.829835 47.056155 
L 92.83529 47.063121 
L 92.857981 47.092096 
L 92.87598 47.115079 
L 92.883532 47.124723 
L 92.899602 47.145242 
L 92.918096 47.168857 
L 92.936641 47.192538 
L 92.960456 47.222949 
L 92.969897 47.235004 
L 92.993713 47.265415 
L 93.010591 47.286968 
L 93.014927 47.292504 
L 93.040722 47.325442 
L 93.049023 47.336042 
L 93.068738 47.361216 
L 93.090276 47.388719 
L 93.099545 47.400555 
L 93.126217 47.434612 
L 93.133088 47.443386 
L 93.150152 47.465176 
L 93.165177 47.484361 
L 93.192785 47.519615 
L 93.206908 47.537649 
L 93.213517 47.546088 
L 93.240409 47.580427 
L 93.248335 47.590548 
L 93.263352 47.609724 
L 93.283867 47.63592 
L 93.304247 47.661943 
L 93.313548 47.67382 
L 93.332189 47.697623 
L 93.357415 47.729835 
L 93.374007 47.751021 
L 93.393516 47.775932 
L 93.403035 47.788087 
L 93.427161 47.818895 
L 93.43406 47.827704 
L 93.455995 47.855714 
L 93.474895 47.879847 
L 93.489612 47.89864 
L 93.49651 47.907448 
L 93.511757 47.926917 
L 93.539174 47.961926 
L 93.559685 47.988117 
L 93.563227 47.992641 
L 93.585366 48.02091 
L 93.602625 48.042949 
L 93.613463 48.056788 
L 93.636119 48.085718 
L 93.64528 48.097415 
L 93.666138 48.12405 
L 93.692279 48.157431 
L 93.693356 48.158805 
L 93.725076 48.199309 
L 93.734487 48.211327 
L 93.746318 48.226433 
L 93.7603 48.244287 
L 93.776503 48.264978 
L 93.79592 48.289772 
L 93.817433 48.317242 
L 93.830603 48.33406 
L 93.849659 48.358392 
L 93.873994 48.389466 
L 93.877309 48.393699 
L 93.896967 48.418802 
L 93.919152 48.44713 
L 93.939692 48.473358 
L 93.953608 48.491128 
L 93.969498 48.511417 
L 93.984462 48.530525 
L 94.000393 48.550868 
L 94.014698 48.569134 
L 94.034273 48.59413 
L 94.043419 48.605809 
L 94.064353 48.63254 
L 94.080192 48.652766 
L 94.094677 48.671262 
L 94.120257 48.703925 
L 94.139775 48.728848 
L 94.149426 48.741172 
L 94.158684 48.752993 
L 94.181689 48.78237 
" style="fill:none;stroke:#ff9900;stroke-linecap:square;stroke-width:2;"/>
   </g>
   <g id="line2d_7">
    <path clip-path="url(#p935e647273)" d="M 97.479916 52.292021 
L 110.672823 69.138348 
L 110.672823 69.138348 
" style="fill:none;stroke:#ff9900;stroke-linecap:square;stroke-width:2;"/>
   </g>
   <g id="line2d_8">
    <path clip-path="url(#p935e647273)" d="M 113.97105 72.648 
L 117.269277 76.859582 
L 117.269277 76.859582 
" style="fill:none;stroke:#ff9900;stroke-linecap:square;stroke-width:2;"/>
   </g>
   <g id="line2d_9">
    <path clip-path="url(#p935e647273)" d="M 186.532038 27.373495 
L 189.830265 31.585077 
L 189.830265 31.585077 
" style="fill:none;stroke:#ff9900;stroke-linecap:square;stroke-width:2;"/>
   </g>
   <g id="line2d_10">
    <path clip-path="url(#p935e647273)" d="M 193.128492 35.094729 
L 206.321399 51.941056 
L 206.321399 51.941056 
" style="fill:none;stroke:#ff9900;stroke-linecap:square;stroke-width:2;"/>
   </g>
   <g id="line2d_11">
    <path clip-path="url(#p935e647273)" d="M 209.619625 55.450707 
L 212.917852 59.662289 
L 212.917852 59.662289 
" style="fill:none;stroke:#ff9900;stroke-linecap:square;stroke-width:2;"/>
   </g>
   <g id="line2d_12">
    <path clip-path="url(#p935e647273)" d="M 216.216079 63.171941 
L 219.514306 67.383523 
L 219.514306 67.383523 
" style="fill:none;stroke:#ff9900;stroke-linecap:square;stroke-width:2;"/>
   </g>
   <g id="line2d_13">
    <path clip-path="url(#p935e647273)" d="M 292.075294 22.459983 
L 298.671748 30.883147 
L 298.671748 30.883147 
" style="fill:none;stroke:#ff9900;stroke-linecap:square;stroke-width:2;"/>
   </g>
   <g id="line2d_14">
    <path clip-path="url(#p935e647273)" d="M 301.969974 34.743763 
L 305.268201 38.955345 
L 305.268201 38.955345 
" style="fill:none;stroke:#ff9900;stroke-linecap:square;stroke-width:2;"/>
   </g>
   <g id="line2d_15">
    <path clip-path="url(#p935e647273)" d="M 308.566428 42.815962 
L 311.864655 47.027544 
L 311.864655 47.027544 
" style="fill:none;stroke:#ff9900;stroke-linecap:square;stroke-width:2;"/>
   </g>
   <g id="line2d_16">
    <path clip-path="url(#p935e647273)" d="M 414.109684 37.551485 
L 417.40791 41.763066 
L 417.40791 41.763066 
" style="fill:none;stroke:#ff9900;stroke-linecap:square;stroke-width:2;"/>
   </g>
   <g id="line2d_17">
    <path clip-path="url(#p935e647273)" d="M 420.706137 45.623683 
L 424.004364 49.835265 
L 424.004364 49.835265 
" style="fill:none;stroke:#ff9900;stroke-linecap:square;stroke-width:2;"/>
   </g>
   <g id="line2d_18">
    <path clip-path="url(#p935e647273)" d="M 427.302591 54.397812 
L 430.600817 58.609394 
L 430.600817 58.609394 
" style="fill:none;stroke:#ff9900;stroke-linecap:square;stroke-width:2;"/>
   </g>
   <g id="line2d_19">
    <path clip-path="url(#p935e647273)" d="M 433.899044 62.47001 
L 437.197271 66.681592 
L 437.197271 66.681592 
" style="fill:none;stroke:#ff9900;stroke-linecap:square;stroke-width:2;"/>
   </g>
   <g id="line2d_20">
    <path clip-path="url(#p935e647273)" d="M 539.4423 57.205533 
L 542.740527 61.417115 
L 542.740527 61.417115 
" style="fill:none;stroke:#ff9900;stroke-linecap:square;stroke-width:2;"/>
   </g>
   <g id="line2d_21">
    <path clip-path="url(#p935e647273)" d="M 546.038753 65.277732 
L 549.33698 69.489314 
L 549.33698 69.489314 
" style="fill:none;stroke:#ff9900;stroke-linecap:square;stroke-width:2;"/>
   </g>
   <g id="line2d_22">
    <path clip-path="url(#p935e647273)" d="M 552.635207 73.34993 
L 559.23166 81.773094 
L 559.23166 81.773094 
" style="fill:none;stroke:#ff9900;stroke-linecap:square;stroke-width:2;"/>
   </g>
   <g id="line2d_23">
    <path clip-path="url(#p935e647273)" d="M 15.024247 86.335641 
L 18.322474 81.773094 
L 18.322474 81.773094 
" style="fill:none;stroke:#cbff00;stroke-linecap:square;stroke-width:2;"/>
   </g>
   <g id="line2d_24">
    <path clip-path="url(#p935e647273)" d="M 150.251544 54.397812 
L 153.549771 49.835265 
L 153.549771 49.835265 
" style="fill:none;stroke:#cbff00;stroke-linecap:square;stroke-width:2;"/>
   </g>
   <g id="line2d_25">
    <path clip-path="url(#p935e647273)" d="M 285.478841 22.459983 
L 288.777067 17.897436 
L 288.777067 17.897436 
" style="fill:none;stroke:#cbff00;stroke-linecap:square;stroke-width:2;"/>
   </g>
   <g id="line2d_26">
    <path clip-path="url(#p935e647273)" d="M 338.250468 75.104756 
L 341.548695 71.595104 
L 341.548695 71.595104 
" style="fill:none;stroke:#33ff00;stroke-linecap:square;stroke-width:2;"/>
   </g>
   <g id="line2d_27">
    <path clip-path="url(#p935e647273)" d="M 344.846922 74.753791 
L 348.145149 71.244139 
L 348.145149 71.244139 
" style="fill:none;stroke:#33ff00;stroke-linecap:square;stroke-width:2;"/>
   </g>
   <g id="line2d_28">
    <path clip-path="url(#p935e647273)" d="M 351.443375 74.402826 
L 358.039829 67.383523 
L 358.039829 67.383523 
" style="fill:none;stroke:#33ff00;stroke-linecap:square;stroke-width:2;"/>
   </g>
   <g id="line2d_29">
    <path clip-path="url(#p935e647273)" d="M 361.338056 63.171941 
L 364.636282 59.662289 
L 364.636282 59.662289 
" style="fill:none;stroke:#33ff00;stroke-linecap:square;stroke-width:2;"/>
   </g>
   <g id="line2d_30">
    <path clip-path="url(#p935e647273)" d="M 367.934509 55.450707 
L 371.232736 51.941056 
L 371.232736 51.941056 
" style="fill:none;stroke:#33ff00;stroke-linecap:square;stroke-width:2;"/>
   </g>
   <g id="line2d_31">
    <path clip-path="url(#p935e647273)" d="M 384.425643 35.094729 
L 387.72387 31.585077 
L 387.72387 31.585077 
" style="fill:none;stroke:#33ff00;stroke-linecap:square;stroke-width:2;"/>
   </g>
   <g id="line2d_32">
    <path clip-path="url(#p935e647273)" d="M 391.022096 27.373495 
L 394.320323 23.863844 
L 394.320323 23.863844 
" style="fill:none;stroke:#33ff00;stroke-linecap:square;stroke-width:2;"/>
   </g>
   <g id="line2d_33">
    <path clip-path="url(#p935e647273)" d="M 397.61855 27.02253 
L 400.916777 23.512878 
L 400.916777 23.512878 
" style="fill:none;stroke:#33ff00;stroke-linecap:square;stroke-width:2;"/>
   </g>
   <g id="line2d_34">
    <path clip-path="url(#p935e647273)" d="M 450.390178 80.720198 
L 453.688405 77.210547 
L 453.688405 77.210547 
" style="fill:none;stroke:#33ff00;stroke-linecap:square;stroke-width:2;"/>
   </g>
   <g id="line2d_35">
    <path clip-path="url(#p935e647273)" d="M 456.986631 80.369233 
L 460.284858 76.859582 
L 460.284858 76.859582 
" style="fill:none;stroke:#33ff00;stroke-linecap:square;stroke-width:2;"/>
   </g>
   <g id="line2d_36">
    <path clip-path="url(#p935e647273)" d="M 463.583085 72.648 
L 466.881312 69.138348 
L 466.881312 69.138348 
" style="fill:none;stroke:#33ff00;stroke-linecap:square;stroke-width:2;"/>
   </g>
   <g id="line2d_37">
    <path clip-path="url(#p935e647273)" d="M 480.074219 52.292021 
L 483.372445 48.78237 
L 483.372445 48.78237 
" style="fill:none;stroke:#33ff00;stroke-linecap:square;stroke-width:2;"/>
   </g>
   <g id="line2d_38">
    <path clip-path="url(#p935e647273)" d="M 486.670672 44.570788 
L 486.69544 44.544433 
L 486.702102 44.537343 
L 486.721105 44.517122 
L 486.740678 44.496294 
L 486.74829 44.488195 
L 486.767209 44.468062 
L 486.78613 44.447928 
L 486.806265 44.426503 
L 486.811655 44.420767 
L 486.841785 44.388706 
L 486.860087 44.36923 
L 486.869953 44.358732 
L 486.882456 44.345428 
L 486.894745 44.332351 
L 486.925688 44.299424 
L 486.937241 44.287131 
L 486.95857 44.264435 
L 486.964773 44.257834 
L 486.979825 44.241817 
L 487.008791 44.210995 
L 487.01074 44.208921 
L 487.031212 44.187137 
L 487.050244 44.166885 
L 487.066871 44.149191 
L 487.078652 44.136655 
L 487.094139 44.120176 
L 487.121518 44.091042 
L 487.131027 44.080923 
L 487.143321 44.067841 
L 487.175704 44.033382 
L 487.176319 44.032728 
L 487.193076 44.014896 
L 487.218552 43.987787 
L 487.240667 43.964255 
L 487.248407 43.956019 
L 487.266322 43.936955 
L 487.284734 43.917362 
L 487.303835 43.897038 
L 487.310485 43.889961 
L 487.330452 43.868714 
L 487.346953 43.851155 
L 487.367215 43.829595 
L 487.391079 43.8042 
L 487.392225 43.802982 
L 487.410857 43.783155 
L 487.440176 43.751956 
L 487.448223 43.743394 
L 487.473608 43.716382 
L 487.475077 43.714818 
L 487.491441 43.697405 
L 487.521075 43.665871 
L 487.537942 43.647924 
L 487.549142 43.636006 
L 487.566867 43.617145 
L 487.586649 43.596094 
L 487.59919 43.582749 
L 487.618429 43.562277 
L 487.630958 43.548945 
L 487.646013 43.532924 
L 487.664723 43.513015 
L 487.680678 43.496038 
L 487.70414 43.471072 
L 487.714968 43.45955 
L 487.724173 43.449755 
L 487.750185 43.422075 
L 487.762784 43.408669 
L 487.779916 43.390439 
L 487.797852 43.371353 
" style="fill:none;stroke:#33ff00;stroke-linecap:square;stroke-width:2;"/>
   </g>
   <g id="line2d_39">
    <path clip-path="url(#p935e647273)" d="M 487.840766 43.325688 
L 489.968899 41.061136 
L 489.968899 41.061136 
" style="fill:none;stroke:#33ff00;stroke-linecap:square;stroke-width:2;"/>
   </g>
   <g id="line2d_40">
    <path clip-path="url(#p935e647273)" d="M 493.267126 36.849554 
L 499.863579 29.830251 
L 499.863579 29.830251 
" style="fill:none;stroke:#33ff00;stroke-linecap:square;stroke-width:2;"/>
   </g>
   <g id="line2d_41">
    <path clip-path="url(#p935e647273)" d="M 503.161806 32.988938 
L 506.460033 29.479286 
L 506.460033 29.479286 
" style="fill:none;stroke:#33ff00;stroke-linecap:square;stroke-width:2;"/>
   </g>
   <g id="line2d_42">
    <path clip-path="url(#p935e647273)" d="M 509.758259 32.637972 
L 513.056486 29.128321 
L 513.056486 29.128321 
" style="fill:none;stroke:#33ff00;stroke-linecap:square;stroke-width:2;"/>
   </g>
   <g id="line2d_43">
    <path clip-path="url(#p935e647273)" d="M 24.918928 73.34993 
L 28.217154 69.489314 
L 28.217154 69.489314 
" style="fill:none;stroke:#00ff66;stroke-linecap:square;stroke-width:2;"/>
   </g>
   <g id="line2d_44">
    <path clip-path="url(#p935e647273)" d="M 31.515381 65.277732 
L 34.813608 61.417115 
L 34.813608 61.417115 
" style="fill:none;stroke:#00ff66;stroke-linecap:square;stroke-width:2;"/>
   </g>
   <g id="line2d_45">
    <path clip-path="url(#p935e647273)" d="M 38.111835 57.205533 
L 44.708288 49.4843 
L 44.708288 49.4843 
" style="fill:none;stroke:#00ff66;stroke-linecap:square;stroke-width:2;"/>
   </g>
   <g id="line2d_46">
    <path clip-path="url(#p935e647273)" d="M 48.006515 46.325613 
L 51.304742 42.464997 
L 51.304742 42.464997 
" style="fill:none;stroke:#00ff66;stroke-linecap:square;stroke-width:2;"/>
   </g>
   <g id="line2d_47">
    <path clip-path="url(#p935e647273)" d="M 54.602968 39.30631 
L 57.901195 35.445694 
L 57.901195 35.445694 
" style="fill:none;stroke:#00ff66;stroke-linecap:square;stroke-width:2;"/>
   </g>
   <g id="line2d_48">
    <path clip-path="url(#p935e647273)" d="M 130.462184 77.561512 
L 133.76041 73.700895 
L 133.76041 73.700895 
" style="fill:none;stroke:#00ff66;stroke-linecap:square;stroke-width:2;"/>
   </g>
   <g id="line2d_49">
    <path clip-path="url(#p935e647273)" d="M 137.058637 70.542209 
L 140.356864 66.681592 
L 140.356864 66.681592 
" style="fill:none;stroke:#00ff66;stroke-linecap:square;stroke-width:2;"/>
   </g>
   <g id="line2d_50">
    <path clip-path="url(#p935e647273)" d="M 143.65509 62.47001 
L 146.953317 58.609394 
L 146.953317 58.609394 
" style="fill:none;stroke:#00ff66;stroke-linecap:square;stroke-width:2;"/>
   </g>
   <g id="line2d_51">
    <path clip-path="url(#p935e647273)" d="M 156.847997 45.623683 
L 160.146224 41.763066 
L 160.146224 41.763066 
" style="fill:none;stroke:#00ff66;stroke-linecap:square;stroke-width:2;"/>
   </g>
   <g id="line2d_52">
    <path clip-path="url(#p935e647273)" d="M 163.444451 37.551485 
L 166.742678 33.690868 
L 166.742678 33.690868 
" style="fill:none;stroke:#00ff66;stroke-linecap:square;stroke-width:2;"/>
   </g>
   <g id="line2d_53">
    <path clip-path="url(#p935e647273)" d="M 170.040904 30.532182 
L 173.339131 26.671565 
L 173.339131 26.671565 
" style="fill:none;stroke:#00ff66;stroke-linecap:square;stroke-width:2;"/>
   </g>
   <g id="line2d_54">
    <path clip-path="url(#p935e647273)" d="M 245.90012 68.787383 
L 249.198346 64.926767 
L 249.198346 64.926767 
" style="fill:none;stroke:#00ff66;stroke-linecap:square;stroke-width:2;"/>
   </g>
   <g id="line2d_55">
    <path clip-path="url(#p935e647273)" d="M 252.496573 61.76808 
L 255.7948 57.907463 
L 255.7948 57.907463 
" style="fill:none;stroke:#00ff66;stroke-linecap:square;stroke-width:2;"/>
   </g>
   <g id="line2d_56">
    <path clip-path="url(#p935e647273)" d="M 259.093027 54.748777 
L 265.68948 47.027544 
L 265.68948 47.027544 
" style="fill:none;stroke:#00ff66;stroke-linecap:square;stroke-width:2;"/>
   </g>
   <g id="line2d_57">
    <path clip-path="url(#p935e647273)" d="M 268.987707 42.815962 
L 272.285934 38.955345 
L 272.285934 38.955345 
" style="fill:none;stroke:#00ff66;stroke-linecap:square;stroke-width:2;"/>
   </g>
   <g id="line2d_58">
    <path clip-path="url(#p935e647273)" d="M 275.58416 34.743763 
L 278.882387 30.883147 
L 278.882387 30.883147 
" style="fill:none;stroke:#00ff66;stroke-linecap:square;stroke-width:2;"/>
   </g>
   <g id="line2d_59">
    <path clip-path="url(#p935e647273)" d="M 64.497649 29.128321 
L 67.795875 32.637972 
L 67.795875 32.637972 
" style="fill:none;stroke:#00ffff;stroke-linecap:square;stroke-width:2;"/>
   </g>
   <g id="line2d_60">
    <path clip-path="url(#p935e647273)" d="M 71.094102 29.479286 
L 74.392329 32.988938 
L 74.392329 32.988938 
" style="fill:none;stroke:#00ffff;stroke-linecap:square;stroke-width:2;"/>
   </g>
   <g id="line2d_61">
    <path clip-path="url(#p935e647273)" d="M 77.690556 29.830251 
L 84.287009 36.849554 
L 84.287009 36.849554 
" style="fill:none;stroke:#00ffff;stroke-linecap:square;stroke-width:2;"/>
   </g>
   <g id="line2d_62">
    <path clip-path="url(#p935e647273)" d="M 87.585236 41.061136 
L 90.883463 44.570788 
L 90.883463 44.570788 
" style="fill:none;stroke:#00ffff;stroke-linecap:square;stroke-width:2;"/>
   </g>
   <g id="line2d_63">
    <path clip-path="url(#p935e647273)" d="M 94.181689 48.78237 
L 97.479916 52.292021 
L 97.479916 52.292021 
" style="fill:none;stroke:#00ffff;stroke-linecap:square;stroke-width:2;"/>
   </g>
   <g id="line2d_64">
    <path clip-path="url(#p935e647273)" d="M 110.672823 69.138348 
L 113.97105 72.648 
L 113.97105 72.648 
" style="fill:none;stroke:#00ffff;stroke-linecap:square;stroke-width:2;"/>
   </g>
   <g id="line2d_65">
    <path clip-path="url(#p935e647273)" d="M 117.269277 76.859582 
L 120.567503 80.369233 
L 120.567503 80.369233 
" style="fill:none;stroke:#00ffff;stroke-linecap:square;stroke-width:2;"/>
   </g>
   <g id="line2d_66">
    <path clip-path="url(#p935e647273)" d="M 123.86573 77.210547 
L 127.163957 80.720198 
L 127.163957 80.720198 
" style="fill:none;stroke:#00ffff;stroke-linecap:square;stroke-width:2;"/>
   </g>
   <g id="line2d_67">
    <path clip-path="url(#p935e647273)" d="M 176.637358 23.512878 
L 179.935585 27.02253 
L 179.935585 27.02253 
" style="fill:none;stroke:#00ffff;stroke-linecap:square;stroke-width:2;"/>
   </g>
   <g id="line2d_68">
    <path clip-path="url(#p935e647273)" d="M 183.233811 23.863844 
L 186.532038 27.373495 
L 186.532038 27.373495 
" style="fill:none;stroke:#00ffff;stroke-linecap:square;stroke-width:2;"/>
   </g>
   <g id="line2d_69">
    <path clip-path="url(#p935e647273)" d="M 189.830265 31.585077 
L 193.128492 35.094729 
L 193.128492 35.094729 
" style="fill:none;stroke:#00ffff;stroke-linecap:square;stroke-width:2;"/>
   </g>
   <g id="line2d_70">
    <path clip-path="url(#p935e647273)" d="M 206.321399 51.941056 
L 209.619625 55.450707 
L 209.619625 55.450707 
" style="fill:none;stroke:#00ffff;stroke-linecap:square;stroke-width:2;"/>
   </g>
   <g id="line2d_71">
    <path clip-path="url(#p935e647273)" d="M 212.917852 59.662289 
L 216.216079 63.171941 
L 216.216079 63.171941 
" style="fill:none;stroke:#00ffff;stroke-linecap:square;stroke-width:2;"/>
   </g>
   <g id="line2d_72">
    <path clip-path="url(#p935e647273)" d="M 219.514306 67.383523 
L 226.110759 74.402826 
L 226.110759 74.402826 
" style="fill:none;stroke:#00ffff;stroke-linecap:square;stroke-width:2;"/>
   </g>
   <g id="line2d_73">
    <path clip-path="url(#p935e647273)" d="M 229.408986 71.244139 
L 232.707213 74.753791 
L 232.707213 74.753791 
" style="fill:none;stroke:#00ffff;stroke-linecap:square;stroke-width:2;"/>
   </g>
   <g id="line2d_74">
    <path clip-path="url(#p935e647273)" d="M 236.005439 71.595104 
L 239.303666 75.104756 
L 239.303666 75.104756 
" style="fill:none;stroke:#00ffff;stroke-linecap:square;stroke-width:2;"/>
   </g>
   <g id="line2d_75">
    <path clip-path="url(#p935e647273)" d="M 318.461108 54.748777 
L 321.759335 57.907463 
L 321.759335 57.907463 
" style="fill:none;stroke:#0066ff;stroke-linecap:square;stroke-width:2;"/>
   </g>
   <g id="line2d_76">
    <path clip-path="url(#p935e647273)" d="M 325.057562 61.76808 
L 328.355788 64.926767 
L 328.355788 64.926767 
" style="fill:none;stroke:#0066ff;stroke-linecap:square;stroke-width:2;"/>
   </g>
   <g id="line2d_77">
    <path clip-path="url(#p935e647273)" d="M 331.654015 68.787383 
L 338.250468 75.104756 
L 338.250468 75.104756 
" style="fill:none;stroke:#0066ff;stroke-linecap:square;stroke-width:2;"/>
   </g>
   <g id="line2d_78">
    <path clip-path="url(#p935e647273)" d="M 341.548695 71.595104 
L 344.846922 74.753791 
L 344.846922 74.753791 
" style="fill:none;stroke:#0066ff;stroke-linecap:square;stroke-width:2;"/>
   </g>
   <g id="line2d_79">
    <path clip-path="url(#p935e647273)" d="M 348.145149 71.244139 
L 351.443375 74.402826 
L 351.443375 74.402826 
" style="fill:none;stroke:#0066ff;stroke-linecap:square;stroke-width:2;"/>
   </g>
   <g id="line2d_80">
    <path clip-path="url(#p935e647273)" d="M 394.320323 23.863844 
L 397.61855 27.02253 
L 397.61855 27.02253 
" style="fill:none;stroke:#0066ff;stroke-linecap:square;stroke-width:2;"/>
   </g>
   <g id="line2d_81">
    <path clip-path="url(#p935e647273)" d="M 400.916777 23.512878 
L 404.215003 26.671565 
L 404.215003 26.671565 
" style="fill:none;stroke:#0066ff;stroke-linecap:square;stroke-width:2;"/>
   </g>
   <g id="line2d_82">
    <path clip-path="url(#p935e647273)" d="M 407.51323 30.532182 
L 410.811457 33.690868 
L 410.811457 33.690868 
" style="fill:none;stroke:#0066ff;stroke-linecap:square;stroke-width:2;"/>
   </g>
   <g id="line2d_83">
    <path clip-path="url(#p935e647273)" d="M 440.495498 70.542209 
L 443.793724 73.700895 
L 443.793724 73.700895 
" style="fill:none;stroke:#0066ff;stroke-linecap:square;stroke-width:2;"/>
   </g>
   <g id="line2d_84">
    <path clip-path="url(#p935e647273)" d="M 447.091951 77.561512 
L 450.390178 80.720198 
L 450.390178 80.720198 
" style="fill:none;stroke:#0066ff;stroke-linecap:square;stroke-width:2;"/>
   </g>
   <g id="line2d_85">
    <path clip-path="url(#p935e647273)" d="M 453.688405 77.210547 
L 456.986631 80.369233 
L 456.986631 80.369233 
" style="fill:none;stroke:#0066ff;stroke-linecap:square;stroke-width:2;"/>
   </g>
   <g id="line2d_86">
    <path clip-path="url(#p935e647273)" d="M 499.863579 29.830251 
L 503.161806 32.988938 
L 503.161806 32.988938 
" style="fill:none;stroke:#0066ff;stroke-linecap:square;stroke-width:2;"/>
   </g>
   <g id="line2d_87">
    <path clip-path="url(#p935e647273)" d="M 506.460033 29.479286 
L 509.758259 32.637972 
L 509.758259 32.637972 
" style="fill:none;stroke:#0066ff;stroke-linecap:square;stroke-width:2;"/>
   </g>
   <g id="line2d_88">
    <path clip-path="url(#p935e647273)" d="M 513.056486 29.128321 
L 519.65294 35.445694 
L 519.65294 35.445694 
" style="fill:none;stroke:#0066ff;stroke-linecap:square;stroke-width:2;"/>
   </g>
   <g id="line2d_89">
    <path clip-path="url(#p935e647273)" d="M 522.951166 39.30631 
L 526.249393 42.464997 
L 526.249393 42.464997 
" style="fill:none;stroke:#0066ff;stroke-linecap:square;stroke-width:2;"/>
   </g>
   <g id="line2d_90">
    <path clip-path="url(#p935e647273)" d="M 529.54762 46.325613 
L 532.845846 49.4843 
L 532.845846 49.4843 
" style="fill:none;stroke:#0066ff;stroke-linecap:square;stroke-width:2;"/>
   </g>
   <g id="line2d_91">
    <path clip-path="url(#p935e647273)" d="M 298.671748 30.883147 
L 301.969974 34.743763 
L 301.969974 34.743763 
" style="fill:none;stroke:#3200ff;stroke-linecap:square;stroke-width:2;"/>
   </g>
   <g id="line2d_92">
    <path clip-path="url(#p935e647273)" d="M 305.268201 38.955345 
L 308.566428 42.815962 
L 308.566428 42.815962 
" style="fill:none;stroke:#3200ff;stroke-linecap:square;stroke-width:2;"/>
   </g>
   <g id="line2d_93">
    <path clip-path="url(#p935e647273)" d="M 311.864655 47.027544 
L 318.461108 54.748777 
L 318.461108 54.748777 
" style="fill:none;stroke:#3200ff;stroke-linecap:square;stroke-width:2;"/>
   </g>
   <g id="line2d_94">
    <path clip-path="url(#p935e647273)" d="M 321.759335 57.907463 
L 325.057562 61.76808 
L 325.057562 61.76808 
" style="fill:none;stroke:#3200ff;stroke-linecap:square;stroke-width:2;"/>
   </g>
   <g id="line2d_95">
    <path clip-path="url(#p935e647273)" d="M 328.355788 64.926767 
L 331.654015 68.787383 
L 331.654015 68.787383 
" style="fill:none;stroke:#3200ff;stroke-linecap:square;stroke-width:2;"/>
   </g>
   <g id="line2d_96">
    <path clip-path="url(#p935e647273)" d="M 404.215003 26.671565 
L 407.51323 30.532182 
L 407.51323 30.532182 
" style="fill:none;stroke:#3200ff;stroke-linecap:square;stroke-width:2;"/>
   </g>
   <g id="line2d_97">
    <path clip-path="url(#p935e647273)" d="M 410.811457 33.690868 
L 414.109684 37.551485 
L 414.109684 37.551485 
" style="fill:none;stroke:#3200ff;stroke-linecap:square;stroke-width:2;"/>
   </g>
   <g id="line2d_98">
    <path clip-path="url(#p935e647273)" d="M 417.40791 41.763066 
L 420.706137 45.623683 
L 420.706137 45.623683 
" style="fill:none;stroke:#3200ff;stroke-linecap:square;stroke-width:2;"/>
   </g>
   <g id="line2d_99">
    <path clip-path="url(#p935e647273)" d="M 430.600817 58.609394 
L 433.899044 62.47001 
L 433.899044 62.47001 
" style="fill:none;stroke:#3200ff;stroke-linecap:square;stroke-width:2;"/>
   </g>
   <g id="line2d_100">
    <path clip-path="url(#p935e647273)" d="M 437.197271 66.681592 
L 440.495498 70.542209 
L 440.495498 70.542209 
" style="fill:none;stroke:#3200ff;stroke-linecap:square;stroke-width:2;"/>
   </g>
   <g id="line2d_101">
    <path clip-path="url(#p935e647273)" d="M 443.793724 73.700895 
L 447.091951 77.561512 
L 447.091951 77.561512 
" style="fill:none;stroke:#3200ff;stroke-linecap:square;stroke-width:2;"/>
   </g>
   <g id="line2d_102">
    <path clip-path="url(#p935e647273)" d="M 519.65294 35.445694 
L 519.671443 35.467353 
L 519.689624 35.488634 
L 519.707878 35.51 
L 519.724396 35.529334 
L 519.735598 35.542447 
L 519.749718 35.558974 
L 519.761532 35.572802 
L 519.785754 35.601154 
L 519.799263 35.616968 
L 519.824557 35.646574 
L 519.829674 35.652564 
L 519.855967 35.68334 
L 519.865306 35.694272 
L 519.886283 35.718825 
L 519.896294 35.730543 
L 519.91456 35.751924 
L 519.934544 35.775315 
L 519.949724 35.793083 
L 519.973216 35.820582 
L 519.981983 35.830843 
L 519.995004 35.846084 
L 520.024999 35.881194 
L 520.032974 35.890529 
" style="fill:none;stroke:#3200ff;stroke-linecap:square;stroke-width:2;"/>
   </g>
   <g id="line2d_103">
    <path clip-path="url(#p935e647273)" d="M 520.082134 35.948071 
L 522.951166 39.30631 
L 522.951166 39.30631 
" style="fill:none;stroke:#3200ff;stroke-linecap:square;stroke-width:2;"/>
   </g>
   <g id="line2d_104">
    <path clip-path="url(#p935e647273)" d="M 526.249393 42.464997 
L 529.54762 46.325613 
L 529.54762 46.325613 
" style="fill:none;stroke:#3200ff;stroke-linecap:square;stroke-width:2;"/>
   </g>
   <g id="line2d_105">
    <path clip-path="url(#p935e647273)" d="M 532.845846 49.4843 
L 539.4423 57.205533 
L 539.4423 57.205533 
" style="fill:none;stroke:#3200ff;stroke-linecap:square;stroke-width:2;"/>
   </g>
   <g id="line2d_106">
    <path clip-path="url(#p935e647273)" d="M 542.740527 61.417115 
L 546.038753 65.277732 
L 546.038753 65.277732 
" style="fill:none;stroke:#3200ff;stroke-linecap:square;stroke-width:2;"/>
   </g>
   <g id="line2d_107">
    <path clip-path="url(#p935e647273)" d="M 549.33698 69.489314 
L 552.635207 73.34993 
L 552.635207 73.34993 
" style="fill:none;stroke:#3200ff;stroke-linecap:square;stroke-width:2;"/>
   </g>
   <g id="line2d_108">
    <path clip-path="url(#p935e647273)" d="M 44.708288 49.4843 
L 48.006515 46.325613 
L 48.006515 46.325613 
" style="fill:none;stroke:#cc00ff;stroke-linecap:square;stroke-width:2;"/>
   </g>
   <g id="line2d_109">
    <path clip-path="url(#p935e647273)" d="M 51.304742 42.464997 
L 54.602968 39.30631 
L 54.602968 39.30631 
" style="fill:none;stroke:#cc00ff;stroke-linecap:square;stroke-width:2;"/>
   </g>
   <g id="line2d_110">
    <path clip-path="url(#p935e647273)" d="M 57.901195 35.445694 
L 64.497649 29.128321 
L 64.497649 29.128321 
" style="fill:none;stroke:#cc00ff;stroke-linecap:square;stroke-width:2;"/>
   </g>
   <g id="line2d_111">
    <path clip-path="url(#p935e647273)" d="M 67.795875 32.637972 
L 71.094102 29.479286 
L 71.094102 29.479286 
" style="fill:none;stroke:#cc00ff;stroke-linecap:square;stroke-width:2;"/>
   </g>
   <g id="line2d_112">
    <path clip-path="url(#p935e647273)" d="M 74.392329 32.988938 
L 77.690556 29.830251 
L 77.690556 29.830251 
" style="fill:none;stroke:#cc00ff;stroke-linecap:square;stroke-width:2;"/>
   </g>
   <g id="line2d_113">
    <path clip-path="url(#p935e647273)" d="M 120.567503 80.369233 
L 123.86573 77.210547 
L 123.86573 77.210547 
" style="fill:none;stroke:#cc00ff;stroke-linecap:square;stroke-width:2;"/>
   </g>
   <g id="line2d_114">
    <path clip-path="url(#p935e647273)" d="M 127.163957 80.720198 
L 130.462184 77.561512 
L 130.462184 77.561512 
" style="fill:none;stroke:#cc00ff;stroke-linecap:square;stroke-width:2;"/>
   </g>
   <g id="line2d_115">
    <path clip-path="url(#p935e647273)" d="M 133.76041 73.700895 
L 137.058637 70.542209 
L 137.058637 70.542209 
" style="fill:none;stroke:#cc00ff;stroke-linecap:square;stroke-width:2;"/>
   </g>
   <g id="line2d_116">
    <path clip-path="url(#p935e647273)" d="M 166.742678 33.690868 
L 170.040904 30.532182 
L 170.040904 30.532182 
" style="fill:none;stroke:#cc00ff;stroke-linecap:square;stroke-width:2;"/>
   </g>
   <g id="line2d_117">
    <path clip-path="url(#p935e647273)" d="M 173.339131 26.671565 
L 176.637358 23.512878 
L 176.637358 23.512878 
" style="fill:none;stroke:#cc00ff;stroke-linecap:square;stroke-width:2;"/>
   </g>
   <g id="line2d_118">
    <path clip-path="url(#p935e647273)" d="M 179.935585 27.02253 
L 183.233811 23.863844 
L 183.233811 23.863844 
" style="fill:none;stroke:#cc00ff;stroke-linecap:square;stroke-width:2;"/>
   </g>
   <g id="line2d_119">
    <path clip-path="url(#p935e647273)" d="M 226.110759 74.402826 
L 229.408986 71.244139 
L 229.408986 71.244139 
" style="fill:none;stroke:#cc00ff;stroke-linecap:square;stroke-width:2;"/>
   </g>
   <g id="line2d_120">
    <path clip-path="url(#p935e647273)" d="M 232.707213 74.753791 
L 236.005439 71.595104 
L 236.005439 71.595104 
" style="fill:none;stroke:#cc00ff;stroke-linecap:square;stroke-width:2;"/>
   </g>
   <g id="line2d_121">
    <path clip-path="url(#p935e647273)" d="M 239.303666 75.104756 
L 245.90012 68.787383 
L 245.90012 68.787383 
" style="fill:none;stroke:#cc00ff;stroke-linecap:square;stroke-width:2;"/>
   </g>
   <g id="line2d_122">
    <path clip-path="url(#p935e647273)" d="M 249.198346 64.926767 
L 252.496573 61.76808 
L 252.496573 61.76808 
" style="fill:none;stroke:#cc00ff;stroke-linecap:square;stroke-width:2;"/>
   </g>
   <g id="line2d_123">
    <path clip-path="url(#p935e647273)" d="M 255.7948 57.907463 
L 259.093027 54.748777 
L 259.093027 54.748777 
" style="fill:none;stroke:#cc00ff;stroke-linecap:square;stroke-width:2;"/>
   </g>
   <g id="line2d_124">
    <path clip-path="url(#p935e647273)" d="M 18.322474 81.773094 
L 24.918928 73.34993 
L 24.918928 73.34993 
" style="fill:none;stroke:#ff0098;stroke-linecap:square;stroke-width:2;"/>
   </g>
   <g id="line2d_125">
    <path clip-path="url(#p935e647273)" d="M 28.217154 69.489314 
L 31.515381 65.277732 
L 31.515381 65.277732 
" style="fill:none;stroke:#ff0098;stroke-linecap:square;stroke-width:2;"/>
   </g>
   <g id="line2d_126">
    <path clip-path="url(#p935e647273)" d="M 34.813608 61.417115 
L 38.111835 57.205533 
L 38.111835 57.205533 
" style="fill:none;stroke:#ff0098;stroke-linecap:square;stroke-width:2;"/>
   </g>
   <g id="line2d_127">
    <path clip-path="url(#p935e647273)" d="M 140.356864 66.681592 
L 143.65509 62.47001 
L 143.65509 62.47001 
" style="fill:none;stroke:#ff0098;stroke-linecap:square;stroke-width:2;"/>
   </g>
   <g id="line2d_128">
    <path clip-path="url(#p935e647273)" d="M 146.953317 58.609394 
L 150.251544 54.397812 
L 150.251544 54.397812 
" style="fill:none;stroke:#ff0098;stroke-linecap:square;stroke-width:2;"/>
   </g>
   <g id="line2d_129">
    <path clip-path="url(#p935e647273)" d="M 153.549771 49.835265 
L 156.847997 45.623683 
L 156.847997 45.623683 
" style="fill:none;stroke:#ff0098;stroke-linecap:square;stroke-width:2;"/>
   </g>
   <g id="line2d_130">
    <path clip-path="url(#p935e647273)" d="M 160.146224 41.763066 
L 163.444451 37.551485 
L 163.444451 37.551485 
" style="fill:none;stroke:#ff0098;stroke-linecap:square;stroke-width:2;"/>
   </g>
   <g id="line2d_131">
    <path clip-path="url(#p935e647273)" d="M 265.68948 47.027544 
L 268.987707 42.815962 
L 268.987707 42.815962 
" style="fill:none;stroke:#ff0098;stroke-linecap:square;stroke-width:2;"/>
   </g>
   <g id="line2d_132">
    <path clip-path="url(#p935e647273)" d="M 272.285934 38.955345 
L 275.58416 34.743763 
L 275.58416 34.743763 
" style="fill:none;stroke:#ff0098;stroke-linecap:square;stroke-width:2;"/>
   </g>
   <g id="line2d_133">
    <path clip-path="url(#p935e647273)" d="M 278.882387 30.883147 
L 285.478841 22.459983 
L 285.478841 22.459983 
" style="fill:none;stroke:#ff0098;stroke-linecap:square;stroke-width:2;"/>
   </g>
   <g id="line2d_134">
    <path clip-path="url(#p935e647273)" d="M 358.039829 67.383523 
L 361.338056 63.171941 
L 361.338056 63.171941 
" style="fill:none;stroke:#ff0098;stroke-linecap:square;stroke-width:2;"/>
   </g>
   <g id="line2d_135">
    <path clip-path="url(#p935e647273)" d="M 364.636282 59.662289 
L 367.934509 55.450707 
L 367.934509 55.450707 
" style="fill:none;stroke:#ff0098;stroke-linecap:square;stroke-width:2;"/>
   </g>
   <g id="line2d_136">
    <path clip-path="url(#p935e647273)" d="M 371.232736 51.941056 
L 384.425643 35.094729 
L 384.425643 35.094729 
" style="fill:none;stroke:#ff0098;stroke-linecap:square;stroke-width:2;"/>
   </g>
   <g id="line2d_137">
    <path clip-path="url(#p935e647273)" d="M 387.72387 31.585077 
L 391.022096 27.373495 
L 391.022096 27.373495 
" style="fill:none;stroke:#ff0098;stroke-linecap:square;stroke-width:2;"/>
   </g>
   <g id="line2d_138">
    <path clip-path="url(#p935e647273)" d="M 460.284858 76.859582 
L 463.583085 72.648 
L 463.583085 72.648 
" style="fill:none;stroke:#ff0098;stroke-linecap:square;stroke-width:2;"/>
   </g>
   <g id="line2d_139">
    <path clip-path="url(#p935e647273)" d="M 466.881312 69.138348 
L 480.074219 52.292021 
L 480.074219 52.292021 
" style="fill:none;stroke:#ff0098;stroke-linecap:square;stroke-width:2;"/>
   </g>
   <g id="line2d_140">
    <path clip-path="url(#p935e647273)" d="M 483.372445 48.78237 
L 483.388808 48.761475 
L 483.412607 48.731086 
L 483.414285 48.728944 
L 483.438827 48.697605 
L 483.447451 48.686593 
L 483.470746 48.656847 
L 483.484227 48.639632 
L 483.505485 48.612488 
L 483.526602 48.585523 
L 483.54439 48.56281 
L 483.548857 48.557105 
L 483.565226 48.536204 
L 483.592295 48.501639 
L 483.596569 48.49618 
L 483.626582 48.457856 
L 483.638163 48.443069 
L 483.661736 48.412968 
L 483.673262 48.39825 
L 483.691777 48.374607 
L 483.696464 48.368623 
L 483.72659 48.330154 
L 483.735722 48.318493 
L 483.76005 48.287428 
L 483.777742 48.264837 
L 483.784378 48.256363 
L 483.801942 48.233935 
L 483.827118 48.201788 
L 483.833194 48.194029 
L 483.848664 48.174275 
L 483.863837 48.154901 
L 483.893478 48.117051 
L 483.9045 48.102976 
L 483.916617 48.087504 
L 483.938518 48.059538 
L 483.951555 48.04289 
L 483.963626 48.027478 
L 483.979305 48.007456 
L 484.001881 47.978628 
L 484.010814 47.967222 
L 484.037797 47.932766 
L 484.052101 47.914502 
L 484.071349 47.889923 
L 484.084836 47.872701 
L 484.109193 47.841599 
L 484.119809 47.828044 
L 484.138707 47.803912 
L 484.155006 47.7831 
L 484.17496 47.75762 
L 484.18029 47.750814 
L 484.20567 47.718405 
L 484.217352 47.703489 
L 484.233095 47.683386 
L 484.251108 47.660385 
L 484.266912 47.640204 
L 484.276473 47.627996 
L 484.295204 47.604078 
" style="fill:none;stroke:#ff0098;stroke-linecap:square;stroke-width:2;"/>
   </g>
   <g id="line2d_141">
    <path clip-path="url(#p935e647273)" d="M 484.345541 47.539802 
L 486.670672 44.570788 
L 486.670672 44.570788 
" style="fill:none;stroke:#ff0098;stroke-linecap:square;stroke-width:2;"/>
   </g>
   <g id="line2d_142">
    <path clip-path="url(#p935e647273)" d="M 489.968899 41.061136 
L 493.267126 36.849554 
L 493.267126 36.849554 
" style="fill:none;stroke:#ff0098;stroke-linecap:square;stroke-width:2;"/>
   </g>
   <g id="matplotlib.axis_1">
    <g id="xtick_1">
     <g id="line2d_143">
      <path clip-path="url(#p935e647273)" d="M 15.024247 87.704405 
L 15.024247 16.528672 
" style="fill:none;stroke:#000000;stroke-dasharray:0.5,0.825;stroke-dashoffset:0;stroke-width:0.5;"/>
     </g>
     <g id="line2d_144">
      <defs>
       <path d="M 0 0 
L 0 3.5 
" id="m89c5eb8882" style="stroke:#000000;stroke-width:0.8;"/>
      </defs>
      <g>
       <use style="stroke:#000000;stroke-width:0.8;" x="15.024247" xlink:href="#m89c5eb8882" y="86.335641"/>
      </g>
     </g>
    </g>
    <g id="xtick_2">
     <g id="line2d_145">
      <path clip-path="url(#p935e647273)" d="M 288.777067 87.704405 
L 288.777067 16.528672 
" style="fill:none;stroke:#000000;stroke-dasharray:0.5,0.825;stroke-dashoffset:0;stroke-width:0.5;"/>
     </g>
     <g id="line2d_146">
      <g>
       <use style="stroke:#000000;stroke-width:0.8;" x="288.777067" xlink:href="#m89c5eb8882" y="86.335641"/>
      </g>
     </g>
     <g id="text_1">
      <!-- $f$ -->
      <defs>
       <path d="M 9.71875 -16.5 
Q 11.578125 -17.921875 14.203125 -17.921875 
Q 17.78125 -17.921875 20.015625 -10.015625 
Q 20.953125 -6.203125 25.09375 15.09375 
L 29.6875 39.59375 
L 21.09375 39.59375 
Q 20.125 39.59375 20.125 40.921875 
Q 20.515625 43.109375 21.390625 43.109375 
L 30.328125 43.109375 
L 31.5 49.609375 
Q 32.078125 52.640625 32.5625 54.8125 
Q 33.0625 56.984375 33.625 58.828125 
Q 34.1875 60.6875 35.296875 62.984375 
Q 37.015625 66.265625 39.921875 68.390625 
Q 42.828125 70.515625 46.1875 70.515625 
Q 48.390625 70.515625 50.46875 69.703125 
Q 52.546875 68.890625 53.859375 67.28125 
Q 55.171875 65.671875 55.171875 63.484375 
Q 55.171875 60.9375 53.484375 59.046875 
Q 51.8125 57.171875 49.421875 57.171875 
Q 47.796875 57.171875 46.65625 58.171875 
Q 45.515625 59.1875 45.515625 60.796875 
Q 45.515625 62.984375 47 64.625 
Q 48.484375 66.265625 50.6875 66.5 
Q 48.828125 67.921875 46.09375 67.921875 
Q 44.578125 67.921875 43.234375 66.5 
Q 41.890625 65.09375 41.5 63.484375 
Q 40.875 60.9375 38.71875 49.703125 
L 37.5 43.109375 
L 47.796875 43.109375 
Q 48.78125 43.109375 48.78125 41.796875 
Q 48.734375 41.546875 48.578125 40.9375 
Q 48.4375 40.328125 48.171875 39.953125 
Q 47.90625 39.59375 47.515625 39.59375 
L 36.8125 39.59375 
L 32.171875 15.1875 
Q 31.296875 9.859375 30.140625 4.359375 
Q 29 -1.125 26.921875 -6.90625 
Q 24.859375 -12.703125 21.625 -16.609375 
Q 18.40625 -20.515625 14.015625 -20.515625 
Q 10.640625 -20.515625 7.984375 -18.578125 
Q 5.328125 -16.65625 5.328125 -13.484375 
Q 5.328125 -10.9375 6.953125 -9.046875 
Q 8.59375 -7.171875 11.078125 -7.171875 
Q 12.75 -7.171875 13.859375 -8.171875 
Q 14.984375 -9.1875 14.984375 -10.796875 
Q 14.984375 -12.9375 13.390625 -14.71875 
Q 11.8125 -16.5 9.71875 -16.5 
z
" id="Cmmi10-66"/>
      </defs>
      <g transform="translate(286.327067 100.913766)scale(0.1 -0.1)">
       <use transform="translate(0 0.484375)" xlink:href="#Cmmi10-66"/>
      </g>
     </g>
    </g>
    <g id="xtick_3">
     <g id="line2d_147">
      <path clip-path="url(#p935e647273)" d="M 562.529887 87.704405 
L 562.529887 16.528672 
" style="fill:none;stroke:#000000;stroke-dasharray:0.5,0.825;stroke-dashoffset:0;stroke-width:0.5;"/>
     </g>
     <g id="line2d_148">
      <g>
       <use style="stroke:#000000;stroke-width:0.8;" x="562.529887" xlink:href="#m89c5eb8882" y="86.335641"/>
      </g>
     </g>
     <g id="text_2">
      <!-- $1$ -->
      <defs>
       <path d="M 9.28125 0 
L 9.28125 3.515625 
Q 21.78125 3.515625 21.78125 6.6875 
L 21.78125 59.1875 
Q 16.609375 56.6875 8.6875 56.6875 
L 8.6875 60.203125 
Q 20.953125 60.203125 27.203125 66.609375 
L 28.609375 66.609375 
Q 28.953125 66.609375 29.265625 66.328125 
Q 29.59375 66.0625 29.59375 65.71875 
L 29.59375 6.6875 
Q 29.59375 3.515625 42.09375 3.515625 
L 42.09375 0 
z
" id="Cmr10-31"/>
      </defs>
      <g transform="translate(560.029887 100.934078)scale(0.1 -0.1)">
       <use transform="translate(0 0.390625)" xlink:href="#Cmr10-31"/>
      </g>
     </g>
    </g>
   </g>
   <g id="matplotlib.axis_2">
    <g id="ytick_1">
     <g id="line2d_149">
      <path clip-path="url(#p935e647273)" d="M 4.074135 86.335641 
L 573.48 86.335641 
" style="fill:none;stroke:#000000;stroke-dasharray:0.5,0.825;stroke-dashoffset:0;stroke-width:0.5;"/>
     </g>
     <g id="line2d_150">
      <defs>
       <path d="M 0 0 
L -3.5 0 
" id="mdcb09d9ad4" style="stroke:#000000;stroke-width:0.8;"/>
      </defs>
      <g>
       <use style="stroke:#000000;stroke-width:0.8;" x="15.024247" xlink:href="#mdcb09d9ad4" y="86.335641"/>
      </g>
     </g>
    </g>
    <g id="ytick_2">
     <g id="line2d_151">
      <path clip-path="url(#p935e647273)" d="M 4.074135 17.897436 
L 573.48 17.897436 
" style="fill:none;stroke:#000000;stroke-dasharray:0.5,0.825;stroke-dashoffset:0;stroke-width:0.5;"/>
     </g>
     <g id="line2d_152">
      <g>
       <use style="stroke:#000000;stroke-width:0.8;" x="15.024247" xlink:href="#mdcb09d9ad4" y="17.897436"/>
      </g>
     </g>
     <g id="text_3">
      <!-- $1$ -->
      <g transform="translate(3.024247 21.696655)scale(0.1 -0.1)">
       <use transform="translate(0 0.390625)" xlink:href="#Cmr10-31"/>
      </g>
     </g>
    </g>
   </g>
   <g id="patch_3">
    <path d="M 15.024247 87.704405 
L 15.024247 16.528672 
" style="fill:none;stroke:#000000;stroke-linecap:square;stroke-linejoin:miter;stroke-width:0.8;"/>
   </g>
   <g id="patch_4">
    <path d="M 4.074135 86.335641 
L 573.48 86.335641 
" style="fill:none;stroke:#000000;stroke-linecap:square;stroke-linejoin:miter;stroke-width:0.8;"/>
   </g>
  </g>
 </g>
 <defs>
  <clipPath id="p935e647273">
   <rect height="71.175733" width="569.405865" x="4.074135" y="16.528672"/>
  </clipPath>
 </defs>
</svg>
