<?xml version="1.0" encoding="utf-8" standalone="no"?>
<!DOCTYPE svg PUBLIC "-//W3C//DTD SVG 1.1//EN"
  "http://www.w3.org/Graphics/SVG/1.1/DTD/svg11.dtd">
<!-- Created with matplotlib (http://matplotlib.org/) -->
<svg height="108pt" version="1.1" viewBox="0 0 576 108" width="576pt" xmlns="http://www.w3.org/2000/svg" xmlns:xlink="http://www.w3.org/1999/xlink">
 <defs>
  <style type="text/css">
*{stroke-linecap:butt;stroke-linejoin:round;}
  </style>
 </defs>
 <g id="figure_1">
  <g id="patch_1">
   <path d="M 0 108 
L 576 108 
L 576 0 
L 0 0 
z
" style="fill:#ffffff;"/>
  </g>
  <g id="axes_1">
   <g id="patch_2">
    <path d="M 4.074135 87.704405 
L 573.48 87.704405 
L 573.48 16.528672 
L 4.074135 16.528672 
z
" style="fill:#ffffff;"/>
   </g>
   <g id="line2d_1">
    <path clip-path="url(#p6bd4f070d3)" d="M 64.797487 69.22609 
L 89.684107 69.22609 
L 89.684107 69.22609 
" style="fill:none;stroke:#ff0000;stroke-linecap:square;stroke-width:2;"/>
   </g>
   <g id="line2d_2">
    <path clip-path="url(#p6bd4f070d3)" d="M 114.570727 52.116538 
L 164.343967 52.116538 
L 164.343967 52.116538 
" style="fill:none;stroke:#ff0000;stroke-linecap:square;stroke-width:2;"/>
   </g>
   <g id="line2d_3">
    <path clip-path="url(#p6bd4f070d3)" d="M 189.230587 35.006987 
L 214.117207 35.006987 
L 214.117207 35.006987 
" style="fill:none;stroke:#ff0000;stroke-linecap:square;stroke-width:2;"/>
   </g>
   <g id="line2d_4">
    <path clip-path="url(#p6bd4f070d3)" d="M 288.777067 52.116538 
L 313.663687 52.116538 
L 313.663687 52.116538 
" style="fill:none;stroke:#ff0000;stroke-linecap:square;stroke-width:2;"/>
   </g>
   <g id="line2d_5">
    <path clip-path="url(#p6bd4f070d3)" d="M 512.756647 52.116538 
L 537.643267 52.116538 
L 537.643267 52.116538 
" style="fill:none;stroke:#ff0000;stroke-linecap:square;stroke-width:2;"/>
   </g>
   <g id="line2d_6">
    <path clip-path="url(#p6bd4f070d3)" d="M 89.684107 69.22609 
L 114.570727 52.116538 
L 114.570727 52.116538 
" style="fill:none;stroke:#cbff00;stroke-linecap:square;stroke-width:2;"/>
   </g>
   <g id="line2d_7">
    <path clip-path="url(#p6bd4f070d3)" d="M 164.343967 52.116538 
L 189.230587 35.006987 
L 189.230587 35.006987 
" style="fill:none;stroke:#cbff00;stroke-linecap:square;stroke-width:2;"/>
   </g>
   <g id="line2d_8">
    <path clip-path="url(#p6bd4f070d3)" d="M 313.663687 52.116538 
L 313.842319 51.993729 
L 313.971406 51.904982 
L 313.97908 51.899706 
L 314.198285 51.749003 
L 314.271187 51.698883 
L 314.368565 51.631935 
L 314.595389 51.475994 
L 314.658509 51.432598 
L 314.808694 51.329346 
L 314.950927 51.231561 
L 315.021407 51.183106 
L 315.125609 51.111467 
L 315.304208 50.98868 
L 315.380255 50.936398 
L 315.52145 50.839327 
L 315.638139 50.759103 
L 315.74726 50.684082 
L 315.907981 50.573587 
L 316.096585 50.443921 
L 316.163161 50.39815 
L 316.233015 50.350125 
L 316.467257 50.189084 
L 316.562258 50.123771 
L 316.7253 50.01168 
L 316.850904 49.925327 
L 316.856011 49.921816 
L 317.046896 49.790583 
L 317.157622 49.714458 
L 317.337448 49.590828 
L 317.385115 49.558057 
L 317.562156 49.436342 
L 317.604346 49.407336 
L 317.772718 49.29158 
L 317.911802 49.195959 
L 318.013771 49.125856 
L 318.219404 48.984483 
L 318.238623 48.97127 
L 318.4754 48.808486 
L 318.545334 48.760407 
L 318.647182 48.690386 
L 318.780084 48.599015 
L 318.873563 48.534749 
L 319.015073 48.437461 
L 319.211195 48.302627 
L 319.236489 48.285237 
L 319.404567 48.169684 
L 319.576583 48.051423 
L 319.636521 48.010215 
L 319.81443 47.887903 
L 319.95434 47.791715 
L 320.102233 47.690039 
L 320.196994 47.62489 
L 320.291706 47.559776 
L 320.376376 47.501565 
L 320.538778 47.389914 
L 320.626915 47.329319 
L 320.769993 47.230954 
L 320.928147 47.122223 
L 321.015112 47.062434 
L 321.171894 46.954646 
L 321.298436 46.867649 
L 321.478731 46.743696 
L 321.48505 46.739351 
L 321.636563 46.635186 
L 321.734019 46.568185 
L 321.855345 46.484774 
L 321.996126 46.387987 
L 322.169505 46.268789 
L 322.240275 46.220134 
L 322.476676 46.057609 
L 322.55789 46.001774 
L 322.702442 45.902394 
L 322.739595 45.876852 
L 322.96166 45.724183 
L 323.098171 45.630331 
L 323.20549 45.556549 
L 323.31669 45.480099 
L 323.444252 45.3924 
L 323.575276 45.302321 
L 323.641494 45.256796 
L 323.793834 45.152063 
L 323.894135 45.083106 
L 324.004175 45.007453 
L 324.21754 44.860765 
L 324.258732 44.832445 
L 324.435128 44.711173 
L 324.492262 44.671893 
L 324.680138 44.542728 
L 324.84052 44.432466 
L 324.94591 44.36001 
L 325.052332 44.286846 
L 325.214607 44.175281 
L 325.296695 44.118846 
L 325.470628 43.999267 
L 325.569524 43.931276 
L 325.698968 43.842283 
L 325.824285 43.756127 
L 325.905291 43.700436 
L 326.054162 43.598087 
L 326.169218 43.518986 
L 326.354639 43.391509 
L 326.454317 43.322981 
L 326.49919 43.29213 
" style="fill:none;stroke:#cbff00;stroke-linecap:square;stroke-width:2;"/>
   </g>
   <g id="line2d_9">
    <path clip-path="url(#p6bd4f070d3)" d="M 326.952661 42.980369 
L 327.096233 42.881663 
L 327.18885 42.817989 
L 327.304804 42.738271 
L 327.385198 42.683 
L 327.583268 42.546827 
L 327.652935 42.498931 
L 327.771639 42.417322 
L 327.877302 42.344678 
L 328.037527 42.234524 
L 328.147874 42.15866 
L 328.316929 42.042435 
L 328.45539 41.947243 
L 328.555348 41.878522 
L 328.677906 41.794263 
L 328.832949 41.687671 
L 328.964792 41.597029 
L 329.10606 41.499907 
L 329.169839 41.45606 
L 329.286105 41.376126 
L 329.466415 41.252163 
L 329.528926 41.209187 
L 329.643829 41.130191 
L 329.853065 40.986341 
L 329.930335 40.933218 
L 329.983814 40.896451 
L 330.215572 40.737118 
L 330.260227 40.706417 
L 330.396152 40.612969 
L 330.548718 40.50808 
L 330.694907 40.407575 
L 330.742434 40.3749 
L 330.916557 40.255191 
L 331.061623 40.155458 
L 331.111763 40.120987 
L 331.30416 39.988713 
L 331.45072 39.887954 
L 331.539164 39.827148 
L 331.660198 39.743937 
L 331.800312 39.647609 
L 331.865013 39.603127 
L 332.042389 39.481181 
L 332.204683 39.369604 
L 332.349392 39.270117 
L 332.385534 39.245269 
L 332.543696 39.136533 
L 332.615397 39.087238 
L 332.765005 38.984382 
L 332.930702 38.870466 
L 333.109714 38.747395 
L 333.155072 38.716211 
L 333.344776 38.58579 
L 333.435842 38.523182 
L 333.57776 38.425614 
L 333.6938 38.345836 
L 333.808141 38.267227 
L 333.913416 38.19485 
L 334.079054 38.080974 
L 334.164857 38.021984 
L 334.262529 37.954835 
L 334.477537 37.807017 
L 334.513865 37.782041 
L 334.693403 37.658609 
L 334.852727 37.549074 
L 334.898538 37.517579 
L 335.105928 37.374998 
L 335.210179 37.303326 
L 335.269371 37.262631 
L 335.480604 37.117408 
L 335.549907 37.069762 
L 335.70029 36.966374 
L 335.77986 36.911669 
L 335.916475 36.817747 
L 336.106266 36.687266 
L 336.184738 36.633316 
L 336.308232 36.548414 
L 336.421835 36.470312 
L 336.591654 36.353561 
L 336.731191 36.25763 
L 336.782951 36.222045 
L 336.884381 36.152312 
L 337.022544 36.057325 
L 337.116674 35.99261 
L 337.351993 35.830828 
L 337.44311 35.768185 
L 337.511945 35.720861 
L 337.733461 35.568569 
L 337.754083 35.554391 
L 337.955955 35.415604 
L 338.106811 35.311891 
L 338.199888 35.247901 
L 338.312191 35.170692 
L 338.386222 35.119796 
L 338.550307 35.006987 
" style="fill:none;stroke:#cbff00;stroke-linecap:square;stroke-width:2;"/>
   </g>
   <g id="line2d_10">
    <path clip-path="url(#p6bd4f070d3)" d="M 363.436927 52.116538 
L 388.323547 35.006987 
L 388.323547 35.006987 
" style="fill:none;stroke:#cbff00;stroke-linecap:square;stroke-width:2;"/>
   </g>
   <g id="line2d_11">
    <path clip-path="url(#p6bd4f070d3)" d="M 438.096787 69.22609 
L 462.983407 52.116538 
L 462.983407 52.116538 
" style="fill:none;stroke:#cbff00;stroke-linecap:square;stroke-width:2;"/>
   </g>
   <g id="line2d_12">
    <path clip-path="url(#p6bd4f070d3)" d="M 487.870027 69.22609 
L 512.756647 52.116538 
L 512.756647 52.116538 
" style="fill:none;stroke:#cbff00;stroke-linecap:square;stroke-width:2;"/>
   </g>
   <g id="line2d_13">
    <path clip-path="url(#p6bd4f070d3)" d="M 338.550307 35.006987 
L 363.436927 52.116538 
L 363.436927 52.116538 
" style="fill:none;stroke:#00ff66;stroke-linecap:square;stroke-width:2;"/>
   </g>
   <g id="line2d_14">
    <path clip-path="url(#p6bd4f070d3)" d="M 388.323547 35.006987 
L 438.096787 69.22609 
L 438.096787 69.22609 
" style="fill:none;stroke:#00ff66;stroke-linecap:square;stroke-width:2;"/>
   </g>
   <g id="line2d_15">
    <path clip-path="url(#p6bd4f070d3)" d="M 462.983407 52.116538 
L 487.870027 69.22609 
L 487.870027 69.22609 
" style="fill:none;stroke:#00ff66;stroke-linecap:square;stroke-width:2;"/>
   </g>
   <g id="line2d_16">
    <path clip-path="url(#p6bd4f070d3)" d="M 39.910867 35.006987 
L 64.797487 69.22609 
L 64.797487 69.22609 
" style="fill:none;stroke:#0066ff;stroke-linecap:square;stroke-width:2;"/>
   </g>
   <g id="line2d_17">
    <path clip-path="url(#p6bd4f070d3)" d="M 214.117207 35.006987 
L 239.003827 69.22609 
L 239.003827 69.22609 
" style="fill:none;stroke:#0066ff;stroke-linecap:square;stroke-width:2;"/>
   </g>
   <g id="line2d_18">
    <path clip-path="url(#p6bd4f070d3)" d="M 263.890447 17.897436 
L 288.777067 52.116538 
L 288.777067 52.116538 
" style="fill:none;stroke:#0066ff;stroke-linecap:square;stroke-width:2;"/>
   </g>
   <g id="line2d_19">
    <path clip-path="url(#p6bd4f070d3)" d="M 537.643267 52.116538 
L 562.529887 86.335641 
L 562.529887 86.335641 
" style="fill:none;stroke:#0066ff;stroke-linecap:square;stroke-width:2;"/>
   </g>
   <g id="line2d_20">
    <path clip-path="url(#p6bd4f070d3)" d="M 15.024247 86.335641 
L 39.910867 35.006987 
L 39.910867 35.006987 
" style="fill:none;stroke:#cc00ff;stroke-linecap:square;stroke-width:2;"/>
   </g>
   <g id="line2d_21">
    <path clip-path="url(#p6bd4f070d3)" d="M 239.003827 69.22609 
L 263.890447 17.897436 
L 263.890447 17.897436 
" style="fill:none;stroke:#cc00ff;stroke-linecap:square;stroke-width:2;"/>
   </g>
   <g id="matplotlib.axis_1">
    <g id="xtick_1">
     <g id="line2d_22">
      <path clip-path="url(#p6bd4f070d3)" d="M 15.024247 87.704405 
L 15.024247 16.528672 
" style="fill:none;stroke:#000000;stroke-dasharray:0.5,0.825;stroke-dashoffset:0;stroke-width:0.5;"/>
     </g>
     <g id="line2d_23">
      <defs>
       <path d="M 0 0 
L 0 3.5 
" id="mab093dd990" style="stroke:#000000;stroke-width:0.8;"/>
      </defs>
      <g>
       <use style="stroke:#000000;stroke-width:0.8;" x="15.024247" xlink:href="#mab093dd990" y="86.335641"/>
      </g>
     </g>
    </g>
    <g id="xtick_2">
     <g id="line2d_24">
      <path clip-path="url(#p6bd4f070d3)" d="M 263.890447 87.704405 
L 263.890447 16.528672 
" style="fill:none;stroke:#000000;stroke-dasharray:0.5,0.825;stroke-dashoffset:0;stroke-width:0.5;"/>
     </g>
     <g id="line2d_25">
      <g>
       <use style="stroke:#000000;stroke-width:0.8;" x="263.890447" xlink:href="#mab093dd990" y="86.335641"/>
      </g>
     </g>
     <g id="text_1">
      <!-- $f$ -->
      <defs>
       <path d="M 9.71875 -16.5 
Q 11.578125 -17.921875 14.203125 -17.921875 
Q 17.78125 -17.921875 20.015625 -10.015625 
Q 20.953125 -6.203125 25.09375 15.09375 
L 29.6875 39.59375 
L 21.09375 39.59375 
Q 20.125 39.59375 20.125 40.921875 
Q 20.515625 43.109375 21.390625 43.109375 
L 30.328125 43.109375 
L 31.5 49.609375 
Q 32.078125 52.640625 32.5625 54.8125 
Q 33.0625 56.984375 33.625 58.828125 
Q 34.1875 60.6875 35.296875 62.984375 
Q 37.015625 66.265625 39.921875 68.390625 
Q 42.828125 70.515625 46.1875 70.515625 
Q 48.390625 70.515625 50.46875 69.703125 
Q 52.546875 68.890625 53.859375 67.28125 
Q 55.171875 65.671875 55.171875 63.484375 
Q 55.171875 60.9375 53.484375 59.046875 
Q 51.8125 57.171875 49.421875 57.171875 
Q 47.796875 57.171875 46.65625 58.171875 
Q 45.515625 59.1875 45.515625 60.796875 
Q 45.515625 62.984375 47 64.625 
Q 48.484375 66.265625 50.6875 66.5 
Q 48.828125 67.921875 46.09375 67.921875 
Q 44.578125 67.921875 43.234375 66.5 
Q 41.890625 65.09375 41.5 63.484375 
Q 40.875 60.9375 38.71875 49.703125 
L 37.5 43.109375 
L 47.796875 43.109375 
Q 48.78125 43.109375 48.78125 41.796875 
Q 48.734375 41.546875 48.578125 40.9375 
Q 48.4375 40.328125 48.171875 39.953125 
Q 47.90625 39.59375 47.515625 39.59375 
L 36.8125 39.59375 
L 32.171875 15.1875 
Q 31.296875 9.859375 30.140625 4.359375 
Q 29 -1.125 26.921875 -6.90625 
Q 24.859375 -12.703125 21.625 -16.609375 
Q 18.40625 -20.515625 14.015625 -20.515625 
Q 10.640625 -20.515625 7.984375 -18.578125 
Q 5.328125 -16.65625 5.328125 -13.484375 
Q 5.328125 -10.9375 6.953125 -9.046875 
Q 8.59375 -7.171875 11.078125 -7.171875 
Q 12.75 -7.171875 13.859375 -8.171875 
Q 14.984375 -9.1875 14.984375 -10.796875 
Q 14.984375 -12.9375 13.390625 -14.71875 
Q 11.8125 -16.5 9.71875 -16.5 
z
" id="Cmmi10-66"/>
      </defs>
      <g transform="translate(261.440447 100.913766)scale(0.1 -0.1)">
       <use transform="translate(0 0.484375)" xlink:href="#Cmmi10-66"/>
      </g>
     </g>
    </g>
    <g id="xtick_3">
     <g id="line2d_26">
      <path clip-path="url(#p6bd4f070d3)" d="M 562.529887 87.704405 
L 562.529887 16.528672 
" style="fill:none;stroke:#000000;stroke-dasharray:0.5,0.825;stroke-dashoffset:0;stroke-width:0.5;"/>
     </g>
     <g id="line2d_27">
      <g>
       <use style="stroke:#000000;stroke-width:0.8;" x="562.529887" xlink:href="#mab093dd990" y="86.335641"/>
      </g>
     </g>
     <g id="text_2">
      <!-- $1$ -->
      <defs>
       <path d="M 9.28125 0 
L 9.28125 3.515625 
Q 21.78125 3.515625 21.78125 6.6875 
L 21.78125 59.1875 
Q 16.609375 56.6875 8.6875 56.6875 
L 8.6875 60.203125 
Q 20.953125 60.203125 27.203125 66.609375 
L 28.609375 66.609375 
Q 28.953125 66.609375 29.265625 66.328125 
Q 29.59375 66.0625 29.59375 65.71875 
L 29.59375 6.6875 
Q 29.59375 3.515625 42.09375 3.515625 
L 42.09375 0 
z
" id="Cmr10-31"/>
      </defs>
      <g transform="translate(560.029887 100.934078)scale(0.1 -0.1)">
       <use transform="translate(0 0.390625)" xlink:href="#Cmr10-31"/>
      </g>
     </g>
    </g>
   </g>
   <g id="matplotlib.axis_2">
    <g id="ytick_1">
     <g id="line2d_28">
      <path clip-path="url(#p6bd4f070d3)" d="M 4.074135 86.335641 
L 573.48 86.335641 
" style="fill:none;stroke:#000000;stroke-dasharray:0.5,0.825;stroke-dashoffset:0;stroke-width:0.5;"/>
     </g>
     <g id="line2d_29">
      <defs>
       <path d="M 0 0 
L -3.5 0 
" id="m9264134799" style="stroke:#000000;stroke-width:0.8;"/>
      </defs>
      <g>
       <use style="stroke:#000000;stroke-width:0.8;" x="15.024247" xlink:href="#m9264134799" y="86.335641"/>
      </g>
     </g>
    </g>
    <g id="ytick_2">
     <g id="line2d_30">
      <path clip-path="url(#p6bd4f070d3)" d="M 4.074135 17.897436 
L 573.48 17.897436 
" style="fill:none;stroke:#000000;stroke-dasharray:0.5,0.825;stroke-dashoffset:0;stroke-width:0.5;"/>
     </g>
     <g id="line2d_31">
      <g>
       <use style="stroke:#000000;stroke-width:0.8;" x="15.024247" xlink:href="#m9264134799" y="17.897436"/>
      </g>
     </g>
     <g id="text_3">
      <!-- $1$ -->
      <g transform="translate(3.024247 21.696655)scale(0.1 -0.1)">
       <use transform="translate(0 0.390625)" xlink:href="#Cmr10-31"/>
      </g>
     </g>
    </g>
   </g>
   <g id="patch_3">
    <path d="M 15.024247 87.704405 
L 15.024247 16.528672 
" style="fill:none;stroke:#000000;stroke-linecap:square;stroke-linejoin:miter;stroke-width:0.8;"/>
   </g>
   <g id="patch_4">
    <path d="M 4.074135 86.335641 
L 573.48 86.335641 
" style="fill:none;stroke:#000000;stroke-linecap:square;stroke-linejoin:miter;stroke-width:0.8;"/>
   </g>
  </g>
 </g>
 <defs>
  <clipPath id="p6bd4f070d3">
   <rect height="71.175733" width="569.405865" x="4.074135" y="16.528672"/>
  </clipPath>
 </defs>
</svg>
