<?xml version="1.0" encoding="utf-8" standalone="no"?>
<!DOCTYPE svg PUBLIC "-//W3C//DTD SVG 1.1//EN"
  "http://www.w3.org/Graphics/SVG/1.1/DTD/svg11.dtd">
<!-- Created with matplotlib (http://matplotlib.org/) -->
<svg height="108pt" version="1.1" viewBox="0 0 576 108" width="576pt" xmlns="http://www.w3.org/2000/svg" xmlns:xlink="http://www.w3.org/1999/xlink">
 <defs>
  <style type="text/css">
*{stroke-linecap:butt;stroke-linejoin:round;}
  </style>
 </defs>
 <g id="figure_1">
  <g id="patch_1">
   <path d="M 0 108 
L 576 108 
L 576 0 
L 0 0 
z
" style="fill:#ffffff;"/>
  </g>
  <g id="axes_1">
   <g id="patch_2">
    <path d="M 4.074135 87.704405 
L 573.48 87.704405 
L 573.48 16.528672 
L 4.074135 16.528672 
z
" style="fill:#ffffff;"/>
   </g>
   <g id="line2d_1">
    <path clip-path="url(#pfcebc2cccf)" d="M 118.606395 45.097235 
L 162.998745 32.988938 
L 162.998745 32.988938 
" style="fill:none;stroke:#ff0000;stroke-linecap:square;stroke-width:2;"/>
   </g>
   <g id="line2d_2">
    <path clip-path="url(#pfcebc2cccf)" d="M 236.985993 71.244139 
L 281.378342 59.135842 
L 281.378342 59.135842 
" style="fill:none;stroke:#ff0000;stroke-linecap:square;stroke-width:2;"/>
   </g>
   <g id="line2d_3">
    <path clip-path="url(#pfcebc2cccf)" d="M 444.150289 60.188737 
L 503.340088 44.04434 
L 503.340088 44.04434 
" style="fill:none;stroke:#ff0000;stroke-linecap:square;stroke-width:2;"/>
   </g>
   <g id="line2d_4">
    <path clip-path="url(#pfcebc2cccf)" d="M 89.011496 33.690868 
L 118.606395 45.097235 
L 118.606395 45.097235 
" style="fill:none;stroke:#cbff00;stroke-linecap:square;stroke-width:2;"/>
   </g>
   <g id="line2d_5">
    <path clip-path="url(#pfcebc2cccf)" d="M 162.998745 32.988938 
L 192.593644 44.395305 
L 192.593644 44.395305 
" style="fill:none;stroke:#cbff00;stroke-linecap:square;stroke-width:2;"/>
   </g>
   <g id="line2d_6">
    <path clip-path="url(#pfcebc2cccf)" d="M 207.391094 59.837772 
L 207.597803 59.917441 
L 207.709149 59.960356 
L 207.822836 60.004173 
L 207.915656 60.039947 
L 208.096152 60.109513 
L 208.353136 60.208559 
L 208.393082 60.223955 
L 208.624791 60.313259 
L 208.686819 60.337166 
L 208.808726 60.384151 
L 209.077134 60.4876 
L 209.188497 60.530521 
L 209.367953 60.599686 
L 209.399583 60.611877 
L 209.615417 60.695063 
L 209.723959 60.736897 
L 209.913332 60.809884 
L 210.059072 60.866055 
L 210.177218 60.911591 
L 210.318668 60.966108 
L 210.583629 61.068228 
L 210.666156 61.100035 
L 210.868818 61.178145 
L 210.977522 61.220041 
L 211.114752 61.272932 
L 211.219937 61.313472 
L 211.340345 61.359879 
L 211.54289 61.437943 
L 211.761107 61.522048 
L 211.79138 61.533716 
L 212.017608 61.620907 
L 212.112672 61.657547 
L 212.247351 61.709454 
L 212.457539 61.790464 
L 212.628689 61.856428 
L 212.814171 61.927916 
L 212.929684 61.972437 
L 213.031624 62.011726 
L 213.19467 62.074567 
L 213.351455 62.134994 
L 213.515117 62.198073 
L 213.653788 62.251519 
L 213.796808 62.306641 
L 213.926953 62.356801 
L 214.134743 62.436887 
L 214.236805 62.476223 
L 214.385009 62.533343 
L 214.587816 62.611509 
L 214.744044 62.671721 
L 214.855393 62.714637 
L 214.965418 62.757043 
L 215.160517 62.832237 
L 215.339758 62.901319 
L 215.487985 62.958449 
L 215.565086 62.988165 
L 215.734064 63.053292 
L 215.805105 63.080672 
L 216.043124 63.172408 
L 216.128648 63.205371 
L 216.298413 63.270801 
L 216.415347 63.315869 
L 216.610989 63.391273 
L 216.817199 63.47075 
L 216.915908 63.508794 
L 217.025982 63.551218 
L 217.132167 63.592144 
L 217.318404 63.663923 
L 217.477429 63.725214 
L 217.696544 63.809664 
L 217.755175 63.832261 
L 217.914822 63.893792 
L 218.044177 63.943648 
L 218.262542 64.027809 
L 218.341817 64.058363 
L 218.614753 64.163557 
L 218.635729 64.171642 
L 218.913453 64.278681 
L 218.964719 64.29844 
L 219.210619 64.393214 
L 219.257704 64.411361 
L 219.437016 64.480471 
L 219.616311 64.549574 
L 219.718553 64.58898 
L 219.814021 64.625775 
L 220.029112 64.708675 
L 220.205308 64.776583 
L 220.268271 64.80085 
L 220.448211 64.870202 
L 220.599992 64.928701 
L 220.726168 64.977332 
L 220.897079 65.043204 
L 221.102247 65.122279 
L 221.220726 65.167943 
L 221.304265 65.20014 
L 221.553505 65.296201 
L 221.59454 65.312017 
L 221.789918 65.387319 
L 221.974209 65.458347 
L 222.105446 65.508928 
L 222.299359 65.583666 
L 222.358414 65.606427 
L 222.529523 65.672375 
L 222.765215 65.763214 
L 222.896297 65.813736 
L 222.962855 65.839388 
L 223.115158 65.898088 
L 223.359294 65.992182 
L 223.492431 66.043496 
L 223.552308 66.066573 
" style="fill:none;stroke:#cbff00;stroke-linecap:square;stroke-width:2;"/>
   </g>
   <g id="line2d_7">
    <path clip-path="url(#pfcebc2cccf)" d="M 224.074824 66.267959 
L 224.186052 66.310829 
L 224.367292 66.380682 
L 224.419851 66.400939 
L 224.627552 66.48099 
L 224.758537 66.531474 
L 224.977492 66.615863 
L 225.152496 66.683312 
L 225.268949 66.728195 
L 225.455936 66.800263 
L 225.593031 66.853102 
L 225.712459 66.899131 
L 225.838415 66.947677 
L 226.003889 67.011453 
L 226.115748 67.054566 
L 226.256175 67.108688 
L 226.424543 67.17358 
L 226.512699 67.207557 
L 226.765858 67.305129 
L 226.806638 67.320846 
L 226.96173 67.380621 
L 227.193107 67.469798 
L 227.356751 67.532869 
L 227.400128 67.549587 
L 227.678065 67.656709 
L 227.710817 67.669332 
L 227.860821 67.727146 
L 228.050099 67.800097 
L 228.269811 67.884777 
L 228.317901 67.903312 
L 228.565749 67.998837 
L 228.621315 68.020253 
L 228.796937 68.087941 
L 229.017746 68.173044 
L 229.109399 68.208369 
L 229.20558 68.245439 
L 229.425441 68.330177 
L 229.602665 68.398482 
L 229.70952 68.439665 
L 229.904141 68.514676 
L 229.930886 68.524983 
L 230.112816 68.595102 
L 230.351022 68.686911 
L 230.396591 68.704474 
L 230.545742 68.761959 
L 230.737771 68.83597 
L 230.834626 68.8733 
L 231.090767 68.972021 
L 231.206666 69.01669 
L 231.264037 69.038802 
L 231.503294 69.131016 
L 231.650285 69.187668 
L 231.737355 69.221227 
L 231.993174 69.319823 
L 232.033577 69.335396 
L 232.276128 69.428879 
L 232.338245 69.45282 
L 232.582885 69.547108 
L 232.734624 69.605591 
L 232.812971 69.635787 
L 232.963292 69.693723 
L 233.127954 69.757187 
L 233.306171 69.825874 
L 233.441742 69.878126 
L 233.518845 69.907843 
L 233.694449 69.975523 
L 233.921731 70.063122 
L 234.020586 70.101222 
L 234.104287 70.133482 
L 234.2816 70.201821 
L 234.477283 70.27724 
L 234.603723 70.325973 
L 234.805305 70.403666 
L 234.977015 70.469845 
L 235.064767 70.503667 
L 235.221021 70.56389 
L 235.415815 70.638967 
L 235.437903 70.647479 
L 235.671811 70.737632 
L 235.734637 70.761846 
L 235.909782 70.82935 
L 236.098761 70.902185 
L 236.251081 70.960892 
L 236.385501 71.0127 
L 236.513794 71.062146 
L 236.646149 71.113158 
L 236.907874 71.214031 
L 236.985993 71.244139 
" style="fill:none;stroke:#cbff00;stroke-linecap:square;stroke-width:2;"/>
   </g>
   <g id="line2d_8">
    <path clip-path="url(#pfcebc2cccf)" d="M 281.378342 59.135842 
L 310.973242 70.542209 
L 310.973242 70.542209 
" style="fill:none;stroke:#cbff00;stroke-linecap:square;stroke-width:2;"/>
   </g>
   <g id="line2d_9">
    <path clip-path="url(#pfcebc2cccf)" d="M 399.75794 33.339903 
L 414.55539 39.043086 
L 414.55539 39.043086 
" style="fill:none;stroke:#cbff00;stroke-linecap:square;stroke-width:2;"/>
   </g>
   <g id="line2d_10">
    <path clip-path="url(#pfcebc2cccf)" d="M 429.35284 54.485553 
L 444.150289 60.188737 
L 444.150289 60.188737 
" style="fill:none;stroke:#cbff00;stroke-linecap:square;stroke-width:2;"/>
   </g>
   <g id="line2d_11">
    <path clip-path="url(#pfcebc2cccf)" d="M 503.340088 44.04434 
L 518.137538 49.747524 
L 518.137538 49.747524 
" style="fill:none;stroke:#cbff00;stroke-linecap:square;stroke-width:2;"/>
   </g>
   <g id="line2d_12">
    <path clip-path="url(#pfcebc2cccf)" d="M 532.934988 65.18999 
L 547.732437 70.893174 
L 547.732437 70.893174 
" style="fill:none;stroke:#cbff00;stroke-linecap:square;stroke-width:2;"/>
   </g>
   <g id="line2d_13">
    <path clip-path="url(#pfcebc2cccf)" d="M 44.619147 65.277732 
L 89.011496 33.690868 
L 89.011496 33.690868 
" style="fill:none;stroke:#00ff66;stroke-linecap:square;stroke-width:2;"/>
   </g>
   <g id="line2d_14">
    <path clip-path="url(#pfcebc2cccf)" d="M 310.973242 70.542209 
L 355.365591 38.955345 
L 355.365591 38.955345 
" style="fill:none;stroke:#00ff66;stroke-linecap:square;stroke-width:2;"/>
   </g>
   <g id="line2d_15">
    <path clip-path="url(#pfcebc2cccf)" d="M 29.821697 49.835265 
L 44.619147 65.277732 
L 44.619147 65.277732 
" style="fill:none;stroke:#0066ff;stroke-linecap:square;stroke-width:2;"/>
   </g>
   <g id="line2d_16">
    <path clip-path="url(#pfcebc2cccf)" d="M 192.593644 44.395305 
L 207.391094 59.837772 
L 207.391094 59.837772 
" style="fill:none;stroke:#0066ff;stroke-linecap:square;stroke-width:2;"/>
   </g>
   <g id="line2d_17">
    <path clip-path="url(#pfcebc2cccf)" d="M 355.365591 38.955345 
L 370.163041 54.397812 
L 370.163041 54.397812 
" style="fill:none;stroke:#0066ff;stroke-linecap:square;stroke-width:2;"/>
   </g>
   <g id="line2d_18">
    <path clip-path="url(#pfcebc2cccf)" d="M 384.960491 17.897436 
L 399.75794 33.339903 
L 399.75794 33.339903 
" style="fill:none;stroke:#0066ff;stroke-linecap:square;stroke-width:2;"/>
   </g>
   <g id="line2d_19">
    <path clip-path="url(#pfcebc2cccf)" d="M 414.55539 39.043086 
L 429.35284 54.485553 
L 429.35284 54.485553 
" style="fill:none;stroke:#0066ff;stroke-linecap:square;stroke-width:2;"/>
   </g>
   <g id="line2d_20">
    <path clip-path="url(#pfcebc2cccf)" d="M 518.137538 49.747524 
L 532.934988 65.18999 
L 532.934988 65.18999 
" style="fill:none;stroke:#0066ff;stroke-linecap:square;stroke-width:2;"/>
   </g>
   <g id="line2d_21">
    <path clip-path="url(#pfcebc2cccf)" d="M 547.732437 70.893174 
L 562.529887 86.335641 
L 562.529887 86.335641 
" style="fill:none;stroke:#0066ff;stroke-linecap:square;stroke-width:2;"/>
   </g>
   <g id="line2d_22">
    <path clip-path="url(#pfcebc2cccf)" d="M 15.024247 86.335641 
L 29.821697 49.835265 
L 29.821697 49.835265 
" style="fill:none;stroke:#cc00ff;stroke-linecap:square;stroke-width:2;"/>
   </g>
   <g id="line2d_23">
    <path clip-path="url(#pfcebc2cccf)" d="M 370.163041 54.397812 
L 384.960491 17.897436 
L 384.960491 17.897436 
" style="fill:none;stroke:#cc00ff;stroke-linecap:square;stroke-width:2;"/>
   </g>
   <g id="matplotlib.axis_1">
    <g id="xtick_1">
     <g id="line2d_24">
      <path clip-path="url(#pfcebc2cccf)" d="M 15.024247 87.704405 
L 15.024247 16.528672 
" style="fill:none;stroke:#000000;stroke-dasharray:0.5,0.825;stroke-dashoffset:0;stroke-width:0.5;"/>
     </g>
     <g id="line2d_25">
      <defs>
       <path d="M 0 0 
L 0 3.5 
" id="md44d9e9607" style="stroke:#000000;stroke-width:0.8;"/>
      </defs>
      <g>
       <use style="stroke:#000000;stroke-width:0.8;" x="15.024247" xlink:href="#md44d9e9607" y="86.335641"/>
      </g>
     </g>
    </g>
    <g id="xtick_2">
     <g id="line2d_26">
      <path clip-path="url(#pfcebc2cccf)" d="M 384.960491 87.704405 
L 384.960491 16.528672 
" style="fill:none;stroke:#000000;stroke-dasharray:0.5,0.825;stroke-dashoffset:0;stroke-width:0.5;"/>
     </g>
     <g id="line2d_27">
      <g>
       <use style="stroke:#000000;stroke-width:0.8;" x="384.960491" xlink:href="#md44d9e9607" y="86.335641"/>
      </g>
     </g>
     <g id="text_1">
      <!-- $f$ -->
      <defs>
       <path d="M 9.71875 -16.5 
Q 11.578125 -17.921875 14.203125 -17.921875 
Q 17.78125 -17.921875 20.015625 -10.015625 
Q 20.953125 -6.203125 25.09375 15.09375 
L 29.6875 39.59375 
L 21.09375 39.59375 
Q 20.125 39.59375 20.125 40.921875 
Q 20.515625 43.109375 21.390625 43.109375 
L 30.328125 43.109375 
L 31.5 49.609375 
Q 32.078125 52.640625 32.5625 54.8125 
Q 33.0625 56.984375 33.625 58.828125 
Q 34.1875 60.6875 35.296875 62.984375 
Q 37.015625 66.265625 39.921875 68.390625 
Q 42.828125 70.515625 46.1875 70.515625 
Q 48.390625 70.515625 50.46875 69.703125 
Q 52.546875 68.890625 53.859375 67.28125 
Q 55.171875 65.671875 55.171875 63.484375 
Q 55.171875 60.9375 53.484375 59.046875 
Q 51.8125 57.171875 49.421875 57.171875 
Q 47.796875 57.171875 46.65625 58.171875 
Q 45.515625 59.1875 45.515625 60.796875 
Q 45.515625 62.984375 47 64.625 
Q 48.484375 66.265625 50.6875 66.5 
Q 48.828125 67.921875 46.09375 67.921875 
Q 44.578125 67.921875 43.234375 66.5 
Q 41.890625 65.09375 41.5 63.484375 
Q 40.875 60.9375 38.71875 49.703125 
L 37.5 43.109375 
L 47.796875 43.109375 
Q 48.78125 43.109375 48.78125 41.796875 
Q 48.734375 41.546875 48.578125 40.9375 
Q 48.4375 40.328125 48.171875 39.953125 
Q 47.90625 39.59375 47.515625 39.59375 
L 36.8125 39.59375 
L 32.171875 15.1875 
Q 31.296875 9.859375 30.140625 4.359375 
Q 29 -1.125 26.921875 -6.90625 
Q 24.859375 -12.703125 21.625 -16.609375 
Q 18.40625 -20.515625 14.015625 -20.515625 
Q 10.640625 -20.515625 7.984375 -18.578125 
Q 5.328125 -16.65625 5.328125 -13.484375 
Q 5.328125 -10.9375 6.953125 -9.046875 
Q 8.59375 -7.171875 11.078125 -7.171875 
Q 12.75 -7.171875 13.859375 -8.171875 
Q 14.984375 -9.1875 14.984375 -10.796875 
Q 14.984375 -12.9375 13.390625 -14.71875 
Q 11.8125 -16.5 9.71875 -16.5 
z
" id="Cmmi10-66"/>
      </defs>
      <g transform="translate(382.510491 100.913766)scale(0.1 -0.1)">
       <use transform="translate(0 0.484375)" xlink:href="#Cmmi10-66"/>
      </g>
     </g>
    </g>
    <g id="xtick_3">
     <g id="line2d_28">
      <path clip-path="url(#pfcebc2cccf)" d="M 562.529887 87.704405 
L 562.529887 16.528672 
" style="fill:none;stroke:#000000;stroke-dasharray:0.5,0.825;stroke-dashoffset:0;stroke-width:0.5;"/>
     </g>
     <g id="line2d_29">
      <g>
       <use style="stroke:#000000;stroke-width:0.8;" x="562.529887" xlink:href="#md44d9e9607" y="86.335641"/>
      </g>
     </g>
     <g id="text_2">
      <!-- $1$ -->
      <defs>
       <path d="M 9.28125 0 
L 9.28125 3.515625 
Q 21.78125 3.515625 21.78125 6.6875 
L 21.78125 59.1875 
Q 16.609375 56.6875 8.6875 56.6875 
L 8.6875 60.203125 
Q 20.953125 60.203125 27.203125 66.609375 
L 28.609375 66.609375 
Q 28.953125 66.609375 29.265625 66.328125 
Q 29.59375 66.0625 29.59375 65.71875 
L 29.59375 6.6875 
Q 29.59375 3.515625 42.09375 3.515625 
L 42.09375 0 
z
" id="Cmr10-31"/>
      </defs>
      <g transform="translate(560.029887 100.934078)scale(0.1 -0.1)">
       <use transform="translate(0 0.390625)" xlink:href="#Cmr10-31"/>
      </g>
     </g>
    </g>
   </g>
   <g id="matplotlib.axis_2">
    <g id="ytick_1">
     <g id="line2d_30">
      <path clip-path="url(#pfcebc2cccf)" d="M 4.074135 86.335641 
L 573.48 86.335641 
" style="fill:none;stroke:#000000;stroke-dasharray:0.5,0.825;stroke-dashoffset:0;stroke-width:0.5;"/>
     </g>
     <g id="line2d_31">
      <defs>
       <path d="M 0 0 
L -3.5 0 
" id="m2201481794" style="stroke:#000000;stroke-width:0.8;"/>
      </defs>
      <g>
       <use style="stroke:#000000;stroke-width:0.8;" x="15.024247" xlink:href="#m2201481794" y="86.335641"/>
      </g>
     </g>
    </g>
    <g id="ytick_2">
     <g id="line2d_32">
      <path clip-path="url(#pfcebc2cccf)" d="M 4.074135 17.897436 
L 573.48 17.897436 
" style="fill:none;stroke:#000000;stroke-dasharray:0.5,0.825;stroke-dashoffset:0;stroke-width:0.5;"/>
     </g>
     <g id="line2d_33">
      <g>
       <use style="stroke:#000000;stroke-width:0.8;" x="15.024247" xlink:href="#m2201481794" y="17.897436"/>
      </g>
     </g>
     <g id="text_3">
      <!-- $1$ -->
      <g transform="translate(3.024247 21.696655)scale(0.1 -0.1)">
       <use transform="translate(0 0.390625)" xlink:href="#Cmr10-31"/>
      </g>
     </g>
    </g>
   </g>
   <g id="patch_3">
    <path d="M 15.024247 87.704405 
L 15.024247 16.528672 
" style="fill:none;stroke:#000000;stroke-linecap:square;stroke-linejoin:miter;stroke-width:0.8;"/>
   </g>
   <g id="patch_4">
    <path d="M 4.074135 86.335641 
L 573.48 86.335641 
" style="fill:none;stroke:#000000;stroke-linecap:square;stroke-linejoin:miter;stroke-width:0.8;"/>
   </g>
  </g>
 </g>
 <defs>
  <clipPath id="pfcebc2cccf">
   <rect height="71.175733" width="569.405865" x="4.074135" y="16.528672"/>
  </clipPath>
 </defs>
</svg>
