<?xml version="1.0" encoding="utf-8" standalone="no"?>
<!DOCTYPE svg PUBLIC "-//W3C//DTD SVG 1.1//EN"
  "http://www.w3.org/Graphics/SVG/1.1/DTD/svg11.dtd">
<!-- Created with matplotlib (http://matplotlib.org/) -->
<svg height="108pt" version="1.1" viewBox="0 0 576 108" width="576pt" xmlns="http://www.w3.org/2000/svg" xmlns:xlink="http://www.w3.org/1999/xlink">
 <defs>
  <style type="text/css">
*{stroke-linecap:butt;stroke-linejoin:round;}
  </style>
 </defs>
 <g id="figure_1">
  <g id="patch_1">
   <path d="M 0 108 
L 576 108 
L 576 0 
L 0 0 
z
" style="fill:#ffffff;"/>
  </g>
  <g id="axes_1">
   <g id="patch_2">
    <path d="M 4.074135 87.704405 
L 573.48 87.704405 
L 573.48 16.528672 
L 4.074135 16.528672 
z
" style="fill:#ffffff;"/>
   </g>
   <g id="line2d_1">
    <path clip-path="url(#p722928b7f2)" d="M 59.416597 61.241632 
L 89.011496 30.44444 
L 89.011496 30.44444 
" style="fill:none;stroke:#ff0000;stroke-linecap:square;stroke-width:2;"/>
   </g>
   <g id="line2d_2">
    <path clip-path="url(#p722928b7f2)" d="M 310.973242 73.788637 
L 340.568141 42.991444 
L 340.568141 42.991444 
" style="fill:none;stroke:#ff0000;stroke-linecap:square;stroke-width:2;"/>
   </g>
   <g id="line2d_3">
    <path clip-path="url(#p722928b7f2)" d="M 29.821697 49.835265 
L 59.416597 61.241632 
L 59.416597 61.241632 
" style="fill:none;stroke:#cbff00;stroke-linecap:square;stroke-width:2;"/>
   </g>
   <g id="line2d_4">
    <path clip-path="url(#p722928b7f2)" d="M 89.011496 30.44444 
L 118.606395 41.850808 
L 118.606395 41.850808 
" style="fill:none;stroke:#cbff00;stroke-linecap:square;stroke-width:2;"/>
   </g>
   <g id="line2d_5">
    <path clip-path="url(#p722928b7f2)" d="M 162.998745 33.638223 
L 192.593644 45.044591 
L 192.593644 45.044591 
" style="fill:none;stroke:#cbff00;stroke-linecap:square;stroke-width:2;"/>
   </g>
   <g id="line2d_6">
    <path clip-path="url(#p722928b7f2)" d="M 207.391094 59.188486 
L 207.526379 59.240628 
L 207.639132 59.284084 
L 207.84118 59.361957 
L 208.047674 59.441543 
L 208.175524 59.490819 
L 208.332794 59.551433 
L 208.42923 59.588601 
L 208.568634 59.64233 
L 208.661043 59.677946 
L 208.841225 59.747391 
L 209.042388 59.824923 
L 209.164066 59.871819 
L 209.269328 59.912389 
L 209.439733 59.978066 
L 209.61361 60.045081 
L 209.801258 60.117404 
L 209.849355 60.135941 
L 210.135577 60.246256 
L 210.164843 60.257535 
L 210.428285 60.359071 
L 210.53519 60.400273 
L 210.602716 60.426299 
L 210.802637 60.503352 
L 210.918929 60.548173 
L 211.1176 60.624744 
L 211.323007 60.703911 
L 211.347302 60.713275 
L 211.587914 60.806011 
L 211.632325 60.823127 
L 211.778766 60.879568 
L 211.982135 60.95795 
L 212.105418 61.005465 
L 212.239627 61.057192 
L 212.504558 61.159301 
L 212.604122 61.197674 
L 212.726552 61.244861 
L 212.8734 61.301459 
L 213.074776 61.379072 
L 213.145894 61.406482 
L 213.323533 61.474947 
L 213.451421 61.524237 
L 213.693505 61.61754 
L 213.792469 61.655683 
L 213.913102 61.702177 
L 214.053992 61.756478 
L 214.182133 61.805866 
L 214.344991 61.868634 
L 214.566751 61.954104 
L 214.718123 62.012446 
L 214.806978 62.046691 
L 214.931671 62.09475 
L 215.175835 62.188855 
L 215.31795 62.243629 
L 215.373521 62.265047 
L 215.570782 62.341074 
L 215.690346 62.387156 
L 215.92053 62.475873 
L 216.070667 62.533738 
L 216.092581 62.542184 
L 216.370328 62.649233 
L 216.53473 62.712596 
L 216.552611 62.719488 
L 216.829205 62.826092 
L 216.836761 62.829004 
L 217.047826 62.910352 
L 217.134855 62.943894 
L 217.292943 63.004824 
L 217.535805 63.098427 
L 217.656367 63.144894 
L 217.863089 63.224568 
L 217.999706 63.277222 
L 218.080553 63.308382 
L 218.291679 63.389754 
L 218.365321 63.418136 
L 218.532166 63.482441 
L 218.633435 63.521472 
L 218.875632 63.614819 
L 219.042502 63.679133 
L 219.07395 63.691254 
L 219.238247 63.754577 
L 219.38643 63.811689 
L 219.588492 63.889567 
L 219.721504 63.940832 
L 219.888061 64.005026 
L 220.01452 64.053765 
L 220.222525 64.133934 
L 220.276725 64.154823 
L 220.479805 64.233094 
L 220.632284 64.291862 
L 220.810489 64.360545 
L 220.878087 64.386598 
L 221.121484 64.480408 
L 221.234382 64.52392 
L 221.404573 64.589515 
L 221.519688 64.633882 
L 221.704298 64.705034 
L 221.8696 64.768744 
L 221.925495 64.790287 
L 222.158907 64.880248 
L 222.260326 64.919336 
L 222.474045 65.001707 
L 222.607858 65.053281 
L 222.67416 65.078835 
" style="fill:none;stroke:#cbff00;stroke-linecap:square;stroke-width:2;"/>
   </g>
   <g id="line2d_7">
    <path clip-path="url(#p722928b7f2)" d="M 223.22074 65.289496 
L 223.349269 65.339033 
L 223.39814 65.357869 
L 223.670168 65.462713 
L 223.813203 65.517841 
L 223.926805 65.561625 
L 224.022037 65.598329 
L 224.12796 65.639154 
L 224.336917 65.719689 
L 224.495649 65.780867 
L 224.623514 65.830148 
L 224.806057 65.900504 
L 224.913902 65.942069 
L 225.016082 65.981451 
L 225.294855 66.088894 
L 225.326664 66.101154 
L 225.492817 66.165192 
L 225.649435 66.225555 
L 225.79531 66.281778 
L 225.992556 66.3578 
L 226.06039 66.383944 
L 226.223365 66.446757 
L 226.420904 66.522892 
L 226.602696 66.592958 
L 226.719418 66.637945 
L 226.876554 66.698507 
L 227.081871 66.77764 
L 227.13712 66.798934 
L 227.311781 66.866251 
L 227.43965 66.915534 
L 227.635871 66.991161 
L 227.830932 67.066341 
L 227.975502 67.12206 
L 228.113688 67.17532 
L 228.138829 67.185009 
L 228.303432 67.24845 
L 228.477026 67.315356 
L 228.645342 67.380228 
L 228.804533 67.441583 
L 228.904847 67.480245 
L 229.038671 67.531823 
L 229.180187 67.586366 
L 229.331599 67.644723 
L 229.606484 67.750668 
L 229.682834 67.780095 
L 229.806943 67.827928 
L 229.938082 67.878471 
L 230.100676 67.941138 
L 230.297568 68.017023 
L 230.474915 68.085376 
L 230.549434 68.114096 
L 230.725073 68.181791 
L 230.945983 68.266933 
L 231.074362 68.316412 
L 231.240429 68.380418 
L 231.349376 68.422408 
L 231.409884 68.445728 
L 231.559189 68.503273 
L 231.749363 68.576569 
L 231.99057 68.669534 
L 232.100069 68.711737 
L 232.204706 68.752066 
L 232.39315 68.824696 
L 232.459707 68.850348 
L 232.62694 68.914802 
L 232.800359 68.981641 
L 232.896683 69.018765 
L 233.06777 69.084705 
L 233.332595 69.186773 
L 233.433082 69.225503 
L 233.530461 69.263034 
L 233.78339 69.360517 
L 233.929235 69.416728 
L 233.954748 69.426562 
L 234.219858 69.528739 
L 234.252878 69.541466 
L 234.454885 69.619323 
L 234.624194 69.684577 
L 234.760214 69.737001 
L 234.88178 69.783855 
L 234.988125 69.824842 
L 235.15742 69.890091 
L 235.37157 69.972628 
L 235.463664 70.008123 
L 235.668422 70.08704 
L 235.747526 70.117528 
L 235.921092 70.184423 
L 236.038676 70.229742 
L 236.268693 70.318394 
L 236.425885 70.378979 
L 236.58714 70.441129 
L 236.672655 70.474088 
L 236.835509 70.536855 
L 236.985993 70.594854 
" style="fill:none;stroke:#cbff00;stroke-linecap:square;stroke-width:2;"/>
   </g>
   <g id="line2d_8">
    <path clip-path="url(#p722928b7f2)" d="M 281.378342 62.382269 
L 310.973242 73.788637 
L 310.973242 73.788637 
" style="fill:none;stroke:#cbff00;stroke-linecap:square;stroke-width:2;"/>
   </g>
   <g id="line2d_9">
    <path clip-path="url(#p722928b7f2)" d="M 340.568141 42.991444 
L 370.163041 54.397812 
L 370.163041 54.397812 
" style="fill:none;stroke:#cbff00;stroke-linecap:square;stroke-width:2;"/>
   </g>
   <g id="line2d_10">
    <path clip-path="url(#p722928b7f2)" d="M 399.75794 32.041332 
L 414.55539 37.744515 
L 414.55539 37.744515 
" style="fill:none;stroke:#cbff00;stroke-linecap:square;stroke-width:2;"/>
   </g>
   <g id="line2d_11">
    <path clip-path="url(#p722928b7f2)" d="M 429.35284 51.888411 
L 444.150289 57.591595 
L 444.150289 57.591595 
" style="fill:none;stroke:#cbff00;stroke-linecap:square;stroke-width:2;"/>
   </g>
   <g id="line2d_12">
    <path clip-path="url(#p722928b7f2)" d="M 503.340088 46.641482 
L 518.137538 52.344666 
L 518.137538 52.344666 
" style="fill:none;stroke:#cbff00;stroke-linecap:square;stroke-width:2;"/>
   </g>
   <g id="line2d_13">
    <path clip-path="url(#p722928b7f2)" d="M 532.934988 66.488562 
L 547.732437 72.191745 
L 547.732437 72.191745 
" style="fill:none;stroke:#cbff00;stroke-linecap:square;stroke-width:2;"/>
   </g>
   <g id="line2d_14">
    <path clip-path="url(#p722928b7f2)" d="M 192.593644 45.044591 
L 207.391094 59.188486 
L 207.391094 59.188486 
" style="fill:none;stroke:#00ff66;stroke-linecap:square;stroke-width:2;"/>
   </g>
   <g id="line2d_15">
    <path clip-path="url(#p722928b7f2)" d="M 384.960491 17.897436 
L 399.75794 32.041332 
L 399.75794 32.041332 
" style="fill:none;stroke:#00ff66;stroke-linecap:square;stroke-width:2;"/>
   </g>
   <g id="line2d_16">
    <path clip-path="url(#p722928b7f2)" d="M 414.55539 37.744515 
L 429.35284 51.888411 
L 429.35284 51.888411 
" style="fill:none;stroke:#00ff66;stroke-linecap:square;stroke-width:2;"/>
   </g>
   <g id="line2d_17">
    <path clip-path="url(#p722928b7f2)" d="M 518.137538 52.344666 
L 532.934988 66.488562 
L 532.934988 66.488562 
" style="fill:none;stroke:#00ff66;stroke-linecap:square;stroke-width:2;"/>
   </g>
   <g id="line2d_18">
    <path clip-path="url(#p722928b7f2)" d="M 547.732437 72.191745 
L 562.529887 86.335641 
L 562.529887 86.335641 
" style="fill:none;stroke:#00ff66;stroke-linecap:square;stroke-width:2;"/>
   </g>
   <g id="line2d_19">
    <path clip-path="url(#p722928b7f2)" d="M 118.606395 41.850808 
L 162.998745 33.638223 
L 162.998745 33.638223 
" style="fill:none;stroke:#0066ff;stroke-linecap:square;stroke-width:2;"/>
   </g>
   <g id="line2d_20">
    <path clip-path="url(#p722928b7f2)" d="M 236.985993 70.594854 
L 281.378342 62.382269 
L 281.378342 62.382269 
" style="fill:none;stroke:#0066ff;stroke-linecap:square;stroke-width:2;"/>
   </g>
   <g id="line2d_21">
    <path clip-path="url(#p722928b7f2)" d="M 444.150289 57.591595 
L 503.340088 46.641482 
L 503.340088 46.641482 
" style="fill:none;stroke:#0066ff;stroke-linecap:square;stroke-width:2;"/>
   </g>
   <g id="line2d_22">
    <path clip-path="url(#p722928b7f2)" d="M 15.024247 86.335641 
L 29.821697 49.835265 
L 29.821697 49.835265 
" style="fill:none;stroke:#cc00ff;stroke-linecap:square;stroke-width:2;"/>
   </g>
   <g id="line2d_23">
    <path clip-path="url(#p722928b7f2)" d="M 370.163041 54.397812 
L 384.960491 17.897436 
L 384.960491 17.897436 
" style="fill:none;stroke:#cc00ff;stroke-linecap:square;stroke-width:2;"/>
   </g>
   <g id="matplotlib.axis_1">
    <g id="xtick_1">
     <g id="line2d_24">
      <path clip-path="url(#p722928b7f2)" d="M 15.024247 87.704405 
L 15.024247 16.528672 
" style="fill:none;stroke:#000000;stroke-dasharray:0.5,0.825;stroke-dashoffset:0;stroke-width:0.5;"/>
     </g>
     <g id="line2d_25">
      <defs>
       <path d="M 0 0 
L 0 3.5 
" id="mfb4b6ee1ca" style="stroke:#000000;stroke-width:0.8;"/>
      </defs>
      <g>
       <use style="stroke:#000000;stroke-width:0.8;" x="15.024247" xlink:href="#mfb4b6ee1ca" y="86.335641"/>
      </g>
     </g>
    </g>
    <g id="xtick_2">
     <g id="line2d_26">
      <path clip-path="url(#p722928b7f2)" d="M 384.960491 87.704405 
L 384.960491 16.528672 
" style="fill:none;stroke:#000000;stroke-dasharray:0.5,0.825;stroke-dashoffset:0;stroke-width:0.5;"/>
     </g>
     <g id="line2d_27">
      <g>
       <use style="stroke:#000000;stroke-width:0.8;" x="384.960491" xlink:href="#mfb4b6ee1ca" y="86.335641"/>
      </g>
     </g>
     <g id="text_1">
      <!-- $f$ -->
      <defs>
       <path d="M 9.71875 -16.5 
Q 11.578125 -17.921875 14.203125 -17.921875 
Q 17.78125 -17.921875 20.015625 -10.015625 
Q 20.953125 -6.203125 25.09375 15.09375 
L 29.6875 39.59375 
L 21.09375 39.59375 
Q 20.125 39.59375 20.125 40.921875 
Q 20.515625 43.109375 21.390625 43.109375 
L 30.328125 43.109375 
L 31.5 49.609375 
Q 32.078125 52.640625 32.5625 54.8125 
Q 33.0625 56.984375 33.625 58.828125 
Q 34.1875 60.6875 35.296875 62.984375 
Q 37.015625 66.265625 39.921875 68.390625 
Q 42.828125 70.515625 46.1875 70.515625 
Q 48.390625 70.515625 50.46875 69.703125 
Q 52.546875 68.890625 53.859375 67.28125 
Q 55.171875 65.671875 55.171875 63.484375 
Q 55.171875 60.9375 53.484375 59.046875 
Q 51.8125 57.171875 49.421875 57.171875 
Q 47.796875 57.171875 46.65625 58.171875 
Q 45.515625 59.1875 45.515625 60.796875 
Q 45.515625 62.984375 47 64.625 
Q 48.484375 66.265625 50.6875 66.5 
Q 48.828125 67.921875 46.09375 67.921875 
Q 44.578125 67.921875 43.234375 66.5 
Q 41.890625 65.09375 41.5 63.484375 
Q 40.875 60.9375 38.71875 49.703125 
L 37.5 43.109375 
L 47.796875 43.109375 
Q 48.78125 43.109375 48.78125 41.796875 
Q 48.734375 41.546875 48.578125 40.9375 
Q 48.4375 40.328125 48.171875 39.953125 
Q 47.90625 39.59375 47.515625 39.59375 
L 36.8125 39.59375 
L 32.171875 15.1875 
Q 31.296875 9.859375 30.140625 4.359375 
Q 29 -1.125 26.921875 -6.90625 
Q 24.859375 -12.703125 21.625 -16.609375 
Q 18.40625 -20.515625 14.015625 -20.515625 
Q 10.640625 -20.515625 7.984375 -18.578125 
Q 5.328125 -16.65625 5.328125 -13.484375 
Q 5.328125 -10.9375 6.953125 -9.046875 
Q 8.59375 -7.171875 11.078125 -7.171875 
Q 12.75 -7.171875 13.859375 -8.171875 
Q 14.984375 -9.1875 14.984375 -10.796875 
Q 14.984375 -12.9375 13.390625 -14.71875 
Q 11.8125 -16.5 9.71875 -16.5 
z
" id="Cmmi10-66"/>
      </defs>
      <g transform="translate(382.510491 100.913766)scale(0.1 -0.1)">
       <use transform="translate(0 0.484375)" xlink:href="#Cmmi10-66"/>
      </g>
     </g>
    </g>
    <g id="xtick_3">
     <g id="line2d_28">
      <path clip-path="url(#p722928b7f2)" d="M 562.529887 87.704405 
L 562.529887 16.528672 
" style="fill:none;stroke:#000000;stroke-dasharray:0.5,0.825;stroke-dashoffset:0;stroke-width:0.5;"/>
     </g>
     <g id="line2d_29">
      <g>
       <use style="stroke:#000000;stroke-width:0.8;" x="562.529887" xlink:href="#mfb4b6ee1ca" y="86.335641"/>
      </g>
     </g>
     <g id="text_2">
      <!-- $1$ -->
      <defs>
       <path d="M 9.28125 0 
L 9.28125 3.515625 
Q 21.78125 3.515625 21.78125 6.6875 
L 21.78125 59.1875 
Q 16.609375 56.6875 8.6875 56.6875 
L 8.6875 60.203125 
Q 20.953125 60.203125 27.203125 66.609375 
L 28.609375 66.609375 
Q 28.953125 66.609375 29.265625 66.328125 
Q 29.59375 66.0625 29.59375 65.71875 
L 29.59375 6.6875 
Q 29.59375 3.515625 42.09375 3.515625 
L 42.09375 0 
z
" id="Cmr10-31"/>
      </defs>
      <g transform="translate(560.029887 100.934078)scale(0.1 -0.1)">
       <use transform="translate(0 0.390625)" xlink:href="#Cmr10-31"/>
      </g>
     </g>
    </g>
   </g>
   <g id="matplotlib.axis_2">
    <g id="ytick_1">
     <g id="line2d_30">
      <path clip-path="url(#p722928b7f2)" d="M 4.074135 86.335641 
L 573.48 86.335641 
" style="fill:none;stroke:#000000;stroke-dasharray:0.5,0.825;stroke-dashoffset:0;stroke-width:0.5;"/>
     </g>
     <g id="line2d_31">
      <defs>
       <path d="M 0 0 
L -3.5 0 
" id="m2be6c1868b" style="stroke:#000000;stroke-width:0.8;"/>
      </defs>
      <g>
       <use style="stroke:#000000;stroke-width:0.8;" x="15.024247" xlink:href="#m2be6c1868b" y="86.335641"/>
      </g>
     </g>
    </g>
    <g id="ytick_2">
     <g id="line2d_32">
      <path clip-path="url(#p722928b7f2)" d="M 4.074135 17.897436 
L 573.48 17.897436 
" style="fill:none;stroke:#000000;stroke-dasharray:0.5,0.825;stroke-dashoffset:0;stroke-width:0.5;"/>
     </g>
     <g id="line2d_33">
      <g>
       <use style="stroke:#000000;stroke-width:0.8;" x="15.024247" xlink:href="#m2be6c1868b" y="17.897436"/>
      </g>
     </g>
     <g id="text_3">
      <!-- $1$ -->
      <g transform="translate(3.024247 21.696655)scale(0.1 -0.1)">
       <use transform="translate(0 0.390625)" xlink:href="#Cmr10-31"/>
      </g>
     </g>
    </g>
   </g>
   <g id="patch_3">
    <path d="M 15.024247 87.704405 
L 15.024247 16.528672 
" style="fill:none;stroke:#000000;stroke-linecap:square;stroke-linejoin:miter;stroke-width:0.8;"/>
   </g>
   <g id="patch_4">
    <path d="M 4.074135 86.335641 
L 573.48 86.335641 
" style="fill:none;stroke:#000000;stroke-linecap:square;stroke-linejoin:miter;stroke-width:0.8;"/>
   </g>
  </g>
 </g>
 <defs>
  <clipPath id="p722928b7f2">
   <rect height="71.175733" width="569.405865" x="4.074135" y="16.528672"/>
  </clipPath>
 </defs>
</svg>
