<?xml version="1.0" encoding="utf-8" standalone="no"?>
<!DOCTYPE svg PUBLIC "-//W3C//DTD SVG 1.1//EN"
  "http://www.w3.org/Graphics/SVG/1.1/DTD/svg11.dtd">
<!-- Created with matplotlib (http://matplotlib.org/) -->
<svg height="108pt" version="1.1" viewBox="0 0 576 108" width="576pt" xmlns="http://www.w3.org/2000/svg" xmlns:xlink="http://www.w3.org/1999/xlink">
 <defs>
  <style type="text/css">
*{stroke-linecap:butt;stroke-linejoin:round;}
  </style>
 </defs>
 <g id="figure_1">
  <g id="patch_1">
   <path d="M 0 108 
L 576 108 
L 576 0 
L 0 0 
z
" style="fill:#ffffff;"/>
  </g>
  <g id="axes_1">
   <g id="patch_2">
    <path d="M 4.074135 87.704405 
L 573.48 87.704405 
L 573.48 16.528672 
L 4.074135 16.528672 
z
" style="fill:#ffffff;"/>
   </g>
   <g id="line2d_1">
    <path clip-path="url(#p22323a92ba)" d="M 118.606395 47.006899 
L 162.998745 32.607005 
L 162.998745 32.607005 
" style="fill:none;stroke:#ff0000;stroke-linecap:square;stroke-width:2;"/>
   </g>
   <g id="line2d_2">
    <path clip-path="url(#p22323a92ba)" d="M 236.985993 71.626072 
L 281.378342 57.226178 
L 281.378342 57.226178 
" style="fill:none;stroke:#ff0000;stroke-linecap:square;stroke-width:2;"/>
   </g>
   <g id="line2d_3">
    <path clip-path="url(#p22323a92ba)" d="M 444.150289 61.716468 
L 503.340088 42.516609 
L 503.340088 42.516609 
" style="fill:none;stroke:#ff0000;stroke-linecap:square;stroke-width:2;"/>
   </g>
   <g id="line2d_4">
    <path clip-path="url(#p22323a92ba)" d="M 15.024247 86.335641 
L 29.821697 41.432746 
L 29.821697 41.432746 
" style="fill:none;stroke:#cbff00;stroke-linecap:square;stroke-width:2;"/>
   </g>
   <g id="line2d_5">
    <path clip-path="url(#p22323a92ba)" d="M 370.163041 62.800331 
L 384.960491 17.897436 
L 384.960491 17.897436 
" style="fill:none;stroke:#cbff00;stroke-linecap:square;stroke-width:2;"/>
   </g>
   <g id="line2d_6">
    <path clip-path="url(#p22323a92ba)" d="M 192.593644 45.923036 
L 207.391094 58.310041 
L 207.391094 58.310041 
" style="fill:none;stroke:#00ff66;stroke-linecap:square;stroke-width:2;"/>
   </g>
   <g id="line2d_7">
    <path clip-path="url(#p22323a92ba)" d="M 384.960491 17.897436 
L 429.35284 55.058452 
L 429.35284 55.058452 
" style="fill:none;stroke:#00ff66;stroke-linecap:square;stroke-width:2;"/>
   </g>
   <g id="line2d_8">
    <path clip-path="url(#p22323a92ba)" d="M 518.137538 49.174625 
L 562.529887 86.335641 
L 562.529887 86.335641 
" style="fill:none;stroke:#00ff66;stroke-linecap:square;stroke-width:2;"/>
   </g>
   <g id="line2d_9">
    <path clip-path="url(#p22323a92ba)" d="M 59.416597 54.748777 
L 89.011496 33.690868 
L 89.011496 33.690868 
" style="fill:none;stroke:#0066ff;stroke-linecap:square;stroke-width:2;"/>
   </g>
   <g id="line2d_10">
    <path clip-path="url(#p22323a92ba)" d="M 310.973242 70.542209 
L 340.568141 49.4843 
L 340.568141 49.4843 
" style="fill:none;stroke:#0066ff;stroke-linecap:square;stroke-width:2;"/>
   </g>
   <g id="line2d_11">
    <path clip-path="url(#p22323a92ba)" d="M 29.821697 41.432746 
L 59.416597 54.748777 
L 59.416597 54.748777 
" style="fill:none;stroke:#cc00ff;stroke-linecap:square;stroke-width:2;"/>
   </g>
   <g id="line2d_12">
    <path clip-path="url(#p22323a92ba)" d="M 89.011496 33.690868 
L 118.606395 47.006899 
L 118.606395 47.006899 
" style="fill:none;stroke:#cc00ff;stroke-linecap:square;stroke-width:2;"/>
   </g>
   <g id="line2d_13">
    <path clip-path="url(#p22323a92ba)" d="M 162.998745 32.607005 
L 192.593644 45.923036 
L 192.593644 45.923036 
" style="fill:none;stroke:#cc00ff;stroke-linecap:square;stroke-width:2;"/>
   </g>
   <g id="line2d_14">
    <path clip-path="url(#p22323a92ba)" d="M 207.391094 58.310041 
L 236.985993 71.626072 
L 236.985993 71.626072 
" style="fill:none;stroke:#cc00ff;stroke-linecap:square;stroke-width:2;"/>
   </g>
   <g id="line2d_15">
    <path clip-path="url(#p22323a92ba)" d="M 281.378342 57.226178 
L 310.973242 70.542209 
L 310.973242 70.542209 
" style="fill:none;stroke:#cc00ff;stroke-linecap:square;stroke-width:2;"/>
   </g>
   <g id="line2d_16">
    <path clip-path="url(#p22323a92ba)" d="M 340.568141 49.4843 
L 370.163041 62.800331 
L 370.163041 62.800331 
" style="fill:none;stroke:#cc00ff;stroke-linecap:square;stroke-width:2;"/>
   </g>
   <g id="line2d_17">
    <path clip-path="url(#p22323a92ba)" d="M 429.35284 55.058452 
L 429.398656 55.079067 
L 429.536533 55.141104 
L 429.572455 55.157267 
L 429.6605 55.196882 
L 429.734793 55.230309 
L 429.823519 55.270231 
L 429.843026 55.279008 
L 429.978135 55.3398 
L 429.997753 55.348627 
L 430.079138 55.385245 
L 430.171591 55.426844 
L 430.221263 55.449194 
L 430.347016 55.505776 
L 430.38442 55.522605 
L 430.432254 55.544128 
L 430.507244 55.577869 
L 430.62024 55.628711 
L 430.717452 55.672451 
L 430.733076 55.679481 
L 430.828065 55.72222 
L 430.919503 55.763362 
L 431.022672 55.809782 
L 431.077885 55.834625 
L 431.164843 55.873751 
L 431.195097 55.887364 
L 431.275711 55.923635 
L 431.378894 55.970062 
L 431.405872 55.982201 
L 431.527186 56.036785 
L 431.613213 56.075492 
L 431.690816 56.110409 
L 431.746327 56.135386 
L 431.816313 56.166876 
L 431.916245 56.21184 
L 431.983019 56.241884 
L 432.033923 56.264788 
L 432.110375 56.299187 
L 432.188925 56.33453 
L 432.241414 56.358147 
L 432.290259 56.380125 
L 432.390803 56.425364 
L 432.499802 56.474407 
L 432.541326 56.493091 
L 432.63392 56.534753 
L 432.66399 56.548283 
L 432.767003 56.594633 
L 432.823926 56.620245 
L 432.940389 56.672646 
L 432.983553 56.692068 
L 433.063223 56.727915 
L 433.159675 56.771313 
L 433.232811 56.80422 
L 433.33074 56.848283 
L 433.403951 56.881223 
L 433.446459 56.90035 
L 433.491659 56.920687 
L 433.626761 56.981475 
L 433.688522 57.009264 
L 433.76175 57.042212 
L 433.781245 57.050984 
L 433.851962 57.082803 
L 433.932167 57.118891 
L 434.070271 57.181029 
L 434.129128 57.207512 
L 434.184334 57.232351 
L 434.271854 57.27173 
L 434.330429 57.298086 
L 434.434349 57.344844 
L 434.479134 57.364995 
L 434.560171 57.401457 
L 434.651318 57.442468 
L 434.717235 57.472127 
L 434.763182 57.4928 
L 434.824472 57.520377 
L 434.903504 57.555937 
L 435.002879 57.60065 
L 435.077462 57.634208 
L 435.177728 57.679323 
L 435.236603 57.705813 
L 435.301487 57.735007 
L 435.345056 57.754611 
L 435.449233 57.801485 
L 435.557172 57.850051 
L 435.635517 57.885302 
L 435.700164 57.914389 
L 435.768077 57.944946 
L 435.830655 57.973103 
L 435.875336 57.993207 
L 435.963968 58.033086 
L 436.066679 58.0793 
L 436.123383 58.104814 
L 436.164295 58.123222 
L 436.29851 58.183611 
" style="fill:none;stroke:#cc00ff;stroke-linecap:square;stroke-width:2;"/>
   </g>
   <g id="line2d_18">
    <path clip-path="url(#p22323a92ba)" d="M 436.523025 58.28463 
L 436.591717 58.315538 
L 436.607491 58.322635 
L 436.724001 58.375058 
L 436.797515 58.408135 
L 436.866235 58.439055 
L 436.906195 58.457035 
L 437.028338 58.511992 
L 437.058502 58.525565 
L 437.178033 58.579347 
L 437.206761 58.592273 
L 437.336475 58.650637 
L 437.387392 58.673546 
L 437.494205 58.721606 
L 437.513169 58.730139 
L 437.593707 58.766376 
L 437.712569 58.819857 
L 437.751105 58.837196 
L 437.857175 58.884922 
L 437.892562 58.900844 
L 438.009967 58.95367 
L 438.042942 58.968507 
L 438.105438 58.996627 
L 438.224982 59.050414 
L 438.269386 59.070394 
L 438.348435 59.105961 
L 438.419874 59.138105 
L 438.521112 59.183656 
L 438.598577 59.218511 
L 438.674703 59.252763 
L 438.749221 59.286292 
L 438.801014 59.309596 
L 438.894925 59.351851 
L 438.938991 59.371678 
L 439.04736 59.420438 
L 439.071742 59.431409 
L 439.183204 59.48156 
L 439.243029 59.508478 
L 439.307352 59.53742 
L 439.378817 59.569575 
L 439.451993 59.6025 
L 439.572566 59.656751 
L 439.584702 59.662211 
L 439.681566 59.705795 
L 439.753301 59.738072 
L 439.813664 59.765231 
L 439.917918 59.81214 
L 439.967037 59.834241 
L 440.066384 59.878941 
L 440.130151 59.907633 
L 440.187107 59.93326 
L 440.316255 59.991369 
L 440.388818 60.024018 
L 440.451955 60.052426 
L 440.51261 60.079718 
L 440.616618 60.126515 
L 440.647524 60.140421 
L 440.723443 60.174581 
L 440.790454 60.204732 
L 440.900935 60.254442 
L 440.973795 60.287225 
L 441.036604 60.315485 
L 441.066818 60.32908 
L 441.19549 60.386975 
L 441.237151 60.40572 
L 441.309632 60.438332 
L 441.400647 60.479284 
L 441.497406 60.52282 
L 441.517961 60.532069 
L 441.620687 60.57829 
L 441.667251 60.599241 
L 441.798799 60.65843 
L 441.813505 60.665047 
L 441.942987 60.723307 
L 441.970401 60.735641 
L 442.032372 60.763525 
L 442.129023 60.807012 
L 442.211416 60.844084 
L 442.319697 60.892805 
L 442.380798 60.920297 
L 442.43202 60.943343 
L 442.478097 60.964076 
L 442.596841 61.017504 
L 442.69605 61.062142 
L 442.746701 61.084932 
L 442.823071 61.119294 
L 442.899506 61.153686 
L 442.987597 61.193322 
L 443.047051 61.220073 
L 443.074256 61.232314 
L 443.185525 61.282378 
L 443.277574 61.323795 
L 443.305786 61.336489 
L 443.422438 61.388976 
L 443.483173 61.416303 
L 443.530831 61.437747 
L 443.647619 61.490295 
L 443.738607 61.531234 
L 443.758724 61.540285 
L 443.873814 61.592069 
L 443.918424 61.612141 
L 444.012005 61.654248 
L 444.097569 61.692746 
L 444.150289 61.716468 
" style="fill:none;stroke:#cc00ff;stroke-linecap:square;stroke-width:2;"/>
   </g>
   <g id="line2d_19">
    <path clip-path="url(#p22323a92ba)" d="M 503.340088 42.516609 
L 518.137538 49.174625 
L 518.137538 49.174625 
" style="fill:none;stroke:#cc00ff;stroke-linecap:square;stroke-width:2;"/>
   </g>
   <g id="matplotlib.axis_1">
    <g id="xtick_1">
     <g id="line2d_20">
      <path clip-path="url(#p22323a92ba)" d="M 15.024247 87.704405 
L 15.024247 16.528672 
" style="fill:none;stroke:#000000;stroke-dasharray:0.5,0.825;stroke-dashoffset:0;stroke-width:0.5;"/>
     </g>
     <g id="line2d_21">
      <defs>
       <path d="M 0 0 
L 0 3.5 
" id="m87494cc88b" style="stroke:#000000;stroke-width:0.8;"/>
      </defs>
      <g>
       <use style="stroke:#000000;stroke-width:0.8;" x="15.024247" xlink:href="#m87494cc88b" y="86.335641"/>
      </g>
     </g>
    </g>
    <g id="xtick_2">
     <g id="line2d_22">
      <path clip-path="url(#p22323a92ba)" d="M 384.960491 87.704405 
L 384.960491 16.528672 
" style="fill:none;stroke:#000000;stroke-dasharray:0.5,0.825;stroke-dashoffset:0;stroke-width:0.5;"/>
     </g>
     <g id="line2d_23">
      <g>
       <use style="stroke:#000000;stroke-width:0.8;" x="384.960491" xlink:href="#m87494cc88b" y="86.335641"/>
      </g>
     </g>
     <g id="text_1">
      <!-- $f$ -->
      <defs>
       <path d="M 9.71875 -16.5 
Q 11.578125 -17.921875 14.203125 -17.921875 
Q 17.78125 -17.921875 20.015625 -10.015625 
Q 20.953125 -6.203125 25.09375 15.09375 
L 29.6875 39.59375 
L 21.09375 39.59375 
Q 20.125 39.59375 20.125 40.921875 
Q 20.515625 43.109375 21.390625 43.109375 
L 30.328125 43.109375 
L 31.5 49.609375 
Q 32.078125 52.640625 32.5625 54.8125 
Q 33.0625 56.984375 33.625 58.828125 
Q 34.1875 60.6875 35.296875 62.984375 
Q 37.015625 66.265625 39.921875 68.390625 
Q 42.828125 70.515625 46.1875 70.515625 
Q 48.390625 70.515625 50.46875 69.703125 
Q 52.546875 68.890625 53.859375 67.28125 
Q 55.171875 65.671875 55.171875 63.484375 
Q 55.171875 60.9375 53.484375 59.046875 
Q 51.8125 57.171875 49.421875 57.171875 
Q 47.796875 57.171875 46.65625 58.171875 
Q 45.515625 59.1875 45.515625 60.796875 
Q 45.515625 62.984375 47 64.625 
Q 48.484375 66.265625 50.6875 66.5 
Q 48.828125 67.921875 46.09375 67.921875 
Q 44.578125 67.921875 43.234375 66.5 
Q 41.890625 65.09375 41.5 63.484375 
Q 40.875 60.9375 38.71875 49.703125 
L 37.5 43.109375 
L 47.796875 43.109375 
Q 48.78125 43.109375 48.78125 41.796875 
Q 48.734375 41.546875 48.578125 40.9375 
Q 48.4375 40.328125 48.171875 39.953125 
Q 47.90625 39.59375 47.515625 39.59375 
L 36.8125 39.59375 
L 32.171875 15.1875 
Q 31.296875 9.859375 30.140625 4.359375 
Q 29 -1.125 26.921875 -6.90625 
Q 24.859375 -12.703125 21.625 -16.609375 
Q 18.40625 -20.515625 14.015625 -20.515625 
Q 10.640625 -20.515625 7.984375 -18.578125 
Q 5.328125 -16.65625 5.328125 -13.484375 
Q 5.328125 -10.9375 6.953125 -9.046875 
Q 8.59375 -7.171875 11.078125 -7.171875 
Q 12.75 -7.171875 13.859375 -8.171875 
Q 14.984375 -9.1875 14.984375 -10.796875 
Q 14.984375 -12.9375 13.390625 -14.71875 
Q 11.8125 -16.5 9.71875 -16.5 
z
" id="Cmmi10-66"/>
      </defs>
      <g transform="translate(382.510491 100.913766)scale(0.1 -0.1)">
       <use transform="translate(0 0.484375)" xlink:href="#Cmmi10-66"/>
      </g>
     </g>
    </g>
    <g id="xtick_3">
     <g id="line2d_24">
      <path clip-path="url(#p22323a92ba)" d="M 562.529887 87.704405 
L 562.529887 16.528672 
" style="fill:none;stroke:#000000;stroke-dasharray:0.5,0.825;stroke-dashoffset:0;stroke-width:0.5;"/>
     </g>
     <g id="line2d_25">
      <g>
       <use style="stroke:#000000;stroke-width:0.8;" x="562.529887" xlink:href="#m87494cc88b" y="86.335641"/>
      </g>
     </g>
     <g id="text_2">
      <!-- $1$ -->
      <defs>
       <path d="M 9.28125 0 
L 9.28125 3.515625 
Q 21.78125 3.515625 21.78125 6.6875 
L 21.78125 59.1875 
Q 16.609375 56.6875 8.6875 56.6875 
L 8.6875 60.203125 
Q 20.953125 60.203125 27.203125 66.609375 
L 28.609375 66.609375 
Q 28.953125 66.609375 29.265625 66.328125 
Q 29.59375 66.0625 29.59375 65.71875 
L 29.59375 6.6875 
Q 29.59375 3.515625 42.09375 3.515625 
L 42.09375 0 
z
" id="Cmr10-31"/>
      </defs>
      <g transform="translate(560.029887 100.934078)scale(0.1 -0.1)">
       <use transform="translate(0 0.390625)" xlink:href="#Cmr10-31"/>
      </g>
     </g>
    </g>
   </g>
   <g id="matplotlib.axis_2">
    <g id="ytick_1">
     <g id="line2d_26">
      <path clip-path="url(#p22323a92ba)" d="M 4.074135 86.335641 
L 573.48 86.335641 
" style="fill:none;stroke:#000000;stroke-dasharray:0.5,0.825;stroke-dashoffset:0;stroke-width:0.5;"/>
     </g>
     <g id="line2d_27">
      <defs>
       <path d="M 0 0 
L -3.5 0 
" id="mff3345fa87" style="stroke:#000000;stroke-width:0.8;"/>
      </defs>
      <g>
       <use style="stroke:#000000;stroke-width:0.8;" x="15.024247" xlink:href="#mff3345fa87" y="86.335641"/>
      </g>
     </g>
    </g>
    <g id="ytick_2">
     <g id="line2d_28">
      <path clip-path="url(#p22323a92ba)" d="M 4.074135 17.897436 
L 573.48 17.897436 
" style="fill:none;stroke:#000000;stroke-dasharray:0.5,0.825;stroke-dashoffset:0;stroke-width:0.5;"/>
     </g>
     <g id="line2d_29">
      <g>
       <use style="stroke:#000000;stroke-width:0.8;" x="15.024247" xlink:href="#mff3345fa87" y="17.897436"/>
      </g>
     </g>
     <g id="text_3">
      <!-- $1$ -->
      <g transform="translate(3.024247 21.696655)scale(0.1 -0.1)">
       <use transform="translate(0 0.390625)" xlink:href="#Cmr10-31"/>
      </g>
     </g>
    </g>
   </g>
   <g id="patch_3">
    <path d="M 15.024247 87.704405 
L 15.024247 16.528672 
" style="fill:none;stroke:#000000;stroke-linecap:square;stroke-linejoin:miter;stroke-width:0.8;"/>
   </g>
   <g id="patch_4">
    <path d="M 4.074135 86.335641 
L 573.48 86.335641 
" style="fill:none;stroke:#000000;stroke-linecap:square;stroke-linejoin:miter;stroke-width:0.8;"/>
   </g>
  </g>
 </g>
 <defs>
  <clipPath id="p22323a92ba">
   <rect height="71.175733" width="569.405865" x="4.074135" y="16.528672"/>
  </clipPath>
 </defs>
</svg>
