<?xml version="1.0" encoding="utf-8" standalone="no"?>
<!DOCTYPE svg PUBLIC "-//W3C//DTD SVG 1.1//EN"
  "http://www.w3.org/Graphics/SVG/1.1/DTD/svg11.dtd">
<!-- Created with matplotlib (http://matplotlib.org/) -->
<svg height="108pt" version="1.1" viewBox="0 0 576 108" width="576pt" xmlns="http://www.w3.org/2000/svg" xmlns:xlink="http://www.w3.org/1999/xlink">
 <defs>
  <style type="text/css">
*{stroke-linecap:butt;stroke-linejoin:round;}
  </style>
 </defs>
 <g id="figure_1">
  <g id="patch_1">
   <path d="M 0 108 
L 576 108 
L 576 0 
L 0 0 
z
" style="fill:#ffffff;"/>
  </g>
  <g id="axes_1">
   <g id="patch_2">
    <path d="M 4.074135 87.704405 
L 573.48 87.704405 
L 573.48 16.528672 
L 4.074135 16.528672 
z
" style="fill:#ffffff;"/>
   </g>
   <g id="line2d_1">
    <path clip-path="url(#p38c0d2159a)" d="M 139.457347 37.278167 
L 164.343967 48.785475 
L 164.343967 48.785475 
" style="fill:none;stroke:#ff0000;stroke-linecap:square;stroke-width:2;"/>
   </g>
   <g id="line2d_2">
    <path clip-path="url(#p38c0d2159a)" d="M 214.117207 45.151588 
L 239.003827 56.658897 
L 239.003827 56.658897 
" style="fill:none;stroke:#ff0000;stroke-linecap:square;stroke-width:2;"/>
   </g>
   <g id="line2d_3">
    <path clip-path="url(#p38c0d2159a)" d="M 263.890447 28.193449 
L 288.777067 39.700758 
L 288.777067 39.700758 
" style="fill:none;stroke:#ff0000;stroke-linecap:square;stroke-width:2;"/>
   </g>
   <g id="line2d_4">
    <path clip-path="url(#p38c0d2159a)" d="M 313.663687 64.532319 
L 338.550307 76.039628 
L 338.550307 76.039628 
" style="fill:none;stroke:#ff0000;stroke-linecap:square;stroke-width:2;"/>
   </g>
   <g id="line2d_5">
    <path clip-path="url(#p38c0d2159a)" d="M 363.436927 47.57418 
L 388.323547 59.081489 
L 388.323547 59.081489 
" style="fill:none;stroke:#ff0000;stroke-linecap:square;stroke-width:2;"/>
   </g>
   <g id="line2d_6">
    <path clip-path="url(#p38c0d2159a)" d="M 438.096787 55.447602 
L 462.983407 66.95491 
L 462.983407 66.95491 
" style="fill:none;stroke:#ff0000;stroke-linecap:square;stroke-width:2;"/>
   </g>
   <g id="line2d_7">
    <path clip-path="url(#p38c0d2159a)" d="M 39.910867 17.897436 
L 89.684107 67.560558 
L 89.684107 67.560558 
" style="fill:none;stroke:#cbff00;stroke-linecap:square;stroke-width:2;"/>
   </g>
   <g id="line2d_8">
    <path clip-path="url(#p38c0d2159a)" d="M 288.777067 39.700758 
L 313.663687 64.532319 
L 313.663687 64.532319 
" style="fill:none;stroke:#cbff00;stroke-linecap:square;stroke-width:2;"/>
   </g>
   <g id="line2d_9">
    <path clip-path="url(#p38c0d2159a)" d="M 512.756647 36.672519 
L 513.118109 37.033181 
L 513.323777 37.238394 
L 513.604201 37.518197 
L 513.805957 37.719507 
L 514.127488 38.040326 
L 514.329559 38.241951 
L 514.387332 38.299596 
L 514.81618 38.727495 
L 514.924301 38.835377 
L 515.323763 39.233955 
L 515.386347 39.296401 
L 515.70769 39.617033 
L 516.11938 40.027812 
L 516.299177 40.207211 
L 516.464526 40.372195 
L 516.719125 40.62623 
L 517.004771 40.911244 
L 517.288731 41.194576 
L 517.436981 41.342498 
L 517.85977 41.764352 
L 517.910404 41.814873 
L 518.33951 42.24303 
L 518.631195 42.53407 
L 518.870415 42.77276 
L 519.126504 43.028283 
L 519.277951 43.179395 
L 519.524111 43.42501 
L 519.755344 43.655732 
L 519.912455 43.812495 
L 520.216266 44.115634 
L 520.522236 44.420927 
L 520.801309 44.699382 
L 520.893922 44.79179 
L 521.279223 45.176239 
L 521.480165 45.376737 
L 521.75905 45.655005 
L 522.048201 45.943516 
L 522.33862 46.233293 
L 522.548079 46.442288 
L 522.705873 46.599732 
L 522.927705 46.821074 
L 523.283584 47.176166 
L 523.598921 47.490805 
L 523.641782 47.533571 
L 524.008941 47.899918 
L 524.245501 48.135954 
L 524.390517 48.28065 
L 524.780603 48.669873 
L 525.124258 49.012768 
L 525.169948 49.058357 
L 525.431846 49.319675 
L 525.855882 49.742773 
L 526.003757 49.890321 
L 526.216841 50.102933 
L 526.608906 50.494131 
L 526.682644 50.567706 
L 527.135461 51.019521 
L 527.275265 51.159015 
L 527.453775 51.337131 
L 527.852845 51.735318 
L 527.913241 51.79558 
L 528.159886 52.04168 
L 528.411795 52.293031 
L 528.691966 52.572582 
L 529.003355 52.883282 
L 529.322376 53.201598 
L 529.507526 53.386338 
L 529.792288 53.67047 
L 530.070599 53.948165 
L 530.240698 54.117888 
L 530.53489 54.41143 
L 530.862718 54.738531 
L 530.992236 54.867763 
L 531.31124 55.186062 
L 531.634788 55.508893 
L 531.750548 55.624398 
L 531.935818 55.809258 
L 532.219842 56.092653 
L 532.607097 56.479051 
" style="fill:none;stroke:#cbff00;stroke-linecap:square;stroke-width:2;"/>
   </g>
   <g id="line2d_10">
    <path clip-path="url(#p38c0d2159a)" d="M 533.262755 57.133259 
L 533.481573 57.351593 
L 533.82529 57.694549 
L 534.082017 57.950708 
L 534.209297 58.077707 
L 534.497363 58.365135 
L 534.68362 58.550981 
L 534.969991 58.836718 
L 535.207507 59.073709 
L 535.445688 59.311362 
L 535.818938 59.683786 
L 536.097168 59.961401 
L 536.200099 60.064104 
L 536.398722 60.262288 
L 536.650832 60.51384 
L 536.900196 60.762653 
L 537.144603 61.006519 
L 537.429414 61.2907 
L 537.673817 61.534563 
L 538.095513 61.955325 
L 538.293914 62.153288 
L 538.597393 62.456094 
L 538.70158 62.560051 
L 539.078249 62.935887 
L 539.215889 63.073223 
L 539.567087 63.423643 
L 539.73921 63.595385 
L 539.896742 63.752569 
L 540.144617 63.999895 
L 540.609221 64.463472 
L 540.769149 64.623046 
L 541.138387 64.991467 
L 541.1558 65.008842 
L 541.430449 65.282883 
L 541.768208 65.619894 
L 542.024937 65.876055 
L 542.31465 66.165127 
L 542.529638 66.37964 
L 542.726571 66.576138 
L 543.101364 66.950101 
L 543.349959 67.198146 
L 543.641042 67.488585 
L 543.70436 67.551763 
L 544.138022 67.984466 
L 544.311312 68.157372 
L 544.587269 68.432719 
L 544.777447 68.622476 
L 545.143105 68.987325 
L 545.335581 69.179376 
L 545.500652 69.344081 
L 545.820765 69.663485 
L 545.949914 69.792349 
L 546.317594 70.159216 
L 546.485549 70.326799 
L 546.709083 70.549838 
L 547.017752 70.857824 
L 547.322053 71.161453 
L 547.568839 71.407693 
L 547.719648 71.558168 
L 547.993505 71.831419 
L 548.285468 72.122736 
L 548.439331 72.276258 
L 548.839837 72.675879 
L 549.104608 72.940064 
L 549.297956 73.132984 
L 549.493741 73.328335 
L 549.839087 73.672917 
L 550.001876 73.835347 
L 550.238375 74.071323 
L 550.548733 74.380994 
L 550.886295 74.717809 
L 551.047602 74.878759 
L 551.234775 75.065517 
L 551.573791 75.403784 
L 551.650989 75.480812 
L 552.080574 75.909446 
L 552.210382 76.038966 
L 552.563496 76.3913 
L 552.700863 76.528363 
L 552.932776 76.759762 
L 553.215102 77.041464 
L 553.496864 77.322603 
L 553.771468 77.596599 
L 553.961537 77.786247 
L 554.315181 78.139109 
L 554.462824 78.286425 
L 554.832134 78.654918 
L 554.910086 78.732698 
L 555.373087 79.194675 
L 555.4566 79.278003 
L 555.834286 79.654853 
L 555.915773 79.73616 
L 556.390146 80.209483 
L 556.582973 80.401884 
L 556.804822 80.623241 
L 556.911668 80.729851 
L 557.400429 81.217531 
L 557.4117 81.228777 
L 557.864332 81.680407 
L 558.101333 81.916885 
L 558.233836 82.049094 
L 558.492001 82.306689 
L 558.828243 82.642186 
L 559.08654 82.899911 
L 559.372209 83.184949 
L 559.635332 83.44749 
L 559.783027 83.594857 
L 559.973222 83.784632 
L 560.326298 84.136927 
L 560.481425 84.29171 
L 560.682531 84.492372 
L 561.13668 84.945516 
L 561.348333 85.156701 
L 561.577874 85.385734 
L 561.825311 85.632623 
L 562.140012 85.946628 
L 562.300811 86.107071 
L 562.529887 86.335641 
" style="fill:none;stroke:#cbff00;stroke-linecap:square;stroke-width:2;"/>
   </g>
   <g id="line2d_11">
    <path clip-path="url(#p38c0d2159a)" d="M 114.570727 65.743615 
L 139.457347 37.278167 
L 139.457347 37.278167 
" style="fill:none;stroke:#00ff66;stroke-linecap:square;stroke-width:2;"/>
   </g>
   <g id="line2d_12">
    <path clip-path="url(#p38c0d2159a)" d="M 239.003827 56.658897 
L 263.890447 28.193449 
L 263.890447 28.193449 
" style="fill:none;stroke:#00ff66;stroke-linecap:square;stroke-width:2;"/>
   </g>
   <g id="line2d_13">
    <path clip-path="url(#p38c0d2159a)" d="M 338.550307 76.039628 
L 363.436927 47.57418 
L 363.436927 47.57418 
" style="fill:none;stroke:#00ff66;stroke-linecap:square;stroke-width:2;"/>
   </g>
   <g id="line2d_14">
    <path clip-path="url(#p38c0d2159a)" d="M 462.983407 66.95491 
L 487.870027 38.489462 
L 487.870027 38.489462 
" style="fill:none;stroke:#00ff66;stroke-linecap:square;stroke-width:2;"/>
   </g>
   <g id="line2d_15">
    <path clip-path="url(#p38c0d2159a)" d="M 89.684107 67.560558 
L 89.855281 67.548061 
L 89.960784 67.540358 
L 90.053749 67.533571 
L 90.219215 67.521491 
L 90.337727 67.512838 
L 90.42706 67.506316 
L 90.614924 67.4926 
L 90.623421 67.49198 
L 90.826794 67.477132 
L 90.916727 67.470566 
L 91.096556 67.457437 
L 91.179301 67.451396 
L 91.301741 67.442457 
L 91.409893 67.434561 
L 91.56516 67.423225 
L 91.666285 67.415842 
L 91.861141 67.401615 
L 91.986166 67.392488 
L 92.025138 67.389642 
L 92.166409 67.379328 
L 92.326593 67.367633 
L 92.393216 67.362769 
L 92.60107 67.347594 
L 92.734543 67.337849 
L 92.76566 67.335578 
L 92.958443 67.321503 
L 93.074041 67.313063 
L 93.22721 67.30188 
L 93.25068 67.300167 
L 93.489637 67.282721 
L 93.583298 67.275883 
L 93.697475 67.267547 
L 93.839354 67.257188 
L 93.886019 67.253781 
L 94.095562 67.238483 
L 94.193042 67.231366 
L 94.255216 67.226827 
L 94.393585 67.216725 
L 94.548482 67.205416 
L 94.65558 67.197597 
L 94.751461 67.190596 
L 94.94187 67.176695 
L 95.109514 67.164455 
L 95.216098 67.156674 
L 95.276974 67.152229 
L 95.400905 67.143181 
L 95.50844 67.13533 
L 95.691769 67.121946 
L 95.773612 67.11597 
L 95.892692 67.107277 
L 96.026875 67.09748 
L 96.189114 67.085635 
L 96.273775 67.079454 
L 96.436576 67.067568 
L 96.599415 67.05568 
L 96.725338 67.046486 
L 96.863442 67.036403 
L 96.88353 67.034937 
L 97.06754 67.021502 
L 97.183939 67.013004 
L 97.321325 67.002974 
L 97.380324 66.998666 
L 97.566689 66.98506 
L 97.720735 66.973813 
L 97.803168 66.967795 
L 97.966784 66.955849 
L 98.092851 66.946645 
L 98.159308 66.941794 
L 98.331931 66.92919 
L 98.394239 66.924642 
L 98.587154 66.910557 
L 98.750754 66.898613 
L 98.851621 66.891249 
L 98.964085 66.883038 
L 99.050631 66.876719 
L 99.195846 66.866117 
L 99.340597 66.855549 
L 99.41676 66.849988 
L 99.590512 66.837303 
L 99.654927 66.8326 
L 99.808921 66.821357 
L 99.977862 66.809023 
L 100.04268 66.804291 
L 100.135523 66.797512 
L 100.270087 66.787688 
L 100.420629 66.776697 
L 100.523754 66.769168 
L 100.701842 66.756166 
L 100.784591 66.750125 
" style="fill:none;stroke:#0066ff;stroke-linecap:square;stroke-width:2;"/>
   </g>
   <g id="line2d_16">
    <path clip-path="url(#p38c0d2159a)" d="M 101.144201 66.72387 
L 101.283165 66.713724 
L 101.41779 66.703895 
L 101.57145 66.692677 
L 101.711181 66.682475 
L 101.790566 66.67668 
L 101.984478 66.662522 
L 102.12124 66.652537 
L 102.17834 66.648369 
L 102.280642 66.6409 
L 102.501175 66.624799 
L 102.614182 66.616548 
L 102.664143 66.612901 
L 102.850492 66.599296 
L 102.970499 66.590534 
L 103.013901 66.587365 
L 103.196551 66.57403 
L 103.274476 66.568341 
L 103.425811 66.557292 
L 103.540741 66.548901 
L 103.715419 66.536148 
L 103.754969 66.533261 
L 103.913226 66.521707 
L 104.119015 66.506682 
L 104.181529 66.502118 
L 104.337492 66.490731 
L 104.472761 66.480856 
L 104.508177 66.47827 
L 104.727611 66.462249 
L 104.788165 66.457828 
L 104.894172 66.450089 
L 105.123643 66.433335 
L 105.205369 66.427369 
L 105.290332 66.421166 
L 105.404475 66.412832 
L 105.54073 66.402884 
L 105.720659 66.389748 
L 105.864229 66.379266 
L 105.903882 66.376371 
L 106.128648 66.359961 
L 106.251867 66.350965 
L 106.350131 66.343791 
L 106.45246 66.33632 
L 106.51424 66.33181 
L 106.701002 66.318174 
L 106.816691 66.309728 
L 106.945998 66.300287 
L 107.040841 66.293363 
L 107.192416 66.282297 
L 107.331272 66.272159 
L 107.441174 66.264135 
L 107.558008 66.255605 
L 107.714662 66.244168 
L 107.86632 66.233096 
L 107.903472 66.230383 
L 108.018996 66.221949 
L 108.136652 66.213359 
L 108.2916 66.202047 
L 108.407026 66.193619 
L 108.614987 66.178436 
L 108.636974 66.176831 
L 108.821152 66.163385 
L 109.003414 66.150078 
L 109.055662 66.146263 
L 109.198041 66.135868 
L 109.357582 66.12422 
L 109.43117 66.118848 
L 109.623257 66.104824 
L 109.635303 66.103944 
L 109.862301 66.087371 
L 109.906508 66.084144 
L 110.088625 66.070848 
L 110.251362 66.058967 
L 110.323528 66.053698 
L 110.487538 66.041724 
L 110.584777 66.034624 
L 110.696187 66.02649 
L 110.789553 66.019674 
L 110.914657 66.01054 
L 111.120403 65.995519 
L 111.173771 65.991623 
L 111.308086 65.981816 
L 111.431349 65.972817 
L 111.511975 65.966931 
L 111.741012 65.950209 
L 111.822675 65.944247 
L 111.887374 65.939523 
L 112.088013 65.924875 
L 112.220803 65.91518 
L 112.29462 65.909791 
L 112.388916 65.902906 
L 112.570252 65.889667 
L 112.635786 65.884883 
L 112.847906 65.869396 
L 112.915939 65.864429 
L 113.020018 65.85683 
L 113.214034 65.842665 
L 113.34811 65.832877 
L 113.390879 65.829754 
L 113.580904 65.815881 
L 113.654753 65.810489 
L 113.80528 65.799499 
L 113.898052 65.792726 
L 114.058393 65.78102 
L 114.172978 65.772654 
L 114.343383 65.760213 
L 114.472049 65.750819 
L 114.570727 65.743615 
" style="fill:none;stroke:#0066ff;stroke-linecap:square;stroke-width:2;"/>
   </g>
   <g id="line2d_17">
    <path clip-path="url(#p38c0d2159a)" d="M 164.343967 48.785475 
L 214.117207 45.151588 
L 214.117207 45.151588 
" style="fill:none;stroke:#0066ff;stroke-linecap:square;stroke-width:2;"/>
   </g>
   <g id="line2d_18">
    <path clip-path="url(#p38c0d2159a)" d="M 388.323547 59.081489 
L 438.096787 55.447602 
L 438.096787 55.447602 
" style="fill:none;stroke:#0066ff;stroke-linecap:square;stroke-width:2;"/>
   </g>
   <g id="line2d_19">
    <path clip-path="url(#p38c0d2159a)" d="M 487.870027 38.489462 
L 512.756647 36.672519 
L 512.756647 36.672519 
" style="fill:none;stroke:#0066ff;stroke-linecap:square;stroke-width:2;"/>
   </g>
   <g id="line2d_20">
    <path clip-path="url(#p38c0d2159a)" d="M 15.024247 86.335641 
L 39.910867 17.897436 
L 39.910867 17.897436 
" style="fill:none;stroke:#cc00ff;stroke-linecap:square;stroke-width:2;"/>
   </g>
   <g id="matplotlib.axis_1">
    <g id="xtick_1">
     <g id="line2d_21">
      <path clip-path="url(#p38c0d2159a)" d="M 15.024247 87.704405 
L 15.024247 16.528672 
" style="fill:none;stroke:#000000;stroke-dasharray:0.5,0.825;stroke-dashoffset:0;stroke-width:0.5;"/>
     </g>
     <g id="line2d_22">
      <defs>
       <path d="M 0 0 
L 0 3.5 
" id="mae02dd9df0" style="stroke:#000000;stroke-width:0.8;"/>
      </defs>
      <g>
       <use style="stroke:#000000;stroke-width:0.8;" x="15.024247" xlink:href="#mae02dd9df0" y="86.335641"/>
      </g>
     </g>
    </g>
    <g id="xtick_2">
     <g id="line2d_23">
      <path clip-path="url(#p38c0d2159a)" d="M 39.910867 87.704405 
L 39.910867 16.528672 
" style="fill:none;stroke:#000000;stroke-dasharray:0.5,0.825;stroke-dashoffset:0;stroke-width:0.5;"/>
     </g>
     <g id="line2d_24">
      <g>
       <use style="stroke:#000000;stroke-width:0.8;" x="39.910867" xlink:href="#mae02dd9df0" y="86.335641"/>
      </g>
     </g>
     <g id="text_1">
      <!-- $f$ -->
      <defs>
       <path d="M 9.71875 -16.5 
Q 11.578125 -17.921875 14.203125 -17.921875 
Q 17.78125 -17.921875 20.015625 -10.015625 
Q 20.953125 -6.203125 25.09375 15.09375 
L 29.6875 39.59375 
L 21.09375 39.59375 
Q 20.125 39.59375 20.125 40.921875 
Q 20.515625 43.109375 21.390625 43.109375 
L 30.328125 43.109375 
L 31.5 49.609375 
Q 32.078125 52.640625 32.5625 54.8125 
Q 33.0625 56.984375 33.625 58.828125 
Q 34.1875 60.6875 35.296875 62.984375 
Q 37.015625 66.265625 39.921875 68.390625 
Q 42.828125 70.515625 46.1875 70.515625 
Q 48.390625 70.515625 50.46875 69.703125 
Q 52.546875 68.890625 53.859375 67.28125 
Q 55.171875 65.671875 55.171875 63.484375 
Q 55.171875 60.9375 53.484375 59.046875 
Q 51.8125 57.171875 49.421875 57.171875 
Q 47.796875 57.171875 46.65625 58.171875 
Q 45.515625 59.1875 45.515625 60.796875 
Q 45.515625 62.984375 47 64.625 
Q 48.484375 66.265625 50.6875 66.5 
Q 48.828125 67.921875 46.09375 67.921875 
Q 44.578125 67.921875 43.234375 66.5 
Q 41.890625 65.09375 41.5 63.484375 
Q 40.875 60.9375 38.71875 49.703125 
L 37.5 43.109375 
L 47.796875 43.109375 
Q 48.78125 43.109375 48.78125 41.796875 
Q 48.734375 41.546875 48.578125 40.9375 
Q 48.4375 40.328125 48.171875 39.953125 
Q 47.90625 39.59375 47.515625 39.59375 
L 36.8125 39.59375 
L 32.171875 15.1875 
Q 31.296875 9.859375 30.140625 4.359375 
Q 29 -1.125 26.921875 -6.90625 
Q 24.859375 -12.703125 21.625 -16.609375 
Q 18.40625 -20.515625 14.015625 -20.515625 
Q 10.640625 -20.515625 7.984375 -18.578125 
Q 5.328125 -16.65625 5.328125 -13.484375 
Q 5.328125 -10.9375 6.953125 -9.046875 
Q 8.59375 -7.171875 11.078125 -7.171875 
Q 12.75 -7.171875 13.859375 -8.171875 
Q 14.984375 -9.1875 14.984375 -10.796875 
Q 14.984375 -12.9375 13.390625 -14.71875 
Q 11.8125 -16.5 9.71875 -16.5 
z
" id="Cmmi10-66"/>
      </defs>
      <g transform="translate(37.460867 100.913766)scale(0.1 -0.1)">
       <use transform="translate(0 0.484375)" xlink:href="#Cmmi10-66"/>
      </g>
     </g>
    </g>
    <g id="xtick_3">
     <g id="line2d_25">
      <path clip-path="url(#p38c0d2159a)" d="M 562.529887 87.704405 
L 562.529887 16.528672 
" style="fill:none;stroke:#000000;stroke-dasharray:0.5,0.825;stroke-dashoffset:0;stroke-width:0.5;"/>
     </g>
     <g id="line2d_26">
      <g>
       <use style="stroke:#000000;stroke-width:0.8;" x="562.529887" xlink:href="#mae02dd9df0" y="86.335641"/>
      </g>
     </g>
     <g id="text_2">
      <!-- $1$ -->
      <defs>
       <path d="M 9.28125 0 
L 9.28125 3.515625 
Q 21.78125 3.515625 21.78125 6.6875 
L 21.78125 59.1875 
Q 16.609375 56.6875 8.6875 56.6875 
L 8.6875 60.203125 
Q 20.953125 60.203125 27.203125 66.609375 
L 28.609375 66.609375 
Q 28.953125 66.609375 29.265625 66.328125 
Q 29.59375 66.0625 29.59375 65.71875 
L 29.59375 6.6875 
Q 29.59375 3.515625 42.09375 3.515625 
L 42.09375 0 
z
" id="Cmr10-31"/>
      </defs>
      <g transform="translate(560.029887 100.934078)scale(0.1 -0.1)">
       <use transform="translate(0 0.390625)" xlink:href="#Cmr10-31"/>
      </g>
     </g>
    </g>
   </g>
   <g id="matplotlib.axis_2">
    <g id="ytick_1">
     <g id="line2d_27">
      <path clip-path="url(#p38c0d2159a)" d="M 4.074135 86.335641 
L 573.48 86.335641 
" style="fill:none;stroke:#000000;stroke-dasharray:0.5,0.825;stroke-dashoffset:0;stroke-width:0.5;"/>
     </g>
     <g id="line2d_28">
      <defs>
       <path d="M 0 0 
L -3.5 0 
" id="m27a3f95709" style="stroke:#000000;stroke-width:0.8;"/>
      </defs>
      <g>
       <use style="stroke:#000000;stroke-width:0.8;" x="15.024247" xlink:href="#m27a3f95709" y="86.335641"/>
      </g>
     </g>
    </g>
    <g id="ytick_2">
     <g id="line2d_29">
      <path clip-path="url(#p38c0d2159a)" d="M 4.074135 17.897436 
L 573.48 17.897436 
" style="fill:none;stroke:#000000;stroke-dasharray:0.5,0.825;stroke-dashoffset:0;stroke-width:0.5;"/>
     </g>
     <g id="line2d_30">
      <g>
       <use style="stroke:#000000;stroke-width:0.8;" x="15.024247" xlink:href="#m27a3f95709" y="17.897436"/>
      </g>
     </g>
     <g id="text_3">
      <!-- $1$ -->
      <g transform="translate(3.024247 21.696655)scale(0.1 -0.1)">
       <use transform="translate(0 0.390625)" xlink:href="#Cmr10-31"/>
      </g>
     </g>
    </g>
   </g>
   <g id="patch_3">
    <path d="M 15.024247 87.704405 
L 15.024247 16.528672 
" style="fill:none;stroke:#000000;stroke-linecap:square;stroke-linejoin:miter;stroke-width:0.8;"/>
   </g>
   <g id="patch_4">
    <path d="M 4.074135 86.335641 
L 573.48 86.335641 
" style="fill:none;stroke:#000000;stroke-linecap:square;stroke-linejoin:miter;stroke-width:0.8;"/>
   </g>
  </g>
 </g>
 <defs>
  <clipPath id="p38c0d2159a">
   <rect height="71.175733" width="569.405865" x="4.074135" y="16.528672"/>
  </clipPath>
 </defs>
</svg>
