<?xml version="1.0" encoding="utf-8" standalone="no"?>
<!DOCTYPE svg PUBLIC "-//W3C//DTD SVG 1.1//EN"
  "http://www.w3.org/Graphics/SVG/1.1/DTD/svg11.dtd">
<!-- Created with matplotlib (http://matplotlib.org/) -->
<svg height="108pt" version="1.1" viewBox="0 0 576 108" width="576pt" xmlns="http://www.w3.org/2000/svg" xmlns:xlink="http://www.w3.org/1999/xlink">
 <defs>
  <style type="text/css">
*{stroke-linecap:butt;stroke-linejoin:round;}
  </style>
 </defs>
 <g id="figure_1">
  <g id="patch_1">
   <path d="M 0 108 
L 576 108 
L 576 0 
L 0 0 
z
" style="fill:#ffffff;"/>
  </g>
  <g id="axes_1">
   <g id="patch_2">
    <path d="M 4.074135 87.704405 
L 573.48 87.704405 
L 573.48 16.528672 
L 4.074135 16.528672 
z
" style="fill:#ffffff;"/>
   </g>
   <g id="line2d_1">
    <path clip-path="url(#pd8bf6dcec9)" d="M 220.338862 17.897436 
L 288.777067 86.335641 
L 288.777067 86.335641 
" style="fill:none;stroke:#ff0000;stroke-linecap:square;stroke-width:2;"/>
   </g>
   <g id="line2d_2">
    <path clip-path="url(#pd8bf6dcec9)" d="M 494.091682 17.897436 
L 562.529887 86.335641 
L 562.529887 86.335641 
" style="fill:none;stroke:#ff0000;stroke-linecap:square;stroke-width:2;"/>
   </g>
   <g id="line2d_3">
    <path clip-path="url(#pd8bf6dcec9)" d="M 15.024247 86.335641 
L 15.986868 86.014767 
L 17.239942 85.597076 
L 17.737299 85.43129 
L 19.156816 84.958118 
L 19.972315 84.686285 
L 21.038651 84.33084 
L 21.78446 84.082237 
L 23.463862 83.522436 
L 24.30705 83.241374 
L 25.252317 82.926284 
L 26.351178 82.559997 
L 27.077937 82.317745 
L 28.543911 81.829086 
L 29.199271 81.610633 
L 30.639771 81.130466 
L 31.866104 80.721689 
L 33.047009 80.328054 
L 33.184884 80.282095 
L 34.594362 79.812269 
L 36.152091 79.293026 
L 36.48932 79.180617 
L 37.755373 78.758599 
L 38.967379 78.354597 
L 40.032819 77.99945 
L 41.241404 77.596589 
L 42.311981 77.23973 
L 42.992754 77.012805 
L 43.636056 76.798371 
L 45.264477 76.255564 
L 46.109413 75.973919 
L 47.395597 75.545191 
L 47.957237 75.357978 
L 48.735821 75.09845 
L 49.613063 74.806036 
L 50.77934 74.417277 
L 51.810652 74.073506 
L 53.439521 73.53055 
L 54.01082 73.340117 
L 54.995967 73.011734 
L 56.695768 72.445134 
L 57.019824 72.337116 
L 57.937707 72.031154 
L 59.273711 71.58582 
L 60.231621 71.266516 
L 61.727149 70.768007 
L 62.192485 70.612895 
L 63.161804 70.289789 
L 64.149771 69.960466 
L 65.967265 69.354635 
L 66.638509 69.130887 
L 67.608099 68.80769 
L 68.498924 68.510749 
L 69.893648 68.045841 
L 70.750984 67.760062 
L 71.981521 67.349883 
L 73.009667 67.007168 
L 74.020825 66.670115 
L 75.322873 66.236099 
L 75.960938 66.023411 
L 76.849677 65.727164 
L 77.811857 65.406438 
L 79.122233 64.969646 
L 80.398013 64.544386 
L 81.111834 64.306446 
L 81.95176 64.02647 
L 82.991438 63.679911 
L 83.920064 63.370369 
L 84.677917 63.117751 
L 86.078633 62.650846 
L 87.400876 62.210098 
L 88.728617 61.767518 
L 89.807867 61.407768 
L 90.112915 61.306085 
L 91.202222 60.942983 
L 92.648865 60.460768 
L 93.381809 60.216454 
L 94.537646 59.831175 
L 95.380751 59.55014 
L 96.742752 59.096139 
L 97.517004 58.838055 
L 98.960843 58.356776 
L 99.397361 58.21127 
L 100.833859 57.732437 
L 101.667672 57.454499 
" style="fill:none;stroke:#00ffff;stroke-linecap:square;stroke-width:2;"/>
   </g>
   <g id="line2d_4">
    <path clip-path="url(#pd8bf6dcec9)" d="M 104.546071 56.495033 
L 105.495453 56.178572 
L 106.405754 55.875139 
L 107.470206 55.520321 
L 109.145272 54.961966 
L 110.05659 54.658193 
L 110.553561 54.492536 
L 112.505053 53.842039 
L 112.747654 53.761172 
L 113.625666 53.468502 
L 115.253408 52.925921 
L 115.977683 52.684496 
L 117.043753 52.329139 
L 118.157351 51.95794 
L 119.156137 51.625011 
L 120.123091 51.302693 
L 121.352984 50.892729 
L 122.355274 50.558632 
L 122.878129 50.384347 
L 124.896027 49.711714 
L 125.32148 49.569897 
L 126.6889 49.11409 
L 127.440116 48.863685 
L 128.140724 48.630149 
L 129.631052 48.133373 
L 130.487542 47.847876 
L 131.522928 47.502747 
L 132.651543 47.126542 
L 134.120298 46.636957 
L 135.099074 46.310699 
L 135.402092 46.209693 
L 136.269157 45.920671 
L 137.535089 45.498694 
L 138.810653 45.073506 
L 139.643231 44.79598 
L 140.436533 44.531546 
L 141.85998 44.057063 
L 143.455958 43.525071 
L 144.30499 43.24206 
L 144.656978 43.124731 
L 146.459165 42.524002 
L 147.355881 42.225096 
L 147.853454 42.059239 
L 148.820205 41.736989 
L 150.611276 41.139965 
L 150.925834 41.035112 
L 152.433172 40.532666 
L 153.241097 40.263358 
L 154.33993 39.89708 
L 155.16301 39.62272 
L 156.884908 39.048754 
L 157.455946 38.858408 
L 158.15984 38.623777 
L 159.871952 38.053073 
L 160.870476 37.720232 
L 161.497329 37.51128 
L 162.336709 37.231487 
L 163.494695 36.845492 
L 164.97074 36.353477 
L 165.464284 36.188962 
L 167.109033 35.640713 
L 167.777512 35.417886 
L 169.044007 34.995721 
L 169.710867 34.773434 
L 171.106639 34.308177 
L 171.509221 34.173983 
L 172.403921 33.87575 
L 173.832187 33.399661 
L 175.069784 32.987129 
L 175.706215 32.774985 
L 176.85113 32.393347 
L 177.761476 32.089898 
L 179.500165 31.510335 
L 179.999893 31.343759 
L 181.615525 30.805215 
L 182.449048 30.527374 
L 182.992814 30.346119 
L 183.742107 30.096355 
L 185.300847 29.576774 
L 186.690072 29.113699 
L 187.385794 28.881792 
L 187.999988 28.677061 
L 189.740516 28.096885 
L 190.439652 27.86384 
L 191.872535 27.386212 
L 192.275876 27.251765 
L 193.16476 26.95547 
L 194.679132 26.450679 
L 195.634167 26.132335 
L 196.171093 25.953359 
L 198.077745 25.317808 
L 199.127382 24.967929 
L 199.75916 24.757337 
L 200.364773 24.555466 
L 202.175738 23.951811 
L 202.79487 23.745433 
L 204.034359 23.33227 
L 204.515079 23.17203 
L 205.857538 22.724544 
L 207.427945 22.201075 
L 208.219932 21.937079 
L 208.674276 21.785632 
L 209.657273 21.457966 
L 210.847744 21.061142 
L 211.731881 20.76643 
L 213.286943 20.248076 
L 214.631981 19.79973 
L 215.408919 19.54075 
L 216.422231 19.20298 
L 217.343503 18.895889 
L 218.364071 18.5557 
L 219.05659 18.32486 
L 220.338862 17.897436 
" style="fill:none;stroke:#00ffff;stroke-linecap:square;stroke-width:2;"/>
   </g>
   <g id="line2d_5">
    <path clip-path="url(#pd8bf6dcec9)" d="M 288.777067 86.335641 
L 494.091682 17.897436 
L 494.091682 17.897436 
" style="fill:none;stroke:#00ffff;stroke-linecap:square;stroke-width:2;"/>
   </g>
   <g id="matplotlib.axis_1">
    <g id="xtick_1">
     <g id="line2d_6">
      <path clip-path="url(#pd8bf6dcec9)" d="M 15.024247 87.704405 
L 15.024247 16.528672 
" style="fill:none;stroke:#000000;stroke-dasharray:0.5,0.825;stroke-dashoffset:0;stroke-width:0.5;"/>
     </g>
     <g id="line2d_7">
      <defs>
       <path d="M 0 0 
L 0 3.5 
" id="mca2a761587" style="stroke:#000000;stroke-width:0.8;"/>
      </defs>
      <g>
       <use style="stroke:#000000;stroke-width:0.8;" x="15.024247" xlink:href="#mca2a761587" y="86.335641"/>
      </g>
     </g>
    </g>
    <g id="xtick_2">
     <g id="line2d_8">
      <path clip-path="url(#pd8bf6dcec9)" d="M 220.338862 87.704405 
L 220.338862 16.528672 
" style="fill:none;stroke:#000000;stroke-dasharray:0.5,0.825;stroke-dashoffset:0;stroke-width:0.5;"/>
     </g>
     <g id="line2d_9">
      <g>
       <use style="stroke:#000000;stroke-width:0.8;" x="220.338862" xlink:href="#mca2a761587" y="86.335641"/>
      </g>
     </g>
     <g id="text_1">
      <!-- $f$ -->
      <defs>
       <path d="M 9.71875 -16.5 
Q 11.578125 -17.921875 14.203125 -17.921875 
Q 17.78125 -17.921875 20.015625 -10.015625 
Q 20.953125 -6.203125 25.09375 15.09375 
L 29.6875 39.59375 
L 21.09375 39.59375 
Q 20.125 39.59375 20.125 40.921875 
Q 20.515625 43.109375 21.390625 43.109375 
L 30.328125 43.109375 
L 31.5 49.609375 
Q 32.078125 52.640625 32.5625 54.8125 
Q 33.0625 56.984375 33.625 58.828125 
Q 34.1875 60.6875 35.296875 62.984375 
Q 37.015625 66.265625 39.921875 68.390625 
Q 42.828125 70.515625 46.1875 70.515625 
Q 48.390625 70.515625 50.46875 69.703125 
Q 52.546875 68.890625 53.859375 67.28125 
Q 55.171875 65.671875 55.171875 63.484375 
Q 55.171875 60.9375 53.484375 59.046875 
Q 51.8125 57.171875 49.421875 57.171875 
Q 47.796875 57.171875 46.65625 58.171875 
Q 45.515625 59.1875 45.515625 60.796875 
Q 45.515625 62.984375 47 64.625 
Q 48.484375 66.265625 50.6875 66.5 
Q 48.828125 67.921875 46.09375 67.921875 
Q 44.578125 67.921875 43.234375 66.5 
Q 41.890625 65.09375 41.5 63.484375 
Q 40.875 60.9375 38.71875 49.703125 
L 37.5 43.109375 
L 47.796875 43.109375 
Q 48.78125 43.109375 48.78125 41.796875 
Q 48.734375 41.546875 48.578125 40.9375 
Q 48.4375 40.328125 48.171875 39.953125 
Q 47.90625 39.59375 47.515625 39.59375 
L 36.8125 39.59375 
L 32.171875 15.1875 
Q 31.296875 9.859375 30.140625 4.359375 
Q 29 -1.125 26.921875 -6.90625 
Q 24.859375 -12.703125 21.625 -16.609375 
Q 18.40625 -20.515625 14.015625 -20.515625 
Q 10.640625 -20.515625 7.984375 -18.578125 
Q 5.328125 -16.65625 5.328125 -13.484375 
Q 5.328125 -10.9375 6.953125 -9.046875 
Q 8.59375 -7.171875 11.078125 -7.171875 
Q 12.75 -7.171875 13.859375 -8.171875 
Q 14.984375 -9.1875 14.984375 -10.796875 
Q 14.984375 -12.9375 13.390625 -14.71875 
Q 11.8125 -16.5 9.71875 -16.5 
z
" id="Cmmi10-66"/>
      </defs>
      <g transform="translate(217.888862 100.913766)scale(0.1 -0.1)">
       <use transform="translate(0 0.484375)" xlink:href="#Cmmi10-66"/>
      </g>
     </g>
    </g>
    <g id="xtick_3">
     <g id="line2d_10">
      <path clip-path="url(#pd8bf6dcec9)" d="M 562.529887 87.704405 
L 562.529887 16.528672 
" style="fill:none;stroke:#000000;stroke-dasharray:0.5,0.825;stroke-dashoffset:0;stroke-width:0.5;"/>
     </g>
     <g id="line2d_11">
      <g>
       <use style="stroke:#000000;stroke-width:0.8;" x="562.529887" xlink:href="#mca2a761587" y="86.335641"/>
      </g>
     </g>
     <g id="text_2">
      <!-- $1$ -->
      <defs>
       <path d="M 9.28125 0 
L 9.28125 3.515625 
Q 21.78125 3.515625 21.78125 6.6875 
L 21.78125 59.1875 
Q 16.609375 56.6875 8.6875 56.6875 
L 8.6875 60.203125 
Q 20.953125 60.203125 27.203125 66.609375 
L 28.609375 66.609375 
Q 28.953125 66.609375 29.265625 66.328125 
Q 29.59375 66.0625 29.59375 65.71875 
L 29.59375 6.6875 
Q 29.59375 3.515625 42.09375 3.515625 
L 42.09375 0 
z
" id="Cmr10-31"/>
      </defs>
      <g transform="translate(560.029887 100.934078)scale(0.1 -0.1)">
       <use transform="translate(0 0.390625)" xlink:href="#Cmr10-31"/>
      </g>
     </g>
    </g>
   </g>
   <g id="matplotlib.axis_2">
    <g id="ytick_1">
     <g id="line2d_12">
      <path clip-path="url(#pd8bf6dcec9)" d="M 4.074135 86.335641 
L 573.48 86.335641 
" style="fill:none;stroke:#000000;stroke-dasharray:0.5,0.825;stroke-dashoffset:0;stroke-width:0.5;"/>
     </g>
     <g id="line2d_13">
      <defs>
       <path d="M 0 0 
L -3.5 0 
" id="m36ae2f9e61" style="stroke:#000000;stroke-width:0.8;"/>
      </defs>
      <g>
       <use style="stroke:#000000;stroke-width:0.8;" x="15.024247" xlink:href="#m36ae2f9e61" y="86.335641"/>
      </g>
     </g>
    </g>
    <g id="ytick_2">
     <g id="line2d_14">
      <path clip-path="url(#pd8bf6dcec9)" d="M 4.074135 17.897436 
L 573.48 17.897436 
" style="fill:none;stroke:#000000;stroke-dasharray:0.5,0.825;stroke-dashoffset:0;stroke-width:0.5;"/>
     </g>
     <g id="line2d_15">
      <g>
       <use style="stroke:#000000;stroke-width:0.8;" x="15.024247" xlink:href="#m36ae2f9e61" y="17.897436"/>
      </g>
     </g>
     <g id="text_3">
      <!-- $1$ -->
      <g transform="translate(3.024247 21.696655)scale(0.1 -0.1)">
       <use transform="translate(0 0.390625)" xlink:href="#Cmr10-31"/>
      </g>
     </g>
    </g>
   </g>
   <g id="patch_3">
    <path d="M 15.024247 87.704405 
L 15.024247 16.528672 
" style="fill:none;stroke:#000000;stroke-linecap:square;stroke-linejoin:miter;stroke-width:0.8;"/>
   </g>
   <g id="patch_4">
    <path d="M 4.074135 86.335641 
L 573.48 86.335641 
" style="fill:none;stroke:#000000;stroke-linecap:square;stroke-linejoin:miter;stroke-width:0.8;"/>
   </g>
  </g>
 </g>
 <defs>
  <clipPath id="pd8bf6dcec9">
   <rect height="71.175733" width="569.405865" x="4.074135" y="16.528672"/>
  </clipPath>
 </defs>
</svg>
