<?xml version="1.0" encoding="utf-8" standalone="no"?>
<!DOCTYPE svg PUBLIC "-//W3C//DTD SVG 1.1//EN"
  "http://www.w3.org/Graphics/SVG/1.1/DTD/svg11.dtd">
<!-- Created with matplotlib (http://matplotlib.org/) -->
<svg height="108pt" version="1.1" viewBox="0 0 576 108" width="576pt" xmlns="http://www.w3.org/2000/svg" xmlns:xlink="http://www.w3.org/1999/xlink">
 <defs>
  <style type="text/css">
*{stroke-linecap:butt;stroke-linejoin:round;}
  </style>
 </defs>
 <g id="figure_1">
  <g id="patch_1">
   <path d="M 0 108 
L 576 108 
L 576 0 
L 0 0 
z
" style="fill:#ffffff;"/>
  </g>
  <g id="axes_1">
   <g id="patch_2">
    <path d="M 4.074135 87.704405 
L 573.48 87.704405 
L 573.48 16.528672 
L 4.074135 16.528672 
z
" style="fill:#ffffff;"/>
   </g>
   <g id="line2d_1">
    <path clip-path="url(#paa76075dac)" d="M 15.024247 86.335641 
L 16.462597 85.271002 
L 16.462597 85.271002 
" style="fill:none;stroke:#0000ff;stroke-linecap:square;"/>
   </g>
   <g id="line2d_2">
    <path clip-path="url(#paa76075dac)" d="M 16.462597 85.271002 
L 16.484853 85.279348 
L 16.484853 85.279348 
" style="fill:none;stroke:#0000ff;stroke-linecap:square;"/>
   </g>
   <g id="line2d_3">
    <path clip-path="url(#paa76075dac)" d="M 16.484853 85.279348 
L 17.923202 84.214708 
L 17.923202 84.214708 
" style="fill:none;stroke:#0000ff;stroke-linecap:square;"/>
   </g>
   <g id="line2d_4">
    <path clip-path="url(#paa76075dac)" d="M 17.923202 84.214708 
L 18.012226 84.248092 
L 18.012226 84.248092 
" style="fill:none;stroke:#0000ff;stroke-linecap:square;"/>
   </g>
   <g id="line2d_5">
    <path clip-path="url(#paa76075dac)" d="M 18.012226 84.248092 
L 19.450575 83.183453 
L 19.450575 83.183453 
" style="fill:none;stroke:#0000ff;stroke-linecap:square;"/>
   </g>
   <g id="line2d_6">
    <path clip-path="url(#paa76075dac)" d="M 19.450575 83.183453 
L 19.472831 83.191799 
L 19.472831 83.191799 
" style="fill:none;stroke:#0000ff;stroke-linecap:square;"/>
   </g>
   <g id="line2d_7">
    <path clip-path="url(#paa76075dac)" d="M 19.472831 83.191799 
L 20.911181 82.127159 
L 20.911181 82.127159 
" style="fill:none;stroke:#0000ff;stroke-linecap:square;"/>
   </g>
   <g id="line2d_8">
    <path clip-path="url(#paa76075dac)" d="M 20.911181 82.127159 
L 21.267273 82.260694 
L 21.267273 82.260694 
" style="fill:none;stroke:#0000ff;stroke-linecap:square;"/>
   </g>
   <g id="line2d_9">
    <path clip-path="url(#paa76075dac)" d="M 21.267273 82.260694 
L 22.705623 81.196055 
L 22.705623 81.196055 
" style="fill:none;stroke:#0000ff;stroke-linecap:square;"/>
   </g>
   <g id="line2d_10">
    <path clip-path="url(#paa76075dac)" d="M 22.705623 81.196055 
L 22.727879 81.2044 
L 22.727879 81.2044 
" style="fill:none;stroke:#0000ff;stroke-linecap:square;"/>
   </g>
   <g id="line2d_11">
    <path clip-path="url(#paa76075dac)" d="M 22.727879 81.2044 
L 24.166228 80.139761 
L 24.166228 80.139761 
" style="fill:none;stroke:#0000ff;stroke-linecap:square;"/>
   </g>
   <g id="line2d_12">
    <path clip-path="url(#paa76075dac)" d="M 24.166228 80.139761 
L 24.255251 80.173145 
L 24.255251 80.173145 
" style="fill:none;stroke:#0000ff;stroke-linecap:square;"/>
   </g>
   <g id="line2d_13">
    <path clip-path="url(#paa76075dac)" d="M 24.255251 80.173145 
L 25.693601 79.108506 
L 25.693601 79.108506 
" style="fill:none;stroke:#0000ff;stroke-linecap:square;"/>
   </g>
   <g id="line2d_14">
    <path clip-path="url(#paa76075dac)" d="M 25.693601 79.108506 
L 25.715857 79.116851 
L 25.715857 79.116851 
" style="fill:none;stroke:#0000ff;stroke-linecap:square;"/>
   </g>
   <g id="line2d_15">
    <path clip-path="url(#paa76075dac)" d="M 25.715857 79.116851 
L 27.154206 78.052212 
L 27.154206 78.052212 
" style="fill:none;stroke:#0000ff;stroke-linecap:square;"/>
   </g>
   <g id="line2d_16">
    <path clip-path="url(#paa76075dac)" d="M 27.154206 78.052212 
L 28.578576 78.586351 
L 28.578576 78.586351 
" style="fill:none;stroke:#0000ff;stroke-linecap:square;"/>
   </g>
   <g id="line2d_17">
    <path clip-path="url(#paa76075dac)" d="M 28.578576 78.586351 
L 30.016926 77.521712 
L 30.016926 77.521712 
" style="fill:none;stroke:#0000ff;stroke-linecap:square;"/>
   </g>
   <g id="line2d_18">
    <path clip-path="url(#paa76075dac)" d="M 30.016926 77.521712 
L 30.039182 77.530058 
L 30.039182 77.530058 
" style="fill:none;stroke:#0000ff;stroke-linecap:square;"/>
   </g>
   <g id="line2d_19">
    <path clip-path="url(#paa76075dac)" d="M 30.039182 77.530058 
L 31.477532 76.465418 
L 31.477532 76.465418 
" style="fill:none;stroke:#0000ff;stroke-linecap:square;"/>
   </g>
   <g id="line2d_20">
    <path clip-path="url(#paa76075dac)" d="M 31.477532 76.465418 
L 31.566555 76.498802 
L 31.566555 76.498802 
" style="fill:none;stroke:#0000ff;stroke-linecap:square;"/>
   </g>
   <g id="line2d_21">
    <path clip-path="url(#paa76075dac)" d="M 31.566555 76.498802 
L 33.004904 75.434163 
L 33.004904 75.434163 
" style="fill:none;stroke:#0000ff;stroke-linecap:square;"/>
   </g>
   <g id="line2d_22">
    <path clip-path="url(#paa76075dac)" d="M 33.004904 75.434163 
L 33.02716 75.442508 
L 33.02716 75.442508 
" style="fill:none;stroke:#0000ff;stroke-linecap:square;"/>
   </g>
   <g id="line2d_23">
    <path clip-path="url(#paa76075dac)" d="M 33.02716 75.442508 
L 34.46551 74.377869 
L 34.46551 74.377869 
" style="fill:none;stroke:#0000ff;stroke-linecap:square;"/>
   </g>
   <g id="line2d_24">
    <path clip-path="url(#paa76075dac)" d="M 34.46551 74.377869 
L 34.821602 74.511404 
L 34.821602 74.511404 
" style="fill:none;stroke:#0000ff;stroke-linecap:square;"/>
   </g>
   <g id="line2d_25">
    <path clip-path="url(#paa76075dac)" d="M 34.821602 74.511404 
L 36.259952 73.446765 
L 36.259952 73.446765 
" style="fill:none;stroke:#0000ff;stroke-linecap:square;"/>
   </g>
   <g id="line2d_26">
    <path clip-path="url(#paa76075dac)" d="M 36.259952 73.446765 
L 36.282208 73.45511 
L 36.282208 73.45511 
" style="fill:none;stroke:#0000ff;stroke-linecap:square;"/>
   </g>
   <g id="line2d_27">
    <path clip-path="url(#paa76075dac)" d="M 36.282208 73.45511 
L 37.720557 72.390471 
L 37.720557 72.390471 
" style="fill:none;stroke:#0000ff;stroke-linecap:square;"/>
   </g>
   <g id="line2d_28">
    <path clip-path="url(#paa76075dac)" d="M 37.720557 72.390471 
L 37.80958 72.423855 
L 37.80958 72.423855 
" style="fill:none;stroke:#0000ff;stroke-linecap:square;"/>
   </g>
   <g id="line2d_29">
    <path clip-path="url(#paa76075dac)" d="M 37.80958 72.423855 
L 39.24793 71.359215 
L 39.24793 71.359215 
" style="fill:none;stroke:#0000ff;stroke-linecap:square;"/>
   </g>
   <g id="line2d_30">
    <path clip-path="url(#paa76075dac)" d="M 39.24793 71.359215 
L 39.270186 71.367561 
L 39.270186 71.367561 
" style="fill:none;stroke:#0000ff;stroke-linecap:square;"/>
   </g>
   <g id="line2d_31">
    <path clip-path="url(#paa76075dac)" d="M 39.270186 71.367561 
L 40.708535 70.302922 
L 40.708535 70.302922 
" style="fill:none;stroke:#0000ff;stroke-linecap:square;"/>
   </g>
   <g id="line2d_32">
    <path clip-path="url(#paa76075dac)" d="M 40.708535 70.302922 
L 46.406016 72.439477 
L 46.406016 72.439477 
" style="fill:none;stroke:#0000ff;stroke-linecap:square;"/>
   </g>
   <g id="line2d_33">
    <path clip-path="url(#paa76075dac)" d="M 46.406016 72.439477 
L 47.844366 71.374838 
L 47.844366 71.374838 
" style="fill:none;stroke:#0000ff;stroke-linecap:square;"/>
   </g>
   <g id="line2d_34">
    <path clip-path="url(#paa76075dac)" d="M 47.844366 71.374838 
L 47.866621 71.383184 
L 47.866621 71.383184 
" style="fill:none;stroke:#0000ff;stroke-linecap:square;"/>
   </g>
   <g id="line2d_35">
    <path clip-path="url(#paa76075dac)" d="M 47.866621 71.383184 
L 49.304971 70.318545 
L 49.304971 70.318545 
" style="fill:none;stroke:#0000ff;stroke-linecap:square;"/>
   </g>
   <g id="line2d_36">
    <path clip-path="url(#paa76075dac)" d="M 49.304971 70.318545 
L 49.393994 70.351928 
L 49.393994 70.351928 
" style="fill:none;stroke:#0000ff;stroke-linecap:square;"/>
   </g>
   <g id="line2d_37">
    <path clip-path="url(#paa76075dac)" d="M 49.393994 70.351928 
L 50.832344 69.287289 
L 50.832344 69.287289 
" style="fill:none;stroke:#0000ff;stroke-linecap:square;"/>
   </g>
   <g id="line2d_38">
    <path clip-path="url(#paa76075dac)" d="M 50.832344 69.287289 
L 50.8546 69.295635 
L 50.8546 69.295635 
" style="fill:none;stroke:#0000ff;stroke-linecap:square;"/>
   </g>
   <g id="line2d_39">
    <path clip-path="url(#paa76075dac)" d="M 50.8546 69.295635 
L 52.292949 68.230996 
L 52.292949 68.230996 
" style="fill:none;stroke:#0000ff;stroke-linecap:square;"/>
   </g>
   <g id="line2d_40">
    <path clip-path="url(#paa76075dac)" d="M 52.292949 68.230996 
L 52.649042 68.36453 
L 52.649042 68.36453 
" style="fill:none;stroke:#0000ff;stroke-linecap:square;"/>
   </g>
   <g id="line2d_41">
    <path clip-path="url(#paa76075dac)" d="M 52.649042 68.36453 
L 54.087391 67.299891 
L 54.087391 67.299891 
" style="fill:none;stroke:#0000ff;stroke-linecap:square;"/>
   </g>
   <g id="line2d_42">
    <path clip-path="url(#paa76075dac)" d="M 54.087391 67.299891 
L 54.109647 67.308237 
L 54.109647 67.308237 
" style="fill:none;stroke:#0000ff;stroke-linecap:square;"/>
   </g>
   <g id="line2d_43">
    <path clip-path="url(#paa76075dac)" d="M 54.109647 67.308237 
L 55.547997 66.243598 
L 55.547997 66.243598 
" style="fill:none;stroke:#0000ff;stroke-linecap:square;"/>
   </g>
   <g id="line2d_44">
    <path clip-path="url(#paa76075dac)" d="M 55.547997 66.243598 
L 55.63702 66.276981 
L 55.63702 66.276981 
" style="fill:none;stroke:#0000ff;stroke-linecap:square;"/>
   </g>
   <g id="line2d_45">
    <path clip-path="url(#paa76075dac)" d="M 55.63702 66.276981 
L 57.07537 65.212342 
L 57.07537 65.212342 
" style="fill:none;stroke:#0000ff;stroke-linecap:square;"/>
   </g>
   <g id="line2d_46">
    <path clip-path="url(#paa76075dac)" d="M 57.07537 65.212342 
L 57.097625 65.220688 
L 57.097625 65.220688 
" style="fill:none;stroke:#0000ff;stroke-linecap:square;"/>
   </g>
   <g id="line2d_47">
    <path clip-path="url(#paa76075dac)" d="M 57.097625 65.220688 
L 58.535975 64.156048 
L 58.535975 64.156048 
" style="fill:none;stroke:#0000ff;stroke-linecap:square;"/>
   </g>
   <g id="line2d_48">
    <path clip-path="url(#paa76075dac)" d="M 58.535975 64.156048 
L 59.960345 64.690187 
L 59.960345 64.690187 
" style="fill:none;stroke:#0000ff;stroke-linecap:square;"/>
   </g>
   <g id="line2d_49">
    <path clip-path="url(#paa76075dac)" d="M 59.960345 64.690187 
L 61.398695 63.625548 
L 61.398695 63.625548 
" style="fill:none;stroke:#0000ff;stroke-linecap:square;"/>
   </g>
   <g id="line2d_50">
    <path clip-path="url(#paa76075dac)" d="M 61.398695 63.625548 
L 61.42095 63.633894 
L 61.42095 63.633894 
" style="fill:none;stroke:#0000ff;stroke-linecap:square;"/>
   </g>
   <g id="line2d_51">
    <path clip-path="url(#paa76075dac)" d="M 61.42095 63.633894 
L 62.8593 62.569255 
L 62.8593 62.569255 
" style="fill:none;stroke:#0000ff;stroke-linecap:square;"/>
   </g>
   <g id="line2d_52">
    <path clip-path="url(#paa76075dac)" d="M 62.8593 62.569255 
L 62.948323 62.602638 
L 62.948323 62.602638 
" style="fill:none;stroke:#0000ff;stroke-linecap:square;"/>
   </g>
   <g id="line2d_53">
    <path clip-path="url(#paa76075dac)" d="M 62.948323 62.602638 
L 64.386673 61.537999 
L 64.386673 61.537999 
" style="fill:none;stroke:#0000ff;stroke-linecap:square;"/>
   </g>
   <g id="line2d_54">
    <path clip-path="url(#paa76075dac)" d="M 64.386673 61.537999 
L 64.408929 61.546345 
L 64.408929 61.546345 
" style="fill:none;stroke:#0000ff;stroke-linecap:square;"/>
   </g>
   <g id="line2d_55">
    <path clip-path="url(#paa76075dac)" d="M 64.408929 61.546345 
L 65.847278 60.481706 
L 65.847278 60.481706 
" style="fill:none;stroke:#0000ff;stroke-linecap:square;"/>
   </g>
   <g id="line2d_56">
    <path clip-path="url(#paa76075dac)" d="M 65.847278 60.481706 
L 66.203371 60.61524 
L 66.203371 60.61524 
" style="fill:none;stroke:#0000ff;stroke-linecap:square;"/>
   </g>
   <g id="line2d_57">
    <path clip-path="url(#paa76075dac)" d="M 66.203371 60.61524 
L 67.64172 59.550601 
L 67.64172 59.550601 
" style="fill:none;stroke:#0000ff;stroke-linecap:square;"/>
   </g>
   <g id="line2d_58">
    <path clip-path="url(#paa76075dac)" d="M 67.64172 59.550601 
L 67.663976 59.558947 
L 67.663976 59.558947 
" style="fill:none;stroke:#0000ff;stroke-linecap:square;"/>
   </g>
   <g id="line2d_59">
    <path clip-path="url(#paa76075dac)" d="M 67.663976 59.558947 
L 69.102326 58.494307 
L 69.102326 58.494307 
" style="fill:none;stroke:#0000ff;stroke-linecap:square;"/>
   </g>
   <g id="line2d_60">
    <path clip-path="url(#paa76075dac)" d="M 69.102326 58.494307 
L 69.191349 58.527691 
L 69.191349 58.527691 
" style="fill:none;stroke:#0000ff;stroke-linecap:square;"/>
   </g>
   <g id="line2d_61">
    <path clip-path="url(#paa76075dac)" d="M 69.191349 58.527691 
L 70.629699 57.463052 
L 70.629699 57.463052 
" style="fill:none;stroke:#0000ff;stroke-linecap:square;"/>
   </g>
   <g id="line2d_62">
    <path clip-path="url(#paa76075dac)" d="M 70.629699 57.463052 
L 70.651954 57.471398 
L 70.651954 57.471398 
" style="fill:none;stroke:#0000ff;stroke-linecap:square;"/>
   </g>
   <g id="line2d_63">
    <path clip-path="url(#paa76075dac)" d="M 70.651954 57.471398 
L 72.090304 56.406758 
L 72.090304 56.406758 
" style="fill:none;stroke:#0000ff;stroke-linecap:square;"/>
   </g>
   <g id="line2d_64">
    <path clip-path="url(#paa76075dac)" d="M 72.090304 56.406758 
L 94.880226 64.952979 
L 94.880226 64.952979 
" style="fill:none;stroke:#0000ff;stroke-linecap:square;"/>
   </g>
   <g id="line2d_65">
    <path clip-path="url(#paa76075dac)" d="M 94.880226 64.952979 
L 96.318576 63.88834 
L 96.318576 63.88834 
" style="fill:none;stroke:#0000ff;stroke-linecap:square;"/>
   </g>
   <g id="line2d_66">
    <path clip-path="url(#paa76075dac)" d="M 96.318576 63.88834 
L 96.340832 63.896686 
L 96.340832 63.896686 
" style="fill:none;stroke:#0000ff;stroke-linecap:square;"/>
   </g>
   <g id="line2d_67">
    <path clip-path="url(#paa76075dac)" d="M 96.340832 63.896686 
L 97.515742 63.027039 
L 97.515742 63.027039 
" style="fill:none;stroke:#0000ff;stroke-linecap:square;"/>
   </g>
   <g id="line2d_68">
    <path clip-path="url(#paa76075dac)" d="M 97.539688 63.009315 
L 97.545091 63.005316 
L 97.551817 63.000337 
L 97.563193 62.991917 
L 97.570872 62.986233 
L 97.575306 62.982951 
L 97.583141 62.977152 
L 97.589971 62.972096 
L 97.601158 62.963816 
L 97.607996 62.958755 
L 97.610934 62.95658 
L 97.623722 62.947114 
L 97.627779 62.944112 
L 97.636923 62.937343 
L 97.640334 62.934819 
L 97.646103 62.930549 
L 97.658169 62.921617 
L 97.66289 62.918123 
L 97.669162 62.913481 
L 97.675091 62.909092 
L 97.685506 62.901384 
L 97.695144 62.89425 
L 97.697981 62.892149 
L 97.704636 62.887224 
L 97.716522 62.878425 
L 97.719158 62.876475 
L 97.72574 62.871603 
L 97.735971 62.86403 
L 97.739677 62.861287 
L 97.748705 62.854604 
L 97.757335 62.848216 
L 97.76631 62.841574 
L 97.773912 62.835947 
L 97.779181 62.832047 
" style="fill:none;stroke:#0000ff;stroke-linecap:square;"/>
   </g>
   <g id="line2d_69">
    <path clip-path="url(#paa76075dac)" d="M 97.779181 62.832047 
L 97.868204 62.86543 
L 97.868204 62.86543 
" style="fill:none;stroke:#0000ff;stroke-linecap:square;"/>
   </g>
   <g id="line2d_70">
    <path clip-path="url(#paa76075dac)" d="M 97.868204 62.86543 
L 99.306554 61.800791 
L 99.306554 61.800791 
" style="fill:none;stroke:#0000ff;stroke-linecap:square;"/>
   </g>
   <g id="line2d_71">
    <path clip-path="url(#paa76075dac)" d="M 99.306554 61.800791 
L 99.32881 61.809137 
L 99.32881 61.809137 
" style="fill:none;stroke:#0000ff;stroke-linecap:square;"/>
   </g>
   <g id="line2d_72">
    <path clip-path="url(#paa76075dac)" d="M 99.32881 61.809137 
L 100.767159 60.744498 
L 100.767159 60.744498 
" style="fill:none;stroke:#0000ff;stroke-linecap:square;"/>
   </g>
   <g id="line2d_73">
    <path clip-path="url(#paa76075dac)" d="M 100.767159 60.744498 
L 101.123252 60.878032 
L 101.123252 60.878032 
" style="fill:none;stroke:#0000ff;stroke-linecap:square;"/>
   </g>
   <g id="line2d_74">
    <path clip-path="url(#paa76075dac)" d="M 101.123252 60.878032 
L 102.561602 59.813393 
L 102.561602 59.813393 
" style="fill:none;stroke:#0000ff;stroke-linecap:square;"/>
   </g>
   <g id="line2d_75">
    <path clip-path="url(#paa76075dac)" d="M 102.561602 59.813393 
L 102.583857 59.821739 
L 102.583857 59.821739 
" style="fill:none;stroke:#0000ff;stroke-linecap:square;"/>
   </g>
   <g id="line2d_76">
    <path clip-path="url(#paa76075dac)" d="M 102.583857 59.821739 
L 104.022207 58.757099 
L 104.022207 58.757099 
" style="fill:none;stroke:#0000ff;stroke-linecap:square;"/>
   </g>
   <g id="line2d_77">
    <path clip-path="url(#paa76075dac)" d="M 104.022207 58.757099 
L 104.11123 58.790483 
L 104.11123 58.790483 
" style="fill:none;stroke:#0000ff;stroke-linecap:square;"/>
   </g>
   <g id="line2d_78">
    <path clip-path="url(#paa76075dac)" d="M 104.11123 58.790483 
L 105.54958 57.725844 
L 105.54958 57.725844 
" style="fill:none;stroke:#0000ff;stroke-linecap:square;"/>
   </g>
   <g id="line2d_79">
    <path clip-path="url(#paa76075dac)" d="M 105.54958 57.725844 
L 105.571836 57.73419 
L 105.571836 57.73419 
" style="fill:none;stroke:#0000ff;stroke-linecap:square;"/>
   </g>
   <g id="line2d_80">
    <path clip-path="url(#paa76075dac)" d="M 105.571836 57.73419 
L 107.010185 56.66955 
L 107.010185 56.66955 
" style="fill:none;stroke:#0000ff;stroke-linecap:square;"/>
   </g>
   <g id="line2d_81">
    <path clip-path="url(#paa76075dac)" d="M 107.010185 56.66955 
L 108.434555 57.203689 
L 108.434555 57.203689 
" style="fill:none;stroke:#0000ff;stroke-linecap:square;"/>
   </g>
   <g id="line2d_82">
    <path clip-path="url(#paa76075dac)" d="M 108.434555 57.203689 
L 109.872905 56.13905 
L 109.872905 56.13905 
" style="fill:none;stroke:#0000ff;stroke-linecap:square;"/>
   </g>
   <g id="line2d_83">
    <path clip-path="url(#paa76075dac)" d="M 109.872905 56.13905 
L 109.895161 56.147396 
L 109.895161 56.147396 
" style="fill:none;stroke:#0000ff;stroke-linecap:square;"/>
   </g>
   <g id="line2d_84">
    <path clip-path="url(#paa76075dac)" d="M 109.895161 56.147396 
L 111.33351 55.082757 
L 111.33351 55.082757 
" style="fill:none;stroke:#0000ff;stroke-linecap:square;"/>
   </g>
   <g id="line2d_85">
    <path clip-path="url(#paa76075dac)" d="M 111.33351 55.082757 
L 111.422533 55.11614 
L 111.422533 55.11614 
" style="fill:none;stroke:#0000ff;stroke-linecap:square;"/>
   </g>
   <g id="line2d_86">
    <path clip-path="url(#paa76075dac)" d="M 111.422533 55.11614 
L 112.860883 54.051501 
L 112.860883 54.051501 
" style="fill:none;stroke:#0000ff;stroke-linecap:square;"/>
   </g>
   <g id="line2d_87">
    <path clip-path="url(#paa76075dac)" d="M 112.860883 54.051501 
L 112.883139 54.059847 
L 112.883139 54.059847 
" style="fill:none;stroke:#0000ff;stroke-linecap:square;"/>
   </g>
   <g id="line2d_88">
    <path clip-path="url(#paa76075dac)" d="M 112.883139 54.059847 
L 114.321489 52.995207 
L 114.321489 52.995207 
" style="fill:none;stroke:#0000ff;stroke-linecap:square;"/>
   </g>
   <g id="line2d_89">
    <path clip-path="url(#paa76075dac)" d="M 114.321489 52.995207 
L 114.677581 53.128742 
L 114.677581 53.128742 
" style="fill:none;stroke:#0000ff;stroke-linecap:square;"/>
   </g>
   <g id="line2d_90">
    <path clip-path="url(#paa76075dac)" d="M 114.677581 53.128742 
L 116.115931 52.064103 
L 116.115931 52.064103 
" style="fill:none;stroke:#0000ff;stroke-linecap:square;"/>
   </g>
   <g id="line2d_91">
    <path clip-path="url(#paa76075dac)" d="M 116.115931 52.064103 
L 116.138186 52.072449 
L 116.138186 52.072449 
" style="fill:none;stroke:#0000ff;stroke-linecap:square;"/>
   </g>
   <g id="line2d_92">
    <path clip-path="url(#paa76075dac)" d="M 116.138186 52.072449 
L 117.576536 51.007809 
L 117.576536 51.007809 
" style="fill:none;stroke:#0000ff;stroke-linecap:square;"/>
   </g>
   <g id="line2d_93">
    <path clip-path="url(#paa76075dac)" d="M 117.576536 51.007809 
L 117.665559 51.041193 
L 117.665559 51.041193 
" style="fill:none;stroke:#0000ff;stroke-linecap:square;"/>
   </g>
   <g id="line2d_94">
    <path clip-path="url(#paa76075dac)" d="M 117.665559 51.041193 
L 119.103909 49.976554 
L 119.103909 49.976554 
" style="fill:none;stroke:#0000ff;stroke-linecap:square;"/>
   </g>
   <g id="line2d_95">
    <path clip-path="url(#paa76075dac)" d="M 119.103909 49.976554 
L 119.126165 49.9849 
L 119.126165 49.9849 
" style="fill:none;stroke:#0000ff;stroke-linecap:square;"/>
   </g>
   <g id="line2d_96">
    <path clip-path="url(#paa76075dac)" d="M 119.126165 49.9849 
L 120.564514 48.92026 
L 120.564514 48.92026 
" style="fill:none;stroke:#0000ff;stroke-linecap:square;"/>
   </g>
   <g id="line2d_97">
    <path clip-path="url(#paa76075dac)" d="M 120.564514 48.92026 
L 126.261995 51.056816 
L 126.261995 51.056816 
" style="fill:none;stroke:#0000ff;stroke-linecap:square;"/>
   </g>
   <g id="line2d_98">
    <path clip-path="url(#paa76075dac)" d="M 126.261995 51.056816 
L 127.700344 49.992176 
L 127.700344 49.992176 
" style="fill:none;stroke:#0000ff;stroke-linecap:square;"/>
   </g>
   <g id="line2d_99">
    <path clip-path="url(#paa76075dac)" d="M 127.700344 49.992176 
L 127.7226 50.000522 
L 127.7226 50.000522 
" style="fill:none;stroke:#0000ff;stroke-linecap:square;"/>
   </g>
   <g id="line2d_100">
    <path clip-path="url(#paa76075dac)" d="M 127.7226 50.000522 
L 129.16095 48.935883 
L 129.16095 48.935883 
" style="fill:none;stroke:#0000ff;stroke-linecap:square;"/>
   </g>
   <g id="line2d_101">
    <path clip-path="url(#paa76075dac)" d="M 129.16095 48.935883 
L 129.249973 48.969267 
L 129.249973 48.969267 
" style="fill:none;stroke:#0000ff;stroke-linecap:square;"/>
   </g>
   <g id="line2d_102">
    <path clip-path="url(#paa76075dac)" d="M 129.249973 48.969267 
L 130.688323 47.904627 
L 130.688323 47.904627 
" style="fill:none;stroke:#0000ff;stroke-linecap:square;"/>
   </g>
   <g id="line2d_103">
    <path clip-path="url(#paa76075dac)" d="M 130.688323 47.904627 
L 130.710578 47.912973 
L 130.710578 47.912973 
" style="fill:none;stroke:#0000ff;stroke-linecap:square;"/>
   </g>
   <g id="line2d_104">
    <path clip-path="url(#paa76075dac)" d="M 130.710578 47.912973 
L 132.148928 46.848334 
L 132.148928 46.848334 
" style="fill:none;stroke:#0000ff;stroke-linecap:square;"/>
   </g>
   <g id="line2d_105">
    <path clip-path="url(#paa76075dac)" d="M 132.148928 46.848334 
L 132.505021 46.981869 
L 132.505021 46.981869 
" style="fill:none;stroke:#0000ff;stroke-linecap:square;"/>
   </g>
   <g id="line2d_106">
    <path clip-path="url(#paa76075dac)" d="M 132.505021 46.981869 
L 133.94337 45.917229 
L 133.94337 45.917229 
" style="fill:none;stroke:#0000ff;stroke-linecap:square;"/>
   </g>
   <g id="line2d_107">
    <path clip-path="url(#paa76075dac)" d="M 133.94337 45.917229 
L 133.965626 45.925575 
L 133.965626 45.925575 
" style="fill:none;stroke:#0000ff;stroke-linecap:square;"/>
   </g>
   <g id="line2d_108">
    <path clip-path="url(#paa76075dac)" d="M 133.965626 45.925575 
L 135.403976 44.860936 
L 135.403976 44.860936 
" style="fill:none;stroke:#0000ff;stroke-linecap:square;"/>
   </g>
   <g id="line2d_109">
    <path clip-path="url(#paa76075dac)" d="M 135.403976 44.860936 
L 135.492999 44.89432 
L 135.492999 44.89432 
" style="fill:none;stroke:#0000ff;stroke-linecap:square;"/>
   </g>
   <g id="line2d_110">
    <path clip-path="url(#paa76075dac)" d="M 135.492999 44.89432 
L 136.931348 43.82968 
L 136.931348 43.82968 
" style="fill:none;stroke:#0000ff;stroke-linecap:square;"/>
   </g>
   <g id="line2d_111">
    <path clip-path="url(#paa76075dac)" d="M 136.931348 43.82968 
L 136.953604 43.838026 
L 136.953604 43.838026 
" style="fill:none;stroke:#0000ff;stroke-linecap:square;"/>
   </g>
   <g id="line2d_112">
    <path clip-path="url(#paa76075dac)" d="M 136.953604 43.838026 
L 138.391954 42.773387 
L 138.391954 42.773387 
" style="fill:none;stroke:#0000ff;stroke-linecap:square;"/>
   </g>
   <g id="line2d_113">
    <path clip-path="url(#paa76075dac)" d="M 138.391954 42.773387 
L 139.816324 43.307526 
L 139.816324 43.307526 
" style="fill:none;stroke:#0000ff;stroke-linecap:square;"/>
   </g>
   <g id="line2d_114">
    <path clip-path="url(#paa76075dac)" d="M 139.816324 43.307526 
L 141.254674 42.242886 
L 141.254674 42.242886 
" style="fill:none;stroke:#0000ff;stroke-linecap:square;"/>
   </g>
   <g id="line2d_115">
    <path clip-path="url(#paa76075dac)" d="M 141.254674 42.242886 
L 141.276929 42.251232 
L 141.276929 42.251232 
" style="fill:none;stroke:#0000ff;stroke-linecap:square;"/>
   </g>
   <g id="line2d_116">
    <path clip-path="url(#paa76075dac)" d="M 141.276929 42.251232 
L 142.715279 41.186593 
L 142.715279 41.186593 
" style="fill:none;stroke:#0000ff;stroke-linecap:square;"/>
   </g>
   <g id="line2d_117">
    <path clip-path="url(#paa76075dac)" d="M 142.715279 41.186593 
L 142.804302 41.219977 
L 142.804302 41.219977 
" style="fill:none;stroke:#0000ff;stroke-linecap:square;"/>
   </g>
   <g id="line2d_118">
    <path clip-path="url(#paa76075dac)" d="M 142.804302 41.219977 
L 144.242652 40.155337 
L 144.242652 40.155337 
" style="fill:none;stroke:#0000ff;stroke-linecap:square;"/>
   </g>
   <g id="line2d_119">
    <path clip-path="url(#paa76075dac)" d="M 144.242652 40.155337 
L 144.264907 40.163683 
L 144.264907 40.163683 
" style="fill:none;stroke:#0000ff;stroke-linecap:square;"/>
   </g>
   <g id="line2d_120">
    <path clip-path="url(#paa76075dac)" d="M 144.264907 40.163683 
L 145.703257 39.099044 
L 145.703257 39.099044 
" style="fill:none;stroke:#0000ff;stroke-linecap:square;"/>
   </g>
   <g id="line2d_121">
    <path clip-path="url(#paa76075dac)" d="M 145.703257 39.099044 
L 146.05935 39.232579 
L 146.05935 39.232579 
" style="fill:none;stroke:#0000ff;stroke-linecap:square;"/>
   </g>
   <g id="line2d_122">
    <path clip-path="url(#paa76075dac)" d="M 146.05935 39.232579 
L 147.497699 38.167939 
L 147.497699 38.167939 
" style="fill:none;stroke:#0000ff;stroke-linecap:square;"/>
   </g>
   <g id="line2d_123">
    <path clip-path="url(#paa76075dac)" d="M 147.497699 38.167939 
L 147.519955 38.176285 
L 147.519955 38.176285 
" style="fill:none;stroke:#0000ff;stroke-linecap:square;"/>
   </g>
   <g id="line2d_124">
    <path clip-path="url(#paa76075dac)" d="M 147.519955 38.176285 
L 148.958305 37.111646 
L 148.958305 37.111646 
" style="fill:none;stroke:#0000ff;stroke-linecap:square;"/>
   </g>
   <g id="line2d_125">
    <path clip-path="url(#paa76075dac)" d="M 148.958305 37.111646 
L 149.047328 37.145029 
L 149.047328 37.145029 
" style="fill:none;stroke:#0000ff;stroke-linecap:square;"/>
   </g>
   <g id="line2d_126">
    <path clip-path="url(#paa76075dac)" d="M 149.047328 37.145029 
L 150.485677 36.08039 
L 150.485677 36.08039 
" style="fill:none;stroke:#0000ff;stroke-linecap:square;"/>
   </g>
   <g id="line2d_127">
    <path clip-path="url(#paa76075dac)" d="M 150.485677 36.08039 
L 150.507933 36.088736 
L 150.507933 36.088736 
" style="fill:none;stroke:#0000ff;stroke-linecap:square;"/>
   </g>
   <g id="line2d_128">
    <path clip-path="url(#paa76075dac)" d="M 150.507933 36.088736 
L 151.946283 35.024097 
L 151.946283 35.024097 
" style="fill:none;stroke:#0000ff;stroke-linecap:square;"/>
   </g>
   <g id="line2d_129">
    <path clip-path="url(#paa76075dac)" d="M 151.946283 35.024097 
L 243.105972 69.20898 
L 243.105972 69.20898 
" style="fill:none;stroke:#0000ff;stroke-linecap:square;"/>
   </g>
   <g id="line2d_130">
    <path clip-path="url(#paa76075dac)" d="M 243.105972 69.20898 
L 244.544321 68.144341 
L 244.544321 68.144341 
" style="fill:none;stroke:#0000ff;stroke-linecap:square;"/>
   </g>
   <g id="line2d_131">
    <path clip-path="url(#paa76075dac)" d="M 244.544321 68.144341 
L 244.566577 68.152687 
L 244.566577 68.152687 
" style="fill:none;stroke:#0000ff;stroke-linecap:square;"/>
   </g>
   <g id="line2d_132">
    <path clip-path="url(#paa76075dac)" d="M 244.566577 68.152687 
L 246.004927 67.088047 
L 246.004927 67.088047 
" style="fill:none;stroke:#0000ff;stroke-linecap:square;"/>
   </g>
   <g id="line2d_133">
    <path clip-path="url(#paa76075dac)" d="M 246.004927 67.088047 
L 246.09395 67.121431 
L 246.09395 67.121431 
" style="fill:none;stroke:#0000ff;stroke-linecap:square;"/>
   </g>
   <g id="line2d_134">
    <path clip-path="url(#paa76075dac)" d="M 246.09395 67.121431 
L 247.5323 66.056792 
L 247.5323 66.056792 
" style="fill:none;stroke:#0000ff;stroke-linecap:square;"/>
   </g>
   <g id="line2d_135">
    <path clip-path="url(#paa76075dac)" d="M 247.5323 66.056792 
L 247.554555 66.065138 
L 247.554555 66.065138 
" style="fill:none;stroke:#0000ff;stroke-linecap:square;"/>
   </g>
   <g id="line2d_136">
    <path clip-path="url(#paa76075dac)" d="M 247.554555 66.065138 
L 248.992905 65.000498 
L 248.992905 65.000498 
" style="fill:none;stroke:#0000ff;stroke-linecap:square;"/>
   </g>
   <g id="line2d_137">
    <path clip-path="url(#paa76075dac)" d="M 248.992905 65.000498 
L 249.348998 65.134033 
L 249.348998 65.134033 
" style="fill:none;stroke:#0000ff;stroke-linecap:square;"/>
   </g>
   <g id="line2d_138">
    <path clip-path="url(#paa76075dac)" d="M 249.348998 65.134033 
L 250.787347 64.069394 
L 250.787347 64.069394 
" style="fill:none;stroke:#0000ff;stroke-linecap:square;"/>
   </g>
   <g id="line2d_139">
    <path clip-path="url(#paa76075dac)" d="M 250.787347 64.069394 
L 250.809603 64.07774 
L 250.809603 64.07774 
" style="fill:none;stroke:#0000ff;stroke-linecap:square;"/>
   </g>
   <g id="line2d_140">
    <path clip-path="url(#paa76075dac)" d="M 250.809603 64.07774 
L 252.247953 63.0131 
L 252.247953 63.0131 
" style="fill:none;stroke:#0000ff;stroke-linecap:square;"/>
   </g>
   <g id="line2d_141">
    <path clip-path="url(#paa76075dac)" d="M 252.247953 63.0131 
L 252.336976 63.046484 
L 252.336976 63.046484 
" style="fill:none;stroke:#0000ff;stroke-linecap:square;"/>
   </g>
   <g id="line2d_142">
    <path clip-path="url(#paa76075dac)" d="M 252.336976 63.046484 
L 253.775325 61.981845 
L 253.775325 61.981845 
" style="fill:none;stroke:#0000ff;stroke-linecap:square;"/>
   </g>
   <g id="line2d_143">
    <path clip-path="url(#paa76075dac)" d="M 253.775325 61.981845 
L 253.797581 61.990191 
L 253.797581 61.990191 
" style="fill:none;stroke:#0000ff;stroke-linecap:square;"/>
   </g>
   <g id="line2d_144">
    <path clip-path="url(#paa76075dac)" d="M 253.797581 61.990191 
L 255.235931 60.925551 
L 255.235931 60.925551 
" style="fill:none;stroke:#0000ff;stroke-linecap:square;"/>
   </g>
   <g id="line2d_145">
    <path clip-path="url(#paa76075dac)" d="M 255.235931 60.925551 
L 256.660301 61.45969 
L 256.660301 61.45969 
" style="fill:none;stroke:#0000ff;stroke-linecap:square;"/>
   </g>
   <g id="line2d_146">
    <path clip-path="url(#paa76075dac)" d="M 256.660301 61.45969 
L 258.098651 60.395051 
L 258.098651 60.395051 
" style="fill:none;stroke:#0000ff;stroke-linecap:square;"/>
   </g>
   <g id="line2d_147">
    <path clip-path="url(#paa76075dac)" d="M 258.098651 60.395051 
L 258.120906 60.403397 
L 258.120906 60.403397 
" style="fill:none;stroke:#0000ff;stroke-linecap:square;"/>
   </g>
   <g id="line2d_148">
    <path clip-path="url(#paa76075dac)" d="M 258.120906 60.403397 
L 259.559256 59.338757 
L 259.559256 59.338757 
" style="fill:none;stroke:#0000ff;stroke-linecap:square;"/>
   </g>
   <g id="line2d_149">
    <path clip-path="url(#paa76075dac)" d="M 259.559256 59.338757 
L 259.648279 59.372141 
L 259.648279 59.372141 
" style="fill:none;stroke:#0000ff;stroke-linecap:square;"/>
   </g>
   <g id="line2d_150">
    <path clip-path="url(#paa76075dac)" d="M 259.648279 59.372141 
L 261.086629 58.307502 
L 261.086629 58.307502 
" style="fill:none;stroke:#0000ff;stroke-linecap:square;"/>
   </g>
   <g id="line2d_151">
    <path clip-path="url(#paa76075dac)" d="M 261.086629 58.307502 
L 261.108885 58.315848 
L 261.108885 58.315848 
" style="fill:none;stroke:#0000ff;stroke-linecap:square;"/>
   </g>
   <g id="line2d_152">
    <path clip-path="url(#paa76075dac)" d="M 261.108885 58.315848 
L 262.547234 57.251208 
L 262.547234 57.251208 
" style="fill:none;stroke:#0000ff;stroke-linecap:square;"/>
   </g>
   <g id="line2d_153">
    <path clip-path="url(#paa76075dac)" d="M 262.547234 57.251208 
L 262.867399 57.37127 
L 262.867399 57.37127 
" style="fill:none;stroke:#0000ff;stroke-linecap:square;"/>
   </g>
   <g id="line2d_154">
    <path clip-path="url(#paa76075dac)" d="M 262.873277 57.373474 
L 262.874131 57.373795 
L 262.875891 57.374455 
L 262.878444 57.375412 
L 262.879786 57.375915 
L 262.88163 57.376607 
L 262.882997 57.377119 
L 262.885526 57.378068 
L 262.886337 57.378372 
L 262.889407 57.379523 
L 262.890466 57.37992 
L 262.892205 57.380573 
L 262.893613 57.3811 
L 262.896932 57.382345 
L 262.897091 57.382405 
L 262.89914 57.383173 
L 262.901361 57.384006 
L 262.903327 57.384743 
" style="fill:none;stroke:#0000ff;stroke-linecap:square;"/>
   </g>
   <g id="line2d_155">
    <path clip-path="url(#paa76075dac)" d="M 262.903327 57.384743 
L 264.341676 56.320104 
L 264.341676 56.320104 
" style="fill:none;stroke:#0000ff;stroke-linecap:square;"/>
   </g>
   <g id="line2d_156">
    <path clip-path="url(#paa76075dac)" d="M 264.341676 56.320104 
L 264.363932 56.32845 
L 264.363932 56.32845 
" style="fill:none;stroke:#0000ff;stroke-linecap:square;"/>
   </g>
   <g id="line2d_157">
    <path clip-path="url(#paa76075dac)" d="M 264.363932 56.32845 
L 265.802282 55.26381 
L 265.802282 55.26381 
" style="fill:none;stroke:#0000ff;stroke-linecap:square;"/>
   </g>
   <g id="line2d_158">
    <path clip-path="url(#paa76075dac)" d="M 265.802282 55.26381 
L 265.891305 55.297194 
L 265.891305 55.297194 
" style="fill:none;stroke:#0000ff;stroke-linecap:square;"/>
   </g>
   <g id="line2d_159">
    <path clip-path="url(#paa76075dac)" d="M 265.891305 55.297194 
L 267.329654 54.232555 
L 267.329654 54.232555 
" style="fill:none;stroke:#0000ff;stroke-linecap:square;"/>
   </g>
   <g id="line2d_160">
    <path clip-path="url(#paa76075dac)" d="M 267.329654 54.232555 
L 267.35191 54.240901 
L 267.35191 54.240901 
" style="fill:none;stroke:#0000ff;stroke-linecap:square;"/>
   </g>
   <g id="line2d_161">
    <path clip-path="url(#paa76075dac)" d="M 267.35191 54.240901 
L 268.79026 53.176261 
L 268.79026 53.176261 
" style="fill:none;stroke:#0000ff;stroke-linecap:square;"/>
   </g>
   <g id="line2d_162">
    <path clip-path="url(#paa76075dac)" d="M 268.79026 53.176261 
L 274.48774 55.312817 
L 274.48774 55.312817 
" style="fill:none;stroke:#0000ff;stroke-linecap:square;"/>
   </g>
   <g id="line2d_163">
    <path clip-path="url(#paa76075dac)" d="M 274.48774 55.312817 
L 275.92609 54.248177 
L 275.92609 54.248177 
" style="fill:none;stroke:#0000ff;stroke-linecap:square;"/>
   </g>
   <g id="line2d_164">
    <path clip-path="url(#paa76075dac)" d="M 275.92609 54.248177 
L 275.948346 54.256523 
L 275.948346 54.256523 
" style="fill:none;stroke:#0000ff;stroke-linecap:square;"/>
   </g>
   <g id="line2d_165">
    <path clip-path="url(#paa76075dac)" d="M 275.948346 54.256523 
L 277.386695 53.191884 
L 277.386695 53.191884 
" style="fill:none;stroke:#0000ff;stroke-linecap:square;"/>
   </g>
   <g id="line2d_166">
    <path clip-path="url(#paa76075dac)" d="M 277.386695 53.191884 
L 277.475719 53.225267 
L 277.475719 53.225267 
" style="fill:none;stroke:#0000ff;stroke-linecap:square;"/>
   </g>
   <g id="line2d_167">
    <path clip-path="url(#paa76075dac)" d="M 277.475719 53.225267 
L 278.914068 52.160628 
L 278.914068 52.160628 
" style="fill:none;stroke:#0000ff;stroke-linecap:square;"/>
   </g>
   <g id="line2d_168">
    <path clip-path="url(#paa76075dac)" d="M 278.914068 52.160628 
L 278.936324 52.168974 
L 278.936324 52.168974 
" style="fill:none;stroke:#0000ff;stroke-linecap:square;"/>
   </g>
   <g id="line2d_169">
    <path clip-path="url(#paa76075dac)" d="M 278.936324 52.168974 
L 280.374674 51.104335 
L 280.374674 51.104335 
" style="fill:none;stroke:#0000ff;stroke-linecap:square;"/>
   </g>
   <g id="line2d_170">
    <path clip-path="url(#paa76075dac)" d="M 280.374674 51.104335 
L 280.377318 51.105327 
L 280.377474 51.105385 
L 280.380094 51.106368 
L 280.382265 51.107182 
L 280.383564 51.107669 
L 280.384633 51.108069 
L 280.387164 51.109019 
L 280.389148 51.109762 
L 280.391509 51.110648 
L 280.39326 51.111305 
L 280.393463 51.111381 
L 280.395437 51.112121 
L 280.397973 51.113072 
L 280.40054 51.114035 
L 280.400753 51.114115 
L 280.403423 51.115116 
L 280.405985 51.116077 
L 280.407439 51.116622 
L 280.408776 51.117123 
L 280.411017 51.117964 
L 280.411989 51.118328 
L 280.414108 51.119123 
L 280.41589 51.119791 
L 280.417633 51.120445 
L 280.419508 51.121148 
L 280.42193 51.122056 
L 280.422778 51.122374 
L 280.425307 51.123322 
L 280.426962 51.123943 
L 280.428772 51.124622 
L 280.429779 51.124999 
L 280.432357 51.125966 
L 280.432846 51.126149 
L 280.435738 51.127234 
L 280.437747 51.127987 
L 280.439036 51.128471 
L 280.441162 51.129268 
L 280.441781 51.1295 
L 280.445172 51.130772 
L 280.44601 51.131086 
L 280.448015 51.131838 
L 280.449425 51.132367 
L 280.450849 51.1329 
L 280.453451 51.133876 
L 280.455758 51.134742 
L 280.45773 51.135481 
L 280.458236 51.13567 
L 280.461169 51.13677 
L 280.462842 51.137398 
L 280.465001 51.138207 
L 280.466633 51.13882 
L 280.468477 51.139511 
L 280.470148 51.140138 
L 280.471169 51.140521 
L 280.47364 51.141447 
L 280.475358 51.142091 
L 280.476159 51.142392 
L 280.478594 51.143305 
L 280.47939 51.143603 
L 280.481153 51.144265 
L 280.483664 51.145206 
L 280.486115 51.146125 
L 280.487209 51.146535 
L 280.488643 51.147073 
L 280.491697 51.148219 
L 280.493009 51.148711 
L 280.495069 51.149483 
L 280.495756 51.149741 
L 280.49873 51.150856 
L 280.500724 51.151604 
L 280.501283 51.151813 
L 280.502864 51.152406 
L 280.505767 51.153495 
L 280.507635 51.154195 
L 280.508721 51.154602 
L 280.511521 51.155653 
L 280.512569 51.156046 
L 280.514732 51.156857 
L 280.515752 51.157239 
L 280.517477 51.157886 
L 280.519922 51.158803 
L 280.521618 51.159439 
" style="fill:none;stroke:#0000ff;stroke-linecap:square;"/>
   </g>
   <g id="line2d_171">
    <path clip-path="url(#paa76075dac)" d="M 280.526698 51.161344 
L 280.528536 51.162033 
L 280.531073 51.162985 
L 280.532959 51.163692 
L 280.534021 51.16409 
L 280.536564 51.165043 
L 280.536829 51.165143 
L 280.538714 51.16585 
L 280.54039 51.166478 
L 280.543545 51.167661 
L 280.545417 51.168364 
L 280.546457 51.168754 
L 280.548156 51.169391 
L 280.550443 51.170248 
L 280.551286 51.170564 
L 280.554232 51.171669 
L 280.555396 51.172106 
L 280.556529 51.172531 
L 280.559281 51.173563 
L 280.561531 51.174406 
L 280.562547 51.174787 
L 280.563894 51.175292 
L 280.566938 51.176434 
L 280.567245 51.176549 
L 280.569592 51.177429 
L 280.572347 51.178462 
L 280.573218 51.178789 
L 280.574309 51.179198 
L 280.576841 51.180148 
L 280.57938 51.1811 
L 280.581043 51.181723 
L 280.581577 51.181924 
L 280.583664 51.182706 
L 280.58551 51.183399 
L 280.588395 51.18448 
L 280.589369 51.184845 
L 280.591028 51.185468 
L 280.592334 51.185957 
L 280.594101 51.18662 
L 280.597429 51.187868 
L 280.597481 51.187887 
L 280.600354 51.188965 
L 280.602235 51.18967 
L 280.603462 51.19013 
L 280.604869 51.190658 
L 280.607391 51.191604 
L 280.608693 51.192092 
L 280.611257 51.193054 
L 280.612616 51.193563 
L 280.61376 51.193992 
L 280.615614 51.194687 
L 280.617847 51.195525 
L 280.620146 51.196387 
L 280.620897 51.196669 
L 280.622725 51.197354 
L 280.625727 51.19848 
L 280.62763 51.199194 
L 280.629549 51.199913 
L 280.630406 51.200234 
L 280.631934 51.200807 
L 280.634723 51.201853 
L 280.635642 51.202198 
L 280.637555 51.202915 
L 280.6403 51.203945 
L 280.64178 51.2045 
L 280.643383 51.205101 
L 280.645108 51.205748 
L 280.647228 51.206543 
L 280.64815 51.206889 
L 280.650556 51.207791 
L 280.652746 51.208612 
L 280.652957 51.208691 
L 280.65595 51.209813 
L 280.657713 51.210475 
L 280.659114 51.211 
L 280.660997 51.211706 
L 280.662177 51.212149 
L 280.665403 51.213358 
L 280.666868 51.213908 
L 280.668937 51.214684 
L 280.670362 51.215218 
L 280.671 51.215457 
L 280.672964 51.216194 
L 280.675782 51.21725 
L 280.677562 51.217918 
L 280.679398 51.218606 
L 280.679845 51.218774 
L 280.682333 51.219707 
L 280.684661 51.22058 
L 280.68572 51.220977 
L 280.687446 51.221624 
L 280.688731 51.222106 
L 280.691593 51.22318 
L 280.693083 51.223738 
L 280.694481 51.224263 
L 280.697324 51.225329 
L 280.697983 51.225576 
L 280.700394 51.22648 
L 280.701822 51.227015 
L 280.704118 51.227876 
L 280.706511 51.228774 
L 280.706892 51.228917 
L 280.71001 51.230086 
L 280.710405 51.230234 
L 280.712568 51.231045 
L 280.71433 51.231706 
L 280.716104 51.232371 
L 280.71761 51.232936 
L 280.719668 51.233707 
L 280.722688 51.23484 
L 280.723965 51.235319 
L 280.725214 51.235787 
L 280.726605 51.236309 
L 280.729734 51.237482 
L 280.730766 51.237869 
" style="fill:none;stroke:#0000ff;stroke-linecap:square;"/>
   </g>
   <g id="line2d_172">
    <path clip-path="url(#paa76075dac)" d="M 280.730766 51.237869 
L 282.169116 50.17323 
L 282.169116 50.17323 
" style="fill:none;stroke:#0000ff;stroke-linecap:square;"/>
   </g>
   <g id="line2d_173">
    <path clip-path="url(#paa76075dac)" d="M 282.169116 50.17323 
L 282.191372 50.181576 
L 282.191372 50.181576 
" style="fill:none;stroke:#0000ff;stroke-linecap:square;"/>
   </g>
   <g id="line2d_174">
    <path clip-path="url(#paa76075dac)" d="M 282.191372 50.181576 
L 283.629721 49.116937 
L 283.629721 49.116937 
" style="fill:none;stroke:#0000ff;stroke-linecap:square;"/>
   </g>
   <g id="line2d_175">
    <path clip-path="url(#paa76075dac)" d="M 283.629721 49.116937 
L 283.718744 49.15032 
L 283.718744 49.15032 
" style="fill:none;stroke:#0000ff;stroke-linecap:square;"/>
   </g>
   <g id="line2d_176">
    <path clip-path="url(#paa76075dac)" d="M 283.718744 49.15032 
L 285.157094 48.085681 
L 285.157094 48.085681 
" style="fill:none;stroke:#0000ff;stroke-linecap:square;"/>
   </g>
   <g id="line2d_177">
    <path clip-path="url(#paa76075dac)" d="M 285.157094 48.085681 
L 285.17935 48.094027 
L 285.17935 48.094027 
" style="fill:none;stroke:#0000ff;stroke-linecap:square;"/>
   </g>
   <g id="line2d_178">
    <path clip-path="url(#paa76075dac)" d="M 285.17935 48.094027 
L 286.617699 47.029388 
L 286.617699 47.029388 
" style="fill:none;stroke:#0000ff;stroke-linecap:square;"/>
   </g>
   <g id="line2d_179">
    <path clip-path="url(#paa76075dac)" d="M 286.617699 47.029388 
L 288.04207 47.563526 
L 288.04207 47.563526 
" style="fill:none;stroke:#0000ff;stroke-linecap:square;"/>
   </g>
   <g id="line2d_180">
    <path clip-path="url(#paa76075dac)" d="M 288.04207 47.563526 
L 289.480419 46.498887 
L 289.480419 46.498887 
" style="fill:none;stroke:#0000ff;stroke-linecap:square;"/>
   </g>
   <g id="line2d_181">
    <path clip-path="url(#paa76075dac)" d="M 289.480419 46.498887 
L 289.502675 46.507233 
L 289.502675 46.507233 
" style="fill:none;stroke:#0000ff;stroke-linecap:square;"/>
   </g>
   <g id="line2d_182">
    <path clip-path="url(#paa76075dac)" d="M 289.502675 46.507233 
L 290.941025 45.442594 
L 290.941025 45.442594 
" style="fill:none;stroke:#0000ff;stroke-linecap:square;"/>
   </g>
   <g id="line2d_183">
    <path clip-path="url(#paa76075dac)" d="M 290.941025 45.442594 
L 291.030048 45.475977 
L 291.030048 45.475977 
" style="fill:none;stroke:#0000ff;stroke-linecap:square;"/>
   </g>
   <g id="line2d_184">
    <path clip-path="url(#paa76075dac)" d="M 291.030048 45.475977 
L 292.468397 44.411338 
L 292.468397 44.411338 
" style="fill:none;stroke:#0000ff;stroke-linecap:square;"/>
   </g>
   <g id="line2d_185">
    <path clip-path="url(#paa76075dac)" d="M 292.468397 44.411338 
L 292.490653 44.419684 
L 292.490653 44.419684 
" style="fill:none;stroke:#0000ff;stroke-linecap:square;"/>
   </g>
   <g id="line2d_186">
    <path clip-path="url(#paa76075dac)" d="M 292.490653 44.419684 
L 293.929003 43.355045 
L 293.929003 43.355045 
" style="fill:none;stroke:#0000ff;stroke-linecap:square;"/>
   </g>
   <g id="line2d_187">
    <path clip-path="url(#paa76075dac)" d="M 293.929003 43.355045 
L 294.285095 43.488579 
L 294.285095 43.488579 
" style="fill:none;stroke:#0000ff;stroke-linecap:square;"/>
   </g>
   <g id="line2d_188">
    <path clip-path="url(#paa76075dac)" d="M 294.285095 43.488579 
L 295.723445 42.42394 
L 295.723445 42.42394 
" style="fill:none;stroke:#0000ff;stroke-linecap:square;"/>
   </g>
   <g id="line2d_189">
    <path clip-path="url(#paa76075dac)" d="M 295.723445 42.42394 
L 295.745701 42.432286 
L 295.745701 42.432286 
" style="fill:none;stroke:#0000ff;stroke-linecap:square;"/>
   </g>
   <g id="line2d_190">
    <path clip-path="url(#paa76075dac)" d="M 295.745701 42.432286 
L 295.753742 42.426334 
L 295.762255 42.420033 
L 295.767173 42.416393 
L 295.773356 42.411816 
L 295.781508 42.405782 
L 295.788934 42.400285 
L 295.79881 42.392975 
L 295.800398 42.3918 
L 295.809076 42.385377 
L 295.817382 42.379229 
L 295.828172 42.371243 
L 295.831094 42.369079 
L 295.842562 42.360591 
L 295.848267 42.356368 
L 295.853597 42.352423 
L 295.863834 42.344846 
L 295.870056 42.340241 
L 295.875661 42.336092 
L 295.881838 42.331519 
L 295.887419 42.327389 
L 295.896024 42.321019 
L 295.90555 42.313968 
L 295.913344 42.3082 
L 295.919616 42.303557 
L 295.925811 42.298971 
L 295.935231 42.291999 
L 295.943131 42.286152 
L 295.949522 42.281421 
L 295.955397 42.277073 
L 295.962687 42.271677 
L 295.969695 42.266489 
L 295.978575 42.259917 
L 295.986542 42.25402 
L 295.990845 42.250834 
L 296.001269 42.243119 
L 296.004375 42.24082 
L 296.009846 42.236771 
L 296.023072 42.226981 
L 296.024617 42.225837 
L 296.032582 42.219942 
L 296.040018 42.214438 
L 296.045792 42.210164 
L 296.057638 42.201396 
L 296.061561 42.198492 
L 296.071624 42.191044 
L 296.079818 42.184978 
L 296.086159 42.180285 
L 296.089361 42.177915 
L 296.098444 42.171192 
L 296.10652 42.165214 
L 296.113046 42.160384 
L 296.125145 42.151428 
L 296.12593 42.150847 
L 296.138628 42.141449 
L 296.143627 42.137748 
L 296.152521 42.131165 
L 296.160856 42.124996 
L 296.162707 42.123626 
L 296.170086 42.118164 
L 296.181664 42.109594 
L 296.186387 42.106099 
L 296.195051 42.099685 
L 296.197996 42.097505 
L 296.211296 42.087661 
L 296.216569 42.083758 
L 296.223756 42.078439 
L 296.227156 42.075922 
L 296.234619 42.070398 
L 296.244028 42.063433 
L 296.249315 42.05952 
L 296.255494 42.054947 
L 296.264758 42.04809 
" style="fill:none;stroke:#0000ff;stroke-linecap:square;"/>
   </g>
   <g id="line2d_191">
    <path clip-path="url(#paa76075dac)" d="M 296.285818 42.032502 
L 296.298413 42.023178 
L 296.302021 42.020508 
L 296.309721 42.014808 
L 296.313958 42.011673 
L 296.325088 42.003434 
L 296.332322 41.99808 
L 296.341402 41.991359 
L 296.347542 41.986815 
L 296.352846 41.982888 
L 296.359964 41.97762 
L 296.36894 41.970976 
L 296.373389 41.967683 
L 296.384494 41.959463 
L 296.385409 41.958786 
L 296.399278 41.94852 
L 296.405989 41.943553 
L 296.408851 41.941434 
L 296.420457 41.932844 
L 296.428229 41.927092 
L 296.431972 41.924321 
L 296.439829 41.918505 
L 296.444248 41.915234 
L 296.455969 41.906559 
L 296.461982 41.902108 
L 296.467805 41.897798 
L 296.478416 41.889944 
L 296.483617 41.886094 
L 296.492576 41.879463 
L 296.496757 41.876368 
L 296.505137 41.870166 
L 296.511593 41.865387 
L 296.52216 41.857565 
L 296.526765 41.854157 
L 296.534073 41.848747 
L 296.542906 41.84221 
L 296.55002 41.836944 
L 296.553226 41.834571 
L 296.562749 41.827522 
L 296.571799 41.820823 
L 296.576114 41.81763 
L 296.583189 41.812393 
L 296.592381 41.805589 
L 296.595547 41.803246 
L 296.604867 41.796347 
L 296.60988 41.792637 
L 296.617262 41.787173 
L 296.624674 41.781686 
L 296.637039 41.772534 
L 296.643438 41.767797 
L 296.650566 41.762522 
L 296.655143 41.759134 
L 296.666678 41.750596 
L 296.670103 41.748061 
L 296.679808 41.740878 
L 296.68245 41.738922 
L 296.691986 41.731864 
L 296.699047 41.726637 
L 296.707697 41.720234 
L 296.712684 41.716543 
L 296.721504 41.710015 
L 296.730549 41.70332 
L 296.737024 41.698527 
L 296.744899 41.692698 
L 296.748178 41.690271 
L 296.761167 41.680657 
L 296.764921 41.677878 
L 296.773592 41.67146 
L 296.782821 41.664629 
L 296.786055 41.662235 
L 296.793231 41.656923 
L 296.799042 41.652622 
L 296.806365 41.647202 
L 296.817761 41.638767 
L 296.823855 41.634257 
L 296.832208 41.628074 
L 296.84061 41.621855 
L 296.846706 41.617342 
L 296.853068 41.612633 
L 296.859287 41.60803 
L 296.864582 41.604111 
L 296.874805 41.596544 
L 296.881535 41.591563 
L 296.89047 41.584949 
L 296.894711 41.581811 
L 296.900795 41.577307 
L 296.912979 41.568289 
L 296.913105 41.568196 
L 296.921333 41.562105 
L 296.927587 41.557476 
L 296.938739 41.549222 
L 296.941994 41.546812 
L 296.953607 41.538216 
L 296.960685 41.532978 
L 296.967339 41.528052 
L 296.971767 41.524775 
L 296.981983 41.517213 
L 296.988667 41.512265 
L 296.995925 41.506893 
L 297.00667 41.498941 
L 297.007316 41.498462 
L 297.021009 41.488327 
L 297.028149 41.483042 
L 297.033849 41.478823 
L 297.036944 41.476532 
L 297.049542 41.467207 
L 297.050679 41.466366 
L 297.059484 41.459848 
L 297.070936 41.451372 
L 297.0721 41.45051 
L 297.084379 41.441422 
L 297.089871 41.437356 
L 297.095184 41.433424 
L 297.103646 41.42716 
L 297.1122 41.420829 
L 297.122549 41.413168 
L 297.126037 41.410587 
L 297.13069 41.407143 
L 297.142259 41.39858 
L 297.150769 41.392281 
L 297.153144 41.390523 
L 297.16315 41.383117 
L 297.170836 41.377427 
L 297.174467 41.37474 
L 297.18405 41.367647 
" style="fill:none;stroke:#0000ff;stroke-linecap:square;"/>
   </g>
   <g id="line2d_192">
    <path clip-path="url(#paa76075dac)" d="M 297.18405 41.367647 
L 297.273073 41.40103 
L 297.273073 41.40103 
" style="fill:none;stroke:#0000ff;stroke-linecap:square;"/>
   </g>
   <g id="line2d_193">
    <path clip-path="url(#paa76075dac)" d="M 297.273073 41.40103 
L 298.711423 40.336391 
L 298.711423 40.336391 
" style="fill:none;stroke:#0000ff;stroke-linecap:square;"/>
   </g>
   <g id="line2d_194">
    <path clip-path="url(#paa76075dac)" d="M 298.711423 40.336391 
L 298.711494 40.336418 
L 298.711594 40.336455 
L 298.711722 40.336503 
L 298.711894 40.336567 
L 298.711966 40.336595 
L 298.712088 40.33664 
L 298.712226 40.336692 
L 298.712365 40.336744 
L 298.712412 40.336762 
L 298.712551 40.336814 
L 298.712695 40.336868 
L 298.712712 40.336874 
L 298.712891 40.336941 
L 298.713038 40.336997 
L 298.713089 40.337016 
L 298.713235 40.337071 
L 298.713365 40.337119 
L 298.713484 40.337164 
L 298.713569 40.337196 
L 298.713713 40.33725 
L 298.713774 40.337272 
L 298.713914 40.337325 
L 298.713954 40.33734 
L 298.714152 40.337414 
L 298.714173 40.337422 
L 298.71436 40.337492 
L 298.71445 40.337526 
L 298.714604 40.337584 
L 298.714624 40.337591 
L 298.714754 40.33764 
L 298.714943 40.337711 
L 298.714957 40.337716 
L 298.715153 40.33779 
L 298.71517 40.337796 
L 298.715319 40.337852 
L 298.715431 40.337894 
L 298.715533 40.337932 
L 298.715642 40.337973 
L 298.715744 40.338011 
L 298.715874 40.33806 
L 298.716027 40.338118 
L 298.716104 40.338147 
L 298.716231 40.338194 
L 298.716336 40.338233 
L 298.716425 40.338267 
L 298.71656 40.338318 
L 298.716638 40.338347 
L 298.716745 40.338387 
L 298.716885 40.338439 
L 298.717025 40.338492 
L 298.717162 40.338543 
L 298.717262 40.338581 
L 298.717297 40.338594 
L 298.717427 40.338642 
L 298.717532 40.338682 
L 298.717703 40.338746 
L 298.717765 40.338769 
L 298.7179 40.33882 
L 298.718011 40.338862 
L 298.718123 40.338904 
L 298.71827 40.338959 
L 298.718313 40.338975 
L 298.718499 40.339045 
L 298.718565 40.339069 
L 298.718663 40.339106 
L 298.718788 40.339153 
L 298.718896 40.339193 
L 298.719045 40.339249 
L 298.719116 40.339276 
L 298.719298 40.339344 
L 298.719312 40.33935 
L 298.719423 40.339391 
L 298.719635 40.33947 
L 298.719705 40.339497 
L 298.719815 40.339538 
L 298.719941 40.339585 
L 298.719991 40.339604 
L 298.720169 40.339671 
L 298.720301 40.33972 
L 298.72042 40.339765 
L 298.720518 40.339802 
L 298.720606 40.339835 
L 298.720721 40.339878 
L 298.720832 40.339919 
" style="fill:none;stroke:#0000ff;stroke-linecap:square;"/>
   </g>
   <g id="line2d_195">
    <path clip-path="url(#paa76075dac)" d="M 298.721147 40.340037 
L 298.721247 40.340075 
L 298.72139 40.340129 
L 298.721473 40.34016 
L 298.721648 40.340225 
L 298.721679 40.340237 
L 298.721878 40.340312 
L 298.721895 40.340318 
L 298.722002 40.340358 
L 298.72211 40.340399 
L 298.722322 40.340478 
L 298.722366 40.340495 
L 298.7225 40.340545 
L 298.722576 40.340573 
L 298.722715 40.340626 
L 298.722856 40.340678 
L 298.72297 40.340721 
L 298.723032 40.340745 
L 298.723197 40.340806 
L 298.723302 40.340846 
L 298.723382 40.340876 
L 298.723542 40.340936 
L 298.723653 40.340977 
L 298.723741 40.34101 
L 298.723784 40.341026 
L 298.723948 40.341088 
L 298.724043 40.341124 
L 298.724161 40.341168 
L 298.724229 40.341193 
L 298.724426 40.341267 
L 298.724564 40.341319 
L 298.724564 40.341319 
L 298.724699 40.34137 
L 298.724886 40.34144 
L 298.724979 40.341474 
L 298.725017 40.341489 
L 298.725225 40.341567 
L 298.72527 40.341584 
L 298.725404 40.341634 
L 298.725509 40.341673 
L 298.725649 40.341726 
L 298.725789 40.341778 
L 298.725826 40.341792 
L 298.726012 40.341862 
L 298.726048 40.341876 
L 298.726201 40.341933 
L 298.726305 40.341972 
L 298.726373 40.341997 
L 298.726519 40.342052 
L 298.72658 40.342075 
L 298.726718 40.342127 
L 298.72684 40.342172 
L 298.726939 40.342209 
L 298.72712 40.342277 
L 298.727225 40.342317 
L 298.727297 40.342344 
L 298.72739 40.342379 
L 298.727564 40.342444 
L 298.72761 40.342461 
L 298.72777 40.342521 
L 298.727909 40.342573 
L 298.727963 40.342594 
L 298.728121 40.342653 
L 298.728188 40.342678 
L 298.728259 40.342704 
L 298.728428 40.342768 
L 298.728579 40.342825 
L 298.728669 40.342858 
L 298.728737 40.342884 
L 298.728922 40.342953 
L 298.728965 40.342969 
L 298.729108 40.343023 
L 298.729244 40.343074 
L 298.729262 40.343081 
L 298.729375 40.343123 
L 298.729555 40.343191 
L 298.729624 40.343216 
L 298.729712 40.343249 
L 298.729922 40.343328 
L 298.729987 40.343352 
L 298.730108 40.343398 
L 298.730253 40.343452 
L 298.730284 40.343464 
L 298.730435 40.343521 
L 298.730586 40.343577 
L 298.730699 40.343619 
L 298.730727 40.34363 
L 298.730882 40.343688 
L 298.731044 40.343749 
L 298.73113 40.343781 
L 298.731257 40.343829 
L 298.731303 40.343846 
L 298.731396 40.343881 
L 298.731553 40.34394 
L 298.731629 40.343968 
L 298.731723 40.344004 
L 298.731908 40.344073 
L 298.731996 40.344106 
L 298.732098 40.344144 
L 298.73225 40.344201 
L 298.732348 40.344238 
L 298.73242 40.344265 
L 298.732589 40.344328 
L 298.73272 40.344377 
L 298.73274 40.344385 
L 298.732892 40.344442 
L 298.733036 40.344496 
L 298.733153 40.34454 
L 298.733283 40.344589 
L 298.733309 40.344598 
L 298.733459 40.344655 
L 298.73362 40.344715 
L 298.733679 40.344737 
" style="fill:none;stroke:#0000ff;stroke-linecap:square;"/>
   </g>
   <g id="line2d_196">
    <path clip-path="url(#paa76075dac)" d="M 298.733679 40.344737 
L 300.172028 39.280098 
L 300.172028 39.280098 
" style="fill:none;stroke:#0000ff;stroke-linecap:square;"/>
   </g>
   <g id="line2d_197">
    <path clip-path="url(#paa76075dac)" d="M 300.172028 39.280098 
L 322.961951 47.826318 
L 322.961951 47.826318 
" style="fill:none;stroke:#0000ff;stroke-linecap:square;"/>
   </g>
   <g id="line2d_198">
    <path clip-path="url(#paa76075dac)" d="M 322.961951 47.826318 
L 324.4003 46.761679 
L 324.4003 46.761679 
" style="fill:none;stroke:#0000ff;stroke-linecap:square;"/>
   </g>
   <g id="line2d_199">
    <path clip-path="url(#paa76075dac)" d="M 324.4003 46.761679 
L 324.422556 46.770025 
L 324.422556 46.770025 
" style="fill:none;stroke:#0000ff;stroke-linecap:square;"/>
   </g>
   <g id="line2d_200">
    <path clip-path="url(#paa76075dac)" d="M 324.422556 46.770025 
L 325.860906 45.705386 
L 325.860906 45.705386 
" style="fill:none;stroke:#0000ff;stroke-linecap:square;"/>
   </g>
   <g id="line2d_201">
    <path clip-path="url(#paa76075dac)" d="M 325.860906 45.705386 
L 325.949929 45.738769 
L 325.949929 45.738769 
" style="fill:none;stroke:#0000ff;stroke-linecap:square;"/>
   </g>
   <g id="line2d_202">
    <path clip-path="url(#paa76075dac)" d="M 325.949929 45.738769 
L 327.388278 44.67413 
L 327.388278 44.67413 
" style="fill:none;stroke:#0000ff;stroke-linecap:square;"/>
   </g>
   <g id="line2d_203">
    <path clip-path="url(#paa76075dac)" d="M 327.388278 44.67413 
L 327.410534 44.682476 
L 327.410534 44.682476 
" style="fill:none;stroke:#0000ff;stroke-linecap:square;"/>
   </g>
   <g id="line2d_204">
    <path clip-path="url(#paa76075dac)" d="M 327.410534 44.682476 
L 328.848884 43.617837 
L 328.848884 43.617837 
" style="fill:none;stroke:#0000ff;stroke-linecap:square;"/>
   </g>
   <g id="line2d_205">
    <path clip-path="url(#paa76075dac)" d="M 328.848884 43.617837 
L 329.204976 43.751371 
L 329.204976 43.751371 
" style="fill:none;stroke:#0000ff;stroke-linecap:square;"/>
   </g>
   <g id="line2d_206">
    <path clip-path="url(#paa76075dac)" d="M 329.204976 43.751371 
L 330.643326 42.686732 
L 330.643326 42.686732 
" style="fill:none;stroke:#0000ff;stroke-linecap:square;"/>
   </g>
   <g id="line2d_207">
    <path clip-path="url(#paa76075dac)" d="M 330.643326 42.686732 
L 330.665582 42.695078 
L 330.665582 42.695078 
" style="fill:none;stroke:#0000ff;stroke-linecap:square;"/>
   </g>
   <g id="line2d_208">
    <path clip-path="url(#paa76075dac)" d="M 330.665582 42.695078 
L 332.103931 41.630439 
L 332.103931 41.630439 
" style="fill:none;stroke:#0000ff;stroke-linecap:square;"/>
   </g>
   <g id="line2d_209">
    <path clip-path="url(#paa76075dac)" d="M 332.103931 41.630439 
L 332.192955 41.663822 
L 332.192955 41.663822 
" style="fill:none;stroke:#0000ff;stroke-linecap:square;"/>
   </g>
   <g id="line2d_210">
    <path clip-path="url(#paa76075dac)" d="M 332.192955 41.663822 
L 333.631304 40.599183 
L 333.631304 40.599183 
" style="fill:none;stroke:#0000ff;stroke-linecap:square;"/>
   </g>
   <g id="line2d_211">
    <path clip-path="url(#paa76075dac)" d="M 333.631304 40.599183 
L 333.65356 40.607529 
L 333.65356 40.607529 
" style="fill:none;stroke:#0000ff;stroke-linecap:square;"/>
   </g>
   <g id="line2d_212">
    <path clip-path="url(#paa76075dac)" d="M 333.65356 40.607529 
L 335.09191 39.54289 
L 335.09191 39.54289 
" style="fill:none;stroke:#0000ff;stroke-linecap:square;"/>
   </g>
   <g id="line2d_213">
    <path clip-path="url(#paa76075dac)" d="M 335.09191 39.54289 
L 336.51628 40.077028 
L 336.51628 40.077028 
" style="fill:none;stroke:#0000ff;stroke-linecap:square;"/>
   </g>
   <g id="line2d_214">
    <path clip-path="url(#paa76075dac)" d="M 336.51628 40.077028 
L 337.954629 39.012389 
L 337.954629 39.012389 
" style="fill:none;stroke:#0000ff;stroke-linecap:square;"/>
   </g>
   <g id="line2d_215">
    <path clip-path="url(#paa76075dac)" d="M 337.954629 39.012389 
L 337.976885 39.020735 
L 337.976885 39.020735 
" style="fill:none;stroke:#0000ff;stroke-linecap:square;"/>
   </g>
   <g id="line2d_216">
    <path clip-path="url(#paa76075dac)" d="M 337.976885 39.020735 
L 339.415235 37.956096 
L 339.415235 37.956096 
" style="fill:none;stroke:#0000ff;stroke-linecap:square;"/>
   </g>
   <g id="line2d_217">
    <path clip-path="url(#paa76075dac)" d="M 339.415235 37.956096 
L 339.504258 37.989479 
L 339.504258 37.989479 
" style="fill:none;stroke:#0000ff;stroke-linecap:square;"/>
   </g>
   <g id="line2d_218">
    <path clip-path="url(#paa76075dac)" d="M 339.504258 37.989479 
L 340.942608 36.92484 
L 340.942608 36.92484 
" style="fill:none;stroke:#0000ff;stroke-linecap:square;"/>
   </g>
   <g id="line2d_219">
    <path clip-path="url(#paa76075dac)" d="M 340.942608 36.92484 
L 340.964863 36.933186 
L 340.964863 36.933186 
" style="fill:none;stroke:#0000ff;stroke-linecap:square;"/>
   </g>
   <g id="line2d_220">
    <path clip-path="url(#paa76075dac)" d="M 340.964863 36.933186 
L 342.403213 35.868547 
L 342.403213 35.868547 
" style="fill:none;stroke:#0000ff;stroke-linecap:square;"/>
   </g>
   <g id="line2d_221">
    <path clip-path="url(#paa76075dac)" d="M 342.403213 35.868547 
L 342.759306 36.002081 
L 342.759306 36.002081 
" style="fill:none;stroke:#0000ff;stroke-linecap:square;"/>
   </g>
   <g id="line2d_222">
    <path clip-path="url(#paa76075dac)" d="M 342.759306 36.002081 
L 344.197655 34.937442 
L 344.197655 34.937442 
" style="fill:none;stroke:#0000ff;stroke-linecap:square;"/>
   </g>
   <g id="line2d_223">
    <path clip-path="url(#paa76075dac)" d="M 344.197655 34.937442 
L 344.219911 34.945788 
L 344.219911 34.945788 
" style="fill:none;stroke:#0000ff;stroke-linecap:square;"/>
   </g>
   <g id="line2d_224">
    <path clip-path="url(#paa76075dac)" d="M 344.219911 34.945788 
L 345.658261 33.881149 
L 345.658261 33.881149 
" style="fill:none;stroke:#0000ff;stroke-linecap:square;"/>
   </g>
   <g id="line2d_225">
    <path clip-path="url(#paa76075dac)" d="M 345.658261 33.881149 
L 345.747284 33.914532 
L 345.747284 33.914532 
" style="fill:none;stroke:#0000ff;stroke-linecap:square;"/>
   </g>
   <g id="line2d_226">
    <path clip-path="url(#paa76075dac)" d="M 345.747284 33.914532 
L 347.185633 32.849893 
L 347.185633 32.849893 
" style="fill:none;stroke:#0000ff;stroke-linecap:square;"/>
   </g>
   <g id="line2d_227">
    <path clip-path="url(#paa76075dac)" d="M 347.185633 32.849893 
L 347.207889 32.858239 
L 347.207889 32.858239 
" style="fill:none;stroke:#0000ff;stroke-linecap:square;"/>
   </g>
   <g id="line2d_228">
    <path clip-path="url(#paa76075dac)" d="M 347.207889 32.858239 
L 348.646239 31.7936 
L 348.646239 31.7936 
" style="fill:none;stroke:#0000ff;stroke-linecap:square;"/>
   </g>
   <g id="line2d_229">
    <path clip-path="url(#paa76075dac)" d="M 348.646239 31.7936 
L 354.343719 33.930155 
L 354.343719 33.930155 
" style="fill:none;stroke:#0000ff;stroke-linecap:square;"/>
   </g>
   <g id="line2d_230">
    <path clip-path="url(#paa76075dac)" d="M 354.343719 33.930155 
L 355.782069 32.865516 
L 355.782069 32.865516 
" style="fill:none;stroke:#0000ff;stroke-linecap:square;"/>
   </g>
   <g id="line2d_231">
    <path clip-path="url(#paa76075dac)" d="M 355.782069 32.865516 
L 355.804325 32.873861 
L 355.804325 32.873861 
" style="fill:none;stroke:#0000ff;stroke-linecap:square;"/>
   </g>
   <g id="line2d_232">
    <path clip-path="url(#paa76075dac)" d="M 355.804325 32.873861 
L 357.242674 31.809222 
L 357.242674 31.809222 
" style="fill:none;stroke:#0000ff;stroke-linecap:square;"/>
   </g>
   <g id="line2d_233">
    <path clip-path="url(#paa76075dac)" d="M 357.242674 31.809222 
L 357.331697 31.842606 
L 357.331697 31.842606 
" style="fill:none;stroke:#0000ff;stroke-linecap:square;"/>
   </g>
   <g id="line2d_234">
    <path clip-path="url(#paa76075dac)" d="M 357.331697 31.842606 
L 358.770047 30.777966 
L 358.770047 30.777966 
" style="fill:none;stroke:#0000ff;stroke-linecap:square;"/>
   </g>
   <g id="line2d_235">
    <path clip-path="url(#paa76075dac)" d="M 358.770047 30.777966 
L 358.792303 30.786312 
L 358.792303 30.786312 
" style="fill:none;stroke:#0000ff;stroke-linecap:square;"/>
   </g>
   <g id="line2d_236">
    <path clip-path="url(#paa76075dac)" d="M 358.792303 30.786312 
L 360.230652 29.721673 
L 360.230652 29.721673 
" style="fill:none;stroke:#0000ff;stroke-linecap:square;"/>
   </g>
   <g id="line2d_237">
    <path clip-path="url(#paa76075dac)" d="M 360.230652 29.721673 
L 360.586745 29.855208 
L 360.586745 29.855208 
" style="fill:none;stroke:#0000ff;stroke-linecap:square;"/>
   </g>
   <g id="line2d_238">
    <path clip-path="url(#paa76075dac)" d="M 360.586745 29.855208 
L 362.025095 28.790568 
L 362.025095 28.790568 
" style="fill:none;stroke:#0000ff;stroke-linecap:square;"/>
   </g>
   <g id="line2d_239">
    <path clip-path="url(#paa76075dac)" d="M 362.025095 28.790568 
L 362.04735 28.798914 
L 362.04735 28.798914 
" style="fill:none;stroke:#0000ff;stroke-linecap:square;"/>
   </g>
   <g id="line2d_240">
    <path clip-path="url(#paa76075dac)" d="M 362.04735 28.798914 
L 363.4857 27.734275 
L 363.4857 27.734275 
" style="fill:none;stroke:#0000ff;stroke-linecap:square;"/>
   </g>
   <g id="line2d_241">
    <path clip-path="url(#paa76075dac)" d="M 363.4857 27.734275 
L 363.574723 27.767659 
L 363.574723 27.767659 
" style="fill:none;stroke:#0000ff;stroke-linecap:square;"/>
   </g>
   <g id="line2d_242">
    <path clip-path="url(#paa76075dac)" d="M 363.574723 27.767659 
L 365.013073 26.703019 
L 365.013073 26.703019 
" style="fill:none;stroke:#0000ff;stroke-linecap:square;"/>
   </g>
   <g id="line2d_243">
    <path clip-path="url(#paa76075dac)" d="M 365.013073 26.703019 
L 365.035329 26.711365 
L 365.035329 26.711365 
" style="fill:none;stroke:#0000ff;stroke-linecap:square;"/>
   </g>
   <g id="line2d_244">
    <path clip-path="url(#paa76075dac)" d="M 365.035329 26.711365 
L 366.473678 25.646726 
L 366.473678 25.646726 
" style="fill:none;stroke:#0000ff;stroke-linecap:square;"/>
   </g>
   <g id="line2d_245">
    <path clip-path="url(#paa76075dac)" d="M 366.473678 25.646726 
L 367.898048 26.180865 
L 367.898048 26.180865 
" style="fill:none;stroke:#0000ff;stroke-linecap:square;"/>
   </g>
   <g id="line2d_246">
    <path clip-path="url(#paa76075dac)" d="M 367.898048 26.180865 
L 369.336398 25.116225 
L 369.336398 25.116225 
" style="fill:none;stroke:#0000ff;stroke-linecap:square;"/>
   </g>
   <g id="line2d_247">
    <path clip-path="url(#paa76075dac)" d="M 369.336398 25.116225 
L 369.358654 25.124571 
L 369.358654 25.124571 
" style="fill:none;stroke:#0000ff;stroke-linecap:square;"/>
   </g>
   <g id="line2d_248">
    <path clip-path="url(#paa76075dac)" d="M 369.358654 25.124571 
L 370.797003 24.059932 
L 370.797003 24.059932 
" style="fill:none;stroke:#0000ff;stroke-linecap:square;"/>
   </g>
   <g id="line2d_249">
    <path clip-path="url(#paa76075dac)" d="M 370.797003 24.059932 
L 370.862615 24.084537 
L 370.862615 24.084537 
" style="fill:none;stroke:#0000ff;stroke-linecap:square;"/>
   </g>
   <g id="line2d_250">
    <path clip-path="url(#paa76075dac)" d="M 370.86409 24.085089 
L 370.864443 24.085222 
L 370.865067 24.085456 
L 370.865454 24.085601 
L 370.865967 24.085793 
L 370.866151 24.085862 
L 370.866945 24.08616 
L 370.867193 24.086253 
L 370.867827 24.086491 
L 370.868017 24.086562 
L 370.868374 24.086696 
L 370.869095 24.086966 
L 370.869528 24.087129 
L 370.869828 24.087241 
L 370.870544 24.08751 
L 370.870875 24.087634 
L 370.871182 24.087749 
L 370.871614 24.087911 
L 370.872189 24.088127 
L 370.872508 24.088246 
L 370.872842 24.088372 
L 370.873487 24.088613 
L 370.874158 24.088865 
L 370.874433 24.088968 
L 370.875051 24.0892 
L 370.87539 24.089327 
L 370.875901 24.089519 
L 370.876008 24.089559 
L 370.876478 24.089735 
L 370.877102 24.089969 
L 370.877532 24.09013 
L 370.877958 24.09029 
L 370.878298 24.090418 
L 370.878805 24.090608 
L 370.879468 24.090856 
L 370.879567 24.090893 
L 370.880424 24.091215 
L 370.880746 24.091336 
L 370.881196 24.091504 
L 370.881524 24.091627 
L 370.88191 24.091772 
L 370.882487 24.091989 
L 370.882728 24.092079 
L 370.883201 24.092256 
L 370.883674 24.092434 
L 370.884181 24.092624 
L 370.884839 24.092871 
L 370.885069 24.092957 
L 370.885626 24.093166 
L 370.886027 24.093316 
" style="fill:none;stroke:#0000ff;stroke-linecap:square;"/>
   </g>
   <g id="line2d_251">
    <path clip-path="url(#paa76075dac)" d="M 370.886027 24.093316 
L 372.324376 23.028676 
L 372.324376 23.028676 
" style="fill:none;stroke:#0000ff;stroke-linecap:square;"/>
   </g>
   <g id="line2d_252">
    <path clip-path="url(#paa76075dac)" d="M 372.324376 23.028676 
L 372.346632 23.037022 
L 372.346632 23.037022 
" style="fill:none;stroke:#0000ff;stroke-linecap:square;"/>
   </g>
   <g id="line2d_253">
    <path clip-path="url(#paa76075dac)" d="M 372.346632 23.037022 
L 373.784982 21.972383 
L 373.784982 21.972383 
" style="fill:none;stroke:#0000ff;stroke-linecap:square;"/>
   </g>
   <g id="line2d_254">
    <path clip-path="url(#paa76075dac)" d="M 373.784982 21.972383 
L 374.141074 22.105918 
L 374.141074 22.105918 
" style="fill:none;stroke:#0000ff;stroke-linecap:square;"/>
   </g>
   <g id="line2d_255">
    <path clip-path="url(#paa76075dac)" d="M 374.141074 22.105918 
L 375.579424 21.041278 
L 375.579424 21.041278 
" style="fill:none;stroke:#0000ff;stroke-linecap:square;"/>
   </g>
   <g id="line2d_256">
    <path clip-path="url(#paa76075dac)" d="M 375.579424 21.041278 
L 375.601679 21.049624 
L 375.601679 21.049624 
" style="fill:none;stroke:#0000ff;stroke-linecap:square;"/>
   </g>
   <g id="line2d_257">
    <path clip-path="url(#paa76075dac)" d="M 375.601679 21.049624 
L 377.040029 19.984985 
L 377.040029 19.984985 
" style="fill:none;stroke:#0000ff;stroke-linecap:square;"/>
   </g>
   <g id="line2d_258">
    <path clip-path="url(#paa76075dac)" d="M 377.040029 19.984985 
L 377.129052 20.018369 
L 377.129052 20.018369 
" style="fill:none;stroke:#0000ff;stroke-linecap:square;"/>
   </g>
   <g id="line2d_259">
    <path clip-path="url(#paa76075dac)" d="M 377.129052 20.018369 
L 378.567402 18.953729 
L 378.567402 18.953729 
" style="fill:none;stroke:#0000ff;stroke-linecap:square;"/>
   </g>
   <g id="line2d_260">
    <path clip-path="url(#paa76075dac)" d="M 378.567402 18.953729 
L 378.589658 18.962075 
L 378.589658 18.962075 
" style="fill:none;stroke:#0000ff;stroke-linecap:square;"/>
   </g>
   <g id="line2d_261">
    <path clip-path="url(#paa76075dac)" d="M 378.589658 18.962075 
L 380.028007 17.897436 
L 380.028007 17.897436 
" style="fill:none;stroke:#0000ff;stroke-linecap:square;"/>
   </g>
   <g id="line2d_262">
    <path clip-path="url(#paa76075dac)" d="M 380.028007 17.897436 
L 562.529887 86.335641 
L 562.529887 86.335641 
" style="fill:none;stroke:#0000ff;stroke-linecap:square;"/>
   </g>
   <g id="matplotlib.axis_1">
    <g id="xtick_1">
     <g id="line2d_263">
      <path clip-path="url(#paa76075dac)" d="M 15.024247 87.704405 
L 15.024247 16.528672 
" style="fill:none;stroke:#000000;stroke-dasharray:0.5,0.825;stroke-dashoffset:0;stroke-width:0.5;"/>
     </g>
     <g id="line2d_264">
      <defs>
       <path d="M 0 0 
L 0 3.5 
" id="mfda27375b7" style="stroke:#000000;stroke-width:0.8;"/>
      </defs>
      <g>
       <use style="stroke:#000000;stroke-width:0.8;" x="15.024247" xlink:href="#mfda27375b7" y="86.335641"/>
      </g>
     </g>
    </g>
    <g id="xtick_2">
     <g id="line2d_265">
      <path clip-path="url(#paa76075dac)" d="M 380.028007 87.704405 
L 380.028007 16.528672 
" style="fill:none;stroke:#000000;stroke-dasharray:0.5,0.825;stroke-dashoffset:0;stroke-width:0.5;"/>
     </g>
     <g id="line2d_266">
      <g>
       <use style="stroke:#000000;stroke-width:0.8;" x="380.028007" xlink:href="#mfda27375b7" y="86.335641"/>
      </g>
     </g>
     <g id="text_1">
      <!-- $f$ -->
      <defs>
       <path d="M 9.71875 -16.5 
Q 11.578125 -17.921875 14.203125 -17.921875 
Q 17.78125 -17.921875 20.015625 -10.015625 
Q 20.953125 -6.203125 25.09375 15.09375 
L 29.6875 39.59375 
L 21.09375 39.59375 
Q 20.125 39.59375 20.125 40.921875 
Q 20.515625 43.109375 21.390625 43.109375 
L 30.328125 43.109375 
L 31.5 49.609375 
Q 32.078125 52.640625 32.5625 54.8125 
Q 33.0625 56.984375 33.625 58.828125 
Q 34.1875 60.6875 35.296875 62.984375 
Q 37.015625 66.265625 39.921875 68.390625 
Q 42.828125 70.515625 46.1875 70.515625 
Q 48.390625 70.515625 50.46875 69.703125 
Q 52.546875 68.890625 53.859375 67.28125 
Q 55.171875 65.671875 55.171875 63.484375 
Q 55.171875 60.9375 53.484375 59.046875 
Q 51.8125 57.171875 49.421875 57.171875 
Q 47.796875 57.171875 46.65625 58.171875 
Q 45.515625 59.1875 45.515625 60.796875 
Q 45.515625 62.984375 47 64.625 
Q 48.484375 66.265625 50.6875 66.5 
Q 48.828125 67.921875 46.09375 67.921875 
Q 44.578125 67.921875 43.234375 66.5 
Q 41.890625 65.09375 41.5 63.484375 
Q 40.875 60.9375 38.71875 49.703125 
L 37.5 43.109375 
L 47.796875 43.109375 
Q 48.78125 43.109375 48.78125 41.796875 
Q 48.734375 41.546875 48.578125 40.9375 
Q 48.4375 40.328125 48.171875 39.953125 
Q 47.90625 39.59375 47.515625 39.59375 
L 36.8125 39.59375 
L 32.171875 15.1875 
Q 31.296875 9.859375 30.140625 4.359375 
Q 29 -1.125 26.921875 -6.90625 
Q 24.859375 -12.703125 21.625 -16.609375 
Q 18.40625 -20.515625 14.015625 -20.515625 
Q 10.640625 -20.515625 7.984375 -18.578125 
Q 5.328125 -16.65625 5.328125 -13.484375 
Q 5.328125 -10.9375 6.953125 -9.046875 
Q 8.59375 -7.171875 11.078125 -7.171875 
Q 12.75 -7.171875 13.859375 -8.171875 
Q 14.984375 -9.1875 14.984375 -10.796875 
Q 14.984375 -12.9375 13.390625 -14.71875 
Q 11.8125 -16.5 9.71875 -16.5 
z
" id="Cmmi10-66"/>
      </defs>
      <g transform="translate(377.578007 100.913766)scale(0.1 -0.1)">
       <use transform="translate(0 0.484375)" xlink:href="#Cmmi10-66"/>
      </g>
     </g>
    </g>
    <g id="xtick_3">
     <g id="line2d_267">
      <path clip-path="url(#paa76075dac)" d="M 562.529887 87.704405 
L 562.529887 16.528672 
" style="fill:none;stroke:#000000;stroke-dasharray:0.5,0.825;stroke-dashoffset:0;stroke-width:0.5;"/>
     </g>
     <g id="line2d_268">
      <g>
       <use style="stroke:#000000;stroke-width:0.8;" x="562.529887" xlink:href="#mfda27375b7" y="86.335641"/>
      </g>
     </g>
     <g id="text_2">
      <!-- $1$ -->
      <defs>
       <path d="M 9.28125 0 
L 9.28125 3.515625 
Q 21.78125 3.515625 21.78125 6.6875 
L 21.78125 59.1875 
Q 16.609375 56.6875 8.6875 56.6875 
L 8.6875 60.203125 
Q 20.953125 60.203125 27.203125 66.609375 
L 28.609375 66.609375 
Q 28.953125 66.609375 29.265625 66.328125 
Q 29.59375 66.0625 29.59375 65.71875 
L 29.59375 6.6875 
Q 29.59375 3.515625 42.09375 3.515625 
L 42.09375 0 
z
" id="Cmr10-31"/>
      </defs>
      <g transform="translate(560.029887 100.934078)scale(0.1 -0.1)">
       <use transform="translate(0 0.390625)" xlink:href="#Cmr10-31"/>
      </g>
     </g>
    </g>
   </g>
   <g id="matplotlib.axis_2">
    <g id="ytick_1">
     <g id="line2d_269">
      <path clip-path="url(#paa76075dac)" d="M 4.074135 86.335641 
L 573.48 86.335641 
" style="fill:none;stroke:#000000;stroke-dasharray:0.5,0.825;stroke-dashoffset:0;stroke-width:0.5;"/>
     </g>
     <g id="line2d_270">
      <defs>
       <path d="M 0 0 
L -3.5 0 
" id="md536e342f2" style="stroke:#000000;stroke-width:0.8;"/>
      </defs>
      <g>
       <use style="stroke:#000000;stroke-width:0.8;" x="15.024247" xlink:href="#md536e342f2" y="86.335641"/>
      </g>
     </g>
    </g>
    <g id="ytick_2">
     <g id="line2d_271">
      <path clip-path="url(#paa76075dac)" d="M 4.074135 17.897436 
L 573.48 17.897436 
" style="fill:none;stroke:#000000;stroke-dasharray:0.5,0.825;stroke-dashoffset:0;stroke-width:0.5;"/>
     </g>
     <g id="line2d_272">
      <g>
       <use style="stroke:#000000;stroke-width:0.8;" x="15.024247" xlink:href="#md536e342f2" y="17.897436"/>
      </g>
     </g>
     <g id="text_3">
      <!-- $1$ -->
      <g transform="translate(3.024247 21.696655)scale(0.1 -0.1)">
       <use transform="translate(0 0.390625)" xlink:href="#Cmr10-31"/>
      </g>
     </g>
    </g>
   </g>
   <g id="patch_3">
    <path d="M 15.024247 87.704405 
L 15.024247 16.528672 
" style="fill:none;stroke:#000000;stroke-linecap:square;stroke-linejoin:miter;stroke-width:0.8;"/>
   </g>
   <g id="patch_4">
    <path d="M 4.074135 86.335641 
L 573.48 86.335641 
" style="fill:none;stroke:#000000;stroke-linecap:square;stroke-linejoin:miter;stroke-width:0.8;"/>
   </g>
  </g>
 </g>
 <defs>
  <clipPath id="paa76075dac">
   <rect height="71.175733" width="569.405865" x="4.074135" y="16.528672"/>
  </clipPath>
 </defs>
</svg>
