<?xml version="1.0" encoding="utf-8" standalone="no"?>
<!DOCTYPE svg PUBLIC "-//W3C//DTD SVG 1.1//EN"
  "http://www.w3.org/Graphics/SVG/1.1/DTD/svg11.dtd">
<!-- Created with matplotlib (http://matplotlib.org/) -->
<svg height="108pt" version="1.1" viewBox="0 0 576 108" width="576pt" xmlns="http://www.w3.org/2000/svg" xmlns:xlink="http://www.w3.org/1999/xlink">
 <defs>
  <style type="text/css">
*{stroke-linecap:butt;stroke-linejoin:round;}
  </style>
 </defs>
 <g id="figure_1">
  <g id="patch_1">
   <path d="M 0 108 
L 576 108 
L 576 0 
L 0 0 
z
" style="fill:#ffffff;"/>
  </g>
  <g id="axes_1">
   <g id="patch_2">
    <path d="M 4.074135 87.704405 
L 573.48 87.704405 
L 573.48 16.528672 
L 4.074135 16.528672 
z
" style="fill:#ffffff;"/>
   </g>
   <g id="line2d_1">
    <path clip-path="url(#p647cc43ac0)" d="M 156.970154 17.897436 
L 238.082101 66.781868 
L 238.082101 66.781868 
" style="fill:none;stroke:#ff0000;stroke-linecap:square;stroke-width:2;"/>
   </g>
   <g id="line2d_2">
    <path clip-path="url(#p647cc43ac0)" d="M 319.194047 27.674322 
L 400.305994 76.558755 
L 400.305994 76.558755 
" style="fill:none;stroke:#ff0000;stroke-linecap:square;stroke-width:2;"/>
   </g>
   <g id="line2d_3">
    <path clip-path="url(#p647cc43ac0)" d="M 481.417941 37.451209 
L 481.628351 37.578019 
L 482.167034 37.902671 
L 482.713106 38.231777 
L 483.233144 38.545193 
L 483.349998 38.615618 
L 483.842911 38.912686 
L 484.194783 39.124752 
L 484.644996 39.396086 
L 484.953473 39.581998 
L 485.315285 39.800055 
L 485.972464 40.196123 
L 486.463084 40.491809 
L 486.695683 40.631991 
L 487.121511 40.888628 
L 487.337134 41.01858 
L 488.001383 41.418909 
L 488.499205 41.718935 
L 488.913604 41.968685 
L 489.068207 42.061861 
L 489.662544 42.420055 
L 490.144907 42.710764 
L 490.524293 42.939412 
L 490.765452 43.084754 
L 491.052558 43.257786 
L 491.49702 43.525654 
L 492.181361 43.938092 
L 492.47065 44.11244 
L 492.646662 44.218519 
L 493.333837 44.632664 
L 493.595059 44.790097 
L 493.972583 45.017623 
L 494.631256 45.414591 
L 494.966792 45.616811 
L 495.307201 45.821968 
L 495.862485 46.156626 
L 496.059299 46.275242 
L 496.421704 46.493655 
L 497.004536 46.844916 
L 497.203998 46.965127 
L 497.712675 47.271696 
L 497.962128 47.422036 
L 498.353641 47.657993 
L 498.964983 48.026436 
L 499.371268 48.271295 
L 499.624579 48.42396 
L 500.177999 48.757494 
L 500.413482 48.899415 
L 500.950213 49.222891 
L 501.36193 49.471024 
L 501.957982 49.830252 
L 502.082254 49.905147 
L 502.638729 50.240523 
L 503.007105 50.462536 
L 503.349772 50.669054 
L 503.671903 50.863195 
L 504.100283 51.121371 
L 504.632054 51.441858 
L 505.199509 51.783851 
L 505.610304 52.031428 
L 505.833844 52.166151 
L 506.338011 52.470001 
L 506.757927 52.723076 
L 507.163695 52.967624 
L 507.3464 53.077736 
L 508.078656 53.519051 
L 508.159037 53.567495 
L 508.738178 53.916531 
L 509.174207 54.179316 
L 509.61826 54.446937 
L 509.78105 54.545047 
L 510.484574 54.969046 
L 510.664073 55.077226 
L 511.263067 55.438227 
L 511.734263 55.722207 
L 512.08554 55.933914 
L 512.324818 56.078122 
" style="fill:none;stroke:#ff0000;stroke-linecap:square;stroke-width:2;"/>
   </g>
   <g id="line2d_4">
    <path clip-path="url(#p647cc43ac0)" d="M 513.544014 56.812905 
L 514.101103 57.148651 
L 514.467451 57.369441 
L 514.638729 57.472666 
L 515.143876 57.777107 
L 515.637486 58.074596 
L 515.978569 58.280159 
L 516.404139 58.536641 
L 516.91132 58.842308 
L 517.085169 58.947083 
L 517.813491 59.386027 
L 518.191799 59.614025 
L 518.326341 59.695111 
L 518.871716 60.023797 
L 519.52793 60.419283 
L 519.548393 60.431616 
L 520.15921 60.799741 
L 520.659622 61.101329 
L 520.992074 61.301691 
L 521.448324 61.576663 
L 521.640797 61.692663 
L 522.134632 61.990286 
L 522.503519 62.212607 
L 523.108028 62.576931 
L 523.335439 62.713987 
L 523.716073 62.943387 
L 524.164067 63.213383 
L 524.48332 63.40579 
L 525.160945 63.814181 
L 525.496799 64.016592 
L 525.918879 64.270971 
L 526.403732 64.563181 
L 526.488661 64.614366 
L 527.210975 65.04969 
L 527.445067 65.190772 
L 527.927461 65.4815 
L 528.18621 65.637442 
L 528.780673 65.995713 
L 529.272546 66.292154 
L 529.703637 66.551964 
L 529.831981 66.629314 
L 530.524506 67.046683 
L 530.932327 67.292469 
L 530.977289 67.319566 
L 531.751911 67.786414 
L 531.948934 67.905156 
L 532.278573 68.103822 
L 532.670164 68.339826 
L 533.348088 68.748396 
L 533.728391 68.977596 
L 534.178395 69.248804 
L 534.350447 69.352496 
L 534.943926 69.710173 
L 535.125338 69.819506 
L 535.508643 70.050516 
L 535.98401 70.33701 
L 536.422691 70.601393 
L 536.661014 70.745026 
L 537.222913 71.08367 
L 537.7121 71.378492 
L 538.207487 71.677051 
L 538.572397 71.896975 
L 538.908299 72.099416 
L 539.269587 72.317156 
L 539.838638 72.660111 
L 540.083344 72.807591 
L 540.623144 73.132916 
L 540.949648 73.329693 
L 541.192817 73.476246 
L 541.692004 73.777095 
L 541.991267 73.957454 
L 542.563991 74.302623 
L 543.067616 74.606147 
L 543.182538 74.675408 
L 543.585158 74.918059 
L 544.08203 75.217513 
L 544.460992 75.445905 
L 544.812037 75.657472 
L 545.386584 76.00374 
L 546.01557 76.382816 
L 546.042413 76.398994 
L 546.83019 76.87377 
L 547.011508 76.983046 
L 547.531658 77.29653 
L 547.754326 77.430727 
L 548.418851 77.831222 
L 548.560759 77.916747 
L 549.221952 78.315234 
L 549.665464 78.582529 
L 549.943929 78.750354 
L 550.111691 78.85146 
L 550.539999 79.109592 
L 551.259542 79.543246 
L 551.330823 79.586205 
L 551.919921 79.941242 
L 552.214645 80.118866 
L 552.584071 80.341511 
L 553.206686 80.716748 
L 553.718404 81.025149 
L 553.866441 81.114368 
L 554.406344 81.439755 
L 554.668297 81.597629 
L 555.084043 81.84819 
L 555.514544 82.107644 
L 556.083855 82.450756 
L 556.584282 82.752352 
L 556.992705 82.9985 
L 557.255264 83.156739 
L 557.702133 83.426057 
L 558.156074 83.699637 
L 558.617395 83.977666 
L 558.767045 84.067856 
L 559.458727 84.484718 
L 559.594799 84.566726 
L 560.043105 84.836911 
L 560.471357 85.095009 
L 560.839348 85.316789 
L 561.432246 85.674116 
L 561.571452 85.758013 
L 561.935563 85.977455 
L 562.529887 86.335641 
" style="fill:none;stroke:#ff0000;stroke-linecap:square;stroke-width:2;"/>
   </g>
   <g id="line2d_5">
    <path clip-path="url(#p647cc43ac0)" d="M 15.024247 86.335641 
L 156.970154 17.897436 
L 156.970154 17.897436 
" style="fill:none;stroke:#00ffff;stroke-linecap:square;stroke-width:2;"/>
   </g>
   <g id="line2d_6">
    <path clip-path="url(#p647cc43ac0)" d="M 238.082101 66.781868 
L 319.194047 27.674322 
L 319.194047 27.674322 
" style="fill:none;stroke:#00ffff;stroke-linecap:square;stroke-width:2;"/>
   </g>
   <g id="line2d_7">
    <path clip-path="url(#p647cc43ac0)" d="M 400.305994 76.558755 
L 481.417941 37.451209 
L 481.417941 37.451209 
" style="fill:none;stroke:#00ffff;stroke-linecap:square;stroke-width:2;"/>
   </g>
   <g id="matplotlib.axis_1">
    <g id="xtick_1">
     <g id="line2d_8">
      <path clip-path="url(#p647cc43ac0)" d="M 15.024247 87.704405 
L 15.024247 16.528672 
" style="fill:none;stroke:#000000;stroke-dasharray:0.5,0.825;stroke-dashoffset:0;stroke-width:0.5;"/>
     </g>
     <g id="line2d_9">
      <defs>
       <path d="M 0 0 
L 0 3.5 
" id="m71bb464ff3" style="stroke:#000000;stroke-width:0.8;"/>
      </defs>
      <g>
       <use style="stroke:#000000;stroke-width:0.8;" x="15.024247" xlink:href="#m71bb464ff3" y="86.335641"/>
      </g>
     </g>
    </g>
    <g id="xtick_2">
     <g id="line2d_10">
      <path clip-path="url(#p647cc43ac0)" d="M 156.970154 87.704405 
L 156.970154 16.528672 
" style="fill:none;stroke:#000000;stroke-dasharray:0.5,0.825;stroke-dashoffset:0;stroke-width:0.5;"/>
     </g>
     <g id="line2d_11">
      <g>
       <use style="stroke:#000000;stroke-width:0.8;" x="156.970154" xlink:href="#m71bb464ff3" y="86.335641"/>
      </g>
     </g>
     <g id="text_1">
      <!-- $f$ -->
      <defs>
       <path d="M 9.71875 -16.5 
Q 11.578125 -17.921875 14.203125 -17.921875 
Q 17.78125 -17.921875 20.015625 -10.015625 
Q 20.953125 -6.203125 25.09375 15.09375 
L 29.6875 39.59375 
L 21.09375 39.59375 
Q 20.125 39.59375 20.125 40.921875 
Q 20.515625 43.109375 21.390625 43.109375 
L 30.328125 43.109375 
L 31.5 49.609375 
Q 32.078125 52.640625 32.5625 54.8125 
Q 33.0625 56.984375 33.625 58.828125 
Q 34.1875 60.6875 35.296875 62.984375 
Q 37.015625 66.265625 39.921875 68.390625 
Q 42.828125 70.515625 46.1875 70.515625 
Q 48.390625 70.515625 50.46875 69.703125 
Q 52.546875 68.890625 53.859375 67.28125 
Q 55.171875 65.671875 55.171875 63.484375 
Q 55.171875 60.9375 53.484375 59.046875 
Q 51.8125 57.171875 49.421875 57.171875 
Q 47.796875 57.171875 46.65625 58.171875 
Q 45.515625 59.1875 45.515625 60.796875 
Q 45.515625 62.984375 47 64.625 
Q 48.484375 66.265625 50.6875 66.5 
Q 48.828125 67.921875 46.09375 67.921875 
Q 44.578125 67.921875 43.234375 66.5 
Q 41.890625 65.09375 41.5 63.484375 
Q 40.875 60.9375 38.71875 49.703125 
L 37.5 43.109375 
L 47.796875 43.109375 
Q 48.78125 43.109375 48.78125 41.796875 
Q 48.734375 41.546875 48.578125 40.9375 
Q 48.4375 40.328125 48.171875 39.953125 
Q 47.90625 39.59375 47.515625 39.59375 
L 36.8125 39.59375 
L 32.171875 15.1875 
Q 31.296875 9.859375 30.140625 4.359375 
Q 29 -1.125 26.921875 -6.90625 
Q 24.859375 -12.703125 21.625 -16.609375 
Q 18.40625 -20.515625 14.015625 -20.515625 
Q 10.640625 -20.515625 7.984375 -18.578125 
Q 5.328125 -16.65625 5.328125 -13.484375 
Q 5.328125 -10.9375 6.953125 -9.046875 
Q 8.59375 -7.171875 11.078125 -7.171875 
Q 12.75 -7.171875 13.859375 -8.171875 
Q 14.984375 -9.1875 14.984375 -10.796875 
Q 14.984375 -12.9375 13.390625 -14.71875 
Q 11.8125 -16.5 9.71875 -16.5 
z
" id="Cmmi10-66"/>
      </defs>
      <g transform="translate(154.520154 100.913766)scale(0.1 -0.1)">
       <use transform="translate(0 0.484375)" xlink:href="#Cmmi10-66"/>
      </g>
     </g>
    </g>
    <g id="xtick_3">
     <g id="line2d_12">
      <path clip-path="url(#p647cc43ac0)" d="M 562.529887 87.704405 
L 562.529887 16.528672 
" style="fill:none;stroke:#000000;stroke-dasharray:0.5,0.825;stroke-dashoffset:0;stroke-width:0.5;"/>
     </g>
     <g id="line2d_13">
      <g>
       <use style="stroke:#000000;stroke-width:0.8;" x="562.529887" xlink:href="#m71bb464ff3" y="86.335641"/>
      </g>
     </g>
     <g id="text_2">
      <!-- $1$ -->
      <defs>
       <path d="M 9.28125 0 
L 9.28125 3.515625 
Q 21.78125 3.515625 21.78125 6.6875 
L 21.78125 59.1875 
Q 16.609375 56.6875 8.6875 56.6875 
L 8.6875 60.203125 
Q 20.953125 60.203125 27.203125 66.609375 
L 28.609375 66.609375 
Q 28.953125 66.609375 29.265625 66.328125 
Q 29.59375 66.0625 29.59375 65.71875 
L 29.59375 6.6875 
Q 29.59375 3.515625 42.09375 3.515625 
L 42.09375 0 
z
" id="Cmr10-31"/>
      </defs>
      <g transform="translate(560.029887 100.934078)scale(0.1 -0.1)">
       <use transform="translate(0 0.390625)" xlink:href="#Cmr10-31"/>
      </g>
     </g>
    </g>
   </g>
   <g id="matplotlib.axis_2">
    <g id="ytick_1">
     <g id="line2d_14">
      <path clip-path="url(#p647cc43ac0)" d="M 4.074135 86.335641 
L 573.48 86.335641 
" style="fill:none;stroke:#000000;stroke-dasharray:0.5,0.825;stroke-dashoffset:0;stroke-width:0.5;"/>
     </g>
     <g id="line2d_15">
      <defs>
       <path d="M 0 0 
L -3.5 0 
" id="m5b03438f5a" style="stroke:#000000;stroke-width:0.8;"/>
      </defs>
      <g>
       <use style="stroke:#000000;stroke-width:0.8;" x="15.024247" xlink:href="#m5b03438f5a" y="86.335641"/>
      </g>
     </g>
    </g>
    <g id="ytick_2">
     <g id="line2d_16">
      <path clip-path="url(#p647cc43ac0)" d="M 4.074135 17.897436 
L 573.48 17.897436 
" style="fill:none;stroke:#000000;stroke-dasharray:0.5,0.825;stroke-dashoffset:0;stroke-width:0.5;"/>
     </g>
     <g id="line2d_17">
      <g>
       <use style="stroke:#000000;stroke-width:0.8;" x="15.024247" xlink:href="#m5b03438f5a" y="17.897436"/>
      </g>
     </g>
     <g id="text_3">
      <!-- $1$ -->
      <g transform="translate(3.024247 21.696655)scale(0.1 -0.1)">
       <use transform="translate(0 0.390625)" xlink:href="#Cmr10-31"/>
      </g>
     </g>
    </g>
   </g>
   <g id="patch_3">
    <path d="M 15.024247 87.704405 
L 15.024247 16.528672 
" style="fill:none;stroke:#000000;stroke-linecap:square;stroke-linejoin:miter;stroke-width:0.8;"/>
   </g>
   <g id="patch_4">
    <path d="M 4.074135 86.335641 
L 573.48 86.335641 
" style="fill:none;stroke:#000000;stroke-linecap:square;stroke-linejoin:miter;stroke-width:0.8;"/>
   </g>
  </g>
 </g>
 <defs>
  <clipPath id="p647cc43ac0">
   <rect height="71.175733" width="569.405865" x="4.074135" y="16.528672"/>
  </clipPath>
 </defs>
</svg>
