<?xml version="1.0" encoding="utf-8" standalone="no"?>
<!DOCTYPE svg PUBLIC "-//W3C//DTD SVG 1.1//EN"
  "http://www.w3.org/Graphics/SVG/1.1/DTD/svg11.dtd">
<!-- Created with matplotlib (http://matplotlib.org/) -->
<svg height="108pt" version="1.1" viewBox="0 0 576 108" width="576pt" xmlns="http://www.w3.org/2000/svg" xmlns:xlink="http://www.w3.org/1999/xlink">
 <defs>
  <style type="text/css">
*{stroke-linecap:butt;stroke-linejoin:round;}
  </style>
 </defs>
 <g id="figure_1">
  <g id="patch_1">
   <path d="M 0 108 
L 576 108 
L 576 0 
L 0 0 
z
" style="fill:#ffffff;"/>
  </g>
  <g id="axes_1">
   <g id="patch_2">
    <path d="M 14.874135 86.354405 
L 562.68 86.354405 
L 562.68 17.878672 
L 14.874135 17.878672 
z
" style="fill:#ffffff;"/>
   </g>
   <g id="line2d_1">
    <path clip-path="url(#p2dc01a0eaa)" d="M 25.408863 85.037564 
L 95.884583 63.105667 
L 95.884583 63.105667 
" style="fill:none;stroke:#ff0000;stroke-linecap:square;"/>
   </g>
   <g id="line2d_2">
    <path clip-path="url(#p2dc01a0eaa)" d="M 104.419324 68.43988 
L 104.430414 68.436429 
L 104.433365 68.435511 
L 104.447999 68.430957 
L 104.451268 68.429939 
L 104.464449 68.425838 
L 104.475445 68.422415 
L 104.478151 68.421574 
L 104.492034 68.417253 
L 104.502127 68.414112 
L 104.507222 68.412527 
L 104.516966 68.409494 
L 104.530095 68.405409 
L 104.536365 68.403457 
L 104.544892 68.400804 
L 104.557273 68.396951 
L 104.565022 68.39454 
L 104.574091 68.391717 
L 104.584163 68.388583 
L 104.590183 68.386709 
L 104.600107 68.383621 
L 104.60969 68.380639 
L 104.620082 68.377405 
L 104.623002 68.376496 
L 104.632876 68.373423 
L 104.640534 68.37104 
L 104.649406 68.368279 
L 104.658305 68.36551 
L 104.67207 68.361226 
L 104.677296 68.3596 
L 104.683777 68.357583 
L 104.697783 68.353224 
L 104.709011 68.34973 
L 104.716748 68.347323 
L 104.721245 68.345923 
L 104.731604 68.342699 
L 104.7458 68.338282 
L 104.753066 68.33602 
L 104.763058 68.332911 
L 104.766998 68.331685 
L 104.77704 68.32856 
L 104.788122 68.325111 
L 104.799088 68.321699 
L 104.801319 68.321004 
L 104.815193 68.316687 
L 104.818624 68.315619 
L 104.827679 68.312801 
L 104.840652 68.308764 
L 104.852588 68.30505 
L 104.860488 68.302591 
L 104.86483 68.30124 
L 104.876651 68.297561 
L 104.883773 68.295345 
L 104.895782 68.291608 
L 104.904845 68.288787 
L 104.9074 68.287992 
L 104.920621 68.283878 
L 104.925958 68.282217 
L 104.938421 68.278338 
L 104.947013 68.275665 
L 104.955854 68.272913 
L 104.965259 68.269987 
L 104.972202 68.267826 
L 104.984937 68.263863 
L 104.989349 68.26249 
L 105.003332 68.258138 
L 105.006501 68.257152 
L 105.01956 68.253088 
L 105.02356 68.251843 
L 105.040771 68.246487 
L 105.04459 68.245299 
L 105.053321 68.242582 
L 105.059862 68.240546 
L 105.072885 68.236493 
L 105.085397 68.2326 
L 105.089972 68.231176 
L 105.100093 68.228027 
L 105.106049 68.226173 
L 105.121541 68.221352 
L 105.126184 68.219907 
L 105.136198 68.216791 
L 105.145536 68.213885 
L 105.15655 68.210457 
L 105.158252 68.209928 
L 105.16733 68.207102 
L 105.175371 68.2046 
L 105.191249 68.199659 
L 105.196859 68.197913 
L 105.204624 68.195497 
L 105.219253 68.190944 
L 105.221812 68.190148 
L 105.231297 68.187196 
L 105.238418 68.18498 
L 105.248221 68.181929 
L 105.262886 68.177366 
L 105.269517 68.175302 
L 105.282527 68.171253 
L 105.283025 68.171098 
L 105.297075 68.166726 
L 105.307924 68.16335 
L 105.310935 68.162413 
L 105.323297 68.158566 
L 105.329655 68.156587 
L 105.338871 68.153719 
L 105.353398 68.149199 
" style="fill:none;stroke:#ff0000;stroke-linecap:square;"/>
   </g>
   <g id="line2d_3">
    <path clip-path="url(#p2dc01a0eaa)" d="M 105.373563 68.142923 
L 105.384851 68.13941 
L 105.393668 68.136666 
L 105.407004 68.132516 
L 105.415288 68.129938 
L 105.418031 68.129085 
L 105.433015 68.124422 
L 105.44014 68.122204 
L 105.448676 68.119548 
L 105.455357 68.117469 
L 105.467796 68.113598 
L 105.478051 68.110407 
L 105.485209 68.108179 
L 105.492136 68.106023 
L 105.504979 68.102027 
L 105.513411 68.099403 
L 105.523783 68.096175 
L 105.527274 68.095089 
L 105.537593 68.091877 
L 105.54508 68.089547 
L 105.559537 68.085049 
L 105.560943 68.084611 
L 105.574935 68.080257 
L 105.578615 68.079111 
L 105.59556 68.073838 
L 105.60196 68.071847 
L 105.605994 68.070591 
L 105.615241 68.067714 
L 105.630253 68.063042 
L 105.633911 68.061903 
L 105.641292 68.059606 
L 105.655718 68.055117 
L 105.659474 68.053948 
L 105.670483 68.050522 
L 105.677699 68.048277 
L 105.693768 68.043276 
L 105.70021 68.041271 
L 105.711865 68.037644 
L 105.719515 68.035264 
L 105.726601 68.033058 
L 105.731197 68.031628 
L 105.745429 68.027199 
L 105.751953 68.025169 
L 105.759644 68.022776 
L 105.768364 68.020062 
L 105.774915 68.018023 
L 105.785869 68.014614 
L 105.798779 68.010597 
L 105.804984 68.008666 
L 105.811117 68.006757 
L 105.826678 68.001915 
L 105.833248 67.99987 
L 105.840834 67.997509 
L 105.847779 67.995348 
L 105.859191 67.991797 
L 105.869809 67.988492 
L 105.877157 67.986206 
L 105.887162 67.983092 
L 105.895484 67.980502 
L 105.902083 67.978449 
L 105.915091 67.974401 
L 105.924045 67.971614 
L 105.930036 67.96975 
L 105.943971 67.965413 
L 105.953216 67.962536 
L 105.961987 67.959807 
L 105.967842 67.957985 
L 105.976764 67.955208 
L 105.987722 67.951798 
L 105.990903 67.950808 
L 106.004217 67.946665 
L 106.009731 67.944949 
L 106.020956 67.941456 
L 106.028346 67.939156 
L 106.037152 67.936416 
L 106.046582 67.933481 
L 106.059521 67.929455 
L 106.064547 67.92789 
L 106.077937 67.923723 
L 106.079592 67.923208 
L 106.094118 67.918688 
L 106.105138 67.915259 
L 106.10595 67.915006 
L 106.116316 67.91178 
L 106.123923 67.909413 
L 106.139101 67.904689 
L 106.142364 67.903674 
L 106.157204 67.899056 
L 106.164415 67.896812 
L 106.171808 67.894511 
L 106.185105 67.890373 
L 106.186866 67.889825 
L 106.199532 67.885883 
" style="fill:none;stroke:#ff0000;stroke-linecap:square;"/>
   </g>
   <g id="line2d_4">
    <path clip-path="url(#p2dc01a0eaa)" d="M 107.053006 68.419305 
L 109.5706 67.635835 
L 109.5706 67.635835 
" style="fill:none;stroke:#ff0000;stroke-linecap:square;"/>
   </g>
   <g id="line2d_5">
    <path clip-path="url(#p2dc01a0eaa)" d="M 110.777595 68.390206 
L 167.688175 50.679752 
L 167.688175 50.679752 
" style="fill:none;stroke:#ff0000;stroke-linecap:square;"/>
   </g>
   <g id="line2d_6">
    <path clip-path="url(#p2dc01a0eaa)" d="M 209.766606 60.312502 
L 262.440247 43.920575 
L 262.440247 43.920575 
" style="fill:none;stroke:#ff0000;stroke-linecap:square;"/>
   </g>
   <g id="line2d_7">
    <path clip-path="url(#p2dc01a0eaa)" d="M 304.518677 53.553325 
L 361.429258 35.842871 
L 361.429258 35.842871 
" style="fill:none;stroke:#ff0000;stroke-linecap:square;"/>
   </g>
   <g id="line2d_8">
    <path clip-path="url(#p2dc01a0eaa)" d="M 362.636252 36.597242 
L 365.153847 35.813772 
L 365.153847 35.813772 
" style="fill:none;stroke:#ff0000;stroke-linecap:square;"/>
   </g>
   <g id="line2d_9">
    <path clip-path="url(#p2dc01a0eaa)" d="M 366.007321 36.347194 
L 367.787529 35.793197 
L 367.787529 35.793197 
" style="fill:none;stroke:#ff0000;stroke-linecap:square;"/>
   </g>
   <g id="line2d_10">
    <path clip-path="url(#p2dc01a0eaa)" d="M 376.32227 41.12741 
L 376.540586 41.059471 
L 376.911455 40.944057 
L 377.33569 40.812036 
L 377.700186 40.698605 
L 378.089931 40.577318 
L 378.399316 40.481038 
L 378.905038 40.323658 
L 379.196188 40.233053 
L 379.521399 40.131848 
L 379.769033 40.054785 
L 380.115866 39.946851 
L 380.426806 39.850087 
L 380.862493 39.714502 
L 381.273228 39.586682 
L 381.500025 39.516104 
L 381.852364 39.406456 
L 382.228833 39.2893 
L 382.737739 39.130929 
L 383.180461 38.993155 
L 383.240201 38.974565 
L 383.90084 38.768975 
L 384.040414 38.72554 
L 384.29843 38.645246 
L 384.825374 38.481262 
L 385.270674 38.342686 
L 385.553412 38.254698 
L 385.818212 38.172293 
L 386.065944 38.095199 
L 386.585641 37.933471 
L 386.969621 37.813977 
L 387.436717 37.668617 
L 387.768212 37.565457 
L 388.119413 37.456164 
L 388.537008 37.326209 
L 388.838346 37.232433 
L 389.184106 37.124834 
L 389.486121 37.030847 
L 389.886536 36.906239 
L 390.087113 36.84382 
L 390.648171 36.669219 
L 390.842451 36.60876 
L 391.267522 36.476479 
L 391.605857 36.37119 
L 391.909063 36.276833 
L 392.162818 36.197865 
L 392.539268 36.080714 
L 392.893649 35.970432 
L 393.217506 35.869648 
L 393.677223 35.726585 
L 393.991633 35.628741 
L 394.25705 35.546144 
L 394.579587 35.445771 
L 394.999298 35.315158 
L 395.371632 35.199289 
L 395.849046 35.050718 
L 396.16573 34.952167 
L 396.677163 34.79301 
L 396.986149 34.696854 
L 397.242742 34.617003 
L 397.607096 34.503617 
L 398.08538 34.354776 
L 398.19402 34.320967 
L 398.505121 34.224153 
L 399.122679 34.03197 
L 399.289468 33.980066 
L 399.843803 33.807558 
L 400.152906 33.711366 
L 400.282437 33.671056 
L 400.930273 33.469451 
L 401.230352 33.376067 
L 401.465163 33.302994 
L 401.921395 33.161016 
L 402.229805 33.065039 
L 402.47833 32.987699 
L 402.88158 32.862208 
L 403.233139 32.752804 
L 403.590009 32.641746 
L 403.932504 32.535163 
L 404.298786 32.421177 
L 404.80733 32.262919 
L 405.044717 32.189045 
L 405.39032 32.081493 
" style="fill:none;stroke:#ff0000;stroke-linecap:square;"/>
   </g>
   <g id="line2d_11">
    <path clip-path="url(#p2dc01a0eaa)" d="M 406.474375 31.744138 
L 406.845548 31.62863 
L 407.080073 31.555646 
L 407.353152 31.470664 
L 407.973461 31.277625 
L 408.243092 31.193717 
L 408.675981 31.059003 
L 408.752874 31.035074 
L 409.241491 30.883017 
L 409.444204 30.819933 
L 409.884295 30.682978 
L 410.252154 30.568501 
L 410.512681 30.487425 
L 410.869757 30.376304 
L 411.448146 30.196311 
L 411.89445 30.057422 
L 412.048027 30.009629 
L 412.583173 29.843093 
L 412.838865 29.763522 
L 413.21172 29.64749 
L 413.670244 29.504798 
L 413.964618 29.41319 
L 414.053643 29.385485 
L 414.467868 29.25658 
L 414.984399 29.095836 
L 415.255799 29.011377 
L 415.661181 28.885223 
L 415.905909 28.809064 
L 416.267033 28.696683 
L 416.725414 28.554036 
L 417.196094 28.407561 
L 417.407683 28.341715 
L 417.934615 28.177735 
L 417.997535 28.158154 
L 418.588076 27.974379 
L 418.994811 27.847804 
L 419.043695 27.832592 
L 419.617678 27.65397 
L 419.916314 27.561034 
L 420.182968 27.478052 
L 420.441185 27.397696 
L 420.952072 27.238709 
L 421.314822 27.125822 
L 421.818458 26.969091 
L 422.175888 26.85786 
L 422.488125 26.760692 
L 422.845595 26.649448 
L 422.930208 26.623117 
L 423.356109 26.490577 
L 423.65632 26.397152 
L 424.081247 26.264916 
L 424.478147 26.141402 
L 424.919488 26.004057 
L 425.026544 25.970742 
L 425.59562 25.793646 
L 425.946483 25.684458 
L 426.408131 25.540794 
L 426.644994 25.467083 
L 427.058446 25.338418 
L 427.370178 25.241407 
L 427.790245 25.110684 
L 427.903016 25.075589 
L 428.256256 24.965662 
L 428.90475 24.763852 
L 429.204444 24.670588 
L 429.360702 24.62196 
L 429.649156 24.532194 
L 429.97651 24.430322 
L 430.344903 24.315679 
L 430.801954 24.173446 
L 431.362526 23.998997 
L 431.539508 23.943921 
L 431.82433 23.855285 
L 432.329595 23.698047 
L 432.464655 23.656017 
L 433.064329 23.4694 
L 433.291449 23.39872 
L 433.820055 23.234219 
L 434.053475 23.161579 
L 434.559529 23.004097 
L 434.725287 22.952513 
L 435.184315 22.809664 
L 435.602824 22.679425 
L 435.775533 22.625678 
L 436.135103 22.513781 
L 436.574457 22.377055 
L 437.025724 22.236622 
L 437.106806 22.211389 
L 437.637091 22.046366 
L 437.798347 21.996183 
L 438.316714 21.834868 
L 438.690408 21.718576 
L 439.03495 21.611355 
L 439.45389 21.480981 
L 439.781501 21.37903 
L 439.9491 21.326873 
L 440.248884 21.233581 
L 440.951086 21.015057 
L 441.1799 20.943851 
L 441.374894 20.883169 
L 441.890499 20.722714 
L 442.322129 20.588392 
L 442.407321 20.56188 
L 442.772305 20.448298 
L 443.24981 20.299699 
L 443.609244 20.187844 
L 444.108349 20.032524 
L 444.339143 19.960701 
L 444.693583 19.8504 
L 444.928141 19.777406 
L 445.306109 19.659783 
L 445.714243 19.532773 
L 446.04081 19.431146 
L 446.423947 19.311914 
L 446.79799 19.195513 
" style="fill:none;stroke:#ff0000;stroke-linecap:square;"/>
   </g>
   <g id="line2d_12">
    <path clip-path="url(#p2dc01a0eaa)" d="M 95.884583 63.105667 
L 104.419324 68.43988 
L 104.419324 68.43988 
" style="fill:none;stroke:#00ff00;stroke-linecap:square;"/>
   </g>
   <g id="line2d_13">
    <path clip-path="url(#p2dc01a0eaa)" d="M 106.199532 67.885883 
L 107.053006 68.419305 
L 107.053006 68.419305 
" style="fill:none;stroke:#00ff00;stroke-linecap:square;"/>
   </g>
   <g id="line2d_14">
    <path clip-path="url(#p2dc01a0eaa)" d="M 109.5706 67.635835 
L 110.777595 68.390206 
L 110.777595 68.390206 
" style="fill:none;stroke:#00ff00;stroke-linecap:square;"/>
   </g>
   <g id="line2d_15">
    <path clip-path="url(#p2dc01a0eaa)" d="M 167.688175 50.679752 
L 183.429786 60.518259 
L 183.429786 60.518259 
" style="fill:none;stroke:#00ff00;stroke-linecap:square;"/>
   </g>
   <g id="line2d_16">
    <path clip-path="url(#p2dc01a0eaa)" d="M 288.777067 43.714818 
L 304.518677 53.553325 
L 304.518677 53.553325 
" style="fill:none;stroke:#00ff00;stroke-linecap:square;"/>
   </g>
   <g id="line2d_17">
    <path clip-path="url(#p2dc01a0eaa)" d="M 361.429258 35.842871 
L 362.636252 36.597242 
L 362.636252 36.597242 
" style="fill:none;stroke:#00ff00;stroke-linecap:square;"/>
   </g>
   <g id="line2d_18">
    <path clip-path="url(#p2dc01a0eaa)" d="M 365.153847 35.813772 
L 366.007321 36.347194 
L 366.007321 36.347194 
" style="fill:none;stroke:#00ff00;stroke-linecap:square;"/>
   </g>
   <g id="line2d_19">
    <path clip-path="url(#p2dc01a0eaa)" d="M 367.787529 35.793197 
L 376.32227 41.12741 
L 376.32227 41.12741 
" style="fill:none;stroke:#00ff00;stroke-linecap:square;"/>
   </g>
   <g id="line2d_20">
    <path clip-path="url(#p2dc01a0eaa)" d="M 446.79799 19.195513 
L 552.145272 85.037564 
L 552.145272 85.037564 
" style="fill:none;stroke:#00ff00;stroke-linecap:square;"/>
   </g>
   <g id="line2d_21">
    <path clip-path="url(#p2dc01a0eaa)" d="M 183.429786 60.518259 
L 209.766606 60.312502 
L 209.766606 60.312502 
" style="fill:none;stroke:#0000ff;stroke-linecap:square;"/>
   </g>
   <g id="line2d_22">
    <path clip-path="url(#p2dc01a0eaa)" d="M 262.440247 43.920575 
L 288.777067 43.714818 
L 288.777067 43.714818 
" style="fill:none;stroke:#0000ff;stroke-linecap:square;"/>
   </g>
   <g id="matplotlib.axis_1">
    <g id="xtick_1">
     <g id="line2d_23">
      <path clip-path="url(#p2dc01a0eaa)" d="M 25.408863 86.354405 
L 25.408863 17.878672 
" style="fill:none;stroke:#000000;stroke-dasharray:0.5,0.825;stroke-dashoffset:0;stroke-width:0.5;"/>
     </g>
     <g id="line2d_24">
      <defs>
       <path d="M 0 0 
L 0 3.5 
" id="m77cc7c135d" style="stroke:#000000;stroke-width:0.8;"/>
      </defs>
      <g>
       <use style="stroke:#000000;stroke-width:0.8;" x="25.408863" xlink:href="#m77cc7c135d" y="85.037564"/>
      </g>
     </g>
    </g>
    <g id="xtick_2">
     <g id="line2d_25">
      <path clip-path="url(#p2dc01a0eaa)" d="M 446.79799 86.354405 
L 446.79799 17.878672 
" style="fill:none;stroke:#000000;stroke-dasharray:0.5,0.825;stroke-dashoffset:0;stroke-width:0.5;"/>
     </g>
     <g id="line2d_26">
      <g>
       <use style="stroke:#000000;stroke-width:0.8;" x="446.79799" xlink:href="#m77cc7c135d" y="85.037564"/>
      </g>
     </g>
     <g id="text_1">
      <!-- $f$ -->
      <defs>
       <path d="M 9.71875 -16.5 
Q 11.578125 -17.921875 14.203125 -17.921875 
Q 17.78125 -17.921875 20.015625 -10.015625 
Q 20.953125 -6.203125 25.09375 15.09375 
L 29.6875 39.59375 
L 21.09375 39.59375 
Q 20.125 39.59375 20.125 40.921875 
Q 20.515625 43.109375 21.390625 43.109375 
L 30.328125 43.109375 
L 31.5 49.609375 
Q 32.078125 52.640625 32.5625 54.8125 
Q 33.0625 56.984375 33.625 58.828125 
Q 34.1875 60.6875 35.296875 62.984375 
Q 37.015625 66.265625 39.921875 68.390625 
Q 42.828125 70.515625 46.1875 70.515625 
Q 48.390625 70.515625 50.46875 69.703125 
Q 52.546875 68.890625 53.859375 67.28125 
Q 55.171875 65.671875 55.171875 63.484375 
Q 55.171875 60.9375 53.484375 59.046875 
Q 51.8125 57.171875 49.421875 57.171875 
Q 47.796875 57.171875 46.65625 58.171875 
Q 45.515625 59.1875 45.515625 60.796875 
Q 45.515625 62.984375 47 64.625 
Q 48.484375 66.265625 50.6875 66.5 
Q 48.828125 67.921875 46.09375 67.921875 
Q 44.578125 67.921875 43.234375 66.5 
Q 41.890625 65.09375 41.5 63.484375 
Q 40.875 60.9375 38.71875 49.703125 
L 37.5 43.109375 
L 47.796875 43.109375 
Q 48.78125 43.109375 48.78125 41.796875 
Q 48.734375 41.546875 48.578125 40.9375 
Q 48.4375 40.328125 48.171875 39.953125 
Q 47.90625 39.59375 47.515625 39.59375 
L 36.8125 39.59375 
L 32.171875 15.1875 
Q 31.296875 9.859375 30.140625 4.359375 
Q 29 -1.125 26.921875 -6.90625 
Q 24.859375 -12.703125 21.625 -16.609375 
Q 18.40625 -20.515625 14.015625 -20.515625 
Q 10.640625 -20.515625 7.984375 -18.578125 
Q 5.328125 -16.65625 5.328125 -13.484375 
Q 5.328125 -10.9375 6.953125 -9.046875 
Q 8.59375 -7.171875 11.078125 -7.171875 
Q 12.75 -7.171875 13.859375 -8.171875 
Q 14.984375 -9.1875 14.984375 -10.796875 
Q 14.984375 -12.9375 13.390625 -14.71875 
Q 11.8125 -16.5 9.71875 -16.5 
z
" id="Cmmi10-66"/>
      </defs>
      <g transform="translate(444.34799 99.615689)scale(0.1 -0.1)">
       <use transform="translate(0 0.484375)" xlink:href="#Cmmi10-66"/>
      </g>
     </g>
    </g>
    <g id="xtick_3">
     <g id="line2d_27">
      <path clip-path="url(#p2dc01a0eaa)" d="M 552.145272 86.354405 
L 552.145272 17.878672 
" style="fill:none;stroke:#000000;stroke-dasharray:0.5,0.825;stroke-dashoffset:0;stroke-width:0.5;"/>
     </g>
     <g id="line2d_28">
      <g>
       <use style="stroke:#000000;stroke-width:0.8;" x="552.145272" xlink:href="#m77cc7c135d" y="85.037564"/>
      </g>
     </g>
     <g id="text_2">
      <!-- $1$ -->
      <defs>
       <path d="M 9.28125 0 
L 9.28125 3.515625 
Q 21.78125 3.515625 21.78125 6.6875 
L 21.78125 59.1875 
Q 16.609375 56.6875 8.6875 56.6875 
L 8.6875 60.203125 
Q 20.953125 60.203125 27.203125 66.609375 
L 28.609375 66.609375 
Q 28.953125 66.609375 29.265625 66.328125 
Q 29.59375 66.0625 29.59375 65.71875 
L 29.59375 6.6875 
Q 29.59375 3.515625 42.09375 3.515625 
L 42.09375 0 
z
" id="Cmr10-31"/>
      </defs>
      <g transform="translate(549.645272 99.636002)scale(0.1 -0.1)">
       <use transform="translate(0 0.390625)" xlink:href="#Cmr10-31"/>
      </g>
     </g>
    </g>
   </g>
   <g id="matplotlib.axis_2">
    <g id="ytick_1">
     <g id="line2d_29">
      <path clip-path="url(#p2dc01a0eaa)" d="M 14.874135 85.037564 
L 562.68 85.037564 
" style="fill:none;stroke:#000000;stroke-dasharray:0.5,0.825;stroke-dashoffset:0;stroke-width:0.5;"/>
     </g>
     <g id="line2d_30">
      <defs>
       <path d="M 0 0 
L -3.5 0 
" id="m554b5eb3a2" style="stroke:#000000;stroke-width:0.8;"/>
      </defs>
      <g>
       <use style="stroke:#000000;stroke-width:0.8;" x="25.408863" xlink:href="#m554b5eb3a2" y="85.037564"/>
      </g>
     </g>
    </g>
    <g id="ytick_2">
     <g id="line2d_31">
      <path clip-path="url(#p2dc01a0eaa)" d="M 14.874135 19.195513 
L 562.68 19.195513 
" style="fill:none;stroke:#000000;stroke-dasharray:0.5,0.825;stroke-dashoffset:0;stroke-width:0.5;"/>
     </g>
     <g id="line2d_32">
      <g>
       <use style="stroke:#000000;stroke-width:0.8;" x="25.408863" xlink:href="#m554b5eb3a2" y="19.195513"/>
      </g>
     </g>
     <g id="text_3">
      <!-- $1$ -->
      <g transform="translate(13.408863 22.994732)scale(0.1 -0.1)">
       <use transform="translate(0 0.390625)" xlink:href="#Cmr10-31"/>
      </g>
     </g>
    </g>
   </g>
   <g id="patch_3">
    <path d="M 25.408863 86.354405 
L 25.408863 17.878672 
" style="fill:none;stroke:#000000;stroke-linecap:square;stroke-linejoin:miter;stroke-width:0.8;"/>
   </g>
   <g id="patch_4">
    <path d="M 14.874135 85.037564 
L 562.68 85.037564 
" style="fill:none;stroke:#000000;stroke-linecap:square;stroke-linejoin:miter;stroke-width:0.8;"/>
   </g>
  </g>
 </g>
 <defs>
  <clipPath id="p2dc01a0eaa">
   <rect height="68.475733" width="547.805865" x="14.874135" y="17.878672"/>
  </clipPath>
 </defs>
</svg>
