<?xml version="1.0" encoding="utf-8" standalone="no"?>
<!DOCTYPE svg PUBLIC "-//W3C//DTD SVG 1.1//EN"
  "http://www.w3.org/Graphics/SVG/1.1/DTD/svg11.dtd">
<!-- Created with matplotlib (http://matplotlib.org/) -->
<svg height="108pt" version="1.1" viewBox="0 0 576 108" width="576pt" xmlns="http://www.w3.org/2000/svg" xmlns:xlink="http://www.w3.org/1999/xlink">
 <defs>
  <style type="text/css">
*{stroke-linecap:butt;stroke-linejoin:round;}
  </style>
 </defs>
 <g id="figure_1">
  <g id="patch_1">
   <path d="M 0 108 
L 576 108 
L 576 0 
L 0 0 
z
" style="fill:#ffffff;"/>
  </g>
  <g id="axes_1">
   <g id="patch_2">
    <path d="M 4.074135 87.704405 
L 573.48 87.704405 
L 573.48 16.528672 
L 4.074135 16.528672 
z
" style="fill:#ffffff;"/>
   </g>
   <g id="line2d_1">
    <path clip-path="url(#p4d0a24b699)" d="M 15.024247 86.335641 
L 15.465346 86.059954 
L 16.305878 85.534622 
L 16.821449 85.21239 
L 17.116583 85.027931 
L 17.834131 84.579464 
L 18.069408 84.432415 
L 18.727302 84.021232 
L 19.245635 83.697274 
L 19.770156 83.369448 
L 20.380305 82.988105 
L 21.013368 82.59244 
L 21.41404 82.342021 
L 22.386696 81.734111 
L 22.582369 81.611815 
L 23.338746 81.139079 
L 23.674373 80.929313 
L 24.542824 80.38653 
L 25.188551 79.982951 
L 25.604624 79.722906 
L 25.966102 79.496982 
L 26.41793 79.214589 
L 26.933684 78.892243 
L 27.464142 78.560707 
L 28.409367 77.969941 
L 28.825008 77.710166 
L 29.605808 77.222166 
L 30.087749 76.920953 
L 30.289092 76.795113 
L 30.716419 76.528033 
L 31.449826 76.069654 
L 31.825761 75.834695 
L 32.433292 75.454988 
L 33.006872 75.096501 
L 33.993482 74.479869 
L 34.484326 74.173092 
L 34.865857 73.934635 
L 35.166015 73.747036 
L 36.054298 73.191859 
L 36.580368 72.863065 
L 37.043746 72.573454 
L 37.582763 72.236569 
L 37.914638 72.029147 
L 38.698657 71.539135 
L 39.275909 71.178353 
L 39.937966 70.764567 
L 40.168726 70.620342 
L 40.855516 70.191098 
L 41.70998 69.657058 
L 41.851629 69.568528 
L 42.557897 69.12711 
L 42.825314 68.959974 
L 43.543674 68.510999 
L 43.935236 68.266273 
L 44.512378 67.905559 
L 45.404045 67.348268 
L 45.6363 67.203108 
L 46.584214 66.610662 
L 46.707563 66.533569 
L 47.364436 66.123023 
L 47.906147 65.784454 
L 48.744827 65.260279 
L 49.229635 64.957274 
L 49.735611 64.641039 
L 50.318399 64.276796 
L 50.628893 64.082737 
L 51.278942 63.676457 
L 51.732289 63.393115 
L 52.252468 63.068003 
L 52.884411 62.673039 
L 53.618761 62.21407 
L 53.883038 62.048897 
L 54.441109 61.700103 
L 55.025762 61.334694 
L 55.983742 60.735957 
L 56.501096 60.412611 
L 56.747132 60.258838 
L 57.660577 59.687935 
L 58.001844 59.474643 
L 58.543992 59.135801 
L 59.090294 58.794362 
L 59.732601 58.39292 
L 60.241176 58.075061 
L 60.800644 57.725393 
L 61.077862 57.552132 
L 61.6645 57.185483 
L 62.512424 56.655531 
L 62.834562 56.454194 
L 63.444677 56.072872 
L 64.118882 55.651494 
L 64.343731 55.510964 
L 65.199133 54.976338 
L 65.52781 54.770914 
L 66.150859 54.381508 
L 66.49269 54.167864 
L 67.256026 53.690779 
L 67.774154 53.36695 
L 68.210011 53.094539 
L 68.799217 52.726285 
L 69.527913 52.27085 
L 69.901411 52.037414 
L 70.677541 51.552333 
L 71.143653 51.261012 
L 71.849925 50.819592 
L 72.510147 50.406954 
L 72.885262 50.172507 
L 73.32377 49.898439 
L 73.980035 49.488274 
L 74.57555 49.116077 
L 75.117015 48.777661 
L 75.722482 48.399244 
L 76.097192 48.16505 
L 76.531063 47.893881 
L 77.279936 47.425836 
L 77.866564 47.059193 
L 78.466416 46.684285 
" style="fill:none;stroke:#000000;stroke-linecap:square;stroke-width:2;"/>
   </g>
   <g id="line2d_2">
    <path clip-path="url(#p4d0a24b699)" d="M 79.969313 45.744975 
L 80.277579 45.552309 
L 80.883026 45.173904 
L 81.732149 44.643202 
L 82.336172 44.265688 
L 82.85264 43.942896 
L 83.089991 43.794551 
L 83.732479 43.392996 
L 84.106588 43.159178 
L 85.064461 42.560507 
L 85.611173 42.218812 
L 86.159112 41.876351 
L 86.402358 41.724322 
L 87.08609 41.29699 
L 87.437402 41.077419 
L 88.259484 40.563618 
L 88.824339 40.210584 
L 89.180802 39.987794 
L 90.055542 39.441082 
L 90.254747 39.316579 
L 90.976989 38.865177 
L 91.727951 38.395826 
L 92.129641 38.14477 
L 92.624547 37.835454 
L 92.904964 37.660193 
L 93.512421 37.280532 
L 94.28857 36.795439 
L 94.730007 36.519541 
L 95.629581 35.957308 
L 95.961391 35.749926 
L 96.369387 35.494929 
L 96.911713 35.155975 
L 97.486 34.797046 
L 98.029633 34.457275 
L 98.447075 34.196374 
L 99.227934 33.708337 
L 99.81912 33.338846 
L 100.285477 33.047372 
L 100.751036 32.756398 
L 101.566652 32.246638 
L 102.025925 31.959592 
L 102.414212 31.716913 
L 103.300406 31.163042 
L 103.751421 30.881157 
L 104.396814 30.477787 
L 104.695458 30.291134 
L 105.350933 29.881463 
L 105.768667 29.620378 
L 106.315118 29.278847 
L 106.950483 28.881743 
L 107.698586 28.414179 
L 107.924729 28.27284 
L 108.375275 27.991249 
L 109.208146 27.470704 
L 109.616792 27.2153 
L 109.972792 26.9928 
L 110.514039 26.654521 
L 111.221797 26.212173 
L 111.609955 25.969574 
L 112.448654 25.445387 
L 112.697333 25.289962 
L 113.72836 24.645571 
L 113.893593 24.5423 
L 114.593638 24.104772 
L 115.442146 23.574454 
L 115.470719 23.556596 
L 116.370724 22.994093 
L 117.064552 22.560451 
L 117.204463 22.473006 
L 117.66172 22.18722 
L 118.257066 21.815129 
L 118.925544 21.397331 
L 119.730183 20.894431 
L 120.241313 20.574975 
L 120.939905 20.138355 
L 121.055556 20.066073 
L 121.618299 19.714359 
L 122.25743 19.314902 
L 122.968417 18.870535 
L 123.698936 18.413961 
L 123.764533 18.372962 
L 124.525375 17.897436 
" style="fill:none;stroke:#000000;stroke-linecap:square;stroke-width:2;"/>
   </g>
   <g id="line2d_3">
    <path clip-path="url(#p4d0a24b699)" d="M 124.525375 74.929273 
L 562.529887 29.303803 
L 562.529887 29.303803 
" style="fill:none;stroke:#000000;stroke-linecap:square;stroke-width:2;"/>
   </g>
   <g id="line2d_4">
    <path clip-path="url(#p4d0a24b699)" d="M 15.024247 86.335641 
L 124.525375 17.897436 
L 124.525375 17.897436 
" style="fill:none;stroke:#ff0000;stroke-linecap:square;stroke-width:2;"/>
   </g>
   <g id="line2d_5">
    <path clip-path="url(#p4d0a24b699)" d="M 124.525375 74.929273 
L 562.529887 29.303803 
L 562.529887 29.303803 
" style="fill:none;stroke:#00ffff;stroke-linecap:square;stroke-width:2;"/>
   </g>
   <g id="PathCollection_1">
    <path clip-path="url(#p4d0a24b699)" d="M 124.525375 20.295352 
C 125.16131 20.295352 125.771284 20.042692 126.220958 19.593018 
C 126.670632 19.143345 126.923291 18.533371 126.923291 17.897436 
C 126.923291 17.261501 126.670632 16.651527 126.220958 16.201853 
C 125.771284 15.75218 125.16131 15.49952 124.525375 15.49952 
C 123.889441 15.49952 123.279467 15.75218 122.829793 16.201853 
C 122.380119 16.651527 122.12746 17.261501 122.12746 17.897436 
C 122.12746 18.533371 122.380119 19.143345 122.829793 19.593018 
C 123.279467 20.042692 123.889441 20.295352 124.525375 20.295352 
z
"/>
   </g>
   <g id="PathCollection_2">
    <path clip-path="url(#p4d0a24b699)" d="M 124.525375 77.327189 
C 125.16131 77.327189 125.771284 77.07453 126.220958 76.624856 
C 126.670632 76.175182 126.923291 75.565208 126.923291 74.929273 
C 126.923291 74.293339 126.670632 73.683365 126.220958 73.233691 
C 125.771284 72.784017 125.16131 72.531358 124.525375 72.531358 
C 123.889441 72.531358 123.279467 72.784017 122.829793 73.233691 
C 122.380119 73.683365 122.12746 74.293339 122.12746 74.929273 
C 122.12746 75.565208 122.380119 76.175182 122.829793 76.624856 
C 123.279467 77.07453 123.889441 77.327189 124.525375 77.327189 
z
"/>
   </g>
   <g id="PathCollection_3">
    <path clip-path="url(#p4d0a24b699)" d="M 124.525375 76.510412 
C 124.944698 76.510412 125.346903 76.343814 125.643409 76.047307 
C 125.939915 75.750801 126.106514 75.348596 126.106514 74.929273 
C 126.106514 74.509951 125.939915 74.107746 125.643409 73.811239 
C 125.346903 73.514733 124.944698 73.348135 124.525375 73.348135 
C 124.106052 73.348135 123.703847 73.514733 123.407341 73.811239 
C 123.110835 74.107746 122.944237 74.509951 122.944237 74.929273 
C 122.944237 75.348596 123.110835 75.750801 123.407341 76.047307 
C 123.703847 76.343814 124.106052 76.510412 124.525375 76.510412 
z
" style="fill:#ffffff;"/>
   </g>
   <g id="PathCollection_4">
    <path clip-path="url(#p4d0a24b699)" d="M 562.529887 31.701719 
C 563.165822 31.701719 563.775796 31.44906 564.22547 30.999386 
C 564.675143 30.549712 564.927803 29.939738 564.927803 29.303803 
C 564.927803 28.667869 564.675143 28.057895 564.22547 27.608221 
C 563.775796 27.158547 563.165822 26.905888 562.529887 26.905888 
C 561.893953 26.905888 561.283978 27.158547 560.834305 27.608221 
C 560.384631 28.057895 560.131971 28.667869 560.131971 29.303803 
C 560.131971 29.939738 560.384631 30.549712 560.834305 30.999386 
C 561.283978 31.44906 561.893953 31.701719 562.529887 31.701719 
z
"/>
   </g>
   <g id="PathCollection_5">
    <path clip-path="url(#p4d0a24b699)" d="M 562.529887 30.884942 
C 562.94921 30.884942 563.351415 30.718344 563.647921 30.421837 
C 563.944427 30.125331 564.111026 29.723126 564.111026 29.303803 
C 564.111026 28.884481 563.944427 28.482276 563.647921 28.185769 
C 563.351415 27.889263 562.94921 27.722665 562.529887 27.722665 
C 562.110564 27.722665 561.708359 27.889263 561.411853 28.185769 
C 561.115347 28.482276 560.948748 28.884481 560.948748 29.303803 
C 560.948748 29.723126 561.115347 30.125331 561.411853 30.421837 
C 561.708359 30.718344 562.110564 30.884942 562.529887 30.884942 
z
" style="fill:#ffffff;"/>
   </g>
   <g id="PathCollection_6">
    <path clip-path="url(#p4d0a24b699)" d="M 562.529887 88.733557 
C 563.165822 88.733557 563.775796 88.480897 564.22547 88.031223 
C 564.675143 87.58155 564.927803 86.971576 564.927803 86.335641 
C 564.927803 85.699706 564.675143 85.089732 564.22547 84.640058 
C 563.775796 84.190385 563.165822 83.937725 562.529887 83.937725 
C 561.893953 83.937725 561.283978 84.190385 560.834305 84.640058 
C 560.384631 85.089732 560.131971 85.699706 560.131971 86.335641 
C 560.131971 86.971576 560.384631 87.58155 560.834305 88.031223 
C 561.283978 88.480897 561.893953 88.733557 562.529887 88.733557 
z
"/>
   </g>
   <g id="PathCollection_7">
    <path clip-path="url(#p4d0a24b699)" d="M 562.529887 88.733557 
C 563.165822 88.733557 563.775796 88.480897 564.22547 88.031223 
C 564.675143 87.58155 564.927803 86.971576 564.927803 86.335641 
C 564.927803 85.699706 564.675143 85.089732 564.22547 84.640058 
C 563.775796 84.190385 563.165822 83.937725 562.529887 83.937725 
C 561.893953 83.937725 561.283978 84.190385 560.834305 84.640058 
C 560.384631 85.089732 560.131971 85.699706 560.131971 86.335641 
C 560.131971 86.971576 560.384631 87.58155 560.834305 88.031223 
C 561.283978 88.480897 561.893953 88.733557 562.529887 88.733557 
z
"/>
   </g>
   <g id="matplotlib.axis_1">
    <g id="xtick_1">
     <g id="line2d_6">
      <path clip-path="url(#p4d0a24b699)" d="M 15.024247 87.704405 
L 15.024247 16.528672 
" style="fill:none;stroke:#000000;stroke-dasharray:0.5,0.825;stroke-dashoffset:0;stroke-width:0.5;"/>
     </g>
     <g id="line2d_7">
      <defs>
       <path d="M 0 0 
L 0 3.5 
" id="m2b991e5b2d" style="stroke:#000000;stroke-width:0.8;"/>
      </defs>
      <g>
       <use style="stroke:#000000;stroke-width:0.8;" x="15.024247" xlink:href="#m2b991e5b2d" y="86.335641"/>
      </g>
     </g>
    </g>
    <g id="xtick_2">
     <g id="line2d_8">
      <path clip-path="url(#p4d0a24b699)" d="M 124.525375 87.704405 
L 124.525375 16.528672 
" style="fill:none;stroke:#000000;stroke-dasharray:0.5,0.825;stroke-dashoffset:0;stroke-width:0.5;"/>
     </g>
     <g id="line2d_9">
      <g>
       <use style="stroke:#000000;stroke-width:0.8;" x="124.525375" xlink:href="#m2b991e5b2d" y="86.335641"/>
      </g>
     </g>
     <g id="text_1">
      <!-- $f$ -->
      <defs>
       <path d="M 9.71875 -16.5 
Q 11.578125 -17.921875 14.203125 -17.921875 
Q 17.78125 -17.921875 20.015625 -10.015625 
Q 20.953125 -6.203125 25.09375 15.09375 
L 29.6875 39.59375 
L 21.09375 39.59375 
Q 20.125 39.59375 20.125 40.921875 
Q 20.515625 43.109375 21.390625 43.109375 
L 30.328125 43.109375 
L 31.5 49.609375 
Q 32.078125 52.640625 32.5625 54.8125 
Q 33.0625 56.984375 33.625 58.828125 
Q 34.1875 60.6875 35.296875 62.984375 
Q 37.015625 66.265625 39.921875 68.390625 
Q 42.828125 70.515625 46.1875 70.515625 
Q 48.390625 70.515625 50.46875 69.703125 
Q 52.546875 68.890625 53.859375 67.28125 
Q 55.171875 65.671875 55.171875 63.484375 
Q 55.171875 60.9375 53.484375 59.046875 
Q 51.8125 57.171875 49.421875 57.171875 
Q 47.796875 57.171875 46.65625 58.171875 
Q 45.515625 59.1875 45.515625 60.796875 
Q 45.515625 62.984375 47 64.625 
Q 48.484375 66.265625 50.6875 66.5 
Q 48.828125 67.921875 46.09375 67.921875 
Q 44.578125 67.921875 43.234375 66.5 
Q 41.890625 65.09375 41.5 63.484375 
Q 40.875 60.9375 38.71875 49.703125 
L 37.5 43.109375 
L 47.796875 43.109375 
Q 48.78125 43.109375 48.78125 41.796875 
Q 48.734375 41.546875 48.578125 40.9375 
Q 48.4375 40.328125 48.171875 39.953125 
Q 47.90625 39.59375 47.515625 39.59375 
L 36.8125 39.59375 
L 32.171875 15.1875 
Q 31.296875 9.859375 30.140625 4.359375 
Q 29 -1.125 26.921875 -6.90625 
Q 24.859375 -12.703125 21.625 -16.609375 
Q 18.40625 -20.515625 14.015625 -20.515625 
Q 10.640625 -20.515625 7.984375 -18.578125 
Q 5.328125 -16.65625 5.328125 -13.484375 
Q 5.328125 -10.9375 6.953125 -9.046875 
Q 8.59375 -7.171875 11.078125 -7.171875 
Q 12.75 -7.171875 13.859375 -8.171875 
Q 14.984375 -9.1875 14.984375 -10.796875 
Q 14.984375 -12.9375 13.390625 -14.71875 
Q 11.8125 -16.5 9.71875 -16.5 
z
" id="Cmmi10-66"/>
      </defs>
      <g transform="translate(122.075375 100.913766)scale(0.1 -0.1)">
       <use transform="translate(0 0.484375)" xlink:href="#Cmmi10-66"/>
      </g>
     </g>
    </g>
    <g id="xtick_3">
     <g id="line2d_10">
      <path clip-path="url(#p4d0a24b699)" d="M 562.529887 87.704405 
L 562.529887 16.528672 
" style="fill:none;stroke:#000000;stroke-dasharray:0.5,0.825;stroke-dashoffset:0;stroke-width:0.5;"/>
     </g>
     <g id="line2d_11">
      <g>
       <use style="stroke:#000000;stroke-width:0.8;" x="562.529887" xlink:href="#m2b991e5b2d" y="86.335641"/>
      </g>
     </g>
     <g id="text_2">
      <!-- $1$ -->
      <defs>
       <path d="M 9.28125 0 
L 9.28125 3.515625 
Q 21.78125 3.515625 21.78125 6.6875 
L 21.78125 59.1875 
Q 16.609375 56.6875 8.6875 56.6875 
L 8.6875 60.203125 
Q 20.953125 60.203125 27.203125 66.609375 
L 28.609375 66.609375 
Q 28.953125 66.609375 29.265625 66.328125 
Q 29.59375 66.0625 29.59375 65.71875 
L 29.59375 6.6875 
Q 29.59375 3.515625 42.09375 3.515625 
L 42.09375 0 
z
" id="Cmr10-31"/>
      </defs>
      <g transform="translate(560.029887 100.934078)scale(0.1 -0.1)">
       <use transform="translate(0 0.390625)" xlink:href="#Cmr10-31"/>
      </g>
     </g>
    </g>
   </g>
   <g id="matplotlib.axis_2">
    <g id="ytick_1">
     <g id="line2d_12">
      <path clip-path="url(#p4d0a24b699)" d="M 4.074135 86.335641 
L 573.48 86.335641 
" style="fill:none;stroke:#000000;stroke-dasharray:0.5,0.825;stroke-dashoffset:0;stroke-width:0.5;"/>
     </g>
     <g id="line2d_13">
      <defs>
       <path d="M 0 0 
L -3.5 0 
" id="mc4bdd414c3" style="stroke:#000000;stroke-width:0.8;"/>
      </defs>
      <g>
       <use style="stroke:#000000;stroke-width:0.8;" x="15.024247" xlink:href="#mc4bdd414c3" y="86.335641"/>
      </g>
     </g>
    </g>
    <g id="ytick_2">
     <g id="line2d_14">
      <path clip-path="url(#p4d0a24b699)" d="M 4.074135 17.897436 
L 573.48 17.897436 
" style="fill:none;stroke:#000000;stroke-dasharray:0.5,0.825;stroke-dashoffset:0;stroke-width:0.5;"/>
     </g>
     <g id="line2d_15">
      <g>
       <use style="stroke:#000000;stroke-width:0.8;" x="15.024247" xlink:href="#mc4bdd414c3" y="17.897436"/>
      </g>
     </g>
     <g id="text_3">
      <!-- $1$ -->
      <g transform="translate(3.024247 21.696655)scale(0.1 -0.1)">
       <use transform="translate(0 0.390625)" xlink:href="#Cmr10-31"/>
      </g>
     </g>
    </g>
   </g>
   <g id="patch_3">
    <path d="M 15.024247 87.704405 
L 15.024247 16.528672 
" style="fill:none;stroke:#000000;stroke-linecap:square;stroke-linejoin:miter;stroke-width:0.8;"/>
   </g>
   <g id="patch_4">
    <path d="M 4.074135 86.335641 
L 573.48 86.335641 
" style="fill:none;stroke:#000000;stroke-linecap:square;stroke-linejoin:miter;stroke-width:0.8;"/>
   </g>
  </g>
 </g>
 <defs>
  <clipPath id="p4d0a24b699">
   <rect height="71.175733" width="569.405865" x="4.074135" y="16.528672"/>
  </clipPath>
 </defs>
</svg>
