<?xml version="1.0" encoding="utf-8" standalone="no"?>
<!DOCTYPE svg PUBLIC "-//W3C//DTD SVG 1.1//EN"
  "http://www.w3.org/Graphics/SVG/1.1/DTD/svg11.dtd">
<!-- Created with matplotlib (http://matplotlib.org/) -->
<svg height="108pt" version="1.1" viewBox="0 0 576 108" width="576pt" xmlns="http://www.w3.org/2000/svg" xmlns:xlink="http://www.w3.org/1999/xlink">
 <defs>
  <style type="text/css">
*{stroke-linecap:butt;stroke-linejoin:round;}
  </style>
 </defs>
 <g id="figure_1">
  <g id="patch_1">
   <path d="M 0 108 
L 576 108 
L 576 0 
L 0 0 
z
" style="fill:#ffffff;"/>
  </g>
  <g id="axes_1">
   <g id="patch_2">
    <path d="M 4.074135 87.704405 
L 573.48 87.704405 
L 573.48 16.528672 
L 4.074135 16.528672 
z
" style="fill:#ffffff;"/>
   </g>
   <g id="line2d_1">
    <path clip-path="url(#p773a74d027)" d="M 214.117207 17.897436 
L 239.003827 61.621845 
L 239.003827 61.621845 
" style="fill:none;stroke:#ff0000;stroke-linecap:square;stroke-width:2;"/>
   </g>
   <g id="line2d_2">
    <path clip-path="url(#p773a74d027)" d="M 537.643267 42.611232 
L 562.529887 86.335641 
L 562.529887 86.335641 
" style="fill:none;stroke:#ff0000;stroke-linecap:square;stroke-width:2;"/>
   </g>
   <g id="line2d_3">
    <path clip-path="url(#p773a74d027)" d="M 39.910867 46.413355 
L 64.797487 48.314416 
L 64.797487 48.314416 
" style="fill:none;stroke:#cbff00;stroke-linecap:square;stroke-width:2;"/>
   </g>
   <g id="line2d_4">
    <path clip-path="url(#p773a74d027)" d="M 164.343967 55.918661 
L 189.230587 57.819722 
L 189.230587 57.819722 
" style="fill:none;stroke:#cbff00;stroke-linecap:square;stroke-width:2;"/>
   </g>
   <g id="line2d_5">
    <path clip-path="url(#p773a74d027)" d="M 239.003827 61.621845 
L 313.663687 67.325028 
L 313.663687 67.325028 
" style="fill:none;stroke:#cbff00;stroke-linecap:square;stroke-width:2;"/>
   </g>
   <g id="line2d_6">
    <path clip-path="url(#p773a74d027)" d="M 462.983407 36.908048 
L 537.643267 42.611232 
L 537.643267 42.611232 
" style="fill:none;stroke:#cbff00;stroke-linecap:square;stroke-width:2;"/>
   </g>
   <g id="line2d_7">
    <path clip-path="url(#p773a74d027)" d="M 64.797487 48.314416 
L 89.684107 71.127151 
L 89.684107 71.127151 
" style="fill:none;stroke:#00ff66;stroke-linecap:square;stroke-width:2;"/>
   </g>
   <g id="line2d_8">
    <path clip-path="url(#p773a74d027)" d="M 139.457347 33.105926 
L 164.343967 55.918661 
L 164.343967 55.918661 
" style="fill:none;stroke:#00ff66;stroke-linecap:square;stroke-width:2;"/>
   </g>
   <g id="line2d_9">
    <path clip-path="url(#p773a74d027)" d="M 338.550307 48.314416 
L 363.436927 71.127151 
L 363.436927 71.127151 
" style="fill:none;stroke:#00ff66;stroke-linecap:square;stroke-width:2;"/>
   </g>
   <g id="line2d_10">
    <path clip-path="url(#p773a74d027)" d="M 413.210167 33.105926 
L 438.096787 55.918661 
L 438.096787 55.918661 
" style="fill:none;stroke:#00ff66;stroke-linecap:square;stroke-width:2;"/>
   </g>
   <g id="line2d_11">
    <path clip-path="url(#p773a74d027)" d="M 15.024247 86.335641 
L 15.187168 86.074289 
L 15.212513 86.033632 
L 15.354976 85.805096 
L 15.514243 85.549606 
L 15.608764 85.397979 
L 15.81718 85.063646 
L 15.946737 84.855814 
L 15.970741 84.817307 
L 16.123454 84.572331 
L 16.310691 84.27197 
L 16.361479 84.190499 
L 16.497823 83.97178 
L 16.675458 83.686824 
L 16.746075 83.573543 
L 16.960226 83.230008 
L 16.974855 83.206541 
L 17.203875 82.839155 
L 17.258969 82.750775 
L 17.41837 82.495069 
L 17.563955 82.261527 
L 17.676506 82.080976 
L 17.798704 81.884951 
L 17.949334 81.643314 
L 18.049119 81.483243 
L 18.123376 81.364123 
L 18.263392 81.139513 
L 18.400032 80.92032 
L 18.56434 80.656743 
L 18.673295 80.48196 
L 18.776256 80.316794 
L 18.960936 80.020537 
L 19.052761 79.873234 
L 19.162098 79.697839 
L 19.303352 79.471244 
L 19.366729 79.369577 
L 19.466498 79.209531 
L 19.61488 78.971501 
L 19.769488 78.723483 
L 19.860124 78.578088 
L 20.067329 78.245697 
L 20.166003 78.087408 
L 20.254709 77.945108 
" style="fill:none;stroke:#0066ff;stroke-linecap:square;stroke-width:2;"/>
   </g>
   <g id="line2d_12">
    <path clip-path="url(#p773a74d027)" d="M 20.699696 77.231275 
L 39.910867 46.413355 
L 39.910867 46.413355 
" style="fill:none;stroke:#0066ff;stroke-linecap:square;stroke-width:2;"/>
   </g>
   <g id="line2d_13">
    <path clip-path="url(#p773a74d027)" d="M 189.230587 57.819722 
L 214.117207 17.897436 
L 214.117207 17.897436 
" style="fill:none;stroke:#0066ff;stroke-linecap:square;stroke-width:2;"/>
   </g>
   <g id="line2d_14">
    <path clip-path="url(#p773a74d027)" d="M 89.684107 71.127151 
L 139.457347 33.105926 
L 139.457347 33.105926 
" style="fill:none;stroke:#cc00ff;stroke-linecap:square;stroke-width:2;"/>
   </g>
   <g id="line2d_15">
    <path clip-path="url(#p773a74d027)" d="M 313.663687 67.325028 
L 338.550307 48.314416 
L 338.550307 48.314416 
" style="fill:none;stroke:#cc00ff;stroke-linecap:square;stroke-width:2;"/>
   </g>
   <g id="line2d_16">
    <path clip-path="url(#p773a74d027)" d="M 363.436927 71.127151 
L 363.637909 70.973623 
L 363.956759 70.730058 
L 364.069777 70.643724 
L 364.405952 70.386924 
L 364.80052 70.085518 
L 365.020869 69.917196 
L 365.115972 69.844548 
L 365.365129 69.654219 
L 365.648103 69.438059 
L 365.952482 69.205547 
L 366.166322 69.042196 
L 366.545161 68.752806 
L 366.666736 68.659936 
L 366.818646 68.543894 
L 367.241683 68.22074 
L 367.427969 68.078439 
L 367.689543 67.878625 
L 368.002423 67.63962 
L 368.286256 67.422803 
L 368.490589 67.266715 
L 368.750873 67.067887 
L 368.87206 66.975313 
L 369.092725 66.80675 
L 369.518496 66.481508 
L 369.62101 66.403199 
L 369.91254 66.180502 
L 370.29639 65.887283 
L 370.334526 65.858152 
L 370.596456 65.658066 
L 370.924741 65.407293 
L 371.25835 65.152453 
L 371.470002 64.990774 
L 371.730942 64.791445 
L 371.951647 64.622851 
L 372.213619 64.422734 
L 372.37211 64.301664 
L 372.71192 64.042087 
L 372.849663 63.936867 
L 373.183375 63.681948 
L 373.415458 63.504663 
L 373.594749 63.367704 
L 373.885261 63.145785 
L 374.262728 62.857442 
L 374.563167 62.62794 
L 374.724146 62.50497 
L 375.002038 62.292692 
L 375.079156 62.233782 
L 375.420066 61.973365 
L 375.608855 61.829151 
L 375.832332 61.658439 
L 376.224185 61.359107 
L 376.447713 61.188356 
L 376.789146 60.927539 
L 376.915823 60.830773 
L 377.161491 60.643109 
L 377.411591 60.452061 
L 377.697545 60.233623 
L 377.954001 60.03772 
L 378.258588 59.805049 
L 378.552875 59.580247 
L 378.751687 59.428376 
L 378.892185 59.321052 
L 379.108009 59.156185 
L 379.357788 58.965383 
L 379.793489 58.632556 
L 380.057048 58.431225 
L 380.255281 58.279797 
L 380.510278 58.085008 
" style="fill:none;stroke:#cc00ff;stroke-linecap:square;stroke-width:2;"/>
   </g>
   <g id="line2d_17">
    <path clip-path="url(#p773a74d027)" d="M 381.102878 57.632328 
L 413.210167 33.105926 
L 413.210167 33.105926 
" style="fill:none;stroke:#cc00ff;stroke-linecap:square;stroke-width:2;"/>
   </g>
   <g id="line2d_18">
    <path clip-path="url(#p773a74d027)" d="M 438.096787 55.918661 
L 462.983407 36.908048 
L 462.983407 36.908048 
" style="fill:none;stroke:#cc00ff;stroke-linecap:square;stroke-width:2;"/>
   </g>
   <g id="matplotlib.axis_1">
    <g id="xtick_1">
     <g id="line2d_19">
      <path clip-path="url(#p773a74d027)" d="M 15.024247 87.704405 
L 15.024247 16.528672 
" style="fill:none;stroke:#000000;stroke-dasharray:0.5,0.825;stroke-dashoffset:0;stroke-width:0.5;"/>
     </g>
     <g id="line2d_20">
      <defs>
       <path d="M 0 0 
L 0 3.5 
" id="m3c9f91229c" style="stroke:#000000;stroke-width:0.8;"/>
      </defs>
      <g>
       <use style="stroke:#000000;stroke-width:0.8;" x="15.024247" xlink:href="#m3c9f91229c" y="86.335641"/>
      </g>
     </g>
    </g>
    <g id="xtick_2">
     <g id="line2d_21">
      <path clip-path="url(#p773a74d027)" d="M 214.117207 87.704405 
L 214.117207 16.528672 
" style="fill:none;stroke:#000000;stroke-dasharray:0.5,0.825;stroke-dashoffset:0;stroke-width:0.5;"/>
     </g>
     <g id="line2d_22">
      <g>
       <use style="stroke:#000000;stroke-width:0.8;" x="214.117207" xlink:href="#m3c9f91229c" y="86.335641"/>
      </g>
     </g>
     <g id="text_1">
      <!-- $f$ -->
      <defs>
       <path d="M 9.71875 -16.5 
Q 11.578125 -17.921875 14.203125 -17.921875 
Q 17.78125 -17.921875 20.015625 -10.015625 
Q 20.953125 -6.203125 25.09375 15.09375 
L 29.6875 39.59375 
L 21.09375 39.59375 
Q 20.125 39.59375 20.125 40.921875 
Q 20.515625 43.109375 21.390625 43.109375 
L 30.328125 43.109375 
L 31.5 49.609375 
Q 32.078125 52.640625 32.5625 54.8125 
Q 33.0625 56.984375 33.625 58.828125 
Q 34.1875 60.6875 35.296875 62.984375 
Q 37.015625 66.265625 39.921875 68.390625 
Q 42.828125 70.515625 46.1875 70.515625 
Q 48.390625 70.515625 50.46875 69.703125 
Q 52.546875 68.890625 53.859375 67.28125 
Q 55.171875 65.671875 55.171875 63.484375 
Q 55.171875 60.9375 53.484375 59.046875 
Q 51.8125 57.171875 49.421875 57.171875 
Q 47.796875 57.171875 46.65625 58.171875 
Q 45.515625 59.1875 45.515625 60.796875 
Q 45.515625 62.984375 47 64.625 
Q 48.484375 66.265625 50.6875 66.5 
Q 48.828125 67.921875 46.09375 67.921875 
Q 44.578125 67.921875 43.234375 66.5 
Q 41.890625 65.09375 41.5 63.484375 
Q 40.875 60.9375 38.71875 49.703125 
L 37.5 43.109375 
L 47.796875 43.109375 
Q 48.78125 43.109375 48.78125 41.796875 
Q 48.734375 41.546875 48.578125 40.9375 
Q 48.4375 40.328125 48.171875 39.953125 
Q 47.90625 39.59375 47.515625 39.59375 
L 36.8125 39.59375 
L 32.171875 15.1875 
Q 31.296875 9.859375 30.140625 4.359375 
Q 29 -1.125 26.921875 -6.90625 
Q 24.859375 -12.703125 21.625 -16.609375 
Q 18.40625 -20.515625 14.015625 -20.515625 
Q 10.640625 -20.515625 7.984375 -18.578125 
Q 5.328125 -16.65625 5.328125 -13.484375 
Q 5.328125 -10.9375 6.953125 -9.046875 
Q 8.59375 -7.171875 11.078125 -7.171875 
Q 12.75 -7.171875 13.859375 -8.171875 
Q 14.984375 -9.1875 14.984375 -10.796875 
Q 14.984375 -12.9375 13.390625 -14.71875 
Q 11.8125 -16.5 9.71875 -16.5 
z
" id="Cmmi10-66"/>
      </defs>
      <g transform="translate(211.667207 100.913766)scale(0.1 -0.1)">
       <use transform="translate(0 0.484375)" xlink:href="#Cmmi10-66"/>
      </g>
     </g>
    </g>
    <g id="xtick_3">
     <g id="line2d_23">
      <path clip-path="url(#p773a74d027)" d="M 562.529887 87.704405 
L 562.529887 16.528672 
" style="fill:none;stroke:#000000;stroke-dasharray:0.5,0.825;stroke-dashoffset:0;stroke-width:0.5;"/>
     </g>
     <g id="line2d_24">
      <g>
       <use style="stroke:#000000;stroke-width:0.8;" x="562.529887" xlink:href="#m3c9f91229c" y="86.335641"/>
      </g>
     </g>
     <g id="text_2">
      <!-- $1$ -->
      <defs>
       <path d="M 9.28125 0 
L 9.28125 3.515625 
Q 21.78125 3.515625 21.78125 6.6875 
L 21.78125 59.1875 
Q 16.609375 56.6875 8.6875 56.6875 
L 8.6875 60.203125 
Q 20.953125 60.203125 27.203125 66.609375 
L 28.609375 66.609375 
Q 28.953125 66.609375 29.265625 66.328125 
Q 29.59375 66.0625 29.59375 65.71875 
L 29.59375 6.6875 
Q 29.59375 3.515625 42.09375 3.515625 
L 42.09375 0 
z
" id="Cmr10-31"/>
      </defs>
      <g transform="translate(560.029887 100.934078)scale(0.1 -0.1)">
       <use transform="translate(0 0.390625)" xlink:href="#Cmr10-31"/>
      </g>
     </g>
    </g>
   </g>
   <g id="matplotlib.axis_2">
    <g id="ytick_1">
     <g id="line2d_25">
      <path clip-path="url(#p773a74d027)" d="M 4.074135 86.335641 
L 573.48 86.335641 
" style="fill:none;stroke:#000000;stroke-dasharray:0.5,0.825;stroke-dashoffset:0;stroke-width:0.5;"/>
     </g>
     <g id="line2d_26">
      <defs>
       <path d="M 0 0 
L -3.5 0 
" id="m9ab7f97a66" style="stroke:#000000;stroke-width:0.8;"/>
      </defs>
      <g>
       <use style="stroke:#000000;stroke-width:0.8;" x="15.024247" xlink:href="#m9ab7f97a66" y="86.335641"/>
      </g>
     </g>
    </g>
    <g id="ytick_2">
     <g id="line2d_27">
      <path clip-path="url(#p773a74d027)" d="M 4.074135 17.897436 
L 573.48 17.897436 
" style="fill:none;stroke:#000000;stroke-dasharray:0.5,0.825;stroke-dashoffset:0;stroke-width:0.5;"/>
     </g>
     <g id="line2d_28">
      <g>
       <use style="stroke:#000000;stroke-width:0.8;" x="15.024247" xlink:href="#m9ab7f97a66" y="17.897436"/>
      </g>
     </g>
     <g id="text_3">
      <!-- $1$ -->
      <g transform="translate(3.024247 21.696655)scale(0.1 -0.1)">
       <use transform="translate(0 0.390625)" xlink:href="#Cmr10-31"/>
      </g>
     </g>
    </g>
   </g>
   <g id="patch_3">
    <path d="M 15.024247 87.704405 
L 15.024247 16.528672 
" style="fill:none;stroke:#000000;stroke-linecap:square;stroke-linejoin:miter;stroke-width:0.8;"/>
   </g>
   <g id="patch_4">
    <path d="M 4.074135 86.335641 
L 573.48 86.335641 
" style="fill:none;stroke:#000000;stroke-linecap:square;stroke-linejoin:miter;stroke-width:0.8;"/>
   </g>
  </g>
 </g>
 <defs>
  <clipPath id="p773a74d027">
   <rect height="71.175733" width="569.405865" x="4.074135" y="16.528672"/>
  </clipPath>
 </defs>
</svg>
