<?xml version="1.0" encoding="utf-8" standalone="no"?>
<!DOCTYPE svg PUBLIC "-//W3C//DTD SVG 1.1//EN"
  "http://www.w3.org/Graphics/SVG/1.1/DTD/svg11.dtd">
<!-- Created with matplotlib (http://matplotlib.org/) -->
<svg height="108pt" version="1.1" viewBox="0 0 576 108" width="576pt" xmlns="http://www.w3.org/2000/svg" xmlns:xlink="http://www.w3.org/1999/xlink">
 <defs>
  <style type="text/css">
*{stroke-linecap:butt;stroke-linejoin:round;}
  </style>
 </defs>
 <g id="figure_1">
  <g id="patch_1">
   <path d="M 0 108 
L 576 108 
L 576 0 
L 0 0 
z
" style="fill:#ffffff;"/>
  </g>
  <g id="axes_1">
   <g id="patch_2">
    <path d="M 4.074135 87.704405 
L 573.48 87.704405 
L 573.48 16.528672 
L 4.074135 16.528672 
z
" style="fill:#ffffff;"/>
   </g>
   <g id="line2d_1">
    <path clip-path="url(#p6c1c5c606a)" d="M 15.024247 86.335641 
L 24.464 70.318189 
L 24.464 70.318189 
" style="fill:none;stroke:#ff0000;stroke-linecap:square;stroke-width:2;"/>
   </g>
   <g id="line2d_2">
    <path clip-path="url(#p6c1c5c606a)" d="M 147.180781 60.125265 
L 156.620534 44.107812 
L 156.620534 44.107812 
" style="fill:none;stroke:#ff0000;stroke-linecap:square;stroke-width:2;"/>
   </g>
   <g id="line2d_3">
    <path clip-path="url(#p6c1c5c606a)" d="M 279.337315 33.914888 
L 288.777067 17.897436 
L 288.777067 17.897436 
" style="fill:none;stroke:#ff0000;stroke-linecap:square;stroke-width:2;"/>
   </g>
   <g id="line2d_4">
    <path clip-path="url(#p6c1c5c606a)" d="M 288.777067 17.897436 
L 298.21682 33.914888 
L 298.21682 33.914888 
" style="fill:none;stroke:#ffff00;stroke-linecap:square;stroke-width:2;"/>
   </g>
   <g id="line2d_5">
    <path clip-path="url(#p6c1c5c606a)" d="M 420.933601 44.107812 
L 430.373353 60.125265 
L 430.373353 60.125265 
" style="fill:none;stroke:#ffff00;stroke-linecap:square;stroke-width:2;"/>
   </g>
   <g id="line2d_6">
    <path clip-path="url(#p6c1c5c606a)" d="M 553.090135 70.318189 
L 562.529887 86.335641 
L 562.529887 86.335641 
" style="fill:none;stroke:#ffff00;stroke-linecap:square;stroke-width:2;"/>
   </g>
   <g id="line2d_7">
    <path clip-path="url(#p6c1c5c606a)" d="M 298.21682 33.914888 
L 317.096325 54.300736 
L 317.096325 54.300736 
" style="fill:none;stroke:#00ff00;stroke-linecap:square;stroke-width:2;"/>
   </g>
   <g id="line2d_8">
    <path clip-path="url(#p6c1c5c606a)" d="M 326.536077 47.020076 
L 335.975829 57.213001 
L 335.975829 57.213001 
" style="fill:none;stroke:#00ff00;stroke-linecap:square;stroke-width:2;"/>
   </g>
   <g id="line2d_9">
    <path clip-path="url(#p6c1c5c606a)" d="M 345.415582 49.93234 
L 354.855334 60.125265 
L 354.855334 60.125265 
" style="fill:none;stroke:#00ff00;stroke-linecap:square;stroke-width:2;"/>
   </g>
   <g id="line2d_10">
    <path clip-path="url(#p6c1c5c606a)" d="M 392.614344 31.002624 
L 402.054096 41.195548 
L 402.054096 41.195548 
" style="fill:none;stroke:#00ff00;stroke-linecap:square;stroke-width:2;"/>
   </g>
   <g id="line2d_11">
    <path clip-path="url(#p6c1c5c606a)" d="M 411.493849 33.914888 
L 420.933601 44.107812 
L 420.933601 44.107812 
" style="fill:none;stroke:#00ff00;stroke-linecap:square;stroke-width:2;"/>
   </g>
   <g id="line2d_12">
    <path clip-path="url(#p6c1c5c606a)" d="M 430.373353 60.125265 
L 439.813106 70.318189 
L 439.813106 70.318189 
" style="fill:none;stroke:#00ff00;stroke-linecap:square;stroke-width:2;"/>
   </g>
   <g id="line2d_13">
    <path clip-path="url(#p6c1c5c606a)" d="M 449.252858 63.037529 
L 458.692611 73.230453 
L 458.692611 73.230453 
" style="fill:none;stroke:#00ff00;stroke-linecap:square;stroke-width:2;"/>
   </g>
   <g id="line2d_14">
    <path clip-path="url(#p6c1c5c606a)" d="M 496.45162 44.107812 
L 505.891373 54.300736 
L 505.891373 54.300736 
" style="fill:none;stroke:#00ff00;stroke-linecap:square;stroke-width:2;"/>
   </g>
   <g id="line2d_15">
    <path clip-path="url(#p6c1c5c606a)" d="M 515.331125 47.020076 
L 524.770878 57.213001 
L 524.770878 57.213001 
" style="fill:none;stroke:#00ff00;stroke-linecap:square;stroke-width:2;"/>
   </g>
   <g id="line2d_16">
    <path clip-path="url(#p6c1c5c606a)" d="M 534.21063 49.93234 
L 553.090135 70.318189 
L 553.090135 70.318189 
" style="fill:none;stroke:#00ff00;stroke-linecap:square;stroke-width:2;"/>
   </g>
   <g id="line2d_17">
    <path clip-path="url(#p6c1c5c606a)" d="M 317.096325 54.300736 
L 326.536077 47.020076 
L 326.536077 47.020076 
" style="fill:none;stroke:#00ffff;stroke-linecap:square;stroke-width:2;"/>
   </g>
   <g id="line2d_18">
    <path clip-path="url(#p6c1c5c606a)" d="M 335.975829 57.213001 
L 345.415582 49.93234 
L 345.415582 49.93234 
" style="fill:none;stroke:#00ffff;stroke-linecap:square;stroke-width:2;"/>
   </g>
   <g id="line2d_19">
    <path clip-path="url(#p6c1c5c606a)" d="M 354.855334 60.125265 
L 392.614344 31.002624 
L 392.614344 31.002624 
" style="fill:none;stroke:#00ffff;stroke-linecap:square;stroke-width:2;"/>
   </g>
   <g id="line2d_20">
    <path clip-path="url(#p6c1c5c606a)" d="M 402.054096 41.195548 
L 411.493849 33.914888 
L 411.493849 33.914888 
" style="fill:none;stroke:#00ffff;stroke-linecap:square;stroke-width:2;"/>
   </g>
   <g id="line2d_21">
    <path clip-path="url(#p6c1c5c606a)" d="M 439.813106 70.318189 
L 449.252858 63.037529 
L 449.252858 63.037529 
" style="fill:none;stroke:#00ffff;stroke-linecap:square;stroke-width:2;"/>
   </g>
   <g id="line2d_22">
    <path clip-path="url(#p6c1c5c606a)" d="M 458.692611 73.230453 
L 496.45162 44.107812 
L 496.45162 44.107812 
" style="fill:none;stroke:#00ffff;stroke-linecap:square;stroke-width:2;"/>
   </g>
   <g id="line2d_23">
    <path clip-path="url(#p6c1c5c606a)" d="M 505.891373 54.300736 
L 515.331125 47.020076 
L 515.331125 47.020076 
" style="fill:none;stroke:#00ffff;stroke-linecap:square;stroke-width:2;"/>
   </g>
   <g id="line2d_24">
    <path clip-path="url(#p6c1c5c606a)" d="M 524.770878 57.213001 
L 534.21063 49.93234 
L 534.21063 49.93234 
" style="fill:none;stroke:#00ffff;stroke-linecap:square;stroke-width:2;"/>
   </g>
   <g id="line2d_25">
    <path clip-path="url(#p6c1c5c606a)" d="M 43.343505 49.93234 
L 52.783257 57.213001 
L 52.783257 57.213001 
" style="fill:none;stroke:#0000ff;stroke-linecap:square;stroke-width:2;"/>
   </g>
   <g id="line2d_26">
    <path clip-path="url(#p6c1c5c606a)" d="M 62.223009 47.020076 
L 71.662762 54.300736 
L 71.662762 54.300736 
" style="fill:none;stroke:#0000ff;stroke-linecap:square;stroke-width:2;"/>
   </g>
   <g id="line2d_27">
    <path clip-path="url(#p6c1c5c606a)" d="M 81.102514 44.107812 
L 118.861524 73.230453 
L 118.861524 73.230453 
" style="fill:none;stroke:#0000ff;stroke-linecap:square;stroke-width:2;"/>
   </g>
   <g id="line2d_28">
    <path clip-path="url(#p6c1c5c606a)" d="M 128.301276 63.037529 
L 128.348867 63.074234 
L 128.414651 63.124972 
L 128.423036 63.131439 
L 128.484052 63.178499 
L 128.528175 63.212531 
L 128.566894 63.242393 
L 128.639629 63.298492 
L 128.675467 63.326133 
L 128.74556 63.380194 
L 128.79127 63.415449 
L 128.806576 63.427254 
L 128.879563 63.483548 
L 128.907788 63.505317 
L 128.980549 63.561436 
L 129.000795 63.577051 
L 129.062448 63.624602 
L 129.105189 63.657568 
L 129.169015 63.706795 
L 129.207081 63.736155 
L 129.248015 63.767726 
L 129.285397 63.796558 
L 129.351904 63.847853 
L 129.381073 63.870351 
L 129.447758 63.921783 
L 129.47981 63.946504 
L 129.539448 63.992501 
L 129.580816 64.024408 
L 129.611693 64.048222 
L 129.674268 64.096485 
L 129.718232 64.130394 
L 129.786329 64.182915 
L 129.803205 64.195931 
L 129.847774 64.230306 
L 129.937376 64.299414 
L 129.951581 64.31037 
L 130.030266 64.371058 
L 130.040715 64.379117 
L 130.110065 64.432605 
L 130.139782 64.455525 
L 130.200173 64.502103 
L 130.240723 64.533379 
L 130.311813 64.588209 
L 130.34371 64.61281 
L 130.390891 64.649199 
L 130.427414 64.677369 
L 130.462034 64.70407 
L 130.542809 64.76637 
L 130.577166 64.792869 
L 130.611482 64.819336 
L 130.696489 64.8849 
L 130.70935 64.89482 
L 130.745837 64.922961 
L 130.794482 64.96048 
L 130.88543 65.030626 
L 130.901048 65.042672 
L 130.966926 65.093482 
L 131.009477 65.126301 
L 131.056394 65.162487 
L 131.105124 65.200071 
L 131.164248 65.245672 
L 131.205417 65.277424 
L 131.219557 65.28833 
L 131.282658 65.336999 
L 131.325194 65.369805 
L 131.373634 65.407166 
L 131.446649 65.463481 
L 131.482617 65.491223 
L 131.520204 65.520212 
L 131.56084 65.551554 
L 131.629111 65.60421 
L 131.653636 65.623125 
L 131.717497 65.672379 
L 131.77174 65.714216 
L 131.831853 65.76058 
L 131.847373 65.77255 
L 131.893484 65.808114 
L 131.946102 65.848698 
L 131.994473 65.886005 
L 132.025771 65.910144 
L 132.116162 65.979861 
L 132.147861 66.004309 
L 132.177227 66.026959 
L 132.2573 66.088717 
L 132.273533 66.101238 
L 132.354657 66.163806 
L 132.391624 66.192318 
L 132.409273 66.205931 
L 132.479269 66.259916 
L 132.54205 66.308338 
L 132.587317 66.343251 
L 132.613104 66.36314 
L 132.675639 66.411372 
L 132.709291 66.437327 
L 132.744487 66.464473 
L 132.809046 66.514266 
L 132.858959 66.552762 
L 132.887727 66.574951 
L 132.932673 66.609616 
L 133.00699 66.666935 
L 133.036871 66.689982 
L 133.077076 66.720991 
L 133.156983 66.782621 
L 133.18077 66.800967 
L 133.222547 66.83319 
L 133.267786 66.868081 
L 133.334514 66.919547 
L 133.385516 66.958884 
L 133.404544 66.97356 
L 133.460761 67.016918 
L 133.512118 67.056529 
L 133.550375 67.086035 
L 133.621321 67.140754 
L 133.657957 67.169011 
L 133.722884 67.219088 
L 133.754707 67.243632 
L 133.797439 67.27659 
L 133.872149 67.334212 
L 133.900744 67.356267 
L 133.935484 67.383061 
L 134.01179 67.441914 
L 134.057061 67.476831 
L 134.087234 67.500103 
L 134.133169 67.535531 
L 134.206851 67.59236 
L 134.239076 67.617214 
" style="fill:none;stroke:#0000ff;stroke-linecap:square;stroke-width:2;"/>
   </g>
   <g id="line2d_29">
    <path clip-path="url(#p6c1c5c606a)" d="M 134.369467 67.717782 
L 134.429723 67.764256 
L 134.469437 67.794886 
L 134.53116 67.842492 
L 134.55511 67.860964 
L 134.614151 67.906501 
L 134.654143 67.937346 
L 134.682624 67.959313 
L 134.734575 67.999381 
L 134.778152 68.032991 
L 134.8239 68.068275 
L 134.872228 68.105549 
L 134.936293 68.154962 
L 134.968878 68.180094 
L 135.01545 68.216014 
L 135.070797 68.258701 
L 135.152554 68.321758 
L 135.157171 68.32532 
L 135.227639 68.37967 
L 135.266003 68.409259 
L 135.332034 68.460188 
L 135.388849 68.504008 
L 135.421135 68.528909 
L 135.461894 68.560345 
L 135.513922 68.600474 
L 135.545738 68.625012 
L 135.599729 68.666654 
L 135.632894 68.692234 
L 135.706494 68.748999 
L 135.73282 68.769304 
L 135.801611 68.822361 
L 135.846922 68.857308 
L 135.89642 68.895485 
L 135.934596 68.924929 
L 136.004831 68.9791 
L 136.01073 68.98365 
L 136.091409 69.045876 
L 136.139923 69.083293 
L 136.167611 69.104648 
L 136.229025 69.152016 
L 136.290858 69.199706 
L 136.33227 69.231646 
L 136.372 69.262289 
L 136.395069 69.280082 
L 136.456989 69.327839 
L 136.501766 69.362374 
L 136.563777 69.410202 
L 136.586793 69.427954 
L 136.672526 69.494077 
L 136.698024 69.513744 
L 136.765228 69.565576 
L 136.785706 69.581371 
L 136.854344 69.63431 
L 136.886728 69.659287 
L 136.955501 69.712329 
L 136.967123 69.721293 
L 137.049979 69.785198 
L 137.064649 69.796513 
L 137.139945 69.854587 
L 137.163438 69.872707 
L 137.237268 69.92965 
L 137.24811 69.938012 
L 137.307129 69.983532 
L 137.377056 70.037465 
L 137.42017 70.070718 
L 137.45212 70.09536 
L 137.496689 70.129735 
L 137.55493 70.174655 
L 137.588892 70.20085 
L 137.662763 70.257824 
L 137.694957 70.282654 
L 137.741029 70.318189 
" style="fill:none;stroke:#0000ff;stroke-linecap:square;stroke-width:2;"/>
   </g>
   <g id="line2d_30">
    <path clip-path="url(#p6c1c5c606a)" d="M 166.060286 33.914888 
L 175.500038 41.195548 
L 175.500038 41.195548 
" style="fill:none;stroke:#0000ff;stroke-linecap:square;stroke-width:2;"/>
   </g>
   <g id="line2d_31">
    <path clip-path="url(#p6c1c5c606a)" d="M 184.939791 31.002624 
L 222.6988 60.125265 
L 222.6988 60.125265 
" style="fill:none;stroke:#0000ff;stroke-linecap:square;stroke-width:2;"/>
   </g>
   <g id="line2d_32">
    <path clip-path="url(#p6c1c5c606a)" d="M 232.138553 49.93234 
L 241.578305 57.213001 
L 241.578305 57.213001 
" style="fill:none;stroke:#0000ff;stroke-linecap:square;stroke-width:2;"/>
   </g>
   <g id="line2d_33">
    <path clip-path="url(#p6c1c5c606a)" d="M 251.018058 47.020076 
L 260.45781 54.300736 
L 260.45781 54.300736 
" style="fill:none;stroke:#0000ff;stroke-linecap:square;stroke-width:2;"/>
   </g>
   <g id="line2d_34">
    <path clip-path="url(#p6c1c5c606a)" d="M 24.464 70.318189 
L 43.343505 49.93234 
L 43.343505 49.93234 
" style="fill:none;stroke:#ff00ff;stroke-linecap:square;stroke-width:2;"/>
   </g>
   <g id="line2d_35">
    <path clip-path="url(#p6c1c5c606a)" d="M 52.783257 57.213001 
L 62.223009 47.020076 
L 62.223009 47.020076 
" style="fill:none;stroke:#ff00ff;stroke-linecap:square;stroke-width:2;"/>
   </g>
   <g id="line2d_36">
    <path clip-path="url(#p6c1c5c606a)" d="M 71.662762 54.300736 
L 81.102514 44.107812 
L 81.102514 44.107812 
" style="fill:none;stroke:#ff00ff;stroke-linecap:square;stroke-width:2;"/>
   </g>
   <g id="line2d_37">
    <path clip-path="url(#p6c1c5c606a)" d="M 118.861524 73.230453 
L 128.301276 63.037529 
L 128.301276 63.037529 
" style="fill:none;stroke:#ff00ff;stroke-linecap:square;stroke-width:2;"/>
   </g>
   <g id="line2d_38">
    <path clip-path="url(#p6c1c5c606a)" d="M 137.741029 70.318189 
L 147.180781 60.125265 
L 147.180781 60.125265 
" style="fill:none;stroke:#ff00ff;stroke-linecap:square;stroke-width:2;"/>
   </g>
   <g id="line2d_39">
    <path clip-path="url(#p6c1c5c606a)" d="M 156.620534 44.107812 
L 166.060286 33.914888 
L 166.060286 33.914888 
" style="fill:none;stroke:#ff00ff;stroke-linecap:square;stroke-width:2;"/>
   </g>
   <g id="line2d_40">
    <path clip-path="url(#p6c1c5c606a)" d="M 175.500038 41.195548 
L 184.939791 31.002624 
L 184.939791 31.002624 
" style="fill:none;stroke:#ff00ff;stroke-linecap:square;stroke-width:2;"/>
   </g>
   <g id="line2d_41">
    <path clip-path="url(#p6c1c5c606a)" d="M 222.6988 60.125265 
L 232.138553 49.93234 
L 232.138553 49.93234 
" style="fill:none;stroke:#ff00ff;stroke-linecap:square;stroke-width:2;"/>
   </g>
   <g id="line2d_42">
    <path clip-path="url(#p6c1c5c606a)" d="M 241.578305 57.213001 
L 251.018058 47.020076 
L 251.018058 47.020076 
" style="fill:none;stroke:#ff00ff;stroke-linecap:square;stroke-width:2;"/>
   </g>
   <g id="line2d_43">
    <path clip-path="url(#p6c1c5c606a)" d="M 260.45781 54.300736 
L 279.337315 33.914888 
L 279.337315 33.914888 
" style="fill:none;stroke:#ff00ff;stroke-linecap:square;stroke-width:2;"/>
   </g>
   <g id="matplotlib.axis_1">
    <g id="xtick_1">
     <g id="line2d_44">
      <path clip-path="url(#p6c1c5c606a)" d="M 15.024247 87.704405 
L 15.024247 16.528672 
" style="fill:none;stroke:#000000;stroke-dasharray:0.5,0.825;stroke-dashoffset:0;stroke-width:0.5;"/>
     </g>
     <g id="line2d_45">
      <defs>
       <path d="M 0 0 
L 0 3.5 
" id="mc648cd7034" style="stroke:#000000;stroke-width:0.8;"/>
      </defs>
      <g>
       <use style="stroke:#000000;stroke-width:0.8;" x="15.024247" xlink:href="#mc648cd7034" y="86.335641"/>
      </g>
     </g>
    </g>
    <g id="xtick_2">
     <g id="line2d_46">
      <path clip-path="url(#p6c1c5c606a)" d="M 288.777067 87.704405 
L 288.777067 16.528672 
" style="fill:none;stroke:#000000;stroke-dasharray:0.5,0.825;stroke-dashoffset:0;stroke-width:0.5;"/>
     </g>
     <g id="line2d_47">
      <g>
       <use style="stroke:#000000;stroke-width:0.8;" x="288.777067" xlink:href="#mc648cd7034" y="86.335641"/>
      </g>
     </g>
     <g id="text_1">
      <!-- $f$ -->
      <defs>
       <path d="M 9.71875 -16.5 
Q 11.578125 -17.921875 14.203125 -17.921875 
Q 17.78125 -17.921875 20.015625 -10.015625 
Q 20.953125 -6.203125 25.09375 15.09375 
L 29.6875 39.59375 
L 21.09375 39.59375 
Q 20.125 39.59375 20.125 40.921875 
Q 20.515625 43.109375 21.390625 43.109375 
L 30.328125 43.109375 
L 31.5 49.609375 
Q 32.078125 52.640625 32.5625 54.8125 
Q 33.0625 56.984375 33.625 58.828125 
Q 34.1875 60.6875 35.296875 62.984375 
Q 37.015625 66.265625 39.921875 68.390625 
Q 42.828125 70.515625 46.1875 70.515625 
Q 48.390625 70.515625 50.46875 69.703125 
Q 52.546875 68.890625 53.859375 67.28125 
Q 55.171875 65.671875 55.171875 63.484375 
Q 55.171875 60.9375 53.484375 59.046875 
Q 51.8125 57.171875 49.421875 57.171875 
Q 47.796875 57.171875 46.65625 58.171875 
Q 45.515625 59.1875 45.515625 60.796875 
Q 45.515625 62.984375 47 64.625 
Q 48.484375 66.265625 50.6875 66.5 
Q 48.828125 67.921875 46.09375 67.921875 
Q 44.578125 67.921875 43.234375 66.5 
Q 41.890625 65.09375 41.5 63.484375 
Q 40.875 60.9375 38.71875 49.703125 
L 37.5 43.109375 
L 47.796875 43.109375 
Q 48.78125 43.109375 48.78125 41.796875 
Q 48.734375 41.546875 48.578125 40.9375 
Q 48.4375 40.328125 48.171875 39.953125 
Q 47.90625 39.59375 47.515625 39.59375 
L 36.8125 39.59375 
L 32.171875 15.1875 
Q 31.296875 9.859375 30.140625 4.359375 
Q 29 -1.125 26.921875 -6.90625 
Q 24.859375 -12.703125 21.625 -16.609375 
Q 18.40625 -20.515625 14.015625 -20.515625 
Q 10.640625 -20.515625 7.984375 -18.578125 
Q 5.328125 -16.65625 5.328125 -13.484375 
Q 5.328125 -10.9375 6.953125 -9.046875 
Q 8.59375 -7.171875 11.078125 -7.171875 
Q 12.75 -7.171875 13.859375 -8.171875 
Q 14.984375 -9.1875 14.984375 -10.796875 
Q 14.984375 -12.9375 13.390625 -14.71875 
Q 11.8125 -16.5 9.71875 -16.5 
z
" id="Cmmi10-66"/>
      </defs>
      <g transform="translate(286.327067 100.913766)scale(0.1 -0.1)">
       <use transform="translate(0 0.484375)" xlink:href="#Cmmi10-66"/>
      </g>
     </g>
    </g>
    <g id="xtick_3">
     <g id="line2d_48">
      <path clip-path="url(#p6c1c5c606a)" d="M 562.529887 87.704405 
L 562.529887 16.528672 
" style="fill:none;stroke:#000000;stroke-dasharray:0.5,0.825;stroke-dashoffset:0;stroke-width:0.5;"/>
     </g>
     <g id="line2d_49">
      <g>
       <use style="stroke:#000000;stroke-width:0.8;" x="562.529887" xlink:href="#mc648cd7034" y="86.335641"/>
      </g>
     </g>
     <g id="text_2">
      <!-- $1$ -->
      <defs>
       <path d="M 9.28125 0 
L 9.28125 3.515625 
Q 21.78125 3.515625 21.78125 6.6875 
L 21.78125 59.1875 
Q 16.609375 56.6875 8.6875 56.6875 
L 8.6875 60.203125 
Q 20.953125 60.203125 27.203125 66.609375 
L 28.609375 66.609375 
Q 28.953125 66.609375 29.265625 66.328125 
Q 29.59375 66.0625 29.59375 65.71875 
L 29.59375 6.6875 
Q 29.59375 3.515625 42.09375 3.515625 
L 42.09375 0 
z
" id="Cmr10-31"/>
      </defs>
      <g transform="translate(560.029887 100.934078)scale(0.1 -0.1)">
       <use transform="translate(0 0.390625)" xlink:href="#Cmr10-31"/>
      </g>
     </g>
    </g>
   </g>
   <g id="matplotlib.axis_2">
    <g id="ytick_1">
     <g id="line2d_50">
      <path clip-path="url(#p6c1c5c606a)" d="M 4.074135 86.335641 
L 573.48 86.335641 
" style="fill:none;stroke:#000000;stroke-dasharray:0.5,0.825;stroke-dashoffset:0;stroke-width:0.5;"/>
     </g>
     <g id="line2d_51">
      <defs>
       <path d="M 0 0 
L -3.5 0 
" id="m1ef1a9f9bf" style="stroke:#000000;stroke-width:0.8;"/>
      </defs>
      <g>
       <use style="stroke:#000000;stroke-width:0.8;" x="15.024247" xlink:href="#m1ef1a9f9bf" y="86.335641"/>
      </g>
     </g>
    </g>
    <g id="ytick_2">
     <g id="line2d_52">
      <path clip-path="url(#p6c1c5c606a)" d="M 4.074135 17.897436 
L 573.48 17.897436 
" style="fill:none;stroke:#000000;stroke-dasharray:0.5,0.825;stroke-dashoffset:0;stroke-width:0.5;"/>
     </g>
     <g id="line2d_53">
      <g>
       <use style="stroke:#000000;stroke-width:0.8;" x="15.024247" xlink:href="#m1ef1a9f9bf" y="17.897436"/>
      </g>
     </g>
     <g id="text_3">
      <!-- $1$ -->
      <g transform="translate(3.024247 21.696655)scale(0.1 -0.1)">
       <use transform="translate(0 0.390625)" xlink:href="#Cmr10-31"/>
      </g>
     </g>
    </g>
   </g>
   <g id="patch_3">
    <path d="M 15.024247 87.704405 
L 15.024247 16.528672 
" style="fill:none;stroke:#000000;stroke-linecap:square;stroke-linejoin:miter;stroke-width:0.8;"/>
   </g>
   <g id="patch_4">
    <path d="M 4.074135 86.335641 
L 573.48 86.335641 
" style="fill:none;stroke:#000000;stroke-linecap:square;stroke-linejoin:miter;stroke-width:0.8;"/>
   </g>
  </g>
 </g>
 <defs>
  <clipPath id="p6c1c5c606a">
   <rect height="71.175733" width="569.405865" x="4.074135" y="16.528672"/>
  </clipPath>
 </defs>
</svg>
