<?xml version="1.0" encoding="utf-8" standalone="no"?>
<!DOCTYPE svg PUBLIC "-//W3C//DTD SVG 1.1//EN"
  "http://www.w3.org/Graphics/SVG/1.1/DTD/svg11.dtd">
<!-- Created with matplotlib (http://matplotlib.org/) -->
<svg height="108pt" version="1.1" viewBox="0 0 576 108" width="576pt" xmlns="http://www.w3.org/2000/svg" xmlns:xlink="http://www.w3.org/1999/xlink">
 <defs>
  <style type="text/css">
*{stroke-linecap:butt;stroke-linejoin:round;}
  </style>
 </defs>
 <g id="figure_1">
  <g id="patch_1">
   <path d="M 0 108 
L 576 108 
L 576 0 
L 0 0 
z
" style="fill:#ffffff;"/>
  </g>
  <g id="axes_1">
   <g id="patch_2">
    <path d="M 4.074135 87.704405 
L 573.48 87.704405 
L 573.48 16.528672 
L 4.074135 16.528672 
z
" style="fill:#ffffff;"/>
   </g>
   <g id="line2d_1">
    <path clip-path="url(#p0ad6135f42)" d="M 71.662762 71.818446 
L 90.542267 46.931826 
L 90.542267 46.931826 
" style="fill:none;stroke:#ff0000;stroke-linecap:square;stroke-width:2;"/>
   </g>
   <g id="line2d_2">
    <path clip-path="url(#p0ad6135f42)" d="M 128.301276 57.301251 
L 147.180781 32.414631 
L 147.180781 32.414631 
" style="fill:none;stroke:#ff0000;stroke-linecap:square;stroke-width:2;"/>
   </g>
   <g id="line2d_3">
    <path clip-path="url(#p0ad6135f42)" d="M 317.096325 69.053266 
L 335.975829 44.166646 
L 335.975829 44.166646 
" style="fill:none;stroke:#ff0000;stroke-linecap:square;stroke-width:2;"/>
   </g>
   <g id="line2d_4">
    <path clip-path="url(#p0ad6135f42)" d="M 430.373353 60.066431 
L 449.252858 35.179811 
L 449.252858 35.179811 
" style="fill:none;stroke:#ff0000;stroke-linecap:square;stroke-width:2;"/>
   </g>
   <g id="line2d_5">
    <path clip-path="url(#p0ad6135f42)" d="M 15.024247 86.335641 
L 33.903752 41.401466 
L 33.903752 41.401466 
" style="fill:none;stroke:#ffda00;stroke-linecap:square;stroke-width:2;"/>
   </g>
   <g id="line2d_6">
    <path clip-path="url(#p0ad6135f42)" d="M 184.939791 62.831611 
L 203.819296 17.897436 
L 203.819296 17.897436 
" style="fill:none;stroke:#ffda00;stroke-linecap:square;stroke-width:2;"/>
   </g>
   <g id="line2d_7">
    <path clip-path="url(#p0ad6135f42)" d="M 373.734839 74.583626 
L 373.800485 74.427384 
L 373.899955 74.190642 
L 374.038551 73.860777 
L 374.083182 73.754551 
L 374.22129 73.425849 
L 374.28967 73.263101 
L 374.412867 72.969886 
L 374.478268 72.814228 
L 374.635931 72.438981 
L 374.640254 72.428693 
L 374.755265 72.154961 
L 374.876268 71.866968 
L 374.955109 71.679321 
L 375.081659 71.378127 
L 375.142102 71.234269 
L 375.291094 70.879661 
L 375.391333 70.641086 
L 375.459627 70.478544 
L 375.581848 70.187651 
L 375.635182 70.060713 
L 375.682912 69.947114 
L 375.818268 69.624961 
L 375.898298 69.434484 
L 376.034879 69.109414 
L 376.065458 69.036634 
L 376.15935 68.813166 
L 376.311213 68.451726 
L 376.43197 68.164317 
L 376.499942 68.00254 
L 376.615692 67.72705 
L 376.701171 67.523605 
L 376.800314 67.287641 
L 376.872427 67.116008 
L 376.996542 66.820608 
L 377.010218 66.788058 
L 377.152858 66.448569 
L 377.277398 66.152156 
L 377.296976 66.105559 
L 377.417033 65.819817 
L 377.51382 65.589461 
L 377.669184 65.219686 
L 377.697315 65.152733 
L 377.771594 64.975945 
L 377.95456 64.540478 
L 377.992408 64.450396 
L 378.125386 64.133903 
L 378.185407 63.991049 
L 378.307173 63.701239 
L 378.416503 63.441029 
L 378.503876 63.233077 
L 378.60588 62.990303 
L 378.713697 62.733692 
L 378.736678 62.678996 
L 378.901928 62.285693 
L 378.973717 62.114831 
L 379.009545 62.029558 
L 379.103396 61.806189 
L 379.206275 61.561332 
L 379.297372 61.344516 
L 379.46797 60.938485 
L 379.494253 60.875929 
L 379.573166 60.688113 
L 379.749172 60.269209 
L 379.787602 60.177743 
L 379.863344 59.997475 
L 380.008077 59.653004 
L 380.08894 59.460544 
L 380.213046 59.165166 
L 380.252858 59.070411 
L 380.377842 58.772943 
L 380.457488 58.583381 
L 380.550436 58.36216 
L 380.681456 58.050326 
L 380.73346 57.926553 
L 380.853682 57.640421 
L 380.950762 57.409364 
L 381.034047 57.211142 
L 381.156532 56.919623 
L 381.209163 56.794357 
L 381.348122 56.463627 
L 381.457269 56.203852 
L 381.547992 55.987927 
L 381.649331 55.746736 
L 381.741281 55.52789 
L 381.768686 55.462665 
L 381.931747 55.07457 
L 382.020982 54.862187 
L 382.109833 54.650717 
L 382.13601 54.588416 
L 382.30785 54.179426 
L 382.328626 54.129979 
L 382.494164 53.735991 
L 382.512922 53.691346 
L 382.697244 53.25265 
L 382.742363 53.145264 
L 382.825042 52.948483 
L 382.952426 52.645304 
L 383.013078 52.500948 
L 383.104032 52.284474 
L 383.21704 52.015509 
L 383.27678 51.873324 
L 383.435685 51.495122 
L 383.519259 51.296213 
L 383.6137 51.071438 
L 383.736611 50.778902 
L 383.768812 50.702264 
L 383.85141 50.505676 
L 383.982821 50.192911 
L 384.116441 49.87489 
L 384.199344 49.677576 
L 384.222198 49.623183 
L 384.357723 49.300626 
L 384.488377 48.989662 
" style="fill:none;stroke:#ffda00;stroke-linecap:square;stroke-width:2;"/>
   </g>
   <g id="line2d_8">
    <path clip-path="url(#p0ad6135f42)" d="M 384.718083 48.44295 
L 384.849158 48.130985 
L 384.931485 47.935042 
L 385.013457 47.739946 
L 385.117785 47.49164 
L 385.246451 47.185407 
L 385.338165 46.967124 
L 385.404169 46.810031 
L 385.456795 46.684778 
L 385.581181 46.388734 
L 385.730226 46.034 
L 385.758805 45.96598 
L 385.92208 45.577376 
L 385.947288 45.51738 
L 386.09043 45.176696 
L 386.192403 44.933994 
L 386.257593 44.778839 
L 386.387025 44.470784 
L 386.422135 44.387221 
L 386.510734 44.17635 
L 386.616681 43.924191 
L 386.758084 43.587646 
L 386.871808 43.316976 
L 386.922574 43.19615 
L 387.044653 42.905597 
L 387.083138 42.813999 
L 387.193794 42.550634 
L 387.27382 42.360167 
L 387.37326 42.123494 
L 387.458026 41.921749 
L 387.540762 41.724831 
L 387.691992 41.364897 
L 387.765832 41.189154 
L 387.847267 40.995335 
L 388.004691 40.620659 
L 388.099237 40.395634 
L 388.183215 40.19576 
L 388.227258 40.090936 
L 388.324603 39.859251 
L 388.402921 39.672851 
L 388.537707 39.352053 
L 388.599608 39.204724 
L 388.758666 38.826158 
L 388.83074 38.654619 
L 388.930096 38.418146 
L 389.052893 38.125884 
L 389.142658 37.912239 
L 389.186259 37.808467 
L 389.307462 37.519997 
L 389.410895 37.273822 
L 389.468973 37.135593 
L 389.552986 36.935636 
L 389.652343 36.699164 
L 389.769067 36.421355 
L 389.888706 36.136607 
L 389.948302 35.994765 
L 390.010033 35.847841 
L 390.102438 35.627914 
L 390.261758 35.248723 
L 390.321313 35.10698 
L 390.478246 34.733471 
L 390.490497 34.704313 
L 390.634524 34.361522 
L 390.675902 34.263041 
L 390.856108 33.834142 
L 390.890016 33.753438 
L 390.97039 33.562145 
L 391.091587 33.27369 
L 391.167714 33.092504 
L 391.328388 32.710092 
L 391.418554 32.495492 
L 391.513239 32.270136 
L 391.578643 32.114471 
L 391.692333 31.843883 
L 391.737111 31.737309 
L 391.883135 31.389766 
L 391.98546 31.146227 
L 392.063221 30.961152 
L 392.126126 30.811435 
L 392.25181 30.512301 
L 392.376919 30.214533 
L 392.390513 30.18218 
L 392.55186 29.798166 
L 392.614344 29.649451 
" style="fill:none;stroke:#ffda00;stroke-linecap:square;stroke-width:2;"/>
   </g>
   <g id="line2d_9">
    <path clip-path="url(#p0ad6135f42)" d="M 222.6988 53.153481 
L 241.578305 68.361971 
L 241.578305 68.361971 
" style="fill:none;stroke:#48ff00;stroke-linecap:square;stroke-width:2;"/>
   </g>
   <g id="line2d_10">
    <path clip-path="url(#p0ad6135f42)" d="M 298.21682 53.844776 
L 317.096325 69.053266 
L 317.096325 69.053266 
" style="fill:none;stroke:#48ff00;stroke-linecap:square;stroke-width:2;"/>
   </g>
   <g id="line2d_11">
    <path clip-path="url(#p0ad6135f42)" d="M 449.252858 35.179811 
L 468.132363 50.388301 
L 468.132363 50.388301 
" style="fill:none;stroke:#48ff00;stroke-linecap:square;stroke-width:2;"/>
   </g>
   <g id="line2d_12">
    <path clip-path="url(#p0ad6135f42)" d="M 524.770878 35.871106 
L 543.650382 51.079596 
L 543.650382 51.079596 
" style="fill:none;stroke:#48ff00;stroke-linecap:square;stroke-width:2;"/>
   </g>
   <g id="line2d_13">
    <path clip-path="url(#p0ad6135f42)" d="M 203.819296 17.897436 
L 222.6988 53.153481 
L 222.6988 53.153481 
" style="fill:none;stroke:#00ff91;stroke-linecap:square;stroke-width:2;"/>
   </g>
   <g id="line2d_14">
    <path clip-path="url(#p0ad6135f42)" d="M 543.650382 51.079596 
L 562.529887 86.335641 
L 562.529887 86.335641 
" style="fill:none;stroke:#00ff91;stroke-linecap:square;stroke-width:2;"/>
   </g>
   <g id="line2d_15">
    <path clip-path="url(#p0ad6135f42)" d="M 52.783257 66.633733 
L 71.662762 71.818446 
L 71.662762 71.818446 
" style="fill:none;stroke:#0091ff;stroke-linecap:square;stroke-width:2;"/>
   </g>
   <g id="line2d_16">
    <path clip-path="url(#p0ad6135f42)" d="M 90.542267 46.931826 
L 128.301276 57.301251 
L 128.301276 57.301251 
" style="fill:none;stroke:#0091ff;stroke-linecap:square;stroke-width:2;"/>
   </g>
   <g id="line2d_17">
    <path clip-path="url(#p0ad6135f42)" d="M 147.180781 32.414631 
L 166.060286 37.599343 
L 166.060286 37.599343 
" style="fill:none;stroke:#0091ff;stroke-linecap:square;stroke-width:2;"/>
   </g>
   <g id="line2d_18">
    <path clip-path="url(#p0ad6135f42)" d="M 335.975829 44.166646 
L 354.855334 49.351358 
L 354.855334 49.351358 
" style="fill:none;stroke:#0091ff;stroke-linecap:square;stroke-width:2;"/>
   </g>
   <g id="line2d_19">
    <path clip-path="url(#p0ad6135f42)" d="M 411.493849 54.881718 
L 430.373353 60.066431 
L 430.373353 60.066431 
" style="fill:none;stroke:#0091ff;stroke-linecap:square;stroke-width:2;"/>
   </g>
   <g id="line2d_20">
    <path clip-path="url(#p0ad6135f42)" d="M 241.578305 68.361971 
L 298.21682 53.844776 
L 298.21682 53.844776 
" style="fill:none;stroke:#4800ff;stroke-linecap:square;stroke-width:2;"/>
   </g>
   <g id="line2d_21">
    <path clip-path="url(#p0ad6135f42)" d="M 468.132363 50.388301 
L 524.770878 35.871106 
L 524.770878 35.871106 
" style="fill:none;stroke:#4800ff;stroke-linecap:square;stroke-width:2;"/>
   </g>
   <g id="line2d_22">
    <path clip-path="url(#p0ad6135f42)" d="M 33.903752 41.401466 
L 52.783257 66.633733 
L 52.783257 66.633733 
" style="fill:none;stroke:#ff00da;stroke-linecap:square;stroke-width:2;"/>
   </g>
   <g id="line2d_23">
    <path clip-path="url(#p0ad6135f42)" d="M 166.060286 37.599343 
L 184.939791 62.831611 
L 184.939791 62.831611 
" style="fill:none;stroke:#ff00da;stroke-linecap:square;stroke-width:2;"/>
   </g>
   <g id="line2d_24">
    <path clip-path="url(#p0ad6135f42)" d="M 354.855334 49.351358 
L 373.734839 74.583626 
L 373.734839 74.583626 
" style="fill:none;stroke:#ff00da;stroke-linecap:square;stroke-width:2;"/>
   </g>
   <g id="line2d_25">
    <path clip-path="url(#p0ad6135f42)" d="M 392.614344 29.649451 
L 411.493849 54.881718 
L 411.493849 54.881718 
" style="fill:none;stroke:#ff00da;stroke-linecap:square;stroke-width:2;"/>
   </g>
   <g id="matplotlib.axis_1">
    <g id="xtick_1">
     <g id="line2d_26">
      <path clip-path="url(#p0ad6135f42)" d="M 15.024247 87.704405 
L 15.024247 16.528672 
" style="fill:none;stroke:#000000;stroke-dasharray:0.5,0.825;stroke-dashoffset:0;stroke-width:0.5;"/>
     </g>
     <g id="line2d_27">
      <defs>
       <path d="M 0 0 
L 0 3.5 
" id="m23579a0d20" style="stroke:#000000;stroke-width:0.8;"/>
      </defs>
      <g>
       <use style="stroke:#000000;stroke-width:0.8;" x="15.024247" xlink:href="#m23579a0d20" y="86.335641"/>
      </g>
     </g>
    </g>
    <g id="xtick_2">
     <g id="line2d_28">
      <path clip-path="url(#p0ad6135f42)" d="M 203.819296 87.704405 
L 203.819296 16.528672 
" style="fill:none;stroke:#000000;stroke-dasharray:0.5,0.825;stroke-dashoffset:0;stroke-width:0.5;"/>
     </g>
     <g id="line2d_29">
      <g>
       <use style="stroke:#000000;stroke-width:0.8;" x="203.819296" xlink:href="#m23579a0d20" y="86.335641"/>
      </g>
     </g>
     <g id="text_1">
      <!-- $f$ -->
      <defs>
       <path d="M 9.71875 -16.5 
Q 11.578125 -17.921875 14.203125 -17.921875 
Q 17.78125 -17.921875 20.015625 -10.015625 
Q 20.953125 -6.203125 25.09375 15.09375 
L 29.6875 39.59375 
L 21.09375 39.59375 
Q 20.125 39.59375 20.125 40.921875 
Q 20.515625 43.109375 21.390625 43.109375 
L 30.328125 43.109375 
L 31.5 49.609375 
Q 32.078125 52.640625 32.5625 54.8125 
Q 33.0625 56.984375 33.625 58.828125 
Q 34.1875 60.6875 35.296875 62.984375 
Q 37.015625 66.265625 39.921875 68.390625 
Q 42.828125 70.515625 46.1875 70.515625 
Q 48.390625 70.515625 50.46875 69.703125 
Q 52.546875 68.890625 53.859375 67.28125 
Q 55.171875 65.671875 55.171875 63.484375 
Q 55.171875 60.9375 53.484375 59.046875 
Q 51.8125 57.171875 49.421875 57.171875 
Q 47.796875 57.171875 46.65625 58.171875 
Q 45.515625 59.1875 45.515625 60.796875 
Q 45.515625 62.984375 47 64.625 
Q 48.484375 66.265625 50.6875 66.5 
Q 48.828125 67.921875 46.09375 67.921875 
Q 44.578125 67.921875 43.234375 66.5 
Q 41.890625 65.09375 41.5 63.484375 
Q 40.875 60.9375 38.71875 49.703125 
L 37.5 43.109375 
L 47.796875 43.109375 
Q 48.78125 43.109375 48.78125 41.796875 
Q 48.734375 41.546875 48.578125 40.9375 
Q 48.4375 40.328125 48.171875 39.953125 
Q 47.90625 39.59375 47.515625 39.59375 
L 36.8125 39.59375 
L 32.171875 15.1875 
Q 31.296875 9.859375 30.140625 4.359375 
Q 29 -1.125 26.921875 -6.90625 
Q 24.859375 -12.703125 21.625 -16.609375 
Q 18.40625 -20.515625 14.015625 -20.515625 
Q 10.640625 -20.515625 7.984375 -18.578125 
Q 5.328125 -16.65625 5.328125 -13.484375 
Q 5.328125 -10.9375 6.953125 -9.046875 
Q 8.59375 -7.171875 11.078125 -7.171875 
Q 12.75 -7.171875 13.859375 -8.171875 
Q 14.984375 -9.1875 14.984375 -10.796875 
Q 14.984375 -12.9375 13.390625 -14.71875 
Q 11.8125 -16.5 9.71875 -16.5 
z
" id="Cmmi10-66"/>
      </defs>
      <g transform="translate(201.369296 100.913766)scale(0.1 -0.1)">
       <use transform="translate(0 0.484375)" xlink:href="#Cmmi10-66"/>
      </g>
     </g>
    </g>
    <g id="xtick_3">
     <g id="line2d_30">
      <path clip-path="url(#p0ad6135f42)" d="M 562.529887 87.704405 
L 562.529887 16.528672 
" style="fill:none;stroke:#000000;stroke-dasharray:0.5,0.825;stroke-dashoffset:0;stroke-width:0.5;"/>
     </g>
     <g id="line2d_31">
      <g>
       <use style="stroke:#000000;stroke-width:0.8;" x="562.529887" xlink:href="#m23579a0d20" y="86.335641"/>
      </g>
     </g>
     <g id="text_2">
      <!-- $1$ -->
      <defs>
       <path d="M 9.28125 0 
L 9.28125 3.515625 
Q 21.78125 3.515625 21.78125 6.6875 
L 21.78125 59.1875 
Q 16.609375 56.6875 8.6875 56.6875 
L 8.6875 60.203125 
Q 20.953125 60.203125 27.203125 66.609375 
L 28.609375 66.609375 
Q 28.953125 66.609375 29.265625 66.328125 
Q 29.59375 66.0625 29.59375 65.71875 
L 29.59375 6.6875 
Q 29.59375 3.515625 42.09375 3.515625 
L 42.09375 0 
z
" id="Cmr10-31"/>
      </defs>
      <g transform="translate(560.029887 100.934078)scale(0.1 -0.1)">
       <use transform="translate(0 0.390625)" xlink:href="#Cmr10-31"/>
      </g>
     </g>
    </g>
   </g>
   <g id="matplotlib.axis_2">
    <g id="ytick_1">
     <g id="line2d_32">
      <path clip-path="url(#p0ad6135f42)" d="M 4.074135 86.335641 
L 573.48 86.335641 
" style="fill:none;stroke:#000000;stroke-dasharray:0.5,0.825;stroke-dashoffset:0;stroke-width:0.5;"/>
     </g>
     <g id="line2d_33">
      <defs>
       <path d="M 0 0 
L -3.5 0 
" id="m98fba9c2dc" style="stroke:#000000;stroke-width:0.8;"/>
      </defs>
      <g>
       <use style="stroke:#000000;stroke-width:0.8;" x="15.024247" xlink:href="#m98fba9c2dc" y="86.335641"/>
      </g>
     </g>
    </g>
    <g id="ytick_2">
     <g id="line2d_34">
      <path clip-path="url(#p0ad6135f42)" d="M 4.074135 17.897436 
L 573.48 17.897436 
" style="fill:none;stroke:#000000;stroke-dasharray:0.5,0.825;stroke-dashoffset:0;stroke-width:0.5;"/>
     </g>
     <g id="line2d_35">
      <g>
       <use style="stroke:#000000;stroke-width:0.8;" x="15.024247" xlink:href="#m98fba9c2dc" y="17.897436"/>
      </g>
     </g>
     <g id="text_3">
      <!-- $1$ -->
      <g transform="translate(3.024247 21.696655)scale(0.1 -0.1)">
       <use transform="translate(0 0.390625)" xlink:href="#Cmr10-31"/>
      </g>
     </g>
    </g>
   </g>
   <g id="patch_3">
    <path d="M 15.024247 87.704405 
L 15.024247 16.528672 
" style="fill:none;stroke:#000000;stroke-linecap:square;stroke-linejoin:miter;stroke-width:0.8;"/>
   </g>
   <g id="patch_4">
    <path d="M 4.074135 86.335641 
L 573.48 86.335641 
" style="fill:none;stroke:#000000;stroke-linecap:square;stroke-linejoin:miter;stroke-width:0.8;"/>
   </g>
  </g>
 </g>
 <defs>
  <clipPath id="p0ad6135f42">
   <rect height="71.175733" width="569.405865" x="4.074135" y="16.528672"/>
  </clipPath>
 </defs>
</svg>
