<?xml version="1.0" encoding="utf-8" standalone="no"?>
<!DOCTYPE svg PUBLIC "-//W3C//DTD SVG 1.1//EN"
  "http://www.w3.org/Graphics/SVG/1.1/DTD/svg11.dtd">
<!-- Created with matplotlib (http://matplotlib.org/) -->
<svg height="108pt" version="1.1" viewBox="0 0 576 108" width="576pt" xmlns="http://www.w3.org/2000/svg" xmlns:xlink="http://www.w3.org/1999/xlink">
 <defs>
  <style type="text/css">
*{stroke-linecap:butt;stroke-linejoin:round;}
  </style>
 </defs>
 <g id="figure_1">
  <g id="patch_1">
   <path d="M 0 108 
L 576 108 
L 576 0 
L 0 0 
z
" style="fill:#ffffff;"/>
  </g>
  <g id="axes_1">
   <g id="patch_2">
    <path d="M 4.074135 87.704405 
L 573.48 87.704405 
L 573.48 16.528672 
L 4.074135 16.528672 
z
" style="fill:#ffffff;"/>
   </g>
   <g id="line2d_1">
    <path clip-path="url(#pf2b55b17ed)" d="M 15.024247 86.335641 
L 45.441227 48.694628 
L 45.441227 48.694628 
" style="fill:none;stroke:#ff0000;stroke-linecap:square;stroke-width:2;"/>
   </g>
   <g id="line2d_2">
    <path clip-path="url(#pf2b55b17ed)" d="M 288.777067 55.538449 
L 319.194047 17.897436 
L 319.194047 17.897436 
" style="fill:none;stroke:#ff0000;stroke-linecap:square;stroke-width:2;"/>
   </g>
   <g id="line2d_3">
    <path clip-path="url(#pf2b55b17ed)" d="M 75.858207 72.648 
L 258.360087 31.585077 
L 258.360087 31.585077 
" style="fill:none;stroke:#00ff00;stroke-linecap:square;stroke-width:2;"/>
   </g>
   <g id="line2d_4">
    <path clip-path="url(#pf2b55b17ed)" d="M 380.028007 65.804179 
L 501.695927 38.428897 
L 501.695927 38.428897 
" style="fill:none;stroke:#00ff00;stroke-linecap:square;stroke-width:2;"/>
   </g>
   <g id="line2d_5">
    <path clip-path="url(#pf2b55b17ed)" d="M 45.441227 48.694628 
L 45.631522 48.844485 
L 45.685656 48.887116 
L 45.92299 49.074016 
L 46.021262 49.151406 
L 46.193124 49.286747 
L 46.419544 49.465053 
L 46.448261 49.487667 
L 46.604557 49.610751 
L 46.884849 49.831481 
L 47.0041 49.92539 
L 47.106008 50.005643 
L 47.313009 50.168656 
L 47.442986 50.271013 
L 47.526785 50.337005 
L 47.676347 50.454785 
L 47.837865 50.58198 
L 48.073101 50.767229 
L 48.198023 50.865605 
L 48.414655 51.036203 
L 48.435267 51.052434 
L 48.70831 51.267456 
L 48.840975 51.37193 
L 49.003385 51.499828 
L 49.070329 51.552546 
L 49.31146 51.742436 
L 49.474692 51.870982 
L 49.55805 51.936626 
L 49.676906 52.030225 
L 49.902005 52.207491 
L 50.01041 52.292859 
L 50.222533 52.459906 
L 50.366956 52.57364 
L 50.408826 52.606612 
L 50.647494 52.794564 
L 50.810404 52.922855 
L 50.915894 53.005928 
L 51.050696 53.112085 
L 51.308151 53.31483 
L 51.4547 53.430238 
L 51.542513 53.49939 
L 51.643765 53.579126 
L 51.846258 53.73859 
L 51.949118 53.819592 
L 52.109269 53.945711 
L 52.260249 54.064607 
L 52.480077 54.237722 
L 52.651646 54.372833 
L 52.83614 54.518122 
L 52.915852 54.580895 
L 53.069354 54.701778 
L 53.242848 54.838404 
L 53.458282 55.008059 
L 53.473991 55.02043 
L 53.760715 55.246225 
L 53.861852 55.32587 
L 53.984606 55.422539 
L 54.21447 55.603557 
L 54.331053 55.695366 
L 54.462826 55.799137 
L 54.583321 55.894027 
L 54.701223 55.986875 
L 54.851505 56.105222 
L 55.026564 56.243081 
L 55.298545 56.457266 
L 55.402353 56.539015 
L 55.575635 56.675474 
L 55.656682 56.739299 
L 55.793523 56.847061 
L 56.029094 57.032574 
L 56.151309 57.128818 
L 56.274513 57.225841 
L 56.514589 57.414901 
L 56.638763 57.512688 
L 56.779719 57.62369 
L 56.878789 57.701708 
L 57.031571 57.822024 
L 57.215476 57.966849 
L 57.349526 58.072414 
L 57.573464 58.248765 
L 57.593799 58.264778 
L 57.786014 58.416147 
L 57.985818 58.573494 
L 58.171497 58.719715 
L 58.311261 58.82978 
L 58.371336 58.877089 
L 58.609413 59.064574 
L 58.684517 59.123719 
L 58.965531 59.345017 
L 59.058025 59.417856 
L 59.145663 59.486871 
L 59.289497 59.600141 
L 59.548231 59.803893 
L 59.639689 59.875917 
L 59.779443 59.985973 
L 59.998695 60.158634 
L 60.113358 60.248931 
L 60.247558 60.354614 
L 60.385209 60.463014 
L 60.508256 60.559913 
L 60.710347 60.71906 
L 60.912107 60.877946 
L 61.039056 60.977919 
L 61.165078 61.077161 
L 61.35939 61.230181 
L 61.542884 61.374682 
L 61.647205 61.456836 
" style="fill:none;stroke:#0000ff;stroke-linecap:square;stroke-width:2;"/>
   </g>
   <g id="line2d_6">
    <path clip-path="url(#pf2b55b17ed)" d="M 62.059684 61.781663 
L 62.318183 61.985231 
L 62.458151 62.095455 
L 62.607741 62.213258 
L 62.746327 62.322394 
L 62.812575 62.374565 
L 62.967492 62.496562 
L 63.113704 62.611703 
L 63.261488 62.728084 
L 63.479011 62.899383 
L 63.567055 62.968717 
L 63.734776 63.100798 
L 63.863518 63.202182 
L 64.019525 63.325038 
L 64.293745 63.540986 
L 64.407818 63.630818 
L 64.502034 63.705014 
L 64.628845 63.804877 
L 64.869904 63.994711 
L 65.04633 64.133646 
L 65.233136 64.280756 
L 65.296184 64.330406 
L 65.425499 64.432242 
L 65.583012 64.556283 
L 65.7972 64.724957 
L 65.962082 64.854801 
L 66.012341 64.89438 
L 66.168395 65.017273 
L 66.402819 65.201881 
L 66.544092 65.313134 
L 66.651774 65.397934 
L 66.89911 65.592711 
L 66.985689 65.660892 
L 67.075596 65.731693 
L 67.35686 65.953189 
L 67.524139 66.084921 
L 67.562417 66.115065 
L 67.759111 66.269962 
L 67.898914 66.380056 
L 68.087303 66.528412 
L 68.144025 66.573081 
L 68.341038 66.728229 
L 68.476091 66.834584 
L 68.734437 67.03803 
L 68.793496 67.08454 
L 69.030629 67.271282 
L 69.073753 67.305242 
L 69.283363 67.47031 
L 69.493848 67.636067 
L 69.596758 67.717109 
L 69.725612 67.818581 
L 69.966263 68.008094 
L 70.094773 68.109295 
L 70.148284 68.151435 
L 70.291191 68.263975 
L 70.463296 68.399507 
L 70.64905 68.545788 
L 70.810373 68.67283 
L 70.949217 68.78217 
L 71.189058 68.971045 
L 71.263192 69.029425 
L 71.492344 69.209882 
L 71.585456 69.283208 
L 71.780427 69.436748 
L 71.913132 69.541253 
L 71.989088 69.601068 
L 72.249012 69.805758 
L 72.400446 69.925013 
L 72.423647 69.943284 
L 72.628337 70.104477 
L 72.736552 70.189696 
L 72.984396 70.384873 
L 73.080595 70.46063 
L 73.244408 70.589633 
L 73.452499 70.753504 
L 73.564882 70.842006 
L 73.675982 70.929497 
L 73.882674 71.092267 
L 73.997142 71.182411 
L 74.238697 71.372635 
L 74.313709 71.431708 
L 74.520424 71.594495 
L 74.68222 71.72191 
L 74.850596 71.854506 
L 74.890574 71.885988 
L 75.019098 71.987202 
L 75.228259 72.151916 
L 75.430001 72.310788 
L 75.486842 72.35555 
L 75.705263 72.527556 
L 75.858207 72.648 
" style="fill:none;stroke:#0000ff;stroke-linecap:square;stroke-width:2;"/>
   </g>
   <g id="line2d_7">
    <path clip-path="url(#pf2b55b17ed)" d="M 258.360087 31.585077 
L 288.777067 55.538449 
L 288.777067 55.538449 
" style="fill:none;stroke:#0000ff;stroke-linecap:square;stroke-width:2;"/>
   </g>
   <g id="line2d_8">
    <path clip-path="url(#pf2b55b17ed)" d="M 319.194047 17.897436 
L 380.028007 65.804179 
L 380.028007 65.804179 
" style="fill:none;stroke:#0000ff;stroke-linecap:square;stroke-width:2;"/>
   </g>
   <g id="line2d_9">
    <path clip-path="url(#pf2b55b17ed)" d="M 501.695927 38.428897 
L 562.529887 86.335641 
L 562.529887 86.335641 
" style="fill:none;stroke:#0000ff;stroke-linecap:square;stroke-width:2;"/>
   </g>
   <g id="matplotlib.axis_1">
    <g id="xtick_1">
     <g id="line2d_10">
      <path clip-path="url(#pf2b55b17ed)" d="M 15.024247 87.704405 
L 15.024247 16.528672 
" style="fill:none;stroke:#000000;stroke-dasharray:0.5,0.825;stroke-dashoffset:0;stroke-width:0.5;"/>
     </g>
     <g id="line2d_11">
      <defs>
       <path d="M 0 0 
L 0 3.5 
" id="m37206416e6" style="stroke:#000000;stroke-width:0.8;"/>
      </defs>
      <g>
       <use style="stroke:#000000;stroke-width:0.8;" x="15.024247" xlink:href="#m37206416e6" y="86.335641"/>
      </g>
     </g>
    </g>
    <g id="xtick_2">
     <g id="line2d_12">
      <path clip-path="url(#pf2b55b17ed)" d="M 319.194047 87.704405 
L 319.194047 16.528672 
" style="fill:none;stroke:#000000;stroke-dasharray:0.5,0.825;stroke-dashoffset:0;stroke-width:0.5;"/>
     </g>
     <g id="line2d_13">
      <g>
       <use style="stroke:#000000;stroke-width:0.8;" x="319.194047" xlink:href="#m37206416e6" y="86.335641"/>
      </g>
     </g>
     <g id="text_1">
      <!-- $f$ -->
      <defs>
       <path d="M 9.71875 -16.5 
Q 11.578125 -17.921875 14.203125 -17.921875 
Q 17.78125 -17.921875 20.015625 -10.015625 
Q 20.953125 -6.203125 25.09375 15.09375 
L 29.6875 39.59375 
L 21.09375 39.59375 
Q 20.125 39.59375 20.125 40.921875 
Q 20.515625 43.109375 21.390625 43.109375 
L 30.328125 43.109375 
L 31.5 49.609375 
Q 32.078125 52.640625 32.5625 54.8125 
Q 33.0625 56.984375 33.625 58.828125 
Q 34.1875 60.6875 35.296875 62.984375 
Q 37.015625 66.265625 39.921875 68.390625 
Q 42.828125 70.515625 46.1875 70.515625 
Q 48.390625 70.515625 50.46875 69.703125 
Q 52.546875 68.890625 53.859375 67.28125 
Q 55.171875 65.671875 55.171875 63.484375 
Q 55.171875 60.9375 53.484375 59.046875 
Q 51.8125 57.171875 49.421875 57.171875 
Q 47.796875 57.171875 46.65625 58.171875 
Q 45.515625 59.1875 45.515625 60.796875 
Q 45.515625 62.984375 47 64.625 
Q 48.484375 66.265625 50.6875 66.5 
Q 48.828125 67.921875 46.09375 67.921875 
Q 44.578125 67.921875 43.234375 66.5 
Q 41.890625 65.09375 41.5 63.484375 
Q 40.875 60.9375 38.71875 49.703125 
L 37.5 43.109375 
L 47.796875 43.109375 
Q 48.78125 43.109375 48.78125 41.796875 
Q 48.734375 41.546875 48.578125 40.9375 
Q 48.4375 40.328125 48.171875 39.953125 
Q 47.90625 39.59375 47.515625 39.59375 
L 36.8125 39.59375 
L 32.171875 15.1875 
Q 31.296875 9.859375 30.140625 4.359375 
Q 29 -1.125 26.921875 -6.90625 
Q 24.859375 -12.703125 21.625 -16.609375 
Q 18.40625 -20.515625 14.015625 -20.515625 
Q 10.640625 -20.515625 7.984375 -18.578125 
Q 5.328125 -16.65625 5.328125 -13.484375 
Q 5.328125 -10.9375 6.953125 -9.046875 
Q 8.59375 -7.171875 11.078125 -7.171875 
Q 12.75 -7.171875 13.859375 -8.171875 
Q 14.984375 -9.1875 14.984375 -10.796875 
Q 14.984375 -12.9375 13.390625 -14.71875 
Q 11.8125 -16.5 9.71875 -16.5 
z
" id="Cmmi10-66"/>
      </defs>
      <g transform="translate(316.744047 100.913766)scale(0.1 -0.1)">
       <use transform="translate(0 0.484375)" xlink:href="#Cmmi10-66"/>
      </g>
     </g>
    </g>
    <g id="xtick_3">
     <g id="line2d_14">
      <path clip-path="url(#pf2b55b17ed)" d="M 562.529887 87.704405 
L 562.529887 16.528672 
" style="fill:none;stroke:#000000;stroke-dasharray:0.5,0.825;stroke-dashoffset:0;stroke-width:0.5;"/>
     </g>
     <g id="line2d_15">
      <g>
       <use style="stroke:#000000;stroke-width:0.8;" x="562.529887" xlink:href="#m37206416e6" y="86.335641"/>
      </g>
     </g>
     <g id="text_2">
      <!-- $1$ -->
      <defs>
       <path d="M 9.28125 0 
L 9.28125 3.515625 
Q 21.78125 3.515625 21.78125 6.6875 
L 21.78125 59.1875 
Q 16.609375 56.6875 8.6875 56.6875 
L 8.6875 60.203125 
Q 20.953125 60.203125 27.203125 66.609375 
L 28.609375 66.609375 
Q 28.953125 66.609375 29.265625 66.328125 
Q 29.59375 66.0625 29.59375 65.71875 
L 29.59375 6.6875 
Q 29.59375 3.515625 42.09375 3.515625 
L 42.09375 0 
z
" id="Cmr10-31"/>
      </defs>
      <g transform="translate(560.029887 100.934078)scale(0.1 -0.1)">
       <use transform="translate(0 0.390625)" xlink:href="#Cmr10-31"/>
      </g>
     </g>
    </g>
   </g>
   <g id="matplotlib.axis_2">
    <g id="ytick_1">
     <g id="line2d_16">
      <path clip-path="url(#pf2b55b17ed)" d="M 4.074135 86.335641 
L 573.48 86.335641 
" style="fill:none;stroke:#000000;stroke-dasharray:0.5,0.825;stroke-dashoffset:0;stroke-width:0.5;"/>
     </g>
     <g id="line2d_17">
      <defs>
       <path d="M 0 0 
L -3.5 0 
" id="m5b6b653581" style="stroke:#000000;stroke-width:0.8;"/>
      </defs>
      <g>
       <use style="stroke:#000000;stroke-width:0.8;" x="15.024247" xlink:href="#m5b6b653581" y="86.335641"/>
      </g>
     </g>
    </g>
    <g id="ytick_2">
     <g id="line2d_18">
      <path clip-path="url(#pf2b55b17ed)" d="M 4.074135 17.897436 
L 573.48 17.897436 
" style="fill:none;stroke:#000000;stroke-dasharray:0.5,0.825;stroke-dashoffset:0;stroke-width:0.5;"/>
     </g>
     <g id="line2d_19">
      <g>
       <use style="stroke:#000000;stroke-width:0.8;" x="15.024247" xlink:href="#m5b6b653581" y="17.897436"/>
      </g>
     </g>
     <g id="text_3">
      <!-- $1$ -->
      <g transform="translate(3.024247 21.696655)scale(0.1 -0.1)">
       <use transform="translate(0 0.390625)" xlink:href="#Cmr10-31"/>
      </g>
     </g>
    </g>
   </g>
   <g id="patch_3">
    <path d="M 15.024247 87.704405 
L 15.024247 16.528672 
" style="fill:none;stroke:#000000;stroke-linecap:square;stroke-linejoin:miter;stroke-width:0.8;"/>
   </g>
   <g id="patch_4">
    <path d="M 4.074135 86.335641 
L 573.48 86.335641 
" style="fill:none;stroke:#000000;stroke-linecap:square;stroke-linejoin:miter;stroke-width:0.8;"/>
   </g>
  </g>
 </g>
 <defs>
  <clipPath id="pf2b55b17ed">
   <rect height="71.175733" width="569.405865" x="4.074135" y="16.528672"/>
  </clipPath>
 </defs>
</svg>
