<?xml version="1.0" encoding="utf-8" standalone="no"?>
<!DOCTYPE svg PUBLIC "-//W3C//DTD SVG 1.1//EN"
  "http://www.w3.org/Graphics/SVG/1.1/DTD/svg11.dtd">
<!-- Created with matplotlib (http://matplotlib.org/) -->
<svg height="108pt" version="1.1" viewBox="0 0 576 108" width="576pt" xmlns="http://www.w3.org/2000/svg" xmlns:xlink="http://www.w3.org/1999/xlink">
 <defs>
  <style type="text/css">
*{stroke-linecap:butt;stroke-linejoin:round;}
  </style>
 </defs>
 <g id="figure_1">
  <g id="patch_1">
   <path d="M 0 108 
L 576 108 
L 576 0 
L 0 0 
z
" style="fill:#ffffff;"/>
  </g>
  <g id="axes_1">
   <g id="patch_2">
    <path d="M 4.074135 87.704405 
L 573.48 87.704405 
L 573.48 16.528672 
L 4.074135 16.528672 
z
" style="fill:#ffffff;"/>
   </g>
   <g id="line2d_1">
    <path clip-path="url(#pa141d36bc4)" d="M 118.606395 45.097235 
L 162.998745 32.988938 
L 162.998745 32.988938 
" style="fill:none;stroke:#ff0000;stroke-linecap:square;stroke-width:2;"/>
   </g>
   <g id="line2d_2">
    <path clip-path="url(#pa141d36bc4)" d="M 236.985993 71.244139 
L 281.378342 59.135842 
L 281.378342 59.135842 
" style="fill:none;stroke:#ff0000;stroke-linecap:square;stroke-width:2;"/>
   </g>
   <g id="line2d_3">
    <path clip-path="url(#pa141d36bc4)" d="M 444.150289 60.188737 
L 503.340088 44.04434 
L 503.340088 44.04434 
" style="fill:none;stroke:#ff0000;stroke-linecap:square;stroke-width:2;"/>
   </g>
   <g id="line2d_4">
    <path clip-path="url(#pa141d36bc4)" d="M 89.011496 33.690868 
L 118.606395 45.097235 
L 118.606395 45.097235 
" style="fill:none;stroke:#cbff00;stroke-linecap:square;stroke-width:2;"/>
   </g>
   <g id="line2d_5">
    <path clip-path="url(#pa141d36bc4)" d="M 162.998745 32.988938 
L 192.593644 44.395305 
L 192.593644 44.395305 
" style="fill:none;stroke:#cbff00;stroke-linecap:square;stroke-width:2;"/>
   </g>
   <g id="line2d_6">
    <path clip-path="url(#pa141d36bc4)" d="M 207.391094 59.837772 
L 236.985993 71.244139 
L 236.985993 71.244139 
" style="fill:none;stroke:#cbff00;stroke-linecap:square;stroke-width:2;"/>
   </g>
   <g id="line2d_7">
    <path clip-path="url(#pa141d36bc4)" d="M 281.378342 59.135842 
L 310.973242 70.542209 
L 310.973242 70.542209 
" style="fill:none;stroke:#cbff00;stroke-linecap:square;stroke-width:2;"/>
   </g>
   <g id="line2d_8">
    <path clip-path="url(#pa141d36bc4)" d="M 399.75794 33.339903 
L 414.55539 39.043086 
L 414.55539 39.043086 
" style="fill:none;stroke:#cbff00;stroke-linecap:square;stroke-width:2;"/>
   </g>
   <g id="line2d_9">
    <path clip-path="url(#pa141d36bc4)" d="M 429.35284 54.485553 
L 444.150289 60.188737 
L 444.150289 60.188737 
" style="fill:none;stroke:#cbff00;stroke-linecap:square;stroke-width:2;"/>
   </g>
   <g id="line2d_10">
    <path clip-path="url(#pa141d36bc4)" d="M 503.340088 44.04434 
L 518.137538 49.747524 
L 518.137538 49.747524 
" style="fill:none;stroke:#cbff00;stroke-linecap:square;stroke-width:2;"/>
   </g>
   <g id="line2d_11">
    <path clip-path="url(#pa141d36bc4)" d="M 532.934988 65.18999 
L 547.732437 70.893174 
L 547.732437 70.893174 
" style="fill:none;stroke:#cbff00;stroke-linecap:square;stroke-width:2;"/>
   </g>
   <g id="line2d_12">
    <path clip-path="url(#pa141d36bc4)" d="M 44.619147 65.277732 
L 89.011496 33.690868 
L 89.011496 33.690868 
" style="fill:none;stroke:#00ff66;stroke-linecap:square;stroke-width:2;"/>
   </g>
   <g id="line2d_13">
    <path clip-path="url(#pa141d36bc4)" d="M 310.973242 70.542209 
L 355.365591 38.955345 
L 355.365591 38.955345 
" style="fill:none;stroke:#00ff66;stroke-linecap:square;stroke-width:2;"/>
   </g>
   <g id="line2d_14">
    <path clip-path="url(#pa141d36bc4)" d="M 29.821697 49.835265 
L 44.619147 65.277732 
L 44.619147 65.277732 
" style="fill:none;stroke:#0066ff;stroke-linecap:square;stroke-width:2;"/>
   </g>
   <g id="line2d_15">
    <path clip-path="url(#pa141d36bc4)" d="M 192.593644 44.395305 
L 207.391094 59.837772 
L 207.391094 59.837772 
" style="fill:none;stroke:#0066ff;stroke-linecap:square;stroke-width:2;"/>
   </g>
   <g id="line2d_16">
    <path clip-path="url(#pa141d36bc4)" d="M 355.365591 38.955345 
L 370.163041 54.397812 
L 370.163041 54.397812 
" style="fill:none;stroke:#0066ff;stroke-linecap:square;stroke-width:2;"/>
   </g>
   <g id="line2d_17">
    <path clip-path="url(#pa141d36bc4)" d="M 384.960491 17.897436 
L 399.75794 33.339903 
L 399.75794 33.339903 
" style="fill:none;stroke:#0066ff;stroke-linecap:square;stroke-width:2;"/>
   </g>
   <g id="line2d_18">
    <path clip-path="url(#pa141d36bc4)" d="M 414.55539 39.043086 
L 414.665763 39.15827 
L 414.717047 39.21179 
L 414.751393 39.247633 
L 414.820978 39.320252 
L 414.95629 39.461462 
L 415.007019 39.514402 
L 415.092595 39.603708 
L 415.113997 39.626043 
L 415.224194 39.741043 
L 415.295438 39.815393 
L 415.399584 39.924079 
L 415.42237 39.947858 
L 415.515342 40.044883 
L 415.613045 40.146844 
L 415.706462 40.244334 
L 415.758025 40.298144 
L 415.784418 40.325688 
L 415.869853 40.414846 
L 416.00303 40.553829 
L 416.015064 40.566387 
L 416.125916 40.682071 
L 416.212358 40.772281 
L 416.241086 40.802262 
L 416.350637 40.916588 
L 416.396546 40.964498 
L 416.457735 41.028354 
L 416.526451 41.100066 
L 416.615469 41.192963 
L 416.718228 41.300202 
L 416.762569 41.346476 
L 416.842971 41.430383 
L 416.912993 41.503457 
L 416.978159 41.571464 
L 417.096029 41.694472 
L 417.165448 41.766917 
L 417.220839 41.824721 
L 417.333828 41.942636 
L 417.403414 42.015255 
L 417.440744 42.054212 
L 417.496245 42.112133 
L 417.584987 42.204743 
L 417.676707 42.300461 
L 417.751298 42.378303 
L 417.824908 42.455122 
L 417.938133 42.573283 
L 417.976757 42.61359 
L 418.044776 42.684574 
L 418.136056 42.779833 
L 418.162199 42.807115 
L 418.257662 42.90674 
L 418.382347 43.036859 
L 418.430419 43.087027 
L 418.473512 43.131999 
L 418.576133 43.239092 
L 418.645361 43.311338 
L 418.725367 43.394832 
L 418.801449 43.47423 
L 418.856713 43.531903 
L 418.937114 43.615809 
L 419.010779 43.692684 
L 419.109093 43.795284 
L 419.148373 43.836277 
L 419.263075 43.955979 
L 419.295882 43.990216 
L 419.365794 44.063174 
L 419.474629 44.176754 
L 419.572322 44.278706 
L 419.586546 44.293549 
L 419.708084 44.420385 
L 419.7484 44.462459 
L 419.860204 44.579136 
L 419.924739 44.646484 
L 419.9857 44.710103 
L 420.031088 44.757469 
L 420.120326 44.850597 
L 420.215104 44.949506 
L 420.304599 45.042902 
L 420.363039 45.103889 
L 420.3983 45.140688 
L 420.523135 45.270964 
L 420.594408 45.345344 
L 420.66207 45.415955 
L 420.757397 45.515438 
L 420.827193 45.588275 
L 420.84762 45.609593 
L 420.968416 45.735655 
L 421.017684 45.787071 
L 421.092189 45.864823 
L 421.156315 45.931744 
L 421.218391 45.996526 
L 421.32264 46.10532 
L 421.376334 46.161354 
L 421.472211 46.26141 
L 421.51202 46.302954 
L 421.65119 46.44819 
L 421.709368 46.508905 
L 421.766336 46.568356 
L 421.807494 46.611308 
L 421.913067 46.721483 
L 421.966031 46.776756 
L 422.045589 46.859781 
L 422.159779 46.978949 
L 422.229907 47.052134 
L 422.259525 47.083042 
L 422.365073 47.193191 
L 422.430793 47.261776 
L 422.538517 47.374197 
L 422.598054 47.436328 
" style="fill:none;stroke:#0066ff;stroke-linecap:square;stroke-width:2;"/>
   </g>
   <g id="line2d_19">
    <path clip-path="url(#pa141d36bc4)" d="M 422.84409 47.693088 
L 422.863932 47.713796 
L 422.991136 47.846545 
L 423.03017 47.88728 
L 423.111668 47.972331 
L 423.161443 48.024275 
L 423.23186 48.097761 
L 423.349589 48.220622 
L 423.430683 48.305251 
L 423.462905 48.338877 
L 423.536192 48.41536 
L 423.629512 48.512747 
L 423.71389 48.600803 
L 423.77339 48.662897 
L 423.851497 48.744408 
L 423.946745 48.843808 
L 423.994655 48.893807 
L 424.076201 48.978907 
L 424.115576 49.019999 
L 424.245155 49.155226 
L 424.324277 49.237797 
L 424.378026 49.293888 
L 424.457927 49.377272 
L 424.556329 49.479963 
L 424.628797 49.555591 
L 424.695643 49.625351 
L 424.768269 49.701142 
L 424.791888 49.725791 
L 424.895998 49.834439 
L 424.99207 49.934698 
L 425.028339 49.972549 
L 425.100417 50.047768 
L 425.179057 50.129837 
L 425.279423 50.234578 
L 425.319854 50.276771 
L 425.427631 50.389246 
L 425.516318 50.481799 
L 425.596931 50.565925 
L 425.661912 50.633739 
L 425.727237 50.701911 
L 425.786673 50.763938 
L 425.84287 50.822585 
L 425.957491 50.942202 
L 426.000097 50.986666 
L 426.116199 51.107828 
L 426.149523 51.142605 
L 426.262538 51.260546 
L 426.301915 51.30164 
L 426.343164 51.344687 
L 426.472974 51.480155 
L 426.517543 51.526667 
L 426.58492 51.596981 
L 426.693479 51.710272 
L 426.786577 51.807428 
L 426.82566 51.848214 
L 426.865246 51.889526 
L 426.962063 51.990563 
L 427.026055 52.057344 
L 427.09408 52.128335 
L 427.177809 52.215714 
L 427.280605 52.32299 
L 427.316784 52.360746 
L 427.387684 52.434737 
L 427.530704 52.583991 
L 427.531185 52.584493 
L 427.640379 52.698446 
L 427.681195 52.741042 
L 427.75716 52.820318 
L 427.854704 52.922115 
L 427.935552 53.006487 
L 427.981614 53.054557 
L 428.108481 53.186953 
L 428.138959 53.21876 
L 428.222983 53.306446 
L 428.335072 53.423421 
L 428.392994 53.483868 
L 428.493827 53.589096 
L 428.549515 53.647212 
L 428.577428 53.676342 
L 428.708893 53.813537 
L 428.759312 53.866154 
L 428.868866 53.980483 
L 428.888069 54.000523 
L 429.014062 54.132009 
L 429.058631 54.17852 
L 429.120161 54.242732 
L 429.177084 54.302137 
L 429.262595 54.391375 
L 429.35284 54.485553 
" style="fill:none;stroke:#0066ff;stroke-linecap:square;stroke-width:2;"/>
   </g>
   <g id="line2d_20">
    <path clip-path="url(#pa141d36bc4)" d="M 518.137538 49.747524 
L 532.934988 65.18999 
L 532.934988 65.18999 
" style="fill:none;stroke:#0066ff;stroke-linecap:square;stroke-width:2;"/>
   </g>
   <g id="line2d_21">
    <path clip-path="url(#pa141d36bc4)" d="M 547.732437 70.893174 
L 562.529887 86.335641 
L 562.529887 86.335641 
" style="fill:none;stroke:#0066ff;stroke-linecap:square;stroke-width:2;"/>
   </g>
   <g id="line2d_22">
    <path clip-path="url(#pa141d36bc4)" d="M 15.024247 86.335641 
L 29.821697 49.835265 
L 29.821697 49.835265 
" style="fill:none;stroke:#cc00ff;stroke-linecap:square;stroke-width:2;"/>
   </g>
   <g id="line2d_23">
    <path clip-path="url(#pa141d36bc4)" d="M 370.163041 54.397812 
L 384.960491 17.897436 
L 384.960491 17.897436 
" style="fill:none;stroke:#cc00ff;stroke-linecap:square;stroke-width:2;"/>
   </g>
   <g id="matplotlib.axis_1">
    <g id="xtick_1">
     <g id="line2d_24">
      <path clip-path="url(#pa141d36bc4)" d="M 15.024247 87.704405 
L 15.024247 16.528672 
" style="fill:none;stroke:#000000;stroke-dasharray:0.5,0.825;stroke-dashoffset:0;stroke-width:0.5;"/>
     </g>
     <g id="line2d_25">
      <defs>
       <path d="M 0 0 
L 0 3.5 
" id="mc83e8e8946" style="stroke:#000000;stroke-width:0.8;"/>
      </defs>
      <g>
       <use style="stroke:#000000;stroke-width:0.8;" x="15.024247" xlink:href="#mc83e8e8946" y="86.335641"/>
      </g>
     </g>
    </g>
    <g id="xtick_2">
     <g id="line2d_26">
      <path clip-path="url(#pa141d36bc4)" d="M 384.960491 87.704405 
L 384.960491 16.528672 
" style="fill:none;stroke:#000000;stroke-dasharray:0.5,0.825;stroke-dashoffset:0;stroke-width:0.5;"/>
     </g>
     <g id="line2d_27">
      <g>
       <use style="stroke:#000000;stroke-width:0.8;" x="384.960491" xlink:href="#mc83e8e8946" y="86.335641"/>
      </g>
     </g>
     <g id="text_1">
      <!-- $f$ -->
      <defs>
       <path d="M 9.71875 -16.5 
Q 11.578125 -17.921875 14.203125 -17.921875 
Q 17.78125 -17.921875 20.015625 -10.015625 
Q 20.953125 -6.203125 25.09375 15.09375 
L 29.6875 39.59375 
L 21.09375 39.59375 
Q 20.125 39.59375 20.125 40.921875 
Q 20.515625 43.109375 21.390625 43.109375 
L 30.328125 43.109375 
L 31.5 49.609375 
Q 32.078125 52.640625 32.5625 54.8125 
Q 33.0625 56.984375 33.625 58.828125 
Q 34.1875 60.6875 35.296875 62.984375 
Q 37.015625 66.265625 39.921875 68.390625 
Q 42.828125 70.515625 46.1875 70.515625 
Q 48.390625 70.515625 50.46875 69.703125 
Q 52.546875 68.890625 53.859375 67.28125 
Q 55.171875 65.671875 55.171875 63.484375 
Q 55.171875 60.9375 53.484375 59.046875 
Q 51.8125 57.171875 49.421875 57.171875 
Q 47.796875 57.171875 46.65625 58.171875 
Q 45.515625 59.1875 45.515625 60.796875 
Q 45.515625 62.984375 47 64.625 
Q 48.484375 66.265625 50.6875 66.5 
Q 48.828125 67.921875 46.09375 67.921875 
Q 44.578125 67.921875 43.234375 66.5 
Q 41.890625 65.09375 41.5 63.484375 
Q 40.875 60.9375 38.71875 49.703125 
L 37.5 43.109375 
L 47.796875 43.109375 
Q 48.78125 43.109375 48.78125 41.796875 
Q 48.734375 41.546875 48.578125 40.9375 
Q 48.4375 40.328125 48.171875 39.953125 
Q 47.90625 39.59375 47.515625 39.59375 
L 36.8125 39.59375 
L 32.171875 15.1875 
Q 31.296875 9.859375 30.140625 4.359375 
Q 29 -1.125 26.921875 -6.90625 
Q 24.859375 -12.703125 21.625 -16.609375 
Q 18.40625 -20.515625 14.015625 -20.515625 
Q 10.640625 -20.515625 7.984375 -18.578125 
Q 5.328125 -16.65625 5.328125 -13.484375 
Q 5.328125 -10.9375 6.953125 -9.046875 
Q 8.59375 -7.171875 11.078125 -7.171875 
Q 12.75 -7.171875 13.859375 -8.171875 
Q 14.984375 -9.1875 14.984375 -10.796875 
Q 14.984375 -12.9375 13.390625 -14.71875 
Q 11.8125 -16.5 9.71875 -16.5 
z
" id="Cmmi10-66"/>
      </defs>
      <g transform="translate(382.510491 100.913766)scale(0.1 -0.1)">
       <use transform="translate(0 0.484375)" xlink:href="#Cmmi10-66"/>
      </g>
     </g>
    </g>
    <g id="xtick_3">
     <g id="line2d_28">
      <path clip-path="url(#pa141d36bc4)" d="M 562.529887 87.704405 
L 562.529887 16.528672 
" style="fill:none;stroke:#000000;stroke-dasharray:0.5,0.825;stroke-dashoffset:0;stroke-width:0.5;"/>
     </g>
     <g id="line2d_29">
      <g>
       <use style="stroke:#000000;stroke-width:0.8;" x="562.529887" xlink:href="#mc83e8e8946" y="86.335641"/>
      </g>
     </g>
     <g id="text_2">
      <!-- $1$ -->
      <defs>
       <path d="M 9.28125 0 
L 9.28125 3.515625 
Q 21.78125 3.515625 21.78125 6.6875 
L 21.78125 59.1875 
Q 16.609375 56.6875 8.6875 56.6875 
L 8.6875 60.203125 
Q 20.953125 60.203125 27.203125 66.609375 
L 28.609375 66.609375 
Q 28.953125 66.609375 29.265625 66.328125 
Q 29.59375 66.0625 29.59375 65.71875 
L 29.59375 6.6875 
Q 29.59375 3.515625 42.09375 3.515625 
L 42.09375 0 
z
" id="Cmr10-31"/>
      </defs>
      <g transform="translate(560.029887 100.934078)scale(0.1 -0.1)">
       <use transform="translate(0 0.390625)" xlink:href="#Cmr10-31"/>
      </g>
     </g>
    </g>
   </g>
   <g id="matplotlib.axis_2">
    <g id="ytick_1">
     <g id="line2d_30">
      <path clip-path="url(#pa141d36bc4)" d="M 4.074135 86.335641 
L 573.48 86.335641 
" style="fill:none;stroke:#000000;stroke-dasharray:0.5,0.825;stroke-dashoffset:0;stroke-width:0.5;"/>
     </g>
     <g id="line2d_31">
      <defs>
       <path d="M 0 0 
L -3.5 0 
" id="me37b1e926f" style="stroke:#000000;stroke-width:0.8;"/>
      </defs>
      <g>
       <use style="stroke:#000000;stroke-width:0.8;" x="15.024247" xlink:href="#me37b1e926f" y="86.335641"/>
      </g>
     </g>
    </g>
    <g id="ytick_2">
     <g id="line2d_32">
      <path clip-path="url(#pa141d36bc4)" d="M 4.074135 17.897436 
L 573.48 17.897436 
" style="fill:none;stroke:#000000;stroke-dasharray:0.5,0.825;stroke-dashoffset:0;stroke-width:0.5;"/>
     </g>
     <g id="line2d_33">
      <g>
       <use style="stroke:#000000;stroke-width:0.8;" x="15.024247" xlink:href="#me37b1e926f" y="17.897436"/>
      </g>
     </g>
     <g id="text_3">
      <!-- $1$ -->
      <g transform="translate(3.024247 21.696655)scale(0.1 -0.1)">
       <use transform="translate(0 0.390625)" xlink:href="#Cmr10-31"/>
      </g>
     </g>
    </g>
   </g>
   <g id="patch_3">
    <path d="M 15.024247 87.704405 
L 15.024247 16.528672 
" style="fill:none;stroke:#000000;stroke-linecap:square;stroke-linejoin:miter;stroke-width:0.8;"/>
   </g>
   <g id="patch_4">
    <path d="M 4.074135 86.335641 
L 573.48 86.335641 
" style="fill:none;stroke:#000000;stroke-linecap:square;stroke-linejoin:miter;stroke-width:0.8;"/>
   </g>
  </g>
 </g>
 <defs>
  <clipPath id="pa141d36bc4">
   <rect height="71.175733" width="569.405865" x="4.074135" y="16.528672"/>
  </clipPath>
 </defs>
</svg>
