<?xml version="1.0" encoding="utf-8" standalone="no"?>
<!DOCTYPE svg PUBLIC "-//W3C//DTD SVG 1.1//EN"
  "http://www.w3.org/Graphics/SVG/1.1/DTD/svg11.dtd">
<!-- Created with matplotlib (http://matplotlib.org/) -->
<svg height="108pt" version="1.1" viewBox="0 0 576 108" width="576pt" xmlns="http://www.w3.org/2000/svg" xmlns:xlink="http://www.w3.org/1999/xlink">
 <defs>
  <style type="text/css">
*{stroke-linecap:butt;stroke-linejoin:round;}
  </style>
 </defs>
 <g id="figure_1">
  <g id="patch_1">
   <path d="M 0 108 
L 576 108 
L 576 0 
L 0 0 
z
" style="fill:#ffffff;"/>
  </g>
  <g id="axes_1">
   <g id="patch_2">
    <path d="M 4.074135 87.704405 
L 573.48 87.704405 
L 573.48 16.528672 
L 4.074135 16.528672 
z
" style="fill:#ffffff;"/>
   </g>
   <g id="line2d_1">
    <path clip-path="url(#p73d0f1f8e2)" d="M 288.777067 17.897436 
L 292.075294 22.459983 
L 292.075294 22.459983 
" style="fill:none;stroke:#ff0000;stroke-linecap:square;stroke-width:2;"/>
   </g>
   <g id="line2d_2">
    <path clip-path="url(#p73d0f1f8e2)" d="M 424.004364 49.835265 
L 427.302591 54.397812 
L 427.302591 54.397812 
" style="fill:none;stroke:#ff0000;stroke-linecap:square;stroke-width:2;"/>
   </g>
   <g id="line2d_3">
    <path clip-path="url(#p73d0f1f8e2)" d="M 559.23166 81.773094 
L 562.529887 86.335641 
L 562.529887 86.335641 
" style="fill:none;stroke:#ff0000;stroke-linecap:square;stroke-width:2;"/>
   </g>
   <g id="line2d_4">
    <path clip-path="url(#p73d0f1f8e2)" d="M 84.287009 36.849554 
L 87.585236 41.061136 
L 87.585236 41.061136 
" style="fill:none;stroke:#ff9900;stroke-linecap:square;stroke-width:2;"/>
   </g>
   <g id="line2d_5">
    <path clip-path="url(#p73d0f1f8e2)" d="M 90.883463 44.570788 
L 94.181689 48.78237 
L 94.181689 48.78237 
" style="fill:none;stroke:#ff9900;stroke-linecap:square;stroke-width:2;"/>
   </g>
   <g id="line2d_6">
    <path clip-path="url(#p73d0f1f8e2)" d="M 97.479916 52.292021 
L 110.672823 69.138348 
L 110.672823 69.138348 
" style="fill:none;stroke:#ff9900;stroke-linecap:square;stroke-width:2;"/>
   </g>
   <g id="line2d_7">
    <path clip-path="url(#p73d0f1f8e2)" d="M 113.97105 72.648 
L 117.269277 76.859582 
L 117.269277 76.859582 
" style="fill:none;stroke:#ff9900;stroke-linecap:square;stroke-width:2;"/>
   </g>
   <g id="line2d_8">
    <path clip-path="url(#p73d0f1f8e2)" d="M 186.532038 27.373495 
L 189.830265 31.585077 
L 189.830265 31.585077 
" style="fill:none;stroke:#ff9900;stroke-linecap:square;stroke-width:2;"/>
   </g>
   <g id="line2d_9">
    <path clip-path="url(#p73d0f1f8e2)" d="M 193.128492 35.094729 
L 206.321399 51.941056 
L 206.321399 51.941056 
" style="fill:none;stroke:#ff9900;stroke-linecap:square;stroke-width:2;"/>
   </g>
   <g id="line2d_10">
    <path clip-path="url(#p73d0f1f8e2)" d="M 209.619625 55.450707 
L 212.917852 59.662289 
L 212.917852 59.662289 
" style="fill:none;stroke:#ff9900;stroke-linecap:square;stroke-width:2;"/>
   </g>
   <g id="line2d_11">
    <path clip-path="url(#p73d0f1f8e2)" d="M 216.216079 63.171941 
L 219.514306 67.383523 
L 219.514306 67.383523 
" style="fill:none;stroke:#ff9900;stroke-linecap:square;stroke-width:2;"/>
   </g>
   <g id="line2d_12">
    <path clip-path="url(#p73d0f1f8e2)" d="M 292.075294 22.459983 
L 298.671748 30.883147 
L 298.671748 30.883147 
" style="fill:none;stroke:#ff9900;stroke-linecap:square;stroke-width:2;"/>
   </g>
   <g id="line2d_13">
    <path clip-path="url(#p73d0f1f8e2)" d="M 301.969974 34.743763 
L 305.268201 38.955345 
L 305.268201 38.955345 
" style="fill:none;stroke:#ff9900;stroke-linecap:square;stroke-width:2;"/>
   </g>
   <g id="line2d_14">
    <path clip-path="url(#p73d0f1f8e2)" d="M 308.566428 42.815962 
L 311.864655 47.027544 
L 311.864655 47.027544 
" style="fill:none;stroke:#ff9900;stroke-linecap:square;stroke-width:2;"/>
   </g>
   <g id="line2d_15">
    <path clip-path="url(#p73d0f1f8e2)" d="M 414.109684 37.551485 
L 417.40791 41.763066 
L 417.40791 41.763066 
" style="fill:none;stroke:#ff9900;stroke-linecap:square;stroke-width:2;"/>
   </g>
   <g id="line2d_16">
    <path clip-path="url(#p73d0f1f8e2)" d="M 420.706137 45.623683 
L 424.004364 49.835265 
L 424.004364 49.835265 
" style="fill:none;stroke:#ff9900;stroke-linecap:square;stroke-width:2;"/>
   </g>
   <g id="line2d_17">
    <path clip-path="url(#p73d0f1f8e2)" d="M 427.302591 54.397812 
L 430.600817 58.609394 
L 430.600817 58.609394 
" style="fill:none;stroke:#ff9900;stroke-linecap:square;stroke-width:2;"/>
   </g>
   <g id="line2d_18">
    <path clip-path="url(#p73d0f1f8e2)" d="M 433.899044 62.47001 
L 437.197271 66.681592 
L 437.197271 66.681592 
" style="fill:none;stroke:#ff9900;stroke-linecap:square;stroke-width:2;"/>
   </g>
   <g id="line2d_19">
    <path clip-path="url(#p73d0f1f8e2)" d="M 539.4423 57.205533 
L 542.740527 61.417115 
L 542.740527 61.417115 
" style="fill:none;stroke:#ff9900;stroke-linecap:square;stroke-width:2;"/>
   </g>
   <g id="line2d_20">
    <path clip-path="url(#p73d0f1f8e2)" d="M 546.038753 65.277732 
L 549.33698 69.489314 
L 549.33698 69.489314 
" style="fill:none;stroke:#ff9900;stroke-linecap:square;stroke-width:2;"/>
   </g>
   <g id="line2d_21">
    <path clip-path="url(#p73d0f1f8e2)" d="M 552.635207 73.34993 
L 559.23166 81.773094 
L 559.23166 81.773094 
" style="fill:none;stroke:#ff9900;stroke-linecap:square;stroke-width:2;"/>
   </g>
   <g id="line2d_22">
    <path clip-path="url(#p73d0f1f8e2)" d="M 15.024247 86.335641 
L 18.322474 81.773094 
L 18.322474 81.773094 
" style="fill:none;stroke:#cbff00;stroke-linecap:square;stroke-width:2;"/>
   </g>
   <g id="line2d_23">
    <path clip-path="url(#p73d0f1f8e2)" d="M 150.251544 54.397812 
L 153.549771 49.835265 
L 153.549771 49.835265 
" style="fill:none;stroke:#cbff00;stroke-linecap:square;stroke-width:2;"/>
   </g>
   <g id="line2d_24">
    <path clip-path="url(#p73d0f1f8e2)" d="M 285.478841 22.459983 
L 288.777067 17.897436 
L 288.777067 17.897436 
" style="fill:none;stroke:#cbff00;stroke-linecap:square;stroke-width:2;"/>
   </g>
   <g id="line2d_25">
    <path clip-path="url(#p73d0f1f8e2)" d="M 338.250468 75.104756 
L 341.548695 71.595104 
L 341.548695 71.595104 
" style="fill:none;stroke:#33ff00;stroke-linecap:square;stroke-width:2;"/>
   </g>
   <g id="line2d_26">
    <path clip-path="url(#p73d0f1f8e2)" d="M 344.846922 74.753791 
L 348.145149 71.244139 
L 348.145149 71.244139 
" style="fill:none;stroke:#33ff00;stroke-linecap:square;stroke-width:2;"/>
   </g>
   <g id="line2d_27">
    <path clip-path="url(#p73d0f1f8e2)" d="M 351.443375 74.402826 
L 358.039829 67.383523 
L 358.039829 67.383523 
" style="fill:none;stroke:#33ff00;stroke-linecap:square;stroke-width:2;"/>
   </g>
   <g id="line2d_28">
    <path clip-path="url(#p73d0f1f8e2)" d="M 361.338056 63.171941 
L 364.636282 59.662289 
L 364.636282 59.662289 
" style="fill:none;stroke:#33ff00;stroke-linecap:square;stroke-width:2;"/>
   </g>
   <g id="line2d_29">
    <path clip-path="url(#p73d0f1f8e2)" d="M 367.934509 55.450707 
L 371.232736 51.941056 
L 371.232736 51.941056 
" style="fill:none;stroke:#33ff00;stroke-linecap:square;stroke-width:2;"/>
   </g>
   <g id="line2d_30">
    <path clip-path="url(#p73d0f1f8e2)" d="M 384.425643 35.094729 
L 387.72387 31.585077 
L 387.72387 31.585077 
" style="fill:none;stroke:#33ff00;stroke-linecap:square;stroke-width:2;"/>
   </g>
   <g id="line2d_31">
    <path clip-path="url(#p73d0f1f8e2)" d="M 391.022096 27.373495 
L 394.320323 23.863844 
L 394.320323 23.863844 
" style="fill:none;stroke:#33ff00;stroke-linecap:square;stroke-width:2;"/>
   </g>
   <g id="line2d_32">
    <path clip-path="url(#p73d0f1f8e2)" d="M 397.61855 27.02253 
L 400.916777 23.512878 
L 400.916777 23.512878 
" style="fill:none;stroke:#33ff00;stroke-linecap:square;stroke-width:2;"/>
   </g>
   <g id="line2d_33">
    <path clip-path="url(#p73d0f1f8e2)" d="M 450.390178 80.720198 
L 453.688405 77.210547 
L 453.688405 77.210547 
" style="fill:none;stroke:#33ff00;stroke-linecap:square;stroke-width:2;"/>
   </g>
   <g id="line2d_34">
    <path clip-path="url(#p73d0f1f8e2)" d="M 456.986631 80.369233 
L 460.284858 76.859582 
L 460.284858 76.859582 
" style="fill:none;stroke:#33ff00;stroke-linecap:square;stroke-width:2;"/>
   </g>
   <g id="line2d_35">
    <path clip-path="url(#p73d0f1f8e2)" d="M 463.583085 72.648 
L 466.881312 69.138348 
L 466.881312 69.138348 
" style="fill:none;stroke:#33ff00;stroke-linecap:square;stroke-width:2;"/>
   </g>
   <g id="line2d_36">
    <path clip-path="url(#p73d0f1f8e2)" d="M 480.074219 52.292021 
L 483.372445 48.78237 
L 483.372445 48.78237 
" style="fill:none;stroke:#33ff00;stroke-linecap:square;stroke-width:2;"/>
   </g>
   <g id="line2d_37">
    <path clip-path="url(#p73d0f1f8e2)" d="M 486.670672 44.570788 
L 489.968899 41.061136 
L 489.968899 41.061136 
" style="fill:none;stroke:#33ff00;stroke-linecap:square;stroke-width:2;"/>
   </g>
   <g id="line2d_38">
    <path clip-path="url(#p73d0f1f8e2)" d="M 493.267126 36.849554 
L 499.863579 29.830251 
L 499.863579 29.830251 
" style="fill:none;stroke:#33ff00;stroke-linecap:square;stroke-width:2;"/>
   </g>
   <g id="line2d_39">
    <path clip-path="url(#p73d0f1f8e2)" d="M 503.161806 32.988938 
L 506.460033 29.479286 
L 506.460033 29.479286 
" style="fill:none;stroke:#33ff00;stroke-linecap:square;stroke-width:2;"/>
   </g>
   <g id="line2d_40">
    <path clip-path="url(#p73d0f1f8e2)" d="M 509.758259 32.637972 
L 513.056486 29.128321 
L 513.056486 29.128321 
" style="fill:none;stroke:#33ff00;stroke-linecap:square;stroke-width:2;"/>
   </g>
   <g id="line2d_41">
    <path clip-path="url(#p73d0f1f8e2)" d="M 24.918928 73.34993 
L 28.217154 69.489314 
L 28.217154 69.489314 
" style="fill:none;stroke:#00ff66;stroke-linecap:square;stroke-width:2;"/>
   </g>
   <g id="line2d_42">
    <path clip-path="url(#p73d0f1f8e2)" d="M 31.515381 65.277732 
L 34.813608 61.417115 
L 34.813608 61.417115 
" style="fill:none;stroke:#00ff66;stroke-linecap:square;stroke-width:2;"/>
   </g>
   <g id="line2d_43">
    <path clip-path="url(#p73d0f1f8e2)" d="M 38.111835 57.205533 
L 44.708288 49.4843 
L 44.708288 49.4843 
" style="fill:none;stroke:#00ff66;stroke-linecap:square;stroke-width:2;"/>
   </g>
   <g id="line2d_44">
    <path clip-path="url(#p73d0f1f8e2)" d="M 48.006515 46.325613 
L 51.304742 42.464997 
L 51.304742 42.464997 
" style="fill:none;stroke:#00ff66;stroke-linecap:square;stroke-width:2;"/>
   </g>
   <g id="line2d_45">
    <path clip-path="url(#p73d0f1f8e2)" d="M 54.602968 39.30631 
L 57.901195 35.445694 
L 57.901195 35.445694 
" style="fill:none;stroke:#00ff66;stroke-linecap:square;stroke-width:2;"/>
   </g>
   <g id="line2d_46">
    <path clip-path="url(#p73d0f1f8e2)" d="M 130.462184 77.561512 
L 133.76041 73.700895 
L 133.76041 73.700895 
" style="fill:none;stroke:#00ff66;stroke-linecap:square;stroke-width:2;"/>
   </g>
   <g id="line2d_47">
    <path clip-path="url(#p73d0f1f8e2)" d="M 137.058637 70.542209 
L 140.356864 66.681592 
L 140.356864 66.681592 
" style="fill:none;stroke:#00ff66;stroke-linecap:square;stroke-width:2;"/>
   </g>
   <g id="line2d_48">
    <path clip-path="url(#p73d0f1f8e2)" d="M 143.65509 62.47001 
L 146.953317 58.609394 
L 146.953317 58.609394 
" style="fill:none;stroke:#00ff66;stroke-linecap:square;stroke-width:2;"/>
   </g>
   <g id="line2d_49">
    <path clip-path="url(#p73d0f1f8e2)" d="M 156.847997 45.623683 
L 160.146224 41.763066 
L 160.146224 41.763066 
" style="fill:none;stroke:#00ff66;stroke-linecap:square;stroke-width:2;"/>
   </g>
   <g id="line2d_50">
    <path clip-path="url(#p73d0f1f8e2)" d="M 163.444451 37.551485 
L 166.742678 33.690868 
L 166.742678 33.690868 
" style="fill:none;stroke:#00ff66;stroke-linecap:square;stroke-width:2;"/>
   </g>
   <g id="line2d_51">
    <path clip-path="url(#p73d0f1f8e2)" d="M 170.040904 30.532182 
L 173.339131 26.671565 
L 173.339131 26.671565 
" style="fill:none;stroke:#00ff66;stroke-linecap:square;stroke-width:2;"/>
   </g>
   <g id="line2d_52">
    <path clip-path="url(#p73d0f1f8e2)" d="M 245.90012 68.787383 
L 249.198346 64.926767 
L 249.198346 64.926767 
" style="fill:none;stroke:#00ff66;stroke-linecap:square;stroke-width:2;"/>
   </g>
   <g id="line2d_53">
    <path clip-path="url(#p73d0f1f8e2)" d="M 252.496573 61.76808 
L 252.506856 61.756043 
L 252.532048 61.726557 
L 252.543464 61.713194 
L 252.55738 61.696905 
L 252.583588 61.666228 
L 252.601281 61.645518 
L 252.61992 61.623701 
L 252.620978 61.622463 
L 252.650472 61.58794 
L 252.665712 61.570101 
L 252.677381 61.556442 
L 252.694886 61.535953 
L 252.717867 61.509053 
L 252.722348 61.503808 
L 252.738973 61.484348 
L 252.755955 61.464471 
L 252.774357 61.44293 
L 252.802096 61.410461 
L 252.819535 61.390049 
L 252.832124 61.375314 
L 252.852096 61.351936 
L 252.866472 61.335109 
L 252.880716 61.318436 
L 252.894808 61.301941 
L 252.918463 61.274252 
L 252.927131 61.264106 
L 252.946067 61.241941 
L 252.960094 61.225523 
L 252.985452 61.195841 
L 252.988198 61.192627 
L 253.013604 61.162889 
L 253.02087 61.154384 
L 253.035265 61.137535 
L 253.065907 61.101668 
L 253.078773 61.086607 
L 253.091882 61.071264 
L 253.103032 61.058212 
L 253.131844 61.024487 
L 253.141857 61.012767 
L 253.158616 60.99315 
L 253.17803 60.970426 
L 253.189115 60.957451 
L 253.201952 60.942425 
L 253.221353 60.919716 
L 253.245598 60.891337 
L 253.266056 60.867391 
L 253.273334 60.858872 
L 253.292014 60.837007 
L 253.309305 60.816767 
L 253.325428 60.797894 
L 253.349838 60.769323 
L 253.363462 60.753376 
L 253.370584 60.74504 
L 253.390876 60.721287 
L 253.409018 60.700052 
L 253.432974 60.672011 
L 253.433895 60.670932 
L 253.465642 60.633773 
L 253.481535 60.615169 
L 253.498755 60.595014 
L 253.50582 60.586744 
L 253.517196 60.573428 
L 253.545265 60.540572 
L 253.557676 60.526045 
L 253.572614 60.508561 
L 253.594921 60.48245 
L 253.603834 60.472018 
L 253.618901 60.454381 
L 253.634459 60.43617 
L 253.657352 60.409374 
L 253.672924 60.391146 
L 253.685057 60.376945 
L 253.700318 60.359082 
L 253.724664 60.330584 
L 253.737066 60.316067 
L 253.763016 60.285693 
L 253.778762 60.267262 
L 253.791835 60.25196 
L 253.804967 60.236589 
L 253.828087 60.209527 
L 253.845281 60.1894 
L 253.852653 60.180771 
L 253.878711 60.15027 
L 253.881456 60.147057 
L 253.899563 60.125862 
L 253.913863 60.109124 
L 253.94034 60.078132 
L 253.958405 60.056987 
L 253.963985 60.050456 
L 253.994534 60.014698 
L 254.003927 60.003703 
L 254.019562 59.985402 
L 254.032339 59.970447 
L 254.050115 59.949639 
L 254.071324 59.924814 
L 254.088233 59.905022 
L 254.096174 59.895727 
L 254.113977 59.874889 
L 254.137241 59.847658 
L 254.15698 59.824552 
L 254.177427 59.800619 
L 254.180693 59.796797 
L 254.207847 59.765013 
L 254.21678 59.754556 
L 254.244081 59.7226 
L 254.250098 59.715557 
L 254.278072 59.682813 
L 254.283476 59.676487 
L 254.311179 59.644061 
L 254.320745 59.632863 
" style="fill:none;stroke:#00ff66;stroke-linecap:square;stroke-width:2;"/>
   </g>
   <g id="line2d_54">
    <path clip-path="url(#p73d0f1f8e2)" d="M 254.371836 59.573061 
L 254.379817 59.563719 
L 254.403952 59.535469 
L 254.422461 59.513803 
L 254.438097 59.495502 
L 254.447314 59.484713 
L 254.465944 59.462906 
L 254.484878 59.440744 
L 254.494492 59.429491 
L 254.522626 59.39656 
L 254.540945 59.375117 
L 254.554139 59.359673 
L 254.573486 59.337027 
L 254.578162 59.331554 
L 254.598699 59.307515 
L 254.616456 59.28673 
L 254.634738 59.26533 
L 254.646963 59.251021 
L 254.666934 59.227645 
L 254.678506 59.214099 
L 254.704628 59.183523 
L 254.712244 59.174609 
L 254.734339 59.148747 
L 254.751413 59.128761 
L 254.769879 59.107147 
L 254.785592 59.088755 
L 254.805962 59.064911 
L 254.817978 59.050846 
L 254.830601 59.03607 
L 254.849023 59.014508 
L 254.870666 58.989174 
L 254.8871 58.969938 
L 254.904928 58.94907 
L 254.923903 58.92686 
L 254.938617 58.909637 
L 254.956883 58.888256 
L 254.967008 58.876404 
L 254.982955 58.857738 
L 254.998707 58.839301 
L 255.009809 58.826305 
L 255.025616 58.807803 
L 255.044716 58.785446 
L 255.06746 58.758824 
L 255.082264 58.741496 
L 255.095907 58.725526 
L 255.118223 58.699406 
L 255.135005 58.679761 
L 255.145155 58.667881 
L 255.163139 58.64683 
L 255.175932 58.631856 
L 255.200714 58.602849 
L 255.209466 58.592604 
L 255.226365 58.572824 
L 255.245703 58.550189 
L 255.267986 58.524106 
L 255.284694 58.504549 
L 255.301724 58.484615 
L 255.313592 58.470723 
L 255.325335 58.456978 
L 255.347574 58.430947 
L 255.368198 58.406806 
L 255.376631 58.396936 
L 255.396179 58.374055 
L 255.407995 58.360223 
L 255.434107 58.32966 
L 255.438579 58.324425 
L 255.464312 58.294304 
L 255.476246 58.280334 
L 255.490358 58.263816 
L 255.511968 58.238522 
L 255.523855 58.224608 
L 255.546464 58.198144 
L 255.557751 58.184932 
L 255.58671 58.151035 
L 255.588007 58.149517 
L 255.61572 58.117079 
L 255.632658 58.097252 
L 255.639283 58.089498 
L 255.663201 58.061502 
L 255.679056 58.042944 
L 255.688134 58.032317 
L 255.719576 57.995514 
L 255.723774 57.990601 
L 255.747022 57.963388 
L 255.757129 57.951558 
L 255.781396 57.923152 
L 255.7948 57.907463 
" style="fill:none;stroke:#00ff66;stroke-linecap:square;stroke-width:2;"/>
   </g>
   <g id="line2d_55">
    <path clip-path="url(#p73d0f1f8e2)" d="M 259.093027 54.748777 
L 265.68948 47.027544 
L 265.68948 47.027544 
" style="fill:none;stroke:#00ff66;stroke-linecap:square;stroke-width:2;"/>
   </g>
   <g id="line2d_56">
    <path clip-path="url(#p73d0f1f8e2)" d="M 268.987707 42.815962 
L 272.285934 38.955345 
L 272.285934 38.955345 
" style="fill:none;stroke:#00ff66;stroke-linecap:square;stroke-width:2;"/>
   </g>
   <g id="line2d_57">
    <path clip-path="url(#p73d0f1f8e2)" d="M 275.58416 34.743763 
L 278.882387 30.883147 
L 278.882387 30.883147 
" style="fill:none;stroke:#00ff66;stroke-linecap:square;stroke-width:2;"/>
   </g>
   <g id="line2d_58">
    <path clip-path="url(#p73d0f1f8e2)" d="M 64.497649 29.128321 
L 67.795875 32.637972 
L 67.795875 32.637972 
" style="fill:none;stroke:#00ffff;stroke-linecap:square;stroke-width:2;"/>
   </g>
   <g id="line2d_59">
    <path clip-path="url(#p73d0f1f8e2)" d="M 71.094102 29.479286 
L 74.392329 32.988938 
L 74.392329 32.988938 
" style="fill:none;stroke:#00ffff;stroke-linecap:square;stroke-width:2;"/>
   </g>
   <g id="line2d_60">
    <path clip-path="url(#p73d0f1f8e2)" d="M 77.690556 29.830251 
L 84.287009 36.849554 
L 84.287009 36.849554 
" style="fill:none;stroke:#00ffff;stroke-linecap:square;stroke-width:2;"/>
   </g>
   <g id="line2d_61">
    <path clip-path="url(#p73d0f1f8e2)" d="M 87.585236 41.061136 
L 90.883463 44.570788 
L 90.883463 44.570788 
" style="fill:none;stroke:#00ffff;stroke-linecap:square;stroke-width:2;"/>
   </g>
   <g id="line2d_62">
    <path clip-path="url(#p73d0f1f8e2)" d="M 94.181689 48.78237 
L 97.479916 52.292021 
L 97.479916 52.292021 
" style="fill:none;stroke:#00ffff;stroke-linecap:square;stroke-width:2;"/>
   </g>
   <g id="line2d_63">
    <path clip-path="url(#p73d0f1f8e2)" d="M 110.672823 69.138348 
L 113.97105 72.648 
L 113.97105 72.648 
" style="fill:none;stroke:#00ffff;stroke-linecap:square;stroke-width:2;"/>
   </g>
   <g id="line2d_64">
    <path clip-path="url(#p73d0f1f8e2)" d="M 117.269277 76.859582 
L 120.567503 80.369233 
L 120.567503 80.369233 
" style="fill:none;stroke:#00ffff;stroke-linecap:square;stroke-width:2;"/>
   </g>
   <g id="line2d_65">
    <path clip-path="url(#p73d0f1f8e2)" d="M 123.86573 77.210547 
L 127.163957 80.720198 
L 127.163957 80.720198 
" style="fill:none;stroke:#00ffff;stroke-linecap:square;stroke-width:2;"/>
   </g>
   <g id="line2d_66">
    <path clip-path="url(#p73d0f1f8e2)" d="M 176.637358 23.512878 
L 179.935585 27.02253 
L 179.935585 27.02253 
" style="fill:none;stroke:#00ffff;stroke-linecap:square;stroke-width:2;"/>
   </g>
   <g id="line2d_67">
    <path clip-path="url(#p73d0f1f8e2)" d="M 183.233811 23.863844 
L 186.532038 27.373495 
L 186.532038 27.373495 
" style="fill:none;stroke:#00ffff;stroke-linecap:square;stroke-width:2;"/>
   </g>
   <g id="line2d_68">
    <path clip-path="url(#p73d0f1f8e2)" d="M 189.830265 31.585077 
L 193.128492 35.094729 
L 193.128492 35.094729 
" style="fill:none;stroke:#00ffff;stroke-linecap:square;stroke-width:2;"/>
   </g>
   <g id="line2d_69">
    <path clip-path="url(#p73d0f1f8e2)" d="M 206.321399 51.941056 
L 209.619625 55.450707 
L 209.619625 55.450707 
" style="fill:none;stroke:#00ffff;stroke-linecap:square;stroke-width:2;"/>
   </g>
   <g id="line2d_70">
    <path clip-path="url(#p73d0f1f8e2)" d="M 212.917852 59.662289 
L 216.216079 63.171941 
L 216.216079 63.171941 
" style="fill:none;stroke:#00ffff;stroke-linecap:square;stroke-width:2;"/>
   </g>
   <g id="line2d_71">
    <path clip-path="url(#p73d0f1f8e2)" d="M 219.514306 67.383523 
L 226.110759 74.402826 
L 226.110759 74.402826 
" style="fill:none;stroke:#00ffff;stroke-linecap:square;stroke-width:2;"/>
   </g>
   <g id="line2d_72">
    <path clip-path="url(#p73d0f1f8e2)" d="M 229.408986 71.244139 
L 232.707213 74.753791 
L 232.707213 74.753791 
" style="fill:none;stroke:#00ffff;stroke-linecap:square;stroke-width:2;"/>
   </g>
   <g id="line2d_73">
    <path clip-path="url(#p73d0f1f8e2)" d="M 236.005439 71.595104 
L 239.303666 75.104756 
L 239.303666 75.104756 
" style="fill:none;stroke:#00ffff;stroke-linecap:square;stroke-width:2;"/>
   </g>
   <g id="line2d_74">
    <path clip-path="url(#p73d0f1f8e2)" d="M 318.461108 54.748777 
L 321.759335 57.907463 
L 321.759335 57.907463 
" style="fill:none;stroke:#0066ff;stroke-linecap:square;stroke-width:2;"/>
   </g>
   <g id="line2d_75">
    <path clip-path="url(#p73d0f1f8e2)" d="M 325.057562 61.76808 
L 328.355788 64.926767 
L 328.355788 64.926767 
" style="fill:none;stroke:#0066ff;stroke-linecap:square;stroke-width:2;"/>
   </g>
   <g id="line2d_76">
    <path clip-path="url(#p73d0f1f8e2)" d="M 331.654015 68.787383 
L 338.250468 75.104756 
L 338.250468 75.104756 
" style="fill:none;stroke:#0066ff;stroke-linecap:square;stroke-width:2;"/>
   </g>
   <g id="line2d_77">
    <path clip-path="url(#p73d0f1f8e2)" d="M 341.548695 71.595104 
L 344.846922 74.753791 
L 344.846922 74.753791 
" style="fill:none;stroke:#0066ff;stroke-linecap:square;stroke-width:2;"/>
   </g>
   <g id="line2d_78">
    <path clip-path="url(#p73d0f1f8e2)" d="M 348.145149 71.244139 
L 351.443375 74.402826 
L 351.443375 74.402826 
" style="fill:none;stroke:#0066ff;stroke-linecap:square;stroke-width:2;"/>
   </g>
   <g id="line2d_79">
    <path clip-path="url(#p73d0f1f8e2)" d="M 394.320323 23.863844 
L 397.61855 27.02253 
L 397.61855 27.02253 
" style="fill:none;stroke:#0066ff;stroke-linecap:square;stroke-width:2;"/>
   </g>
   <g id="line2d_80">
    <path clip-path="url(#p73d0f1f8e2)" d="M 400.916777 23.512878 
L 404.215003 26.671565 
L 404.215003 26.671565 
" style="fill:none;stroke:#0066ff;stroke-linecap:square;stroke-width:2;"/>
   </g>
   <g id="line2d_81">
    <path clip-path="url(#p73d0f1f8e2)" d="M 407.51323 30.532182 
L 410.811457 33.690868 
L 410.811457 33.690868 
" style="fill:none;stroke:#0066ff;stroke-linecap:square;stroke-width:2;"/>
   </g>
   <g id="line2d_82">
    <path clip-path="url(#p73d0f1f8e2)" d="M 440.495498 70.542209 
L 443.793724 73.700895 
L 443.793724 73.700895 
" style="fill:none;stroke:#0066ff;stroke-linecap:square;stroke-width:2;"/>
   </g>
   <g id="line2d_83">
    <path clip-path="url(#p73d0f1f8e2)" d="M 447.091951 77.561512 
L 450.390178 80.720198 
L 450.390178 80.720198 
" style="fill:none;stroke:#0066ff;stroke-linecap:square;stroke-width:2;"/>
   </g>
   <g id="line2d_84">
    <path clip-path="url(#p73d0f1f8e2)" d="M 453.688405 77.210547 
L 456.986631 80.369233 
L 456.986631 80.369233 
" style="fill:none;stroke:#0066ff;stroke-linecap:square;stroke-width:2;"/>
   </g>
   <g id="line2d_85">
    <path clip-path="url(#p73d0f1f8e2)" d="M 499.863579 29.830251 
L 503.161806 32.988938 
L 503.161806 32.988938 
" style="fill:none;stroke:#0066ff;stroke-linecap:square;stroke-width:2;"/>
   </g>
   <g id="line2d_86">
    <path clip-path="url(#p73d0f1f8e2)" d="M 506.460033 29.479286 
L 509.758259 32.637972 
L 509.758259 32.637972 
" style="fill:none;stroke:#0066ff;stroke-linecap:square;stroke-width:2;"/>
   </g>
   <g id="line2d_87">
    <path clip-path="url(#p73d0f1f8e2)" d="M 513.056486 29.128321 
L 519.65294 35.445694 
L 519.65294 35.445694 
" style="fill:none;stroke:#0066ff;stroke-linecap:square;stroke-width:2;"/>
   </g>
   <g id="line2d_88">
    <path clip-path="url(#p73d0f1f8e2)" d="M 522.951166 39.30631 
L 526.249393 42.464997 
L 526.249393 42.464997 
" style="fill:none;stroke:#0066ff;stroke-linecap:square;stroke-width:2;"/>
   </g>
   <g id="line2d_89">
    <path clip-path="url(#p73d0f1f8e2)" d="M 529.54762 46.325613 
L 532.845846 49.4843 
L 532.845846 49.4843 
" style="fill:none;stroke:#0066ff;stroke-linecap:square;stroke-width:2;"/>
   </g>
   <g id="line2d_90">
    <path clip-path="url(#p73d0f1f8e2)" d="M 298.671748 30.883147 
L 301.969974 34.743763 
L 301.969974 34.743763 
" style="fill:none;stroke:#3200ff;stroke-linecap:square;stroke-width:2;"/>
   </g>
   <g id="line2d_91">
    <path clip-path="url(#p73d0f1f8e2)" d="M 305.268201 38.955345 
L 308.566428 42.815962 
L 308.566428 42.815962 
" style="fill:none;stroke:#3200ff;stroke-linecap:square;stroke-width:2;"/>
   </g>
   <g id="line2d_92">
    <path clip-path="url(#p73d0f1f8e2)" d="M 311.864655 47.027544 
L 318.461108 54.748777 
L 318.461108 54.748777 
" style="fill:none;stroke:#3200ff;stroke-linecap:square;stroke-width:2;"/>
   </g>
   <g id="line2d_93">
    <path clip-path="url(#p73d0f1f8e2)" d="M 321.759335 57.907463 
L 325.057562 61.76808 
L 325.057562 61.76808 
" style="fill:none;stroke:#3200ff;stroke-linecap:square;stroke-width:2;"/>
   </g>
   <g id="line2d_94">
    <path clip-path="url(#p73d0f1f8e2)" d="M 328.355788 64.926767 
L 331.654015 68.787383 
L 331.654015 68.787383 
" style="fill:none;stroke:#3200ff;stroke-linecap:square;stroke-width:2;"/>
   </g>
   <g id="line2d_95">
    <path clip-path="url(#p73d0f1f8e2)" d="M 404.215003 26.671565 
L 407.51323 30.532182 
L 407.51323 30.532182 
" style="fill:none;stroke:#3200ff;stroke-linecap:square;stroke-width:2;"/>
   </g>
   <g id="line2d_96">
    <path clip-path="url(#p73d0f1f8e2)" d="M 410.811457 33.690868 
L 414.109684 37.551485 
L 414.109684 37.551485 
" style="fill:none;stroke:#3200ff;stroke-linecap:square;stroke-width:2;"/>
   </g>
   <g id="line2d_97">
    <path clip-path="url(#p73d0f1f8e2)" d="M 417.40791 41.763066 
L 420.706137 45.623683 
L 420.706137 45.623683 
" style="fill:none;stroke:#3200ff;stroke-linecap:square;stroke-width:2;"/>
   </g>
   <g id="line2d_98">
    <path clip-path="url(#p73d0f1f8e2)" d="M 430.600817 58.609394 
L 433.899044 62.47001 
L 433.899044 62.47001 
" style="fill:none;stroke:#3200ff;stroke-linecap:square;stroke-width:2;"/>
   </g>
   <g id="line2d_99">
    <path clip-path="url(#p73d0f1f8e2)" d="M 437.197271 66.681592 
L 440.495498 70.542209 
L 440.495498 70.542209 
" style="fill:none;stroke:#3200ff;stroke-linecap:square;stroke-width:2;"/>
   </g>
   <g id="line2d_100">
    <path clip-path="url(#p73d0f1f8e2)" d="M 443.793724 73.700895 
L 447.091951 77.561512 
L 447.091951 77.561512 
" style="fill:none;stroke:#3200ff;stroke-linecap:square;stroke-width:2;"/>
   </g>
   <g id="line2d_101">
    <path clip-path="url(#p73d0f1f8e2)" d="M 519.65294 35.445694 
L 522.951166 39.30631 
L 522.951166 39.30631 
" style="fill:none;stroke:#3200ff;stroke-linecap:square;stroke-width:2;"/>
   </g>
   <g id="line2d_102">
    <path clip-path="url(#p73d0f1f8e2)" d="M 526.249393 42.464997 
L 529.54762 46.325613 
L 529.54762 46.325613 
" style="fill:none;stroke:#3200ff;stroke-linecap:square;stroke-width:2;"/>
   </g>
   <g id="line2d_103">
    <path clip-path="url(#p73d0f1f8e2)" d="M 532.845846 49.4843 
L 539.4423 57.205533 
L 539.4423 57.205533 
" style="fill:none;stroke:#3200ff;stroke-linecap:square;stroke-width:2;"/>
   </g>
   <g id="line2d_104">
    <path clip-path="url(#p73d0f1f8e2)" d="M 542.740527 61.417115 
L 546.038753 65.277732 
L 546.038753 65.277732 
" style="fill:none;stroke:#3200ff;stroke-linecap:square;stroke-width:2;"/>
   </g>
   <g id="line2d_105">
    <path clip-path="url(#p73d0f1f8e2)" d="M 549.33698 69.489314 
L 552.635207 73.34993 
L 552.635207 73.34993 
" style="fill:none;stroke:#3200ff;stroke-linecap:square;stroke-width:2;"/>
   </g>
   <g id="line2d_106">
    <path clip-path="url(#p73d0f1f8e2)" d="M 44.708288 49.4843 
L 48.006515 46.325613 
L 48.006515 46.325613 
" style="fill:none;stroke:#cc00ff;stroke-linecap:square;stroke-width:2;"/>
   </g>
   <g id="line2d_107">
    <path clip-path="url(#p73d0f1f8e2)" d="M 51.304742 42.464997 
L 54.602968 39.30631 
L 54.602968 39.30631 
" style="fill:none;stroke:#cc00ff;stroke-linecap:square;stroke-width:2;"/>
   </g>
   <g id="line2d_108">
    <path clip-path="url(#p73d0f1f8e2)" d="M 57.901195 35.445694 
L 64.497649 29.128321 
L 64.497649 29.128321 
" style="fill:none;stroke:#cc00ff;stroke-linecap:square;stroke-width:2;"/>
   </g>
   <g id="line2d_109">
    <path clip-path="url(#p73d0f1f8e2)" d="M 67.795875 32.637972 
L 71.094102 29.479286 
L 71.094102 29.479286 
" style="fill:none;stroke:#cc00ff;stroke-linecap:square;stroke-width:2;"/>
   </g>
   <g id="line2d_110">
    <path clip-path="url(#p73d0f1f8e2)" d="M 74.392329 32.988938 
L 77.690556 29.830251 
L 77.690556 29.830251 
" style="fill:none;stroke:#cc00ff;stroke-linecap:square;stroke-width:2;"/>
   </g>
   <g id="line2d_111">
    <path clip-path="url(#p73d0f1f8e2)" d="M 120.567503 80.369233 
L 123.86573 77.210547 
L 123.86573 77.210547 
" style="fill:none;stroke:#cc00ff;stroke-linecap:square;stroke-width:2;"/>
   </g>
   <g id="line2d_112">
    <path clip-path="url(#p73d0f1f8e2)" d="M 127.163957 80.720198 
L 130.462184 77.561512 
L 130.462184 77.561512 
" style="fill:none;stroke:#cc00ff;stroke-linecap:square;stroke-width:2;"/>
   </g>
   <g id="line2d_113">
    <path clip-path="url(#p73d0f1f8e2)" d="M 133.76041 73.700895 
L 137.058637 70.542209 
L 137.058637 70.542209 
" style="fill:none;stroke:#cc00ff;stroke-linecap:square;stroke-width:2;"/>
   </g>
   <g id="line2d_114">
    <path clip-path="url(#p73d0f1f8e2)" d="M 166.742678 33.690868 
L 170.040904 30.532182 
L 170.040904 30.532182 
" style="fill:none;stroke:#cc00ff;stroke-linecap:square;stroke-width:2;"/>
   </g>
   <g id="line2d_115">
    <path clip-path="url(#p73d0f1f8e2)" d="M 173.339131 26.671565 
L 176.637358 23.512878 
L 176.637358 23.512878 
" style="fill:none;stroke:#cc00ff;stroke-linecap:square;stroke-width:2;"/>
   </g>
   <g id="line2d_116">
    <path clip-path="url(#p73d0f1f8e2)" d="M 179.935585 27.02253 
L 183.233811 23.863844 
L 183.233811 23.863844 
" style="fill:none;stroke:#cc00ff;stroke-linecap:square;stroke-width:2;"/>
   </g>
   <g id="line2d_117">
    <path clip-path="url(#p73d0f1f8e2)" d="M 226.110759 74.402826 
L 229.408986 71.244139 
L 229.408986 71.244139 
" style="fill:none;stroke:#cc00ff;stroke-linecap:square;stroke-width:2;"/>
   </g>
   <g id="line2d_118">
    <path clip-path="url(#p73d0f1f8e2)" d="M 232.707213 74.753791 
L 236.005439 71.595104 
L 236.005439 71.595104 
" style="fill:none;stroke:#cc00ff;stroke-linecap:square;stroke-width:2;"/>
   </g>
   <g id="line2d_119">
    <path clip-path="url(#p73d0f1f8e2)" d="M 239.303666 75.104756 
L 245.90012 68.787383 
L 245.90012 68.787383 
" style="fill:none;stroke:#cc00ff;stroke-linecap:square;stroke-width:2;"/>
   </g>
   <g id="line2d_120">
    <path clip-path="url(#p73d0f1f8e2)" d="M 249.198346 64.926767 
L 252.496573 61.76808 
L 252.496573 61.76808 
" style="fill:none;stroke:#cc00ff;stroke-linecap:square;stroke-width:2;"/>
   </g>
   <g id="line2d_121">
    <path clip-path="url(#p73d0f1f8e2)" d="M 255.7948 57.907463 
L 259.093027 54.748777 
L 259.093027 54.748777 
" style="fill:none;stroke:#cc00ff;stroke-linecap:square;stroke-width:2;"/>
   </g>
   <g id="line2d_122">
    <path clip-path="url(#p73d0f1f8e2)" d="M 18.322474 81.773094 
L 24.918928 73.34993 
L 24.918928 73.34993 
" style="fill:none;stroke:#ff0098;stroke-linecap:square;stroke-width:2;"/>
   </g>
   <g id="line2d_123">
    <path clip-path="url(#p73d0f1f8e2)" d="M 28.217154 69.489314 
L 31.515381 65.277732 
L 31.515381 65.277732 
" style="fill:none;stroke:#ff0098;stroke-linecap:square;stroke-width:2;"/>
   </g>
   <g id="line2d_124">
    <path clip-path="url(#p73d0f1f8e2)" d="M 34.813608 61.417115 
L 38.111835 57.205533 
L 38.111835 57.205533 
" style="fill:none;stroke:#ff0098;stroke-linecap:square;stroke-width:2;"/>
   </g>
   <g id="line2d_125">
    <path clip-path="url(#p73d0f1f8e2)" d="M 140.356864 66.681592 
L 143.65509 62.47001 
L 143.65509 62.47001 
" style="fill:none;stroke:#ff0098;stroke-linecap:square;stroke-width:2;"/>
   </g>
   <g id="line2d_126">
    <path clip-path="url(#p73d0f1f8e2)" d="M 146.953317 58.609394 
L 150.251544 54.397812 
L 150.251544 54.397812 
" style="fill:none;stroke:#ff0098;stroke-linecap:square;stroke-width:2;"/>
   </g>
   <g id="line2d_127">
    <path clip-path="url(#p73d0f1f8e2)" d="M 153.549771 49.835265 
L 156.847997 45.623683 
L 156.847997 45.623683 
" style="fill:none;stroke:#ff0098;stroke-linecap:square;stroke-width:2;"/>
   </g>
   <g id="line2d_128">
    <path clip-path="url(#p73d0f1f8e2)" d="M 160.146224 41.763066 
L 163.444451 37.551485 
L 163.444451 37.551485 
" style="fill:none;stroke:#ff0098;stroke-linecap:square;stroke-width:2;"/>
   </g>
   <g id="line2d_129">
    <path clip-path="url(#p73d0f1f8e2)" d="M 265.68948 47.027544 
L 268.987707 42.815962 
L 268.987707 42.815962 
" style="fill:none;stroke:#ff0098;stroke-linecap:square;stroke-width:2;"/>
   </g>
   <g id="line2d_130">
    <path clip-path="url(#p73d0f1f8e2)" d="M 272.285934 38.955345 
L 275.58416 34.743763 
L 275.58416 34.743763 
" style="fill:none;stroke:#ff0098;stroke-linecap:square;stroke-width:2;"/>
   </g>
   <g id="line2d_131">
    <path clip-path="url(#p73d0f1f8e2)" d="M 278.882387 30.883147 
L 285.478841 22.459983 
L 285.478841 22.459983 
" style="fill:none;stroke:#ff0098;stroke-linecap:square;stroke-width:2;"/>
   </g>
   <g id="line2d_132">
    <path clip-path="url(#p73d0f1f8e2)" d="M 358.039829 67.383523 
L 361.338056 63.171941 
L 361.338056 63.171941 
" style="fill:none;stroke:#ff0098;stroke-linecap:square;stroke-width:2;"/>
   </g>
   <g id="line2d_133">
    <path clip-path="url(#p73d0f1f8e2)" d="M 364.636282 59.662289 
L 367.934509 55.450707 
L 367.934509 55.450707 
" style="fill:none;stroke:#ff0098;stroke-linecap:square;stroke-width:2;"/>
   </g>
   <g id="line2d_134">
    <path clip-path="url(#p73d0f1f8e2)" d="M 371.232736 51.941056 
L 384.425643 35.094729 
L 384.425643 35.094729 
" style="fill:none;stroke:#ff0098;stroke-linecap:square;stroke-width:2;"/>
   </g>
   <g id="line2d_135">
    <path clip-path="url(#p73d0f1f8e2)" d="M 387.72387 31.585077 
L 391.022096 27.373495 
L 391.022096 27.373495 
" style="fill:none;stroke:#ff0098;stroke-linecap:square;stroke-width:2;"/>
   </g>
   <g id="line2d_136">
    <path clip-path="url(#p73d0f1f8e2)" d="M 460.284858 76.859582 
L 463.583085 72.648 
L 463.583085 72.648 
" style="fill:none;stroke:#ff0098;stroke-linecap:square;stroke-width:2;"/>
   </g>
   <g id="line2d_137">
    <path clip-path="url(#p73d0f1f8e2)" d="M 466.881312 69.138348 
L 480.074219 52.292021 
L 480.074219 52.292021 
" style="fill:none;stroke:#ff0098;stroke-linecap:square;stroke-width:2;"/>
   </g>
   <g id="line2d_138">
    <path clip-path="url(#p73d0f1f8e2)" d="M 483.372445 48.78237 
L 486.670672 44.570788 
L 486.670672 44.570788 
" style="fill:none;stroke:#ff0098;stroke-linecap:square;stroke-width:2;"/>
   </g>
   <g id="line2d_139">
    <path clip-path="url(#p73d0f1f8e2)" d="M 489.968899 41.061136 
L 493.267126 36.849554 
L 493.267126 36.849554 
" style="fill:none;stroke:#ff0098;stroke-linecap:square;stroke-width:2;"/>
   </g>
   <g id="matplotlib.axis_1">
    <g id="xtick_1">
     <g id="line2d_140">
      <path clip-path="url(#p73d0f1f8e2)" d="M 15.024247 87.704405 
L 15.024247 16.528672 
" style="fill:none;stroke:#000000;stroke-dasharray:0.5,0.825;stroke-dashoffset:0;stroke-width:0.5;"/>
     </g>
     <g id="line2d_141">
      <defs>
       <path d="M 0 0 
L 0 3.5 
" id="mf3d2c2cac2" style="stroke:#000000;stroke-width:0.8;"/>
      </defs>
      <g>
       <use style="stroke:#000000;stroke-width:0.8;" x="15.024247" xlink:href="#mf3d2c2cac2" y="86.335641"/>
      </g>
     </g>
    </g>
    <g id="xtick_2">
     <g id="line2d_142">
      <path clip-path="url(#p73d0f1f8e2)" d="M 288.777067 87.704405 
L 288.777067 16.528672 
" style="fill:none;stroke:#000000;stroke-dasharray:0.5,0.825;stroke-dashoffset:0;stroke-width:0.5;"/>
     </g>
     <g id="line2d_143">
      <g>
       <use style="stroke:#000000;stroke-width:0.8;" x="288.777067" xlink:href="#mf3d2c2cac2" y="86.335641"/>
      </g>
     </g>
     <g id="text_1">
      <!-- $f$ -->
      <defs>
       <path d="M 9.71875 -16.5 
Q 11.578125 -17.921875 14.203125 -17.921875 
Q 17.78125 -17.921875 20.015625 -10.015625 
Q 20.953125 -6.203125 25.09375 15.09375 
L 29.6875 39.59375 
L 21.09375 39.59375 
Q 20.125 39.59375 20.125 40.921875 
Q 20.515625 43.109375 21.390625 43.109375 
L 30.328125 43.109375 
L 31.5 49.609375 
Q 32.078125 52.640625 32.5625 54.8125 
Q 33.0625 56.984375 33.625 58.828125 
Q 34.1875 60.6875 35.296875 62.984375 
Q 37.015625 66.265625 39.921875 68.390625 
Q 42.828125 70.515625 46.1875 70.515625 
Q 48.390625 70.515625 50.46875 69.703125 
Q 52.546875 68.890625 53.859375 67.28125 
Q 55.171875 65.671875 55.171875 63.484375 
Q 55.171875 60.9375 53.484375 59.046875 
Q 51.8125 57.171875 49.421875 57.171875 
Q 47.796875 57.171875 46.65625 58.171875 
Q 45.515625 59.1875 45.515625 60.796875 
Q 45.515625 62.984375 47 64.625 
Q 48.484375 66.265625 50.6875 66.5 
Q 48.828125 67.921875 46.09375 67.921875 
Q 44.578125 67.921875 43.234375 66.5 
Q 41.890625 65.09375 41.5 63.484375 
Q 40.875 60.9375 38.71875 49.703125 
L 37.5 43.109375 
L 47.796875 43.109375 
Q 48.78125 43.109375 48.78125 41.796875 
Q 48.734375 41.546875 48.578125 40.9375 
Q 48.4375 40.328125 48.171875 39.953125 
Q 47.90625 39.59375 47.515625 39.59375 
L 36.8125 39.59375 
L 32.171875 15.1875 
Q 31.296875 9.859375 30.140625 4.359375 
Q 29 -1.125 26.921875 -6.90625 
Q 24.859375 -12.703125 21.625 -16.609375 
Q 18.40625 -20.515625 14.015625 -20.515625 
Q 10.640625 -20.515625 7.984375 -18.578125 
Q 5.328125 -16.65625 5.328125 -13.484375 
Q 5.328125 -10.9375 6.953125 -9.046875 
Q 8.59375 -7.171875 11.078125 -7.171875 
Q 12.75 -7.171875 13.859375 -8.171875 
Q 14.984375 -9.1875 14.984375 -10.796875 
Q 14.984375 -12.9375 13.390625 -14.71875 
Q 11.8125 -16.5 9.71875 -16.5 
z
" id="Cmmi10-66"/>
      </defs>
      <g transform="translate(286.327067 100.913766)scale(0.1 -0.1)">
       <use transform="translate(0 0.484375)" xlink:href="#Cmmi10-66"/>
      </g>
     </g>
    </g>
    <g id="xtick_3">
     <g id="line2d_144">
      <path clip-path="url(#p73d0f1f8e2)" d="M 562.529887 87.704405 
L 562.529887 16.528672 
" style="fill:none;stroke:#000000;stroke-dasharray:0.5,0.825;stroke-dashoffset:0;stroke-width:0.5;"/>
     </g>
     <g id="line2d_145">
      <g>
       <use style="stroke:#000000;stroke-width:0.8;" x="562.529887" xlink:href="#mf3d2c2cac2" y="86.335641"/>
      </g>
     </g>
     <g id="text_2">
      <!-- $1$ -->
      <defs>
       <path d="M 9.28125 0 
L 9.28125 3.515625 
Q 21.78125 3.515625 21.78125 6.6875 
L 21.78125 59.1875 
Q 16.609375 56.6875 8.6875 56.6875 
L 8.6875 60.203125 
Q 20.953125 60.203125 27.203125 66.609375 
L 28.609375 66.609375 
Q 28.953125 66.609375 29.265625 66.328125 
Q 29.59375 66.0625 29.59375 65.71875 
L 29.59375 6.6875 
Q 29.59375 3.515625 42.09375 3.515625 
L 42.09375 0 
z
" id="Cmr10-31"/>
      </defs>
      <g transform="translate(560.029887 100.934078)scale(0.1 -0.1)">
       <use transform="translate(0 0.390625)" xlink:href="#Cmr10-31"/>
      </g>
     </g>
    </g>
   </g>
   <g id="matplotlib.axis_2">
    <g id="ytick_1">
     <g id="line2d_146">
      <path clip-path="url(#p73d0f1f8e2)" d="M 4.074135 86.335641 
L 573.48 86.335641 
" style="fill:none;stroke:#000000;stroke-dasharray:0.5,0.825;stroke-dashoffset:0;stroke-width:0.5;"/>
     </g>
     <g id="line2d_147">
      <defs>
       <path d="M 0 0 
L -3.5 0 
" id="m4527cfef3f" style="stroke:#000000;stroke-width:0.8;"/>
      </defs>
      <g>
       <use style="stroke:#000000;stroke-width:0.8;" x="15.024247" xlink:href="#m4527cfef3f" y="86.335641"/>
      </g>
     </g>
    </g>
    <g id="ytick_2">
     <g id="line2d_148">
      <path clip-path="url(#p73d0f1f8e2)" d="M 4.074135 17.897436 
L 573.48 17.897436 
" style="fill:none;stroke:#000000;stroke-dasharray:0.5,0.825;stroke-dashoffset:0;stroke-width:0.5;"/>
     </g>
     <g id="line2d_149">
      <g>
       <use style="stroke:#000000;stroke-width:0.8;" x="15.024247" xlink:href="#m4527cfef3f" y="17.897436"/>
      </g>
     </g>
     <g id="text_3">
      <!-- $1$ -->
      <g transform="translate(3.024247 21.696655)scale(0.1 -0.1)">
       <use transform="translate(0 0.390625)" xlink:href="#Cmr10-31"/>
      </g>
     </g>
    </g>
   </g>
   <g id="patch_3">
    <path d="M 15.024247 87.704405 
L 15.024247 16.528672 
" style="fill:none;stroke:#000000;stroke-linecap:square;stroke-linejoin:miter;stroke-width:0.8;"/>
   </g>
   <g id="patch_4">
    <path d="M 4.074135 86.335641 
L 573.48 86.335641 
" style="fill:none;stroke:#000000;stroke-linecap:square;stroke-linejoin:miter;stroke-width:0.8;"/>
   </g>
  </g>
 </g>
 <defs>
  <clipPath id="p73d0f1f8e2">
   <rect height="71.175733" width="569.405865" x="4.074135" y="16.528672"/>
  </clipPath>
 </defs>
</svg>
