<?xml version="1.0" encoding="utf-8" standalone="no"?>
<!DOCTYPE svg PUBLIC "-//W3C//DTD SVG 1.1//EN"
  "http://www.w3.org/Graphics/SVG/1.1/DTD/svg11.dtd">
<!-- Created with matplotlib (http://matplotlib.org/) -->
<svg height="108pt" version="1.1" viewBox="0 0 576 108" width="576pt" xmlns="http://www.w3.org/2000/svg" xmlns:xlink="http://www.w3.org/1999/xlink">
 <defs>
  <style type="text/css">
*{stroke-linecap:butt;stroke-linejoin:round;}
  </style>
 </defs>
 <g id="figure_1">
  <g id="patch_1">
   <path d="M 0 108 
L 576 108 
L 576 0 
L 0 0 
z
" style="fill:#ffffff;"/>
  </g>
  <g id="axes_1">
   <g id="patch_2">
    <path d="M 4.074135 87.704405 
L 573.48 87.704405 
L 573.48 16.528672 
L 4.074135 16.528672 
z
" style="fill:#ffffff;"/>
   </g>
   <g id="line2d_1">
    <path clip-path="url(#p1c3b8273e6)" d="M 106.275187 17.897436 
L 151.900657 65.804179 
L 151.900657 65.804179 
" style="fill:none;stroke:#ff0000;stroke-linecap:square;stroke-width:2;"/>
   </g>
   <g id="line2d_2">
    <path clip-path="url(#p1c3b8273e6)" d="M 516.904417 38.428897 
L 517.104854 38.639356 
L 517.465403 39.017933 
L 517.544135 39.100601 
L 517.855137 39.427153 
L 517.957071 39.534184 
L 518.358239 39.95541 
L 518.607457 40.217089 
L 518.656674 40.268767 
L 518.877883 40.501037 
L 519.22004 40.860301 
L 519.38601 41.03457 
L 519.706436 41.371017 
L 519.908991 41.5837 
L 520.093258 41.777181 
L 520.25177 41.943618 
L 520.662884 42.375287 
L 520.866703 42.589297 
L 520.975819 42.70387 
L 521.194606 42.933595 
L 521.563576 43.321014 
L 521.672504 43.435389 
L 521.835385 43.606413 
L 522.072149 43.855016 
L 522.517687 44.32283 
L 522.616268 44.426341 
L 522.907905 44.73256 
L 523.201705 45.04105 
L 523.250489 45.092273 
L 523.55515 45.412167 
L 523.80219 45.671558 
L 523.908218 45.782888 
L 524.284174 46.177642 
L 524.513957 46.418914 
L 524.604294 46.513768 
L 525.040642 46.971934 
L 525.087021 47.020631 
L 525.275255 47.218277 
L 525.531999 47.487859 
L 525.772666 47.740559 
L 526.015726 47.995772 
L 526.223443 48.213874 
L 526.473545 48.476482 
L 526.715708 48.730752 
L 527.058204 49.090373 
L 527.17272 49.210615 
L 527.50267 49.557063 
L 527.613245 49.673167 
L 527.87974 49.952987 
L 528.091996 50.175855 
L 528.346128 50.442694 
L 528.610783 50.720581 
L 528.928429 51.054109 
L 529.039822 51.171072 
L 529.39037 51.539148 
L 529.605649 51.765191 
L 529.73272 51.898615 
L 530.017315 52.197441 
L 530.241397 52.432726 
L 530.446703 52.648298 
L 530.635752 52.846799 
L 530.963164 53.190582 
L 531.135638 53.371679 
L 531.363121 53.610537 
L 531.685326 53.948851 
L 531.7004 53.964679 
L 532.082781 54.36618 
L 532.246828 54.538429 
L 532.601211 54.91053 
L 532.710531 55.025317 
L 533.038222 55.369392 
L 533.132781 55.468679 
L 533.409752 55.759499 
L 533.605933 55.965489 
L 533.944221 56.320692 
L 534.088157 56.471825 
L 534.307201 56.70182 
L 534.590271 56.999044 
L 534.690107 57.103872 
L 535.042878 57.474281 
L 535.202605 57.641994 
L 535.398287 57.847461 
L 535.59311 58.052025 
L 535.953436 58.430367 
L 536.06127 58.543593 
L 536.493166 58.997083 
L 536.72831 59.243985 
L 536.778637 59.296828 
L 537.025789 59.556338 
L 537.253785 59.795734 
L 537.634794 60.195793 
L 537.792959 60.361866 
L 538.054334 60.636311 
L 538.193774 60.782722 
L 538.391045 60.989857 
L 538.664301 61.276775 
L 538.813678 61.433621 
L 539.079014 61.712224 
L 539.46775 62.120397 
L 539.686496 62.35008 
L 539.918511 62.593696 
L 540.117233 62.802354 
L 540.326828 63.022429 
L 540.542277 63.24865 
L 540.835109 63.556124 
L 541.08116 63.814477 
L 541.276893 64.019997 
L 541.421854 64.172206 
L 541.633337 64.394263 
L 541.823659 64.594101 
L 542.023446 64.803878 
" style="fill:none;stroke:#ff0000;stroke-linecap:square;stroke-width:2;"/>
   </g>
   <g id="line2d_3">
    <path clip-path="url(#p1c3b8273e6)" d="M 542.855148 65.677164 
L 542.980807 65.809107 
L 543.225812 66.066362 
L 543.589694 66.448438 
L 543.808904 66.678609 
L 543.869538 66.742275 
L 544.248536 67.140222 
L 544.516846 67.421948 
L 544.736962 67.65307 
L 544.944051 67.870513 
L 545.109085 68.043798 
L 545.444287 68.395761 
L 545.674135 68.637101 
L 545.803407 68.772837 
L 545.994236 68.973207 
L 546.289754 69.283501 
L 546.462527 69.464913 
L 546.788087 69.806751 
L 546.955661 69.982704 
L 547.175097 70.213111 
L 547.468615 70.521305 
L 547.54839 70.605069 
L 547.965809 71.043358 
L 548.003126 71.082542 
L 548.331955 71.427812 
L 548.555581 71.662619 
L 548.726346 71.841923 
L 548.983681 72.112124 
L 549.294177 72.438145 
L 549.370933 72.518739 
L 549.740191 72.90646 
L 549.852892 73.024796 
L 550.162871 73.350274 
L 550.402778 73.602176 
L 550.521584 73.726923 
L 550.754974 73.971982 
L 550.95405 74.181012 
L 551.369794 74.617544 
L 551.588876 74.847579 
L 551.686828 74.950429 
L 551.99335 75.272277 
L 552.156531 75.443616 
L 552.399378 75.698606 
L 552.737977 76.054136 
L 552.902456 76.226838 
L 553.221849 76.562201 
L 553.255256 76.597279 
L 553.628602 76.989291 
L 553.890586 77.264375 
L 553.954172 77.33114 
L 554.355858 77.75291 
L 554.467022 77.869633 
L 554.744772 78.16127 
L 554.849676 78.271419 
L 555.258828 78.701029 
L 555.47229 78.925164 
L 555.590232 79.049003 
L 555.920689 79.395983 
L 556.091787 79.575636 
L 556.250017 79.741777 
L 556.530468 80.036251 
L 556.839426 80.360656 
L 557.01865 80.548842 
L 557.213391 80.75332 
L 557.481618 81.034959 
L 557.734818 81.300819 
L 558.033281 81.614205 
L 558.090975 81.674783 
L 558.386006 81.984566 
L 558.671805 82.284655 
L 558.821738 82.442084 
L 559.064385 82.696863 
L 559.297432 82.941563 
L 559.54513 83.201646 
L 559.784216 83.452686 
L 559.96216 83.639527 
L 560.275345 83.968372 
L 560.541226 84.247546 
L 560.738788 84.454987 
L 560.970124 84.69789 
L 561.163889 84.901342 
L 561.379467 85.1277 
L 561.561828 85.319179 
L 561.752156 85.519023 
L 562.115574 85.900612 
L 562.1957 85.984744 
L 562.529887 86.335641 
" style="fill:none;stroke:#ff0000;stroke-linecap:square;stroke-width:2;"/>
   </g>
   <g id="line2d_4">
    <path clip-path="url(#p1c3b8273e6)" d="M 197.526127 31.585077 
L 471.278947 72.648 
L 471.278947 72.648 
" style="fill:none;stroke:#00ff00;stroke-linecap:square;stroke-width:2;"/>
   </g>
   <g id="line2d_5">
    <path clip-path="url(#p1c3b8273e6)" d="M 15.024247 86.335641 
L 106.275187 17.897436 
L 106.275187 17.897436 
" style="fill:none;stroke:#0000ff;stroke-linecap:square;stroke-width:2;"/>
   </g>
   <g id="line2d_6">
    <path clip-path="url(#p1c3b8273e6)" d="M 151.900657 65.804179 
L 197.526127 31.585077 
L 197.526127 31.585077 
" style="fill:none;stroke:#0000ff;stroke-linecap:square;stroke-width:2;"/>
   </g>
   <g id="line2d_7">
    <path clip-path="url(#p1c3b8273e6)" d="M 471.278947 72.648 
L 516.904417 38.428897 
L 516.904417 38.428897 
" style="fill:none;stroke:#0000ff;stroke-linecap:square;stroke-width:2;"/>
   </g>
   <g id="matplotlib.axis_1">
    <g id="xtick_1">
     <g id="line2d_8">
      <path clip-path="url(#p1c3b8273e6)" d="M 15.024247 87.704405 
L 15.024247 16.528672 
" style="fill:none;stroke:#000000;stroke-dasharray:0.5,0.825;stroke-dashoffset:0;stroke-width:0.5;"/>
     </g>
     <g id="line2d_9">
      <defs>
       <path d="M 0 0 
L 0 3.5 
" id="ma76cd28a65" style="stroke:#000000;stroke-width:0.8;"/>
      </defs>
      <g>
       <use style="stroke:#000000;stroke-width:0.8;" x="15.024247" xlink:href="#ma76cd28a65" y="86.335641"/>
      </g>
     </g>
    </g>
    <g id="xtick_2">
     <g id="line2d_10">
      <path clip-path="url(#p1c3b8273e6)" d="M 106.275187 87.704405 
L 106.275187 16.528672 
" style="fill:none;stroke:#000000;stroke-dasharray:0.5,0.825;stroke-dashoffset:0;stroke-width:0.5;"/>
     </g>
     <g id="line2d_11">
      <g>
       <use style="stroke:#000000;stroke-width:0.8;" x="106.275187" xlink:href="#ma76cd28a65" y="86.335641"/>
      </g>
     </g>
     <g id="text_1">
      <!-- $f$ -->
      <defs>
       <path d="M 9.71875 -16.5 
Q 11.578125 -17.921875 14.203125 -17.921875 
Q 17.78125 -17.921875 20.015625 -10.015625 
Q 20.953125 -6.203125 25.09375 15.09375 
L 29.6875 39.59375 
L 21.09375 39.59375 
Q 20.125 39.59375 20.125 40.921875 
Q 20.515625 43.109375 21.390625 43.109375 
L 30.328125 43.109375 
L 31.5 49.609375 
Q 32.078125 52.640625 32.5625 54.8125 
Q 33.0625 56.984375 33.625 58.828125 
Q 34.1875 60.6875 35.296875 62.984375 
Q 37.015625 66.265625 39.921875 68.390625 
Q 42.828125 70.515625 46.1875 70.515625 
Q 48.390625 70.515625 50.46875 69.703125 
Q 52.546875 68.890625 53.859375 67.28125 
Q 55.171875 65.671875 55.171875 63.484375 
Q 55.171875 60.9375 53.484375 59.046875 
Q 51.8125 57.171875 49.421875 57.171875 
Q 47.796875 57.171875 46.65625 58.171875 
Q 45.515625 59.1875 45.515625 60.796875 
Q 45.515625 62.984375 47 64.625 
Q 48.484375 66.265625 50.6875 66.5 
Q 48.828125 67.921875 46.09375 67.921875 
Q 44.578125 67.921875 43.234375 66.5 
Q 41.890625 65.09375 41.5 63.484375 
Q 40.875 60.9375 38.71875 49.703125 
L 37.5 43.109375 
L 47.796875 43.109375 
Q 48.78125 43.109375 48.78125 41.796875 
Q 48.734375 41.546875 48.578125 40.9375 
Q 48.4375 40.328125 48.171875 39.953125 
Q 47.90625 39.59375 47.515625 39.59375 
L 36.8125 39.59375 
L 32.171875 15.1875 
Q 31.296875 9.859375 30.140625 4.359375 
Q 29 -1.125 26.921875 -6.90625 
Q 24.859375 -12.703125 21.625 -16.609375 
Q 18.40625 -20.515625 14.015625 -20.515625 
Q 10.640625 -20.515625 7.984375 -18.578125 
Q 5.328125 -16.65625 5.328125 -13.484375 
Q 5.328125 -10.9375 6.953125 -9.046875 
Q 8.59375 -7.171875 11.078125 -7.171875 
Q 12.75 -7.171875 13.859375 -8.171875 
Q 14.984375 -9.1875 14.984375 -10.796875 
Q 14.984375 -12.9375 13.390625 -14.71875 
Q 11.8125 -16.5 9.71875 -16.5 
z
" id="Cmmi10-66"/>
      </defs>
      <g transform="translate(103.825187 100.913766)scale(0.1 -0.1)">
       <use transform="translate(0 0.484375)" xlink:href="#Cmmi10-66"/>
      </g>
     </g>
    </g>
    <g id="xtick_3">
     <g id="line2d_12">
      <path clip-path="url(#p1c3b8273e6)" d="M 562.529887 87.704405 
L 562.529887 16.528672 
" style="fill:none;stroke:#000000;stroke-dasharray:0.5,0.825;stroke-dashoffset:0;stroke-width:0.5;"/>
     </g>
     <g id="line2d_13">
      <g>
       <use style="stroke:#000000;stroke-width:0.8;" x="562.529887" xlink:href="#ma76cd28a65" y="86.335641"/>
      </g>
     </g>
     <g id="text_2">
      <!-- $1$ -->
      <defs>
       <path d="M 9.28125 0 
L 9.28125 3.515625 
Q 21.78125 3.515625 21.78125 6.6875 
L 21.78125 59.1875 
Q 16.609375 56.6875 8.6875 56.6875 
L 8.6875 60.203125 
Q 20.953125 60.203125 27.203125 66.609375 
L 28.609375 66.609375 
Q 28.953125 66.609375 29.265625 66.328125 
Q 29.59375 66.0625 29.59375 65.71875 
L 29.59375 6.6875 
Q 29.59375 3.515625 42.09375 3.515625 
L 42.09375 0 
z
" id="Cmr10-31"/>
      </defs>
      <g transform="translate(560.029887 100.934078)scale(0.1 -0.1)">
       <use transform="translate(0 0.390625)" xlink:href="#Cmr10-31"/>
      </g>
     </g>
    </g>
   </g>
   <g id="matplotlib.axis_2">
    <g id="ytick_1">
     <g id="line2d_14">
      <path clip-path="url(#p1c3b8273e6)" d="M 4.074135 86.335641 
L 573.48 86.335641 
" style="fill:none;stroke:#000000;stroke-dasharray:0.5,0.825;stroke-dashoffset:0;stroke-width:0.5;"/>
     </g>
     <g id="line2d_15">
      <defs>
       <path d="M 0 0 
L -3.5 0 
" id="mcf8236aef3" style="stroke:#000000;stroke-width:0.8;"/>
      </defs>
      <g>
       <use style="stroke:#000000;stroke-width:0.8;" x="15.024247" xlink:href="#mcf8236aef3" y="86.335641"/>
      </g>
     </g>
    </g>
    <g id="ytick_2">
     <g id="line2d_16">
      <path clip-path="url(#p1c3b8273e6)" d="M 4.074135 17.897436 
L 573.48 17.897436 
" style="fill:none;stroke:#000000;stroke-dasharray:0.5,0.825;stroke-dashoffset:0;stroke-width:0.5;"/>
     </g>
     <g id="line2d_17">
      <g>
       <use style="stroke:#000000;stroke-width:0.8;" x="15.024247" xlink:href="#mcf8236aef3" y="17.897436"/>
      </g>
     </g>
     <g id="text_3">
      <!-- $1$ -->
      <g transform="translate(3.024247 21.696655)scale(0.1 -0.1)">
       <use transform="translate(0 0.390625)" xlink:href="#Cmr10-31"/>
      </g>
     </g>
    </g>
   </g>
   <g id="patch_3">
    <path d="M 15.024247 87.704405 
L 15.024247 16.528672 
" style="fill:none;stroke:#000000;stroke-linecap:square;stroke-linejoin:miter;stroke-width:0.8;"/>
   </g>
   <g id="patch_4">
    <path d="M 4.074135 86.335641 
L 573.48 86.335641 
" style="fill:none;stroke:#000000;stroke-linecap:square;stroke-linejoin:miter;stroke-width:0.8;"/>
   </g>
  </g>
 </g>
 <defs>
  <clipPath id="p1c3b8273e6">
   <rect height="71.175733" width="569.405865" x="4.074135" y="16.528672"/>
  </clipPath>
 </defs>
</svg>
