<?xml version="1.0" encoding="utf-8" standalone="no"?>
<!DOCTYPE svg PUBLIC "-//W3C//DTD SVG 1.1//EN"
  "http://www.w3.org/Graphics/SVG/1.1/DTD/svg11.dtd">
<!-- Created with matplotlib (http://matplotlib.org/) -->
<svg height="108pt" version="1.1" viewBox="0 0 576 108" width="576pt" xmlns="http://www.w3.org/2000/svg" xmlns:xlink="http://www.w3.org/1999/xlink">
 <defs>
  <style type="text/css">
*{stroke-linecap:butt;stroke-linejoin:round;}
  </style>
 </defs>
 <g id="figure_1">
  <g id="patch_1">
   <path d="M 0 108 
L 576 108 
L 576 0 
L 0 0 
z
" style="fill:#ffffff;"/>
  </g>
  <g id="axes_1">
   <g id="patch_2">
    <path d="M 4.074135 87.704405 
L 573.48 87.704405 
L 573.48 16.528672 
L 4.074135 16.528672 
z
" style="fill:#ffffff;"/>
   </g>
   <g id="line2d_1">
    <path clip-path="url(#p1f468f4c86)" d="M 15.024247 86.335641 
L 45.441227 48.694628 
L 45.441227 48.694628 
" style="fill:none;stroke:#ff0000;stroke-linecap:square;stroke-width:2;"/>
   </g>
   <g id="line2d_2">
    <path clip-path="url(#p1f468f4c86)" d="M 288.777067 55.538449 
L 288.923293 55.357495 
L 289.032648 55.222167 
L 289.226069 54.982809 
L 289.437813 54.720776 
L 289.498413 54.645783 
L 289.714278 54.378651 
L 289.815573 54.253299 
L 290.034985 53.981776 
L 290.131982 53.861742 
L 290.315466 53.63468 
L 290.455443 53.461459 
L 290.603816 53.277847 
L 290.796808 53.03902 
L 290.949016 52.850662 
L 291.04115 52.736647 
L 291.272292 52.450608 
L 291.342498 52.363728 
L 291.589975 52.057476 
L 291.713407 51.904729 
L 291.882556 51.695407 
L 292.024643 51.519574 
L 292.14526 51.370311 
L 292.36561 51.097627 
L 292.508472 50.920836 
L 292.651634 50.743673 
L 292.801658 50.558018 
L 292.86335 50.481674 
L 293.001964 50.310139 
L 293.275954 49.971076 
L 293.305851 49.934079 
L 293.474837 49.724959 
L 293.662482 49.492747 
L 293.779052 49.348492 
L 293.915056 49.180188 
L 294.096587 48.955543 
L 294.326189 48.67141 
L 294.495156 48.462313 
L 294.6105 48.319575 
L 294.695034 48.214965 
L 294.823322 48.056208 
L 295.02353 47.808451 
L 295.26962 47.503915 
L 295.280543 47.490397 
L 295.486241 47.235846 
L 295.672726 47.005071 
L 295.771325 46.883055 
L 295.99928 46.600961 
L 296.064968 46.519672 
L 296.340685 46.178471 
L 296.450392 46.042709 
L 296.592892 45.866366 
L 296.800813 45.609064 
L 296.841679 45.558492 
L 296.956786 45.416047 
L 297.189583 45.127961 
L 297.352168 44.926762 
L 297.511864 44.729138 
L 297.70344 44.492062 
L 297.725018 44.46536 
L 297.972731 44.158815 
L 298.053662 44.058663 
L 298.266458 43.795328 
L 298.402956 43.626412 
L 298.486963 43.522452 
L 298.693054 43.267415 
L 298.872817 43.044959 
L 298.983797 42.90762 
L 299.220415 42.614806 
L 299.260062 42.565743 
L 299.517796 42.246798 
L 299.616302 42.124896 
L 299.809913 41.885302 
L 299.96444 41.694075 
L 300.070517 41.562804 
L 300.221034 41.37654 
L 300.460583 41.080099 
L 300.474084 41.06339 
L 300.689513 40.796797 
L 300.801202 40.658582 
" style="fill:none;stroke:#ff0000;stroke-linecap:square;stroke-width:2;"/>
   </g>
   <g id="line2d_3">
    <path clip-path="url(#p1f468f4c86)" d="M 301.289033 40.054892 
L 301.500306 39.79344 
L 301.635367 39.626302 
L 301.773419 39.455463 
L 301.894614 39.305484 
L 302.082559 39.072903 
L 302.247927 38.868259 
L 302.390882 38.691353 
L 302.587852 38.447603 
L 302.760586 38.233844 
L 302.864948 38.104697 
L 302.984695 37.956509 
L 303.206234 37.682354 
L 303.35976 37.492367 
L 303.487384 37.334432 
L 303.542357 37.266403 
L 303.791001 36.958706 
L 303.976253 36.729457 
L 304.09132 36.587061 
L 304.215665 36.433184 
L 304.332443 36.288672 
L 304.578994 35.983564 
L 304.669818 35.87117 
L 304.886648 35.602843 
L 305.047188 35.404175 
L 305.062916 35.384711 
L 305.302301 35.088472 
L 305.400793 34.966588 
L 305.516625 34.823246 
L 305.68487 34.615043 
L 305.887411 34.364398 
L 306.032148 34.185287 
L 306.268324 33.893018 
L 306.395856 33.735197 
L 306.53309 33.56537 
L 306.724292 33.328758 
L 306.74179 33.307105 
L 306.930081 33.074094 
L 307.172497 32.774104 
L 307.26872 32.655028 
L 307.350977 32.553235 
L 307.537217 32.322763 
L 307.713985 32.104013 
L 307.919015 31.850289 
L 307.966158 31.79195 
L 308.207885 31.492812 
L 308.308324 31.368519 
L 308.514015 31.113976 
L 308.720706 30.858196 
L 308.729747 30.847008 
L 308.879058 30.662235 
L 309.12441 30.358612 
L 309.310622 30.128174 
L 309.478741 29.920128 
L 309.596178 29.774799 
L 309.789855 29.535124 
L 309.858987 29.449573 
L 310.051779 29.210994 
L 310.165096 29.070763 
L 310.322822 28.875577 
L 310.43531 28.736373 
L 310.682176 28.430877 
L 310.798148 28.287361 
L 310.964581 28.0814 
L 311.115062 27.895181 
L 311.308881 27.655329 
L 311.460855 27.467262 
L 311.545452 27.362573 
L 311.776377 27.076803 
L 311.792772 27.056514 
L 311.940852 26.873265 
L 312.229716 26.515796 
L 312.35906 26.355733 
L 312.392372 26.314509 
L 312.612892 26.041616 
L 312.776284 25.839418 
L 312.984507 25.581742 
L 313.095309 25.444624 
L 313.167074 25.355816 
L 313.318497 25.16843 
L 313.479275 24.969467 
L 313.649578 24.758717 
L 313.896383 24.453295 
L 313.975349 24.355575 
L 314.098115 24.203652 
L 314.351315 23.890318 
L 314.504179 23.701148 
L 314.551751 23.642278 
L 314.797417 23.338266 
L 314.917124 23.190128 
L 314.993915 23.0951 
L 315.211898 22.825346 
L 315.432604 22.552222 
L 315.595077 22.351161 
L 315.753458 22.155165 
L 315.86643 22.015362 
L 315.914073 21.956404 
L 316.107458 21.717091 
L 316.259849 21.528506 
L 316.477997 21.258549 
L 316.595783 21.112788 
L 316.689756 20.996497 
L 316.825832 20.828103 
L 317.018101 20.590169 
L 317.162895 20.410986 
L 317.324712 20.210738 
L 317.438942 20.069379 
L 317.601616 19.868069 
L 317.751968 19.682009 
L 317.900842 19.497778 
L 318.196407 19.132015 
L 318.233463 19.086159 
L 318.424523 18.849722 
L 318.58815 18.647234 
L 318.686809 18.525143 
L 318.865208 18.304374 
L 319.036319 18.092625 
L 319.194047 17.897436 
" style="fill:none;stroke:#ff0000;stroke-linecap:square;stroke-width:2;"/>
   </g>
   <g id="line2d_4">
    <path clip-path="url(#p1f468f4c86)" d="M 75.858207 72.648 
L 258.360087 31.585077 
L 258.360087 31.585077 
" style="fill:none;stroke:#00ff00;stroke-linecap:square;stroke-width:2;"/>
   </g>
   <g id="line2d_5">
    <path clip-path="url(#p1f468f4c86)" d="M 380.028007 65.804179 
L 501.695927 38.428897 
L 501.695927 38.428897 
" style="fill:none;stroke:#00ff00;stroke-linecap:square;stroke-width:2;"/>
   </g>
   <g id="line2d_6">
    <path clip-path="url(#p1f468f4c86)" d="M 45.441227 48.694628 
L 75.858207 72.648 
L 75.858207 72.648 
" style="fill:none;stroke:#0000ff;stroke-linecap:square;stroke-width:2;"/>
   </g>
   <g id="line2d_7">
    <path clip-path="url(#p1f468f4c86)" d="M 258.360087 31.585077 
L 288.777067 55.538449 
L 288.777067 55.538449 
" style="fill:none;stroke:#0000ff;stroke-linecap:square;stroke-width:2;"/>
   </g>
   <g id="line2d_8">
    <path clip-path="url(#p1f468f4c86)" d="M 319.194047 17.897436 
L 380.028007 65.804179 
L 380.028007 65.804179 
" style="fill:none;stroke:#0000ff;stroke-linecap:square;stroke-width:2;"/>
   </g>
   <g id="line2d_9">
    <path clip-path="url(#p1f468f4c86)" d="M 501.695927 38.428897 
L 562.529887 86.335641 
L 562.529887 86.335641 
" style="fill:none;stroke:#0000ff;stroke-linecap:square;stroke-width:2;"/>
   </g>
   <g id="matplotlib.axis_1">
    <g id="xtick_1">
     <g id="line2d_10">
      <path clip-path="url(#p1f468f4c86)" d="M 15.024247 87.704405 
L 15.024247 16.528672 
" style="fill:none;stroke:#000000;stroke-dasharray:0.5,0.825;stroke-dashoffset:0;stroke-width:0.5;"/>
     </g>
     <g id="line2d_11">
      <defs>
       <path d="M 0 0 
L 0 3.5 
" id="m803df14bb0" style="stroke:#000000;stroke-width:0.8;"/>
      </defs>
      <g>
       <use style="stroke:#000000;stroke-width:0.8;" x="15.024247" xlink:href="#m803df14bb0" y="86.335641"/>
      </g>
     </g>
    </g>
    <g id="xtick_2">
     <g id="line2d_12">
      <path clip-path="url(#p1f468f4c86)" d="M 319.194047 87.704405 
L 319.194047 16.528672 
" style="fill:none;stroke:#000000;stroke-dasharray:0.5,0.825;stroke-dashoffset:0;stroke-width:0.5;"/>
     </g>
     <g id="line2d_13">
      <g>
       <use style="stroke:#000000;stroke-width:0.8;" x="319.194047" xlink:href="#m803df14bb0" y="86.335641"/>
      </g>
     </g>
     <g id="text_1">
      <!-- $f$ -->
      <defs>
       <path d="M 9.71875 -16.5 
Q 11.578125 -17.921875 14.203125 -17.921875 
Q 17.78125 -17.921875 20.015625 -10.015625 
Q 20.953125 -6.203125 25.09375 15.09375 
L 29.6875 39.59375 
L 21.09375 39.59375 
Q 20.125 39.59375 20.125 40.921875 
Q 20.515625 43.109375 21.390625 43.109375 
L 30.328125 43.109375 
L 31.5 49.609375 
Q 32.078125 52.640625 32.5625 54.8125 
Q 33.0625 56.984375 33.625 58.828125 
Q 34.1875 60.6875 35.296875 62.984375 
Q 37.015625 66.265625 39.921875 68.390625 
Q 42.828125 70.515625 46.1875 70.515625 
Q 48.390625 70.515625 50.46875 69.703125 
Q 52.546875 68.890625 53.859375 67.28125 
Q 55.171875 65.671875 55.171875 63.484375 
Q 55.171875 60.9375 53.484375 59.046875 
Q 51.8125 57.171875 49.421875 57.171875 
Q 47.796875 57.171875 46.65625 58.171875 
Q 45.515625 59.1875 45.515625 60.796875 
Q 45.515625 62.984375 47 64.625 
Q 48.484375 66.265625 50.6875 66.5 
Q 48.828125 67.921875 46.09375 67.921875 
Q 44.578125 67.921875 43.234375 66.5 
Q 41.890625 65.09375 41.5 63.484375 
Q 40.875 60.9375 38.71875 49.703125 
L 37.5 43.109375 
L 47.796875 43.109375 
Q 48.78125 43.109375 48.78125 41.796875 
Q 48.734375 41.546875 48.578125 40.9375 
Q 48.4375 40.328125 48.171875 39.953125 
Q 47.90625 39.59375 47.515625 39.59375 
L 36.8125 39.59375 
L 32.171875 15.1875 
Q 31.296875 9.859375 30.140625 4.359375 
Q 29 -1.125 26.921875 -6.90625 
Q 24.859375 -12.703125 21.625 -16.609375 
Q 18.40625 -20.515625 14.015625 -20.515625 
Q 10.640625 -20.515625 7.984375 -18.578125 
Q 5.328125 -16.65625 5.328125 -13.484375 
Q 5.328125 -10.9375 6.953125 -9.046875 
Q 8.59375 -7.171875 11.078125 -7.171875 
Q 12.75 -7.171875 13.859375 -8.171875 
Q 14.984375 -9.1875 14.984375 -10.796875 
Q 14.984375 -12.9375 13.390625 -14.71875 
Q 11.8125 -16.5 9.71875 -16.5 
z
" id="Cmmi10-66"/>
      </defs>
      <g transform="translate(316.744047 100.913766)scale(0.1 -0.1)">
       <use transform="translate(0 0.484375)" xlink:href="#Cmmi10-66"/>
      </g>
     </g>
    </g>
    <g id="xtick_3">
     <g id="line2d_14">
      <path clip-path="url(#p1f468f4c86)" d="M 562.529887 87.704405 
L 562.529887 16.528672 
" style="fill:none;stroke:#000000;stroke-dasharray:0.5,0.825;stroke-dashoffset:0;stroke-width:0.5;"/>
     </g>
     <g id="line2d_15">
      <g>
       <use style="stroke:#000000;stroke-width:0.8;" x="562.529887" xlink:href="#m803df14bb0" y="86.335641"/>
      </g>
     </g>
     <g id="text_2">
      <!-- $1$ -->
      <defs>
       <path d="M 9.28125 0 
L 9.28125 3.515625 
Q 21.78125 3.515625 21.78125 6.6875 
L 21.78125 59.1875 
Q 16.609375 56.6875 8.6875 56.6875 
L 8.6875 60.203125 
Q 20.953125 60.203125 27.203125 66.609375 
L 28.609375 66.609375 
Q 28.953125 66.609375 29.265625 66.328125 
Q 29.59375 66.0625 29.59375 65.71875 
L 29.59375 6.6875 
Q 29.59375 3.515625 42.09375 3.515625 
L 42.09375 0 
z
" id="Cmr10-31"/>
      </defs>
      <g transform="translate(560.029887 100.934078)scale(0.1 -0.1)">
       <use transform="translate(0 0.390625)" xlink:href="#Cmr10-31"/>
      </g>
     </g>
    </g>
   </g>
   <g id="matplotlib.axis_2">
    <g id="ytick_1">
     <g id="line2d_16">
      <path clip-path="url(#p1f468f4c86)" d="M 4.074135 86.335641 
L 573.48 86.335641 
" style="fill:none;stroke:#000000;stroke-dasharray:0.5,0.825;stroke-dashoffset:0;stroke-width:0.5;"/>
     </g>
     <g id="line2d_17">
      <defs>
       <path d="M 0 0 
L -3.5 0 
" id="mf37518390f" style="stroke:#000000;stroke-width:0.8;"/>
      </defs>
      <g>
       <use style="stroke:#000000;stroke-width:0.8;" x="15.024247" xlink:href="#mf37518390f" y="86.335641"/>
      </g>
     </g>
    </g>
    <g id="ytick_2">
     <g id="line2d_18">
      <path clip-path="url(#p1f468f4c86)" d="M 4.074135 17.897436 
L 573.48 17.897436 
" style="fill:none;stroke:#000000;stroke-dasharray:0.5,0.825;stroke-dashoffset:0;stroke-width:0.5;"/>
     </g>
     <g id="line2d_19">
      <g>
       <use style="stroke:#000000;stroke-width:0.8;" x="15.024247" xlink:href="#mf37518390f" y="17.897436"/>
      </g>
     </g>
     <g id="text_3">
      <!-- $1$ -->
      <g transform="translate(3.024247 21.696655)scale(0.1 -0.1)">
       <use transform="translate(0 0.390625)" xlink:href="#Cmr10-31"/>
      </g>
     </g>
    </g>
   </g>
   <g id="patch_3">
    <path d="M 15.024247 87.704405 
L 15.024247 16.528672 
" style="fill:none;stroke:#000000;stroke-linecap:square;stroke-linejoin:miter;stroke-width:0.8;"/>
   </g>
   <g id="patch_4">
    <path d="M 4.074135 86.335641 
L 573.48 86.335641 
" style="fill:none;stroke:#000000;stroke-linecap:square;stroke-linejoin:miter;stroke-width:0.8;"/>
   </g>
  </g>
 </g>
 <defs>
  <clipPath id="p1f468f4c86">
   <rect height="71.175733" width="569.405865" x="4.074135" y="16.528672"/>
  </clipPath>
 </defs>
</svg>
