<?xml version="1.0" encoding="utf-8" standalone="no"?>
<!DOCTYPE svg PUBLIC "-//W3C//DTD SVG 1.1//EN"
  "http://www.w3.org/Graphics/SVG/1.1/DTD/svg11.dtd">
<!-- Created with matplotlib (http://matplotlib.org/) -->
<svg height="108pt" version="1.1" viewBox="0 0 576 108" width="576pt" xmlns="http://www.w3.org/2000/svg" xmlns:xlink="http://www.w3.org/1999/xlink">
 <defs>
  <style type="text/css">
*{stroke-linecap:butt;stroke-linejoin:round;}
  </style>
 </defs>
 <g id="figure_1">
  <g id="patch_1">
   <path d="M 0 108 
L 576 108 
L 576 0 
L 0 0 
z
" style="fill:#ffffff;"/>
  </g>
  <g id="axes_1">
   <g id="patch_2">
    <path d="M 4.074135 87.704405 
L 573.48 87.704405 
L 573.48 16.528672 
L 4.074135 16.528672 
z
" style="fill:#ffffff;"/>
   </g>
   <g id="line2d_1">
    <path clip-path="url(#pf23d9541c2)" d="M 256.570853 45.921701 
L 272.67396 53.5915 
L 272.67396 53.5915 
" style="fill:none;stroke:#ff0000;stroke-linecap:square;stroke-width:2;"/>
   </g>
   <g id="line2d_2">
    <path clip-path="url(#pf23d9541c2)" d="M 288.777067 41.201825 
L 320.983281 56.541422 
L 320.983281 56.541422 
" style="fill:none;stroke:#ff0000;stroke-linecap:square;stroke-width:2;"/>
   </g>
   <g id="line2d_3">
    <path clip-path="url(#pf23d9541c2)" d="M 337.086388 69.22609 
L 353.189496 76.895889 
L 353.189496 76.895889 
" style="fill:none;stroke:#ff0000;stroke-linecap:square;stroke-width:2;"/>
   </g>
   <g id="line2d_4">
    <path clip-path="url(#pf23d9541c2)" d="M 417.601924 27.337188 
L 433.705031 35.006987 
L 433.705031 35.006987 
" style="fill:none;stroke:#ff0000;stroke-linecap:square;stroke-width:2;"/>
   </g>
   <g id="line2d_5">
    <path clip-path="url(#pf23d9541c2)" d="M 449.808138 47.691655 
L 482.014352 63.031252 
L 482.014352 63.031252 
" style="fill:none;stroke:#ff0000;stroke-linecap:square;stroke-width:2;"/>
   </g>
   <g id="line2d_6">
    <path clip-path="url(#pf23d9541c2)" d="M 498.117459 50.641577 
L 514.220566 58.311376 
L 514.220566 58.311376 
" style="fill:none;stroke:#ff0000;stroke-linecap:square;stroke-width:2;"/>
   </g>
   <g id="line2d_7">
    <path clip-path="url(#pf23d9541c2)" d="M 272.67396 53.5915 
L 288.777067 41.201825 
L 288.777067 41.201825 
" style="fill:none;stroke:#ffda00;stroke-linecap:square;stroke-width:2;"/>
   </g>
   <g id="line2d_8">
    <path clip-path="url(#pf23d9541c2)" d="M 353.189496 76.895889 
L 417.601924 27.337188 
L 417.601924 27.337188 
" style="fill:none;stroke:#ffda00;stroke-linecap:square;stroke-width:2;"/>
   </g>
   <g id="line2d_9">
    <path clip-path="url(#pf23d9541c2)" d="M 482.014352 63.031252 
L 498.117459 50.641577 
L 498.117459 50.641577 
" style="fill:none;stroke:#ffda00;stroke-linecap:square;stroke-width:2;"/>
   </g>
   <g id="line2d_10">
    <path clip-path="url(#pf23d9541c2)" d="M 95.539783 39.431871 
L 127.745997 64.801206 
L 127.745997 64.801206 
" style="fill:none;stroke:#48ff00;stroke-linecap:square;stroke-width:2;"/>
   </g>
   <g id="line2d_11">
    <path clip-path="url(#pf23d9541c2)" d="M 320.983281 56.541422 
L 337.086388 69.22609 
L 337.086388 69.22609 
" style="fill:none;stroke:#48ff00;stroke-linecap:square;stroke-width:2;"/>
   </g>
   <g id="line2d_12">
    <path clip-path="url(#pf23d9541c2)" d="M 433.705031 35.006987 
L 449.808138 47.691655 
L 449.808138 47.691655 
" style="fill:none;stroke:#48ff00;stroke-linecap:square;stroke-width:2;"/>
   </g>
   <g id="line2d_13">
    <path clip-path="url(#pf23d9541c2)" d="M 79.436676 36.776941 
L 95.539783 39.431871 
L 95.539783 39.431871 
" style="fill:none;stroke:#00ff91;stroke-linecap:square;stroke-width:2;"/>
   </g>
   <g id="line2d_14">
    <path clip-path="url(#pf23d9541c2)" d="M 127.745997 64.801206 
L 143.849104 67.456136 
L 143.849104 67.456136 
" style="fill:none;stroke:#00ff91;stroke-linecap:square;stroke-width:2;"/>
   </g>
   <g id="line2d_15">
    <path clip-path="url(#pf23d9541c2)" d="M 240.467746 43.266771 
L 256.570853 45.921701 
L 256.570853 45.921701 
" style="fill:none;stroke:#00ff91;stroke-linecap:square;stroke-width:2;"/>
   </g>
   <g id="line2d_16">
    <path clip-path="url(#pf23d9541c2)" d="M 514.220566 58.311376 
L 530.323673 60.966306 
L 530.323673 60.966306 
" style="fill:none;stroke:#00ff91;stroke-linecap:square;stroke-width:2;"/>
   </g>
   <g id="line2d_17">
    <path clip-path="url(#pf23d9541c2)" d="M 31.127354 68.931097 
L 47.230462 61.556291 
L 47.230462 61.556291 
" style="fill:none;stroke:#0091ff;stroke-linecap:square;stroke-width:2;"/>
   </g>
   <g id="line2d_18">
    <path clip-path="url(#pf23d9541c2)" d="M 63.333569 44.151747 
L 79.436676 36.776941 
L 79.436676 36.776941 
" style="fill:none;stroke:#0091ff;stroke-linecap:square;stroke-width:2;"/>
   </g>
   <g id="line2d_19">
    <path clip-path="url(#pf23d9541c2)" d="M 143.849104 67.456136 
L 159.952211 60.08133 
L 159.952211 60.08133 
" style="fill:none;stroke:#0091ff;stroke-linecap:square;stroke-width:2;"/>
   </g>
   <g id="line2d_20">
    <path clip-path="url(#pf23d9541c2)" d="M 176.055318 42.676786 
L 192.158425 35.301979 
L 192.158425 35.301979 
" style="fill:none;stroke:#0091ff;stroke-linecap:square;stroke-width:2;"/>
   </g>
   <g id="line2d_21">
    <path clip-path="url(#pf23d9541c2)" d="M 15.024247 86.335641 
L 31.127354 68.931097 
L 31.127354 68.931097 
" style="fill:none;stroke:#4800ff;stroke-linecap:square;stroke-width:2;"/>
   </g>
   <g id="line2d_22">
    <path clip-path="url(#pf23d9541c2)" d="M 47.230462 61.556291 
L 47.286347 61.495889 
L 47.379866 61.394812 
L 47.510729 61.253373 
L 47.563755 61.196061 
L 47.63007 61.124387 
L 47.677364 61.07327 
L 47.835054 60.902836 
L 47.879308 60.855005 
L 47.966788 60.760455 
L 48.010197 60.713538 
L 48.137288 60.576176 
L 48.234436 60.471176 
L 48.274237 60.428159 
L 48.384385 60.309109 
L 48.446287 60.242204 
L 48.560183 60.119102 
L 48.579308 60.098432 
L 48.706015 59.961485 
L 48.758681 59.904562 
L 48.864468 59.790225 
L 48.91033 59.740657 
L 49.037065 59.60368 
L 49.08988 59.546596 
L 49.160432 59.470342 
L 49.288165 59.332286 
L 49.29931 59.32024 
L 49.424808 59.1846 
L 49.516502 59.085495 
L 49.569087 59.02866 
L 49.668072 58.921675 
L 49.735243 58.849075 
L 49.832681 58.743763 
L 49.898472 58.672654 
L 50.01706 58.544483 
L 50.097192 58.457874 
L 50.158717 58.391377 
L 50.258802 58.283204 
L 50.297517 58.241359 
L 50.389295 58.142164 
L 50.489766 58.033572 
L 50.587415 57.928032 
L 50.612987 57.900393 
L 50.714288 57.790905 
L 50.796204 57.702369 
L 50.896424 57.594049 
L 50.923241 57.565065 
L 51.019225 57.461323 
L 51.103407 57.370337 
L 51.204719 57.260838 
L 51.281767 57.177563 
L 51.341112 57.113422 
L 51.407842 57.041299 
L 51.52278 56.917071 
L 51.581166 56.853967 
L 51.659089 56.769746 
L 51.743035 56.679015 
L 51.855447 56.557519 
L 51.963869 56.440334 
L 51.976144 56.427068 
L 52.118936 56.272735 
L 52.177134 56.209834 
L 52.259715 56.120578 
L 52.360917 56.011197 
L 52.379873 55.990709 
L 52.479755 55.882755 
L 52.539555 55.818122 
L 52.627415 55.723161 
L 52.739206 55.602335 
L 52.843621 55.489482 
L 52.874165 55.456469 
L 52.988817 55.332551 
L 53.019141 55.299776 
L 53.146321 55.162318 
L 53.189491 55.115659 
L 53.324719 54.969501 
L 53.378582 54.911286 
L 53.493315 54.787281 
L 53.536933 54.740137 
L 53.659049 54.608151 
L 53.740127 54.520521 
L 53.794658 54.461583 
" style="fill:none;stroke:#4800ff;stroke-linecap:square;stroke-width:2;"/>
   </g>
   <g id="line2d_23">
    <path clip-path="url(#pf23d9541c2)" d="M 54.052981 54.182382 
L 54.135274 54.093438 
L 54.173494 54.05213 
L 54.283888 53.932813 
L 54.347602 53.86395 
L 54.406636 53.800145 
L 54.494216 53.705487 
L 54.62343 53.565831 
L 54.635678 53.552593 
L 54.732355 53.448102 
L 54.815121 53.358647 
L 54.898706 53.268306 
L 54.972327 53.188735 
L 55.054752 53.09965 
L 55.162022 52.98371 
L 55.246167 52.892764 
L 55.311814 52.821812 
L 55.387572 52.739931 
L 55.507194 52.610642 
L 55.557679 52.556076 
L 55.670979 52.43362 
L 55.732 52.367666 
L 55.828483 52.263386 
L 55.919032 52.165519 
L 55.971355 52.108967 
L 56.068149 52.00435 
L 56.108684 51.960539 
L 56.227166 51.832482 
L 56.329555 51.721818 
L 56.341959 51.708411 
L 56.439136 51.603381 
L 56.511677 51.524977 
L 56.621975 51.405765 
L 56.684432 51.33826 
L 56.780952 51.233939 
L 56.882512 51.124172 
L 56.939754 51.062303 
L 57.042883 50.95084 
L 57.135505 50.850732 
L 57.146235 50.839135 
L 57.24307 50.734474 
L 57.382738 50.583518 
L 57.404529 50.559966 
L 57.545988 50.407074 
L 57.589093 50.360486 
L 57.666094 50.277261 
L 57.778906 50.155332 
L 57.868704 50.058277 
L 57.884146 50.041587 
L 58.032546 49.881193 
L 58.065688 49.845372 
L 58.147098 49.757384 
L 58.267145 49.627634 
L 58.307062 49.584491 
L 58.375078 49.510978 
L 58.512796 49.362129 
L 58.580877 49.288547 
L 58.670846 49.191307 
L 58.760337 49.094582 
L 58.806943 49.044211 
L 58.906763 48.936323 
L 58.933282 48.90766 
L 59.054871 48.776245 
L 59.103502 48.723683 
L 59.230202 48.586744 
L 59.309468 48.501071 
L 59.347712 48.459737 
L 59.428472 48.372449 
L 59.503793 48.291041 
L 59.622742 48.16248 
L 59.720853 48.056439 
L 59.765688 48.007981 
L 59.881423 47.882892 
L 59.895935 47.867207 
L 59.98339 47.772684 
L 60.069834 47.679254 
L 60.191241 47.548035 
L 60.244073 47.490932 
L 60.320778 47.408029 
L 60.457725 47.260013 
L 60.519042 47.193741 
L 60.550528 47.159711 
L 60.640117 47.062881 
L 60.773712 46.918489 
L 60.855626 46.829955 
L 60.910128 46.771048 
L 61.006127 46.66729 
L 61.03399 46.637176 
L 61.116052 46.548481 
L 61.238832 46.415779 
L 61.30581 46.343387 
L 61.360705 46.284055 
L 61.474086 46.161512 
L 61.592676 46.033337 
L 61.599323 46.026153 
L 61.743595 45.870221 
L 61.777855 45.833192 
L 61.889079 45.712979 
L 61.973872 45.621333 
L 62.024134 45.567009 
L 62.093064 45.492508 
L 62.164802 45.414973 
L 62.246115 45.327088 
L 62.3301 45.236315 
L 62.457348 45.098783 
L 62.549465 44.999222 
L 62.618258 44.924868 
L 62.68997 44.847361 
L 62.748074 44.784561 
L 62.858823 44.664862 
L 62.959167 44.556407 
L 63.031729 44.477981 
L 63.118166 44.384559 
L 63.141425 44.35942 
L 63.262806 44.228229 
L 63.333569 44.151747 
" style="fill:none;stroke:#4800ff;stroke-linecap:square;stroke-width:2;"/>
   </g>
   <g id="line2d_24">
    <path clip-path="url(#pf23d9541c2)" d="M 159.952211 60.08133 
L 176.055318 42.676786 
L 176.055318 42.676786 
" style="fill:none;stroke:#4800ff;stroke-linecap:square;stroke-width:2;"/>
   </g>
   <g id="line2d_25">
    <path clip-path="url(#pf23d9541c2)" d="M 192.158425 35.301979 
L 208.261532 17.897436 
L 208.261532 17.897436 
" style="fill:none;stroke:#4800ff;stroke-linecap:square;stroke-width:2;"/>
   </g>
   <g id="line2d_26">
    <path clip-path="url(#pf23d9541c2)" d="M 224.364639 60.671314 
L 240.467746 43.266771 
L 240.467746 43.266771 
" style="fill:none;stroke:#4800ff;stroke-linecap:square;stroke-width:2;"/>
   </g>
   <g id="line2d_27">
    <path clip-path="url(#pf23d9541c2)" d="M 530.323673 60.966306 
L 546.42678 43.561763 
L 546.42678 43.561763 
" style="fill:none;stroke:#4800ff;stroke-linecap:square;stroke-width:2;"/>
   </g>
   <g id="line2d_28">
    <path clip-path="url(#pf23d9541c2)" d="M 208.261532 17.897436 
L 224.364639 60.671314 
L 224.364639 60.671314 
" style="fill:none;stroke:#ff00da;stroke-linecap:square;stroke-width:2;"/>
   </g>
   <g id="line2d_29">
    <path clip-path="url(#pf23d9541c2)" d="M 546.42678 43.561763 
L 562.529887 86.335641 
L 562.529887 86.335641 
" style="fill:none;stroke:#ff00da;stroke-linecap:square;stroke-width:2;"/>
   </g>
   <g id="matplotlib.axis_1">
    <g id="xtick_1">
     <g id="line2d_30">
      <path clip-path="url(#pf23d9541c2)" d="M 15.024247 87.704405 
L 15.024247 16.528672 
" style="fill:none;stroke:#000000;stroke-dasharray:0.5,0.825;stroke-dashoffset:0;stroke-width:0.5;"/>
     </g>
     <g id="line2d_31">
      <defs>
       <path d="M 0 0 
L 0 3.5 
" id="m7d5a0fc5cd" style="stroke:#000000;stroke-width:0.8;"/>
      </defs>
      <g>
       <use style="stroke:#000000;stroke-width:0.8;" x="15.024247" xlink:href="#m7d5a0fc5cd" y="86.335641"/>
      </g>
     </g>
    </g>
    <g id="xtick_2">
     <g id="line2d_32">
      <path clip-path="url(#pf23d9541c2)" d="M 208.261532 87.704405 
L 208.261532 16.528672 
" style="fill:none;stroke:#000000;stroke-dasharray:0.5,0.825;stroke-dashoffset:0;stroke-width:0.5;"/>
     </g>
     <g id="line2d_33">
      <g>
       <use style="stroke:#000000;stroke-width:0.8;" x="208.261532" xlink:href="#m7d5a0fc5cd" y="86.335641"/>
      </g>
     </g>
     <g id="text_1">
      <!-- $f$ -->
      <defs>
       <path d="M 9.71875 -16.5 
Q 11.578125 -17.921875 14.203125 -17.921875 
Q 17.78125 -17.921875 20.015625 -10.015625 
Q 20.953125 -6.203125 25.09375 15.09375 
L 29.6875 39.59375 
L 21.09375 39.59375 
Q 20.125 39.59375 20.125 40.921875 
Q 20.515625 43.109375 21.390625 43.109375 
L 30.328125 43.109375 
L 31.5 49.609375 
Q 32.078125 52.640625 32.5625 54.8125 
Q 33.0625 56.984375 33.625 58.828125 
Q 34.1875 60.6875 35.296875 62.984375 
Q 37.015625 66.265625 39.921875 68.390625 
Q 42.828125 70.515625 46.1875 70.515625 
Q 48.390625 70.515625 50.46875 69.703125 
Q 52.546875 68.890625 53.859375 67.28125 
Q 55.171875 65.671875 55.171875 63.484375 
Q 55.171875 60.9375 53.484375 59.046875 
Q 51.8125 57.171875 49.421875 57.171875 
Q 47.796875 57.171875 46.65625 58.171875 
Q 45.515625 59.1875 45.515625 60.796875 
Q 45.515625 62.984375 47 64.625 
Q 48.484375 66.265625 50.6875 66.5 
Q 48.828125 67.921875 46.09375 67.921875 
Q 44.578125 67.921875 43.234375 66.5 
Q 41.890625 65.09375 41.5 63.484375 
Q 40.875 60.9375 38.71875 49.703125 
L 37.5 43.109375 
L 47.796875 43.109375 
Q 48.78125 43.109375 48.78125 41.796875 
Q 48.734375 41.546875 48.578125 40.9375 
Q 48.4375 40.328125 48.171875 39.953125 
Q 47.90625 39.59375 47.515625 39.59375 
L 36.8125 39.59375 
L 32.171875 15.1875 
Q 31.296875 9.859375 30.140625 4.359375 
Q 29 -1.125 26.921875 -6.90625 
Q 24.859375 -12.703125 21.625 -16.609375 
Q 18.40625 -20.515625 14.015625 -20.515625 
Q 10.640625 -20.515625 7.984375 -18.578125 
Q 5.328125 -16.65625 5.328125 -13.484375 
Q 5.328125 -10.9375 6.953125 -9.046875 
Q 8.59375 -7.171875 11.078125 -7.171875 
Q 12.75 -7.171875 13.859375 -8.171875 
Q 14.984375 -9.1875 14.984375 -10.796875 
Q 14.984375 -12.9375 13.390625 -14.71875 
Q 11.8125 -16.5 9.71875 -16.5 
z
" id="Cmmi10-66"/>
      </defs>
      <g transform="translate(205.811532 100.913766)scale(0.1 -0.1)">
       <use transform="translate(0 0.484375)" xlink:href="#Cmmi10-66"/>
      </g>
     </g>
    </g>
    <g id="xtick_3">
     <g id="line2d_34">
      <path clip-path="url(#pf23d9541c2)" d="M 562.529887 87.704405 
L 562.529887 16.528672 
" style="fill:none;stroke:#000000;stroke-dasharray:0.5,0.825;stroke-dashoffset:0;stroke-width:0.5;"/>
     </g>
     <g id="line2d_35">
      <g>
       <use style="stroke:#000000;stroke-width:0.8;" x="562.529887" xlink:href="#m7d5a0fc5cd" y="86.335641"/>
      </g>
     </g>
     <g id="text_2">
      <!-- $1$ -->
      <defs>
       <path d="M 9.28125 0 
L 9.28125 3.515625 
Q 21.78125 3.515625 21.78125 6.6875 
L 21.78125 59.1875 
Q 16.609375 56.6875 8.6875 56.6875 
L 8.6875 60.203125 
Q 20.953125 60.203125 27.203125 66.609375 
L 28.609375 66.609375 
Q 28.953125 66.609375 29.265625 66.328125 
Q 29.59375 66.0625 29.59375 65.71875 
L 29.59375 6.6875 
Q 29.59375 3.515625 42.09375 3.515625 
L 42.09375 0 
z
" id="Cmr10-31"/>
      </defs>
      <g transform="translate(560.029887 100.934078)scale(0.1 -0.1)">
       <use transform="translate(0 0.390625)" xlink:href="#Cmr10-31"/>
      </g>
     </g>
    </g>
   </g>
   <g id="matplotlib.axis_2">
    <g id="ytick_1">
     <g id="line2d_36">
      <path clip-path="url(#pf23d9541c2)" d="M 4.074135 86.335641 
L 573.48 86.335641 
" style="fill:none;stroke:#000000;stroke-dasharray:0.5,0.825;stroke-dashoffset:0;stroke-width:0.5;"/>
     </g>
     <g id="line2d_37">
      <defs>
       <path d="M 0 0 
L -3.5 0 
" id="mda701998fa" style="stroke:#000000;stroke-width:0.8;"/>
      </defs>
      <g>
       <use style="stroke:#000000;stroke-width:0.8;" x="15.024247" xlink:href="#mda701998fa" y="86.335641"/>
      </g>
     </g>
    </g>
    <g id="ytick_2">
     <g id="line2d_38">
      <path clip-path="url(#pf23d9541c2)" d="M 4.074135 17.897436 
L 573.48 17.897436 
" style="fill:none;stroke:#000000;stroke-dasharray:0.5,0.825;stroke-dashoffset:0;stroke-width:0.5;"/>
     </g>
     <g id="line2d_39">
      <g>
       <use style="stroke:#000000;stroke-width:0.8;" x="15.024247" xlink:href="#mda701998fa" y="17.897436"/>
      </g>
     </g>
     <g id="text_3">
      <!-- $1$ -->
      <g transform="translate(3.024247 21.696655)scale(0.1 -0.1)">
       <use transform="translate(0 0.390625)" xlink:href="#Cmr10-31"/>
      </g>
     </g>
    </g>
   </g>
   <g id="patch_3">
    <path d="M 15.024247 87.704405 
L 15.024247 16.528672 
" style="fill:none;stroke:#000000;stroke-linecap:square;stroke-linejoin:miter;stroke-width:0.8;"/>
   </g>
   <g id="patch_4">
    <path d="M 4.074135 86.335641 
L 573.48 86.335641 
" style="fill:none;stroke:#000000;stroke-linecap:square;stroke-linejoin:miter;stroke-width:0.8;"/>
   </g>
  </g>
 </g>
 <defs>
  <clipPath id="pf23d9541c2">
   <rect height="71.175733" width="569.405865" x="4.074135" y="16.528672"/>
  </clipPath>
 </defs>
</svg>
