<?xml version="1.0" encoding="utf-8" standalone="no"?>
<!DOCTYPE svg PUBLIC "-//W3C//DTD SVG 1.1//EN"
  "http://www.w3.org/Graphics/SVG/1.1/DTD/svg11.dtd">
<!-- Created with matplotlib (http://matplotlib.org/) -->
<svg height="108pt" version="1.1" viewBox="0 0 576 108" width="576pt" xmlns="http://www.w3.org/2000/svg" xmlns:xlink="http://www.w3.org/1999/xlink">
 <defs>
  <style type="text/css">
*{stroke-linecap:butt;stroke-linejoin:round;}
  </style>
 </defs>
 <g id="figure_1">
  <g id="patch_1">
   <path d="M 0 108 
L 576 108 
L 576 0 
L 0 0 
z
" style="fill:#ffffff;"/>
  </g>
  <g id="axes_1">
   <g id="patch_2">
    <path d="M 4.074135 87.704405 
L 573.48 87.704405 
L 573.48 16.528672 
L 4.074135 16.528672 
z
" style="fill:#ffffff;"/>
   </g>
   <g id="line2d_1">
    <path clip-path="url(#p0be31fe297)" d="M 15.024247 86.335641 
L 39.910867 37.145681 
L 39.910867 37.145681 
" style="fill:none;stroke:#ff0000;stroke-linecap:square;stroke-width:2;"/>
   </g>
   <g id="line2d_2">
    <path clip-path="url(#p0be31fe297)" d="M 239.003827 67.087396 
L 263.890447 17.897436 
L 263.890447 17.897436 
" style="fill:none;stroke:#ff0000;stroke-linecap:square;stroke-width:2;"/>
   </g>
   <g id="line2d_3">
    <path clip-path="url(#p0be31fe297)" d="M 89.684107 56.393926 
L 114.570727 30.729599 
L 114.570727 30.729599 
" style="fill:none;stroke:#cbff00;stroke-linecap:square;stroke-width:2;"/>
   </g>
   <g id="line2d_4">
    <path clip-path="url(#p0be31fe297)" d="M 164.343967 73.503478 
L 189.230587 47.839151 
L 189.230587 47.839151 
" style="fill:none;stroke:#cbff00;stroke-linecap:square;stroke-width:2;"/>
   </g>
   <g id="line2d_5">
    <path clip-path="url(#p0be31fe297)" d="M 313.663687 60.671314 
L 338.550307 35.006987 
L 338.550307 35.006987 
" style="fill:none;stroke:#cbff00;stroke-linecap:square;stroke-width:2;"/>
   </g>
   <g id="line2d_6">
    <path clip-path="url(#p0be31fe297)" d="M 487.870027 69.22609 
L 512.756647 43.561763 
L 512.756647 43.561763 
" style="fill:none;stroke:#cbff00;stroke-linecap:square;stroke-width:2;"/>
   </g>
   <g id="line2d_7">
    <path clip-path="url(#p0be31fe297)" d="M 263.890447 17.897436 
L 288.777067 62.810008 
L 288.777067 62.810008 
" style="fill:none;stroke:#00ff66;stroke-linecap:square;stroke-width:2;"/>
   </g>
   <g id="line2d_8">
    <path clip-path="url(#p0be31fe297)" d="M 537.643267 41.423069 
L 562.529887 86.335641 
L 562.529887 86.335641 
" style="fill:none;stroke:#00ff66;stroke-linecap:square;stroke-width:2;"/>
   </g>
   <g id="line2d_9">
    <path clip-path="url(#p0be31fe297)" d="M 64.797487 35.006987 
L 89.684107 56.393926 
L 89.684107 56.393926 
" style="fill:none;stroke:#0066ff;stroke-linecap:square;stroke-width:2;"/>
   </g>
   <g id="line2d_10">
    <path clip-path="url(#p0be31fe297)" d="M 114.570727 30.729599 
L 114.807924 30.93344 
L 114.969003 31.071868 
L 115.402392 31.444311 
L 115.619048 31.6305 
L 115.904417 31.875739 
L 116.079992 32.026623 
L 116.245042 32.168463 
L 116.665288 32.529612 
L 116.923334 32.751371 
L 116.984629 32.804046 
L 117.250274 33.032335 
L 117.478684 33.228625 
L 117.70518 33.42327 
L 118.186655 33.837038 
L 118.383296 34.006026 
L 118.478761 34.088066 
L 118.928087 34.474205 
L 118.974356 34.513968 
L 119.249309 34.750255 
L 119.552264 35.010607 
L 119.937765 35.341898 
L 120.142302 35.517671 
L 120.347346 35.693881 
L 120.539378 35.858909 
L 120.896673 36.165959 
L 121.092254 36.334036 
L 121.207859 36.433385 
L 121.466111 36.65532 
L 121.921699 37.04684 
L 122.025673 37.136194 
L 122.304189 37.375543 
L 122.609357 37.637797 
L 122.793566 37.796101 
L 123.038316 38.006433 
L 123.316286 38.245314 
L 123.565455 38.459444 
L 123.845134 38.699793 
L 124.132667 38.946891 
L 124.365625 39.14709 
L 124.596232 39.345268 
L 124.775393 39.499234 
L 125.061161 39.744816 
L 125.293246 39.944264 
L 125.698721 40.292719 
L 125.891142 40.458081 
L 126.018751 40.567744 
L 126.231359 40.750455 
L 126.683988 41.139433 
L 126.755108 41.200551 
L 127.096383 41.493834 
L 127.241435 41.618489 
L 127.602133 41.928464 
L 127.845914 42.137963 
L 128.094189 42.351325 
L 128.217963 42.457692 
L 128.487175 42.689047 
L 128.917551 43.058901 
L 129.018832 43.145939 
L 129.450409 43.516826 
L 129.493165 43.553569 
L 129.779014 43.79922 
L 130.158286 44.125158 
L 130.443287 44.37008 
L 130.507284 44.425078 
L 130.832047 44.704171 
L 131.130897 44.960995 
L 131.271702 45.082 
L 131.510941 45.287595 
L 131.828517 45.560512 
L 131.984163 45.69427 
L 132.242623 45.916385 
L 132.64871 46.265366 
L 132.92443 46.502313 
L 133.122988 46.672949 
L 133.222502 46.758468 
L 133.686651 47.157347 
L 133.888249 47.330595 
L 134.031502 47.453703 
L 134.28335 47.670135 
L 134.563085 47.910532 
L 134.757886 48.077939 
L 135.071118 48.347122 
L 135.235754 48.488607 
L 135.572068 48.777626 
L 135.925118 49.081029 
L 135.999494 49.144945 
L 136.247655 49.358209 
L 136.495816 49.571472 
L 136.813727 49.844677 
L 137.046871 50.045035 
L 137.427181 50.371864 
L 137.699596 50.605971 
L 137.732437 50.634193 
L 137.963492 50.832756 
L 138.438953 51.241355 
L 138.582118 51.364388 
L 138.87476 51.615878 
L 139.054652 51.770472 
L 139.37405 52.044955 
L 139.576541 52.218971 
L 139.76697 52.38262 
L 140.036873 52.614568 
L 140.305593 52.845499 
L 140.458013 52.976485 
L 140.904575 53.360249 
" style="fill:none;stroke:#0066ff;stroke-linecap:square;stroke-width:2;"/>
   </g>
   <g id="line2d_11">
    <path clip-path="url(#p0be31fe297)" d="M 141.617035 53.97252 
L 141.949107 54.257895 
L 141.994408 54.296825 
L 142.402261 54.647324 
L 142.60251 54.819413 
L 142.892969 55.069026 
L 143.138243 55.279808 
L 143.421753 55.52345 
L 143.650988 55.720449 
L 143.743407 55.799871 
L 144.16078 56.158551 
L 144.212578 56.203065 
L 144.701887 56.623564 
L 144.934886 56.823798 
L 145.057232 56.928939 
L 145.25427 57.098269 
L 145.662197 57.448831 
L 145.922626 57.672637 
L 146.080403 57.808227 
L 146.409039 58.090649 
L 146.69658 58.337754 
L 146.789119 58.41728 
L 147.114413 58.696829 
L 147.429294 58.96743 
L 147.660346 59.16599 
L 147.848591 59.327764 
L 148.001661 59.459308 
L 148.308165 59.72271 
L 148.56329 59.941958 
L 148.742806 60.096229 
L 149.105724 60.408112 
L 149.434972 60.691059 
L 149.599867 60.832766 
L 149.809569 61.012979 
L 150.154915 61.309761 
L 150.225457 61.370383 
L 150.578361 61.67366 
L 150.947858 61.991196 
L 150.995477 62.032119 
L 151.452264 62.42467 
L 151.633271 62.580222 
L 151.847133 62.76401 
L 152.152092 63.026084 
L 152.251972 63.111919 
L 152.498092 63.323429 
L 152.867512 63.640899 
L 153.122173 63.859748 
L 153.405593 64.103312 
L 153.547604 64.225353 
L 153.843702 64.479812 
L 153.968747 64.587272 
L 154.326691 64.894881 
L 154.564256 65.099038 
L 154.753428 65.261608 
L 154.980091 65.456396 
L 155.349997 65.774284 
L 155.493732 65.897806 
L 155.908855 66.254553 
L 156.107246 66.425045 
L 156.332564 66.618678 
L 156.568323 66.821283 
L 156.92415 67.127072 
L 157.181584 67.348304 
L 157.458697 67.586448 
L 157.503442 67.624901 
L 157.878717 67.947403 
L 158.043357 68.088891 
L 158.236327 68.254724 
L 158.604741 68.57133 
L 158.742311 68.689554 
L 159.001346 68.912162 
L 159.270109 69.14313 
L 159.64009 69.461083 
L 159.964804 69.740134 
L 160.126694 69.879258 
L 160.222342 69.961456 
L 160.660951 70.338386 
L 160.925721 70.565922 
L 161.094364 70.71085 
L 161.457707 71.023098 
L 161.478122 71.040642 
L 161.860919 71.369607 
L 162.147207 71.615637 
L 162.456418 71.881365 
L 162.619716 72.021699 
L 162.93209 72.290145 
L 163.046964 72.388865 
L 163.382156 72.676921 
L 163.575957 72.843469 
L 163.960255 73.173725 
L 164.205049 73.384094 
L 164.343967 73.503478 
" style="fill:none;stroke:#0066ff;stroke-linecap:square;stroke-width:2;"/>
   </g>
   <g id="line2d_12">
    <path clip-path="url(#p0be31fe297)" d="M 189.230587 47.839151 
L 214.117207 69.22609 
L 214.117207 69.22609 
" style="fill:none;stroke:#0066ff;stroke-linecap:square;stroke-width:2;"/>
   </g>
   <g id="line2d_13">
    <path clip-path="url(#p0be31fe297)" d="M 338.550307 35.006987 
L 363.436927 56.393926 
L 363.436927 56.393926 
" style="fill:none;stroke:#0066ff;stroke-linecap:square;stroke-width:2;"/>
   </g>
   <g id="line2d_14">
    <path clip-path="url(#p0be31fe297)" d="M 462.983407 47.839151 
L 487.870027 69.22609 
L 487.870027 69.22609 
" style="fill:none;stroke:#0066ff;stroke-linecap:square;stroke-width:2;"/>
   </g>
   <g id="line2d_15">
    <path clip-path="url(#p0be31fe297)" d="M 39.910867 37.145681 
L 64.797487 35.006987 
L 64.797487 35.006987 
" style="fill:none;stroke:#cc00ff;stroke-linecap:square;stroke-width:2;"/>
   </g>
   <g id="line2d_16">
    <path clip-path="url(#p0be31fe297)" d="M 214.117207 69.22609 
L 239.003827 67.087396 
L 239.003827 67.087396 
" style="fill:none;stroke:#cc00ff;stroke-linecap:square;stroke-width:2;"/>
   </g>
   <g id="line2d_17">
    <path clip-path="url(#p0be31fe297)" d="M 288.777067 62.810008 
L 313.663687 60.671314 
L 313.663687 60.671314 
" style="fill:none;stroke:#cc00ff;stroke-linecap:square;stroke-width:2;"/>
   </g>
   <g id="line2d_18">
    <path clip-path="url(#p0be31fe297)" d="M 363.436927 56.393926 
L 462.983407 47.839151 
L 462.983407 47.839151 
" style="fill:none;stroke:#cc00ff;stroke-linecap:square;stroke-width:2;"/>
   </g>
   <g id="line2d_19">
    <path clip-path="url(#p0be31fe297)" d="M 512.756647 43.561763 
L 537.643267 41.423069 
L 537.643267 41.423069 
" style="fill:none;stroke:#cc00ff;stroke-linecap:square;stroke-width:2;"/>
   </g>
   <g id="matplotlib.axis_1">
    <g id="xtick_1">
     <g id="line2d_20">
      <path clip-path="url(#p0be31fe297)" d="M 15.024247 87.704405 
L 15.024247 16.528672 
" style="fill:none;stroke:#000000;stroke-dasharray:0.5,0.825;stroke-dashoffset:0;stroke-width:0.5;"/>
     </g>
     <g id="line2d_21">
      <defs>
       <path d="M 0 0 
L 0 3.5 
" id="mbfe97bb15a" style="stroke:#000000;stroke-width:0.8;"/>
      </defs>
      <g>
       <use style="stroke:#000000;stroke-width:0.8;" x="15.024247" xlink:href="#mbfe97bb15a" y="86.335641"/>
      </g>
     </g>
    </g>
    <g id="xtick_2">
     <g id="line2d_22">
      <path clip-path="url(#p0be31fe297)" d="M 263.890447 87.704405 
L 263.890447 16.528672 
" style="fill:none;stroke:#000000;stroke-dasharray:0.5,0.825;stroke-dashoffset:0;stroke-width:0.5;"/>
     </g>
     <g id="line2d_23">
      <g>
       <use style="stroke:#000000;stroke-width:0.8;" x="263.890447" xlink:href="#mbfe97bb15a" y="86.335641"/>
      </g>
     </g>
     <g id="text_1">
      <!-- $f$ -->
      <defs>
       <path d="M 9.71875 -16.5 
Q 11.578125 -17.921875 14.203125 -17.921875 
Q 17.78125 -17.921875 20.015625 -10.015625 
Q 20.953125 -6.203125 25.09375 15.09375 
L 29.6875 39.59375 
L 21.09375 39.59375 
Q 20.125 39.59375 20.125 40.921875 
Q 20.515625 43.109375 21.390625 43.109375 
L 30.328125 43.109375 
L 31.5 49.609375 
Q 32.078125 52.640625 32.5625 54.8125 
Q 33.0625 56.984375 33.625 58.828125 
Q 34.1875 60.6875 35.296875 62.984375 
Q 37.015625 66.265625 39.921875 68.390625 
Q 42.828125 70.515625 46.1875 70.515625 
Q 48.390625 70.515625 50.46875 69.703125 
Q 52.546875 68.890625 53.859375 67.28125 
Q 55.171875 65.671875 55.171875 63.484375 
Q 55.171875 60.9375 53.484375 59.046875 
Q 51.8125 57.171875 49.421875 57.171875 
Q 47.796875 57.171875 46.65625 58.171875 
Q 45.515625 59.1875 45.515625 60.796875 
Q 45.515625 62.984375 47 64.625 
Q 48.484375 66.265625 50.6875 66.5 
Q 48.828125 67.921875 46.09375 67.921875 
Q 44.578125 67.921875 43.234375 66.5 
Q 41.890625 65.09375 41.5 63.484375 
Q 40.875 60.9375 38.71875 49.703125 
L 37.5 43.109375 
L 47.796875 43.109375 
Q 48.78125 43.109375 48.78125 41.796875 
Q 48.734375 41.546875 48.578125 40.9375 
Q 48.4375 40.328125 48.171875 39.953125 
Q 47.90625 39.59375 47.515625 39.59375 
L 36.8125 39.59375 
L 32.171875 15.1875 
Q 31.296875 9.859375 30.140625 4.359375 
Q 29 -1.125 26.921875 -6.90625 
Q 24.859375 -12.703125 21.625 -16.609375 
Q 18.40625 -20.515625 14.015625 -20.515625 
Q 10.640625 -20.515625 7.984375 -18.578125 
Q 5.328125 -16.65625 5.328125 -13.484375 
Q 5.328125 -10.9375 6.953125 -9.046875 
Q 8.59375 -7.171875 11.078125 -7.171875 
Q 12.75 -7.171875 13.859375 -8.171875 
Q 14.984375 -9.1875 14.984375 -10.796875 
Q 14.984375 -12.9375 13.390625 -14.71875 
Q 11.8125 -16.5 9.71875 -16.5 
z
" id="Cmmi10-66"/>
      </defs>
      <g transform="translate(261.440447 100.913766)scale(0.1 -0.1)">
       <use transform="translate(0 0.484375)" xlink:href="#Cmmi10-66"/>
      </g>
     </g>
    </g>
    <g id="xtick_3">
     <g id="line2d_24">
      <path clip-path="url(#p0be31fe297)" d="M 562.529887 87.704405 
L 562.529887 16.528672 
" style="fill:none;stroke:#000000;stroke-dasharray:0.5,0.825;stroke-dashoffset:0;stroke-width:0.5;"/>
     </g>
     <g id="line2d_25">
      <g>
       <use style="stroke:#000000;stroke-width:0.8;" x="562.529887" xlink:href="#mbfe97bb15a" y="86.335641"/>
      </g>
     </g>
     <g id="text_2">
      <!-- $1$ -->
      <defs>
       <path d="M 9.28125 0 
L 9.28125 3.515625 
Q 21.78125 3.515625 21.78125 6.6875 
L 21.78125 59.1875 
Q 16.609375 56.6875 8.6875 56.6875 
L 8.6875 60.203125 
Q 20.953125 60.203125 27.203125 66.609375 
L 28.609375 66.609375 
Q 28.953125 66.609375 29.265625 66.328125 
Q 29.59375 66.0625 29.59375 65.71875 
L 29.59375 6.6875 
Q 29.59375 3.515625 42.09375 3.515625 
L 42.09375 0 
z
" id="Cmr10-31"/>
      </defs>
      <g transform="translate(560.029887 100.934078)scale(0.1 -0.1)">
       <use transform="translate(0 0.390625)" xlink:href="#Cmr10-31"/>
      </g>
     </g>
    </g>
   </g>
   <g id="matplotlib.axis_2">
    <g id="ytick_1">
     <g id="line2d_26">
      <path clip-path="url(#p0be31fe297)" d="M 4.074135 86.335641 
L 573.48 86.335641 
" style="fill:none;stroke:#000000;stroke-dasharray:0.5,0.825;stroke-dashoffset:0;stroke-width:0.5;"/>
     </g>
     <g id="line2d_27">
      <defs>
       <path d="M 0 0 
L -3.5 0 
" id="m4ec83571df" style="stroke:#000000;stroke-width:0.8;"/>
      </defs>
      <g>
       <use style="stroke:#000000;stroke-width:0.8;" x="15.024247" xlink:href="#m4ec83571df" y="86.335641"/>
      </g>
     </g>
    </g>
    <g id="ytick_2">
     <g id="line2d_28">
      <path clip-path="url(#p0be31fe297)" d="M 4.074135 17.897436 
L 573.48 17.897436 
" style="fill:none;stroke:#000000;stroke-dasharray:0.5,0.825;stroke-dashoffset:0;stroke-width:0.5;"/>
     </g>
     <g id="line2d_29">
      <g>
       <use style="stroke:#000000;stroke-width:0.8;" x="15.024247" xlink:href="#m4ec83571df" y="17.897436"/>
      </g>
     </g>
     <g id="text_3">
      <!-- $1$ -->
      <g transform="translate(3.024247 21.696655)scale(0.1 -0.1)">
       <use transform="translate(0 0.390625)" xlink:href="#Cmr10-31"/>
      </g>
     </g>
    </g>
   </g>
   <g id="patch_3">
    <path d="M 15.024247 87.704405 
L 15.024247 16.528672 
" style="fill:none;stroke:#000000;stroke-linecap:square;stroke-linejoin:miter;stroke-width:0.8;"/>
   </g>
   <g id="patch_4">
    <path d="M 4.074135 86.335641 
L 573.48 86.335641 
" style="fill:none;stroke:#000000;stroke-linecap:square;stroke-linejoin:miter;stroke-width:0.8;"/>
   </g>
  </g>
 </g>
 <defs>
  <clipPath id="p0be31fe297">
   <rect height="71.175733" width="569.405865" x="4.074135" y="16.528672"/>
  </clipPath>
 </defs>
</svg>
