<?xml version="1.0" encoding="utf-8" standalone="no"?>
<!DOCTYPE svg PUBLIC "-//W3C//DTD SVG 1.1//EN"
  "http://www.w3.org/Graphics/SVG/1.1/DTD/svg11.dtd">
<!-- Created with matplotlib (http://matplotlib.org/) -->
<svg height="108pt" version="1.1" viewBox="0 0 576 108" width="576pt" xmlns="http://www.w3.org/2000/svg" xmlns:xlink="http://www.w3.org/1999/xlink">
 <defs>
  <style type="text/css">
*{stroke-linecap:butt;stroke-linejoin:round;}
  </style>
 </defs>
 <g id="figure_1">
  <g id="patch_1">
   <path d="M 0 108 
L 576 108 
L 576 0 
L 0 0 
z
" style="fill:#ffffff;"/>
  </g>
  <g id="axes_1">
   <g id="patch_2">
    <path d="M 4.074135 87.704405 
L 573.48 87.704405 
L 573.48 16.528672 
L 4.074135 16.528672 
z
" style="fill:#ffffff;"/>
   </g>
   <g id="line2d_1">
    <path clip-path="url(#pebf9eab448)" d="M 309.834977 47.228095 
L 351.950795 66.781868 
L 351.950795 66.781868 
" style="fill:none;stroke:#ff0000;stroke-linecap:square;stroke-width:2;"/>
   </g>
   <g id="line2d_2">
    <path clip-path="url(#pebf9eab448)" d="M 394.066613 27.674322 
L 415.124523 37.451209 
L 415.124523 37.451209 
" style="fill:none;stroke:#ff0000;stroke-linecap:square;stroke-width:2;"/>
   </g>
   <g id="line2d_3">
    <path clip-path="url(#pebf9eab448)" d="M 436.182432 66.781868 
L 457.240341 76.558755 
L 457.240341 76.558755 
" style="fill:none;stroke:#ff0000;stroke-linecap:square;stroke-width:2;"/>
   </g>
   <g id="line2d_4">
    <path clip-path="url(#pebf9eab448)" d="M 499.35616 37.451209 
L 541.471978 57.004982 
L 541.471978 57.004982 
" style="fill:none;stroke:#ff0000;stroke-linecap:square;stroke-width:2;"/>
   </g>
   <g id="line2d_5">
    <path clip-path="url(#pebf9eab448)" d="M 78.197975 37.451209 
L 120.313794 76.558755 
L 120.313794 76.558755 
" style="fill:none;stroke:#ffff00;stroke-linecap:square;stroke-width:2;"/>
   </g>
   <g id="line2d_6">
    <path clip-path="url(#pebf9eab448)" d="M 183.487521 27.674322 
L 225.60334 66.781868 
L 225.60334 66.781868 
" style="fill:none;stroke:#ffff00;stroke-linecap:square;stroke-width:2;"/>
   </g>
   <g id="line2d_7">
    <path clip-path="url(#pebf9eab448)" d="M 15.024247 86.335641 
L 36.082157 57.004982 
L 36.082157 57.004982 
" style="fill:none;stroke:#00ff00;stroke-linecap:square;stroke-width:2;"/>
   </g>
   <g id="line2d_8">
    <path clip-path="url(#pebf9eab448)" d="M 141.371703 66.781868 
L 162.429612 37.451209 
L 162.429612 37.451209 
" style="fill:none;stroke:#00ff00;stroke-linecap:square;stroke-width:2;"/>
   </g>
   <g id="line2d_9">
    <path clip-path="url(#pebf9eab448)" d="M 267.719158 47.228095 
L 288.777067 17.897436 
L 288.777067 17.897436 
" style="fill:none;stroke:#00ff00;stroke-linecap:square;stroke-width:2;"/>
   </g>
   <g id="line2d_10">
    <path clip-path="url(#pebf9eab448)" d="M 288.777067 17.897436 
L 309.834977 47.228095 
L 309.834977 47.228095 
" style="fill:none;stroke:#00ffff;stroke-linecap:square;stroke-width:2;"/>
   </g>
   <g id="line2d_11">
    <path clip-path="url(#pebf9eab448)" d="M 415.124523 37.451209 
L 415.208158 37.567701 
L 415.365237 37.786489 
L 415.465939 37.926753 
L 415.520251 38.002402 
L 415.628924 38.153768 
L 415.721787 38.283113 
L 415.877862 38.500502 
L 415.977145 38.63879 
L 416.09884 38.808294 
L 416.159603 38.892928 
L 416.307633 39.099112 
L 416.404621 39.234203 
L 416.508249 39.378542 
L 416.621381 39.536119 
L 416.741873 39.703946 
L 416.780169 39.757288 
L 416.954218 39.999713 
L 417.058475 40.144928 
L 417.091251 40.19058 
L 417.26973 40.439177 
L 417.296227 40.476083 
L 417.494632 40.752433 
L 417.541837 40.818182 
L 417.703218 41.042963 
L 417.810137 41.191886 
L 417.912833 41.334926 
L 417.939045 41.371436 
L 418.137076 41.647265 
L 418.219178 41.761621 
L 418.289631 41.859752 
L 418.450839 42.084292 
L 418.479758 42.124573 
L 418.665147 42.382792 
L 418.67338 42.39426 
L 418.781918 42.545438 
L 418.893829 42.701314 
L 419.066971 42.942476 
L 419.11491 43.009249 
L 419.301134 43.268632 
L 419.403608 43.411363 
L 419.465675 43.497814 
L 419.601018 43.686327 
L 419.727405 43.862366 
L 419.731316 43.867814 
L 419.865032 44.054061 
L 419.941548 44.160637 
L 420.090978 44.368771 
L 420.184473 44.498997 
L 420.278899 44.630518 
L 420.457373 44.879108 
L 420.541302 44.996009 
L 420.605589 45.085552 
L 420.686311 45.197985 
L 420.794287 45.348381 
L 420.977963 45.604215 
L 421.096218 45.768928 
L 421.19437 45.905638 
L 421.218491 45.939237 
L 421.350435 46.123015 
L 421.522766 46.363048 
L 421.616864 46.494113 
L 421.735868 46.659868 
L 421.7571 46.689442 
L 421.912433 46.905798 
L 422.011815 47.044224 
L 422.078111 47.136564 
L 422.211528 47.322395 
L 422.27205 47.406694 
L 422.424145 47.61854 
L 422.502832 47.728139 
L 422.661846 47.949623 
L 422.690796 47.989947 
L 422.887453 48.263862 
L 422.955117 48.358108 
L 423.068064 48.515427 
L 423.13156 48.603868 
L 423.28512 48.817754 
L 423.370246 48.936324 
L 423.447663 49.044154 
L 423.56823 49.212087 
L 423.643291 49.316636 
L 423.783312 49.511665 
L 423.89045 49.660894 
L 424.006048 49.821905 
L 424.129705 49.994141 
L 424.245303 50.155153 
L 424.322876 50.263201 
L 424.464363 50.460271 
L 424.523788 50.543043 
L 424.691759 50.777003 
L 424.769289 50.88499 
L 424.910333 51.081445 
L 424.964324 51.156647 
L 425.060117 51.290072 
L 425.202013 51.487714 
L 425.304327 51.630223 
L 425.398908 51.76196 
L 425.541929 51.961167 
L 425.63276 52.087682 
L 425.694134 52.173168 
L 425.856657 52.399539 
L 425.899354 52.45901 
L 426.022999 52.631229 
L 426.116865 52.761971 
L 426.26981 52.975003 
L 426.343485 53.07762 
L 426.45429 53.231956 
L 426.553785 53.370539 
L 426.703611 53.579225 
L 426.721669 53.604377 
L 426.899267 53.851745 
L 427.028302 54.031473 
L 427.087713 54.114224 
L 427.19475 54.263311 
L 427.340273 54.466004 
L 427.439195 54.603788 
L 427.4875 54.67107 
L 427.625466 54.863237 
L 427.723937 55.000393 
L 427.8515 55.17807 
L 427.935975 55.295732 
L 428.050082 55.454667 
L 428.122 55.554838 
L 428.210793 55.678514 
L 428.302382 55.806085 
L 428.493227 56.071904 
" style="fill:none;stroke:#00ffff;stroke-linecap:square;stroke-width:2;"/>
   </g>
   <g id="line2d_12">
    <path clip-path="url(#pebf9eab448)" d="M 428.825406 56.534582 
L 428.854031 56.574452 
L 428.938714 56.692404 
L 429.109571 56.930384 
L 429.192764 57.046259 
L 429.348082 57.262595 
L 429.362293 57.282389 
L 429.54571 57.537862 
L 429.608558 57.6254 
L 429.73212 57.797505 
L 429.851264 57.963456 
L 429.978576 58.140783 
L 430.073095 58.272434 
L 430.1199 58.337628 
L 430.220547 58.477814 
L 430.361445 58.674065 
L 430.436197 58.778184 
L 430.573726 58.969742 
L 430.718678 59.171639 
L 430.781452 59.259075 
L 430.897814 59.42115 
L 430.953215 59.498316 
L 431.136498 59.753603 
L 431.19333 59.832762 
L 431.319991 60.009182 
L 431.387305 60.102942 
L 431.536847 60.311232 
L 431.663085 60.487064 
L 431.74099 60.595574 
L 431.831267 60.721317 
L 431.965492 60.908273 
L 432.00789 60.967327 
L 432.111335 61.111412 
L 432.231704 61.279068 
L 432.401677 61.515817 
L 432.511297 61.668502 
L 432.541645 61.710772 
L 432.670759 61.890609 
L 432.794966 62.063612 
L 432.85654 62.149376 
L 433.021378 62.378972 
L 433.121735 62.518755 
L 433.268607 62.723326 
L 433.298888 62.765503 
L 433.387394 62.88878 
L 433.503895 63.051049 
L 433.595451 63.178574 
L 433.767538 63.418266 
L 433.877871 63.571944 
L 433.992603 63.731749 
L 434.04474 63.804368 
L 434.166554 63.974038 
L 434.329311 64.200736 
L 434.358613 64.241548 
L 434.518597 64.464384 
L 434.644268 64.639426 
L 434.719866 64.744723 
L 434.814815 64.876973 
L 434.903767 65.000871 
L 435.06229 65.22167 
L 435.175968 65.380008 
L 435.210351 65.427899 
L 435.301624 65.555029 
L 435.395297 65.685502 
L 435.563285 65.919486 
L 435.67539 66.075631 
L 435.7943 66.241256 
L 435.828325 66.288647 
L 435.95171 66.460505 
L 436.040339 66.583953 
L 436.182432 66.781868 
" style="fill:none;stroke:#00ffff;stroke-linecap:square;stroke-width:2;"/>
   </g>
   <g id="line2d_13">
    <path clip-path="url(#pebf9eab448)" d="M 541.471978 57.004982 
L 562.529887 86.335641 
L 562.529887 86.335641 
" style="fill:none;stroke:#00ffff;stroke-linecap:square;stroke-width:2;"/>
   </g>
   <g id="line2d_14">
    <path clip-path="url(#pebf9eab448)" d="M 351.950795 66.781868 
L 394.066613 27.674322 
L 394.066613 27.674322 
" style="fill:none;stroke:#0000ff;stroke-linecap:square;stroke-width:2;"/>
   </g>
   <g id="line2d_15">
    <path clip-path="url(#pebf9eab448)" d="M 457.240341 76.558755 
L 499.35616 37.451209 
L 499.35616 37.451209 
" style="fill:none;stroke:#0000ff;stroke-linecap:square;stroke-width:2;"/>
   </g>
   <g id="line2d_16">
    <path clip-path="url(#pebf9eab448)" d="M 36.082157 57.004982 
L 78.197975 37.451209 
L 78.197975 37.451209 
" style="fill:none;stroke:#ff00ff;stroke-linecap:square;stroke-width:2;"/>
   </g>
   <g id="line2d_17">
    <path clip-path="url(#pebf9eab448)" d="M 120.313794 76.558755 
L 141.371703 66.781868 
L 141.371703 66.781868 
" style="fill:none;stroke:#ff00ff;stroke-linecap:square;stroke-width:2;"/>
   </g>
   <g id="line2d_18">
    <path clip-path="url(#pebf9eab448)" d="M 162.429612 37.451209 
L 183.487521 27.674322 
L 183.487521 27.674322 
" style="fill:none;stroke:#ff00ff;stroke-linecap:square;stroke-width:2;"/>
   </g>
   <g id="line2d_19">
    <path clip-path="url(#pebf9eab448)" d="M 225.60334 66.781868 
L 267.719158 47.228095 
L 267.719158 47.228095 
" style="fill:none;stroke:#ff00ff;stroke-linecap:square;stroke-width:2;"/>
   </g>
   <g id="matplotlib.axis_1">
    <g id="xtick_1">
     <g id="line2d_20">
      <path clip-path="url(#pebf9eab448)" d="M 15.024247 87.704405 
L 15.024247 16.528672 
" style="fill:none;stroke:#000000;stroke-dasharray:0.5,0.825;stroke-dashoffset:0;stroke-width:0.5;"/>
     </g>
     <g id="line2d_21">
      <defs>
       <path d="M 0 0 
L 0 3.5 
" id="mccdb6a81df" style="stroke:#000000;stroke-width:0.8;"/>
      </defs>
      <g>
       <use style="stroke:#000000;stroke-width:0.8;" x="15.024247" xlink:href="#mccdb6a81df" y="86.335641"/>
      </g>
     </g>
    </g>
    <g id="xtick_2">
     <g id="line2d_22">
      <path clip-path="url(#pebf9eab448)" d="M 288.777067 87.704405 
L 288.777067 16.528672 
" style="fill:none;stroke:#000000;stroke-dasharray:0.5,0.825;stroke-dashoffset:0;stroke-width:0.5;"/>
     </g>
     <g id="line2d_23">
      <g>
       <use style="stroke:#000000;stroke-width:0.8;" x="288.777067" xlink:href="#mccdb6a81df" y="86.335641"/>
      </g>
     </g>
     <g id="text_1">
      <!-- $f$ -->
      <defs>
       <path d="M 9.71875 -16.5 
Q 11.578125 -17.921875 14.203125 -17.921875 
Q 17.78125 -17.921875 20.015625 -10.015625 
Q 20.953125 -6.203125 25.09375 15.09375 
L 29.6875 39.59375 
L 21.09375 39.59375 
Q 20.125 39.59375 20.125 40.921875 
Q 20.515625 43.109375 21.390625 43.109375 
L 30.328125 43.109375 
L 31.5 49.609375 
Q 32.078125 52.640625 32.5625 54.8125 
Q 33.0625 56.984375 33.625 58.828125 
Q 34.1875 60.6875 35.296875 62.984375 
Q 37.015625 66.265625 39.921875 68.390625 
Q 42.828125 70.515625 46.1875 70.515625 
Q 48.390625 70.515625 50.46875 69.703125 
Q 52.546875 68.890625 53.859375 67.28125 
Q 55.171875 65.671875 55.171875 63.484375 
Q 55.171875 60.9375 53.484375 59.046875 
Q 51.8125 57.171875 49.421875 57.171875 
Q 47.796875 57.171875 46.65625 58.171875 
Q 45.515625 59.1875 45.515625 60.796875 
Q 45.515625 62.984375 47 64.625 
Q 48.484375 66.265625 50.6875 66.5 
Q 48.828125 67.921875 46.09375 67.921875 
Q 44.578125 67.921875 43.234375 66.5 
Q 41.890625 65.09375 41.5 63.484375 
Q 40.875 60.9375 38.71875 49.703125 
L 37.5 43.109375 
L 47.796875 43.109375 
Q 48.78125 43.109375 48.78125 41.796875 
Q 48.734375 41.546875 48.578125 40.9375 
Q 48.4375 40.328125 48.171875 39.953125 
Q 47.90625 39.59375 47.515625 39.59375 
L 36.8125 39.59375 
L 32.171875 15.1875 
Q 31.296875 9.859375 30.140625 4.359375 
Q 29 -1.125 26.921875 -6.90625 
Q 24.859375 -12.703125 21.625 -16.609375 
Q 18.40625 -20.515625 14.015625 -20.515625 
Q 10.640625 -20.515625 7.984375 -18.578125 
Q 5.328125 -16.65625 5.328125 -13.484375 
Q 5.328125 -10.9375 6.953125 -9.046875 
Q 8.59375 -7.171875 11.078125 -7.171875 
Q 12.75 -7.171875 13.859375 -8.171875 
Q 14.984375 -9.1875 14.984375 -10.796875 
Q 14.984375 -12.9375 13.390625 -14.71875 
Q 11.8125 -16.5 9.71875 -16.5 
z
" id="Cmmi10-66"/>
      </defs>
      <g transform="translate(286.327067 100.913766)scale(0.1 -0.1)">
       <use transform="translate(0 0.484375)" xlink:href="#Cmmi10-66"/>
      </g>
     </g>
    </g>
    <g id="xtick_3">
     <g id="line2d_24">
      <path clip-path="url(#pebf9eab448)" d="M 562.529887 87.704405 
L 562.529887 16.528672 
" style="fill:none;stroke:#000000;stroke-dasharray:0.5,0.825;stroke-dashoffset:0;stroke-width:0.5;"/>
     </g>
     <g id="line2d_25">
      <g>
       <use style="stroke:#000000;stroke-width:0.8;" x="562.529887" xlink:href="#mccdb6a81df" y="86.335641"/>
      </g>
     </g>
     <g id="text_2">
      <!-- $1$ -->
      <defs>
       <path d="M 9.28125 0 
L 9.28125 3.515625 
Q 21.78125 3.515625 21.78125 6.6875 
L 21.78125 59.1875 
Q 16.609375 56.6875 8.6875 56.6875 
L 8.6875 60.203125 
Q 20.953125 60.203125 27.203125 66.609375 
L 28.609375 66.609375 
Q 28.953125 66.609375 29.265625 66.328125 
Q 29.59375 66.0625 29.59375 65.71875 
L 29.59375 6.6875 
Q 29.59375 3.515625 42.09375 3.515625 
L 42.09375 0 
z
" id="Cmr10-31"/>
      </defs>
      <g transform="translate(560.029887 100.934078)scale(0.1 -0.1)">
       <use transform="translate(0 0.390625)" xlink:href="#Cmr10-31"/>
      </g>
     </g>
    </g>
   </g>
   <g id="matplotlib.axis_2">
    <g id="ytick_1">
     <g id="line2d_26">
      <path clip-path="url(#pebf9eab448)" d="M 4.074135 86.335641 
L 573.48 86.335641 
" style="fill:none;stroke:#000000;stroke-dasharray:0.5,0.825;stroke-dashoffset:0;stroke-width:0.5;"/>
     </g>
     <g id="line2d_27">
      <defs>
       <path d="M 0 0 
L -3.5 0 
" id="m840544215e" style="stroke:#000000;stroke-width:0.8;"/>
      </defs>
      <g>
       <use style="stroke:#000000;stroke-width:0.8;" x="15.024247" xlink:href="#m840544215e" y="86.335641"/>
      </g>
     </g>
    </g>
    <g id="ytick_2">
     <g id="line2d_28">
      <path clip-path="url(#pebf9eab448)" d="M 4.074135 17.897436 
L 573.48 17.897436 
" style="fill:none;stroke:#000000;stroke-dasharray:0.5,0.825;stroke-dashoffset:0;stroke-width:0.5;"/>
     </g>
     <g id="line2d_29">
      <g>
       <use style="stroke:#000000;stroke-width:0.8;" x="15.024247" xlink:href="#m840544215e" y="17.897436"/>
      </g>
     </g>
     <g id="text_3">
      <!-- $1$ -->
      <g transform="translate(3.024247 21.696655)scale(0.1 -0.1)">
       <use transform="translate(0 0.390625)" xlink:href="#Cmr10-31"/>
      </g>
     </g>
    </g>
   </g>
   <g id="patch_3">
    <path d="M 15.024247 87.704405 
L 15.024247 16.528672 
" style="fill:none;stroke:#000000;stroke-linecap:square;stroke-linejoin:miter;stroke-width:0.8;"/>
   </g>
   <g id="patch_4">
    <path d="M 4.074135 86.335641 
L 573.48 86.335641 
" style="fill:none;stroke:#000000;stroke-linecap:square;stroke-linejoin:miter;stroke-width:0.8;"/>
   </g>
  </g>
 </g>
 <defs>
  <clipPath id="pebf9eab448">
   <rect height="71.175733" width="569.405865" x="4.074135" y="16.528672"/>
  </clipPath>
 </defs>
</svg>
