<?xml version="1.0" encoding="utf-8" standalone="no"?>
<!DOCTYPE svg PUBLIC "-//W3C//DTD SVG 1.1//EN"
  "http://www.w3.org/Graphics/SVG/1.1/DTD/svg11.dtd">
<!-- Created with matplotlib (http://matplotlib.org/) -->
<svg height="108pt" version="1.1" viewBox="0 0 576 108" width="576pt" xmlns="http://www.w3.org/2000/svg" xmlns:xlink="http://www.w3.org/1999/xlink">
 <defs>
  <style type="text/css">
*{stroke-linecap:butt;stroke-linejoin:round;}
  </style>
 </defs>
 <g id="figure_1">
  <g id="patch_1">
   <path d="M 0 108 
L 576 108 
L 576 0 
L 0 0 
z
" style="fill:#ffffff;"/>
  </g>
  <g id="axes_1">
   <g id="patch_2">
    <path d="M 4.074135 87.704405 
L 573.48 87.704405 
L 573.48 16.528672 
L 4.074135 16.528672 
z
" style="fill:#ffffff;"/>
   </g>
   <g id="line2d_1">
    <path clip-path="url(#pb59fc5026c)" d="M 34.57802 52.116538 
L 54.131793 52.116538 
L 54.131793 52.116538 
" style="fill:none;stroke:#ff0000;stroke-linecap:square;stroke-width:2;"/>
   </g>
   <g id="line2d_2">
    <path clip-path="url(#pb59fc5026c)" d="M 73.685566 35.006987 
L 112.793112 35.006987 
L 112.793112 35.006987 
" style="fill:none;stroke:#ff0000;stroke-linecap:square;stroke-width:2;"/>
   </g>
   <g id="line2d_3">
    <path clip-path="url(#pb59fc5026c)" d="M 132.346885 52.116538 
L 171.45443 52.116538 
L 171.45443 52.116538 
" style="fill:none;stroke:#ff0000;stroke-linecap:square;stroke-width:2;"/>
   </g>
   <g id="line2d_4">
    <path clip-path="url(#pb59fc5026c)" d="M 191.008203 69.22609 
L 230.115749 69.22609 
L 230.115749 69.22609 
" style="fill:none;stroke:#ff0000;stroke-linecap:square;stroke-width:2;"/>
   </g>
   <g id="line2d_5">
    <path clip-path="url(#pb59fc5026c)" d="M 249.669522 52.116538 
L 269.223294 52.116538 
L 269.223294 52.116538 
" style="fill:none;stroke:#ff0000;stroke-linecap:square;stroke-width:2;"/>
   </g>
   <g id="line2d_6">
    <path clip-path="url(#pb59fc5026c)" d="M 347.438386 52.116538 
L 366.992159 52.116538 
L 366.992159 52.116538 
" style="fill:none;stroke:#ff0000;stroke-linecap:square;stroke-width:2;"/>
   </g>
   <g id="line2d_7">
    <path clip-path="url(#pb59fc5026c)" d="M 406.099704 52.116538 
L 445.20725 52.116538 
L 445.20725 52.116538 
" style="fill:none;stroke:#ff0000;stroke-linecap:square;stroke-width:2;"/>
   </g>
   <g id="line2d_8">
    <path clip-path="url(#pb59fc5026c)" d="M 484.314796 52.116538 
L 503.868569 52.116538 
L 503.868569 52.116538 
" style="fill:none;stroke:#ff0000;stroke-linecap:square;stroke-width:2;"/>
   </g>
   <g id="line2d_9">
    <path clip-path="url(#pb59fc5026c)" d="M 112.793112 35.006987 
L 132.346885 52.116538 
L 132.346885 52.116538 
" style="fill:none;stroke:#cbff00;stroke-linecap:square;stroke-width:2;"/>
   </g>
   <g id="line2d_10">
    <path clip-path="url(#pb59fc5026c)" d="M 171.45443 52.116538 
L 191.008203 69.22609 
L 191.008203 69.22609 
" style="fill:none;stroke:#cbff00;stroke-linecap:square;stroke-width:2;"/>
   </g>
   <g id="line2d_11">
    <path clip-path="url(#pb59fc5026c)" d="M 327.884613 35.006987 
L 327.976741 35.087599 
L 328.043105 35.145668 
L 328.180248 35.265668 
L 328.314767 35.383372 
L 328.364248 35.426667 
L 328.517262 35.560555 
L 328.552676 35.591542 
L 328.674594 35.69822 
L 328.755586 35.769089 
L 328.871773 35.870752 
L 328.952239 35.94116 
L 329.10956 36.078816 
L 329.207805 36.164781 
L 329.23484 36.188436 
L 329.324294 36.266708 
L 329.457623 36.383371 
L 329.58009 36.49053 
L 329.673891 36.572605 
L 329.789065 36.673382 
L 329.827708 36.707195 
L 329.971516 36.833028 
L 330.078369 36.926524 
L 330.12571 36.967947 
L 330.259098 37.084662 
L 330.297612 37.118362 
L 330.45872 37.259331 
L 330.557317 37.345603 
L 330.633464 37.412232 
L 330.702268 37.472435 
L 330.869783 37.619011 
L 330.937132 37.677941 
L 331.005473 37.73774 
L 331.133483 37.849749 
L 331.199142 37.9072 
L 331.356058 38.044502 
L 331.379146 38.064704 
L 331.508706 38.178069 
L 331.583061 38.243129 
L 331.672511 38.321398 
L 331.841793 38.469519 
L 331.911575 38.530579 
L 332.005122 38.612433 
L 332.15839 38.746542 
L 332.173348 38.759631 
L 332.302881 38.872972 
L 332.357074 38.920391 
L 332.481144 39.028952 
L 332.583593 39.118594 
L 332.683766 39.206246 
L 332.831917 39.335878 
L 332.943869 39.433836 
L 332.958674 39.44679 
L 333.056753 39.53261 
L 333.193901 39.652614 
L 333.256693 39.707558 
L 333.372717 39.809078 
L 333.45336 39.879641 
L 333.60211 40.009797 
L 333.662143 40.062326 
L 333.761944 40.149652 
L 333.912203 40.281128 
L 333.945701 40.310439 
L 334.075762 40.424243 
L 334.208923 40.540759 
L 334.261749 40.586982 
L 334.377301 40.688089 
L 334.475964 40.774419 
L 334.605555 40.887812 
L 334.694247 40.965417 
L 334.731606 40.998106 
L 334.904385 41.149288 
" style="fill:none;stroke:#cbff00;stroke-linecap:square;stroke-width:2;"/>
   </g>
   <g id="line2d_12">
    <path clip-path="url(#pb59fc5026c)" d="M 335.158943 41.372026 
L 335.249498 41.451262 
L 335.317004 41.510329 
L 335.47584 41.649311 
L 335.525214 41.692513 
L 335.682655 41.830274 
L 335.77388 41.910096 
L 335.890009 42.011709 
L 335.920513 42.038399 
L 336.077634 42.175881 
L 336.13361 42.22486 
L 336.226137 42.305821 
L 336.328692 42.395556 
L 336.463251 42.513296 
L 336.49672 42.542581 
L 336.5904 42.62455 
L 336.734935 42.751019 
L 336.788867 42.79821 
L 336.918062 42.911255 
L 337.049661 43.026404 
L 337.090911 43.062498 
L 337.252542 43.203925 
L 337.358558 43.296689 
L 337.434931 43.363515 
L 337.477602 43.400852 
L 337.631792 43.535769 
L 337.683139 43.580698 
L 337.780478 43.665869 
L 337.951182 43.815235 
L 338.013464 43.869732 
L 338.063551 43.913558 
L 338.16052 43.998406 
L 338.264743 44.089601 
L 338.439853 44.242822 
L 338.512527 44.306412 
L 338.62009 44.40053 
L 338.693832 44.465054 
L 338.774022 44.53522 
L 338.927593 44.669595 
L 338.989459 44.723728 
L 339.062056 44.78725 
L 339.149059 44.863377 
L 339.331147 45.022704 
L 339.36367 45.051162 
L 339.434335 45.112994 
L 339.592475 45.251367 
L 339.630799 45.2849 
L 339.749475 45.388741 
L 339.903169 45.523223 
L 340.016626 45.622499 
L 340.075542 45.67405 
L 340.199948 45.782906 
L 340.229992 45.809194 
L 340.333578 45.899832 
L 340.510878 46.054969 
L 340.567077 46.104143 
L 340.673013 46.196837 
L 340.742004 46.257204 
L 340.821309 46.326596 
L 340.963617 46.451115 
L 341.078904 46.551992 
L 341.195932 46.654391 
L 341.211871 46.668338 
L 341.378886 46.814476 
L 341.475091 46.898656 
L 341.499541 46.920049 
L 341.646203 47.048379 
L 341.753153 47.14196 
L 341.837068 47.215385 
L 341.913513 47.282275 
L 342.057938 47.408646 
L 342.127638 47.469635 
L 342.274902 47.59849 
L 342.365175 47.677479 
L 342.404585 47.711963 
L 342.479131 47.777191 
L 342.668319 47.94273 
L 342.683512 47.956024 
L 342.859962 48.110418 
L 342.894845 48.14094 
L 343.030907 48.259994 
L 343.109618 48.328867 
L 343.170912 48.382499 
L 343.306921 48.501506 
L 343.361171 48.548975 
L 343.481515 48.654276 
L 343.583274 48.743316 
L 343.687802 48.834777 
L 343.77985 48.915319 
L 343.865622 48.99037 
L 344.025492 49.130256 
L 344.120326 49.213236 
L 344.225569 49.305324 
L 344.333487 49.399752 
L 344.426969 49.481549 
L 344.507385 49.551913 
L 344.568944 49.605777 
L 344.65161 49.67811 
L 344.82017 49.825599 
L 344.869548 49.868806 
L 344.993247 49.977042 
L 345.084145 50.056578 
L 345.19497 50.15355 
L 345.288598 50.235474 
L 345.355714 50.2942 
L 345.491027 50.412599 
L 345.540042 50.455488 
L 345.699916 50.595377 
L 345.773586 50.659839 
L 345.84428 50.721696 
L 345.930197 50.796873 
L 346.070709 50.919821 
L 346.138498 50.979137 
L 346.252681 51.079047 
L 346.341866 51.157084 
L 346.465151 51.264958 
L 346.579102 51.364665 
L 346.652248 51.428668 
L 346.702428 51.472575 
L 346.803 51.560576 
L 346.899805 51.645281 
L 347.089857 51.811576 
L 347.155702 51.86919 
L 347.259468 51.959985 
L 347.366493 52.053632 
L 347.438386 52.116538 
" style="fill:none;stroke:#cbff00;stroke-linecap:square;stroke-width:2;"/>
   </g>
   <g id="line2d_13">
    <path clip-path="url(#pb59fc5026c)" d="M 366.992159 52.116538 
L 386.545932 69.22609 
L 386.545932 69.22609 
" style="fill:none;stroke:#cbff00;stroke-linecap:square;stroke-width:2;"/>
   </g>
   <g id="line2d_14">
    <path clip-path="url(#pb59fc5026c)" d="M 464.761023 35.006987 
L 484.314796 52.116538 
L 484.314796 52.116538 
" style="fill:none;stroke:#cbff00;stroke-linecap:square;stroke-width:2;"/>
   </g>
   <g id="line2d_15">
    <path clip-path="url(#pb59fc5026c)" d="M 503.868569 52.116538 
L 523.422342 69.22609 
L 523.422342 69.22609 
" style="fill:none;stroke:#cbff00;stroke-linecap:square;stroke-width:2;"/>
   </g>
   <g id="line2d_16">
    <path clip-path="url(#pb59fc5026c)" d="M 288.777067 17.897436 
L 308.33084 69.22609 
L 308.33084 69.22609 
" style="fill:none;stroke:#00ff66;stroke-linecap:square;stroke-width:2;"/>
   </g>
   <g id="line2d_17">
    <path clip-path="url(#pb59fc5026c)" d="M 542.976114 35.006987 
L 562.529887 86.335641 
L 562.529887 86.335641 
" style="fill:none;stroke:#00ff66;stroke-linecap:square;stroke-width:2;"/>
   </g>
   <g id="line2d_18">
    <path clip-path="url(#pb59fc5026c)" d="M 15.024247 86.335641 
L 32.119757 56.4185 
L 32.119757 56.4185 
" style="fill:none;stroke:#0066ff;stroke-linecap:square;stroke-width:2;"/>
   </g>
   <g id="line2d_19">
    <path clip-path="url(#pb59fc5026c)" d="M 32.390567 55.944582 
L 32.469217 55.806944 
L 32.657816 55.476897 
L 32.711019 55.38379 
L 32.806359 55.216946 
L 32.894088 55.063419 
L 33.010736 54.859285 
L 33.079159 54.739545 
L 33.175506 54.570938 
L 33.325539 54.30838 
L 33.41057 54.159576 
L 33.455276 54.08134 
L 33.558441 53.900802 
L 33.67088 53.704034 
L 33.831401 53.423121 
L 33.896746 53.308769 
L 34.016249 53.099638 
L 34.04943 53.041571 
L 34.191226 52.793428 
L 34.304734 52.594789 
L 34.408443 52.413299 
L 34.494613 52.262501 
L 34.57802 52.116538 
" style="fill:none;stroke:#0066ff;stroke-linecap:square;stroke-width:2;"/>
   </g>
   <g id="line2d_20">
    <path clip-path="url(#pb59fc5026c)" d="M 269.223294 52.116538 
L 288.777067 17.897436 
L 288.777067 17.897436 
" style="fill:none;stroke:#0066ff;stroke-linecap:square;stroke-width:2;"/>
   </g>
   <g id="line2d_21">
    <path clip-path="url(#pb59fc5026c)" d="M 308.33084 69.22609 
L 327.884613 35.006987 
L 327.884613 35.006987 
" style="fill:none;stroke:#0066ff;stroke-linecap:square;stroke-width:2;"/>
   </g>
   <g id="line2d_22">
    <path clip-path="url(#pb59fc5026c)" d="M 523.422342 69.22609 
L 542.976114 35.006987 
L 542.976114 35.006987 
" style="fill:none;stroke:#0066ff;stroke-linecap:square;stroke-width:2;"/>
   </g>
   <g id="line2d_23">
    <path clip-path="url(#pb59fc5026c)" d="M 54.131793 52.116538 
L 73.685566 35.006987 
L 73.685566 35.006987 
" style="fill:none;stroke:#cc00ff;stroke-linecap:square;stroke-width:2;"/>
   </g>
   <g id="line2d_24">
    <path clip-path="url(#pb59fc5026c)" d="M 230.115749 69.22609 
L 249.669522 52.116538 
L 249.669522 52.116538 
" style="fill:none;stroke:#cc00ff;stroke-linecap:square;stroke-width:2;"/>
   </g>
   <g id="line2d_25">
    <path clip-path="url(#pb59fc5026c)" d="M 386.545932 69.22609 
L 406.099704 52.116538 
L 406.099704 52.116538 
" style="fill:none;stroke:#cc00ff;stroke-linecap:square;stroke-width:2;"/>
   </g>
   <g id="line2d_26">
    <path clip-path="url(#pb59fc5026c)" d="M 445.20725 52.116538 
L 464.761023 35.006987 
L 464.761023 35.006987 
" style="fill:none;stroke:#cc00ff;stroke-linecap:square;stroke-width:2;"/>
   </g>
   <g id="matplotlib.axis_1">
    <g id="xtick_1">
     <g id="line2d_27">
      <path clip-path="url(#pb59fc5026c)" d="M 15.024247 87.704405 
L 15.024247 16.528672 
" style="fill:none;stroke:#000000;stroke-dasharray:0.5,0.825;stroke-dashoffset:0;stroke-width:0.5;"/>
     </g>
     <g id="line2d_28">
      <defs>
       <path d="M 0 0 
L 0 3.5 
" id="m3ecc24b809" style="stroke:#000000;stroke-width:0.8;"/>
      </defs>
      <g>
       <use style="stroke:#000000;stroke-width:0.8;" x="15.024247" xlink:href="#m3ecc24b809" y="86.335641"/>
      </g>
     </g>
    </g>
    <g id="xtick_2">
     <g id="line2d_29">
      <path clip-path="url(#pb59fc5026c)" d="M 288.777067 87.704405 
L 288.777067 16.528672 
" style="fill:none;stroke:#000000;stroke-dasharray:0.5,0.825;stroke-dashoffset:0;stroke-width:0.5;"/>
     </g>
     <g id="line2d_30">
      <g>
       <use style="stroke:#000000;stroke-width:0.8;" x="288.777067" xlink:href="#m3ecc24b809" y="86.335641"/>
      </g>
     </g>
     <g id="text_1">
      <!-- $f$ -->
      <defs>
       <path d="M 9.71875 -16.5 
Q 11.578125 -17.921875 14.203125 -17.921875 
Q 17.78125 -17.921875 20.015625 -10.015625 
Q 20.953125 -6.203125 25.09375 15.09375 
L 29.6875 39.59375 
L 21.09375 39.59375 
Q 20.125 39.59375 20.125 40.921875 
Q 20.515625 43.109375 21.390625 43.109375 
L 30.328125 43.109375 
L 31.5 49.609375 
Q 32.078125 52.640625 32.5625 54.8125 
Q 33.0625 56.984375 33.625 58.828125 
Q 34.1875 60.6875 35.296875 62.984375 
Q 37.015625 66.265625 39.921875 68.390625 
Q 42.828125 70.515625 46.1875 70.515625 
Q 48.390625 70.515625 50.46875 69.703125 
Q 52.546875 68.890625 53.859375 67.28125 
Q 55.171875 65.671875 55.171875 63.484375 
Q 55.171875 60.9375 53.484375 59.046875 
Q 51.8125 57.171875 49.421875 57.171875 
Q 47.796875 57.171875 46.65625 58.171875 
Q 45.515625 59.1875 45.515625 60.796875 
Q 45.515625 62.984375 47 64.625 
Q 48.484375 66.265625 50.6875 66.5 
Q 48.828125 67.921875 46.09375 67.921875 
Q 44.578125 67.921875 43.234375 66.5 
Q 41.890625 65.09375 41.5 63.484375 
Q 40.875 60.9375 38.71875 49.703125 
L 37.5 43.109375 
L 47.796875 43.109375 
Q 48.78125 43.109375 48.78125 41.796875 
Q 48.734375 41.546875 48.578125 40.9375 
Q 48.4375 40.328125 48.171875 39.953125 
Q 47.90625 39.59375 47.515625 39.59375 
L 36.8125 39.59375 
L 32.171875 15.1875 
Q 31.296875 9.859375 30.140625 4.359375 
Q 29 -1.125 26.921875 -6.90625 
Q 24.859375 -12.703125 21.625 -16.609375 
Q 18.40625 -20.515625 14.015625 -20.515625 
Q 10.640625 -20.515625 7.984375 -18.578125 
Q 5.328125 -16.65625 5.328125 -13.484375 
Q 5.328125 -10.9375 6.953125 -9.046875 
Q 8.59375 -7.171875 11.078125 -7.171875 
Q 12.75 -7.171875 13.859375 -8.171875 
Q 14.984375 -9.1875 14.984375 -10.796875 
Q 14.984375 -12.9375 13.390625 -14.71875 
Q 11.8125 -16.5 9.71875 -16.5 
z
" id="Cmmi10-66"/>
      </defs>
      <g transform="translate(286.327067 100.913766)scale(0.1 -0.1)">
       <use transform="translate(0 0.484375)" xlink:href="#Cmmi10-66"/>
      </g>
     </g>
    </g>
    <g id="xtick_3">
     <g id="line2d_31">
      <path clip-path="url(#pb59fc5026c)" d="M 562.529887 87.704405 
L 562.529887 16.528672 
" style="fill:none;stroke:#000000;stroke-dasharray:0.5,0.825;stroke-dashoffset:0;stroke-width:0.5;"/>
     </g>
     <g id="line2d_32">
      <g>
       <use style="stroke:#000000;stroke-width:0.8;" x="562.529887" xlink:href="#m3ecc24b809" y="86.335641"/>
      </g>
     </g>
     <g id="text_2">
      <!-- $1$ -->
      <defs>
       <path d="M 9.28125 0 
L 9.28125 3.515625 
Q 21.78125 3.515625 21.78125 6.6875 
L 21.78125 59.1875 
Q 16.609375 56.6875 8.6875 56.6875 
L 8.6875 60.203125 
Q 20.953125 60.203125 27.203125 66.609375 
L 28.609375 66.609375 
Q 28.953125 66.609375 29.265625 66.328125 
Q 29.59375 66.0625 29.59375 65.71875 
L 29.59375 6.6875 
Q 29.59375 3.515625 42.09375 3.515625 
L 42.09375 0 
z
" id="Cmr10-31"/>
      </defs>
      <g transform="translate(560.029887 100.934078)scale(0.1 -0.1)">
       <use transform="translate(0 0.390625)" xlink:href="#Cmr10-31"/>
      </g>
     </g>
    </g>
   </g>
   <g id="matplotlib.axis_2">
    <g id="ytick_1">
     <g id="line2d_33">
      <path clip-path="url(#pb59fc5026c)" d="M 4.074135 86.335641 
L 573.48 86.335641 
" style="fill:none;stroke:#000000;stroke-dasharray:0.5,0.825;stroke-dashoffset:0;stroke-width:0.5;"/>
     </g>
     <g id="line2d_34">
      <defs>
       <path d="M 0 0 
L -3.5 0 
" id="m1f766df4e9" style="stroke:#000000;stroke-width:0.8;"/>
      </defs>
      <g>
       <use style="stroke:#000000;stroke-width:0.8;" x="15.024247" xlink:href="#m1f766df4e9" y="86.335641"/>
      </g>
     </g>
    </g>
    <g id="ytick_2">
     <g id="line2d_35">
      <path clip-path="url(#pb59fc5026c)" d="M 4.074135 17.897436 
L 573.48 17.897436 
" style="fill:none;stroke:#000000;stroke-dasharray:0.5,0.825;stroke-dashoffset:0;stroke-width:0.5;"/>
     </g>
     <g id="line2d_36">
      <g>
       <use style="stroke:#000000;stroke-width:0.8;" x="15.024247" xlink:href="#m1f766df4e9" y="17.897436"/>
      </g>
     </g>
     <g id="text_3">
      <!-- $1$ -->
      <g transform="translate(3.024247 21.696655)scale(0.1 -0.1)">
       <use transform="translate(0 0.390625)" xlink:href="#Cmr10-31"/>
      </g>
     </g>
    </g>
   </g>
   <g id="patch_3">
    <path d="M 15.024247 87.704405 
L 15.024247 16.528672 
" style="fill:none;stroke:#000000;stroke-linecap:square;stroke-linejoin:miter;stroke-width:0.8;"/>
   </g>
   <g id="patch_4">
    <path d="M 4.074135 86.335641 
L 573.48 86.335641 
" style="fill:none;stroke:#000000;stroke-linecap:square;stroke-linejoin:miter;stroke-width:0.8;"/>
   </g>
  </g>
 </g>
 <defs>
  <clipPath id="pb59fc5026c">
   <rect height="71.175733" width="569.405865" x="4.074135" y="16.528672"/>
  </clipPath>
 </defs>
</svg>
