<?xml version="1.0" encoding="utf-8" standalone="no"?>
<!DOCTYPE svg PUBLIC "-//W3C//DTD SVG 1.1//EN"
  "http://www.w3.org/Graphics/SVG/1.1/DTD/svg11.dtd">
<!-- Created with matplotlib (http://matplotlib.org/) -->
<svg height="108pt" version="1.1" viewBox="0 0 576 108" width="576pt" xmlns="http://www.w3.org/2000/svg" xmlns:xlink="http://www.w3.org/1999/xlink">
 <defs>
  <style type="text/css">
*{stroke-linecap:butt;stroke-linejoin:round;}
  </style>
 </defs>
 <g id="figure_1">
  <g id="patch_1">
   <path d="M 0 108 
L 576 108 
L 576 0 
L 0 0 
z
" style="fill:#ffffff;"/>
  </g>
  <g id="axes_1">
   <g id="patch_2">
    <path d="M 4.074135 87.704405 
L 573.48 87.704405 
L 573.48 16.528672 
L 4.074135 16.528672 
z
" style="fill:#ffffff;"/>
   </g>
   <g id="line2d_1">
    <path clip-path="url(#pe894843198)" d="M 37.836982 52.116538 
L 60.649717 52.116538 
L 60.649717 52.116538 
" style="fill:none;stroke:#ff0000;stroke-linecap:square;stroke-width:2;"/>
   </g>
   <g id="line2d_2">
    <path clip-path="url(#pe894843198)" d="M 106.275187 52.116538 
L 197.526127 52.116538 
L 197.526127 52.116538 
" style="fill:none;stroke:#ff0000;stroke-linecap:square;stroke-width:2;"/>
   </g>
   <g id="line2d_3">
    <path clip-path="url(#pe894843198)" d="M 243.151597 52.116538 
L 265.964332 52.116538 
L 265.964332 52.116538 
" style="fill:none;stroke:#ff0000;stroke-linecap:square;stroke-width:2;"/>
   </g>
   <g id="line2d_4">
    <path clip-path="url(#pe894843198)" d="M 357.215272 69.22609 
L 380.028007 69.22609 
L 380.028007 69.22609 
" style="fill:none;stroke:#ff0000;stroke-linecap:square;stroke-width:2;"/>
   </g>
   <g id="line2d_5">
    <path clip-path="url(#pe894843198)" d="M 471.278947 35.006987 
L 494.091682 35.006987 
L 494.091682 35.006987 
" style="fill:none;stroke:#ff0000;stroke-linecap:square;stroke-width:2;"/>
   </g>
   <g id="line2d_6">
    <path clip-path="url(#pe894843198)" d="M 83.462452 35.006987 
L 106.275187 52.116538 
L 106.275187 52.116538 
" style="fill:none;stroke:#cbff00;stroke-linecap:square;stroke-width:2;"/>
   </g>
   <g id="line2d_7">
    <path clip-path="url(#pe894843198)" d="M 197.526127 52.116538 
L 220.338862 69.22609 
L 220.338862 69.22609 
" style="fill:none;stroke:#cbff00;stroke-linecap:square;stroke-width:2;"/>
   </g>
   <g id="line2d_8">
    <path clip-path="url(#pe894843198)" d="M 334.402537 52.116538 
L 357.215272 69.22609 
L 357.215272 69.22609 
" style="fill:none;stroke:#cbff00;stroke-linecap:square;stroke-width:2;"/>
   </g>
   <g id="line2d_9">
    <path clip-path="url(#pe894843198)" d="M 402.840742 35.006987 
L 448.466212 69.22609 
L 448.466212 69.22609 
" style="fill:none;stroke:#cbff00;stroke-linecap:square;stroke-width:2;"/>
   </g>
   <g id="line2d_10">
    <path clip-path="url(#pe894843198)" d="M 494.091682 35.006987 
L 516.904417 52.116538 
L 516.904417 52.116538 
" style="fill:none;stroke:#cbff00;stroke-linecap:square;stroke-width:2;"/>
   </g>
   <g id="line2d_11">
    <path clip-path="url(#pe894843198)" d="M 15.024247 86.335641 
L 37.836982 52.116538 
L 37.836982 52.116538 
" style="fill:none;stroke:#00ff66;stroke-linecap:square;stroke-width:2;"/>
   </g>
   <g id="line2d_12">
    <path clip-path="url(#pe894843198)" d="M 265.964332 52.116538 
L 288.777067 17.897436 
L 288.777067 17.897436 
" style="fill:none;stroke:#00ff66;stroke-linecap:square;stroke-width:2;"/>
   </g>
   <g id="line2d_13">
    <path clip-path="url(#pe894843198)" d="M 380.028007 69.22609 
L 402.840742 35.006987 
L 402.840742 35.006987 
" style="fill:none;stroke:#00ff66;stroke-linecap:square;stroke-width:2;"/>
   </g>
   <g id="line2d_14">
    <path clip-path="url(#pe894843198)" d="M 448.466212 69.22609 
L 471.278947 35.006987 
L 471.278947 35.006987 
" style="fill:none;stroke:#00ff66;stroke-linecap:square;stroke-width:2;"/>
   </g>
   <g id="line2d_15">
    <path clip-path="url(#pe894843198)" d="M 288.777067 17.897436 
L 311.589802 69.22609 
L 311.589802 69.22609 
" style="fill:none;stroke:#0066ff;stroke-linecap:square;stroke-width:2;"/>
   </g>
   <g id="line2d_16">
    <path clip-path="url(#pe894843198)" d="M 539.717152 35.006987 
L 562.529887 86.335641 
L 562.529887 86.335641 
" style="fill:none;stroke:#0066ff;stroke-linecap:square;stroke-width:2;"/>
   </g>
   <g id="line2d_17">
    <path clip-path="url(#pe894843198)" d="M 60.649717 52.116538 
L 83.462452 35.006987 
L 83.462452 35.006987 
" style="fill:none;stroke:#cc00ff;stroke-linecap:square;stroke-width:2;"/>
   </g>
   <g id="line2d_18">
    <path clip-path="url(#pe894843198)" d="M 220.338862 69.22609 
L 243.151597 52.116538 
L 243.151597 52.116538 
" style="fill:none;stroke:#cc00ff;stroke-linecap:square;stroke-width:2;"/>
   </g>
   <g id="line2d_19">
    <path clip-path="url(#pe894843198)" d="M 311.589802 69.22609 
L 311.758406 69.099637 
L 311.874999 69.012192 
L 311.926296 68.973719 
L 311.997753 68.920126 
L 312.146722 68.8084 
L 312.316228 68.68127 
L 312.34674 68.658386 
L 312.479049 68.559155 
L 312.64079 68.437849 
L 312.787903 68.327514 
L 312.834673 68.292437 
L 312.952136 68.20434 
L 313.091969 68.099465 
L 313.193343 68.023434 
L 313.363517 67.895803 
L 313.395224 67.872024 
L 313.540701 67.762916 
L 313.636568 67.691015 
L 313.711547 67.634781 
L 313.860554 67.523026 
L 314.036103 67.391364 
L 314.072203 67.364289 
L 314.272153 67.214327 
L 314.383898 67.130518 
L 314.413409 67.108384 
L 314.52384 67.025562 
L 314.720994 66.877696 
L 314.856054 66.776401 
L 314.949327 66.706446 
L 315.001896 66.667019 
L 315.107953 66.587476 
L 315.270724 66.465399 
L 315.345225 66.409523 
L 315.483275 66.305986 
L 315.647093 66.183122 
L 315.718133 66.129842 
L 315.888563 66.002019 
L 315.991477 65.924833 
L 316.040623 65.887974 
L 316.128061 65.822396 
L 316.305138 65.689588 
L 316.379066 65.634142 
L 316.539101 65.514115 
L 316.601136 65.467589 
L 316.722938 65.376238 
L 316.849053 65.281652 
L 316.986534 65.178541 
L 317.126939 65.073237 
L 317.178319 65.034702 
L 317.306421 64.938625 
L 317.413152 64.858577 
L 317.541153 64.762577 
L 317.616667 64.705941 
L 317.814743 64.557384 
L 317.873437 64.513364 
L 318.036723 64.390899 
L 318.105679 64.339182 
L 318.204354 64.265176 
L 318.340121 64.16335 
L 318.484824 64.054823 
L 318.6246 63.949992 
L 318.700498 63.893068 
L 318.774845 63.837308 
L 318.947568 63.707765 
L 319.080272 63.608237 
L 319.170847 63.540306 
L 319.267293 63.467972 
L 319.368386 63.392152 
L 319.542128 63.261845 
L 319.617704 63.205164 
L 319.713109 63.13361 
L 319.860533 63.023042 
L 319.951761 62.954621 
L 320.114662 62.832445 
L 320.194761 62.772371 
L 320.257418 62.725378 
L 320.40218 62.616806 
L 320.562346 62.496682 
L 320.62148 62.452331 
L 320.801455 62.31735 
L 320.929427 62.221371 
L 320.973529 62.188295 
" style="fill:none;stroke:#cc00ff;stroke-linecap:square;stroke-width:2;"/>
   </g>
   <g id="line2d_20">
    <path clip-path="url(#pe894843198)" d="M 321.33293 61.918744 
L 321.461122 61.8226 
L 321.517778 61.780108 
L 321.662927 61.671246 
L 321.804638 61.564963 
L 321.905673 61.489187 
L 322.026224 61.398773 
L 322.09736 61.345422 
L 322.268236 61.217264 
L 322.338881 61.16428 
L 322.474683 61.06243 
L 322.631633 60.944717 
L 322.751186 60.855052 
L 322.850038 60.780913 
L 322.906806 60.738337 
L 323.010891 60.660273 
L 323.183774 60.530611 
L 323.290346 60.450682 
L 323.404372 60.365162 
L 323.517853 60.280052 
L 323.641113 60.187607 
L 323.777758 60.085123 
L 323.854556 60.027524 
L 323.983421 59.930876 
L 324.046813 59.883332 
L 324.189795 59.776095 
L 324.342832 59.661317 
L 324.442925 59.586248 
L 324.572302 59.489215 
L 324.681594 59.407246 
L 324.772774 59.338861 
L 324.918074 59.229886 
L 324.986904 59.178264 
L 325.128832 59.071817 
L 325.189332 59.026442 
L 325.324673 58.924937 
L 325.431807 58.844586 
L 325.570197 58.740794 
L 325.64099 58.687699 
L 325.786562 58.57852 
L 325.934761 58.467371 
L 326.038632 58.389467 
L 326.177784 58.285103 
L 326.295785 58.196603 
L 326.360193 58.148296 
L 326.461382 58.072405 
L 326.565991 57.993948 
L 326.710974 57.885211 
L 326.879243 57.759009 
L 326.932945 57.718732 
L 327.018627 57.654471 
L 327.206891 57.513273 
L 327.321557 57.427273 
L 327.355504 57.401814 
L 327.539078 57.264133 
L 327.678012 57.159932 
L 327.794057 57.072898 
L 327.914288 56.982725 
L 327.959712 56.948657 
L 328.148124 56.807348 
L 328.18217 56.781814 
L 328.310587 56.685501 
L 328.460872 56.572787 
L 328.564075 56.495385 
L 328.685986 56.403952 
L 328.776238 56.336263 
L 328.901547 56.242281 
L 329.0457 56.134167 
L 329.131187 56.070051 
L 329.199473 56.018837 
L 329.351014 55.905181 
L 329.518501 55.779566 
L 329.582069 55.731889 
L 329.715886 55.631527 
L 329.818934 55.554241 
L 329.905808 55.489086 
L 329.996963 55.420719 
L 330.175301 55.286966 
L 330.269993 55.215946 
L 330.389799 55.126092 
L 330.557641 55.00021 
L 330.613595 54.958245 
L 330.73492 54.867251 
L 330.881215 54.757531 
L 330.935942 54.716485 
L 331.085122 54.6046 
L 331.227114 54.498106 
L 331.308888 54.436776 
L 331.406727 54.363397 
L 331.488711 54.301908 
L 331.605755 54.214125 
L 331.792097 54.074368 
L 331.867977 54.017459 
L 331.983474 53.930836 
L 332.129222 53.821525 
L 332.280475 53.708085 
L 332.352758 53.653873 
L 332.441193 53.587547 
L 332.569842 53.49106 
L 332.661923 53.422 
L 332.852433 53.279117 
L 332.881702 53.257165 
L 333.000228 53.16827 
L 333.158057 53.049898 
L 333.257633 52.975217 
L 333.377696 52.885169 
L 333.493532 52.798293 
L 333.549945 52.755983 
L 333.698509 52.644559 
L 333.828667 52.546941 
L 333.909038 52.486663 
L 334.021672 52.402187 
L 334.193986 52.272952 
L 334.328408 52.172136 
L 334.402537 52.116538 
" style="fill:none;stroke:#cc00ff;stroke-linecap:square;stroke-width:2;"/>
   </g>
   <g id="line2d_21">
    <path clip-path="url(#pe894843198)" d="M 516.904417 52.116538 
L 539.717152 35.006987 
L 539.717152 35.006987 
" style="fill:none;stroke:#cc00ff;stroke-linecap:square;stroke-width:2;"/>
   </g>
   <g id="matplotlib.axis_1">
    <g id="xtick_1">
     <g id="line2d_22">
      <path clip-path="url(#pe894843198)" d="M 15.024247 87.704405 
L 15.024247 16.528672 
" style="fill:none;stroke:#000000;stroke-dasharray:0.5,0.825;stroke-dashoffset:0;stroke-width:0.5;"/>
     </g>
     <g id="line2d_23">
      <defs>
       <path d="M 0 0 
L 0 3.5 
" id="mf92fd32178" style="stroke:#000000;stroke-width:0.8;"/>
      </defs>
      <g>
       <use style="stroke:#000000;stroke-width:0.8;" x="15.024247" xlink:href="#mf92fd32178" y="86.335641"/>
      </g>
     </g>
    </g>
    <g id="xtick_2">
     <g id="line2d_24">
      <path clip-path="url(#pe894843198)" d="M 288.777067 87.704405 
L 288.777067 16.528672 
" style="fill:none;stroke:#000000;stroke-dasharray:0.5,0.825;stroke-dashoffset:0;stroke-width:0.5;"/>
     </g>
     <g id="line2d_25">
      <g>
       <use style="stroke:#000000;stroke-width:0.8;" x="288.777067" xlink:href="#mf92fd32178" y="86.335641"/>
      </g>
     </g>
     <g id="text_1">
      <!-- $f$ -->
      <defs>
       <path d="M 9.71875 -16.5 
Q 11.578125 -17.921875 14.203125 -17.921875 
Q 17.78125 -17.921875 20.015625 -10.015625 
Q 20.953125 -6.203125 25.09375 15.09375 
L 29.6875 39.59375 
L 21.09375 39.59375 
Q 20.125 39.59375 20.125 40.921875 
Q 20.515625 43.109375 21.390625 43.109375 
L 30.328125 43.109375 
L 31.5 49.609375 
Q 32.078125 52.640625 32.5625 54.8125 
Q 33.0625 56.984375 33.625 58.828125 
Q 34.1875 60.6875 35.296875 62.984375 
Q 37.015625 66.265625 39.921875 68.390625 
Q 42.828125 70.515625 46.1875 70.515625 
Q 48.390625 70.515625 50.46875 69.703125 
Q 52.546875 68.890625 53.859375 67.28125 
Q 55.171875 65.671875 55.171875 63.484375 
Q 55.171875 60.9375 53.484375 59.046875 
Q 51.8125 57.171875 49.421875 57.171875 
Q 47.796875 57.171875 46.65625 58.171875 
Q 45.515625 59.1875 45.515625 60.796875 
Q 45.515625 62.984375 47 64.625 
Q 48.484375 66.265625 50.6875 66.5 
Q 48.828125 67.921875 46.09375 67.921875 
Q 44.578125 67.921875 43.234375 66.5 
Q 41.890625 65.09375 41.5 63.484375 
Q 40.875 60.9375 38.71875 49.703125 
L 37.5 43.109375 
L 47.796875 43.109375 
Q 48.78125 43.109375 48.78125 41.796875 
Q 48.734375 41.546875 48.578125 40.9375 
Q 48.4375 40.328125 48.171875 39.953125 
Q 47.90625 39.59375 47.515625 39.59375 
L 36.8125 39.59375 
L 32.171875 15.1875 
Q 31.296875 9.859375 30.140625 4.359375 
Q 29 -1.125 26.921875 -6.90625 
Q 24.859375 -12.703125 21.625 -16.609375 
Q 18.40625 -20.515625 14.015625 -20.515625 
Q 10.640625 -20.515625 7.984375 -18.578125 
Q 5.328125 -16.65625 5.328125 -13.484375 
Q 5.328125 -10.9375 6.953125 -9.046875 
Q 8.59375 -7.171875 11.078125 -7.171875 
Q 12.75 -7.171875 13.859375 -8.171875 
Q 14.984375 -9.1875 14.984375 -10.796875 
Q 14.984375 -12.9375 13.390625 -14.71875 
Q 11.8125 -16.5 9.71875 -16.5 
z
" id="Cmmi10-66"/>
      </defs>
      <g transform="translate(286.327067 100.913766)scale(0.1 -0.1)">
       <use transform="translate(0 0.484375)" xlink:href="#Cmmi10-66"/>
      </g>
     </g>
    </g>
    <g id="xtick_3">
     <g id="line2d_26">
      <path clip-path="url(#pe894843198)" d="M 562.529887 87.704405 
L 562.529887 16.528672 
" style="fill:none;stroke:#000000;stroke-dasharray:0.5,0.825;stroke-dashoffset:0;stroke-width:0.5;"/>
     </g>
     <g id="line2d_27">
      <g>
       <use style="stroke:#000000;stroke-width:0.8;" x="562.529887" xlink:href="#mf92fd32178" y="86.335641"/>
      </g>
     </g>
     <g id="text_2">
      <!-- $1$ -->
      <defs>
       <path d="M 9.28125 0 
L 9.28125 3.515625 
Q 21.78125 3.515625 21.78125 6.6875 
L 21.78125 59.1875 
Q 16.609375 56.6875 8.6875 56.6875 
L 8.6875 60.203125 
Q 20.953125 60.203125 27.203125 66.609375 
L 28.609375 66.609375 
Q 28.953125 66.609375 29.265625 66.328125 
Q 29.59375 66.0625 29.59375 65.71875 
L 29.59375 6.6875 
Q 29.59375 3.515625 42.09375 3.515625 
L 42.09375 0 
z
" id="Cmr10-31"/>
      </defs>
      <g transform="translate(560.029887 100.934078)scale(0.1 -0.1)">
       <use transform="translate(0 0.390625)" xlink:href="#Cmr10-31"/>
      </g>
     </g>
    </g>
   </g>
   <g id="matplotlib.axis_2">
    <g id="ytick_1">
     <g id="line2d_28">
      <path clip-path="url(#pe894843198)" d="M 4.074135 86.335641 
L 573.48 86.335641 
" style="fill:none;stroke:#000000;stroke-dasharray:0.5,0.825;stroke-dashoffset:0;stroke-width:0.5;"/>
     </g>
     <g id="line2d_29">
      <defs>
       <path d="M 0 0 
L -3.5 0 
" id="m2e0d59ee2c" style="stroke:#000000;stroke-width:0.8;"/>
      </defs>
      <g>
       <use style="stroke:#000000;stroke-width:0.8;" x="15.024247" xlink:href="#m2e0d59ee2c" y="86.335641"/>
      </g>
     </g>
    </g>
    <g id="ytick_2">
     <g id="line2d_30">
      <path clip-path="url(#pe894843198)" d="M 4.074135 17.897436 
L 573.48 17.897436 
" style="fill:none;stroke:#000000;stroke-dasharray:0.5,0.825;stroke-dashoffset:0;stroke-width:0.5;"/>
     </g>
     <g id="line2d_31">
      <g>
       <use style="stroke:#000000;stroke-width:0.8;" x="15.024247" xlink:href="#m2e0d59ee2c" y="17.897436"/>
      </g>
     </g>
     <g id="text_3">
      <!-- $1$ -->
      <g transform="translate(3.024247 21.696655)scale(0.1 -0.1)">
       <use transform="translate(0 0.390625)" xlink:href="#Cmr10-31"/>
      </g>
     </g>
    </g>
   </g>
   <g id="patch_3">
    <path d="M 15.024247 87.704405 
L 15.024247 16.528672 
" style="fill:none;stroke:#000000;stroke-linecap:square;stroke-linejoin:miter;stroke-width:0.8;"/>
   </g>
   <g id="patch_4">
    <path d="M 4.074135 86.335641 
L 573.48 86.335641 
" style="fill:none;stroke:#000000;stroke-linecap:square;stroke-linejoin:miter;stroke-width:0.8;"/>
   </g>
  </g>
 </g>
 <defs>
  <clipPath id="pe894843198">
   <rect height="71.175733" width="569.405865" x="4.074135" y="16.528672"/>
  </clipPath>
 </defs>
</svg>
