<?xml version="1.0" encoding="utf-8" standalone="no"?>
<!DOCTYPE svg PUBLIC "-//W3C//DTD SVG 1.1//EN"
  "http://www.w3.org/Graphics/SVG/1.1/DTD/svg11.dtd">
<!-- Created with matplotlib (http://matplotlib.org/) -->
<svg height="108pt" version="1.1" viewBox="0 0 576 108" width="576pt" xmlns="http://www.w3.org/2000/svg" xmlns:xlink="http://www.w3.org/1999/xlink">
 <defs>
  <style type="text/css">
*{stroke-linecap:butt;stroke-linejoin:round;}
  </style>
 </defs>
 <g id="figure_1">
  <g id="patch_1">
   <path d="M 0 108 
L 576 108 
L 576 0 
L 0 0 
z
" style="fill:#ffffff;"/>
  </g>
  <g id="axes_1">
   <g id="patch_2">
    <path d="M 4.074135 87.704405 
L 573.48 87.704405 
L 573.48 16.528672 
L 4.074135 16.528672 
z
" style="fill:#ffffff;"/>
   </g>
   <g id="line2d_1">
    <path clip-path="url(#pad52f46a86)" d="M 75.858207 55.918661 
L 104.247389 73.661899 
L 104.247389 73.661899 
" style="fill:none;stroke:#ff0000;stroke-linecap:square;stroke-width:2;"/>
   </g>
   <g id="line2d_2">
    <path clip-path="url(#pad52f46a86)" d="M 165.081349 43.244919 
L 193.47053 60.988158 
L 193.47053 60.988158 
" style="fill:none;stroke:#ff0000;stroke-linecap:square;stroke-width:2;"/>
   </g>
   <g id="line2d_3">
    <path clip-path="url(#pad52f46a86)" d="M 254.30449 30.571178 
L 282.693671 48.314416 
L 282.693671 48.314416 
" style="fill:none;stroke:#ff0000;stroke-linecap:square;stroke-width:2;"/>
   </g>
   <g id="line2d_4">
    <path clip-path="url(#pad52f46a86)" d="M 343.527631 17.897436 
L 396.250397 50.849164 
L 396.250397 50.849164 
" style="fill:none;stroke:#ff0000;stroke-linecap:square;stroke-width:2;"/>
   </g>
   <g id="line2d_5">
    <path clip-path="url(#pad52f46a86)" d="M 426.667377 35.640674 
L 479.390142 68.592403 
L 479.390142 68.592403 
" style="fill:none;stroke:#ff0000;stroke-linecap:square;stroke-width:2;"/>
   </g>
   <g id="line2d_6">
    <path clip-path="url(#pad52f46a86)" d="M 509.807122 53.383913 
L 562.529887 86.335641 
L 562.529887 86.335641 
" style="fill:none;stroke:#ff0000;stroke-linecap:square;stroke-width:2;"/>
   </g>
   <g id="line2d_7">
    <path clip-path="url(#pad52f46a86)" d="M 15.024247 86.335641 
L 75.858207 55.918661 
L 75.858207 55.918661 
" style="fill:none;stroke:#00ffff;stroke-linecap:square;stroke-width:2;"/>
   </g>
   <g id="line2d_8">
    <path clip-path="url(#pad52f46a86)" d="M 104.247389 73.661899 
L 104.682007 73.44459 
L 104.984874 73.293157 
L 105.12497 73.223108 
L 105.554964 73.008112 
L 105.628738 72.971224 
L 106.004745 72.783221 
L 106.282411 72.644388 
L 106.737791 72.416698 
L 106.966332 72.302428 
L 107.435357 72.067915 
L 107.700526 71.935331 
L 107.91985 71.825669 
L 108.221066 71.675061 
L 108.603198 71.483995 
L 108.710413 71.430387 
L 109.215878 71.177654 
L 109.508155 71.031516 
L 109.799475 70.885856 
L 110.185373 70.692907 
L 110.363857 70.603665 
L 110.773801 70.398693 
L 110.971586 70.299801 
L 111.300554 70.135317 
L 111.733873 69.918657 
L 111.790122 69.890533 
L 112.260784 69.655201 
L 112.396254 69.587467 
L 112.9204 69.325393 
L 113.158846 69.206171 
L 113.492877 69.039155 
L 113.676762 68.947212 
L 113.936908 68.81714 
L 114.279326 68.645931 
L 114.676738 68.447225 
L 114.873937 68.348625 
L 115.204291 68.183448 
L 115.600955 67.985116 
L 116.00579 67.782699 
L 116.187021 67.692083 
L 116.528963 67.521112 
L 116.671723 67.449732 
L 117.175765 67.197711 
L 117.500532 67.035328 
L 117.643515 66.963836 
L 117.987183 66.792002 
L 118.291592 66.639798 
L 118.568643 66.501272 
L 118.861733 66.354727 
L 119.150485 66.210351 
L 119.56144 66.004874 
L 119.967441 65.801873 
L 120.10096 65.735114 
L 120.3359 65.617644 
L 120.879545 65.345821 
L 121.063949 65.253619 
L 121.352268 65.10946 
L 121.566406 65.002391 
L 121.952448 64.80937 
L 122.229898 64.670645 
L 122.643107 64.46404 
L 123.038131 64.266528 
L 123.065175 64.253006 
L 123.478353 64.046417 
L 123.70554 63.932824 
L 124.031599 63.769794 
L 124.559612 63.505788 
L 124.853586 63.358801 
L 125.095861 63.237663 
L 125.410382 63.080403 
L 125.788198 62.891495 
L 125.912341 62.829423 
L 126.197548 62.68682 
L 126.469794 62.550697 
L 126.875815 62.347686 
L 127.285818 62.142685 
L 127.426703 62.072242 
L 127.818318 61.876435 
L 128.088135 61.741526 
L 128.36428 61.603454 
" style="fill:none;stroke:#00ffff;stroke-linecap:square;stroke-width:2;"/>
   </g>
   <g id="line2d_9">
    <path clip-path="url(#pad52f46a86)" d="M 129.355504 61.107842 
L 129.59291 60.989139 
L 129.875398 60.847895 
L 130.111342 60.729923 
L 130.605476 60.482855 
L 130.848421 60.361383 
L 131.083537 60.243825 
L 131.376152 60.097517 
L 131.826169 59.872509 
L 132.072265 59.749461 
L 132.290786 59.6402 
L 132.700994 59.435097 
L 133.053949 59.258619 
L 133.363715 59.103736 
L 133.69285 58.939169 
L 133.83012 58.870534 
L 134.106943 58.732122 
L 134.489598 58.540795 
L 134.665412 58.452887 
L 135.214126 58.178531 
L 135.390117 58.090535 
L 135.794755 57.888216 
L 136.011665 57.779761 
L 136.481509 57.544839 
L 136.69993 57.435629 
L 137.049992 57.260598 
L 137.162274 57.204457 
L 137.549582 57.010803 
L 137.771899 56.899644 
L 138.250649 56.660269 
L 138.373299 56.598944 
L 138.721792 56.424698 
L 139.22759 56.171799 
L 139.349256 56.110966 
L 139.849679 55.860754 
L 139.927798 55.821695 
L 140.424349 55.573419 
L 140.536328 55.51743 
L 140.900025 55.335581 
L 141.121118 55.225035 
L 141.632709 54.969239 
L 141.931766 54.81971 
L 142.126159 54.722514 
L 142.515779 54.527704 
L 142.889444 54.340872 
L 143.153888 54.20865 
L 143.354504 54.108342 
L 143.719066 53.926061 
L 143.993705 53.788741 
L 144.158264 53.706462 
L 144.508309 53.531439 
L 145.041907 53.26464 
L 145.220985 53.175101 
L 145.368577 53.101305 
L 145.853971 52.858608 
L 146.192767 52.68921 
L 146.571718 52.499735 
L 146.803049 52.384069 
L 147.120475 52.225356 
L 147.485659 52.042764 
L 147.559348 52.00592 
L 148.027375 51.771906 
L 148.352118 51.609534 
L 148.472227 51.54948 
L 148.878233 51.346477 
L 149.188604 51.191292 
L 149.574191 50.998498 
L 149.699558 50.935815 
L 150.089627 50.74078 
L 150.508453 50.531367 
L 150.691353 50.439917 
L 151.100163 50.235512 
L 151.219103 50.176042 
L 151.666082 49.952553 
L 151.869052 49.851068 
L 152.217292 49.676948 
L 152.599816 49.485686 
L 152.823614 49.373787 
L 153.096993 49.237097 
L 153.329832 49.120678 
L 153.68083 48.945179 
L 154.093622 48.738783 
L 154.326665 48.622261 
L 154.618642 48.476273 
L 154.977838 48.296675 
L 155.416865 48.077161 
L 155.70186 47.934664 
L 155.980711 47.795238 
L 156.07965 47.745768 
L 156.644031 47.463578 
L 156.737073 47.417057 
L 157.219392 47.175897 
L 157.589215 46.990986 
L 157.615096 46.978046 
L 158.042431 46.764378 
L 158.215779 46.677704 
L 158.528779 46.521204 
L 159.106682 46.232253 
L 159.164835 46.203176 
L 159.573265 45.998961 
L 160.033626 45.768781 
L 160.181915 45.694636 
L 160.443782 45.563703 
L 160.705433 45.432877 
L 161.255626 45.157781 
L 161.297805 45.136691 
L 161.785698 44.892745 
L 162.115 44.728093 
L 162.178871 44.696158 
L 162.640013 44.465587 
L 163.003555 44.283816 
L 163.398203 44.086492 
L 163.426674 44.072257 
L 163.961946 43.804621 
L 164.047565 43.761811 
L 164.346991 43.612098 
L 164.707447 43.43187 
L 165.081349 43.244919 
" style="fill:none;stroke:#00ffff;stroke-linecap:square;stroke-width:2;"/>
   </g>
   <g id="line2d_10">
    <path clip-path="url(#pad52f46a86)" d="M 193.47053 60.988158 
L 254.30449 30.571178 
L 254.30449 30.571178 
" style="fill:none;stroke:#00ffff;stroke-linecap:square;stroke-width:2;"/>
   </g>
   <g id="line2d_11">
    <path clip-path="url(#pad52f46a86)" d="M 282.693671 48.314416 
L 343.527631 17.897436 
L 343.527631 17.897436 
" style="fill:none;stroke:#00ffff;stroke-linecap:square;stroke-width:2;"/>
   </g>
   <g id="line2d_12">
    <path clip-path="url(#pad52f46a86)" d="M 396.250397 50.849164 
L 426.667377 35.640674 
L 426.667377 35.640674 
" style="fill:none;stroke:#00ffff;stroke-linecap:square;stroke-width:2;"/>
   </g>
   <g id="line2d_13">
    <path clip-path="url(#pad52f46a86)" d="M 479.390142 68.592403 
L 509.807122 53.383913 
L 509.807122 53.383913 
" style="fill:none;stroke:#00ffff;stroke-linecap:square;stroke-width:2;"/>
   </g>
   <g id="matplotlib.axis_1">
    <g id="xtick_1">
     <g id="line2d_14">
      <path clip-path="url(#pad52f46a86)" d="M 15.024247 87.704405 
L 15.024247 16.528672 
" style="fill:none;stroke:#000000;stroke-dasharray:0.5,0.825;stroke-dashoffset:0;stroke-width:0.5;"/>
     </g>
     <g id="line2d_15">
      <defs>
       <path d="M 0 0 
L 0 3.5 
" id="m5fbe2701e2" style="stroke:#000000;stroke-width:0.8;"/>
      </defs>
      <g>
       <use style="stroke:#000000;stroke-width:0.8;" x="15.024247" xlink:href="#m5fbe2701e2" y="86.335641"/>
      </g>
     </g>
    </g>
    <g id="xtick_2">
     <g id="line2d_16">
      <path clip-path="url(#pad52f46a86)" d="M 343.527631 87.704405 
L 343.527631 16.528672 
" style="fill:none;stroke:#000000;stroke-dasharray:0.5,0.825;stroke-dashoffset:0;stroke-width:0.5;"/>
     </g>
     <g id="line2d_17">
      <g>
       <use style="stroke:#000000;stroke-width:0.8;" x="343.527631" xlink:href="#m5fbe2701e2" y="86.335641"/>
      </g>
     </g>
     <g id="text_1">
      <!-- $f$ -->
      <defs>
       <path d="M 9.71875 -16.5 
Q 11.578125 -17.921875 14.203125 -17.921875 
Q 17.78125 -17.921875 20.015625 -10.015625 
Q 20.953125 -6.203125 25.09375 15.09375 
L 29.6875 39.59375 
L 21.09375 39.59375 
Q 20.125 39.59375 20.125 40.921875 
Q 20.515625 43.109375 21.390625 43.109375 
L 30.328125 43.109375 
L 31.5 49.609375 
Q 32.078125 52.640625 32.5625 54.8125 
Q 33.0625 56.984375 33.625 58.828125 
Q 34.1875 60.6875 35.296875 62.984375 
Q 37.015625 66.265625 39.921875 68.390625 
Q 42.828125 70.515625 46.1875 70.515625 
Q 48.390625 70.515625 50.46875 69.703125 
Q 52.546875 68.890625 53.859375 67.28125 
Q 55.171875 65.671875 55.171875 63.484375 
Q 55.171875 60.9375 53.484375 59.046875 
Q 51.8125 57.171875 49.421875 57.171875 
Q 47.796875 57.171875 46.65625 58.171875 
Q 45.515625 59.1875 45.515625 60.796875 
Q 45.515625 62.984375 47 64.625 
Q 48.484375 66.265625 50.6875 66.5 
Q 48.828125 67.921875 46.09375 67.921875 
Q 44.578125 67.921875 43.234375 66.5 
Q 41.890625 65.09375 41.5 63.484375 
Q 40.875 60.9375 38.71875 49.703125 
L 37.5 43.109375 
L 47.796875 43.109375 
Q 48.78125 43.109375 48.78125 41.796875 
Q 48.734375 41.546875 48.578125 40.9375 
Q 48.4375 40.328125 48.171875 39.953125 
Q 47.90625 39.59375 47.515625 39.59375 
L 36.8125 39.59375 
L 32.171875 15.1875 
Q 31.296875 9.859375 30.140625 4.359375 
Q 29 -1.125 26.921875 -6.90625 
Q 24.859375 -12.703125 21.625 -16.609375 
Q 18.40625 -20.515625 14.015625 -20.515625 
Q 10.640625 -20.515625 7.984375 -18.578125 
Q 5.328125 -16.65625 5.328125 -13.484375 
Q 5.328125 -10.9375 6.953125 -9.046875 
Q 8.59375 -7.171875 11.078125 -7.171875 
Q 12.75 -7.171875 13.859375 -8.171875 
Q 14.984375 -9.1875 14.984375 -10.796875 
Q 14.984375 -12.9375 13.390625 -14.71875 
Q 11.8125 -16.5 9.71875 -16.5 
z
" id="Cmmi10-66"/>
      </defs>
      <g transform="translate(341.077631 100.913766)scale(0.1 -0.1)">
       <use transform="translate(0 0.484375)" xlink:href="#Cmmi10-66"/>
      </g>
     </g>
    </g>
    <g id="xtick_3">
     <g id="line2d_18">
      <path clip-path="url(#pad52f46a86)" d="M 562.529887 87.704405 
L 562.529887 16.528672 
" style="fill:none;stroke:#000000;stroke-dasharray:0.5,0.825;stroke-dashoffset:0;stroke-width:0.5;"/>
     </g>
     <g id="line2d_19">
      <g>
       <use style="stroke:#000000;stroke-width:0.8;" x="562.529887" xlink:href="#m5fbe2701e2" y="86.335641"/>
      </g>
     </g>
     <g id="text_2">
      <!-- $1$ -->
      <defs>
       <path d="M 9.28125 0 
L 9.28125 3.515625 
Q 21.78125 3.515625 21.78125 6.6875 
L 21.78125 59.1875 
Q 16.609375 56.6875 8.6875 56.6875 
L 8.6875 60.203125 
Q 20.953125 60.203125 27.203125 66.609375 
L 28.609375 66.609375 
Q 28.953125 66.609375 29.265625 66.328125 
Q 29.59375 66.0625 29.59375 65.71875 
L 29.59375 6.6875 
Q 29.59375 3.515625 42.09375 3.515625 
L 42.09375 0 
z
" id="Cmr10-31"/>
      </defs>
      <g transform="translate(560.029887 100.934078)scale(0.1 -0.1)">
       <use transform="translate(0 0.390625)" xlink:href="#Cmr10-31"/>
      </g>
     </g>
    </g>
   </g>
   <g id="matplotlib.axis_2">
    <g id="ytick_1">
     <g id="line2d_20">
      <path clip-path="url(#pad52f46a86)" d="M 4.074135 86.335641 
L 573.48 86.335641 
" style="fill:none;stroke:#000000;stroke-dasharray:0.5,0.825;stroke-dashoffset:0;stroke-width:0.5;"/>
     </g>
     <g id="line2d_21">
      <defs>
       <path d="M 0 0 
L -3.5 0 
" id="m1fb4659c97" style="stroke:#000000;stroke-width:0.8;"/>
      </defs>
      <g>
       <use style="stroke:#000000;stroke-width:0.8;" x="15.024247" xlink:href="#m1fb4659c97" y="86.335641"/>
      </g>
     </g>
    </g>
    <g id="ytick_2">
     <g id="line2d_22">
      <path clip-path="url(#pad52f46a86)" d="M 4.074135 17.897436 
L 573.48 17.897436 
" style="fill:none;stroke:#000000;stroke-dasharray:0.5,0.825;stroke-dashoffset:0;stroke-width:0.5;"/>
     </g>
     <g id="line2d_23">
      <g>
       <use style="stroke:#000000;stroke-width:0.8;" x="15.024247" xlink:href="#m1fb4659c97" y="17.897436"/>
      </g>
     </g>
     <g id="text_3">
      <!-- $1$ -->
      <g transform="translate(3.024247 21.696655)scale(0.1 -0.1)">
       <use transform="translate(0 0.390625)" xlink:href="#Cmr10-31"/>
      </g>
     </g>
    </g>
   </g>
   <g id="patch_3">
    <path d="M 15.024247 87.704405 
L 15.024247 16.528672 
" style="fill:none;stroke:#000000;stroke-linecap:square;stroke-linejoin:miter;stroke-width:0.8;"/>
   </g>
   <g id="patch_4">
    <path d="M 4.074135 86.335641 
L 573.48 86.335641 
" style="fill:none;stroke:#000000;stroke-linecap:square;stroke-linejoin:miter;stroke-width:0.8;"/>
   </g>
  </g>
 </g>
 <defs>
  <clipPath id="pad52f46a86">
   <rect height="71.175733" width="569.405865" x="4.074135" y="16.528672"/>
  </clipPath>
 </defs>
</svg>
