<?xml version="1.0" encoding="utf-8" standalone="no"?>
<!DOCTYPE svg PUBLIC "-//W3C//DTD SVG 1.1//EN"
  "http://www.w3.org/Graphics/SVG/1.1/DTD/svg11.dtd">
<!-- Created with matplotlib (http://matplotlib.org/) -->
<svg height="108pt" version="1.1" viewBox="0 0 576 108" width="576pt" xmlns="http://www.w3.org/2000/svg" xmlns:xlink="http://www.w3.org/1999/xlink">
 <defs>
  <style type="text/css">
*{stroke-linecap:butt;stroke-linejoin:round;}
  </style>
 </defs>
 <g id="figure_1">
  <g id="patch_1">
   <path d="M 0 108 
L 576 108 
L 576 0 
L 0 0 
z
" style="fill:#ffffff;"/>
  </g>
  <g id="axes_1">
   <g id="patch_2">
    <path d="M 4.074135 87.704405 
L 573.48 87.704405 
L 573.48 16.528672 
L 4.074135 16.528672 
z
" style="fill:#ffffff;"/>
   </g>
   <g id="line2d_1">
    <path clip-path="url(#pc3b1ab4e67)" d="M 15.024247 86.335641 
L 124.525375 42.784056 
L 124.525375 42.784056 
" style="fill:none;stroke:#000000;stroke-linecap:square;stroke-width:2;"/>
   </g>
   <g id="line2d_2">
    <path clip-path="url(#pc3b1ab4e67)" d="M 124.525375 73.892331 
L 234.026503 30.340746 
L 234.026503 30.340746 
" style="fill:none;stroke:#000000;stroke-linecap:square;stroke-width:2;"/>
   </g>
   <g id="line2d_3">
    <path clip-path="url(#pc3b1ab4e67)" d="M 234.026503 61.449021 
L 343.527631 17.897436 
L 343.527631 17.897436 
" style="fill:none;stroke:#000000;stroke-linecap:square;stroke-width:2;"/>
   </g>
   <g id="line2d_4">
    <path clip-path="url(#pc3b1ab4e67)" d="M 343.527631 49.005711 
L 398.278195 27.229918 
L 398.278195 27.229918 
" style="fill:none;stroke:#000000;stroke-linecap:square;stroke-width:2;"/>
   </g>
   <g id="line2d_5">
    <path clip-path="url(#pc3b1ab4e67)" d="M 398.278195 58.338193 
L 453.028759 36.562401 
L 453.028759 36.562401 
" style="fill:none;stroke:#000000;stroke-linecap:square;stroke-width:2;"/>
   </g>
   <g id="line2d_6">
    <path clip-path="url(#pc3b1ab4e67)" d="M 453.028759 67.670676 
L 507.779323 45.894883 
L 507.779323 45.894883 
" style="fill:none;stroke:#000000;stroke-linecap:square;stroke-width:2;"/>
   </g>
   <g id="line2d_7">
    <path clip-path="url(#pc3b1ab4e67)" d="M 507.779323 77.003158 
L 562.529887 55.227366 
L 562.529887 55.227366 
" style="fill:none;stroke:#000000;stroke-linecap:square;stroke-width:2;"/>
   </g>
   <g id="line2d_8">
    <path clip-path="url(#pc3b1ab4e67)" d="M 15.024247 86.335641 
L 124.525375 42.784056 
L 124.525375 42.784056 
" style="fill:none;stroke:#ff0000;stroke-linecap:square;stroke-width:2;"/>
   </g>
   <g id="line2d_9">
    <path clip-path="url(#pc3b1ab4e67)" d="M 124.525375 73.892331 
L 234.026503 30.340746 
L 234.026503 30.340746 
" style="fill:none;stroke:#ff0000;stroke-linecap:square;stroke-width:2;"/>
   </g>
   <g id="line2d_10">
    <path clip-path="url(#pc3b1ab4e67)" d="M 234.026503 61.449021 
L 343.527631 17.897436 
L 343.527631 17.897436 
" style="fill:none;stroke:#ff0000;stroke-linecap:square;stroke-width:2;"/>
   </g>
   <g id="line2d_11">
    <path clip-path="url(#pc3b1ab4e67)" d="M 343.527631 49.005711 
L 398.278195 27.229918 
L 398.278195 27.229918 
" style="fill:none;stroke:#ff0000;stroke-linecap:square;stroke-width:2;"/>
   </g>
   <g id="line2d_12">
    <path clip-path="url(#pc3b1ab4e67)" d="M 398.278195 58.338193 
L 453.028759 36.562401 
L 453.028759 36.562401 
" style="fill:none;stroke:#ff0000;stroke-linecap:square;stroke-width:2;"/>
   </g>
   <g id="line2d_13">
    <path clip-path="url(#pc3b1ab4e67)" d="M 453.028759 67.670676 
L 507.779323 45.894883 
L 507.779323 45.894883 
" style="fill:none;stroke:#ff0000;stroke-linecap:square;stroke-width:2;"/>
   </g>
   <g id="line2d_14">
    <path clip-path="url(#pc3b1ab4e67)" d="M 507.779323 77.003158 
L 562.529887 55.227366 
L 562.529887 55.227366 
" style="fill:none;stroke:#ff0000;stroke-linecap:square;stroke-width:2;"/>
   </g>
   <g id="PathCollection_1">
    <path clip-path="url(#pc3b1ab4e67)" d="M 124.525375 45.181972 
C 125.16131 45.181972 125.771284 44.929312 126.220958 44.479638 
C 126.670632 44.029965 126.923291 43.419991 126.923291 42.784056 
C 126.923291 42.148121 126.670632 41.538147 126.220958 41.088473 
C 125.771284 40.6388 125.16131 40.38614 124.525375 40.38614 
C 123.889441 40.38614 123.279467 40.6388 122.829793 41.088473 
C 122.380119 41.538147 122.12746 42.148121 122.12746 42.784056 
C 122.12746 43.419991 122.380119 44.029965 122.829793 44.479638 
C 123.279467 44.929312 123.889441 45.181972 124.525375 45.181972 
z
"/>
   </g>
   <g id="PathCollection_2">
    <path clip-path="url(#pc3b1ab4e67)" d="M 124.525375 44.365195 
C 124.944698 44.365195 125.346903 44.198596 125.643409 43.90209 
C 125.939915 43.605584 126.106514 43.203379 126.106514 42.784056 
C 126.106514 42.364733 125.939915 41.962528 125.643409 41.666022 
C 125.346903 41.369516 124.944698 41.202917 124.525375 41.202917 
C 124.106052 41.202917 123.703847 41.369516 123.407341 41.666022 
C 123.110835 41.962528 122.944237 42.364733 122.944237 42.784056 
C 122.944237 43.203379 123.110835 43.605584 123.407341 43.90209 
C 123.703847 44.198596 124.106052 44.365195 124.525375 44.365195 
z
" style="fill:#ffffff;"/>
   </g>
   <g id="PathCollection_3">
    <path clip-path="url(#pc3b1ab4e67)" d="M 124.525375 65.920822 
C 125.16131 65.920822 125.771284 65.668162 126.220958 65.218488 
C 126.670632 64.768815 126.923291 64.158841 126.923291 63.522906 
C 126.923291 62.886971 126.670632 62.276997 126.220958 61.827323 
C 125.771284 61.37765 125.16131 61.12499 124.525375 61.12499 
C 123.889441 61.12499 123.279467 61.37765 122.829793 61.827323 
C 122.380119 62.276997 122.12746 62.886971 122.12746 63.522906 
C 122.12746 64.158841 122.380119 64.768815 122.829793 65.218488 
C 123.279467 65.668162 123.889441 65.920822 124.525375 65.920822 
z
"/>
   </g>
   <g id="PathCollection_4">
    <path clip-path="url(#pc3b1ab4e67)" d="M 124.525375 65.920822 
C 125.16131 65.920822 125.771284 65.668162 126.220958 65.218488 
C 126.670632 64.768815 126.923291 64.158841 126.923291 63.522906 
C 126.923291 62.886971 126.670632 62.276997 126.220958 61.827323 
C 125.771284 61.37765 125.16131 61.12499 124.525375 61.12499 
C 123.889441 61.12499 123.279467 61.37765 122.829793 61.827323 
C 122.380119 62.276997 122.12746 62.886971 122.12746 63.522906 
C 122.12746 64.158841 122.380119 64.768815 122.829793 65.218488 
C 123.279467 65.668162 123.889441 65.920822 124.525375 65.920822 
z
"/>
   </g>
   <g id="PathCollection_5">
    <path clip-path="url(#pc3b1ab4e67)" d="M 124.525375 65.920822 
C 125.16131 65.920822 125.771284 65.668162 126.220958 65.218488 
C 126.670632 64.768815 126.923291 64.158841 126.923291 63.522906 
C 126.923291 62.886971 126.670632 62.276997 126.220958 61.827323 
C 125.771284 61.37765 125.16131 61.12499 124.525375 61.12499 
C 123.889441 61.12499 123.279467 61.37765 122.829793 61.827323 
C 122.380119 62.276997 122.12746 62.886971 122.12746 63.522906 
C 122.12746 64.158841 122.380119 64.768815 122.829793 65.218488 
C 123.279467 65.668162 123.889441 65.920822 124.525375 65.920822 
z
"/>
   </g>
   <g id="PathCollection_6">
    <path clip-path="url(#pc3b1ab4e67)" d="M 124.525375 76.290247 
C 125.16131 76.290247 125.771284 76.037587 126.220958 75.587913 
C 126.670632 75.13824 126.923291 74.528266 126.923291 73.892331 
C 126.923291 73.256396 126.670632 72.646422 126.220958 72.196748 
C 125.771284 71.747075 125.16131 71.494415 124.525375 71.494415 
C 123.889441 71.494415 123.279467 71.747075 122.829793 72.196748 
C 122.380119 72.646422 122.12746 73.256396 122.12746 73.892331 
C 122.12746 74.528266 122.380119 75.13824 122.829793 75.587913 
C 123.279467 76.037587 123.889441 76.290247 124.525375 76.290247 
z
"/>
   </g>
   <g id="PathCollection_7">
    <path clip-path="url(#pc3b1ab4e67)" d="M 124.525375 75.47347 
C 124.944698 75.47347 125.346903 75.306871 125.643409 75.010365 
C 125.939915 74.713859 126.106514 74.311654 126.106514 73.892331 
C 126.106514 73.473008 125.939915 73.070803 125.643409 72.774297 
C 125.346903 72.477791 124.944698 72.311192 124.525375 72.311192 
C 124.106052 72.311192 123.703847 72.477791 123.407341 72.774297 
C 123.110835 73.070803 122.944237 73.473008 122.944237 73.892331 
C 122.944237 74.311654 123.110835 74.713859 123.407341 75.010365 
C 123.703847 75.306871 124.106052 75.47347 124.525375 75.47347 
z
" style="fill:#ffffff;"/>
   </g>
   <g id="PathCollection_8">
    <path clip-path="url(#pc3b1ab4e67)" d="M 234.026503 32.738662 
C 234.662438 32.738662 235.272412 32.486002 235.722086 32.036328 
C 236.17176 31.586655 236.424419 30.976681 236.424419 30.340746 
C 236.424419 29.704811 236.17176 29.094837 235.722086 28.645163 
C 235.272412 28.19549 234.662438 27.94283 234.026503 27.94283 
C 233.390569 27.94283 232.780595 28.19549 232.330921 28.645163 
C 231.881247 29.094837 231.628588 29.704811 231.628588 30.340746 
C 231.628588 30.976681 231.881247 31.586655 232.330921 32.036328 
C 232.780595 32.486002 233.390569 32.738662 234.026503 32.738662 
z
"/>
   </g>
   <g id="PathCollection_9">
    <path clip-path="url(#pc3b1ab4e67)" d="M 234.026503 31.921885 
C 234.445826 31.921885 234.848031 31.755286 235.144537 31.45878 
C 235.441043 31.162274 235.607642 30.760069 235.607642 30.340746 
C 235.607642 29.921423 235.441043 29.519218 235.144537 29.222712 
C 234.848031 28.926206 234.445826 28.759607 234.026503 28.759607 
C 233.60718 28.759607 233.204975 28.926206 232.908469 29.222712 
C 232.611963 29.519218 232.445364 29.921423 232.445364 30.340746 
C 232.445364 30.760069 232.611963 31.162274 232.908469 31.45878 
C 233.204975 31.755286 233.60718 31.921885 234.026503 31.921885 
z
" style="fill:#ffffff;"/>
   </g>
   <g id="PathCollection_10">
    <path clip-path="url(#pc3b1ab4e67)" d="M 234.026503 43.108087 
C 234.662438 43.108087 235.272412 42.855427 235.722086 42.405753 
C 236.17176 41.95608 236.424419 41.346106 236.424419 40.710171 
C 236.424419 40.074236 236.17176 39.464262 235.722086 39.014588 
C 235.272412 38.564915 234.662438 38.312255 234.026503 38.312255 
C 233.390569 38.312255 232.780595 38.564915 232.330921 39.014588 
C 231.881247 39.464262 231.628588 40.074236 231.628588 40.710171 
C 231.628588 41.346106 231.881247 41.95608 232.330921 42.405753 
C 232.780595 42.855427 233.390569 43.108087 234.026503 43.108087 
z
"/>
   </g>
   <g id="PathCollection_11">
    <path clip-path="url(#pc3b1ab4e67)" d="M 234.026503 43.108087 
C 234.662438 43.108087 235.272412 42.855427 235.722086 42.405753 
C 236.17176 41.95608 236.424419 41.346106 236.424419 40.710171 
C 236.424419 40.074236 236.17176 39.464262 235.722086 39.014588 
C 235.272412 38.564915 234.662438 38.312255 234.026503 38.312255 
C 233.390569 38.312255 232.780595 38.564915 232.330921 39.014588 
C 231.881247 39.464262 231.628588 40.074236 231.628588 40.710171 
C 231.628588 41.346106 231.881247 41.95608 232.330921 42.405753 
C 232.780595 42.855427 233.390569 43.108087 234.026503 43.108087 
z
"/>
   </g>
   <g id="PathCollection_12">
    <path clip-path="url(#pc3b1ab4e67)" d="M 234.026503 43.108087 
C 234.662438 43.108087 235.272412 42.855427 235.722086 42.405753 
C 236.17176 41.95608 236.424419 41.346106 236.424419 40.710171 
C 236.424419 40.074236 236.17176 39.464262 235.722086 39.014588 
C 235.272412 38.564915 234.662438 38.312255 234.026503 38.312255 
C 233.390569 38.312255 232.780595 38.564915 232.330921 39.014588 
C 231.881247 39.464262 231.628588 40.074236 231.628588 40.710171 
C 231.628588 41.346106 231.881247 41.95608 232.330921 42.405753 
C 232.780595 42.855427 233.390569 43.108087 234.026503 43.108087 
z
"/>
   </g>
   <g id="PathCollection_13">
    <path clip-path="url(#pc3b1ab4e67)" d="M 234.026503 63.846937 
C 234.662438 63.846937 235.272412 63.594277 235.722086 63.144603 
C 236.17176 62.69493 236.424419 62.084956 236.424419 61.449021 
C 236.424419 60.813086 236.17176 60.203112 235.722086 59.753438 
C 235.272412 59.303765 234.662438 59.051105 234.026503 59.051105 
C 233.390569 59.051105 232.780595 59.303765 232.330921 59.753438 
C 231.881247 60.203112 231.628588 60.813086 231.628588 61.449021 
C 231.628588 62.084956 231.881247 62.69493 232.330921 63.144603 
C 232.780595 63.594277 233.390569 63.846937 234.026503 63.846937 
z
"/>
   </g>
   <g id="PathCollection_14">
    <path clip-path="url(#pc3b1ab4e67)" d="M 234.026503 63.03016 
C 234.445826 63.03016 234.848031 62.863561 235.144537 62.567055 
C 235.441043 62.270549 235.607642 61.868344 235.607642 61.449021 
C 235.607642 61.029698 235.441043 60.627493 235.144537 60.330987 
C 234.848031 60.034481 234.445826 59.867882 234.026503 59.867882 
C 233.60718 59.867882 233.204975 60.034481 232.908469 60.330987 
C 232.611963 60.627493 232.445364 61.029698 232.445364 61.449021 
C 232.445364 61.868344 232.611963 62.270549 232.908469 62.567055 
C 233.204975 62.863561 233.60718 63.03016 234.026503 63.03016 
z
" style="fill:#ffffff;"/>
   </g>
   <g id="PathCollection_15">
    <path clip-path="url(#pc3b1ab4e67)" d="M 343.527631 20.295352 
C 344.163566 20.295352 344.77354 20.042692 345.223214 19.593018 
C 345.672888 19.143345 345.925547 18.533371 345.925547 17.897436 
C 345.925547 17.261501 345.672888 16.651527 345.223214 16.201853 
C 344.77354 15.75218 344.163566 15.49952 343.527631 15.49952 
C 342.891697 15.49952 342.281723 15.75218 341.832049 16.201853 
C 341.382375 16.651527 341.129716 17.261501 341.129716 17.897436 
C 341.129716 18.533371 341.382375 19.143345 341.832049 19.593018 
C 342.281723 20.042692 342.891697 20.295352 343.527631 20.295352 
z
"/>
   </g>
   <g id="PathCollection_16">
    <path clip-path="url(#pc3b1ab4e67)" d="M 343.527631 51.403627 
C 344.163566 51.403627 344.77354 51.150967 345.223214 50.701293 
C 345.672888 50.25162 345.925547 49.641646 345.925547 49.005711 
C 345.925547 48.369776 345.672888 47.759802 345.223214 47.310128 
C 344.77354 46.860455 344.163566 46.607795 343.527631 46.607795 
C 342.891697 46.607795 342.281723 46.860455 341.832049 47.310128 
C 341.382375 47.759802 341.129716 48.369776 341.129716 49.005711 
C 341.129716 49.641646 341.382375 50.25162 341.832049 50.701293 
C 342.281723 51.150967 342.891697 51.403627 343.527631 51.403627 
z
"/>
   </g>
   <g id="PathCollection_17">
    <path clip-path="url(#pc3b1ab4e67)" d="M 343.527631 50.58685 
C 343.946954 50.58685 344.349159 50.420251 344.645665 50.123745 
C 344.942171 49.827239 345.10877 49.425034 345.10877 49.005711 
C 345.10877 48.586388 344.942171 48.184183 344.645665 47.887677 
C 344.349159 47.591171 343.946954 47.424572 343.527631 47.424572 
C 343.108308 47.424572 342.706103 47.591171 342.409597 47.887677 
C 342.113091 48.184183 341.946492 48.586388 341.946492 49.005711 
C 341.946492 49.425034 342.113091 49.827239 342.409597 50.123745 
C 342.706103 50.420251 343.108308 50.58685 343.527631 50.58685 
z
" style="fill:#ffffff;"/>
   </g>
   <g id="PathCollection_18">
    <path clip-path="url(#pc3b1ab4e67)" d="M 398.278195 29.627834 
C 398.91413 29.627834 399.524104 29.375175 399.973778 28.925501 
C 400.423451 28.475827 400.676111 27.865853 400.676111 27.229918 
C 400.676111 26.593984 400.423451 25.98401 399.973778 25.534336 
C 399.524104 25.084662 398.91413 24.832003 398.278195 24.832003 
C 397.642261 24.832003 397.032287 25.084662 396.582613 25.534336 
C 396.132939 25.98401 395.88028 26.593984 395.88028 27.229918 
C 395.88028 27.865853 396.132939 28.475827 396.582613 28.925501 
C 397.032287 29.375175 397.642261 29.627834 398.278195 29.627834 
z
"/>
   </g>
   <g id="PathCollection_19">
    <path clip-path="url(#pc3b1ab4e67)" d="M 398.278195 28.811057 
C 398.697518 28.811057 399.099723 28.644459 399.396229 28.347952 
C 399.692735 28.051446 399.859334 27.649241 399.859334 27.229918 
C 399.859334 26.810596 399.692735 26.408391 399.396229 26.111884 
C 399.099723 25.815378 398.697518 25.64878 398.278195 25.64878 
C 397.858872 25.64878 397.456667 25.815378 397.160161 26.111884 
C 396.863655 26.408391 396.697056 26.810596 396.697056 27.229918 
C 396.697056 27.649241 396.863655 28.051446 397.160161 28.347952 
C 397.456667 28.644459 397.858872 28.811057 398.278195 28.811057 
z
" style="fill:#ffffff;"/>
   </g>
   <g id="PathCollection_20">
    <path clip-path="url(#pc3b1ab4e67)" d="M 398.278195 37.404903 
C 398.91413 37.404903 399.524104 37.152243 399.973778 36.70257 
C 400.423451 36.252896 400.676111 35.642922 400.676111 35.006987 
C 400.676111 34.371053 400.423451 33.761078 399.973778 33.311405 
C 399.524104 32.861731 398.91413 32.609071 398.278195 32.609071 
C 397.642261 32.609071 397.032287 32.861731 396.582613 33.311405 
C 396.132939 33.761078 395.88028 34.371053 395.88028 35.006987 
C 395.88028 35.642922 396.132939 36.252896 396.582613 36.70257 
C 397.032287 37.152243 397.642261 37.404903 398.278195 37.404903 
z
"/>
   </g>
   <g id="PathCollection_21">
    <path clip-path="url(#pc3b1ab4e67)" d="M 398.278195 37.404903 
C 398.91413 37.404903 399.524104 37.152243 399.973778 36.70257 
C 400.423451 36.252896 400.676111 35.642922 400.676111 35.006987 
C 400.676111 34.371053 400.423451 33.761078 399.973778 33.311405 
C 399.524104 32.861731 398.91413 32.609071 398.278195 32.609071 
C 397.642261 32.609071 397.032287 32.861731 396.582613 33.311405 
C 396.132939 33.761078 395.88028 34.371053 395.88028 35.006987 
C 395.88028 35.642922 396.132939 36.252896 396.582613 36.70257 
C 397.032287 37.152243 397.642261 37.404903 398.278195 37.404903 
z
"/>
   </g>
   <g id="PathCollection_22">
    <path clip-path="url(#pc3b1ab4e67)" d="M 398.278195 37.404903 
C 398.91413 37.404903 399.524104 37.152243 399.973778 36.70257 
C 400.423451 36.252896 400.676111 35.642922 400.676111 35.006987 
C 400.676111 34.371053 400.423451 33.761078 399.973778 33.311405 
C 399.524104 32.861731 398.91413 32.609071 398.278195 32.609071 
C 397.642261 32.609071 397.032287 32.861731 396.582613 33.311405 
C 396.132939 33.761078 395.88028 34.371053 395.88028 35.006987 
C 395.88028 35.642922 396.132939 36.252896 396.582613 36.70257 
C 397.032287 37.152243 397.642261 37.404903 398.278195 37.404903 
z
"/>
   </g>
   <g id="PathCollection_23">
    <path clip-path="url(#pc3b1ab4e67)" d="M 398.278195 60.736109 
C 398.91413 60.736109 399.524104 60.48345 399.973778 60.033776 
C 400.423451 59.584102 400.676111 58.974128 400.676111 58.338193 
C 400.676111 57.702259 400.423451 57.092285 399.973778 56.642611 
C 399.524104 56.192937 398.91413 55.940278 398.278195 55.940278 
C 397.642261 55.940278 397.032287 56.192937 396.582613 56.642611 
C 396.132939 57.092285 395.88028 57.702259 395.88028 58.338193 
C 395.88028 58.974128 396.132939 59.584102 396.582613 60.033776 
C 397.032287 60.48345 397.642261 60.736109 398.278195 60.736109 
z
"/>
   </g>
   <g id="PathCollection_24">
    <path clip-path="url(#pc3b1ab4e67)" d="M 398.278195 59.919332 
C 398.697518 59.919332 399.099723 59.752734 399.396229 59.456227 
C 399.692735 59.159721 399.859334 58.757516 399.859334 58.338193 
C 399.859334 57.918871 399.692735 57.516666 399.396229 57.220159 
C 399.099723 56.923653 398.697518 56.757055 398.278195 56.757055 
C 397.858872 56.757055 397.456667 56.923653 397.160161 57.220159 
C 396.863655 57.516666 396.697056 57.918871 396.697056 58.338193 
C 396.697056 58.757516 396.863655 59.159721 397.160161 59.456227 
C 397.456667 59.752734 397.858872 59.919332 398.278195 59.919332 
z
" style="fill:#ffffff;"/>
   </g>
   <g id="PathCollection_25">
    <path clip-path="url(#pc3b1ab4e67)" d="M 453.028759 38.960317 
C 453.664694 38.960317 454.274668 38.707657 454.724342 38.257983 
C 455.174015 37.80831 455.426675 37.198336 455.426675 36.562401 
C 455.426675 35.926466 455.174015 35.316492 454.724342 34.866818 
C 454.274668 34.417145 453.664694 34.164485 453.028759 34.164485 
C 452.392825 34.164485 451.78285 34.417145 451.333177 34.866818 
C 450.883503 35.316492 450.630843 35.926466 450.630843 36.562401 
C 450.630843 37.198336 450.883503 37.80831 451.333177 38.257983 
C 451.78285 38.707657 452.392825 38.960317 453.028759 38.960317 
z
"/>
   </g>
   <g id="PathCollection_26">
    <path clip-path="url(#pc3b1ab4e67)" d="M 453.028759 38.14354 
C 453.448082 38.14354 453.850287 37.976941 454.146793 37.680435 
C 454.443299 37.383929 454.609898 36.981724 454.609898 36.562401 
C 454.609898 36.143078 454.443299 35.740873 454.146793 35.444367 
C 453.850287 35.147861 453.448082 34.981262 453.028759 34.981262 
C 452.609436 34.981262 452.207231 35.147861 451.910725 35.444367 
C 451.614219 35.740873 451.44762 36.143078 451.44762 36.562401 
C 451.44762 36.981724 451.614219 37.383929 451.910725 37.680435 
C 452.207231 37.976941 452.609436 38.14354 453.028759 38.14354 
z
" style="fill:#ffffff;"/>
   </g>
   <g id="PathCollection_27">
    <path clip-path="url(#pc3b1ab4e67)" d="M 453.028759 54.514454 
C 453.664694 54.514454 454.274668 54.261795 454.724342 53.812121 
C 455.174015 53.362447 455.426675 52.752473 455.426675 52.116538 
C 455.426675 51.480604 455.174015 50.87063 454.724342 50.420956 
C 454.274668 49.971282 453.664694 49.718623 453.028759 49.718623 
C 452.392825 49.718623 451.78285 49.971282 451.333177 50.420956 
C 450.883503 50.87063 450.630843 51.480604 450.630843 52.116538 
C 450.630843 52.752473 450.883503 53.362447 451.333177 53.812121 
C 451.78285 54.261795 452.392825 54.514454 453.028759 54.514454 
z
"/>
   </g>
   <g id="PathCollection_28">
    <path clip-path="url(#pc3b1ab4e67)" d="M 453.028759 54.514454 
C 453.664694 54.514454 454.274668 54.261795 454.724342 53.812121 
C 455.174015 53.362447 455.426675 52.752473 455.426675 52.116538 
C 455.426675 51.480604 455.174015 50.87063 454.724342 50.420956 
C 454.274668 49.971282 453.664694 49.718623 453.028759 49.718623 
C 452.392825 49.718623 451.78285 49.971282 451.333177 50.420956 
C 450.883503 50.87063 450.630843 51.480604 450.630843 52.116538 
C 450.630843 52.752473 450.883503 53.362447 451.333177 53.812121 
C 451.78285 54.261795 452.392825 54.514454 453.028759 54.514454 
z
"/>
   </g>
   <g id="PathCollection_29">
    <path clip-path="url(#pc3b1ab4e67)" d="M 453.028759 54.514454 
C 453.664694 54.514454 454.274668 54.261795 454.724342 53.812121 
C 455.174015 53.362447 455.426675 52.752473 455.426675 52.116538 
C 455.426675 51.480604 455.174015 50.87063 454.724342 50.420956 
C 454.274668 49.971282 453.664694 49.718623 453.028759 49.718623 
C 452.392825 49.718623 451.78285 49.971282 451.333177 50.420956 
C 450.883503 50.87063 450.630843 51.480604 450.630843 52.116538 
C 450.630843 52.752473 450.883503 53.362447 451.333177 53.812121 
C 451.78285 54.261795 452.392825 54.514454 453.028759 54.514454 
z
"/>
   </g>
   <g id="PathCollection_30">
    <path clip-path="url(#pc3b1ab4e67)" d="M 453.028759 70.068592 
C 453.664694 70.068592 454.274668 69.815932 454.724342 69.366258 
C 455.174015 68.916585 455.426675 68.306611 455.426675 67.670676 
C 455.426675 67.034741 455.174015 66.424767 454.724342 65.975093 
C 454.274668 65.52542 453.664694 65.27276 453.028759 65.27276 
C 452.392825 65.27276 451.78285 65.52542 451.333177 65.975093 
C 450.883503 66.424767 450.630843 67.034741 450.630843 67.670676 
C 450.630843 68.306611 450.883503 68.916585 451.333177 69.366258 
C 451.78285 69.815932 452.392825 70.068592 453.028759 70.068592 
z
"/>
   </g>
   <g id="PathCollection_31">
    <path clip-path="url(#pc3b1ab4e67)" d="M 453.028759 69.251815 
C 453.448082 69.251815 453.850287 69.085216 454.146793 68.78871 
C 454.443299 68.492204 454.609898 68.089999 454.609898 67.670676 
C 454.609898 67.251353 454.443299 66.849148 454.146793 66.552642 
C 453.850287 66.256136 453.448082 66.089537 453.028759 66.089537 
C 452.609436 66.089537 452.207231 66.256136 451.910725 66.552642 
C 451.614219 66.849148 451.44762 67.251353 451.44762 67.670676 
C 451.44762 68.089999 451.614219 68.492204 451.910725 68.78871 
C 452.207231 69.085216 452.609436 69.251815 453.028759 69.251815 
z
" style="fill:#ffffff;"/>
   </g>
   <g id="PathCollection_32">
    <path clip-path="url(#pc3b1ab4e67)" d="M 507.779323 48.292799 
C 508.415258 48.292799 509.025232 48.04014 509.474906 47.590466 
C 509.924579 47.140792 510.177239 46.530818 510.177239 45.894883 
C 510.177239 45.258949 509.924579 44.648975 509.474906 44.199301 
C 509.025232 43.749627 508.415258 43.496968 507.779323 43.496968 
C 507.143389 43.496968 506.533414 43.749627 506.083741 44.199301 
C 505.634067 44.648975 505.381407 45.258949 505.381407 45.894883 
C 505.381407 46.530818 505.634067 47.140792 506.083741 47.590466 
C 506.533414 48.04014 507.143389 48.292799 507.779323 48.292799 
z
"/>
   </g>
   <g id="PathCollection_33">
    <path clip-path="url(#pc3b1ab4e67)" d="M 507.779323 47.476022 
C 508.198646 47.476022 508.600851 47.309424 508.897357 47.012917 
C 509.193863 46.716411 509.360462 46.314206 509.360462 45.894883 
C 509.360462 45.475561 509.193863 45.073356 508.897357 44.776849 
C 508.600851 44.480343 508.198646 44.313745 507.779323 44.313745 
C 507.36 44.313745 506.957795 44.480343 506.661289 44.776849 
C 506.364783 45.073356 506.198184 45.475561 506.198184 45.894883 
C 506.198184 46.314206 506.364783 46.716411 506.661289 47.012917 
C 506.957795 47.309424 507.36 47.476022 507.779323 47.476022 
z
" style="fill:#ffffff;"/>
   </g>
   <g id="PathCollection_34">
    <path clip-path="url(#pc3b1ab4e67)" d="M 507.779323 71.624005 
C 508.415258 71.624005 509.025232 71.371346 509.474906 70.921672 
C 509.924579 70.471998 510.177239 69.862024 510.177239 69.22609 
C 510.177239 68.590155 509.924579 67.980181 509.474906 67.530507 
C 509.025232 67.080833 508.415258 66.828174 507.779323 66.828174 
C 507.143389 66.828174 506.533414 67.080833 506.083741 67.530507 
C 505.634067 67.980181 505.381407 68.590155 505.381407 69.22609 
C 505.381407 69.862024 505.634067 70.471998 506.083741 70.921672 
C 506.533414 71.371346 507.143389 71.624005 507.779323 71.624005 
z
"/>
   </g>
   <g id="PathCollection_35">
    <path clip-path="url(#pc3b1ab4e67)" d="M 507.779323 71.624005 
C 508.415258 71.624005 509.025232 71.371346 509.474906 70.921672 
C 509.924579 70.471998 510.177239 69.862024 510.177239 69.22609 
C 510.177239 68.590155 509.924579 67.980181 509.474906 67.530507 
C 509.025232 67.080833 508.415258 66.828174 507.779323 66.828174 
C 507.143389 66.828174 506.533414 67.080833 506.083741 67.530507 
C 505.634067 67.980181 505.381407 68.590155 505.381407 69.22609 
C 505.381407 69.862024 505.634067 70.471998 506.083741 70.921672 
C 506.533414 71.371346 507.143389 71.624005 507.779323 71.624005 
z
"/>
   </g>
   <g id="PathCollection_36">
    <path clip-path="url(#pc3b1ab4e67)" d="M 507.779323 71.624005 
C 508.415258 71.624005 509.025232 71.371346 509.474906 70.921672 
C 509.924579 70.471998 510.177239 69.862024 510.177239 69.22609 
C 510.177239 68.590155 509.924579 67.980181 509.474906 67.530507 
C 509.025232 67.080833 508.415258 66.828174 507.779323 66.828174 
C 507.143389 66.828174 506.533414 67.080833 506.083741 67.530507 
C 505.634067 67.980181 505.381407 68.590155 505.381407 69.22609 
C 505.381407 69.862024 505.634067 70.471998 506.083741 70.921672 
C 506.533414 71.371346 507.143389 71.624005 507.779323 71.624005 
z
"/>
   </g>
   <g id="PathCollection_37">
    <path clip-path="url(#pc3b1ab4e67)" d="M 507.779323 79.401074 
C 508.415258 79.401074 509.025232 79.148415 509.474906 78.698741 
C 509.924579 78.249067 510.177239 77.639093 510.177239 77.003158 
C 510.177239 76.367224 509.924579 75.75725 509.474906 75.307576 
C 509.025232 74.857902 508.415258 74.605243 507.779323 74.605243 
C 507.143389 74.605243 506.533414 74.857902 506.083741 75.307576 
C 505.634067 75.75725 505.381407 76.367224 505.381407 77.003158 
C 505.381407 77.639093 505.634067 78.249067 506.083741 78.698741 
C 506.533414 79.148415 507.143389 79.401074 507.779323 79.401074 
z
"/>
   </g>
   <g id="PathCollection_38">
    <path clip-path="url(#pc3b1ab4e67)" d="M 507.779323 78.584297 
C 508.198646 78.584297 508.600851 78.417699 508.897357 78.121192 
C 509.193863 77.824686 509.360462 77.422481 509.360462 77.003158 
C 509.360462 76.583836 509.193863 76.181631 508.897357 75.885124 
C 508.600851 75.588618 508.198646 75.42202 507.779323 75.42202 
C 507.36 75.42202 506.957795 75.588618 506.661289 75.885124 
C 506.364783 76.181631 506.198184 76.583836 506.198184 77.003158 
C 506.198184 77.422481 506.364783 77.824686 506.661289 78.121192 
C 506.957795 78.417699 507.36 78.584297 507.779323 78.584297 
z
" style="fill:#ffffff;"/>
   </g>
   <g id="PathCollection_39">
    <path clip-path="url(#pc3b1ab4e67)" d="M 562.529887 57.625282 
C 563.165822 57.625282 563.775796 57.372622 564.22547 56.922948 
C 564.675143 56.473275 564.927803 55.863301 564.927803 55.227366 
C 564.927803 54.591431 564.675143 53.981457 564.22547 53.531783 
C 563.775796 53.08211 563.165822 52.82945 562.529887 52.82945 
C 561.893953 52.82945 561.283978 53.08211 560.834305 53.531783 
C 560.384631 53.981457 560.131971 54.591431 560.131971 55.227366 
C 560.131971 55.863301 560.384631 56.473275 560.834305 56.922948 
C 561.283978 57.372622 561.893953 57.625282 562.529887 57.625282 
z
"/>
   </g>
   <g id="PathCollection_40">
    <path clip-path="url(#pc3b1ab4e67)" d="M 562.529887 56.808505 
C 562.94921 56.808505 563.351415 56.641906 563.647921 56.3454 
C 563.944427 56.048894 564.111026 55.646689 564.111026 55.227366 
C 564.111026 54.808043 563.944427 54.405838 563.647921 54.109332 
C 563.351415 53.812826 562.94921 53.646227 562.529887 53.646227 
C 562.110564 53.646227 561.708359 53.812826 561.411853 54.109332 
C 561.115347 54.405838 560.948748 54.808043 560.948748 55.227366 
C 560.948748 55.646689 561.115347 56.048894 561.411853 56.3454 
C 561.708359 56.641906 562.110564 56.808505 562.529887 56.808505 
z
" style="fill:#ffffff;"/>
   </g>
   <g id="PathCollection_41">
    <path clip-path="url(#pc3b1ab4e67)" d="M 562.529887 88.733557 
C 563.165822 88.733557 563.775796 88.480897 564.22547 88.031223 
C 564.675143 87.58155 564.927803 86.971576 564.927803 86.335641 
C 564.927803 85.699706 564.675143 85.089732 564.22547 84.640058 
C 563.775796 84.190385 563.165822 83.937725 562.529887 83.937725 
C 561.893953 83.937725 561.283978 84.190385 560.834305 84.640058 
C 560.384631 85.089732 560.131971 85.699706 560.131971 86.335641 
C 560.131971 86.971576 560.384631 87.58155 560.834305 88.031223 
C 561.283978 88.480897 561.893953 88.733557 562.529887 88.733557 
z
"/>
   </g>
   <g id="PathCollection_42">
    <path clip-path="url(#pc3b1ab4e67)" d="M 562.529887 88.733557 
C 563.165822 88.733557 563.775796 88.480897 564.22547 88.031223 
C 564.675143 87.58155 564.927803 86.971576 564.927803 86.335641 
C 564.927803 85.699706 564.675143 85.089732 564.22547 84.640058 
C 563.775796 84.190385 563.165822 83.937725 562.529887 83.937725 
C 561.893953 83.937725 561.283978 84.190385 560.834305 84.640058 
C 560.384631 85.089732 560.131971 85.699706 560.131971 86.335641 
C 560.131971 86.971576 560.384631 87.58155 560.834305 88.031223 
C 561.283978 88.480897 561.893953 88.733557 562.529887 88.733557 
z
"/>
   </g>
   <g id="matplotlib.axis_1">
    <g id="xtick_1">
     <g id="line2d_15">
      <path clip-path="url(#pc3b1ab4e67)" d="M 15.024247 87.704405 
L 15.024247 16.528672 
" style="fill:none;stroke:#000000;stroke-dasharray:0.5,0.825;stroke-dashoffset:0;stroke-width:0.5;"/>
     </g>
     <g id="line2d_16">
      <defs>
       <path d="M 0 0 
L 0 3.5 
" id="mf945215c8b" style="stroke:#000000;stroke-width:0.8;"/>
      </defs>
      <g>
       <use style="stroke:#000000;stroke-width:0.8;" x="15.024247" xlink:href="#mf945215c8b" y="86.335641"/>
      </g>
     </g>
    </g>
    <g id="xtick_2">
     <g id="line2d_17">
      <path clip-path="url(#pc3b1ab4e67)" d="M 343.527631 87.704405 
L 343.527631 16.528672 
" style="fill:none;stroke:#000000;stroke-dasharray:0.5,0.825;stroke-dashoffset:0;stroke-width:0.5;"/>
     </g>
     <g id="line2d_18">
      <g>
       <use style="stroke:#000000;stroke-width:0.8;" x="343.527631" xlink:href="#mf945215c8b" y="86.335641"/>
      </g>
     </g>
     <g id="text_1">
      <!-- $f$ -->
      <defs>
       <path d="M 9.71875 -16.5 
Q 11.578125 -17.921875 14.203125 -17.921875 
Q 17.78125 -17.921875 20.015625 -10.015625 
Q 20.953125 -6.203125 25.09375 15.09375 
L 29.6875 39.59375 
L 21.09375 39.59375 
Q 20.125 39.59375 20.125 40.921875 
Q 20.515625 43.109375 21.390625 43.109375 
L 30.328125 43.109375 
L 31.5 49.609375 
Q 32.078125 52.640625 32.5625 54.8125 
Q 33.0625 56.984375 33.625 58.828125 
Q 34.1875 60.6875 35.296875 62.984375 
Q 37.015625 66.265625 39.921875 68.390625 
Q 42.828125 70.515625 46.1875 70.515625 
Q 48.390625 70.515625 50.46875 69.703125 
Q 52.546875 68.890625 53.859375 67.28125 
Q 55.171875 65.671875 55.171875 63.484375 
Q 55.171875 60.9375 53.484375 59.046875 
Q 51.8125 57.171875 49.421875 57.171875 
Q 47.796875 57.171875 46.65625 58.171875 
Q 45.515625 59.1875 45.515625 60.796875 
Q 45.515625 62.984375 47 64.625 
Q 48.484375 66.265625 50.6875 66.5 
Q 48.828125 67.921875 46.09375 67.921875 
Q 44.578125 67.921875 43.234375 66.5 
Q 41.890625 65.09375 41.5 63.484375 
Q 40.875 60.9375 38.71875 49.703125 
L 37.5 43.109375 
L 47.796875 43.109375 
Q 48.78125 43.109375 48.78125 41.796875 
Q 48.734375 41.546875 48.578125 40.9375 
Q 48.4375 40.328125 48.171875 39.953125 
Q 47.90625 39.59375 47.515625 39.59375 
L 36.8125 39.59375 
L 32.171875 15.1875 
Q 31.296875 9.859375 30.140625 4.359375 
Q 29 -1.125 26.921875 -6.90625 
Q 24.859375 -12.703125 21.625 -16.609375 
Q 18.40625 -20.515625 14.015625 -20.515625 
Q 10.640625 -20.515625 7.984375 -18.578125 
Q 5.328125 -16.65625 5.328125 -13.484375 
Q 5.328125 -10.9375 6.953125 -9.046875 
Q 8.59375 -7.171875 11.078125 -7.171875 
Q 12.75 -7.171875 13.859375 -8.171875 
Q 14.984375 -9.1875 14.984375 -10.796875 
Q 14.984375 -12.9375 13.390625 -14.71875 
Q 11.8125 -16.5 9.71875 -16.5 
z
" id="Cmmi10-66"/>
      </defs>
      <g transform="translate(341.077631 100.913766)scale(0.1 -0.1)">
       <use transform="translate(0 0.484375)" xlink:href="#Cmmi10-66"/>
      </g>
     </g>
    </g>
    <g id="xtick_3">
     <g id="line2d_19">
      <path clip-path="url(#pc3b1ab4e67)" d="M 562.529887 87.704405 
L 562.529887 16.528672 
" style="fill:none;stroke:#000000;stroke-dasharray:0.5,0.825;stroke-dashoffset:0;stroke-width:0.5;"/>
     </g>
     <g id="line2d_20">
      <g>
       <use style="stroke:#000000;stroke-width:0.8;" x="562.529887" xlink:href="#mf945215c8b" y="86.335641"/>
      </g>
     </g>
     <g id="text_2">
      <!-- $1$ -->
      <defs>
       <path d="M 9.28125 0 
L 9.28125 3.515625 
Q 21.78125 3.515625 21.78125 6.6875 
L 21.78125 59.1875 
Q 16.609375 56.6875 8.6875 56.6875 
L 8.6875 60.203125 
Q 20.953125 60.203125 27.203125 66.609375 
L 28.609375 66.609375 
Q 28.953125 66.609375 29.265625 66.328125 
Q 29.59375 66.0625 29.59375 65.71875 
L 29.59375 6.6875 
Q 29.59375 3.515625 42.09375 3.515625 
L 42.09375 0 
z
" id="Cmr10-31"/>
      </defs>
      <g transform="translate(560.029887 100.934078)scale(0.1 -0.1)">
       <use transform="translate(0 0.390625)" xlink:href="#Cmr10-31"/>
      </g>
     </g>
    </g>
   </g>
   <g id="matplotlib.axis_2">
    <g id="ytick_1">
     <g id="line2d_21">
      <path clip-path="url(#pc3b1ab4e67)" d="M 4.074135 86.335641 
L 573.48 86.335641 
" style="fill:none;stroke:#000000;stroke-dasharray:0.5,0.825;stroke-dashoffset:0;stroke-width:0.5;"/>
     </g>
     <g id="line2d_22">
      <defs>
       <path d="M 0 0 
L -3.5 0 
" id="mf0bc76dbfb" style="stroke:#000000;stroke-width:0.8;"/>
      </defs>
      <g>
       <use style="stroke:#000000;stroke-width:0.8;" x="15.024247" xlink:href="#mf0bc76dbfb" y="86.335641"/>
      </g>
     </g>
    </g>
    <g id="ytick_2">
     <g id="line2d_23">
      <path clip-path="url(#pc3b1ab4e67)" d="M 4.074135 17.897436 
L 573.48 17.897436 
" style="fill:none;stroke:#000000;stroke-dasharray:0.5,0.825;stroke-dashoffset:0;stroke-width:0.5;"/>
     </g>
     <g id="line2d_24">
      <g>
       <use style="stroke:#000000;stroke-width:0.8;" x="15.024247" xlink:href="#mf0bc76dbfb" y="17.897436"/>
      </g>
     </g>
     <g id="text_3">
      <!-- $1$ -->
      <g transform="translate(3.024247 21.696655)scale(0.1 -0.1)">
       <use transform="translate(0 0.390625)" xlink:href="#Cmr10-31"/>
      </g>
     </g>
    </g>
   </g>
   <g id="patch_3">
    <path d="M 15.024247 87.704405 
L 15.024247 16.528672 
" style="fill:none;stroke:#000000;stroke-linecap:square;stroke-linejoin:miter;stroke-width:0.8;"/>
   </g>
   <g id="patch_4">
    <path d="M 4.074135 86.335641 
L 573.48 86.335641 
" style="fill:none;stroke:#000000;stroke-linecap:square;stroke-linejoin:miter;stroke-width:0.8;"/>
   </g>
  </g>
 </g>
 <defs>
  <clipPath id="pc3b1ab4e67">
   <rect height="71.175733" width="569.405865" x="4.074135" y="16.528672"/>
  </clipPath>
 </defs>
</svg>
