<?xml version="1.0" encoding="utf-8" standalone="no"?>
<!DOCTYPE svg PUBLIC "-//W3C//DTD SVG 1.1//EN"
  "http://www.w3.org/Graphics/SVG/1.1/DTD/svg11.dtd">
<!-- Created with matplotlib (http://matplotlib.org/) -->
<svg height="108pt" version="1.1" viewBox="0 0 576 108" width="576pt" xmlns="http://www.w3.org/2000/svg" xmlns:xlink="http://www.w3.org/1999/xlink">
 <defs>
  <style type="text/css">
*{stroke-linecap:butt;stroke-linejoin:round;}
  </style>
 </defs>
 <g id="figure_1">
  <g id="patch_1">
   <path d="M 0 108 
L 576 108 
L 576 0 
L 0 0 
z
" style="fill:#ffffff;"/>
  </g>
  <g id="axes_1">
   <g id="patch_2">
    <path d="M 4.074135 87.704405 
L 573.48 87.704405 
L 573.48 16.528672 
L 4.074135 16.528672 
z
" style="fill:#ffffff;"/>
   </g>
   <g id="line2d_1">
    <path clip-path="url(#p9302e2a2f4)" d="M 309.834977 47.228095 
L 351.950795 66.781868 
L 351.950795 66.781868 
" style="fill:none;stroke:#ff0000;stroke-linecap:square;stroke-width:2;"/>
   </g>
   <g id="line2d_2">
    <path clip-path="url(#p9302e2a2f4)" d="M 394.066613 27.674322 
L 415.124523 37.451209 
L 415.124523 37.451209 
" style="fill:none;stroke:#ff0000;stroke-linecap:square;stroke-width:2;"/>
   </g>
   <g id="line2d_3">
    <path clip-path="url(#p9302e2a2f4)" d="M 436.182432 66.781868 
L 457.240341 76.558755 
L 457.240341 76.558755 
" style="fill:none;stroke:#ff0000;stroke-linecap:square;stroke-width:2;"/>
   </g>
   <g id="line2d_4">
    <path clip-path="url(#p9302e2a2f4)" d="M 499.35616 37.451209 
L 541.471978 57.004982 
L 541.471978 57.004982 
" style="fill:none;stroke:#ff0000;stroke-linecap:square;stroke-width:2;"/>
   </g>
   <g id="line2d_5">
    <path clip-path="url(#p9302e2a2f4)" d="M 78.197975 37.451209 
L 120.313794 76.558755 
L 120.313794 76.558755 
" style="fill:none;stroke:#ffff00;stroke-linecap:square;stroke-width:2;"/>
   </g>
   <g id="line2d_6">
    <path clip-path="url(#p9302e2a2f4)" d="M 183.487521 27.674322 
L 225.60334 66.781868 
L 225.60334 66.781868 
" style="fill:none;stroke:#ffff00;stroke-linecap:square;stroke-width:2;"/>
   </g>
   <g id="line2d_7">
    <path clip-path="url(#p9302e2a2f4)" d="M 15.024247 86.335641 
L 36.082157 57.004982 
L 36.082157 57.004982 
" style="fill:none;stroke:#00ff00;stroke-linecap:square;stroke-width:2;"/>
   </g>
   <g id="line2d_8">
    <path clip-path="url(#p9302e2a2f4)" d="M 141.371703 66.781868 
L 162.429612 37.451209 
L 162.429612 37.451209 
" style="fill:none;stroke:#00ff00;stroke-linecap:square;stroke-width:2;"/>
   </g>
   <g id="line2d_9">
    <path clip-path="url(#p9302e2a2f4)" d="M 267.719158 47.228095 
L 288.777067 17.897436 
L 288.777067 17.897436 
" style="fill:none;stroke:#00ff00;stroke-linecap:square;stroke-width:2;"/>
   </g>
   <g id="line2d_10">
    <path clip-path="url(#p9302e2a2f4)" d="M 288.777067 17.897436 
L 309.834977 47.228095 
L 309.834977 47.228095 
" style="fill:none;stroke:#00ffff;stroke-linecap:square;stroke-width:2;"/>
   </g>
   <g id="line2d_11">
    <path clip-path="url(#p9302e2a2f4)" d="M 415.124523 37.451209 
L 436.182432 66.781868 
L 436.182432 66.781868 
" style="fill:none;stroke:#00ffff;stroke-linecap:square;stroke-width:2;"/>
   </g>
   <g id="line2d_12">
    <path clip-path="url(#p9302e2a2f4)" d="M 541.471978 57.004982 
L 562.529887 86.335641 
L 562.529887 86.335641 
" style="fill:none;stroke:#00ffff;stroke-linecap:square;stroke-width:2;"/>
   </g>
   <g id="line2d_13">
    <path clip-path="url(#p9302e2a2f4)" d="M 351.950795 66.781868 
L 394.066613 27.674322 
L 394.066613 27.674322 
" style="fill:none;stroke:#0000ff;stroke-linecap:square;stroke-width:2;"/>
   </g>
   <g id="line2d_14">
    <path clip-path="url(#p9302e2a2f4)" d="M 457.240341 76.558755 
L 499.35616 37.451209 
L 499.35616 37.451209 
" style="fill:none;stroke:#0000ff;stroke-linecap:square;stroke-width:2;"/>
   </g>
   <g id="line2d_15">
    <path clip-path="url(#p9302e2a2f4)" d="M 36.082157 57.004982 
L 78.197975 37.451209 
L 78.197975 37.451209 
" style="fill:none;stroke:#ff00ff;stroke-linecap:square;stroke-width:2;"/>
   </g>
   <g id="line2d_16">
    <path clip-path="url(#p9302e2a2f4)" d="M 120.313794 76.558755 
L 120.466786 76.487722 
L 120.566221 76.441556 
L 120.62087 76.416184 
L 120.761704 76.350796 
L 120.823212 76.322239 
L 120.907253 76.28322 
L 121.042048 76.220636 
L 121.16629 76.162953 
L 121.251005 76.123621 
L 121.351809 76.076819 
L 121.508714 76.00397 
L 121.603395 75.960011 
L 121.636859 75.944474 
L 121.795997 75.870589 
L 121.865278 75.838422 
L 122.028999 75.762409 
L 122.149127 75.706635 
L 122.223353 75.672173 
L 122.338643 75.618646 
L 122.401249 75.589579 
L 122.579031 75.507037 
L 122.668336 75.465574 
L 122.789571 75.409286 
L 122.851333 75.380611 
L 122.957603 75.331271 
L 123.017693 75.303372 
L 123.206699 75.21562 
L 123.322588 75.161814 
L 123.360173 75.144364 
L 123.513034 75.073393 
L 123.545393 75.058369 
L 123.669056 75.000954 
L 123.775868 74.951363 
L 123.901983 74.892809 
L 123.985791 74.853899 
L 124.154636 74.775506 
L 124.235821 74.737813 
L 124.318666 74.699349 
L 124.443156 74.64155 
L 124.527227 74.602517 
L 124.652145 74.54452 
L 124.75829 74.495238 
L 124.85085 74.452264 
L 124.979299 74.392627 
L 125.091459 74.340552 
L 125.163731 74.306998 
L 125.263301 74.260769 
L 125.421353 74.187387 
L 125.461046 74.168959 
L 125.565524 74.120451 
L 125.750919 74.034375 
L 125.833051 73.996242 
L 125.956308 73.939016 
L 126.041753 73.899345 
L 126.123935 73.861189 
L 126.208278 73.82203 
L 126.313259 73.773288 
L 126.467414 73.701716 
L 126.543118 73.666568 
L 126.630225 73.626126 
L 126.775611 73.558625 
L 126.846718 73.525611 
L 127.023064 73.443736 
L 127.048916 73.431734 
L 127.227649 73.34875 
L 127.252264 73.337322 
L 127.44559 73.247563 
L 127.474349 73.234211 
L 127.636038 73.159141 
L 127.732236 73.114478 
L 127.831005 73.06862 
L 127.983187 72.997965 
L 128.069365 72.957953 
L 128.147023 72.921898 
L 128.266183 72.866573 
L 128.398129 72.805313 
L 128.497803 72.759036 
L 128.546593 72.736383 
L 128.622397 72.701188 
L 128.815172 72.611686 
L 128.856625 72.59244 
L 129.028131 72.512812 
L 129.124001 72.468301 
L 129.252765 72.408518 
L 129.306902 72.383383 
L 129.407009 72.336905 
L 129.502052 72.292777 
L 129.627192 72.234677 
L 129.686834 72.206986 
L 129.808903 72.150311 
L 129.900559 72.107756 
L 130.003753 72.059845 
L 130.192538 71.972195 
L 130.277039 71.932962 
L 130.378669 71.885777 
L 130.481324 71.838115 
L 130.599742 71.783136 
L 130.685042 71.743532 
L 130.815898 71.682777 
L 130.877508 71.654173 
L 130.969379 71.611518 
L 131.09676 71.552377 
L 131.256842 71.478053 
L 131.296816 71.459494 
L 131.414114 71.405034 
L 131.572923 71.331302 
L 131.612587 71.312886 
L 131.753478 71.247472 
L 131.881153 71.188195 
L 131.903338 71.177895 
L 132.012234 71.127335 
L 132.201915 71.039269 
L 132.274521 71.00556 
L 132.329379 70.98009 
L 132.476847 70.911623 
L 132.56376 70.87127 
L 132.666983 70.823345 
L 132.827109 70.749001 
" style="fill:none;stroke:#ff00ff;stroke-linecap:square;stroke-width:2;"/>
   </g>
   <g id="line2d_17">
    <path clip-path="url(#p9302e2a2f4)" d="M 133.09405 70.625064 
L 133.224715 70.564398 
L 133.358144 70.502449 
L 133.432684 70.467841 
L 133.553576 70.411713 
L 133.69736 70.344956 
L 133.717184 70.335752 
L 133.874078 70.262908 
L 133.944386 70.230265 
L 134.122925 70.147372 
L 134.153267 70.133285 
L 134.305978 70.062383 
L 134.389079 70.0238 
L 134.522833 69.9617 
L 134.586655 69.932069 
L 134.704434 69.877386 
L 134.783667 69.840599 
L 134.867844 69.801517 
L 135.012735 69.734246 
L 135.099359 69.694028 
L 135.187774 69.652978 
L 135.295117 69.60314 
L 135.414554 69.547687 
L 135.551928 69.483906 
L 135.64227 69.441962 
L 135.804747 69.366526 
L 135.86043 69.340673 
L 136.020864 69.266186 
L 136.078781 69.239296 
L 136.203372 69.18145 
L 136.312468 69.130798 
L 136.35713 69.110062 
L 136.469605 69.057842 
L 136.61577 68.98998 
L 136.758271 68.923819 
L 136.858137 68.877452 
L 136.91811 68.849608 
L 137.014539 68.804837 
L 137.108314 68.761298 
L 137.247033 68.696893 
L 137.336805 68.655214 
L 137.508687 68.575411 
L 137.571273 68.546353 
L 137.68218 68.494861 
L 137.799022 68.440613 
L 137.915929 68.386335 
L 137.978745 68.35717 
L 138.071655 68.314033 
L 138.174516 68.266276 
L 138.349906 68.184845 
L 138.441013 68.142546 
L 138.538968 68.097066 
L 138.586178 68.075148 
L 138.751711 67.998293 
L 138.847466 67.953835 
L 138.935104 67.913146 
L 139.087708 67.842294 
L 139.189113 67.795213 
L 139.298473 67.744439 
L 139.309686 67.739233 
L 139.414884 67.690391 
L 139.61535 67.597318 
L 139.692702 67.561404 
L 139.808398 67.507688 
L 139.921204 67.455314 
L 139.947056 67.443311 
L 140.138755 67.354308 
L 140.180405 67.33497 
L 140.262425 67.29689 
L 140.460211 67.205061 
L 140.544005 67.166156 
L 140.682461 67.101873 
L 140.686076 67.100195 
L 140.810564 67.042397 
L 140.98198 66.962811 
L 141.062122 66.925602 
L 141.188508 66.866923 
L 141.294439 66.81774 
L 141.371703 66.781868 
" style="fill:none;stroke:#ff00ff;stroke-linecap:square;stroke-width:2;"/>
   </g>
   <g id="line2d_18">
    <path clip-path="url(#p9302e2a2f4)" d="M 162.429612 37.451209 
L 183.487521 27.674322 
L 183.487521 27.674322 
" style="fill:none;stroke:#ff00ff;stroke-linecap:square;stroke-width:2;"/>
   </g>
   <g id="line2d_19">
    <path clip-path="url(#p9302e2a2f4)" d="M 225.60334 66.781868 
L 267.719158 47.228095 
L 267.719158 47.228095 
" style="fill:none;stroke:#ff00ff;stroke-linecap:square;stroke-width:2;"/>
   </g>
   <g id="matplotlib.axis_1">
    <g id="xtick_1">
     <g id="line2d_20">
      <path clip-path="url(#p9302e2a2f4)" d="M 15.024247 87.704405 
L 15.024247 16.528672 
" style="fill:none;stroke:#000000;stroke-dasharray:0.5,0.825;stroke-dashoffset:0;stroke-width:0.5;"/>
     </g>
     <g id="line2d_21">
      <defs>
       <path d="M 0 0 
L 0 3.5 
" id="m13b3b3484f" style="stroke:#000000;stroke-width:0.8;"/>
      </defs>
      <g>
       <use style="stroke:#000000;stroke-width:0.8;" x="15.024247" xlink:href="#m13b3b3484f" y="86.335641"/>
      </g>
     </g>
    </g>
    <g id="xtick_2">
     <g id="line2d_22">
      <path clip-path="url(#p9302e2a2f4)" d="M 288.777067 87.704405 
L 288.777067 16.528672 
" style="fill:none;stroke:#000000;stroke-dasharray:0.5,0.825;stroke-dashoffset:0;stroke-width:0.5;"/>
     </g>
     <g id="line2d_23">
      <g>
       <use style="stroke:#000000;stroke-width:0.8;" x="288.777067" xlink:href="#m13b3b3484f" y="86.335641"/>
      </g>
     </g>
     <g id="text_1">
      <!-- $f$ -->
      <defs>
       <path d="M 9.71875 -16.5 
Q 11.578125 -17.921875 14.203125 -17.921875 
Q 17.78125 -17.921875 20.015625 -10.015625 
Q 20.953125 -6.203125 25.09375 15.09375 
L 29.6875 39.59375 
L 21.09375 39.59375 
Q 20.125 39.59375 20.125 40.921875 
Q 20.515625 43.109375 21.390625 43.109375 
L 30.328125 43.109375 
L 31.5 49.609375 
Q 32.078125 52.640625 32.5625 54.8125 
Q 33.0625 56.984375 33.625 58.828125 
Q 34.1875 60.6875 35.296875 62.984375 
Q 37.015625 66.265625 39.921875 68.390625 
Q 42.828125 70.515625 46.1875 70.515625 
Q 48.390625 70.515625 50.46875 69.703125 
Q 52.546875 68.890625 53.859375 67.28125 
Q 55.171875 65.671875 55.171875 63.484375 
Q 55.171875 60.9375 53.484375 59.046875 
Q 51.8125 57.171875 49.421875 57.171875 
Q 47.796875 57.171875 46.65625 58.171875 
Q 45.515625 59.1875 45.515625 60.796875 
Q 45.515625 62.984375 47 64.625 
Q 48.484375 66.265625 50.6875 66.5 
Q 48.828125 67.921875 46.09375 67.921875 
Q 44.578125 67.921875 43.234375 66.5 
Q 41.890625 65.09375 41.5 63.484375 
Q 40.875 60.9375 38.71875 49.703125 
L 37.5 43.109375 
L 47.796875 43.109375 
Q 48.78125 43.109375 48.78125 41.796875 
Q 48.734375 41.546875 48.578125 40.9375 
Q 48.4375 40.328125 48.171875 39.953125 
Q 47.90625 39.59375 47.515625 39.59375 
L 36.8125 39.59375 
L 32.171875 15.1875 
Q 31.296875 9.859375 30.140625 4.359375 
Q 29 -1.125 26.921875 -6.90625 
Q 24.859375 -12.703125 21.625 -16.609375 
Q 18.40625 -20.515625 14.015625 -20.515625 
Q 10.640625 -20.515625 7.984375 -18.578125 
Q 5.328125 -16.65625 5.328125 -13.484375 
Q 5.328125 -10.9375 6.953125 -9.046875 
Q 8.59375 -7.171875 11.078125 -7.171875 
Q 12.75 -7.171875 13.859375 -8.171875 
Q 14.984375 -9.1875 14.984375 -10.796875 
Q 14.984375 -12.9375 13.390625 -14.71875 
Q 11.8125 -16.5 9.71875 -16.5 
z
" id="Cmmi10-66"/>
      </defs>
      <g transform="translate(286.327067 100.913766)scale(0.1 -0.1)">
       <use transform="translate(0 0.484375)" xlink:href="#Cmmi10-66"/>
      </g>
     </g>
    </g>
    <g id="xtick_3">
     <g id="line2d_24">
      <path clip-path="url(#p9302e2a2f4)" d="M 562.529887 87.704405 
L 562.529887 16.528672 
" style="fill:none;stroke:#000000;stroke-dasharray:0.5,0.825;stroke-dashoffset:0;stroke-width:0.5;"/>
     </g>
     <g id="line2d_25">
      <g>
       <use style="stroke:#000000;stroke-width:0.8;" x="562.529887" xlink:href="#m13b3b3484f" y="86.335641"/>
      </g>
     </g>
     <g id="text_2">
      <!-- $1$ -->
      <defs>
       <path d="M 9.28125 0 
L 9.28125 3.515625 
Q 21.78125 3.515625 21.78125 6.6875 
L 21.78125 59.1875 
Q 16.609375 56.6875 8.6875 56.6875 
L 8.6875 60.203125 
Q 20.953125 60.203125 27.203125 66.609375 
L 28.609375 66.609375 
Q 28.953125 66.609375 29.265625 66.328125 
Q 29.59375 66.0625 29.59375 65.71875 
L 29.59375 6.6875 
Q 29.59375 3.515625 42.09375 3.515625 
L 42.09375 0 
z
" id="Cmr10-31"/>
      </defs>
      <g transform="translate(560.029887 100.934078)scale(0.1 -0.1)">
       <use transform="translate(0 0.390625)" xlink:href="#Cmr10-31"/>
      </g>
     </g>
    </g>
   </g>
   <g id="matplotlib.axis_2">
    <g id="ytick_1">
     <g id="line2d_26">
      <path clip-path="url(#p9302e2a2f4)" d="M 4.074135 86.335641 
L 573.48 86.335641 
" style="fill:none;stroke:#000000;stroke-dasharray:0.5,0.825;stroke-dashoffset:0;stroke-width:0.5;"/>
     </g>
     <g id="line2d_27">
      <defs>
       <path d="M 0 0 
L -3.5 0 
" id="m6ee5d24856" style="stroke:#000000;stroke-width:0.8;"/>
      </defs>
      <g>
       <use style="stroke:#000000;stroke-width:0.8;" x="15.024247" xlink:href="#m6ee5d24856" y="86.335641"/>
      </g>
     </g>
    </g>
    <g id="ytick_2">
     <g id="line2d_28">
      <path clip-path="url(#p9302e2a2f4)" d="M 4.074135 17.897436 
L 573.48 17.897436 
" style="fill:none;stroke:#000000;stroke-dasharray:0.5,0.825;stroke-dashoffset:0;stroke-width:0.5;"/>
     </g>
     <g id="line2d_29">
      <g>
       <use style="stroke:#000000;stroke-width:0.8;" x="15.024247" xlink:href="#m6ee5d24856" y="17.897436"/>
      </g>
     </g>
     <g id="text_3">
      <!-- $1$ -->
      <g transform="translate(3.024247 21.696655)scale(0.1 -0.1)">
       <use transform="translate(0 0.390625)" xlink:href="#Cmr10-31"/>
      </g>
     </g>
    </g>
   </g>
   <g id="patch_3">
    <path d="M 15.024247 87.704405 
L 15.024247 16.528672 
" style="fill:none;stroke:#000000;stroke-linecap:square;stroke-linejoin:miter;stroke-width:0.8;"/>
   </g>
   <g id="patch_4">
    <path d="M 4.074135 86.335641 
L 573.48 86.335641 
" style="fill:none;stroke:#000000;stroke-linecap:square;stroke-linejoin:miter;stroke-width:0.8;"/>
   </g>
  </g>
 </g>
 <defs>
  <clipPath id="p9302e2a2f4">
   <rect height="71.175733" width="569.405865" x="4.074135" y="16.528672"/>
  </clipPath>
 </defs>
</svg>
