<?xml version="1.0" encoding="utf-8" standalone="no"?>
<!DOCTYPE svg PUBLIC "-//W3C//DTD SVG 1.1//EN"
  "http://www.w3.org/Graphics/SVG/1.1/DTD/svg11.dtd">
<!-- Created with matplotlib (http://matplotlib.org/) -->
<svg height="108pt" version="1.1" viewBox="0 0 576 108" width="576pt" xmlns="http://www.w3.org/2000/svg" xmlns:xlink="http://www.w3.org/1999/xlink">
 <defs>
  <style type="text/css">
*{stroke-linecap:butt;stroke-linejoin:round;}
  </style>
 </defs>
 <g id="figure_1">
  <g id="patch_1">
   <path d="M 0 108 
L 576 108 
L 576 0 
L 0 0 
z
" style="fill:#ffffff;"/>
  </g>
  <g id="axes_1">
   <g id="patch_2">
    <path d="M 4.074135 87.704405 
L 573.48 87.704405 
L 573.48 16.528672 
L 4.074135 16.528672 
z
" style="fill:#ffffff;"/>
   </g>
   <g id="line2d_1">
    <path clip-path="url(#pbdc3d64e13)" d="M 15.024247 86.335641 
L 39.910867 41.702029 
L 39.910867 41.702029 
" style="fill:none;stroke:#ff0000;stroke-linecap:square;stroke-width:2;"/>
   </g>
   <g id="line2d_2">
    <path clip-path="url(#pbdc3d64e13)" d="M 64.797487 62.531048 
L 89.684107 17.897436 
L 89.684107 17.897436 
" style="fill:none;stroke:#ff0000;stroke-linecap:square;stroke-width:2;"/>
   </g>
   <g id="line2d_3">
    <path clip-path="url(#pbdc3d64e13)" d="M 313.663687 74.433344 
L 338.550307 29.799732 
L 338.550307 29.799732 
" style="fill:none;stroke:#ff0000;stroke-linecap:square;stroke-width:2;"/>
   </g>
   <g id="line2d_4">
    <path clip-path="url(#pbdc3d64e13)" d="M 114.570727 60.547332 
L 139.457347 37.734597 
L 139.457347 37.734597 
" style="fill:none;stroke:#cbff00;stroke-linecap:square;stroke-width:2;"/>
   </g>
   <g id="line2d_5">
    <path clip-path="url(#pbdc3d64e13)" d="M 263.890447 76.417061 
L 288.777067 53.604326 
L 288.777067 53.604326 
" style="fill:none;stroke:#cbff00;stroke-linecap:square;stroke-width:2;"/>
   </g>
   <g id="line2d_6">
    <path clip-path="url(#pbdc3d64e13)" d="M 363.436927 50.628751 
L 388.323547 27.816016 
L 388.323547 27.816016 
" style="fill:none;stroke:#cbff00;stroke-linecap:square;stroke-width:2;"/>
   </g>
   <g id="line2d_7">
    <path clip-path="url(#pbdc3d64e13)" d="M 512.756647 66.49848 
L 537.643267 43.685745 
L 537.643267 43.685745 
" style="fill:none;stroke:#cbff00;stroke-linecap:square;stroke-width:2;"/>
   </g>
   <g id="line2d_8">
    <path clip-path="url(#pbdc3d64e13)" d="M 89.684107 17.897436 
L 114.570727 60.547332 
L 114.570727 60.547332 
" style="fill:none;stroke:#00ff66;stroke-linecap:square;stroke-width:2;"/>
   </g>
   <g id="line2d_9">
    <path clip-path="url(#pbdc3d64e13)" d="M 537.643267 43.685745 
L 562.529887 86.335641 
L 562.529887 86.335641 
" style="fill:none;stroke:#00ff66;stroke-linecap:square;stroke-width:2;"/>
   </g>
   <g id="line2d_10">
    <path clip-path="url(#pbdc3d64e13)" d="M 39.910867 41.702029 
L 64.797487 62.531048 
L 64.797487 62.531048 
" style="fill:none;stroke:#0066ff;stroke-linecap:square;stroke-width:2;"/>
   </g>
   <g id="line2d_11">
    <path clip-path="url(#pbdc3d64e13)" d="M 164.343967 36.742739 
L 164.465715 36.844636 
L 164.577791 36.938439 
L 164.769029 37.098497 
L 164.844126 37.16135 
L 164.972876 37.269108 
L 165.062585 37.34419 
L 165.250065 37.501103 
L 165.304817 37.546928 
L 165.468342 37.683791 
L 165.566986 37.766352 
L 165.721184 37.895409 
L 165.827943 37.984762 
L 165.920655 38.062358 
L 166.146125 38.251067 
L 166.247802 38.336165 
L 166.387529 38.453111 
L 166.445828 38.501905 
L 166.645483 38.669007 
L 166.769925 38.77316 
L 166.801624 38.799691 
L 166.969997 38.940612 
L 167.126615 39.071694 
L 167.230355 39.15852 
L 167.401652 39.301888 
L 167.492657 39.378055 
L 167.606071 39.472977 
L 167.668088 39.524884 
L 167.833772 39.663553 
L 167.957016 39.766704 
L 168.055504 39.849134 
L 168.179844 39.953201 
L 168.361347 40.105111 
L 168.4194 40.153699 
L 168.546547 40.260115 
L 168.762758 40.441074 
L 168.790343 40.464162 
L 168.997136 40.637239 
L 169.117597 40.73806 
L 169.259259 40.856625 
L 169.322661 40.909689 
L 169.491956 41.051382 
L 169.602407 41.143824 
L 169.73151 41.251878 
L 169.87096 41.368591 
L 169.923336 41.412428 
L 170.078677 41.542441 
L 170.221797 41.662227 
L 170.318499 41.743162 
L 170.438098 41.843261 
L 170.607659 41.985176 
L 170.680456 42.046105 
L 170.827792 42.169418 
L 170.998239 42.312075 
L 171.08067 42.381066 
L 171.234602 42.5099 
L 171.39419 42.643469 
L 171.464488 42.702305 
L 171.593466 42.810254 
L 171.781047 42.967251 
L 171.798779 42.982092 
L 172.03435 43.179255 
L 172.098601 43.23303 
L 172.210808 43.326942 
L 172.325562 43.422986 
L 172.43615 43.515544 
L 172.599273 43.652071 
L 172.721208 43.754125 
L 172.817834 43.834997 
L 172.988177 43.977566 
L 173.154014 44.116365 
L 173.195821 44.151355 
L 173.317489 44.253186 
L 173.43529 44.35178 
L 173.612442 44.500049 
L 173.678869 44.555645 
L 173.908048 44.747458 
L 173.98744 44.813906 
L 174.110458 44.916867 
L 174.241348 45.026416 
L 174.399449 45.158739 
L 174.457099 45.206991 
L 174.631178 45.352687 
L 174.726298 45.432299 
L 174.882094 45.562693 
L 175.008055 45.668117 
" style="fill:none;stroke:#0066ff;stroke-linecap:square;stroke-width:2;"/>
   </g>
   <g id="line2d_12">
    <path clip-path="url(#pbdc3d64e13)" d="M 175.411314 46.005626 
L 175.428144 46.019712 
L 175.616496 46.177355 
L 175.760462 46.297849 
L 175.855481 46.377375 
L 175.973527 46.476174 
L 176.110564 46.590869 
L 176.247765 46.7057 
L 176.319889 46.766064 
L 176.43152 46.859495 
L 176.606233 47.005722 
L 176.694647 47.079721 
L 176.880367 47.235161 
L 176.963553 47.304783 
L 177.141602 47.453803 
L 177.287144 47.575615 
L 177.368529 47.643731 
L 177.453907 47.715188 
L 177.594776 47.833089 
L 177.707443 47.927387 
L 177.81336 48.016035 
L 178.000836 48.172944 
L 178.104556 48.259754 
L 178.208631 48.34686 
L 178.411067 48.516289 
L 178.508642 48.597955 
L 178.61736 48.688948 
L 178.754314 48.803573 
L 178.831056 48.867802 
L 178.929214 48.949956 
L 179.102506 49.094994 
L 179.164624 49.146984 
L 179.301055 49.261171 
L 179.424693 49.36465 
L 179.563962 49.481213 
L 179.681106 49.579257 
L 179.794273 49.673973 
L 180.036861 49.877008 
L 180.054981 49.892175 
L 180.220641 50.030824 
L 180.398144 50.179387 
L 180.435128 50.210341 
L 180.542763 50.300426 
L 180.771998 50.492286 
L 180.848811 50.556575 
L 180.935833 50.629409 
L 181.058495 50.732072 
L 181.209912 50.858801 
L 181.411426 51.02746 
L 181.46277 51.070432 
L 181.562639 51.154018 
L 181.784398 51.339621 
L 181.831693 51.379205 
L 181.92356 51.456094 
L 182.151924 51.647224 
L 182.258983 51.736828 
L 182.349155 51.812298 
L 182.513021 51.949447 
L 182.6527 52.066352 
L 182.667606 52.078828 
L 182.85114 52.232437 
L 182.970428 52.332276 
L 183.108324 52.447689 
L 183.252316 52.568204 
L 183.321703 52.626278 
L 183.43665 52.722484 
L 183.605286 52.863625 
L 183.722314 52.961572 
L 183.804155 53.030069 
L 183.973046 53.171424 
L 184.087899 53.267551 
L 184.189727 53.352777 
L 184.354372 53.490578 
L 184.454563 53.574433 
L 184.585922 53.684374 
L 184.69752 53.777777 
L 184.837456 53.894898 
L 185.015134 54.043607 
L 185.09986 54.114518 
L 185.250173 54.240324 
L 185.360974 54.33306 
L 185.491209 54.44206 
L 185.566155 54.504787 
L 185.788035 54.690491 
L 185.915023 54.796774 
L 185.932243 54.811187 
L 186.048612 54.908583 
L 186.238371 55.067402 
L 186.337811 55.15063 
L 186.477703 55.267714 
L 186.586008 55.358359 
L 186.758308 55.502567 
L 186.884813 55.608447 
L 187.022418 55.723616 
L 187.132052 55.815375 
L 187.181396 55.856674 
L 187.355737 56.002589 
L 187.431966 56.066389 
L 187.549998 56.165178 
L 187.762674 56.343178 
L 187.809846 56.382659 
L 187.94567 56.496338 
L 188.095829 56.622015 
L 188.269545 56.767407 
L 188.324393 56.813312 
L 188.430157 56.901833 
L 188.658613 57.09304 
L 188.78175 57.1961 
L 188.892493 57.288787 
L 188.99973 57.37854 
L 189.097799 57.460619 
L 189.230587 57.571758 
" style="fill:none;stroke:#0066ff;stroke-linecap:square;stroke-width:2;"/>
   </g>
   <g id="line2d_13">
    <path clip-path="url(#pbdc3d64e13)" d="M 239.003827 55.588042 
L 263.890447 76.417061 
L 263.890447 76.417061 
" style="fill:none;stroke:#0066ff;stroke-linecap:square;stroke-width:2;"/>
   </g>
   <g id="line2d_14">
    <path clip-path="url(#pbdc3d64e13)" d="M 288.777067 53.604326 
L 313.663687 74.433344 
L 313.663687 74.433344 
" style="fill:none;stroke:#0066ff;stroke-linecap:square;stroke-width:2;"/>
   </g>
   <g id="line2d_15">
    <path clip-path="url(#pbdc3d64e13)" d="M 338.550307 29.799732 
L 363.436927 50.628751 
L 363.436927 50.628751 
" style="fill:none;stroke:#0066ff;stroke-linecap:square;stroke-width:2;"/>
   </g>
   <g id="line2d_16">
    <path clip-path="url(#pbdc3d64e13)" d="M 388.323547 27.816016 
L 413.210167 48.645035 
L 413.210167 48.645035 
" style="fill:none;stroke:#0066ff;stroke-linecap:square;stroke-width:2;"/>
   </g>
   <g id="line2d_17">
    <path clip-path="url(#pbdc3d64e13)" d="M 462.983407 46.661319 
L 487.870027 67.490338 
L 487.870027 67.490338 
" style="fill:none;stroke:#0066ff;stroke-linecap:square;stroke-width:2;"/>
   </g>
   <g id="line2d_18">
    <path clip-path="url(#pbdc3d64e13)" d="M 139.457347 37.734597 
L 164.343967 36.742739 
L 164.343967 36.742739 
" style="fill:none;stroke:#cc00ff;stroke-linecap:square;stroke-width:2;"/>
   </g>
   <g id="line2d_19">
    <path clip-path="url(#pbdc3d64e13)" d="M 189.230587 57.571758 
L 239.003827 55.588042 
L 239.003827 55.588042 
" style="fill:none;stroke:#cc00ff;stroke-linecap:square;stroke-width:2;"/>
   </g>
   <g id="line2d_20">
    <path clip-path="url(#pbdc3d64e13)" d="M 413.210167 48.645035 
L 462.983407 46.661319 
L 462.983407 46.661319 
" style="fill:none;stroke:#cc00ff;stroke-linecap:square;stroke-width:2;"/>
   </g>
   <g id="line2d_21">
    <path clip-path="url(#pbdc3d64e13)" d="M 487.870027 67.490338 
L 512.756647 66.49848 
L 512.756647 66.49848 
" style="fill:none;stroke:#cc00ff;stroke-linecap:square;stroke-width:2;"/>
   </g>
   <g id="matplotlib.axis_1">
    <g id="xtick_1">
     <g id="line2d_22">
      <path clip-path="url(#pbdc3d64e13)" d="M 15.024247 87.704405 
L 15.024247 16.528672 
" style="fill:none;stroke:#000000;stroke-dasharray:0.5,0.825;stroke-dashoffset:0;stroke-width:0.5;"/>
     </g>
     <g id="line2d_23">
      <defs>
       <path d="M 0 0 
L 0 3.5 
" id="md5519dd14b" style="stroke:#000000;stroke-width:0.8;"/>
      </defs>
      <g>
       <use style="stroke:#000000;stroke-width:0.8;" x="15.024247" xlink:href="#md5519dd14b" y="86.335641"/>
      </g>
     </g>
    </g>
    <g id="xtick_2">
     <g id="line2d_24">
      <path clip-path="url(#pbdc3d64e13)" d="M 89.684107 87.704405 
L 89.684107 16.528672 
" style="fill:none;stroke:#000000;stroke-dasharray:0.5,0.825;stroke-dashoffset:0;stroke-width:0.5;"/>
     </g>
     <g id="line2d_25">
      <g>
       <use style="stroke:#000000;stroke-width:0.8;" x="89.684107" xlink:href="#md5519dd14b" y="86.335641"/>
      </g>
     </g>
     <g id="text_1">
      <!-- $f$ -->
      <defs>
       <path d="M 9.71875 -16.5 
Q 11.578125 -17.921875 14.203125 -17.921875 
Q 17.78125 -17.921875 20.015625 -10.015625 
Q 20.953125 -6.203125 25.09375 15.09375 
L 29.6875 39.59375 
L 21.09375 39.59375 
Q 20.125 39.59375 20.125 40.921875 
Q 20.515625 43.109375 21.390625 43.109375 
L 30.328125 43.109375 
L 31.5 49.609375 
Q 32.078125 52.640625 32.5625 54.8125 
Q 33.0625 56.984375 33.625 58.828125 
Q 34.1875 60.6875 35.296875 62.984375 
Q 37.015625 66.265625 39.921875 68.390625 
Q 42.828125 70.515625 46.1875 70.515625 
Q 48.390625 70.515625 50.46875 69.703125 
Q 52.546875 68.890625 53.859375 67.28125 
Q 55.171875 65.671875 55.171875 63.484375 
Q 55.171875 60.9375 53.484375 59.046875 
Q 51.8125 57.171875 49.421875 57.171875 
Q 47.796875 57.171875 46.65625 58.171875 
Q 45.515625 59.1875 45.515625 60.796875 
Q 45.515625 62.984375 47 64.625 
Q 48.484375 66.265625 50.6875 66.5 
Q 48.828125 67.921875 46.09375 67.921875 
Q 44.578125 67.921875 43.234375 66.5 
Q 41.890625 65.09375 41.5 63.484375 
Q 40.875 60.9375 38.71875 49.703125 
L 37.5 43.109375 
L 47.796875 43.109375 
Q 48.78125 43.109375 48.78125 41.796875 
Q 48.734375 41.546875 48.578125 40.9375 
Q 48.4375 40.328125 48.171875 39.953125 
Q 47.90625 39.59375 47.515625 39.59375 
L 36.8125 39.59375 
L 32.171875 15.1875 
Q 31.296875 9.859375 30.140625 4.359375 
Q 29 -1.125 26.921875 -6.90625 
Q 24.859375 -12.703125 21.625 -16.609375 
Q 18.40625 -20.515625 14.015625 -20.515625 
Q 10.640625 -20.515625 7.984375 -18.578125 
Q 5.328125 -16.65625 5.328125 -13.484375 
Q 5.328125 -10.9375 6.953125 -9.046875 
Q 8.59375 -7.171875 11.078125 -7.171875 
Q 12.75 -7.171875 13.859375 -8.171875 
Q 14.984375 -9.1875 14.984375 -10.796875 
Q 14.984375 -12.9375 13.390625 -14.71875 
Q 11.8125 -16.5 9.71875 -16.5 
z
" id="Cmmi10-66"/>
      </defs>
      <g transform="translate(87.234107 100.913766)scale(0.1 -0.1)">
       <use transform="translate(0 0.484375)" xlink:href="#Cmmi10-66"/>
      </g>
     </g>
    </g>
    <g id="xtick_3">
     <g id="line2d_26">
      <path clip-path="url(#pbdc3d64e13)" d="M 562.529887 87.704405 
L 562.529887 16.528672 
" style="fill:none;stroke:#000000;stroke-dasharray:0.5,0.825;stroke-dashoffset:0;stroke-width:0.5;"/>
     </g>
     <g id="line2d_27">
      <g>
       <use style="stroke:#000000;stroke-width:0.8;" x="562.529887" xlink:href="#md5519dd14b" y="86.335641"/>
      </g>
     </g>
     <g id="text_2">
      <!-- $1$ -->
      <defs>
       <path d="M 9.28125 0 
L 9.28125 3.515625 
Q 21.78125 3.515625 21.78125 6.6875 
L 21.78125 59.1875 
Q 16.609375 56.6875 8.6875 56.6875 
L 8.6875 60.203125 
Q 20.953125 60.203125 27.203125 66.609375 
L 28.609375 66.609375 
Q 28.953125 66.609375 29.265625 66.328125 
Q 29.59375 66.0625 29.59375 65.71875 
L 29.59375 6.6875 
Q 29.59375 3.515625 42.09375 3.515625 
L 42.09375 0 
z
" id="Cmr10-31"/>
      </defs>
      <g transform="translate(560.029887 100.934078)scale(0.1 -0.1)">
       <use transform="translate(0 0.390625)" xlink:href="#Cmr10-31"/>
      </g>
     </g>
    </g>
   </g>
   <g id="matplotlib.axis_2">
    <g id="ytick_1">
     <g id="line2d_28">
      <path clip-path="url(#pbdc3d64e13)" d="M 4.074135 86.335641 
L 573.48 86.335641 
" style="fill:none;stroke:#000000;stroke-dasharray:0.5,0.825;stroke-dashoffset:0;stroke-width:0.5;"/>
     </g>
     <g id="line2d_29">
      <defs>
       <path d="M 0 0 
L -3.5 0 
" id="m336d32688b" style="stroke:#000000;stroke-width:0.8;"/>
      </defs>
      <g>
       <use style="stroke:#000000;stroke-width:0.8;" x="15.024247" xlink:href="#m336d32688b" y="86.335641"/>
      </g>
     </g>
    </g>
    <g id="ytick_2">
     <g id="line2d_30">
      <path clip-path="url(#pbdc3d64e13)" d="M 4.074135 17.897436 
L 573.48 17.897436 
" style="fill:none;stroke:#000000;stroke-dasharray:0.5,0.825;stroke-dashoffset:0;stroke-width:0.5;"/>
     </g>
     <g id="line2d_31">
      <g>
       <use style="stroke:#000000;stroke-width:0.8;" x="15.024247" xlink:href="#m336d32688b" y="17.897436"/>
      </g>
     </g>
     <g id="text_3">
      <!-- $1$ -->
      <g transform="translate(3.024247 21.696655)scale(0.1 -0.1)">
       <use transform="translate(0 0.390625)" xlink:href="#Cmr10-31"/>
      </g>
     </g>
    </g>
   </g>
   <g id="patch_3">
    <path d="M 15.024247 87.704405 
L 15.024247 16.528672 
" style="fill:none;stroke:#000000;stroke-linecap:square;stroke-linejoin:miter;stroke-width:0.8;"/>
   </g>
   <g id="patch_4">
    <path d="M 4.074135 86.335641 
L 573.48 86.335641 
" style="fill:none;stroke:#000000;stroke-linecap:square;stroke-linejoin:miter;stroke-width:0.8;"/>
   </g>
  </g>
 </g>
 <defs>
  <clipPath id="pbdc3d64e13">
   <rect height="71.175733" width="569.405865" x="4.074135" y="16.528672"/>
  </clipPath>
 </defs>
</svg>
