<?xml version="1.0" encoding="utf-8" standalone="no"?>
<!DOCTYPE svg PUBLIC "-//W3C//DTD SVG 1.1//EN"
  "http://www.w3.org/Graphics/SVG/1.1/DTD/svg11.dtd">
<!-- Created with matplotlib (http://matplotlib.org/) -->
<svg height="108pt" version="1.1" viewBox="0 0 576 108" width="576pt" xmlns="http://www.w3.org/2000/svg" xmlns:xlink="http://www.w3.org/1999/xlink">
 <defs>
  <style type="text/css">
*{stroke-linecap:butt;stroke-linejoin:round;}
  </style>
 </defs>
 <g id="figure_1">
  <g id="patch_1">
   <path d="M 0 108 
L 576 108 
L 576 0 
L 0 0 
z
" style="fill:#ffffff;"/>
  </g>
  <g id="axes_1">
   <g id="patch_2">
    <path d="M 4.074135 87.704405 
L 573.48 87.704405 
L 573.48 16.528672 
L 4.074135 16.528672 
z
" style="fill:#ffffff;"/>
   </g>
   <g id="line2d_1">
    <path clip-path="url(#p9f1b6a9e2b)" d="M 288.777067 17.897436 
L 292.075294 22.459983 
L 292.075294 22.459983 
" style="fill:none;stroke:#ff0000;stroke-linecap:square;stroke-width:2;"/>
   </g>
   <g id="line2d_2">
    <path clip-path="url(#p9f1b6a9e2b)" d="M 424.004364 49.835265 
L 427.302591 54.397812 
L 427.302591 54.397812 
" style="fill:none;stroke:#ff0000;stroke-linecap:square;stroke-width:2;"/>
   </g>
   <g id="line2d_3">
    <path clip-path="url(#p9f1b6a9e2b)" d="M 559.23166 81.773094 
L 562.529887 86.335641 
L 562.529887 86.335641 
" style="fill:none;stroke:#ff0000;stroke-linecap:square;stroke-width:2;"/>
   </g>
   <g id="line2d_4">
    <path clip-path="url(#p9f1b6a9e2b)" d="M 84.287009 36.849554 
L 87.585236 41.061136 
L 87.585236 41.061136 
" style="fill:none;stroke:#ff9900;stroke-linecap:square;stroke-width:2;"/>
   </g>
   <g id="line2d_5">
    <path clip-path="url(#p9f1b6a9e2b)" d="M 90.883463 44.570788 
L 94.181689 48.78237 
L 94.181689 48.78237 
" style="fill:none;stroke:#ff9900;stroke-linecap:square;stroke-width:2;"/>
   </g>
   <g id="line2d_6">
    <path clip-path="url(#p9f1b6a9e2b)" d="M 97.479916 52.292021 
L 110.672823 69.138348 
L 110.672823 69.138348 
" style="fill:none;stroke:#ff9900;stroke-linecap:square;stroke-width:2;"/>
   </g>
   <g id="line2d_7">
    <path clip-path="url(#p9f1b6a9e2b)" d="M 113.97105 72.648 
L 117.269277 76.859582 
L 117.269277 76.859582 
" style="fill:none;stroke:#ff9900;stroke-linecap:square;stroke-width:2;"/>
   </g>
   <g id="line2d_8">
    <path clip-path="url(#p9f1b6a9e2b)" d="M 186.532038 27.373495 
L 189.830265 31.585077 
L 189.830265 31.585077 
" style="fill:none;stroke:#ff9900;stroke-linecap:square;stroke-width:2;"/>
   </g>
   <g id="line2d_9">
    <path clip-path="url(#p9f1b6a9e2b)" d="M 193.128492 35.094729 
L 206.321399 51.941056 
L 206.321399 51.941056 
" style="fill:none;stroke:#ff9900;stroke-linecap:square;stroke-width:2;"/>
   </g>
   <g id="line2d_10">
    <path clip-path="url(#p9f1b6a9e2b)" d="M 209.619625 55.450707 
L 212.917852 59.662289 
L 212.917852 59.662289 
" style="fill:none;stroke:#ff9900;stroke-linecap:square;stroke-width:2;"/>
   </g>
   <g id="line2d_11">
    <path clip-path="url(#p9f1b6a9e2b)" d="M 216.216079 63.171941 
L 219.514306 67.383523 
L 219.514306 67.383523 
" style="fill:none;stroke:#ff9900;stroke-linecap:square;stroke-width:2;"/>
   </g>
   <g id="line2d_12">
    <path clip-path="url(#p9f1b6a9e2b)" d="M 292.075294 22.459983 
L 298.671748 30.883147 
L 298.671748 30.883147 
" style="fill:none;stroke:#ff9900;stroke-linecap:square;stroke-width:2;"/>
   </g>
   <g id="line2d_13">
    <path clip-path="url(#p9f1b6a9e2b)" d="M 301.969974 34.743763 
L 305.268201 38.955345 
L 305.268201 38.955345 
" style="fill:none;stroke:#ff9900;stroke-linecap:square;stroke-width:2;"/>
   </g>
   <g id="line2d_14">
    <path clip-path="url(#p9f1b6a9e2b)" d="M 308.566428 42.815962 
L 311.864655 47.027544 
L 311.864655 47.027544 
" style="fill:none;stroke:#ff9900;stroke-linecap:square;stroke-width:2;"/>
   </g>
   <g id="line2d_15">
    <path clip-path="url(#p9f1b6a9e2b)" d="M 414.109684 37.551485 
L 417.40791 41.763066 
L 417.40791 41.763066 
" style="fill:none;stroke:#ff9900;stroke-linecap:square;stroke-width:2;"/>
   </g>
   <g id="line2d_16">
    <path clip-path="url(#p9f1b6a9e2b)" d="M 420.706137 45.623683 
L 424.004364 49.835265 
L 424.004364 49.835265 
" style="fill:none;stroke:#ff9900;stroke-linecap:square;stroke-width:2;"/>
   </g>
   <g id="line2d_17">
    <path clip-path="url(#p9f1b6a9e2b)" d="M 427.302591 54.397812 
L 430.600817 58.609394 
L 430.600817 58.609394 
" style="fill:none;stroke:#ff9900;stroke-linecap:square;stroke-width:2;"/>
   </g>
   <g id="line2d_18">
    <path clip-path="url(#p9f1b6a9e2b)" d="M 433.899044 62.47001 
L 437.197271 66.681592 
L 437.197271 66.681592 
" style="fill:none;stroke:#ff9900;stroke-linecap:square;stroke-width:2;"/>
   </g>
   <g id="line2d_19">
    <path clip-path="url(#p9f1b6a9e2b)" d="M 539.4423 57.205533 
L 542.740527 61.417115 
L 542.740527 61.417115 
" style="fill:none;stroke:#ff9900;stroke-linecap:square;stroke-width:2;"/>
   </g>
   <g id="line2d_20">
    <path clip-path="url(#p9f1b6a9e2b)" d="M 546.038753 65.277732 
L 549.33698 69.489314 
L 549.33698 69.489314 
" style="fill:none;stroke:#ff9900;stroke-linecap:square;stroke-width:2;"/>
   </g>
   <g id="line2d_21">
    <path clip-path="url(#p9f1b6a9e2b)" d="M 552.635207 73.34993 
L 559.23166 81.773094 
L 559.23166 81.773094 
" style="fill:none;stroke:#ff9900;stroke-linecap:square;stroke-width:2;"/>
   </g>
   <g id="line2d_22">
    <path clip-path="url(#p9f1b6a9e2b)" d="M 15.024247 86.335641 
L 18.322474 81.773094 
L 18.322474 81.773094 
" style="fill:none;stroke:#cbff00;stroke-linecap:square;stroke-width:2;"/>
   </g>
   <g id="line2d_23">
    <path clip-path="url(#p9f1b6a9e2b)" d="M 150.251544 54.397812 
L 153.549771 49.835265 
L 153.549771 49.835265 
" style="fill:none;stroke:#cbff00;stroke-linecap:square;stroke-width:2;"/>
   </g>
   <g id="line2d_24">
    <path clip-path="url(#p9f1b6a9e2b)" d="M 285.478841 22.459983 
L 288.777067 17.897436 
L 288.777067 17.897436 
" style="fill:none;stroke:#cbff00;stroke-linecap:square;stroke-width:2;"/>
   </g>
   <g id="line2d_25">
    <path clip-path="url(#p9f1b6a9e2b)" d="M 338.250468 75.104756 
L 341.548695 71.595104 
L 341.548695 71.595104 
" style="fill:none;stroke:#33ff00;stroke-linecap:square;stroke-width:2;"/>
   </g>
   <g id="line2d_26">
    <path clip-path="url(#p9f1b6a9e2b)" d="M 344.846922 74.753791 
L 348.145149 71.244139 
L 348.145149 71.244139 
" style="fill:none;stroke:#33ff00;stroke-linecap:square;stroke-width:2;"/>
   </g>
   <g id="line2d_27">
    <path clip-path="url(#p9f1b6a9e2b)" d="M 351.443375 74.402826 
L 358.039829 67.383523 
L 358.039829 67.383523 
" style="fill:none;stroke:#33ff00;stroke-linecap:square;stroke-width:2;"/>
   </g>
   <g id="line2d_28">
    <path clip-path="url(#p9f1b6a9e2b)" d="M 361.338056 63.171941 
L 364.636282 59.662289 
L 364.636282 59.662289 
" style="fill:none;stroke:#33ff00;stroke-linecap:square;stroke-width:2;"/>
   </g>
   <g id="line2d_29">
    <path clip-path="url(#p9f1b6a9e2b)" d="M 367.934509 55.450707 
L 371.232736 51.941056 
L 371.232736 51.941056 
" style="fill:none;stroke:#33ff00;stroke-linecap:square;stroke-width:2;"/>
   </g>
   <g id="line2d_30">
    <path clip-path="url(#p9f1b6a9e2b)" d="M 384.425643 35.094729 
L 387.72387 31.585077 
L 387.72387 31.585077 
" style="fill:none;stroke:#33ff00;stroke-linecap:square;stroke-width:2;"/>
   </g>
   <g id="line2d_31">
    <path clip-path="url(#p9f1b6a9e2b)" d="M 391.022096 27.373495 
L 394.320323 23.863844 
L 394.320323 23.863844 
" style="fill:none;stroke:#33ff00;stroke-linecap:square;stroke-width:2;"/>
   </g>
   <g id="line2d_32">
    <path clip-path="url(#p9f1b6a9e2b)" d="M 397.61855 27.02253 
L 400.916777 23.512878 
L 400.916777 23.512878 
" style="fill:none;stroke:#33ff00;stroke-linecap:square;stroke-width:2;"/>
   </g>
   <g id="line2d_33">
    <path clip-path="url(#p9f1b6a9e2b)" d="M 450.390178 80.720198 
L 453.688405 77.210547 
L 453.688405 77.210547 
" style="fill:none;stroke:#33ff00;stroke-linecap:square;stroke-width:2;"/>
   </g>
   <g id="line2d_34">
    <path clip-path="url(#p9f1b6a9e2b)" d="M 456.986631 80.369233 
L 460.284858 76.859582 
L 460.284858 76.859582 
" style="fill:none;stroke:#33ff00;stroke-linecap:square;stroke-width:2;"/>
   </g>
   <g id="line2d_35">
    <path clip-path="url(#p9f1b6a9e2b)" d="M 463.583085 72.648 
L 466.881312 69.138348 
L 466.881312 69.138348 
" style="fill:none;stroke:#33ff00;stroke-linecap:square;stroke-width:2;"/>
   </g>
   <g id="line2d_36">
    <path clip-path="url(#p9f1b6a9e2b)" d="M 480.074219 52.292021 
L 483.372445 48.78237 
L 483.372445 48.78237 
" style="fill:none;stroke:#33ff00;stroke-linecap:square;stroke-width:2;"/>
   </g>
   <g id="line2d_37">
    <path clip-path="url(#p9f1b6a9e2b)" d="M 486.670672 44.570788 
L 489.968899 41.061136 
L 489.968899 41.061136 
" style="fill:none;stroke:#33ff00;stroke-linecap:square;stroke-width:2;"/>
   </g>
   <g id="line2d_38">
    <path clip-path="url(#p9f1b6a9e2b)" d="M 493.267126 36.849554 
L 499.863579 29.830251 
L 499.863579 29.830251 
" style="fill:none;stroke:#33ff00;stroke-linecap:square;stroke-width:2;"/>
   </g>
   <g id="line2d_39">
    <path clip-path="url(#p9f1b6a9e2b)" d="M 503.161806 32.988938 
L 506.460033 29.479286 
L 506.460033 29.479286 
" style="fill:none;stroke:#33ff00;stroke-linecap:square;stroke-width:2;"/>
   </g>
   <g id="line2d_40">
    <path clip-path="url(#p9f1b6a9e2b)" d="M 509.758259 32.637972 
L 513.056486 29.128321 
L 513.056486 29.128321 
" style="fill:none;stroke:#33ff00;stroke-linecap:square;stroke-width:2;"/>
   </g>
   <g id="line2d_41">
    <path clip-path="url(#p9f1b6a9e2b)" d="M 24.918928 73.34993 
L 28.217154 69.489314 
L 28.217154 69.489314 
" style="fill:none;stroke:#00ff66;stroke-linecap:square;stroke-width:2;"/>
   </g>
   <g id="line2d_42">
    <path clip-path="url(#p9f1b6a9e2b)" d="M 31.515381 65.277732 
L 34.813608 61.417115 
L 34.813608 61.417115 
" style="fill:none;stroke:#00ff66;stroke-linecap:square;stroke-width:2;"/>
   </g>
   <g id="line2d_43">
    <path clip-path="url(#p9f1b6a9e2b)" d="M 38.111835 57.205533 
L 44.708288 49.4843 
L 44.708288 49.4843 
" style="fill:none;stroke:#00ff66;stroke-linecap:square;stroke-width:2;"/>
   </g>
   <g id="line2d_44">
    <path clip-path="url(#p9f1b6a9e2b)" d="M 48.006515 46.325613 
L 51.304742 42.464997 
L 51.304742 42.464997 
" style="fill:none;stroke:#00ff66;stroke-linecap:square;stroke-width:2;"/>
   </g>
   <g id="line2d_45">
    <path clip-path="url(#p9f1b6a9e2b)" d="M 54.602968 39.30631 
L 57.901195 35.445694 
L 57.901195 35.445694 
" style="fill:none;stroke:#00ff66;stroke-linecap:square;stroke-width:2;"/>
   </g>
   <g id="line2d_46">
    <path clip-path="url(#p9f1b6a9e2b)" d="M 130.462184 77.561512 
L 133.76041 73.700895 
L 133.76041 73.700895 
" style="fill:none;stroke:#00ff66;stroke-linecap:square;stroke-width:2;"/>
   </g>
   <g id="line2d_47">
    <path clip-path="url(#p9f1b6a9e2b)" d="M 137.058637 70.542209 
L 140.356864 66.681592 
L 140.356864 66.681592 
" style="fill:none;stroke:#00ff66;stroke-linecap:square;stroke-width:2;"/>
   </g>
   <g id="line2d_48">
    <path clip-path="url(#p9f1b6a9e2b)" d="M 143.65509 62.47001 
L 146.953317 58.609394 
L 146.953317 58.609394 
" style="fill:none;stroke:#00ff66;stroke-linecap:square;stroke-width:2;"/>
   </g>
   <g id="line2d_49">
    <path clip-path="url(#p9f1b6a9e2b)" d="M 156.847997 45.623683 
L 160.146224 41.763066 
L 160.146224 41.763066 
" style="fill:none;stroke:#00ff66;stroke-linecap:square;stroke-width:2;"/>
   </g>
   <g id="line2d_50">
    <path clip-path="url(#p9f1b6a9e2b)" d="M 163.444451 37.551485 
L 166.742678 33.690868 
L 166.742678 33.690868 
" style="fill:none;stroke:#00ff66;stroke-linecap:square;stroke-width:2;"/>
   </g>
   <g id="line2d_51">
    <path clip-path="url(#p9f1b6a9e2b)" d="M 170.040904 30.532182 
L 173.339131 26.671565 
L 173.339131 26.671565 
" style="fill:none;stroke:#00ff66;stroke-linecap:square;stroke-width:2;"/>
   </g>
   <g id="line2d_52">
    <path clip-path="url(#p9f1b6a9e2b)" d="M 245.90012 68.787383 
L 249.198346 64.926767 
L 249.198346 64.926767 
" style="fill:none;stroke:#00ff66;stroke-linecap:square;stroke-width:2;"/>
   </g>
   <g id="line2d_53">
    <path clip-path="url(#p9f1b6a9e2b)" d="M 252.496573 61.76808 
L 255.7948 57.907463 
L 255.7948 57.907463 
" style="fill:none;stroke:#00ff66;stroke-linecap:square;stroke-width:2;"/>
   </g>
   <g id="line2d_54">
    <path clip-path="url(#p9f1b6a9e2b)" d="M 259.093027 54.748777 
L 265.68948 47.027544 
L 265.68948 47.027544 
" style="fill:none;stroke:#00ff66;stroke-linecap:square;stroke-width:2;"/>
   </g>
   <g id="line2d_55">
    <path clip-path="url(#p9f1b6a9e2b)" d="M 268.987707 42.815962 
L 272.285934 38.955345 
L 272.285934 38.955345 
" style="fill:none;stroke:#00ff66;stroke-linecap:square;stroke-width:2;"/>
   </g>
   <g id="line2d_56">
    <path clip-path="url(#p9f1b6a9e2b)" d="M 275.58416 34.743763 
L 278.882387 30.883147 
L 278.882387 30.883147 
" style="fill:none;stroke:#00ff66;stroke-linecap:square;stroke-width:2;"/>
   </g>
   <g id="line2d_57">
    <path clip-path="url(#p9f1b6a9e2b)" d="M 64.497649 29.128321 
L 67.795875 32.637972 
L 67.795875 32.637972 
" style="fill:none;stroke:#00ffff;stroke-linecap:square;stroke-width:2;"/>
   </g>
   <g id="line2d_58">
    <path clip-path="url(#p9f1b6a9e2b)" d="M 71.094102 29.479286 
L 74.392329 32.988938 
L 74.392329 32.988938 
" style="fill:none;stroke:#00ffff;stroke-linecap:square;stroke-width:2;"/>
   </g>
   <g id="line2d_59">
    <path clip-path="url(#p9f1b6a9e2b)" d="M 77.690556 29.830251 
L 84.287009 36.849554 
L 84.287009 36.849554 
" style="fill:none;stroke:#00ffff;stroke-linecap:square;stroke-width:2;"/>
   </g>
   <g id="line2d_60">
    <path clip-path="url(#p9f1b6a9e2b)" d="M 87.585236 41.061136 
L 90.883463 44.570788 
L 90.883463 44.570788 
" style="fill:none;stroke:#00ffff;stroke-linecap:square;stroke-width:2;"/>
   </g>
   <g id="line2d_61">
    <path clip-path="url(#p9f1b6a9e2b)" d="M 94.181689 48.78237 
L 97.479916 52.292021 
L 97.479916 52.292021 
" style="fill:none;stroke:#00ffff;stroke-linecap:square;stroke-width:2;"/>
   </g>
   <g id="line2d_62">
    <path clip-path="url(#p9f1b6a9e2b)" d="M 110.672823 69.138348 
L 113.97105 72.648 
L 113.97105 72.648 
" style="fill:none;stroke:#00ffff;stroke-linecap:square;stroke-width:2;"/>
   </g>
   <g id="line2d_63">
    <path clip-path="url(#p9f1b6a9e2b)" d="M 117.269277 76.859582 
L 120.567503 80.369233 
L 120.567503 80.369233 
" style="fill:none;stroke:#00ffff;stroke-linecap:square;stroke-width:2;"/>
   </g>
   <g id="line2d_64">
    <path clip-path="url(#p9f1b6a9e2b)" d="M 123.86573 77.210547 
L 127.163957 80.720198 
L 127.163957 80.720198 
" style="fill:none;stroke:#00ffff;stroke-linecap:square;stroke-width:2;"/>
   </g>
   <g id="line2d_65">
    <path clip-path="url(#p9f1b6a9e2b)" d="M 176.637358 23.512878 
L 179.935585 27.02253 
L 179.935585 27.02253 
" style="fill:none;stroke:#00ffff;stroke-linecap:square;stroke-width:2;"/>
   </g>
   <g id="line2d_66">
    <path clip-path="url(#p9f1b6a9e2b)" d="M 183.233811 23.863844 
L 186.532038 27.373495 
L 186.532038 27.373495 
" style="fill:none;stroke:#00ffff;stroke-linecap:square;stroke-width:2;"/>
   </g>
   <g id="line2d_67">
    <path clip-path="url(#p9f1b6a9e2b)" d="M 189.830265 31.585077 
L 193.128492 35.094729 
L 193.128492 35.094729 
" style="fill:none;stroke:#00ffff;stroke-linecap:square;stroke-width:2;"/>
   </g>
   <g id="line2d_68">
    <path clip-path="url(#p9f1b6a9e2b)" d="M 206.321399 51.941056 
L 209.619625 55.450707 
L 209.619625 55.450707 
" style="fill:none;stroke:#00ffff;stroke-linecap:square;stroke-width:2;"/>
   </g>
   <g id="line2d_69">
    <path clip-path="url(#p9f1b6a9e2b)" d="M 212.917852 59.662289 
L 216.216079 63.171941 
L 216.216079 63.171941 
" style="fill:none;stroke:#00ffff;stroke-linecap:square;stroke-width:2;"/>
   </g>
   <g id="line2d_70">
    <path clip-path="url(#p9f1b6a9e2b)" d="M 219.514306 67.383523 
L 226.110759 74.402826 
L 226.110759 74.402826 
" style="fill:none;stroke:#00ffff;stroke-linecap:square;stroke-width:2;"/>
   </g>
   <g id="line2d_71">
    <path clip-path="url(#p9f1b6a9e2b)" d="M 229.408986 71.244139 
L 232.707213 74.753791 
L 232.707213 74.753791 
" style="fill:none;stroke:#00ffff;stroke-linecap:square;stroke-width:2;"/>
   </g>
   <g id="line2d_72">
    <path clip-path="url(#p9f1b6a9e2b)" d="M 236.005439 71.595104 
L 239.303666 75.104756 
L 239.303666 75.104756 
" style="fill:none;stroke:#00ffff;stroke-linecap:square;stroke-width:2;"/>
   </g>
   <g id="line2d_73">
    <path clip-path="url(#p9f1b6a9e2b)" d="M 318.461108 54.748777 
L 321.759335 57.907463 
L 321.759335 57.907463 
" style="fill:none;stroke:#0066ff;stroke-linecap:square;stroke-width:2;"/>
   </g>
   <g id="line2d_74">
    <path clip-path="url(#p9f1b6a9e2b)" d="M 325.057562 61.76808 
L 328.355788 64.926767 
L 328.355788 64.926767 
" style="fill:none;stroke:#0066ff;stroke-linecap:square;stroke-width:2;"/>
   </g>
   <g id="line2d_75">
    <path clip-path="url(#p9f1b6a9e2b)" d="M 331.654015 68.787383 
L 338.250468 75.104756 
L 338.250468 75.104756 
" style="fill:none;stroke:#0066ff;stroke-linecap:square;stroke-width:2;"/>
   </g>
   <g id="line2d_76">
    <path clip-path="url(#p9f1b6a9e2b)" d="M 341.548695 71.595104 
L 344.846922 74.753791 
L 344.846922 74.753791 
" style="fill:none;stroke:#0066ff;stroke-linecap:square;stroke-width:2;"/>
   </g>
   <g id="line2d_77">
    <path clip-path="url(#p9f1b6a9e2b)" d="M 348.145149 71.244139 
L 351.443375 74.402826 
L 351.443375 74.402826 
" style="fill:none;stroke:#0066ff;stroke-linecap:square;stroke-width:2;"/>
   </g>
   <g id="line2d_78">
    <path clip-path="url(#p9f1b6a9e2b)" d="M 394.320323 23.863844 
L 397.61855 27.02253 
L 397.61855 27.02253 
" style="fill:none;stroke:#0066ff;stroke-linecap:square;stroke-width:2;"/>
   </g>
   <g id="line2d_79">
    <path clip-path="url(#p9f1b6a9e2b)" d="M 400.916777 23.512878 
L 404.215003 26.671565 
L 404.215003 26.671565 
" style="fill:none;stroke:#0066ff;stroke-linecap:square;stroke-width:2;"/>
   </g>
   <g id="line2d_80">
    <path clip-path="url(#p9f1b6a9e2b)" d="M 407.51323 30.532182 
L 410.811457 33.690868 
L 410.811457 33.690868 
" style="fill:none;stroke:#0066ff;stroke-linecap:square;stroke-width:2;"/>
   </g>
   <g id="line2d_81">
    <path clip-path="url(#p9f1b6a9e2b)" d="M 440.495498 70.542209 
L 443.793724 73.700895 
L 443.793724 73.700895 
" style="fill:none;stroke:#0066ff;stroke-linecap:square;stroke-width:2;"/>
   </g>
   <g id="line2d_82">
    <path clip-path="url(#p9f1b6a9e2b)" d="M 447.091951 77.561512 
L 447.112404 77.581099 
L 447.124011 77.592215 
L 447.138553 77.606142 
L 447.154717 77.621623 
L 447.176682 77.642658 
L 447.192039 77.657366 
L 447.211904 77.67639 
L 447.223489 77.687484 
L 447.244824 77.707917 
L 447.252961 77.71571 
L 447.274254 77.736102 
L 447.290377 77.751543 
L 447.299794 77.760562 
L 447.324107 77.783846 
L 447.335311 77.794576 
L 447.365082 77.823088 
L 447.37827 77.835718 
L 447.385184 77.842339 
L 447.414048 77.869982 
L 447.42583 77.881266 
L 447.444641 77.899281 
L 447.456751 77.910878 
L 447.474738 77.928104 
L 447.49371 77.946273 
L 447.501826 77.954046 
L 447.518363 77.969883 
L 447.545464 77.995838 
L 447.562521 78.012173 
L 447.571319 78.020599 
L 447.584316 78.033047 
L 447.598053 78.046202 
L 447.621327 78.068491 
L 447.636327 78.082857 
L 447.657271 78.102915 
L 447.665937 78.111214 
L 447.696585 78.140565 
L 447.70878 78.152245 
L 447.719395 78.16241 
L 447.739774 78.181927 
L 447.749794 78.191523 
L 447.771976 78.212767 
L 447.788553 78.228642 
L 447.809551 78.248752 
L 447.81969 78.258462 
L 447.843585 78.281346 
L 447.849155 78.28668 
L 447.865768 78.302591 
L 447.883926 78.31998 
L 447.904827 78.339997 
L 447.915464 78.350184 
L 447.934578 78.368489 
L 447.959591 78.392444 
L 447.971098 78.403464 
L 447.98047 78.41244 
L 448.001797 78.432865 
L 448.013932 78.444486 
L 448.029664 78.459553 
L 448.047174 78.476321 
L 448.077002 78.504888 
L 448.094366 78.521517 
L 448.098146 78.525137 
L 448.117189 78.543375 
L 448.134589 78.560039 
L 448.153838 78.578473 
L 448.164444 78.58863 
L 448.183273 78.606663 
L 448.197003 78.619812 
L 448.220902 78.642699 
L 448.236233 78.657382 
L 448.250803 78.671336 
L 448.273586 78.693154 
L 448.293162 78.711903 
L 448.298152 78.716681 
L 448.320435 78.738022 
L 448.339889 78.756653 
" style="fill:none;stroke:#0066ff;stroke-linecap:square;stroke-width:2;"/>
   </g>
   <g id="line2d_83">
    <path clip-path="url(#p9f1b6a9e2b)" d="M 448.390393 78.80502 
L 448.399197 78.813452 
L 448.423284 78.83652 
L 448.439822 78.852358 
L 448.449903 78.862012 
L 448.470891 78.882112 
L 448.492219 78.902538 
L 448.496124 78.906278 
L 448.52208 78.931135 
L 448.538044 78.946424 
L 448.550536 78.958388 
L 448.561625 78.969008 
L 448.577384 78.9841 
L 448.600572 79.006307 
L 448.620972 79.025843 
L 448.641189 79.045205 
L 448.642445 79.046408 
L 448.668626 79.071481 
L 448.690311 79.092249 
L 448.703491 79.104871 
L 448.717753 79.11853 
L 448.726626 79.127028 
L 448.756168 79.15532 
L 448.761813 79.160726 
L 448.789405 79.187151 
L 448.794996 79.192505 
L 448.82308 79.219401 
L 448.840153 79.235752 
L 448.845923 79.241277 
L 448.85772 79.252575 
L 448.881253 79.275113 
L 448.894683 79.287975 
L 448.917007 79.309355 
L 448.925169 79.317171 
L 448.951739 79.342616 
L 448.957436 79.348072 
L 448.98808 79.37742 
L 449.006183 79.394758 
L 449.018883 79.40692 
L 449.025713 79.413461 
L 449.053463 79.440037 
L 449.063601 79.449746 
L 449.088532 79.473622 
L 449.102241 79.486751 
L 449.114992 79.498963 
L 449.125195 79.508734 
L 449.153185 79.53554 
L 449.16378 79.545686 
L 449.177204 79.558543 
L 449.197153 79.577648 
L 449.206584 79.58668 
L 449.225912 79.60519 
L 449.240037 79.618717 
L 449.25715 79.635107 
L 449.283214 79.660068 
L 449.299174 79.675353 
L 449.311192 79.686862 
L 449.335237 79.70989 
L 449.342774 79.717108 
L 449.35508 79.728894 
L 449.381402 79.754102 
L 449.403822 79.775573 
L 449.416462 79.787678 
L 449.431728 79.802298 
L 449.449157 79.81899 
L 449.460024 79.829397 
L 449.473637 79.842434 
L 449.500261 79.867932 
L 449.508428 79.875754 
L 449.532004 79.898332 
L 449.540943 79.906892 
L 449.568695 79.933471 
L 449.570353 79.935058 
L 449.60173 79.965108 
L 449.612394 79.975321 
L 449.626245 79.988586 
L 449.63897 80.000772 
L 449.664943 80.025647 
L 449.671101 80.031544 
L 449.685951 80.045766 
L 449.716183 80.074719 
L 449.719392 80.077792 
L 449.749399 80.106529 
L 449.766211 80.12263 
L 449.775866 80.131876 
L 449.789395 80.144833 
L 449.801958 80.156864 
L 449.819457 80.173623 
L 449.844599 80.197702 
L 449.855112 80.20777 
L 449.868667 80.220751 
L 449.886899 80.238212 
L 449.913257 80.263455 
L 449.929362 80.278879 
L 449.947254 80.296014 
L 449.963237 80.31132 
L 449.971073 80.318825 
L 449.989654 80.33662 
L 450.004838 80.351161 
L 450.029937 80.375198 
L 450.036077 80.381079 
L 450.062708 80.406583 
L 450.076265 80.419566 
L 450.086735 80.429594 
L 450.106591 80.44861 
L 450.133236 80.474128 
L 450.139008 80.479655 
L 450.151063 80.4912 
L 450.179006 80.517961 
L 450.187513 80.526107 
L 450.210105 80.547744 
L 450.22081 80.557996 
L 450.243799 80.580012 
L 450.256923 80.592581 
L 450.273004 80.607982 
L 450.289812 80.624079 
L 450.308669 80.642138 
L 450.329532 80.662119 
L 450.344373 80.676332 
L 450.362632 80.693818 
L 450.37216 80.702943 
L 450.390178 80.720198 
" style="fill:none;stroke:#0066ff;stroke-linecap:square;stroke-width:2;"/>
   </g>
   <g id="line2d_84">
    <path clip-path="url(#p9f1b6a9e2b)" d="M 453.688405 77.210547 
L 456.986631 80.369233 
L 456.986631 80.369233 
" style="fill:none;stroke:#0066ff;stroke-linecap:square;stroke-width:2;"/>
   </g>
   <g id="line2d_85">
    <path clip-path="url(#p9f1b6a9e2b)" d="M 499.863579 29.830251 
L 503.161806 32.988938 
L 503.161806 32.988938 
" style="fill:none;stroke:#0066ff;stroke-linecap:square;stroke-width:2;"/>
   </g>
   <g id="line2d_86">
    <path clip-path="url(#p9f1b6a9e2b)" d="M 506.460033 29.479286 
L 509.758259 32.637972 
L 509.758259 32.637972 
" style="fill:none;stroke:#0066ff;stroke-linecap:square;stroke-width:2;"/>
   </g>
   <g id="line2d_87">
    <path clip-path="url(#p9f1b6a9e2b)" d="M 513.056486 29.128321 
L 519.65294 35.445694 
L 519.65294 35.445694 
" style="fill:none;stroke:#0066ff;stroke-linecap:square;stroke-width:2;"/>
   </g>
   <g id="line2d_88">
    <path clip-path="url(#p9f1b6a9e2b)" d="M 522.951166 39.30631 
L 526.249393 42.464997 
L 526.249393 42.464997 
" style="fill:none;stroke:#0066ff;stroke-linecap:square;stroke-width:2;"/>
   </g>
   <g id="line2d_89">
    <path clip-path="url(#p9f1b6a9e2b)" d="M 529.54762 46.325613 
L 532.845846 49.4843 
L 532.845846 49.4843 
" style="fill:none;stroke:#0066ff;stroke-linecap:square;stroke-width:2;"/>
   </g>
   <g id="line2d_90">
    <path clip-path="url(#p9f1b6a9e2b)" d="M 298.671748 30.883147 
L 301.969974 34.743763 
L 301.969974 34.743763 
" style="fill:none;stroke:#3200ff;stroke-linecap:square;stroke-width:2;"/>
   </g>
   <g id="line2d_91">
    <path clip-path="url(#p9f1b6a9e2b)" d="M 305.268201 38.955345 
L 308.566428 42.815962 
L 308.566428 42.815962 
" style="fill:none;stroke:#3200ff;stroke-linecap:square;stroke-width:2;"/>
   </g>
   <g id="line2d_92">
    <path clip-path="url(#p9f1b6a9e2b)" d="M 311.864655 47.027544 
L 318.461108 54.748777 
L 318.461108 54.748777 
" style="fill:none;stroke:#3200ff;stroke-linecap:square;stroke-width:2;"/>
   </g>
   <g id="line2d_93">
    <path clip-path="url(#p9f1b6a9e2b)" d="M 321.759335 57.907463 
L 325.057562 61.76808 
L 325.057562 61.76808 
" style="fill:none;stroke:#3200ff;stroke-linecap:square;stroke-width:2;"/>
   </g>
   <g id="line2d_94">
    <path clip-path="url(#p9f1b6a9e2b)" d="M 328.355788 64.926767 
L 331.654015 68.787383 
L 331.654015 68.787383 
" style="fill:none;stroke:#3200ff;stroke-linecap:square;stroke-width:2;"/>
   </g>
   <g id="line2d_95">
    <path clip-path="url(#p9f1b6a9e2b)" d="M 404.215003 26.671565 
L 407.51323 30.532182 
L 407.51323 30.532182 
" style="fill:none;stroke:#3200ff;stroke-linecap:square;stroke-width:2;"/>
   </g>
   <g id="line2d_96">
    <path clip-path="url(#p9f1b6a9e2b)" d="M 410.811457 33.690868 
L 414.109684 37.551485 
L 414.109684 37.551485 
" style="fill:none;stroke:#3200ff;stroke-linecap:square;stroke-width:2;"/>
   </g>
   <g id="line2d_97">
    <path clip-path="url(#p9f1b6a9e2b)" d="M 417.40791 41.763066 
L 420.706137 45.623683 
L 420.706137 45.623683 
" style="fill:none;stroke:#3200ff;stroke-linecap:square;stroke-width:2;"/>
   </g>
   <g id="line2d_98">
    <path clip-path="url(#p9f1b6a9e2b)" d="M 430.600817 58.609394 
L 433.899044 62.47001 
L 433.899044 62.47001 
" style="fill:none;stroke:#3200ff;stroke-linecap:square;stroke-width:2;"/>
   </g>
   <g id="line2d_99">
    <path clip-path="url(#p9f1b6a9e2b)" d="M 437.197271 66.681592 
L 440.495498 70.542209 
L 440.495498 70.542209 
" style="fill:none;stroke:#3200ff;stroke-linecap:square;stroke-width:2;"/>
   </g>
   <g id="line2d_100">
    <path clip-path="url(#p9f1b6a9e2b)" d="M 443.793724 73.700895 
L 447.091951 77.561512 
L 447.091951 77.561512 
" style="fill:none;stroke:#3200ff;stroke-linecap:square;stroke-width:2;"/>
   </g>
   <g id="line2d_101">
    <path clip-path="url(#p9f1b6a9e2b)" d="M 519.65294 35.445694 
L 522.951166 39.30631 
L 522.951166 39.30631 
" style="fill:none;stroke:#3200ff;stroke-linecap:square;stroke-width:2;"/>
   </g>
   <g id="line2d_102">
    <path clip-path="url(#p9f1b6a9e2b)" d="M 526.249393 42.464997 
L 529.54762 46.325613 
L 529.54762 46.325613 
" style="fill:none;stroke:#3200ff;stroke-linecap:square;stroke-width:2;"/>
   </g>
   <g id="line2d_103">
    <path clip-path="url(#p9f1b6a9e2b)" d="M 532.845846 49.4843 
L 539.4423 57.205533 
L 539.4423 57.205533 
" style="fill:none;stroke:#3200ff;stroke-linecap:square;stroke-width:2;"/>
   </g>
   <g id="line2d_104">
    <path clip-path="url(#p9f1b6a9e2b)" d="M 542.740527 61.417115 
L 546.038753 65.277732 
L 546.038753 65.277732 
" style="fill:none;stroke:#3200ff;stroke-linecap:square;stroke-width:2;"/>
   </g>
   <g id="line2d_105">
    <path clip-path="url(#p9f1b6a9e2b)" d="M 549.33698 69.489314 
L 552.635207 73.34993 
L 552.635207 73.34993 
" style="fill:none;stroke:#3200ff;stroke-linecap:square;stroke-width:2;"/>
   </g>
   <g id="line2d_106">
    <path clip-path="url(#p9f1b6a9e2b)" d="M 44.708288 49.4843 
L 48.006515 46.325613 
L 48.006515 46.325613 
" style="fill:none;stroke:#cc00ff;stroke-linecap:square;stroke-width:2;"/>
   </g>
   <g id="line2d_107">
    <path clip-path="url(#p9f1b6a9e2b)" d="M 51.304742 42.464997 
L 54.602968 39.30631 
L 54.602968 39.30631 
" style="fill:none;stroke:#cc00ff;stroke-linecap:square;stroke-width:2;"/>
   </g>
   <g id="line2d_108">
    <path clip-path="url(#p9f1b6a9e2b)" d="M 57.901195 35.445694 
L 64.497649 29.128321 
L 64.497649 29.128321 
" style="fill:none;stroke:#cc00ff;stroke-linecap:square;stroke-width:2;"/>
   </g>
   <g id="line2d_109">
    <path clip-path="url(#p9f1b6a9e2b)" d="M 67.795875 32.637972 
L 71.094102 29.479286 
L 71.094102 29.479286 
" style="fill:none;stroke:#cc00ff;stroke-linecap:square;stroke-width:2;"/>
   </g>
   <g id="line2d_110">
    <path clip-path="url(#p9f1b6a9e2b)" d="M 74.392329 32.988938 
L 77.690556 29.830251 
L 77.690556 29.830251 
" style="fill:none;stroke:#cc00ff;stroke-linecap:square;stroke-width:2;"/>
   </g>
   <g id="line2d_111">
    <path clip-path="url(#p9f1b6a9e2b)" d="M 120.567503 80.369233 
L 123.86573 77.210547 
L 123.86573 77.210547 
" style="fill:none;stroke:#cc00ff;stroke-linecap:square;stroke-width:2;"/>
   </g>
   <g id="line2d_112">
    <path clip-path="url(#p9f1b6a9e2b)" d="M 127.163957 80.720198 
L 130.462184 77.561512 
L 130.462184 77.561512 
" style="fill:none;stroke:#cc00ff;stroke-linecap:square;stroke-width:2;"/>
   </g>
   <g id="line2d_113">
    <path clip-path="url(#p9f1b6a9e2b)" d="M 133.76041 73.700895 
L 137.058637 70.542209 
L 137.058637 70.542209 
" style="fill:none;stroke:#cc00ff;stroke-linecap:square;stroke-width:2;"/>
   </g>
   <g id="line2d_114">
    <path clip-path="url(#p9f1b6a9e2b)" d="M 166.742678 33.690868 
L 170.040904 30.532182 
L 170.040904 30.532182 
" style="fill:none;stroke:#cc00ff;stroke-linecap:square;stroke-width:2;"/>
   </g>
   <g id="line2d_115">
    <path clip-path="url(#p9f1b6a9e2b)" d="M 173.339131 26.671565 
L 176.637358 23.512878 
L 176.637358 23.512878 
" style="fill:none;stroke:#cc00ff;stroke-linecap:square;stroke-width:2;"/>
   </g>
   <g id="line2d_116">
    <path clip-path="url(#p9f1b6a9e2b)" d="M 179.935585 27.02253 
L 183.233811 23.863844 
L 183.233811 23.863844 
" style="fill:none;stroke:#cc00ff;stroke-linecap:square;stroke-width:2;"/>
   </g>
   <g id="line2d_117">
    <path clip-path="url(#p9f1b6a9e2b)" d="M 226.110759 74.402826 
L 229.408986 71.244139 
L 229.408986 71.244139 
" style="fill:none;stroke:#cc00ff;stroke-linecap:square;stroke-width:2;"/>
   </g>
   <g id="line2d_118">
    <path clip-path="url(#p9f1b6a9e2b)" d="M 232.707213 74.753791 
L 236.005439 71.595104 
L 236.005439 71.595104 
" style="fill:none;stroke:#cc00ff;stroke-linecap:square;stroke-width:2;"/>
   </g>
   <g id="line2d_119">
    <path clip-path="url(#p9f1b6a9e2b)" d="M 239.303666 75.104756 
L 245.90012 68.787383 
L 245.90012 68.787383 
" style="fill:none;stroke:#cc00ff;stroke-linecap:square;stroke-width:2;"/>
   </g>
   <g id="line2d_120">
    <path clip-path="url(#p9f1b6a9e2b)" d="M 249.198346 64.926767 
L 252.496573 61.76808 
L 252.496573 61.76808 
" style="fill:none;stroke:#cc00ff;stroke-linecap:square;stroke-width:2;"/>
   </g>
   <g id="line2d_121">
    <path clip-path="url(#p9f1b6a9e2b)" d="M 255.7948 57.907463 
L 259.093027 54.748777 
L 259.093027 54.748777 
" style="fill:none;stroke:#cc00ff;stroke-linecap:square;stroke-width:2;"/>
   </g>
   <g id="line2d_122">
    <path clip-path="url(#p9f1b6a9e2b)" d="M 18.322474 81.773094 
L 24.918928 73.34993 
L 24.918928 73.34993 
" style="fill:none;stroke:#ff0098;stroke-linecap:square;stroke-width:2;"/>
   </g>
   <g id="line2d_123">
    <path clip-path="url(#p9f1b6a9e2b)" d="M 28.217154 69.489314 
L 31.515381 65.277732 
L 31.515381 65.277732 
" style="fill:none;stroke:#ff0098;stroke-linecap:square;stroke-width:2;"/>
   </g>
   <g id="line2d_124">
    <path clip-path="url(#p9f1b6a9e2b)" d="M 34.813608 61.417115 
L 38.111835 57.205533 
L 38.111835 57.205533 
" style="fill:none;stroke:#ff0098;stroke-linecap:square;stroke-width:2;"/>
   </g>
   <g id="line2d_125">
    <path clip-path="url(#p9f1b6a9e2b)" d="M 140.356864 66.681592 
L 143.65509 62.47001 
L 143.65509 62.47001 
" style="fill:none;stroke:#ff0098;stroke-linecap:square;stroke-width:2;"/>
   </g>
   <g id="line2d_126">
    <path clip-path="url(#p9f1b6a9e2b)" d="M 146.953317 58.609394 
L 150.251544 54.397812 
L 150.251544 54.397812 
" style="fill:none;stroke:#ff0098;stroke-linecap:square;stroke-width:2;"/>
   </g>
   <g id="line2d_127">
    <path clip-path="url(#p9f1b6a9e2b)" d="M 153.549771 49.835265 
L 156.847997 45.623683 
L 156.847997 45.623683 
" style="fill:none;stroke:#ff0098;stroke-linecap:square;stroke-width:2;"/>
   </g>
   <g id="line2d_128">
    <path clip-path="url(#p9f1b6a9e2b)" d="M 160.146224 41.763066 
L 163.444451 37.551485 
L 163.444451 37.551485 
" style="fill:none;stroke:#ff0098;stroke-linecap:square;stroke-width:2;"/>
   </g>
   <g id="line2d_129">
    <path clip-path="url(#p9f1b6a9e2b)" d="M 265.68948 47.027544 
L 268.987707 42.815962 
L 268.987707 42.815962 
" style="fill:none;stroke:#ff0098;stroke-linecap:square;stroke-width:2;"/>
   </g>
   <g id="line2d_130">
    <path clip-path="url(#p9f1b6a9e2b)" d="M 272.285934 38.955345 
L 275.58416 34.743763 
L 275.58416 34.743763 
" style="fill:none;stroke:#ff0098;stroke-linecap:square;stroke-width:2;"/>
   </g>
   <g id="line2d_131">
    <path clip-path="url(#p9f1b6a9e2b)" d="M 278.882387 30.883147 
L 285.478841 22.459983 
L 285.478841 22.459983 
" style="fill:none;stroke:#ff0098;stroke-linecap:square;stroke-width:2;"/>
   </g>
   <g id="line2d_132">
    <path clip-path="url(#p9f1b6a9e2b)" d="M 358.039829 67.383523 
L 361.338056 63.171941 
L 361.338056 63.171941 
" style="fill:none;stroke:#ff0098;stroke-linecap:square;stroke-width:2;"/>
   </g>
   <g id="line2d_133">
    <path clip-path="url(#p9f1b6a9e2b)" d="M 364.636282 59.662289 
L 367.934509 55.450707 
L 367.934509 55.450707 
" style="fill:none;stroke:#ff0098;stroke-linecap:square;stroke-width:2;"/>
   </g>
   <g id="line2d_134">
    <path clip-path="url(#p9f1b6a9e2b)" d="M 371.232736 51.941056 
L 384.425643 35.094729 
L 384.425643 35.094729 
" style="fill:none;stroke:#ff0098;stroke-linecap:square;stroke-width:2;"/>
   </g>
   <g id="line2d_135">
    <path clip-path="url(#p9f1b6a9e2b)" d="M 387.72387 31.585077 
L 391.022096 27.373495 
L 391.022096 27.373495 
" style="fill:none;stroke:#ff0098;stroke-linecap:square;stroke-width:2;"/>
   </g>
   <g id="line2d_136">
    <path clip-path="url(#p9f1b6a9e2b)" d="M 460.284858 76.859582 
L 463.583085 72.648 
L 463.583085 72.648 
" style="fill:none;stroke:#ff0098;stroke-linecap:square;stroke-width:2;"/>
   </g>
   <g id="line2d_137">
    <path clip-path="url(#p9f1b6a9e2b)" d="M 466.881312 69.138348 
L 480.074219 52.292021 
L 480.074219 52.292021 
" style="fill:none;stroke:#ff0098;stroke-linecap:square;stroke-width:2;"/>
   </g>
   <g id="line2d_138">
    <path clip-path="url(#p9f1b6a9e2b)" d="M 483.372445 48.78237 
L 486.670672 44.570788 
L 486.670672 44.570788 
" style="fill:none;stroke:#ff0098;stroke-linecap:square;stroke-width:2;"/>
   </g>
   <g id="line2d_139">
    <path clip-path="url(#p9f1b6a9e2b)" d="M 489.968899 41.061136 
L 493.267126 36.849554 
L 493.267126 36.849554 
" style="fill:none;stroke:#ff0098;stroke-linecap:square;stroke-width:2;"/>
   </g>
   <g id="matplotlib.axis_1">
    <g id="xtick_1">
     <g id="line2d_140">
      <path clip-path="url(#p9f1b6a9e2b)" d="M 15.024247 87.704405 
L 15.024247 16.528672 
" style="fill:none;stroke:#000000;stroke-dasharray:0.5,0.825;stroke-dashoffset:0;stroke-width:0.5;"/>
     </g>
     <g id="line2d_141">
      <defs>
       <path d="M 0 0 
L 0 3.5 
" id="mf48a767345" style="stroke:#000000;stroke-width:0.8;"/>
      </defs>
      <g>
       <use style="stroke:#000000;stroke-width:0.8;" x="15.024247" xlink:href="#mf48a767345" y="86.335641"/>
      </g>
     </g>
    </g>
    <g id="xtick_2">
     <g id="line2d_142">
      <path clip-path="url(#p9f1b6a9e2b)" d="M 288.777067 87.704405 
L 288.777067 16.528672 
" style="fill:none;stroke:#000000;stroke-dasharray:0.5,0.825;stroke-dashoffset:0;stroke-width:0.5;"/>
     </g>
     <g id="line2d_143">
      <g>
       <use style="stroke:#000000;stroke-width:0.8;" x="288.777067" xlink:href="#mf48a767345" y="86.335641"/>
      </g>
     </g>
     <g id="text_1">
      <!-- $f$ -->
      <defs>
       <path d="M 9.71875 -16.5 
Q 11.578125 -17.921875 14.203125 -17.921875 
Q 17.78125 -17.921875 20.015625 -10.015625 
Q 20.953125 -6.203125 25.09375 15.09375 
L 29.6875 39.59375 
L 21.09375 39.59375 
Q 20.125 39.59375 20.125 40.921875 
Q 20.515625 43.109375 21.390625 43.109375 
L 30.328125 43.109375 
L 31.5 49.609375 
Q 32.078125 52.640625 32.5625 54.8125 
Q 33.0625 56.984375 33.625 58.828125 
Q 34.1875 60.6875 35.296875 62.984375 
Q 37.015625 66.265625 39.921875 68.390625 
Q 42.828125 70.515625 46.1875 70.515625 
Q 48.390625 70.515625 50.46875 69.703125 
Q 52.546875 68.890625 53.859375 67.28125 
Q 55.171875 65.671875 55.171875 63.484375 
Q 55.171875 60.9375 53.484375 59.046875 
Q 51.8125 57.171875 49.421875 57.171875 
Q 47.796875 57.171875 46.65625 58.171875 
Q 45.515625 59.1875 45.515625 60.796875 
Q 45.515625 62.984375 47 64.625 
Q 48.484375 66.265625 50.6875 66.5 
Q 48.828125 67.921875 46.09375 67.921875 
Q 44.578125 67.921875 43.234375 66.5 
Q 41.890625 65.09375 41.5 63.484375 
Q 40.875 60.9375 38.71875 49.703125 
L 37.5 43.109375 
L 47.796875 43.109375 
Q 48.78125 43.109375 48.78125 41.796875 
Q 48.734375 41.546875 48.578125 40.9375 
Q 48.4375 40.328125 48.171875 39.953125 
Q 47.90625 39.59375 47.515625 39.59375 
L 36.8125 39.59375 
L 32.171875 15.1875 
Q 31.296875 9.859375 30.140625 4.359375 
Q 29 -1.125 26.921875 -6.90625 
Q 24.859375 -12.703125 21.625 -16.609375 
Q 18.40625 -20.515625 14.015625 -20.515625 
Q 10.640625 -20.515625 7.984375 -18.578125 
Q 5.328125 -16.65625 5.328125 -13.484375 
Q 5.328125 -10.9375 6.953125 -9.046875 
Q 8.59375 -7.171875 11.078125 -7.171875 
Q 12.75 -7.171875 13.859375 -8.171875 
Q 14.984375 -9.1875 14.984375 -10.796875 
Q 14.984375 -12.9375 13.390625 -14.71875 
Q 11.8125 -16.5 9.71875 -16.5 
z
" id="Cmmi10-66"/>
      </defs>
      <g transform="translate(286.327067 100.913766)scale(0.1 -0.1)">
       <use transform="translate(0 0.484375)" xlink:href="#Cmmi10-66"/>
      </g>
     </g>
    </g>
    <g id="xtick_3">
     <g id="line2d_144">
      <path clip-path="url(#p9f1b6a9e2b)" d="M 562.529887 87.704405 
L 562.529887 16.528672 
" style="fill:none;stroke:#000000;stroke-dasharray:0.5,0.825;stroke-dashoffset:0;stroke-width:0.5;"/>
     </g>
     <g id="line2d_145">
      <g>
       <use style="stroke:#000000;stroke-width:0.8;" x="562.529887" xlink:href="#mf48a767345" y="86.335641"/>
      </g>
     </g>
     <g id="text_2">
      <!-- $1$ -->
      <defs>
       <path d="M 9.28125 0 
L 9.28125 3.515625 
Q 21.78125 3.515625 21.78125 6.6875 
L 21.78125 59.1875 
Q 16.609375 56.6875 8.6875 56.6875 
L 8.6875 60.203125 
Q 20.953125 60.203125 27.203125 66.609375 
L 28.609375 66.609375 
Q 28.953125 66.609375 29.265625 66.328125 
Q 29.59375 66.0625 29.59375 65.71875 
L 29.59375 6.6875 
Q 29.59375 3.515625 42.09375 3.515625 
L 42.09375 0 
z
" id="Cmr10-31"/>
      </defs>
      <g transform="translate(560.029887 100.934078)scale(0.1 -0.1)">
       <use transform="translate(0 0.390625)" xlink:href="#Cmr10-31"/>
      </g>
     </g>
    </g>
   </g>
   <g id="matplotlib.axis_2">
    <g id="ytick_1">
     <g id="line2d_146">
      <path clip-path="url(#p9f1b6a9e2b)" d="M 4.074135 86.335641 
L 573.48 86.335641 
" style="fill:none;stroke:#000000;stroke-dasharray:0.5,0.825;stroke-dashoffset:0;stroke-width:0.5;"/>
     </g>
     <g id="line2d_147">
      <defs>
       <path d="M 0 0 
L -3.5 0 
" id="mddb3d4fffc" style="stroke:#000000;stroke-width:0.8;"/>
      </defs>
      <g>
       <use style="stroke:#000000;stroke-width:0.8;" x="15.024247" xlink:href="#mddb3d4fffc" y="86.335641"/>
      </g>
     </g>
    </g>
    <g id="ytick_2">
     <g id="line2d_148">
      <path clip-path="url(#p9f1b6a9e2b)" d="M 4.074135 17.897436 
L 573.48 17.897436 
" style="fill:none;stroke:#000000;stroke-dasharray:0.5,0.825;stroke-dashoffset:0;stroke-width:0.5;"/>
     </g>
     <g id="line2d_149">
      <g>
       <use style="stroke:#000000;stroke-width:0.8;" x="15.024247" xlink:href="#mddb3d4fffc" y="17.897436"/>
      </g>
     </g>
     <g id="text_3">
      <!-- $1$ -->
      <g transform="translate(3.024247 21.696655)scale(0.1 -0.1)">
       <use transform="translate(0 0.390625)" xlink:href="#Cmr10-31"/>
      </g>
     </g>
    </g>
   </g>
   <g id="patch_3">
    <path d="M 15.024247 87.704405 
L 15.024247 16.528672 
" style="fill:none;stroke:#000000;stroke-linecap:square;stroke-linejoin:miter;stroke-width:0.8;"/>
   </g>
   <g id="patch_4">
    <path d="M 4.074135 86.335641 
L 573.48 86.335641 
" style="fill:none;stroke:#000000;stroke-linecap:square;stroke-linejoin:miter;stroke-width:0.8;"/>
   </g>
  </g>
 </g>
 <defs>
  <clipPath id="p9f1b6a9e2b">
   <rect height="71.175733" width="569.405865" x="4.074135" y="16.528672"/>
  </clipPath>
 </defs>
</svg>
