<?xml version="1.0" encoding="utf-8" standalone="no"?>
<!DOCTYPE svg PUBLIC "-//W3C//DTD SVG 1.1//EN"
  "http://www.w3.org/Graphics/SVG/1.1/DTD/svg11.dtd">
<!-- Created with matplotlib (http://matplotlib.org/) -->
<svg height="108pt" version="1.1" viewBox="0 0 576 108" width="576pt" xmlns="http://www.w3.org/2000/svg" xmlns:xlink="http://www.w3.org/1999/xlink">
 <defs>
  <style type="text/css">
*{stroke-linecap:butt;stroke-linejoin:round;}
  </style>
 </defs>
 <g id="figure_1">
  <g id="patch_1">
   <path d="M 0 108 
L 576 108 
L 576 0 
L 0 0 
z
" style="fill:#ffffff;"/>
  </g>
  <g id="axes_1">
   <g id="patch_2">
    <path d="M 4.074135 87.704405 
L 573.48 87.704405 
L 573.48 16.528672 
L 4.074135 16.528672 
z
" style="fill:#ffffff;"/>
   </g>
   <g id="line2d_1">
    <path clip-path="url(#p35bc44c9bc)" d="M 156.970154 17.897436 
L 238.082101 66.781868 
L 238.082101 66.781868 
" style="fill:none;stroke:#ff0000;stroke-linecap:square;stroke-width:2;"/>
   </g>
   <g id="line2d_2">
    <path clip-path="url(#p35bc44c9bc)" d="M 319.194047 27.674322 
L 400.305994 76.558755 
L 400.305994 76.558755 
" style="fill:none;stroke:#ff0000;stroke-linecap:square;stroke-width:2;"/>
   </g>
   <g id="line2d_3">
    <path clip-path="url(#p35bc44c9bc)" d="M 481.417941 37.451209 
L 482.027875 37.818803 
L 482.252623 37.954254 
L 482.471955 38.086441 
L 483.249599 38.55511 
L 483.61865 38.777529 
L 483.965684 38.986679 
L 484.367854 39.229059 
L 484.739726 39.453178 
L 484.939076 39.573321 
L 485.455704 39.884682 
L 485.808671 40.097408 
L 486.265931 40.372989 
L 486.6117 40.581376 
L 487.283049 40.985984 
L 487.654943 41.210116 
L 487.996331 41.415864 
L 488.233637 41.558883 
L 488.866655 41.940389 
L 489.192919 42.137022 
L 489.484433 42.312711 
L 489.872855 42.546804 
L 490.585978 42.976589 
L 490.839958 43.129657 
L 491.374594 43.45187 
L 491.522799 43.541191 
L 492.028732 43.846105 
L 492.294098 44.006036 
L 492.892439 44.366643 
L 493.317043 44.622543 
L 493.732716 44.87306 
L 494.063209 45.072241 
L 494.323318 45.229003 
L 494.69291 45.451749 
L 495.077918 45.683784 
L 495.851754 46.150159 
L 496.050907 46.270184 
L 496.683034 46.651154 
L 496.94684 46.810144 
L 497.187614 46.955253 
L 497.635802 47.225367 
L 498.047336 47.473389 
L 498.677674 47.85328 
L 498.989078 48.040957 
L 499.496322 48.346662 
L 499.889376 48.583547 
L 500.079107 48.697894 
L 500.586815 49.003879 
L 501.132393 49.332687 
L 501.541311 49.579133 
L 501.727004 49.691046 
L 502.400431 50.096906 
L 502.507092 50.161188 
L 502.912184 50.405329 
L 503.243853 50.605218 
L 503.941605 51.025739 
L 504.393648 51.298175 
L 504.471551 51.345126 
L 505.24462 51.811038 
L 505.265573 51.823666 
L 505.67216 52.068707 
L 506.128204 52.343555 
L 506.591065 52.622511 
L 507.261018 53.026278 
L 507.320629 53.062204 
L 507.946738 53.439547 
L 508.441928 53.737987 
L 508.643898 53.85971 
L 509.188096 54.187687 
L 509.617818 54.446671 
L 510.141851 54.762494 
L 510.288802 54.851058 
L 510.944713 55.246362 
L 511.234174 55.420814 
L 511.437787 55.543527 
L 512.062801 55.92021 
L 512.264599 56.041829 
L 512.791316 56.35927 
L 513.223749 56.619888 
L 513.455493 56.759555 
L 514.068186 57.128812 
L 514.362349 57.306098 
L 514.667861 57.490223 
L 515.175237 57.796008 
L 515.601717 58.053038 
L 516.146553 58.3814 
L 516.569835 58.636502 
L 516.798917 58.774565 
L 517.275373 59.061715 
L 517.497484 59.195577 
L 517.980098 59.486438 
L 518.496404 59.797604 
L 518.827259 59.997004 
L 519.214071 60.230127 
L 519.780868 60.571723 
L 520.262688 60.862106 
L 520.448095 60.973846 
L 521.02758 61.32309 
L 521.36153 61.524354 
L 521.953152 61.880912 
L 522.17402 62.014025 
L 522.719319 62.342664 
L 522.801825 62.392389 
" style="fill:none;stroke:#ff0000;stroke-linecap:square;stroke-width:2;"/>
   </g>
   <g id="line2d_4">
    <path clip-path="url(#p35bc44c9bc)" d="M 524.267729 63.275858 
L 524.802797 63.598332 
L 525.18507 63.82872 
L 525.38954 63.951949 
L 525.923838 64.273959 
L 526.082605 64.369645 
L 526.669337 64.723256 
L 527.171572 65.025942 
L 527.648936 65.313639 
L 527.816168 65.414426 
L 528.228334 65.66283 
L 528.642591 65.912494 
L 529.241063 66.27318 
L 529.678057 66.536547 
L 530.035457 66.751944 
L 530.262436 66.88874 
L 530.550998 67.06265 
L 531.030781 67.351805 
L 531.598859 67.694173 
L 531.848201 67.844446 
L 532.337433 68.139296 
L 532.607077 68.301804 
L 533.362384 68.757012 
L 533.577462 68.886635 
L 533.988209 69.134183 
L 534.470591 69.424904 
L 534.635301 69.524172 
L 535.021448 69.756894 
L 535.644638 70.132478 
L 535.955481 70.319816 
L 536.495334 70.645174 
L 537.033257 70.969368 
L 537.232282 71.089316 
L 537.834964 71.45254 
L 537.960374 71.528122 
L 538.65558 71.947108 
L 539.037989 72.177578 
L 539.404101 72.398225 
L 539.503945 72.458399 
L 540.128299 72.834684 
L 540.446656 73.026551 
L 540.82005 73.251587 
L 541.475419 73.646564 
L 541.616211 73.731417 
L 542.10739 74.02744 
L 542.372394 74.187152 
L 542.799789 74.444733 
L 543.304361 74.748829 
L 543.978088 75.154869 
L 544.109087 75.233819 
L 544.570303 75.511784 
L 544.884929 75.701403 
L 545.217127 75.901611 
L 545.626532 76.148351 
L 546.116546 76.443672 
L 546.802702 76.857204 
L 547.192655 77.09222 
L 547.370458 77.199378 
L 547.808088 77.463128 
L 548.356903 77.793887 
L 548.646327 77.968317 
L 548.965119 78.160446 
L 549.559095 78.518422 
L 549.952086 78.75527 
L 550.387964 79.017964 
L 550.613124 79.153663 
L 551.237362 79.529878 
L 551.586452 79.740267 
L 551.923946 79.943667 
L 552.149159 80.079399 
L 552.638414 80.374262 
L 553.195948 80.710276 
L 553.443968 80.859752 
L 553.825808 81.089879 
L 554.379343 81.423483 
L 554.64377 81.582847 
L 555.323799 81.992686 
L 555.748546 82.248672 
L 556.008125 82.405114 
L 556.419609 82.653107 
L 557.024405 83.017605 
L 557.326207 83.199494 
L 557.70149 83.42567 
L 558.245714 83.753661 
L 558.521854 83.920085 
L 558.968972 84.189554 
L 559.111675 84.275558 
L 559.757999 84.665083 
L 559.899601 84.750424 
L 560.410768 85.058493 
L 560.909577 85.359115 
L 561.140428 85.498243 
L 561.786659 85.887713 
L 562.154686 86.109515 
L 562.529887 86.335641 
" style="fill:none;stroke:#ff0000;stroke-linecap:square;stroke-width:2;"/>
   </g>
   <g id="line2d_5">
    <path clip-path="url(#p35bc44c9bc)" d="M 15.024247 86.335641 
L 156.970154 17.897436 
L 156.970154 17.897436 
" style="fill:none;stroke:#00ffff;stroke-linecap:square;stroke-width:2;"/>
   </g>
   <g id="line2d_6">
    <path clip-path="url(#p35bc44c9bc)" d="M 238.082101 66.781868 
L 319.194047 27.674322 
L 319.194047 27.674322 
" style="fill:none;stroke:#00ffff;stroke-linecap:square;stroke-width:2;"/>
   </g>
   <g id="line2d_7">
    <path clip-path="url(#p35bc44c9bc)" d="M 400.305994 76.558755 
L 481.417941 37.451209 
L 481.417941 37.451209 
" style="fill:none;stroke:#00ffff;stroke-linecap:square;stroke-width:2;"/>
   </g>
   <g id="matplotlib.axis_1">
    <g id="xtick_1">
     <g id="line2d_8">
      <path clip-path="url(#p35bc44c9bc)" d="M 15.024247 87.704405 
L 15.024247 16.528672 
" style="fill:none;stroke:#000000;stroke-dasharray:0.5,0.825;stroke-dashoffset:0;stroke-width:0.5;"/>
     </g>
     <g id="line2d_9">
      <defs>
       <path d="M 0 0 
L 0 3.5 
" id="m19e73d6389" style="stroke:#000000;stroke-width:0.8;"/>
      </defs>
      <g>
       <use style="stroke:#000000;stroke-width:0.8;" x="15.024247" xlink:href="#m19e73d6389" y="86.335641"/>
      </g>
     </g>
    </g>
    <g id="xtick_2">
     <g id="line2d_10">
      <path clip-path="url(#p35bc44c9bc)" d="M 156.970154 87.704405 
L 156.970154 16.528672 
" style="fill:none;stroke:#000000;stroke-dasharray:0.5,0.825;stroke-dashoffset:0;stroke-width:0.5;"/>
     </g>
     <g id="line2d_11">
      <g>
       <use style="stroke:#000000;stroke-width:0.8;" x="156.970154" xlink:href="#m19e73d6389" y="86.335641"/>
      </g>
     </g>
     <g id="text_1">
      <!-- $f$ -->
      <defs>
       <path d="M 9.71875 -16.5 
Q 11.578125 -17.921875 14.203125 -17.921875 
Q 17.78125 -17.921875 20.015625 -10.015625 
Q 20.953125 -6.203125 25.09375 15.09375 
L 29.6875 39.59375 
L 21.09375 39.59375 
Q 20.125 39.59375 20.125 40.921875 
Q 20.515625 43.109375 21.390625 43.109375 
L 30.328125 43.109375 
L 31.5 49.609375 
Q 32.078125 52.640625 32.5625 54.8125 
Q 33.0625 56.984375 33.625 58.828125 
Q 34.1875 60.6875 35.296875 62.984375 
Q 37.015625 66.265625 39.921875 68.390625 
Q 42.828125 70.515625 46.1875 70.515625 
Q 48.390625 70.515625 50.46875 69.703125 
Q 52.546875 68.890625 53.859375 67.28125 
Q 55.171875 65.671875 55.171875 63.484375 
Q 55.171875 60.9375 53.484375 59.046875 
Q 51.8125 57.171875 49.421875 57.171875 
Q 47.796875 57.171875 46.65625 58.171875 
Q 45.515625 59.1875 45.515625 60.796875 
Q 45.515625 62.984375 47 64.625 
Q 48.484375 66.265625 50.6875 66.5 
Q 48.828125 67.921875 46.09375 67.921875 
Q 44.578125 67.921875 43.234375 66.5 
Q 41.890625 65.09375 41.5 63.484375 
Q 40.875 60.9375 38.71875 49.703125 
L 37.5 43.109375 
L 47.796875 43.109375 
Q 48.78125 43.109375 48.78125 41.796875 
Q 48.734375 41.546875 48.578125 40.9375 
Q 48.4375 40.328125 48.171875 39.953125 
Q 47.90625 39.59375 47.515625 39.59375 
L 36.8125 39.59375 
L 32.171875 15.1875 
Q 31.296875 9.859375 30.140625 4.359375 
Q 29 -1.125 26.921875 -6.90625 
Q 24.859375 -12.703125 21.625 -16.609375 
Q 18.40625 -20.515625 14.015625 -20.515625 
Q 10.640625 -20.515625 7.984375 -18.578125 
Q 5.328125 -16.65625 5.328125 -13.484375 
Q 5.328125 -10.9375 6.953125 -9.046875 
Q 8.59375 -7.171875 11.078125 -7.171875 
Q 12.75 -7.171875 13.859375 -8.171875 
Q 14.984375 -9.1875 14.984375 -10.796875 
Q 14.984375 -12.9375 13.390625 -14.71875 
Q 11.8125 -16.5 9.71875 -16.5 
z
" id="Cmmi10-66"/>
      </defs>
      <g transform="translate(154.520154 100.913766)scale(0.1 -0.1)">
       <use transform="translate(0 0.484375)" xlink:href="#Cmmi10-66"/>
      </g>
     </g>
    </g>
    <g id="xtick_3">
     <g id="line2d_12">
      <path clip-path="url(#p35bc44c9bc)" d="M 562.529887 87.704405 
L 562.529887 16.528672 
" style="fill:none;stroke:#000000;stroke-dasharray:0.5,0.825;stroke-dashoffset:0;stroke-width:0.5;"/>
     </g>
     <g id="line2d_13">
      <g>
       <use style="stroke:#000000;stroke-width:0.8;" x="562.529887" xlink:href="#m19e73d6389" y="86.335641"/>
      </g>
     </g>
     <g id="text_2">
      <!-- $1$ -->
      <defs>
       <path d="M 9.28125 0 
L 9.28125 3.515625 
Q 21.78125 3.515625 21.78125 6.6875 
L 21.78125 59.1875 
Q 16.609375 56.6875 8.6875 56.6875 
L 8.6875 60.203125 
Q 20.953125 60.203125 27.203125 66.609375 
L 28.609375 66.609375 
Q 28.953125 66.609375 29.265625 66.328125 
Q 29.59375 66.0625 29.59375 65.71875 
L 29.59375 6.6875 
Q 29.59375 3.515625 42.09375 3.515625 
L 42.09375 0 
z
" id="Cmr10-31"/>
      </defs>
      <g transform="translate(560.029887 100.934078)scale(0.1 -0.1)">
       <use transform="translate(0 0.390625)" xlink:href="#Cmr10-31"/>
      </g>
     </g>
    </g>
   </g>
   <g id="matplotlib.axis_2">
    <g id="ytick_1">
     <g id="line2d_14">
      <path clip-path="url(#p35bc44c9bc)" d="M 4.074135 86.335641 
L 573.48 86.335641 
" style="fill:none;stroke:#000000;stroke-dasharray:0.5,0.825;stroke-dashoffset:0;stroke-width:0.5;"/>
     </g>
     <g id="line2d_15">
      <defs>
       <path d="M 0 0 
L -3.5 0 
" id="m658e2547db" style="stroke:#000000;stroke-width:0.8;"/>
      </defs>
      <g>
       <use style="stroke:#000000;stroke-width:0.8;" x="15.024247" xlink:href="#m658e2547db" y="86.335641"/>
      </g>
     </g>
    </g>
    <g id="ytick_2">
     <g id="line2d_16">
      <path clip-path="url(#p35bc44c9bc)" d="M 4.074135 17.897436 
L 573.48 17.897436 
" style="fill:none;stroke:#000000;stroke-dasharray:0.5,0.825;stroke-dashoffset:0;stroke-width:0.5;"/>
     </g>
     <g id="line2d_17">
      <g>
       <use style="stroke:#000000;stroke-width:0.8;" x="15.024247" xlink:href="#m658e2547db" y="17.897436"/>
      </g>
     </g>
     <g id="text_3">
      <!-- $1$ -->
      <g transform="translate(3.024247 21.696655)scale(0.1 -0.1)">
       <use transform="translate(0 0.390625)" xlink:href="#Cmr10-31"/>
      </g>
     </g>
    </g>
   </g>
   <g id="patch_3">
    <path d="M 15.024247 87.704405 
L 15.024247 16.528672 
" style="fill:none;stroke:#000000;stroke-linecap:square;stroke-linejoin:miter;stroke-width:0.8;"/>
   </g>
   <g id="patch_4">
    <path d="M 4.074135 86.335641 
L 573.48 86.335641 
" style="fill:none;stroke:#000000;stroke-linecap:square;stroke-linejoin:miter;stroke-width:0.8;"/>
   </g>
  </g>
 </g>
 <defs>
  <clipPath id="p35bc44c9bc">
   <rect height="71.175733" width="569.405865" x="4.074135" y="16.528672"/>
  </clipPath>
 </defs>
</svg>
