<?xml version="1.0" encoding="utf-8" standalone="no"?>
<!DOCTYPE svg PUBLIC "-//W3C//DTD SVG 1.1//EN"
  "http://www.w3.org/Graphics/SVG/1.1/DTD/svg11.dtd">
<!-- Created with matplotlib (http://matplotlib.org/) -->
<svg height="108pt" version="1.1" viewBox="0 0 576 108" width="576pt" xmlns="http://www.w3.org/2000/svg" xmlns:xlink="http://www.w3.org/1999/xlink">
 <defs>
  <style type="text/css">
*{stroke-linecap:butt;stroke-linejoin:round;}
  </style>
 </defs>
 <g id="figure_1">
  <g id="patch_1">
   <path d="M 0 108 
L 576 108 
L 576 0 
L 0 0 
z
" style="fill:#ffffff;"/>
  </g>
  <g id="axes_1">
   <g id="patch_2">
    <path d="M 4.074135 87.704405 
L 573.48 87.704405 
L 573.48 16.528672 
L 4.074135 16.528672 
z
" style="fill:#ffffff;"/>
   </g>
   <g id="line2d_1">
    <path clip-path="url(#p7f0f0fa66a)" d="M 263.890447 17.897436 
L 288.777067 64.193869 
L 288.777067 64.193869 
" style="fill:none;stroke:#ff0000;stroke-linecap:square;stroke-width:2;"/>
   </g>
   <g id="line2d_2">
    <path clip-path="url(#p7f0f0fa66a)" d="M 537.643267 40.039208 
L 562.529887 86.335641 
L 562.529887 86.335641 
" style="fill:none;stroke:#ff0000;stroke-linecap:square;stroke-width:2;"/>
   </g>
   <g id="line2d_3">
    <path clip-path="url(#p7f0f0fa66a)" d="M 64.797487 46.077873 
L 89.684107 70.232534 
L 89.684107 70.232534 
" style="fill:none;stroke:#cbff00;stroke-linecap:square;stroke-width:2;"/>
   </g>
   <g id="line2d_4">
    <path clip-path="url(#p7f0f0fa66a)" d="M 189.230587 34.000543 
L 214.117207 58.155204 
L 214.117207 58.155204 
" style="fill:none;stroke:#cbff00;stroke-linecap:square;stroke-width:2;"/>
   </g>
   <g id="line2d_5">
    <path clip-path="url(#p7f0f0fa66a)" d="M 363.436927 48.090762 
L 388.323547 72.245422 
L 388.323547 72.245422 
" style="fill:none;stroke:#cbff00;stroke-linecap:square;stroke-width:2;"/>
   </g>
   <g id="line2d_6">
    <path clip-path="url(#p7f0f0fa66a)" d="M 438.096787 31.987655 
L 438.217258 32.104583 
L 438.358544 32.241713 
L 438.513289 32.391906 
L 438.591178 32.467504 
L 438.761458 32.632776 
L 438.866641 32.734865 
L 438.990569 32.855149 
L 439.083677 32.945519 
L 439.242562 33.09973 
L 439.366288 33.219817 
L 439.420969 33.27289 
L 439.624362 33.470301 
L 439.774552 33.616074 
L 439.831487 33.671334 
L 439.99433 33.829387 
L 440.125374 33.956577 
L 440.272435 34.099313 
L 440.342329 34.167151 
L 440.518459 34.3381 
L 440.545747 34.364586 
L 440.663595 34.478968 
L 440.882665 34.691595 
L 440.949635 34.756595 
L 441.149121 34.950214 
L 441.221269 35.02024 
L 441.372848 35.16736 
L 441.46983 35.26149 
L 441.61813 35.405428 
L 441.671018 35.456761 
L 441.832412 35.613408 
L 441.995059 35.771272 
L 442.126158 35.898514 
L 442.180582 35.951338 
L 442.353004 36.118689 
L 442.488624 36.250319 
L 442.563631 36.32312 
L 442.762233 36.515882 
L 442.871636 36.622067 
L 443.018288 36.764405 
L 443.115539 36.858796 
L 443.267578 37.006364 
L 443.360047 37.096113 
L 443.486039 37.218399 
L 443.61452 37.343101 
L 443.68175 37.408354 
L 443.805864 37.528817 
L 443.971032 37.689128 
L 444.159525 37.872077 
L 444.208458 37.919571 
L 444.352531 38.059406 
L 444.416823 38.121807 
L 444.636615 38.335135 
L 444.750039 38.445223 
L 444.788005 38.482072 
L 444.957516 38.646597 
L 445.047685 38.734115 
L 445.283195 38.962697 
L 445.315533 38.994084 
L 445.456824 39.13122 
L 445.638737 39.307783 
L 445.685284 39.35296 
L 445.813757 39.477654 
L 445.926083 39.586677 
L 446.097629 39.753177 
L 446.223159 39.875015 
L 446.37972 40.026972 
L 446.526976 40.169897 
L 446.62676 40.266746 
L 446.786327 40.42162 
L 446.794413 40.429468 
L 447.035909 40.663861 
L 447.116596 40.742175 
L 447.276722 40.897592 
L 447.394072 41.01149 
L 447.532005 41.145366 
L 447.647001 41.25698 
L 447.670969 41.280242 
L 447.792975 41.398661 
L 447.929048 41.530731 
L 448.080616 41.677841 
L 448.186372 41.780487 
L 448.328299 41.918239 
L 448.448424 42.034832 
L 448.622892 42.204168 
L 448.673743 42.253523 
L 448.79676 42.372922 
L 448.919697 42.492244 
L 449.107735 42.674751 
L 449.254823 42.817513 
L 449.357529 42.917198 
L 449.538154 43.092511 
L 449.643579 43.194835 
L 449.708453 43.257801 
L 449.837982 43.38352 
L 449.990251 43.531311 
L 450.118917 43.656192 
L 450.277406 43.81002 
L 450.405125 43.933982 
L 450.459622 43.986876 
L 450.664903 44.18612 
L 450.666036 44.18722 
L 450.8585 44.374023 
L 450.962147 44.474621 
L 451.092372 44.601016 
L 451.176497 44.682667 
L 451.363733 44.864396 
L 451.535154 45.030775 
L 451.622022 45.115088 
L 451.766053 45.254883 
" style="fill:none;stroke:#cbff00;stroke-linecap:square;stroke-width:2;"/>
   </g>
   <g id="line2d_7">
    <path clip-path="url(#p7f0f0fa66a)" d="M 452.052015 45.532434 
L 452.181906 45.658505 
L 452.393612 45.863985 
L 452.439937 45.908947 
L 452.544124 46.01007 
L 452.74041 46.200583 
L 452.885822 46.341718 
L 452.955273 46.409127 
L 453.047447 46.49859 
L 453.224754 46.670681 
L 453.299667 46.743391 
L 453.432711 46.872522 
L 453.604779 47.039529 
L 453.704982 47.136785 
L 453.811473 47.240143 
L 453.999932 47.42306 
L 454.150525 47.569223 
L 454.253412 47.669085 
L 454.415458 47.826365 
L 454.53969 47.946942 
L 454.653346 48.057256 
L 454.744065 48.145306 
L 454.883088 48.280241 
L 454.922032 48.318039 
L 455.096419 48.487297 
L 455.234607 48.621421 
L 455.382399 48.764866 
L 455.476725 48.856418 
L 455.55062 48.92814 
L 455.724529 49.096933 
L 455.877579 49.245482 
L 455.988339 49.352984 
L 456.162801 49.522316 
L 456.252887 49.609752 
L 456.361456 49.715127 
L 456.424966 49.776769 
L 456.566375 49.914019 
L 456.673975 50.018455 
L 456.799527 50.140314 
L 457.022399 50.356631 
L 457.086369 50.418719 
L 457.209405 50.538137 
L 457.397062 50.720274 
L 457.432853 50.755012 
L 457.625978 50.942457 
L 457.72712 51.040625 
L 457.82563 51.136238 
L 458.029339 51.333955 
L 458.096121 51.398773 
L 458.24868 51.546845 
L 458.343861 51.639226 
L 458.535465 51.825194 
L 458.553187 51.842396 
L 458.671061 51.956803 
L 458.873852 52.153629 
L 458.93439 52.212387 
L 459.127176 52.399503 
L 459.249289 52.518024 
L 459.38485 52.649598 
L 459.488471 52.750171 
L 459.552766 52.812575 
L 459.787482 53.040388 
L 459.858226 53.109051 
L 459.959809 53.207646 
L 460.087515 53.331597 
L 460.188145 53.429266 
L 460.385916 53.62122 
L 460.476932 53.70956 
L 460.580204 53.809794 
L 460.740668 53.965539 
L 460.876756 54.097625 
L 460.97194 54.190009 
L 461.166512 54.378858 
L 461.198673 54.410074 
L 461.325984 54.53364 
L 461.477653 54.680848 
L 461.615548 54.814687 
L 461.710882 54.907217 
L 461.81127 55.004653 
L 462.022146 55.209326 
L 462.146817 55.330331 
L 462.196208 55.378269 
L 462.394594 55.57082 
L 462.470098 55.644103 
L 462.586701 55.757277 
L 462.794165 55.958639 
L 462.861084 56.02359 
L 462.983407 56.142315 
" style="fill:none;stroke:#cbff00;stroke-linecap:square;stroke-width:2;"/>
   </g>
   <g id="line2d_8">
    <path clip-path="url(#p7f0f0fa66a)" d="M 39.910867 44.064985 
L 64.797487 46.077873 
L 64.797487 46.077873 
" style="fill:none;stroke:#00ff66;stroke-linecap:square;stroke-width:2;"/>
   </g>
   <g id="line2d_9">
    <path clip-path="url(#p7f0f0fa66a)" d="M 114.570727 50.10365 
L 164.343967 54.129427 
L 164.343967 54.129427 
" style="fill:none;stroke:#00ff66;stroke-linecap:square;stroke-width:2;"/>
   </g>
   <g id="line2d_10">
    <path clip-path="url(#p7f0f0fa66a)" d="M 214.117207 58.155204 
L 239.003827 60.168092 
L 239.003827 60.168092 
" style="fill:none;stroke:#00ff66;stroke-linecap:square;stroke-width:2;"/>
   </g>
   <g id="line2d_11">
    <path clip-path="url(#p7f0f0fa66a)" d="M 288.777067 64.193869 
L 338.550307 68.219646 
L 338.550307 68.219646 
" style="fill:none;stroke:#00ff66;stroke-linecap:square;stroke-width:2;"/>
   </g>
   <g id="line2d_12">
    <path clip-path="url(#p7f0f0fa66a)" d="M 487.870027 36.013431 
L 537.643267 40.039208 
L 537.643267 40.039208 
" style="fill:none;stroke:#00ff66;stroke-linecap:square;stroke-width:2;"/>
   </g>
   <g id="line2d_13">
    <path clip-path="url(#p7f0f0fa66a)" d="M 89.684107 70.232534 
L 114.570727 50.10365 
L 114.570727 50.10365 
" style="fill:none;stroke:#0066ff;stroke-linecap:square;stroke-width:2;"/>
   </g>
   <g id="line2d_14">
    <path clip-path="url(#p7f0f0fa66a)" d="M 164.343967 54.129427 
L 189.230587 34.000543 
L 189.230587 34.000543 
" style="fill:none;stroke:#0066ff;stroke-linecap:square;stroke-width:2;"/>
   </g>
   <g id="line2d_15">
    <path clip-path="url(#p7f0f0fa66a)" d="M 338.550307 68.219646 
L 363.436927 48.090762 
L 363.436927 48.090762 
" style="fill:none;stroke:#0066ff;stroke-linecap:square;stroke-width:2;"/>
   </g>
   <g id="line2d_16">
    <path clip-path="url(#p7f0f0fa66a)" d="M 388.323547 72.245422 
L 438.096787 31.987655 
L 438.096787 31.987655 
" style="fill:none;stroke:#0066ff;stroke-linecap:square;stroke-width:2;"/>
   </g>
   <g id="line2d_17">
    <path clip-path="url(#p7f0f0fa66a)" d="M 462.983407 56.142315 
L 487.870027 36.013431 
L 487.870027 36.013431 
" style="fill:none;stroke:#0066ff;stroke-linecap:square;stroke-width:2;"/>
   </g>
   <g id="line2d_18">
    <path clip-path="url(#p7f0f0fa66a)" d="M 15.024247 86.335641 
L 39.910867 44.064985 
L 39.910867 44.064985 
" style="fill:none;stroke:#cc00ff;stroke-linecap:square;stroke-width:2;"/>
   </g>
   <g id="line2d_19">
    <path clip-path="url(#p7f0f0fa66a)" d="M 239.003827 60.168092 
L 263.890447 17.897436 
L 263.890447 17.897436 
" style="fill:none;stroke:#cc00ff;stroke-linecap:square;stroke-width:2;"/>
   </g>
   <g id="matplotlib.axis_1">
    <g id="xtick_1">
     <g id="line2d_20">
      <path clip-path="url(#p7f0f0fa66a)" d="M 15.024247 87.704405 
L 15.024247 16.528672 
" style="fill:none;stroke:#000000;stroke-dasharray:0.5,0.825;stroke-dashoffset:0;stroke-width:0.5;"/>
     </g>
     <g id="line2d_21">
      <defs>
       <path d="M 0 0 
L 0 3.5 
" id="m048008fcfc" style="stroke:#000000;stroke-width:0.8;"/>
      </defs>
      <g>
       <use style="stroke:#000000;stroke-width:0.8;" x="15.024247" xlink:href="#m048008fcfc" y="86.335641"/>
      </g>
     </g>
    </g>
    <g id="xtick_2">
     <g id="line2d_22">
      <path clip-path="url(#p7f0f0fa66a)" d="M 263.890447 87.704405 
L 263.890447 16.528672 
" style="fill:none;stroke:#000000;stroke-dasharray:0.5,0.825;stroke-dashoffset:0;stroke-width:0.5;"/>
     </g>
     <g id="line2d_23">
      <g>
       <use style="stroke:#000000;stroke-width:0.8;" x="263.890447" xlink:href="#m048008fcfc" y="86.335641"/>
      </g>
     </g>
     <g id="text_1">
      <!-- $f$ -->
      <defs>
       <path d="M 9.71875 -16.5 
Q 11.578125 -17.921875 14.203125 -17.921875 
Q 17.78125 -17.921875 20.015625 -10.015625 
Q 20.953125 -6.203125 25.09375 15.09375 
L 29.6875 39.59375 
L 21.09375 39.59375 
Q 20.125 39.59375 20.125 40.921875 
Q 20.515625 43.109375 21.390625 43.109375 
L 30.328125 43.109375 
L 31.5 49.609375 
Q 32.078125 52.640625 32.5625 54.8125 
Q 33.0625 56.984375 33.625 58.828125 
Q 34.1875 60.6875 35.296875 62.984375 
Q 37.015625 66.265625 39.921875 68.390625 
Q 42.828125 70.515625 46.1875 70.515625 
Q 48.390625 70.515625 50.46875 69.703125 
Q 52.546875 68.890625 53.859375 67.28125 
Q 55.171875 65.671875 55.171875 63.484375 
Q 55.171875 60.9375 53.484375 59.046875 
Q 51.8125 57.171875 49.421875 57.171875 
Q 47.796875 57.171875 46.65625 58.171875 
Q 45.515625 59.1875 45.515625 60.796875 
Q 45.515625 62.984375 47 64.625 
Q 48.484375 66.265625 50.6875 66.5 
Q 48.828125 67.921875 46.09375 67.921875 
Q 44.578125 67.921875 43.234375 66.5 
Q 41.890625 65.09375 41.5 63.484375 
Q 40.875 60.9375 38.71875 49.703125 
L 37.5 43.109375 
L 47.796875 43.109375 
Q 48.78125 43.109375 48.78125 41.796875 
Q 48.734375 41.546875 48.578125 40.9375 
Q 48.4375 40.328125 48.171875 39.953125 
Q 47.90625 39.59375 47.515625 39.59375 
L 36.8125 39.59375 
L 32.171875 15.1875 
Q 31.296875 9.859375 30.140625 4.359375 
Q 29 -1.125 26.921875 -6.90625 
Q 24.859375 -12.703125 21.625 -16.609375 
Q 18.40625 -20.515625 14.015625 -20.515625 
Q 10.640625 -20.515625 7.984375 -18.578125 
Q 5.328125 -16.65625 5.328125 -13.484375 
Q 5.328125 -10.9375 6.953125 -9.046875 
Q 8.59375 -7.171875 11.078125 -7.171875 
Q 12.75 -7.171875 13.859375 -8.171875 
Q 14.984375 -9.1875 14.984375 -10.796875 
Q 14.984375 -12.9375 13.390625 -14.71875 
Q 11.8125 -16.5 9.71875 -16.5 
z
" id="Cmmi10-66"/>
      </defs>
      <g transform="translate(261.440447 100.913766)scale(0.1 -0.1)">
       <use transform="translate(0 0.484375)" xlink:href="#Cmmi10-66"/>
      </g>
     </g>
    </g>
    <g id="xtick_3">
     <g id="line2d_24">
      <path clip-path="url(#p7f0f0fa66a)" d="M 562.529887 87.704405 
L 562.529887 16.528672 
" style="fill:none;stroke:#000000;stroke-dasharray:0.5,0.825;stroke-dashoffset:0;stroke-width:0.5;"/>
     </g>
     <g id="line2d_25">
      <g>
       <use style="stroke:#000000;stroke-width:0.8;" x="562.529887" xlink:href="#m048008fcfc" y="86.335641"/>
      </g>
     </g>
     <g id="text_2">
      <!-- $1$ -->
      <defs>
       <path d="M 9.28125 0 
L 9.28125 3.515625 
Q 21.78125 3.515625 21.78125 6.6875 
L 21.78125 59.1875 
Q 16.609375 56.6875 8.6875 56.6875 
L 8.6875 60.203125 
Q 20.953125 60.203125 27.203125 66.609375 
L 28.609375 66.609375 
Q 28.953125 66.609375 29.265625 66.328125 
Q 29.59375 66.0625 29.59375 65.71875 
L 29.59375 6.6875 
Q 29.59375 3.515625 42.09375 3.515625 
L 42.09375 0 
z
" id="Cmr10-31"/>
      </defs>
      <g transform="translate(560.029887 100.934078)scale(0.1 -0.1)">
       <use transform="translate(0 0.390625)" xlink:href="#Cmr10-31"/>
      </g>
     </g>
    </g>
   </g>
   <g id="matplotlib.axis_2">
    <g id="ytick_1">
     <g id="line2d_26">
      <path clip-path="url(#p7f0f0fa66a)" d="M 4.074135 86.335641 
L 573.48 86.335641 
" style="fill:none;stroke:#000000;stroke-dasharray:0.5,0.825;stroke-dashoffset:0;stroke-width:0.5;"/>
     </g>
     <g id="line2d_27">
      <defs>
       <path d="M 0 0 
L -3.5 0 
" id="m7c7996a6e0" style="stroke:#000000;stroke-width:0.8;"/>
      </defs>
      <g>
       <use style="stroke:#000000;stroke-width:0.8;" x="15.024247" xlink:href="#m7c7996a6e0" y="86.335641"/>
      </g>
     </g>
    </g>
    <g id="ytick_2">
     <g id="line2d_28">
      <path clip-path="url(#p7f0f0fa66a)" d="M 4.074135 17.897436 
L 573.48 17.897436 
" style="fill:none;stroke:#000000;stroke-dasharray:0.5,0.825;stroke-dashoffset:0;stroke-width:0.5;"/>
     </g>
     <g id="line2d_29">
      <g>
       <use style="stroke:#000000;stroke-width:0.8;" x="15.024247" xlink:href="#m7c7996a6e0" y="17.897436"/>
      </g>
     </g>
     <g id="text_3">
      <!-- $1$ -->
      <g transform="translate(3.024247 21.696655)scale(0.1 -0.1)">
       <use transform="translate(0 0.390625)" xlink:href="#Cmr10-31"/>
      </g>
     </g>
    </g>
   </g>
   <g id="patch_3">
    <path d="M 15.024247 87.704405 
L 15.024247 16.528672 
" style="fill:none;stroke:#000000;stroke-linecap:square;stroke-linejoin:miter;stroke-width:0.8;"/>
   </g>
   <g id="patch_4">
    <path d="M 4.074135 86.335641 
L 573.48 86.335641 
" style="fill:none;stroke:#000000;stroke-linecap:square;stroke-linejoin:miter;stroke-width:0.8;"/>
   </g>
  </g>
 </g>
 <defs>
  <clipPath id="p7f0f0fa66a">
   <rect height="71.175733" width="569.405865" x="4.074135" y="16.528672"/>
  </clipPath>
 </defs>
</svg>
