<?xml version="1.0" encoding="utf-8" standalone="no"?>
<!DOCTYPE svg PUBLIC "-//W3C//DTD SVG 1.1//EN"
  "http://www.w3.org/Graphics/SVG/1.1/DTD/svg11.dtd">
<!-- Created with matplotlib (http://matplotlib.org/) -->
<svg height="108pt" version="1.1" viewBox="0 0 576 108" width="576pt" xmlns="http://www.w3.org/2000/svg" xmlns:xlink="http://www.w3.org/1999/xlink">
 <defs>
  <style type="text/css">
*{stroke-linecap:butt;stroke-linejoin:round;}
  </style>
 </defs>
 <g id="figure_1">
  <g id="patch_1">
   <path d="M 0 108 
L 576 108 
L 576 0 
L 0 0 
z
" style="fill:#ffffff;"/>
  </g>
  <g id="axes_1">
   <g id="patch_2">
    <path d="M 4.074135 87.704405 
L 573.48 87.704405 
L 573.48 16.528672 
L 4.074135 16.528672 
z
" style="fill:#ffffff;"/>
   </g>
   <g id="line2d_1">
    <path clip-path="url(#p12a025c9e1)" d="M 179.275939 60.671314 
L 206.651221 60.671314 
L 206.651221 60.671314 
" style="fill:none;stroke:#ff0000;stroke-linecap:square;"/>
   </g>
   <g id="line2d_2">
    <path clip-path="url(#p12a025c9e1)" d="M 261.401785 43.561763 
L 288.777067 43.561763 
L 288.777067 43.561763 
" style="fill:none;stroke:#ff0000;stroke-linecap:square;"/>
   </g>
   <g id="line2d_3">
    <path clip-path="url(#p12a025c9e1)" d="M 15.024247 86.335641 
L 88.024999 63.522906 
L 88.024999 63.522906 
" style="fill:none;stroke:#00ff00;stroke-linecap:square;"/>
   </g>
   <g id="line2d_4">
    <path clip-path="url(#p12a025c9e1)" d="M 97.150093 69.22609 
L 98.975112 68.655771 
L 98.975112 68.655771 
" style="fill:none;stroke:#00ff00;stroke-linecap:square;"/>
   </g>
   <g id="line2d_5">
    <path clip-path="url(#p12a025c9e1)" d="M 99.887622 69.22609 
L 102.468588 68.419538 
L 102.468588 68.419538 
" style="fill:none;stroke:#00ff00;stroke-linecap:square;"/>
   </g>
   <g id="line2d_6">
    <path clip-path="url(#p12a025c9e1)" d="M 103.759071 69.22609 
L 163.228744 50.641817 
L 163.228744 50.641817 
" style="fill:none;stroke:#00ff00;stroke-linecap:square;"/>
   </g>
   <g id="line2d_7">
    <path clip-path="url(#p12a025c9e1)" d="M 206.651221 60.671314 
L 261.401785 43.561763 
L 261.401785 43.561763 
" style="fill:none;stroke:#00ff00;stroke-linecap:square;"/>
   </g>
   <g id="line2d_8">
    <path clip-path="url(#p12a025c9e1)" d="M 304.824263 53.59126 
L 364.293936 35.006987 
L 364.293936 35.006987 
" style="fill:none;stroke:#00ff00;stroke-linecap:square;"/>
   </g>
   <g id="line2d_9">
    <path clip-path="url(#p12a025c9e1)" d="M 365.584419 35.813539 
L 368.165385 35.006987 
L 368.165385 35.006987 
" style="fill:none;stroke:#00ff00;stroke-linecap:square;"/>
   </g>
   <g id="line2d_10">
    <path clip-path="url(#p12a025c9e1)" d="M 369.077894 35.577306 
L 370.902913 35.006987 
L 370.902913 35.006987 
" style="fill:none;stroke:#00ff00;stroke-linecap:square;"/>
   </g>
   <g id="line2d_11">
    <path clip-path="url(#p12a025c9e1)" d="M 380.028007 40.710171 
L 453.028759 17.897436 
L 453.028759 17.897436 
" style="fill:none;stroke:#00ff00;stroke-linecap:square;"/>
   </g>
   <g id="line2d_12">
    <path clip-path="url(#p12a025c9e1)" d="M 88.024999 63.522906 
L 88.093698 63.565842 
L 88.111863 63.577196 
L 88.166463 63.611321 
L 88.19825 63.631187 
L 88.271775 63.677141 
L 88.291669 63.689575 
L 88.365729 63.735862 
L 88.3838 63.747157 
L 88.445956 63.786004 
L 88.479817 63.807167 
L 88.525363 63.835633 
L 88.59756 63.880756 
L 88.62008 63.894832 
L 88.674615 63.928916 
L 88.734498 63.966343 
L 88.755116 63.979229 
L 88.799191 64.006776 
L 88.828307 64.024973 
L 88.883836 64.059679 
L 88.959879 64.107206 
L 88.969254 64.113065 
L 89.05458 64.166394 
L 89.073046 64.177935 
L 89.131326 64.21436 
L 89.193947 64.253498 
L 89.236182 64.279895 
L 89.242186 64.283647 
L 89.318924 64.331609 
L 89.347976 64.349766 
L 89.379238 64.369305 
L 89.449043 64.412933 
L 89.477379 64.430643 
L 89.544901 64.472844 
L 89.598783 64.506521 
L 89.649329 64.538112 
L 89.659211 64.544288 
L 89.736426 64.592548 
L 89.78111 64.620475 
L 89.807021 64.63667 
L 89.86464 64.672682 
L 89.889282 64.688083 
L 89.944979 64.722894 
L 89.98227 64.7462 
L 90.039786 64.782147 
L 90.073443 64.803183 
L 90.136326 64.842485 
L 90.180524 64.870109 
L 90.244898 64.910342 
L 90.278264 64.931196 
L 90.335633 64.967052 
L 90.382316 64.996229 
L 90.415605 65.017035 
L 90.442284 65.033709 
L 90.499077 65.069205 
L 90.548003 65.099783 
L 90.588369 65.125012 
L 90.653413 65.165664 
L 90.679 65.181656 
L 90.752906 65.227848 
L 90.782227 65.246173 
L 90.800116 65.257354 
L 90.876544 65.305121 
L 90.892845 65.315309 
L 90.954347 65.353748 
L 90.985832 65.373426 
L 91.045133 65.410489 
L 91.08037 65.432513 
L 91.125048 65.460436 
L 91.172191 65.489901 
L 91.23765 65.530812 
L 91.300243 65.569933 
L 91.34069 65.595212 
L 91.394271 65.628701 
L 91.440996 65.657904 
L 91.476596 65.680154 
L 91.514024 65.703547 
L 91.541294 65.72059 
L 91.602258 65.758693 
L 91.642586 65.783898 
L 91.679877 65.807204 
L 91.745194 65.848027 
L 91.806379 65.886268 
L 91.824085 65.897335 
L 91.868315 65.924978 
L 91.918214 65.956165 
L 91.951758 65.97713 
L 92.025105 66.022972 
L 92.039574 66.032015 
L 92.119407 66.081911 
L 92.130351 66.088751 
L 92.182087 66.121086 
L 92.262119 66.171106 
L 92.308182 66.199895 
L 92.344905 66.222847 
L 92.365788 66.235899 
L 92.417849 66.268437 
L 92.493234 66.315552 
L 92.525221 66.335545 
L 92.545695 66.348341 
L 92.617309 66.3931 
L 92.651983 66.414771 
L 92.70606 66.448569 
L 92.73403 66.46605 
L 92.784833 66.497802 
L 92.842014 66.53354 
" style="fill:none;stroke:#0000ff;stroke-linecap:square;"/>
   </g>
   <g id="line2d_13">
    <path clip-path="url(#p12a025c9e1)" d="M 92.974512 66.616351 
L 93.045205 66.660534 
L 93.082007 66.683536 
L 93.122014 66.70854 
L 93.139819 66.719668 
L 93.210092 66.763589 
L 93.253391 66.790651 
L 93.277154 66.805502 
L 93.327443 66.836934 
L 93.368227 66.862423 
L 93.451509 66.914474 
L 93.474016 66.928541 
L 93.531046 66.964185 
L 93.594054 67.003565 
L 93.631796 67.027154 
L 93.667919 67.049731 
L 93.694781 67.066519 
L 93.775147 67.116748 
L 93.817936 67.143491 
L 93.847809 67.162162 
L 93.897667 67.193323 
L 93.94059 67.22015 
L 93.964521 67.235107 
L 94.031475 67.276953 
L 94.096742 67.317745 
L 94.110332 67.326239 
L 94.150902 67.351595 
L 94.229572 67.400764 
L 94.267575 67.424516 
L 94.285489 67.435712 
L 94.366042 67.486058 
L 94.418275 67.518703 
L 94.426362 67.523758 
L 94.490255 67.56369 
L 94.538337 67.593742 
L 94.604177 67.634892 
L 94.630132 67.651114 
L 94.662273 67.671202 
L 94.710678 67.701455 
L 94.753634 67.728302 
L 94.810416 67.763791 
L 94.841485 67.783209 
L 94.919148 67.831749 
L 94.926381 67.836269 
L 95.012639 67.890181 
L 95.061137 67.920492 
L 95.067955 67.924754 
L 95.117966 67.95601 
L 95.17983 67.994675 
L 95.231618 68.027043 
L 95.263754 68.047127 
L 95.312539 68.077618 
L 95.373 68.115406 
L 95.417924 68.143484 
L 95.458663 68.168946 
L 95.49668 68.192706 
L 95.552794 68.227777 
L 95.592821 68.252794 
L 95.617976 68.268516 
L 95.694254 68.31619 
L 95.75019 68.35115 
L 95.756825 68.355297 
L 95.804206 68.38491 
L 95.861038 68.42043 
L 95.904207 68.447411 
L 95.954569 68.478887 
L 95.998392 68.506276 
L 96.038598 68.531405 
L 96.077416 68.555666 
L 96.125897 68.585967 
L 96.175612 68.617039 
L 96.243103 68.659221 
L 96.282621 68.683919 
L 96.303635 68.697053 
L 96.364998 68.735405 
L 96.431839 68.777181 
L 96.472367 68.802511 
L 96.514688 68.828962 
L 96.538009 68.843537 
L 96.590587 68.876399 
L 96.664051 68.922313 
L 96.707793 68.949652 
L 96.75661 68.980162 
L 96.801643 69.008308 
L 96.848217 69.037417 
L 96.891465 69.064447 
L 96.941005 69.09541 
L 96.953009 69.102912 
L 96.995155 69.129253 
L 97.039263 69.156821 
L 97.09123 69.1893 
L 97.150093 69.22609 
" style="fill:none;stroke:#0000ff;stroke-linecap:square;"/>
   </g>
   <g id="line2d_14">
    <path clip-path="url(#p12a025c9e1)" d="M 98.975112 68.655771 
L 99.887622 69.22609 
L 99.887622 69.22609 
" style="fill:none;stroke:#0000ff;stroke-linecap:square;"/>
   </g>
   <g id="line2d_15">
    <path clip-path="url(#p12a025c9e1)" d="M 102.468588 68.419538 
L 103.759071 69.22609 
L 103.759071 69.22609 
" style="fill:none;stroke:#0000ff;stroke-linecap:square;"/>
   </g>
   <g id="line2d_16">
    <path clip-path="url(#p12a025c9e1)" d="M 163.228744 50.641817 
L 163.306759 50.690576 
L 163.356476 50.721649 
L 163.436317 50.77155 
L 163.526463 50.827891 
L 163.609252 50.879634 
L 163.695192 50.933347 
L 163.826909 51.01567 
L 163.885452 51.052259 
L 163.985766 51.114956 
L 164.011001 51.130728 
L 164.097795 51.184974 
L 164.203455 51.251011 
L 164.308094 51.31641 
L 164.353072 51.344522 
L 164.435213 51.39586 
L 164.510821 51.443115 
L 164.581434 51.487248 
L 164.673752 51.544947 
L 164.800755 51.624324 
L 164.848147 51.653944 
L 164.953093 51.719535 
L 165.041528 51.774807 
L 165.117528 51.822307 
L 165.139993 51.836348 
L 165.264844 51.91438 
L 165.344708 51.964294 
" style="fill:none;stroke:#0000ff;stroke-linecap:square;"/>
   </g>
   <g id="line2d_17">
    <path clip-path="url(#p12a025c9e1)" d="M 165.606986 52.128219 
L 179.275939 60.671314 
L 179.275939 60.671314 
" style="fill:none;stroke:#0000ff;stroke-linecap:square;"/>
   </g>
   <g id="line2d_18">
    <path clip-path="url(#p12a025c9e1)" d="M 288.777067 43.561763 
L 304.824263 53.59126 
L 304.824263 53.59126 
" style="fill:none;stroke:#0000ff;stroke-linecap:square;"/>
   </g>
   <g id="line2d_19">
    <path clip-path="url(#p12a025c9e1)" d="M 364.293936 35.006987 
L 365.584419 35.813539 
L 365.584419 35.813539 
" style="fill:none;stroke:#0000ff;stroke-linecap:square;"/>
   </g>
   <g id="line2d_20">
    <path clip-path="url(#p12a025c9e1)" d="M 368.165385 35.006987 
L 369.077894 35.577306 
L 369.077894 35.577306 
" style="fill:none;stroke:#0000ff;stroke-linecap:square;"/>
   </g>
   <g id="line2d_21">
    <path clip-path="url(#p12a025c9e1)" d="M 370.902913 35.006987 
L 380.028007 40.710171 
L 380.028007 40.710171 
" style="fill:none;stroke:#0000ff;stroke-linecap:square;"/>
   </g>
   <g id="line2d_22">
    <path clip-path="url(#p12a025c9e1)" d="M 453.028759 17.897436 
L 562.529887 86.335641 
L 562.529887 86.335641 
" style="fill:none;stroke:#0000ff;stroke-linecap:square;"/>
   </g>
   <g id="matplotlib.axis_1">
    <g id="xtick_1">
     <g id="line2d_23">
      <path clip-path="url(#p12a025c9e1)" d="M 15.024247 87.704405 
L 15.024247 16.528672 
" style="fill:none;stroke:#000000;stroke-dasharray:0.5,0.825;stroke-dashoffset:0;stroke-width:0.5;"/>
     </g>
     <g id="line2d_24">
      <defs>
       <path d="M 0 0 
L 0 3.5 
" id="m9644c38f69" style="stroke:#000000;stroke-width:0.8;"/>
      </defs>
      <g>
       <use style="stroke:#000000;stroke-width:0.8;" x="15.024247" xlink:href="#m9644c38f69" y="86.335641"/>
      </g>
     </g>
    </g>
    <g id="xtick_2">
     <g id="line2d_25">
      <path clip-path="url(#p12a025c9e1)" d="M 453.028759 87.704405 
L 453.028759 16.528672 
" style="fill:none;stroke:#000000;stroke-dasharray:0.5,0.825;stroke-dashoffset:0;stroke-width:0.5;"/>
     </g>
     <g id="line2d_26">
      <g>
       <use style="stroke:#000000;stroke-width:0.8;" x="453.028759" xlink:href="#m9644c38f69" y="86.335641"/>
      </g>
     </g>
     <g id="text_1">
      <!-- $f$ -->
      <defs>
       <path d="M 9.71875 -16.5 
Q 11.578125 -17.921875 14.203125 -17.921875 
Q 17.78125 -17.921875 20.015625 -10.015625 
Q 20.953125 -6.203125 25.09375 15.09375 
L 29.6875 39.59375 
L 21.09375 39.59375 
Q 20.125 39.59375 20.125 40.921875 
Q 20.515625 43.109375 21.390625 43.109375 
L 30.328125 43.109375 
L 31.5 49.609375 
Q 32.078125 52.640625 32.5625 54.8125 
Q 33.0625 56.984375 33.625 58.828125 
Q 34.1875 60.6875 35.296875 62.984375 
Q 37.015625 66.265625 39.921875 68.390625 
Q 42.828125 70.515625 46.1875 70.515625 
Q 48.390625 70.515625 50.46875 69.703125 
Q 52.546875 68.890625 53.859375 67.28125 
Q 55.171875 65.671875 55.171875 63.484375 
Q 55.171875 60.9375 53.484375 59.046875 
Q 51.8125 57.171875 49.421875 57.171875 
Q 47.796875 57.171875 46.65625 58.171875 
Q 45.515625 59.1875 45.515625 60.796875 
Q 45.515625 62.984375 47 64.625 
Q 48.484375 66.265625 50.6875 66.5 
Q 48.828125 67.921875 46.09375 67.921875 
Q 44.578125 67.921875 43.234375 66.5 
Q 41.890625 65.09375 41.5 63.484375 
Q 40.875 60.9375 38.71875 49.703125 
L 37.5 43.109375 
L 47.796875 43.109375 
Q 48.78125 43.109375 48.78125 41.796875 
Q 48.734375 41.546875 48.578125 40.9375 
Q 48.4375 40.328125 48.171875 39.953125 
Q 47.90625 39.59375 47.515625 39.59375 
L 36.8125 39.59375 
L 32.171875 15.1875 
Q 31.296875 9.859375 30.140625 4.359375 
Q 29 -1.125 26.921875 -6.90625 
Q 24.859375 -12.703125 21.625 -16.609375 
Q 18.40625 -20.515625 14.015625 -20.515625 
Q 10.640625 -20.515625 7.984375 -18.578125 
Q 5.328125 -16.65625 5.328125 -13.484375 
Q 5.328125 -10.9375 6.953125 -9.046875 
Q 8.59375 -7.171875 11.078125 -7.171875 
Q 12.75 -7.171875 13.859375 -8.171875 
Q 14.984375 -9.1875 14.984375 -10.796875 
Q 14.984375 -12.9375 13.390625 -14.71875 
Q 11.8125 -16.5 9.71875 -16.5 
z
" id="Cmmi10-66"/>
      </defs>
      <g transform="translate(450.578759 100.913766)scale(0.1 -0.1)">
       <use transform="translate(0 0.484375)" xlink:href="#Cmmi10-66"/>
      </g>
     </g>
    </g>
    <g id="xtick_3">
     <g id="line2d_27">
      <path clip-path="url(#p12a025c9e1)" d="M 562.529887 87.704405 
L 562.529887 16.528672 
" style="fill:none;stroke:#000000;stroke-dasharray:0.5,0.825;stroke-dashoffset:0;stroke-width:0.5;"/>
     </g>
     <g id="line2d_28">
      <g>
       <use style="stroke:#000000;stroke-width:0.8;" x="562.529887" xlink:href="#m9644c38f69" y="86.335641"/>
      </g>
     </g>
     <g id="text_2">
      <!-- $1$ -->
      <defs>
       <path d="M 9.28125 0 
L 9.28125 3.515625 
Q 21.78125 3.515625 21.78125 6.6875 
L 21.78125 59.1875 
Q 16.609375 56.6875 8.6875 56.6875 
L 8.6875 60.203125 
Q 20.953125 60.203125 27.203125 66.609375 
L 28.609375 66.609375 
Q 28.953125 66.609375 29.265625 66.328125 
Q 29.59375 66.0625 29.59375 65.71875 
L 29.59375 6.6875 
Q 29.59375 3.515625 42.09375 3.515625 
L 42.09375 0 
z
" id="Cmr10-31"/>
      </defs>
      <g transform="translate(560.029887 100.934078)scale(0.1 -0.1)">
       <use transform="translate(0 0.390625)" xlink:href="#Cmr10-31"/>
      </g>
     </g>
    </g>
   </g>
   <g id="matplotlib.axis_2">
    <g id="ytick_1">
     <g id="line2d_29">
      <path clip-path="url(#p12a025c9e1)" d="M 4.074135 86.335641 
L 573.48 86.335641 
" style="fill:none;stroke:#000000;stroke-dasharray:0.5,0.825;stroke-dashoffset:0;stroke-width:0.5;"/>
     </g>
     <g id="line2d_30">
      <defs>
       <path d="M 0 0 
L -3.5 0 
" id="m335102b4d4" style="stroke:#000000;stroke-width:0.8;"/>
      </defs>
      <g>
       <use style="stroke:#000000;stroke-width:0.8;" x="15.024247" xlink:href="#m335102b4d4" y="86.335641"/>
      </g>
     </g>
    </g>
    <g id="ytick_2">
     <g id="line2d_31">
      <path clip-path="url(#p12a025c9e1)" d="M 4.074135 17.897436 
L 573.48 17.897436 
" style="fill:none;stroke:#000000;stroke-dasharray:0.5,0.825;stroke-dashoffset:0;stroke-width:0.5;"/>
     </g>
     <g id="line2d_32">
      <g>
       <use style="stroke:#000000;stroke-width:0.8;" x="15.024247" xlink:href="#m335102b4d4" y="17.897436"/>
      </g>
     </g>
     <g id="text_3">
      <!-- $1$ -->
      <g transform="translate(3.024247 21.696655)scale(0.1 -0.1)">
       <use transform="translate(0 0.390625)" xlink:href="#Cmr10-31"/>
      </g>
     </g>
    </g>
   </g>
   <g id="patch_3">
    <path d="M 15.024247 87.704405 
L 15.024247 16.528672 
" style="fill:none;stroke:#000000;stroke-linecap:square;stroke-linejoin:miter;stroke-width:0.8;"/>
   </g>
   <g id="patch_4">
    <path d="M 4.074135 86.335641 
L 573.48 86.335641 
" style="fill:none;stroke:#000000;stroke-linecap:square;stroke-linejoin:miter;stroke-width:0.8;"/>
   </g>
  </g>
 </g>
 <defs>
  <clipPath id="p12a025c9e1">
   <rect height="71.175733" width="569.405865" x="4.074135" y="16.528672"/>
  </clipPath>
 </defs>
</svg>
