<?xml version="1.0" encoding="utf-8" standalone="no"?>
<!DOCTYPE svg PUBLIC "-//W3C//DTD SVG 1.1//EN"
  "http://www.w3.org/Graphics/SVG/1.1/DTD/svg11.dtd">
<!-- Created with matplotlib (http://matplotlib.org/) -->
<svg height="108pt" version="1.1" viewBox="0 0 576 108" width="576pt" xmlns="http://www.w3.org/2000/svg" xmlns:xlink="http://www.w3.org/1999/xlink">
 <defs>
  <style type="text/css">
*{stroke-linecap:butt;stroke-linejoin:round;}
  </style>
 </defs>
 <g id="figure_1">
  <g id="patch_1">
   <path d="M 0 108 
L 576 108 
L 576 0 
L 0 0 
z
" style="fill:#ffffff;"/>
  </g>
  <g id="axes_1">
   <g id="patch_2">
    <path d="M 4.074135 87.704405 
L 573.48 87.704405 
L 573.48 16.528672 
L 4.074135 16.528672 
z
" style="fill:#ffffff;"/>
   </g>
   <g id="line2d_1">
    <path clip-path="url(#p1926f7b637)" d="M 114.570727 63.522906 
L 139.457347 42.135967 
L 139.457347 42.135967 
" style="fill:none;stroke:#ff0000;stroke-linecap:square;stroke-width:2;"/>
   </g>
   <g id="line2d_2">
    <path clip-path="url(#p1926f7b637)" d="M 239.003827 50.690743 
L 263.890447 29.303803 
L 263.890447 29.303803 
" style="fill:none;stroke:#ff0000;stroke-linecap:square;stroke-width:2;"/>
   </g>
   <g id="line2d_3">
    <path clip-path="url(#p1926f7b637)" d="M 338.550307 74.929273 
L 363.436927 53.542334 
L 363.436927 53.542334 
" style="fill:none;stroke:#ff0000;stroke-linecap:square;stroke-width:2;"/>
   </g>
   <g id="line2d_4">
    <path clip-path="url(#p1926f7b637)" d="M 462.983407 62.09711 
L 487.870027 40.710171 
L 487.870027 40.710171 
" style="fill:none;stroke:#ff0000;stroke-linecap:square;stroke-width:2;"/>
   </g>
   <g id="line2d_5">
    <path clip-path="url(#p1926f7b637)" d="M 139.457347 42.135967 
L 164.343967 52.116538 
L 164.343967 52.116538 
" style="fill:none;stroke:#cbff00;stroke-linecap:square;stroke-width:2;"/>
   </g>
   <g id="line2d_6">
    <path clip-path="url(#p1926f7b637)" d="M 214.117207 40.710171 
L 239.003827 50.690743 
L 239.003827 50.690743 
" style="fill:none;stroke:#cbff00;stroke-linecap:square;stroke-width:2;"/>
   </g>
   <g id="line2d_7">
    <path clip-path="url(#p1926f7b637)" d="M 263.890447 29.303803 
L 288.777067 39.284375 
L 288.777067 39.284375 
" style="fill:none;stroke:#cbff00;stroke-linecap:square;stroke-width:2;"/>
   </g>
   <g id="line2d_8">
    <path clip-path="url(#p1926f7b637)" d="M 313.663687 64.948702 
L 338.550307 74.929273 
L 338.550307 74.929273 
" style="fill:none;stroke:#cbff00;stroke-linecap:square;stroke-width:2;"/>
   </g>
   <g id="line2d_9">
    <path clip-path="url(#p1926f7b637)" d="M 363.436927 53.542334 
L 388.323547 63.522906 
L 388.323547 63.522906 
" style="fill:none;stroke:#cbff00;stroke-linecap:square;stroke-width:2;"/>
   </g>
   <g id="line2d_10">
    <path clip-path="url(#p1926f7b637)" d="M 438.096787 52.116538 
L 438.207151 52.160799 
L 438.301814 52.198763 
L 438.531128 52.290727 
L 438.541678 52.294958 
L 438.754468 52.380296 
L 438.820823 52.406907 
L 438.93647 52.453286 
L 439.060953 52.503209 
L 439.218902 52.566553 
L 439.366293 52.625663 
L 439.459153 52.662904 
L 439.616825 52.726137 
L 439.721178 52.767987 
L 439.786564 52.794209 
L 439.990323 52.875925 
L 440.087029 52.914708 
L 440.265643 52.98634 
L 440.33671 53.014841 
L 440.436363 53.054806 
L 440.538183 53.09564 
L 440.751729 53.181281 
L 440.810837 53.204985 
L 440.960339 53.264942 
L 441.085273 53.315046 
L 441.242319 53.378028 
L 441.322646 53.410242 
L 441.487934 53.47653 
L 441.573306 53.510767 
L 441.777702 53.592738 
L 441.842557 53.618748 
L 441.928186 53.653089 
L 442.056121 53.704396 
L 442.241129 53.778592 
L 442.407348 53.845253 
L 442.510163 53.886486 
L 442.651113 53.943013 
L 442.678093 53.953833 
L 442.857176 54.025653 
L 443.019541 54.090768 
L 443.060528 54.107205 
L 443.191315 54.159656 
L 443.303015 54.204453 
L 443.479663 54.275296 
L 443.541782 54.300208 
L 443.747844 54.382848 
L 443.822588 54.412823 
L 443.946825 54.462647 
L 444.068112 54.511289 
L 444.167379 54.551099 
L 444.347015 54.62314 
L 444.50641 54.687064 
L 444.630959 54.737014 
L 444.708333 54.768044 
L 444.892975 54.842093 
L 444.969389 54.872738 
L 445.097015 54.923922 
L 445.193863 54.962761 
L 445.32471 55.015237 
L 445.523753 55.095061 
L 445.59867 55.125106 
L 445.762235 55.190702 
L 445.884276 55.239646 
L 445.957005 55.268813 
L 446.045451 55.304284 
L 446.281842 55.399087 
L 446.390097 55.442501 
L 446.466091 55.472978 
L 446.549137 55.506283 
L 446.69137 55.563324 
L 446.896597 55.645629 
L 446.992032 55.683902 
L 447.133933 55.74081 
L 447.262215 55.792257 
L 447.304602 55.809256 
L 447.483139 55.880857 
L 447.642576 55.944798 
L 447.718013 55.975051 
L 447.8444 56.025737 
L 447.976143 56.078572 
L 448.089269 56.12394 
L 448.211408 56.172923 
L 448.300729 56.208744 
L 448.447075 56.267435 
L 448.583073 56.321976 
L 448.70012 56.368917 
L 448.865293 56.435158 
L 448.992353 56.486114 
L 449.145556 56.547555 
L 449.288089 56.604717 
L 449.327984 56.620716 
L 449.521045 56.698142 
L 449.556087 56.712195 
L 449.744608 56.7878 
L 449.847564 56.82909 
" style="fill:none;stroke:#cbff00;stroke-linecap:square;stroke-width:2;"/>
   </g>
   <g id="line2d_11">
    <path clip-path="url(#p1926f7b637)" d="M 450.177114 56.961253 
L 450.41393 57.056226 
L 450.535495 57.104979 
L 450.561545 57.115426 
L 450.732783 57.184099 
L 450.880158 57.243203 
L 450.954355 57.272959 
L 451.151195 57.3519 
L 451.221147 57.379954 
L 451.383004 57.444865 
L 451.430305 57.463835 
L 451.549783 57.51175 
L 451.700842 57.572331 
L 451.795556 57.610316 
L 451.961988 57.677062 
L 452.1612 57.756954 
L 452.206967 57.775308 
L 452.303073 57.813851 
L 452.478189 57.88408 
L 452.597494 57.931926 
L 452.759769 57.997005 
L 452.807773 58.016257 
L 452.995463 58.091528 
L 453.04805 58.112618 
L 453.274631 58.203486 
L 453.36388 58.239279 
L 453.467006 58.280636 
L 453.593922 58.331535 
L 453.703055 58.375302 
L 453.853033 58.43545 
L 454.019666 58.502276 
L 454.075415 58.524634 
L 454.289336 58.610425 
L 454.321588 58.623359 
L 454.424617 58.664678 
L 454.559348 58.718711 
L 454.715067 58.781161 
L 454.89077 58.851625 
L 454.937076 58.870196 
L 455.105552 58.937762 
L 455.193327 58.972963 
L 455.391561 59.052463 
L 455.442327 59.072823 
L 455.574816 59.125956 
L 455.682424 59.169112 
L 455.914007 59.261986 
L 456.023686 59.305972 
L 456.144083 59.354256 
L 456.248275 59.396042 
L 456.299726 59.416676 
L 456.479337 59.488707 
L 456.580959 59.529461 
L 456.759681 59.601136 
L 456.866067 59.643802 
L 457.008438 59.700898 
L 457.131181 59.750123 
L 457.264158 59.803453 
L 457.383022 59.851122 
L 457.462119 59.882843 
L 457.593957 59.935716 
L 457.668814 59.965737 
L 457.880666 60.050698 
L 458.022289 60.107495 
L 458.069622 60.126477 
L 458.194343 60.176496 
L 458.361058 60.243356 
L 458.443293 60.276335 
L 458.647374 60.35818 
L 458.790745 60.415678 
L 458.845966 60.437824 
L 458.99948 60.499389 
L 459.0784 60.531039 
L 459.236982 60.594637 
L 459.378303 60.651313 
L 459.426362 60.670587 
L 459.654671 60.762148 
L 459.721081 60.788781 
L 459.827056 60.831282 
L 459.96798 60.887798 
L 460.145131 60.958843 
L 460.228102 60.992118 
L 460.379754 61.052936 
L 460.492765 61.098259 
L 460.625333 61.151424 
L 460.760149 61.205491 
L 460.909109 61.26523 
L 461.022515 61.310711 
L 461.150524 61.362047 
L 461.176468 61.372452 
L 461.418213 61.469402 
L 461.544265 61.519954 
L 461.6188 61.549845 
L 461.76823 61.609773 
L 461.802151 61.623377 
L 461.9293 61.674369 
L 462.106891 61.745591 
L 462.218546 61.790369 
L 462.399226 61.862829 
L 462.540942 61.919663 
L 462.664124 61.969064 
L 462.711492 61.988061 
L 462.801693 62.024235 
L 462.983407 62.09711 
" style="fill:none;stroke:#cbff00;stroke-linecap:square;stroke-width:2;"/>
   </g>
   <g id="line2d_12">
    <path clip-path="url(#p1926f7b637)" d="M 89.684107 69.22609 
L 114.570727 63.522906 
L 114.570727 63.522906 
" style="fill:none;stroke:#00ff66;stroke-linecap:square;stroke-width:2;"/>
   </g>
   <g id="line2d_13">
    <path clip-path="url(#p1926f7b637)" d="M 164.343967 52.116538 
L 214.117207 40.710171 
L 214.117207 40.710171 
" style="fill:none;stroke:#00ff66;stroke-linecap:square;stroke-width:2;"/>
   </g>
   <g id="line2d_14">
    <path clip-path="url(#p1926f7b637)" d="M 388.323547 63.522906 
L 438.096787 52.116538 
L 438.096787 52.116538 
" style="fill:none;stroke:#00ff66;stroke-linecap:square;stroke-width:2;"/>
   </g>
   <g id="line2d_15">
    <path clip-path="url(#p1926f7b637)" d="M 487.870027 40.710171 
L 512.756647 35.006987 
L 512.756647 35.006987 
" style="fill:none;stroke:#00ff66;stroke-linecap:square;stroke-width:2;"/>
   </g>
   <g id="line2d_16">
    <path clip-path="url(#p1926f7b637)" d="M 39.910867 17.897436 
L 89.684107 69.22609 
L 89.684107 69.22609 
" style="fill:none;stroke:#0066ff;stroke-linecap:square;stroke-width:2;"/>
   </g>
   <g id="line2d_17">
    <path clip-path="url(#p1926f7b637)" d="M 288.777067 39.284375 
L 313.663687 64.948702 
L 313.663687 64.948702 
" style="fill:none;stroke:#0066ff;stroke-linecap:square;stroke-width:2;"/>
   </g>
   <g id="line2d_18">
    <path clip-path="url(#p1926f7b637)" d="M 512.756647 35.006987 
L 562.529887 86.335641 
L 562.529887 86.335641 
" style="fill:none;stroke:#0066ff;stroke-linecap:square;stroke-width:2;"/>
   </g>
   <g id="line2d_19">
    <path clip-path="url(#p1926f7b637)" d="M 15.024247 86.335641 
L 39.910867 17.897436 
L 39.910867 17.897436 
" style="fill:none;stroke:#cc00ff;stroke-linecap:square;stroke-width:2;"/>
   </g>
   <g id="matplotlib.axis_1">
    <g id="xtick_1">
     <g id="line2d_20">
      <path clip-path="url(#p1926f7b637)" d="M 15.024247 87.704405 
L 15.024247 16.528672 
" style="fill:none;stroke:#000000;stroke-dasharray:0.5,0.825;stroke-dashoffset:0;stroke-width:0.5;"/>
     </g>
     <g id="line2d_21">
      <defs>
       <path d="M 0 0 
L 0 3.5 
" id="m843d4b8dd6" style="stroke:#000000;stroke-width:0.8;"/>
      </defs>
      <g>
       <use style="stroke:#000000;stroke-width:0.8;" x="15.024247" xlink:href="#m843d4b8dd6" y="86.335641"/>
      </g>
     </g>
    </g>
    <g id="xtick_2">
     <g id="line2d_22">
      <path clip-path="url(#p1926f7b637)" d="M 39.910867 87.704405 
L 39.910867 16.528672 
" style="fill:none;stroke:#000000;stroke-dasharray:0.5,0.825;stroke-dashoffset:0;stroke-width:0.5;"/>
     </g>
     <g id="line2d_23">
      <g>
       <use style="stroke:#000000;stroke-width:0.8;" x="39.910867" xlink:href="#m843d4b8dd6" y="86.335641"/>
      </g>
     </g>
     <g id="text_1">
      <!-- $f$ -->
      <defs>
       <path d="M 9.71875 -16.5 
Q 11.578125 -17.921875 14.203125 -17.921875 
Q 17.78125 -17.921875 20.015625 -10.015625 
Q 20.953125 -6.203125 25.09375 15.09375 
L 29.6875 39.59375 
L 21.09375 39.59375 
Q 20.125 39.59375 20.125 40.921875 
Q 20.515625 43.109375 21.390625 43.109375 
L 30.328125 43.109375 
L 31.5 49.609375 
Q 32.078125 52.640625 32.5625 54.8125 
Q 33.0625 56.984375 33.625 58.828125 
Q 34.1875 60.6875 35.296875 62.984375 
Q 37.015625 66.265625 39.921875 68.390625 
Q 42.828125 70.515625 46.1875 70.515625 
Q 48.390625 70.515625 50.46875 69.703125 
Q 52.546875 68.890625 53.859375 67.28125 
Q 55.171875 65.671875 55.171875 63.484375 
Q 55.171875 60.9375 53.484375 59.046875 
Q 51.8125 57.171875 49.421875 57.171875 
Q 47.796875 57.171875 46.65625 58.171875 
Q 45.515625 59.1875 45.515625 60.796875 
Q 45.515625 62.984375 47 64.625 
Q 48.484375 66.265625 50.6875 66.5 
Q 48.828125 67.921875 46.09375 67.921875 
Q 44.578125 67.921875 43.234375 66.5 
Q 41.890625 65.09375 41.5 63.484375 
Q 40.875 60.9375 38.71875 49.703125 
L 37.5 43.109375 
L 47.796875 43.109375 
Q 48.78125 43.109375 48.78125 41.796875 
Q 48.734375 41.546875 48.578125 40.9375 
Q 48.4375 40.328125 48.171875 39.953125 
Q 47.90625 39.59375 47.515625 39.59375 
L 36.8125 39.59375 
L 32.171875 15.1875 
Q 31.296875 9.859375 30.140625 4.359375 
Q 29 -1.125 26.921875 -6.90625 
Q 24.859375 -12.703125 21.625 -16.609375 
Q 18.40625 -20.515625 14.015625 -20.515625 
Q 10.640625 -20.515625 7.984375 -18.578125 
Q 5.328125 -16.65625 5.328125 -13.484375 
Q 5.328125 -10.9375 6.953125 -9.046875 
Q 8.59375 -7.171875 11.078125 -7.171875 
Q 12.75 -7.171875 13.859375 -8.171875 
Q 14.984375 -9.1875 14.984375 -10.796875 
Q 14.984375 -12.9375 13.390625 -14.71875 
Q 11.8125 -16.5 9.71875 -16.5 
z
" id="Cmmi10-66"/>
      </defs>
      <g transform="translate(37.460867 100.913766)scale(0.1 -0.1)">
       <use transform="translate(0 0.484375)" xlink:href="#Cmmi10-66"/>
      </g>
     </g>
    </g>
    <g id="xtick_3">
     <g id="line2d_24">
      <path clip-path="url(#p1926f7b637)" d="M 562.529887 87.704405 
L 562.529887 16.528672 
" style="fill:none;stroke:#000000;stroke-dasharray:0.5,0.825;stroke-dashoffset:0;stroke-width:0.5;"/>
     </g>
     <g id="line2d_25">
      <g>
       <use style="stroke:#000000;stroke-width:0.8;" x="562.529887" xlink:href="#m843d4b8dd6" y="86.335641"/>
      </g>
     </g>
     <g id="text_2">
      <!-- $1$ -->
      <defs>
       <path d="M 9.28125 0 
L 9.28125 3.515625 
Q 21.78125 3.515625 21.78125 6.6875 
L 21.78125 59.1875 
Q 16.609375 56.6875 8.6875 56.6875 
L 8.6875 60.203125 
Q 20.953125 60.203125 27.203125 66.609375 
L 28.609375 66.609375 
Q 28.953125 66.609375 29.265625 66.328125 
Q 29.59375 66.0625 29.59375 65.71875 
L 29.59375 6.6875 
Q 29.59375 3.515625 42.09375 3.515625 
L 42.09375 0 
z
" id="Cmr10-31"/>
      </defs>
      <g transform="translate(560.029887 100.934078)scale(0.1 -0.1)">
       <use transform="translate(0 0.390625)" xlink:href="#Cmr10-31"/>
      </g>
     </g>
    </g>
   </g>
   <g id="matplotlib.axis_2">
    <g id="ytick_1">
     <g id="line2d_26">
      <path clip-path="url(#p1926f7b637)" d="M 4.074135 86.335641 
L 573.48 86.335641 
" style="fill:none;stroke:#000000;stroke-dasharray:0.5,0.825;stroke-dashoffset:0;stroke-width:0.5;"/>
     </g>
     <g id="line2d_27">
      <defs>
       <path d="M 0 0 
L -3.5 0 
" id="m9ab752c936" style="stroke:#000000;stroke-width:0.8;"/>
      </defs>
      <g>
       <use style="stroke:#000000;stroke-width:0.8;" x="15.024247" xlink:href="#m9ab752c936" y="86.335641"/>
      </g>
     </g>
    </g>
    <g id="ytick_2">
     <g id="line2d_28">
      <path clip-path="url(#p1926f7b637)" d="M 4.074135 17.897436 
L 573.48 17.897436 
" style="fill:none;stroke:#000000;stroke-dasharray:0.5,0.825;stroke-dashoffset:0;stroke-width:0.5;"/>
     </g>
     <g id="line2d_29">
      <g>
       <use style="stroke:#000000;stroke-width:0.8;" x="15.024247" xlink:href="#m9ab752c936" y="17.897436"/>
      </g>
     </g>
     <g id="text_3">
      <!-- $1$ -->
      <g transform="translate(3.024247 21.696655)scale(0.1 -0.1)">
       <use transform="translate(0 0.390625)" xlink:href="#Cmr10-31"/>
      </g>
     </g>
    </g>
   </g>
   <g id="patch_3">
    <path d="M 15.024247 87.704405 
L 15.024247 16.528672 
" style="fill:none;stroke:#000000;stroke-linecap:square;stroke-linejoin:miter;stroke-width:0.8;"/>
   </g>
   <g id="patch_4">
    <path d="M 4.074135 86.335641 
L 573.48 86.335641 
" style="fill:none;stroke:#000000;stroke-linecap:square;stroke-linejoin:miter;stroke-width:0.8;"/>
   </g>
  </g>
 </g>
 <defs>
  <clipPath id="p1926f7b637">
   <rect height="71.175733" width="569.405865" x="4.074135" y="16.528672"/>
  </clipPath>
 </defs>
</svg>
