<?xml version="1.0" encoding="utf-8" standalone="no"?>
<!DOCTYPE svg PUBLIC "-//W3C//DTD SVG 1.1//EN"
  "http://www.w3.org/Graphics/SVG/1.1/DTD/svg11.dtd">
<!-- Created with matplotlib (http://matplotlib.org/) -->
<svg height="108pt" version="1.1" viewBox="0 0 576 108" width="576pt" xmlns="http://www.w3.org/2000/svg" xmlns:xlink="http://www.w3.org/1999/xlink">
 <defs>
  <style type="text/css">
*{stroke-linecap:butt;stroke-linejoin:round;}
  </style>
 </defs>
 <g id="figure_1">
  <g id="patch_1">
   <path d="M 0 108 
L 576 108 
L 576 0 
L 0 0 
z
" style="fill:#ffffff;"/>
  </g>
  <g id="axes_1">
   <g id="patch_2">
    <path d="M 4.074135 87.704405 
L 573.48 87.704405 
L 573.48 16.528672 
L 4.074135 16.528672 
z
" style="fill:#ffffff;"/>
   </g>
   <g id="line2d_1">
    <path clip-path="url(#p866579c912)" d="M 15.024247 86.335641 
L 45.441227 48.694628 
L 45.441227 48.694628 
" style="fill:none;stroke:#ff0000;stroke-linecap:square;stroke-width:2;"/>
   </g>
   <g id="line2d_2">
    <path clip-path="url(#p866579c912)" d="M 288.777067 55.538449 
L 319.194047 17.897436 
L 319.194047 17.897436 
" style="fill:none;stroke:#ff0000;stroke-linecap:square;stroke-width:2;"/>
   </g>
   <g id="line2d_3">
    <path clip-path="url(#p866579c912)" d="M 75.858207 72.648 
L 76.439234 72.517269 
L 77.517489 72.274662 
L 78.222353 72.116067 
L 79.374111 71.856922 
L 80.826869 71.530051 
L 81.712493 71.330786 
L 82.570882 71.137648 
L 83.299236 70.973768 
L 84.233656 70.763524 
L 85.167281 70.553458 
L 85.63116 70.449086 
L 87.27806 70.078533 
L 87.341717 70.06421 
L 88.88616 69.716711 
L 89.466078 69.586229 
L 90.912414 69.260804 
L 91.311546 69.170999 
L 92.589544 68.883449 
L 93.615723 68.652559 
L 93.81753 68.607152 
L 95.202325 68.295573 
L 96.303949 68.047708 
L 97.289547 67.825948 
L 97.972319 67.672325 
L 98.538009 67.545045 
L 99.712211 67.280849 
L 100.373853 67.13198 
L 101.455972 66.888503 
L 102.464697 66.66154 
L 103.367813 66.458339 
L 104.234671 66.263296 
L 105.110969 66.066129 
L 106.476137 65.758966 
L 106.847383 65.675435 
L 107.580666 65.510447 
L 108.795527 65.237103 
L 109.499973 65.078603 
L 110.669392 64.815483 
L 111.53117 64.621583 
L 112.629202 64.374526 
L 113.302046 64.223136 
L 114.142068 64.034131 
L 114.860709 63.872437 
L 115.863067 63.646907 
L 117.142353 63.359067 
L 118.206008 63.119745 
L 118.505987 63.05225 
L 119.857723 62.748109 
L 120.378809 62.630865 
L 121.400905 62.400893 
L 122.255331 62.208647 
L 123.356218 61.960948 
L 124.529521 61.696954 
L 125.155934 61.556011 
L 126.536545 61.245374 
L 127.13259 61.111264 
L 128.030091 60.909326 
L 128.633576 60.773542 
L 129.882794 60.492468 
L 131.063738 60.226756 
L 132.133855 59.985979 
L 132.91525 59.810165 
L 133.890021 59.590842 
L 134.48103 59.457865 
L 135.296315 59.274426 
L 136.085052 59.09696 
L 137.476294 58.78393 
L 138.454793 58.563768 
L 138.987316 58.443951 
L 139.940591 58.229464 
L 141.089176 57.971032 
L 141.880241 57.793042 
L 143.192251 57.49784 
L 143.666976 57.391027 
L 144.573663 57.187022 
" style="fill:none;stroke:#00ff00;stroke-linecap:square;stroke-width:2;"/>
   </g>
   <g id="line2d_4">
    <path clip-path="url(#p866579c912)" d="M 147.320666 56.568947 
L 147.962043 56.424637 
L 148.947199 56.202977 
L 149.980619 55.970457 
L 151.449454 55.639969 
L 152.373559 55.432046 
L 153.025588 55.285339 
L 153.93003 55.08184 
L 154.70434 54.90762 
L 155.887682 54.641368 
L 156.80537 54.434888 
L 157.414389 54.297859 
L 158.387906 54.078818 
L 159.648575 53.795167 
L 160.684839 53.562008 
L 161.309004 53.421571 
L 161.61088 53.353649 
L 163.063828 53.026735 
L 163.601346 52.905794 
L 164.434146 52.718414 
L 165.987714 52.368861 
L 166.888784 52.16612 
L 167.396818 52.051813 
L 168.543136 51.793891 
L 169.58356 51.559796 
L 169.950258 51.477289 
L 170.969224 51.248021 
L 172.592429 50.8828 
L 173.276256 50.728939 
L 174.361359 50.484791 
L 175.277708 50.278612 
L 176.161453 50.07977 
L 176.864023 49.921691 
L 177.42958 49.794441 
L 178.535349 49.545643 
L 179.294012 49.374944 
L 180.863769 49.021749 
L 181.701366 48.833289 
L 182.681557 48.612746 
L 182.954229 48.551395 
L 184.495215 48.204673 
L 185.014932 48.087737 
L 185.849961 47.899855 
L 187.15666 47.605848 
L 188.013847 47.412981 
L 188.721965 47.253655 
L 189.406902 47.099544 
L 190.161714 46.929711 
L 191.270182 46.680306 
L 192.514271 46.400386 
L 193.079248 46.273266 
L 194.264384 46.00661 
L 194.682995 45.912423 
L 196.414085 45.522928 
L 196.741458 45.449268 
L 197.560985 45.264875 
L 198.312344 45.095819 
L 199.698936 44.783836 
L 200.937611 44.505134 
L 201.588049 44.358786 
L 202.833267 44.078612 
L 203.632052 43.898885 
L 203.856959 43.848281 
L 205.216408 43.542405 
L 205.681526 43.437753 
L 206.995197 43.142177 
L 208.155795 42.881043 
L 208.8187 42.731889 
L 209.686662 42.536598 
L 210.95054 42.252225 
L 211.502869 42.127951 
L 212.122454 41.988544 
L 213.240631 41.736955 
L 214.329979 41.491851 
L 214.841037 41.376863 
L 216.032179 41.108856 
L 216.88346 40.917318 
L 218.351424 40.587026 
L 219.110639 40.416203 
L 219.831783 40.253945 
L 220.766862 40.043553 
L 221.437126 39.892743 
L 222.300939 39.698385 
L 223.270956 39.480131 
L 224.748037 39.147788 
L 225.648176 38.945257 
L 226.152763 38.831725 
L 227.266146 38.581214 
L 228.224958 38.365481 
L 228.673377 38.264587 
L 229.851057 37.999609 
L 231.070776 37.725172 
L 231.541084 37.619353 
L 232.355212 37.436174 
L 233.590658 37.158199 
L 234.461461 36.962268 
L 235.680101 36.688074 
L 235.954233 36.626394 
L 237.455831 36.288535 
L 238.570256 36.037789 
L 238.939515 35.954706 
L 240.23494 35.663235 
L 240.672557 35.564771 
L 242.193139 35.22264 
L 243.04622 35.030697 
L 243.507149 34.926988 
L 244.759584 34.64519 
L 245.378108 34.506022 
L 246.271106 34.305098 
L 247.151041 34.107112 
L 248.521711 33.798712 
L 249.42245 33.596045 
L 249.823379 33.505836 
L 250.905197 33.262427 
L 251.851976 33.049402 
L 252.666117 32.86622 
L 253.982543 32.570025 
L 255.127488 32.312412 
L 255.207409 32.29443 
L 256.168904 32.078093 
L 257.732303 31.726328 
L 258.360087 31.585077 
" style="fill:none;stroke:#00ff00;stroke-linecap:square;stroke-width:2;"/>
   </g>
   <g id="line2d_5">
    <path clip-path="url(#p866579c912)" d="M 380.028007 65.804179 
L 501.695927 38.428897 
L 501.695927 38.428897 
" style="fill:none;stroke:#00ff00;stroke-linecap:square;stroke-width:2;"/>
   </g>
   <g id="line2d_6">
    <path clip-path="url(#p866579c912)" d="M 45.441227 48.694628 
L 75.858207 72.648 
L 75.858207 72.648 
" style="fill:none;stroke:#0000ff;stroke-linecap:square;stroke-width:2;"/>
   </g>
   <g id="line2d_7">
    <path clip-path="url(#p866579c912)" d="M 258.360087 31.585077 
L 288.777067 55.538449 
L 288.777067 55.538449 
" style="fill:none;stroke:#0000ff;stroke-linecap:square;stroke-width:2;"/>
   </g>
   <g id="line2d_8">
    <path clip-path="url(#p866579c912)" d="M 319.194047 17.897436 
L 380.028007 65.804179 
L 380.028007 65.804179 
" style="fill:none;stroke:#0000ff;stroke-linecap:square;stroke-width:2;"/>
   </g>
   <g id="line2d_9">
    <path clip-path="url(#p866579c912)" d="M 501.695927 38.428897 
L 562.529887 86.335641 
L 562.529887 86.335641 
" style="fill:none;stroke:#0000ff;stroke-linecap:square;stroke-width:2;"/>
   </g>
   <g id="matplotlib.axis_1">
    <g id="xtick_1">
     <g id="line2d_10">
      <path clip-path="url(#p866579c912)" d="M 15.024247 87.704405 
L 15.024247 16.528672 
" style="fill:none;stroke:#000000;stroke-dasharray:0.5,0.825;stroke-dashoffset:0;stroke-width:0.5;"/>
     </g>
     <g id="line2d_11">
      <defs>
       <path d="M 0 0 
L 0 3.5 
" id="m3dd74a239c" style="stroke:#000000;stroke-width:0.8;"/>
      </defs>
      <g>
       <use style="stroke:#000000;stroke-width:0.8;" x="15.024247" xlink:href="#m3dd74a239c" y="86.335641"/>
      </g>
     </g>
    </g>
    <g id="xtick_2">
     <g id="line2d_12">
      <path clip-path="url(#p866579c912)" d="M 319.194047 87.704405 
L 319.194047 16.528672 
" style="fill:none;stroke:#000000;stroke-dasharray:0.5,0.825;stroke-dashoffset:0;stroke-width:0.5;"/>
     </g>
     <g id="line2d_13">
      <g>
       <use style="stroke:#000000;stroke-width:0.8;" x="319.194047" xlink:href="#m3dd74a239c" y="86.335641"/>
      </g>
     </g>
     <g id="text_1">
      <!-- $f$ -->
      <defs>
       <path d="M 9.71875 -16.5 
Q 11.578125 -17.921875 14.203125 -17.921875 
Q 17.78125 -17.921875 20.015625 -10.015625 
Q 20.953125 -6.203125 25.09375 15.09375 
L 29.6875 39.59375 
L 21.09375 39.59375 
Q 20.125 39.59375 20.125 40.921875 
Q 20.515625 43.109375 21.390625 43.109375 
L 30.328125 43.109375 
L 31.5 49.609375 
Q 32.078125 52.640625 32.5625 54.8125 
Q 33.0625 56.984375 33.625 58.828125 
Q 34.1875 60.6875 35.296875 62.984375 
Q 37.015625 66.265625 39.921875 68.390625 
Q 42.828125 70.515625 46.1875 70.515625 
Q 48.390625 70.515625 50.46875 69.703125 
Q 52.546875 68.890625 53.859375 67.28125 
Q 55.171875 65.671875 55.171875 63.484375 
Q 55.171875 60.9375 53.484375 59.046875 
Q 51.8125 57.171875 49.421875 57.171875 
Q 47.796875 57.171875 46.65625 58.171875 
Q 45.515625 59.1875 45.515625 60.796875 
Q 45.515625 62.984375 47 64.625 
Q 48.484375 66.265625 50.6875 66.5 
Q 48.828125 67.921875 46.09375 67.921875 
Q 44.578125 67.921875 43.234375 66.5 
Q 41.890625 65.09375 41.5 63.484375 
Q 40.875 60.9375 38.71875 49.703125 
L 37.5 43.109375 
L 47.796875 43.109375 
Q 48.78125 43.109375 48.78125 41.796875 
Q 48.734375 41.546875 48.578125 40.9375 
Q 48.4375 40.328125 48.171875 39.953125 
Q 47.90625 39.59375 47.515625 39.59375 
L 36.8125 39.59375 
L 32.171875 15.1875 
Q 31.296875 9.859375 30.140625 4.359375 
Q 29 -1.125 26.921875 -6.90625 
Q 24.859375 -12.703125 21.625 -16.609375 
Q 18.40625 -20.515625 14.015625 -20.515625 
Q 10.640625 -20.515625 7.984375 -18.578125 
Q 5.328125 -16.65625 5.328125 -13.484375 
Q 5.328125 -10.9375 6.953125 -9.046875 
Q 8.59375 -7.171875 11.078125 -7.171875 
Q 12.75 -7.171875 13.859375 -8.171875 
Q 14.984375 -9.1875 14.984375 -10.796875 
Q 14.984375 -12.9375 13.390625 -14.71875 
Q 11.8125 -16.5 9.71875 -16.5 
z
" id="Cmmi10-66"/>
      </defs>
      <g transform="translate(316.744047 100.913766)scale(0.1 -0.1)">
       <use transform="translate(0 0.484375)" xlink:href="#Cmmi10-66"/>
      </g>
     </g>
    </g>
    <g id="xtick_3">
     <g id="line2d_14">
      <path clip-path="url(#p866579c912)" d="M 562.529887 87.704405 
L 562.529887 16.528672 
" style="fill:none;stroke:#000000;stroke-dasharray:0.5,0.825;stroke-dashoffset:0;stroke-width:0.5;"/>
     </g>
     <g id="line2d_15">
      <g>
       <use style="stroke:#000000;stroke-width:0.8;" x="562.529887" xlink:href="#m3dd74a239c" y="86.335641"/>
      </g>
     </g>
     <g id="text_2">
      <!-- $1$ -->
      <defs>
       <path d="M 9.28125 0 
L 9.28125 3.515625 
Q 21.78125 3.515625 21.78125 6.6875 
L 21.78125 59.1875 
Q 16.609375 56.6875 8.6875 56.6875 
L 8.6875 60.203125 
Q 20.953125 60.203125 27.203125 66.609375 
L 28.609375 66.609375 
Q 28.953125 66.609375 29.265625 66.328125 
Q 29.59375 66.0625 29.59375 65.71875 
L 29.59375 6.6875 
Q 29.59375 3.515625 42.09375 3.515625 
L 42.09375 0 
z
" id="Cmr10-31"/>
      </defs>
      <g transform="translate(560.029887 100.934078)scale(0.1 -0.1)">
       <use transform="translate(0 0.390625)" xlink:href="#Cmr10-31"/>
      </g>
     </g>
    </g>
   </g>
   <g id="matplotlib.axis_2">
    <g id="ytick_1">
     <g id="line2d_16">
      <path clip-path="url(#p866579c912)" d="M 4.074135 86.335641 
L 573.48 86.335641 
" style="fill:none;stroke:#000000;stroke-dasharray:0.5,0.825;stroke-dashoffset:0;stroke-width:0.5;"/>
     </g>
     <g id="line2d_17">
      <defs>
       <path d="M 0 0 
L -3.5 0 
" id="m0411320d91" style="stroke:#000000;stroke-width:0.8;"/>
      </defs>
      <g>
       <use style="stroke:#000000;stroke-width:0.8;" x="15.024247" xlink:href="#m0411320d91" y="86.335641"/>
      </g>
     </g>
    </g>
    <g id="ytick_2">
     <g id="line2d_18">
      <path clip-path="url(#p866579c912)" d="M 4.074135 17.897436 
L 573.48 17.897436 
" style="fill:none;stroke:#000000;stroke-dasharray:0.5,0.825;stroke-dashoffset:0;stroke-width:0.5;"/>
     </g>
     <g id="line2d_19">
      <g>
       <use style="stroke:#000000;stroke-width:0.8;" x="15.024247" xlink:href="#m0411320d91" y="17.897436"/>
      </g>
     </g>
     <g id="text_3">
      <!-- $1$ -->
      <g transform="translate(3.024247 21.696655)scale(0.1 -0.1)">
       <use transform="translate(0 0.390625)" xlink:href="#Cmr10-31"/>
      </g>
     </g>
    </g>
   </g>
   <g id="patch_3">
    <path d="M 15.024247 87.704405 
L 15.024247 16.528672 
" style="fill:none;stroke:#000000;stroke-linecap:square;stroke-linejoin:miter;stroke-width:0.8;"/>
   </g>
   <g id="patch_4">
    <path d="M 4.074135 86.335641 
L 573.48 86.335641 
" style="fill:none;stroke:#000000;stroke-linecap:square;stroke-linejoin:miter;stroke-width:0.8;"/>
   </g>
  </g>
 </g>
 <defs>
  <clipPath id="p866579c912">
   <rect height="71.175733" width="569.405865" x="4.074135" y="16.528672"/>
  </clipPath>
 </defs>
</svg>
