<?xml version="1.0" encoding="utf-8" standalone="no"?>
<!DOCTYPE svg PUBLIC "-//W3C//DTD SVG 1.1//EN"
  "http://www.w3.org/Graphics/SVG/1.1/DTD/svg11.dtd">
<!-- Created with matplotlib (http://matplotlib.org/) -->
<svg height="108pt" version="1.1" viewBox="0 0 576 108" width="576pt" xmlns="http://www.w3.org/2000/svg" xmlns:xlink="http://www.w3.org/1999/xlink">
 <defs>
  <style type="text/css">
*{stroke-linecap:butt;stroke-linejoin:round;}
  </style>
 </defs>
 <g id="figure_1">
  <g id="patch_1">
   <path d="M 0 108 
L 576 108 
L 576 0 
L 0 0 
z
" style="fill:#ffffff;"/>
  </g>
  <g id="axes_1">
   <g id="patch_2">
    <path d="M 4.074135 87.704405 
L 573.48 87.704405 
L 573.48 16.528672 
L 4.074135 16.528672 
z
" style="fill:#ffffff;"/>
   </g>
   <g id="line2d_1">
    <path clip-path="url(#pc81848cb5a)" d="M 15.024247 86.335641 
L 39.910867 41.702029 
L 39.910867 41.702029 
" style="fill:none;stroke:#ff0000;stroke-linecap:square;stroke-width:2;"/>
   </g>
   <g id="line2d_2">
    <path clip-path="url(#pc81848cb5a)" d="M 64.797487 62.531048 
L 89.684107 17.897436 
L 89.684107 17.897436 
" style="fill:none;stroke:#ff0000;stroke-linecap:square;stroke-width:2;"/>
   </g>
   <g id="line2d_3">
    <path clip-path="url(#pc81848cb5a)" d="M 313.663687 74.433344 
L 338.550307 29.799732 
L 338.550307 29.799732 
" style="fill:none;stroke:#ff0000;stroke-linecap:square;stroke-width:2;"/>
   </g>
   <g id="line2d_4">
    <path clip-path="url(#pc81848cb5a)" d="M 114.570727 60.547332 
L 139.457347 37.734597 
L 139.457347 37.734597 
" style="fill:none;stroke:#cbff00;stroke-linecap:square;stroke-width:2;"/>
   </g>
   <g id="line2d_5">
    <path clip-path="url(#pc81848cb5a)" d="M 263.890447 76.417061 
L 288.777067 53.604326 
L 288.777067 53.604326 
" style="fill:none;stroke:#cbff00;stroke-linecap:square;stroke-width:2;"/>
   </g>
   <g id="line2d_6">
    <path clip-path="url(#pc81848cb5a)" d="M 363.436927 50.628751 
L 388.323547 27.816016 
L 388.323547 27.816016 
" style="fill:none;stroke:#cbff00;stroke-linecap:square;stroke-width:2;"/>
   </g>
   <g id="line2d_7">
    <path clip-path="url(#pc81848cb5a)" d="M 512.756647 66.49848 
L 537.643267 43.685745 
L 537.643267 43.685745 
" style="fill:none;stroke:#cbff00;stroke-linecap:square;stroke-width:2;"/>
   </g>
   <g id="line2d_8">
    <path clip-path="url(#pc81848cb5a)" d="M 89.684107 17.897436 
L 114.570727 60.547332 
L 114.570727 60.547332 
" style="fill:none;stroke:#00ff66;stroke-linecap:square;stroke-width:2;"/>
   </g>
   <g id="line2d_9">
    <path clip-path="url(#pc81848cb5a)" d="M 537.643267 43.685745 
L 562.529887 86.335641 
L 562.529887 86.335641 
" style="fill:none;stroke:#00ff66;stroke-linecap:square;stroke-width:2;"/>
   </g>
   <g id="line2d_10">
    <path clip-path="url(#pc81848cb5a)" d="M 39.910867 41.702029 
L 64.797487 62.531048 
L 64.797487 62.531048 
" style="fill:none;stroke:#0066ff;stroke-linecap:square;stroke-width:2;"/>
   </g>
   <g id="line2d_11">
    <path clip-path="url(#pc81848cb5a)" d="M 164.343967 36.742739 
L 189.230587 57.571758 
L 189.230587 57.571758 
" style="fill:none;stroke:#0066ff;stroke-linecap:square;stroke-width:2;"/>
   </g>
   <g id="line2d_12">
    <path clip-path="url(#pc81848cb5a)" d="M 239.003827 55.588042 
L 263.890447 76.417061 
L 263.890447 76.417061 
" style="fill:none;stroke:#0066ff;stroke-linecap:square;stroke-width:2;"/>
   </g>
   <g id="line2d_13">
    <path clip-path="url(#pc81848cb5a)" d="M 288.777067 53.604326 
L 313.663687 74.433344 
L 313.663687 74.433344 
" style="fill:none;stroke:#0066ff;stroke-linecap:square;stroke-width:2;"/>
   </g>
   <g id="line2d_14">
    <path clip-path="url(#pc81848cb5a)" d="M 338.550307 29.799732 
L 363.436927 50.628751 
L 363.436927 50.628751 
" style="fill:none;stroke:#0066ff;stroke-linecap:square;stroke-width:2;"/>
   </g>
   <g id="line2d_15">
    <path clip-path="url(#pc81848cb5a)" d="M 388.323547 27.816016 
L 413.210167 48.645035 
L 413.210167 48.645035 
" style="fill:none;stroke:#0066ff;stroke-linecap:square;stroke-width:2;"/>
   </g>
   <g id="line2d_16">
    <path clip-path="url(#pc81848cb5a)" d="M 462.983407 46.661319 
L 487.870027 67.490338 
L 487.870027 67.490338 
" style="fill:none;stroke:#0066ff;stroke-linecap:square;stroke-width:2;"/>
   </g>
   <g id="line2d_17">
    <path clip-path="url(#pc81848cb5a)" d="M 139.457347 37.734597 
L 139.545208 37.731095 
L 139.75719 37.722647 
L 139.871352 37.718097 
L 139.921906 37.716082 
L 140.139907 37.707393 
L 140.266113 37.702363 
L 140.290875 37.701377 
L 140.517895 37.692329 
L 140.576422 37.689996 
L 140.764044 37.682518 
L 140.892175 37.677412 
L 141.000136 37.673109 
L 141.143394 37.667399 
L 141.268335 37.66242 
L 141.393467 37.657433 
L 141.417427 37.656478 
L 141.527027 37.65211 
L 141.757298 37.642932 
L 141.856604 37.638974 
L 141.950012 37.635252 
L 142.093051 37.629551 
L 142.18402 37.625925 
L 142.275428 37.622282 
L 142.407152 37.617032 
L 142.568995 37.610582 
L 142.686259 37.605908 
L 142.878924 37.59823 
L 142.904901 37.597194 
L 143.144673 37.587638 
L 143.183952 37.586073 
L 143.369534 37.578676 
L 143.504689 37.57329 
L 143.610818 37.56906 
L 143.700056 37.565503 
L 143.81257 37.561019 
L 143.937541 37.556038 
L 144.023323 37.55262 
L 144.25307 37.543463 
L 144.351889 37.539525 
L 144.475892 37.534582 
L 144.58133 37.53038 
L 144.737753 37.524146 
L 144.782554 37.52236 
L 144.93396 37.516326 
L 145.066844 37.51103 
L 145.22627 37.504676 
L 145.355821 37.499513 
L 145.432605 37.496453 
L 145.617153 37.489097 
L 145.662392 37.487294 
L 145.865315 37.479207 
L 145.923155 37.476902 
L 146.025278 37.472831 
L 146.180142 37.466659 
L 146.317039 37.461203 
L 146.407079 37.457615 
L 146.578613 37.450778 
L 146.772136 37.443065 
L 146.78553 37.442532 
L 146.91999 37.437173 
L 147.087311 37.430504 
L 147.23364 37.424672 
L 147.332906 37.420716 
L 147.514066 37.413496 
L 147.630666 37.408849 
L 147.722451 37.405191 
L 147.796739 37.40223 
L 147.912136 37.397631 
L 148.073621 37.391195 
L 148.227633 37.385056 
L 148.384713 37.378796 
L 148.441607 37.376529 
L 148.567034 37.37153 
" style="fill:none;stroke:#cc00ff;stroke-linecap:square;stroke-width:2;"/>
   </g>
   <g id="line2d_18">
    <path clip-path="url(#pc81848cb5a)" d="M 148.935766 37.356834 
L 149.068063 37.351561 
L 149.221595 37.345442 
L 149.329383 37.341146 
L 149.400726 37.338303 
L 149.630098 37.329161 
L 149.705328 37.326163 
L 149.887411 37.318906 
L 150.015915 37.313784 
L 150.122767 37.309526 
L 150.208762 37.306098 
L 150.361547 37.300009 
L 150.410326 37.298065 
L 150.613393 37.289972 
L 150.735548 37.285103 
L 150.850441 37.280524 
L 150.938927 37.276998 
L 151.125371 37.269567 
L 151.224066 37.265633 
L 151.324358 37.261636 
L 151.492143 37.254949 
L 151.544685 37.252855 
L 151.73862 37.245126 
L 151.836029 37.241244 
L 151.975839 37.235671 
L 152.080955 37.231482 
L 152.231432 37.225485 
L 152.357217 37.220472 
L 152.462192 37.216288 
L 152.540089 37.213183 
L 152.724349 37.20584 
L 152.858923 37.200476 
L 152.98095 37.195613 
L 153.087255 37.191376 
L 153.219215 37.186117 
L 153.331667 37.181635 
L 153.449808 37.176926 
L 153.589034 37.171377 
L 153.66075 37.168519 
L 153.809014 37.16261 
L 153.935844 37.157555 
L 154.118324 37.150283 
L 154.206257 37.146778 
L 154.386453 37.139596 
L 154.505853 37.134838 
L 154.622794 37.130177 
L 154.719833 37.126309 
L 154.834249 37.121749 
L 155.021485 37.114287 
L 155.040075 37.113546 
L 155.216039 37.106533 
L 155.289555 37.103603 
L 155.465469 37.096592 
L 155.641783 37.089565 
L 155.699103 37.08728 
L 155.798852 37.083305 
L 156.025488 37.074272 
L 156.028152 37.074166 
L 156.187702 37.067807 
L 156.293217 37.063602 
L 156.449872 37.057359 
L 156.570771 37.05254 
L 156.758867 37.045044 
L 156.845258 37.0416 
L 157.002675 37.035327 
L 157.107411 37.031152 
L 157.25306 37.025347 
L 157.336998 37.022002 
L 157.405895 37.019256 
L 157.609353 37.011147 
L 157.71011 37.007132 
L 157.792278 37.003857 
L 157.91246 36.999067 
L 158.119574 36.990812 
L 158.225289 36.986599 
L 158.381593 36.98037 
L 158.429681 36.978453 
L 158.62968 36.970482 
L 158.727186 36.966596 
L 158.824656 36.962711 
L 158.909568 36.959327 
L 159.12012 36.950936 
L 159.268494 36.945022 
L 159.345508 36.941953 
L 159.449055 36.937826 
L 159.631696 36.930547 
L 159.732216 36.92654 
L 159.89768 36.919946 
L 160.02009 36.915067 
L 160.037215 36.914385 
L 160.235812 36.90647 
L 160.329663 36.902729 
L 160.507144 36.895656 
L 160.573301 36.893019 
L 160.716975 36.887293 
L 160.817184 36.883299 
L 160.937148 36.878518 
L 161.044513 36.874239 
L 161.192574 36.868338 
L 161.285092 36.86465 
L 161.488776 36.856533 
L 161.60142 36.852043 
L 161.663466 36.84957 
L 161.839927 36.842538 
L 161.959023 36.837791 
L 162.097433 36.832275 
L 162.172134 36.829297 
L 162.316046 36.823562 
L 162.502564 36.816128 
L 162.558251 36.813909 
L 162.756057 36.806025 
L 162.815959 36.803638 
L 162.973196 36.797371 
L 163.13607 36.79088 
L 163.220369 36.78752 
L 163.31136 36.783893 
L 163.456022 36.778128 
L 163.556033 36.774142 
L 163.678818 36.769248 
L 163.89507 36.76063 
L 163.949701 36.758452 
L 164.08836 36.752926 
L 164.217967 36.747761 
L 164.343967 36.742739 
" style="fill:none;stroke:#cc00ff;stroke-linecap:square;stroke-width:2;"/>
   </g>
   <g id="line2d_19">
    <path clip-path="url(#pc81848cb5a)" d="M 189.230587 57.571758 
L 239.003827 55.588042 
L 239.003827 55.588042 
" style="fill:none;stroke:#cc00ff;stroke-linecap:square;stroke-width:2;"/>
   </g>
   <g id="line2d_20">
    <path clip-path="url(#pc81848cb5a)" d="M 413.210167 48.645035 
L 462.983407 46.661319 
L 462.983407 46.661319 
" style="fill:none;stroke:#cc00ff;stroke-linecap:square;stroke-width:2;"/>
   </g>
   <g id="line2d_21">
    <path clip-path="url(#pc81848cb5a)" d="M 487.870027 67.490338 
L 512.756647 66.49848 
L 512.756647 66.49848 
" style="fill:none;stroke:#cc00ff;stroke-linecap:square;stroke-width:2;"/>
   </g>
   <g id="matplotlib.axis_1">
    <g id="xtick_1">
     <g id="line2d_22">
      <path clip-path="url(#pc81848cb5a)" d="M 15.024247 87.704405 
L 15.024247 16.528672 
" style="fill:none;stroke:#000000;stroke-dasharray:0.5,0.825;stroke-dashoffset:0;stroke-width:0.5;"/>
     </g>
     <g id="line2d_23">
      <defs>
       <path d="M 0 0 
L 0 3.5 
" id="m481b315d37" style="stroke:#000000;stroke-width:0.8;"/>
      </defs>
      <g>
       <use style="stroke:#000000;stroke-width:0.8;" x="15.024247" xlink:href="#m481b315d37" y="86.335641"/>
      </g>
     </g>
    </g>
    <g id="xtick_2">
     <g id="line2d_24">
      <path clip-path="url(#pc81848cb5a)" d="M 89.684107 87.704405 
L 89.684107 16.528672 
" style="fill:none;stroke:#000000;stroke-dasharray:0.5,0.825;stroke-dashoffset:0;stroke-width:0.5;"/>
     </g>
     <g id="line2d_25">
      <g>
       <use style="stroke:#000000;stroke-width:0.8;" x="89.684107" xlink:href="#m481b315d37" y="86.335641"/>
      </g>
     </g>
     <g id="text_1">
      <!-- $f$ -->
      <defs>
       <path d="M 9.71875 -16.5 
Q 11.578125 -17.921875 14.203125 -17.921875 
Q 17.78125 -17.921875 20.015625 -10.015625 
Q 20.953125 -6.203125 25.09375 15.09375 
L 29.6875 39.59375 
L 21.09375 39.59375 
Q 20.125 39.59375 20.125 40.921875 
Q 20.515625 43.109375 21.390625 43.109375 
L 30.328125 43.109375 
L 31.5 49.609375 
Q 32.078125 52.640625 32.5625 54.8125 
Q 33.0625 56.984375 33.625 58.828125 
Q 34.1875 60.6875 35.296875 62.984375 
Q 37.015625 66.265625 39.921875 68.390625 
Q 42.828125 70.515625 46.1875 70.515625 
Q 48.390625 70.515625 50.46875 69.703125 
Q 52.546875 68.890625 53.859375 67.28125 
Q 55.171875 65.671875 55.171875 63.484375 
Q 55.171875 60.9375 53.484375 59.046875 
Q 51.8125 57.171875 49.421875 57.171875 
Q 47.796875 57.171875 46.65625 58.171875 
Q 45.515625 59.1875 45.515625 60.796875 
Q 45.515625 62.984375 47 64.625 
Q 48.484375 66.265625 50.6875 66.5 
Q 48.828125 67.921875 46.09375 67.921875 
Q 44.578125 67.921875 43.234375 66.5 
Q 41.890625 65.09375 41.5 63.484375 
Q 40.875 60.9375 38.71875 49.703125 
L 37.5 43.109375 
L 47.796875 43.109375 
Q 48.78125 43.109375 48.78125 41.796875 
Q 48.734375 41.546875 48.578125 40.9375 
Q 48.4375 40.328125 48.171875 39.953125 
Q 47.90625 39.59375 47.515625 39.59375 
L 36.8125 39.59375 
L 32.171875 15.1875 
Q 31.296875 9.859375 30.140625 4.359375 
Q 29 -1.125 26.921875 -6.90625 
Q 24.859375 -12.703125 21.625 -16.609375 
Q 18.40625 -20.515625 14.015625 -20.515625 
Q 10.640625 -20.515625 7.984375 -18.578125 
Q 5.328125 -16.65625 5.328125 -13.484375 
Q 5.328125 -10.9375 6.953125 -9.046875 
Q 8.59375 -7.171875 11.078125 -7.171875 
Q 12.75 -7.171875 13.859375 -8.171875 
Q 14.984375 -9.1875 14.984375 -10.796875 
Q 14.984375 -12.9375 13.390625 -14.71875 
Q 11.8125 -16.5 9.71875 -16.5 
z
" id="Cmmi10-66"/>
      </defs>
      <g transform="translate(87.234107 100.913766)scale(0.1 -0.1)">
       <use transform="translate(0 0.484375)" xlink:href="#Cmmi10-66"/>
      </g>
     </g>
    </g>
    <g id="xtick_3">
     <g id="line2d_26">
      <path clip-path="url(#pc81848cb5a)" d="M 562.529887 87.704405 
L 562.529887 16.528672 
" style="fill:none;stroke:#000000;stroke-dasharray:0.5,0.825;stroke-dashoffset:0;stroke-width:0.5;"/>
     </g>
     <g id="line2d_27">
      <g>
       <use style="stroke:#000000;stroke-width:0.8;" x="562.529887" xlink:href="#m481b315d37" y="86.335641"/>
      </g>
     </g>
     <g id="text_2">
      <!-- $1$ -->
      <defs>
       <path d="M 9.28125 0 
L 9.28125 3.515625 
Q 21.78125 3.515625 21.78125 6.6875 
L 21.78125 59.1875 
Q 16.609375 56.6875 8.6875 56.6875 
L 8.6875 60.203125 
Q 20.953125 60.203125 27.203125 66.609375 
L 28.609375 66.609375 
Q 28.953125 66.609375 29.265625 66.328125 
Q 29.59375 66.0625 29.59375 65.71875 
L 29.59375 6.6875 
Q 29.59375 3.515625 42.09375 3.515625 
L 42.09375 0 
z
" id="Cmr10-31"/>
      </defs>
      <g transform="translate(560.029887 100.934078)scale(0.1 -0.1)">
       <use transform="translate(0 0.390625)" xlink:href="#Cmr10-31"/>
      </g>
     </g>
    </g>
   </g>
   <g id="matplotlib.axis_2">
    <g id="ytick_1">
     <g id="line2d_28">
      <path clip-path="url(#pc81848cb5a)" d="M 4.074135 86.335641 
L 573.48 86.335641 
" style="fill:none;stroke:#000000;stroke-dasharray:0.5,0.825;stroke-dashoffset:0;stroke-width:0.5;"/>
     </g>
     <g id="line2d_29">
      <defs>
       <path d="M 0 0 
L -3.5 0 
" id="m22dd757b8b" style="stroke:#000000;stroke-width:0.8;"/>
      </defs>
      <g>
       <use style="stroke:#000000;stroke-width:0.8;" x="15.024247" xlink:href="#m22dd757b8b" y="86.335641"/>
      </g>
     </g>
    </g>
    <g id="ytick_2">
     <g id="line2d_30">
      <path clip-path="url(#pc81848cb5a)" d="M 4.074135 17.897436 
L 573.48 17.897436 
" style="fill:none;stroke:#000000;stroke-dasharray:0.5,0.825;stroke-dashoffset:0;stroke-width:0.5;"/>
     </g>
     <g id="line2d_31">
      <g>
       <use style="stroke:#000000;stroke-width:0.8;" x="15.024247" xlink:href="#m22dd757b8b" y="17.897436"/>
      </g>
     </g>
     <g id="text_3">
      <!-- $1$ -->
      <g transform="translate(3.024247 21.696655)scale(0.1 -0.1)">
       <use transform="translate(0 0.390625)" xlink:href="#Cmr10-31"/>
      </g>
     </g>
    </g>
   </g>
   <g id="patch_3">
    <path d="M 15.024247 87.704405 
L 15.024247 16.528672 
" style="fill:none;stroke:#000000;stroke-linecap:square;stroke-linejoin:miter;stroke-width:0.8;"/>
   </g>
   <g id="patch_4">
    <path d="M 4.074135 86.335641 
L 573.48 86.335641 
" style="fill:none;stroke:#000000;stroke-linecap:square;stroke-linejoin:miter;stroke-width:0.8;"/>
   </g>
  </g>
 </g>
 <defs>
  <clipPath id="pc81848cb5a">
   <rect height="71.175733" width="569.405865" x="4.074135" y="16.528672"/>
  </clipPath>
 </defs>
</svg>
