<?xml version="1.0" encoding="utf-8" standalone="no"?>
<!DOCTYPE svg PUBLIC "-//W3C//DTD SVG 1.1//EN"
  "http://www.w3.org/Graphics/SVG/1.1/DTD/svg11.dtd">
<!-- Created with matplotlib (http://matplotlib.org/) -->
<svg height="108pt" version="1.1" viewBox="0 0 576 108" width="576pt" xmlns="http://www.w3.org/2000/svg" xmlns:xlink="http://www.w3.org/1999/xlink">
 <defs>
  <style type="text/css">
*{stroke-linecap:butt;stroke-linejoin:round;}
  </style>
 </defs>
 <g id="figure_1">
  <g id="patch_1">
   <path d="M 0 108 
L 576 108 
L 576 0 
L 0 0 
z
" style="fill:#ffffff;"/>
  </g>
  <g id="axes_1">
   <g id="patch_2">
    <path d="M 4.074135 87.704405 
L 573.48 87.704405 
L 573.48 16.528672 
L 4.074135 16.528672 
z
" style="fill:#ffffff;"/>
   </g>
   <g id="line2d_1">
    <path clip-path="url(#pf061730318)" d="M 15.024247 86.335641 
L 88.278827 63.538968 
L 88.278827 63.538968 
" style="fill:none;stroke:#ff0000;stroke-linecap:square;"/>
   </g>
   <g id="line2d_2">
    <path clip-path="url(#pf061730318)" d="M 97.150093 69.08351 
L 99.000495 68.507669 
L 99.000495 68.507669 
" style="fill:none;stroke:#ff0000;stroke-linecap:square;"/>
   </g>
   <g id="line2d_3">
    <path clip-path="url(#pf061730318)" d="M 99.887622 69.062123 
L 102.504485 68.247761 
L 102.504485 68.247761 
" style="fill:none;stroke:#ff0000;stroke-linecap:square;"/>
   </g>
   <g id="line2d_4">
    <path clip-path="url(#pf061730318)" d="M 103.759071 69.031877 
L 162.913637 50.6231 
L 162.913637 50.6231 
" style="fill:none;stroke:#ff0000;stroke-linecap:square;"/>
   </g>
   <g id="line2d_5">
    <path clip-path="url(#pf061730318)" d="M 206.651221 60.635669 
L 261.401785 43.597408 
L 261.401785 43.597408 
" style="fill:none;stroke:#ff0000;stroke-linecap:square;"/>
   </g>
   <g id="line2d_6">
    <path clip-path="url(#pf061730318)" d="M 305.139369 53.609977 
L 364.293936 35.201199 
L 364.293936 35.201199 
" style="fill:none;stroke:#ff0000;stroke-linecap:square;"/>
   </g>
   <g id="line2d_7">
    <path clip-path="url(#pf061730318)" d="M 365.548522 35.985316 
L 368.165385 35.170954 
L 368.165385 35.170954 
" style="fill:none;stroke:#ff0000;stroke-linecap:square;"/>
   </g>
   <g id="line2d_8">
    <path clip-path="url(#pf061730318)" d="M 369.052512 35.725408 
L 370.902913 35.149567 
L 370.902913 35.149567 
" style="fill:none;stroke:#ff0000;stroke-linecap:square;"/>
   </g>
   <g id="line2d_9">
    <path clip-path="url(#pf061730318)" d="M 379.77418 40.694108 
L 453.028759 17.897436 
L 453.028759 17.897436 
" style="fill:none;stroke:#ff0000;stroke-linecap:square;"/>
   </g>
   <g id="line2d_10">
    <path clip-path="url(#pf061730318)" d="M 88.278827 63.538968 
L 97.150093 69.08351 
L 97.150093 69.08351 
" style="fill:none;stroke:#00ff00;stroke-linecap:square;"/>
   </g>
   <g id="line2d_11">
    <path clip-path="url(#pf061730318)" d="M 99.000495 68.507669 
L 99.887622 69.062123 
L 99.887622 69.062123 
" style="fill:none;stroke:#00ff00;stroke-linecap:square;"/>
   </g>
   <g id="line2d_12">
    <path clip-path="url(#pf061730318)" d="M 102.504485 68.247761 
L 103.759071 69.031877 
L 103.759071 69.031877 
" style="fill:none;stroke:#00ff00;stroke-linecap:square;"/>
   </g>
   <g id="line2d_13">
    <path clip-path="url(#pf061730318)" d="M 162.913637 50.6231 
L 179.275939 60.849539 
L 179.275939 60.849539 
" style="fill:none;stroke:#00ff00;stroke-linecap:square;"/>
   </g>
   <g id="line2d_14">
    <path clip-path="url(#pf061730318)" d="M 288.777067 43.383538 
L 305.139369 53.609977 
L 305.139369 53.609977 
" style="fill:none;stroke:#00ff00;stroke-linecap:square;"/>
   </g>
   <g id="line2d_15">
    <path clip-path="url(#pf061730318)" d="M 364.293936 35.201199 
L 365.548522 35.985316 
L 365.548522 35.985316 
" style="fill:none;stroke:#00ff00;stroke-linecap:square;"/>
   </g>
   <g id="line2d_16">
    <path clip-path="url(#pf061730318)" d="M 368.165385 35.170954 
L 369.052512 35.725408 
L 369.052512 35.725408 
" style="fill:none;stroke:#00ff00;stroke-linecap:square;"/>
   </g>
   <g id="line2d_17">
    <path clip-path="url(#pf061730318)" d="M 370.902913 35.149567 
L 379.77418 40.694108 
L 379.77418 40.694108 
" style="fill:none;stroke:#00ff00;stroke-linecap:square;"/>
   </g>
   <g id="line2d_18">
    <path clip-path="url(#pf061730318)" d="M 453.028759 17.897436 
L 562.529887 86.335641 
L 562.529887 86.335641 
" style="fill:none;stroke:#00ff00;stroke-linecap:square;"/>
   </g>
   <g id="line2d_19">
    <path clip-path="url(#pf061730318)" d="M 179.275939 60.849539 
L 179.348575 60.848971 
L 179.521027 60.847624 
L 179.63402 60.846741 
L 179.807965 60.845382 
L 179.991802 60.843946 
L 180.069326 60.84334 
L 180.267196 60.841794 
L 180.390069 60.840834 
L 180.554941 60.839546 
L 180.610934 60.839109 
L 180.779288 60.837794 
L 180.876752 60.837032 
L 181.06889 60.835531 
L 181.213274 60.834403 
L 181.288879 60.833812 
L 181.545128 60.831811 
L 181.618282 60.831239 
L 181.808418 60.829754 
L 181.871908 60.829258 
L 182.042296 60.827926 
L 182.127895 60.827258 
L 182.281952 60.826054 
L 182.415549 60.82501 
L 182.566832 60.823828 
L 182.762736 60.822298 
L 182.796199 60.822037 
L 182.941655 60.8209 
L 183.158068 60.819209 
L 183.251409 60.81848 
L 183.355273 60.817669 
L 183.501518 60.816526 
L 183.639243 60.81545 
L 183.821161 60.814029 
L 183.910771 60.813329 
L 184.03923 60.812325 
L 184.187057 60.81117 
L 184.317872 60.810148 
L 184.534615 60.808455 
L 184.668207 60.807411 
L 184.725882 60.806961 
L 184.944555 60.805253 
L 185.043266 60.804481 
L 185.162743 60.803548 
L 185.338362 60.802176 
L 185.448586 60.801315 
L 185.610045 60.800053 
L 185.803711 60.79854 
L 185.830502 60.798331 
L 185.974771 60.797204 
L 186.139568 60.795916 
L 186.240902 60.795125 
L 186.448397 60.793504 
L 186.550289 60.792708 
L 186.73799 60.791241 
L 186.785786 60.790868 
L 186.958771 60.789516 
L 187.139242 60.788107 
L 187.197673 60.78765 
L 187.344251 60.786505 
L 187.48587 60.785398 
L 187.613035 60.784405 
L 187.85048 60.78255 
L 187.887945 60.782257 
L 188.135427 60.780324 
L 188.188559 60.779909 
L 188.381348 60.778403 
L 188.500658 60.77747 
L 188.626362 60.776488 
L 188.789296 60.775215 
L 188.912827 60.77425 
L 188.975989 60.773757 
L 189.164283 60.772286 
L 189.329152 60.770998 
L 189.522688 60.769486 
L 189.560201 60.769193 
L 189.722206 60.767927 
L 189.833031 60.767061 
L 189.948977 60.766155 
L 190.131919 60.764726 
L 190.339761 60.763102 
L 190.413863 60.762524 
L 190.608438 60.761003 
L 190.761479 60.759808 
L 190.844142 60.759162 
L 191.027783 60.757727 
L 191.063395 60.757449 
L 191.306196 60.755552 
L 191.346068 60.755241 
L 191.528684 60.753814 
L 191.651171 60.752857 
L 191.749675 60.752088 
L 191.908689 60.750845 
L 192.0444 60.749785 
L 192.264804 60.748063 
L 192.353892 60.747367 
L 192.5331 60.745967 
L 192.608976 60.745374 
L 192.736201 60.74438 
L 192.857377 60.743434 
L 192.992085 60.742381 
L 193.1834 60.740887 
L 193.364757 60.73947 
L 193.419976 60.739038 
L 193.584161 60.737756 
L 193.735326 60.736575 
L 193.792527 60.736128 
L 194.03917 60.734201 
L 194.118704 60.733579 
L 194.262631 60.732455 
L 194.37515 60.731576 
L 194.499053 60.730608 
L 194.687068 60.729139 
L 194.797476 60.728277 
L 194.920454 60.727316 
L 195.106736 60.72586 
L 195.179537 60.725292 
L 195.420135 60.723412 
L 195.478185 60.722959 
L 195.670981 60.721452 
L 195.842636 60.720111 
L 195.857493 60.719995 
L 196.061337 60.718403 
L 196.168428 60.717566 
L 196.341368 60.716215 
L 196.491039 60.715046 
L 196.56522 60.714466 
" style="fill:none;stroke:#0000ff;stroke-linecap:square;"/>
   </g>
   <g id="line2d_20">
    <path clip-path="url(#pf061730318)" d="M 197.055137 60.710639 
L 197.114678 60.710173 
L 197.263882 60.709008 
L 197.373609 60.708151 
L 197.569997 60.706616 
L 197.644908 60.706031 
L 197.832519 60.704565 
L 198.038132 60.702959 
L 198.125027 60.70228 
L 198.288816 60.701 
L 198.3362 60.70063 
L 198.491002 60.699421 
L 198.694129 60.697834 
L 198.773493 60.697214 
L 198.960464 60.695753 
L 199.103811 60.694633 
L 199.165134 60.694154 
L 199.39004 60.692397 
L 199.482461 60.691675 
L 199.588507 60.690847 
L 199.716994 60.689843 
L 199.898305 60.688426 
L 199.986319 60.687739 
L 200.199801 60.686071 
L 200.329704 60.685056 
L 200.481489 60.68387 
L 200.559239 60.683263 
L 200.702256 60.682145 
L 200.932625 60.680346 
L 201.031594 60.679573 
L 201.120625 60.678877 
L 201.279461 60.677636 
L 201.463582 60.676198 
L 201.544252 60.675567 
L 201.655321 60.6747 
L 201.857082 60.673123 
L 201.905974 60.672741 
L 202.062471 60.671519 
L 202.195135 60.670482 
L 202.366493 60.669144 
L 202.489097 60.668186 
L 202.704458 60.666503 
L 202.837725 60.665462 
L 202.92605 60.664772 
L 203.018881 60.664047 
L 203.255179 60.662201 
L 203.283924 60.661976 
L 203.47194 60.660507 
L 203.561275 60.659809 
L 203.818336 60.657801 
L 203.897428 60.657183 
L 203.994046 60.656428 
L 204.192367 60.654879 
L 204.282013 60.654179 
L 204.439334 60.65295 
L 204.523783 60.65229 
L 204.758224 60.650458 
L 204.917678 60.649212 
L 204.961794 60.648868 
L 205.195187 60.647044 
L 205.282351 60.646363 
L 205.372326 60.645661 
L 205.53993 60.644351 
L 205.756388 60.64266 
L 205.814582 60.642205 
L 205.947813 60.641165 
L 206.040709 60.640439 
L 206.301617 60.6384 
L 206.4415 60.637308 
L 206.533329 60.63659 
L 206.651221 60.635669 
" style="fill:none;stroke:#0000ff;stroke-linecap:square;"/>
   </g>
   <g id="line2d_21">
    <path clip-path="url(#pf061730318)" d="M 261.401785 43.597408 
L 288.777067 43.383538 
L 288.777067 43.383538 
" style="fill:none;stroke:#0000ff;stroke-linecap:square;"/>
   </g>
   <g id="matplotlib.axis_1">
    <g id="xtick_1">
     <g id="line2d_22">
      <path clip-path="url(#pf061730318)" d="M 15.024247 87.704405 
L 15.024247 16.528672 
" style="fill:none;stroke:#000000;stroke-dasharray:0.5,0.825;stroke-dashoffset:0;stroke-width:0.5;"/>
     </g>
     <g id="line2d_23">
      <defs>
       <path d="M 0 0 
L 0 3.5 
" id="m472e6290aa" style="stroke:#000000;stroke-width:0.8;"/>
      </defs>
      <g>
       <use style="stroke:#000000;stroke-width:0.8;" x="15.024247" xlink:href="#m472e6290aa" y="86.335641"/>
      </g>
     </g>
    </g>
    <g id="xtick_2">
     <g id="line2d_24">
      <path clip-path="url(#pf061730318)" d="M 453.028759 87.704405 
L 453.028759 16.528672 
" style="fill:none;stroke:#000000;stroke-dasharray:0.5,0.825;stroke-dashoffset:0;stroke-width:0.5;"/>
     </g>
     <g id="line2d_25">
      <g>
       <use style="stroke:#000000;stroke-width:0.8;" x="453.028759" xlink:href="#m472e6290aa" y="86.335641"/>
      </g>
     </g>
     <g id="text_1">
      <!-- $f$ -->
      <defs>
       <path d="M 9.71875 -16.5 
Q 11.578125 -17.921875 14.203125 -17.921875 
Q 17.78125 -17.921875 20.015625 -10.015625 
Q 20.953125 -6.203125 25.09375 15.09375 
L 29.6875 39.59375 
L 21.09375 39.59375 
Q 20.125 39.59375 20.125 40.921875 
Q 20.515625 43.109375 21.390625 43.109375 
L 30.328125 43.109375 
L 31.5 49.609375 
Q 32.078125 52.640625 32.5625 54.8125 
Q 33.0625 56.984375 33.625 58.828125 
Q 34.1875 60.6875 35.296875 62.984375 
Q 37.015625 66.265625 39.921875 68.390625 
Q 42.828125 70.515625 46.1875 70.515625 
Q 48.390625 70.515625 50.46875 69.703125 
Q 52.546875 68.890625 53.859375 67.28125 
Q 55.171875 65.671875 55.171875 63.484375 
Q 55.171875 60.9375 53.484375 59.046875 
Q 51.8125 57.171875 49.421875 57.171875 
Q 47.796875 57.171875 46.65625 58.171875 
Q 45.515625 59.1875 45.515625 60.796875 
Q 45.515625 62.984375 47 64.625 
Q 48.484375 66.265625 50.6875 66.5 
Q 48.828125 67.921875 46.09375 67.921875 
Q 44.578125 67.921875 43.234375 66.5 
Q 41.890625 65.09375 41.5 63.484375 
Q 40.875 60.9375 38.71875 49.703125 
L 37.5 43.109375 
L 47.796875 43.109375 
Q 48.78125 43.109375 48.78125 41.796875 
Q 48.734375 41.546875 48.578125 40.9375 
Q 48.4375 40.328125 48.171875 39.953125 
Q 47.90625 39.59375 47.515625 39.59375 
L 36.8125 39.59375 
L 32.171875 15.1875 
Q 31.296875 9.859375 30.140625 4.359375 
Q 29 -1.125 26.921875 -6.90625 
Q 24.859375 -12.703125 21.625 -16.609375 
Q 18.40625 -20.515625 14.015625 -20.515625 
Q 10.640625 -20.515625 7.984375 -18.578125 
Q 5.328125 -16.65625 5.328125 -13.484375 
Q 5.328125 -10.9375 6.953125 -9.046875 
Q 8.59375 -7.171875 11.078125 -7.171875 
Q 12.75 -7.171875 13.859375 -8.171875 
Q 14.984375 -9.1875 14.984375 -10.796875 
Q 14.984375 -12.9375 13.390625 -14.71875 
Q 11.8125 -16.5 9.71875 -16.5 
z
" id="Cmmi10-66"/>
      </defs>
      <g transform="translate(450.578759 100.913766)scale(0.1 -0.1)">
       <use transform="translate(0 0.484375)" xlink:href="#Cmmi10-66"/>
      </g>
     </g>
    </g>
    <g id="xtick_3">
     <g id="line2d_26">
      <path clip-path="url(#pf061730318)" d="M 562.529887 87.704405 
L 562.529887 16.528672 
" style="fill:none;stroke:#000000;stroke-dasharray:0.5,0.825;stroke-dashoffset:0;stroke-width:0.5;"/>
     </g>
     <g id="line2d_27">
      <g>
       <use style="stroke:#000000;stroke-width:0.8;" x="562.529887" xlink:href="#m472e6290aa" y="86.335641"/>
      </g>
     </g>
     <g id="text_2">
      <!-- $1$ -->
      <defs>
       <path d="M 9.28125 0 
L 9.28125 3.515625 
Q 21.78125 3.515625 21.78125 6.6875 
L 21.78125 59.1875 
Q 16.609375 56.6875 8.6875 56.6875 
L 8.6875 60.203125 
Q 20.953125 60.203125 27.203125 66.609375 
L 28.609375 66.609375 
Q 28.953125 66.609375 29.265625 66.328125 
Q 29.59375 66.0625 29.59375 65.71875 
L 29.59375 6.6875 
Q 29.59375 3.515625 42.09375 3.515625 
L 42.09375 0 
z
" id="Cmr10-31"/>
      </defs>
      <g transform="translate(560.029887 100.934078)scale(0.1 -0.1)">
       <use transform="translate(0 0.390625)" xlink:href="#Cmr10-31"/>
      </g>
     </g>
    </g>
   </g>
   <g id="matplotlib.axis_2">
    <g id="ytick_1">
     <g id="line2d_28">
      <path clip-path="url(#pf061730318)" d="M 4.074135 86.335641 
L 573.48 86.335641 
" style="fill:none;stroke:#000000;stroke-dasharray:0.5,0.825;stroke-dashoffset:0;stroke-width:0.5;"/>
     </g>
     <g id="line2d_29">
      <defs>
       <path d="M 0 0 
L -3.5 0 
" id="m94fb06f009" style="stroke:#000000;stroke-width:0.8;"/>
      </defs>
      <g>
       <use style="stroke:#000000;stroke-width:0.8;" x="15.024247" xlink:href="#m94fb06f009" y="86.335641"/>
      </g>
     </g>
    </g>
    <g id="ytick_2">
     <g id="line2d_30">
      <path clip-path="url(#pf061730318)" d="M 4.074135 17.897436 
L 573.48 17.897436 
" style="fill:none;stroke:#000000;stroke-dasharray:0.5,0.825;stroke-dashoffset:0;stroke-width:0.5;"/>
     </g>
     <g id="line2d_31">
      <g>
       <use style="stroke:#000000;stroke-width:0.8;" x="15.024247" xlink:href="#m94fb06f009" y="17.897436"/>
      </g>
     </g>
     <g id="text_3">
      <!-- $1$ -->
      <g transform="translate(3.024247 21.696655)scale(0.1 -0.1)">
       <use transform="translate(0 0.390625)" xlink:href="#Cmr10-31"/>
      </g>
     </g>
    </g>
   </g>
   <g id="patch_3">
    <path d="M 15.024247 87.704405 
L 15.024247 16.528672 
" style="fill:none;stroke:#000000;stroke-linecap:square;stroke-linejoin:miter;stroke-width:0.8;"/>
   </g>
   <g id="patch_4">
    <path d="M 4.074135 86.335641 
L 573.48 86.335641 
" style="fill:none;stroke:#000000;stroke-linecap:square;stroke-linejoin:miter;stroke-width:0.8;"/>
   </g>
  </g>
 </g>
 <defs>
  <clipPath id="pf061730318">
   <rect height="71.175733" width="569.405865" x="4.074135" y="16.528672"/>
  </clipPath>
 </defs>
</svg>
