<?xml version="1.0" encoding="utf-8" standalone="no"?>
<!DOCTYPE svg PUBLIC "-//W3C//DTD SVG 1.1//EN"
  "http://www.w3.org/Graphics/SVG/1.1/DTD/svg11.dtd">
<!-- Created with matplotlib (http://matplotlib.org/) -->
<svg height="108pt" version="1.1" viewBox="0 0 576 108" width="576pt" xmlns="http://www.w3.org/2000/svg" xmlns:xlink="http://www.w3.org/1999/xlink">
 <defs>
  <style type="text/css">
*{stroke-linecap:butt;stroke-linejoin:round;}
  </style>
 </defs>
 <g id="figure_1">
  <g id="patch_1">
   <path d="M 0 108 
L 576 108 
L 576 0 
L 0 0 
z
" style="fill:#ffffff;"/>
  </g>
  <g id="axes_1">
   <g id="patch_2">
    <path d="M 4.074135 87.704405 
L 573.48 87.704405 
L 573.48 16.528672 
L 4.074135 16.528672 
z
" style="fill:#ffffff;"/>
   </g>
   <g id="line2d_1">
    <path clip-path="url(#p9ca5265419)" d="M 71.662762 71.818446 
L 90.542267 46.931826 
L 90.542267 46.931826 
" style="fill:none;stroke:#ff0000;stroke-linecap:square;stroke-width:2;"/>
   </g>
   <g id="line2d_2">
    <path clip-path="url(#p9ca5265419)" d="M 128.301276 57.301251 
L 147.180781 32.414631 
L 147.180781 32.414631 
" style="fill:none;stroke:#ff0000;stroke-linecap:square;stroke-width:2;"/>
   </g>
   <g id="line2d_3">
    <path clip-path="url(#p9ca5265419)" d="M 317.096325 69.053266 
L 335.975829 44.166646 
L 335.975829 44.166646 
" style="fill:none;stroke:#ff0000;stroke-linecap:square;stroke-width:2;"/>
   </g>
   <g id="line2d_4">
    <path clip-path="url(#p9ca5265419)" d="M 430.373353 60.066431 
L 449.252858 35.179811 
L 449.252858 35.179811 
" style="fill:none;stroke:#ff0000;stroke-linecap:square;stroke-width:2;"/>
   </g>
   <g id="line2d_5">
    <path clip-path="url(#p9ca5265419)" d="M 15.024247 86.335641 
L 33.903752 41.401466 
L 33.903752 41.401466 
" style="fill:none;stroke:#ffda00;stroke-linecap:square;stroke-width:2;"/>
   </g>
   <g id="line2d_6">
    <path clip-path="url(#p9ca5265419)" d="M 184.939791 62.831611 
L 203.819296 17.897436 
L 203.819296 17.897436 
" style="fill:none;stroke:#ffda00;stroke-linecap:square;stroke-width:2;"/>
   </g>
   <g id="line2d_7">
    <path clip-path="url(#p9ca5265419)" d="M 373.734839 74.583626 
L 392.614344 29.649451 
L 392.614344 29.649451 
" style="fill:none;stroke:#ffda00;stroke-linecap:square;stroke-width:2;"/>
   </g>
   <g id="line2d_8">
    <path clip-path="url(#p9ca5265419)" d="M 222.6988 53.153481 
L 241.578305 68.361971 
L 241.578305 68.361971 
" style="fill:none;stroke:#48ff00;stroke-linecap:square;stroke-width:2;"/>
   </g>
   <g id="line2d_9">
    <path clip-path="url(#p9ca5265419)" d="M 298.21682 53.844776 
L 317.096325 69.053266 
L 317.096325 69.053266 
" style="fill:none;stroke:#48ff00;stroke-linecap:square;stroke-width:2;"/>
   </g>
   <g id="line2d_10">
    <path clip-path="url(#p9ca5265419)" d="M 449.252858 35.179811 
L 468.132363 50.388301 
L 468.132363 50.388301 
" style="fill:none;stroke:#48ff00;stroke-linecap:square;stroke-width:2;"/>
   </g>
   <g id="line2d_11">
    <path clip-path="url(#p9ca5265419)" d="M 524.770878 35.871106 
L 543.650382 51.079596 
L 543.650382 51.079596 
" style="fill:none;stroke:#48ff00;stroke-linecap:square;stroke-width:2;"/>
   </g>
   <g id="line2d_12">
    <path clip-path="url(#p9ca5265419)" d="M 203.819296 17.897436 
L 222.6988 53.153481 
L 222.6988 53.153481 
" style="fill:none;stroke:#00ff91;stroke-linecap:square;stroke-width:2;"/>
   </g>
   <g id="line2d_13">
    <path clip-path="url(#p9ca5265419)" d="M 543.650382 51.079596 
L 562.529887 86.335641 
L 562.529887 86.335641 
" style="fill:none;stroke:#00ff91;stroke-linecap:square;stroke-width:2;"/>
   </g>
   <g id="line2d_14">
    <path clip-path="url(#p9ca5265419)" d="M 52.783257 66.633733 
L 71.662762 71.818446 
L 71.662762 71.818446 
" style="fill:none;stroke:#0091ff;stroke-linecap:square;stroke-width:2;"/>
   </g>
   <g id="line2d_15">
    <path clip-path="url(#p9ca5265419)" d="M 90.542267 46.931826 
L 128.301276 57.301251 
L 128.301276 57.301251 
" style="fill:none;stroke:#0091ff;stroke-linecap:square;stroke-width:2;"/>
   </g>
   <g id="line2d_16">
    <path clip-path="url(#p9ca5265419)" d="M 147.180781 32.414631 
L 166.060286 37.599343 
L 166.060286 37.599343 
" style="fill:none;stroke:#0091ff;stroke-linecap:square;stroke-width:2;"/>
   </g>
   <g id="line2d_17">
    <path clip-path="url(#p9ca5265419)" d="M 335.975829 44.166646 
L 354.855334 49.351358 
L 354.855334 49.351358 
" style="fill:none;stroke:#0091ff;stroke-linecap:square;stroke-width:2;"/>
   </g>
   <g id="line2d_18">
    <path clip-path="url(#p9ca5265419)" d="M 411.493849 54.881718 
L 430.373353 60.066431 
L 430.373353 60.066431 
" style="fill:none;stroke:#0091ff;stroke-linecap:square;stroke-width:2;"/>
   </g>
   <g id="line2d_19">
    <path clip-path="url(#p9ca5265419)" d="M 241.578305 68.361971 
L 241.783925 68.309268 
L 242.174299 68.20921 
L 242.345679 68.165283 
L 242.840069 68.038564 
L 242.887011 68.026533 
L 243.282117 67.925262 
L 243.538441 67.859562 
L 243.803405 67.791649 
L 244.214619 67.686249 
L 244.491905 67.615177 
L 244.85051 67.523262 
L 245.024651 67.478627 
L 245.304453 67.40691 
L 245.495488 67.357946 
L 245.927136 67.247308 
L 246.222655 67.171563 
L 246.434144 67.117356 
L 246.714273 67.045555 
L 247.071219 66.954065 
L 247.340788 66.884971 
L 247.434544 66.86094 
L 247.8905 66.744073 
L 248.030052 66.708304 
L 248.514133 66.584227 
L 248.708495 66.53441 
L 248.876247 66.491413 
L 249.230253 66.400676 
L 249.485069 66.335364 
L 249.706829 66.278523 
L 250.144639 66.166307 
L 250.318813 66.121664 
L 250.657497 66.034855 
L 250.917525 65.968206 
L 251.284006 65.874273 
L 251.52336 65.812923 
L 251.717571 65.763144 
L 252.14188 65.654388 
L 252.298599 65.614219 
L 252.711708 65.508334 
L 253.040256 65.424123 
L 253.173758 65.389904 
L 253.611984 65.277581 
L 253.904217 65.202678 
L 254.152772 65.13897 
L 254.453 65.062018 
L 254.634277 65.015554 
L 254.995613 64.922939 
L 255.321206 64.839485 
L 255.433755 64.810637 
L 255.887442 64.694351 
L 256.004399 64.664374 
L 256.403184 64.56216 
L 256.792011 64.462498 
L 256.914329 64.431147 
L 257.255963 64.343581 
L 257.497028 64.281793 
L 257.885946 64.182108 
L 257.959185 64.163336 
L 258.474574 64.031235 
L 258.740764 63.963008 
L 258.802316 63.947231 
L 259.291503 63.821846 
L 259.390005 63.796598 
L 259.874768 63.672347 
L 260.096173 63.615598 
L 260.346602 63.55141 
L 260.766885 63.443686 
L 260.921606 63.404029 
L 261.084918 63.36217 
L 261.573407 63.236964 
L 261.864032 63.162473 
L 262.095943 63.103031 
L 262.277299 63.056547 
L 262.720741 62.942887 
L 262.895799 62.898017 
L 263.228724 62.812684 
L 263.42349 62.762763 
L 263.651374 62.704354 
L 264.092834 62.591202 
L 264.443342 62.501362 
L 264.651955 62.447891 
L 264.939681 62.374144 
L 265.255354 62.293233 
L 265.552918 62.216963 
L 265.661426 62.189151 
L 266.067898 62.084967 
L 266.204969 62.049834 
L 266.667684 61.931234 
L 266.899013 61.871941 
L 267.308746 61.766921 
L 267.404814 61.742298 
L 267.84947 61.628327 
L 268.16064 61.548569 
L 268.325869 61.506219 
L 268.749207 61.397712 
L 268.849977 61.371883 
L 269.15097 61.294735 
L 269.371652 61.238171 
L 269.619041 61.174762 
L 270.156127 61.0371 
L 270.449104 60.962006 
L 270.703915 60.896695 
L 270.792012 60.874114 
L 271.143639 60.783988 
L 271.335441 60.734826 
L 271.770531 60.623307 
L 271.891975 60.592179 
L 272.24413 60.501917 
L 272.584388 60.414705 
L 272.802602 60.358774 
L 273.075472 60.288833 
L 273.434191 60.196889 
L 273.710452 60.12608 
L 273.952668 60.063997 
L 274.297316 59.975659 
L 274.483124 59.928034 
L 274.88915 59.823964 
L 275.095944 59.77096 
" style="fill:none;stroke:#4800ff;stroke-linecap:square;stroke-width:2;"/>
   </g>
   <g id="line2d_20">
    <path clip-path="url(#p9ca5265419)" d="M 276.120307 59.508402 
L 276.351239 59.449211 
L 276.462219 59.420766 
L 276.783332 59.33846 
L 277.283801 59.210184 
L 277.483264 59.159059 
L 277.786043 59.081452 
L 277.88088 59.057144 
L 278.159511 58.985728 
L 278.688355 58.850178 
L 278.931838 58.78777 
L 279.206769 58.717302 
L 279.328651 58.686062 
L 279.808815 58.562989 
L 280.056145 58.499595 
L 280.239764 58.452531 
L 280.460715 58.395899 
L 280.857495 58.294199 
L 281.281444 58.185535 
L 281.539832 58.119307 
L 281.632874 58.095459 
L 281.871969 58.034176 
L 282.284642 57.928402 
L 282.614158 57.843943 
L 282.847024 57.784256 
L 282.995083 57.746307 
L 283.528101 57.609687 
L 283.652704 57.57775 
L 283.945891 57.502602 
L 284.150099 57.450261 
L 284.68031 57.314361 
L 284.924948 57.251657 
L 285.025369 57.225918 
L 285.345891 57.143764 
L 285.745411 57.041362 
L 285.846262 57.015512 
L 286.286219 56.902746 
L 286.648467 56.809897 
L 286.897688 56.746018 
L 287.23086 56.660622 
L 287.37383 56.623977 
L 287.60707 56.564194 
L 288.068816 56.445843 
L 288.34125 56.376014 
L 288.404062 56.359915 
L 288.963184 56.216604 
L 289.177596 56.161648 
L 289.530314 56.071242 
L 289.790535 56.004543 
L 289.847493 55.989944 
L 290.328753 55.866591 
L 290.616132 55.792932 
L 290.9487 55.70769 
L 291.046696 55.682573 
L 291.251415 55.630101 
L 291.798097 55.489979 
L 292.014314 55.43456 
L 292.179465 55.392229 
L 292.402437 55.335079 
L 292.759479 55.243564 
L 293.129489 55.148726 
L 293.401498 55.079006 
L 293.660805 55.012542 
L 293.923068 54.945321 
L 294.124996 54.893564 
L 294.573075 54.778716 
L 294.886087 54.698486 
L 295.221422 54.612536 
L 295.499661 54.541219 
L 295.703515 54.488969 
L 295.800806 54.464032 
L 296.314866 54.332272 
L 296.530387 54.277031 
L 296.726391 54.226792 
L 297.137104 54.121521 
L 297.283967 54.083878 
L 297.599433 54.00302 
L 297.826266 53.94488 
L 298.21682 53.844776 
" style="fill:none;stroke:#4800ff;stroke-linecap:square;stroke-width:2;"/>
   </g>
   <g id="line2d_21">
    <path clip-path="url(#p9ca5265419)" d="M 468.132363 50.388301 
L 524.770878 35.871106 
L 524.770878 35.871106 
" style="fill:none;stroke:#4800ff;stroke-linecap:square;stroke-width:2;"/>
   </g>
   <g id="line2d_22">
    <path clip-path="url(#p9ca5265419)" d="M 33.903752 41.401466 
L 52.783257 66.633733 
L 52.783257 66.633733 
" style="fill:none;stroke:#ff00da;stroke-linecap:square;stroke-width:2;"/>
   </g>
   <g id="line2d_23">
    <path clip-path="url(#p9ca5265419)" d="M 166.060286 37.599343 
L 184.939791 62.831611 
L 184.939791 62.831611 
" style="fill:none;stroke:#ff00da;stroke-linecap:square;stroke-width:2;"/>
   </g>
   <g id="line2d_24">
    <path clip-path="url(#p9ca5265419)" d="M 354.855334 49.351358 
L 373.734839 74.583626 
L 373.734839 74.583626 
" style="fill:none;stroke:#ff00da;stroke-linecap:square;stroke-width:2;"/>
   </g>
   <g id="line2d_25">
    <path clip-path="url(#p9ca5265419)" d="M 392.614344 29.649451 
L 411.493849 54.881718 
L 411.493849 54.881718 
" style="fill:none;stroke:#ff00da;stroke-linecap:square;stroke-width:2;"/>
   </g>
   <g id="matplotlib.axis_1">
    <g id="xtick_1">
     <g id="line2d_26">
      <path clip-path="url(#p9ca5265419)" d="M 15.024247 87.704405 
L 15.024247 16.528672 
" style="fill:none;stroke:#000000;stroke-dasharray:0.5,0.825;stroke-dashoffset:0;stroke-width:0.5;"/>
     </g>
     <g id="line2d_27">
      <defs>
       <path d="M 0 0 
L 0 3.5 
" id="m7a19ff3e01" style="stroke:#000000;stroke-width:0.8;"/>
      </defs>
      <g>
       <use style="stroke:#000000;stroke-width:0.8;" x="15.024247" xlink:href="#m7a19ff3e01" y="86.335641"/>
      </g>
     </g>
    </g>
    <g id="xtick_2">
     <g id="line2d_28">
      <path clip-path="url(#p9ca5265419)" d="M 203.819296 87.704405 
L 203.819296 16.528672 
" style="fill:none;stroke:#000000;stroke-dasharray:0.5,0.825;stroke-dashoffset:0;stroke-width:0.5;"/>
     </g>
     <g id="line2d_29">
      <g>
       <use style="stroke:#000000;stroke-width:0.8;" x="203.819296" xlink:href="#m7a19ff3e01" y="86.335641"/>
      </g>
     </g>
     <g id="text_1">
      <!-- $f$ -->
      <defs>
       <path d="M 9.71875 -16.5 
Q 11.578125 -17.921875 14.203125 -17.921875 
Q 17.78125 -17.921875 20.015625 -10.015625 
Q 20.953125 -6.203125 25.09375 15.09375 
L 29.6875 39.59375 
L 21.09375 39.59375 
Q 20.125 39.59375 20.125 40.921875 
Q 20.515625 43.109375 21.390625 43.109375 
L 30.328125 43.109375 
L 31.5 49.609375 
Q 32.078125 52.640625 32.5625 54.8125 
Q 33.0625 56.984375 33.625 58.828125 
Q 34.1875 60.6875 35.296875 62.984375 
Q 37.015625 66.265625 39.921875 68.390625 
Q 42.828125 70.515625 46.1875 70.515625 
Q 48.390625 70.515625 50.46875 69.703125 
Q 52.546875 68.890625 53.859375 67.28125 
Q 55.171875 65.671875 55.171875 63.484375 
Q 55.171875 60.9375 53.484375 59.046875 
Q 51.8125 57.171875 49.421875 57.171875 
Q 47.796875 57.171875 46.65625 58.171875 
Q 45.515625 59.1875 45.515625 60.796875 
Q 45.515625 62.984375 47 64.625 
Q 48.484375 66.265625 50.6875 66.5 
Q 48.828125 67.921875 46.09375 67.921875 
Q 44.578125 67.921875 43.234375 66.5 
Q 41.890625 65.09375 41.5 63.484375 
Q 40.875 60.9375 38.71875 49.703125 
L 37.5 43.109375 
L 47.796875 43.109375 
Q 48.78125 43.109375 48.78125 41.796875 
Q 48.734375 41.546875 48.578125 40.9375 
Q 48.4375 40.328125 48.171875 39.953125 
Q 47.90625 39.59375 47.515625 39.59375 
L 36.8125 39.59375 
L 32.171875 15.1875 
Q 31.296875 9.859375 30.140625 4.359375 
Q 29 -1.125 26.921875 -6.90625 
Q 24.859375 -12.703125 21.625 -16.609375 
Q 18.40625 -20.515625 14.015625 -20.515625 
Q 10.640625 -20.515625 7.984375 -18.578125 
Q 5.328125 -16.65625 5.328125 -13.484375 
Q 5.328125 -10.9375 6.953125 -9.046875 
Q 8.59375 -7.171875 11.078125 -7.171875 
Q 12.75 -7.171875 13.859375 -8.171875 
Q 14.984375 -9.1875 14.984375 -10.796875 
Q 14.984375 -12.9375 13.390625 -14.71875 
Q 11.8125 -16.5 9.71875 -16.5 
z
" id="Cmmi10-66"/>
      </defs>
      <g transform="translate(201.369296 100.913766)scale(0.1 -0.1)">
       <use transform="translate(0 0.484375)" xlink:href="#Cmmi10-66"/>
      </g>
     </g>
    </g>
    <g id="xtick_3">
     <g id="line2d_30">
      <path clip-path="url(#p9ca5265419)" d="M 562.529887 87.704405 
L 562.529887 16.528672 
" style="fill:none;stroke:#000000;stroke-dasharray:0.5,0.825;stroke-dashoffset:0;stroke-width:0.5;"/>
     </g>
     <g id="line2d_31">
      <g>
       <use style="stroke:#000000;stroke-width:0.8;" x="562.529887" xlink:href="#m7a19ff3e01" y="86.335641"/>
      </g>
     </g>
     <g id="text_2">
      <!-- $1$ -->
      <defs>
       <path d="M 9.28125 0 
L 9.28125 3.515625 
Q 21.78125 3.515625 21.78125 6.6875 
L 21.78125 59.1875 
Q 16.609375 56.6875 8.6875 56.6875 
L 8.6875 60.203125 
Q 20.953125 60.203125 27.203125 66.609375 
L 28.609375 66.609375 
Q 28.953125 66.609375 29.265625 66.328125 
Q 29.59375 66.0625 29.59375 65.71875 
L 29.59375 6.6875 
Q 29.59375 3.515625 42.09375 3.515625 
L 42.09375 0 
z
" id="Cmr10-31"/>
      </defs>
      <g transform="translate(560.029887 100.934078)scale(0.1 -0.1)">
       <use transform="translate(0 0.390625)" xlink:href="#Cmr10-31"/>
      </g>
     </g>
    </g>
   </g>
   <g id="matplotlib.axis_2">
    <g id="ytick_1">
     <g id="line2d_32">
      <path clip-path="url(#p9ca5265419)" d="M 4.074135 86.335641 
L 573.48 86.335641 
" style="fill:none;stroke:#000000;stroke-dasharray:0.5,0.825;stroke-dashoffset:0;stroke-width:0.5;"/>
     </g>
     <g id="line2d_33">
      <defs>
       <path d="M 0 0 
L -3.5 0 
" id="mb4295cb046" style="stroke:#000000;stroke-width:0.8;"/>
      </defs>
      <g>
       <use style="stroke:#000000;stroke-width:0.8;" x="15.024247" xlink:href="#mb4295cb046" y="86.335641"/>
      </g>
     </g>
    </g>
    <g id="ytick_2">
     <g id="line2d_34">
      <path clip-path="url(#p9ca5265419)" d="M 4.074135 17.897436 
L 573.48 17.897436 
" style="fill:none;stroke:#000000;stroke-dasharray:0.5,0.825;stroke-dashoffset:0;stroke-width:0.5;"/>
     </g>
     <g id="line2d_35">
      <g>
       <use style="stroke:#000000;stroke-width:0.8;" x="15.024247" xlink:href="#mb4295cb046" y="17.897436"/>
      </g>
     </g>
     <g id="text_3">
      <!-- $1$ -->
      <g transform="translate(3.024247 21.696655)scale(0.1 -0.1)">
       <use transform="translate(0 0.390625)" xlink:href="#Cmr10-31"/>
      </g>
     </g>
    </g>
   </g>
   <g id="patch_3">
    <path d="M 15.024247 87.704405 
L 15.024247 16.528672 
" style="fill:none;stroke:#000000;stroke-linecap:square;stroke-linejoin:miter;stroke-width:0.8;"/>
   </g>
   <g id="patch_4">
    <path d="M 4.074135 86.335641 
L 573.48 86.335641 
" style="fill:none;stroke:#000000;stroke-linecap:square;stroke-linejoin:miter;stroke-width:0.8;"/>
   </g>
  </g>
 </g>
 <defs>
  <clipPath id="p9ca5265419">
   <rect height="71.175733" width="569.405865" x="4.074135" y="16.528672"/>
  </clipPath>
 </defs>
</svg>
