<?xml version="1.0" encoding="utf-8" standalone="no"?>
<!DOCTYPE svg PUBLIC "-//W3C//DTD SVG 1.1//EN"
  "http://www.w3.org/Graphics/SVG/1.1/DTD/svg11.dtd">
<!-- Created with matplotlib (http://matplotlib.org/) -->
<svg height="108pt" version="1.1" viewBox="0 0 576 108" width="576pt" xmlns="http://www.w3.org/2000/svg" xmlns:xlink="http://www.w3.org/1999/xlink">
 <defs>
  <style type="text/css">
*{stroke-linecap:butt;stroke-linejoin:round;}
  </style>
 </defs>
 <g id="figure_1">
  <g id="patch_1">
   <path d="M 0 108 
L 576 108 
L 576 0 
L 0 0 
z
" style="fill:#ffffff;"/>
  </g>
  <g id="axes_1">
   <g id="patch_2">
    <path d="M 4.074135 87.704405 
L 573.48 87.704405 
L 573.48 16.528672 
L 4.074135 16.528672 
z
" style="fill:#ffffff;"/>
   </g>
   <g id="line2d_1">
    <path clip-path="url(#p8497b9b860)" d="M 23.579023 79.919559 
L 49.24335 60.671314 
L 49.24335 60.671314 
" style="fill:none;stroke:#ff0000;stroke-linecap:square;stroke-width:2;"/>
   </g>
   <g id="line2d_2">
    <path clip-path="url(#p8497b9b860)" d="M 254.557965 43.561763 
L 280.222292 24.313518 
L 280.222292 24.313518 
" style="fill:none;stroke:#ff0000;stroke-linecap:square;stroke-width:2;"/>
   </g>
   <g id="line2d_3">
    <path clip-path="url(#p8497b9b860)" d="M 83.462452 69.22609 
L 220.338862 35.006987 
L 220.338862 35.006987 
" style="fill:none;stroke:#7fff00;stroke-linecap:square;stroke-width:2;"/>
   </g>
   <g id="line2d_4">
    <path clip-path="url(#p8497b9b860)" d="M 19.301635 78.850212 
L 19.32293 78.855536 
L 19.349175 78.862097 
L 19.370796 78.867502 
L 19.396266 78.87387 
L 19.405127 78.876085 
L 19.436335 78.883887 
L 19.460665 78.88997 
L 19.473079 78.893073 
L 19.492235 78.897862 
L 19.509963 78.902294 
L 19.534594 78.908452 
L 19.554363 78.913394 
L 19.571451 78.917666 
L 19.610825 78.92751 
L 19.629218 78.932108 
L 19.636198 78.933853 
L 19.675673 78.943722 
L 19.695697 78.948728 
L 19.714381 78.953399 
L 19.736365 78.958895 
L 19.762329 78.965386 
L 19.7738 78.968253 
L 19.805143 78.976089 
L 19.820227 78.97986 
L 19.83503 78.983561 
L 19.85328 78.988123 
L 19.87283 78.993011 
L 19.901468 79.00017 
L 19.917061 79.004069 
L 19.947128 79.011586 
L 19.960098 79.014828 
L 19.987231 79.021611 
L 20.008528 79.026936 
L 20.026422 79.031409 
L 20.05801 79.039306 
L 20.070288 79.042376 
L 20.098063 79.049319 
L 20.112984 79.05305 
L 20.139923 79.059784 
L 20.15744 79.064164 
L 20.181801 79.070254 
L 20.203052 79.075567 
L 20.231048 79.082565 
L 20.252806 79.088005 
L 20.263766 79.090745 
L 20.296637 79.098963 
L 20.302888 79.100525 
L 20.324266 79.10587 
L 20.356303 79.113879 
L 20.381502 79.120179 
L 20.38937 79.122146 
L 20.429677 79.132223 
L 20.435883 79.133774 
L 20.455633 79.138712 
L 20.485371 79.146146 
L 20.510554 79.152442 
L 20.529609 79.157206 
L 20.540847 79.160015 
L 20.562936 79.165537 
L 20.595268 79.17362 
L 20.621043 79.180064 
L 20.625176 79.181098 
L 20.654193 79.188352 
L 20.670876 79.192523 
L 20.697338 79.199138 
L 20.716262 79.203869 
L 20.734955 79.208542 
L 20.760711 79.214981 
L 20.781455 79.220167 
L 20.80759 79.226701 
L 20.822017 79.230308 
L 20.840385 79.2349 
L 20.874029 79.243311 
L 20.883469 79.245671 
L 20.908581 79.251949 
L 20.92954 79.257188 
L 20.952114 79.262832 
L 20.971939 79.267788 
L 20.994477 79.273423 
L 21.022764 79.280495 
L 21.045012 79.286057 
" style="fill:none;stroke:#00ffff;stroke-linecap:square;stroke-width:2;"/>
   </g>
   <g id="line2d_5">
    <path clip-path="url(#p8497b9b860)" d="M 21.112199 79.302853 
L 21.135124 79.308585 
L 21.144496 79.310928 
L 21.180453 79.319917 
L 21.187989 79.321801 
L 21.205345 79.32614 
L 21.24571 79.336231 
L 21.260917 79.340033 
L 21.284936 79.346037 
L 21.30894 79.352038 
L 21.322038 79.355313 
L 21.34693 79.361536 
L 21.356925 79.364035 
L 21.394456 79.373417 
L 21.405627 79.37621 
L 21.438921 79.384534 
L 21.452337 79.387888 
L 21.46725 79.391616 
L 21.501776 79.400247 
L 21.525782 79.406249 
L 21.528016 79.406808 
L 21.566748 79.41649 
L 21.570674 79.417472 
L 21.597728 79.424235 
L 21.623495 79.430677 
L 21.642907 79.43553 
L 21.655951 79.438791 
L 21.685924 79.446284 
L 21.702412 79.450406 
L 21.735741 79.458739 
L 21.754134 79.463337 
L 21.777488 79.469175 
L 21.787177 79.471598 
L 21.822732 79.480486 
L 21.847019 79.486558 
L 21.863618 79.490708 
L 21.871775 79.492747 
L 21.907349 79.501641 
L 21.92629 79.506376 
L 21.950687 79.512475 
L 21.962106 79.51533 
L 21.983575 79.520697 
L 22.017085 79.529075 
L 22.033119 79.533083 
L 22.058504 79.53943 
L 22.067432 79.541661 
L 22.099402 79.549654 
L 22.1246 79.555953 
L 22.144234 79.560862 
L 22.161393 79.565152 
L 22.186858 79.571518 
L 22.199442 79.574664 
L 22.22394 79.580788 
L 22.241916 79.585282 
L 22.26485 79.591016 
L 22.282894 79.595527 
L 22.310849 79.602516 
L 22.338765 79.609495 
L 22.359462 79.614669 
L 22.369623 79.617209 
L 22.390641 79.622464 
L 22.419604 79.629705 
L 22.439159 79.634593 
L 22.469148 79.64209 
L 22.474352 79.643391 
L 22.494175 79.648347 
L 22.517496 79.654178 
L 22.549777 79.662248 
L 22.559317 79.664633 
L 22.594797 79.673503 
L 22.618798 79.679503 
L 22.637958 79.684293 
L 22.654468 79.688421 
L 22.681768 79.695246 
L 22.695199 79.698603 
L 22.709011 79.702056 
L 22.751389 79.712651 
L 22.757225 79.71411 
L 22.773772 79.718246 
L 22.796378 79.723898 
L 22.836951 79.734041 
L 22.856431 79.738911 
L 22.87902 79.744558 
L 22.888814 79.747007 
L 22.90649 79.751426 
L 22.940616 79.759958 
L 22.95579 79.763751 
L 22.976552 79.768942 
L 23.00359 79.775701 
L 23.026007 79.781305 
L 23.034429 79.783411 
L 23.07298 79.793048 
L 23.092622 79.797959 
L 23.110532 79.802437 
L 23.120703 79.804979 
L 23.146331 79.811386 
L 23.17168 79.817723 
L 23.20022 79.824859 
L 23.214551 79.828441 
L 23.235321 79.833634 
L 23.256843 79.839014 
L 23.287861 79.846769 
L 23.306997 79.851553 
L 23.311293 79.852627 
L 23.351666 79.86272 
L 23.36183 79.865261 
L 23.387959 79.871793 
L 23.414024 79.87831 
L 23.436226 79.88386 
L 23.457898 79.889278 
L 23.469922 79.892284 
L 23.490478 79.897423 
L 23.520669 79.904971 
L 23.543189 79.910601 
L 23.555826 79.91376 
L 23.579023 79.919559 
" style="fill:none;stroke:#00ffff;stroke-linecap:square;stroke-width:2;"/>
   </g>
   <g id="line2d_6">
    <path clip-path="url(#p8497b9b860)" d="M 49.24335 60.671314 
L 83.462452 69.22609 
L 83.462452 69.22609 
" style="fill:none;stroke:#00ffff;stroke-linecap:square;stroke-width:2;"/>
   </g>
   <g id="line2d_7">
    <path clip-path="url(#p8497b9b860)" d="M 220.338862 35.006987 
L 254.557965 43.561763 
L 254.557965 43.561763 
" style="fill:none;stroke:#00ffff;stroke-linecap:square;stroke-width:2;"/>
   </g>
   <g id="line2d_8">
    <path clip-path="url(#p8497b9b860)" d="M 280.222292 24.313518 
L 284.499679 25.382865 
L 284.499679 25.382865 
" style="fill:none;stroke:#00ffff;stroke-linecap:square;stroke-width:2;"/>
   </g>
   <g id="line2d_9">
    <path clip-path="url(#p8497b9b860)" d="M 288.777067 17.897436 
L 562.529887 86.335641 
L 562.529887 86.335641 
" style="fill:none;stroke:#00ffff;stroke-linecap:square;stroke-width:2;"/>
   </g>
   <g id="line2d_10">
    <path clip-path="url(#p8497b9b860)" d="M 15.024247 86.335641 
L 19.301635 78.850212 
L 19.301635 78.850212 
" style="fill:none;stroke:#7f00ff;stroke-linecap:square;stroke-width:2;"/>
   </g>
   <g id="line2d_11">
    <path clip-path="url(#p8497b9b860)" d="M 284.499679 25.382865 
L 284.51551 25.355161 
L 284.543642 25.30593 
L 284.558975 25.279097 
L 284.576902 25.247725 
L 284.605756 25.197231 
L 284.622492 25.167943 
L 284.653531 25.113625 
L 284.662996 25.097061 
L 284.693915 25.042953 
L 284.713081 25.009411 
L 284.727644 24.983927 
L 284.761173 24.92525 
L 284.773746 24.903248 
L 284.796453 24.863511 
L 284.816804 24.827897 
L 284.847689 24.773848 
L 284.865307 24.743016 
L 284.884526 24.709383 
L 284.901998 24.678808 
L 284.932296 24.625786 
L 284.960892 24.575744 
L 284.966428 24.566055 
L 284.984859 24.533801 
L 285.012402 24.4856 
L 285.039549 24.438094 
L 285.055687 24.409851 
L 285.081514 24.364655 
L 285.092352 24.345689 
L 285.120263 24.296844 
L 285.154631 24.2367 
L 285.159142 24.228806 
L 285.184485 24.184455 
L 285.215551 24.130089 
L 285.227439 24.109286 
L 285.246 24.076803 
L 285.279864 24.017541 
L 285.301926 23.978934 
L 285.326575 23.935797 
L 285.334358 23.922177 
L 285.352663 23.890144 
L 285.390393 23.824115 
L 285.393876 23.818021 
L 285.420435 23.771542 
L 285.44233 23.733227 
L 285.472147 23.681047 
L 285.496862 23.637796 
L 285.501677 23.629369 
L 285.540279 23.561816 
L 285.543374 23.556399 
L 285.584387 23.484626 
L 285.606185 23.446481 
L 285.610953 23.438136 
L 285.635461 23.395247 
L 285.651668 23.366884 
L 285.680988 23.315574 
L 285.703455 23.276258 
L 285.717882 23.251011 
L 285.736301 23.218778 
L 285.767536 23.164116 
L 285.788156 23.128032 
L 285.801372 23.104903 
L 285.824428 23.064554 
L 285.854734 23.01152 
L 285.868565 22.987315 
L 285.901449 22.929767 
L 285.926799 22.885406 
L 285.932676 22.875121 
L 285.955718 22.834798 
L 285.992905 22.769721 
L 285.994196 22.767461 
L 286.032122 22.701091 
L 286.046639 22.675685 
L 286.073505 22.62867 
L 286.089125 22.601335 
L 286.110095 22.564638 
L 286.140369 22.511659 
L 286.144015 22.505278 
L 286.183227 22.436657 
L 286.190659 22.42365 
L 286.228038 22.358237 
L 286.236774 22.342949 
L 286.258478 22.304966 
L 286.287556 22.25408 
L 286.298992 22.234068 
L 286.332467 22.175486 
L 286.354103 22.137623 
L 286.36476 22.118975 
L 286.395787 22.064677 
L 286.421343 22.019953 
L 286.442242 21.983381 
L 286.447504 21.974171 
L 286.473134 21.92932 
L 286.497221 21.887166 
L 286.514468 21.856985 
L 286.539257 21.813604 
L 286.572327 21.755732 
L 286.581481 21.739713 
L 286.59792 21.710944 
L 286.633838 21.648087 
L 286.656925 21.607685 
L 286.67176 21.581724 
L 286.684118 21.560097 
L 286.706682 21.520611 
L 286.74038 21.461639 
L 286.755761 21.434721 
L 286.778291 21.395294 
L 286.795088 21.3659 
L 286.820712 21.321057 
L 286.845978 21.276843 
L 286.869428 21.235804 
" style="fill:none;stroke:#7f00ff;stroke-linecap:square;stroke-width:2;"/>
   </g>
   <g id="line2d_12">
    <path clip-path="url(#p8497b9b860)" d="M 286.923611 21.140985 
L 286.960113 21.077106 
L 286.970243 21.059379 
L 286.982836 21.037341 
L 287.022004 20.968797 
L 287.040067 20.937186 
L 287.056768 20.907959 
L 287.07226 20.880848 
L 287.106719 20.820545 
L 287.114038 20.807737 
L 287.134792 20.771419 
L 287.171626 20.706958 
L 287.195574 20.66505 
L 287.208433 20.642545 
L 287.225336 20.612966 
L 287.255293 20.56054 
L 287.26359 20.546022 
L 287.301452 20.479763 
L 287.315609 20.454987 
L 287.330203 20.429449 
L 287.352666 20.390139 
L 287.389975 20.324848 
L 287.394325 20.317235 
L 287.426095 20.261638 
L 287.438764 20.239466 
L 287.476353 20.173687 
L 287.484457 20.159503 
L 287.511829 20.111603 
L 287.525284 20.088057 
L 287.554702 20.036576 
L 287.582671 19.987629 
L 287.585729 19.982278 
L 287.617735 19.926267 
L 287.628898 19.906732 
L 287.669897 19.834983 
L 287.670552 19.833838 
L 287.707901 19.768476 
L 287.730047 19.729722 
L 287.740296 19.711786 
L 287.75944 19.678284 
L 287.796497 19.613434 
L 287.810345 19.5892 
L 287.822575 19.567798 
L 287.861227 19.500156 
L 287.877369 19.471908 
L 287.894581 19.441787 
L 287.925178 19.388242 
L 287.931976 19.376345 
L 287.953578 19.338542 
L 287.971597 19.307009 
L 287.995455 19.265257 
L 288.024635 19.214192 
L 288.039164 19.188766 
L 288.059736 19.152766 
L 288.097671 19.08638 
L 288.104659 19.074151 
L 288.122433 19.043047 
L 288.156545 18.98335 
L 288.173769 18.953209 
L 288.194423 18.917064 
L 288.208567 18.892311 
L 288.24259 18.832771 
L 288.264938 18.793662 
L 288.291405 18.747344 
L 288.299343 18.733454 
L 288.315086 18.705903 
L 288.352695 18.640087 
L 288.359265 18.62859 
L 288.386303 18.581273 
L 288.416264 18.528843 
L 288.425256 18.513106 
L 288.44538 18.477889 
L 288.469967 18.434862 
L 288.489734 18.40027 
L 288.523617 18.340974 
L 288.531732 18.326772 
L 288.562429 18.273053 
L 288.576061 18.249197 
L 288.611352 18.187437 
L 288.621374 18.169899 
L 288.643763 18.130719 
L 288.675602 18.075 
L 288.680345 18.0667 
L 288.710853 18.013311 
L 288.735907 17.969467 
L 288.758458 17.930003 
L 288.777067 17.897436 
" style="fill:none;stroke:#7f00ff;stroke-linecap:square;stroke-width:2;"/>
   </g>
   <g id="matplotlib.axis_1">
    <g id="xtick_1">
     <g id="line2d_13">
      <path clip-path="url(#p8497b9b860)" d="M 15.024247 87.704405 
L 15.024247 16.528672 
" style="fill:none;stroke:#000000;stroke-dasharray:0.5,0.825;stroke-dashoffset:0;stroke-width:0.5;"/>
     </g>
     <g id="line2d_14">
      <defs>
       <path d="M 0 0 
L 0 3.5 
" id="mf399ff355f" style="stroke:#000000;stroke-width:0.8;"/>
      </defs>
      <g>
       <use style="stroke:#000000;stroke-width:0.8;" x="15.024247" xlink:href="#mf399ff355f" y="86.335641"/>
      </g>
     </g>
    </g>
    <g id="xtick_2">
     <g id="line2d_15">
      <path clip-path="url(#p8497b9b860)" d="M 288.777067 87.704405 
L 288.777067 16.528672 
" style="fill:none;stroke:#000000;stroke-dasharray:0.5,0.825;stroke-dashoffset:0;stroke-width:0.5;"/>
     </g>
     <g id="line2d_16">
      <g>
       <use style="stroke:#000000;stroke-width:0.8;" x="288.777067" xlink:href="#mf399ff355f" y="86.335641"/>
      </g>
     </g>
     <g id="text_1">
      <!-- $f$ -->
      <defs>
       <path d="M 9.71875 -16.5 
Q 11.578125 -17.921875 14.203125 -17.921875 
Q 17.78125 -17.921875 20.015625 -10.015625 
Q 20.953125 -6.203125 25.09375 15.09375 
L 29.6875 39.59375 
L 21.09375 39.59375 
Q 20.125 39.59375 20.125 40.921875 
Q 20.515625 43.109375 21.390625 43.109375 
L 30.328125 43.109375 
L 31.5 49.609375 
Q 32.078125 52.640625 32.5625 54.8125 
Q 33.0625 56.984375 33.625 58.828125 
Q 34.1875 60.6875 35.296875 62.984375 
Q 37.015625 66.265625 39.921875 68.390625 
Q 42.828125 70.515625 46.1875 70.515625 
Q 48.390625 70.515625 50.46875 69.703125 
Q 52.546875 68.890625 53.859375 67.28125 
Q 55.171875 65.671875 55.171875 63.484375 
Q 55.171875 60.9375 53.484375 59.046875 
Q 51.8125 57.171875 49.421875 57.171875 
Q 47.796875 57.171875 46.65625 58.171875 
Q 45.515625 59.1875 45.515625 60.796875 
Q 45.515625 62.984375 47 64.625 
Q 48.484375 66.265625 50.6875 66.5 
Q 48.828125 67.921875 46.09375 67.921875 
Q 44.578125 67.921875 43.234375 66.5 
Q 41.890625 65.09375 41.5 63.484375 
Q 40.875 60.9375 38.71875 49.703125 
L 37.5 43.109375 
L 47.796875 43.109375 
Q 48.78125 43.109375 48.78125 41.796875 
Q 48.734375 41.546875 48.578125 40.9375 
Q 48.4375 40.328125 48.171875 39.953125 
Q 47.90625 39.59375 47.515625 39.59375 
L 36.8125 39.59375 
L 32.171875 15.1875 
Q 31.296875 9.859375 30.140625 4.359375 
Q 29 -1.125 26.921875 -6.90625 
Q 24.859375 -12.703125 21.625 -16.609375 
Q 18.40625 -20.515625 14.015625 -20.515625 
Q 10.640625 -20.515625 7.984375 -18.578125 
Q 5.328125 -16.65625 5.328125 -13.484375 
Q 5.328125 -10.9375 6.953125 -9.046875 
Q 8.59375 -7.171875 11.078125 -7.171875 
Q 12.75 -7.171875 13.859375 -8.171875 
Q 14.984375 -9.1875 14.984375 -10.796875 
Q 14.984375 -12.9375 13.390625 -14.71875 
Q 11.8125 -16.5 9.71875 -16.5 
z
" id="Cmmi10-66"/>
      </defs>
      <g transform="translate(286.327067 100.913766)scale(0.1 -0.1)">
       <use transform="translate(0 0.484375)" xlink:href="#Cmmi10-66"/>
      </g>
     </g>
    </g>
    <g id="xtick_3">
     <g id="line2d_17">
      <path clip-path="url(#p8497b9b860)" d="M 562.529887 87.704405 
L 562.529887 16.528672 
" style="fill:none;stroke:#000000;stroke-dasharray:0.5,0.825;stroke-dashoffset:0;stroke-width:0.5;"/>
     </g>
     <g id="line2d_18">
      <g>
       <use style="stroke:#000000;stroke-width:0.8;" x="562.529887" xlink:href="#mf399ff355f" y="86.335641"/>
      </g>
     </g>
     <g id="text_2">
      <!-- $1$ -->
      <defs>
       <path d="M 9.28125 0 
L 9.28125 3.515625 
Q 21.78125 3.515625 21.78125 6.6875 
L 21.78125 59.1875 
Q 16.609375 56.6875 8.6875 56.6875 
L 8.6875 60.203125 
Q 20.953125 60.203125 27.203125 66.609375 
L 28.609375 66.609375 
Q 28.953125 66.609375 29.265625 66.328125 
Q 29.59375 66.0625 29.59375 65.71875 
L 29.59375 6.6875 
Q 29.59375 3.515625 42.09375 3.515625 
L 42.09375 0 
z
" id="Cmr10-31"/>
      </defs>
      <g transform="translate(560.029887 100.934078)scale(0.1 -0.1)">
       <use transform="translate(0 0.390625)" xlink:href="#Cmr10-31"/>
      </g>
     </g>
    </g>
   </g>
   <g id="matplotlib.axis_2">
    <g id="ytick_1">
     <g id="line2d_19">
      <path clip-path="url(#p8497b9b860)" d="M 4.074135 86.335641 
L 573.48 86.335641 
" style="fill:none;stroke:#000000;stroke-dasharray:0.5,0.825;stroke-dashoffset:0;stroke-width:0.5;"/>
     </g>
     <g id="line2d_20">
      <defs>
       <path d="M 0 0 
L -3.5 0 
" id="mc05360b9a6" style="stroke:#000000;stroke-width:0.8;"/>
      </defs>
      <g>
       <use style="stroke:#000000;stroke-width:0.8;" x="15.024247" xlink:href="#mc05360b9a6" y="86.335641"/>
      </g>
     </g>
    </g>
    <g id="ytick_2">
     <g id="line2d_21">
      <path clip-path="url(#p8497b9b860)" d="M 4.074135 17.897436 
L 573.48 17.897436 
" style="fill:none;stroke:#000000;stroke-dasharray:0.5,0.825;stroke-dashoffset:0;stroke-width:0.5;"/>
     </g>
     <g id="line2d_22">
      <g>
       <use style="stroke:#000000;stroke-width:0.8;" x="15.024247" xlink:href="#mc05360b9a6" y="17.897436"/>
      </g>
     </g>
     <g id="text_3">
      <!-- $1$ -->
      <g transform="translate(3.024247 21.696655)scale(0.1 -0.1)">
       <use transform="translate(0 0.390625)" xlink:href="#Cmr10-31"/>
      </g>
     </g>
    </g>
   </g>
   <g id="patch_3">
    <path d="M 15.024247 87.704405 
L 15.024247 16.528672 
" style="fill:none;stroke:#000000;stroke-linecap:square;stroke-linejoin:miter;stroke-width:0.8;"/>
   </g>
   <g id="patch_4">
    <path d="M 4.074135 86.335641 
L 573.48 86.335641 
" style="fill:none;stroke:#000000;stroke-linecap:square;stroke-linejoin:miter;stroke-width:0.8;"/>
   </g>
  </g>
 </g>
 <defs>
  <clipPath id="p8497b9b860">
   <rect height="71.175733" width="569.405865" x="4.074135" y="16.528672"/>
  </clipPath>
 </defs>
</svg>
