<?xml version="1.0" encoding="utf-8" standalone="no"?>
<!DOCTYPE svg PUBLIC "-//W3C//DTD SVG 1.1//EN"
  "http://www.w3.org/Graphics/SVG/1.1/DTD/svg11.dtd">
<!-- Created with matplotlib (http://matplotlib.org/) -->
<svg height="108pt" version="1.1" viewBox="0 0 576 108" width="576pt" xmlns="http://www.w3.org/2000/svg" xmlns:xlink="http://www.w3.org/1999/xlink">
 <defs>
  <style type="text/css">
*{stroke-linecap:butt;stroke-linejoin:round;}
  </style>
 </defs>
 <g id="figure_1">
  <g id="patch_1">
   <path d="M 0 108 
L 576 108 
L 576 0 
L 0 0 
z
" style="fill:#ffffff;"/>
  </g>
  <g id="axes_1">
   <g id="patch_2">
    <path d="M 4.074135 87.704405 
L 573.48 87.704405 
L 573.48 16.528672 
L 4.074135 16.528672 
z
" style="fill:#ffffff;"/>
   </g>
   <g id="line2d_1">
    <path clip-path="url(#p06911b28d5)" d="M 179.275939 60.671314 
L 206.651221 60.671314 
L 206.651221 60.671314 
" style="fill:none;stroke:#ff0000;stroke-linecap:square;"/>
   </g>
   <g id="line2d_2">
    <path clip-path="url(#p06911b28d5)" d="M 261.401785 43.561763 
L 288.777067 43.561763 
L 288.777067 43.561763 
" style="fill:none;stroke:#ff0000;stroke-linecap:square;"/>
   </g>
   <g id="line2d_3">
    <path clip-path="url(#p06911b28d5)" d="M 15.024247 86.335641 
L 15.338375 86.237476 
L 15.719812 86.118277 
L 16.002237 86.030019 
L 16.667364 85.822167 
L 16.919467 85.743385 
L 17.16078 85.667975 
L 17.532813 85.551714 
L 17.89471 85.438621 
L 18.158748 85.356109 
L 18.588715 85.221745 
L 18.951509 85.108372 
L 19.399611 84.96834 
L 19.869231 84.821583 
L 19.978057 84.787575 
L 20.604349 84.591859 
L 21.07694 84.444174 
L 21.31084 84.371081 
L 21.582373 84.286227 
L 22.14141 84.111528 
L 22.35013 84.046303 
L 22.881162 83.880355 
L 23.015586 83.838348 
L 23.337356 83.737795 
L 23.705853 83.622639 
L 24.045587 83.516472 
L 24.586786 83.347348 
L 24.84699 83.266034 
L 25.3008 83.124218 
L 25.573424 83.039023 
L 26.092687 82.876754 
L 26.245234 82.829083 
L 26.659184 82.699723 
L 27.25865 82.51239 
L 27.568149 82.415672 
L 27.705667 82.372697 
L 28.195774 82.219539 
L 28.543192 82.110971 
L 28.97331 81.976559 
L 29.299413 81.874652 
L 29.645231 81.766583 
L 29.96415 81.666921 
L 30.53243 81.489334 
L 30.889151 81.377859 
L 31.154721 81.294868 
L 31.531965 81.176979 
L 32.018156 81.025045 
L 32.158955 80.981045 
L 32.722492 80.804939 
L 32.844752 80.766733 
L 33.414311 80.588746 
L 33.648803 80.515467 
L 33.99338 80.407787 
L 34.330503 80.302436 
L 34.805076 80.154132 
L 35.244739 80.016737 
L 35.396158 79.969419 
L 36.117392 79.744033 
L 36.47177 79.63329 
L 36.516597 79.619282 
L 36.984248 79.473141 
L 37.297939 79.375112 
L 37.828506 79.20931 
L 38.253223 79.076586 
L 38.573121 78.976618 
L 38.760846 78.917954 
L 39.08591 78.816371 
L 39.754791 78.607346 
L 39.991026 78.533523 
L 40.357564 78.418979 
L 40.677915 78.31887 
L 41.032479 78.208069 
L 41.541039 78.049144 
L 41.860846 77.949204 
L 42.120084 77.868192 
L 42.713743 77.682673 
L 42.845465 77.64151 
L 43.121594 77.55522 
L 43.505092 77.435377 
L 43.968957 77.290419 
L 44.212632 77.214271 
L 44.742051 77.048827 
L 45.141879 76.923881 
L 45.52202 76.805087 
L 45.918538 76.681175 
L 46.096554 76.625545 
L 46.741004 76.424154 
L 47.11155 76.308359 
L 47.432364 76.208104 
L 47.812418 76.089338 
L 47.919621 76.055837 
L 48.36777 75.91579 
L 48.664714 75.822995 
L 49.084622 75.691774 
L 49.501927 75.561366 
L 49.804909 75.466684 
L 50.309415 75.309026 
L 50.458829 75.262334 
L 51.051773 75.077039 
L 51.395273 74.969695 
L 51.767781 74.853287 
L 51.919838 74.805769 
L 52.344888 74.672941 
L 52.819167 74.524728 
L 53.255416 74.388401 
L 53.566193 74.291283 
L 53.737881 74.237631 
L 54.420458 74.024325 
L 54.665042 73.947893 
L 54.848818 73.890463 
L 55.198522 73.78118 
L 55.688445 73.628079 
L 56.010248 73.527516 
L 56.424851 73.397952 
L 56.897058 73.250388 
L 57.090837 73.189832 
L 57.445065 73.079136 
L 57.948692 72.921752 
L 58.36076 72.792981 
L 58.64004 72.705706 
L 58.996395 72.594345 
L 59.333427 72.489022 
" style="fill:none;stroke:#00ff00;stroke-linecap:square;"/>
   </g>
   <g id="line2d_4">
    <path clip-path="url(#p06911b28d5)" d="M 60.334698 72.176125 
L 60.955813 71.982027 
L 61.195366 71.907166 
L 61.497929 71.812615 
L 61.994846 71.657329 
L 62.269484 71.571505 
L 62.885532 71.37899 
L 63.002818 71.342338 
L 63.571626 71.164585 
L 63.784105 71.098186 
L 64.089435 71.00277 
L 64.513179 70.87035 
L 64.920092 70.74319 
L 65.203882 70.654505 
L 65.675916 70.506995 
L 66.06536 70.385293 
L 66.449198 70.265344 
L 66.791589 70.158347 
L 67.187635 70.034582 
L 67.484117 69.941932 
L 67.867875 69.822007 
L 68.07345 69.757765 
L 68.685332 69.566552 
L 68.799477 69.530882 
L 69.298082 69.375068 
L 69.741731 69.236427 
L 70.035107 69.144747 
L 70.504435 68.998082 
L 70.865991 68.885096 
L 71.029394 68.834033 
L 71.535862 68.675762 
L 71.703169 68.623478 
L 72.304581 68.435537 
L 72.574286 68.351254 
L 73.08419 68.191909 
L 73.427208 68.084716 
L 73.794989 67.969784 
L 73.936001 67.925718 
L 74.469319 67.759056 
L 74.680367 67.693104 
L 75.217639 67.525206 
L 75.508369 67.434353 
L 76.07763 67.256459 
L 76.306865 67.184823 
L 76.703762 67.060793 
L 76.987535 66.972114 
L 77.329202 66.865343 
L 77.783503 66.723374 
L 77.9722 66.664406 
L 78.586908 66.47231 
L 78.860109 66.386934 
L 79.125274 66.30407 
L 79.567446 66.165891 
L 79.929449 66.052765 
L 80.230928 65.958553 
L 80.608968 65.840416 
L 80.885778 65.753913 
L 81.396916 65.594182 
L 81.816172 65.463165 
L 82.015556 65.400857 
L 82.453124 65.264117 
L 82.758624 65.168648 
L 83.382572 64.973664 
L 83.625666 64.897698 
L 84.029334 64.771551 
L 84.347675 64.67207 
L 84.802067 64.530072 
L 84.91927 64.493446 
L 85.443899 64.3295 
L 85.81649 64.213065 
L 86.226487 64.084941 
L 86.491217 64.002213 
L 86.861885 63.886379 
L 87.321324 63.742805 
L 87.839982 63.580724 
L 88.024999 63.522906 
" style="fill:none;stroke:#00ff00;stroke-linecap:square;"/>
   </g>
   <g id="line2d_5">
    <path clip-path="url(#p06911b28d5)" d="M 97.150093 69.22609 
L 98.975112 68.655771 
L 98.975112 68.655771 
" style="fill:none;stroke:#00ff00;stroke-linecap:square;"/>
   </g>
   <g id="line2d_6">
    <path clip-path="url(#p06911b28d5)" d="M 99.887622 69.22609 
L 102.468588 68.419538 
L 102.468588 68.419538 
" style="fill:none;stroke:#00ff00;stroke-linecap:square;"/>
   </g>
   <g id="line2d_7">
    <path clip-path="url(#p06911b28d5)" d="M 103.759071 69.22609 
L 163.228744 50.641817 
L 163.228744 50.641817 
" style="fill:none;stroke:#00ff00;stroke-linecap:square;"/>
   </g>
   <g id="line2d_8">
    <path clip-path="url(#p06911b28d5)" d="M 206.651221 60.671314 
L 261.401785 43.561763 
L 261.401785 43.561763 
" style="fill:none;stroke:#00ff00;stroke-linecap:square;"/>
   </g>
   <g id="line2d_9">
    <path clip-path="url(#p06911b28d5)" d="M 304.824263 53.59126 
L 364.293936 35.006987 
L 364.293936 35.006987 
" style="fill:none;stroke:#00ff00;stroke-linecap:square;"/>
   </g>
   <g id="line2d_10">
    <path clip-path="url(#p06911b28d5)" d="M 365.584419 35.813539 
L 368.165385 35.006987 
L 368.165385 35.006987 
" style="fill:none;stroke:#00ff00;stroke-linecap:square;"/>
   </g>
   <g id="line2d_11">
    <path clip-path="url(#p06911b28d5)" d="M 369.077894 35.577306 
L 370.902913 35.006987 
L 370.902913 35.006987 
" style="fill:none;stroke:#00ff00;stroke-linecap:square;"/>
   </g>
   <g id="line2d_12">
    <path clip-path="url(#p06911b28d5)" d="M 380.028007 40.710171 
L 453.028759 17.897436 
L 453.028759 17.897436 
" style="fill:none;stroke:#00ff00;stroke-linecap:square;"/>
   </g>
   <g id="line2d_13">
    <path clip-path="url(#p06911b28d5)" d="M 88.024999 63.522906 
L 97.150093 69.22609 
L 97.150093 69.22609 
" style="fill:none;stroke:#0000ff;stroke-linecap:square;"/>
   </g>
   <g id="line2d_14">
    <path clip-path="url(#p06911b28d5)" d="M 98.975112 68.655771 
L 99.887622 69.22609 
L 99.887622 69.22609 
" style="fill:none;stroke:#0000ff;stroke-linecap:square;"/>
   </g>
   <g id="line2d_15">
    <path clip-path="url(#p06911b28d5)" d="M 102.468588 68.419538 
L 103.759071 69.22609 
L 103.759071 69.22609 
" style="fill:none;stroke:#0000ff;stroke-linecap:square;"/>
   </g>
   <g id="line2d_16">
    <path clip-path="url(#p06911b28d5)" d="M 163.228744 50.641817 
L 179.275939 60.671314 
L 179.275939 60.671314 
" style="fill:none;stroke:#0000ff;stroke-linecap:square;"/>
   </g>
   <g id="line2d_17">
    <path clip-path="url(#p06911b28d5)" d="M 288.777067 43.561763 
L 304.824263 53.59126 
L 304.824263 53.59126 
" style="fill:none;stroke:#0000ff;stroke-linecap:square;"/>
   </g>
   <g id="line2d_18">
    <path clip-path="url(#p06911b28d5)" d="M 364.293936 35.006987 
L 365.584419 35.813539 
L 365.584419 35.813539 
" style="fill:none;stroke:#0000ff;stroke-linecap:square;"/>
   </g>
   <g id="line2d_19">
    <path clip-path="url(#p06911b28d5)" d="M 368.165385 35.006987 
L 369.077894 35.577306 
L 369.077894 35.577306 
" style="fill:none;stroke:#0000ff;stroke-linecap:square;"/>
   </g>
   <g id="line2d_20">
    <path clip-path="url(#p06911b28d5)" d="M 370.902913 35.006987 
L 380.028007 40.710171 
L 380.028007 40.710171 
" style="fill:none;stroke:#0000ff;stroke-linecap:square;"/>
   </g>
   <g id="line2d_21">
    <path clip-path="url(#p06911b28d5)" d="M 453.028759 17.897436 
L 562.529887 86.335641 
L 562.529887 86.335641 
" style="fill:none;stroke:#0000ff;stroke-linecap:square;"/>
   </g>
   <g id="matplotlib.axis_1">
    <g id="xtick_1">
     <g id="line2d_22">
      <path clip-path="url(#p06911b28d5)" d="M 15.024247 87.704405 
L 15.024247 16.528672 
" style="fill:none;stroke:#000000;stroke-dasharray:0.5,0.825;stroke-dashoffset:0;stroke-width:0.5;"/>
     </g>
     <g id="line2d_23">
      <defs>
       <path d="M 0 0 
L 0 3.5 
" id="mb89eaa66c2" style="stroke:#000000;stroke-width:0.8;"/>
      </defs>
      <g>
       <use style="stroke:#000000;stroke-width:0.8;" x="15.024247" xlink:href="#mb89eaa66c2" y="86.335641"/>
      </g>
     </g>
    </g>
    <g id="xtick_2">
     <g id="line2d_24">
      <path clip-path="url(#p06911b28d5)" d="M 453.028759 87.704405 
L 453.028759 16.528672 
" style="fill:none;stroke:#000000;stroke-dasharray:0.5,0.825;stroke-dashoffset:0;stroke-width:0.5;"/>
     </g>
     <g id="line2d_25">
      <g>
       <use style="stroke:#000000;stroke-width:0.8;" x="453.028759" xlink:href="#mb89eaa66c2" y="86.335641"/>
      </g>
     </g>
     <g id="text_1">
      <!-- $f$ -->
      <defs>
       <path d="M 9.71875 -16.5 
Q 11.578125 -17.921875 14.203125 -17.921875 
Q 17.78125 -17.921875 20.015625 -10.015625 
Q 20.953125 -6.203125 25.09375 15.09375 
L 29.6875 39.59375 
L 21.09375 39.59375 
Q 20.125 39.59375 20.125 40.921875 
Q 20.515625 43.109375 21.390625 43.109375 
L 30.328125 43.109375 
L 31.5 49.609375 
Q 32.078125 52.640625 32.5625 54.8125 
Q 33.0625 56.984375 33.625 58.828125 
Q 34.1875 60.6875 35.296875 62.984375 
Q 37.015625 66.265625 39.921875 68.390625 
Q 42.828125 70.515625 46.1875 70.515625 
Q 48.390625 70.515625 50.46875 69.703125 
Q 52.546875 68.890625 53.859375 67.28125 
Q 55.171875 65.671875 55.171875 63.484375 
Q 55.171875 60.9375 53.484375 59.046875 
Q 51.8125 57.171875 49.421875 57.171875 
Q 47.796875 57.171875 46.65625 58.171875 
Q 45.515625 59.1875 45.515625 60.796875 
Q 45.515625 62.984375 47 64.625 
Q 48.484375 66.265625 50.6875 66.5 
Q 48.828125 67.921875 46.09375 67.921875 
Q 44.578125 67.921875 43.234375 66.5 
Q 41.890625 65.09375 41.5 63.484375 
Q 40.875 60.9375 38.71875 49.703125 
L 37.5 43.109375 
L 47.796875 43.109375 
Q 48.78125 43.109375 48.78125 41.796875 
Q 48.734375 41.546875 48.578125 40.9375 
Q 48.4375 40.328125 48.171875 39.953125 
Q 47.90625 39.59375 47.515625 39.59375 
L 36.8125 39.59375 
L 32.171875 15.1875 
Q 31.296875 9.859375 30.140625 4.359375 
Q 29 -1.125 26.921875 -6.90625 
Q 24.859375 -12.703125 21.625 -16.609375 
Q 18.40625 -20.515625 14.015625 -20.515625 
Q 10.640625 -20.515625 7.984375 -18.578125 
Q 5.328125 -16.65625 5.328125 -13.484375 
Q 5.328125 -10.9375 6.953125 -9.046875 
Q 8.59375 -7.171875 11.078125 -7.171875 
Q 12.75 -7.171875 13.859375 -8.171875 
Q 14.984375 -9.1875 14.984375 -10.796875 
Q 14.984375 -12.9375 13.390625 -14.71875 
Q 11.8125 -16.5 9.71875 -16.5 
z
" id="Cmmi10-66"/>
      </defs>
      <g transform="translate(450.578759 100.913766)scale(0.1 -0.1)">
       <use transform="translate(0 0.484375)" xlink:href="#Cmmi10-66"/>
      </g>
     </g>
    </g>
    <g id="xtick_3">
     <g id="line2d_26">
      <path clip-path="url(#p06911b28d5)" d="M 562.529887 87.704405 
L 562.529887 16.528672 
" style="fill:none;stroke:#000000;stroke-dasharray:0.5,0.825;stroke-dashoffset:0;stroke-width:0.5;"/>
     </g>
     <g id="line2d_27">
      <g>
       <use style="stroke:#000000;stroke-width:0.8;" x="562.529887" xlink:href="#mb89eaa66c2" y="86.335641"/>
      </g>
     </g>
     <g id="text_2">
      <!-- $1$ -->
      <defs>
       <path d="M 9.28125 0 
L 9.28125 3.515625 
Q 21.78125 3.515625 21.78125 6.6875 
L 21.78125 59.1875 
Q 16.609375 56.6875 8.6875 56.6875 
L 8.6875 60.203125 
Q 20.953125 60.203125 27.203125 66.609375 
L 28.609375 66.609375 
Q 28.953125 66.609375 29.265625 66.328125 
Q 29.59375 66.0625 29.59375 65.71875 
L 29.59375 6.6875 
Q 29.59375 3.515625 42.09375 3.515625 
L 42.09375 0 
z
" id="Cmr10-31"/>
      </defs>
      <g transform="translate(560.029887 100.934078)scale(0.1 -0.1)">
       <use transform="translate(0 0.390625)" xlink:href="#Cmr10-31"/>
      </g>
     </g>
    </g>
   </g>
   <g id="matplotlib.axis_2">
    <g id="ytick_1">
     <g id="line2d_28">
      <path clip-path="url(#p06911b28d5)" d="M 4.074135 86.335641 
L 573.48 86.335641 
" style="fill:none;stroke:#000000;stroke-dasharray:0.5,0.825;stroke-dashoffset:0;stroke-width:0.5;"/>
     </g>
     <g id="line2d_29">
      <defs>
       <path d="M 0 0 
L -3.5 0 
" id="mcd33b35152" style="stroke:#000000;stroke-width:0.8;"/>
      </defs>
      <g>
       <use style="stroke:#000000;stroke-width:0.8;" x="15.024247" xlink:href="#mcd33b35152" y="86.335641"/>
      </g>
     </g>
    </g>
    <g id="ytick_2">
     <g id="line2d_30">
      <path clip-path="url(#p06911b28d5)" d="M 4.074135 17.897436 
L 573.48 17.897436 
" style="fill:none;stroke:#000000;stroke-dasharray:0.5,0.825;stroke-dashoffset:0;stroke-width:0.5;"/>
     </g>
     <g id="line2d_31">
      <g>
       <use style="stroke:#000000;stroke-width:0.8;" x="15.024247" xlink:href="#mcd33b35152" y="17.897436"/>
      </g>
     </g>
     <g id="text_3">
      <!-- $1$ -->
      <g transform="translate(3.024247 21.696655)scale(0.1 -0.1)">
       <use transform="translate(0 0.390625)" xlink:href="#Cmr10-31"/>
      </g>
     </g>
    </g>
   </g>
   <g id="patch_3">
    <path d="M 15.024247 87.704405 
L 15.024247 16.528672 
" style="fill:none;stroke:#000000;stroke-linecap:square;stroke-linejoin:miter;stroke-width:0.8;"/>
   </g>
   <g id="patch_4">
    <path d="M 4.074135 86.335641 
L 573.48 86.335641 
" style="fill:none;stroke:#000000;stroke-linecap:square;stroke-linejoin:miter;stroke-width:0.8;"/>
   </g>
  </g>
 </g>
 <defs>
  <clipPath id="p06911b28d5">
   <rect height="71.175733" width="569.405865" x="4.074135" y="16.528672"/>
  </clipPath>
 </defs>
</svg>
