<?xml version="1.0" encoding="utf-8" standalone="no"?>
<!DOCTYPE svg PUBLIC "-//W3C//DTD SVG 1.1//EN"
  "http://www.w3.org/Graphics/SVG/1.1/DTD/svg11.dtd">
<!-- Created with matplotlib (http://matplotlib.org/) -->
<svg height="108pt" version="1.1" viewBox="0 0 576 108" width="576pt" xmlns="http://www.w3.org/2000/svg" xmlns:xlink="http://www.w3.org/1999/xlink">
 <defs>
  <style type="text/css">
*{stroke-linecap:butt;stroke-linejoin:round;}
  </style>
 </defs>
 <g id="figure_1">
  <g id="patch_1">
   <path d="M 0 108 
L 576 108 
L 576 0 
L 0 0 
z
" style="fill:#ffffff;"/>
  </g>
  <g id="axes_1">
   <g id="patch_2">
    <path d="M 4.074135 87.704405 
L 573.48 87.704405 
L 573.48 16.528672 
L 4.074135 16.528672 
z
" style="fill:#ffffff;"/>
   </g>
   <g id="line2d_1">
    <path clip-path="url(#pd2cc23e6c5)" d="M 15.024247 86.335641 
L 111.314933 38.190298 
L 111.314933 38.190298 
" style="fill:none;stroke:#ff0000;stroke-linecap:square;stroke-width:2;"/>
   </g>
   <g id="line2d_2">
    <path clip-path="url(#pd2cc23e6c5)" d="M 113.641609 37.02696 
L 114.399539 36.647995 
L 115.075208 36.31016 
L 115.297406 36.199061 
L 116.280982 35.707274 
L 116.587155 35.554187 
L 117.254712 35.220409 
L 117.927358 34.884086 
L 118.562912 34.566309 
L 119.430646 34.132442 
L 120.592249 33.55164 
L 120.904854 33.395338 
L 121.873296 32.911117 
L 122.175322 32.760104 
L 122.948997 32.373266 
L 123.991082 31.852224 
L 124.220062 31.737734 
L 124.972886 31.361321 
L 125.683377 31.006076 
L 126.762355 30.466587 
L 127.003513 30.346008 
L 127.746036 29.974747 
L 128.783961 29.455784 
L 129.307573 29.193978 
L 130.234074 28.730728 
L 130.801998 28.446765 
L 130.935305 28.380112 
L 131.853109 27.92121 
L 132.393485 27.651022 
L 133.128623 27.283453 
L 133.772261 26.961634 
L 134.62336 26.536085 
L 135.587833 26.053848 
L 135.830634 25.932448 
L 136.938663 25.378433 
L 137.519449 25.08804 
L 138.380892 24.657319 
L 138.786426 24.454552 
L 139.720838 23.987346 
L 139.979254 23.858138 
L 141.236927 23.229301 
L 141.65935 23.01809 
L 142.069378 22.813076 
L 142.658397 22.518566 
L 143.66602 22.014754 
L 144.382336 21.656597 
L 144.990375 21.352577 
L 145.704244 20.995643 
L 146.244204 20.725663 
L 146.826023 20.434753 
L 147.868241 19.913644 
L 148.196365 19.749582 
L 149.209761 19.242884 
L 150.148327 18.773601 
L 150.628667 18.533431 
L 151.269826 18.212852 
L 151.900657 17.897436 
" style="fill:none;stroke:#ff0000;stroke-linecap:square;stroke-width:2;"/>
   </g>
   <g id="line2d_3">
    <path clip-path="url(#pd2cc23e6c5)" d="M 334.402537 63.522906 
L 380.028007 40.710171 
L 380.028007 40.710171 
" style="fill:none;stroke:#ff0000;stroke-linecap:square;stroke-width:2;"/>
   </g>
   <g id="line2d_4">
    <path clip-path="url(#pd2cc23e6c5)" d="M 151.900657 17.897436 
L 334.402537 63.522906 
L 334.402537 63.522906 
" style="fill:none;stroke:#00ffff;stroke-linecap:square;stroke-width:2;"/>
   </g>
   <g id="line2d_5">
    <path clip-path="url(#pd2cc23e6c5)" d="M 380.028007 40.710171 
L 381.016455 40.957283 
L 381.696009 41.127171 
L 383.03123 41.460977 
L 384.011506 41.706046 
L 384.436765 41.81236 
L 385.888124 42.1752 
L 386.680167 42.373211 
L 387.507294 42.579993 
L 388.009044 42.70543 
L 389.425171 43.059462 
L 389.801237 43.153478 
L 391.288613 43.525322 
L 392.39543 43.802027 
L 392.680809 43.873371 
L 393.605763 44.10461 
L 394.55686 44.342384 
L 395.282044 44.52368 
L 396.24345 44.764032 
L 397.468589 45.070316 
L 398.102211 45.228722 
L 399.483594 45.574068 
L 400.326729 45.784851 
L 400.8417 45.913594 
L 402.47875 46.322857 
L 402.697987 46.377666 
L 404.116178 46.732214 
L 404.598062 46.852685 
L 405.675083 47.12194 
L 406.58792 47.350149 
L 407.559143 47.592955 
L 408.443123 47.81395 
L 409.646776 48.114863 
L 410.533604 48.33657 
L 411.615233 48.606977 
L 412.246573 48.764812 
L 412.684224 48.874225 
L 413.769452 49.145532 
L 415.103953 49.479157 
L 415.511844 49.58113 
L 416.935572 49.937062 
L 417.802806 50.153871 
L 418.713606 50.381571 
L 419.533467 50.586536 
L 420.673719 50.871599 
L 421.054713 50.966847 
L 422.101535 51.228553 
L 423.334722 51.53685 
L 424.0427 51.713844 
L 424.995913 51.952147 
L 426.23048 52.260789 
L 426.923044 52.43393 
L 428.053961 52.716659 
L 429.045458 52.964534 
L 429.256167 53.017211 
L 430.204112 53.254197 
L 431.574456 53.596783 
L 431.926961 53.684909 
L 432.998629 53.952826 
L 434.517959 54.332659 
L 434.907536 54.430053 
L 436.274384 54.771765 
L 436.701686 54.878591 
L 438.014567 55.206811 
L 438.886907 55.424896 
L 439.9209 55.683394 
L 440.174778 55.746864 
L 441.764029 56.144176 
L 442.491521 56.326049 
L 443.437094 56.562443 
L 444.297615 56.777573 
L 445.050177 56.965713 
L 446.274815 57.271873 
L 447.182014 57.498673 
L 448.212524 57.7563 
L 448.982478 57.948789 
L 449.522615 58.083823 
L 450.817018 58.407424 
L 451.585279 58.599489 
L 452.78359 58.899067 
L 453.443518 59.064049 
L 454.630176 59.360713 
L 455.382314 59.548748 
L 455.874719 59.671849 
L 456.851319 59.915999 
L 458.02109 60.208442 
L 459.091396 60.476018 
L 459.66538 60.619514 
L 460.425493 60.809543 
L 462.10127 61.228487 
L 462.28635 61.274757 
L 463.723446 61.634031 
L 464.272768 61.771361 
L 465.553842 62.09163 
L 466.669167 62.370461 
L 467.487007 62.574921 
L 468.238972 62.762912 
L 468.790066 62.900686 
L 469.916821 63.182374 
L 470.65235 63.366257 
L 471.705554 63.629558 
L 472.237563 63.76256 
" style="fill:none;stroke:#00ffff;stroke-linecap:square;stroke-width:2;"/>
   </g>
   <g id="line2d_6">
    <path clip-path="url(#pd2cc23e6c5)" d="M 475.777121 64.647449 
L 476.599264 64.852985 
L 477.005113 64.954448 
L 477.910089 65.180691 
L 478.765823 65.394625 
L 479.783513 65.649047 
L 480.99533 65.952002 
L 481.734366 66.136761 
L 483.029567 66.460561 
L 483.641298 66.613494 
L 484.668558 66.870309 
L 485.519243 67.08298 
L 486.843528 67.414051 
L 487.43089 67.560892 
L 488.27716 67.772459 
L 489.528289 68.085241 
L 489.857622 68.167575 
L 490.540321 68.338249 
L 492.11136 68.731009 
L 492.748005 68.89017 
L 493.826734 69.159853 
L 494.551342 69.341005 
L 495.590761 69.600859 
L 496.688382 69.875265 
L 497.843407 70.164021 
L 498.405562 70.30456 
L 499.323228 70.533976 
L 499.739171 70.637962 
L 501.409709 71.055596 
L 501.765329 71.144501 
L 502.631298 71.360994 
L 504.076392 71.722267 
L 505.0893 71.975494 
L 505.350322 72.04075 
L 506.579008 72.347921 
L 507.366888 72.544891 
L 508.297076 72.777438 
L 509.444274 73.064238 
L 509.798431 73.152777 
L 511.026366 73.459761 
L 511.973888 73.696641 
L 512.702036 73.878678 
L 513.491612 74.076072 
L 514.708401 74.380269 
L 515.394888 74.551891 
L 516.934802 74.93687 
L 517.447254 75.064983 
L 518.383927 75.299151 
L 519.675052 75.621932 
L 520.434724 75.81185 
L 521.147111 75.989947 
L 522.584925 76.349401 
L 522.838385 76.412766 
L 524.363957 76.794158 
L 524.579329 76.848001 
L 525.60773 77.105102 
L 526.607859 77.355134 
L 527.924725 77.68435 
L 528.566512 77.844797 
L 529.10471 77.979347 
L 529.988433 78.200277 
L 531.588488 78.600291 
L 532.623993 78.859167 
L 533.11311 78.981447 
L 534.401951 79.303657 
L 534.809667 79.405586 
L 535.790385 79.650765 
L 536.414641 79.806829 
L 537.55958 80.093064 
L 538.380799 80.298369 
L 539.626872 80.609887 
L 540.479898 80.823144 
L 541.155683 80.99209 
L 542.026222 81.209725 
L 543.371373 81.546012 
L 543.969649 81.695581 
L 545.041672 81.963587 
L 545.862427 82.168776 
L 547.115245 82.481981 
L 548.252492 82.766292 
L 549.198733 83.002852 
L 550.073494 83.221543 
L 551.03864 83.462829 
L 551.363666 83.544086 
L 552.599265 83.852985 
L 553.297018 84.027424 
L 554.666747 84.369856 
L 555.43975 84.563107 
L 556.022001 84.708669 
L 557.185566 84.999561 
L 558.192169 85.251211 
L 558.790144 85.400705 
L 560.201652 85.753582 
L 561.128217 85.985223 
L 561.489651 86.075582 
L 562.529887 86.335641 
" style="fill:none;stroke:#00ffff;stroke-linecap:square;stroke-width:2;"/>
   </g>
   <g id="matplotlib.axis_1">
    <g id="xtick_1">
     <g id="line2d_7">
      <path clip-path="url(#pd2cc23e6c5)" d="M 15.024247 87.704405 
L 15.024247 16.528672 
" style="fill:none;stroke:#000000;stroke-dasharray:0.5,0.825;stroke-dashoffset:0;stroke-width:0.5;"/>
     </g>
     <g id="line2d_8">
      <defs>
       <path d="M 0 0 
L 0 3.5 
" id="m7e342130ff" style="stroke:#000000;stroke-width:0.8;"/>
      </defs>
      <g>
       <use style="stroke:#000000;stroke-width:0.8;" x="15.024247" xlink:href="#m7e342130ff" y="86.335641"/>
      </g>
     </g>
    </g>
    <g id="xtick_2">
     <g id="line2d_9">
      <path clip-path="url(#pd2cc23e6c5)" d="M 151.900657 87.704405 
L 151.900657 16.528672 
" style="fill:none;stroke:#000000;stroke-dasharray:0.5,0.825;stroke-dashoffset:0;stroke-width:0.5;"/>
     </g>
     <g id="line2d_10">
      <g>
       <use style="stroke:#000000;stroke-width:0.8;" x="151.900657" xlink:href="#m7e342130ff" y="86.335641"/>
      </g>
     </g>
     <g id="text_1">
      <!-- $f$ -->
      <defs>
       <path d="M 9.71875 -16.5 
Q 11.578125 -17.921875 14.203125 -17.921875 
Q 17.78125 -17.921875 20.015625 -10.015625 
Q 20.953125 -6.203125 25.09375 15.09375 
L 29.6875 39.59375 
L 21.09375 39.59375 
Q 20.125 39.59375 20.125 40.921875 
Q 20.515625 43.109375 21.390625 43.109375 
L 30.328125 43.109375 
L 31.5 49.609375 
Q 32.078125 52.640625 32.5625 54.8125 
Q 33.0625 56.984375 33.625 58.828125 
Q 34.1875 60.6875 35.296875 62.984375 
Q 37.015625 66.265625 39.921875 68.390625 
Q 42.828125 70.515625 46.1875 70.515625 
Q 48.390625 70.515625 50.46875 69.703125 
Q 52.546875 68.890625 53.859375 67.28125 
Q 55.171875 65.671875 55.171875 63.484375 
Q 55.171875 60.9375 53.484375 59.046875 
Q 51.8125 57.171875 49.421875 57.171875 
Q 47.796875 57.171875 46.65625 58.171875 
Q 45.515625 59.1875 45.515625 60.796875 
Q 45.515625 62.984375 47 64.625 
Q 48.484375 66.265625 50.6875 66.5 
Q 48.828125 67.921875 46.09375 67.921875 
Q 44.578125 67.921875 43.234375 66.5 
Q 41.890625 65.09375 41.5 63.484375 
Q 40.875 60.9375 38.71875 49.703125 
L 37.5 43.109375 
L 47.796875 43.109375 
Q 48.78125 43.109375 48.78125 41.796875 
Q 48.734375 41.546875 48.578125 40.9375 
Q 48.4375 40.328125 48.171875 39.953125 
Q 47.90625 39.59375 47.515625 39.59375 
L 36.8125 39.59375 
L 32.171875 15.1875 
Q 31.296875 9.859375 30.140625 4.359375 
Q 29 -1.125 26.921875 -6.90625 
Q 24.859375 -12.703125 21.625 -16.609375 
Q 18.40625 -20.515625 14.015625 -20.515625 
Q 10.640625 -20.515625 7.984375 -18.578125 
Q 5.328125 -16.65625 5.328125 -13.484375 
Q 5.328125 -10.9375 6.953125 -9.046875 
Q 8.59375 -7.171875 11.078125 -7.171875 
Q 12.75 -7.171875 13.859375 -8.171875 
Q 14.984375 -9.1875 14.984375 -10.796875 
Q 14.984375 -12.9375 13.390625 -14.71875 
Q 11.8125 -16.5 9.71875 -16.5 
z
" id="Cmmi10-66"/>
      </defs>
      <g transform="translate(149.450657 100.913766)scale(0.1 -0.1)">
       <use transform="translate(0 0.484375)" xlink:href="#Cmmi10-66"/>
      </g>
     </g>
    </g>
    <g id="xtick_3">
     <g id="line2d_11">
      <path clip-path="url(#pd2cc23e6c5)" d="M 562.529887 87.704405 
L 562.529887 16.528672 
" style="fill:none;stroke:#000000;stroke-dasharray:0.5,0.825;stroke-dashoffset:0;stroke-width:0.5;"/>
     </g>
     <g id="line2d_12">
      <g>
       <use style="stroke:#000000;stroke-width:0.8;" x="562.529887" xlink:href="#m7e342130ff" y="86.335641"/>
      </g>
     </g>
     <g id="text_2">
      <!-- $1$ -->
      <defs>
       <path d="M 9.28125 0 
L 9.28125 3.515625 
Q 21.78125 3.515625 21.78125 6.6875 
L 21.78125 59.1875 
Q 16.609375 56.6875 8.6875 56.6875 
L 8.6875 60.203125 
Q 20.953125 60.203125 27.203125 66.609375 
L 28.609375 66.609375 
Q 28.953125 66.609375 29.265625 66.328125 
Q 29.59375 66.0625 29.59375 65.71875 
L 29.59375 6.6875 
Q 29.59375 3.515625 42.09375 3.515625 
L 42.09375 0 
z
" id="Cmr10-31"/>
      </defs>
      <g transform="translate(560.029887 100.934078)scale(0.1 -0.1)">
       <use transform="translate(0 0.390625)" xlink:href="#Cmr10-31"/>
      </g>
     </g>
    </g>
   </g>
   <g id="matplotlib.axis_2">
    <g id="ytick_1">
     <g id="line2d_13">
      <path clip-path="url(#pd2cc23e6c5)" d="M 4.074135 86.335641 
L 573.48 86.335641 
" style="fill:none;stroke:#000000;stroke-dasharray:0.5,0.825;stroke-dashoffset:0;stroke-width:0.5;"/>
     </g>
     <g id="line2d_14">
      <defs>
       <path d="M 0 0 
L -3.5 0 
" id="m2904a0856c" style="stroke:#000000;stroke-width:0.8;"/>
      </defs>
      <g>
       <use style="stroke:#000000;stroke-width:0.8;" x="15.024247" xlink:href="#m2904a0856c" y="86.335641"/>
      </g>
     </g>
    </g>
    <g id="ytick_2">
     <g id="line2d_15">
      <path clip-path="url(#pd2cc23e6c5)" d="M 4.074135 17.897436 
L 573.48 17.897436 
" style="fill:none;stroke:#000000;stroke-dasharray:0.5,0.825;stroke-dashoffset:0;stroke-width:0.5;"/>
     </g>
     <g id="line2d_16">
      <g>
       <use style="stroke:#000000;stroke-width:0.8;" x="15.024247" xlink:href="#m2904a0856c" y="17.897436"/>
      </g>
     </g>
     <g id="text_3">
      <!-- $1$ -->
      <g transform="translate(3.024247 21.696655)scale(0.1 -0.1)">
       <use transform="translate(0 0.390625)" xlink:href="#Cmr10-31"/>
      </g>
     </g>
    </g>
   </g>
   <g id="patch_3">
    <path d="M 15.024247 87.704405 
L 15.024247 16.528672 
" style="fill:none;stroke:#000000;stroke-linecap:square;stroke-linejoin:miter;stroke-width:0.8;"/>
   </g>
   <g id="patch_4">
    <path d="M 4.074135 86.335641 
L 573.48 86.335641 
" style="fill:none;stroke:#000000;stroke-linecap:square;stroke-linejoin:miter;stroke-width:0.8;"/>
   </g>
  </g>
 </g>
 <defs>
  <clipPath id="pd2cc23e6c5">
   <rect height="71.175733" width="569.405865" x="4.074135" y="16.528672"/>
  </clipPath>
 </defs>
</svg>
