<?xml version="1.0" encoding="utf-8" standalone="no"?>
<!DOCTYPE svg PUBLIC "-//W3C//DTD SVG 1.1//EN"
  "http://www.w3.org/Graphics/SVG/1.1/DTD/svg11.dtd">
<!-- Created with matplotlib (http://matplotlib.org/) -->
<svg height="108pt" version="1.1" viewBox="0 0 576 108" width="576pt" xmlns="http://www.w3.org/2000/svg" xmlns:xlink="http://www.w3.org/1999/xlink">
 <defs>
  <style type="text/css">
*{stroke-linecap:butt;stroke-linejoin:round;}
  </style>
 </defs>
 <g id="figure_1">
  <g id="patch_1">
   <path d="M 0 108 
L 576 108 
L 576 0 
L 0 0 
z
" style="fill:#ffffff;"/>
  </g>
  <g id="axes_1">
   <g id="patch_2">
    <path d="M 4.074135 87.704405 
L 573.48 87.704405 
L 573.48 16.528672 
L 4.074135 16.528672 
z
" style="fill:#ffffff;"/>
   </g>
   <g id="line2d_1">
    <path clip-path="url(#p5c0de8f7e6)" d="M 288.777067 17.897436 
L 292.075294 22.459983 
L 292.075294 22.459983 
" style="fill:none;stroke:#ff0000;stroke-linecap:square;stroke-width:2;"/>
   </g>
   <g id="line2d_2">
    <path clip-path="url(#p5c0de8f7e6)" d="M 424.004364 49.835265 
L 427.302591 54.397812 
L 427.302591 54.397812 
" style="fill:none;stroke:#ff0000;stroke-linecap:square;stroke-width:2;"/>
   </g>
   <g id="line2d_3">
    <path clip-path="url(#p5c0de8f7e6)" d="M 559.23166 81.773094 
L 562.529887 86.335641 
L 562.529887 86.335641 
" style="fill:none;stroke:#ff0000;stroke-linecap:square;stroke-width:2;"/>
   </g>
   <g id="line2d_4">
    <path clip-path="url(#p5c0de8f7e6)" d="M 84.287009 36.849554 
L 87.585236 41.061136 
L 87.585236 41.061136 
" style="fill:none;stroke:#ff9900;stroke-linecap:square;stroke-width:2;"/>
   </g>
   <g id="line2d_5">
    <path clip-path="url(#p5c0de8f7e6)" d="M 90.883463 44.570788 
L 94.181689 48.78237 
L 94.181689 48.78237 
" style="fill:none;stroke:#ff9900;stroke-linecap:square;stroke-width:2;"/>
   </g>
   <g id="line2d_6">
    <path clip-path="url(#p5c0de8f7e6)" d="M 97.479916 52.292021 
L 110.672823 69.138348 
L 110.672823 69.138348 
" style="fill:none;stroke:#ff9900;stroke-linecap:square;stroke-width:2;"/>
   </g>
   <g id="line2d_7">
    <path clip-path="url(#p5c0de8f7e6)" d="M 113.97105 72.648 
L 117.269277 76.859582 
L 117.269277 76.859582 
" style="fill:none;stroke:#ff9900;stroke-linecap:square;stroke-width:2;"/>
   </g>
   <g id="line2d_8">
    <path clip-path="url(#p5c0de8f7e6)" d="M 186.532038 27.373495 
L 189.830265 31.585077 
L 189.830265 31.585077 
" style="fill:none;stroke:#ff9900;stroke-linecap:square;stroke-width:2;"/>
   </g>
   <g id="line2d_9">
    <path clip-path="url(#p5c0de8f7e6)" d="M 193.128492 35.094729 
L 206.321399 51.941056 
L 206.321399 51.941056 
" style="fill:none;stroke:#ff9900;stroke-linecap:square;stroke-width:2;"/>
   </g>
   <g id="line2d_10">
    <path clip-path="url(#p5c0de8f7e6)" d="M 209.619625 55.450707 
L 212.917852 59.662289 
L 212.917852 59.662289 
" style="fill:none;stroke:#ff9900;stroke-linecap:square;stroke-width:2;"/>
   </g>
   <g id="line2d_11">
    <path clip-path="url(#p5c0de8f7e6)" d="M 216.216079 63.171941 
L 219.514306 67.383523 
L 219.514306 67.383523 
" style="fill:none;stroke:#ff9900;stroke-linecap:square;stroke-width:2;"/>
   </g>
   <g id="line2d_12">
    <path clip-path="url(#p5c0de8f7e6)" d="M 292.075294 22.459983 
L 298.671748 30.883147 
L 298.671748 30.883147 
" style="fill:none;stroke:#ff9900;stroke-linecap:square;stroke-width:2;"/>
   </g>
   <g id="line2d_13">
    <path clip-path="url(#p5c0de8f7e6)" d="M 301.969974 34.743763 
L 305.268201 38.955345 
L 305.268201 38.955345 
" style="fill:none;stroke:#ff9900;stroke-linecap:square;stroke-width:2;"/>
   </g>
   <g id="line2d_14">
    <path clip-path="url(#p5c0de8f7e6)" d="M 308.566428 42.815962 
L 311.864655 47.027544 
L 311.864655 47.027544 
" style="fill:none;stroke:#ff9900;stroke-linecap:square;stroke-width:2;"/>
   </g>
   <g id="line2d_15">
    <path clip-path="url(#p5c0de8f7e6)" d="M 414.109684 37.551485 
L 417.40791 41.763066 
L 417.40791 41.763066 
" style="fill:none;stroke:#ff9900;stroke-linecap:square;stroke-width:2;"/>
   </g>
   <g id="line2d_16">
    <path clip-path="url(#p5c0de8f7e6)" d="M 420.706137 45.623683 
L 424.004364 49.835265 
L 424.004364 49.835265 
" style="fill:none;stroke:#ff9900;stroke-linecap:square;stroke-width:2;"/>
   </g>
   <g id="line2d_17">
    <path clip-path="url(#p5c0de8f7e6)" d="M 427.302591 54.397812 
L 430.600817 58.609394 
L 430.600817 58.609394 
" style="fill:none;stroke:#ff9900;stroke-linecap:square;stroke-width:2;"/>
   </g>
   <g id="line2d_18">
    <path clip-path="url(#p5c0de8f7e6)" d="M 433.899044 62.47001 
L 437.197271 66.681592 
L 437.197271 66.681592 
" style="fill:none;stroke:#ff9900;stroke-linecap:square;stroke-width:2;"/>
   </g>
   <g id="line2d_19">
    <path clip-path="url(#p5c0de8f7e6)" d="M 539.4423 57.205533 
L 539.467013 57.237089 
L 539.477399 57.250352 
L 539.485717 57.260973 
L 539.516835 57.300709 
L 539.530361 57.317981 
L 539.53977 57.329995 
L 539.55078 57.344053 
L 539.569742 57.368266 
L 539.594282 57.399603 
L 539.609441 57.41896 
L 539.624245 57.437862 
L 539.635464 57.452189 
L 539.652221 57.473586 
L 539.667151 57.49265 
L 539.694387 57.527429 
L 539.712386 57.550412 
L 539.718233 57.557879 
L 539.740056 57.585745 
L 539.761409 57.613011 
L 539.773496 57.628445 
L 539.793722 57.654272 
L 539.810346 57.675499 
L 539.82865 57.698873 
L 539.832599 57.703916 
L 539.862817 57.742501 
L 539.869799 57.751416 
L 539.881666 57.76657 
L 539.907372 57.799395 
L 539.919795 57.815258 
L 539.934928 57.834582 
L 539.961868 57.868982 
L 539.969375 57.878568 
L 539.989956 57.904848 
L 540.000305 57.918063 
L 540.029373 57.95518 
L 540.039668 57.968326 
L 540.06299 57.998107 
L 540.078134 58.017445 
L 540.087069 58.028853 
L 540.106317 58.053432 
L 540.115882 58.065645 
L 540.137277 58.092965 
L 540.162831 58.125596 
L 540.163941 58.127013 
L 540.186796 58.156197 
L 540.210689 58.186707 
L 540.221043 58.199929 
L 540.234125 58.216632 
L 540.256635 58.245377 
L 540.272307 58.265389 
L 540.285615 58.282381 
L 540.30941 58.312766 
L 540.316302 58.321567 
L 540.33943 58.3511 
L 540.361107 58.378779 
L 540.368485 58.388201 
L 540.394075 58.420877 
L 540.405591 58.435582 
L 540.421929 58.456444 
L 540.439504 58.478886 
L 540.460672 58.505916 
L 540.476995 58.526759 
L 540.491265 58.544981 
L 540.501586 58.55816 
L 540.519898 58.581543 
L 540.54133 58.60891 
L 540.556146 58.627829 
L 540.570193 58.645766 
L 540.578692 58.656619 
L 540.603622 58.688452 
L 540.614877 58.702823 
L 540.636512 58.730451 
L 540.65524 58.754364 
L 540.66657 58.768832 
L 540.681761 58.78823 
L 540.702076 58.81417 
L 540.725314 58.843843 
L 540.733308 58.854052 
" style="fill:none;stroke:#ff9900;stroke-linecap:square;stroke-width:2;"/>
   </g>
   <g id="line2d_20">
    <path clip-path="url(#p5c0de8f7e6)" d="M 540.785483 58.920675 
L 540.797427 58.935926 
L 540.812493 58.955164 
L 540.830738 58.978462 
L 540.844847 58.996478 
L 540.865249 59.02253 
L 540.889945 59.054064 
L 540.906503 59.075208 
L 540.910568 59.080398 
L 540.939671 59.117561 
L 540.94943 59.130023 
L 540.973409 59.160641 
L 540.986136 59.176893 
L 540.998967 59.193277 
L 541.016823 59.216077 
L 541.036908 59.241725 
L 541.04995 59.258379 
L 541.065864 59.278699 
L 541.083568 59.301306 
L 541.101096 59.323688 
L 541.118124 59.345431 
L 541.128163 59.358251 
L 541.145618 59.38054 
L 541.166863 59.407667 
L 541.176482 59.419951 
L 541.207271 59.459266 
L 541.220209 59.475786 
L 541.233636 59.492931 
L 541.254842 59.520009 
L 541.262429 59.529697 
L 541.285214 59.558792 
L 541.302478 59.580837 
L 541.310745 59.591394 
L 541.327993 59.613418 
L 541.34774 59.638633 
L 541.366759 59.66292 
L 541.373471 59.67149 
L 541.390997 59.69387 
L 541.417995 59.728344 
L 541.424961 59.737239 
L 541.450904 59.770366 
L 541.4702 59.795005 
L 541.478243 59.805276 
L 541.505378 59.839925 
L 541.521815 59.860914 
L 541.538425 59.882124 
L 541.5496 59.896393 
L 541.564754 59.915744 
L 541.577805 59.932408 
L 541.595668 59.955219 
L 541.618614 59.984519 
L 541.625807 59.993704 
L 541.652285 60.027515 
L 541.662564 60.040639 
L 541.674993 60.05651 
L 541.688826 60.074174 
L 541.721072 60.115349 
L 541.725013 60.120382 
L 541.746898 60.148327 
L 541.760332 60.165481 
L 541.785511 60.197633 
L 541.790007 60.203375 
L 541.816666 60.237416 
L 541.830118 60.254593 
L 541.843601 60.27181 
L 541.866488 60.301035 
L 541.873619 60.31014 
L 541.903458 60.348243 
L 541.913199 60.360682 
L 541.924135 60.374646 
L 541.951164 60.409159 
L 541.956862 60.416436 
L 541.969942 60.433137 
L 541.990495 60.459382 
L 542.017407 60.493746 
L 542.026782 60.505718 
L 542.04172 60.524792 
L 542.063659 60.552806 
L 542.084509 60.579431 
L 542.095949 60.594038 
L 542.118781 60.623193 
L 542.124131 60.630025 
L 542.136031 60.645221 
L 542.164665 60.681783 
L 542.179542 60.70078 
L 542.198949 60.725561 
L 542.206711 60.735474 
L 542.225652 60.75966 
L 542.240085 60.778089 
L 542.263497 60.807984 
L 542.28207 60.831701 
L 542.300901 60.855746 
L 542.315173 60.873972 
L 542.327222 60.889356 
L 542.34868 60.916757 
L 542.360791 60.932221 
L 542.380855 60.957841 
L 542.400405 60.982806 
L 542.416141 61.002899 
L 542.41995 61.007764 
L 542.438054 61.03088 
L 542.454502 61.051883 
L 542.479671 61.084023 
L 542.49235 61.100212 
L 542.505515 61.117023 
L 542.524843 61.141703 
L 542.539052 61.159847 
L 542.551984 61.176361 
L 542.582805 61.215716 
L 542.598425 61.235662 
L 542.602033 61.240269 
L 542.626106 61.271008 
L 542.636262 61.283977 
L 542.649464 61.300834 
L 542.681893 61.342244 
L 542.684479 61.345546 
L 542.708604 61.376352 
L 542.718457 61.388933 
L 542.740527 61.417115 
" style="fill:none;stroke:#ff9900;stroke-linecap:square;stroke-width:2;"/>
   </g>
   <g id="line2d_21">
    <path clip-path="url(#p5c0de8f7e6)" d="M 546.038753 65.277732 
L 549.33698 69.489314 
L 549.33698 69.489314 
" style="fill:none;stroke:#ff9900;stroke-linecap:square;stroke-width:2;"/>
   </g>
   <g id="line2d_22">
    <path clip-path="url(#p5c0de8f7e6)" d="M 552.635207 73.34993 
L 559.23166 81.773094 
L 559.23166 81.773094 
" style="fill:none;stroke:#ff9900;stroke-linecap:square;stroke-width:2;"/>
   </g>
   <g id="line2d_23">
    <path clip-path="url(#p5c0de8f7e6)" d="M 15.024247 86.335641 
L 17.909396 82.344518 
L 17.909396 82.344518 
" style="fill:none;stroke:#cbff00;stroke-linecap:square;stroke-width:2;"/>
   </g>
   <g id="line2d_24">
    <path clip-path="url(#p5c0de8f7e6)" d="M 17.96438 82.268457 
L 17.968887 82.262223 
L 17.994371 82.226969 
L 18.005893 82.211032 
L 18.02367 82.186439 
L 18.03575 82.169729 
L 18.057745 82.139303 
L 18.079472 82.109247 
L 18.09271 82.090934 
L 18.105646 82.07304 
L 18.119455 82.053937 
L 18.13339 82.03466 
L 18.15876 81.999566 
L 18.174507 81.977782 
L 18.198131 81.945102 
L 18.202201 81.939471 
L 18.227565 81.904385 
L 18.238414 81.889377 
L 18.251247 81.871625 
L 18.280054 81.831775 
L 18.287313 81.821733 
L 18.298706 81.805973 
L 18.322474 81.773094 
" style="fill:none;stroke:#cbff00;stroke-linecap:square;stroke-width:2;"/>
   </g>
   <g id="line2d_25">
    <path clip-path="url(#p5c0de8f7e6)" d="M 150.251544 54.397812 
L 153.549771 49.835265 
L 153.549771 49.835265 
" style="fill:none;stroke:#cbff00;stroke-linecap:square;stroke-width:2;"/>
   </g>
   <g id="line2d_26">
    <path clip-path="url(#p5c0de8f7e6)" d="M 285.478841 22.459983 
L 288.777067 17.897436 
L 288.777067 17.897436 
" style="fill:none;stroke:#cbff00;stroke-linecap:square;stroke-width:2;"/>
   </g>
   <g id="line2d_27">
    <path clip-path="url(#p5c0de8f7e6)" d="M 338.250468 75.104756 
L 341.548695 71.595104 
L 341.548695 71.595104 
" style="fill:none;stroke:#33ff00;stroke-linecap:square;stroke-width:2;"/>
   </g>
   <g id="line2d_28">
    <path clip-path="url(#p5c0de8f7e6)" d="M 344.846922 74.753791 
L 348.145149 71.244139 
L 348.145149 71.244139 
" style="fill:none;stroke:#33ff00;stroke-linecap:square;stroke-width:2;"/>
   </g>
   <g id="line2d_29">
    <path clip-path="url(#p5c0de8f7e6)" d="M 351.443375 74.402826 
L 358.039829 67.383523 
L 358.039829 67.383523 
" style="fill:none;stroke:#33ff00;stroke-linecap:square;stroke-width:2;"/>
   </g>
   <g id="line2d_30">
    <path clip-path="url(#p5c0de8f7e6)" d="M 361.338056 63.171941 
L 364.636282 59.662289 
L 364.636282 59.662289 
" style="fill:none;stroke:#33ff00;stroke-linecap:square;stroke-width:2;"/>
   </g>
   <g id="line2d_31">
    <path clip-path="url(#p5c0de8f7e6)" d="M 367.934509 55.450707 
L 371.232736 51.941056 
L 371.232736 51.941056 
" style="fill:none;stroke:#33ff00;stroke-linecap:square;stroke-width:2;"/>
   </g>
   <g id="line2d_32">
    <path clip-path="url(#p5c0de8f7e6)" d="M 384.425643 35.094729 
L 387.72387 31.585077 
L 387.72387 31.585077 
" style="fill:none;stroke:#33ff00;stroke-linecap:square;stroke-width:2;"/>
   </g>
   <g id="line2d_33">
    <path clip-path="url(#p5c0de8f7e6)" d="M 391.022096 27.373495 
L 394.320323 23.863844 
L 394.320323 23.863844 
" style="fill:none;stroke:#33ff00;stroke-linecap:square;stroke-width:2;"/>
   </g>
   <g id="line2d_34">
    <path clip-path="url(#p5c0de8f7e6)" d="M 397.61855 27.02253 
L 400.916777 23.512878 
L 400.916777 23.512878 
" style="fill:none;stroke:#33ff00;stroke-linecap:square;stroke-width:2;"/>
   </g>
   <g id="line2d_35">
    <path clip-path="url(#p5c0de8f7e6)" d="M 450.390178 80.720198 
L 453.688405 77.210547 
L 453.688405 77.210547 
" style="fill:none;stroke:#33ff00;stroke-linecap:square;stroke-width:2;"/>
   </g>
   <g id="line2d_36">
    <path clip-path="url(#p5c0de8f7e6)" d="M 456.986631 80.369233 
L 460.284858 76.859582 
L 460.284858 76.859582 
" style="fill:none;stroke:#33ff00;stroke-linecap:square;stroke-width:2;"/>
   </g>
   <g id="line2d_37">
    <path clip-path="url(#p5c0de8f7e6)" d="M 463.583085 72.648 
L 466.881312 69.138348 
L 466.881312 69.138348 
" style="fill:none;stroke:#33ff00;stroke-linecap:square;stroke-width:2;"/>
   </g>
   <g id="line2d_38">
    <path clip-path="url(#p5c0de8f7e6)" d="M 480.074219 52.292021 
L 483.372445 48.78237 
L 483.372445 48.78237 
" style="fill:none;stroke:#33ff00;stroke-linecap:square;stroke-width:2;"/>
   </g>
   <g id="line2d_39">
    <path clip-path="url(#p5c0de8f7e6)" d="M 486.670672 44.570788 
L 489.968899 41.061136 
L 489.968899 41.061136 
" style="fill:none;stroke:#33ff00;stroke-linecap:square;stroke-width:2;"/>
   </g>
   <g id="line2d_40">
    <path clip-path="url(#p5c0de8f7e6)" d="M 493.267126 36.849554 
L 499.863579 29.830251 
L 499.863579 29.830251 
" style="fill:none;stroke:#33ff00;stroke-linecap:square;stroke-width:2;"/>
   </g>
   <g id="line2d_41">
    <path clip-path="url(#p5c0de8f7e6)" d="M 503.161806 32.988938 
L 506.460033 29.479286 
L 506.460033 29.479286 
" style="fill:none;stroke:#33ff00;stroke-linecap:square;stroke-width:2;"/>
   </g>
   <g id="line2d_42">
    <path clip-path="url(#p5c0de8f7e6)" d="M 509.758259 32.637972 
L 513.056486 29.128321 
L 513.056486 29.128321 
" style="fill:none;stroke:#33ff00;stroke-linecap:square;stroke-width:2;"/>
   </g>
   <g id="line2d_43">
    <path clip-path="url(#p5c0de8f7e6)" d="M 24.918928 73.34993 
L 28.217154 69.489314 
L 28.217154 69.489314 
" style="fill:none;stroke:#00ff66;stroke-linecap:square;stroke-width:2;"/>
   </g>
   <g id="line2d_44">
    <path clip-path="url(#p5c0de8f7e6)" d="M 31.515381 65.277732 
L 34.813608 61.417115 
L 34.813608 61.417115 
" style="fill:none;stroke:#00ff66;stroke-linecap:square;stroke-width:2;"/>
   </g>
   <g id="line2d_45">
    <path clip-path="url(#p5c0de8f7e6)" d="M 38.111835 57.205533 
L 44.708288 49.4843 
L 44.708288 49.4843 
" style="fill:none;stroke:#00ff66;stroke-linecap:square;stroke-width:2;"/>
   </g>
   <g id="line2d_46">
    <path clip-path="url(#p5c0de8f7e6)" d="M 48.006515 46.325613 
L 51.304742 42.464997 
L 51.304742 42.464997 
" style="fill:none;stroke:#00ff66;stroke-linecap:square;stroke-width:2;"/>
   </g>
   <g id="line2d_47">
    <path clip-path="url(#p5c0de8f7e6)" d="M 54.602968 39.30631 
L 57.901195 35.445694 
L 57.901195 35.445694 
" style="fill:none;stroke:#00ff66;stroke-linecap:square;stroke-width:2;"/>
   </g>
   <g id="line2d_48">
    <path clip-path="url(#p5c0de8f7e6)" d="M 130.462184 77.561512 
L 133.76041 73.700895 
L 133.76041 73.700895 
" style="fill:none;stroke:#00ff66;stroke-linecap:square;stroke-width:2;"/>
   </g>
   <g id="line2d_49">
    <path clip-path="url(#p5c0de8f7e6)" d="M 137.058637 70.542209 
L 140.356864 66.681592 
L 140.356864 66.681592 
" style="fill:none;stroke:#00ff66;stroke-linecap:square;stroke-width:2;"/>
   </g>
   <g id="line2d_50">
    <path clip-path="url(#p5c0de8f7e6)" d="M 143.65509 62.47001 
L 146.953317 58.609394 
L 146.953317 58.609394 
" style="fill:none;stroke:#00ff66;stroke-linecap:square;stroke-width:2;"/>
   </g>
   <g id="line2d_51">
    <path clip-path="url(#p5c0de8f7e6)" d="M 156.847997 45.623683 
L 160.146224 41.763066 
L 160.146224 41.763066 
" style="fill:none;stroke:#00ff66;stroke-linecap:square;stroke-width:2;"/>
   </g>
   <g id="line2d_52">
    <path clip-path="url(#p5c0de8f7e6)" d="M 163.444451 37.551485 
L 166.742678 33.690868 
L 166.742678 33.690868 
" style="fill:none;stroke:#00ff66;stroke-linecap:square;stroke-width:2;"/>
   </g>
   <g id="line2d_53">
    <path clip-path="url(#p5c0de8f7e6)" d="M 170.040904 30.532182 
L 173.339131 26.671565 
L 173.339131 26.671565 
" style="fill:none;stroke:#00ff66;stroke-linecap:square;stroke-width:2;"/>
   </g>
   <g id="line2d_54">
    <path clip-path="url(#p5c0de8f7e6)" d="M 245.90012 68.787383 
L 249.198346 64.926767 
L 249.198346 64.926767 
" style="fill:none;stroke:#00ff66;stroke-linecap:square;stroke-width:2;"/>
   </g>
   <g id="line2d_55">
    <path clip-path="url(#p5c0de8f7e6)" d="M 252.496573 61.76808 
L 255.7948 57.907463 
L 255.7948 57.907463 
" style="fill:none;stroke:#00ff66;stroke-linecap:square;stroke-width:2;"/>
   </g>
   <g id="line2d_56">
    <path clip-path="url(#p5c0de8f7e6)" d="M 259.093027 54.748777 
L 265.68948 47.027544 
L 265.68948 47.027544 
" style="fill:none;stroke:#00ff66;stroke-linecap:square;stroke-width:2;"/>
   </g>
   <g id="line2d_57">
    <path clip-path="url(#p5c0de8f7e6)" d="M 268.987707 42.815962 
L 272.285934 38.955345 
L 272.285934 38.955345 
" style="fill:none;stroke:#00ff66;stroke-linecap:square;stroke-width:2;"/>
   </g>
   <g id="line2d_58">
    <path clip-path="url(#p5c0de8f7e6)" d="M 275.58416 34.743763 
L 278.882387 30.883147 
L 278.882387 30.883147 
" style="fill:none;stroke:#00ff66;stroke-linecap:square;stroke-width:2;"/>
   </g>
   <g id="line2d_59">
    <path clip-path="url(#p5c0de8f7e6)" d="M 64.497649 29.128321 
L 67.795875 32.637972 
L 67.795875 32.637972 
" style="fill:none;stroke:#00ffff;stroke-linecap:square;stroke-width:2;"/>
   </g>
   <g id="line2d_60">
    <path clip-path="url(#p5c0de8f7e6)" d="M 71.094102 29.479286 
L 74.392329 32.988938 
L 74.392329 32.988938 
" style="fill:none;stroke:#00ffff;stroke-linecap:square;stroke-width:2;"/>
   </g>
   <g id="line2d_61">
    <path clip-path="url(#p5c0de8f7e6)" d="M 77.690556 29.830251 
L 84.287009 36.849554 
L 84.287009 36.849554 
" style="fill:none;stroke:#00ffff;stroke-linecap:square;stroke-width:2;"/>
   </g>
   <g id="line2d_62">
    <path clip-path="url(#p5c0de8f7e6)" d="M 87.585236 41.061136 
L 90.883463 44.570788 
L 90.883463 44.570788 
" style="fill:none;stroke:#00ffff;stroke-linecap:square;stroke-width:2;"/>
   </g>
   <g id="line2d_63">
    <path clip-path="url(#p5c0de8f7e6)" d="M 94.181689 48.78237 
L 97.479916 52.292021 
L 97.479916 52.292021 
" style="fill:none;stroke:#00ffff;stroke-linecap:square;stroke-width:2;"/>
   </g>
   <g id="line2d_64">
    <path clip-path="url(#p5c0de8f7e6)" d="M 110.672823 69.138348 
L 113.97105 72.648 
L 113.97105 72.648 
" style="fill:none;stroke:#00ffff;stroke-linecap:square;stroke-width:2;"/>
   </g>
   <g id="line2d_65">
    <path clip-path="url(#p5c0de8f7e6)" d="M 117.269277 76.859582 
L 120.567503 80.369233 
L 120.567503 80.369233 
" style="fill:none;stroke:#00ffff;stroke-linecap:square;stroke-width:2;"/>
   </g>
   <g id="line2d_66">
    <path clip-path="url(#p5c0de8f7e6)" d="M 123.86573 77.210547 
L 127.163957 80.720198 
L 127.163957 80.720198 
" style="fill:none;stroke:#00ffff;stroke-linecap:square;stroke-width:2;"/>
   </g>
   <g id="line2d_67">
    <path clip-path="url(#p5c0de8f7e6)" d="M 176.637358 23.512878 
L 179.935585 27.02253 
L 179.935585 27.02253 
" style="fill:none;stroke:#00ffff;stroke-linecap:square;stroke-width:2;"/>
   </g>
   <g id="line2d_68">
    <path clip-path="url(#p5c0de8f7e6)" d="M 183.233811 23.863844 
L 186.532038 27.373495 
L 186.532038 27.373495 
" style="fill:none;stroke:#00ffff;stroke-linecap:square;stroke-width:2;"/>
   </g>
   <g id="line2d_69">
    <path clip-path="url(#p5c0de8f7e6)" d="M 189.830265 31.585077 
L 193.128492 35.094729 
L 193.128492 35.094729 
" style="fill:none;stroke:#00ffff;stroke-linecap:square;stroke-width:2;"/>
   </g>
   <g id="line2d_70">
    <path clip-path="url(#p5c0de8f7e6)" d="M 206.321399 51.941056 
L 209.619625 55.450707 
L 209.619625 55.450707 
" style="fill:none;stroke:#00ffff;stroke-linecap:square;stroke-width:2;"/>
   </g>
   <g id="line2d_71">
    <path clip-path="url(#p5c0de8f7e6)" d="M 212.917852 59.662289 
L 216.216079 63.171941 
L 216.216079 63.171941 
" style="fill:none;stroke:#00ffff;stroke-linecap:square;stroke-width:2;"/>
   </g>
   <g id="line2d_72">
    <path clip-path="url(#p5c0de8f7e6)" d="M 219.514306 67.383523 
L 226.110759 74.402826 
L 226.110759 74.402826 
" style="fill:none;stroke:#00ffff;stroke-linecap:square;stroke-width:2;"/>
   </g>
   <g id="line2d_73">
    <path clip-path="url(#p5c0de8f7e6)" d="M 229.408986 71.244139 
L 232.707213 74.753791 
L 232.707213 74.753791 
" style="fill:none;stroke:#00ffff;stroke-linecap:square;stroke-width:2;"/>
   </g>
   <g id="line2d_74">
    <path clip-path="url(#p5c0de8f7e6)" d="M 236.005439 71.595104 
L 239.303666 75.104756 
L 239.303666 75.104756 
" style="fill:none;stroke:#00ffff;stroke-linecap:square;stroke-width:2;"/>
   </g>
   <g id="line2d_75">
    <path clip-path="url(#p5c0de8f7e6)" d="M 318.461108 54.748777 
L 321.759335 57.907463 
L 321.759335 57.907463 
" style="fill:none;stroke:#0066ff;stroke-linecap:square;stroke-width:2;"/>
   </g>
   <g id="line2d_76">
    <path clip-path="url(#p5c0de8f7e6)" d="M 325.057562 61.76808 
L 328.355788 64.926767 
L 328.355788 64.926767 
" style="fill:none;stroke:#0066ff;stroke-linecap:square;stroke-width:2;"/>
   </g>
   <g id="line2d_77">
    <path clip-path="url(#p5c0de8f7e6)" d="M 331.654015 68.787383 
L 338.250468 75.104756 
L 338.250468 75.104756 
" style="fill:none;stroke:#0066ff;stroke-linecap:square;stroke-width:2;"/>
   </g>
   <g id="line2d_78">
    <path clip-path="url(#p5c0de8f7e6)" d="M 341.548695 71.595104 
L 344.846922 74.753791 
L 344.846922 74.753791 
" style="fill:none;stroke:#0066ff;stroke-linecap:square;stroke-width:2;"/>
   </g>
   <g id="line2d_79">
    <path clip-path="url(#p5c0de8f7e6)" d="M 348.145149 71.244139 
L 351.443375 74.402826 
L 351.443375 74.402826 
" style="fill:none;stroke:#0066ff;stroke-linecap:square;stroke-width:2;"/>
   </g>
   <g id="line2d_80">
    <path clip-path="url(#p5c0de8f7e6)" d="M 394.320323 23.863844 
L 397.61855 27.02253 
L 397.61855 27.02253 
" style="fill:none;stroke:#0066ff;stroke-linecap:square;stroke-width:2;"/>
   </g>
   <g id="line2d_81">
    <path clip-path="url(#p5c0de8f7e6)" d="M 400.916777 23.512878 
L 404.215003 26.671565 
L 404.215003 26.671565 
" style="fill:none;stroke:#0066ff;stroke-linecap:square;stroke-width:2;"/>
   </g>
   <g id="line2d_82">
    <path clip-path="url(#p5c0de8f7e6)" d="M 407.51323 30.532182 
L 410.811457 33.690868 
L 410.811457 33.690868 
" style="fill:none;stroke:#0066ff;stroke-linecap:square;stroke-width:2;"/>
   </g>
   <g id="line2d_83">
    <path clip-path="url(#p5c0de8f7e6)" d="M 440.495498 70.542209 
L 443.793724 73.700895 
L 443.793724 73.700895 
" style="fill:none;stroke:#0066ff;stroke-linecap:square;stroke-width:2;"/>
   </g>
   <g id="line2d_84">
    <path clip-path="url(#p5c0de8f7e6)" d="M 447.091951 77.561512 
L 450.390178 80.720198 
L 450.390178 80.720198 
" style="fill:none;stroke:#0066ff;stroke-linecap:square;stroke-width:2;"/>
   </g>
   <g id="line2d_85">
    <path clip-path="url(#p5c0de8f7e6)" d="M 453.688405 77.210547 
L 456.986631 80.369233 
L 456.986631 80.369233 
" style="fill:none;stroke:#0066ff;stroke-linecap:square;stroke-width:2;"/>
   </g>
   <g id="line2d_86">
    <path clip-path="url(#p5c0de8f7e6)" d="M 499.863579 29.830251 
L 503.161806 32.988938 
L 503.161806 32.988938 
" style="fill:none;stroke:#0066ff;stroke-linecap:square;stroke-width:2;"/>
   </g>
   <g id="line2d_87">
    <path clip-path="url(#p5c0de8f7e6)" d="M 506.460033 29.479286 
L 509.758259 32.637972 
L 509.758259 32.637972 
" style="fill:none;stroke:#0066ff;stroke-linecap:square;stroke-width:2;"/>
   </g>
   <g id="line2d_88">
    <path clip-path="url(#p5c0de8f7e6)" d="M 513.056486 29.128321 
L 519.65294 35.445694 
L 519.65294 35.445694 
" style="fill:none;stroke:#0066ff;stroke-linecap:square;stroke-width:2;"/>
   </g>
   <g id="line2d_89">
    <path clip-path="url(#p5c0de8f7e6)" d="M 522.951166 39.30631 
L 526.249393 42.464997 
L 526.249393 42.464997 
" style="fill:none;stroke:#0066ff;stroke-linecap:square;stroke-width:2;"/>
   </g>
   <g id="line2d_90">
    <path clip-path="url(#p5c0de8f7e6)" d="M 529.54762 46.325613 
L 532.845846 49.4843 
L 532.845846 49.4843 
" style="fill:none;stroke:#0066ff;stroke-linecap:square;stroke-width:2;"/>
   </g>
   <g id="line2d_91">
    <path clip-path="url(#p5c0de8f7e6)" d="M 298.671748 30.883147 
L 301.969974 34.743763 
L 301.969974 34.743763 
" style="fill:none;stroke:#3200ff;stroke-linecap:square;stroke-width:2;"/>
   </g>
   <g id="line2d_92">
    <path clip-path="url(#p5c0de8f7e6)" d="M 305.268201 38.955345 
L 308.566428 42.815962 
L 308.566428 42.815962 
" style="fill:none;stroke:#3200ff;stroke-linecap:square;stroke-width:2;"/>
   </g>
   <g id="line2d_93">
    <path clip-path="url(#p5c0de8f7e6)" d="M 311.864655 47.027544 
L 318.461108 54.748777 
L 318.461108 54.748777 
" style="fill:none;stroke:#3200ff;stroke-linecap:square;stroke-width:2;"/>
   </g>
   <g id="line2d_94">
    <path clip-path="url(#p5c0de8f7e6)" d="M 321.759335 57.907463 
L 325.057562 61.76808 
L 325.057562 61.76808 
" style="fill:none;stroke:#3200ff;stroke-linecap:square;stroke-width:2;"/>
   </g>
   <g id="line2d_95">
    <path clip-path="url(#p5c0de8f7e6)" d="M 328.355788 64.926767 
L 331.654015 68.787383 
L 331.654015 68.787383 
" style="fill:none;stroke:#3200ff;stroke-linecap:square;stroke-width:2;"/>
   </g>
   <g id="line2d_96">
    <path clip-path="url(#p5c0de8f7e6)" d="M 404.215003 26.671565 
L 407.51323 30.532182 
L 407.51323 30.532182 
" style="fill:none;stroke:#3200ff;stroke-linecap:square;stroke-width:2;"/>
   </g>
   <g id="line2d_97">
    <path clip-path="url(#p5c0de8f7e6)" d="M 410.811457 33.690868 
L 414.109684 37.551485 
L 414.109684 37.551485 
" style="fill:none;stroke:#3200ff;stroke-linecap:square;stroke-width:2;"/>
   </g>
   <g id="line2d_98">
    <path clip-path="url(#p5c0de8f7e6)" d="M 417.40791 41.763066 
L 420.706137 45.623683 
L 420.706137 45.623683 
" style="fill:none;stroke:#3200ff;stroke-linecap:square;stroke-width:2;"/>
   </g>
   <g id="line2d_99">
    <path clip-path="url(#p5c0de8f7e6)" d="M 430.600817 58.609394 
L 433.899044 62.47001 
L 433.899044 62.47001 
" style="fill:none;stroke:#3200ff;stroke-linecap:square;stroke-width:2;"/>
   </g>
   <g id="line2d_100">
    <path clip-path="url(#p5c0de8f7e6)" d="M 437.197271 66.681592 
L 440.495498 70.542209 
L 440.495498 70.542209 
" style="fill:none;stroke:#3200ff;stroke-linecap:square;stroke-width:2;"/>
   </g>
   <g id="line2d_101">
    <path clip-path="url(#p5c0de8f7e6)" d="M 443.793724 73.700895 
L 447.091951 77.561512 
L 447.091951 77.561512 
" style="fill:none;stroke:#3200ff;stroke-linecap:square;stroke-width:2;"/>
   </g>
   <g id="line2d_102">
    <path clip-path="url(#p5c0de8f7e6)" d="M 519.65294 35.445694 
L 522.951166 39.30631 
L 522.951166 39.30631 
" style="fill:none;stroke:#3200ff;stroke-linecap:square;stroke-width:2;"/>
   </g>
   <g id="line2d_103">
    <path clip-path="url(#p5c0de8f7e6)" d="M 526.249393 42.464997 
L 529.54762 46.325613 
L 529.54762 46.325613 
" style="fill:none;stroke:#3200ff;stroke-linecap:square;stroke-width:2;"/>
   </g>
   <g id="line2d_104">
    <path clip-path="url(#p5c0de8f7e6)" d="M 532.845846 49.4843 
L 539.4423 57.205533 
L 539.4423 57.205533 
" style="fill:none;stroke:#3200ff;stroke-linecap:square;stroke-width:2;"/>
   </g>
   <g id="line2d_105">
    <path clip-path="url(#p5c0de8f7e6)" d="M 542.740527 61.417115 
L 546.038753 65.277732 
L 546.038753 65.277732 
" style="fill:none;stroke:#3200ff;stroke-linecap:square;stroke-width:2;"/>
   </g>
   <g id="line2d_106">
    <path clip-path="url(#p5c0de8f7e6)" d="M 549.33698 69.489314 
L 552.635207 73.34993 
L 552.635207 73.34993 
" style="fill:none;stroke:#3200ff;stroke-linecap:square;stroke-width:2;"/>
   </g>
   <g id="line2d_107">
    <path clip-path="url(#p5c0de8f7e6)" d="M 44.708288 49.4843 
L 48.006515 46.325613 
L 48.006515 46.325613 
" style="fill:none;stroke:#cc00ff;stroke-linecap:square;stroke-width:2;"/>
   </g>
   <g id="line2d_108">
    <path clip-path="url(#p5c0de8f7e6)" d="M 51.304742 42.464997 
L 54.602968 39.30631 
L 54.602968 39.30631 
" style="fill:none;stroke:#cc00ff;stroke-linecap:square;stroke-width:2;"/>
   </g>
   <g id="line2d_109">
    <path clip-path="url(#p5c0de8f7e6)" d="M 57.901195 35.445694 
L 64.497649 29.128321 
L 64.497649 29.128321 
" style="fill:none;stroke:#cc00ff;stroke-linecap:square;stroke-width:2;"/>
   </g>
   <g id="line2d_110">
    <path clip-path="url(#p5c0de8f7e6)" d="M 67.795875 32.637972 
L 71.094102 29.479286 
L 71.094102 29.479286 
" style="fill:none;stroke:#cc00ff;stroke-linecap:square;stroke-width:2;"/>
   </g>
   <g id="line2d_111">
    <path clip-path="url(#p5c0de8f7e6)" d="M 74.392329 32.988938 
L 77.690556 29.830251 
L 77.690556 29.830251 
" style="fill:none;stroke:#cc00ff;stroke-linecap:square;stroke-width:2;"/>
   </g>
   <g id="line2d_112">
    <path clip-path="url(#p5c0de8f7e6)" d="M 120.567503 80.369233 
L 123.86573 77.210547 
L 123.86573 77.210547 
" style="fill:none;stroke:#cc00ff;stroke-linecap:square;stroke-width:2;"/>
   </g>
   <g id="line2d_113">
    <path clip-path="url(#p5c0de8f7e6)" d="M 127.163957 80.720198 
L 130.462184 77.561512 
L 130.462184 77.561512 
" style="fill:none;stroke:#cc00ff;stroke-linecap:square;stroke-width:2;"/>
   </g>
   <g id="line2d_114">
    <path clip-path="url(#p5c0de8f7e6)" d="M 133.76041 73.700895 
L 137.058637 70.542209 
L 137.058637 70.542209 
" style="fill:none;stroke:#cc00ff;stroke-linecap:square;stroke-width:2;"/>
   </g>
   <g id="line2d_115">
    <path clip-path="url(#p5c0de8f7e6)" d="M 166.742678 33.690868 
L 170.040904 30.532182 
L 170.040904 30.532182 
" style="fill:none;stroke:#cc00ff;stroke-linecap:square;stroke-width:2;"/>
   </g>
   <g id="line2d_116">
    <path clip-path="url(#p5c0de8f7e6)" d="M 173.339131 26.671565 
L 176.637358 23.512878 
L 176.637358 23.512878 
" style="fill:none;stroke:#cc00ff;stroke-linecap:square;stroke-width:2;"/>
   </g>
   <g id="line2d_117">
    <path clip-path="url(#p5c0de8f7e6)" d="M 179.935585 27.02253 
L 183.233811 23.863844 
L 183.233811 23.863844 
" style="fill:none;stroke:#cc00ff;stroke-linecap:square;stroke-width:2;"/>
   </g>
   <g id="line2d_118">
    <path clip-path="url(#p5c0de8f7e6)" d="M 226.110759 74.402826 
L 229.408986 71.244139 
L 229.408986 71.244139 
" style="fill:none;stroke:#cc00ff;stroke-linecap:square;stroke-width:2;"/>
   </g>
   <g id="line2d_119">
    <path clip-path="url(#p5c0de8f7e6)" d="M 232.707213 74.753791 
L 236.005439 71.595104 
L 236.005439 71.595104 
" style="fill:none;stroke:#cc00ff;stroke-linecap:square;stroke-width:2;"/>
   </g>
   <g id="line2d_120">
    <path clip-path="url(#p5c0de8f7e6)" d="M 239.303666 75.104756 
L 245.90012 68.787383 
L 245.90012 68.787383 
" style="fill:none;stroke:#cc00ff;stroke-linecap:square;stroke-width:2;"/>
   </g>
   <g id="line2d_121">
    <path clip-path="url(#p5c0de8f7e6)" d="M 249.198346 64.926767 
L 252.496573 61.76808 
L 252.496573 61.76808 
" style="fill:none;stroke:#cc00ff;stroke-linecap:square;stroke-width:2;"/>
   </g>
   <g id="line2d_122">
    <path clip-path="url(#p5c0de8f7e6)" d="M 255.7948 57.907463 
L 259.093027 54.748777 
L 259.093027 54.748777 
" style="fill:none;stroke:#cc00ff;stroke-linecap:square;stroke-width:2;"/>
   </g>
   <g id="line2d_123">
    <path clip-path="url(#p5c0de8f7e6)" d="M 18.322474 81.773094 
L 24.918928 73.34993 
L 24.918928 73.34993 
" style="fill:none;stroke:#ff0098;stroke-linecap:square;stroke-width:2;"/>
   </g>
   <g id="line2d_124">
    <path clip-path="url(#p5c0de8f7e6)" d="M 28.217154 69.489314 
L 31.515381 65.277732 
L 31.515381 65.277732 
" style="fill:none;stroke:#ff0098;stroke-linecap:square;stroke-width:2;"/>
   </g>
   <g id="line2d_125">
    <path clip-path="url(#p5c0de8f7e6)" d="M 34.813608 61.417115 
L 38.111835 57.205533 
L 38.111835 57.205533 
" style="fill:none;stroke:#ff0098;stroke-linecap:square;stroke-width:2;"/>
   </g>
   <g id="line2d_126">
    <path clip-path="url(#p5c0de8f7e6)" d="M 140.356864 66.681592 
L 143.65509 62.47001 
L 143.65509 62.47001 
" style="fill:none;stroke:#ff0098;stroke-linecap:square;stroke-width:2;"/>
   </g>
   <g id="line2d_127">
    <path clip-path="url(#p5c0de8f7e6)" d="M 146.953317 58.609394 
L 150.251544 54.397812 
L 150.251544 54.397812 
" style="fill:none;stroke:#ff0098;stroke-linecap:square;stroke-width:2;"/>
   </g>
   <g id="line2d_128">
    <path clip-path="url(#p5c0de8f7e6)" d="M 153.549771 49.835265 
L 156.847997 45.623683 
L 156.847997 45.623683 
" style="fill:none;stroke:#ff0098;stroke-linecap:square;stroke-width:2;"/>
   </g>
   <g id="line2d_129">
    <path clip-path="url(#p5c0de8f7e6)" d="M 160.146224 41.763066 
L 163.444451 37.551485 
L 163.444451 37.551485 
" style="fill:none;stroke:#ff0098;stroke-linecap:square;stroke-width:2;"/>
   </g>
   <g id="line2d_130">
    <path clip-path="url(#p5c0de8f7e6)" d="M 265.68948 47.027544 
L 268.987707 42.815962 
L 268.987707 42.815962 
" style="fill:none;stroke:#ff0098;stroke-linecap:square;stroke-width:2;"/>
   </g>
   <g id="line2d_131">
    <path clip-path="url(#p5c0de8f7e6)" d="M 272.285934 38.955345 
L 275.58416 34.743763 
L 275.58416 34.743763 
" style="fill:none;stroke:#ff0098;stroke-linecap:square;stroke-width:2;"/>
   </g>
   <g id="line2d_132">
    <path clip-path="url(#p5c0de8f7e6)" d="M 278.882387 30.883147 
L 285.478841 22.459983 
L 285.478841 22.459983 
" style="fill:none;stroke:#ff0098;stroke-linecap:square;stroke-width:2;"/>
   </g>
   <g id="line2d_133">
    <path clip-path="url(#p5c0de8f7e6)" d="M 358.039829 67.383523 
L 361.338056 63.171941 
L 361.338056 63.171941 
" style="fill:none;stroke:#ff0098;stroke-linecap:square;stroke-width:2;"/>
   </g>
   <g id="line2d_134">
    <path clip-path="url(#p5c0de8f7e6)" d="M 364.636282 59.662289 
L 367.934509 55.450707 
L 367.934509 55.450707 
" style="fill:none;stroke:#ff0098;stroke-linecap:square;stroke-width:2;"/>
   </g>
   <g id="line2d_135">
    <path clip-path="url(#p5c0de8f7e6)" d="M 371.232736 51.941056 
L 384.425643 35.094729 
L 384.425643 35.094729 
" style="fill:none;stroke:#ff0098;stroke-linecap:square;stroke-width:2;"/>
   </g>
   <g id="line2d_136">
    <path clip-path="url(#p5c0de8f7e6)" d="M 387.72387 31.585077 
L 391.022096 27.373495 
L 391.022096 27.373495 
" style="fill:none;stroke:#ff0098;stroke-linecap:square;stroke-width:2;"/>
   </g>
   <g id="line2d_137">
    <path clip-path="url(#p5c0de8f7e6)" d="M 460.284858 76.859582 
L 463.583085 72.648 
L 463.583085 72.648 
" style="fill:none;stroke:#ff0098;stroke-linecap:square;stroke-width:2;"/>
   </g>
   <g id="line2d_138">
    <path clip-path="url(#p5c0de8f7e6)" d="M 466.881312 69.138348 
L 480.074219 52.292021 
L 480.074219 52.292021 
" style="fill:none;stroke:#ff0098;stroke-linecap:square;stroke-width:2;"/>
   </g>
   <g id="line2d_139">
    <path clip-path="url(#p5c0de8f7e6)" d="M 483.372445 48.78237 
L 486.670672 44.570788 
L 486.670672 44.570788 
" style="fill:none;stroke:#ff0098;stroke-linecap:square;stroke-width:2;"/>
   </g>
   <g id="line2d_140">
    <path clip-path="url(#p5c0de8f7e6)" d="M 489.968899 41.061136 
L 493.267126 36.849554 
L 493.267126 36.849554 
" style="fill:none;stroke:#ff0098;stroke-linecap:square;stroke-width:2;"/>
   </g>
   <g id="matplotlib.axis_1">
    <g id="xtick_1">
     <g id="line2d_141">
      <path clip-path="url(#p5c0de8f7e6)" d="M 15.024247 87.704405 
L 15.024247 16.528672 
" style="fill:none;stroke:#000000;stroke-dasharray:0.5,0.825;stroke-dashoffset:0;stroke-width:0.5;"/>
     </g>
     <g id="line2d_142">
      <defs>
       <path d="M 0 0 
L 0 3.5 
" id="m835e810a6f" style="stroke:#000000;stroke-width:0.8;"/>
      </defs>
      <g>
       <use style="stroke:#000000;stroke-width:0.8;" x="15.024247" xlink:href="#m835e810a6f" y="86.335641"/>
      </g>
     </g>
    </g>
    <g id="xtick_2">
     <g id="line2d_143">
      <path clip-path="url(#p5c0de8f7e6)" d="M 288.777067 87.704405 
L 288.777067 16.528672 
" style="fill:none;stroke:#000000;stroke-dasharray:0.5,0.825;stroke-dashoffset:0;stroke-width:0.5;"/>
     </g>
     <g id="line2d_144">
      <g>
       <use style="stroke:#000000;stroke-width:0.8;" x="288.777067" xlink:href="#m835e810a6f" y="86.335641"/>
      </g>
     </g>
     <g id="text_1">
      <!-- $f$ -->
      <defs>
       <path d="M 9.71875 -16.5 
Q 11.578125 -17.921875 14.203125 -17.921875 
Q 17.78125 -17.921875 20.015625 -10.015625 
Q 20.953125 -6.203125 25.09375 15.09375 
L 29.6875 39.59375 
L 21.09375 39.59375 
Q 20.125 39.59375 20.125 40.921875 
Q 20.515625 43.109375 21.390625 43.109375 
L 30.328125 43.109375 
L 31.5 49.609375 
Q 32.078125 52.640625 32.5625 54.8125 
Q 33.0625 56.984375 33.625 58.828125 
Q 34.1875 60.6875 35.296875 62.984375 
Q 37.015625 66.265625 39.921875 68.390625 
Q 42.828125 70.515625 46.1875 70.515625 
Q 48.390625 70.515625 50.46875 69.703125 
Q 52.546875 68.890625 53.859375 67.28125 
Q 55.171875 65.671875 55.171875 63.484375 
Q 55.171875 60.9375 53.484375 59.046875 
Q 51.8125 57.171875 49.421875 57.171875 
Q 47.796875 57.171875 46.65625 58.171875 
Q 45.515625 59.1875 45.515625 60.796875 
Q 45.515625 62.984375 47 64.625 
Q 48.484375 66.265625 50.6875 66.5 
Q 48.828125 67.921875 46.09375 67.921875 
Q 44.578125 67.921875 43.234375 66.5 
Q 41.890625 65.09375 41.5 63.484375 
Q 40.875 60.9375 38.71875 49.703125 
L 37.5 43.109375 
L 47.796875 43.109375 
Q 48.78125 43.109375 48.78125 41.796875 
Q 48.734375 41.546875 48.578125 40.9375 
Q 48.4375 40.328125 48.171875 39.953125 
Q 47.90625 39.59375 47.515625 39.59375 
L 36.8125 39.59375 
L 32.171875 15.1875 
Q 31.296875 9.859375 30.140625 4.359375 
Q 29 -1.125 26.921875 -6.90625 
Q 24.859375 -12.703125 21.625 -16.609375 
Q 18.40625 -20.515625 14.015625 -20.515625 
Q 10.640625 -20.515625 7.984375 -18.578125 
Q 5.328125 -16.65625 5.328125 -13.484375 
Q 5.328125 -10.9375 6.953125 -9.046875 
Q 8.59375 -7.171875 11.078125 -7.171875 
Q 12.75 -7.171875 13.859375 -8.171875 
Q 14.984375 -9.1875 14.984375 -10.796875 
Q 14.984375 -12.9375 13.390625 -14.71875 
Q 11.8125 -16.5 9.71875 -16.5 
z
" id="Cmmi10-66"/>
      </defs>
      <g transform="translate(286.327067 100.913766)scale(0.1 -0.1)">
       <use transform="translate(0 0.484375)" xlink:href="#Cmmi10-66"/>
      </g>
     </g>
    </g>
    <g id="xtick_3">
     <g id="line2d_145">
      <path clip-path="url(#p5c0de8f7e6)" d="M 562.529887 87.704405 
L 562.529887 16.528672 
" style="fill:none;stroke:#000000;stroke-dasharray:0.5,0.825;stroke-dashoffset:0;stroke-width:0.5;"/>
     </g>
     <g id="line2d_146">
      <g>
       <use style="stroke:#000000;stroke-width:0.8;" x="562.529887" xlink:href="#m835e810a6f" y="86.335641"/>
      </g>
     </g>
     <g id="text_2">
      <!-- $1$ -->
      <defs>
       <path d="M 9.28125 0 
L 9.28125 3.515625 
Q 21.78125 3.515625 21.78125 6.6875 
L 21.78125 59.1875 
Q 16.609375 56.6875 8.6875 56.6875 
L 8.6875 60.203125 
Q 20.953125 60.203125 27.203125 66.609375 
L 28.609375 66.609375 
Q 28.953125 66.609375 29.265625 66.328125 
Q 29.59375 66.0625 29.59375 65.71875 
L 29.59375 6.6875 
Q 29.59375 3.515625 42.09375 3.515625 
L 42.09375 0 
z
" id="Cmr10-31"/>
      </defs>
      <g transform="translate(560.029887 100.934078)scale(0.1 -0.1)">
       <use transform="translate(0 0.390625)" xlink:href="#Cmr10-31"/>
      </g>
     </g>
    </g>
   </g>
   <g id="matplotlib.axis_2">
    <g id="ytick_1">
     <g id="line2d_147">
      <path clip-path="url(#p5c0de8f7e6)" d="M 4.074135 86.335641 
L 573.48 86.335641 
" style="fill:none;stroke:#000000;stroke-dasharray:0.5,0.825;stroke-dashoffset:0;stroke-width:0.5;"/>
     </g>
     <g id="line2d_148">
      <defs>
       <path d="M 0 0 
L -3.5 0 
" id="m890842a8f5" style="stroke:#000000;stroke-width:0.8;"/>
      </defs>
      <g>
       <use style="stroke:#000000;stroke-width:0.8;" x="15.024247" xlink:href="#m890842a8f5" y="86.335641"/>
      </g>
     </g>
    </g>
    <g id="ytick_2">
     <g id="line2d_149">
      <path clip-path="url(#p5c0de8f7e6)" d="M 4.074135 17.897436 
L 573.48 17.897436 
" style="fill:none;stroke:#000000;stroke-dasharray:0.5,0.825;stroke-dashoffset:0;stroke-width:0.5;"/>
     </g>
     <g id="line2d_150">
      <g>
       <use style="stroke:#000000;stroke-width:0.8;" x="15.024247" xlink:href="#m890842a8f5" y="17.897436"/>
      </g>
     </g>
     <g id="text_3">
      <!-- $1$ -->
      <g transform="translate(3.024247 21.696655)scale(0.1 -0.1)">
       <use transform="translate(0 0.390625)" xlink:href="#Cmr10-31"/>
      </g>
     </g>
    </g>
   </g>
   <g id="patch_3">
    <path d="M 15.024247 87.704405 
L 15.024247 16.528672 
" style="fill:none;stroke:#000000;stroke-linecap:square;stroke-linejoin:miter;stroke-width:0.8;"/>
   </g>
   <g id="patch_4">
    <path d="M 4.074135 86.335641 
L 573.48 86.335641 
" style="fill:none;stroke:#000000;stroke-linecap:square;stroke-linejoin:miter;stroke-width:0.8;"/>
   </g>
  </g>
 </g>
 <defs>
  <clipPath id="p5c0de8f7e6">
   <rect height="71.175733" width="569.405865" x="4.074135" y="16.528672"/>
  </clipPath>
 </defs>
</svg>
