<?xml version="1.0" encoding="utf-8" standalone="no"?>
<!DOCTYPE svg PUBLIC "-//W3C//DTD SVG 1.1//EN"
  "http://www.w3.org/Graphics/SVG/1.1/DTD/svg11.dtd">
<!-- Created with matplotlib (http://matplotlib.org/) -->
<svg height="108pt" version="1.1" viewBox="0 0 576 108" width="576pt" xmlns="http://www.w3.org/2000/svg" xmlns:xlink="http://www.w3.org/1999/xlink">
 <defs>
  <style type="text/css">
*{stroke-linecap:butt;stroke-linejoin:round;}
  </style>
 </defs>
 <g id="figure_1">
  <g id="patch_1">
   <path d="M 0 108 
L 576 108 
L 576 0 
L 0 0 
z
" style="fill:#ffffff;"/>
  </g>
  <g id="axes_1">
   <g id="patch_2">
    <path d="M 4.074135 87.704405 
L 573.48 87.704405 
L 573.48 16.528672 
L 4.074135 16.528672 
z
" style="fill:#ffffff;"/>
   </g>
   <g id="line2d_1">
    <path clip-path="url(#p7495aa7ab6)" d="M 15.024247 86.335641 
L 190.226052 17.897436 
L 190.226052 17.897436 
" style="fill:none;stroke:#ff0000;stroke-linecap:square;stroke-width:2;"/>
   </g>
   <g id="line2d_2">
    <path clip-path="url(#p7495aa7ab6)" d="M 277.826955 78.731396 
L 365.427857 44.512293 
L 365.427857 44.512293 
" style="fill:none;stroke:#ff0000;stroke-linecap:square;stroke-width:2;"/>
   </g>
   <g id="line2d_3">
    <path clip-path="url(#p7495aa7ab6)" d="M 387.328082 59.720783 
L 474.928985 25.501681 
L 474.928985 25.501681 
" style="fill:none;stroke:#ff0000;stroke-linecap:square;stroke-width:2;"/>
   </g>
   <g id="line2d_4">
    <path clip-path="url(#p7495aa7ab6)" d="M 190.226052 17.897436 
L 277.826955 78.731396 
L 277.826955 78.731396 
" style="fill:none;stroke:#00ffff;stroke-linecap:square;stroke-width:2;"/>
   </g>
   <g id="line2d_5">
    <path clip-path="url(#p7495aa7ab6)" d="M 365.427857 44.512293 
L 387.328082 59.720783 
L 387.328082 59.720783 
" style="fill:none;stroke:#00ffff;stroke-linecap:square;stroke-width:2;"/>
   </g>
   <g id="line2d_6">
    <path clip-path="url(#p7495aa7ab6)" d="M 474.928985 25.501681 
L 475.501183 25.899041 
L 475.908455 26.181868 
L 476.357454 26.493674 
L 476.755229 26.769906 
L 477.047272 26.972714 
L 477.76508 27.471192 
L 478.190292 27.766478 
L 478.27757 27.827087 
L 478.87673 28.24317 
L 479.499247 28.675474 
L 479.975375 29.006118 
L 480.390424 29.294347 
L 480.557663 29.410485 
L 481.07164 29.767413 
L 481.354453 29.963812 
L 482.061901 30.455095 
L 482.481689 30.746614 
L 482.875033 31.01977 
L 483.154061 31.213539 
L 483.804363 31.665138 
L 484.283253 31.997701 
L 484.581816 32.205036 
L 485.254969 32.672503 
L 485.337841 32.730054 
L 486.141061 33.287845 
L 486.169491 33.307588 
L 486.969585 33.863209 
L 487.11315 33.962907 
L 487.848149 34.473323 
L 488.311847 34.795335 
L 488.44547 34.888129 
L 488.892934 35.198868 
L 489.535838 35.645329 
L 489.780993 35.815576 
L 490.227409 36.125587 
L 490.706455 36.458257 
L 491.324912 36.887742 
L 491.74503 37.17949 
L 492.108589 37.431961 
L 492.673056 37.823953 
L 493.181063 38.176736 
L 493.482417 38.386009 
L 494.056533 38.784701 
L 494.287817 38.945315 
L 494.701139 39.232343 
L 495.007256 39.444925 
L 495.637862 39.882846 
L 495.915194 40.075438 
L 496.509955 40.488466 
L 497.141241 40.926859 
L 497.583799 41.234191 
L 497.947942 41.487068 
L 498.369833 41.780048 
L 498.792097 42.073287 
L 498.978717 42.202884 
L 499.498461 42.563818 
L 500.050859 42.947427 
L 500.337545 43.146514 
L 501.045782 43.638346 
L 501.329083 43.835083 
L 501.681708 44.079961 
L 502.111397 44.378356 
L 502.485928 44.638447 
L 502.940989 44.954462 
L 503.687409 45.472809 
L 503.896454 45.617979 
L 504.619402 46.120026 
L 504.930677 46.336189 
L 505.410607 46.669474 
L 505.77257 46.920838 
L 506.229364 47.238055 
L 506.429924 47.377333 
L 506.932767 47.72653 
L 507.470534 48.099979 
L 507.916591 48.409741 
L 508.590248 48.877558 
L 508.622282 48.899804 
L 509.207394 49.306132 
L 509.775663 49.700763 
L 509.933006 49.810029 
L 510.540992 50.232241 
L 510.925314 50.499131 
L 511.553814 50.93559 
L 512.032105 51.267736 
L 512.405198 51.526829 
L 512.935762 51.895276 
L 513.068492 51.987449 
L 513.718113 52.438575 
L 514.075194 52.686548 
L 514.347196 52.875439 
L 515.064976 53.373897 
L 515.520652 53.690339 
L 515.870389 53.933212 
L 516.43124 54.322691 
L 516.950582 54.683346 
L 517.39774 54.993872 
L 517.589187 55.126821 
L 518.237773 55.577229 
L 518.296154 55.617771 
L 518.841353 55.996381 
L 519.592563 56.518054 
L 519.946487 56.763835 
L 520.069983 56.849597 
L 520.615755 57.228605 
L 521.105292 57.568561 
" style="fill:none;stroke:#00ffff;stroke-linecap:square;stroke-width:2;"/>
   </g>
   <g id="line2d_7">
    <path clip-path="url(#p7495aa7ab6)" d="M 522.639141 58.633734 
L 523.087312 58.944964 
L 523.302674 59.09452 
L 523.989742 59.571651 
L 524.082535 59.636091 
L 524.617933 60.007895 
L 525.321913 60.49677 
L 525.496967 60.618335 
L 526.186672 61.097297 
L 526.603931 61.38706 
L 526.881974 61.580145 
L 527.210583 61.808347 
L 527.655047 62.117002 
L 528.0051 62.360094 
L 528.498176 62.702508 
L 529.255823 63.228652 
L 529.65194 63.503733 
L 530.084138 63.803871 
L 530.428754 64.043187 
L 530.927669 64.389656 
L 531.469467 64.765905 
L 531.60003 64.856574 
L 532.208865 65.279376 
L 532.575443 65.533943 
L 533.161356 65.940827 
L 533.347144 66.069847 
L 533.75572 66.35358 
L 534.527441 66.889497 
L 534.626837 66.958523 
L 535.38009 67.481615 
L 535.600519 67.634691 
L 536.121122 67.996221 
L 536.490235 68.252549 
L 537.182381 68.733206 
L 537.304393 68.817937 
L 538.015384 69.311681 
L 538.14756 69.403469 
L 538.94545 69.957559 
L 539.189625 70.127126 
L 539.802611 70.55281 
L 540.251993 70.864881 
L 540.355933 70.937062 
L 540.812226 71.253932 
L 541.328111 71.612185 
L 541.931819 72.031427 
L 542.288975 72.279452 
L 542.532225 72.448376 
L 543.213596 72.92155 
L 543.767573 73.306256 
L 543.836478 73.354107 
L 544.541678 73.843829 
L 544.729395 73.974188 
L 545.521943 74.524569 
L 545.648133 74.6122 
L 546.444817 75.165453 
L 546.682922 75.330804 
L 547.015864 75.562014 
L 547.357991 75.799602 
L 547.843834 76.136993 
L 548.359543 76.495124 
L 548.879209 76.856003 
L 549.174911 77.061352 
L 549.570572 77.336117 
L 550.246758 77.80569 
L 550.750951 78.155824 
L 551.13599 78.423212 
L 551.733758 78.838329 
L 552.008992 79.029464 
L 552.520877 79.384939 
L 552.759441 79.550609 
L 553.365551 79.971519 
L 553.876711 80.326491 
L 554.015397 80.422801 
L 554.587272 80.819936 
L 555.144716 81.20705 
L 555.437916 81.410661 
L 555.884837 81.721023 
L 556.341237 82.037967 
L 556.92883 82.446018 
L 557.123197 82.580995 
L 557.767036 83.028106 
L 558.086769 83.250142 
L 558.785374 83.735284 
L 558.863647 83.789641 
L 559.562715 84.275105 
L 560.039538 84.606232 
L 560.165058 84.693399 
L 560.713781 85.074456 
L 561.327843 85.500888 
L 561.686667 85.750071 
L 562.1505 86.072177 
L 562.529887 86.335641 
" style="fill:none;stroke:#00ffff;stroke-linecap:square;stroke-width:2;"/>
   </g>
   <g id="matplotlib.axis_1">
    <g id="xtick_1">
     <g id="line2d_8">
      <path clip-path="url(#p7495aa7ab6)" d="M 15.024247 87.704405 
L 15.024247 16.528672 
" style="fill:none;stroke:#000000;stroke-dasharray:0.5,0.825;stroke-dashoffset:0;stroke-width:0.5;"/>
     </g>
     <g id="line2d_9">
      <defs>
       <path d="M 0 0 
L 0 3.5 
" id="md7034f5ad7" style="stroke:#000000;stroke-width:0.8;"/>
      </defs>
      <g>
       <use style="stroke:#000000;stroke-width:0.8;" x="15.024247" xlink:href="#md7034f5ad7" y="86.335641"/>
      </g>
     </g>
    </g>
    <g id="xtick_2">
     <g id="line2d_10">
      <path clip-path="url(#p7495aa7ab6)" d="M 190.226052 87.704405 
L 190.226052 16.528672 
" style="fill:none;stroke:#000000;stroke-dasharray:0.5,0.825;stroke-dashoffset:0;stroke-width:0.5;"/>
     </g>
     <g id="line2d_11">
      <g>
       <use style="stroke:#000000;stroke-width:0.8;" x="190.226052" xlink:href="#md7034f5ad7" y="86.335641"/>
      </g>
     </g>
     <g id="text_1">
      <!-- $f$ -->
      <defs>
       <path d="M 9.71875 -16.5 
Q 11.578125 -17.921875 14.203125 -17.921875 
Q 17.78125 -17.921875 20.015625 -10.015625 
Q 20.953125 -6.203125 25.09375 15.09375 
L 29.6875 39.59375 
L 21.09375 39.59375 
Q 20.125 39.59375 20.125 40.921875 
Q 20.515625 43.109375 21.390625 43.109375 
L 30.328125 43.109375 
L 31.5 49.609375 
Q 32.078125 52.640625 32.5625 54.8125 
Q 33.0625 56.984375 33.625 58.828125 
Q 34.1875 60.6875 35.296875 62.984375 
Q 37.015625 66.265625 39.921875 68.390625 
Q 42.828125 70.515625 46.1875 70.515625 
Q 48.390625 70.515625 50.46875 69.703125 
Q 52.546875 68.890625 53.859375 67.28125 
Q 55.171875 65.671875 55.171875 63.484375 
Q 55.171875 60.9375 53.484375 59.046875 
Q 51.8125 57.171875 49.421875 57.171875 
Q 47.796875 57.171875 46.65625 58.171875 
Q 45.515625 59.1875 45.515625 60.796875 
Q 45.515625 62.984375 47 64.625 
Q 48.484375 66.265625 50.6875 66.5 
Q 48.828125 67.921875 46.09375 67.921875 
Q 44.578125 67.921875 43.234375 66.5 
Q 41.890625 65.09375 41.5 63.484375 
Q 40.875 60.9375 38.71875 49.703125 
L 37.5 43.109375 
L 47.796875 43.109375 
Q 48.78125 43.109375 48.78125 41.796875 
Q 48.734375 41.546875 48.578125 40.9375 
Q 48.4375 40.328125 48.171875 39.953125 
Q 47.90625 39.59375 47.515625 39.59375 
L 36.8125 39.59375 
L 32.171875 15.1875 
Q 31.296875 9.859375 30.140625 4.359375 
Q 29 -1.125 26.921875 -6.90625 
Q 24.859375 -12.703125 21.625 -16.609375 
Q 18.40625 -20.515625 14.015625 -20.515625 
Q 10.640625 -20.515625 7.984375 -18.578125 
Q 5.328125 -16.65625 5.328125 -13.484375 
Q 5.328125 -10.9375 6.953125 -9.046875 
Q 8.59375 -7.171875 11.078125 -7.171875 
Q 12.75 -7.171875 13.859375 -8.171875 
Q 14.984375 -9.1875 14.984375 -10.796875 
Q 14.984375 -12.9375 13.390625 -14.71875 
Q 11.8125 -16.5 9.71875 -16.5 
z
" id="Cmmi10-66"/>
      </defs>
      <g transform="translate(187.776052 100.913766)scale(0.1 -0.1)">
       <use transform="translate(0 0.484375)" xlink:href="#Cmmi10-66"/>
      </g>
     </g>
    </g>
    <g id="xtick_3">
     <g id="line2d_12">
      <path clip-path="url(#p7495aa7ab6)" d="M 562.529887 87.704405 
L 562.529887 16.528672 
" style="fill:none;stroke:#000000;stroke-dasharray:0.5,0.825;stroke-dashoffset:0;stroke-width:0.5;"/>
     </g>
     <g id="line2d_13">
      <g>
       <use style="stroke:#000000;stroke-width:0.8;" x="562.529887" xlink:href="#md7034f5ad7" y="86.335641"/>
      </g>
     </g>
     <g id="text_2">
      <!-- $1$ -->
      <defs>
       <path d="M 9.28125 0 
L 9.28125 3.515625 
Q 21.78125 3.515625 21.78125 6.6875 
L 21.78125 59.1875 
Q 16.609375 56.6875 8.6875 56.6875 
L 8.6875 60.203125 
Q 20.953125 60.203125 27.203125 66.609375 
L 28.609375 66.609375 
Q 28.953125 66.609375 29.265625 66.328125 
Q 29.59375 66.0625 29.59375 65.71875 
L 29.59375 6.6875 
Q 29.59375 3.515625 42.09375 3.515625 
L 42.09375 0 
z
" id="Cmr10-31"/>
      </defs>
      <g transform="translate(560.029887 100.934078)scale(0.1 -0.1)">
       <use transform="translate(0 0.390625)" xlink:href="#Cmr10-31"/>
      </g>
     </g>
    </g>
   </g>
   <g id="matplotlib.axis_2">
    <g id="ytick_1">
     <g id="line2d_14">
      <path clip-path="url(#p7495aa7ab6)" d="M 4.074135 86.335641 
L 573.48 86.335641 
" style="fill:none;stroke:#000000;stroke-dasharray:0.5,0.825;stroke-dashoffset:0;stroke-width:0.5;"/>
     </g>
     <g id="line2d_15">
      <defs>
       <path d="M 0 0 
L -3.5 0 
" id="mf2e50c83c6" style="stroke:#000000;stroke-width:0.8;"/>
      </defs>
      <g>
       <use style="stroke:#000000;stroke-width:0.8;" x="15.024247" xlink:href="#mf2e50c83c6" y="86.335641"/>
      </g>
     </g>
    </g>
    <g id="ytick_2">
     <g id="line2d_16">
      <path clip-path="url(#p7495aa7ab6)" d="M 4.074135 17.897436 
L 573.48 17.897436 
" style="fill:none;stroke:#000000;stroke-dasharray:0.5,0.825;stroke-dashoffset:0;stroke-width:0.5;"/>
     </g>
     <g id="line2d_17">
      <g>
       <use style="stroke:#000000;stroke-width:0.8;" x="15.024247" xlink:href="#mf2e50c83c6" y="17.897436"/>
      </g>
     </g>
     <g id="text_3">
      <!-- $1$ -->
      <g transform="translate(3.024247 21.696655)scale(0.1 -0.1)">
       <use transform="translate(0 0.390625)" xlink:href="#Cmr10-31"/>
      </g>
     </g>
    </g>
   </g>
   <g id="patch_3">
    <path d="M 15.024247 87.704405 
L 15.024247 16.528672 
" style="fill:none;stroke:#000000;stroke-linecap:square;stroke-linejoin:miter;stroke-width:0.8;"/>
   </g>
   <g id="patch_4">
    <path d="M 4.074135 86.335641 
L 573.48 86.335641 
" style="fill:none;stroke:#000000;stroke-linecap:square;stroke-linejoin:miter;stroke-width:0.8;"/>
   </g>
  </g>
 </g>
 <defs>
  <clipPath id="p7495aa7ab6">
   <rect height="71.175733" width="569.405865" x="4.074135" y="16.528672"/>
  </clipPath>
 </defs>
</svg>
