<?xml version="1.0" encoding="utf-8" standalone="no"?>
<!DOCTYPE svg PUBLIC "-//W3C//DTD SVG 1.1//EN"
  "http://www.w3.org/Graphics/SVG/1.1/DTD/svg11.dtd">
<!-- Created with matplotlib (http://matplotlib.org/) -->
<svg height="108pt" version="1.1" viewBox="0 0 576 108" width="576pt" xmlns="http://www.w3.org/2000/svg" xmlns:xlink="http://www.w3.org/1999/xlink">
 <defs>
  <style type="text/css">
*{stroke-linecap:butt;stroke-linejoin:round;}
  </style>
 </defs>
 <g id="figure_1">
  <g id="patch_1">
   <path d="M 0 108 
L 576 108 
L 576 0 
L 0 0 
z
" style="fill:#ffffff;"/>
  </g>
  <g id="axes_1">
   <g id="patch_2">
    <path d="M 4.074135 87.704405 
L 573.48 87.704405 
L 573.48 16.528672 
L 4.074135 16.528672 
z
" style="fill:#ffffff;"/>
   </g>
   <g id="line2d_1">
    <path clip-path="url(#p5e17c2abf5)" d="M 15.024247 86.335641 
L 151.900657 17.897436 
L 151.900657 17.897436 
" style="fill:none;stroke:#ff0000;stroke-linecap:square;stroke-width:2;"/>
   </g>
   <g id="line2d_2">
    <path clip-path="url(#p5e17c2abf5)" d="M 334.402537 63.522906 
L 380.028007 40.710171 
L 380.028007 40.710171 
" style="fill:none;stroke:#ff0000;stroke-linecap:square;stroke-width:2;"/>
   </g>
   <g id="line2d_3">
    <path clip-path="url(#p5e17c2abf5)" d="M 151.900657 17.897436 
L 334.402537 63.522906 
L 334.402537 63.522906 
" style="fill:none;stroke:#00ffff;stroke-linecap:square;stroke-width:2;"/>
   </g>
   <g id="line2d_4">
    <path clip-path="url(#p5e17c2abf5)" d="M 380.028007 40.710171 
L 380.796922 40.9024 
L 381.58827 41.100237 
L 383.236509 41.512296 
L 383.332961 41.536409 
L 384.892583 41.926315 
L 385.426995 42.059918 
L 386.85478 42.416864 
L 387.368218 42.545224 
L 388.263749 42.769106 
L 389.145813 42.989622 
L 390.011829 43.206126 
L 390.757874 43.392638 
L 392.391447 43.801031 
L 392.84122 43.913474 
L 394.04354 44.214054 
L 394.936233 44.437227 
L 395.62302 44.608924 
L 396.651816 44.866123 
L 397.026423 44.959775 
L 398.241027 45.263426 
L 399.647212 45.614972 
L 399.858975 45.667913 
L 401.069067 45.970436 
L 401.686282 46.12474 
L 403.121398 46.483519 
L 404.300285 46.778241 
L 404.406013 46.804672 
L 406.107956 47.230158 
L 406.731261 47.385984 
L 407.923084 47.68394 
L 408.320669 47.783336 
L 409.221448 48.008531 
L 410.177601 48.247569 
L 411.596543 48.602305 
L 412.041672 48.713587 
L 412.59058 48.850814 
L 414.316755 49.282358 
L 415.263568 49.519061 
L 415.599092 49.602942 
L 417.056027 49.967176 
L 417.366421 50.044774 
L 418.308178 50.280214 
L 419.768212 50.645222 
L 420.042076 50.713688 
L 421.176455 50.997283 
L 422.581489 51.348541 
L 423.494839 51.576879 
L 423.704684 51.62934 
L 424.660659 51.868334 
L 425.860544 52.168305 
L 427.129756 52.485608 
L 428.081926 52.723651 
L 428.778486 52.897791 
L 429.819573 53.158062 
L 430.128221 53.235224 
L 431.671587 53.621066 
L 432.677464 53.872535 
L 432.97888 53.947889 
L 433.827744 54.160105 
L 434.966023 54.444675 
L 436.11674 54.732354 
L 437.294325 55.02675 
L 437.405706 55.054596 
L 438.997728 55.452601 
L 439.909112 55.680447 
L 440.802995 55.903918 
L 441.038772 55.962862 
L 442.162365 56.24376 
L 443.022697 56.458843 
L 443.950599 56.690819 
L 445.265273 57.019487 
L 446.221253 57.258482 
L 447.029829 57.460626 
L 447.484665 57.574335 
L 448.616372 57.857262 
L 449.716775 58.132363 
L 450.595199 58.351969 
L 451.713429 58.631526 
L 452.365729 58.794601 
L 453.852393 59.166267 
L 453.985168 59.199461 
L 455.212427 59.506276 
L 456.205387 59.754516 
L 456.805904 59.904645 
L 458.140773 60.238362 
L 459.178045 60.49768 
L 459.638986 60.612916 
L 460.34865 60.790332 
L 461.955555 61.192058 
L 462.67722 61.372474 
L 463.579923 61.59815 
L 464.6781 61.872694 
L 464.938027 61.937676 
L 466.348888 62.290391 
L 467.451301 62.565994 
L 468.33368 62.786589 
L 468.727181 62.884965 
L 469.856632 63.167327 
L 471.045451 63.464532 
L 472.049278 63.715489 
L 472.416427 63.807276 
L 473.294977 64.026913 
L 474.730134 64.385703 
L 475.578932 64.597902 
L 476.093648 64.726581 
L 476.80091 64.903397 
L 477.904835 65.179378 
L 478.766758 65.394859 
L 480.074984 65.721915 
L 480.639213 65.862972 
L 481.470086 66.070691 
L 482.568451 66.345282 
L 483.984572 66.699312 
L 484.36989 66.795642 
L 485.893527 67.176551 
L 486.398524 67.3028 
L 487.171881 67.496139 
L 488.067887 67.720141 
L 489.116793 67.982367 
L 490.054637 68.216828 
L 491.271792 68.521117 
L 491.930086 68.685691 
L 492.416777 68.807363 
" style="fill:none;stroke:#00ffff;stroke-linecap:square;stroke-width:2;"/>
   </g>
   <g id="line2d_5">
    <path clip-path="url(#p5e17c2abf5)" d="M 495.386315 69.549748 
L 496.111234 69.730978 
L 497.331929 70.036151 
L 498.032086 70.211191 
L 499.697688 70.627591 
L 499.838698 70.662844 
L 501.140212 70.988222 
L 502.223013 71.258922 
L 503.2076 71.505069 
L 503.39732 71.552499 
L 504.638351 71.862757 
L 505.826911 72.159897 
L 506.831405 72.41102 
L 507.280049 72.523181 
L 508.267969 72.770161 
L 509.536396 73.087268 
L 510.000075 73.203188 
L 510.96631 73.444747 
L 512.450817 73.815873 
L 512.555768 73.842111 
L 514.27805 74.272682 
L 515.287155 74.524958 
L 516.148218 74.740224 
L 517.093469 74.976536 
L 517.426249 75.059731 
L 518.481505 75.323545 
L 519.412278 75.556239 
L 520.596357 75.852258 
L 521.163253 75.993982 
L 522.536174 76.337213 
L 523.156576 76.492313 
L 523.662165 76.618711 
L 524.843775 76.914113 
L 525.906904 77.179895 
L 526.466515 77.319798 
L 527.964748 77.694356 
L 528.557655 77.842583 
L 529.68893 78.125402 
L 530.19127 78.250987 
L 531.696079 78.627189 
L 532.079526 78.723051 
L 533.113673 78.981588 
L 533.961816 79.193623 
L 534.817126 79.407451 
L 536.218427 79.757776 
L 537.096303 79.977245 
L 538.026999 80.209919 
L 538.993337 80.451503 
L 539.824709 80.659346 
L 540.534355 80.836758 
L 541.291527 81.026051 
L 542.188785 81.250365 
L 543.486003 81.57467 
L 543.802572 81.653812 
L 545.278944 82.022905 
L 545.993563 82.20156 
L 546.759843 82.39313 
L 547.492242 82.57623 
L 549.09336 82.976509 
L 549.941441 83.188529 
L 550.360965 83.29341 
L 551.275979 83.522164 
L 551.996395 83.702268 
L 553.596674 84.102338 
L 554.447837 84.315128 
L 554.845496 84.414543 
L 556.564861 84.844384 
L 557.421177 85.058464 
L 558.100277 85.228238 
L 558.87402 85.421674 
L 559.401302 85.553495 
L 561.026192 85.959717 
L 561.944538 86.189304 
L 562.529887 86.335641 
" style="fill:none;stroke:#00ffff;stroke-linecap:square;stroke-width:2;"/>
   </g>
   <g id="matplotlib.axis_1">
    <g id="xtick_1">
     <g id="line2d_6">
      <path clip-path="url(#p5e17c2abf5)" d="M 15.024247 87.704405 
L 15.024247 16.528672 
" style="fill:none;stroke:#000000;stroke-dasharray:0.5,0.825;stroke-dashoffset:0;stroke-width:0.5;"/>
     </g>
     <g id="line2d_7">
      <defs>
       <path d="M 0 0 
L 0 3.5 
" id="m0064ea0872" style="stroke:#000000;stroke-width:0.8;"/>
      </defs>
      <g>
       <use style="stroke:#000000;stroke-width:0.8;" x="15.024247" xlink:href="#m0064ea0872" y="86.335641"/>
      </g>
     </g>
    </g>
    <g id="xtick_2">
     <g id="line2d_8">
      <path clip-path="url(#p5e17c2abf5)" d="M 151.900657 87.704405 
L 151.900657 16.528672 
" style="fill:none;stroke:#000000;stroke-dasharray:0.5,0.825;stroke-dashoffset:0;stroke-width:0.5;"/>
     </g>
     <g id="line2d_9">
      <g>
       <use style="stroke:#000000;stroke-width:0.8;" x="151.900657" xlink:href="#m0064ea0872" y="86.335641"/>
      </g>
     </g>
     <g id="text_1">
      <!-- $f$ -->
      <defs>
       <path d="M 9.71875 -16.5 
Q 11.578125 -17.921875 14.203125 -17.921875 
Q 17.78125 -17.921875 20.015625 -10.015625 
Q 20.953125 -6.203125 25.09375 15.09375 
L 29.6875 39.59375 
L 21.09375 39.59375 
Q 20.125 39.59375 20.125 40.921875 
Q 20.515625 43.109375 21.390625 43.109375 
L 30.328125 43.109375 
L 31.5 49.609375 
Q 32.078125 52.640625 32.5625 54.8125 
Q 33.0625 56.984375 33.625 58.828125 
Q 34.1875 60.6875 35.296875 62.984375 
Q 37.015625 66.265625 39.921875 68.390625 
Q 42.828125 70.515625 46.1875 70.515625 
Q 48.390625 70.515625 50.46875 69.703125 
Q 52.546875 68.890625 53.859375 67.28125 
Q 55.171875 65.671875 55.171875 63.484375 
Q 55.171875 60.9375 53.484375 59.046875 
Q 51.8125 57.171875 49.421875 57.171875 
Q 47.796875 57.171875 46.65625 58.171875 
Q 45.515625 59.1875 45.515625 60.796875 
Q 45.515625 62.984375 47 64.625 
Q 48.484375 66.265625 50.6875 66.5 
Q 48.828125 67.921875 46.09375 67.921875 
Q 44.578125 67.921875 43.234375 66.5 
Q 41.890625 65.09375 41.5 63.484375 
Q 40.875 60.9375 38.71875 49.703125 
L 37.5 43.109375 
L 47.796875 43.109375 
Q 48.78125 43.109375 48.78125 41.796875 
Q 48.734375 41.546875 48.578125 40.9375 
Q 48.4375 40.328125 48.171875 39.953125 
Q 47.90625 39.59375 47.515625 39.59375 
L 36.8125 39.59375 
L 32.171875 15.1875 
Q 31.296875 9.859375 30.140625 4.359375 
Q 29 -1.125 26.921875 -6.90625 
Q 24.859375 -12.703125 21.625 -16.609375 
Q 18.40625 -20.515625 14.015625 -20.515625 
Q 10.640625 -20.515625 7.984375 -18.578125 
Q 5.328125 -16.65625 5.328125 -13.484375 
Q 5.328125 -10.9375 6.953125 -9.046875 
Q 8.59375 -7.171875 11.078125 -7.171875 
Q 12.75 -7.171875 13.859375 -8.171875 
Q 14.984375 -9.1875 14.984375 -10.796875 
Q 14.984375 -12.9375 13.390625 -14.71875 
Q 11.8125 -16.5 9.71875 -16.5 
z
" id="Cmmi10-66"/>
      </defs>
      <g transform="translate(149.450657 100.913766)scale(0.1 -0.1)">
       <use transform="translate(0 0.484375)" xlink:href="#Cmmi10-66"/>
      </g>
     </g>
    </g>
    <g id="xtick_3">
     <g id="line2d_10">
      <path clip-path="url(#p5e17c2abf5)" d="M 562.529887 87.704405 
L 562.529887 16.528672 
" style="fill:none;stroke:#000000;stroke-dasharray:0.5,0.825;stroke-dashoffset:0;stroke-width:0.5;"/>
     </g>
     <g id="line2d_11">
      <g>
       <use style="stroke:#000000;stroke-width:0.8;" x="562.529887" xlink:href="#m0064ea0872" y="86.335641"/>
      </g>
     </g>
     <g id="text_2">
      <!-- $1$ -->
      <defs>
       <path d="M 9.28125 0 
L 9.28125 3.515625 
Q 21.78125 3.515625 21.78125 6.6875 
L 21.78125 59.1875 
Q 16.609375 56.6875 8.6875 56.6875 
L 8.6875 60.203125 
Q 20.953125 60.203125 27.203125 66.609375 
L 28.609375 66.609375 
Q 28.953125 66.609375 29.265625 66.328125 
Q 29.59375 66.0625 29.59375 65.71875 
L 29.59375 6.6875 
Q 29.59375 3.515625 42.09375 3.515625 
L 42.09375 0 
z
" id="Cmr10-31"/>
      </defs>
      <g transform="translate(560.029887 100.934078)scale(0.1 -0.1)">
       <use transform="translate(0 0.390625)" xlink:href="#Cmr10-31"/>
      </g>
     </g>
    </g>
   </g>
   <g id="matplotlib.axis_2">
    <g id="ytick_1">
     <g id="line2d_12">
      <path clip-path="url(#p5e17c2abf5)" d="M 4.074135 86.335641 
L 573.48 86.335641 
" style="fill:none;stroke:#000000;stroke-dasharray:0.5,0.825;stroke-dashoffset:0;stroke-width:0.5;"/>
     </g>
     <g id="line2d_13">
      <defs>
       <path d="M 0 0 
L -3.5 0 
" id="m3a35ddf454" style="stroke:#000000;stroke-width:0.8;"/>
      </defs>
      <g>
       <use style="stroke:#000000;stroke-width:0.8;" x="15.024247" xlink:href="#m3a35ddf454" y="86.335641"/>
      </g>
     </g>
    </g>
    <g id="ytick_2">
     <g id="line2d_14">
      <path clip-path="url(#p5e17c2abf5)" d="M 4.074135 17.897436 
L 573.48 17.897436 
" style="fill:none;stroke:#000000;stroke-dasharray:0.5,0.825;stroke-dashoffset:0;stroke-width:0.5;"/>
     </g>
     <g id="line2d_15">
      <g>
       <use style="stroke:#000000;stroke-width:0.8;" x="15.024247" xlink:href="#m3a35ddf454" y="17.897436"/>
      </g>
     </g>
     <g id="text_3">
      <!-- $1$ -->
      <g transform="translate(3.024247 21.696655)scale(0.1 -0.1)">
       <use transform="translate(0 0.390625)" xlink:href="#Cmr10-31"/>
      </g>
     </g>
    </g>
   </g>
   <g id="patch_3">
    <path d="M 15.024247 87.704405 
L 15.024247 16.528672 
" style="fill:none;stroke:#000000;stroke-linecap:square;stroke-linejoin:miter;stroke-width:0.8;"/>
   </g>
   <g id="patch_4">
    <path d="M 4.074135 86.335641 
L 573.48 86.335641 
" style="fill:none;stroke:#000000;stroke-linecap:square;stroke-linejoin:miter;stroke-width:0.8;"/>
   </g>
  </g>
 </g>
 <defs>
  <clipPath id="p5e17c2abf5">
   <rect height="71.175733" width="569.405865" x="4.074135" y="16.528672"/>
  </clipPath>
 </defs>
</svg>
