<?xml version="1.0" encoding="utf-8" standalone="no"?>
<!DOCTYPE svg PUBLIC "-//W3C//DTD SVG 1.1//EN"
  "http://www.w3.org/Graphics/SVG/1.1/DTD/svg11.dtd">
<!-- Created with matplotlib (http://matplotlib.org/) -->
<svg height="108pt" version="1.1" viewBox="0 0 576 108" width="576pt" xmlns="http://www.w3.org/2000/svg" xmlns:xlink="http://www.w3.org/1999/xlink">
 <defs>
  <style type="text/css">
*{stroke-linecap:butt;stroke-linejoin:round;}
  </style>
 </defs>
 <g id="figure_1">
  <g id="patch_1">
   <path d="M 0 108 
L 576 108 
L 576 0 
L 0 0 
z
" style="fill:#ffffff;"/>
  </g>
  <g id="axes_1">
   <g id="patch_2">
    <path d="M 4.074135 87.704405 
L 573.48 87.704405 
L 573.48 16.528672 
L 4.074135 16.528672 
z
" style="fill:#ffffff;"/>
   </g>
   <g id="line2d_1">
    <path clip-path="url(#p24b2ee0928)" d="M 15.024247 86.335641 
L 35.302234 61.008116 
L 35.302234 61.008116 
" style="fill:none;stroke:#ff0000;stroke-linecap:square;stroke-width:2;"/>
   </g>
   <g id="line2d_2">
    <path clip-path="url(#p24b2ee0928)" d="M 55.580221 64.780301 
L 75.858207 39.452776 
L 75.858207 39.452776 
" style="fill:none;stroke:#ff0000;stroke-linecap:square;stroke-width:2;"/>
   </g>
   <g id="line2d_3">
    <path clip-path="url(#p24b2ee0928)" d="M 96.136194 43.224961 
L 116.414181 17.897436 
L 116.414181 17.897436 
" style="fill:none;stroke:#ff0000;stroke-linecap:square;stroke-width:2;"/>
   </g>
   <g id="line2d_4">
    <path clip-path="url(#p24b2ee0928)" d="M 136.692167 65.319184 
L 156.970154 39.99166 
L 156.970154 39.99166 
" style="fill:none;stroke:#ff0000;stroke-linecap:square;stroke-width:2;"/>
   </g>
   <g id="line2d_5">
    <path clip-path="url(#p24b2ee0928)" d="M 521.973914 64.241417 
L 542.251901 38.913893 
L 542.251901 38.913893 
" style="fill:none;stroke:#ff0000;stroke-linecap:square;stroke-width:2;"/>
   </g>
   <g id="line2d_6">
    <path clip-path="url(#p24b2ee0928)" d="M 116.414181 17.897436 
L 136.692167 65.319184 
L 136.692167 65.319184 
" style="fill:none;stroke:#ffff00;stroke-linecap:square;stroke-width:2;"/>
   </g>
   <g id="line2d_7">
    <path clip-path="url(#p24b2ee0928)" d="M 542.251901 38.913893 
L 542.385368 39.226017 
L 542.476303 39.438676 
L 542.605363 39.740494 
L 542.619077 39.772566 
L 542.725806 40.02216 
L 542.825716 40.255807 
L 542.958559 40.566471 
L 543.022889 40.716913 
L 543.130488 40.968543 
L 543.24248 41.230445 
L 543.4036 41.607237 
L 543.492316 41.814707 
L 543.578107 42.015336 
L 543.694743 42.288099 
L 543.785536 42.500426 
L 543.871156 42.700655 
L 543.938726 42.858674 
L 544.094687 43.223401 
L 544.15452 43.363325 
L 544.272556 43.639362 
L 544.422679 43.990438 
L 544.476401 44.11607 
L 544.596726 44.39746 
L 544.655994 44.536064 
L 544.79404 44.858897 
L 544.893094 45.090542 
L 545.04872 45.454486 
L 545.115407 45.61044 
L 545.233866 45.887466 
L 545.347665 46.153594 
L 545.44706 46.386038 
L 545.562061 46.654975 
L 545.621291 46.793491 
L 545.736788 47.063591 
L 545.85986 47.351404 
L 545.878246 47.394402 
L 546.042993 47.779676 
L 546.116114 47.950676 
L 546.184226 48.10996 
L 546.344467 48.484696 
L 546.447385 48.725381 
L 546.543648 48.9505 
L 546.682908 49.276169 
L 546.688245 49.288651 
L 546.804646 49.560865 
L 546.978981 49.968561 
L 547.086 50.218833 
L 547.147895 50.36358 
L 547.239872 50.578676 
L 547.337951 50.808042 
L 547.42446 51.01035 
L 547.543974 51.289844 
L 547.696965 51.647627 
L 547.761339 51.798169 
L 547.834055 51.968223 
L 548.000453 52.357358 
L 548.07807 52.538871 
L 548.204976 52.835651 
L 548.299211 53.056028 
L 548.396915 53.284518 
L 548.440955 53.387508 
L 548.603628 53.767932 
L 548.662667 53.905999 
L 548.731345 54.06661 
L 548.92503 54.519558 
L 548.975117 54.636691 
L 549.052867 54.818515 
L 549.164383 55.079304 
L 549.252375 55.28508 
L 549.351907 55.517844 
L 549.469376 55.792556 
L 549.588939 56.072165 
L 549.705757 56.345352 
L 549.823477 56.62065 
L 549.930686 56.871367 
L 550.037711 57.121655 
L 550.072114 57.202109 
L 550.180146 57.454749 
L 550.285895 57.702052 
L 550.417776 58.010467 
L 550.542062 58.30112 
L 550.605903 58.450419 
L 550.717653 58.711755 
L 550.831961 58.979073 
L 550.934727 59.2194 
L 551.035373 59.45477 
L 551.115867 59.643011 
L 551.237092 59.926506 
L 551.307887 60.092066 
L 551.473454 60.479258 
L 551.558116 60.677248 
L 551.658193 60.911286 
L 551.728507 61.075721 
L 551.791431 61.222874 
L 551.940796 61.572177 
L 551.988136 61.682884 
L 552.100871 61.946524 
L 552.199038 62.176097 
L 552.33924 62.503969 
L 552.414639 62.680297 
L 552.577597 63.061388 
L 552.60881 63.134382 
L 552.720269 63.395037 
L 552.879966 63.768503 
L 552.905779 63.828869 
L 553.049704 64.165449 
L 553.172369 64.452311 
L 553.284637 64.714859 
L 553.380273 64.938512 
L 553.429226 65.052992 
" style="fill:none;stroke:#ffff00;stroke-linecap:square;stroke-width:2;"/>
   </g>
   <g id="line2d_8">
    <path clip-path="url(#p24b2ee0928)" d="M 553.777135 65.866606 
L 553.836245 66.00484 
L 553.99808 66.383303 
L 554.099139 66.61964 
L 554.162882 66.768707 
L 554.285498 67.055456 
L 554.343922 67.192084 
L 554.439641 67.415932 
L 554.538417 67.646926 
L 554.714099 68.057774 
L 554.775547 68.201476 
L 554.837862 68.347205 
L 554.992031 68.707741 
L 555.133761 69.039188 
L 555.212744 69.223896 
L 555.30854 69.447924 
L 555.44342 69.763352 
L 555.466239 69.816715 
L 555.648407 70.24273 
L 555.682824 70.323217 
L 555.836556 70.682733 
L 555.887753 70.802462 
L 556.020348 71.112545 
L 556.141376 71.39558 
L 556.213874 71.565123 
L 556.267881 71.691422 
L 556.419729 72.04653 
L 556.56618 72.389019 
L 556.586998 72.437703 
L 556.679625 72.65432 
L 556.832501 73.011832 
L 556.939952 73.263114 
L 557.014745 73.438026 
L 557.134024 73.71697 
L 557.264791 74.022779 
L 557.337732 74.193357 
L 557.404395 74.349253 
L 557.580751 74.761677 
L 557.593334 74.791102 
L 557.782062 75.23246 
L 557.828372 75.34076 
L 557.972058 75.676781 
L 558.096065 75.966781 
L 558.15003 76.092984 
L 558.293539 76.42859 
L 558.393078 76.661371 
L 558.443772 76.779923 
L 558.584052 77.107979 
L 558.69441 77.36606 
L 558.792926 77.596449 
L 558.899075 77.844686 
L 558.980686 78.03554 
L 559.030775 78.152678 
L 559.153385 78.439411 
L 559.287358 78.752718 
L 559.34235 78.881321 
L 559.523038 79.303875 
L 559.623288 79.538318 
L 559.6758 79.661123 
L 559.801246 79.954489 
L 559.907865 80.203826 
L 559.997798 80.414141 
L 560.092526 80.63567 
L 560.137158 80.740045 
L 560.301299 81.123902 
L 560.362014 81.26589 
L 560.489714 81.564528 
L 560.64084 81.917947 
L 560.712272 82.084997 
L 560.806331 82.304963 
L 560.947827 82.635861 
L 561.044567 82.862097 
L 561.126916 83.054678 
L 561.159911 83.131838 
L 561.332524 83.535508 
L 561.377881 83.64158 
L 561.49093 83.905953 
L 561.592153 84.142671 
L 561.714198 84.428085 
L 561.785228 84.594194 
L 561.950284 84.980191 
L 562.031958 85.171192 
L 562.087136 85.30023 
L 562.203593 85.572575 
L 562.312026 85.826156 
L 562.461152 86.174897 
L 562.529887 86.335641 
" style="fill:none;stroke:#ffff00;stroke-linecap:square;stroke-width:2;"/>
   </g>
   <g id="line2d_9">
    <path clip-path="url(#p24b2ee0928)" d="M 197.526127 62.085883 
L 238.082101 55.080398 
L 238.082101 55.080398 
" style="fill:none;stroke:#00ff00;stroke-linecap:square;stroke-width:2;"/>
   </g>
   <g id="line2d_10">
    <path clip-path="url(#p24b2ee0928)" d="M 278.638074 33.525058 
L 298.916061 30.022315 
L 298.916061 30.022315 
" style="fill:none;stroke:#00ff00;stroke-linecap:square;stroke-width:2;"/>
   </g>
   <g id="line2d_11">
    <path clip-path="url(#p24b2ee0928)" d="M 380.028007 74.210762 
L 400.305994 70.708019 
L 400.305994 70.708019 
" style="fill:none;stroke:#00ff00;stroke-linecap:square;stroke-width:2;"/>
   </g>
   <g id="line2d_12">
    <path clip-path="url(#p24b2ee0928)" d="M 440.861967 49.152679 
L 481.417941 42.147194 
L 481.417941 42.147194 
" style="fill:none;stroke:#00ff00;stroke-linecap:square;stroke-width:2;"/>
   </g>
   <g id="line2d_13">
    <path clip-path="url(#p24b2ee0928)" d="M 238.082101 55.080398 
L 278.638074 33.525058 
L 278.638074 33.525058 
" style="fill:none;stroke:#00ffff;stroke-linecap:square;stroke-width:2;"/>
   </g>
   <g id="line2d_14">
    <path clip-path="url(#p24b2ee0928)" d="M 400.305994 70.708019 
L 440.861967 49.152679 
L 440.861967 49.152679 
" style="fill:none;stroke:#00ffff;stroke-linecap:square;stroke-width:2;"/>
   </g>
   <g id="line2d_15">
    <path clip-path="url(#p24b2ee0928)" d="M 35.302234 61.008116 
L 55.580221 64.780301 
L 55.580221 64.780301 
" style="fill:none;stroke:#0000ff;stroke-linecap:square;stroke-width:2;"/>
   </g>
   <g id="line2d_16">
    <path clip-path="url(#p24b2ee0928)" d="M 75.858207 39.452776 
L 96.136194 43.224961 
L 96.136194 43.224961 
" style="fill:none;stroke:#0000ff;stroke-linecap:square;stroke-width:2;"/>
   </g>
   <g id="line2d_17">
    <path clip-path="url(#p24b2ee0928)" d="M 156.970154 39.99166 
L 157.244054 40.140876 
L 157.288021 40.164828 
L 157.621623 40.346569 
L 157.718472 40.399331 
L 158.04086 40.574962 
L 158.126045 40.62137 
L 158.398671 40.769892 
L 158.608411 40.884155 
L 158.829024 41.004341 
L 159.047452 41.123337 
L 159.310265 41.266513 
L 159.45288 41.344208 
L 159.59756 41.423027 
L 159.800324 41.53349 
L 160.058298 41.674029 
L 160.233319 41.769378 
L 160.52119 41.926205 
L 160.667392 42.005854 
L 160.899113 42.132091 
L 161.036735 42.207066 
L 161.177499 42.283752 
L 161.523468 42.47223 
L 161.586395 42.506511 
L 161.809668 42.628147 
L 161.982735 42.722431 
L 162.344635 42.919588 
L 162.452114 42.978141 
L 162.690736 43.108138 
L 162.971001 43.260822 
L 162.992309 43.27243 
L 163.381432 43.484418 
L 163.528713 43.564654 
L 163.75896 43.690089 
L 163.939771 43.788592 
L 164.147552 43.901787 
L 164.255177 43.96042 
L 164.412839 44.046312 
L 164.714105 44.210436 
L 164.84098 44.279555 
L 165.082107 44.410918 
L 165.359944 44.562279 
L 165.522614 44.650899 
L 165.721078 44.759018 
L 165.937348 44.876839 
L 166.23205 45.037387 
L 166.367467 45.11116 
L 166.614488 45.245733 
L 166.688193 45.285887 
L 166.974871 45.442064 
L 167.072642 45.495328 
L 167.438231 45.694495 
L 167.6656 45.818362 
L 167.682948 45.827813 
L 168.036631 46.020493 
L 168.111246 46.061142 
L 168.318389 46.17399 
L 168.533944 46.291421 
L 168.689199 46.376001 
L 168.961669 46.524439 
L 169.16037 46.632688 
L 169.36611 46.744771 
L 169.569237 46.855432 
L 169.863645 47.01582 
L 169.918349 47.045622 
L 170.179259 47.187762 
L 170.32598 47.267693 
L 170.662328 47.45093 
L 170.766311 47.507578 
L 171.045563 47.65971 
L 171.18291 47.734534 
L 171.353366 47.827396 
L 171.63722 47.982035 
L 171.846017 48.095784 
L 172.024902 48.193237 
L 172.337934 48.363772 
L 172.378841 48.386058 
L 172.738706 48.582106 
L 172.917223 48.679359 
L 173.155546 48.809194 
L 173.238078 48.854156 
L 173.41258 48.949222 
L 173.639334 49.072753 
L 173.909905 49.220156 
L 174.171705 49.36278 
L 174.26394 49.413028 
L 174.595646 49.593736 
L 174.790482 49.69988 
L 175.006341 49.817476 
L 175.089215 49.862624 
L 175.317437 49.986956 
L 175.603653 50.142882 
L 175.768049 50.232442 
L 175.898572 50.303549 
L 176.135675 50.432719 
" style="fill:none;stroke:#ff00ff;stroke-linecap:square;stroke-width:2;"/>
   </g>
   <g id="line2d_18">
    <path clip-path="url(#p24b2ee0928)" d="M 176.722393 50.752353 
L 176.935366 50.868377 
L 177.165272 50.993626 
L 177.2927 51.063047 
L 177.537837 51.196593 
L 177.806635 51.34303 
L 177.859581 51.371874 
L 178.075004 51.489233 
L 178.285583 51.603953 
L 178.631133 51.792203 
L 178.769227 51.867434 
L 179.012598 52.000019 
L 179.238399 52.123031 
L 179.476078 52.252515 
L 179.495993 52.263364 
L 179.753059 52.40341 
L 180.027591 52.55297 
L 180.284491 52.692925 
L 180.351046 52.729183 
L 180.592241 52.860582 
L 180.845403 52.998501 
L 181.068295 53.119928 
L 181.244266 53.215794 
L 181.437525 53.321079 
L 181.699471 53.463782 
L 181.813435 53.525868 
L 182.045562 53.652327 
L 182.306801 53.794646 
L 182.477785 53.887795 
L 182.585624 53.946544 
L 182.909048 54.12274 
L 183.059416 54.204658 
L 183.170251 54.265039 
L 183.561828 54.478364 
L 183.647512 54.525043 
L 183.911227 54.668711 
L 184.041077 54.739451 
L 184.357205 54.911672 
L 184.511866 54.995929 
L 184.775853 55.139745 
L 184.815206 55.161183 
L 185.016895 55.27106 
L 185.316886 55.43449 
L 185.476927 55.521678 
L 185.750314 55.670615 
L 185.956834 55.783124 
L 186.181121 55.905312 
L 186.362018 56.003861 
L 186.466123 56.060576 
L 186.801608 56.243342 
L 186.946576 56.322319 
L 187.192551 56.456322 
L 187.339717 56.536495 
L 187.460897 56.602512 
L 187.820741 56.798549 
L 187.998992 56.895657 
L 188.140963 56.973001 
L 188.370652 57.098132 
L 188.534816 57.187566 
L 188.753592 57.306751 
L 188.94317 57.41003 
L 189.083191 57.486311 
L 189.319983 57.615312 
L 189.508321 57.717915 
L 189.813658 57.884258 
L 189.914616 57.939258 
L 190.150001 58.067492 
L 190.459947 58.236345 
L 190.671787 58.351752 
L 190.763947 58.401959 
L 191.012454 58.537342 
L 191.197741 58.638283 
L 191.403703 58.750487 
L 191.598241 58.856469 
L 191.751186 58.939791 
L 192.031639 59.092577 
L 192.210907 59.190239 
L 192.343694 59.262579 
L 192.590819 59.397209 
L 192.751189 59.484576 
L 193.00005 59.620151 
L 193.282629 59.774096 
L 193.450035 59.865296 
L 193.553571 59.9217 
L 193.904445 60.112851 
L 193.970617 60.1489 
L 194.298012 60.32726 
L 194.440351 60.404804 
L 194.605076 60.494543 
L 194.85764 60.632136 
L 195.001397 60.710452 
L 195.234603 60.837499 
L 195.485155 60.973995 
L 195.623985 61.049628 
L 195.865713 61.181317 
L 196.196674 61.361619 
L 196.34316 61.441422 
L 196.417505 61.481924 
L 196.737646 61.656332 
L 196.94128 61.767268 
L 197.038592 61.820282 
L 197.396979 62.015525 
L 197.526127 62.085883 
" style="fill:none;stroke:#ff00ff;stroke-linecap:square;stroke-width:2;"/>
   </g>
   <g id="line2d_19">
    <path clip-path="url(#p24b2ee0928)" d="M 298.916061 30.022315 
L 380.028007 74.210762 
L 380.028007 74.210762 
" style="fill:none;stroke:#ff00ff;stroke-linecap:square;stroke-width:2;"/>
   </g>
   <g id="line2d_20">
    <path clip-path="url(#p24b2ee0928)" d="M 481.417941 42.147194 
L 521.973914 64.241417 
L 521.973914 64.241417 
" style="fill:none;stroke:#ff00ff;stroke-linecap:square;stroke-width:2;"/>
   </g>
   <g id="matplotlib.axis_1">
    <g id="xtick_1">
     <g id="line2d_21">
      <path clip-path="url(#p24b2ee0928)" d="M 15.024247 87.704405 
L 15.024247 16.528672 
" style="fill:none;stroke:#000000;stroke-dasharray:0.5,0.825;stroke-dashoffset:0;stroke-width:0.5;"/>
     </g>
     <g id="line2d_22">
      <defs>
       <path d="M 0 0 
L 0 3.5 
" id="m71ced2ea77" style="stroke:#000000;stroke-width:0.8;"/>
      </defs>
      <g>
       <use style="stroke:#000000;stroke-width:0.8;" x="15.024247" xlink:href="#m71ced2ea77" y="86.335641"/>
      </g>
     </g>
    </g>
    <g id="xtick_2">
     <g id="line2d_23">
      <path clip-path="url(#p24b2ee0928)" d="M 116.414181 87.704405 
L 116.414181 16.528672 
" style="fill:none;stroke:#000000;stroke-dasharray:0.5,0.825;stroke-dashoffset:0;stroke-width:0.5;"/>
     </g>
     <g id="line2d_24">
      <g>
       <use style="stroke:#000000;stroke-width:0.8;" x="116.414181" xlink:href="#m71ced2ea77" y="86.335641"/>
      </g>
     </g>
     <g id="text_1">
      <!-- $f$ -->
      <defs>
       <path d="M 9.71875 -16.5 
Q 11.578125 -17.921875 14.203125 -17.921875 
Q 17.78125 -17.921875 20.015625 -10.015625 
Q 20.953125 -6.203125 25.09375 15.09375 
L 29.6875 39.59375 
L 21.09375 39.59375 
Q 20.125 39.59375 20.125 40.921875 
Q 20.515625 43.109375 21.390625 43.109375 
L 30.328125 43.109375 
L 31.5 49.609375 
Q 32.078125 52.640625 32.5625 54.8125 
Q 33.0625 56.984375 33.625 58.828125 
Q 34.1875 60.6875 35.296875 62.984375 
Q 37.015625 66.265625 39.921875 68.390625 
Q 42.828125 70.515625 46.1875 70.515625 
Q 48.390625 70.515625 50.46875 69.703125 
Q 52.546875 68.890625 53.859375 67.28125 
Q 55.171875 65.671875 55.171875 63.484375 
Q 55.171875 60.9375 53.484375 59.046875 
Q 51.8125 57.171875 49.421875 57.171875 
Q 47.796875 57.171875 46.65625 58.171875 
Q 45.515625 59.1875 45.515625 60.796875 
Q 45.515625 62.984375 47 64.625 
Q 48.484375 66.265625 50.6875 66.5 
Q 48.828125 67.921875 46.09375 67.921875 
Q 44.578125 67.921875 43.234375 66.5 
Q 41.890625 65.09375 41.5 63.484375 
Q 40.875 60.9375 38.71875 49.703125 
L 37.5 43.109375 
L 47.796875 43.109375 
Q 48.78125 43.109375 48.78125 41.796875 
Q 48.734375 41.546875 48.578125 40.9375 
Q 48.4375 40.328125 48.171875 39.953125 
Q 47.90625 39.59375 47.515625 39.59375 
L 36.8125 39.59375 
L 32.171875 15.1875 
Q 31.296875 9.859375 30.140625 4.359375 
Q 29 -1.125 26.921875 -6.90625 
Q 24.859375 -12.703125 21.625 -16.609375 
Q 18.40625 -20.515625 14.015625 -20.515625 
Q 10.640625 -20.515625 7.984375 -18.578125 
Q 5.328125 -16.65625 5.328125 -13.484375 
Q 5.328125 -10.9375 6.953125 -9.046875 
Q 8.59375 -7.171875 11.078125 -7.171875 
Q 12.75 -7.171875 13.859375 -8.171875 
Q 14.984375 -9.1875 14.984375 -10.796875 
Q 14.984375 -12.9375 13.390625 -14.71875 
Q 11.8125 -16.5 9.71875 -16.5 
z
" id="Cmmi10-66"/>
      </defs>
      <g transform="translate(113.964181 100.913766)scale(0.1 -0.1)">
       <use transform="translate(0 0.484375)" xlink:href="#Cmmi10-66"/>
      </g>
     </g>
    </g>
    <g id="xtick_3">
     <g id="line2d_25">
      <path clip-path="url(#p24b2ee0928)" d="M 562.529887 87.704405 
L 562.529887 16.528672 
" style="fill:none;stroke:#000000;stroke-dasharray:0.5,0.825;stroke-dashoffset:0;stroke-width:0.5;"/>
     </g>
     <g id="line2d_26">
      <g>
       <use style="stroke:#000000;stroke-width:0.8;" x="562.529887" xlink:href="#m71ced2ea77" y="86.335641"/>
      </g>
     </g>
     <g id="text_2">
      <!-- $1$ -->
      <defs>
       <path d="M 9.28125 0 
L 9.28125 3.515625 
Q 21.78125 3.515625 21.78125 6.6875 
L 21.78125 59.1875 
Q 16.609375 56.6875 8.6875 56.6875 
L 8.6875 60.203125 
Q 20.953125 60.203125 27.203125 66.609375 
L 28.609375 66.609375 
Q 28.953125 66.609375 29.265625 66.328125 
Q 29.59375 66.0625 29.59375 65.71875 
L 29.59375 6.6875 
Q 29.59375 3.515625 42.09375 3.515625 
L 42.09375 0 
z
" id="Cmr10-31"/>
      </defs>
      <g transform="translate(560.029887 100.934078)scale(0.1 -0.1)">
       <use transform="translate(0 0.390625)" xlink:href="#Cmr10-31"/>
      </g>
     </g>
    </g>
   </g>
   <g id="matplotlib.axis_2">
    <g id="ytick_1">
     <g id="line2d_27">
      <path clip-path="url(#p24b2ee0928)" d="M 4.074135 86.335641 
L 573.48 86.335641 
" style="fill:none;stroke:#000000;stroke-dasharray:0.5,0.825;stroke-dashoffset:0;stroke-width:0.5;"/>
     </g>
     <g id="line2d_28">
      <defs>
       <path d="M 0 0 
L -3.5 0 
" id="m5b62077cee" style="stroke:#000000;stroke-width:0.8;"/>
      </defs>
      <g>
       <use style="stroke:#000000;stroke-width:0.8;" x="15.024247" xlink:href="#m5b62077cee" y="86.335641"/>
      </g>
     </g>
    </g>
    <g id="ytick_2">
     <g id="line2d_29">
      <path clip-path="url(#p24b2ee0928)" d="M 4.074135 17.897436 
L 573.48 17.897436 
" style="fill:none;stroke:#000000;stroke-dasharray:0.5,0.825;stroke-dashoffset:0;stroke-width:0.5;"/>
     </g>
     <g id="line2d_30">
      <g>
       <use style="stroke:#000000;stroke-width:0.8;" x="15.024247" xlink:href="#m5b62077cee" y="17.897436"/>
      </g>
     </g>
     <g id="text_3">
      <!-- $1$ -->
      <g transform="translate(3.024247 21.696655)scale(0.1 -0.1)">
       <use transform="translate(0 0.390625)" xlink:href="#Cmr10-31"/>
      </g>
     </g>
    </g>
   </g>
   <g id="patch_3">
    <path d="M 15.024247 87.704405 
L 15.024247 16.528672 
" style="fill:none;stroke:#000000;stroke-linecap:square;stroke-linejoin:miter;stroke-width:0.8;"/>
   </g>
   <g id="patch_4">
    <path d="M 4.074135 86.335641 
L 573.48 86.335641 
" style="fill:none;stroke:#000000;stroke-linecap:square;stroke-linejoin:miter;stroke-width:0.8;"/>
   </g>
  </g>
 </g>
 <defs>
  <clipPath id="p24b2ee0928">
   <rect height="71.175733" width="569.405865" x="4.074135" y="16.528672"/>
  </clipPath>
 </defs>
</svg>
