<?xml version="1.0" encoding="utf-8" standalone="no"?>
<!DOCTYPE svg PUBLIC "-//W3C//DTD SVG 1.1//EN"
  "http://www.w3.org/Graphics/SVG/1.1/DTD/svg11.dtd">
<!-- Created with matplotlib (http://matplotlib.org/) -->
<svg height="108pt" version="1.1" viewBox="0 0 576 108" width="576pt" xmlns="http://www.w3.org/2000/svg" xmlns:xlink="http://www.w3.org/1999/xlink">
 <defs>
  <style type="text/css">
*{stroke-linecap:butt;stroke-linejoin:round;}
  </style>
 </defs>
 <g id="figure_1">
  <g id="patch_1">
   <path d="M 0 108 
L 576 108 
L 576 0 
L 0 0 
z
" style="fill:#ffffff;"/>
  </g>
  <g id="axes_1">
   <g id="patch_2">
    <path d="M 4.074135 87.704405 
L 573.48 87.704405 
L 573.48 16.528672 
L 4.074135 16.528672 
z
" style="fill:#ffffff;"/>
   </g>
   <g id="line2d_1">
    <path clip-path="url(#p96e787eb03)" d="M 15.024247 86.335641 
L 15.1167 86.232916 
L 15.267959 86.064851 
L 15.357171 85.965725 
L 15.434166 85.880176 
L 15.52671 85.77735 
L 15.718692 85.564036 
L 15.79967 85.474061 
L 15.887328 85.376663 
L 15.984293 85.268924 
L 16.175907 85.05602 
L 16.278496 84.942031 
L 16.395598 84.811918 
L 16.502344 84.693311 
L 16.572023 84.615891 
L 16.673912 84.50268 
L 16.767787 84.398374 
L 16.903302 84.247803 
L 16.981328 84.161107 
L 17.116333 84.011101 
L 17.21405 83.902527 
L 17.33298 83.770382 
L 17.460938 83.628207 
L 17.581811 83.493903 
L 17.714933 83.34599 
L 17.781493 83.272035 
L 17.844146 83.20242 
" style="fill:none;stroke:#ff0000;stroke-linecap:square;stroke-width:2;"/>
   </g>
   <g id="line2d_2">
    <path clip-path="url(#p96e787eb03)" d="M 18.171477 82.838719 
L 36.924473 62.002057 
L 36.924473 62.002057 
" style="fill:none;stroke:#ff0000;stroke-linecap:square;stroke-width:2;"/>
   </g>
   <g id="line2d_3">
    <path clip-path="url(#p96e787eb03)" d="M 58.824699 75.689698 
L 80.724924 51.356114 
L 80.724924 51.356114 
" style="fill:none;stroke:#ff0000;stroke-linecap:square;stroke-width:2;"/>
   </g>
   <g id="line2d_4">
    <path clip-path="url(#p96e787eb03)" d="M 102.62515 65.043755 
L 124.525375 40.710171 
L 124.525375 40.710171 
" style="fill:none;stroke:#ff0000;stroke-linecap:square;stroke-width:2;"/>
   </g>
   <g id="line2d_5">
    <path clip-path="url(#p96e787eb03)" d="M 179.275939 74.929273 
L 201.176165 50.595689 
L 201.176165 50.595689 
" style="fill:none;stroke:#ff0000;stroke-linecap:square;stroke-width:2;"/>
   </g>
   <g id="line2d_6">
    <path clip-path="url(#p96e787eb03)" d="M 223.076391 64.28333 
L 244.976616 39.949746 
L 244.976616 39.949746 
" style="fill:none;stroke:#ff0000;stroke-linecap:square;stroke-width:2;"/>
   </g>
   <g id="line2d_7">
    <path clip-path="url(#p96e787eb03)" d="M 266.876842 53.637387 
L 288.777067 29.303803 
L 288.777067 29.303803 
" style="fill:none;stroke:#ff0000;stroke-linecap:square;stroke-width:2;"/>
   </g>
   <g id="line2d_8">
    <path clip-path="url(#p96e787eb03)" d="M 343.527631 63.522906 
L 365.427857 39.189322 
L 365.427857 39.189322 
" style="fill:none;stroke:#ff0000;stroke-linecap:square;stroke-width:2;"/>
   </g>
   <g id="line2d_9">
    <path clip-path="url(#p96e787eb03)" d="M 387.328082 52.876963 
L 409.228308 28.543379 
L 409.228308 28.543379 
" style="fill:none;stroke:#ff0000;stroke-linecap:square;stroke-width:2;"/>
   </g>
   <g id="line2d_10">
    <path clip-path="url(#p96e787eb03)" d="M 431.128534 42.23102 
L 453.028759 17.897436 
L 453.028759 17.897436 
" style="fill:none;stroke:#ff0000;stroke-linecap:square;stroke-width:2;"/>
   </g>
   <g id="line2d_11">
    <path clip-path="url(#p96e787eb03)" d="M 36.924473 62.002057 
L 37.013995 62.058008 
L 37.161509 62.150205 
L 37.225595 62.190258 
L 37.418912 62.311081 
L 37.486514 62.353333 
L 37.615706 62.434078 
L 37.733716 62.507834 
L 37.758954 62.523608 
L 37.92753 62.628967 
L 37.982605 62.663389 
L 38.083509 62.726455 
L 38.295384 62.858876 
L 38.326418 62.878272 
L 38.508189 62.991879 
L 38.602891 63.051068 
L 38.72191 63.125455 
L 38.844001 63.201762 
L 38.874385 63.220752 
L 39.035529 63.321467 
L 39.152383 63.394501 
L 39.190758 63.418485 
L 39.336186 63.509377 
L 39.453328 63.582591 
L 39.536855 63.634796 
L 39.624591 63.689631 
L 39.8299 63.817949 
L 39.94234 63.888224 
L 39.995098 63.921198 
L 40.143249 64.013792 
L 40.22662 64.065899 
L 40.298597 64.110885 
L 40.476807 64.222265 
L 40.530715 64.255958 
L 40.653642 64.332788 
L 40.740598 64.387135 
L 40.888108 64.479329 
L 41.007914 64.554208 
L 41.144283 64.639438 
L 41.203342 64.67635 
L 41.366816 64.778522 
L 41.465394 64.840133 
L 41.570814 64.90602 
L 41.685477 64.977685 
L 41.770598 65.030885 
L 41.91452 65.120836 
L 42.038617 65.198397 
L 42.125476 65.252684 
L 42.175067 65.283678 
L 42.312032 65.369281 
L 42.437036 65.447409 
L 42.573749 65.532854 
L 42.59252 65.544587 
L 42.707281 65.616312 
L 42.8306 65.693387 
L 43.0168 65.809761 
L 43.048768 65.829741 
L 43.159865 65.899177 
L 43.272119 65.969336 
L 43.36638 66.028249 
L 43.544189 66.13938 
L 43.687653 66.229045 
L 43.78587 66.29043 
L 43.84806 66.329299 
L 43.986741 66.415975 
L 44.071582 66.469 
L 44.139201 66.511262 
L 44.351253 66.643794 
L 44.384892 66.664819 
L 44.54934 66.767599 
L 44.580599 66.787136 
L 44.704873 66.864807 
L 44.847514 66.953958 
L 44.9499 67.017949 
L 45.024751 67.06473 
L 45.148318 67.14196 
L 45.308445 67.24204 
L 45.388966 67.292365 
L 45.467498 67.341448 
L 45.568221 67.404399 
L 45.709951 67.49298 
L 45.870626 67.593402 
L 45.963997 67.651759 
L 46.024568 67.689617 
L 46.21925 67.811293 
L 46.275888 67.846691 
L 46.434688 67.945942 
L 46.536907 68.009828 
L 46.66041 68.087017 
L 46.759074 68.148683 
L 46.834997 68.196134 
L 46.982809 68.288517 
L 47.078861 68.348549 
L 47.166123 68.403088 
L 47.262923 68.463588 
L 47.368133 68.529344 
L 47.542907 68.638578 
L 47.641238 68.700035 
L 47.673186 68.720003 
L 47.83998 68.824249 
L 47.898343 68.860726 
L 47.990852 68.918544 
L 48.109768 68.992867 
L 48.232495 69.069571 
L 48.42121 69.187517 
L 48.43274 69.194724 
L 48.597236 69.297534 
L 48.651529 69.331467 
L 48.784054 69.414295 
L 48.89846 69.485799 
L 49.080491 69.599568 
L 49.167319 69.653835 
L 49.23904 69.698661 
L 49.352511 69.769581 
L 49.440978 69.824873 
L 49.565749 69.902854 
L 49.686994 69.978633 
L 49.781159 70.037486 
L 49.859334 70.086345 
L 49.970706 70.155953 
L 50.133465 70.257677 
L 50.201704 70.300326 
L 50.348399 70.392011 
L 50.4812 70.475012 
L 50.583164 70.538739 
L 50.69246 70.607049 
" style="fill:none;stroke:#00ffff;stroke-linecap:square;stroke-width:2;"/>
   </g>
   <g id="line2d_12">
    <path clip-path="url(#p96e787eb03)" d="M 51.019229 70.811279 
L 51.138163 70.885614 
L 51.233067 70.944929 
L 51.343799 71.014136 
L 51.422353 71.063232 
L 51.544081 71.139312 
L 51.643873 71.201682 
L 51.796155 71.296858 
L 51.845759 71.32786 
L 51.973719 71.407836 
L 52.162339 71.525723 
L 52.255772 71.584119 
L 52.287141 71.603724 
L 52.387891 71.666693 
L 52.59538 71.796374 
L 52.698347 71.860728 
L 52.721559 71.875236 
L 52.918737 71.998472 
L 52.997092 72.047444 
L 53.087796 72.104134 
L 53.255777 72.209122 
L 53.326624 72.253402 
L 53.44589 72.327943 
L 53.57994 72.411724 
L 53.64123 72.45003 
L 53.801838 72.55041 
L 53.875044 72.596164 
L 54.030477 72.69331 
L 54.051281 72.706312 
L 54.239008 72.823642 
L 54.271703 72.844075 
L 54.376293 72.909444 
L 54.4999 72.986699 
L 54.604397 73.05201 
L 54.792122 73.169337 
L 54.819079 73.186186 
L 55.006139 73.303098 
L 55.06917 73.342493 
L 55.15259 73.39463 
L 55.341247 73.512541 
L 55.430098 73.568072 
L 55.48251 73.60083 
L 55.63876 73.698486 
L 55.78729 73.791318 
L 55.879032 73.848656 
L 55.922145 73.875602 
L 56.018907 73.936078 
L 56.236243 74.071913 
L 56.271339 74.093848 
L 56.352293 74.144445 
L 56.483996 74.226759 
L 56.628934 74.317345 
L 56.718184 74.373126 
L 56.834623 74.445901 
L 57.008203 74.554388 
L 57.091086 74.60619 
L 57.127594 74.629008 
L 57.332839 74.757286 
L 57.40969 74.805318 
L 57.494712 74.858456 
L 57.609807 74.930391 
L 57.689978 74.980498 
L 57.791702 75.044075 
L 57.990918 75.168585 
L 58.025847 75.190415 
L 58.123867 75.251678 
L 58.238837 75.323534 
L 58.369746 75.405353 
L 58.443759 75.451611 
L 58.581829 75.537904 
L 58.732948 75.632354 
L 58.824699 75.689698 
" style="fill:none;stroke:#00ffff;stroke-linecap:square;stroke-width:2;"/>
   </g>
   <g id="line2d_13">
    <path clip-path="url(#p96e787eb03)" d="M 80.724924 51.356114 
L 102.62515 65.043755 
L 102.62515 65.043755 
" style="fill:none;stroke:#00ffff;stroke-linecap:square;stroke-width:2;"/>
   </g>
   <g id="line2d_14">
    <path clip-path="url(#p96e787eb03)" d="M 124.525375 40.710171 
L 179.275939 74.929273 
L 179.275939 74.929273 
" style="fill:none;stroke:#00ffff;stroke-linecap:square;stroke-width:2;"/>
   </g>
   <g id="line2d_15">
    <path clip-path="url(#p96e787eb03)" d="M 201.176165 50.595689 
L 223.076391 64.28333 
L 223.076391 64.28333 
" style="fill:none;stroke:#00ffff;stroke-linecap:square;stroke-width:2;"/>
   </g>
   <g id="line2d_16">
    <path clip-path="url(#p96e787eb03)" d="M 244.976616 39.949746 
L 266.876842 53.637387 
L 266.876842 53.637387 
" style="fill:none;stroke:#00ffff;stroke-linecap:square;stroke-width:2;"/>
   </g>
   <g id="line2d_17">
    <path clip-path="url(#p96e787eb03)" d="M 288.777067 29.303803 
L 343.527631 63.522906 
L 343.527631 63.522906 
" style="fill:none;stroke:#00ffff;stroke-linecap:square;stroke-width:2;"/>
   </g>
   <g id="line2d_18">
    <path clip-path="url(#p96e787eb03)" d="M 365.427857 39.189322 
L 387.328082 52.876963 
L 387.328082 52.876963 
" style="fill:none;stroke:#00ffff;stroke-linecap:square;stroke-width:2;"/>
   </g>
   <g id="line2d_19">
    <path clip-path="url(#p96e787eb03)" d="M 409.228308 28.543379 
L 431.128534 42.23102 
L 431.128534 42.23102 
" style="fill:none;stroke:#00ffff;stroke-linecap:square;stroke-width:2;"/>
   </g>
   <g id="line2d_20">
    <path clip-path="url(#p96e787eb03)" d="M 453.028759 17.897436 
L 562.529887 86.335641 
L 562.529887 86.335641 
" style="fill:none;stroke:#00ffff;stroke-linecap:square;stroke-width:2;"/>
   </g>
   <g id="matplotlib.axis_1">
    <g id="xtick_1">
     <g id="line2d_21">
      <path clip-path="url(#p96e787eb03)" d="M 15.024247 87.704405 
L 15.024247 16.528672 
" style="fill:none;stroke:#000000;stroke-dasharray:0.5,0.825;stroke-dashoffset:0;stroke-width:0.5;"/>
     </g>
     <g id="line2d_22">
      <defs>
       <path d="M 0 0 
L 0 3.5 
" id="m791a115b18" style="stroke:#000000;stroke-width:0.8;"/>
      </defs>
      <g>
       <use style="stroke:#000000;stroke-width:0.8;" x="15.024247" xlink:href="#m791a115b18" y="86.335641"/>
      </g>
     </g>
    </g>
    <g id="xtick_2">
     <g id="line2d_23">
      <path clip-path="url(#p96e787eb03)" d="M 453.028759 87.704405 
L 453.028759 16.528672 
" style="fill:none;stroke:#000000;stroke-dasharray:0.5,0.825;stroke-dashoffset:0;stroke-width:0.5;"/>
     </g>
     <g id="line2d_24">
      <g>
       <use style="stroke:#000000;stroke-width:0.8;" x="453.028759" xlink:href="#m791a115b18" y="86.335641"/>
      </g>
     </g>
     <g id="text_1">
      <!-- $f$ -->
      <defs>
       <path d="M 9.71875 -16.5 
Q 11.578125 -17.921875 14.203125 -17.921875 
Q 17.78125 -17.921875 20.015625 -10.015625 
Q 20.953125 -6.203125 25.09375 15.09375 
L 29.6875 39.59375 
L 21.09375 39.59375 
Q 20.125 39.59375 20.125 40.921875 
Q 20.515625 43.109375 21.390625 43.109375 
L 30.328125 43.109375 
L 31.5 49.609375 
Q 32.078125 52.640625 32.5625 54.8125 
Q 33.0625 56.984375 33.625 58.828125 
Q 34.1875 60.6875 35.296875 62.984375 
Q 37.015625 66.265625 39.921875 68.390625 
Q 42.828125 70.515625 46.1875 70.515625 
Q 48.390625 70.515625 50.46875 69.703125 
Q 52.546875 68.890625 53.859375 67.28125 
Q 55.171875 65.671875 55.171875 63.484375 
Q 55.171875 60.9375 53.484375 59.046875 
Q 51.8125 57.171875 49.421875 57.171875 
Q 47.796875 57.171875 46.65625 58.171875 
Q 45.515625 59.1875 45.515625 60.796875 
Q 45.515625 62.984375 47 64.625 
Q 48.484375 66.265625 50.6875 66.5 
Q 48.828125 67.921875 46.09375 67.921875 
Q 44.578125 67.921875 43.234375 66.5 
Q 41.890625 65.09375 41.5 63.484375 
Q 40.875 60.9375 38.71875 49.703125 
L 37.5 43.109375 
L 47.796875 43.109375 
Q 48.78125 43.109375 48.78125 41.796875 
Q 48.734375 41.546875 48.578125 40.9375 
Q 48.4375 40.328125 48.171875 39.953125 
Q 47.90625 39.59375 47.515625 39.59375 
L 36.8125 39.59375 
L 32.171875 15.1875 
Q 31.296875 9.859375 30.140625 4.359375 
Q 29 -1.125 26.921875 -6.90625 
Q 24.859375 -12.703125 21.625 -16.609375 
Q 18.40625 -20.515625 14.015625 -20.515625 
Q 10.640625 -20.515625 7.984375 -18.578125 
Q 5.328125 -16.65625 5.328125 -13.484375 
Q 5.328125 -10.9375 6.953125 -9.046875 
Q 8.59375 -7.171875 11.078125 -7.171875 
Q 12.75 -7.171875 13.859375 -8.171875 
Q 14.984375 -9.1875 14.984375 -10.796875 
Q 14.984375 -12.9375 13.390625 -14.71875 
Q 11.8125 -16.5 9.71875 -16.5 
z
" id="Cmmi10-66"/>
      </defs>
      <g transform="translate(450.578759 100.913766)scale(0.1 -0.1)">
       <use transform="translate(0 0.484375)" xlink:href="#Cmmi10-66"/>
      </g>
     </g>
    </g>
    <g id="xtick_3">
     <g id="line2d_25">
      <path clip-path="url(#p96e787eb03)" d="M 562.529887 87.704405 
L 562.529887 16.528672 
" style="fill:none;stroke:#000000;stroke-dasharray:0.5,0.825;stroke-dashoffset:0;stroke-width:0.5;"/>
     </g>
     <g id="line2d_26">
      <g>
       <use style="stroke:#000000;stroke-width:0.8;" x="562.529887" xlink:href="#m791a115b18" y="86.335641"/>
      </g>
     </g>
     <g id="text_2">
      <!-- $1$ -->
      <defs>
       <path d="M 9.28125 0 
L 9.28125 3.515625 
Q 21.78125 3.515625 21.78125 6.6875 
L 21.78125 59.1875 
Q 16.609375 56.6875 8.6875 56.6875 
L 8.6875 60.203125 
Q 20.953125 60.203125 27.203125 66.609375 
L 28.609375 66.609375 
Q 28.953125 66.609375 29.265625 66.328125 
Q 29.59375 66.0625 29.59375 65.71875 
L 29.59375 6.6875 
Q 29.59375 3.515625 42.09375 3.515625 
L 42.09375 0 
z
" id="Cmr10-31"/>
      </defs>
      <g transform="translate(560.029887 100.934078)scale(0.1 -0.1)">
       <use transform="translate(0 0.390625)" xlink:href="#Cmr10-31"/>
      </g>
     </g>
    </g>
   </g>
   <g id="matplotlib.axis_2">
    <g id="ytick_1">
     <g id="line2d_27">
      <path clip-path="url(#p96e787eb03)" d="M 4.074135 86.335641 
L 573.48 86.335641 
" style="fill:none;stroke:#000000;stroke-dasharray:0.5,0.825;stroke-dashoffset:0;stroke-width:0.5;"/>
     </g>
     <g id="line2d_28">
      <defs>
       <path d="M 0 0 
L -3.5 0 
" id="m24e316a6cf" style="stroke:#000000;stroke-width:0.8;"/>
      </defs>
      <g>
       <use style="stroke:#000000;stroke-width:0.8;" x="15.024247" xlink:href="#m24e316a6cf" y="86.335641"/>
      </g>
     </g>
    </g>
    <g id="ytick_2">
     <g id="line2d_29">
      <path clip-path="url(#p96e787eb03)" d="M 4.074135 17.897436 
L 573.48 17.897436 
" style="fill:none;stroke:#000000;stroke-dasharray:0.5,0.825;stroke-dashoffset:0;stroke-width:0.5;"/>
     </g>
     <g id="line2d_30">
      <g>
       <use style="stroke:#000000;stroke-width:0.8;" x="15.024247" xlink:href="#m24e316a6cf" y="17.897436"/>
      </g>
     </g>
     <g id="text_3">
      <!-- $1$ -->
      <g transform="translate(3.024247 21.696655)scale(0.1 -0.1)">
       <use transform="translate(0 0.390625)" xlink:href="#Cmr10-31"/>
      </g>
     </g>
    </g>
   </g>
   <g id="patch_3">
    <path d="M 15.024247 87.704405 
L 15.024247 16.528672 
" style="fill:none;stroke:#000000;stroke-linecap:square;stroke-linejoin:miter;stroke-width:0.8;"/>
   </g>
   <g id="patch_4">
    <path d="M 4.074135 86.335641 
L 573.48 86.335641 
" style="fill:none;stroke:#000000;stroke-linecap:square;stroke-linejoin:miter;stroke-width:0.8;"/>
   </g>
  </g>
 </g>
 <defs>
  <clipPath id="p96e787eb03">
   <rect height="71.175733" width="569.405865" x="4.074135" y="16.528672"/>
  </clipPath>
 </defs>
</svg>
