<?xml version="1.0" encoding="utf-8" standalone="no"?>
<!DOCTYPE svg PUBLIC "-//W3C//DTD SVG 1.1//EN"
  "http://www.w3.org/Graphics/SVG/1.1/DTD/svg11.dtd">
<!-- Created with matplotlib (http://matplotlib.org/) -->
<svg height="108pt" version="1.1" viewBox="0 0 576 108" width="576pt" xmlns="http://www.w3.org/2000/svg" xmlns:xlink="http://www.w3.org/1999/xlink">
 <defs>
  <style type="text/css">
*{stroke-linecap:butt;stroke-linejoin:round;}
  </style>
 </defs>
 <g id="figure_1">
  <g id="patch_1">
   <path d="M 0 108 
L 576 108 
L 576 0 
L 0 0 
z
" style="fill:#ffffff;"/>
  </g>
  <g id="axes_1">
   <g id="patch_2">
    <path d="M 4.074135 87.704405 
L 573.48 87.704405 
L 573.48 16.528672 
L 4.074135 16.528672 
z
" style="fill:#ffffff;"/>
   </g>
   <g id="line2d_1">
    <path clip-path="url(#p2a9e3aac15)" d="M 15.024247 86.335641 
L 16.324486 85.827735 
L 16.406493 85.795701 
L 17.293937 85.449043 
L 18.357991 85.033397 
L 19.143026 84.726743 
L 20.648419 84.138699 
L 21.026768 83.990906 
L 22.487373 83.420358 
L 22.914713 83.253428 
L 24.041317 82.813348 
L 25.116915 82.393193 
L 25.719653 82.157748 
L 26.755787 81.753008 
L 27.739187 81.368868 
L 28.368046 81.12322 
L 28.749799 80.974097 
L 29.570248 80.653609 
L 30.91651 80.127726 
L 32.117159 79.658723 
L 32.213958 79.62091 
L 33.916438 78.955879 
L 34.77603 78.620101 
L 35.702325 78.258267 
L 35.864308 78.194992 
L 37.177496 77.682028 
L 37.847789 77.420195 
L 39.190071 76.895866 
L 39.532501 76.762104 
L 40.648887 76.326016 
L 41.187239 76.115722 
L 42.11543 75.753148 
L 43.072744 75.379197 
L 43.929735 75.044435 
L 44.659836 74.759239 
L 45.45124 74.450097 
L 46.925115 73.874364 
L 47.773959 73.542785 
L 48.871526 73.114048 
L 49.684904 72.796322 
L 50.33184 72.543612 
L 50.965158 72.296223 
L 52.089469 71.857039 
L 52.918166 71.533329 
L 53.839465 71.173446 
L 54.571356 70.887551 
L 55.409137 70.560293 
L 56.560816 70.110419 
L 57.171703 69.871791 
L 58.583735 69.320216 
L 58.97751 69.166398 
L 59.55706 68.940011 
L 60.556637 68.549551 
L 61.588922 68.146315 
L 62.702525 67.711314 
L 63.848006 67.26386 
L 64.287486 67.092188 
L 65.121298 66.766481 
L 66.392975 66.269732 
L 66.83957 66.095281 
L 67.858971 65.697077 
L 68.520664 65.438603 
L 69.790713 64.94249 
L 70.492583 64.668322 
L 71.584334 64.241857 
L 71.820909 64.149445 
L 73.488169 63.498172 
L 74.258873 63.197116 
L 74.928345 62.935603 
L 75.510584 62.708166 
L 76.542869 62.30493 
L 77.808945 61.810369 
L 77.978526 61.744126 
L 79.614448 61.105094 
L 80.55167 60.738992 
L 80.752773 60.660436 
L 82.179426 60.103149 
L 83.142087 59.72711 
L 83.829602 59.458549 
L 84.231984 59.301369 
L 85.723441 58.718768 
L 86.354464 58.472275 
L 87.615256 57.979778 
L 87.847097 57.889215 
L 89.319716 57.313974 
L 89.62747 57.193757 
L 90.489706 56.856946 
L 91.227742 56.568651 
L 92.657219 56.010261 
L 93.110496 55.8332 
L 94.130806 55.434642 
L 95.507124 54.897017 
L 95.844182 54.765354 
L 97.182533 54.242561 
L 98.040253 53.907514 
L 98.402215 53.766123 
L 99.257239 53.432129 
L 100.594671 52.909694 
L 101.2127 52.668277 
L 102.139253 52.306342 
L 102.682237 52.094239 
" style="fill:none;stroke:#ff0000;stroke-linecap:square;stroke-width:2;"/>
   </g>
   <g id="line2d_2">
    <path clip-path="url(#p2a9e3aac15)" d="M 105.977316 50.807098 
L 107.01919 50.400116 
L 107.259995 50.306052 
L 108.355072 49.878288 
L 109.282316 49.516083 
L 109.97349 49.246093 
L 110.957139 48.861855 
L 111.85076 48.512784 
L 112.38735 48.303179 
L 113.988619 47.677683 
L 114.780324 47.368424 
L 115.289891 47.169374 
L 115.992652 46.894858 
L 117.15936 46.439113 
L 117.815071 46.182975 
L 118.636371 45.862155 
L 119.406408 45.561359 
L 120.619849 45.087359 
L 121.967003 44.561127 
L 122.793814 44.238154 
L 123.630244 43.911424 
L 124.320159 43.641926 
L 125.399059 43.22048 
L 125.532202 43.168471 
L 126.55359 42.769491 
L 127.686165 42.32708 
L 129.003945 41.812322 
L 129.275491 41.706249 
L 130.061611 41.399171 
L 131.508871 40.833835 
L 132.514579 40.44098 
L 133.388093 40.099764 
L 133.578915 40.025224 
L 134.653243 39.605565 
L 135.994749 39.081539 
L 136.678012 38.814639 
L 137.671871 38.426413 
L 138.133139 38.24623 
L 139.142533 37.851936 
L 140.447358 37.342239 
L 141.117298 37.080543 
L 142.046821 36.717448 
L 142.606459 36.498839 
L 143.381998 36.195895 
L 144.100029 35.915414 
L 145.005396 35.561755 
L 145.767787 35.263946 
L 147.013223 34.777447 
L 147.634111 34.534913 
L 149.025993 33.991209 
L 149.847178 33.670434 
L 150.840285 33.282501 
L 151.484169 33.030984 
L 152.751396 32.535974 
L 153.480643 32.251112 
L 154.425645 31.88197 
L 154.76184 31.750644 
L 156.067426 31.240649 
L 156.90334 30.914121 
L 157.953327 30.503969 
L 158.191712 30.41085 
L 158.986887 30.100235 
L 160.341209 29.571203 
L 160.881947 29.359977 
L 162.330148 28.794274 
L 163.126394 28.48324 
L 163.475418 28.346903 
L 165.047979 27.732621 
L 165.90571 27.39757 
L 166.744962 27.069737 
L 167.415919 26.807644 
L 168.055732 26.557717 
L 168.723943 26.296697 
L 169.886161 25.842706 
L 170.796219 25.487214 
L 171.750311 25.114523 
L 172.354784 24.8784 
L 173.566496 24.405075 
L 174.762257 23.937981 
L 175.123237 23.796973 
L 175.799934 23.532638 
L 177.053979 23.042777 
L 177.584074 22.835709 
L 178.397578 22.517934 
L 179.299143 22.16576 
L 180.481501 21.703901 
L 181.508546 21.302712 
L 182.218876 21.025239 
L 183.381297 20.571168 
L 184.200614 20.251123 
L 184.870925 19.989283 
L 185.58314 19.711073 
L 186.681096 19.282185 
L 187.721635 18.875724 
L 188.719154 18.486068 
L 188.98972 18.380378 
L 190.226052 17.897436 
" style="fill:none;stroke:#ff0000;stroke-linecap:square;stroke-width:2;"/>
   </g>
   <g id="line2d_3">
    <path clip-path="url(#p2a9e3aac15)" d="M 277.826955 78.731396 
L 365.427857 44.512293 
L 365.427857 44.512293 
" style="fill:none;stroke:#ff0000;stroke-linecap:square;stroke-width:2;"/>
   </g>
   <g id="line2d_4">
    <path clip-path="url(#p2a9e3aac15)" d="M 387.328082 59.720783 
L 474.928985 25.501681 
L 474.928985 25.501681 
" style="fill:none;stroke:#ff0000;stroke-linecap:square;stroke-width:2;"/>
   </g>
   <g id="line2d_5">
    <path clip-path="url(#p2a9e3aac15)" d="M 190.226052 17.897436 
L 277.826955 78.731396 
L 277.826955 78.731396 
" style="fill:none;stroke:#00ffff;stroke-linecap:square;stroke-width:2;"/>
   </g>
   <g id="line2d_6">
    <path clip-path="url(#p2a9e3aac15)" d="M 365.427857 44.512293 
L 387.328082 59.720783 
L 387.328082 59.720783 
" style="fill:none;stroke:#00ffff;stroke-linecap:square;stroke-width:2;"/>
   </g>
   <g id="line2d_7">
    <path clip-path="url(#p2a9e3aac15)" d="M 474.928985 25.501681 
L 562.529887 86.335641 
L 562.529887 86.335641 
" style="fill:none;stroke:#00ffff;stroke-linecap:square;stroke-width:2;"/>
   </g>
   <g id="matplotlib.axis_1">
    <g id="xtick_1">
     <g id="line2d_8">
      <path clip-path="url(#p2a9e3aac15)" d="M 15.024247 87.704405 
L 15.024247 16.528672 
" style="fill:none;stroke:#000000;stroke-dasharray:0.5,0.825;stroke-dashoffset:0;stroke-width:0.5;"/>
     </g>
     <g id="line2d_9">
      <defs>
       <path d="M 0 0 
L 0 3.5 
" id="m8e87eab69c" style="stroke:#000000;stroke-width:0.8;"/>
      </defs>
      <g>
       <use style="stroke:#000000;stroke-width:0.8;" x="15.024247" xlink:href="#m8e87eab69c" y="86.335641"/>
      </g>
     </g>
    </g>
    <g id="xtick_2">
     <g id="line2d_10">
      <path clip-path="url(#p2a9e3aac15)" d="M 190.226052 87.704405 
L 190.226052 16.528672 
" style="fill:none;stroke:#000000;stroke-dasharray:0.5,0.825;stroke-dashoffset:0;stroke-width:0.5;"/>
     </g>
     <g id="line2d_11">
      <g>
       <use style="stroke:#000000;stroke-width:0.8;" x="190.226052" xlink:href="#m8e87eab69c" y="86.335641"/>
      </g>
     </g>
     <g id="text_1">
      <!-- $f$ -->
      <defs>
       <path d="M 9.71875 -16.5 
Q 11.578125 -17.921875 14.203125 -17.921875 
Q 17.78125 -17.921875 20.015625 -10.015625 
Q 20.953125 -6.203125 25.09375 15.09375 
L 29.6875 39.59375 
L 21.09375 39.59375 
Q 20.125 39.59375 20.125 40.921875 
Q 20.515625 43.109375 21.390625 43.109375 
L 30.328125 43.109375 
L 31.5 49.609375 
Q 32.078125 52.640625 32.5625 54.8125 
Q 33.0625 56.984375 33.625 58.828125 
Q 34.1875 60.6875 35.296875 62.984375 
Q 37.015625 66.265625 39.921875 68.390625 
Q 42.828125 70.515625 46.1875 70.515625 
Q 48.390625 70.515625 50.46875 69.703125 
Q 52.546875 68.890625 53.859375 67.28125 
Q 55.171875 65.671875 55.171875 63.484375 
Q 55.171875 60.9375 53.484375 59.046875 
Q 51.8125 57.171875 49.421875 57.171875 
Q 47.796875 57.171875 46.65625 58.171875 
Q 45.515625 59.1875 45.515625 60.796875 
Q 45.515625 62.984375 47 64.625 
Q 48.484375 66.265625 50.6875 66.5 
Q 48.828125 67.921875 46.09375 67.921875 
Q 44.578125 67.921875 43.234375 66.5 
Q 41.890625 65.09375 41.5 63.484375 
Q 40.875 60.9375 38.71875 49.703125 
L 37.5 43.109375 
L 47.796875 43.109375 
Q 48.78125 43.109375 48.78125 41.796875 
Q 48.734375 41.546875 48.578125 40.9375 
Q 48.4375 40.328125 48.171875 39.953125 
Q 47.90625 39.59375 47.515625 39.59375 
L 36.8125 39.59375 
L 32.171875 15.1875 
Q 31.296875 9.859375 30.140625 4.359375 
Q 29 -1.125 26.921875 -6.90625 
Q 24.859375 -12.703125 21.625 -16.609375 
Q 18.40625 -20.515625 14.015625 -20.515625 
Q 10.640625 -20.515625 7.984375 -18.578125 
Q 5.328125 -16.65625 5.328125 -13.484375 
Q 5.328125 -10.9375 6.953125 -9.046875 
Q 8.59375 -7.171875 11.078125 -7.171875 
Q 12.75 -7.171875 13.859375 -8.171875 
Q 14.984375 -9.1875 14.984375 -10.796875 
Q 14.984375 -12.9375 13.390625 -14.71875 
Q 11.8125 -16.5 9.71875 -16.5 
z
" id="Cmmi10-66"/>
      </defs>
      <g transform="translate(187.776052 100.913766)scale(0.1 -0.1)">
       <use transform="translate(0 0.484375)" xlink:href="#Cmmi10-66"/>
      </g>
     </g>
    </g>
    <g id="xtick_3">
     <g id="line2d_12">
      <path clip-path="url(#p2a9e3aac15)" d="M 562.529887 87.704405 
L 562.529887 16.528672 
" style="fill:none;stroke:#000000;stroke-dasharray:0.5,0.825;stroke-dashoffset:0;stroke-width:0.5;"/>
     </g>
     <g id="line2d_13">
      <g>
       <use style="stroke:#000000;stroke-width:0.8;" x="562.529887" xlink:href="#m8e87eab69c" y="86.335641"/>
      </g>
     </g>
     <g id="text_2">
      <!-- $1$ -->
      <defs>
       <path d="M 9.28125 0 
L 9.28125 3.515625 
Q 21.78125 3.515625 21.78125 6.6875 
L 21.78125 59.1875 
Q 16.609375 56.6875 8.6875 56.6875 
L 8.6875 60.203125 
Q 20.953125 60.203125 27.203125 66.609375 
L 28.609375 66.609375 
Q 28.953125 66.609375 29.265625 66.328125 
Q 29.59375 66.0625 29.59375 65.71875 
L 29.59375 6.6875 
Q 29.59375 3.515625 42.09375 3.515625 
L 42.09375 0 
z
" id="Cmr10-31"/>
      </defs>
      <g transform="translate(560.029887 100.934078)scale(0.1 -0.1)">
       <use transform="translate(0 0.390625)" xlink:href="#Cmr10-31"/>
      </g>
     </g>
    </g>
   </g>
   <g id="matplotlib.axis_2">
    <g id="ytick_1">
     <g id="line2d_14">
      <path clip-path="url(#p2a9e3aac15)" d="M 4.074135 86.335641 
L 573.48 86.335641 
" style="fill:none;stroke:#000000;stroke-dasharray:0.5,0.825;stroke-dashoffset:0;stroke-width:0.5;"/>
     </g>
     <g id="line2d_15">
      <defs>
       <path d="M 0 0 
L -3.5 0 
" id="mdd7c82a832" style="stroke:#000000;stroke-width:0.8;"/>
      </defs>
      <g>
       <use style="stroke:#000000;stroke-width:0.8;" x="15.024247" xlink:href="#mdd7c82a832" y="86.335641"/>
      </g>
     </g>
    </g>
    <g id="ytick_2">
     <g id="line2d_16">
      <path clip-path="url(#p2a9e3aac15)" d="M 4.074135 17.897436 
L 573.48 17.897436 
" style="fill:none;stroke:#000000;stroke-dasharray:0.5,0.825;stroke-dashoffset:0;stroke-width:0.5;"/>
     </g>
     <g id="line2d_17">
      <g>
       <use style="stroke:#000000;stroke-width:0.8;" x="15.024247" xlink:href="#mdd7c82a832" y="17.897436"/>
      </g>
     </g>
     <g id="text_3">
      <!-- $1$ -->
      <g transform="translate(3.024247 21.696655)scale(0.1 -0.1)">
       <use transform="translate(0 0.390625)" xlink:href="#Cmr10-31"/>
      </g>
     </g>
    </g>
   </g>
   <g id="patch_3">
    <path d="M 15.024247 87.704405 
L 15.024247 16.528672 
" style="fill:none;stroke:#000000;stroke-linecap:square;stroke-linejoin:miter;stroke-width:0.8;"/>
   </g>
   <g id="patch_4">
    <path d="M 4.074135 86.335641 
L 573.48 86.335641 
" style="fill:none;stroke:#000000;stroke-linecap:square;stroke-linejoin:miter;stroke-width:0.8;"/>
   </g>
  </g>
 </g>
 <defs>
  <clipPath id="p2a9e3aac15">
   <rect height="71.175733" width="569.405865" x="4.074135" y="16.528672"/>
  </clipPath>
 </defs>
</svg>
