<?xml version="1.0" encoding="utf-8" standalone="no"?>
<!DOCTYPE svg PUBLIC "-//W3C//DTD SVG 1.1//EN"
  "http://www.w3.org/Graphics/SVG/1.1/DTD/svg11.dtd">
<!-- Created with matplotlib (http://matplotlib.org/) -->
<svg height="108pt" version="1.1" viewBox="0 0 576 108" width="576pt" xmlns="http://www.w3.org/2000/svg" xmlns:xlink="http://www.w3.org/1999/xlink">
 <defs>
  <style type="text/css">
*{stroke-linecap:butt;stroke-linejoin:round;}
  </style>
 </defs>
 <g id="figure_1">
  <g id="patch_1">
   <path d="M 0 108 
L 576 108 
L 576 0 
L 0 0 
z
" style="fill:#ffffff;"/>
  </g>
  <g id="axes_1">
   <g id="patch_2">
    <path d="M 4.074135 87.704405 
L 573.48 87.704405 
L 573.48 16.528672 
L 4.074135 16.528672 
z
" style="fill:#ffffff;"/>
   </g>
   <g id="line2d_1">
    <path clip-path="url(#p99806721e4)" d="M 288.777067 17.897436 
L 292.075294 22.459983 
L 292.075294 22.459983 
" style="fill:none;stroke:#ff0000;stroke-linecap:square;stroke-width:2;"/>
   </g>
   <g id="line2d_2">
    <path clip-path="url(#p99806721e4)" d="M 424.004364 49.835265 
L 427.302591 54.397812 
L 427.302591 54.397812 
" style="fill:none;stroke:#ff0000;stroke-linecap:square;stroke-width:2;"/>
   </g>
   <g id="line2d_3">
    <path clip-path="url(#p99806721e4)" d="M 559.23166 81.773094 
L 562.529887 86.335641 
L 562.529887 86.335641 
" style="fill:none;stroke:#ff0000;stroke-linecap:square;stroke-width:2;"/>
   </g>
   <g id="line2d_4">
    <path clip-path="url(#p99806721e4)" d="M 84.287009 36.849554 
L 87.585236 41.061136 
L 87.585236 41.061136 
" style="fill:none;stroke:#ff9900;stroke-linecap:square;stroke-width:2;"/>
   </g>
   <g id="line2d_5">
    <path clip-path="url(#p99806721e4)" d="M 90.883463 44.570788 
L 94.181689 48.78237 
L 94.181689 48.78237 
" style="fill:none;stroke:#ff9900;stroke-linecap:square;stroke-width:2;"/>
   </g>
   <g id="line2d_6">
    <path clip-path="url(#p99806721e4)" d="M 97.479916 52.292021 
L 110.672823 69.138348 
L 110.672823 69.138348 
" style="fill:none;stroke:#ff9900;stroke-linecap:square;stroke-width:2;"/>
   </g>
   <g id="line2d_7">
    <path clip-path="url(#p99806721e4)" d="M 113.97105 72.648 
L 117.269277 76.859582 
L 117.269277 76.859582 
" style="fill:none;stroke:#ff9900;stroke-linecap:square;stroke-width:2;"/>
   </g>
   <g id="line2d_8">
    <path clip-path="url(#p99806721e4)" d="M 186.532038 27.373495 
L 189.830265 31.585077 
L 189.830265 31.585077 
" style="fill:none;stroke:#ff9900;stroke-linecap:square;stroke-width:2;"/>
   </g>
   <g id="line2d_9">
    <path clip-path="url(#p99806721e4)" d="M 193.128492 35.094729 
L 206.321399 51.941056 
L 206.321399 51.941056 
" style="fill:none;stroke:#ff9900;stroke-linecap:square;stroke-width:2;"/>
   </g>
   <g id="line2d_10">
    <path clip-path="url(#p99806721e4)" d="M 209.619625 55.450707 
L 212.917852 59.662289 
L 212.917852 59.662289 
" style="fill:none;stroke:#ff9900;stroke-linecap:square;stroke-width:2;"/>
   </g>
   <g id="line2d_11">
    <path clip-path="url(#p99806721e4)" d="M 216.216079 63.171941 
L 219.514306 67.383523 
L 219.514306 67.383523 
" style="fill:none;stroke:#ff9900;stroke-linecap:square;stroke-width:2;"/>
   </g>
   <g id="line2d_12">
    <path clip-path="url(#p99806721e4)" d="M 292.075294 22.459983 
L 298.671748 30.883147 
L 298.671748 30.883147 
" style="fill:none;stroke:#ff9900;stroke-linecap:square;stroke-width:2;"/>
   </g>
   <g id="line2d_13">
    <path clip-path="url(#p99806721e4)" d="M 301.969974 34.743763 
L 305.268201 38.955345 
L 305.268201 38.955345 
" style="fill:none;stroke:#ff9900;stroke-linecap:square;stroke-width:2;"/>
   </g>
   <g id="line2d_14">
    <path clip-path="url(#p99806721e4)" d="M 308.566428 42.815962 
L 311.864655 47.027544 
L 311.864655 47.027544 
" style="fill:none;stroke:#ff9900;stroke-linecap:square;stroke-width:2;"/>
   </g>
   <g id="line2d_15">
    <path clip-path="url(#p99806721e4)" d="M 414.109684 37.551485 
L 417.40791 41.763066 
L 417.40791 41.763066 
" style="fill:none;stroke:#ff9900;stroke-linecap:square;stroke-width:2;"/>
   </g>
   <g id="line2d_16">
    <path clip-path="url(#p99806721e4)" d="M 420.706137 45.623683 
L 424.004364 49.835265 
L 424.004364 49.835265 
" style="fill:none;stroke:#ff9900;stroke-linecap:square;stroke-width:2;"/>
   </g>
   <g id="line2d_17">
    <path clip-path="url(#p99806721e4)" d="M 427.302591 54.397812 
L 430.600817 58.609394 
L 430.600817 58.609394 
" style="fill:none;stroke:#ff9900;stroke-linecap:square;stroke-width:2;"/>
   </g>
   <g id="line2d_18">
    <path clip-path="url(#p99806721e4)" d="M 433.899044 62.47001 
L 437.197271 66.681592 
L 437.197271 66.681592 
" style="fill:none;stroke:#ff9900;stroke-linecap:square;stroke-width:2;"/>
   </g>
   <g id="line2d_19">
    <path clip-path="url(#p99806721e4)" d="M 539.4423 57.205533 
L 542.740527 61.417115 
L 542.740527 61.417115 
" style="fill:none;stroke:#ff9900;stroke-linecap:square;stroke-width:2;"/>
   </g>
   <g id="line2d_20">
    <path clip-path="url(#p99806721e4)" d="M 546.038753 65.277732 
L 549.33698 69.489314 
L 549.33698 69.489314 
" style="fill:none;stroke:#ff9900;stroke-linecap:square;stroke-width:2;"/>
   </g>
   <g id="line2d_21">
    <path clip-path="url(#p99806721e4)" d="M 552.635207 73.34993 
L 559.23166 81.773094 
L 559.23166 81.773094 
" style="fill:none;stroke:#ff9900;stroke-linecap:square;stroke-width:2;"/>
   </g>
   <g id="line2d_22">
    <path clip-path="url(#p99806721e4)" d="M 15.024247 86.335641 
L 18.322474 81.773094 
L 18.322474 81.773094 
" style="fill:none;stroke:#cbff00;stroke-linecap:square;stroke-width:2;"/>
   </g>
   <g id="line2d_23">
    <path clip-path="url(#p99806721e4)" d="M 150.251544 54.397812 
L 153.549771 49.835265 
L 153.549771 49.835265 
" style="fill:none;stroke:#cbff00;stroke-linecap:square;stroke-width:2;"/>
   </g>
   <g id="line2d_24">
    <path clip-path="url(#p99806721e4)" d="M 285.478841 22.459983 
L 288.777067 17.897436 
L 288.777067 17.897436 
" style="fill:none;stroke:#cbff00;stroke-linecap:square;stroke-width:2;"/>
   </g>
   <g id="line2d_25">
    <path clip-path="url(#p99806721e4)" d="M 338.250468 75.104756 
L 341.548695 71.595104 
L 341.548695 71.595104 
" style="fill:none;stroke:#33ff00;stroke-linecap:square;stroke-width:2;"/>
   </g>
   <g id="line2d_26">
    <path clip-path="url(#p99806721e4)" d="M 344.846922 74.753791 
L 348.145149 71.244139 
L 348.145149 71.244139 
" style="fill:none;stroke:#33ff00;stroke-linecap:square;stroke-width:2;"/>
   </g>
   <g id="line2d_27">
    <path clip-path="url(#p99806721e4)" d="M 351.443375 74.402826 
L 358.039829 67.383523 
L 358.039829 67.383523 
" style="fill:none;stroke:#33ff00;stroke-linecap:square;stroke-width:2;"/>
   </g>
   <g id="line2d_28">
    <path clip-path="url(#p99806721e4)" d="M 361.338056 63.171941 
L 364.636282 59.662289 
L 364.636282 59.662289 
" style="fill:none;stroke:#33ff00;stroke-linecap:square;stroke-width:2;"/>
   </g>
   <g id="line2d_29">
    <path clip-path="url(#p99806721e4)" d="M 367.934509 55.450707 
L 371.232736 51.941056 
L 371.232736 51.941056 
" style="fill:none;stroke:#33ff00;stroke-linecap:square;stroke-width:2;"/>
   </g>
   <g id="line2d_30">
    <path clip-path="url(#p99806721e4)" d="M 384.425643 35.094729 
L 387.72387 31.585077 
L 387.72387 31.585077 
" style="fill:none;stroke:#33ff00;stroke-linecap:square;stroke-width:2;"/>
   </g>
   <g id="line2d_31">
    <path clip-path="url(#p99806721e4)" d="M 391.022096 27.373495 
L 394.320323 23.863844 
L 394.320323 23.863844 
" style="fill:none;stroke:#33ff00;stroke-linecap:square;stroke-width:2;"/>
   </g>
   <g id="line2d_32">
    <path clip-path="url(#p99806721e4)" d="M 397.61855 27.02253 
L 400.916777 23.512878 
L 400.916777 23.512878 
" style="fill:none;stroke:#33ff00;stroke-linecap:square;stroke-width:2;"/>
   </g>
   <g id="line2d_33">
    <path clip-path="url(#p99806721e4)" d="M 450.390178 80.720198 
L 453.688405 77.210547 
L 453.688405 77.210547 
" style="fill:none;stroke:#33ff00;stroke-linecap:square;stroke-width:2;"/>
   </g>
   <g id="line2d_34">
    <path clip-path="url(#p99806721e4)" d="M 456.986631 80.369233 
L 460.284858 76.859582 
L 460.284858 76.859582 
" style="fill:none;stroke:#33ff00;stroke-linecap:square;stroke-width:2;"/>
   </g>
   <g id="line2d_35">
    <path clip-path="url(#p99806721e4)" d="M 463.583085 72.648 
L 466.881312 69.138348 
L 466.881312 69.138348 
" style="fill:none;stroke:#33ff00;stroke-linecap:square;stroke-width:2;"/>
   </g>
   <g id="line2d_36">
    <path clip-path="url(#p99806721e4)" d="M 480.074219 52.292021 
L 483.372445 48.78237 
L 483.372445 48.78237 
" style="fill:none;stroke:#33ff00;stroke-linecap:square;stroke-width:2;"/>
   </g>
   <g id="line2d_37">
    <path clip-path="url(#p99806721e4)" d="M 486.670672 44.570788 
L 489.968899 41.061136 
L 489.968899 41.061136 
" style="fill:none;stroke:#33ff00;stroke-linecap:square;stroke-width:2;"/>
   </g>
   <g id="line2d_38">
    <path clip-path="url(#p99806721e4)" d="M 493.267126 36.849554 
L 499.863579 29.830251 
L 499.863579 29.830251 
" style="fill:none;stroke:#33ff00;stroke-linecap:square;stroke-width:2;"/>
   </g>
   <g id="line2d_39">
    <path clip-path="url(#p99806721e4)" d="M 503.161806 32.988938 
L 506.460033 29.479286 
L 506.460033 29.479286 
" style="fill:none;stroke:#33ff00;stroke-linecap:square;stroke-width:2;"/>
   </g>
   <g id="line2d_40">
    <path clip-path="url(#p99806721e4)" d="M 509.758259 32.637972 
L 513.056486 29.128321 
L 513.056486 29.128321 
" style="fill:none;stroke:#33ff00;stroke-linecap:square;stroke-width:2;"/>
   </g>
   <g id="line2d_41">
    <path clip-path="url(#p99806721e4)" d="M 24.918928 73.34993 
L 28.217154 69.489314 
L 28.217154 69.489314 
" style="fill:none;stroke:#00ff66;stroke-linecap:square;stroke-width:2;"/>
   </g>
   <g id="line2d_42">
    <path clip-path="url(#p99806721e4)" d="M 31.515381 65.277732 
L 34.813608 61.417115 
L 34.813608 61.417115 
" style="fill:none;stroke:#00ff66;stroke-linecap:square;stroke-width:2;"/>
   </g>
   <g id="line2d_43">
    <path clip-path="url(#p99806721e4)" d="M 38.111835 57.205533 
L 44.708288 49.4843 
L 44.708288 49.4843 
" style="fill:none;stroke:#00ff66;stroke-linecap:square;stroke-width:2;"/>
   </g>
   <g id="line2d_44">
    <path clip-path="url(#p99806721e4)" d="M 48.006515 46.325613 
L 51.304742 42.464997 
L 51.304742 42.464997 
" style="fill:none;stroke:#00ff66;stroke-linecap:square;stroke-width:2;"/>
   </g>
   <g id="line2d_45">
    <path clip-path="url(#p99806721e4)" d="M 54.602968 39.30631 
L 57.901195 35.445694 
L 57.901195 35.445694 
" style="fill:none;stroke:#00ff66;stroke-linecap:square;stroke-width:2;"/>
   </g>
   <g id="line2d_46">
    <path clip-path="url(#p99806721e4)" d="M 130.462184 77.561512 
L 133.76041 73.700895 
L 133.76041 73.700895 
" style="fill:none;stroke:#00ff66;stroke-linecap:square;stroke-width:2;"/>
   </g>
   <g id="line2d_47">
    <path clip-path="url(#p99806721e4)" d="M 137.058637 70.542209 
L 140.356864 66.681592 
L 140.356864 66.681592 
" style="fill:none;stroke:#00ff66;stroke-linecap:square;stroke-width:2;"/>
   </g>
   <g id="line2d_48">
    <path clip-path="url(#p99806721e4)" d="M 143.65509 62.47001 
L 146.953317 58.609394 
L 146.953317 58.609394 
" style="fill:none;stroke:#00ff66;stroke-linecap:square;stroke-width:2;"/>
   </g>
   <g id="line2d_49">
    <path clip-path="url(#p99806721e4)" d="M 156.847997 45.623683 
L 160.146224 41.763066 
L 160.146224 41.763066 
" style="fill:none;stroke:#00ff66;stroke-linecap:square;stroke-width:2;"/>
   </g>
   <g id="line2d_50">
    <path clip-path="url(#p99806721e4)" d="M 163.444451 37.551485 
L 166.742678 33.690868 
L 166.742678 33.690868 
" style="fill:none;stroke:#00ff66;stroke-linecap:square;stroke-width:2;"/>
   </g>
   <g id="line2d_51">
    <path clip-path="url(#p99806721e4)" d="M 170.040904 30.532182 
L 173.339131 26.671565 
L 173.339131 26.671565 
" style="fill:none;stroke:#00ff66;stroke-linecap:square;stroke-width:2;"/>
   </g>
   <g id="line2d_52">
    <path clip-path="url(#p99806721e4)" d="M 245.90012 68.787383 
L 249.198346 64.926767 
L 249.198346 64.926767 
" style="fill:none;stroke:#00ff66;stroke-linecap:square;stroke-width:2;"/>
   </g>
   <g id="line2d_53">
    <path clip-path="url(#p99806721e4)" d="M 252.496573 61.76808 
L 255.7948 57.907463 
L 255.7948 57.907463 
" style="fill:none;stroke:#00ff66;stroke-linecap:square;stroke-width:2;"/>
   </g>
   <g id="line2d_54">
    <path clip-path="url(#p99806721e4)" d="M 259.093027 54.748777 
L 265.68948 47.027544 
L 265.68948 47.027544 
" style="fill:none;stroke:#00ff66;stroke-linecap:square;stroke-width:2;"/>
   </g>
   <g id="line2d_55">
    <path clip-path="url(#p99806721e4)" d="M 268.987707 42.815962 
L 272.285934 38.955345 
L 272.285934 38.955345 
" style="fill:none;stroke:#00ff66;stroke-linecap:square;stroke-width:2;"/>
   </g>
   <g id="line2d_56">
    <path clip-path="url(#p99806721e4)" d="M 275.58416 34.743763 
L 278.882387 30.883147 
L 278.882387 30.883147 
" style="fill:none;stroke:#00ff66;stroke-linecap:square;stroke-width:2;"/>
   </g>
   <g id="line2d_57">
    <path clip-path="url(#p99806721e4)" d="M 64.497649 29.128321 
L 67.795875 32.637972 
L 67.795875 32.637972 
" style="fill:none;stroke:#00ffff;stroke-linecap:square;stroke-width:2;"/>
   </g>
   <g id="line2d_58">
    <path clip-path="url(#p99806721e4)" d="M 71.094102 29.479286 
L 74.392329 32.988938 
L 74.392329 32.988938 
" style="fill:none;stroke:#00ffff;stroke-linecap:square;stroke-width:2;"/>
   </g>
   <g id="line2d_59">
    <path clip-path="url(#p99806721e4)" d="M 77.690556 29.830251 
L 84.287009 36.849554 
L 84.287009 36.849554 
" style="fill:none;stroke:#00ffff;stroke-linecap:square;stroke-width:2;"/>
   </g>
   <g id="line2d_60">
    <path clip-path="url(#p99806721e4)" d="M 87.585236 41.061136 
L 90.883463 44.570788 
L 90.883463 44.570788 
" style="fill:none;stroke:#00ffff;stroke-linecap:square;stroke-width:2;"/>
   </g>
   <g id="line2d_61">
    <path clip-path="url(#p99806721e4)" d="M 94.181689 48.78237 
L 97.479916 52.292021 
L 97.479916 52.292021 
" style="fill:none;stroke:#00ffff;stroke-linecap:square;stroke-width:2;"/>
   </g>
   <g id="line2d_62">
    <path clip-path="url(#p99806721e4)" d="M 110.672823 69.138348 
L 113.97105 72.648 
L 113.97105 72.648 
" style="fill:none;stroke:#00ffff;stroke-linecap:square;stroke-width:2;"/>
   </g>
   <g id="line2d_63">
    <path clip-path="url(#p99806721e4)" d="M 117.269277 76.859582 
L 120.567503 80.369233 
L 120.567503 80.369233 
" style="fill:none;stroke:#00ffff;stroke-linecap:square;stroke-width:2;"/>
   </g>
   <g id="line2d_64">
    <path clip-path="url(#p99806721e4)" d="M 123.86573 77.210547 
L 127.163957 80.720198 
L 127.163957 80.720198 
" style="fill:none;stroke:#00ffff;stroke-linecap:square;stroke-width:2;"/>
   </g>
   <g id="line2d_65">
    <path clip-path="url(#p99806721e4)" d="M 176.637358 23.512878 
L 179.935585 27.02253 
L 179.935585 27.02253 
" style="fill:none;stroke:#00ffff;stroke-linecap:square;stroke-width:2;"/>
   </g>
   <g id="line2d_66">
    <path clip-path="url(#p99806721e4)" d="M 183.233811 23.863844 
L 186.532038 27.373495 
L 186.532038 27.373495 
" style="fill:none;stroke:#00ffff;stroke-linecap:square;stroke-width:2;"/>
   </g>
   <g id="line2d_67">
    <path clip-path="url(#p99806721e4)" d="M 189.830265 31.585077 
L 193.128492 35.094729 
L 193.128492 35.094729 
" style="fill:none;stroke:#00ffff;stroke-linecap:square;stroke-width:2;"/>
   </g>
   <g id="line2d_68">
    <path clip-path="url(#p99806721e4)" d="M 206.321399 51.941056 
L 209.619625 55.450707 
L 209.619625 55.450707 
" style="fill:none;stroke:#00ffff;stroke-linecap:square;stroke-width:2;"/>
   </g>
   <g id="line2d_69">
    <path clip-path="url(#p99806721e4)" d="M 212.917852 59.662289 
L 216.216079 63.171941 
L 216.216079 63.171941 
" style="fill:none;stroke:#00ffff;stroke-linecap:square;stroke-width:2;"/>
   </g>
   <g id="line2d_70">
    <path clip-path="url(#p99806721e4)" d="M 219.514306 67.383523 
L 226.110759 74.402826 
L 226.110759 74.402826 
" style="fill:none;stroke:#00ffff;stroke-linecap:square;stroke-width:2;"/>
   </g>
   <g id="line2d_71">
    <path clip-path="url(#p99806721e4)" d="M 229.408986 71.244139 
L 232.707213 74.753791 
L 232.707213 74.753791 
" style="fill:none;stroke:#00ffff;stroke-linecap:square;stroke-width:2;"/>
   </g>
   <g id="line2d_72">
    <path clip-path="url(#p99806721e4)" d="M 236.005439 71.595104 
L 239.303666 75.104756 
L 239.303666 75.104756 
" style="fill:none;stroke:#00ffff;stroke-linecap:square;stroke-width:2;"/>
   </g>
   <g id="line2d_73">
    <path clip-path="url(#p99806721e4)" d="M 318.461108 54.748777 
L 321.759335 57.907463 
L 321.759335 57.907463 
" style="fill:none;stroke:#0066ff;stroke-linecap:square;stroke-width:2;"/>
   </g>
   <g id="line2d_74">
    <path clip-path="url(#p99806721e4)" d="M 325.057562 61.76808 
L 328.355788 64.926767 
L 328.355788 64.926767 
" style="fill:none;stroke:#0066ff;stroke-linecap:square;stroke-width:2;"/>
   </g>
   <g id="line2d_75">
    <path clip-path="url(#p99806721e4)" d="M 331.654015 68.787383 
L 338.250468 75.104756 
L 338.250468 75.104756 
" style="fill:none;stroke:#0066ff;stroke-linecap:square;stroke-width:2;"/>
   </g>
   <g id="line2d_76">
    <path clip-path="url(#p99806721e4)" d="M 341.548695 71.595104 
L 341.563836 71.609605 
L 341.577734 71.622914 
L 341.59775 71.642084 
L 341.620985 71.664336 
L 341.633355 71.676182 
L 341.646497 71.688769 
L 341.66808 71.709439 
L 341.675126 71.716186 
L 341.689675 71.73012 
L 341.71728 71.756557 
L 341.724215 71.763198 
L 341.74236 71.780575 
L 341.755905 71.793548 
L 341.774528 71.811382 
L 341.793359 71.829417 
L 341.813821 71.849014 
L 341.827065 71.861697 
L 341.848982 71.882686 
L 341.865761 71.898756 
L 341.882455 71.914744 
L 341.894898 71.92666 
L 341.907937 71.939147 
L 341.927036 71.957438 
L 341.938917 71.968817 
L 341.958023 71.987114 
L 341.982443 72.010501 
L 341.99047 72.018189 
L 342.015697 72.042349 
L 342.035484 72.061298 
L 342.05056 72.075736 
L 342.061928 72.086624 
L 342.075001 72.099144 
L 342.09428 72.117607 
L 342.107875 72.130626 
L 342.124281 72.146339 
L 342.147667 72.168735 
L 342.164084 72.184458 
L 342.176524 72.196372 
L 342.201607 72.220393 
L 342.215095 72.233311 
L 342.223753 72.241602 
L 342.24003 72.25719 
L 342.268895 72.284835 
L 342.282894 72.298241 
L 342.296695 72.311458 
L 342.303926 72.318383 
L 342.322495 72.336167 
L 342.33762 72.350652 
L 342.359944 72.372032 
L 342.37639 72.387781 
L 342.389511 72.400347 
L 342.40313 72.413391 
L 342.41904 72.428627 
L 342.43715 72.445971 
L 342.455734 72.463768 
L 342.473936 72.4812 
L 342.497255 72.503533 
L 342.505803 72.511719 
L 342.526277 72.531327 
L 342.543211 72.547544 
L 342.555962 72.559756 
L 342.580848 72.58359 
L 342.585588 72.588129 
L 342.605257 72.606966 
L 342.628053 72.628797 
L 342.640509 72.640726 
L 342.651761 72.651502 
L 342.672595 72.671454 
L 342.695864 72.693739 
L 342.70889 72.706214 
L 342.724454 72.72112 
L 342.744351 72.740175 
L 342.763536 72.758548 
L 342.77952 72.773856 
L 342.79838 72.791918 
L 342.805338 72.798582 
L 342.831317 72.823461 
L 342.845611 72.837151 
L 342.864403 72.855147 
L 342.870856 72.861328 
L 342.885901 72.875736 
L 342.9071 72.896038 
L 342.923067 72.91133 
L 342.933708 72.921521 
L 342.958061 72.944844 
L 342.979221 72.965108 
L 342.989498 72.97495 
L 343.00371 72.988561 
L 343.02703 73.010895 
L 343.044052 73.027196 
L 343.059112 73.041619 
L 343.076332 73.05811 
L 343.090281 73.071469 
L 343.099554 73.08035 
L 343.121892 73.101743 
L 343.137673 73.116856 
L 343.161593 73.139764 
L 343.165821 73.143814 
L 343.187772 73.164836 
L 343.2131 73.189092 
L 343.22655 73.201974 
L 343.235664 73.210701 
L 343.252585 73.226907 
L 343.274025 73.24744 
L 343.293645 73.266229 
L 343.304594 73.276715 
L 343.327994 73.299125 
L 343.340422 73.311027 
L 343.349752 73.319963 
L 343.364119 73.333722 
L 343.394138 73.362471 
L 343.398731 73.366869 
L 343.415643 73.383066 
" style="fill:none;stroke:#0066ff;stroke-linecap:square;stroke-width:2;"/>
   </g>
   <g id="line2d_77">
    <path clip-path="url(#p99806721e4)" d="M 343.464417 73.429776 
L 343.484111 73.448637 
L 343.500937 73.464751 
L 343.521326 73.484278 
L 343.537153 73.499435 
L 343.546045 73.507951 
L 343.564711 73.525828 
L 343.595249 73.555073 
L 343.605567 73.564955 
L 343.626241 73.584754 
L 343.643091 73.600891 
L 343.647337 73.604957 
L 343.662455 73.619436 
L 343.680866 73.637068 
L 343.707807 73.662869 
L 343.723358 73.677762 
L 343.732286 73.686313 
L 343.755876 73.708905 
L 343.772774 73.725088 
L 343.783264 73.735134 
L 343.798212 73.749449 
L 343.820842 73.771122 
L 343.8325 73.782287 
L 343.846351 73.795551 
L 343.862176 73.810707 
L 343.88499 73.832556 
L 343.904328 73.851076 
L 343.922258 73.868247 
L 343.928259 73.873995 
L 343.954056 73.8987 
L 343.961651 73.905973 
L 343.980336 73.923868 
L 343.994258 73.937201 
L 344.019086 73.960979 
L 344.040467 73.981455 
L 344.048734 73.989372 
L 344.075667 74.015166 
L 344.080917 74.020193 
L 344.094461 74.033165 
L 344.11441 74.05227 
L 344.140114 74.076887 
L 344.154492 74.090656 
L 344.159671 74.095616 
L 344.187404 74.122175 
L 344.205538 74.139543 
L 344.212489 74.146199 
L 344.227338 74.16042 
L 344.258213 74.189989 
L 344.26544 74.19691 
L 344.275974 74.206999 
L 344.293997 74.224259 
L 344.314914 74.244291 
L 344.334608 74.263152 
L 344.342125 74.270351 
L 344.367384 74.294541 
L 344.38775 74.314045 
L 344.402361 74.328038 
L 344.413014 74.338241 
L 344.427835 74.352435 
L 344.444421 74.368319 
L 344.465172 74.388192 
L 344.480874 74.40323 
L 344.500426 74.421955 
L 344.521454 74.442093 
L 344.530611 74.450862 
L 344.540368 74.460206 
L 344.564747 74.483554 
L 344.582336 74.500398 
L 344.596905 74.514351 
L 344.615034 74.531713 
L 344.637338 74.553074 
L 344.648413 74.56368 
L 344.659547 74.574343 
L 344.683203 74.596998 
L 344.696874 74.610091 
L 344.716861 74.629232 
L 344.726129 74.638108 
L 344.7514 74.66231 
L 344.764842 74.675184 
L 344.788437 74.697781 
L 344.795653 74.704691 
L 344.812852 74.721162 
L 344.822361 74.730269 
L 344.846922 74.753791 
" style="fill:none;stroke:#0066ff;stroke-linecap:square;stroke-width:2;"/>
   </g>
   <g id="line2d_78">
    <path clip-path="url(#p99806721e4)" d="M 348.145149 71.244139 
L 351.443375 74.402826 
L 351.443375 74.402826 
" style="fill:none;stroke:#0066ff;stroke-linecap:square;stroke-width:2;"/>
   </g>
   <g id="line2d_79">
    <path clip-path="url(#p99806721e4)" d="M 394.320323 23.863844 
L 397.61855 27.02253 
L 397.61855 27.02253 
" style="fill:none;stroke:#0066ff;stroke-linecap:square;stroke-width:2;"/>
   </g>
   <g id="line2d_80">
    <path clip-path="url(#p99806721e4)" d="M 400.916777 23.512878 
L 404.215003 26.671565 
L 404.215003 26.671565 
" style="fill:none;stroke:#0066ff;stroke-linecap:square;stroke-width:2;"/>
   </g>
   <g id="line2d_81">
    <path clip-path="url(#p99806721e4)" d="M 407.51323 30.532182 
L 410.811457 33.690868 
L 410.811457 33.690868 
" style="fill:none;stroke:#0066ff;stroke-linecap:square;stroke-width:2;"/>
   </g>
   <g id="line2d_82">
    <path clip-path="url(#p99806721e4)" d="M 440.495498 70.542209 
L 443.793724 73.700895 
L 443.793724 73.700895 
" style="fill:none;stroke:#0066ff;stroke-linecap:square;stroke-width:2;"/>
   </g>
   <g id="line2d_83">
    <path clip-path="url(#p99806721e4)" d="M 447.091951 77.561512 
L 450.390178 80.720198 
L 450.390178 80.720198 
" style="fill:none;stroke:#0066ff;stroke-linecap:square;stroke-width:2;"/>
   </g>
   <g id="line2d_84">
    <path clip-path="url(#p99806721e4)" d="M 453.688405 77.210547 
L 453.704391 77.225857 
L 453.724126 77.244757 
L 453.741809 77.261692 
L 453.760496 77.279588 
L 453.766678 77.285509 
L 453.785205 77.303252 
L 453.799453 77.316897 
L 453.827256 77.343524 
L 453.833943 77.349928 
L 453.85308 77.368255 
L 453.875579 77.389802 
L 453.886655 77.40041 
L 453.899085 77.412314 
L 453.922714 77.434943 
L 453.943566 77.454913 
L 453.955941 77.466764 
L 453.96199 77.472557 
L 453.988995 77.49842 
L 453.995584 77.50473 
L 454.013248 77.521647 
L 454.044452 77.551531 
L 454.046438 77.553433 
L 454.062245 77.568571 
L 454.081325 77.586844 
L 454.107282 77.611703 
L 454.126691 77.63029 
L 454.12875 77.632262 
L 454.160363 77.662538 
L 454.172935 77.674578 
L 454.185784 77.686883 
L 454.201672 77.702099 
L 454.219049 77.718741 
L 454.231154 77.730334 
L 454.247252 77.74575 
L 454.267074 77.764734 
L 454.289953 77.786645 
L 454.306976 77.802948 
L 454.321026 77.816404 
L 454.341859 77.836355 
L 454.359167 77.852931 
L 454.374713 77.867819 
L 454.380371 77.873238 
L 454.399819 77.891863 
L 454.418402 77.90966 
L 454.435917 77.926434 
L 454.454041 77.943791 
L 454.470169 77.959237 
L 454.48367 77.972166 
L 454.504633 77.992243 
L 454.514285 78.001486 
L 454.528822 78.015409 
L 454.54561 78.031486 
L 454.573897 78.058576 
L 454.591424 78.075361 
L 454.606536 78.089835 
L 454.616904 78.099764 
" style="fill:none;stroke:#0066ff;stroke-linecap:square;stroke-width:2;"/>
   </g>
   <g id="line2d_85">
    <path clip-path="url(#p99806721e4)" d="M 454.664072 78.144936 
L 456.986631 80.369233 
L 456.986631 80.369233 
" style="fill:none;stroke:#0066ff;stroke-linecap:square;stroke-width:2;"/>
   </g>
   <g id="line2d_86">
    <path clip-path="url(#p99806721e4)" d="M 499.863579 29.830251 
L 503.161806 32.988938 
L 503.161806 32.988938 
" style="fill:none;stroke:#0066ff;stroke-linecap:square;stroke-width:2;"/>
   </g>
   <g id="line2d_87">
    <path clip-path="url(#p99806721e4)" d="M 506.460033 29.479286 
L 509.758259 32.637972 
L 509.758259 32.637972 
" style="fill:none;stroke:#0066ff;stroke-linecap:square;stroke-width:2;"/>
   </g>
   <g id="line2d_88">
    <path clip-path="url(#p99806721e4)" d="M 513.056486 29.128321 
L 519.65294 35.445694 
L 519.65294 35.445694 
" style="fill:none;stroke:#0066ff;stroke-linecap:square;stroke-width:2;"/>
   </g>
   <g id="line2d_89">
    <path clip-path="url(#p99806721e4)" d="M 522.951166 39.30631 
L 526.249393 42.464997 
L 526.249393 42.464997 
" style="fill:none;stroke:#0066ff;stroke-linecap:square;stroke-width:2;"/>
   </g>
   <g id="line2d_90">
    <path clip-path="url(#p99806721e4)" d="M 529.54762 46.325613 
L 532.845846 49.4843 
L 532.845846 49.4843 
" style="fill:none;stroke:#0066ff;stroke-linecap:square;stroke-width:2;"/>
   </g>
   <g id="line2d_91">
    <path clip-path="url(#p99806721e4)" d="M 298.671748 30.883147 
L 301.969974 34.743763 
L 301.969974 34.743763 
" style="fill:none;stroke:#3200ff;stroke-linecap:square;stroke-width:2;"/>
   </g>
   <g id="line2d_92">
    <path clip-path="url(#p99806721e4)" d="M 305.268201 38.955345 
L 308.566428 42.815962 
L 308.566428 42.815962 
" style="fill:none;stroke:#3200ff;stroke-linecap:square;stroke-width:2;"/>
   </g>
   <g id="line2d_93">
    <path clip-path="url(#p99806721e4)" d="M 311.864655 47.027544 
L 318.461108 54.748777 
L 318.461108 54.748777 
" style="fill:none;stroke:#3200ff;stroke-linecap:square;stroke-width:2;"/>
   </g>
   <g id="line2d_94">
    <path clip-path="url(#p99806721e4)" d="M 321.759335 57.907463 
L 325.057562 61.76808 
L 325.057562 61.76808 
" style="fill:none;stroke:#3200ff;stroke-linecap:square;stroke-width:2;"/>
   </g>
   <g id="line2d_95">
    <path clip-path="url(#p99806721e4)" d="M 328.355788 64.926767 
L 331.654015 68.787383 
L 331.654015 68.787383 
" style="fill:none;stroke:#3200ff;stroke-linecap:square;stroke-width:2;"/>
   </g>
   <g id="line2d_96">
    <path clip-path="url(#p99806721e4)" d="M 404.215003 26.671565 
L 407.51323 30.532182 
L 407.51323 30.532182 
" style="fill:none;stroke:#3200ff;stroke-linecap:square;stroke-width:2;"/>
   </g>
   <g id="line2d_97">
    <path clip-path="url(#p99806721e4)" d="M 410.811457 33.690868 
L 414.109684 37.551485 
L 414.109684 37.551485 
" style="fill:none;stroke:#3200ff;stroke-linecap:square;stroke-width:2;"/>
   </g>
   <g id="line2d_98">
    <path clip-path="url(#p99806721e4)" d="M 417.40791 41.763066 
L 420.706137 45.623683 
L 420.706137 45.623683 
" style="fill:none;stroke:#3200ff;stroke-linecap:square;stroke-width:2;"/>
   </g>
   <g id="line2d_99">
    <path clip-path="url(#p99806721e4)" d="M 430.600817 58.609394 
L 433.899044 62.47001 
L 433.899044 62.47001 
" style="fill:none;stroke:#3200ff;stroke-linecap:square;stroke-width:2;"/>
   </g>
   <g id="line2d_100">
    <path clip-path="url(#p99806721e4)" d="M 437.197271 66.681592 
L 440.495498 70.542209 
L 440.495498 70.542209 
" style="fill:none;stroke:#3200ff;stroke-linecap:square;stroke-width:2;"/>
   </g>
   <g id="line2d_101">
    <path clip-path="url(#p99806721e4)" d="M 443.793724 73.700895 
L 447.091951 77.561512 
L 447.091951 77.561512 
" style="fill:none;stroke:#3200ff;stroke-linecap:square;stroke-width:2;"/>
   </g>
   <g id="line2d_102">
    <path clip-path="url(#p99806721e4)" d="M 519.65294 35.445694 
L 522.951166 39.30631 
L 522.951166 39.30631 
" style="fill:none;stroke:#3200ff;stroke-linecap:square;stroke-width:2;"/>
   </g>
   <g id="line2d_103">
    <path clip-path="url(#p99806721e4)" d="M 526.249393 42.464997 
L 529.54762 46.325613 
L 529.54762 46.325613 
" style="fill:none;stroke:#3200ff;stroke-linecap:square;stroke-width:2;"/>
   </g>
   <g id="line2d_104">
    <path clip-path="url(#p99806721e4)" d="M 532.845846 49.4843 
L 539.4423 57.205533 
L 539.4423 57.205533 
" style="fill:none;stroke:#3200ff;stroke-linecap:square;stroke-width:2;"/>
   </g>
   <g id="line2d_105">
    <path clip-path="url(#p99806721e4)" d="M 542.740527 61.417115 
L 546.038753 65.277732 
L 546.038753 65.277732 
" style="fill:none;stroke:#3200ff;stroke-linecap:square;stroke-width:2;"/>
   </g>
   <g id="line2d_106">
    <path clip-path="url(#p99806721e4)" d="M 549.33698 69.489314 
L 552.635207 73.34993 
L 552.635207 73.34993 
" style="fill:none;stroke:#3200ff;stroke-linecap:square;stroke-width:2;"/>
   </g>
   <g id="line2d_107">
    <path clip-path="url(#p99806721e4)" d="M 44.708288 49.4843 
L 48.006515 46.325613 
L 48.006515 46.325613 
" style="fill:none;stroke:#cc00ff;stroke-linecap:square;stroke-width:2;"/>
   </g>
   <g id="line2d_108">
    <path clip-path="url(#p99806721e4)" d="M 51.304742 42.464997 
L 54.602968 39.30631 
L 54.602968 39.30631 
" style="fill:none;stroke:#cc00ff;stroke-linecap:square;stroke-width:2;"/>
   </g>
   <g id="line2d_109">
    <path clip-path="url(#p99806721e4)" d="M 57.901195 35.445694 
L 64.497649 29.128321 
L 64.497649 29.128321 
" style="fill:none;stroke:#cc00ff;stroke-linecap:square;stroke-width:2;"/>
   </g>
   <g id="line2d_110">
    <path clip-path="url(#p99806721e4)" d="M 67.795875 32.637972 
L 71.094102 29.479286 
L 71.094102 29.479286 
" style="fill:none;stroke:#cc00ff;stroke-linecap:square;stroke-width:2;"/>
   </g>
   <g id="line2d_111">
    <path clip-path="url(#p99806721e4)" d="M 74.392329 32.988938 
L 77.690556 29.830251 
L 77.690556 29.830251 
" style="fill:none;stroke:#cc00ff;stroke-linecap:square;stroke-width:2;"/>
   </g>
   <g id="line2d_112">
    <path clip-path="url(#p99806721e4)" d="M 120.567503 80.369233 
L 123.86573 77.210547 
L 123.86573 77.210547 
" style="fill:none;stroke:#cc00ff;stroke-linecap:square;stroke-width:2;"/>
   </g>
   <g id="line2d_113">
    <path clip-path="url(#p99806721e4)" d="M 127.163957 80.720198 
L 130.462184 77.561512 
L 130.462184 77.561512 
" style="fill:none;stroke:#cc00ff;stroke-linecap:square;stroke-width:2;"/>
   </g>
   <g id="line2d_114">
    <path clip-path="url(#p99806721e4)" d="M 133.76041 73.700895 
L 137.058637 70.542209 
L 137.058637 70.542209 
" style="fill:none;stroke:#cc00ff;stroke-linecap:square;stroke-width:2;"/>
   </g>
   <g id="line2d_115">
    <path clip-path="url(#p99806721e4)" d="M 166.742678 33.690868 
L 170.040904 30.532182 
L 170.040904 30.532182 
" style="fill:none;stroke:#cc00ff;stroke-linecap:square;stroke-width:2;"/>
   </g>
   <g id="line2d_116">
    <path clip-path="url(#p99806721e4)" d="M 173.339131 26.671565 
L 176.637358 23.512878 
L 176.637358 23.512878 
" style="fill:none;stroke:#cc00ff;stroke-linecap:square;stroke-width:2;"/>
   </g>
   <g id="line2d_117">
    <path clip-path="url(#p99806721e4)" d="M 179.935585 27.02253 
L 183.233811 23.863844 
L 183.233811 23.863844 
" style="fill:none;stroke:#cc00ff;stroke-linecap:square;stroke-width:2;"/>
   </g>
   <g id="line2d_118">
    <path clip-path="url(#p99806721e4)" d="M 226.110759 74.402826 
L 229.408986 71.244139 
L 229.408986 71.244139 
" style="fill:none;stroke:#cc00ff;stroke-linecap:square;stroke-width:2;"/>
   </g>
   <g id="line2d_119">
    <path clip-path="url(#p99806721e4)" d="M 232.707213 74.753791 
L 236.005439 71.595104 
L 236.005439 71.595104 
" style="fill:none;stroke:#cc00ff;stroke-linecap:square;stroke-width:2;"/>
   </g>
   <g id="line2d_120">
    <path clip-path="url(#p99806721e4)" d="M 239.303666 75.104756 
L 245.90012 68.787383 
L 245.90012 68.787383 
" style="fill:none;stroke:#cc00ff;stroke-linecap:square;stroke-width:2;"/>
   </g>
   <g id="line2d_121">
    <path clip-path="url(#p99806721e4)" d="M 249.198346 64.926767 
L 252.496573 61.76808 
L 252.496573 61.76808 
" style="fill:none;stroke:#cc00ff;stroke-linecap:square;stroke-width:2;"/>
   </g>
   <g id="line2d_122">
    <path clip-path="url(#p99806721e4)" d="M 255.7948 57.907463 
L 259.093027 54.748777 
L 259.093027 54.748777 
" style="fill:none;stroke:#cc00ff;stroke-linecap:square;stroke-width:2;"/>
   </g>
   <g id="line2d_123">
    <path clip-path="url(#p99806721e4)" d="M 18.322474 81.773094 
L 24.918928 73.34993 
L 24.918928 73.34993 
" style="fill:none;stroke:#ff0098;stroke-linecap:square;stroke-width:2;"/>
   </g>
   <g id="line2d_124">
    <path clip-path="url(#p99806721e4)" d="M 28.217154 69.489314 
L 31.515381 65.277732 
L 31.515381 65.277732 
" style="fill:none;stroke:#ff0098;stroke-linecap:square;stroke-width:2;"/>
   </g>
   <g id="line2d_125">
    <path clip-path="url(#p99806721e4)" d="M 34.813608 61.417115 
L 38.111835 57.205533 
L 38.111835 57.205533 
" style="fill:none;stroke:#ff0098;stroke-linecap:square;stroke-width:2;"/>
   </g>
   <g id="line2d_126">
    <path clip-path="url(#p99806721e4)" d="M 140.356864 66.681592 
L 143.65509 62.47001 
L 143.65509 62.47001 
" style="fill:none;stroke:#ff0098;stroke-linecap:square;stroke-width:2;"/>
   </g>
   <g id="line2d_127">
    <path clip-path="url(#p99806721e4)" d="M 146.953317 58.609394 
L 150.251544 54.397812 
L 150.251544 54.397812 
" style="fill:none;stroke:#ff0098;stroke-linecap:square;stroke-width:2;"/>
   </g>
   <g id="line2d_128">
    <path clip-path="url(#p99806721e4)" d="M 153.549771 49.835265 
L 156.847997 45.623683 
L 156.847997 45.623683 
" style="fill:none;stroke:#ff0098;stroke-linecap:square;stroke-width:2;"/>
   </g>
   <g id="line2d_129">
    <path clip-path="url(#p99806721e4)" d="M 160.146224 41.763066 
L 163.444451 37.551485 
L 163.444451 37.551485 
" style="fill:none;stroke:#ff0098;stroke-linecap:square;stroke-width:2;"/>
   </g>
   <g id="line2d_130">
    <path clip-path="url(#p99806721e4)" d="M 265.68948 47.027544 
L 268.987707 42.815962 
L 268.987707 42.815962 
" style="fill:none;stroke:#ff0098;stroke-linecap:square;stroke-width:2;"/>
   </g>
   <g id="line2d_131">
    <path clip-path="url(#p99806721e4)" d="M 272.285934 38.955345 
L 275.58416 34.743763 
L 275.58416 34.743763 
" style="fill:none;stroke:#ff0098;stroke-linecap:square;stroke-width:2;"/>
   </g>
   <g id="line2d_132">
    <path clip-path="url(#p99806721e4)" d="M 278.882387 30.883147 
L 285.478841 22.459983 
L 285.478841 22.459983 
" style="fill:none;stroke:#ff0098;stroke-linecap:square;stroke-width:2;"/>
   </g>
   <g id="line2d_133">
    <path clip-path="url(#p99806721e4)" d="M 358.039829 67.383523 
L 361.338056 63.171941 
L 361.338056 63.171941 
" style="fill:none;stroke:#ff0098;stroke-linecap:square;stroke-width:2;"/>
   </g>
   <g id="line2d_134">
    <path clip-path="url(#p99806721e4)" d="M 364.636282 59.662289 
L 367.934509 55.450707 
L 367.934509 55.450707 
" style="fill:none;stroke:#ff0098;stroke-linecap:square;stroke-width:2;"/>
   </g>
   <g id="line2d_135">
    <path clip-path="url(#p99806721e4)" d="M 371.232736 51.941056 
L 384.425643 35.094729 
L 384.425643 35.094729 
" style="fill:none;stroke:#ff0098;stroke-linecap:square;stroke-width:2;"/>
   </g>
   <g id="line2d_136">
    <path clip-path="url(#p99806721e4)" d="M 387.72387 31.585077 
L 391.022096 27.373495 
L 391.022096 27.373495 
" style="fill:none;stroke:#ff0098;stroke-linecap:square;stroke-width:2;"/>
   </g>
   <g id="line2d_137">
    <path clip-path="url(#p99806721e4)" d="M 460.284858 76.859582 
L 463.583085 72.648 
L 463.583085 72.648 
" style="fill:none;stroke:#ff0098;stroke-linecap:square;stroke-width:2;"/>
   </g>
   <g id="line2d_138">
    <path clip-path="url(#p99806721e4)" d="M 466.881312 69.138348 
L 480.074219 52.292021 
L 480.074219 52.292021 
" style="fill:none;stroke:#ff0098;stroke-linecap:square;stroke-width:2;"/>
   </g>
   <g id="line2d_139">
    <path clip-path="url(#p99806721e4)" d="M 483.372445 48.78237 
L 483.392761 48.756428 
L 483.412018 48.731838 
L 483.414021 48.729281 
L 483.446245 48.688133 
L 483.460541 48.669878 
L 483.468596 48.659593 
L 483.485069 48.638558 
L 483.50628 48.611473 
L 483.52943 48.581912 
L 483.538079 48.570868 
L 483.547841 48.558403 
L 483.575808 48.522691 
L 483.59509 48.49807 
L 483.609518 48.479646 
L 483.6262 48.458345 
L 483.629763 48.453794 
L 483.658784 48.416738 
L 483.665305 48.40841 
L 483.695426 48.369948 
L 483.711402 48.349548 
L 483.721612 48.336511 
L 483.743994 48.307931 
L 483.749006 48.301531 
L 483.764583 48.28164 
L 483.793653 48.244519 
L 483.796102 48.241393 
L 483.824441 48.205206 
L 483.839425 48.186072 
L 483.860995 48.15853 
L 483.86638 48.151653 
L 483.892557 48.118227 
L 483.902624 48.105373 
L 483.92711 48.074106 
L 483.942374 48.054614 
L 483.954376 48.039289 
L 483.976421 48.011139 
L 483.98169 48.004411 
L 484.005999 47.97337 
L 484.021903 47.953062 
L 484.034152 47.937421 
L 484.045229 47.923277 
L 484.060912 47.90325 
L 484.077542 47.882015 
L 484.095289 47.859353 
L 484.122034 47.825202 
L 484.141516 47.800326 
L 484.148069 47.791957 
L 484.161048 47.775384 
L 484.183107 47.747218 
L 484.198238 47.727896 
L 484.209613 47.71337 
L 484.227941 47.689967 
L 484.247238 47.665326 
L 484.265965 47.641414 
L 484.292019 47.608144 
" style="fill:none;stroke:#ff0098;stroke-linecap:square;stroke-width:2;"/>
   </g>
   <g id="line2d_140">
    <path clip-path="url(#p99806721e4)" d="M 484.32912 47.56077 
L 486.670672 44.570788 
L 486.670672 44.570788 
" style="fill:none;stroke:#ff0098;stroke-linecap:square;stroke-width:2;"/>
   </g>
   <g id="line2d_141">
    <path clip-path="url(#p99806721e4)" d="M 489.968899 41.061136 
L 493.267126 36.849554 
L 493.267126 36.849554 
" style="fill:none;stroke:#ff0098;stroke-linecap:square;stroke-width:2;"/>
   </g>
   <g id="matplotlib.axis_1">
    <g id="xtick_1">
     <g id="line2d_142">
      <path clip-path="url(#p99806721e4)" d="M 15.024247 87.704405 
L 15.024247 16.528672 
" style="fill:none;stroke:#000000;stroke-dasharray:0.5,0.825;stroke-dashoffset:0;stroke-width:0.5;"/>
     </g>
     <g id="line2d_143">
      <defs>
       <path d="M 0 0 
L 0 3.5 
" id="mbaee17df3c" style="stroke:#000000;stroke-width:0.8;"/>
      </defs>
      <g>
       <use style="stroke:#000000;stroke-width:0.8;" x="15.024247" xlink:href="#mbaee17df3c" y="86.335641"/>
      </g>
     </g>
    </g>
    <g id="xtick_2">
     <g id="line2d_144">
      <path clip-path="url(#p99806721e4)" d="M 288.777067 87.704405 
L 288.777067 16.528672 
" style="fill:none;stroke:#000000;stroke-dasharray:0.5,0.825;stroke-dashoffset:0;stroke-width:0.5;"/>
     </g>
     <g id="line2d_145">
      <g>
       <use style="stroke:#000000;stroke-width:0.8;" x="288.777067" xlink:href="#mbaee17df3c" y="86.335641"/>
      </g>
     </g>
     <g id="text_1">
      <!-- $f$ -->
      <defs>
       <path d="M 9.71875 -16.5 
Q 11.578125 -17.921875 14.203125 -17.921875 
Q 17.78125 -17.921875 20.015625 -10.015625 
Q 20.953125 -6.203125 25.09375 15.09375 
L 29.6875 39.59375 
L 21.09375 39.59375 
Q 20.125 39.59375 20.125 40.921875 
Q 20.515625 43.109375 21.390625 43.109375 
L 30.328125 43.109375 
L 31.5 49.609375 
Q 32.078125 52.640625 32.5625 54.8125 
Q 33.0625 56.984375 33.625 58.828125 
Q 34.1875 60.6875 35.296875 62.984375 
Q 37.015625 66.265625 39.921875 68.390625 
Q 42.828125 70.515625 46.1875 70.515625 
Q 48.390625 70.515625 50.46875 69.703125 
Q 52.546875 68.890625 53.859375 67.28125 
Q 55.171875 65.671875 55.171875 63.484375 
Q 55.171875 60.9375 53.484375 59.046875 
Q 51.8125 57.171875 49.421875 57.171875 
Q 47.796875 57.171875 46.65625 58.171875 
Q 45.515625 59.1875 45.515625 60.796875 
Q 45.515625 62.984375 47 64.625 
Q 48.484375 66.265625 50.6875 66.5 
Q 48.828125 67.921875 46.09375 67.921875 
Q 44.578125 67.921875 43.234375 66.5 
Q 41.890625 65.09375 41.5 63.484375 
Q 40.875 60.9375 38.71875 49.703125 
L 37.5 43.109375 
L 47.796875 43.109375 
Q 48.78125 43.109375 48.78125 41.796875 
Q 48.734375 41.546875 48.578125 40.9375 
Q 48.4375 40.328125 48.171875 39.953125 
Q 47.90625 39.59375 47.515625 39.59375 
L 36.8125 39.59375 
L 32.171875 15.1875 
Q 31.296875 9.859375 30.140625 4.359375 
Q 29 -1.125 26.921875 -6.90625 
Q 24.859375 -12.703125 21.625 -16.609375 
Q 18.40625 -20.515625 14.015625 -20.515625 
Q 10.640625 -20.515625 7.984375 -18.578125 
Q 5.328125 -16.65625 5.328125 -13.484375 
Q 5.328125 -10.9375 6.953125 -9.046875 
Q 8.59375 -7.171875 11.078125 -7.171875 
Q 12.75 -7.171875 13.859375 -8.171875 
Q 14.984375 -9.1875 14.984375 -10.796875 
Q 14.984375 -12.9375 13.390625 -14.71875 
Q 11.8125 -16.5 9.71875 -16.5 
z
" id="Cmmi10-66"/>
      </defs>
      <g transform="translate(286.327067 100.913766)scale(0.1 -0.1)">
       <use transform="translate(0 0.484375)" xlink:href="#Cmmi10-66"/>
      </g>
     </g>
    </g>
    <g id="xtick_3">
     <g id="line2d_146">
      <path clip-path="url(#p99806721e4)" d="M 562.529887 87.704405 
L 562.529887 16.528672 
" style="fill:none;stroke:#000000;stroke-dasharray:0.5,0.825;stroke-dashoffset:0;stroke-width:0.5;"/>
     </g>
     <g id="line2d_147">
      <g>
       <use style="stroke:#000000;stroke-width:0.8;" x="562.529887" xlink:href="#mbaee17df3c" y="86.335641"/>
      </g>
     </g>
     <g id="text_2">
      <!-- $1$ -->
      <defs>
       <path d="M 9.28125 0 
L 9.28125 3.515625 
Q 21.78125 3.515625 21.78125 6.6875 
L 21.78125 59.1875 
Q 16.609375 56.6875 8.6875 56.6875 
L 8.6875 60.203125 
Q 20.953125 60.203125 27.203125 66.609375 
L 28.609375 66.609375 
Q 28.953125 66.609375 29.265625 66.328125 
Q 29.59375 66.0625 29.59375 65.71875 
L 29.59375 6.6875 
Q 29.59375 3.515625 42.09375 3.515625 
L 42.09375 0 
z
" id="Cmr10-31"/>
      </defs>
      <g transform="translate(560.029887 100.934078)scale(0.1 -0.1)">
       <use transform="translate(0 0.390625)" xlink:href="#Cmr10-31"/>
      </g>
     </g>
    </g>
   </g>
   <g id="matplotlib.axis_2">
    <g id="ytick_1">
     <g id="line2d_148">
      <path clip-path="url(#p99806721e4)" d="M 4.074135 86.335641 
L 573.48 86.335641 
" style="fill:none;stroke:#000000;stroke-dasharray:0.5,0.825;stroke-dashoffset:0;stroke-width:0.5;"/>
     </g>
     <g id="line2d_149">
      <defs>
       <path d="M 0 0 
L -3.5 0 
" id="m66fdb80bb4" style="stroke:#000000;stroke-width:0.8;"/>
      </defs>
      <g>
       <use style="stroke:#000000;stroke-width:0.8;" x="15.024247" xlink:href="#m66fdb80bb4" y="86.335641"/>
      </g>
     </g>
    </g>
    <g id="ytick_2">
     <g id="line2d_150">
      <path clip-path="url(#p99806721e4)" d="M 4.074135 17.897436 
L 573.48 17.897436 
" style="fill:none;stroke:#000000;stroke-dasharray:0.5,0.825;stroke-dashoffset:0;stroke-width:0.5;"/>
     </g>
     <g id="line2d_151">
      <g>
       <use style="stroke:#000000;stroke-width:0.8;" x="15.024247" xlink:href="#m66fdb80bb4" y="17.897436"/>
      </g>
     </g>
     <g id="text_3">
      <!-- $1$ -->
      <g transform="translate(3.024247 21.696655)scale(0.1 -0.1)">
       <use transform="translate(0 0.390625)" xlink:href="#Cmr10-31"/>
      </g>
     </g>
    </g>
   </g>
   <g id="patch_3">
    <path d="M 15.024247 87.704405 
L 15.024247 16.528672 
" style="fill:none;stroke:#000000;stroke-linecap:square;stroke-linejoin:miter;stroke-width:0.8;"/>
   </g>
   <g id="patch_4">
    <path d="M 4.074135 86.335641 
L 573.48 86.335641 
" style="fill:none;stroke:#000000;stroke-linecap:square;stroke-linejoin:miter;stroke-width:0.8;"/>
   </g>
  </g>
 </g>
 <defs>
  <clipPath id="p99806721e4">
   <rect height="71.175733" width="569.405865" x="4.074135" y="16.528672"/>
  </clipPath>
 </defs>
</svg>
