<?xml version="1.0" encoding="utf-8" standalone="no"?>
<!DOCTYPE svg PUBLIC "-//W3C//DTD SVG 1.1//EN"
  "http://www.w3.org/Graphics/SVG/1.1/DTD/svg11.dtd">
<!-- Created with matplotlib (http://matplotlib.org/) -->
<svg height="108pt" version="1.1" viewBox="0 0 576 108" width="576pt" xmlns="http://www.w3.org/2000/svg" xmlns:xlink="http://www.w3.org/1999/xlink">
 <defs>
  <style type="text/css">
*{stroke-linecap:butt;stroke-linejoin:round;}
  </style>
 </defs>
 <g id="figure_1">
  <g id="patch_1">
   <path d="M 0 108 
L 576 108 
L 576 0 
L 0 0 
z
" style="fill:#ffffff;"/>
  </g>
  <g id="axes_1">
   <g id="patch_2">
    <path d="M 4.074135 87.704405 
L 573.48 87.704405 
L 573.48 16.528672 
L 4.074135 16.528672 
z
" style="fill:#ffffff;"/>
   </g>
   <g id="line2d_1">
    <path clip-path="url(#p037270f5af)" d="M 15.024247 86.335641 
L 151.900657 17.897436 
L 151.900657 17.897436 
" style="fill:none;stroke:#000000;stroke-linecap:square;stroke-width:2;"/>
   </g>
   <g id="line2d_2">
    <path clip-path="url(#p037270f5af)" d="M 151.900657 63.522906 
L 357.215272 29.303803 
L 357.215272 29.303803 
" style="fill:none;stroke:#000000;stroke-linecap:square;stroke-width:2;"/>
   </g>
   <g id="line2d_3">
    <path clip-path="url(#p037270f5af)" d="M 357.215272 74.929273 
L 358.710529 74.680064 
L 359.167845 74.603845 
L 360.177249 74.435611 
L 361.073107 74.286301 
L 362.595255 74.03261 
L 363.407381 73.897255 
L 364.013171 73.79629 
L 365.691003 73.516652 
L 366.901704 73.314868 
L 367.411244 73.229945 
L 368.28054 73.085062 
L 369.471838 72.886513 
L 370.564787 72.704354 
L 371.357949 72.572161 
L 373.01762 72.295549 
L 373.755413 72.172583 
L 375.18639 71.934087 
L 376.088444 71.783745 
L 377.204557 71.597726 
L 377.917881 71.478839 
L 379.08868 71.283705 
L 380.019299 71.128602 
L 381.452678 70.889706 
L 381.634068 70.859474 
L 382.827713 70.660533 
L 384.400387 70.398421 
L 385.074767 70.286024 
L 386.573894 70.03617 
L 386.836259 69.992442 
L 388.182161 69.768125 
L 388.746711 69.674034 
L 390.576857 69.369009 
L 390.750659 69.340042 
L 392.334636 69.076046 
L 393.036335 68.959096 
L 393.955865 68.805841 
L 395.872487 68.486404 
L 396.360628 68.405047 
L 397.706924 68.180665 
L 398.843455 67.991243 
L 399.964031 67.80448 
L 400.482849 67.718011 
L 401.874291 67.486104 
L 402.242715 67.4247 
L 404.084313 67.117767 
L 404.214415 67.096083 
L 405.391375 66.899923 
L 406.72247 66.678074 
L 407.377535 66.568896 
L 408.87742 66.318916 
L 410.179364 66.101925 
L 410.681405 66.018251 
L 412.152373 65.77309 
L 412.673081 65.686305 
L 413.967832 65.470514 
L 414.841492 65.324904 
L 416.181246 65.101611 
L 417.448547 64.890394 
L 418.484636 64.717713 
L 418.852129 64.656464 
L 420.055736 64.455863 
L 421.583342 64.201262 
L 421.889639 64.150212 
L 423.143622 63.941215 
L 424.707806 63.680518 
L 424.99167 63.633207 
L 426.05708 63.455639 
L 426.889958 63.316826 
L 428.430931 63.059997 
L 428.930454 62.976743 
L 430.738228 62.675447 
L 431.35193 62.573164 
L 432.842491 62.324737 
L 433.472163 62.219792 
L 434.693693 62.016203 
L 435.615336 61.862596 
L 436.691894 61.68317 
L 437.69159 61.516554 
L 438.395434 61.399246 
L 439.62687 61.194007 
L 440.585591 61.03422 
L 441.703744 60.847862 
L 442.710276 60.680106 
L 443.998221 60.465449 
L 444.497762 60.382192 
" style="fill:none;stroke:#000000;stroke-linecap:square;stroke-width:2;"/>
   </g>
   <g id="line2d_4">
    <path clip-path="url(#p037270f5af)" d="M 447.643293 59.857937 
L 449.034366 59.626091 
L 450.517729 59.378864 
L 451.189808 59.266851 
L 452.261688 59.088204 
L 453.599152 58.865293 
L 454.451008 58.723317 
L 455.037389 58.625587 
L 456.266264 58.420775 
L 457.755456 58.172576 
L 458.707107 58.013968 
L 459.358574 57.90539 
L 460.393054 57.732976 
L 460.919396 57.645253 
L 462.912293 57.313103 
L 463.06323 57.287947 
L 464.258745 57.088695 
L 465.734288 56.842771 
L 466.582505 56.701401 
L 467.898453 56.482077 
L 468.325981 56.410822 
L 469.960206 56.138451 
L 470.552572 56.039723 
L 471.4722 55.886452 
L 472.901994 55.648153 
L 473.636562 55.525725 
L 474.863017 55.321316 
L 476.28985 55.083511 
L 477.352034 54.90648 
L 477.893263 54.816275 
L 479.413346 54.562928 
L 480.139534 54.441896 
L 480.93638 54.309089 
L 481.895497 54.149236 
L 483.285752 53.917527 
L 483.868034 53.82048 
L 484.699014 53.681983 
L 485.674563 53.519392 
L 487.483889 53.217837 
L 488.073149 53.119627 
L 489.020277 52.961773 
L 489.90161 52.814884 
L 491.673526 52.519565 
L 492.748703 52.340368 
L 493.821053 52.161643 
L 494.227619 52.093882 
L 495.824683 51.827705 
L 496.597398 51.698919 
L 497.151423 51.606582 
L 498.595223 51.365948 
L 499.964793 51.137687 
L 500.631793 51.02652 
L 501.454686 50.889371 
L 503.03752 50.625565 
L 503.793413 50.499583 
L 504.361603 50.404885 
L 505.9909 50.133335 
L 506.961334 49.971596 
L 508.089805 49.783518 
L 509.083545 49.617895 
L 510.015406 49.462585 
L 510.822857 49.328009 
L 512.070467 49.120074 
L 513.258863 48.922008 
L 514.029213 48.793617 
L 514.711607 48.679884 
L 515.671022 48.519982 
L 516.739292 48.341937 
L 518.624053 48.02781 
L 519.648138 47.857129 
L 520.632286 47.693105 
L 521.625747 47.527528 
L 522.256232 47.422447 
L 523.348585 47.240388 
L 524.347791 47.073854 
L 525.433088 46.892971 
L 526.750883 46.673338 
L 527.964024 46.471148 
L 528.209203 46.430285 
L 529.323493 46.24457 
L 530.52014 46.045129 
L 532.015842 45.795845 
L 533.012064 45.629808 
L 533.990121 45.466799 
L 534.301076 45.414973 
L 536.004324 45.131098 
L 536.306492 45.080737 
L 538.12922 44.776949 
L 538.679909 44.685167 
L 540.180522 44.435065 
L 540.475542 44.385895 
L 541.887929 44.150497 
L 542.540162 44.041792 
L 544.395644 43.732545 
L 544.918079 43.645472 
L 545.660613 43.521717 
L 547.471896 43.219836 
L 548.199078 43.098639 
L 549.045771 42.957524 
L 550.423688 42.727871 
L 550.821238 42.661613 
L 552.557206 42.372285 
L 553.030739 42.293362 
L 554.039766 42.125191 
L 555.332866 41.909675 
L 556.310455 41.746743 
L 557.14984 41.606846 
L 558.289241 41.416945 
L 559.868335 41.153763 
L 560.942761 40.974692 
L 561.287984 40.917155 
L 562.529887 40.710171 
" style="fill:none;stroke:#000000;stroke-linecap:square;stroke-width:2;"/>
   </g>
   <g id="line2d_5">
    <path clip-path="url(#p037270f5af)" d="M 15.024247 86.335641 
L 151.900657 17.897436 
L 151.900657 17.897436 
" style="fill:none;stroke:#ff0000;stroke-linecap:square;stroke-width:2;"/>
   </g>
   <g id="line2d_6">
    <path clip-path="url(#p037270f5af)" d="M 151.900657 63.522906 
L 357.215272 29.303803 
L 357.215272 29.303803 
" style="fill:none;stroke:#00ffff;stroke-linecap:square;stroke-width:2;"/>
   </g>
   <g id="line2d_7">
    <path clip-path="url(#p037270f5af)" d="M 357.215272 74.929273 
L 562.529887 40.710171 
L 562.529887 40.710171 
" style="fill:none;stroke:#00ffff;stroke-linecap:square;stroke-width:2;"/>
   </g>
   <g id="PathCollection_1">
    <path clip-path="url(#p037270f5af)" d="M 151.900657 20.295352 
C 152.536592 20.295352 153.146566 20.042692 153.59624 19.593018 
C 154.045914 19.143345 154.298573 18.533371 154.298573 17.897436 
C 154.298573 17.261501 154.045914 16.651527 153.59624 16.201853 
C 153.146566 15.75218 152.536592 15.49952 151.900657 15.49952 
C 151.264723 15.49952 150.654749 15.75218 150.205075 16.201853 
C 149.755401 16.651527 149.502742 17.261501 149.502742 17.897436 
C 149.502742 18.533371 149.755401 19.143345 150.205075 19.593018 
C 150.654749 20.042692 151.264723 20.295352 151.900657 20.295352 
z
"/>
   </g>
   <g id="PathCollection_2">
    <path clip-path="url(#p037270f5af)" d="M 151.900657 65.920822 
C 152.536592 65.920822 153.146566 65.668162 153.59624 65.218488 
C 154.045914 64.768815 154.298573 64.158841 154.298573 63.522906 
C 154.298573 62.886971 154.045914 62.276997 153.59624 61.827323 
C 153.146566 61.37765 152.536592 61.12499 151.900657 61.12499 
C 151.264723 61.12499 150.654749 61.37765 150.205075 61.827323 
C 149.755401 62.276997 149.502742 62.886971 149.502742 63.522906 
C 149.502742 64.158841 149.755401 64.768815 150.205075 65.218488 
C 150.654749 65.668162 151.264723 65.920822 151.900657 65.920822 
z
"/>
   </g>
   <g id="PathCollection_3">
    <path clip-path="url(#p037270f5af)" d="M 151.900657 65.104045 
C 152.31998 65.104045 152.722185 64.937446 153.018691 64.64094 
C 153.315197 64.344434 153.481796 63.942229 153.481796 63.522906 
C 153.481796 63.103583 153.315197 62.701378 153.018691 62.404872 
C 152.722185 62.108366 152.31998 61.941767 151.900657 61.941767 
C 151.481334 61.941767 151.079129 62.108366 150.782623 62.404872 
C 150.486117 62.701378 150.319519 63.103583 150.319519 63.522906 
C 150.319519 63.942229 150.486117 64.344434 150.782623 64.64094 
C 151.079129 64.937446 151.481334 65.104045 151.900657 65.104045 
z
" style="fill:#ffffff;"/>
   </g>
   <g id="PathCollection_4">
    <path clip-path="url(#p037270f5af)" d="M 357.215272 31.701719 
C 357.851207 31.701719 358.461181 31.44906 358.910855 30.999386 
C 359.360529 30.549712 359.613188 29.939738 359.613188 29.303803 
C 359.613188 28.667869 359.360529 28.057895 358.910855 27.608221 
C 358.461181 27.158547 357.851207 26.905888 357.215272 26.905888 
C 356.579338 26.905888 355.969364 27.158547 355.51969 27.608221 
C 355.070016 28.057895 354.817357 28.667869 354.817357 29.303803 
C 354.817357 29.939738 355.070016 30.549712 355.51969 30.999386 
C 355.969364 31.44906 356.579338 31.701719 357.215272 31.701719 
z
"/>
   </g>
   <g id="PathCollection_5">
    <path clip-path="url(#p037270f5af)" d="M 357.215272 30.884942 
C 357.634595 30.884942 358.0368 30.718344 358.333306 30.421837 
C 358.629812 30.125331 358.796411 29.723126 358.796411 29.303803 
C 358.796411 28.884481 358.629812 28.482276 358.333306 28.185769 
C 358.0368 27.889263 357.634595 27.722665 357.215272 27.722665 
C 356.795949 27.722665 356.393744 27.889263 356.097238 28.185769 
C 355.800732 28.482276 355.634133 28.884481 355.634133 29.303803 
C 355.634133 29.723126 355.800732 30.125331 356.097238 30.421837 
C 356.393744 30.718344 356.795949 30.884942 357.215272 30.884942 
z
" style="fill:#ffffff;"/>
   </g>
   <g id="PathCollection_6">
    <path clip-path="url(#p037270f5af)" d="M 357.215272 54.514454 
C 357.851207 54.514454 358.461181 54.261795 358.910855 53.812121 
C 359.360529 53.362447 359.613188 52.752473 359.613188 52.116538 
C 359.613188 51.480604 359.360529 50.87063 358.910855 50.420956 
C 358.461181 49.971282 357.851207 49.718623 357.215272 49.718623 
C 356.579338 49.718623 355.969364 49.971282 355.51969 50.420956 
C 355.070016 50.87063 354.817357 51.480604 354.817357 52.116538 
C 354.817357 52.752473 355.070016 53.362447 355.51969 53.812121 
C 355.969364 54.261795 356.579338 54.514454 357.215272 54.514454 
z
"/>
   </g>
   <g id="PathCollection_7">
    <path clip-path="url(#p037270f5af)" d="M 357.215272 54.514454 
C 357.851207 54.514454 358.461181 54.261795 358.910855 53.812121 
C 359.360529 53.362447 359.613188 52.752473 359.613188 52.116538 
C 359.613188 51.480604 359.360529 50.87063 358.910855 50.420956 
C 358.461181 49.971282 357.851207 49.718623 357.215272 49.718623 
C 356.579338 49.718623 355.969364 49.971282 355.51969 50.420956 
C 355.070016 50.87063 354.817357 51.480604 354.817357 52.116538 
C 354.817357 52.752473 355.070016 53.362447 355.51969 53.812121 
C 355.969364 54.261795 356.579338 54.514454 357.215272 54.514454 
z
"/>
   </g>
   <g id="PathCollection_8">
    <path clip-path="url(#p037270f5af)" d="M 357.215272 54.514454 
C 357.851207 54.514454 358.461181 54.261795 358.910855 53.812121 
C 359.360529 53.362447 359.613188 52.752473 359.613188 52.116538 
C 359.613188 51.480604 359.360529 50.87063 358.910855 50.420956 
C 358.461181 49.971282 357.851207 49.718623 357.215272 49.718623 
C 356.579338 49.718623 355.969364 49.971282 355.51969 50.420956 
C 355.070016 50.87063 354.817357 51.480604 354.817357 52.116538 
C 354.817357 52.752473 355.070016 53.362447 355.51969 53.812121 
C 355.969364 54.261795 356.579338 54.514454 357.215272 54.514454 
z
"/>
   </g>
   <g id="PathCollection_9">
    <path clip-path="url(#p037270f5af)" d="M 357.215272 77.327189 
C 357.851207 77.327189 358.461181 77.07453 358.910855 76.624856 
C 359.360529 76.175182 359.613188 75.565208 359.613188 74.929273 
C 359.613188 74.293339 359.360529 73.683365 358.910855 73.233691 
C 358.461181 72.784017 357.851207 72.531358 357.215272 72.531358 
C 356.579338 72.531358 355.969364 72.784017 355.51969 73.233691 
C 355.070016 73.683365 354.817357 74.293339 354.817357 74.929273 
C 354.817357 75.565208 355.070016 76.175182 355.51969 76.624856 
C 355.969364 77.07453 356.579338 77.327189 357.215272 77.327189 
z
"/>
   </g>
   <g id="PathCollection_10">
    <path clip-path="url(#p037270f5af)" d="M 357.215272 76.510412 
C 357.634595 76.510412 358.0368 76.343814 358.333306 76.047307 
C 358.629812 75.750801 358.796411 75.348596 358.796411 74.929273 
C 358.796411 74.509951 358.629812 74.107746 358.333306 73.811239 
C 358.0368 73.514733 357.634595 73.348135 357.215272 73.348135 
C 356.795949 73.348135 356.393744 73.514733 356.097238 73.811239 
C 355.800732 74.107746 355.634133 74.509951 355.634133 74.929273 
C 355.634133 75.348596 355.800732 75.750801 356.097238 76.047307 
C 356.393744 76.343814 356.795949 76.510412 357.215272 76.510412 
z
" style="fill:#ffffff;"/>
   </g>
   <g id="PathCollection_11">
    <path clip-path="url(#p037270f5af)" d="M 562.529887 43.108087 
C 563.165822 43.108087 563.775796 42.855427 564.22547 42.405753 
C 564.675143 41.95608 564.927803 41.346106 564.927803 40.710171 
C 564.927803 40.074236 564.675143 39.464262 564.22547 39.014588 
C 563.775796 38.564915 563.165822 38.312255 562.529887 38.312255 
C 561.893953 38.312255 561.283978 38.564915 560.834305 39.014588 
C 560.384631 39.464262 560.131971 40.074236 560.131971 40.710171 
C 560.131971 41.346106 560.384631 41.95608 560.834305 42.405753 
C 561.283978 42.855427 561.893953 43.108087 562.529887 43.108087 
z
"/>
   </g>
   <g id="PathCollection_12">
    <path clip-path="url(#p037270f5af)" d="M 562.529887 42.29131 
C 562.94921 42.29131 563.351415 42.124711 563.647921 41.828205 
C 563.944427 41.531699 564.111026 41.129494 564.111026 40.710171 
C 564.111026 40.290848 563.944427 39.888643 563.647921 39.592137 
C 563.351415 39.295631 562.94921 39.129032 562.529887 39.129032 
C 562.110564 39.129032 561.708359 39.295631 561.411853 39.592137 
C 561.115347 39.888643 560.948748 40.290848 560.948748 40.710171 
C 560.948748 41.129494 561.115347 41.531699 561.411853 41.828205 
C 561.708359 42.124711 562.110564 42.29131 562.529887 42.29131 
z
" style="fill:#ffffff;"/>
   </g>
   <g id="PathCollection_13">
    <path clip-path="url(#p037270f5af)" d="M 562.529887 88.733557 
C 563.165822 88.733557 563.775796 88.480897 564.22547 88.031223 
C 564.675143 87.58155 564.927803 86.971576 564.927803 86.335641 
C 564.927803 85.699706 564.675143 85.089732 564.22547 84.640058 
C 563.775796 84.190385 563.165822 83.937725 562.529887 83.937725 
C 561.893953 83.937725 561.283978 84.190385 560.834305 84.640058 
C 560.384631 85.089732 560.131971 85.699706 560.131971 86.335641 
C 560.131971 86.971576 560.384631 87.58155 560.834305 88.031223 
C 561.283978 88.480897 561.893953 88.733557 562.529887 88.733557 
z
"/>
   </g>
   <g id="PathCollection_14">
    <path clip-path="url(#p037270f5af)" d="M 562.529887 88.733557 
C 563.165822 88.733557 563.775796 88.480897 564.22547 88.031223 
C 564.675143 87.58155 564.927803 86.971576 564.927803 86.335641 
C 564.927803 85.699706 564.675143 85.089732 564.22547 84.640058 
C 563.775796 84.190385 563.165822 83.937725 562.529887 83.937725 
C 561.893953 83.937725 561.283978 84.190385 560.834305 84.640058 
C 560.384631 85.089732 560.131971 85.699706 560.131971 86.335641 
C 560.131971 86.971576 560.384631 87.58155 560.834305 88.031223 
C 561.283978 88.480897 561.893953 88.733557 562.529887 88.733557 
z
"/>
   </g>
   <g id="matplotlib.axis_1">
    <g id="xtick_1">
     <g id="line2d_8">
      <path clip-path="url(#p037270f5af)" d="M 15.024247 87.704405 
L 15.024247 16.528672 
" style="fill:none;stroke:#000000;stroke-dasharray:0.5,0.825;stroke-dashoffset:0;stroke-width:0.5;"/>
     </g>
     <g id="line2d_9">
      <defs>
       <path d="M 0 0 
L 0 3.5 
" id="m08ff84b253" style="stroke:#000000;stroke-width:0.8;"/>
      </defs>
      <g>
       <use style="stroke:#000000;stroke-width:0.8;" x="15.024247" xlink:href="#m08ff84b253" y="86.335641"/>
      </g>
     </g>
    </g>
    <g id="xtick_2">
     <g id="line2d_10">
      <path clip-path="url(#p037270f5af)" d="M 151.900657 87.704405 
L 151.900657 16.528672 
" style="fill:none;stroke:#000000;stroke-dasharray:0.5,0.825;stroke-dashoffset:0;stroke-width:0.5;"/>
     </g>
     <g id="line2d_11">
      <g>
       <use style="stroke:#000000;stroke-width:0.8;" x="151.900657" xlink:href="#m08ff84b253" y="86.335641"/>
      </g>
     </g>
     <g id="text_1">
      <!-- $f$ -->
      <defs>
       <path d="M 9.71875 -16.5 
Q 11.578125 -17.921875 14.203125 -17.921875 
Q 17.78125 -17.921875 20.015625 -10.015625 
Q 20.953125 -6.203125 25.09375 15.09375 
L 29.6875 39.59375 
L 21.09375 39.59375 
Q 20.125 39.59375 20.125 40.921875 
Q 20.515625 43.109375 21.390625 43.109375 
L 30.328125 43.109375 
L 31.5 49.609375 
Q 32.078125 52.640625 32.5625 54.8125 
Q 33.0625 56.984375 33.625 58.828125 
Q 34.1875 60.6875 35.296875 62.984375 
Q 37.015625 66.265625 39.921875 68.390625 
Q 42.828125 70.515625 46.1875 70.515625 
Q 48.390625 70.515625 50.46875 69.703125 
Q 52.546875 68.890625 53.859375 67.28125 
Q 55.171875 65.671875 55.171875 63.484375 
Q 55.171875 60.9375 53.484375 59.046875 
Q 51.8125 57.171875 49.421875 57.171875 
Q 47.796875 57.171875 46.65625 58.171875 
Q 45.515625 59.1875 45.515625 60.796875 
Q 45.515625 62.984375 47 64.625 
Q 48.484375 66.265625 50.6875 66.5 
Q 48.828125 67.921875 46.09375 67.921875 
Q 44.578125 67.921875 43.234375 66.5 
Q 41.890625 65.09375 41.5 63.484375 
Q 40.875 60.9375 38.71875 49.703125 
L 37.5 43.109375 
L 47.796875 43.109375 
Q 48.78125 43.109375 48.78125 41.796875 
Q 48.734375 41.546875 48.578125 40.9375 
Q 48.4375 40.328125 48.171875 39.953125 
Q 47.90625 39.59375 47.515625 39.59375 
L 36.8125 39.59375 
L 32.171875 15.1875 
Q 31.296875 9.859375 30.140625 4.359375 
Q 29 -1.125 26.921875 -6.90625 
Q 24.859375 -12.703125 21.625 -16.609375 
Q 18.40625 -20.515625 14.015625 -20.515625 
Q 10.640625 -20.515625 7.984375 -18.578125 
Q 5.328125 -16.65625 5.328125 -13.484375 
Q 5.328125 -10.9375 6.953125 -9.046875 
Q 8.59375 -7.171875 11.078125 -7.171875 
Q 12.75 -7.171875 13.859375 -8.171875 
Q 14.984375 -9.1875 14.984375 -10.796875 
Q 14.984375 -12.9375 13.390625 -14.71875 
Q 11.8125 -16.5 9.71875 -16.5 
z
" id="Cmmi10-66"/>
      </defs>
      <g transform="translate(149.450657 100.913766)scale(0.1 -0.1)">
       <use transform="translate(0 0.484375)" xlink:href="#Cmmi10-66"/>
      </g>
     </g>
    </g>
    <g id="xtick_3">
     <g id="line2d_12">
      <path clip-path="url(#p037270f5af)" d="M 562.529887 87.704405 
L 562.529887 16.528672 
" style="fill:none;stroke:#000000;stroke-dasharray:0.5,0.825;stroke-dashoffset:0;stroke-width:0.5;"/>
     </g>
     <g id="line2d_13">
      <g>
       <use style="stroke:#000000;stroke-width:0.8;" x="562.529887" xlink:href="#m08ff84b253" y="86.335641"/>
      </g>
     </g>
     <g id="text_2">
      <!-- $1$ -->
      <defs>
       <path d="M 9.28125 0 
L 9.28125 3.515625 
Q 21.78125 3.515625 21.78125 6.6875 
L 21.78125 59.1875 
Q 16.609375 56.6875 8.6875 56.6875 
L 8.6875 60.203125 
Q 20.953125 60.203125 27.203125 66.609375 
L 28.609375 66.609375 
Q 28.953125 66.609375 29.265625 66.328125 
Q 29.59375 66.0625 29.59375 65.71875 
L 29.59375 6.6875 
Q 29.59375 3.515625 42.09375 3.515625 
L 42.09375 0 
z
" id="Cmr10-31"/>
      </defs>
      <g transform="translate(560.029887 100.934078)scale(0.1 -0.1)">
       <use transform="translate(0 0.390625)" xlink:href="#Cmr10-31"/>
      </g>
     </g>
    </g>
   </g>
   <g id="matplotlib.axis_2">
    <g id="ytick_1">
     <g id="line2d_14">
      <path clip-path="url(#p037270f5af)" d="M 4.074135 86.335641 
L 573.48 86.335641 
" style="fill:none;stroke:#000000;stroke-dasharray:0.5,0.825;stroke-dashoffset:0;stroke-width:0.5;"/>
     </g>
     <g id="line2d_15">
      <defs>
       <path d="M 0 0 
L -3.5 0 
" id="m3aa4cc8921" style="stroke:#000000;stroke-width:0.8;"/>
      </defs>
      <g>
       <use style="stroke:#000000;stroke-width:0.8;" x="15.024247" xlink:href="#m3aa4cc8921" y="86.335641"/>
      </g>
     </g>
    </g>
    <g id="ytick_2">
     <g id="line2d_16">
      <path clip-path="url(#p037270f5af)" d="M 4.074135 17.897436 
L 573.48 17.897436 
" style="fill:none;stroke:#000000;stroke-dasharray:0.5,0.825;stroke-dashoffset:0;stroke-width:0.5;"/>
     </g>
     <g id="line2d_17">
      <g>
       <use style="stroke:#000000;stroke-width:0.8;" x="15.024247" xlink:href="#m3aa4cc8921" y="17.897436"/>
      </g>
     </g>
     <g id="text_3">
      <!-- $1$ -->
      <g transform="translate(3.024247 21.696655)scale(0.1 -0.1)">
       <use transform="translate(0 0.390625)" xlink:href="#Cmr10-31"/>
      </g>
     </g>
    </g>
   </g>
   <g id="patch_3">
    <path d="M 15.024247 87.704405 
L 15.024247 16.528672 
" style="fill:none;stroke:#000000;stroke-linecap:square;stroke-linejoin:miter;stroke-width:0.8;"/>
   </g>
   <g id="patch_4">
    <path d="M 4.074135 86.335641 
L 573.48 86.335641 
" style="fill:none;stroke:#000000;stroke-linecap:square;stroke-linejoin:miter;stroke-width:0.8;"/>
   </g>
  </g>
 </g>
 <defs>
  <clipPath id="p037270f5af">
   <rect height="71.175733" width="569.405865" x="4.074135" y="16.528672"/>
  </clipPath>
 </defs>
</svg>
