<?xml version="1.0" encoding="utf-8" standalone="no"?>
<!DOCTYPE svg PUBLIC "-//W3C//DTD SVG 1.1//EN"
  "http://www.w3.org/Graphics/SVG/1.1/DTD/svg11.dtd">
<!-- Created with matplotlib (http://matplotlib.org/) -->
<svg height="108pt" version="1.1" viewBox="0 0 576 108" width="576pt" xmlns="http://www.w3.org/2000/svg" xmlns:xlink="http://www.w3.org/1999/xlink">
 <defs>
  <style type="text/css">
*{stroke-linecap:butt;stroke-linejoin:round;}
  </style>
 </defs>
 <g id="figure_1">
  <g id="patch_1">
   <path d="M 0 108 
L 576 108 
L 576 0 
L 0 0 
z
" style="fill:#ffffff;"/>
  </g>
  <g id="axes_1">
   <g id="patch_2">
    <path d="M 8.756652 91.079231 
L 285.48 91.079231 
L 285.48 2.52 
L 8.756652 2.52 
z
" style="fill:#ffffff;"/>
   </g>
   <g id="line2d_1">
    <path clip-path="url(#pb8bef3d9c2)" d="M 226.942369 4.223062 
L 280.158397 89.376169 
L 280.158397 89.376169 
" style="fill:none;stroke:#ff0000;stroke-linecap:square;"/>
   </g>
   <g id="line2d_2">
    <path clip-path="url(#pb8bef3d9c2)" d="M 14.078255 89.376169 
L 226.942369 4.223062 
L 226.942369 4.223062 
" style="fill:none;stroke:#00ffff;stroke-linecap:square;"/>
   </g>
   <g id="matplotlib.axis_1">
    <g id="xtick_1">
     <g id="line2d_3">
      <path clip-path="url(#pb8bef3d9c2)" d="M 14.078255 91.079231 
L 14.078255 2.52 
" style="fill:none;stroke:#000000;stroke-dasharray:0.5,0.825;stroke-dashoffset:0;stroke-width:0.5;"/>
     </g>
     <g id="line2d_4">
      <defs>
       <path d="M 0 0 
L 0 3.5 
" id="m43bf82cd60" style="stroke:#000000;stroke-width:0.8;"/>
      </defs>
      <g>
       <use style="stroke:#000000;stroke-width:0.8;" x="14.078255" xlink:href="#m43bf82cd60" y="89.376169"/>
      </g>
     </g>
    </g>
    <g id="xtick_2">
     <g id="line2d_5">
      <path clip-path="url(#pb8bef3d9c2)" d="M 226.942369 91.079231 
L 226.942369 2.52 
" style="fill:none;stroke:#000000;stroke-dasharray:0.5,0.825;stroke-dashoffset:0;stroke-width:0.5;"/>
     </g>
     <g id="line2d_6">
      <g>
       <use style="stroke:#000000;stroke-width:0.8;" x="226.942369" xlink:href="#m43bf82cd60" y="89.376169"/>
      </g>
     </g>
     <g id="text_1">
      <!-- $f$ -->
      <defs>
       <path d="M 9.71875 -16.5 
Q 11.578125 -17.921875 14.203125 -17.921875 
Q 17.78125 -17.921875 20.015625 -10.015625 
Q 20.953125 -6.203125 25.09375 15.09375 
L 29.6875 39.59375 
L 21.09375 39.59375 
Q 20.125 39.59375 20.125 40.921875 
Q 20.515625 43.109375 21.390625 43.109375 
L 30.328125 43.109375 
L 31.5 49.609375 
Q 32.078125 52.640625 32.5625 54.8125 
Q 33.0625 56.984375 33.625 58.828125 
Q 34.1875 60.6875 35.296875 62.984375 
Q 37.015625 66.265625 39.921875 68.390625 
Q 42.828125 70.515625 46.1875 70.515625 
Q 48.390625 70.515625 50.46875 69.703125 
Q 52.546875 68.890625 53.859375 67.28125 
Q 55.171875 65.671875 55.171875 63.484375 
Q 55.171875 60.9375 53.484375 59.046875 
Q 51.8125 57.171875 49.421875 57.171875 
Q 47.796875 57.171875 46.65625 58.171875 
Q 45.515625 59.1875 45.515625 60.796875 
Q 45.515625 62.984375 47 64.625 
Q 48.484375 66.265625 50.6875 66.5 
Q 48.828125 67.921875 46.09375 67.921875 
Q 44.578125 67.921875 43.234375 66.5 
Q 41.890625 65.09375 41.5 63.484375 
Q 40.875 60.9375 38.71875 49.703125 
L 37.5 43.109375 
L 47.796875 43.109375 
Q 48.78125 43.109375 48.78125 41.796875 
Q 48.734375 41.546875 48.578125 40.9375 
Q 48.4375 40.328125 48.171875 39.953125 
Q 47.90625 39.59375 47.515625 39.59375 
L 36.8125 39.59375 
L 32.171875 15.1875 
Q 31.296875 9.859375 30.140625 4.359375 
Q 29 -1.125 26.921875 -6.90625 
Q 24.859375 -12.703125 21.625 -16.609375 
Q 18.40625 -20.515625 14.015625 -20.515625 
Q 10.640625 -20.515625 7.984375 -18.578125 
Q 5.328125 -16.65625 5.328125 -13.484375 
Q 5.328125 -10.9375 6.953125 -9.046875 
Q 8.59375 -7.171875 11.078125 -7.171875 
Q 12.75 -7.171875 13.859375 -8.171875 
Q 14.984375 -9.1875 14.984375 -10.796875 
Q 14.984375 -12.9375 13.390625 -14.71875 
Q 11.8125 -16.5 9.71875 -16.5 
z
" id="Cmmi10-66"/>
      </defs>
      <g transform="translate(224.492369 103.954294)scale(0.1 -0.1)">
       <use transform="translate(0 0.484375)" xlink:href="#Cmmi10-66"/>
      </g>
     </g>
    </g>
    <g id="xtick_3">
     <g id="line2d_7">
      <path clip-path="url(#pb8bef3d9c2)" d="M 280.158397 91.079231 
L 280.158397 2.52 
" style="fill:none;stroke:#000000;stroke-dasharray:0.5,0.825;stroke-dashoffset:0;stroke-width:0.5;"/>
     </g>
     <g id="line2d_8">
      <g>
       <use style="stroke:#000000;stroke-width:0.8;" x="280.158397" xlink:href="#m43bf82cd60" y="89.376169"/>
      </g>
     </g>
     <g id="text_2">
      <!-- $1$ -->
      <defs>
       <path d="M 9.28125 0 
L 9.28125 3.515625 
Q 21.78125 3.515625 21.78125 6.6875 
L 21.78125 59.1875 
Q 16.609375 56.6875 8.6875 56.6875 
L 8.6875 60.203125 
Q 20.953125 60.203125 27.203125 66.609375 
L 28.609375 66.609375 
Q 28.953125 66.609375 29.265625 66.328125 
Q 29.59375 66.0625 29.59375 65.71875 
L 29.59375 6.6875 
Q 29.59375 3.515625 42.09375 3.515625 
L 42.09375 0 
z
" id="Cmr10-31"/>
      </defs>
      <g transform="translate(277.658397 103.974606)scale(0.1 -0.1)">
       <use transform="translate(0 0.390625)" xlink:href="#Cmr10-31"/>
      </g>
     </g>
    </g>
   </g>
   <g id="matplotlib.axis_2">
    <g id="ytick_1">
     <g id="line2d_9">
      <path clip-path="url(#pb8bef3d9c2)" d="M 8.756652 89.376169 
L 285.48 89.376169 
" style="fill:none;stroke:#000000;stroke-dasharray:0.5,0.825;stroke-dashoffset:0;stroke-width:0.5;"/>
     </g>
     <g id="line2d_10">
      <defs>
       <path d="M 0 0 
L -3.5 0 
" id="m8d460b39e8" style="stroke:#000000;stroke-width:0.8;"/>
      </defs>
      <g>
       <use style="stroke:#000000;stroke-width:0.8;" x="14.078255" xlink:href="#m8d460b39e8" y="89.376169"/>
      </g>
     </g>
    </g>
    <g id="ytick_2">
     <g id="line2d_11">
      <path clip-path="url(#pb8bef3d9c2)" d="M 8.756652 4.223062 
L 285.48 4.223062 
" style="fill:none;stroke:#000000;stroke-dasharray:0.5,0.825;stroke-dashoffset:0;stroke-width:0.5;"/>
     </g>
     <g id="line2d_12">
      <g>
       <use style="stroke:#000000;stroke-width:0.8;" x="14.078255" xlink:href="#m8d460b39e8" y="4.223062"/>
      </g>
     </g>
     <g id="text_3">
      <!-- $1$ -->
      <g transform="translate(2.078255 8.022281)scale(0.1 -0.1)">
       <use transform="translate(0 0.390625)" xlink:href="#Cmr10-31"/>
      </g>
     </g>
    </g>
   </g>
   <g id="patch_3">
    <path d="M 14.078255 91.079231 
L 14.078255 2.52 
" style="fill:none;stroke:#000000;stroke-linecap:square;stroke-linejoin:miter;stroke-width:0.8;"/>
   </g>
   <g id="patch_4">
    <path d="M 8.756652 89.376169 
L 285.48 89.376169 
" style="fill:none;stroke:#000000;stroke-linecap:square;stroke-linejoin:miter;stroke-width:0.8;"/>
   </g>
  </g>
  <g id="axes_2">
   <g id="patch_5">
    <path d="M 296.756652 91.079231 
L 573.48 91.079231 
L 573.48 2.52 
L 296.756652 2.52 
z
" style="fill:#ffffff;"/>
   </g>
   <g id="line2d_13">
    <path clip-path="url(#p6d85140026)" d="M 355.294283 4.223062 
L 356.045384 4.523529 
L 357.399375 5.065173 
L 358.206277 5.387962 
L 359.102305 5.746404 
L 360.492747 6.30263 
L 361.35683 6.648293 
L 362.88307 7.258843 
L 363.997095 7.704492 
L 364.559317 7.9294 
L 366.157291 8.568646 
L 367.279667 9.017636 
L 367.698363 9.185129 
L 369.580547 9.938068 
L 370.685306 10.380011 
L 371.746484 10.804519 
L 372.924184 11.27564 
L 373.700533 11.586207 
L 374.307564 11.829041 
L 375.147964 12.16523 
L 376.563208 12.731378 
L 377.727978 13.197326 
L 378.794472 13.623961 
L 379.783045 14.019425 
L 381.018863 14.513795 
L 381.709768 14.790182 
L 383.366045 15.452751 
L 384.021157 15.714819 
L 385.143235 16.163689 
L 385.922451 16.475403 
L 387.447879 17.085627 
L 388.899582 17.666359 
L 389.741457 18.003139 
L 390.380557 18.258801 
L 392.013006 18.911838 
L 392.46535 19.092792 
L 393.424825 19.476615 
L 394.705886 19.989085 
L 396.03562 20.521025 
L 397.296696 21.0255 
L 398.493769 21.50437 
L 399.430206 21.878978 
L 400.32091 22.235291 
L 401.556015 22.729376 
L 401.934528 22.880795 
L 403.576001 23.537442 
L 404.36215 23.851929 
L 405.718606 24.394559 
L 406.495605 24.705385 
L 407.278032 25.018384 
L 409.238985 25.802833 
L 410.368706 26.254762 
L 410.731205 26.399774 
L 412.160976 26.971733 
L 412.687945 27.182538 
L 414.090814 27.743735 
L 415.552511 28.328465 
L 416.507089 28.71033 
L 417.658051 29.170755 
L 418.692914 29.584737 
L 419.604831 29.949535 
L 420.254447 30.209404 
L 421.980771 30.899994 
L 422.485399 31.101863 
L 423.819094 31.635388 
L 425.004407 32.109555 
L 426.007641 32.510884 
L 427.350563 33.048099 
L 428.508608 33.511358 
L 429.214747 33.793839 
L 429.807726 34.031051 
L 430.862535 34.453011 
L 432.754346 35.209802 
L 433.06213 35.332927 
L 434.14871 35.767597 
L 435.020904 36.116505 
L 436.200029 36.588196 
L 437.993713 37.305733 
L 439.095275 37.746396 
L 440.06547 38.134508 
L 440.463223 38.293623 
L 441.86329 38.853699 
L 443.197162 39.387294 
L 444.168967 39.776051 
L 445.206029 40.190912 
L 445.90757 40.471553 
L 446.904652 40.870421 
L 448.493278 41.505927 
L 449.345285 41.846759 
L 450.48475 42.302585 
L 451.719071 42.796357 
L 452.123795 42.958261 
L 453.625007 43.558798 
L 454.481703 43.901507 
L 455.699193 44.388545 
L 457.324242 45.038622 
L 457.534595 45.12277 
L 459.019708 45.716867 
L 459.903443 46.070393 
L 461.66925 46.776777 
L 462.544296 47.126826 
L 463.284037 47.422749 
" style="fill:none;stroke:#ff0000;stroke-linecap:square;"/>
   </g>
   <g id="line2d_14">
    <path clip-path="url(#p6d85140026)" d="M 466.759242 48.812952 
L 467.13981 48.965193 
L 469.019694 49.717212 
L 469.281679 49.822016 
L 470.876782 50.460113 
L 471.677767 50.780535 
L 472.659947 51.173441 
L 474.143766 51.767021 
L 474.744363 52.007281 
L 476.490109 52.70564 
L 477.252031 53.010436 
L 477.992777 53.30676 
L 479.142053 53.766511 
L 480.750367 54.409893 
L 481.729436 54.801555 
L 482.900728 55.270113 
L 483.724972 55.599839 
L 484.71772 55.996973 
L 485.568035 56.337129 
L 487.139469 56.965758 
L 487.529582 57.121817 
L 488.680783 57.582337 
L 489.949081 58.089701 
L 491.310937 58.634491 
L 491.746827 58.808862 
L 493.642506 59.5672 
L 494.503554 59.91165 
L 495.296019 60.228663 
L 496.208671 60.593756 
L 497.97257 61.299378 
L 498.140267 61.366462 
L 499.851154 62.050877 
L 500.906899 62.473212 
L 501.413976 62.676061 
L 502.860907 63.254884 
L 503.753653 63.612014 
L 505.100791 64.150916 
L 505.904245 64.472326 
L 506.808731 64.834152 
L 508.454229 65.492409 
L 509.364201 65.85643 
L 509.960298 66.094889 
L 511.783179 66.824106 
L 512.094709 66.948728 
L 514.046822 67.729642 
L 514.687576 67.985966 
L 515.401875 68.27171 
L 516.984231 68.904708 
L 518.229964 69.403045 
L 518.832979 69.644272 
L 519.785885 70.025468 
L 520.643123 70.368393 
L 522.617927 71.158384 
L 523.417064 71.478067 
L 524.417551 71.878297 
L 525.10215 72.152161 
L 526.838363 72.846707 
L 527.765348 73.217533 
L 529.048761 73.730943 
L 529.85248 74.052459 
L 530.630575 74.363724 
L 531.963795 74.897059 
L 533.075009 75.341584 
L 533.463181 75.496866 
L 535.369011 76.259265 
L 536.036892 76.526441 
L 537.48188 77.104487 
L 538.717915 77.598944 
L 538.896834 77.670518 
L 540.586466 78.34643 
L 541.422172 78.680742 
L 541.98818 78.907165 
L 543.762333 79.616888 
L 545.009154 80.11566 
L 545.768562 80.41945 
L 546.816235 80.838556 
L 547.68724 81.186988 
L 548.382128 81.464968 
L 549.765545 82.018383 
L 550.748426 82.41157 
L 552.407396 83.075216 
L 553.497888 83.511451 
L 554.613077 83.957566 
L 554.861517 84.05695 
L 556.553436 84.733777 
L 557.062269 84.937329 
L 558.85596 85.654868 
L 559.540601 85.928748 
L 561.12013 86.560615 
L 562.241495 87.0092 
L 562.770715 87.220907 
L 564.346243 87.851173 
L 564.695876 87.991039 
L 565.507504 88.315718 
L 567.548372 89.132137 
L 568.158397 89.376169 
" style="fill:none;stroke:#ff0000;stroke-linecap:square;"/>
   </g>
   <g id="line2d_15">
    <path clip-path="url(#p6d85140026)" d="M 302.078255 89.376169 
L 355.294283 4.223062 
L 355.294283 4.223062 
" style="fill:none;stroke:#00ffff;stroke-linecap:square;"/>
   </g>
   <g id="matplotlib.axis_3">
    <g id="xtick_4">
     <g id="line2d_16">
      <path clip-path="url(#p6d85140026)" d="M 302.078255 91.079231 
L 302.078255 2.52 
" style="fill:none;stroke:#000000;stroke-dasharray:0.5,0.825;stroke-dashoffset:0;stroke-width:0.5;"/>
     </g>
     <g id="line2d_17">
      <g>
       <use style="stroke:#000000;stroke-width:0.8;" x="302.078255" xlink:href="#m43bf82cd60" y="89.376169"/>
      </g>
     </g>
    </g>
    <g id="xtick_5">
     <g id="line2d_18">
      <path clip-path="url(#p6d85140026)" d="M 355.294283 91.079231 
L 355.294283 2.52 
" style="fill:none;stroke:#000000;stroke-dasharray:0.5,0.825;stroke-dashoffset:0;stroke-width:0.5;"/>
     </g>
     <g id="line2d_19">
      <g>
       <use style="stroke:#000000;stroke-width:0.8;" x="355.294283" xlink:href="#m43bf82cd60" y="89.376169"/>
      </g>
     </g>
     <g id="text_4">
      <!-- $f$ -->
      <g transform="translate(352.844283 103.954294)scale(0.1 -0.1)">
       <use transform="translate(0 0.484375)" xlink:href="#Cmmi10-66"/>
      </g>
     </g>
    </g>
    <g id="xtick_6">
     <g id="line2d_20">
      <path clip-path="url(#p6d85140026)" d="M 568.158397 91.079231 
L 568.158397 2.52 
" style="fill:none;stroke:#000000;stroke-dasharray:0.5,0.825;stroke-dashoffset:0;stroke-width:0.5;"/>
     </g>
     <g id="line2d_21">
      <g>
       <use style="stroke:#000000;stroke-width:0.8;" x="568.158397" xlink:href="#m43bf82cd60" y="89.376169"/>
      </g>
     </g>
     <g id="text_5">
      <!-- $1$ -->
      <g transform="translate(565.658397 103.974606)scale(0.1 -0.1)">
       <use transform="translate(0 0.390625)" xlink:href="#Cmr10-31"/>
      </g>
     </g>
    </g>
   </g>
   <g id="matplotlib.axis_4">
    <g id="ytick_3">
     <g id="line2d_22">
      <path clip-path="url(#p6d85140026)" d="M 296.756652 89.376169 
L 573.48 89.376169 
" style="fill:none;stroke:#000000;stroke-dasharray:0.5,0.825;stroke-dashoffset:0;stroke-width:0.5;"/>
     </g>
     <g id="line2d_23">
      <g>
       <use style="stroke:#000000;stroke-width:0.8;" x="302.078255" xlink:href="#m8d460b39e8" y="89.376169"/>
      </g>
     </g>
    </g>
    <g id="ytick_4">
     <g id="line2d_24">
      <path clip-path="url(#p6d85140026)" d="M 296.756652 4.223062 
L 573.48 4.223062 
" style="fill:none;stroke:#000000;stroke-dasharray:0.5,0.825;stroke-dashoffset:0;stroke-width:0.5;"/>
     </g>
     <g id="line2d_25">
      <g>
       <use style="stroke:#000000;stroke-width:0.8;" x="302.078255" xlink:href="#m8d460b39e8" y="4.223062"/>
      </g>
     </g>
     <g id="text_6">
      <!-- $1$ -->
      <g transform="translate(290.078255 8.022281)scale(0.1 -0.1)">
       <use transform="translate(0 0.390625)" xlink:href="#Cmr10-31"/>
      </g>
     </g>
    </g>
   </g>
   <g id="patch_6">
    <path d="M 302.078255 91.079231 
L 302.078255 2.52 
" style="fill:none;stroke:#000000;stroke-linecap:square;stroke-linejoin:miter;stroke-width:0.8;"/>
   </g>
   <g id="patch_7">
    <path d="M 296.756652 89.376169 
L 573.48 89.376169 
" style="fill:none;stroke:#000000;stroke-linecap:square;stroke-linejoin:miter;stroke-width:0.8;"/>
   </g>
  </g>
 </g>
 <defs>
  <clipPath id="pb8bef3d9c2">
   <rect height="88.559231" width="276.723348" x="8.756652" y="2.52"/>
  </clipPath>
  <clipPath id="p6d85140026">
   <rect height="88.559231" width="276.723348" x="296.756652" y="2.52"/>
  </clipPath>
 </defs>
</svg>
