<?xml version="1.0" encoding="utf-8" standalone="no"?>
<!DOCTYPE svg PUBLIC "-//W3C//DTD SVG 1.1//EN"
  "http://www.w3.org/Graphics/SVG/1.1/DTD/svg11.dtd">
<!-- Created with matplotlib (http://matplotlib.org/) -->
<svg height="108pt" version="1.1" viewBox="0 0 576 108" width="576pt" xmlns="http://www.w3.org/2000/svg" xmlns:xlink="http://www.w3.org/1999/xlink">
 <defs>
  <style type="text/css">
*{stroke-linecap:butt;stroke-linejoin:round;}
  </style>
 </defs>
 <g id="figure_1">
  <g id="patch_1">
   <path d="M 0 108 
L 576 108 
L 576 0 
L 0 0 
z
" style="fill:#ffffff;"/>
  </g>
  <g id="axes_1">
   <g id="patch_2">
    <path d="M 4.074135 87.704405 
L 573.48 87.704405 
L 573.48 16.528672 
L 4.074135 16.528672 
z
" style="fill:#ffffff;"/>
   </g>
   <g id="line2d_1">
    <path clip-path="url(#p4f203fcb7a)" d="M 179.275939 60.671314 
L 206.651221 60.671314 
L 206.651221 60.671314 
" style="fill:none;stroke:#ff0000;stroke-linecap:square;"/>
   </g>
   <g id="line2d_2">
    <path clip-path="url(#p4f203fcb7a)" d="M 261.401785 43.561763 
L 288.777067 43.561763 
L 288.777067 43.561763 
" style="fill:none;stroke:#ff0000;stroke-linecap:square;"/>
   </g>
   <g id="line2d_3">
    <path clip-path="url(#p4f203fcb7a)" d="M 15.024247 86.335641 
L 88.024999 63.522906 
L 88.024999 63.522906 
" style="fill:none;stroke:#00ff00;stroke-linecap:square;"/>
   </g>
   <g id="line2d_4">
    <path clip-path="url(#p4f203fcb7a)" d="M 97.150093 69.22609 
L 98.975112 68.655771 
L 98.975112 68.655771 
" style="fill:none;stroke:#00ff00;stroke-linecap:square;"/>
   </g>
   <g id="line2d_5">
    <path clip-path="url(#p4f203fcb7a)" d="M 99.887622 69.22609 
L 102.468588 68.419538 
L 102.468588 68.419538 
" style="fill:none;stroke:#00ff00;stroke-linecap:square;"/>
   </g>
   <g id="line2d_6">
    <path clip-path="url(#p4f203fcb7a)" d="M 103.759071 69.22609 
L 163.228744 50.641817 
L 163.228744 50.641817 
" style="fill:none;stroke:#00ff00;stroke-linecap:square;"/>
   </g>
   <g id="line2d_7">
    <path clip-path="url(#p4f203fcb7a)" d="M 206.651221 60.671314 
L 261.401785 43.561763 
L 261.401785 43.561763 
" style="fill:none;stroke:#00ff00;stroke-linecap:square;"/>
   </g>
   <g id="line2d_8">
    <path clip-path="url(#p4f203fcb7a)" d="M 304.824263 53.59126 
L 364.293936 35.006987 
L 364.293936 35.006987 
" style="fill:none;stroke:#00ff00;stroke-linecap:square;"/>
   </g>
   <g id="line2d_9">
    <path clip-path="url(#p4f203fcb7a)" d="M 365.584419 35.813539 
L 368.165385 35.006987 
L 368.165385 35.006987 
" style="fill:none;stroke:#00ff00;stroke-linecap:square;"/>
   </g>
   <g id="line2d_10">
    <path clip-path="url(#p4f203fcb7a)" d="M 369.077894 35.577306 
L 370.902913 35.006987 
L 370.902913 35.006987 
" style="fill:none;stroke:#00ff00;stroke-linecap:square;"/>
   </g>
   <g id="line2d_11">
    <path clip-path="url(#p4f203fcb7a)" d="M 380.028007 40.710171 
L 453.028759 17.897436 
L 453.028759 17.897436 
" style="fill:none;stroke:#00ff00;stroke-linecap:square;"/>
   </g>
   <g id="line2d_12">
    <path clip-path="url(#p4f203fcb7a)" d="M 88.024999 63.522906 
L 97.150093 69.22609 
L 97.150093 69.22609 
" style="fill:none;stroke:#0000ff;stroke-linecap:square;"/>
   </g>
   <g id="line2d_13">
    <path clip-path="url(#p4f203fcb7a)" d="M 98.975112 68.655771 
L 99.887622 69.22609 
L 99.887622 69.22609 
" style="fill:none;stroke:#0000ff;stroke-linecap:square;"/>
   </g>
   <g id="line2d_14">
    <path clip-path="url(#p4f203fcb7a)" d="M 102.468588 68.419538 
L 103.759071 69.22609 
L 103.759071 69.22609 
" style="fill:none;stroke:#0000ff;stroke-linecap:square;"/>
   </g>
   <g id="line2d_15">
    <path clip-path="url(#p4f203fcb7a)" d="M 163.228744 50.641817 
L 179.275939 60.671314 
L 179.275939 60.671314 
" style="fill:none;stroke:#0000ff;stroke-linecap:square;"/>
   </g>
   <g id="line2d_16">
    <path clip-path="url(#p4f203fcb7a)" d="M 288.777067 43.561763 
L 304.824263 53.59126 
L 304.824263 53.59126 
" style="fill:none;stroke:#0000ff;stroke-linecap:square;"/>
   </g>
   <g id="line2d_17">
    <path clip-path="url(#p4f203fcb7a)" d="M 364.293936 35.006987 
L 365.584419 35.813539 
L 365.584419 35.813539 
" style="fill:none;stroke:#0000ff;stroke-linecap:square;"/>
   </g>
   <g id="line2d_18">
    <path clip-path="url(#p4f203fcb7a)" d="M 368.165385 35.006987 
L 369.077894 35.577306 
L 369.077894 35.577306 
" style="fill:none;stroke:#0000ff;stroke-linecap:square;"/>
   </g>
   <g id="line2d_19">
    <path clip-path="url(#p4f203fcb7a)" d="M 370.902913 35.006987 
L 380.028007 40.710171 
L 380.028007 40.710171 
" style="fill:none;stroke:#0000ff;stroke-linecap:square;"/>
   </g>
   <g id="line2d_20">
    <path clip-path="url(#p4f203fcb7a)" d="M 453.028759 17.897436 
L 528.33615 64.964555 
L 528.33615 64.964555 
" style="fill:none;stroke:#0000ff;stroke-linecap:square;"/>
   </g>
   <g id="line2d_21">
    <path clip-path="url(#p4f203fcb7a)" d="M 529.965227 65.982728 
L 530.805012 66.507594 
L 531.323756 66.831809 
L 531.678133 67.053294 
L 532.506114 67.570783 
L 532.80645 67.758493 
L 533.185086 67.99514 
L 533.866328 68.420916 
L 534.531888 68.836891 
L 534.747543 68.971676 
L 535.642304 69.530901 
L 536.34124 69.967737 
L 536.58574 70.120549 
L 537.125204 70.457714 
L 537.946691 70.971143 
L 538.543007 71.343841 
L 538.971861 71.611875 
L 539.562979 71.981323 
L 539.971303 72.236526 
L 540.761312 72.730282 
L 541.078759 72.928686 
L 541.682392 73.305956 
L 542.133913 73.588157 
L 542.504313 73.819657 
L 543.01497 74.138818 
L 543.903945 74.694427 
L 544.418975 75.016321 
L 544.647937 75.159422 
L 545.2106 75.511086 
L 546.191639 76.124236 
L 546.413953 76.263182 
L 546.881738 76.555548 
L 547.622376 77.018446 
L 548.05365 77.287992 
L 548.956362 77.852187 
L 549.565098 78.232648 
L 549.616439 78.264736 
L 550.512637 78.824859 
L 550.846112 79.033281 
L 551.430849 79.398742 
L 552.189538 79.872922 
L 552.411905 80.011902 
L 553.112252 80.449619 
L 553.674364 80.800939 
L 554.124867 81.082504 
L 554.835615 81.526721 
L 555.401739 81.880548 
L 555.940399 82.217211 
L 556.391397 82.499084 
L 556.897709 82.81553 
L 557.664106 83.294528 
L 558.318308 83.703404 
L 558.910293 84.073394 
L 559.444728 84.407416 
L 559.786581 84.621074 
L 560.288518 84.934786 
L 560.873533 85.300419 
L 561.479406 85.67909 
L 561.878985 85.928827 
L 562.529887 86.335641 
" style="fill:none;stroke:#0000ff;stroke-linecap:square;"/>
   </g>
   <g id="matplotlib.axis_1">
    <g id="xtick_1">
     <g id="line2d_22">
      <path clip-path="url(#p4f203fcb7a)" d="M 15.024247 87.704405 
L 15.024247 16.528672 
" style="fill:none;stroke:#000000;stroke-dasharray:0.5,0.825;stroke-dashoffset:0;stroke-width:0.5;"/>
     </g>
     <g id="line2d_23">
      <defs>
       <path d="M 0 0 
L 0 3.5 
" id="m9a68d49f89" style="stroke:#000000;stroke-width:0.8;"/>
      </defs>
      <g>
       <use style="stroke:#000000;stroke-width:0.8;" x="15.024247" xlink:href="#m9a68d49f89" y="86.335641"/>
      </g>
     </g>
    </g>
    <g id="xtick_2">
     <g id="line2d_24">
      <path clip-path="url(#p4f203fcb7a)" d="M 453.028759 87.704405 
L 453.028759 16.528672 
" style="fill:none;stroke:#000000;stroke-dasharray:0.5,0.825;stroke-dashoffset:0;stroke-width:0.5;"/>
     </g>
     <g id="line2d_25">
      <g>
       <use style="stroke:#000000;stroke-width:0.8;" x="453.028759" xlink:href="#m9a68d49f89" y="86.335641"/>
      </g>
     </g>
     <g id="text_1">
      <!-- $f$ -->
      <defs>
       <path d="M 9.71875 -16.5 
Q 11.578125 -17.921875 14.203125 -17.921875 
Q 17.78125 -17.921875 20.015625 -10.015625 
Q 20.953125 -6.203125 25.09375 15.09375 
L 29.6875 39.59375 
L 21.09375 39.59375 
Q 20.125 39.59375 20.125 40.921875 
Q 20.515625 43.109375 21.390625 43.109375 
L 30.328125 43.109375 
L 31.5 49.609375 
Q 32.078125 52.640625 32.5625 54.8125 
Q 33.0625 56.984375 33.625 58.828125 
Q 34.1875 60.6875 35.296875 62.984375 
Q 37.015625 66.265625 39.921875 68.390625 
Q 42.828125 70.515625 46.1875 70.515625 
Q 48.390625 70.515625 50.46875 69.703125 
Q 52.546875 68.890625 53.859375 67.28125 
Q 55.171875 65.671875 55.171875 63.484375 
Q 55.171875 60.9375 53.484375 59.046875 
Q 51.8125 57.171875 49.421875 57.171875 
Q 47.796875 57.171875 46.65625 58.171875 
Q 45.515625 59.1875 45.515625 60.796875 
Q 45.515625 62.984375 47 64.625 
Q 48.484375 66.265625 50.6875 66.5 
Q 48.828125 67.921875 46.09375 67.921875 
Q 44.578125 67.921875 43.234375 66.5 
Q 41.890625 65.09375 41.5 63.484375 
Q 40.875 60.9375 38.71875 49.703125 
L 37.5 43.109375 
L 47.796875 43.109375 
Q 48.78125 43.109375 48.78125 41.796875 
Q 48.734375 41.546875 48.578125 40.9375 
Q 48.4375 40.328125 48.171875 39.953125 
Q 47.90625 39.59375 47.515625 39.59375 
L 36.8125 39.59375 
L 32.171875 15.1875 
Q 31.296875 9.859375 30.140625 4.359375 
Q 29 -1.125 26.921875 -6.90625 
Q 24.859375 -12.703125 21.625 -16.609375 
Q 18.40625 -20.515625 14.015625 -20.515625 
Q 10.640625 -20.515625 7.984375 -18.578125 
Q 5.328125 -16.65625 5.328125 -13.484375 
Q 5.328125 -10.9375 6.953125 -9.046875 
Q 8.59375 -7.171875 11.078125 -7.171875 
Q 12.75 -7.171875 13.859375 -8.171875 
Q 14.984375 -9.1875 14.984375 -10.796875 
Q 14.984375 -12.9375 13.390625 -14.71875 
Q 11.8125 -16.5 9.71875 -16.5 
z
" id="Cmmi10-66"/>
      </defs>
      <g transform="translate(450.578759 100.913766)scale(0.1 -0.1)">
       <use transform="translate(0 0.484375)" xlink:href="#Cmmi10-66"/>
      </g>
     </g>
    </g>
    <g id="xtick_3">
     <g id="line2d_26">
      <path clip-path="url(#p4f203fcb7a)" d="M 562.529887 87.704405 
L 562.529887 16.528672 
" style="fill:none;stroke:#000000;stroke-dasharray:0.5,0.825;stroke-dashoffset:0;stroke-width:0.5;"/>
     </g>
     <g id="line2d_27">
      <g>
       <use style="stroke:#000000;stroke-width:0.8;" x="562.529887" xlink:href="#m9a68d49f89" y="86.335641"/>
      </g>
     </g>
     <g id="text_2">
      <!-- $1$ -->
      <defs>
       <path d="M 9.28125 0 
L 9.28125 3.515625 
Q 21.78125 3.515625 21.78125 6.6875 
L 21.78125 59.1875 
Q 16.609375 56.6875 8.6875 56.6875 
L 8.6875 60.203125 
Q 20.953125 60.203125 27.203125 66.609375 
L 28.609375 66.609375 
Q 28.953125 66.609375 29.265625 66.328125 
Q 29.59375 66.0625 29.59375 65.71875 
L 29.59375 6.6875 
Q 29.59375 3.515625 42.09375 3.515625 
L 42.09375 0 
z
" id="Cmr10-31"/>
      </defs>
      <g transform="translate(560.029887 100.934078)scale(0.1 -0.1)">
       <use transform="translate(0 0.390625)" xlink:href="#Cmr10-31"/>
      </g>
     </g>
    </g>
   </g>
   <g id="matplotlib.axis_2">
    <g id="ytick_1">
     <g id="line2d_28">
      <path clip-path="url(#p4f203fcb7a)" d="M 4.074135 86.335641 
L 573.48 86.335641 
" style="fill:none;stroke:#000000;stroke-dasharray:0.5,0.825;stroke-dashoffset:0;stroke-width:0.5;"/>
     </g>
     <g id="line2d_29">
      <defs>
       <path d="M 0 0 
L -3.5 0 
" id="me5b64992e2" style="stroke:#000000;stroke-width:0.8;"/>
      </defs>
      <g>
       <use style="stroke:#000000;stroke-width:0.8;" x="15.024247" xlink:href="#me5b64992e2" y="86.335641"/>
      </g>
     </g>
    </g>
    <g id="ytick_2">
     <g id="line2d_30">
      <path clip-path="url(#p4f203fcb7a)" d="M 4.074135 17.897436 
L 573.48 17.897436 
" style="fill:none;stroke:#000000;stroke-dasharray:0.5,0.825;stroke-dashoffset:0;stroke-width:0.5;"/>
     </g>
     <g id="line2d_31">
      <g>
       <use style="stroke:#000000;stroke-width:0.8;" x="15.024247" xlink:href="#me5b64992e2" y="17.897436"/>
      </g>
     </g>
     <g id="text_3">
      <!-- $1$ -->
      <g transform="translate(3.024247 21.696655)scale(0.1 -0.1)">
       <use transform="translate(0 0.390625)" xlink:href="#Cmr10-31"/>
      </g>
     </g>
    </g>
   </g>
   <g id="patch_3">
    <path d="M 15.024247 87.704405 
L 15.024247 16.528672 
" style="fill:none;stroke:#000000;stroke-linecap:square;stroke-linejoin:miter;stroke-width:0.8;"/>
   </g>
   <g id="patch_4">
    <path d="M 4.074135 86.335641 
L 573.48 86.335641 
" style="fill:none;stroke:#000000;stroke-linecap:square;stroke-linejoin:miter;stroke-width:0.8;"/>
   </g>
  </g>
 </g>
 <defs>
  <clipPath id="p4f203fcb7a">
   <rect height="71.175733" width="569.405865" x="4.074135" y="16.528672"/>
  </clipPath>
 </defs>
</svg>
