<?xml version="1.0" encoding="utf-8" standalone="no"?>
<!DOCTYPE svg PUBLIC "-//W3C//DTD SVG 1.1//EN"
  "http://www.w3.org/Graphics/SVG/1.1/DTD/svg11.dtd">
<!-- Created with matplotlib (http://matplotlib.org/) -->
<svg height="108pt" version="1.1" viewBox="0 0 576 108" width="576pt" xmlns="http://www.w3.org/2000/svg" xmlns:xlink="http://www.w3.org/1999/xlink">
 <defs>
  <style type="text/css">
*{stroke-linecap:butt;stroke-linejoin:round;}
  </style>
 </defs>
 <g id="figure_1">
  <g id="patch_1">
   <path d="M 0 108 
L 576 108 
L 576 0 
L 0 0 
z
" style="fill:#ffffff;"/>
  </g>
  <g id="axes_1">
   <g id="patch_2">
    <path d="M 4.074135 87.704405 
L 573.48 87.704405 
L 573.48 16.528672 
L 4.074135 16.528672 
z
" style="fill:#ffffff;"/>
   </g>
   <g id="line2d_1">
    <path clip-path="url(#p4201a8628d)" d="M 15.024247 86.335641 
L 88.278827 63.538968 
L 88.278827 63.538968 
" style="fill:none;stroke:#ff0000;stroke-linecap:square;"/>
   </g>
   <g id="line2d_2">
    <path clip-path="url(#p4201a8628d)" d="M 97.150093 69.08351 
L 99.000495 68.507669 
L 99.000495 68.507669 
" style="fill:none;stroke:#ff0000;stroke-linecap:square;"/>
   </g>
   <g id="line2d_3">
    <path clip-path="url(#p4201a8628d)" d="M 99.887622 69.062123 
L 102.504485 68.247761 
L 102.504485 68.247761 
" style="fill:none;stroke:#ff0000;stroke-linecap:square;"/>
   </g>
   <g id="line2d_4">
    <path clip-path="url(#p4201a8628d)" d="M 103.759071 69.031877 
L 162.913637 50.6231 
L 162.913637 50.6231 
" style="fill:none;stroke:#ff0000;stroke-linecap:square;"/>
   </g>
   <g id="line2d_5">
    <path clip-path="url(#p4201a8628d)" d="M 206.651221 60.635669 
L 261.401785 43.597408 
L 261.401785 43.597408 
" style="fill:none;stroke:#ff0000;stroke-linecap:square;"/>
   </g>
   <g id="line2d_6">
    <path clip-path="url(#p4201a8628d)" d="M 305.139369 53.609977 
L 364.293936 35.201199 
L 364.293936 35.201199 
" style="fill:none;stroke:#ff0000;stroke-linecap:square;"/>
   </g>
   <g id="line2d_7">
    <path clip-path="url(#p4201a8628d)" d="M 365.548522 35.985316 
L 368.165385 35.170954 
L 368.165385 35.170954 
" style="fill:none;stroke:#ff0000;stroke-linecap:square;"/>
   </g>
   <g id="line2d_8">
    <path clip-path="url(#p4201a8628d)" d="M 369.052512 35.725408 
L 370.902913 35.149567 
L 370.902913 35.149567 
" style="fill:none;stroke:#ff0000;stroke-linecap:square;"/>
   </g>
   <g id="line2d_9">
    <path clip-path="url(#p4201a8628d)" d="M 379.77418 40.694108 
L 453.028759 17.897436 
L 453.028759 17.897436 
" style="fill:none;stroke:#ff0000;stroke-linecap:square;"/>
   </g>
   <g id="line2d_10">
    <path clip-path="url(#p4201a8628d)" d="M 88.278827 63.538968 
L 97.150093 69.08351 
L 97.150093 69.08351 
" style="fill:none;stroke:#00ff00;stroke-linecap:square;"/>
   </g>
   <g id="line2d_11">
    <path clip-path="url(#p4201a8628d)" d="M 99.000495 68.507669 
L 99.887622 69.062123 
L 99.887622 69.062123 
" style="fill:none;stroke:#00ff00;stroke-linecap:square;"/>
   </g>
   <g id="line2d_12">
    <path clip-path="url(#p4201a8628d)" d="M 102.504485 68.247761 
L 103.759071 69.031877 
L 103.759071 69.031877 
" style="fill:none;stroke:#00ff00;stroke-linecap:square;"/>
   </g>
   <g id="line2d_13">
    <path clip-path="url(#p4201a8628d)" d="M 162.913637 50.6231 
L 179.275939 60.849539 
L 179.275939 60.849539 
" style="fill:none;stroke:#00ff00;stroke-linecap:square;"/>
   </g>
   <g id="line2d_14">
    <path clip-path="url(#p4201a8628d)" d="M 288.777067 43.383538 
L 305.139369 53.609977 
L 305.139369 53.609977 
" style="fill:none;stroke:#00ff00;stroke-linecap:square;"/>
   </g>
   <g id="line2d_15">
    <path clip-path="url(#p4201a8628d)" d="M 364.293936 35.201199 
L 365.548522 35.985316 
L 365.548522 35.985316 
" style="fill:none;stroke:#00ff00;stroke-linecap:square;"/>
   </g>
   <g id="line2d_16">
    <path clip-path="url(#p4201a8628d)" d="M 368.165385 35.170954 
L 369.052512 35.725408 
L 369.052512 35.725408 
" style="fill:none;stroke:#00ff00;stroke-linecap:square;"/>
   </g>
   <g id="line2d_17">
    <path clip-path="url(#p4201a8628d)" d="M 370.902913 35.149567 
L 370.968954 35.190842 
L 370.992742 35.20571 
L 371.04739 35.239865 
L 371.065104 35.250936 
L 371.12759 35.28999 
L 371.158407 35.30925 
L 371.220581 35.348109 
L 371.264244 35.375399 
L 371.300986 35.398362 
L 371.335872 35.420166 
L 371.401217 35.461007 
L 371.433596 35.481243 
L 371.499776 35.522606 
L 371.531467 35.542413 
L 371.56873 35.565702 
L 371.594846 35.582025 
L 371.667072 35.627166 
L 371.706357 35.651719 
L 371.73986 35.672658 
L 371.793576 35.706231 
L 371.836369 35.732977 
L 371.871846 35.75515 
L 371.949358 35.803595 
L 371.955924 35.807698 
L 372.009304 35.841061 
L 372.0533 35.868558 
L 372.105685 35.901299 
L 372.143439 35.924895 
L 372.198686 35.959424 
L 372.251037 35.992144 
L 372.291673 36.017542 
L 372.329188 36.040988 
L 372.369628 36.066263 
L 372.408426 36.090512 
L 372.479629 36.135014 
L 372.526506 36.164312 
L 372.539424 36.172386 
L 372.612072 36.217791 
L 372.640814 36.235755 
L 372.671951 36.255216 
L 372.73438 36.294233 
L 372.79405 36.331527 
L 372.807555 36.339968 
L 372.884138 36.387832 
L 372.892616 36.393131 
L 372.957889 36.433926 
L 373.008511 36.465566 
L 373.021225 36.473512 
L 373.084712 36.513191 
L 373.115754 36.532592 
L 373.17326 36.568533 
L 373.199548 36.584964 
L 373.270223 36.629135 
L 373.318708 36.659438 
L 373.356833 36.683267 
L 373.384099 36.700308 
L 373.426416 36.726756 
L 373.50016 36.772846 
L 373.518628 36.784389 
L 373.588025 36.827762 
L 373.610684 36.841924 
L 373.648953 36.865841 
L 373.716906 36.908313 
L 373.756395 36.932993 
L 373.786692 36.951929 
L 373.863797 37.000119 
L 373.891178 37.017232 
L 373.924807 37.03825 
L 373.960505 37.060561 
L 374.01083 37.092015 
L 374.087412 37.139879 
L 374.091393 37.142367 
L 374.145274 37.176042 
L 374.182807 37.1995 
L 374.260774 37.24823 
L 374.295082 37.269672 
L 374.349974 37.30398 
L 374.360542 37.310585 
L 374.408764 37.340724 
L 374.460851 37.373278 
L 374.507744 37.402586 
L 374.577192 37.445991 
L 374.623251 37.474778 
L 374.666004 37.501499 
L 374.690855 37.51703 
L 374.751913 37.555191 
L 374.768301 37.565434 
L 374.828089 37.602802 
L 374.888799 37.640745 
" style="fill:none;stroke:#00ff00;stroke-linecap:square;"/>
   </g>
   <g id="line2d_18">
    <path clip-path="url(#p4201a8628d)" d="M 375.024228 37.725389 
L 375.065338 37.751082 
L 375.108132 37.777829 
L 375.137138 37.795957 
L 375.164039 37.81277 
L 375.230388 37.854239 
L 375.26869 37.878177 
L 375.317353 37.908592 
L 375.354541 37.931834 
L 375.415951 37.970215 
L 375.450161 37.991597 
L 375.479395 38.009868 
L 375.542853 38.049529 
L 375.592276 38.080418 
L 375.642854 38.11203 
L 375.693487 38.143675 
L 375.714125 38.156574 
L 375.768579 38.190608 
L 375.795386 38.207362 
L 375.862254 38.249155 
L 375.914658 38.281907 
L 375.925962 38.288972 
L 375.983188 38.324738 
L 376.027875 38.352668 
L 376.093948 38.393963 
L 376.119583 38.409986 
L 376.185127 38.45095 
L 376.18611 38.451565 
L 376.235363 38.482348 
L 376.304702 38.525685 
L 376.344778 38.550733 
L 376.405108 38.588439 
L 376.43329 38.606053 
L 376.462159 38.624095 
L 376.514015 38.656506 
L 376.576979 38.695858 
L 376.598982 38.70961 
L 376.638029 38.734014 
L 376.70955 38.778715 
L 376.761639 38.811271 
L 376.803354 38.837342 
L 376.852557 38.868094 
L 376.891779 38.892608 
L 376.92297 38.912102 
L 376.95911 38.93469 
L 377.018014 38.971505 
L 377.058701 38.996934 
L 377.080989 39.010864 
L 377.13998 39.047734 
L 377.184625 39.075636 
L 377.217671 39.09629 
L 377.255514 39.119942 
L 377.310795 39.154493 
L 377.350037 39.179019 
L 377.402185 39.211612 
L 377.435915 39.232693 
L 377.496202 39.270372 
L 377.546871 39.30204 
L 377.587663 39.327535 
L 377.655756 39.370093 
L 377.698995 39.397118 
L 377.717332 39.408578 
L 377.784523 39.450573 
L 377.825777 39.476357 
L 377.866282 39.501672 
L 377.885256 39.513531 
L 377.934375 39.544231 
L 377.982236 39.574144 
L 378.028809 39.603252 
L 378.079369 39.634851 
L 378.104484 39.650549 
L 378.150351 39.679216 
L 378.227703 39.72756 
L 378.277298 39.758557 
L 378.285009 39.763377 
L 378.325618 39.788757 
L 378.410468 39.841789 
L 378.425189 39.850989 
L 378.500584 39.898111 
L 378.521549 39.911214 
L 378.577611 39.946253 
L 378.601432 39.961141 
L 378.673757 40.006344 
L 378.687246 40.014775 
L 378.729853 40.041404 
L 378.814708 40.094439 
L 378.816786 40.095737 
L 378.8884 40.140496 
L 378.943832 40.175141 
L 378.967803 40.190123 
L 379.023605 40.224999 
L 379.042509 40.236814 
L 379.12197 40.286477 
L 379.144837 40.300769 
L 379.208535 40.34058 
L 379.252917 40.368319 
L 379.265934 40.376455 
L 379.331439 40.417395 
L 379.381175 40.44848 
L 379.404641 40.463146 
L 379.444061 40.487784 
L 379.485609 40.513751 
L 379.535071 40.544666 
L 379.611151 40.592215 
L 379.645196 40.613493 
L 379.667022 40.627135 
L 379.739186 40.672237 
L 379.77418 40.694108 
" style="fill:none;stroke:#00ff00;stroke-linecap:square;"/>
   </g>
   <g id="line2d_19">
    <path clip-path="url(#p4201a8628d)" d="M 453.028759 17.897436 
L 562.529887 86.335641 
L 562.529887 86.335641 
" style="fill:none;stroke:#00ff00;stroke-linecap:square;"/>
   </g>
   <g id="line2d_20">
    <path clip-path="url(#p4201a8628d)" d="M 179.275939 60.849539 
L 206.651221 60.635669 
L 206.651221 60.635669 
" style="fill:none;stroke:#0000ff;stroke-linecap:square;"/>
   </g>
   <g id="line2d_21">
    <path clip-path="url(#p4201a8628d)" d="M 261.401785 43.597408 
L 288.777067 43.383538 
L 288.777067 43.383538 
" style="fill:none;stroke:#0000ff;stroke-linecap:square;"/>
   </g>
   <g id="matplotlib.axis_1">
    <g id="xtick_1">
     <g id="line2d_22">
      <path clip-path="url(#p4201a8628d)" d="M 15.024247 87.704405 
L 15.024247 16.528672 
" style="fill:none;stroke:#000000;stroke-dasharray:0.5,0.825;stroke-dashoffset:0;stroke-width:0.5;"/>
     </g>
     <g id="line2d_23">
      <defs>
       <path d="M 0 0 
L 0 3.5 
" id="m9d49d76a16" style="stroke:#000000;stroke-width:0.8;"/>
      </defs>
      <g>
       <use style="stroke:#000000;stroke-width:0.8;" x="15.024247" xlink:href="#m9d49d76a16" y="86.335641"/>
      </g>
     </g>
    </g>
    <g id="xtick_2">
     <g id="line2d_24">
      <path clip-path="url(#p4201a8628d)" d="M 453.028759 87.704405 
L 453.028759 16.528672 
" style="fill:none;stroke:#000000;stroke-dasharray:0.5,0.825;stroke-dashoffset:0;stroke-width:0.5;"/>
     </g>
     <g id="line2d_25">
      <g>
       <use style="stroke:#000000;stroke-width:0.8;" x="453.028759" xlink:href="#m9d49d76a16" y="86.335641"/>
      </g>
     </g>
     <g id="text_1">
      <!-- $f$ -->
      <defs>
       <path d="M 9.71875 -16.5 
Q 11.578125 -17.921875 14.203125 -17.921875 
Q 17.78125 -17.921875 20.015625 -10.015625 
Q 20.953125 -6.203125 25.09375 15.09375 
L 29.6875 39.59375 
L 21.09375 39.59375 
Q 20.125 39.59375 20.125 40.921875 
Q 20.515625 43.109375 21.390625 43.109375 
L 30.328125 43.109375 
L 31.5 49.609375 
Q 32.078125 52.640625 32.5625 54.8125 
Q 33.0625 56.984375 33.625 58.828125 
Q 34.1875 60.6875 35.296875 62.984375 
Q 37.015625 66.265625 39.921875 68.390625 
Q 42.828125 70.515625 46.1875 70.515625 
Q 48.390625 70.515625 50.46875 69.703125 
Q 52.546875 68.890625 53.859375 67.28125 
Q 55.171875 65.671875 55.171875 63.484375 
Q 55.171875 60.9375 53.484375 59.046875 
Q 51.8125 57.171875 49.421875 57.171875 
Q 47.796875 57.171875 46.65625 58.171875 
Q 45.515625 59.1875 45.515625 60.796875 
Q 45.515625 62.984375 47 64.625 
Q 48.484375 66.265625 50.6875 66.5 
Q 48.828125 67.921875 46.09375 67.921875 
Q 44.578125 67.921875 43.234375 66.5 
Q 41.890625 65.09375 41.5 63.484375 
Q 40.875 60.9375 38.71875 49.703125 
L 37.5 43.109375 
L 47.796875 43.109375 
Q 48.78125 43.109375 48.78125 41.796875 
Q 48.734375 41.546875 48.578125 40.9375 
Q 48.4375 40.328125 48.171875 39.953125 
Q 47.90625 39.59375 47.515625 39.59375 
L 36.8125 39.59375 
L 32.171875 15.1875 
Q 31.296875 9.859375 30.140625 4.359375 
Q 29 -1.125 26.921875 -6.90625 
Q 24.859375 -12.703125 21.625 -16.609375 
Q 18.40625 -20.515625 14.015625 -20.515625 
Q 10.640625 -20.515625 7.984375 -18.578125 
Q 5.328125 -16.65625 5.328125 -13.484375 
Q 5.328125 -10.9375 6.953125 -9.046875 
Q 8.59375 -7.171875 11.078125 -7.171875 
Q 12.75 -7.171875 13.859375 -8.171875 
Q 14.984375 -9.1875 14.984375 -10.796875 
Q 14.984375 -12.9375 13.390625 -14.71875 
Q 11.8125 -16.5 9.71875 -16.5 
z
" id="Cmmi10-66"/>
      </defs>
      <g transform="translate(450.578759 100.913766)scale(0.1 -0.1)">
       <use transform="translate(0 0.484375)" xlink:href="#Cmmi10-66"/>
      </g>
     </g>
    </g>
    <g id="xtick_3">
     <g id="line2d_26">
      <path clip-path="url(#p4201a8628d)" d="M 562.529887 87.704405 
L 562.529887 16.528672 
" style="fill:none;stroke:#000000;stroke-dasharray:0.5,0.825;stroke-dashoffset:0;stroke-width:0.5;"/>
     </g>
     <g id="line2d_27">
      <g>
       <use style="stroke:#000000;stroke-width:0.8;" x="562.529887" xlink:href="#m9d49d76a16" y="86.335641"/>
      </g>
     </g>
     <g id="text_2">
      <!-- $1$ -->
      <defs>
       <path d="M 9.28125 0 
L 9.28125 3.515625 
Q 21.78125 3.515625 21.78125 6.6875 
L 21.78125 59.1875 
Q 16.609375 56.6875 8.6875 56.6875 
L 8.6875 60.203125 
Q 20.953125 60.203125 27.203125 66.609375 
L 28.609375 66.609375 
Q 28.953125 66.609375 29.265625 66.328125 
Q 29.59375 66.0625 29.59375 65.71875 
L 29.59375 6.6875 
Q 29.59375 3.515625 42.09375 3.515625 
L 42.09375 0 
z
" id="Cmr10-31"/>
      </defs>
      <g transform="translate(560.029887 100.934078)scale(0.1 -0.1)">
       <use transform="translate(0 0.390625)" xlink:href="#Cmr10-31"/>
      </g>
     </g>
    </g>
   </g>
   <g id="matplotlib.axis_2">
    <g id="ytick_1">
     <g id="line2d_28">
      <path clip-path="url(#p4201a8628d)" d="M 4.074135 86.335641 
L 573.48 86.335641 
" style="fill:none;stroke:#000000;stroke-dasharray:0.5,0.825;stroke-dashoffset:0;stroke-width:0.5;"/>
     </g>
     <g id="line2d_29">
      <defs>
       <path d="M 0 0 
L -3.5 0 
" id="m45d2617654" style="stroke:#000000;stroke-width:0.8;"/>
      </defs>
      <g>
       <use style="stroke:#000000;stroke-width:0.8;" x="15.024247" xlink:href="#m45d2617654" y="86.335641"/>
      </g>
     </g>
    </g>
    <g id="ytick_2">
     <g id="line2d_30">
      <path clip-path="url(#p4201a8628d)" d="M 4.074135 17.897436 
L 573.48 17.897436 
" style="fill:none;stroke:#000000;stroke-dasharray:0.5,0.825;stroke-dashoffset:0;stroke-width:0.5;"/>
     </g>
     <g id="line2d_31">
      <g>
       <use style="stroke:#000000;stroke-width:0.8;" x="15.024247" xlink:href="#m45d2617654" y="17.897436"/>
      </g>
     </g>
     <g id="text_3">
      <!-- $1$ -->
      <g transform="translate(3.024247 21.696655)scale(0.1 -0.1)">
       <use transform="translate(0 0.390625)" xlink:href="#Cmr10-31"/>
      </g>
     </g>
    </g>
   </g>
   <g id="patch_3">
    <path d="M 15.024247 87.704405 
L 15.024247 16.528672 
" style="fill:none;stroke:#000000;stroke-linecap:square;stroke-linejoin:miter;stroke-width:0.8;"/>
   </g>
   <g id="patch_4">
    <path d="M 4.074135 86.335641 
L 573.48 86.335641 
" style="fill:none;stroke:#000000;stroke-linecap:square;stroke-linejoin:miter;stroke-width:0.8;"/>
   </g>
  </g>
 </g>
 <defs>
  <clipPath id="p4201a8628d">
   <rect height="71.175733" width="569.405865" x="4.074135" y="16.528672"/>
  </clipPath>
 </defs>
</svg>
