<?xml version="1.0" encoding="utf-8" standalone="no"?>
<!DOCTYPE svg PUBLIC "-//W3C//DTD SVG 1.1//EN"
  "http://www.w3.org/Graphics/SVG/1.1/DTD/svg11.dtd">
<!-- Created with matplotlib (http://matplotlib.org/) -->
<svg height="108pt" version="1.1" viewBox="0 0 576 108" width="576pt" xmlns="http://www.w3.org/2000/svg" xmlns:xlink="http://www.w3.org/1999/xlink">
 <defs>
  <style type="text/css">
*{stroke-linecap:butt;stroke-linejoin:round;}
  </style>
 </defs>
 <g id="figure_1">
  <g id="patch_1">
   <path d="M 0 108 
L 576 108 
L 576 0 
L 0 0 
z
" style="fill:#ffffff;"/>
  </g>
  <g id="axes_1">
   <g id="patch_2">
    <path d="M 4.074135 87.704405 
L 573.48 87.704405 
L 573.48 16.528672 
L 4.074135 16.528672 
z
" style="fill:#ffffff;"/>
   </g>
   <g id="line2d_1">
    <path clip-path="url(#p058bfeb263)" d="M 118.606395 47.006899 
L 162.998745 32.607005 
L 162.998745 32.607005 
" style="fill:none;stroke:#ff0000;stroke-linecap:square;stroke-width:2;"/>
   </g>
   <g id="line2d_2">
    <path clip-path="url(#p058bfeb263)" d="M 236.985993 71.626072 
L 281.378342 57.226178 
L 281.378342 57.226178 
" style="fill:none;stroke:#ff0000;stroke-linecap:square;stroke-width:2;"/>
   </g>
   <g id="line2d_3">
    <path clip-path="url(#p058bfeb263)" d="M 444.150289 61.716468 
L 503.340088 42.516609 
L 503.340088 42.516609 
" style="fill:none;stroke:#ff0000;stroke-linecap:square;stroke-width:2;"/>
   </g>
   <g id="line2d_4">
    <path clip-path="url(#p058bfeb263)" d="M 15.024247 86.335641 
L 29.821697 41.432746 
L 29.821697 41.432746 
" style="fill:none;stroke:#cbff00;stroke-linecap:square;stroke-width:2;"/>
   </g>
   <g id="line2d_5">
    <path clip-path="url(#p058bfeb263)" d="M 370.163041 62.800331 
L 384.960491 17.897436 
L 384.960491 17.897436 
" style="fill:none;stroke:#cbff00;stroke-linecap:square;stroke-width:2;"/>
   </g>
   <g id="line2d_6">
    <path clip-path="url(#p058bfeb263)" d="M 192.593644 45.923036 
L 207.391094 58.310041 
L 207.391094 58.310041 
" style="fill:none;stroke:#00ff66;stroke-linecap:square;stroke-width:2;"/>
   </g>
   <g id="line2d_7">
    <path clip-path="url(#p058bfeb263)" d="M 384.960491 17.897436 
L 429.35284 55.058452 
L 429.35284 55.058452 
" style="fill:none;stroke:#00ff66;stroke-linecap:square;stroke-width:2;"/>
   </g>
   <g id="line2d_8">
    <path clip-path="url(#p058bfeb263)" d="M 518.137538 49.174625 
L 562.529887 86.335641 
L 562.529887 86.335641 
" style="fill:none;stroke:#00ff66;stroke-linecap:square;stroke-width:2;"/>
   </g>
   <g id="line2d_9">
    <path clip-path="url(#p058bfeb263)" d="M 59.416597 54.748777 
L 89.011496 33.690868 
L 89.011496 33.690868 
" style="fill:none;stroke:#0066ff;stroke-linecap:square;stroke-width:2;"/>
   </g>
   <g id="line2d_10">
    <path clip-path="url(#p058bfeb263)" d="M 310.973242 70.542209 
L 311.048276 70.488819 
L 311.258005 70.339589 
L 311.39421 70.242674 
L 311.517702 70.154805 
L 311.764108 69.979478 
L 311.91937 69.869003 
L 311.953902 69.844432 
L 312.098483 69.741557 
L 312.278772 69.613274 
L 312.490816 69.462397 
L 312.622606 69.368623 
L 312.734801 69.288792 
L 312.863114 69.197492 
L 313.069815 69.050417 
L 313.196917 68.959978 
L 313.402266 68.813865 
L 313.516137 68.732841 
L 313.59761 68.67487 
L 313.852032 68.493839 
L 313.901443 68.458681 
L 314.128421 68.297178 
L 314.192186 68.251807 
L 314.364028 68.129534 
L 314.487793 68.041471 
L 314.731416 67.868123 
L 314.791145 67.825624 
L 314.920724 67.733424 
L 315.069268 67.627729 
L 315.315696 67.452386 
L 315.506566 67.316575 
L 315.518886 67.307809 
L 315.695019 67.182483 
L 315.872886 67.055924 
L 315.960421 66.993639 
L 316.168371 66.845675 
L 316.322458 66.736036 
L 316.45235 66.643613 
L 316.657728 66.497479 
L 316.766628 66.419992 
L 316.918906 66.31164 
L 317.070482 66.203788 
L 317.160092 66.140027 
L 317.309458 66.033748 
L 317.555371 65.858771 
" style="fill:none;stroke:#0066ff;stroke-linecap:square;stroke-width:2;"/>
   </g>
   <g id="line2d_11">
    <path clip-path="url(#p058bfeb263)" d="M 317.937915 65.586576 
L 340.568141 49.4843 
L 340.568141 49.4843 
" style="fill:none;stroke:#0066ff;stroke-linecap:square;stroke-width:2;"/>
   </g>
   <g id="line2d_12">
    <path clip-path="url(#p058bfeb263)" d="M 29.821697 41.432746 
L 59.416597 54.748777 
L 59.416597 54.748777 
" style="fill:none;stroke:#cc00ff;stroke-linecap:square;stroke-width:2;"/>
   </g>
   <g id="line2d_13">
    <path clip-path="url(#p058bfeb263)" d="M 89.011496 33.690868 
L 118.606395 47.006899 
L 118.606395 47.006899 
" style="fill:none;stroke:#cc00ff;stroke-linecap:square;stroke-width:2;"/>
   </g>
   <g id="line2d_14">
    <path clip-path="url(#p058bfeb263)" d="M 162.998745 32.607005 
L 163.207366 32.700873 
L 163.361586 32.770263 
L 163.38567 32.781099 
L 163.644943 32.897757 
L 163.671019 32.90949 
L 163.873774 33.000719 
L 164.020702 33.066828 
L 164.206034 33.150217 
L 164.338023 33.209604 
L 164.547574 33.30389 
L 164.687052 33.366648 
L 164.819042 33.426036 
L 164.991592 33.503674 
L 165.153476 33.576512 
L 165.284073 33.635274 
L 165.426845 33.699513 
L 165.467848 33.717962 
L 165.695541 33.820411 
L 165.791349 33.863519 
L 165.966982 33.942544 
L 166.130232 34.015997 
L 166.296388 34.090758 
L 166.427627 34.149808 
L 166.620042 34.236384 
L 166.768006 34.302959 
L 166.819155 34.325974 
L 167.0599 34.434295 
L 167.225286 34.508709 
L 167.261319 34.524922 
L 167.511228 34.637367 
L 167.641746 34.696093 
L 167.751004 34.745253 
L 167.908665 34.816192 
L 168.006779 34.860337 
L 168.270669 34.979073 
L 168.400233 35.037369 
L 168.428819 35.050231 
L 168.676872 35.161841 
L 168.810922 35.222156 
L 168.93961 35.280058 
L 169.12685 35.364306 
L 169.182106 35.389168 
L 169.383851 35.479941 
L 169.511907 35.53756 
L 169.684694 35.615304 
L 169.80808 35.670821 
L 169.933647 35.727319 
L 170.081526 35.793856 
L 170.326754 35.904195 
L 170.390937 35.933073 
L 170.534392 35.99762 
L 170.738377 36.089402 
L 170.920824 36.171493 
L 170.980206 36.198211 
L 171.119226 36.260762 
L 171.271202 36.329143 
L 171.514363 36.438552 
L 171.671709 36.509348 
L 171.834605 36.582642 
L 171.98358 36.649673 
L 172.030935 36.67098 
L 172.228564 36.759901 
L 172.310722 36.796868 
L 172.566669 36.91203 
L 172.642056 36.94595 
L 172.780645 37.008307 
L 172.943827 37.081729 
L 173.095679 37.150054 
L 173.327947 37.254562 
L 173.478761 37.32242 
L 173.488625 37.326858 
L 173.668047 37.407588 
L 173.792399 37.463539 
L 174.068593 37.587811 
L 174.144802 37.6221 
L 174.359167 37.718552 
L 174.500841 37.782298 
L 174.53527 37.797789 
L 174.738565 37.88926 
L 174.952277 37.985418 
L 174.987475 38.001255 
L 175.241851 38.11571 
L 175.343709 38.16154 
L 175.523051 38.242235 
L 175.593432 38.273902 
L 175.79608 38.365082 
L 175.880401 38.403022 
L 176.080323 38.492975 
L 176.219116 38.555424 
L 176.385005 38.630065 
L 176.571856 38.714137 
L 176.734429 38.787286 
L 176.823753 38.827477 
L 176.924961 38.873015 
L 177.191351 38.992875 
L 177.341108 39.060257 
L 177.393449 39.083808 
L 177.636842 39.193321 
L 177.775169 39.25556 
L 177.883619 39.304356 
L 177.952608 39.335398 
L 178.113679 39.407871 
L 178.350182 39.514284 
L 178.456253 39.56201 
L 178.657631 39.652618 
L 178.779969 39.707663 
L 178.840745 39.735009 
L 179.026744 39.818698 
L 179.155015 39.876413 
L 179.39897 39.986179 
L 179.51407 40.037967 
L 179.63151 40.090808 
L 179.785522 40.160105 
L 179.914161 40.217985 
L 180.100012 40.301608 
" style="fill:none;stroke:#cc00ff;stroke-linecap:square;stroke-width:2;"/>
   </g>
   <g id="line2d_15">
    <path clip-path="url(#p058bfeb263)" d="M 180.541201 40.500118 
L 180.736752 40.588105 
L 180.801534 40.617253 
L 180.965405 40.690986 
L 181.211177 40.801569 
L 181.291605 40.837758 
L 181.458192 40.912712 
L 181.654665 41.001114 
L 181.710245 41.026122 
L 181.879788 41.102407 
L 182.070056 41.188016 
L 182.16152 41.22917 
L 182.395004 41.334225 
L 182.450346 41.359125 
L 182.635661 41.442507 
L 182.78466 41.509548 
L 182.863282 41.544923 
L 183.099308 41.651122 
L 183.253808 41.720638 
L 183.437022 41.803074 
L 183.466257 41.816228 
L 183.642748 41.895639 
L 183.831987 41.980786 
L 183.906025 42.014098 
L 184.042747 42.075616 
L 184.327386 42.203687 
L 184.373936 42.224632 
L 184.586069 42.32008 
L 184.668525 42.35718 
L 184.856833 42.441908 
L 184.949008 42.483382 
L 185.107909 42.554878 
L 185.270796 42.628168 
L 185.396553 42.684752 
L 185.660695 42.803601 
L 185.764145 42.850148 
L 185.863689 42.894937 
L 186.068975 42.987304 
L 186.176227 43.035561 
L 186.292386 43.087826 
L 186.451585 43.159457 
L 186.580817 43.217604 
L 186.801091 43.316715 
L 186.907727 43.364695 
L 187.138875 43.468698 
L 187.225127 43.507507 
L 187.336337 43.557545 
L 187.503768 43.63288 
L 187.72101 43.730626 
L 187.81318 43.772097 
L 188.047853 43.877687 
L 188.151355 43.924257 
L 188.262759 43.974382 
L 188.394355 44.033593 
L 188.586409 44.120007 
L 188.741507 44.189792 
L 188.91756 44.269006 
L 189.04068 44.324403 
L 189.230236 44.409693 
L 189.336173 44.457358 
L 189.504102 44.532916 
L 189.665344 44.605466 
L 189.696651 44.619553 
L 189.983587 44.748657 
L 190.139695 44.818898 
L 190.237523 44.862915 
L 190.304185 44.892909 
L 190.467615 44.966443 
L 190.594852 45.023692 
L 190.84857 45.137851 
L 191.031457 45.22014 
L 191.175685 45.285034 
L 191.189808 45.291389 
L 191.431238 45.400019 
L 191.489954 45.426438 
L 191.674156 45.509318 
L 191.912387 45.616509 
L 191.94559 45.631448 
L 192.121168 45.710448 
L 192.239223 45.763566 
L 192.472254 45.868417 
L 192.593644 45.923036 
" style="fill:none;stroke:#cc00ff;stroke-linecap:square;stroke-width:2;"/>
   </g>
   <g id="line2d_16">
    <path clip-path="url(#p058bfeb263)" d="M 207.391094 58.310041 
L 236.985993 71.626072 
L 236.985993 71.626072 
" style="fill:none;stroke:#cc00ff;stroke-linecap:square;stroke-width:2;"/>
   </g>
   <g id="line2d_17">
    <path clip-path="url(#p058bfeb263)" d="M 281.378342 57.226178 
L 310.973242 70.542209 
L 310.973242 70.542209 
" style="fill:none;stroke:#cc00ff;stroke-linecap:square;stroke-width:2;"/>
   </g>
   <g id="line2d_18">
    <path clip-path="url(#p058bfeb263)" d="M 340.568141 49.4843 
L 370.163041 62.800331 
L 370.163041 62.800331 
" style="fill:none;stroke:#cc00ff;stroke-linecap:square;stroke-width:2;"/>
   </g>
   <g id="line2d_19">
    <path clip-path="url(#p058bfeb263)" d="M 429.35284 55.058452 
L 444.150289 61.716468 
L 444.150289 61.716468 
" style="fill:none;stroke:#cc00ff;stroke-linecap:square;stroke-width:2;"/>
   </g>
   <g id="line2d_20">
    <path clip-path="url(#p058bfeb263)" d="M 503.340088 42.516609 
L 518.137538 49.174625 
L 518.137538 49.174625 
" style="fill:none;stroke:#cc00ff;stroke-linecap:square;stroke-width:2;"/>
   </g>
   <g id="matplotlib.axis_1">
    <g id="xtick_1">
     <g id="line2d_21">
      <path clip-path="url(#p058bfeb263)" d="M 15.024247 87.704405 
L 15.024247 16.528672 
" style="fill:none;stroke:#000000;stroke-dasharray:0.5,0.825;stroke-dashoffset:0;stroke-width:0.5;"/>
     </g>
     <g id="line2d_22">
      <defs>
       <path d="M 0 0 
L 0 3.5 
" id="ma1f6da0e6b" style="stroke:#000000;stroke-width:0.8;"/>
      </defs>
      <g>
       <use style="stroke:#000000;stroke-width:0.8;" x="15.024247" xlink:href="#ma1f6da0e6b" y="86.335641"/>
      </g>
     </g>
    </g>
    <g id="xtick_2">
     <g id="line2d_23">
      <path clip-path="url(#p058bfeb263)" d="M 384.960491 87.704405 
L 384.960491 16.528672 
" style="fill:none;stroke:#000000;stroke-dasharray:0.5,0.825;stroke-dashoffset:0;stroke-width:0.5;"/>
     </g>
     <g id="line2d_24">
      <g>
       <use style="stroke:#000000;stroke-width:0.8;" x="384.960491" xlink:href="#ma1f6da0e6b" y="86.335641"/>
      </g>
     </g>
     <g id="text_1">
      <!-- $f$ -->
      <defs>
       <path d="M 9.71875 -16.5 
Q 11.578125 -17.921875 14.203125 -17.921875 
Q 17.78125 -17.921875 20.015625 -10.015625 
Q 20.953125 -6.203125 25.09375 15.09375 
L 29.6875 39.59375 
L 21.09375 39.59375 
Q 20.125 39.59375 20.125 40.921875 
Q 20.515625 43.109375 21.390625 43.109375 
L 30.328125 43.109375 
L 31.5 49.609375 
Q 32.078125 52.640625 32.5625 54.8125 
Q 33.0625 56.984375 33.625 58.828125 
Q 34.1875 60.6875 35.296875 62.984375 
Q 37.015625 66.265625 39.921875 68.390625 
Q 42.828125 70.515625 46.1875 70.515625 
Q 48.390625 70.515625 50.46875 69.703125 
Q 52.546875 68.890625 53.859375 67.28125 
Q 55.171875 65.671875 55.171875 63.484375 
Q 55.171875 60.9375 53.484375 59.046875 
Q 51.8125 57.171875 49.421875 57.171875 
Q 47.796875 57.171875 46.65625 58.171875 
Q 45.515625 59.1875 45.515625 60.796875 
Q 45.515625 62.984375 47 64.625 
Q 48.484375 66.265625 50.6875 66.5 
Q 48.828125 67.921875 46.09375 67.921875 
Q 44.578125 67.921875 43.234375 66.5 
Q 41.890625 65.09375 41.5 63.484375 
Q 40.875 60.9375 38.71875 49.703125 
L 37.5 43.109375 
L 47.796875 43.109375 
Q 48.78125 43.109375 48.78125 41.796875 
Q 48.734375 41.546875 48.578125 40.9375 
Q 48.4375 40.328125 48.171875 39.953125 
Q 47.90625 39.59375 47.515625 39.59375 
L 36.8125 39.59375 
L 32.171875 15.1875 
Q 31.296875 9.859375 30.140625 4.359375 
Q 29 -1.125 26.921875 -6.90625 
Q 24.859375 -12.703125 21.625 -16.609375 
Q 18.40625 -20.515625 14.015625 -20.515625 
Q 10.640625 -20.515625 7.984375 -18.578125 
Q 5.328125 -16.65625 5.328125 -13.484375 
Q 5.328125 -10.9375 6.953125 -9.046875 
Q 8.59375 -7.171875 11.078125 -7.171875 
Q 12.75 -7.171875 13.859375 -8.171875 
Q 14.984375 -9.1875 14.984375 -10.796875 
Q 14.984375 -12.9375 13.390625 -14.71875 
Q 11.8125 -16.5 9.71875 -16.5 
z
" id="Cmmi10-66"/>
      </defs>
      <g transform="translate(382.510491 100.913766)scale(0.1 -0.1)">
       <use transform="translate(0 0.484375)" xlink:href="#Cmmi10-66"/>
      </g>
     </g>
    </g>
    <g id="xtick_3">
     <g id="line2d_25">
      <path clip-path="url(#p058bfeb263)" d="M 562.529887 87.704405 
L 562.529887 16.528672 
" style="fill:none;stroke:#000000;stroke-dasharray:0.5,0.825;stroke-dashoffset:0;stroke-width:0.5;"/>
     </g>
     <g id="line2d_26">
      <g>
       <use style="stroke:#000000;stroke-width:0.8;" x="562.529887" xlink:href="#ma1f6da0e6b" y="86.335641"/>
      </g>
     </g>
     <g id="text_2">
      <!-- $1$ -->
      <defs>
       <path d="M 9.28125 0 
L 9.28125 3.515625 
Q 21.78125 3.515625 21.78125 6.6875 
L 21.78125 59.1875 
Q 16.609375 56.6875 8.6875 56.6875 
L 8.6875 60.203125 
Q 20.953125 60.203125 27.203125 66.609375 
L 28.609375 66.609375 
Q 28.953125 66.609375 29.265625 66.328125 
Q 29.59375 66.0625 29.59375 65.71875 
L 29.59375 6.6875 
Q 29.59375 3.515625 42.09375 3.515625 
L 42.09375 0 
z
" id="Cmr10-31"/>
      </defs>
      <g transform="translate(560.029887 100.934078)scale(0.1 -0.1)">
       <use transform="translate(0 0.390625)" xlink:href="#Cmr10-31"/>
      </g>
     </g>
    </g>
   </g>
   <g id="matplotlib.axis_2">
    <g id="ytick_1">
     <g id="line2d_27">
      <path clip-path="url(#p058bfeb263)" d="M 4.074135 86.335641 
L 573.48 86.335641 
" style="fill:none;stroke:#000000;stroke-dasharray:0.5,0.825;stroke-dashoffset:0;stroke-width:0.5;"/>
     </g>
     <g id="line2d_28">
      <defs>
       <path d="M 0 0 
L -3.5 0 
" id="m9ff7f36b5d" style="stroke:#000000;stroke-width:0.8;"/>
      </defs>
      <g>
       <use style="stroke:#000000;stroke-width:0.8;" x="15.024247" xlink:href="#m9ff7f36b5d" y="86.335641"/>
      </g>
     </g>
    </g>
    <g id="ytick_2">
     <g id="line2d_29">
      <path clip-path="url(#p058bfeb263)" d="M 4.074135 17.897436 
L 573.48 17.897436 
" style="fill:none;stroke:#000000;stroke-dasharray:0.5,0.825;stroke-dashoffset:0;stroke-width:0.5;"/>
     </g>
     <g id="line2d_30">
      <g>
       <use style="stroke:#000000;stroke-width:0.8;" x="15.024247" xlink:href="#m9ff7f36b5d" y="17.897436"/>
      </g>
     </g>
     <g id="text_3">
      <!-- $1$ -->
      <g transform="translate(3.024247 21.696655)scale(0.1 -0.1)">
       <use transform="translate(0 0.390625)" xlink:href="#Cmr10-31"/>
      </g>
     </g>
    </g>
   </g>
   <g id="patch_3">
    <path d="M 15.024247 87.704405 
L 15.024247 16.528672 
" style="fill:none;stroke:#000000;stroke-linecap:square;stroke-linejoin:miter;stroke-width:0.8;"/>
   </g>
   <g id="patch_4">
    <path d="M 4.074135 86.335641 
L 573.48 86.335641 
" style="fill:none;stroke:#000000;stroke-linecap:square;stroke-linejoin:miter;stroke-width:0.8;"/>
   </g>
  </g>
 </g>
 <defs>
  <clipPath id="p058bfeb263">
   <rect height="71.175733" width="569.405865" x="4.074135" y="16.528672"/>
  </clipPath>
 </defs>
</svg>
