<?xml version="1.0" encoding="utf-8" standalone="no"?>
<!DOCTYPE svg PUBLIC "-//W3C//DTD SVG 1.1//EN"
  "http://www.w3.org/Graphics/SVG/1.1/DTD/svg11.dtd">
<!-- Created with matplotlib (http://matplotlib.org/) -->
<svg height="108pt" version="1.1" viewBox="0 0 576 108" width="576pt" xmlns="http://www.w3.org/2000/svg" xmlns:xlink="http://www.w3.org/1999/xlink">
 <defs>
  <style type="text/css">
*{stroke-linecap:butt;stroke-linejoin:round;}
  </style>
 </defs>
 <g id="figure_1">
  <g id="patch_1">
   <path d="M 0 108 
L 576 108 
L 576 0 
L 0 0 
z
" style="fill:#ffffff;"/>
  </g>
  <g id="axes_1">
   <g id="patch_2">
    <path d="M 4.074135 87.704405 
L 573.48 87.704405 
L 573.48 16.528672 
L 4.074135 16.528672 
z
" style="fill:#ffffff;"/>
   </g>
   <g id="line2d_1">
    <path clip-path="url(#pdabf2a9b36)" d="M 89.011496 53.890862 
L 118.606395 55.918661 
L 118.606395 55.918661 
" style="fill:none;stroke:#ff0000;stroke-linecap:square;stroke-width:2;"/>
   </g>
   <g id="line2d_2">
    <path clip-path="url(#pdabf2a9b36)" d="M 162.998745 30.824652 
L 177.796194 31.838552 
L 177.796194 31.838552 
" style="fill:none;stroke:#ff0000;stroke-linecap:square;stroke-width:2;"/>
   </g>
   <g id="line2d_3">
    <path clip-path="url(#pdabf2a9b36)" d="M 222.188544 72.394525 
L 236.985993 73.408424 
L 236.985993 73.408424 
" style="fill:none;stroke:#ff0000;stroke-linecap:square;stroke-width:2;"/>
   </g>
   <g id="line2d_4">
    <path clip-path="url(#pdabf2a9b36)" d="M 281.378342 48.314416 
L 310.973242 50.342215 
L 310.973242 50.342215 
" style="fill:none;stroke:#ff0000;stroke-linecap:square;stroke-width:2;"/>
   </g>
   <g id="line2d_5">
    <path clip-path="url(#pdabf2a9b36)" d="M 429.35284 67.831978 
L 444.150289 68.845877 
L 444.150289 68.845877 
" style="fill:none;stroke:#ff0000;stroke-linecap:square;stroke-width:2;"/>
   </g>
   <g id="line2d_6">
    <path clip-path="url(#pdabf2a9b36)" d="M 503.340088 35.387199 
L 518.137538 36.401099 
L 518.137538 36.401099 
" style="fill:none;stroke:#ff0000;stroke-linecap:square;stroke-width:2;"/>
   </g>
   <g id="line2d_7">
    <path clip-path="url(#pdabf2a9b36)" d="M 59.416597 33.105926 
L 89.011496 53.890862 
L 89.011496 53.890862 
" style="fill:none;stroke:#cbff00;stroke-linecap:square;stroke-width:2;"/>
   </g>
   <g id="line2d_8">
    <path clip-path="url(#pdabf2a9b36)" d="M 177.796194 31.838552 
L 192.593644 42.23102 
L 192.593644 42.23102 
" style="fill:none;stroke:#cbff00;stroke-linecap:square;stroke-width:2;"/>
   </g>
   <g id="line2d_9">
    <path clip-path="url(#pdabf2a9b36)" d="M 207.391094 62.002057 
L 222.188544 72.394525 
L 222.188544 72.394525 
" style="fill:none;stroke:#cbff00;stroke-linecap:square;stroke-width:2;"/>
   </g>
   <g id="line2d_10">
    <path clip-path="url(#pdabf2a9b36)" d="M 310.973242 50.342215 
L 340.568141 71.127151 
L 340.568141 71.127151 
" style="fill:none;stroke:#cbff00;stroke-linecap:square;stroke-width:2;"/>
   </g>
   <g id="line2d_11">
    <path clip-path="url(#pdabf2a9b36)" d="M 414.55539 57.43951 
L 429.35284 67.831978 
L 429.35284 67.831978 
" style="fill:none;stroke:#cbff00;stroke-linecap:square;stroke-width:2;"/>
   </g>
   <g id="line2d_12">
    <path clip-path="url(#pdabf2a9b36)" d="M 518.137538 36.401099 
L 532.934988 46.793567 
L 532.934988 46.793567 
" style="fill:none;stroke:#cbff00;stroke-linecap:square;stroke-width:2;"/>
   </g>
   <g id="line2d_13">
    <path clip-path="url(#pdabf2a9b36)" d="M 192.593644 42.23102 
L 207.391094 62.002057 
L 207.391094 62.002057 
" style="fill:none;stroke:#00ff66;stroke-linecap:square;stroke-width:2;"/>
   </g>
   <g id="line2d_14">
    <path clip-path="url(#pdabf2a9b36)" d="M 384.960491 17.897436 
L 414.55539 57.43951 
L 414.55539 57.43951 
" style="fill:none;stroke:#00ff66;stroke-linecap:square;stroke-width:2;"/>
   </g>
   <g id="line2d_15">
    <path clip-path="url(#pdabf2a9b36)" d="M 532.934988 46.793567 
L 562.529887 86.335641 
L 562.529887 86.335641 
" style="fill:none;stroke:#00ff66;stroke-linecap:square;stroke-width:2;"/>
   </g>
   <g id="line2d_16">
    <path clip-path="url(#pdabf2a9b36)" d="M 44.619147 41.470595 
L 59.416597 33.105926 
L 59.416597 33.105926 
" style="fill:none;stroke:#0066ff;stroke-linecap:square;stroke-width:2;"/>
   </g>
   <g id="line2d_17">
    <path clip-path="url(#pdabf2a9b36)" d="M 118.606395 55.918661 
L 162.998745 30.824652 
L 162.998745 30.824652 
" style="fill:none;stroke:#0066ff;stroke-linecap:square;stroke-width:2;"/>
   </g>
   <g id="line2d_18">
    <path clip-path="url(#pdabf2a9b36)" d="M 236.985993 73.408424 
L 281.378342 48.314416 
L 281.378342 48.314416 
" style="fill:none;stroke:#0066ff;stroke-linecap:square;stroke-width:2;"/>
   </g>
   <g id="line2d_19">
    <path clip-path="url(#pdabf2a9b36)" d="M 340.568141 71.127151 
L 355.365591 62.762481 
L 355.365591 62.762481 
" style="fill:none;stroke:#0066ff;stroke-linecap:square;stroke-width:2;"/>
   </g>
   <g id="line2d_20">
    <path clip-path="url(#pdabf2a9b36)" d="M 444.150289 68.845877 
L 503.340088 35.387199 
L 503.340088 35.387199 
" style="fill:none;stroke:#0066ff;stroke-linecap:square;stroke-width:2;"/>
   </g>
   <g id="line2d_21">
    <path clip-path="url(#pdabf2a9b36)" d="M 15.024247 86.335641 
L 15.142135 86.156926 
L 15.25765 85.981809 
L 15.470452 85.659208 
L 15.632237 85.413945 
L 15.813721 85.13882 
L 15.860788 85.067468 
L 16.064172 84.759144 
L 16.208125 84.540916 
L 16.400238 84.249678 
L 16.501246 84.096552 
L 16.602076 83.943697 
L 16.75909 83.705667 
L 16.998452 83.342802 
L 17.15437 83.106434 
L 17.303478 82.880391 
L 17.44596 82.664392 
L 17.578819 82.462982 
L 17.65858 82.342066 
L 17.847171 82.056167 
L 17.999339 81.825485 
L 18.153472 81.591823 
L 18.235448 81.46755 
L 18.517812 81.039495 
L 18.597691 80.9184 
L 18.773821 80.651392 
L 18.890158 80.475029 
L 19.105983 80.147844 
L 19.173137 80.04604 
L 19.385398 79.724258 
L 19.539571 79.490536 
L 19.56822 79.447104 
L 19.819802 79.065713 
L 19.902568 78.940242 
L 20.015968 78.768331 
L 20.252628 78.409562 
L 20.4492 78.111564 
L 20.578214 77.915981 
L 20.724019 77.694945 
L 20.765862 77.631513 
L 20.915578 77.404547 
L 21.153926 77.043219 
L 21.280424 76.851451 
L 21.355947 76.736961 
L 21.590063 76.382047 
L 21.753537 76.134225 
L 21.930098 75.866564 
L 22.008311 75.747994 
L 22.135198 75.555637 
L 22.362303 75.211352 
L 22.426662 75.113786 
L 22.590158 74.865931 
L 22.715364 74.676122 
L 22.851145 74.470282 
L 23.126657 74.052613 
L 23.247238 73.869815 
L 23.350507 73.713263 
L 23.555142 73.403042 
L 23.633417 73.284379 
L 23.779503 73.062916 
L 23.891981 72.892403 
L 24.168917 72.472576 
L 24.243494 72.35952 
L 24.46719 72.020403 
L 24.49892 71.9723 
L 24.664613 71.721114 
L 24.809317 71.501748 
L 25.027445 71.171072 
L 25.209034 70.895788 
L 25.267193 70.807619 
L 25.458045 70.518294 
L 25.616795 70.277633 
L 25.784532 70.023349 
L 25.839905 69.939404 
L 25.999136 69.698014 
L 26.152545 69.465451 
L 26.391724 69.102862 
L 26.429208 69.046037 
L 26.669689 68.681475 
L 26.784988 68.506685 
L 26.966993 68.23077 
L 27.028748 68.137151 
L 27.180934 67.906441 
L 27.432851 67.524542 
L 27.480997 67.451554 
L 27.65236 67.191773 
L 27.815062 66.945122 
L 27.933504 66.765566 
L 28.076185 66.549267 
L 28.296543 66.215209 
L 28.419611 66.028641 
L 28.571011 65.799123 
L 28.754695 65.520664 
L 28.917614 65.273683 
L 29.076217 65.033246 
L 29.20956 64.831101 
L 29.262562 64.750751 
L 29.491046 64.404377 
L 29.545079 64.322464 
L 29.719904 64.057434 
L 29.893444 63.794351 
L 30.057877 63.545076 
L 30.224669 63.292224 
L 30.384835 63.049417 
L 30.563317 62.778843 
L 30.613387 62.702938 
L 30.806246 62.410569 
L 30.891048 62.282013 
L 31.067622 62.014331 
L 31.167283 61.863247 
L 31.417166 61.484432 
L 31.599904 61.207406 
L 31.646993 61.136021 
L 31.883119 60.77806 
L 31.970993 60.644846 
L 32.162043 60.355219 
L 32.260831 60.205459 
L 32.456523 59.908796 
L 32.532095 59.79423 
" style="fill:none;stroke:#cc00ff;stroke-linecap:square;stroke-width:2;"/>
   </g>
   <g id="line2d_22">
    <path clip-path="url(#pdabf2a9b36)" d="M 33.005327 59.076824 
L 33.232793 58.731991 
L 33.331648 58.58213 
L 33.483277 58.352265 
L 33.647828 58.102811 
L 33.725412 57.985195 
L 33.857883 57.784372 
L 34.015083 57.546062 
L 34.261078 57.17314 
L 34.295768 57.120551 
L 34.528849 56.767207 
L 34.640256 56.598317 
L 34.79568 56.362698 
L 34.878193 56.237611 
L 35.101643 55.898867 
L 35.273483 55.638362 
L 35.340757 55.536377 
L 35.526179 55.255283 
L 35.637046 55.087211 
L 35.862815 54.744952 
L 35.979718 54.56773 
L 36.200951 54.232347 
L 36.334199 54.030347 
L 36.392534 53.941912 
L 36.636926 53.571421 
L 36.800508 53.323434 
L 36.856415 53.238681 
L 37.087511 52.888346 
L 37.132449 52.820222 
L 37.304604 52.559239 
L 37.540053 52.202305 
L 37.56252 52.168246 
L 37.788255 51.826038 
L 37.904256 51.650183 
L 38.099215 51.354631 
L 38.237258 51.145362 
L 38.348682 50.976446 
L 38.482315 50.773862 
L 38.663327 50.499452 
L 38.829285 50.247865 
L 38.912114 50.122298 
L 39.06277 49.893908 
L 39.234555 49.633487 
L 39.407963 49.370605 
L 39.524321 49.194209 
L 39.714753 48.90552 
L 39.841074 48.714021 
L 39.959453 48.534562 
L 40.191395 48.182944 
L 40.307393 48.007094 
L 40.495878 47.721357 
L 40.595023 47.571055 
L 40.701977 47.408917 
L 40.901135 47.106999 
L 41.080658 46.834846 
L 41.128192 46.762786 
L 41.327905 46.460027 
L 41.557829 46.111469 
L 41.61828 46.019826 
L 41.831997 45.695837 
L 41.931585 45.544865 
L 42.090773 45.30354 
L 42.308775 44.973054 
L 42.329906 44.941021 
L 42.523525 44.6475 
L 42.648333 44.458294 
L 42.769231 44.275017 
L 42.92389 44.040557 
L 43.163503 43.67731 
L 43.255341 43.538087 
L 43.446657 43.248058 
L 43.527583 43.125376 
L 43.797402 42.716337 
L 43.84013 42.651563 
L 43.96147 42.467616 
L 44.151846 42.179011 
L 44.301192 41.952606 
L 44.439695 41.74264 
L 44.619147 41.470595 
" style="fill:none;stroke:#cc00ff;stroke-linecap:square;stroke-width:2;"/>
   </g>
   <g id="line2d_23">
    <path clip-path="url(#pdabf2a9b36)" d="M 355.365591 62.762481 
L 382.717098 21.298357 
L 382.717098 21.298357 
" style="fill:none;stroke:#cc00ff;stroke-linecap:square;stroke-width:2;"/>
   </g>
   <g id="line2d_24">
    <path clip-path="url(#pdabf2a9b36)" d="M 383.160961 20.625473 
L 383.309491 20.400306 
L 383.404696 20.255977 
L 383.588186 19.977812 
L 383.769382 19.703124 
L 383.942457 19.440747 
L 383.994789 19.361412 
L 384.247887 18.977723 
L 384.357507 18.811543 
L 384.446202 18.677083 
L 384.625292 18.405588 
L 384.870829 18.033361 
L 384.960491 17.897436 
" style="fill:none;stroke:#cc00ff;stroke-linecap:square;stroke-width:2;"/>
   </g>
   <g id="matplotlib.axis_1">
    <g id="xtick_1">
     <g id="line2d_25">
      <path clip-path="url(#pdabf2a9b36)" d="M 15.024247 87.704405 
L 15.024247 16.528672 
" style="fill:none;stroke:#000000;stroke-dasharray:0.5,0.825;stroke-dashoffset:0;stroke-width:0.5;"/>
     </g>
     <g id="line2d_26">
      <defs>
       <path d="M 0 0 
L 0 3.5 
" id="m3bd22f4818" style="stroke:#000000;stroke-width:0.8;"/>
      </defs>
      <g>
       <use style="stroke:#000000;stroke-width:0.8;" x="15.024247" xlink:href="#m3bd22f4818" y="86.335641"/>
      </g>
     </g>
    </g>
    <g id="xtick_2">
     <g id="line2d_27">
      <path clip-path="url(#pdabf2a9b36)" d="M 384.960491 87.704405 
L 384.960491 16.528672 
" style="fill:none;stroke:#000000;stroke-dasharray:0.5,0.825;stroke-dashoffset:0;stroke-width:0.5;"/>
     </g>
     <g id="line2d_28">
      <g>
       <use style="stroke:#000000;stroke-width:0.8;" x="384.960491" xlink:href="#m3bd22f4818" y="86.335641"/>
      </g>
     </g>
     <g id="text_1">
      <!-- $f$ -->
      <defs>
       <path d="M 9.71875 -16.5 
Q 11.578125 -17.921875 14.203125 -17.921875 
Q 17.78125 -17.921875 20.015625 -10.015625 
Q 20.953125 -6.203125 25.09375 15.09375 
L 29.6875 39.59375 
L 21.09375 39.59375 
Q 20.125 39.59375 20.125 40.921875 
Q 20.515625 43.109375 21.390625 43.109375 
L 30.328125 43.109375 
L 31.5 49.609375 
Q 32.078125 52.640625 32.5625 54.8125 
Q 33.0625 56.984375 33.625 58.828125 
Q 34.1875 60.6875 35.296875 62.984375 
Q 37.015625 66.265625 39.921875 68.390625 
Q 42.828125 70.515625 46.1875 70.515625 
Q 48.390625 70.515625 50.46875 69.703125 
Q 52.546875 68.890625 53.859375 67.28125 
Q 55.171875 65.671875 55.171875 63.484375 
Q 55.171875 60.9375 53.484375 59.046875 
Q 51.8125 57.171875 49.421875 57.171875 
Q 47.796875 57.171875 46.65625 58.171875 
Q 45.515625 59.1875 45.515625 60.796875 
Q 45.515625 62.984375 47 64.625 
Q 48.484375 66.265625 50.6875 66.5 
Q 48.828125 67.921875 46.09375 67.921875 
Q 44.578125 67.921875 43.234375 66.5 
Q 41.890625 65.09375 41.5 63.484375 
Q 40.875 60.9375 38.71875 49.703125 
L 37.5 43.109375 
L 47.796875 43.109375 
Q 48.78125 43.109375 48.78125 41.796875 
Q 48.734375 41.546875 48.578125 40.9375 
Q 48.4375 40.328125 48.171875 39.953125 
Q 47.90625 39.59375 47.515625 39.59375 
L 36.8125 39.59375 
L 32.171875 15.1875 
Q 31.296875 9.859375 30.140625 4.359375 
Q 29 -1.125 26.921875 -6.90625 
Q 24.859375 -12.703125 21.625 -16.609375 
Q 18.40625 -20.515625 14.015625 -20.515625 
Q 10.640625 -20.515625 7.984375 -18.578125 
Q 5.328125 -16.65625 5.328125 -13.484375 
Q 5.328125 -10.9375 6.953125 -9.046875 
Q 8.59375 -7.171875 11.078125 -7.171875 
Q 12.75 -7.171875 13.859375 -8.171875 
Q 14.984375 -9.1875 14.984375 -10.796875 
Q 14.984375 -12.9375 13.390625 -14.71875 
Q 11.8125 -16.5 9.71875 -16.5 
z
" id="Cmmi10-66"/>
      </defs>
      <g transform="translate(382.510491 100.913766)scale(0.1 -0.1)">
       <use transform="translate(0 0.484375)" xlink:href="#Cmmi10-66"/>
      </g>
     </g>
    </g>
    <g id="xtick_3">
     <g id="line2d_29">
      <path clip-path="url(#pdabf2a9b36)" d="M 562.529887 87.704405 
L 562.529887 16.528672 
" style="fill:none;stroke:#000000;stroke-dasharray:0.5,0.825;stroke-dashoffset:0;stroke-width:0.5;"/>
     </g>
     <g id="line2d_30">
      <g>
       <use style="stroke:#000000;stroke-width:0.8;" x="562.529887" xlink:href="#m3bd22f4818" y="86.335641"/>
      </g>
     </g>
     <g id="text_2">
      <!-- $1$ -->
      <defs>
       <path d="M 9.28125 0 
L 9.28125 3.515625 
Q 21.78125 3.515625 21.78125 6.6875 
L 21.78125 59.1875 
Q 16.609375 56.6875 8.6875 56.6875 
L 8.6875 60.203125 
Q 20.953125 60.203125 27.203125 66.609375 
L 28.609375 66.609375 
Q 28.953125 66.609375 29.265625 66.328125 
Q 29.59375 66.0625 29.59375 65.71875 
L 29.59375 6.6875 
Q 29.59375 3.515625 42.09375 3.515625 
L 42.09375 0 
z
" id="Cmr10-31"/>
      </defs>
      <g transform="translate(560.029887 100.934078)scale(0.1 -0.1)">
       <use transform="translate(0 0.390625)" xlink:href="#Cmr10-31"/>
      </g>
     </g>
    </g>
   </g>
   <g id="matplotlib.axis_2">
    <g id="ytick_1">
     <g id="line2d_31">
      <path clip-path="url(#pdabf2a9b36)" d="M 4.074135 86.335641 
L 573.48 86.335641 
" style="fill:none;stroke:#000000;stroke-dasharray:0.5,0.825;stroke-dashoffset:0;stroke-width:0.5;"/>
     </g>
     <g id="line2d_32">
      <defs>
       <path d="M 0 0 
L -3.5 0 
" id="mcf26790d6b" style="stroke:#000000;stroke-width:0.8;"/>
      </defs>
      <g>
       <use style="stroke:#000000;stroke-width:0.8;" x="15.024247" xlink:href="#mcf26790d6b" y="86.335641"/>
      </g>
     </g>
    </g>
    <g id="ytick_2">
     <g id="line2d_33">
      <path clip-path="url(#pdabf2a9b36)" d="M 4.074135 17.897436 
L 573.48 17.897436 
" style="fill:none;stroke:#000000;stroke-dasharray:0.5,0.825;stroke-dashoffset:0;stroke-width:0.5;"/>
     </g>
     <g id="line2d_34">
      <g>
       <use style="stroke:#000000;stroke-width:0.8;" x="15.024247" xlink:href="#mcf26790d6b" y="17.897436"/>
      </g>
     </g>
     <g id="text_3">
      <!-- $1$ -->
      <g transform="translate(3.024247 21.696655)scale(0.1 -0.1)">
       <use transform="translate(0 0.390625)" xlink:href="#Cmr10-31"/>
      </g>
     </g>
    </g>
   </g>
   <g id="patch_3">
    <path d="M 15.024247 87.704405 
L 15.024247 16.528672 
" style="fill:none;stroke:#000000;stroke-linecap:square;stroke-linejoin:miter;stroke-width:0.8;"/>
   </g>
   <g id="patch_4">
    <path d="M 4.074135 86.335641 
L 573.48 86.335641 
" style="fill:none;stroke:#000000;stroke-linecap:square;stroke-linejoin:miter;stroke-width:0.8;"/>
   </g>
  </g>
 </g>
 <defs>
  <clipPath id="pdabf2a9b36">
   <rect height="71.175733" width="569.405865" x="4.074135" y="16.528672"/>
  </clipPath>
 </defs>
</svg>
