<?xml version="1.0" encoding="utf-8" standalone="no"?>
<!DOCTYPE svg PUBLIC "-//W3C//DTD SVG 1.1//EN"
  "http://www.w3.org/Graphics/SVG/1.1/DTD/svg11.dtd">
<!-- Created with matplotlib (http://matplotlib.org/) -->
<svg height="108pt" version="1.1" viewBox="0 0 576 108" width="576pt" xmlns="http://www.w3.org/2000/svg" xmlns:xlink="http://www.w3.org/1999/xlink">
 <defs>
  <style type="text/css">
*{stroke-linecap:butt;stroke-linejoin:round;}
  </style>
 </defs>
 <g id="figure_1">
  <g id="patch_1">
   <path d="M 0 108 
L 576 108 
L 576 0 
L 0 0 
z
" style="fill:#ffffff;"/>
  </g>
  <g id="axes_1">
   <g id="patch_2">
    <path d="M 4.074135 87.704405 
L 573.48 87.704405 
L 573.48 16.528672 
L 4.074135 16.528672 
z
" style="fill:#ffffff;"/>
   </g>
   <g id="line2d_1">
    <path clip-path="url(#pa09d9c89ac)" d="M 15.024247 86.335641 
L 24.464 70.318189 
L 24.464 70.318189 
" style="fill:none;stroke:#ff0000;stroke-linecap:square;stroke-width:2;"/>
   </g>
   <g id="line2d_2">
    <path clip-path="url(#pa09d9c89ac)" d="M 147.180781 60.125265 
L 156.620534 44.107812 
L 156.620534 44.107812 
" style="fill:none;stroke:#ff0000;stroke-linecap:square;stroke-width:2;"/>
   </g>
   <g id="line2d_3">
    <path clip-path="url(#pa09d9c89ac)" d="M 279.337315 33.914888 
L 288.777067 17.897436 
L 288.777067 17.897436 
" style="fill:none;stroke:#ff0000;stroke-linecap:square;stroke-width:2;"/>
   </g>
   <g id="line2d_4">
    <path clip-path="url(#pa09d9c89ac)" d="M 288.777067 17.897436 
L 298.21682 33.914888 
L 298.21682 33.914888 
" style="fill:none;stroke:#ffff00;stroke-linecap:square;stroke-width:2;"/>
   </g>
   <g id="line2d_5">
    <path clip-path="url(#pa09d9c89ac)" d="M 420.933601 44.107812 
L 430.373353 60.125265 
L 430.373353 60.125265 
" style="fill:none;stroke:#ffff00;stroke-linecap:square;stroke-width:2;"/>
   </g>
   <g id="line2d_6">
    <path clip-path="url(#pa09d9c89ac)" d="M 553.090135 70.318189 
L 562.529887 86.335641 
L 562.529887 86.335641 
" style="fill:none;stroke:#ffff00;stroke-linecap:square;stroke-width:2;"/>
   </g>
   <g id="line2d_7">
    <path clip-path="url(#pa09d9c89ac)" d="M 298.21682 33.914888 
L 317.096325 54.300736 
L 317.096325 54.300736 
" style="fill:none;stroke:#00ff00;stroke-linecap:square;stroke-width:2;"/>
   </g>
   <g id="line2d_8">
    <path clip-path="url(#pa09d9c89ac)" d="M 326.536077 47.020076 
L 335.975829 57.213001 
L 335.975829 57.213001 
" style="fill:none;stroke:#00ff00;stroke-linecap:square;stroke-width:2;"/>
   </g>
   <g id="line2d_9">
    <path clip-path="url(#pa09d9c89ac)" d="M 345.415582 49.93234 
L 354.855334 60.125265 
L 354.855334 60.125265 
" style="fill:none;stroke:#00ff00;stroke-linecap:square;stroke-width:2;"/>
   </g>
   <g id="line2d_10">
    <path clip-path="url(#pa09d9c89ac)" d="M 392.614344 31.002624 
L 402.054096 41.195548 
L 402.054096 41.195548 
" style="fill:none;stroke:#00ff00;stroke-linecap:square;stroke-width:2;"/>
   </g>
   <g id="line2d_11">
    <path clip-path="url(#pa09d9c89ac)" d="M 411.493849 33.914888 
L 420.933601 44.107812 
L 420.933601 44.107812 
" style="fill:none;stroke:#00ff00;stroke-linecap:square;stroke-width:2;"/>
   </g>
   <g id="line2d_12">
    <path clip-path="url(#pa09d9c89ac)" d="M 430.373353 60.125265 
L 439.813106 70.318189 
L 439.813106 70.318189 
" style="fill:none;stroke:#00ff00;stroke-linecap:square;stroke-width:2;"/>
   </g>
   <g id="line2d_13">
    <path clip-path="url(#pa09d9c89ac)" d="M 449.252858 63.037529 
L 458.692611 73.230453 
L 458.692611 73.230453 
" style="fill:none;stroke:#00ff00;stroke-linecap:square;stroke-width:2;"/>
   </g>
   <g id="line2d_14">
    <path clip-path="url(#pa09d9c89ac)" d="M 496.45162 44.107812 
L 505.891373 54.300736 
L 505.891373 54.300736 
" style="fill:none;stroke:#00ff00;stroke-linecap:square;stroke-width:2;"/>
   </g>
   <g id="line2d_15">
    <path clip-path="url(#pa09d9c89ac)" d="M 515.331125 47.020076 
L 524.770878 57.213001 
L 524.770878 57.213001 
" style="fill:none;stroke:#00ff00;stroke-linecap:square;stroke-width:2;"/>
   </g>
   <g id="line2d_16">
    <path clip-path="url(#pa09d9c89ac)" d="M 534.21063 49.93234 
L 553.090135 70.318189 
L 553.090135 70.318189 
" style="fill:none;stroke:#00ff00;stroke-linecap:square;stroke-width:2;"/>
   </g>
   <g id="line2d_17">
    <path clip-path="url(#pa09d9c89ac)" d="M 317.096325 54.300736 
L 326.536077 47.020076 
L 326.536077 47.020076 
" style="fill:none;stroke:#00ffff;stroke-linecap:square;stroke-width:2;"/>
   </g>
   <g id="line2d_18">
    <path clip-path="url(#pa09d9c89ac)" d="M 335.975829 57.213001 
L 345.415582 49.93234 
L 345.415582 49.93234 
" style="fill:none;stroke:#00ffff;stroke-linecap:square;stroke-width:2;"/>
   </g>
   <g id="line2d_19">
    <path clip-path="url(#pa09d9c89ac)" d="M 354.855334 60.125265 
L 392.614344 31.002624 
L 392.614344 31.002624 
" style="fill:none;stroke:#00ffff;stroke-linecap:square;stroke-width:2;"/>
   </g>
   <g id="line2d_20">
    <path clip-path="url(#pa09d9c89ac)" d="M 402.054096 41.195548 
L 411.493849 33.914888 
L 411.493849 33.914888 
" style="fill:none;stroke:#00ffff;stroke-linecap:square;stroke-width:2;"/>
   </g>
   <g id="line2d_21">
    <path clip-path="url(#pa09d9c89ac)" d="M 439.813106 70.318189 
L 449.252858 63.037529 
L 449.252858 63.037529 
" style="fill:none;stroke:#00ffff;stroke-linecap:square;stroke-width:2;"/>
   </g>
   <g id="line2d_22">
    <path clip-path="url(#pa09d9c89ac)" d="M 458.692611 73.230453 
L 496.45162 44.107812 
L 496.45162 44.107812 
" style="fill:none;stroke:#00ffff;stroke-linecap:square;stroke-width:2;"/>
   </g>
   <g id="line2d_23">
    <path clip-path="url(#pa09d9c89ac)" d="M 505.891373 54.300736 
L 515.331125 47.020076 
L 515.331125 47.020076 
" style="fill:none;stroke:#00ffff;stroke-linecap:square;stroke-width:2;"/>
   </g>
   <g id="line2d_24">
    <path clip-path="url(#pa09d9c89ac)" d="M 524.770878 57.213001 
L 534.21063 49.93234 
L 534.21063 49.93234 
" style="fill:none;stroke:#00ffff;stroke-linecap:square;stroke-width:2;"/>
   </g>
   <g id="line2d_25">
    <path clip-path="url(#pa09d9c89ac)" d="M 43.343505 49.93234 
L 52.783257 57.213001 
L 52.783257 57.213001 
" style="fill:none;stroke:#0000ff;stroke-linecap:square;stroke-width:2;"/>
   </g>
   <g id="line2d_26">
    <path clip-path="url(#pa09d9c89ac)" d="M 62.223009 47.020076 
L 71.662762 54.300736 
L 71.662762 54.300736 
" style="fill:none;stroke:#0000ff;stroke-linecap:square;stroke-width:2;"/>
   </g>
   <g id="line2d_27">
    <path clip-path="url(#pa09d9c89ac)" d="M 81.102514 44.107812 
L 118.861524 73.230453 
L 118.861524 73.230453 
" style="fill:none;stroke:#0000ff;stroke-linecap:square;stroke-width:2;"/>
   </g>
   <g id="line2d_28">
    <path clip-path="url(#pa09d9c89ac)" d="M 128.301276 63.037529 
L 137.741029 70.318189 
L 137.741029 70.318189 
" style="fill:none;stroke:#0000ff;stroke-linecap:square;stroke-width:2;"/>
   </g>
   <g id="line2d_29">
    <path clip-path="url(#pa09d9c89ac)" d="M 166.060286 33.914888 
L 175.500038 41.195548 
L 175.500038 41.195548 
" style="fill:none;stroke:#0000ff;stroke-linecap:square;stroke-width:2;"/>
   </g>
   <g id="line2d_30">
    <path clip-path="url(#pa09d9c89ac)" d="M 184.939791 31.002624 
L 222.6988 60.125265 
L 222.6988 60.125265 
" style="fill:none;stroke:#0000ff;stroke-linecap:square;stroke-width:2;"/>
   </g>
   <g id="line2d_31">
    <path clip-path="url(#pa09d9c89ac)" d="M 232.138553 49.93234 
L 241.578305 57.213001 
L 241.578305 57.213001 
" style="fill:none;stroke:#0000ff;stroke-linecap:square;stroke-width:2;"/>
   </g>
   <g id="line2d_32">
    <path clip-path="url(#pa09d9c89ac)" d="M 251.018058 47.020076 
L 260.45781 54.300736 
L 260.45781 54.300736 
" style="fill:none;stroke:#0000ff;stroke-linecap:square;stroke-width:2;"/>
   </g>
   <g id="line2d_33">
    <path clip-path="url(#pa09d9c89ac)" d="M 24.464 70.318189 
L 43.343505 49.93234 
L 43.343505 49.93234 
" style="fill:none;stroke:#ff00ff;stroke-linecap:square;stroke-width:2;"/>
   </g>
   <g id="line2d_34">
    <path clip-path="url(#pa09d9c89ac)" d="M 52.783257 57.213001 
L 62.223009 47.020076 
L 62.223009 47.020076 
" style="fill:none;stroke:#ff00ff;stroke-linecap:square;stroke-width:2;"/>
   </g>
   <g id="line2d_35">
    <path clip-path="url(#pa09d9c89ac)" d="M 71.662762 54.300736 
L 81.102514 44.107812 
L 81.102514 44.107812 
" style="fill:none;stroke:#ff00ff;stroke-linecap:square;stroke-width:2;"/>
   </g>
   <g id="line2d_36">
    <path clip-path="url(#pa09d9c89ac)" d="M 118.861524 73.230453 
L 128.301276 63.037529 
L 128.301276 63.037529 
" style="fill:none;stroke:#ff00ff;stroke-linecap:square;stroke-width:2;"/>
   </g>
   <g id="line2d_37">
    <path clip-path="url(#pa09d9c89ac)" d="M 137.741029 70.318189 
L 147.180781 60.125265 
L 147.180781 60.125265 
" style="fill:none;stroke:#ff00ff;stroke-linecap:square;stroke-width:2;"/>
   </g>
   <g id="line2d_38">
    <path clip-path="url(#pa09d9c89ac)" d="M 156.620534 44.107812 
L 156.657931 44.067431 
L 156.697507 44.024698 
L 156.747916 43.970266 
L 156.789513 43.92535 
L 156.858317 43.851057 
L 156.900435 43.805579 
L 156.935313 43.767918 
L 156.997904 43.700333 
L 157.034977 43.660302 
L 157.08146 43.61011 
L 157.133993 43.553385 
L 157.196069 43.486356 
L 157.257691 43.419818 
L 157.28706 43.388105 
L 157.326345 43.345687 
L 157.396087 43.27038 
L 157.444495 43.21811 
L 157.456621 43.205016 
L 157.522014 43.134405 
L 157.582396 43.069206 
L 157.639417 43.007635 
L 157.669942 42.974675 
L 157.694775 42.94786 
L 157.78236 42.853287 
L 157.805544 42.828253 
L 157.874 42.754336 
L 157.896399 42.730149 
L 157.926545 42.697598 
L 157.985589 42.633843 
L 158.026585 42.589576 
L 158.07857 42.533443 
L 158.162059 42.443293 
L 158.209238 42.39235 
L 158.237207 42.362149 
L 158.281545 42.314273 
L 158.347469 42.243089 
L 158.384498 42.203106 
L 158.430057 42.153912 
L 158.465309 42.115847 
L 158.505963 42.071949 
L 158.553582 42.020531 
L 158.632451 41.935369 
L 158.661751 41.903731 
L 158.68994 41.873293 
L 158.7539 41.804231 
L 158.818417 41.734566 
L 158.841265 41.709895 
L 158.904569 41.64154 
L 158.934354 41.609378 
L 158.981017 41.558992 
L 159.02177 41.514988 
L 159.076869 41.455492 
L 159.12887 41.399343 
L 159.184155 41.339646 
L 159.23694 41.28265 
L 159.273044 41.243666 
L 159.336461 41.175188 
L 159.368886 41.140177 
L 159.429345 41.074893 
L 159.476788 41.023665 
L 159.505426 40.992742 
L 159.56108 40.932648 
L 159.604118 40.886176 
L 159.634992 40.852839 
L 159.707063 40.775018 
L 159.745993 40.732981 
L 159.798464 40.676324 
L 159.853938 40.616424 
L 159.910028 40.555858 
L 159.950213 40.512467 
L 160.01074 40.44711 
L 160.052795 40.4017 
L 160.075924 40.376726 
L 160.115215 40.3343 
L 160.196757 40.246252 
L 160.206212 40.236042 
L 160.2693 40.167921 
L 160.335437 40.096507 
L 160.390663 40.036874 
L 160.409323 40.016726 
L 160.455297 39.967084 
L 160.532319 39.883916 
L 160.550455 39.864334 
L 160.62359 39.785364 
L 160.659216 39.746895 
L 160.680986 39.723388 
L 160.748393 39.650602 
L 160.785759 39.610255 
L 160.831478 39.560888 
L 160.89552 39.491736 
L 160.936666 39.447307 
L 160.962481 39.419433 
L 161.013177 39.364692 
L 161.057015 39.317356 
L 161.104104 39.26651 
L 161.188445 39.17544 
L 161.24548 39.113854 
L 161.250982 39.107914 
L 161.31473 39.039079 
L 161.365564 38.984189 
L 161.435105 38.9091 
L 161.480449 38.860138 
L 161.524883 38.812158 
L 161.531059 38.80549 
L 161.606915 38.723581 
L 161.628711 38.700046 
L 161.702408 38.62047 
L 161.731351 38.589217 
L 161.802221 38.512693 
L 161.861177 38.449033 
L 161.872449 38.436861 
L 161.949664 38.353486 
L 161.959609 38.342747 
" style="fill:none;stroke:#ff00ff;stroke-linecap:square;stroke-width:2;"/>
   </g>
   <g id="line2d_39">
    <path clip-path="url(#pa09d9c89ac)" d="M 162.114199 38.175822 
L 162.161821 38.124401 
L 162.220846 38.060666 
L 162.277754 37.999218 
L 162.32305 37.950307 
L 162.361217 37.909095 
L 162.413634 37.852497 
L 162.441261 37.822665 
L 162.518514 37.739249 
L 162.559096 37.695428 
L 162.60394 37.647006 
L 162.65956 37.586949 
L 162.690271 37.553788 
L 162.72134 37.520239 
L 162.785981 37.45044 
L 162.854936 37.375984 
L 162.87306 37.356414 
L 162.944487 37.279288 
L 162.974502 37.246879 
L 163.001527 37.217697 
L 163.056464 37.158377 
L 163.114431 37.095785 
L 163.171473 37.034191 
L 163.203022 37.000125 
L 163.25926 36.9394 
L 163.303245 36.891906 
L 163.362624 36.827789 
L 163.383654 36.805081 
L 163.444626 36.739244 
L 163.496759 36.682952 
L 163.53649 36.640051 
L 163.614045 36.556308 
L 163.645216 36.52265 
L 163.690729 36.473506 
L 163.728009 36.433251 
L 163.804277 36.350898 
L 163.854394 36.296782 
L 163.862055 36.28851 
L 163.946629 36.197188 
L 163.978815 36.162434 
L 164.023809 36.11385 
L 164.082971 36.049968 
L 164.128826 36.000454 
L 164.142093 35.986128 
L 164.228659 35.892656 
L 164.27409 35.843599 
L 164.322557 35.791265 
L 164.350378 35.761225 
L 164.39311 35.715084 
L 164.430447 35.674768 
L 164.493049 35.60717 
L 164.529294 35.568034 
L 164.587336 35.505361 
L 164.6238 35.465988 
L 164.680187 35.405101 
L 164.739234 35.341343 
L 164.780041 35.297281 
L 164.844536 35.22764 
L 164.860222 35.210702 
L 164.906991 35.160202 
L 164.972754 35.089192 
L 165.021406 35.036658 
L 165.048066 35.007871 
L 165.116591 34.933878 
L 165.141222 34.907282 
L 165.216294 34.82622 
L 165.236699 34.804187 
L 165.297493 34.738543 
L 165.34352 34.688843 
L 165.41291 34.613917 
L 165.420894 34.605295 
L 165.513703 34.505082 
L 165.524948 34.492939 
L 165.601764 34.409995 
L 165.610488 34.400575 
L 165.667243 34.339291 
L 165.721914 34.280258 
L 165.793439 34.203026 
L 165.805855 34.18962 
L 165.862737 34.128199 
L 165.935389 34.049751 
L 165.961917 34.021105 
L 165.98975 33.991052 
L 166.060286 33.914888 
" style="fill:none;stroke:#ff00ff;stroke-linecap:square;stroke-width:2;"/>
   </g>
   <g id="line2d_40">
    <path clip-path="url(#pa09d9c89ac)" d="M 175.500038 41.195548 
L 184.939791 31.002624 
L 184.939791 31.002624 
" style="fill:none;stroke:#ff00ff;stroke-linecap:square;stroke-width:2;"/>
   </g>
   <g id="line2d_41">
    <path clip-path="url(#pa09d9c89ac)" d="M 222.6988 60.125265 
L 232.138553 49.93234 
L 232.138553 49.93234 
" style="fill:none;stroke:#ff00ff;stroke-linecap:square;stroke-width:2;"/>
   </g>
   <g id="line2d_42">
    <path clip-path="url(#pa09d9c89ac)" d="M 241.578305 57.213001 
L 251.018058 47.020076 
L 251.018058 47.020076 
" style="fill:none;stroke:#ff00ff;stroke-linecap:square;stroke-width:2;"/>
   </g>
   <g id="line2d_43">
    <path clip-path="url(#pa09d9c89ac)" d="M 260.45781 54.300736 
L 279.337315 33.914888 
L 279.337315 33.914888 
" style="fill:none;stroke:#ff00ff;stroke-linecap:square;stroke-width:2;"/>
   </g>
   <g id="matplotlib.axis_1">
    <g id="xtick_1">
     <g id="line2d_44">
      <path clip-path="url(#pa09d9c89ac)" d="M 15.024247 87.704405 
L 15.024247 16.528672 
" style="fill:none;stroke:#000000;stroke-dasharray:0.5,0.825;stroke-dashoffset:0;stroke-width:0.5;"/>
     </g>
     <g id="line2d_45">
      <defs>
       <path d="M 0 0 
L 0 3.5 
" id="m04408e2b58" style="stroke:#000000;stroke-width:0.8;"/>
      </defs>
      <g>
       <use style="stroke:#000000;stroke-width:0.8;" x="15.024247" xlink:href="#m04408e2b58" y="86.335641"/>
      </g>
     </g>
    </g>
    <g id="xtick_2">
     <g id="line2d_46">
      <path clip-path="url(#pa09d9c89ac)" d="M 288.777067 87.704405 
L 288.777067 16.528672 
" style="fill:none;stroke:#000000;stroke-dasharray:0.5,0.825;stroke-dashoffset:0;stroke-width:0.5;"/>
     </g>
     <g id="line2d_47">
      <g>
       <use style="stroke:#000000;stroke-width:0.8;" x="288.777067" xlink:href="#m04408e2b58" y="86.335641"/>
      </g>
     </g>
     <g id="text_1">
      <!-- $f$ -->
      <defs>
       <path d="M 9.71875 -16.5 
Q 11.578125 -17.921875 14.203125 -17.921875 
Q 17.78125 -17.921875 20.015625 -10.015625 
Q 20.953125 -6.203125 25.09375 15.09375 
L 29.6875 39.59375 
L 21.09375 39.59375 
Q 20.125 39.59375 20.125 40.921875 
Q 20.515625 43.109375 21.390625 43.109375 
L 30.328125 43.109375 
L 31.5 49.609375 
Q 32.078125 52.640625 32.5625 54.8125 
Q 33.0625 56.984375 33.625 58.828125 
Q 34.1875 60.6875 35.296875 62.984375 
Q 37.015625 66.265625 39.921875 68.390625 
Q 42.828125 70.515625 46.1875 70.515625 
Q 48.390625 70.515625 50.46875 69.703125 
Q 52.546875 68.890625 53.859375 67.28125 
Q 55.171875 65.671875 55.171875 63.484375 
Q 55.171875 60.9375 53.484375 59.046875 
Q 51.8125 57.171875 49.421875 57.171875 
Q 47.796875 57.171875 46.65625 58.171875 
Q 45.515625 59.1875 45.515625 60.796875 
Q 45.515625 62.984375 47 64.625 
Q 48.484375 66.265625 50.6875 66.5 
Q 48.828125 67.921875 46.09375 67.921875 
Q 44.578125 67.921875 43.234375 66.5 
Q 41.890625 65.09375 41.5 63.484375 
Q 40.875 60.9375 38.71875 49.703125 
L 37.5 43.109375 
L 47.796875 43.109375 
Q 48.78125 43.109375 48.78125 41.796875 
Q 48.734375 41.546875 48.578125 40.9375 
Q 48.4375 40.328125 48.171875 39.953125 
Q 47.90625 39.59375 47.515625 39.59375 
L 36.8125 39.59375 
L 32.171875 15.1875 
Q 31.296875 9.859375 30.140625 4.359375 
Q 29 -1.125 26.921875 -6.90625 
Q 24.859375 -12.703125 21.625 -16.609375 
Q 18.40625 -20.515625 14.015625 -20.515625 
Q 10.640625 -20.515625 7.984375 -18.578125 
Q 5.328125 -16.65625 5.328125 -13.484375 
Q 5.328125 -10.9375 6.953125 -9.046875 
Q 8.59375 -7.171875 11.078125 -7.171875 
Q 12.75 -7.171875 13.859375 -8.171875 
Q 14.984375 -9.1875 14.984375 -10.796875 
Q 14.984375 -12.9375 13.390625 -14.71875 
Q 11.8125 -16.5 9.71875 -16.5 
z
" id="Cmmi10-66"/>
      </defs>
      <g transform="translate(286.327067 100.913766)scale(0.1 -0.1)">
       <use transform="translate(0 0.484375)" xlink:href="#Cmmi10-66"/>
      </g>
     </g>
    </g>
    <g id="xtick_3">
     <g id="line2d_48">
      <path clip-path="url(#pa09d9c89ac)" d="M 562.529887 87.704405 
L 562.529887 16.528672 
" style="fill:none;stroke:#000000;stroke-dasharray:0.5,0.825;stroke-dashoffset:0;stroke-width:0.5;"/>
     </g>
     <g id="line2d_49">
      <g>
       <use style="stroke:#000000;stroke-width:0.8;" x="562.529887" xlink:href="#m04408e2b58" y="86.335641"/>
      </g>
     </g>
     <g id="text_2">
      <!-- $1$ -->
      <defs>
       <path d="M 9.28125 0 
L 9.28125 3.515625 
Q 21.78125 3.515625 21.78125 6.6875 
L 21.78125 59.1875 
Q 16.609375 56.6875 8.6875 56.6875 
L 8.6875 60.203125 
Q 20.953125 60.203125 27.203125 66.609375 
L 28.609375 66.609375 
Q 28.953125 66.609375 29.265625 66.328125 
Q 29.59375 66.0625 29.59375 65.71875 
L 29.59375 6.6875 
Q 29.59375 3.515625 42.09375 3.515625 
L 42.09375 0 
z
" id="Cmr10-31"/>
      </defs>
      <g transform="translate(560.029887 100.934078)scale(0.1 -0.1)">
       <use transform="translate(0 0.390625)" xlink:href="#Cmr10-31"/>
      </g>
     </g>
    </g>
   </g>
   <g id="matplotlib.axis_2">
    <g id="ytick_1">
     <g id="line2d_50">
      <path clip-path="url(#pa09d9c89ac)" d="M 4.074135 86.335641 
L 573.48 86.335641 
" style="fill:none;stroke:#000000;stroke-dasharray:0.5,0.825;stroke-dashoffset:0;stroke-width:0.5;"/>
     </g>
     <g id="line2d_51">
      <defs>
       <path d="M 0 0 
L -3.5 0 
" id="m2bf5aa0c79" style="stroke:#000000;stroke-width:0.8;"/>
      </defs>
      <g>
       <use style="stroke:#000000;stroke-width:0.8;" x="15.024247" xlink:href="#m2bf5aa0c79" y="86.335641"/>
      </g>
     </g>
    </g>
    <g id="ytick_2">
     <g id="line2d_52">
      <path clip-path="url(#pa09d9c89ac)" d="M 4.074135 17.897436 
L 573.48 17.897436 
" style="fill:none;stroke:#000000;stroke-dasharray:0.5,0.825;stroke-dashoffset:0;stroke-width:0.5;"/>
     </g>
     <g id="line2d_53">
      <g>
       <use style="stroke:#000000;stroke-width:0.8;" x="15.024247" xlink:href="#m2bf5aa0c79" y="17.897436"/>
      </g>
     </g>
     <g id="text_3">
      <!-- $1$ -->
      <g transform="translate(3.024247 21.696655)scale(0.1 -0.1)">
       <use transform="translate(0 0.390625)" xlink:href="#Cmr10-31"/>
      </g>
     </g>
    </g>
   </g>
   <g id="patch_3">
    <path d="M 15.024247 87.704405 
L 15.024247 16.528672 
" style="fill:none;stroke:#000000;stroke-linecap:square;stroke-linejoin:miter;stroke-width:0.8;"/>
   </g>
   <g id="patch_4">
    <path d="M 4.074135 86.335641 
L 573.48 86.335641 
" style="fill:none;stroke:#000000;stroke-linecap:square;stroke-linejoin:miter;stroke-width:0.8;"/>
   </g>
  </g>
 </g>
 <defs>
  <clipPath id="pa09d9c89ac">
   <rect height="71.175733" width="569.405865" x="4.074135" y="16.528672"/>
  </clipPath>
 </defs>
</svg>
