<?xml version="1.0" encoding="utf-8" standalone="no"?>
<!DOCTYPE svg PUBLIC "-//W3C//DTD SVG 1.1//EN"
  "http://www.w3.org/Graphics/SVG/1.1/DTD/svg11.dtd">
<!-- Created with matplotlib (http://matplotlib.org/) -->
<svg height="108pt" version="1.1" viewBox="0 0 576 108" width="576pt" xmlns="http://www.w3.org/2000/svg" xmlns:xlink="http://www.w3.org/1999/xlink">
 <defs>
  <style type="text/css">
*{stroke-linecap:butt;stroke-linejoin:round;}
  </style>
 </defs>
 <g id="figure_1">
  <g id="patch_1">
   <path d="M 0 108 
L 576 108 
L 576 0 
L 0 0 
z
" style="fill:#ffffff;"/>
  </g>
  <g id="axes_1">
   <g id="patch_2">
    <path d="M 8.756652 91.079231 
L 285.48 91.079231 
L 285.48 2.52 
L 8.756652 2.52 
z
" style="fill:#ffffff;"/>
   </g>
   <g id="line2d_1">
    <path clip-path="url(#p72dd41d244)" d="M 226.942369 4.223062 
L 280.158397 89.376169 
L 280.158397 89.376169 
" style="fill:none;stroke:#ff0000;stroke-linecap:square;"/>
   </g>
   <g id="line2d_2">
    <path clip-path="url(#p72dd41d244)" d="M 14.078255 89.376169 
L 226.942369 4.223062 
L 226.942369 4.223062 
" style="fill:none;stroke:#00ffff;stroke-linecap:square;"/>
   </g>
   <g id="matplotlib.axis_1">
    <g id="xtick_1">
     <g id="line2d_3">
      <path clip-path="url(#p72dd41d244)" d="M 14.078255 91.079231 
L 14.078255 2.52 
" style="fill:none;stroke:#000000;stroke-dasharray:0.5,0.825;stroke-dashoffset:0;stroke-width:0.5;"/>
     </g>
     <g id="line2d_4">
      <defs>
       <path d="M 0 0 
L 0 3.5 
" id="m9024e66f09" style="stroke:#000000;stroke-width:0.8;"/>
      </defs>
      <g>
       <use style="stroke:#000000;stroke-width:0.8;" x="14.078255" xlink:href="#m9024e66f09" y="89.376169"/>
      </g>
     </g>
    </g>
    <g id="xtick_2">
     <g id="line2d_5">
      <path clip-path="url(#p72dd41d244)" d="M 226.942369 91.079231 
L 226.942369 2.52 
" style="fill:none;stroke:#000000;stroke-dasharray:0.5,0.825;stroke-dashoffset:0;stroke-width:0.5;"/>
     </g>
     <g id="line2d_6">
      <g>
       <use style="stroke:#000000;stroke-width:0.8;" x="226.942369" xlink:href="#m9024e66f09" y="89.376169"/>
      </g>
     </g>
     <g id="text_1">
      <!-- $f$ -->
      <defs>
       <path d="M 9.71875 -16.5 
Q 11.578125 -17.921875 14.203125 -17.921875 
Q 17.78125 -17.921875 20.015625 -10.015625 
Q 20.953125 -6.203125 25.09375 15.09375 
L 29.6875 39.59375 
L 21.09375 39.59375 
Q 20.125 39.59375 20.125 40.921875 
Q 20.515625 43.109375 21.390625 43.109375 
L 30.328125 43.109375 
L 31.5 49.609375 
Q 32.078125 52.640625 32.5625 54.8125 
Q 33.0625 56.984375 33.625 58.828125 
Q 34.1875 60.6875 35.296875 62.984375 
Q 37.015625 66.265625 39.921875 68.390625 
Q 42.828125 70.515625 46.1875 70.515625 
Q 48.390625 70.515625 50.46875 69.703125 
Q 52.546875 68.890625 53.859375 67.28125 
Q 55.171875 65.671875 55.171875 63.484375 
Q 55.171875 60.9375 53.484375 59.046875 
Q 51.8125 57.171875 49.421875 57.171875 
Q 47.796875 57.171875 46.65625 58.171875 
Q 45.515625 59.1875 45.515625 60.796875 
Q 45.515625 62.984375 47 64.625 
Q 48.484375 66.265625 50.6875 66.5 
Q 48.828125 67.921875 46.09375 67.921875 
Q 44.578125 67.921875 43.234375 66.5 
Q 41.890625 65.09375 41.5 63.484375 
Q 40.875 60.9375 38.71875 49.703125 
L 37.5 43.109375 
L 47.796875 43.109375 
Q 48.78125 43.109375 48.78125 41.796875 
Q 48.734375 41.546875 48.578125 40.9375 
Q 48.4375 40.328125 48.171875 39.953125 
Q 47.90625 39.59375 47.515625 39.59375 
L 36.8125 39.59375 
L 32.171875 15.1875 
Q 31.296875 9.859375 30.140625 4.359375 
Q 29 -1.125 26.921875 -6.90625 
Q 24.859375 -12.703125 21.625 -16.609375 
Q 18.40625 -20.515625 14.015625 -20.515625 
Q 10.640625 -20.515625 7.984375 -18.578125 
Q 5.328125 -16.65625 5.328125 -13.484375 
Q 5.328125 -10.9375 6.953125 -9.046875 
Q 8.59375 -7.171875 11.078125 -7.171875 
Q 12.75 -7.171875 13.859375 -8.171875 
Q 14.984375 -9.1875 14.984375 -10.796875 
Q 14.984375 -12.9375 13.390625 -14.71875 
Q 11.8125 -16.5 9.71875 -16.5 
z
" id="Cmmi10-66"/>
      </defs>
      <g transform="translate(224.492369 103.954294)scale(0.1 -0.1)">
       <use transform="translate(0 0.484375)" xlink:href="#Cmmi10-66"/>
      </g>
     </g>
    </g>
    <g id="xtick_3">
     <g id="line2d_7">
      <path clip-path="url(#p72dd41d244)" d="M 280.158397 91.079231 
L 280.158397 2.52 
" style="fill:none;stroke:#000000;stroke-dasharray:0.5,0.825;stroke-dashoffset:0;stroke-width:0.5;"/>
     </g>
     <g id="line2d_8">
      <g>
       <use style="stroke:#000000;stroke-width:0.8;" x="280.158397" xlink:href="#m9024e66f09" y="89.376169"/>
      </g>
     </g>
     <g id="text_2">
      <!-- $1$ -->
      <defs>
       <path d="M 9.28125 0 
L 9.28125 3.515625 
Q 21.78125 3.515625 21.78125 6.6875 
L 21.78125 59.1875 
Q 16.609375 56.6875 8.6875 56.6875 
L 8.6875 60.203125 
Q 20.953125 60.203125 27.203125 66.609375 
L 28.609375 66.609375 
Q 28.953125 66.609375 29.265625 66.328125 
Q 29.59375 66.0625 29.59375 65.71875 
L 29.59375 6.6875 
Q 29.59375 3.515625 42.09375 3.515625 
L 42.09375 0 
z
" id="Cmr10-31"/>
      </defs>
      <g transform="translate(277.658397 103.974606)scale(0.1 -0.1)">
       <use transform="translate(0 0.390625)" xlink:href="#Cmr10-31"/>
      </g>
     </g>
    </g>
   </g>
   <g id="matplotlib.axis_2">
    <g id="ytick_1">
     <g id="line2d_9">
      <path clip-path="url(#p72dd41d244)" d="M 8.756652 89.376169 
L 285.48 89.376169 
" style="fill:none;stroke:#000000;stroke-dasharray:0.5,0.825;stroke-dashoffset:0;stroke-width:0.5;"/>
     </g>
     <g id="line2d_10">
      <defs>
       <path d="M 0 0 
L -3.5 0 
" id="mefcea093f0" style="stroke:#000000;stroke-width:0.8;"/>
      </defs>
      <g>
       <use style="stroke:#000000;stroke-width:0.8;" x="14.078255" xlink:href="#mefcea093f0" y="89.376169"/>
      </g>
     </g>
    </g>
    <g id="ytick_2">
     <g id="line2d_11">
      <path clip-path="url(#p72dd41d244)" d="M 8.756652 4.223062 
L 285.48 4.223062 
" style="fill:none;stroke:#000000;stroke-dasharray:0.5,0.825;stroke-dashoffset:0;stroke-width:0.5;"/>
     </g>
     <g id="line2d_12">
      <g>
       <use style="stroke:#000000;stroke-width:0.8;" x="14.078255" xlink:href="#mefcea093f0" y="4.223062"/>
      </g>
     </g>
     <g id="text_3">
      <!-- $1$ -->
      <g transform="translate(2.078255 8.022281)scale(0.1 -0.1)">
       <use transform="translate(0 0.390625)" xlink:href="#Cmr10-31"/>
      </g>
     </g>
    </g>
   </g>
   <g id="patch_3">
    <path d="M 14.078255 91.079231 
L 14.078255 2.52 
" style="fill:none;stroke:#000000;stroke-linecap:square;stroke-linejoin:miter;stroke-width:0.8;"/>
   </g>
   <g id="patch_4">
    <path d="M 8.756652 89.376169 
L 285.48 89.376169 
" style="fill:none;stroke:#000000;stroke-linecap:square;stroke-linejoin:miter;stroke-width:0.8;"/>
   </g>
  </g>
  <g id="axes_2">
   <g id="patch_5">
    <path d="M 296.756652 91.079231 
L 573.48 91.079231 
L 573.48 2.52 
L 296.756652 2.52 
z
" style="fill:#ffffff;"/>
   </g>
   <g id="line2d_13">
    <path clip-path="url(#p4cfb26ef27)" d="M 373.03296 4.223062 
L 390.771636 89.376169 
L 390.771636 89.376169 
" style="fill:none;stroke:#ff0000;stroke-linecap:square;"/>
   </g>
   <g id="line2d_14">
    <path clip-path="url(#p4cfb26ef27)" d="M 461.72634 4.223062 
L 479.465016 89.376169 
L 479.465016 89.376169 
" style="fill:none;stroke:#ff0000;stroke-linecap:square;"/>
   </g>
   <g id="line2d_15">
    <path clip-path="url(#p4cfb26ef27)" d="M 550.419721 4.223062 
L 550.516463 4.687463 
L 550.601961 5.097891 
L 550.661464 5.383529 
L 550.796789 6.033149 
L 550.882333 6.443796 
L 550.93978 6.719562 
L 551.030757 7.15629 
L 551.097934 7.478771 
L 551.196022 7.949632 
L 551.335495 8.619163 
L 551.423633 9.042262 
L 551.464661 9.239215 
L 551.622771 9.998207 
L 551.696873 10.353931 
L 551.730117 10.513514 
L 551.889017 11.276302 
L 551.908982 11.372139 
L 551.987252 11.747871 
L 552.152992 12.543493 
L 552.230358 12.914883 
L 552.265402 13.083105 
L 552.369235 13.58155 
L 552.454322 13.990003 
L 552.566567 14.528825 
L 552.628117 14.824294 
L 552.720401 15.267294 
L 552.841688 15.849524 
L 552.879961 16.033251 
L 552.975346 16.491139 
L 553.129988 17.233484 
L 553.149512 17.327206 
L 553.297503 18.037626 
L 553.322678 18.158475 
L 553.466111 18.847014 
L 553.553417 19.266123 
L 553.646957 19.715151 
L 553.727595 20.102251 
L 553.796744 20.434195 
L 553.890694 20.885192 
L 553.957059 21.203774 
L 554.049781 21.648877 
L 554.156114 22.159321 
L 554.214752 22.440806 
L 554.371217 23.191904 
L 554.461828 23.626877 
L 554.552949 24.064296 
L 554.584243 24.21452 
L 554.725995 24.894987 
L 554.788682 25.195914 
L 554.888099 25.673157 
L 554.926284 25.85646 
L 555.013737 26.276272 
L 555.180824 27.078359 
L 555.239509 27.360072 
L 555.285673 27.581678 
L 555.406458 28.161496 
L 555.45618 28.400185 
L 555.629047 29.230018 
L 555.651 29.3354 
L 555.739973 29.762512 
L 555.822206 30.157261 
L 555.98991 30.962314 
L 556.013904 31.077493 
L 556.15361 31.74814 
L 556.23484 32.138079 
L 556.294883 32.426311 
L 556.363694 32.756634 
L 556.525342 33.532612 
L 556.547788 33.640361 
L 556.624708 34.009609 
L 556.73122 34.520914 
L 556.842172 35.053529 
L 556.892648 35.295833 
L 557.05039 36.053064 
L 557.110479 36.341513 
L 557.168364 36.619385 
L 557.327463 37.383129 
L 557.329794 37.394317 
" style="fill:none;stroke:#ff0000;stroke-linecap:square;"/>
   </g>
   <g id="line2d_16">
    <path clip-path="url(#p4cfb26ef27)" d="M 557.672546 39.039673 
L 557.739122 39.359263 
L 557.784872 39.578885 
L 557.882346 40.046803 
L 557.952242 40.38233 
L 558.078659 40.989188 
L 558.212942 41.633802 
L 558.269421 41.904923 
L 558.346022 42.272643 
L 558.411516 42.587038 
L 558.501087 43.01702 
L 558.591565 43.451349 
L 558.697046 43.957706 
L 558.788666 44.39752 
L 558.859997 44.739935 
L 559.019159 45.503981 
L 559.029606 45.55413 
L 559.138445 46.076605 
L 559.227027 46.501836 
L 559.344116 47.06391 
L 559.412605 47.392687 
L 559.551469 48.059294 
L 559.612935 48.354354 
L 559.723379 48.884532 
L 559.804991 49.276306 
L 559.829747 49.395146 
L 559.939495 49.921982 
L 560.073811 50.566756 
L 560.127001 50.822091 
L 560.205744 51.200089 
L 560.331068 51.801696 
L 560.401782 52.141154 
L 560.511773 52.669158 
L 560.55933 52.897449 
L 560.675994 53.457484 
L 560.758834 53.855151 
L 560.878445 54.429337 
L 560.981971 54.926304 
L 561.025669 55.136073 
L 561.083115 55.41184 
L 561.218449 56.061498 
L 561.327527 56.585117 
L 561.365779 56.768743 
L 561.474908 57.29261 
L 561.569816 57.74821 
L 561.670078 58.229507 
L 561.782315 58.768294 
L 561.8681 59.180098 
L 561.928564 59.470349 
L 562.036322 59.987633 
L 562.065892 60.12958 
L 562.169949 60.629099 
L 562.312277 61.312331 
L 562.348758 61.487458 
L 562.465858 62.049584 
L 562.50176 62.221933 
L 562.633893 62.856223 
L 562.702845 63.187224 
L 562.826693 63.781745 
L 562.91672 64.213915 
L 562.970589 64.472506 
L 563.07206 64.959609 
L 563.205575 65.60054 
L 563.276779 65.942351 
L 563.357161 66.328217 
L 563.472608 66.882412 
L 563.485084 66.942302 
L 563.644172 67.705991 
L 563.677048 67.86381 
L 563.833249 68.61364 
L 563.868364 68.782206 
L 563.972222 69.280766 
L 564.041226 69.612016 
L 564.16657 70.213719 
L 564.196919 70.359405 
L 564.32286 70.963975 
L 564.447662 71.563079 
L 564.462045 71.632124 
L 564.59264 72.259032 
L 564.675578 72.657171 
L 564.778327 73.15041 
L 564.872863 73.604225 
L 564.941502 73.933718 
L 565.045577 74.433324 
L 565.103495 74.711355 
L 565.195906 75.154966 
L 565.275711 75.538064 
L 565.366763 75.975148 
L 565.475519 76.497223 
L 565.542765 76.820034 
L 565.685715 77.506253 
L 565.730066 77.719156 
L 565.862489 78.354842 
L 565.973158 78.8861 
L 565.997709 79.003955 
L 566.105617 79.52196 
L 566.213913 80.041825 
L 566.264217 80.283308 
L 566.412804 80.99659 
L 566.463954 81.242127 
L 566.55938 81.700212 
L 566.647513 82.12329 
L 566.716727 82.455545 
L 566.849768 83.0942 
L 566.901917 83.344535 
L 567.004249 83.835774 
L 567.093127 84.262426 
L 567.1479 84.525359 
L 567.22245 84.88323 
L 567.336575 85.431076 
L 567.434132 85.899393 
L 567.553886 86.47426 
L 567.646211 86.917461 
L 567.72128 87.277822 
L 567.817243 87.738486 
L 567.920868 88.23593 
L 567.966955 88.457167 
L 568.060918 88.908229 
L 568.158397 89.376169 
" style="fill:none;stroke:#ff0000;stroke-linecap:square;"/>
   </g>
   <g id="line2d_17">
    <path clip-path="url(#p4cfb26ef27)" d="M 302.078255 89.376169 
L 373.03296 4.223062 
L 373.03296 4.223062 
" style="fill:none;stroke:#00ffff;stroke-linecap:square;"/>
   </g>
   <g id="line2d_18">
    <path clip-path="url(#p4cfb26ef27)" d="M 390.771636 89.376169 
L 461.72634 4.223062 
L 461.72634 4.223062 
" style="fill:none;stroke:#00ffff;stroke-linecap:square;"/>
   </g>
   <g id="line2d_19">
    <path clip-path="url(#p4cfb26ef27)" d="M 479.465016 89.376169 
L 550.419721 4.223062 
L 550.419721 4.223062 
" style="fill:none;stroke:#00ffff;stroke-linecap:square;"/>
   </g>
   <g id="matplotlib.axis_3">
    <g id="xtick_4">
     <g id="line2d_20">
      <path clip-path="url(#p4cfb26ef27)" d="M 302.078255 91.079231 
L 302.078255 2.52 
" style="fill:none;stroke:#000000;stroke-dasharray:0.5,0.825;stroke-dashoffset:0;stroke-width:0.5;"/>
     </g>
     <g id="line2d_21">
      <g>
       <use style="stroke:#000000;stroke-width:0.8;" x="302.078255" xlink:href="#m9024e66f09" y="89.376169"/>
      </g>
     </g>
    </g>
    <g id="xtick_5">
     <g id="line2d_22">
      <path clip-path="url(#p4cfb26ef27)" d="M 373.03296 91.079231 
L 373.03296 2.52 
" style="fill:none;stroke:#000000;stroke-dasharray:0.5,0.825;stroke-dashoffset:0;stroke-width:0.5;"/>
     </g>
     <g id="line2d_23">
      <g>
       <use style="stroke:#000000;stroke-width:0.8;" x="373.03296" xlink:href="#m9024e66f09" y="89.376169"/>
      </g>
     </g>
     <g id="text_4">
      <!-- $f$ -->
      <g transform="translate(370.58296 103.954294)scale(0.1 -0.1)">
       <use transform="translate(0 0.484375)" xlink:href="#Cmmi10-66"/>
      </g>
     </g>
    </g>
    <g id="xtick_6">
     <g id="line2d_24">
      <path clip-path="url(#p4cfb26ef27)" d="M 568.158397 91.079231 
L 568.158397 2.52 
" style="fill:none;stroke:#000000;stroke-dasharray:0.5,0.825;stroke-dashoffset:0;stroke-width:0.5;"/>
     </g>
     <g id="line2d_25">
      <g>
       <use style="stroke:#000000;stroke-width:0.8;" x="568.158397" xlink:href="#m9024e66f09" y="89.376169"/>
      </g>
     </g>
     <g id="text_5">
      <!-- $1$ -->
      <g transform="translate(565.658397 103.974606)scale(0.1 -0.1)">
       <use transform="translate(0 0.390625)" xlink:href="#Cmr10-31"/>
      </g>
     </g>
    </g>
   </g>
   <g id="matplotlib.axis_4">
    <g id="ytick_3">
     <g id="line2d_26">
      <path clip-path="url(#p4cfb26ef27)" d="M 296.756652 89.376169 
L 573.48 89.376169 
" style="fill:none;stroke:#000000;stroke-dasharray:0.5,0.825;stroke-dashoffset:0;stroke-width:0.5;"/>
     </g>
     <g id="line2d_27">
      <g>
       <use style="stroke:#000000;stroke-width:0.8;" x="302.078255" xlink:href="#mefcea093f0" y="89.376169"/>
      </g>
     </g>
    </g>
    <g id="ytick_4">
     <g id="line2d_28">
      <path clip-path="url(#p4cfb26ef27)" d="M 296.756652 4.223062 
L 573.48 4.223062 
" style="fill:none;stroke:#000000;stroke-dasharray:0.5,0.825;stroke-dashoffset:0;stroke-width:0.5;"/>
     </g>
     <g id="line2d_29">
      <g>
       <use style="stroke:#000000;stroke-width:0.8;" x="302.078255" xlink:href="#mefcea093f0" y="4.223062"/>
      </g>
     </g>
     <g id="text_6">
      <!-- $1$ -->
      <g transform="translate(290.078255 8.022281)scale(0.1 -0.1)">
       <use transform="translate(0 0.390625)" xlink:href="#Cmr10-31"/>
      </g>
     </g>
    </g>
   </g>
   <g id="patch_6">
    <path d="M 302.078255 91.079231 
L 302.078255 2.52 
" style="fill:none;stroke:#000000;stroke-linecap:square;stroke-linejoin:miter;stroke-width:0.8;"/>
   </g>
   <g id="patch_7">
    <path d="M 296.756652 89.376169 
L 573.48 89.376169 
" style="fill:none;stroke:#000000;stroke-linecap:square;stroke-linejoin:miter;stroke-width:0.8;"/>
   </g>
  </g>
 </g>
 <defs>
  <clipPath id="p72dd41d244">
   <rect height="88.559231" width="276.723348" x="8.756652" y="2.52"/>
  </clipPath>
  <clipPath id="p4cfb26ef27">
   <rect height="88.559231" width="276.723348" x="296.756652" y="2.52"/>
  </clipPath>
 </defs>
</svg>
