<?xml version="1.0" encoding="utf-8" standalone="no"?>
<!DOCTYPE svg PUBLIC "-//W3C//DTD SVG 1.1//EN"
  "http://www.w3.org/Graphics/SVG/1.1/DTD/svg11.dtd">
<!-- Created with matplotlib (http://matplotlib.org/) -->
<svg height="108pt" version="1.1" viewBox="0 0 576 108" width="576pt" xmlns="http://www.w3.org/2000/svg" xmlns:xlink="http://www.w3.org/1999/xlink">
 <defs>
  <style type="text/css">
*{stroke-linecap:butt;stroke-linejoin:round;}
  </style>
 </defs>
 <g id="figure_1">
  <g id="patch_1">
   <path d="M 0 108 
L 576 108 
L 576 0 
L 0 0 
z
" style="fill:#ffffff;"/>
  </g>
  <g id="axes_1">
   <g id="patch_2">
    <path d="M 4.074135 87.704405 
L 573.48 87.704405 
L 573.48 16.528672 
L 4.074135 16.528672 
z
" style="fill:#ffffff;"/>
   </g>
   <g id="line2d_1">
    <path clip-path="url(#pf306f18189)" d="M 89.684107 72.077682 
L 114.570727 46.413355 
L 114.570727 46.413355 
" style="fill:none;stroke:#ff0000;stroke-linecap:square;stroke-width:2;"/>
   </g>
   <g id="line2d_2">
    <path clip-path="url(#pf306f18189)" d="M 164.343967 57.819722 
L 189.230587 32.155395 
L 189.230587 32.155395 
" style="fill:none;stroke:#ff0000;stroke-linecap:square;stroke-width:2;"/>
   </g>
   <g id="line2d_3">
    <path clip-path="url(#pf306f18189)" d="M 313.663687 44.987559 
L 338.550307 35.006987 
L 338.550307 35.006987 
" style="fill:none;stroke:#cbff00;stroke-linecap:square;stroke-width:2;"/>
   </g>
   <g id="line2d_4">
    <path clip-path="url(#pf306f18189)" d="M 388.323547 62.09711 
L 438.096787 42.135967 
L 438.096787 42.135967 
" style="fill:none;stroke:#cbff00;stroke-linecap:square;stroke-width:2;"/>
   </g>
   <g id="line2d_5">
    <path clip-path="url(#pf306f18189)" d="M 487.870027 69.22609 
L 512.756647 59.245518 
L 512.756647 59.245518 
" style="fill:none;stroke:#cbff00;stroke-linecap:square;stroke-width:2;"/>
   </g>
   <g id="line2d_6">
    <path clip-path="url(#pf306f18189)" d="M 15.024247 86.335641 
L 39.910867 44.987559 
L 39.910867 44.987559 
" style="fill:none;stroke:#00ff66;stroke-linecap:square;stroke-width:2;"/>
   </g>
   <g id="line2d_7">
    <path clip-path="url(#pf306f18189)" d="M 239.003827 59.245518 
L 263.890447 17.897436 
L 263.890447 17.897436 
" style="fill:none;stroke:#00ff66;stroke-linecap:square;stroke-width:2;"/>
   </g>
   <g id="line2d_8">
    <path clip-path="url(#pf306f18189)" d="M 39.910867 44.987559 
L 64.797487 66.374498 
L 64.797487 66.374498 
" style="fill:none;stroke:#0066ff;stroke-linecap:square;stroke-width:2;"/>
   </g>
   <g id="line2d_9">
    <path clip-path="url(#pf306f18189)" d="M 214.117207 37.858579 
L 239.003827 59.245518 
L 239.003827 59.245518 
" style="fill:none;stroke:#0066ff;stroke-linecap:square;stroke-width:2;"/>
   </g>
   <g id="line2d_10">
    <path clip-path="url(#pf306f18189)" d="M 263.890447 17.897436 
L 288.777067 39.284375 
L 288.777067 39.284375 
" style="fill:none;stroke:#0066ff;stroke-linecap:square;stroke-width:2;"/>
   </g>
   <g id="line2d_11">
    <path clip-path="url(#pf306f18189)" d="M 363.436927 40.710171 
L 363.611862 40.860506 
L 363.731279 40.963129 
L 363.749738 40.978992 
L 363.944301 41.146195 
L 364.102303 41.281978 
L 364.185236 41.353249 
L 364.293944 41.446669 
L 364.398919 41.536883 
L 364.579975 41.692477 
L 364.656577 41.758307 
L 364.844659 41.91994 
L 364.91546 41.980785 
L 365.10864 42.146799 
L 365.169608 42.199193 
L 365.335522 42.341776 
L 365.410757 42.406431 
L 365.612262 42.579599 
L 365.719891 42.672093 
L 365.785928 42.728844 
L 365.980462 42.896021 
L 366.117239 43.013564 
L 366.185907 43.072576 
L 366.255754 43.1326 
L 366.436761 43.288153 
L 366.57978 43.41106 
L 366.675807 43.493583 
L 366.804759 43.604401 
L 366.887924 43.675871 
L 367.087774 43.847618 
L 367.227804 43.967956 
L 367.301104 44.030948 
L 367.497793 44.199977 
L 367.608382 44.295015 
L 367.634723 44.317652 
L 367.776421 44.439423 
L 367.996414 44.62848 
L 368.061589 44.68449 
L 368.174861 44.781832 
L 368.328962 44.914263 
L 368.464808 45.031006 
L 368.527307 45.084716 
L 368.681371 45.217115 
L 368.781766 45.303391 
L 368.911511 45.414891 
L 369.053421 45.536846 
L 369.200219 45.663 
L 369.364621 45.804283 
L 369.407381 45.841029 
L 369.530079 45.946473 
L 369.740001 46.126875 
L 369.755942 46.140575 
L 369.91082 46.273672 
L 370.080133 46.419176 
L 370.195233 46.51809 
L 370.331346 46.635062 
L 370.409928 46.702594 
L 370.526212 46.802525 
L 370.653358 46.911791 
L 370.755995 46.999994 
L 371.002434 47.211778 
L 371.018732 47.225785 
L 371.193915 47.376332 
L 371.275784 47.446688 
L 371.416916 47.567974 
L 371.50626 47.644754 
L 371.65253 47.770455 
L 371.866693 47.954501 
L 371.895962 47.979654 
L 372.080444 48.138193 
L 372.130898 48.181552 
L 372.288539 48.317025 
L 372.395662 48.409084 
L 372.570647 48.559462 
L 372.698768 48.669565 
L 372.871891 48.818343 
L 372.932435 48.870373 
L 373.1258 49.036546 
L 373.150214 49.057527 
L 373.314952 49.199098 
L 373.471524 49.333653 
L 373.564541 49.413589 
L 373.666912 49.501564 
L 373.867554 49.673991 
L 373.933017 49.730248 
L 374.088306 49.8637 
L 374.183266 49.945306 
L 374.265277 50.015784 
L 374.503725 50.2207 
L 374.606193 50.308759 
L 374.711042 50.398863 
L 374.868416 50.534106 
L 374.980119 50.630101 
L 375.0067 50.652945 
L 375.145255 50.772015 
L 375.281381 50.888999 
L 375.467057 51.048563 
L 375.516617 51.091154 
L 375.741313 51.284252 
L 375.756644 51.297427 
L 375.960084 51.472259 
L 376.026826 51.529616 
L 376.240013 51.712823 
L 376.314242 51.776613 
L 376.502335 51.938256 
L 376.554003 51.982658 
L 376.685299 52.09549 
L 376.783947 52.180266 
L 376.904795 52.284119 
L 377.030586 52.392221 
L 377.135924 52.482746 
" style="fill:none;stroke:#0066ff;stroke-linecap:square;stroke-width:2;"/>
   </g>
   <g id="line2d_12">
    <path clip-path="url(#pf306f18189)" d="M 377.586154 52.869663 
L 377.709633 52.975777 
L 377.860508 53.105436 
L 377.964098 53.194458 
L 378.041887 53.261309 
L 378.226783 53.420203 
L 378.363774 53.53793 
L 378.499158 53.654275 
L 378.591379 53.733528 
L 378.647715 53.781942 
L 378.785339 53.900212 
L 378.978684 54.066368 
L 379.01122 54.094329 
L 379.21974 54.273525 
L 379.293962 54.33731 
L 379.467523 54.486464 
L 379.509546 54.522578 
L 379.633821 54.629377 
L 379.825178 54.793824 
L 379.949293 54.900486 
L 380.091746 55.022906 
L 380.231499 55.143006 
L 380.347554 55.242741 
L 380.415588 55.301207 
L 380.596646 55.456804 
L 380.645777 55.499026 
L 380.793517 55.62599 
L 380.921667 55.736119 
L 381.008012 55.810322 
L 381.148607 55.931145 
L 381.372772 56.123788 
L 381.435687 56.177855 
L 381.532048 56.260666 
L 381.754082 56.451476 
L 381.845469 56.530012 
L 381.959223 56.627769 
L 382.011228 56.67246 
L 382.223003 56.854454 
L 382.287823 56.91016 
L 382.429479 57.031896 
L 382.523227 57.11246 
L 382.731337 57.291305 
L 382.821142 57.368481 
L 382.962249 57.489744 
L 383.114368 57.620471 
L 383.229883 57.719742 
L 383.316205 57.793925 
L 383.505842 57.956895 
L 383.541035 57.987139 
L 383.694637 58.119141 
L 383.792226 58.203006 
L 383.970926 58.356576 
L 384.078967 58.449424 
L 384.148624 58.509285 
L 384.30837 58.646567 
L 384.437963 58.757936 
L 384.593221 58.891361 
L 384.703826 58.986412 
L 384.855181 59.116483 
L 384.956205 59.2033 
L 385.041858 59.276908 
L 385.241706 59.448653 
L 385.278505 59.480277 
L 385.464069 59.639746 
L 385.586339 59.744822 
L 385.641064 59.791851 
L 385.858388 59.978614 
L 385.900423 60.014737 
L 386.020134 60.117614 
L 386.139229 60.219962 
L 386.32433 60.379033 
L 386.496874 60.527313 
L 386.569043 60.589333 
L 386.72064 60.719612 
L 386.870838 60.848688 
L 386.96154 60.926635 
L 387.078884 61.027477 
L 387.140473 61.080406 
L 387.355148 61.264892 
L 387.499188 61.388677 
L 387.618646 61.491335 
L 387.698044 61.559568 
L 387.865651 61.703605 
L 387.887692 61.722547 
L 388.131142 61.931761 
L 388.239206 62.024629 
L 388.323547 62.09711 
" style="fill:none;stroke:#0066ff;stroke-linecap:square;stroke-width:2;"/>
   </g>
   <g id="line2d_13">
    <path clip-path="url(#pf306f18189)" d="M 438.096787 42.135967 
L 462.983407 63.522906 
L 462.983407 63.522906 
" style="fill:none;stroke:#0066ff;stroke-linecap:square;stroke-width:2;"/>
   </g>
   <g id="line2d_14">
    <path clip-path="url(#pf306f18189)" d="M 537.643267 64.948702 
L 562.529887 86.335641 
L 562.529887 86.335641 
" style="fill:none;stroke:#0066ff;stroke-linecap:square;stroke-width:2;"/>
   </g>
   <g id="line2d_15">
    <path clip-path="url(#pf306f18189)" d="M 64.797487 66.374498 
L 89.684107 72.077682 
L 89.684107 72.077682 
" style="fill:none;stroke:#cc00ff;stroke-linecap:square;stroke-width:2;"/>
   </g>
   <g id="line2d_16">
    <path clip-path="url(#pf306f18189)" d="M 114.570727 46.413355 
L 164.343967 57.819722 
L 164.343967 57.819722 
" style="fill:none;stroke:#cc00ff;stroke-linecap:square;stroke-width:2;"/>
   </g>
   <g id="line2d_17">
    <path clip-path="url(#pf306f18189)" d="M 189.230587 32.155395 
L 214.117207 37.858579 
L 214.117207 37.858579 
" style="fill:none;stroke:#cc00ff;stroke-linecap:square;stroke-width:2;"/>
   </g>
   <g id="line2d_18">
    <path clip-path="url(#pf306f18189)" d="M 288.777067 39.284375 
L 313.663687 44.987559 
L 313.663687 44.987559 
" style="fill:none;stroke:#cc00ff;stroke-linecap:square;stroke-width:2;"/>
   </g>
   <g id="line2d_19">
    <path clip-path="url(#pf306f18189)" d="M 338.550307 35.006987 
L 363.436927 40.710171 
L 363.436927 40.710171 
" style="fill:none;stroke:#cc00ff;stroke-linecap:square;stroke-width:2;"/>
   </g>
   <g id="line2d_20">
    <path clip-path="url(#pf306f18189)" d="M 462.983407 63.522906 
L 487.870027 69.22609 
L 487.870027 69.22609 
" style="fill:none;stroke:#cc00ff;stroke-linecap:square;stroke-width:2;"/>
   </g>
   <g id="line2d_21">
    <path clip-path="url(#pf306f18189)" d="M 512.756647 59.245518 
L 537.643267 64.948702 
L 537.643267 64.948702 
" style="fill:none;stroke:#cc00ff;stroke-linecap:square;stroke-width:2;"/>
   </g>
   <g id="matplotlib.axis_1">
    <g id="xtick_1">
     <g id="line2d_22">
      <path clip-path="url(#pf306f18189)" d="M 15.024247 87.704405 
L 15.024247 16.528672 
" style="fill:none;stroke:#000000;stroke-dasharray:0.5,0.825;stroke-dashoffset:0;stroke-width:0.5;"/>
     </g>
     <g id="line2d_23">
      <defs>
       <path d="M 0 0 
L 0 3.5 
" id="mc9a1a6a05d" style="stroke:#000000;stroke-width:0.8;"/>
      </defs>
      <g>
       <use style="stroke:#000000;stroke-width:0.8;" x="15.024247" xlink:href="#mc9a1a6a05d" y="86.335641"/>
      </g>
     </g>
    </g>
    <g id="xtick_2">
     <g id="line2d_24">
      <path clip-path="url(#pf306f18189)" d="M 263.890447 87.704405 
L 263.890447 16.528672 
" style="fill:none;stroke:#000000;stroke-dasharray:0.5,0.825;stroke-dashoffset:0;stroke-width:0.5;"/>
     </g>
     <g id="line2d_25">
      <g>
       <use style="stroke:#000000;stroke-width:0.8;" x="263.890447" xlink:href="#mc9a1a6a05d" y="86.335641"/>
      </g>
     </g>
     <g id="text_1">
      <!-- $f$ -->
      <defs>
       <path d="M 9.71875 -16.5 
Q 11.578125 -17.921875 14.203125 -17.921875 
Q 17.78125 -17.921875 20.015625 -10.015625 
Q 20.953125 -6.203125 25.09375 15.09375 
L 29.6875 39.59375 
L 21.09375 39.59375 
Q 20.125 39.59375 20.125 40.921875 
Q 20.515625 43.109375 21.390625 43.109375 
L 30.328125 43.109375 
L 31.5 49.609375 
Q 32.078125 52.640625 32.5625 54.8125 
Q 33.0625 56.984375 33.625 58.828125 
Q 34.1875 60.6875 35.296875 62.984375 
Q 37.015625 66.265625 39.921875 68.390625 
Q 42.828125 70.515625 46.1875 70.515625 
Q 48.390625 70.515625 50.46875 69.703125 
Q 52.546875 68.890625 53.859375 67.28125 
Q 55.171875 65.671875 55.171875 63.484375 
Q 55.171875 60.9375 53.484375 59.046875 
Q 51.8125 57.171875 49.421875 57.171875 
Q 47.796875 57.171875 46.65625 58.171875 
Q 45.515625 59.1875 45.515625 60.796875 
Q 45.515625 62.984375 47 64.625 
Q 48.484375 66.265625 50.6875 66.5 
Q 48.828125 67.921875 46.09375 67.921875 
Q 44.578125 67.921875 43.234375 66.5 
Q 41.890625 65.09375 41.5 63.484375 
Q 40.875 60.9375 38.71875 49.703125 
L 37.5 43.109375 
L 47.796875 43.109375 
Q 48.78125 43.109375 48.78125 41.796875 
Q 48.734375 41.546875 48.578125 40.9375 
Q 48.4375 40.328125 48.171875 39.953125 
Q 47.90625 39.59375 47.515625 39.59375 
L 36.8125 39.59375 
L 32.171875 15.1875 
Q 31.296875 9.859375 30.140625 4.359375 
Q 29 -1.125 26.921875 -6.90625 
Q 24.859375 -12.703125 21.625 -16.609375 
Q 18.40625 -20.515625 14.015625 -20.515625 
Q 10.640625 -20.515625 7.984375 -18.578125 
Q 5.328125 -16.65625 5.328125 -13.484375 
Q 5.328125 -10.9375 6.953125 -9.046875 
Q 8.59375 -7.171875 11.078125 -7.171875 
Q 12.75 -7.171875 13.859375 -8.171875 
Q 14.984375 -9.1875 14.984375 -10.796875 
Q 14.984375 -12.9375 13.390625 -14.71875 
Q 11.8125 -16.5 9.71875 -16.5 
z
" id="Cmmi10-66"/>
      </defs>
      <g transform="translate(261.440447 100.913766)scale(0.1 -0.1)">
       <use transform="translate(0 0.484375)" xlink:href="#Cmmi10-66"/>
      </g>
     </g>
    </g>
    <g id="xtick_3">
     <g id="line2d_26">
      <path clip-path="url(#pf306f18189)" d="M 562.529887 87.704405 
L 562.529887 16.528672 
" style="fill:none;stroke:#000000;stroke-dasharray:0.5,0.825;stroke-dashoffset:0;stroke-width:0.5;"/>
     </g>
     <g id="line2d_27">
      <g>
       <use style="stroke:#000000;stroke-width:0.8;" x="562.529887" xlink:href="#mc9a1a6a05d" y="86.335641"/>
      </g>
     </g>
     <g id="text_2">
      <!-- $1$ -->
      <defs>
       <path d="M 9.28125 0 
L 9.28125 3.515625 
Q 21.78125 3.515625 21.78125 6.6875 
L 21.78125 59.1875 
Q 16.609375 56.6875 8.6875 56.6875 
L 8.6875 60.203125 
Q 20.953125 60.203125 27.203125 66.609375 
L 28.609375 66.609375 
Q 28.953125 66.609375 29.265625 66.328125 
Q 29.59375 66.0625 29.59375 65.71875 
L 29.59375 6.6875 
Q 29.59375 3.515625 42.09375 3.515625 
L 42.09375 0 
z
" id="Cmr10-31"/>
      </defs>
      <g transform="translate(560.029887 100.934078)scale(0.1 -0.1)">
       <use transform="translate(0 0.390625)" xlink:href="#Cmr10-31"/>
      </g>
     </g>
    </g>
   </g>
   <g id="matplotlib.axis_2">
    <g id="ytick_1">
     <g id="line2d_28">
      <path clip-path="url(#pf306f18189)" d="M 4.074135 86.335641 
L 573.48 86.335641 
" style="fill:none;stroke:#000000;stroke-dasharray:0.5,0.825;stroke-dashoffset:0;stroke-width:0.5;"/>
     </g>
     <g id="line2d_29">
      <defs>
       <path d="M 0 0 
L -3.5 0 
" id="mfdff2ecb58" style="stroke:#000000;stroke-width:0.8;"/>
      </defs>
      <g>
       <use style="stroke:#000000;stroke-width:0.8;" x="15.024247" xlink:href="#mfdff2ecb58" y="86.335641"/>
      </g>
     </g>
    </g>
    <g id="ytick_2">
     <g id="line2d_30">
      <path clip-path="url(#pf306f18189)" d="M 4.074135 17.897436 
L 573.48 17.897436 
" style="fill:none;stroke:#000000;stroke-dasharray:0.5,0.825;stroke-dashoffset:0;stroke-width:0.5;"/>
     </g>
     <g id="line2d_31">
      <g>
       <use style="stroke:#000000;stroke-width:0.8;" x="15.024247" xlink:href="#mfdff2ecb58" y="17.897436"/>
      </g>
     </g>
     <g id="text_3">
      <!-- $1$ -->
      <g transform="translate(3.024247 21.696655)scale(0.1 -0.1)">
       <use transform="translate(0 0.390625)" xlink:href="#Cmr10-31"/>
      </g>
     </g>
    </g>
   </g>
   <g id="patch_3">
    <path d="M 15.024247 87.704405 
L 15.024247 16.528672 
" style="fill:none;stroke:#000000;stroke-linecap:square;stroke-linejoin:miter;stroke-width:0.8;"/>
   </g>
   <g id="patch_4">
    <path d="M 4.074135 86.335641 
L 573.48 86.335641 
" style="fill:none;stroke:#000000;stroke-linecap:square;stroke-linejoin:miter;stroke-width:0.8;"/>
   </g>
  </g>
 </g>
 <defs>
  <clipPath id="pf306f18189">
   <rect height="71.175733" width="569.405865" x="4.074135" y="16.528672"/>
  </clipPath>
 </defs>
</svg>
