<?xml version="1.0" encoding="utf-8" standalone="no"?>
<!DOCTYPE svg PUBLIC "-//W3C//DTD SVG 1.1//EN"
  "http://www.w3.org/Graphics/SVG/1.1/DTD/svg11.dtd">
<!-- Created with matplotlib (http://matplotlib.org/) -->
<svg height="108pt" version="1.1" viewBox="0 0 576 108" width="576pt" xmlns="http://www.w3.org/2000/svg" xmlns:xlink="http://www.w3.org/1999/xlink">
 <defs>
  <style type="text/css">
*{stroke-linecap:butt;stroke-linejoin:round;}
  </style>
 </defs>
 <g id="figure_1">
  <g id="patch_1">
   <path d="M 0 108 
L 576 108 
L 576 0 
L 0 0 
z
" style="fill:#ffffff;"/>
  </g>
  <g id="axes_1">
   <g id="patch_2">
    <path d="M 4.074135 87.704405 
L 573.48 87.704405 
L 573.48 16.528672 
L 4.074135 16.528672 
z
" style="fill:#ffffff;"/>
   </g>
   <g id="line2d_1">
    <path clip-path="url(#p86604afd99)" d="M 187.920765 17.897436 
L 216.736852 49.835265 
L 216.736852 49.835265 
" style="fill:none;stroke:#ff0000;stroke-linecap:square;stroke-width:2;"/>
   </g>
   <g id="line2d_2">
    <path clip-path="url(#p86604afd99)" d="M 533.713801 54.397812 
L 562.529887 86.335641 
L 562.529887 86.335641 
" style="fill:none;stroke:#ff0000;stroke-linecap:square;stroke-width:2;"/>
   </g>
   <g id="line2d_3">
    <path clip-path="url(#p86604afd99)" d="M 15.024247 86.335641 
L 187.920765 17.897436 
L 187.920765 17.897436 
" style="fill:none;stroke:#00ff00;stroke-linecap:square;stroke-width:2;"/>
   </g>
   <g id="line2d_4">
    <path clip-path="url(#p86604afd99)" d="M 303.18511 80.632457 
L 303.828155 80.377919 
L 304.508862 80.108472 
L 305.102939 79.873317 
L 305.903538 79.556413 
L 306.88498 79.167925 
L 307.282439 79.010598 
L 308.316245 78.601383 
L 309.035838 78.316544 
L 309.581888 78.1004 
L 310.605597 77.695181 
L 311.207485 77.456934 
L 311.641566 77.28511 
L 312.897631 76.787918 
L 312.969395 76.759511 
L 314.005038 76.349569 
L 314.448533 76.174019 
L 315.677666 75.687487 
L 316.538638 75.346686 
L 316.886792 75.208875 
L 317.742106 74.870313 
L 318.453259 74.588815 
L 318.842237 74.434845 
L 319.786237 74.061178 
L 320.738527 73.68423 
L 321.543125 73.365743 
L 321.658787 73.31996 
L 322.651832 72.92688 
L 323.352135 72.649677 
L 324.229975 72.302198 
L 324.778149 72.085213 
L 325.428025 71.82797 
L 326.594609 71.366197 
L 326.915734 71.239085 
L 327.780829 70.896652 
L 328.352168 70.670497 
L 328.976273 70.423455 
L 329.732961 70.123933 
L 330.808752 69.698099 
L 331.224732 69.53344 
L 332.331694 69.095268 
L 333.16697 68.764638 
L 333.656042 68.571047 
L 334.310995 68.311795 
L 334.741198 68.141506 
L 335.618996 67.794044 
L 336.316869 67.517803 
L 337.391282 67.092514 
L 338.228724 66.761027 
L 338.314172 66.727203 
L 339.364438 66.311474 
L 340.186705 65.985993 
L 340.730709 65.770658 
L 341.220718 65.576696 
L 342.28985 65.153498 
L 343.088725 64.837276 
L 343.590685 64.638584 
L 344.762498 64.174741 
L 345.372123 63.933432 
L 346.253656 63.584491 
L 346.481364 63.494357 
L 347.033046 63.275983 
L 347.913038 62.927653 
L 348.48361 62.701801 
L 349.780106 62.188605 
L 350.465555 61.917281 
L 350.810051 61.780918 
L 351.490519 61.511566 
L 352.121681 61.261731 
L 353.387579 60.760647 
L 353.8218 60.588768 
L 354.480703 60.327952 
L 355.52694 59.913816 
L 356.395861 59.569868 
L 357.031688 59.318187 
L 357.357765 59.189115 
L 357.991166 58.938393 
L 358.785784 58.623857 
L 359.384722 58.386778 
L 360.375847 57.994457 
L 361.009658 57.743574 
L 361.857057 57.408145 
L 362.763005 57.04954 
L 363.610916 56.713909 
L 364.172246 56.491716 
L 364.437144 56.386861 
L 365.599762 55.926658 
L 365.963191 55.7828 
L 366.836345 55.437177 
L 367.462287 55.189408 
L 368.400638 54.817977 
L 369.114201 54.535525 
L 369.869728 54.236463 
L 370.81925 53.86061 
L 371.233707 53.696554 
L 372.048663 53.373968 
L 372.675843 53.125709 
L 373.542594 52.78262 
L 374.048085 52.58253 
L 374.531049 52.391356 
L 375.825305 51.879047 
L 376.020691 51.801707 
L 377.187211 51.339959 
L 377.616789 51.169918 
L 378.15434 50.957137 
L 379.166475 50.5565 
L 379.630117 50.372975 
L 380.446582 50.049791 
L 381.600523 49.593023 
L 382.202872 49.354593 
L 382.885753 49.084286 
" style="fill:none;stroke:#00ff00;stroke-linecap:square;stroke-width:2;"/>
   </g>
   <g id="line2d_5">
    <path clip-path="url(#p86604afd99)" d="M 384.982905 48.254164 
L 385.627025 47.999199 
L 386.5977 47.614974 
L 387.00166 47.455073 
L 387.942625 47.082608 
L 388.665898 46.796312 
L 389.323681 46.53594 
L 390.045361 46.250275 
L 391.069733 45.844794 
L 391.796601 45.557076 
L 392.576492 45.248369 
L 392.806074 45.157493 
L 393.978671 44.69334 
L 394.36738 44.539475 
L 394.973732 44.299461 
L 395.713175 44.006765 
L 396.618732 43.648315 
L 397.00751 43.494424 
L 397.929396 43.129511 
L 398.546786 42.885127 
L 399.54599 42.489609 
L 400.186951 42.235895 
L 400.684118 42.0391 
L 401.615841 41.670293 
L 402.23874 41.423729 
L 403.045686 41.104313 
L 404.165472 40.661064 
L 404.836167 40.395581 
L 405.420142 40.164424 
L 406.199395 39.855969 
L 406.642487 39.680579 
L 407.506092 39.338735 
L 407.896777 39.184089 
L 408.679274 38.874351 
L 409.426407 38.578611 
L 410.439676 38.177525 
L 411.328977 37.82551 
L 411.851442 37.618701 
L 412.419549 37.393825 
L 413.054399 37.142531 
L 414.289789 36.653522 
L 414.536789 36.555751 
L 415.726237 36.084928 
L 415.804153 36.054086 
L 416.564089 35.753278 
L 417.59223 35.346306 
L 418.091603 35.148637 
L 419.117002 34.74275 
L 420.014651 34.387431 
L 420.702731 34.115066 
L 421.505816 33.797178 
L 421.961265 33.616896 
L 422.473322 33.414207 
L 423.647223 32.949538 
L 424.2104 32.726613 
L 424.469682 32.623981 
L 425.725361 32.126941 
L 426.22927 31.927478 
L 426.917418 31.655085 
L 427.604647 31.383057 
L 428.267236 31.120783 
L 428.947095 30.851672 
L 430.062417 30.41019 
L 430.269951 30.328041 
L 431.483366 29.847731 
L 431.834531 29.708728 
L 432.589671 29.409818 
L 433.739182 28.954804 
L 434.562257 28.629003 
L 435.152043 28.395547 
L 435.873557 28.109947 
L 436.72665 27.772265 
L 437.3283 27.534111 
L 437.847684 27.328522 
L 438.933513 26.898715 
L 439.485795 26.680103 
L 440.299574 26.357982 
L 440.756706 26.177034 
L 441.58491 25.849203 
L 442.502197 25.48611 
L 442.800449 25.368052 
L 443.803949 24.970833 
L 444.396755 24.736181 
L 444.943176 24.51989 
L 445.516557 24.292926 
L 446.271445 23.994116 
L 447.265542 23.60062 
" style="fill:none;stroke:#00ff00;stroke-linecap:square;stroke-width:2;"/>
   </g>
   <g id="line2d_6">
    <path clip-path="url(#p86604afd99)" d="M 216.736852 49.835265 
L 303.18511 80.632457 
L 303.18511 80.632457 
" style="fill:none;stroke:#0000ff;stroke-linecap:square;stroke-width:2;"/>
   </g>
   <g id="line2d_7">
    <path clip-path="url(#p86604afd99)" d="M 447.265542 23.60062 
L 533.713801 54.397812 
L 533.713801 54.397812 
" style="fill:none;stroke:#0000ff;stroke-linecap:square;stroke-width:2;"/>
   </g>
   <g id="matplotlib.axis_1">
    <g id="xtick_1">
     <g id="line2d_8">
      <path clip-path="url(#p86604afd99)" d="M 15.024247 87.704405 
L 15.024247 16.528672 
" style="fill:none;stroke:#000000;stroke-dasharray:0.5,0.825;stroke-dashoffset:0;stroke-width:0.5;"/>
     </g>
     <g id="line2d_9">
      <defs>
       <path d="M 0 0 
L 0 3.5 
" id="me746388a98" style="stroke:#000000;stroke-width:0.8;"/>
      </defs>
      <g>
       <use style="stroke:#000000;stroke-width:0.8;" x="15.024247" xlink:href="#me746388a98" y="86.335641"/>
      </g>
     </g>
    </g>
    <g id="xtick_2">
     <g id="line2d_10">
      <path clip-path="url(#p86604afd99)" d="M 187.920765 87.704405 
L 187.920765 16.528672 
" style="fill:none;stroke:#000000;stroke-dasharray:0.5,0.825;stroke-dashoffset:0;stroke-width:0.5;"/>
     </g>
     <g id="line2d_11">
      <g>
       <use style="stroke:#000000;stroke-width:0.8;" x="187.920765" xlink:href="#me746388a98" y="86.335641"/>
      </g>
     </g>
     <g id="text_1">
      <!-- $f$ -->
      <defs>
       <path d="M 9.71875 -16.5 
Q 11.578125 -17.921875 14.203125 -17.921875 
Q 17.78125 -17.921875 20.015625 -10.015625 
Q 20.953125 -6.203125 25.09375 15.09375 
L 29.6875 39.59375 
L 21.09375 39.59375 
Q 20.125 39.59375 20.125 40.921875 
Q 20.515625 43.109375 21.390625 43.109375 
L 30.328125 43.109375 
L 31.5 49.609375 
Q 32.078125 52.640625 32.5625 54.8125 
Q 33.0625 56.984375 33.625 58.828125 
Q 34.1875 60.6875 35.296875 62.984375 
Q 37.015625 66.265625 39.921875 68.390625 
Q 42.828125 70.515625 46.1875 70.515625 
Q 48.390625 70.515625 50.46875 69.703125 
Q 52.546875 68.890625 53.859375 67.28125 
Q 55.171875 65.671875 55.171875 63.484375 
Q 55.171875 60.9375 53.484375 59.046875 
Q 51.8125 57.171875 49.421875 57.171875 
Q 47.796875 57.171875 46.65625 58.171875 
Q 45.515625 59.1875 45.515625 60.796875 
Q 45.515625 62.984375 47 64.625 
Q 48.484375 66.265625 50.6875 66.5 
Q 48.828125 67.921875 46.09375 67.921875 
Q 44.578125 67.921875 43.234375 66.5 
Q 41.890625 65.09375 41.5 63.484375 
Q 40.875 60.9375 38.71875 49.703125 
L 37.5 43.109375 
L 47.796875 43.109375 
Q 48.78125 43.109375 48.78125 41.796875 
Q 48.734375 41.546875 48.578125 40.9375 
Q 48.4375 40.328125 48.171875 39.953125 
Q 47.90625 39.59375 47.515625 39.59375 
L 36.8125 39.59375 
L 32.171875 15.1875 
Q 31.296875 9.859375 30.140625 4.359375 
Q 29 -1.125 26.921875 -6.90625 
Q 24.859375 -12.703125 21.625 -16.609375 
Q 18.40625 -20.515625 14.015625 -20.515625 
Q 10.640625 -20.515625 7.984375 -18.578125 
Q 5.328125 -16.65625 5.328125 -13.484375 
Q 5.328125 -10.9375 6.953125 -9.046875 
Q 8.59375 -7.171875 11.078125 -7.171875 
Q 12.75 -7.171875 13.859375 -8.171875 
Q 14.984375 -9.1875 14.984375 -10.796875 
Q 14.984375 -12.9375 13.390625 -14.71875 
Q 11.8125 -16.5 9.71875 -16.5 
z
" id="Cmmi10-66"/>
      </defs>
      <g transform="translate(185.470765 100.913766)scale(0.1 -0.1)">
       <use transform="translate(0 0.484375)" xlink:href="#Cmmi10-66"/>
      </g>
     </g>
    </g>
    <g id="xtick_3">
     <g id="line2d_12">
      <path clip-path="url(#p86604afd99)" d="M 562.529887 87.704405 
L 562.529887 16.528672 
" style="fill:none;stroke:#000000;stroke-dasharray:0.5,0.825;stroke-dashoffset:0;stroke-width:0.5;"/>
     </g>
     <g id="line2d_13">
      <g>
       <use style="stroke:#000000;stroke-width:0.8;" x="562.529887" xlink:href="#me746388a98" y="86.335641"/>
      </g>
     </g>
     <g id="text_2">
      <!-- $1$ -->
      <defs>
       <path d="M 9.28125 0 
L 9.28125 3.515625 
Q 21.78125 3.515625 21.78125 6.6875 
L 21.78125 59.1875 
Q 16.609375 56.6875 8.6875 56.6875 
L 8.6875 60.203125 
Q 20.953125 60.203125 27.203125 66.609375 
L 28.609375 66.609375 
Q 28.953125 66.609375 29.265625 66.328125 
Q 29.59375 66.0625 29.59375 65.71875 
L 29.59375 6.6875 
Q 29.59375 3.515625 42.09375 3.515625 
L 42.09375 0 
z
" id="Cmr10-31"/>
      </defs>
      <g transform="translate(560.029887 100.934078)scale(0.1 -0.1)">
       <use transform="translate(0 0.390625)" xlink:href="#Cmr10-31"/>
      </g>
     </g>
    </g>
   </g>
   <g id="matplotlib.axis_2">
    <g id="ytick_1">
     <g id="line2d_14">
      <path clip-path="url(#p86604afd99)" d="M 4.074135 86.335641 
L 573.48 86.335641 
" style="fill:none;stroke:#000000;stroke-dasharray:0.5,0.825;stroke-dashoffset:0;stroke-width:0.5;"/>
     </g>
     <g id="line2d_15">
      <defs>
       <path d="M 0 0 
L -3.5 0 
" id="m70761271ab" style="stroke:#000000;stroke-width:0.8;"/>
      </defs>
      <g>
       <use style="stroke:#000000;stroke-width:0.8;" x="15.024247" xlink:href="#m70761271ab" y="86.335641"/>
      </g>
     </g>
    </g>
    <g id="ytick_2">
     <g id="line2d_16">
      <path clip-path="url(#p86604afd99)" d="M 4.074135 17.897436 
L 573.48 17.897436 
" style="fill:none;stroke:#000000;stroke-dasharray:0.5,0.825;stroke-dashoffset:0;stroke-width:0.5;"/>
     </g>
     <g id="line2d_17">
      <g>
       <use style="stroke:#000000;stroke-width:0.8;" x="15.024247" xlink:href="#m70761271ab" y="17.897436"/>
      </g>
     </g>
     <g id="text_3">
      <!-- $1$ -->
      <g transform="translate(3.024247 21.696655)scale(0.1 -0.1)">
       <use transform="translate(0 0.390625)" xlink:href="#Cmr10-31"/>
      </g>
     </g>
    </g>
   </g>
   <g id="patch_3">
    <path d="M 15.024247 87.704405 
L 15.024247 16.528672 
" style="fill:none;stroke:#000000;stroke-linecap:square;stroke-linejoin:miter;stroke-width:0.8;"/>
   </g>
   <g id="patch_4">
    <path d="M 4.074135 86.335641 
L 573.48 86.335641 
" style="fill:none;stroke:#000000;stroke-linecap:square;stroke-linejoin:miter;stroke-width:0.8;"/>
   </g>
  </g>
 </g>
 <defs>
  <clipPath id="p86604afd99">
   <rect height="71.175733" width="569.405865" x="4.074135" y="16.528672"/>
  </clipPath>
 </defs>
</svg>
