<?xml version="1.0" encoding="utf-8" standalone="no"?>
<!DOCTYPE svg PUBLIC "-//W3C//DTD SVG 1.1//EN"
  "http://www.w3.org/Graphics/SVG/1.1/DTD/svg11.dtd">
<!-- Created with matplotlib (http://matplotlib.org/) -->
<svg height="108pt" version="1.1" viewBox="0 0 576 108" width="576pt" xmlns="http://www.w3.org/2000/svg" xmlns:xlink="http://www.w3.org/1999/xlink">
 <defs>
  <style type="text/css">
*{stroke-linecap:butt;stroke-linejoin:round;}
  </style>
 </defs>
 <g id="figure_1">
  <g id="patch_1">
   <path d="M 0 108 
L 576 108 
L 576 0 
L 0 0 
z
" style="fill:#ffffff;"/>
  </g>
  <g id="axes_1">
   <g id="patch_2">
    <path d="M 4.074135 87.704405 
L 573.48 87.704405 
L 573.48 16.528672 
L 4.074135 16.528672 
z
" style="fill:#ffffff;"/>
   </g>
   <g id="line2d_1">
    <path clip-path="url(#p899a35c881)" d="M 15.024247 86.335641 
L 15.203695 86.013806 
L 15.324813 85.796583 
L 15.360984 85.731712 
L 15.527098 85.43379 
L 15.702429 85.119338 
L 15.765718 85.00583 
L 15.85348 84.84843 
L 16.000105 84.585461 
L 16.105325 84.396753 
L 16.249292 84.13855 
L 16.366656 83.92806 
L 16.472295 83.738598 
L 16.646971 83.425322 
L 16.763091 83.217062 
L 16.938991 82.901591 
L 16.962755 82.85897 
L 17.19032 82.450838 
L 17.226037 82.386779 
L 17.457863 81.971004 
L 17.550651 81.80459 
L 17.699859 81.536989 
L 17.760409 81.428394 
L 17.930529 81.123288 
L 18.022391 80.958536 
L 18.181113 80.673871 
L 18.270625 80.513333 
L 18.365889 80.342479 
L 18.572264 79.97235 
L 18.64882 79.835049 
L 18.819395 79.529126 
L 18.870541 79.437398 
L 18.98264 79.23635 
L 19.196126 78.853468 
L 19.325776 78.620942 
L 19.417298 78.4568 
L 19.476662 78.350332 
L 19.621514 78.090544 
L 19.806753 77.758321 
L 19.927532 77.541706 
L 19.967591 77.469862 
L 20.09307 77.244818 
L 20.286704 76.897539 
L 20.426676 76.646503 
L 20.471368 76.566349 
L 20.69831 76.159334 
L 20.797716 75.98105 
L 20.876748 75.839308 
L 20.98959 75.636929 
L 21.094019 75.449638 
L 21.322345 75.040139 
L 21.447471 74.815729 
L 21.497465 74.726066 
L 21.671156 74.414555 
L 21.800107 74.183285 
L 21.883999 74.032825 
L 21.987218 73.847705 
L 22.143463 73.567483 
L 22.288127 73.308031 
L 22.388749 73.127568 
L 22.556861 72.826062 
L 22.621069 72.710907 
L 22.834031 72.328964 
L 22.865223 72.273021 
L 23.026715 71.98339 
L 23.190206 71.690171 
L 23.308768 71.477534 
L 23.448413 71.227083 
L 23.537003 71.068199 
L 23.674463 70.821667 
L 23.747215 70.691188 
L 23.938465 70.348185 
L 23.97663 70.279738 
L 24.114878 70.031793 
" style="fill:none;stroke:#ff0000;stroke-linecap:square;stroke-width:2;"/>
   </g>
   <g id="line2d_2">
    <path clip-path="url(#p899a35c881)" d="M 24.478819 69.379072 
L 24.680126 69.018033 
L 24.817622 68.771437 
L 24.898291 68.626759 
L 24.982779 68.47523 
L 25.106042 68.254162 
L 25.241535 68.011157 
L 25.374462 67.772756 
L 25.475584 67.591396 
L 25.692647 67.202098 
L 25.811685 66.988606 
L 25.896703 66.836128 
L 26.002968 66.645543 
L 26.188165 66.313397 
L 26.298121 66.116194 
L 26.373248 65.981456 
L 26.490168 65.771762 
L 26.703378 65.389375 
L 26.727521 65.346075 
L 26.850501 65.125512 
L 27.035939 64.792934 
L 27.163119 64.564838 
L 27.273201 64.367408 
L 27.442325 64.064089 
L 27.53826 63.892032 
L 27.594155 63.791784 
L 27.751863 63.508938 
L 27.876564 63.28529 
L 28.056197 62.963123 
L 28.194268 62.715495 
L 28.240709 62.632205 
L 28.359452 62.419242 
L 28.533953 62.106277 
L 28.683585 61.837916 
L 28.79923 61.63051 
L 28.901431 61.447214 
L 29.042226 61.194702 
L 29.099209 61.092503 
L 29.307822 60.71836 
L 29.387538 60.575391 
L 29.508899 60.357734 
L 29.669502 60.069696 
L 29.761424 59.904836 
L 29.959384 59.549799 
L 30.070333 59.350813 
L 30.115998 59.268914 
L 30.230453 59.063643 
L 30.355702 58.83901 
L 30.518875 58.546364 
L 30.616267 58.371693 
L 30.7571 58.119113 
L 30.861879 57.931193 
L 31.001755 57.680329 
L 31.100052 57.504035 
L 31.264081 57.209853 
L 31.466517 56.846787 
L 31.494681 56.796277 
L 31.71712 56.397337 
L 31.752001 56.334778 
L 31.910577 56.050376 
L 32.043903 55.811259 
L 32.203552 55.524932 
L 32.25337 55.435585 
L 32.450793 55.08151 
L 32.526976 54.944878 
L 32.601223 54.811716 
L 32.838112 54.386863 
L 32.912752 54.252997 
L 33.088861 53.937149 
L 33.135214 53.854016 
L 33.29194 53.572932 
L 33.361268 53.448593 
L 33.546288 53.116764 
L 33.703871 52.834142 
L 33.811655 52.640834 
L 33.904944 52.473522 
L 34.074671 52.16912 
L 34.151228 52.031817 
L 34.345157 51.68401 
L 34.461531 51.475296 
L 34.540488 51.333687 
L 34.602023 51.223326 
L 34.783584 50.8977 
L 34.917138 50.658174 
L 35.040457 50.437004 
L 35.196397 50.157329 
L 35.333163 49.912042 
L 35.365768 49.853566 
L 35.593618 49.444922 
L 35.649063 49.345482 
L 35.731737 49.197208 
L 35.969357 48.771043 
L 36.028642 48.664716 
L 36.152196 48.443124 
L 36.237357 48.290391 
L 36.355539 48.078434 
L 36.568729 47.696081 
L 36.685387 47.486857 
L 36.728204 47.410066 
L 36.912492 47.079551 
L 36.989128 46.942105 
L 37.167494 46.62221 
L 37.261548 46.453526 
L 37.365447 46.267185 
L 37.492025 46.040171 
L 37.718281 45.634386 
L 37.764342 45.551776 
L 37.909066 45.292216 
L 38.082745 44.980727 
L 38.129216 44.897382 
L 38.307551 44.577543 
L 38.349879 44.501627 
L 38.503542 44.226037 
L 38.604442 44.045074 
L 38.781515 43.727498 
L 38.938163 43.446553 
L 39.06354 43.221691 
L 39.22181 42.937838 
L 39.305186 42.788306 
L 39.355597 42.697894 
L 39.515509 42.411096 
L 39.716293 42.050994 
L 39.778254 41.939868 
L 39.910867 41.702029 
" style="fill:none;stroke:#ff0000;stroke-linecap:square;stroke-width:2;"/>
   </g>
   <g id="line2d_3">
    <path clip-path="url(#p899a35c881)" d="M 64.797487 62.531048 
L 89.684107 17.897436 
L 89.684107 17.897436 
" style="fill:none;stroke:#ff0000;stroke-linecap:square;stroke-width:2;"/>
   </g>
   <g id="line2d_4">
    <path clip-path="url(#p899a35c881)" d="M 313.663687 74.433344 
L 338.550307 29.799732 
L 338.550307 29.799732 
" style="fill:none;stroke:#ff0000;stroke-linecap:square;stroke-width:2;"/>
   </g>
   <g id="line2d_5">
    <path clip-path="url(#p899a35c881)" d="M 114.570727 60.547332 
L 139.457347 37.734597 
L 139.457347 37.734597 
" style="fill:none;stroke:#cbff00;stroke-linecap:square;stroke-width:2;"/>
   </g>
   <g id="line2d_6">
    <path clip-path="url(#p899a35c881)" d="M 263.890447 76.417061 
L 288.777067 53.604326 
L 288.777067 53.604326 
" style="fill:none;stroke:#cbff00;stroke-linecap:square;stroke-width:2;"/>
   </g>
   <g id="line2d_7">
    <path clip-path="url(#p899a35c881)" d="M 363.436927 50.628751 
L 388.323547 27.816016 
L 388.323547 27.816016 
" style="fill:none;stroke:#cbff00;stroke-linecap:square;stroke-width:2;"/>
   </g>
   <g id="line2d_8">
    <path clip-path="url(#p899a35c881)" d="M 512.756647 66.49848 
L 537.643267 43.685745 
L 537.643267 43.685745 
" style="fill:none;stroke:#cbff00;stroke-linecap:square;stroke-width:2;"/>
   </g>
   <g id="line2d_9">
    <path clip-path="url(#p899a35c881)" d="M 89.684107 17.897436 
L 114.570727 60.547332 
L 114.570727 60.547332 
" style="fill:none;stroke:#00ff66;stroke-linecap:square;stroke-width:2;"/>
   </g>
   <g id="line2d_10">
    <path clip-path="url(#p899a35c881)" d="M 537.643267 43.685745 
L 562.529887 86.335641 
L 562.529887 86.335641 
" style="fill:none;stroke:#00ff66;stroke-linecap:square;stroke-width:2;"/>
   </g>
   <g id="line2d_11">
    <path clip-path="url(#p899a35c881)" d="M 39.910867 41.702029 
L 64.797487 62.531048 
L 64.797487 62.531048 
" style="fill:none;stroke:#0066ff;stroke-linecap:square;stroke-width:2;"/>
   </g>
   <g id="line2d_12">
    <path clip-path="url(#p899a35c881)" d="M 164.343967 36.742739 
L 189.230587 57.571758 
L 189.230587 57.571758 
" style="fill:none;stroke:#0066ff;stroke-linecap:square;stroke-width:2;"/>
   </g>
   <g id="line2d_13">
    <path clip-path="url(#p899a35c881)" d="M 239.003827 55.588042 
L 263.890447 76.417061 
L 263.890447 76.417061 
" style="fill:none;stroke:#0066ff;stroke-linecap:square;stroke-width:2;"/>
   </g>
   <g id="line2d_14">
    <path clip-path="url(#p899a35c881)" d="M 288.777067 53.604326 
L 313.663687 74.433344 
L 313.663687 74.433344 
" style="fill:none;stroke:#0066ff;stroke-linecap:square;stroke-width:2;"/>
   </g>
   <g id="line2d_15">
    <path clip-path="url(#p899a35c881)" d="M 338.550307 29.799732 
L 363.436927 50.628751 
L 363.436927 50.628751 
" style="fill:none;stroke:#0066ff;stroke-linecap:square;stroke-width:2;"/>
   </g>
   <g id="line2d_16">
    <path clip-path="url(#p899a35c881)" d="M 388.323547 27.816016 
L 413.210167 48.645035 
L 413.210167 48.645035 
" style="fill:none;stroke:#0066ff;stroke-linecap:square;stroke-width:2;"/>
   </g>
   <g id="line2d_17">
    <path clip-path="url(#p899a35c881)" d="M 462.983407 46.661319 
L 487.870027 67.490338 
L 487.870027 67.490338 
" style="fill:none;stroke:#0066ff;stroke-linecap:square;stroke-width:2;"/>
   </g>
   <g id="line2d_18">
    <path clip-path="url(#p899a35c881)" d="M 139.457347 37.734597 
L 164.343967 36.742739 
L 164.343967 36.742739 
" style="fill:none;stroke:#cc00ff;stroke-linecap:square;stroke-width:2;"/>
   </g>
   <g id="line2d_19">
    <path clip-path="url(#p899a35c881)" d="M 189.230587 57.571758 
L 239.003827 55.588042 
L 239.003827 55.588042 
" style="fill:none;stroke:#cc00ff;stroke-linecap:square;stroke-width:2;"/>
   </g>
   <g id="line2d_20">
    <path clip-path="url(#p899a35c881)" d="M 413.210167 48.645035 
L 462.983407 46.661319 
L 462.983407 46.661319 
" style="fill:none;stroke:#cc00ff;stroke-linecap:square;stroke-width:2;"/>
   </g>
   <g id="line2d_21">
    <path clip-path="url(#p899a35c881)" d="M 487.870027 67.490338 
L 512.756647 66.49848 
L 512.756647 66.49848 
" style="fill:none;stroke:#cc00ff;stroke-linecap:square;stroke-width:2;"/>
   </g>
   <g id="matplotlib.axis_1">
    <g id="xtick_1">
     <g id="line2d_22">
      <path clip-path="url(#p899a35c881)" d="M 15.024247 87.704405 
L 15.024247 16.528672 
" style="fill:none;stroke:#000000;stroke-dasharray:0.5,0.825;stroke-dashoffset:0;stroke-width:0.5;"/>
     </g>
     <g id="line2d_23">
      <defs>
       <path d="M 0 0 
L 0 3.5 
" id="mc61385a430" style="stroke:#000000;stroke-width:0.8;"/>
      </defs>
      <g>
       <use style="stroke:#000000;stroke-width:0.8;" x="15.024247" xlink:href="#mc61385a430" y="86.335641"/>
      </g>
     </g>
    </g>
    <g id="xtick_2">
     <g id="line2d_24">
      <path clip-path="url(#p899a35c881)" d="M 89.684107 87.704405 
L 89.684107 16.528672 
" style="fill:none;stroke:#000000;stroke-dasharray:0.5,0.825;stroke-dashoffset:0;stroke-width:0.5;"/>
     </g>
     <g id="line2d_25">
      <g>
       <use style="stroke:#000000;stroke-width:0.8;" x="89.684107" xlink:href="#mc61385a430" y="86.335641"/>
      </g>
     </g>
     <g id="text_1">
      <!-- $f$ -->
      <defs>
       <path d="M 9.71875 -16.5 
Q 11.578125 -17.921875 14.203125 -17.921875 
Q 17.78125 -17.921875 20.015625 -10.015625 
Q 20.953125 -6.203125 25.09375 15.09375 
L 29.6875 39.59375 
L 21.09375 39.59375 
Q 20.125 39.59375 20.125 40.921875 
Q 20.515625 43.109375 21.390625 43.109375 
L 30.328125 43.109375 
L 31.5 49.609375 
Q 32.078125 52.640625 32.5625 54.8125 
Q 33.0625 56.984375 33.625 58.828125 
Q 34.1875 60.6875 35.296875 62.984375 
Q 37.015625 66.265625 39.921875 68.390625 
Q 42.828125 70.515625 46.1875 70.515625 
Q 48.390625 70.515625 50.46875 69.703125 
Q 52.546875 68.890625 53.859375 67.28125 
Q 55.171875 65.671875 55.171875 63.484375 
Q 55.171875 60.9375 53.484375 59.046875 
Q 51.8125 57.171875 49.421875 57.171875 
Q 47.796875 57.171875 46.65625 58.171875 
Q 45.515625 59.1875 45.515625 60.796875 
Q 45.515625 62.984375 47 64.625 
Q 48.484375 66.265625 50.6875 66.5 
Q 48.828125 67.921875 46.09375 67.921875 
Q 44.578125 67.921875 43.234375 66.5 
Q 41.890625 65.09375 41.5 63.484375 
Q 40.875 60.9375 38.71875 49.703125 
L 37.5 43.109375 
L 47.796875 43.109375 
Q 48.78125 43.109375 48.78125 41.796875 
Q 48.734375 41.546875 48.578125 40.9375 
Q 48.4375 40.328125 48.171875 39.953125 
Q 47.90625 39.59375 47.515625 39.59375 
L 36.8125 39.59375 
L 32.171875 15.1875 
Q 31.296875 9.859375 30.140625 4.359375 
Q 29 -1.125 26.921875 -6.90625 
Q 24.859375 -12.703125 21.625 -16.609375 
Q 18.40625 -20.515625 14.015625 -20.515625 
Q 10.640625 -20.515625 7.984375 -18.578125 
Q 5.328125 -16.65625 5.328125 -13.484375 
Q 5.328125 -10.9375 6.953125 -9.046875 
Q 8.59375 -7.171875 11.078125 -7.171875 
Q 12.75 -7.171875 13.859375 -8.171875 
Q 14.984375 -9.1875 14.984375 -10.796875 
Q 14.984375 -12.9375 13.390625 -14.71875 
Q 11.8125 -16.5 9.71875 -16.5 
z
" id="Cmmi10-66"/>
      </defs>
      <g transform="translate(87.234107 100.913766)scale(0.1 -0.1)">
       <use transform="translate(0 0.484375)" xlink:href="#Cmmi10-66"/>
      </g>
     </g>
    </g>
    <g id="xtick_3">
     <g id="line2d_26">
      <path clip-path="url(#p899a35c881)" d="M 562.529887 87.704405 
L 562.529887 16.528672 
" style="fill:none;stroke:#000000;stroke-dasharray:0.5,0.825;stroke-dashoffset:0;stroke-width:0.5;"/>
     </g>
     <g id="line2d_27">
      <g>
       <use style="stroke:#000000;stroke-width:0.8;" x="562.529887" xlink:href="#mc61385a430" y="86.335641"/>
      </g>
     </g>
     <g id="text_2">
      <!-- $1$ -->
      <defs>
       <path d="M 9.28125 0 
L 9.28125 3.515625 
Q 21.78125 3.515625 21.78125 6.6875 
L 21.78125 59.1875 
Q 16.609375 56.6875 8.6875 56.6875 
L 8.6875 60.203125 
Q 20.953125 60.203125 27.203125 66.609375 
L 28.609375 66.609375 
Q 28.953125 66.609375 29.265625 66.328125 
Q 29.59375 66.0625 29.59375 65.71875 
L 29.59375 6.6875 
Q 29.59375 3.515625 42.09375 3.515625 
L 42.09375 0 
z
" id="Cmr10-31"/>
      </defs>
      <g transform="translate(560.029887 100.934078)scale(0.1 -0.1)">
       <use transform="translate(0 0.390625)" xlink:href="#Cmr10-31"/>
      </g>
     </g>
    </g>
   </g>
   <g id="matplotlib.axis_2">
    <g id="ytick_1">
     <g id="line2d_28">
      <path clip-path="url(#p899a35c881)" d="M 4.074135 86.335641 
L 573.48 86.335641 
" style="fill:none;stroke:#000000;stroke-dasharray:0.5,0.825;stroke-dashoffset:0;stroke-width:0.5;"/>
     </g>
     <g id="line2d_29">
      <defs>
       <path d="M 0 0 
L -3.5 0 
" id="m902e5c3e9c" style="stroke:#000000;stroke-width:0.8;"/>
      </defs>
      <g>
       <use style="stroke:#000000;stroke-width:0.8;" x="15.024247" xlink:href="#m902e5c3e9c" y="86.335641"/>
      </g>
     </g>
    </g>
    <g id="ytick_2">
     <g id="line2d_30">
      <path clip-path="url(#p899a35c881)" d="M 4.074135 17.897436 
L 573.48 17.897436 
" style="fill:none;stroke:#000000;stroke-dasharray:0.5,0.825;stroke-dashoffset:0;stroke-width:0.5;"/>
     </g>
     <g id="line2d_31">
      <g>
       <use style="stroke:#000000;stroke-width:0.8;" x="15.024247" xlink:href="#m902e5c3e9c" y="17.897436"/>
      </g>
     </g>
     <g id="text_3">
      <!-- $1$ -->
      <g transform="translate(3.024247 21.696655)scale(0.1 -0.1)">
       <use transform="translate(0 0.390625)" xlink:href="#Cmr10-31"/>
      </g>
     </g>
    </g>
   </g>
   <g id="patch_3">
    <path d="M 15.024247 87.704405 
L 15.024247 16.528672 
" style="fill:none;stroke:#000000;stroke-linecap:square;stroke-linejoin:miter;stroke-width:0.8;"/>
   </g>
   <g id="patch_4">
    <path d="M 4.074135 86.335641 
L 573.48 86.335641 
" style="fill:none;stroke:#000000;stroke-linecap:square;stroke-linejoin:miter;stroke-width:0.8;"/>
   </g>
  </g>
 </g>
 <defs>
  <clipPath id="p899a35c881">
   <rect height="71.175733" width="569.405865" x="4.074135" y="16.528672"/>
  </clipPath>
 </defs>
</svg>
