<?xml version="1.0" encoding="utf-8" standalone="no"?>
<!DOCTYPE svg PUBLIC "-//W3C//DTD SVG 1.1//EN"
  "http://www.w3.org/Graphics/SVG/1.1/DTD/svg11.dtd">
<!-- Created with matplotlib (http://matplotlib.org/) -->
<svg height="108pt" version="1.1" viewBox="0 0 576 108" width="576pt" xmlns="http://www.w3.org/2000/svg" xmlns:xlink="http://www.w3.org/1999/xlink">
 <defs>
  <style type="text/css">
*{stroke-linecap:butt;stroke-linejoin:round;}
  </style>
 </defs>
 <g id="figure_1">
  <g id="patch_1">
   <path d="M 0 108 
L 576 108 
L 576 0 
L 0 0 
z
" style="fill:#ffffff;"/>
  </g>
  <g id="axes_1">
   <g id="patch_2">
    <path d="M 4.074135 87.704405 
L 573.48 87.704405 
L 573.48 16.528672 
L 4.074135 16.528672 
z
" style="fill:#ffffff;"/>
   </g>
   <g id="line2d_1">
    <path clip-path="url(#p81af9b3344)" d="M 214.117207 57.301251 
L 230.708287 62.485963 
L 230.708287 62.485963 
" style="fill:none;stroke:#ff0000;stroke-linecap:square;stroke-width:2;"/>
   </g>
   <g id="line2d_2">
    <path clip-path="url(#p81af9b3344)" d="M 280.481527 55.227366 
L 330.254767 70.781503 
L 330.254767 70.781503 
" style="fill:none;stroke:#ff0000;stroke-linecap:square;stroke-width:2;"/>
   </g>
   <g id="line2d_3">
    <path clip-path="url(#p81af9b3344)" d="M 429.801247 33.451573 
L 479.574487 49.005711 
L 479.574487 49.005711 
" style="fill:none;stroke:#ff0000;stroke-linecap:square;stroke-width:2;"/>
   </g>
   <g id="line2d_4">
    <path clip-path="url(#p81af9b3344)" d="M 529.347727 41.747113 
L 545.938807 46.931826 
L 545.938807 46.931826 
" style="fill:none;stroke:#ff0000;stroke-linecap:square;stroke-width:2;"/>
   </g>
   <g id="line2d_5">
    <path clip-path="url(#p81af9b3344)" d="M 81.388567 61.449021 
L 131.161807 42.784056 
L 131.161807 42.784056 
" style="fill:none;stroke:#ffda00;stroke-linecap:square;stroke-width:2;"/>
   </g>
   <g id="line2d_6">
    <path clip-path="url(#p81af9b3344)" d="M 330.254767 70.781503 
L 429.801247 33.451573 
L 429.801247 33.451573 
" style="fill:none;stroke:#ffda00;stroke-linecap:square;stroke-width:2;"/>
   </g>
   <g id="line2d_7">
    <path clip-path="url(#p81af9b3344)" d="M 247.299367 44.857941 
L 263.890447 72.855388 
L 263.890447 72.855388 
" style="fill:none;stroke:#48ff00;stroke-linecap:square;stroke-width:2;"/>
   </g>
   <g id="line2d_8">
    <path clip-path="url(#p81af9b3344)" d="M 496.165567 31.377688 
L 496.247725 31.51633 
L 496.355629 31.698418 
L 496.374523 31.730302 
L 496.476645 31.902633 
L 496.619112 32.143045 
L 496.64975 32.194747 
L 496.737809 32.343347 
L 496.809846 32.464909 
L 496.907849 32.630289 
L 496.999584 32.785091 
L 497.096291 32.948286 
L 497.13045 33.005929 
L 497.282841 33.263088 
L 497.300566 33.292999 
L 497.401387 33.463135 
L 497.497529 33.625375 
L 497.597615 33.79427 
L 497.701355 33.969331 
L 497.729224 34.01636 
L 497.806266 34.146367 
L 497.880756 34.27207 
L 497.989546 34.455652 
L 498.07451 34.59903 
L 498.170441 34.760913 
L 498.266804 34.923526 
L 498.365072 35.089354 
L 498.44127 35.217936 
L 498.53004 35.367736 
L 498.566895 35.429929 
L 498.625631 35.529047 
L 498.713658 35.677592 
L 498.82873 35.871775 
L 498.881703 35.961168 
L 498.960351 36.093885 
L 499.11312 36.351683 
L 499.155218 36.422725 
L 499.22053 36.532938 
L 499.324899 36.709061 
L 499.407586 36.848594 
L 499.490682 36.988819 
L 499.572387 37.126696 
L 499.699011 37.340374 
L 499.761962 37.446605 
L 499.792353 37.497889 
L 499.89135 37.664947 
L 500.018614 37.879705 
L 500.115206 38.042704 
L 500.202437 38.189906 
L 500.214539 38.210328 
L 500.294535 38.345321 
L 500.421345 38.559313 
L 500.475661 38.650972 
L 500.566037 38.803481 
L 500.707246 39.041771 
L 500.73812 39.093872 
L 500.859 39.297857 
L 500.925019 39.409263 
L 501.037222 39.598606 
L 501.111672 39.72424 
L 501.18514 39.848217 
L 501.290939 40.026753 
L 501.319207 40.074455 
L 501.421389 40.246889 
" style="fill:none;stroke:#48ff00;stroke-linecap:square;stroke-width:2;"/>
   </g>
   <g id="line2d_9">
    <path clip-path="url(#p81af9b3344)" d="M 501.702599 40.72143 
L 512.756647 59.375136 
L 512.756647 59.375136 
" style="fill:none;stroke:#48ff00;stroke-linecap:square;stroke-width:2;"/>
   </g>
   <g id="line2d_10">
    <path clip-path="url(#p81af9b3344)" d="M 197.526127 17.897436 
L 214.117207 57.301251 
L 214.117207 57.301251 
" style="fill:none;stroke:#00ff91;stroke-linecap:square;stroke-width:2;"/>
   </g>
   <g id="line2d_11">
    <path clip-path="url(#p81af9b3344)" d="M 545.938807 46.931826 
L 562.529887 86.335641 
L 562.529887 86.335641 
" style="fill:none;stroke:#00ff91;stroke-linecap:square;stroke-width:2;"/>
   </g>
   <g id="line2d_12">
    <path clip-path="url(#p81af9b3344)" d="M 15.024247 86.335641 
L 31.615327 57.301251 
L 31.615327 57.301251 
" style="fill:none;stroke:#0091ff;stroke-linecap:square;stroke-width:2;"/>
   </g>
   <g id="line2d_13">
    <path clip-path="url(#p81af9b3344)" d="M 48.206407 73.892331 
L 64.797487 44.857941 
L 64.797487 44.857941 
" style="fill:none;stroke:#0091ff;stroke-linecap:square;stroke-width:2;"/>
   </g>
   <g id="line2d_14">
    <path clip-path="url(#p81af9b3344)" d="M 147.752887 59.375136 
L 164.343967 30.340746 
L 164.343967 30.340746 
" style="fill:none;stroke:#0091ff;stroke-linecap:square;stroke-width:2;"/>
   </g>
   <g id="line2d_15">
    <path clip-path="url(#p81af9b3344)" d="M 180.935047 46.931826 
L 197.526127 17.897436 
L 197.526127 17.897436 
" style="fill:none;stroke:#0091ff;stroke-linecap:square;stroke-width:2;"/>
   </g>
   <g id="line2d_16">
    <path clip-path="url(#p81af9b3344)" d="M 230.708287 62.485963 
L 230.764599 62.426133 
L 230.877959 62.305688 
L 230.996572 62.179661 
L 231.078206 62.092925 
L 231.144392 62.022602 
L 231.167929 61.997594 
L 231.306673 61.850179 
L 231.370958 61.781876 
L 231.46401 61.683008 
L 231.556578 61.584654 
L 231.598478 61.540136 
L 231.743697 61.38584 
L 231.833174 61.290771 
L 231.853245 61.269446 
L 232.000242 61.113262 
L 232.055991 61.054028 
L 232.126337 60.979286 
L 232.18429 60.91771 
L 232.260078 60.837186 
L 232.387463 60.70184 
L 232.453509 60.631665 
L 232.515895 60.56538 
L 232.650062 60.422828 
L 232.737718 60.329694 
L 232.785093 60.279357 
L 232.865511 60.193913 
L 232.941013 60.113693 
L 233.075789 59.970493 
L 233.127489 59.915562 
L 233.22157 59.815601 
L 233.294727 59.737871 
L 233.389889 59.636762 
L 233.433629 59.590288 
L 233.503172 59.516399 
L 233.638211 59.37292 
L 233.697372 59.310061 
L 233.829138 59.17006 
L 233.916805 59.076913 
L 233.947624 59.044168 
L 234.034215 58.952166 
L 234.159736 58.818799 
L 234.189397 58.787285 
L 234.32945 58.638478 
L 234.35669 58.609536 
L 234.470741 58.488357 
L 234.507734 58.449051 
L 234.654573 58.293035 
L 234.728268 58.214734 
L 234.802429 58.135938 
L 234.870307 58.063818 
L 234.928079 58.002435 
L 235.002253 57.923625 
L 235.132382 57.785363 
L 235.228485 57.683254 
L 235.266088 57.6433 
L 235.347855 57.556423 
L 235.501731 57.39293 
L 235.553168 57.338278 
L 235.664897 57.219565 
L 235.674962 57.208871 
L 235.766908 57.11118 
L 235.841184 57.03226 
L 235.998877 56.864712 
L 236.005032 56.858172 
L 236.127282 56.728281 
L 236.18569 56.666223 
L 236.292481 56.552758 
L 236.349662 56.492003 
L 236.476612 56.357118 
L 236.558272 56.270354 
L 236.610543 56.214817 
" style="fill:none;stroke:#4800ff;stroke-linecap:square;stroke-width:2;"/>
   </g>
   <g id="line2d_17">
    <path clip-path="url(#p81af9b3344)" d="M 236.853054 55.957148 
L 236.972218 55.830537 
L 237.049967 55.747929 
L 237.160712 55.630262 
L 237.217792 55.569615 
L 237.300949 55.48126 
L 237.386713 55.390137 
L 237.46389 55.308136 
L 237.523045 55.245284 
L 237.621048 55.141155 
L 237.72455 55.031184 
L 237.77552 54.977029 
L 237.908363 54.835883 
L 237.99892 54.739666 
L 238.054042 54.6811 
L 238.093498 54.639178 
L 238.177382 54.55005 
L 238.316216 54.402539 
L 238.41937 54.292938 
L 238.498882 54.208457 
L 238.575453 54.1271 
L 238.639037 54.059542 
L 238.677887 54.018264 
L 238.835854 53.850424 
L 238.88927 53.79367 
L 238.968051 53.709964 
L 239.042533 53.630828 
L 239.118898 53.549689 
L 239.17222 53.493035 
L 239.255959 53.404062 
L 239.397635 53.253532 
L 239.466019 53.180873 
L 239.549694 53.091969 
L 239.611868 53.025909 
L 239.720195 52.910811 
L 239.803352 52.822458 
L 239.872029 52.749488 
L 239.990892 52.623197 
L 240.065592 52.543827 
L 240.114546 52.491813 
L 240.187472 52.414329 
L 240.308469 52.285771 
L 240.418716 52.168633 
L 240.440204 52.145802 
L 240.571257 52.006558 
L 240.654256 51.918372 
L 240.737688 51.829726 
L 240.833529 51.727894 
L 240.853107 51.707092 
L 240.930849 51.624492 
L 241.013707 51.536455 
L 241.100132 51.444628 
L 241.182823 51.356769 
L 241.305688 51.226225 
L 241.401881 51.12402 
L 241.434402 51.089467 
L 241.552721 50.963753 
L 241.637139 50.874059 
L 241.720325 50.785674 
L 241.771164 50.731657 
L 241.87245 50.624041 
L 241.933255 50.559436 
L 242.073009 50.410946 
L 242.153131 50.325817 
L 242.182636 50.294468 
L 242.28939 50.181042 
L 242.419652 50.042638 
L 242.459959 49.999812 
L 242.562523 49.890838 
L 242.63648 49.812259 
L 242.716711 49.727014 
L 242.794092 49.644796 
L 242.890067 49.542822 
L 243.002849 49.422992 
L 243.08588 49.334772 
L 243.141248 49.275942 
L 243.21324 49.199451 
L 243.326982 49.0786 
L 243.342932 49.061653 
L 243.479956 48.916066 
L 243.520198 48.873308 
L 243.647122 48.738452 
L 243.703238 48.678828 
L 243.769713 48.608199 
L 243.858875 48.513464 
L 244.001758 48.361651 
L 244.033615 48.327803 
L 244.105109 48.25184 
L 244.234623 48.114232 
L 244.330789 48.012055 
L 244.418892 47.918446 
L 244.494096 47.838541 
L 244.548753 47.780469 
L 244.604693 47.721033 
L 244.712264 47.606738 
L 244.826012 47.485881 
L 244.850533 47.459827 
L 244.95301 47.350945 
L 245.089119 47.206329 
L 245.110273 47.183854 
L 245.226826 47.060017 
L 245.280296 47.003204 
L 245.347095 46.932231 
L 245.431043 46.843035 
L 245.532946 46.734763 
L 245.618741 46.643606 
L 245.729391 46.526041 
L 245.821859 46.427793 
L 245.905117 46.339332 
L 245.990142 46.248993 
L 246.017811 46.219595 
L 246.138381 46.091489 
L 246.186301 46.040574 
L 246.311967 45.907054 
L 246.417497 45.794928 
L 246.441314 45.769622 
L 246.548793 45.655426 
L 246.633111 45.565839 
L 246.737324 45.455112 
L 246.831627 45.354915 
L 246.84732 45.338241 
L 246.987176 45.189645 
L 247.048315 45.124684 
L 247.165002 45.000704 
L 247.175452 44.989601 
L 247.299367 44.857941 
" style="fill:none;stroke:#4800ff;stroke-linecap:square;stroke-width:2;"/>
   </g>
   <g id="line2d_18">
    <path clip-path="url(#p81af9b3344)" d="M 263.890447 72.855388 
L 280.481527 55.227366 
L 280.481527 55.227366 
" style="fill:none;stroke:#4800ff;stroke-linecap:square;stroke-width:2;"/>
   </g>
   <g id="line2d_19">
    <path clip-path="url(#p81af9b3344)" d="M 479.574487 49.005711 
L 496.165567 31.377688 
L 496.165567 31.377688 
" style="fill:none;stroke:#4800ff;stroke-linecap:square;stroke-width:2;"/>
   </g>
   <g id="line2d_20">
    <path clip-path="url(#p81af9b3344)" d="M 512.756647 59.375136 
L 529.347727 41.747113 
L 529.347727 41.747113 
" style="fill:none;stroke:#4800ff;stroke-linecap:square;stroke-width:2;"/>
   </g>
   <g id="line2d_21">
    <path clip-path="url(#p81af9b3344)" d="M 31.615327 57.301251 
L 48.206407 73.892331 
L 48.206407 73.892331 
" style="fill:none;stroke:#ff00da;stroke-linecap:square;stroke-width:2;"/>
   </g>
   <g id="line2d_22">
    <path clip-path="url(#p81af9b3344)" d="M 64.797487 44.857941 
L 81.388567 61.449021 
L 81.388567 61.449021 
" style="fill:none;stroke:#ff00da;stroke-linecap:square;stroke-width:2;"/>
   </g>
   <g id="line2d_23">
    <path clip-path="url(#p81af9b3344)" d="M 131.161807 42.784056 
L 147.752887 59.375136 
L 147.752887 59.375136 
" style="fill:none;stroke:#ff00da;stroke-linecap:square;stroke-width:2;"/>
   </g>
   <g id="line2d_24">
    <path clip-path="url(#p81af9b3344)" d="M 164.343967 30.340746 
L 180.935047 46.931826 
L 180.935047 46.931826 
" style="fill:none;stroke:#ff00da;stroke-linecap:square;stroke-width:2;"/>
   </g>
   <g id="matplotlib.axis_1">
    <g id="xtick_1">
     <g id="line2d_25">
      <path clip-path="url(#p81af9b3344)" d="M 15.024247 87.704405 
L 15.024247 16.528672 
" style="fill:none;stroke:#000000;stroke-dasharray:0.5,0.825;stroke-dashoffset:0;stroke-width:0.5;"/>
     </g>
     <g id="line2d_26">
      <defs>
       <path d="M 0 0 
L 0 3.5 
" id="ma81b647766" style="stroke:#000000;stroke-width:0.8;"/>
      </defs>
      <g>
       <use style="stroke:#000000;stroke-width:0.8;" x="15.024247" xlink:href="#ma81b647766" y="86.335641"/>
      </g>
     </g>
    </g>
    <g id="xtick_2">
     <g id="line2d_27">
      <path clip-path="url(#p81af9b3344)" d="M 197.526127 87.704405 
L 197.526127 16.528672 
" style="fill:none;stroke:#000000;stroke-dasharray:0.5,0.825;stroke-dashoffset:0;stroke-width:0.5;"/>
     </g>
     <g id="line2d_28">
      <g>
       <use style="stroke:#000000;stroke-width:0.8;" x="197.526127" xlink:href="#ma81b647766" y="86.335641"/>
      </g>
     </g>
     <g id="text_1">
      <!-- $f$ -->
      <defs>
       <path d="M 9.71875 -16.5 
Q 11.578125 -17.921875 14.203125 -17.921875 
Q 17.78125 -17.921875 20.015625 -10.015625 
Q 20.953125 -6.203125 25.09375 15.09375 
L 29.6875 39.59375 
L 21.09375 39.59375 
Q 20.125 39.59375 20.125 40.921875 
Q 20.515625 43.109375 21.390625 43.109375 
L 30.328125 43.109375 
L 31.5 49.609375 
Q 32.078125 52.640625 32.5625 54.8125 
Q 33.0625 56.984375 33.625 58.828125 
Q 34.1875 60.6875 35.296875 62.984375 
Q 37.015625 66.265625 39.921875 68.390625 
Q 42.828125 70.515625 46.1875 70.515625 
Q 48.390625 70.515625 50.46875 69.703125 
Q 52.546875 68.890625 53.859375 67.28125 
Q 55.171875 65.671875 55.171875 63.484375 
Q 55.171875 60.9375 53.484375 59.046875 
Q 51.8125 57.171875 49.421875 57.171875 
Q 47.796875 57.171875 46.65625 58.171875 
Q 45.515625 59.1875 45.515625 60.796875 
Q 45.515625 62.984375 47 64.625 
Q 48.484375 66.265625 50.6875 66.5 
Q 48.828125 67.921875 46.09375 67.921875 
Q 44.578125 67.921875 43.234375 66.5 
Q 41.890625 65.09375 41.5 63.484375 
Q 40.875 60.9375 38.71875 49.703125 
L 37.5 43.109375 
L 47.796875 43.109375 
Q 48.78125 43.109375 48.78125 41.796875 
Q 48.734375 41.546875 48.578125 40.9375 
Q 48.4375 40.328125 48.171875 39.953125 
Q 47.90625 39.59375 47.515625 39.59375 
L 36.8125 39.59375 
L 32.171875 15.1875 
Q 31.296875 9.859375 30.140625 4.359375 
Q 29 -1.125 26.921875 -6.90625 
Q 24.859375 -12.703125 21.625 -16.609375 
Q 18.40625 -20.515625 14.015625 -20.515625 
Q 10.640625 -20.515625 7.984375 -18.578125 
Q 5.328125 -16.65625 5.328125 -13.484375 
Q 5.328125 -10.9375 6.953125 -9.046875 
Q 8.59375 -7.171875 11.078125 -7.171875 
Q 12.75 -7.171875 13.859375 -8.171875 
Q 14.984375 -9.1875 14.984375 -10.796875 
Q 14.984375 -12.9375 13.390625 -14.71875 
Q 11.8125 -16.5 9.71875 -16.5 
z
" id="Cmmi10-66"/>
      </defs>
      <g transform="translate(195.076127 100.913766)scale(0.1 -0.1)">
       <use transform="translate(0 0.484375)" xlink:href="#Cmmi10-66"/>
      </g>
     </g>
    </g>
    <g id="xtick_3">
     <g id="line2d_29">
      <path clip-path="url(#p81af9b3344)" d="M 562.529887 87.704405 
L 562.529887 16.528672 
" style="fill:none;stroke:#000000;stroke-dasharray:0.5,0.825;stroke-dashoffset:0;stroke-width:0.5;"/>
     </g>
     <g id="line2d_30">
      <g>
       <use style="stroke:#000000;stroke-width:0.8;" x="562.529887" xlink:href="#ma81b647766" y="86.335641"/>
      </g>
     </g>
     <g id="text_2">
      <!-- $1$ -->
      <defs>
       <path d="M 9.28125 0 
L 9.28125 3.515625 
Q 21.78125 3.515625 21.78125 6.6875 
L 21.78125 59.1875 
Q 16.609375 56.6875 8.6875 56.6875 
L 8.6875 60.203125 
Q 20.953125 60.203125 27.203125 66.609375 
L 28.609375 66.609375 
Q 28.953125 66.609375 29.265625 66.328125 
Q 29.59375 66.0625 29.59375 65.71875 
L 29.59375 6.6875 
Q 29.59375 3.515625 42.09375 3.515625 
L 42.09375 0 
z
" id="Cmr10-31"/>
      </defs>
      <g transform="translate(560.029887 100.934078)scale(0.1 -0.1)">
       <use transform="translate(0 0.390625)" xlink:href="#Cmr10-31"/>
      </g>
     </g>
    </g>
   </g>
   <g id="matplotlib.axis_2">
    <g id="ytick_1">
     <g id="line2d_31">
      <path clip-path="url(#p81af9b3344)" d="M 4.074135 86.335641 
L 573.48 86.335641 
" style="fill:none;stroke:#000000;stroke-dasharray:0.5,0.825;stroke-dashoffset:0;stroke-width:0.5;"/>
     </g>
     <g id="line2d_32">
      <defs>
       <path d="M 0 0 
L -3.5 0 
" id="mf95e23e1c1" style="stroke:#000000;stroke-width:0.8;"/>
      </defs>
      <g>
       <use style="stroke:#000000;stroke-width:0.8;" x="15.024247" xlink:href="#mf95e23e1c1" y="86.335641"/>
      </g>
     </g>
    </g>
    <g id="ytick_2">
     <g id="line2d_33">
      <path clip-path="url(#p81af9b3344)" d="M 4.074135 17.897436 
L 573.48 17.897436 
" style="fill:none;stroke:#000000;stroke-dasharray:0.5,0.825;stroke-dashoffset:0;stroke-width:0.5;"/>
     </g>
     <g id="line2d_34">
      <g>
       <use style="stroke:#000000;stroke-width:0.8;" x="15.024247" xlink:href="#mf95e23e1c1" y="17.897436"/>
      </g>
     </g>
     <g id="text_3">
      <!-- $1$ -->
      <g transform="translate(3.024247 21.696655)scale(0.1 -0.1)">
       <use transform="translate(0 0.390625)" xlink:href="#Cmr10-31"/>
      </g>
     </g>
    </g>
   </g>
   <g id="patch_3">
    <path d="M 15.024247 87.704405 
L 15.024247 16.528672 
" style="fill:none;stroke:#000000;stroke-linecap:square;stroke-linejoin:miter;stroke-width:0.8;"/>
   </g>
   <g id="patch_4">
    <path d="M 4.074135 86.335641 
L 573.48 86.335641 
" style="fill:none;stroke:#000000;stroke-linecap:square;stroke-linejoin:miter;stroke-width:0.8;"/>
   </g>
  </g>
 </g>
 <defs>
  <clipPath id="p81af9b3344">
   <rect height="71.175733" width="569.405865" x="4.074135" y="16.528672"/>
  </clipPath>
 </defs>
</svg>
