<?xml version="1.0" encoding="utf-8" standalone="no"?>
<!DOCTYPE svg PUBLIC "-//W3C//DTD SVG 1.1//EN"
  "http://www.w3.org/Graphics/SVG/1.1/DTD/svg11.dtd">
<!-- Created with matplotlib (http://matplotlib.org/) -->
<svg height="108pt" version="1.1" viewBox="0 0 576 108" width="576pt" xmlns="http://www.w3.org/2000/svg" xmlns:xlink="http://www.w3.org/1999/xlink">
 <defs>
  <style type="text/css">
*{stroke-linecap:butt;stroke-linejoin:round;}
  </style>
 </defs>
 <g id="figure_1">
  <g id="patch_1">
   <path d="M 0 108 
L 576 108 
L 576 0 
L 0 0 
z
" style="fill:#ffffff;"/>
  </g>
  <g id="axes_1">
   <g id="patch_2">
    <path d="M 8.756652 91.079231 
L 285.48 91.079231 
L 285.48 2.52 
L 8.756652 2.52 
z
" style="fill:#ffffff;"/>
   </g>
   <g id="line2d_1">
    <path clip-path="url(#pbcac848169)" d="M 114.59742 23.145975 
L 232.855261 70.453256 
L 232.855261 70.453256 
" style="fill:none;stroke:#ff0000;stroke-linecap:square;"/>
   </g>
   <g id="line2d_2">
    <path clip-path="url(#pbcac848169)" d="M 67.294283 4.223062 
L 96.858744 51.530344 
L 96.858744 51.530344 
" style="fill:none;stroke:#00ff00;stroke-linecap:square;"/>
   </g>
   <g id="line2d_3">
    <path clip-path="url(#pbcac848169)" d="M 250.593937 42.068887 
L 280.158397 89.376169 
L 280.158397 89.376169 
" style="fill:none;stroke:#00ff00;stroke-linecap:square;"/>
   </g>
   <g id="line2d_4">
    <path clip-path="url(#pbcac848169)" d="M 14.078255 89.376169 
L 67.294283 4.223062 
L 67.294283 4.223062 
" style="fill:none;stroke:#0000ff;stroke-linecap:square;"/>
   </g>
   <g id="line2d_5">
    <path clip-path="url(#pbcac848169)" d="M 96.858744 51.530344 
L 114.59742 23.145975 
L 114.59742 23.145975 
" style="fill:none;stroke:#0000ff;stroke-linecap:square;"/>
   </g>
   <g id="line2d_6">
    <path clip-path="url(#pbcac848169)" d="M 232.855261 70.453256 
L 250.593937 42.068887 
L 250.593937 42.068887 
" style="fill:none;stroke:#0000ff;stroke-linecap:square;"/>
   </g>
   <g id="matplotlib.axis_1">
    <g id="xtick_1">
     <g id="line2d_7">
      <path clip-path="url(#pbcac848169)" d="M 14.078255 91.079231 
L 14.078255 2.52 
" style="fill:none;stroke:#000000;stroke-dasharray:0.5,0.825;stroke-dashoffset:0;stroke-width:0.5;"/>
     </g>
     <g id="line2d_8">
      <defs>
       <path d="M 0 0 
L 0 3.5 
" id="mded95f054c" style="stroke:#000000;stroke-width:0.8;"/>
      </defs>
      <g>
       <use style="stroke:#000000;stroke-width:0.8;" x="14.078255" xlink:href="#mded95f054c" y="89.376169"/>
      </g>
     </g>
    </g>
    <g id="xtick_2">
     <g id="line2d_9">
      <path clip-path="url(#pbcac848169)" d="M 67.294283 91.079231 
L 67.294283 2.52 
" style="fill:none;stroke:#000000;stroke-dasharray:0.5,0.825;stroke-dashoffset:0;stroke-width:0.5;"/>
     </g>
     <g id="line2d_10">
      <g>
       <use style="stroke:#000000;stroke-width:0.8;" x="67.294283" xlink:href="#mded95f054c" y="89.376169"/>
      </g>
     </g>
     <g id="text_1">
      <!-- $f$ -->
      <defs>
       <path d="M 9.71875 -16.5 
Q 11.578125 -17.921875 14.203125 -17.921875 
Q 17.78125 -17.921875 20.015625 -10.015625 
Q 20.953125 -6.203125 25.09375 15.09375 
L 29.6875 39.59375 
L 21.09375 39.59375 
Q 20.125 39.59375 20.125 40.921875 
Q 20.515625 43.109375 21.390625 43.109375 
L 30.328125 43.109375 
L 31.5 49.609375 
Q 32.078125 52.640625 32.5625 54.8125 
Q 33.0625 56.984375 33.625 58.828125 
Q 34.1875 60.6875 35.296875 62.984375 
Q 37.015625 66.265625 39.921875 68.390625 
Q 42.828125 70.515625 46.1875 70.515625 
Q 48.390625 70.515625 50.46875 69.703125 
Q 52.546875 68.890625 53.859375 67.28125 
Q 55.171875 65.671875 55.171875 63.484375 
Q 55.171875 60.9375 53.484375 59.046875 
Q 51.8125 57.171875 49.421875 57.171875 
Q 47.796875 57.171875 46.65625 58.171875 
Q 45.515625 59.1875 45.515625 60.796875 
Q 45.515625 62.984375 47 64.625 
Q 48.484375 66.265625 50.6875 66.5 
Q 48.828125 67.921875 46.09375 67.921875 
Q 44.578125 67.921875 43.234375 66.5 
Q 41.890625 65.09375 41.5 63.484375 
Q 40.875 60.9375 38.71875 49.703125 
L 37.5 43.109375 
L 47.796875 43.109375 
Q 48.78125 43.109375 48.78125 41.796875 
Q 48.734375 41.546875 48.578125 40.9375 
Q 48.4375 40.328125 48.171875 39.953125 
Q 47.90625 39.59375 47.515625 39.59375 
L 36.8125 39.59375 
L 32.171875 15.1875 
Q 31.296875 9.859375 30.140625 4.359375 
Q 29 -1.125 26.921875 -6.90625 
Q 24.859375 -12.703125 21.625 -16.609375 
Q 18.40625 -20.515625 14.015625 -20.515625 
Q 10.640625 -20.515625 7.984375 -18.578125 
Q 5.328125 -16.65625 5.328125 -13.484375 
Q 5.328125 -10.9375 6.953125 -9.046875 
Q 8.59375 -7.171875 11.078125 -7.171875 
Q 12.75 -7.171875 13.859375 -8.171875 
Q 14.984375 -9.1875 14.984375 -10.796875 
Q 14.984375 -12.9375 13.390625 -14.71875 
Q 11.8125 -16.5 9.71875 -16.5 
z
" id="Cmmi10-66"/>
      </defs>
      <g transform="translate(64.844283 103.954294)scale(0.1 -0.1)">
       <use transform="translate(0 0.484375)" xlink:href="#Cmmi10-66"/>
      </g>
     </g>
    </g>
    <g id="xtick_3">
     <g id="line2d_11">
      <path clip-path="url(#pbcac848169)" d="M 280.158397 91.079231 
L 280.158397 2.52 
" style="fill:none;stroke:#000000;stroke-dasharray:0.5,0.825;stroke-dashoffset:0;stroke-width:0.5;"/>
     </g>
     <g id="line2d_12">
      <g>
       <use style="stroke:#000000;stroke-width:0.8;" x="280.158397" xlink:href="#mded95f054c" y="89.376169"/>
      </g>
     </g>
     <g id="text_2">
      <!-- $1$ -->
      <defs>
       <path d="M 9.28125 0 
L 9.28125 3.515625 
Q 21.78125 3.515625 21.78125 6.6875 
L 21.78125 59.1875 
Q 16.609375 56.6875 8.6875 56.6875 
L 8.6875 60.203125 
Q 20.953125 60.203125 27.203125 66.609375 
L 28.609375 66.609375 
Q 28.953125 66.609375 29.265625 66.328125 
Q 29.59375 66.0625 29.59375 65.71875 
L 29.59375 6.6875 
Q 29.59375 3.515625 42.09375 3.515625 
L 42.09375 0 
z
" id="Cmr10-31"/>
      </defs>
      <g transform="translate(277.658397 103.974606)scale(0.1 -0.1)">
       <use transform="translate(0 0.390625)" xlink:href="#Cmr10-31"/>
      </g>
     </g>
    </g>
   </g>
   <g id="matplotlib.axis_2">
    <g id="ytick_1">
     <g id="line2d_13">
      <path clip-path="url(#pbcac848169)" d="M 8.756652 89.376169 
L 285.48 89.376169 
" style="fill:none;stroke:#000000;stroke-dasharray:0.5,0.825;stroke-dashoffset:0;stroke-width:0.5;"/>
     </g>
     <g id="line2d_14">
      <defs>
       <path d="M 0 0 
L -3.5 0 
" id="m8111b3d08f" style="stroke:#000000;stroke-width:0.8;"/>
      </defs>
      <g>
       <use style="stroke:#000000;stroke-width:0.8;" x="14.078255" xlink:href="#m8111b3d08f" y="89.376169"/>
      </g>
     </g>
    </g>
    <g id="ytick_2">
     <g id="line2d_15">
      <path clip-path="url(#pbcac848169)" d="M 8.756652 4.223062 
L 285.48 4.223062 
" style="fill:none;stroke:#000000;stroke-dasharray:0.5,0.825;stroke-dashoffset:0;stroke-width:0.5;"/>
     </g>
     <g id="line2d_16">
      <g>
       <use style="stroke:#000000;stroke-width:0.8;" x="14.078255" xlink:href="#m8111b3d08f" y="4.223062"/>
      </g>
     </g>
     <g id="text_3">
      <!-- $1$ -->
      <g transform="translate(2.078255 8.022281)scale(0.1 -0.1)">
       <use transform="translate(0 0.390625)" xlink:href="#Cmr10-31"/>
      </g>
     </g>
    </g>
   </g>
   <g id="patch_3">
    <path d="M 14.078255 91.079231 
L 14.078255 2.52 
" style="fill:none;stroke:#000000;stroke-linecap:square;stroke-linejoin:miter;stroke-width:0.8;"/>
   </g>
   <g id="patch_4">
    <path d="M 8.756652 89.376169 
L 285.48 89.376169 
" style="fill:none;stroke:#000000;stroke-linecap:square;stroke-linejoin:miter;stroke-width:0.8;"/>
   </g>
  </g>
  <g id="axes_2">
   <g id="patch_5">
    <path d="M 296.756652 91.079231 
L 573.48 91.079231 
L 573.48 2.52 
L 296.756652 2.52 
z
" style="fill:#ffffff;"/>
   </g>
   <g id="line2d_17">
    <path clip-path="url(#pf9ac271fbc)" d="M 376.3179 17.88961 
L 428.87694 52.05598 
L 428.87694 52.05598 
" style="fill:none;stroke:#ff0000;stroke-linecap:square;"/>
   </g>
   <g id="line2d_18">
    <path clip-path="url(#pf9ac271fbc)" d="M 494.575741 41.543251 
L 547.134781 75.709621 
L 547.134781 75.709621 
" style="fill:none;stroke:#ff0000;stroke-linecap:square;"/>
   </g>
   <g id="line2d_19">
    <path clip-path="url(#pf9ac271fbc)" d="M 302.078255 89.376169 
L 355.294283 4.223062 
L 355.294283 4.223062 
" style="fill:none;stroke:#00ff00;stroke-linecap:square;"/>
   </g>
   <g id="line2d_20">
    <path clip-path="url(#pf9ac271fbc)" d="M 368.434043 30.504885 
L 376.3179 17.88961 
L 376.3179 17.88961 
" style="fill:none;stroke:#00ff00;stroke-linecap:square;"/>
   </g>
   <g id="line2d_21">
    <path clip-path="url(#pf9ac271fbc)" d="M 428.87694 52.05598 
L 436.760796 39.440705 
L 436.760796 39.440705 
" style="fill:none;stroke:#00ff00;stroke-linecap:square;"/>
   </g>
   <g id="line2d_22">
    <path clip-path="url(#pf9ac271fbc)" d="M 449.900556 65.722528 
L 473.552124 27.876703 
L 473.552124 27.876703 
" style="fill:none;stroke:#00ff00;stroke-linecap:square;"/>
   </g>
   <g id="line2d_23">
    <path clip-path="url(#pf9ac271fbc)" d="M 486.691884 54.158526 
L 486.73509 54.089392 
L 486.781002 54.015926 
L 486.804859 53.977751 
L 486.831224 53.935563 
L 486.888745 53.843521 
L 486.91964 53.794086 
L 486.973341 53.708156 
L 487.026719 53.622743 
L 487.040321 53.600978 
L 487.096659 53.51083 
L 487.113473 53.483925 
L 487.165272 53.40104 
L 487.211103 53.327703 
L 487.239867 53.281677 
L 487.271234 53.231485 
L 487.335163 53.129189 
L 487.350159 53.105195 
L 487.411923 53.006363 
L 487.437762 52.965017 
L 487.468148 52.916395 
L 487.535782 52.808171 
L 487.543862 52.795243 
L 487.612589 52.685269 
L 487.662438 52.605503 
L 487.698133 52.548388 
L 487.74033 52.480866 
L 487.777554 52.421302 
L 487.789655 52.401939 
L 487.837397 52.325545 
L 487.862084 52.286043 
L 487.927941 52.180662 
L 487.959375 52.130363 
L 487.987703 52.085034 
L 488.039993 52.001364 
L 488.091855 51.918377 
L 488.106076 51.895621 
L 488.162702 51.805011 
L 488.1956 51.75237 
L 488.234391 51.690299 
L 488.292096 51.597963 
L 488.317539 51.55725 
L 488.353695 51.499396 
L 488.389123 51.442707 
L 488.42012 51.393107 
L 488.458503 51.331688 
L 488.509067 51.25078 
L 488.555797 51.176005 
L 488.606857 51.094302 
L 488.647653 51.029022 
L 488.657925 51.012586 
L 488.706377 50.935055 
L 488.733293 50.891987 
L 488.775169 50.824978 
L 488.84091 50.719784 
L 488.88035 50.656674 
L 488.904189 50.618528 
L 488.938063 50.564325 
L 489.000052 50.465133 
L 489.035396 50.408579 
L 489.082328 50.33348 
L 489.119854 50.273435 
L 489.131637 50.25458 
L 489.200052 50.145107 
L 489.211023 50.127551 
L 489.264777 50.041538 
L 489.318086 49.956236 
L 489.365476 49.880405 
L 489.391038 49.839502 
L 489.432565 49.773053 
L 489.482806 49.69266 
L 489.503626 49.659346 
L 489.534128 49.610538 
L 489.587901 49.524493 
L 489.625543 49.464261 
L 489.644002 49.434724 
L 489.707948 49.332401 
L 489.734328 49.29019 
L 489.772938 49.228409 
L 489.832763 49.13268 
L 489.87478 49.065446 
L 489.911759 49.006275 
L 489.945425 48.952406 
L 489.970505 48.912274 
L 490.036735 48.806297 
L 490.0445 48.793871 
L 490.101999 48.701864 
L 490.134152 48.650416 
L 490.192556 48.55696 
L 490.223786 48.506988 
L 490.248371 48.467649 
L 490.298741 48.38705 
L 490.32306 48.348135 
" style="fill:none;stroke:#00ff00;stroke-linecap:square;"/>
   </g>
   <g id="line2d_24">
    <path clip-path="url(#pf9ac271fbc)" d="M 490.474282 48.106159 
L 490.513108 48.044032 
L 490.517444 48.037094 
L 490.556986 47.973821 
L 490.622813 47.868489 
L 490.672881 47.788373 
L 490.691139 47.759157 
L 490.746942 47.669866 
L 490.761735 47.646194 
L 490.82275 47.548562 
L 490.856662 47.494298 
L 490.896901 47.429909 
L 490.933002 47.372143 
L 490.986308 47.286846 
L 491.012514 47.244913 
L 491.064484 47.161753 
L 491.084504 47.12972 
L 491.114548 47.081645 
L 491.156639 47.014293 
L 491.194841 46.953163 
L 491.241717 46.878156 
L 491.27332 46.827587 
L 491.344639 46.713466 
L 491.376755 46.662076 
L 491.419757 46.593268 
L 491.427677 46.580594 
L 491.466438 46.518571 
L 491.521164 46.431001 
L 491.570771 46.351623 
L 491.615618 46.279863 
L 491.644779 46.2332 
L 491.687703 46.164516 
L 491.729361 46.097857 
L 491.767746 46.036435 
L 491.783265 46.011603 
L 491.824477 45.945658 
L 491.893247 45.835617 
L 491.914057 45.802318 
L 491.942802 45.756321 
L 491.985419 45.688129 
L 492.051494 45.582399 
L 492.082637 45.532566 
L 492.13239 45.452955 
L 492.159649 45.409337 
L 492.209536 45.32951 
L 492.256979 45.253595 
L 492.29364 45.194932 
L 492.318372 45.155357 
L 492.35262 45.100556 
L 492.40134 45.022596 
L 492.44047 44.959983 
L 492.467605 44.916563 
L 492.497985 44.867951 
L 492.548653 44.786875 
L 492.610219 44.688361 
L 492.646685 44.63001 
L 492.670252 44.5923 
L 492.722701 44.508374 
L 492.765833 44.439357 
L 492.795093 44.392537 
L 492.84776 44.308261 
L 492.885588 44.247732 
L 492.896809 44.229776 
L 492.958061 44.131765 
L 492.983749 44.090661 
L 493.017494 44.036664 
L 493.056884 43.973634 
L 493.105594 43.895691 
L 493.169318 43.793724 
L 493.195343 43.75208 
L 493.227779 43.700178 
L 493.270139 43.632396 
L 493.308197 43.571497 
L 493.340419 43.519938 
L 493.373207 43.467474 
L 493.425 43.384596 
L 493.462541 43.324526 
L 493.50474 43.257002 
L 493.562666 43.164311 
L 493.598756 43.106562 
L 493.641883 43.037553 
L 493.684305 42.969673 
L 493.710839 42.927214 
L 493.744683 42.87306 
L 493.775082 42.824416 
L 493.824876 42.74474 
L 493.879658 42.65708 
L 493.897776 42.628089 
L 493.949685 42.545028 
L 493.983642 42.490691 
L 494.002612 42.460338 
L 494.058064 42.371606 
L 494.109094 42.28995 
L 494.14806 42.2276 
L 494.160478 42.207728 
L 494.20875 42.130487 
L 494.253158 42.059427 
L 494.291317 41.998369 
L 494.345688 41.911368 
L 494.360913 41.887005 
L 494.415934 41.798964 
L 494.453594 41.738703 
L 494.497453 41.668521 
L 494.530015 41.616418 
L 494.575741 41.543251 
" style="fill:none;stroke:#00ff00;stroke-linecap:square;"/>
   </g>
   <g id="line2d_25">
    <path clip-path="url(#pf9ac271fbc)" d="M 547.134781 75.709621 
L 555.018637 63.094346 
L 555.018637 63.094346 
" style="fill:none;stroke:#00ff00;stroke-linecap:square;"/>
   </g>
   <g id="line2d_26">
    <path clip-path="url(#pf9ac271fbc)" d="M 355.294283 4.223062 
L 368.434043 30.504885 
L 368.434043 30.504885 
" style="fill:none;stroke:#0000ff;stroke-linecap:square;"/>
   </g>
   <g id="line2d_27">
    <path clip-path="url(#pf9ac271fbc)" d="M 436.760796 39.440705 
L 449.900556 65.722528 
L 449.900556 65.722528 
" style="fill:none;stroke:#0000ff;stroke-linecap:square;"/>
   </g>
   <g id="line2d_28">
    <path clip-path="url(#pf9ac271fbc)" d="M 473.552124 27.876703 
L 486.691884 54.158526 
L 486.691884 54.158526 
" style="fill:none;stroke:#0000ff;stroke-linecap:square;"/>
   </g>
   <g id="line2d_29">
    <path clip-path="url(#pf9ac271fbc)" d="M 555.018637 63.094346 
L 568.158397 89.376169 
L 568.158397 89.376169 
" style="fill:none;stroke:#0000ff;stroke-linecap:square;"/>
   </g>
   <g id="matplotlib.axis_3">
    <g id="xtick_4">
     <g id="line2d_30">
      <path clip-path="url(#pf9ac271fbc)" d="M 302.078255 91.079231 
L 302.078255 2.52 
" style="fill:none;stroke:#000000;stroke-dasharray:0.5,0.825;stroke-dashoffset:0;stroke-width:0.5;"/>
     </g>
     <g id="line2d_31">
      <g>
       <use style="stroke:#000000;stroke-width:0.8;" x="302.078255" xlink:href="#mded95f054c" y="89.376169"/>
      </g>
     </g>
    </g>
    <g id="xtick_5">
     <g id="line2d_32">
      <path clip-path="url(#pf9ac271fbc)" d="M 355.294283 91.079231 
L 355.294283 2.52 
" style="fill:none;stroke:#000000;stroke-dasharray:0.5,0.825;stroke-dashoffset:0;stroke-width:0.5;"/>
     </g>
     <g id="line2d_33">
      <g>
       <use style="stroke:#000000;stroke-width:0.8;" x="355.294283" xlink:href="#mded95f054c" y="89.376169"/>
      </g>
     </g>
     <g id="text_4">
      <!-- $f$ -->
      <g transform="translate(352.844283 103.954294)scale(0.1 -0.1)">
       <use transform="translate(0 0.484375)" xlink:href="#Cmmi10-66"/>
      </g>
     </g>
    </g>
    <g id="xtick_6">
     <g id="line2d_34">
      <path clip-path="url(#pf9ac271fbc)" d="M 568.158397 91.079231 
L 568.158397 2.52 
" style="fill:none;stroke:#000000;stroke-dasharray:0.5,0.825;stroke-dashoffset:0;stroke-width:0.5;"/>
     </g>
     <g id="line2d_35">
      <g>
       <use style="stroke:#000000;stroke-width:0.8;" x="568.158397" xlink:href="#mded95f054c" y="89.376169"/>
      </g>
     </g>
     <g id="text_5">
      <!-- $1$ -->
      <g transform="translate(565.658397 103.974606)scale(0.1 -0.1)">
       <use transform="translate(0 0.390625)" xlink:href="#Cmr10-31"/>
      </g>
     </g>
    </g>
   </g>
   <g id="matplotlib.axis_4">
    <g id="ytick_3">
     <g id="line2d_36">
      <path clip-path="url(#pf9ac271fbc)" d="M 296.756652 89.376169 
L 573.48 89.376169 
" style="fill:none;stroke:#000000;stroke-dasharray:0.5,0.825;stroke-dashoffset:0;stroke-width:0.5;"/>
     </g>
     <g id="line2d_37">
      <g>
       <use style="stroke:#000000;stroke-width:0.8;" x="302.078255" xlink:href="#m8111b3d08f" y="89.376169"/>
      </g>
     </g>
    </g>
    <g id="ytick_4">
     <g id="line2d_38">
      <path clip-path="url(#pf9ac271fbc)" d="M 296.756652 4.223062 
L 573.48 4.223062 
" style="fill:none;stroke:#000000;stroke-dasharray:0.5,0.825;stroke-dashoffset:0;stroke-width:0.5;"/>
     </g>
     <g id="line2d_39">
      <g>
       <use style="stroke:#000000;stroke-width:0.8;" x="302.078255" xlink:href="#m8111b3d08f" y="4.223062"/>
      </g>
     </g>
     <g id="text_6">
      <!-- $1$ -->
      <g transform="translate(290.078255 8.022281)scale(0.1 -0.1)">
       <use transform="translate(0 0.390625)" xlink:href="#Cmr10-31"/>
      </g>
     </g>
    </g>
   </g>
   <g id="patch_6">
    <path d="M 302.078255 91.079231 
L 302.078255 2.52 
" style="fill:none;stroke:#000000;stroke-linecap:square;stroke-linejoin:miter;stroke-width:0.8;"/>
   </g>
   <g id="patch_7">
    <path d="M 296.756652 89.376169 
L 573.48 89.376169 
" style="fill:none;stroke:#000000;stroke-linecap:square;stroke-linejoin:miter;stroke-width:0.8;"/>
   </g>
  </g>
 </g>
 <defs>
  <clipPath id="pbcac848169">
   <rect height="88.559231" width="276.723348" x="8.756652" y="2.52"/>
  </clipPath>
  <clipPath id="pf9ac271fbc">
   <rect height="88.559231" width="276.723348" x="296.756652" y="2.52"/>
  </clipPath>
 </defs>
</svg>
