<?xml version="1.0" encoding="utf-8" standalone="no"?>
<!DOCTYPE svg PUBLIC "-//W3C//DTD SVG 1.1//EN"
  "http://www.w3.org/Graphics/SVG/1.1/DTD/svg11.dtd">
<!-- Created with matplotlib (http://matplotlib.org/) -->
<svg height="108pt" version="1.1" viewBox="0 0 576 108" width="576pt" xmlns="http://www.w3.org/2000/svg" xmlns:xlink="http://www.w3.org/1999/xlink">
 <defs>
  <style type="text/css">
*{stroke-linecap:butt;stroke-linejoin:round;}
  </style>
 </defs>
 <g id="figure_1">
  <g id="patch_1">
   <path d="M 0 108 
L 576 108 
L 576 0 
L 0 0 
z
" style="fill:#ffffff;"/>
  </g>
  <g id="axes_1">
   <g id="patch_2">
    <path d="M 4.074135 87.704405 
L 573.48 87.704405 
L 573.48 16.528672 
L 4.074135 16.528672 
z
" style="fill:#ffffff;"/>
   </g>
   <g id="line2d_1">
    <path clip-path="url(#p2e892e92e7)" d="M 114.570727 62.09711 
L 114.849734 61.985217 
L 115.143426 61.867434 
L 115.41805 61.757298 
L 115.513144 61.719162 
L 115.729393 61.632437 
L 116.101099 61.483367 
L 116.372943 61.374347 
L 116.637819 61.26812 
L 116.870403 61.174844 
L 117.167832 61.055563 
L 117.323352 60.993193 
L 117.474227 60.932686 
L 117.734316 60.828379 
L 118.096922 60.682959 
L 118.440693 60.545093 
L 118.479152 60.529669 
L 118.712213 60.436202 
L 119.035603 60.306509 
L 119.225778 60.230241 
L 119.628502 60.068732 
L 119.939782 59.943895 
L 119.949841 59.939861 
L 120.416516 59.752705 
L 120.487562 59.724213 
L 120.947024 59.539949 
L 121.04023 59.50257 
L 121.25426 59.416735 
L 121.645383 59.259878 
L 121.852365 59.17687 
L 122.085617 59.083326 
L 122.211011 59.033038 
L 122.655552 58.854758 
L 122.92762 58.745648 
L 123.084123 58.682884 
L 123.291733 58.599624 
L 123.520106 58.508036 
L 123.784719 58.401915 
L 124.114854 58.269518 
L 124.362746 58.170103 
L 124.625571 58.064699 
L 124.756042 58.012374 
L 125.152165 57.853513 
L 125.259159 57.810604 
L 125.52022 57.705907 
L 125.782911 57.600557 
L 126.029904 57.501503 
L 126.266394 57.406661 
L 126.542219 57.296043 
L 126.740542 57.216507 
L 126.990867 57.116117 
L 127.376139 56.961606 
L 127.479115 56.920309 
L 127.870512 56.763342 
L 128.169826 56.643305 
L 128.368115 56.563783 
L 128.621246 56.462266 
L 128.772049 56.401788 
L 129.156589 56.247572 
L 129.311688 56.18537 
L 129.532779 56.096704 
L 129.773081 56.000333 
L 130.094491 55.871434 
L 130.235782 55.81477 
L 130.690208 55.632527 
L 130.746421 55.609983 
L 131.043035 55.491028 
L 131.447073 55.328992 
L 131.521093 55.299307 
L 131.717928 55.220368 
L 132.060301 55.083062 
L 132.43705 54.93197 
L 132.692717 54.829437 
L 132.722521 54.817484 
L 133.152518 54.645038 
L 133.389139 54.550143 
L 133.571972 54.476819 
L 133.921009 54.336841 
L 134.10559 54.262816 
L 134.360307 54.160664 
L 134.481795 54.111942 
L 134.878608 53.952804 
L 135.06898 53.876457 
L 135.342491 53.766767 
L 135.506298 53.701074 
L 135.885996 53.548799 
L 136.017046 53.496243 
L 136.421134 53.334187 
L 136.518476 53.295149 
L 136.908939 53.138556 
L 136.986757 53.107348 
L 137.279507 52.989943 
L 137.531182 52.889011 
L 137.920822 52.732749 
L 137.963101 52.715794 
L 138.283645 52.587242 
L 138.595728 52.462084 
L 138.863766 52.354589 
L 138.969821 52.312057 
L 139.280676 52.187391 
L 139.567552 52.072342 
L 139.711039 52.014797 
L 140.157755 51.835646 
L 140.32192 51.769809 
L 140.520726 51.69008 
L 140.818486 51.570665 
L 140.966289 51.51139 
L 141.336566 51.362893 
" style="fill:none;stroke:#ff0000;stroke-linecap:square;stroke-width:2;"/>
   </g>
   <g id="line2d_2">
    <path clip-path="url(#p2e892e92e7)" d="M 142.172861 51.027504 
L 142.444976 50.918375 
L 142.536051 50.88185 
L 142.917327 50.728942 
L 142.974155 50.706152 
L 143.430554 50.523117 
L 143.460581 50.511075 
L 143.757986 50.391803 
L 143.967731 50.307687 
L 144.246895 50.19573 
L 144.691748 50.017326 
L 144.734644 50.000122 
L 145.101765 49.852892 
L 145.400066 49.733261 
L 145.5955 49.654884 
L 145.931667 49.520067 
L 146.052472 49.471619 
L 146.250901 49.39204 
L 146.627653 49.240947 
L 146.958484 49.10827 
L 147.136328 49.036947 
L 147.320517 48.96308 
L 147.584736 48.857117 
L 147.938983 48.715049 
L 148.09389 48.652925 
L 148.294853 48.57233 
L 148.641475 48.433321 
L 148.821233 48.36123 
L 149.113309 48.244095 
L 149.446371 48.110524 
L 149.706504 48.006199 
L 149.805355 47.966556 
L 150.13 47.83636 
L 150.348856 47.748589 
L 150.666738 47.621106 
L 150.75909 47.584069 
L 151.111319 47.44281 
L 151.410181 47.322954 
L 151.589317 47.251113 
L 151.947273 47.107558 
L 152.04599 47.067968 
L 152.224518 46.996371 
L 152.521178 46.877398 
L 152.714137 46.800013 
L 153.105373 46.643112 
L 153.327739 46.553934 
L 153.669128 46.417022 
L 153.762037 46.379762 
L 154.066475 46.257669 
L 154.247346 46.185133 
L 154.61609 46.037251 
L 154.904364 45.921641 
L 155.036166 45.868783 
L 155.435358 45.70869 
L 155.526862 45.671994 
L 155.83746 45.547431 
L 156.175679 45.411791 
L 156.458349 45.298429 
L 156.594874 45.243676 
L 156.898363 45.121965 
L 157.154143 45.019386 
L 157.270766 44.972615 
L 157.466503 44.894117 
L 157.933562 44.706806 
L 158.058604 44.65666 
L 158.307656 44.556779 
L 158.707946 44.396246 
L 158.766656 44.372701 
L 159.116373 44.23245 
L 159.360228 44.134654 
L 159.564798 44.052613 
L 159.720922 43.990001 
L 159.982587 43.885062 
L 160.320743 43.749447 
L 160.549905 43.657544 
L 160.901272 43.516631 
L 161.001225 43.476546 
L 161.433197 43.303307 
L 161.54011 43.260431 
L 161.722127 43.187434 
L 162.058804 43.052413 
L 162.402189 42.914701 
L 162.678924 42.803719 
L 162.839086 42.739487 
L 163.030067 42.662896 
L 163.21869 42.58725 
L 163.480515 42.482247 
L 163.923173 42.304723 
L 163.988099 42.278685 
L 164.343967 42.135967 
" style="fill:none;stroke:#ff0000;stroke-linecap:square;stroke-width:2;"/>
   </g>
   <g id="line2d_3">
    <path clip-path="url(#p2e892e92e7)" d="M 313.663687 60.671314 
L 388.323547 30.729599 
L 388.323547 30.729599 
" style="fill:none;stroke:#ff0000;stroke-linecap:square;stroke-width:2;"/>
   </g>
   <g id="line2d_4">
    <path clip-path="url(#p2e892e92e7)" d="M 438.096787 73.503478 
L 512.756647 43.561763 
L 512.756647 43.561763 
" style="fill:none;stroke:#ff0000;stroke-linecap:square;stroke-width:2;"/>
   </g>
   <g id="line2d_5">
    <path clip-path="url(#p2e892e92e7)" d="M 15.024247 86.335641 
L 39.910867 29.303803 
L 39.910867 29.303803 
" style="fill:none;stroke:#cbff00;stroke-linecap:square;stroke-width:2;"/>
   </g>
   <g id="line2d_6">
    <path clip-path="url(#p2e892e92e7)" d="M 239.003827 74.929273 
L 263.890447 17.897436 
L 263.890447 17.897436 
" style="fill:none;stroke:#cbff00;stroke-linecap:square;stroke-width:2;"/>
   </g>
   <g id="line2d_7">
    <path clip-path="url(#p2e892e92e7)" d="M 263.890447 17.897436 
L 288.777067 54.96813 
L 288.777067 54.96813 
" style="fill:none;stroke:#00ff66;stroke-linecap:square;stroke-width:2;"/>
   </g>
   <g id="line2d_8">
    <path clip-path="url(#p2e892e92e7)" d="M 537.643267 49.264947 
L 562.529887 86.335641 
L 562.529887 86.335641 
" style="fill:none;stroke:#00ff66;stroke-linecap:square;stroke-width:2;"/>
   </g>
   <g id="line2d_9">
    <path clip-path="url(#p2e892e92e7)" d="M 64.797487 35.006987 
L 89.684107 56.393926 
L 89.684107 56.393926 
" style="fill:none;stroke:#0066ff;stroke-linecap:square;stroke-width:2;"/>
   </g>
   <g id="line2d_10">
    <path clip-path="url(#p2e892e92e7)" d="M 189.230587 47.839151 
L 214.117207 69.22609 
L 214.117207 69.22609 
" style="fill:none;stroke:#0066ff;stroke-linecap:square;stroke-width:2;"/>
   </g>
   <g id="line2d_11">
    <path clip-path="url(#p2e892e92e7)" d="M 388.323547 30.729599 
L 438.096787 73.503478 
L 438.096787 73.503478 
" style="fill:none;stroke:#0066ff;stroke-linecap:square;stroke-width:2;"/>
   </g>
   <g id="line2d_12">
    <path clip-path="url(#p2e892e92e7)" d="M 39.910867 29.303803 
L 64.797487 35.006987 
L 64.797487 35.006987 
" style="fill:none;stroke:#cc00ff;stroke-linecap:square;stroke-width:2;"/>
   </g>
   <g id="line2d_13">
    <path clip-path="url(#p2e892e92e7)" d="M 89.684107 56.393926 
L 114.570727 62.09711 
L 114.570727 62.09711 
" style="fill:none;stroke:#cc00ff;stroke-linecap:square;stroke-width:2;"/>
   </g>
   <g id="line2d_14">
    <path clip-path="url(#p2e892e92e7)" d="M 164.343967 42.135967 
L 189.230587 47.839151 
L 189.230587 47.839151 
" style="fill:none;stroke:#cc00ff;stroke-linecap:square;stroke-width:2;"/>
   </g>
   <g id="line2d_15">
    <path clip-path="url(#p2e892e92e7)" d="M 214.117207 69.22609 
L 239.003827 74.929273 
L 239.003827 74.929273 
" style="fill:none;stroke:#cc00ff;stroke-linecap:square;stroke-width:2;"/>
   </g>
   <g id="line2d_16">
    <path clip-path="url(#p2e892e92e7)" d="M 288.777067 54.96813 
L 313.663687 60.671314 
L 313.663687 60.671314 
" style="fill:none;stroke:#cc00ff;stroke-linecap:square;stroke-width:2;"/>
   </g>
   <g id="line2d_17">
    <path clip-path="url(#p2e892e92e7)" d="M 512.756647 43.561763 
L 537.643267 49.264947 
L 537.643267 49.264947 
" style="fill:none;stroke:#cc00ff;stroke-linecap:square;stroke-width:2;"/>
   </g>
   <g id="matplotlib.axis_1">
    <g id="xtick_1">
     <g id="line2d_18">
      <path clip-path="url(#p2e892e92e7)" d="M 15.024247 87.704405 
L 15.024247 16.528672 
" style="fill:none;stroke:#000000;stroke-dasharray:0.5,0.825;stroke-dashoffset:0;stroke-width:0.5;"/>
     </g>
     <g id="line2d_19">
      <defs>
       <path d="M 0 0 
L 0 3.5 
" id="mac2023adb2" style="stroke:#000000;stroke-width:0.8;"/>
      </defs>
      <g>
       <use style="stroke:#000000;stroke-width:0.8;" x="15.024247" xlink:href="#mac2023adb2" y="86.335641"/>
      </g>
     </g>
    </g>
    <g id="xtick_2">
     <g id="line2d_20">
      <path clip-path="url(#p2e892e92e7)" d="M 263.890447 87.704405 
L 263.890447 16.528672 
" style="fill:none;stroke:#000000;stroke-dasharray:0.5,0.825;stroke-dashoffset:0;stroke-width:0.5;"/>
     </g>
     <g id="line2d_21">
      <g>
       <use style="stroke:#000000;stroke-width:0.8;" x="263.890447" xlink:href="#mac2023adb2" y="86.335641"/>
      </g>
     </g>
     <g id="text_1">
      <!-- $f$ -->
      <defs>
       <path d="M 9.71875 -16.5 
Q 11.578125 -17.921875 14.203125 -17.921875 
Q 17.78125 -17.921875 20.015625 -10.015625 
Q 20.953125 -6.203125 25.09375 15.09375 
L 29.6875 39.59375 
L 21.09375 39.59375 
Q 20.125 39.59375 20.125 40.921875 
Q 20.515625 43.109375 21.390625 43.109375 
L 30.328125 43.109375 
L 31.5 49.609375 
Q 32.078125 52.640625 32.5625 54.8125 
Q 33.0625 56.984375 33.625 58.828125 
Q 34.1875 60.6875 35.296875 62.984375 
Q 37.015625 66.265625 39.921875 68.390625 
Q 42.828125 70.515625 46.1875 70.515625 
Q 48.390625 70.515625 50.46875 69.703125 
Q 52.546875 68.890625 53.859375 67.28125 
Q 55.171875 65.671875 55.171875 63.484375 
Q 55.171875 60.9375 53.484375 59.046875 
Q 51.8125 57.171875 49.421875 57.171875 
Q 47.796875 57.171875 46.65625 58.171875 
Q 45.515625 59.1875 45.515625 60.796875 
Q 45.515625 62.984375 47 64.625 
Q 48.484375 66.265625 50.6875 66.5 
Q 48.828125 67.921875 46.09375 67.921875 
Q 44.578125 67.921875 43.234375 66.5 
Q 41.890625 65.09375 41.5 63.484375 
Q 40.875 60.9375 38.71875 49.703125 
L 37.5 43.109375 
L 47.796875 43.109375 
Q 48.78125 43.109375 48.78125 41.796875 
Q 48.734375 41.546875 48.578125 40.9375 
Q 48.4375 40.328125 48.171875 39.953125 
Q 47.90625 39.59375 47.515625 39.59375 
L 36.8125 39.59375 
L 32.171875 15.1875 
Q 31.296875 9.859375 30.140625 4.359375 
Q 29 -1.125 26.921875 -6.90625 
Q 24.859375 -12.703125 21.625 -16.609375 
Q 18.40625 -20.515625 14.015625 -20.515625 
Q 10.640625 -20.515625 7.984375 -18.578125 
Q 5.328125 -16.65625 5.328125 -13.484375 
Q 5.328125 -10.9375 6.953125 -9.046875 
Q 8.59375 -7.171875 11.078125 -7.171875 
Q 12.75 -7.171875 13.859375 -8.171875 
Q 14.984375 -9.1875 14.984375 -10.796875 
Q 14.984375 -12.9375 13.390625 -14.71875 
Q 11.8125 -16.5 9.71875 -16.5 
z
" id="Cmmi10-66"/>
      </defs>
      <g transform="translate(261.440447 100.913766)scale(0.1 -0.1)">
       <use transform="translate(0 0.484375)" xlink:href="#Cmmi10-66"/>
      </g>
     </g>
    </g>
    <g id="xtick_3">
     <g id="line2d_22">
      <path clip-path="url(#p2e892e92e7)" d="M 562.529887 87.704405 
L 562.529887 16.528672 
" style="fill:none;stroke:#000000;stroke-dasharray:0.5,0.825;stroke-dashoffset:0;stroke-width:0.5;"/>
     </g>
     <g id="line2d_23">
      <g>
       <use style="stroke:#000000;stroke-width:0.8;" x="562.529887" xlink:href="#mac2023adb2" y="86.335641"/>
      </g>
     </g>
     <g id="text_2">
      <!-- $1$ -->
      <defs>
       <path d="M 9.28125 0 
L 9.28125 3.515625 
Q 21.78125 3.515625 21.78125 6.6875 
L 21.78125 59.1875 
Q 16.609375 56.6875 8.6875 56.6875 
L 8.6875 60.203125 
Q 20.953125 60.203125 27.203125 66.609375 
L 28.609375 66.609375 
Q 28.953125 66.609375 29.265625 66.328125 
Q 29.59375 66.0625 29.59375 65.71875 
L 29.59375 6.6875 
Q 29.59375 3.515625 42.09375 3.515625 
L 42.09375 0 
z
" id="Cmr10-31"/>
      </defs>
      <g transform="translate(560.029887 100.934078)scale(0.1 -0.1)">
       <use transform="translate(0 0.390625)" xlink:href="#Cmr10-31"/>
      </g>
     </g>
    </g>
   </g>
   <g id="matplotlib.axis_2">
    <g id="ytick_1">
     <g id="line2d_24">
      <path clip-path="url(#p2e892e92e7)" d="M 4.074135 86.335641 
L 573.48 86.335641 
" style="fill:none;stroke:#000000;stroke-dasharray:0.5,0.825;stroke-dashoffset:0;stroke-width:0.5;"/>
     </g>
     <g id="line2d_25">
      <defs>
       <path d="M 0 0 
L -3.5 0 
" id="m45eafb3871" style="stroke:#000000;stroke-width:0.8;"/>
      </defs>
      <g>
       <use style="stroke:#000000;stroke-width:0.8;" x="15.024247" xlink:href="#m45eafb3871" y="86.335641"/>
      </g>
     </g>
    </g>
    <g id="ytick_2">
     <g id="line2d_26">
      <path clip-path="url(#p2e892e92e7)" d="M 4.074135 17.897436 
L 573.48 17.897436 
" style="fill:none;stroke:#000000;stroke-dasharray:0.5,0.825;stroke-dashoffset:0;stroke-width:0.5;"/>
     </g>
     <g id="line2d_27">
      <g>
       <use style="stroke:#000000;stroke-width:0.8;" x="15.024247" xlink:href="#m45eafb3871" y="17.897436"/>
      </g>
     </g>
     <g id="text_3">
      <!-- $1$ -->
      <g transform="translate(3.024247 21.696655)scale(0.1 -0.1)">
       <use transform="translate(0 0.390625)" xlink:href="#Cmr10-31"/>
      </g>
     </g>
    </g>
   </g>
   <g id="patch_3">
    <path d="M 15.024247 87.704405 
L 15.024247 16.528672 
" style="fill:none;stroke:#000000;stroke-linecap:square;stroke-linejoin:miter;stroke-width:0.8;"/>
   </g>
   <g id="patch_4">
    <path d="M 4.074135 86.335641 
L 573.48 86.335641 
" style="fill:none;stroke:#000000;stroke-linecap:square;stroke-linejoin:miter;stroke-width:0.8;"/>
   </g>
  </g>
 </g>
 <defs>
  <clipPath id="p2e892e92e7">
   <rect height="71.175733" width="569.405865" x="4.074135" y="16.528672"/>
  </clipPath>
 </defs>
</svg>
