<?xml version="1.0" encoding="utf-8" standalone="no"?>
<!DOCTYPE svg PUBLIC "-//W3C//DTD SVG 1.1//EN"
  "http://www.w3.org/Graphics/SVG/1.1/DTD/svg11.dtd">
<!-- Created with matplotlib (http://matplotlib.org/) -->
<svg height="108pt" version="1.1" viewBox="0 0 576 108" width="576pt" xmlns="http://www.w3.org/2000/svg" xmlns:xlink="http://www.w3.org/1999/xlink">
 <defs>
  <style type="text/css">
*{stroke-linecap:butt;stroke-linejoin:round;}
  </style>
 </defs>
 <g id="figure_1">
  <g id="patch_1">
   <path d="M 0 108 
L 576 108 
L 576 0 
L 0 0 
z
" style="fill:#ffffff;"/>
  </g>
  <g id="axes_1">
   <g id="patch_2">
    <path d="M 4.074135 87.704405 
L 573.48 87.704405 
L 573.48 16.528672 
L 4.074135 16.528672 
z
" style="fill:#ffffff;"/>
   </g>
   <g id="line2d_1">
    <path clip-path="url(#p5021237fde)" d="M 15.024247 86.335641 
L 16.462597 85.271002 
L 16.462597 85.271002 
" style="fill:none;stroke:#0000ff;stroke-linecap:square;"/>
   </g>
   <g id="line2d_2">
    <path clip-path="url(#p5021237fde)" d="M 16.462597 85.271002 
L 16.484853 85.279348 
L 16.484853 85.279348 
" style="fill:none;stroke:#0000ff;stroke-linecap:square;"/>
   </g>
   <g id="line2d_3">
    <path clip-path="url(#p5021237fde)" d="M 16.484853 85.279348 
L 17.923202 84.214708 
L 17.923202 84.214708 
" style="fill:none;stroke:#0000ff;stroke-linecap:square;"/>
   </g>
   <g id="line2d_4">
    <path clip-path="url(#p5021237fde)" d="M 17.923202 84.214708 
L 18.012226 84.248092 
L 18.012226 84.248092 
" style="fill:none;stroke:#0000ff;stroke-linecap:square;"/>
   </g>
   <g id="line2d_5">
    <path clip-path="url(#p5021237fde)" d="M 18.012226 84.248092 
L 19.450575 83.183453 
L 19.450575 83.183453 
" style="fill:none;stroke:#0000ff;stroke-linecap:square;"/>
   </g>
   <g id="line2d_6">
    <path clip-path="url(#p5021237fde)" d="M 19.450575 83.183453 
L 19.472831 83.191799 
L 19.472831 83.191799 
" style="fill:none;stroke:#0000ff;stroke-linecap:square;"/>
   </g>
   <g id="line2d_7">
    <path clip-path="url(#p5021237fde)" d="M 19.472831 83.191799 
L 20.911181 82.127159 
L 20.911181 82.127159 
" style="fill:none;stroke:#0000ff;stroke-linecap:square;"/>
   </g>
   <g id="line2d_8">
    <path clip-path="url(#p5021237fde)" d="M 20.911181 82.127159 
L 21.267273 82.260694 
L 21.267273 82.260694 
" style="fill:none;stroke:#0000ff;stroke-linecap:square;"/>
   </g>
   <g id="line2d_9">
    <path clip-path="url(#p5021237fde)" d="M 21.267273 82.260694 
L 22.705623 81.196055 
L 22.705623 81.196055 
" style="fill:none;stroke:#0000ff;stroke-linecap:square;"/>
   </g>
   <g id="line2d_10">
    <path clip-path="url(#p5021237fde)" d="M 22.705623 81.196055 
L 22.727879 81.2044 
L 22.727879 81.2044 
" style="fill:none;stroke:#0000ff;stroke-linecap:square;"/>
   </g>
   <g id="line2d_11">
    <path clip-path="url(#p5021237fde)" d="M 22.727879 81.2044 
L 24.166228 80.139761 
L 24.166228 80.139761 
" style="fill:none;stroke:#0000ff;stroke-linecap:square;"/>
   </g>
   <g id="line2d_12">
    <path clip-path="url(#p5021237fde)" d="M 24.166228 80.139761 
L 24.255251 80.173145 
L 24.255251 80.173145 
" style="fill:none;stroke:#0000ff;stroke-linecap:square;"/>
   </g>
   <g id="line2d_13">
    <path clip-path="url(#p5021237fde)" d="M 24.255251 80.173145 
L 25.693601 79.108506 
L 25.693601 79.108506 
" style="fill:none;stroke:#0000ff;stroke-linecap:square;"/>
   </g>
   <g id="line2d_14">
    <path clip-path="url(#p5021237fde)" d="M 25.693601 79.108506 
L 25.715857 79.116851 
L 25.715857 79.116851 
" style="fill:none;stroke:#0000ff;stroke-linecap:square;"/>
   </g>
   <g id="line2d_15">
    <path clip-path="url(#p5021237fde)" d="M 25.715857 79.116851 
L 27.154206 78.052212 
L 27.154206 78.052212 
" style="fill:none;stroke:#0000ff;stroke-linecap:square;"/>
   </g>
   <g id="line2d_16">
    <path clip-path="url(#p5021237fde)" d="M 27.154206 78.052212 
L 28.578576 78.586351 
L 28.578576 78.586351 
" style="fill:none;stroke:#0000ff;stroke-linecap:square;"/>
   </g>
   <g id="line2d_17">
    <path clip-path="url(#p5021237fde)" d="M 28.578576 78.586351 
L 30.016926 77.521712 
L 30.016926 77.521712 
" style="fill:none;stroke:#0000ff;stroke-linecap:square;"/>
   </g>
   <g id="line2d_18">
    <path clip-path="url(#p5021237fde)" d="M 30.016926 77.521712 
L 30.039182 77.530058 
L 30.039182 77.530058 
" style="fill:none;stroke:#0000ff;stroke-linecap:square;"/>
   </g>
   <g id="line2d_19">
    <path clip-path="url(#p5021237fde)" d="M 30.039182 77.530058 
L 31.477532 76.465418 
L 31.477532 76.465418 
" style="fill:none;stroke:#0000ff;stroke-linecap:square;"/>
   </g>
   <g id="line2d_20">
    <path clip-path="url(#p5021237fde)" d="M 31.477532 76.465418 
L 31.566555 76.498802 
L 31.566555 76.498802 
" style="fill:none;stroke:#0000ff;stroke-linecap:square;"/>
   </g>
   <g id="line2d_21">
    <path clip-path="url(#p5021237fde)" d="M 31.566555 76.498802 
L 33.004904 75.434163 
L 33.004904 75.434163 
" style="fill:none;stroke:#0000ff;stroke-linecap:square;"/>
   </g>
   <g id="line2d_22">
    <path clip-path="url(#p5021237fde)" d="M 33.004904 75.434163 
L 33.02716 75.442508 
L 33.02716 75.442508 
" style="fill:none;stroke:#0000ff;stroke-linecap:square;"/>
   </g>
   <g id="line2d_23">
    <path clip-path="url(#p5021237fde)" d="M 33.02716 75.442508 
L 34.46551 74.377869 
L 34.46551 74.377869 
" style="fill:none;stroke:#0000ff;stroke-linecap:square;"/>
   </g>
   <g id="line2d_24">
    <path clip-path="url(#p5021237fde)" d="M 34.46551 74.377869 
L 34.821602 74.511404 
L 34.821602 74.511404 
" style="fill:none;stroke:#0000ff;stroke-linecap:square;"/>
   </g>
   <g id="line2d_25">
    <path clip-path="url(#p5021237fde)" d="M 34.821602 74.511404 
L 36.259952 73.446765 
L 36.259952 73.446765 
" style="fill:none;stroke:#0000ff;stroke-linecap:square;"/>
   </g>
   <g id="line2d_26">
    <path clip-path="url(#p5021237fde)" d="M 36.259952 73.446765 
L 36.282208 73.45511 
L 36.282208 73.45511 
" style="fill:none;stroke:#0000ff;stroke-linecap:square;"/>
   </g>
   <g id="line2d_27">
    <path clip-path="url(#p5021237fde)" d="M 36.282208 73.45511 
L 37.720557 72.390471 
L 37.720557 72.390471 
" style="fill:none;stroke:#0000ff;stroke-linecap:square;"/>
   </g>
   <g id="line2d_28">
    <path clip-path="url(#p5021237fde)" d="M 37.720557 72.390471 
L 37.80958 72.423855 
L 37.80958 72.423855 
" style="fill:none;stroke:#0000ff;stroke-linecap:square;"/>
   </g>
   <g id="line2d_29">
    <path clip-path="url(#p5021237fde)" d="M 37.80958 72.423855 
L 37.81733 72.418119 
L 37.820764 72.415577 
L 37.829632 72.409013 
L 37.838321 72.402582 
L 37.849216 72.394517 
L 37.853867 72.391074 
L 37.859913 72.386599 
L 37.864787 72.382992 
L 37.878175 72.373082 
L 37.880448 72.3714 
L 37.886898 72.366626 
L 37.895786 72.360047 
L 37.901486 72.355828 
L 37.91335 72.347046 
L 37.917287 72.344133 
L 37.924875 72.338516 
L 37.935434 72.3307 
L 37.940997 72.326583 
L 37.950381 72.319637 
L 37.953097 72.317626 
L 37.960585 72.312084 
L 37.970047 72.305081 
L 37.977826 72.299323 
L 37.980039 72.297685 
L 37.990176 72.290181 
L 38.000476 72.282557 
L 38.008296 72.276769 
L 38.011449 72.274436 
L 38.015969 72.27109 
L 38.024942 72.264448 
L 38.03074 72.260157 
L 38.040244 72.253122 
L 38.045006 72.249597 
L 38.052705 72.243899 
L 38.06036 72.238233 
L 38.066624 72.233596 
L 38.078123 72.225085 
L 38.085719 72.219462 
L 38.093237 72.213897 
L 38.100071 72.208839 
L 38.105956 72.204483 
L 38.11405 72.198492 
L 38.117593 72.195869 
L 38.130929 72.185999 
L 38.132996 72.184469 
L 38.145296 72.175364 
L 38.150408 72.171581 
L 38.154684 72.168415 
L 38.162006 72.162996 
L 38.167793 72.158712 
L 38.174877 72.153469 
L 38.183171 72.14733 
L 38.194072 72.139262 
L 38.198205 72.136203 
L 38.208291 72.128737 
L 38.216146 72.122923 
L 38.218712 72.121024 
L 38.229796 72.112819 
L 38.232682 72.110683 
L 38.244646 72.101827 
L 38.251112 72.097042 
L 38.260213 72.090305 
L 38.264764 72.086936 
L 38.269836 72.083183 
L 38.278963 72.076426 
L 38.288263 72.069543 
L 38.290673 72.067759 
L 38.302264 72.05918 
L 38.306269 72.056215 
L 38.314098 72.05042 
L 38.321681 72.044808 
L 38.330428 72.038333 
L 38.338088 72.032663 
L 38.341175 72.030378 
L 38.348812 72.024726 
L 38.355452 72.019811 
L 38.368938 72.009829 
L 38.376018 72.004589 
L 38.38234 71.999909 
L 38.388414 71.995413 
L 38.397265 71.988861 
L 38.404641 71.983402 
L 38.408208 71.980762 
L 38.415259 71.975543 
L 38.42218 71.97042 
L 38.429449 71.96504 
L 38.435615 71.960476 
L 38.442662 71.95526 
L 38.45172 71.948555 
L 38.462089 71.94088 
L 38.469099 71.935692 
L 38.477276 71.929639 
L 38.48325 71.925217 
L 38.490303 71.919997 
L 38.494685 71.916753 
L 38.499873 71.912913 
L 38.512498 71.903568 
L 38.514324 71.902217 
L 38.523088 71.89573 
L 38.532319 71.888897 
L 38.536981 71.885446 
L 38.549115 71.876465 
L 38.552933 71.87364 
L 38.561313 71.867436 
L 38.566999 71.863228 
L 38.576295 71.856347 
L 38.582144 71.852018 
L 38.592214 71.844564 
L 38.5981 71.840207 
L 38.601725 71.837524 
L 38.613173 71.829051 
" style="fill:none;stroke:#0000ff;stroke-linecap:square;"/>
   </g>
   <g id="line2d_30">
    <path clip-path="url(#p5021237fde)" d="M 38.633899 71.813709 
L 38.641878 71.807803 
L 38.649419 71.802222 
L 38.651816 71.800448 
L 38.664463 71.791087 
L 38.669785 71.787148 
L 38.67855 71.78066 
L 38.686267 71.774948 
L 38.691529 71.771053 
L 38.697894 71.766342 
L 38.705563 71.760666 
L 38.71219 71.75576 
L 38.719706 71.750197 
L 38.727626 71.744335 
L 38.7362 71.737988 
L 38.745335 71.731227 
L 38.750499 71.727405 
L 38.753505 71.725179 
L 38.761101 71.719557 
L 38.767857 71.714556 
L 38.777338 71.707539 
L 38.788484 71.699288 
L 38.795792 71.693879 
L 38.802648 71.688805 
L 38.807327 71.685342 
L 38.815717 71.679132 
L 38.821745 71.67467 
L 38.828277 71.669835 
L 38.836797 71.663528 
L 38.844617 71.65774 
L 38.848248 71.655053 
L 38.854361 71.650528 
L 38.861646 71.645135 
L 38.868516 71.64005 
L 38.880816 71.630946 
L 38.889494 71.624523 
L 38.894653 71.620704 
L 38.898392 71.617937 
L 38.905532 71.612652 
L 38.916394 71.604612 
L 38.920429 71.601625 
L 38.927239 71.596585 
L 38.940456 71.586802 
L 38.944135 71.584079 
L 38.950421 71.579426 
L 38.961111 71.571514 
L 38.96797 71.566436 
L 38.97429 71.561758 
L 38.983707 71.554788 
L 38.990872 71.549485 
L 38.994011 71.547162 
L 38.999065 71.54342 
L 39.010591 71.534889 
L 39.017973 71.529425 
L 39.022757 71.525884 
L 39.030474 71.520172 
L 39.041884 71.511727 
L 39.045762 71.508857 
L 39.050694 71.505206 
L 39.05993 71.49837 
L 39.070483 71.490558 
L 39.076587 71.48604 
L 39.083832 71.480678 
L 39.086584 71.47864 
L 39.094882 71.472499 
L 39.106523 71.463882 
L 39.108237 71.462613 
L 39.116253 71.45668 
L 39.123292 71.451471 
L 39.13327 71.444085 
L 39.139024 71.439826 
L 39.149498 71.432073 
L 39.155494 71.427635 
L 39.160106 71.424222 
L 39.167889 71.41846 
L 39.17373 71.414137 
L 39.18542 71.405484 
L 39.192464 71.400271 
L 39.196729 71.397113 
L 39.201355 71.39369 
L 39.21507 71.383538 
L 39.222628 71.377944 
L 39.224595 71.376487 
L 39.235868 71.368143 
L 39.238136 71.366465 
L 39.24793 71.359215 
" style="fill:none;stroke:#0000ff;stroke-linecap:square;"/>
   </g>
   <g id="line2d_31">
    <path clip-path="url(#p5021237fde)" d="M 39.24793 71.359215 
L 39.270186 71.367561 
L 39.270186 71.367561 
" style="fill:none;stroke:#0000ff;stroke-linecap:square;"/>
   </g>
   <g id="line2d_32">
    <path clip-path="url(#p5021237fde)" d="M 39.270186 71.367561 
L 40.708535 70.302922 
L 40.708535 70.302922 
" style="fill:none;stroke:#0000ff;stroke-linecap:square;"/>
   </g>
   <g id="line2d_33">
    <path clip-path="url(#p5021237fde)" d="M 40.708535 70.302922 
L 46.406016 72.439477 
L 46.406016 72.439477 
" style="fill:none;stroke:#0000ff;stroke-linecap:square;"/>
   </g>
   <g id="line2d_34">
    <path clip-path="url(#p5021237fde)" d="M 46.406016 72.439477 
L 47.844366 71.374838 
L 47.844366 71.374838 
" style="fill:none;stroke:#0000ff;stroke-linecap:square;"/>
   </g>
   <g id="line2d_35">
    <path clip-path="url(#p5021237fde)" d="M 47.844366 71.374838 
L 47.866621 71.383184 
L 47.866621 71.383184 
" style="fill:none;stroke:#0000ff;stroke-linecap:square;"/>
   </g>
   <g id="line2d_36">
    <path clip-path="url(#p5021237fde)" d="M 47.866621 71.383184 
L 49.304971 70.318545 
L 49.304971 70.318545 
" style="fill:none;stroke:#0000ff;stroke-linecap:square;"/>
   </g>
   <g id="line2d_37">
    <path clip-path="url(#p5021237fde)" d="M 49.304971 70.318545 
L 49.393994 70.351928 
L 49.393994 70.351928 
" style="fill:none;stroke:#0000ff;stroke-linecap:square;"/>
   </g>
   <g id="line2d_38">
    <path clip-path="url(#p5021237fde)" d="M 49.393994 70.351928 
L 50.832344 69.287289 
L 50.832344 69.287289 
" style="fill:none;stroke:#0000ff;stroke-linecap:square;"/>
   </g>
   <g id="line2d_39">
    <path clip-path="url(#p5021237fde)" d="M 50.832344 69.287289 
L 50.8546 69.295635 
L 50.8546 69.295635 
" style="fill:none;stroke:#0000ff;stroke-linecap:square;"/>
   </g>
   <g id="line2d_40">
    <path clip-path="url(#p5021237fde)" d="M 50.8546 69.295635 
L 52.292949 68.230996 
L 52.292949 68.230996 
" style="fill:none;stroke:#0000ff;stroke-linecap:square;"/>
   </g>
   <g id="line2d_41">
    <path clip-path="url(#p5021237fde)" d="M 52.292949 68.230996 
L 52.649042 68.36453 
L 52.649042 68.36453 
" style="fill:none;stroke:#0000ff;stroke-linecap:square;"/>
   </g>
   <g id="line2d_42">
    <path clip-path="url(#p5021237fde)" d="M 52.649042 68.36453 
L 54.087391 67.299891 
L 54.087391 67.299891 
" style="fill:none;stroke:#0000ff;stroke-linecap:square;"/>
   </g>
   <g id="line2d_43">
    <path clip-path="url(#p5021237fde)" d="M 54.087391 67.299891 
L 54.109647 67.308237 
L 54.109647 67.308237 
" style="fill:none;stroke:#0000ff;stroke-linecap:square;"/>
   </g>
   <g id="line2d_44">
    <path clip-path="url(#p5021237fde)" d="M 54.109647 67.308237 
L 55.547997 66.243598 
L 55.547997 66.243598 
" style="fill:none;stroke:#0000ff;stroke-linecap:square;"/>
   </g>
   <g id="line2d_45">
    <path clip-path="url(#p5021237fde)" d="M 55.547997 66.243598 
L 55.63702 66.276981 
L 55.63702 66.276981 
" style="fill:none;stroke:#0000ff;stroke-linecap:square;"/>
   </g>
   <g id="line2d_46">
    <path clip-path="url(#p5021237fde)" d="M 55.63702 66.276981 
L 57.07537 65.212342 
L 57.07537 65.212342 
" style="fill:none;stroke:#0000ff;stroke-linecap:square;"/>
   </g>
   <g id="line2d_47">
    <path clip-path="url(#p5021237fde)" d="M 57.07537 65.212342 
L 57.097625 65.220688 
L 57.097625 65.220688 
" style="fill:none;stroke:#0000ff;stroke-linecap:square;"/>
   </g>
   <g id="line2d_48">
    <path clip-path="url(#p5021237fde)" d="M 57.097625 65.220688 
L 58.535975 64.156048 
L 58.535975 64.156048 
" style="fill:none;stroke:#0000ff;stroke-linecap:square;"/>
   </g>
   <g id="line2d_49">
    <path clip-path="url(#p5021237fde)" d="M 58.535975 64.156048 
L 59.960345 64.690187 
L 59.960345 64.690187 
" style="fill:none;stroke:#0000ff;stroke-linecap:square;"/>
   </g>
   <g id="line2d_50">
    <path clip-path="url(#p5021237fde)" d="M 59.960345 64.690187 
L 61.398695 63.625548 
L 61.398695 63.625548 
" style="fill:none;stroke:#0000ff;stroke-linecap:square;"/>
   </g>
   <g id="line2d_51">
    <path clip-path="url(#p5021237fde)" d="M 61.398695 63.625548 
L 61.42095 63.633894 
L 61.42095 63.633894 
" style="fill:none;stroke:#0000ff;stroke-linecap:square;"/>
   </g>
   <g id="line2d_52">
    <path clip-path="url(#p5021237fde)" d="M 61.42095 63.633894 
L 62.8593 62.569255 
L 62.8593 62.569255 
" style="fill:none;stroke:#0000ff;stroke-linecap:square;"/>
   </g>
   <g id="line2d_53">
    <path clip-path="url(#p5021237fde)" d="M 62.8593 62.569255 
L 62.948323 62.602638 
L 62.948323 62.602638 
" style="fill:none;stroke:#0000ff;stroke-linecap:square;"/>
   </g>
   <g id="line2d_54">
    <path clip-path="url(#p5021237fde)" d="M 62.948323 62.602638 
L 64.386673 61.537999 
L 64.386673 61.537999 
" style="fill:none;stroke:#0000ff;stroke-linecap:square;"/>
   </g>
   <g id="line2d_55">
    <path clip-path="url(#p5021237fde)" d="M 64.386673 61.537999 
L 64.403313 61.544239 
L 64.403313 61.544239 
" style="fill:none;stroke:#0000ff;stroke-linecap:square;"/>
   </g>
   <g id="line2d_56">
    <path clip-path="url(#p5021237fde)" d="M 64.403622 61.544355 
L 64.403783 61.544415 
L 64.403919 61.544466 
L 64.403954 61.544479 
L 64.404122 61.544542 
L 64.404283 61.544603 
L 64.404349 61.544627 
L 64.404471 61.544673 
L 64.404526 61.544694 
L 64.404696 61.544758 
L 64.404762 61.544782 
L 64.404856 61.544817 
L 64.404993 61.544869 
L 64.405131 61.544921 
L 64.40528 61.544977 
L 64.405396 61.54502 
L 64.405501 61.545059 
L 64.405587 61.545092 
L 64.405682 61.545127 
L 64.405792 61.545168 
L 64.405928 61.54522 
L 64.405988 61.545242 
L 64.406093 61.545281 
L 64.406206 61.545324 
L 64.406349 61.545377 
L 64.40652 61.545442 
L 64.406538 61.545448 
L 64.406699 61.545509 
L 64.40675 61.545528 
L 64.406943 61.5456 
L 64.407022 61.54563 
L 64.407106 61.545661 
L 64.407293 61.545731 
L 64.40741 61.545776 
L 64.407427 61.545782 
L 64.407543 61.545825 
L 64.407718 61.545891 
L 64.407796 61.54592 
L 64.407896 61.545958 
L 64.408025 61.546006 
L 64.408192 61.546069 
L 64.408271 61.546098 
L 64.408319 61.546116 
L 64.408483 61.546178 
L 64.408554 61.546204 
L 64.408652 61.546241 
L 64.408787 61.546292 
L 64.408929 61.546345 
" style="fill:none;stroke:#0000ff;stroke-linecap:square;"/>
   </g>
   <g id="line2d_57">
    <path clip-path="url(#p5021237fde)" d="M 64.408929 61.546345 
L 65.847278 60.481706 
L 65.847278 60.481706 
" style="fill:none;stroke:#0000ff;stroke-linecap:square;"/>
   </g>
   <g id="line2d_58">
    <path clip-path="url(#p5021237fde)" d="M 65.847278 60.481706 
L 66.203371 60.61524 
L 66.203371 60.61524 
" style="fill:none;stroke:#0000ff;stroke-linecap:square;"/>
   </g>
   <g id="line2d_59">
    <path clip-path="url(#p5021237fde)" d="M 66.203371 60.61524 
L 67.64172 59.550601 
L 67.64172 59.550601 
" style="fill:none;stroke:#0000ff;stroke-linecap:square;"/>
   </g>
   <g id="line2d_60">
    <path clip-path="url(#p5021237fde)" d="M 67.64172 59.550601 
L 67.663976 59.558947 
L 67.663976 59.558947 
" style="fill:none;stroke:#0000ff;stroke-linecap:square;"/>
   </g>
   <g id="line2d_61">
    <path clip-path="url(#p5021237fde)" d="M 67.663976 59.558947 
L 69.102326 58.494307 
L 69.102326 58.494307 
" style="fill:none;stroke:#0000ff;stroke-linecap:square;"/>
   </g>
   <g id="line2d_62">
    <path clip-path="url(#p5021237fde)" d="M 69.102326 58.494307 
L 69.191349 58.527691 
L 69.191349 58.527691 
" style="fill:none;stroke:#0000ff;stroke-linecap:square;"/>
   </g>
   <g id="line2d_63">
    <path clip-path="url(#p5021237fde)" d="M 69.191349 58.527691 
L 70.629699 57.463052 
L 70.629699 57.463052 
" style="fill:none;stroke:#0000ff;stroke-linecap:square;"/>
   </g>
   <g id="line2d_64">
    <path clip-path="url(#p5021237fde)" d="M 70.629699 57.463052 
L 70.651954 57.471398 
L 70.651954 57.471398 
" style="fill:none;stroke:#0000ff;stroke-linecap:square;"/>
   </g>
   <g id="line2d_65">
    <path clip-path="url(#p5021237fde)" d="M 70.651954 57.471398 
L 72.090304 56.406758 
L 72.090304 56.406758 
" style="fill:none;stroke:#0000ff;stroke-linecap:square;"/>
   </g>
   <g id="line2d_66">
    <path clip-path="url(#p5021237fde)" d="M 72.090304 56.406758 
L 94.880226 64.952979 
L 94.880226 64.952979 
" style="fill:none;stroke:#0000ff;stroke-linecap:square;"/>
   </g>
   <g id="line2d_67">
    <path clip-path="url(#p5021237fde)" d="M 94.880226 64.952979 
L 96.318576 63.88834 
L 96.318576 63.88834 
" style="fill:none;stroke:#0000ff;stroke-linecap:square;"/>
   </g>
   <g id="line2d_68">
    <path clip-path="url(#p5021237fde)" d="M 96.318576 63.88834 
L 96.340832 63.896686 
L 96.340832 63.896686 
" style="fill:none;stroke:#0000ff;stroke-linecap:square;"/>
   </g>
   <g id="line2d_69">
    <path clip-path="url(#p5021237fde)" d="M 96.340832 63.896686 
L 97.779181 62.832047 
L 97.779181 62.832047 
" style="fill:none;stroke:#0000ff;stroke-linecap:square;"/>
   </g>
   <g id="line2d_70">
    <path clip-path="url(#p5021237fde)" d="M 97.779181 62.832047 
L 97.868204 62.86543 
L 97.868204 62.86543 
" style="fill:none;stroke:#0000ff;stroke-linecap:square;"/>
   </g>
   <g id="line2d_71">
    <path clip-path="url(#p5021237fde)" d="M 97.868204 62.86543 
L 99.306554 61.800791 
L 99.306554 61.800791 
" style="fill:none;stroke:#0000ff;stroke-linecap:square;"/>
   </g>
   <g id="line2d_72">
    <path clip-path="url(#p5021237fde)" d="M 99.306554 61.800791 
L 99.32881 61.809137 
L 99.32881 61.809137 
" style="fill:none;stroke:#0000ff;stroke-linecap:square;"/>
   </g>
   <g id="line2d_73">
    <path clip-path="url(#p5021237fde)" d="M 99.32881 61.809137 
L 100.767159 60.744498 
L 100.767159 60.744498 
" style="fill:none;stroke:#0000ff;stroke-linecap:square;"/>
   </g>
   <g id="line2d_74">
    <path clip-path="url(#p5021237fde)" d="M 100.767159 60.744498 
L 101.123252 60.878032 
L 101.123252 60.878032 
" style="fill:none;stroke:#0000ff;stroke-linecap:square;"/>
   </g>
   <g id="line2d_75">
    <path clip-path="url(#p5021237fde)" d="M 101.123252 60.878032 
L 102.561602 59.813393 
L 102.561602 59.813393 
" style="fill:none;stroke:#0000ff;stroke-linecap:square;"/>
   </g>
   <g id="line2d_76">
    <path clip-path="url(#p5021237fde)" d="M 102.561602 59.813393 
L 102.583857 59.821739 
L 102.583857 59.821739 
" style="fill:none;stroke:#0000ff;stroke-linecap:square;"/>
   </g>
   <g id="line2d_77">
    <path clip-path="url(#p5021237fde)" d="M 102.583857 59.821739 
L 104.022207 58.757099 
L 104.022207 58.757099 
" style="fill:none;stroke:#0000ff;stroke-linecap:square;"/>
   </g>
   <g id="line2d_78">
    <path clip-path="url(#p5021237fde)" d="M 104.022207 58.757099 
L 104.11123 58.790483 
L 104.11123 58.790483 
" style="fill:none;stroke:#0000ff;stroke-linecap:square;"/>
   </g>
   <g id="line2d_79">
    <path clip-path="url(#p5021237fde)" d="M 104.11123 58.790483 
L 105.54958 57.725844 
L 105.54958 57.725844 
" style="fill:none;stroke:#0000ff;stroke-linecap:square;"/>
   </g>
   <g id="line2d_80">
    <path clip-path="url(#p5021237fde)" d="M 105.54958 57.725844 
L 105.571836 57.73419 
L 105.571836 57.73419 
" style="fill:none;stroke:#0000ff;stroke-linecap:square;"/>
   </g>
   <g id="line2d_81">
    <path clip-path="url(#p5021237fde)" d="M 105.571836 57.73419 
L 107.010185 56.66955 
L 107.010185 56.66955 
" style="fill:none;stroke:#0000ff;stroke-linecap:square;"/>
   </g>
   <g id="line2d_82">
    <path clip-path="url(#p5021237fde)" d="M 107.010185 56.66955 
L 108.434555 57.203689 
L 108.434555 57.203689 
" style="fill:none;stroke:#0000ff;stroke-linecap:square;"/>
   </g>
   <g id="line2d_83">
    <path clip-path="url(#p5021237fde)" d="M 108.434555 57.203689 
L 109.872905 56.13905 
L 109.872905 56.13905 
" style="fill:none;stroke:#0000ff;stroke-linecap:square;"/>
   </g>
   <g id="line2d_84">
    <path clip-path="url(#p5021237fde)" d="M 109.872905 56.13905 
L 109.895161 56.147396 
L 109.895161 56.147396 
" style="fill:none;stroke:#0000ff;stroke-linecap:square;"/>
   </g>
   <g id="line2d_85">
    <path clip-path="url(#p5021237fde)" d="M 109.895161 56.147396 
L 111.33351 55.082757 
L 111.33351 55.082757 
" style="fill:none;stroke:#0000ff;stroke-linecap:square;"/>
   </g>
   <g id="line2d_86">
    <path clip-path="url(#p5021237fde)" d="M 111.33351 55.082757 
L 111.422533 55.11614 
L 111.422533 55.11614 
" style="fill:none;stroke:#0000ff;stroke-linecap:square;"/>
   </g>
   <g id="line2d_87">
    <path clip-path="url(#p5021237fde)" d="M 111.422533 55.11614 
L 112.860883 54.051501 
L 112.860883 54.051501 
" style="fill:none;stroke:#0000ff;stroke-linecap:square;"/>
   </g>
   <g id="line2d_88">
    <path clip-path="url(#p5021237fde)" d="M 112.860883 54.051501 
L 112.883139 54.059847 
L 112.883139 54.059847 
" style="fill:none;stroke:#0000ff;stroke-linecap:square;"/>
   </g>
   <g id="line2d_89">
    <path clip-path="url(#p5021237fde)" d="M 112.883139 54.059847 
L 114.321489 52.995207 
L 114.321489 52.995207 
" style="fill:none;stroke:#0000ff;stroke-linecap:square;"/>
   </g>
   <g id="line2d_90">
    <path clip-path="url(#p5021237fde)" d="M 114.321489 52.995207 
L 114.677581 53.128742 
L 114.677581 53.128742 
" style="fill:none;stroke:#0000ff;stroke-linecap:square;"/>
   </g>
   <g id="line2d_91">
    <path clip-path="url(#p5021237fde)" d="M 114.677581 53.128742 
L 116.115931 52.064103 
L 116.115931 52.064103 
" style="fill:none;stroke:#0000ff;stroke-linecap:square;"/>
   </g>
   <g id="line2d_92">
    <path clip-path="url(#p5021237fde)" d="M 116.115931 52.064103 
L 116.138186 52.072449 
L 116.138186 52.072449 
" style="fill:none;stroke:#0000ff;stroke-linecap:square;"/>
   </g>
   <g id="line2d_93">
    <path clip-path="url(#p5021237fde)" d="M 116.138186 52.072449 
L 117.576536 51.007809 
L 117.576536 51.007809 
" style="fill:none;stroke:#0000ff;stroke-linecap:square;"/>
   </g>
   <g id="line2d_94">
    <path clip-path="url(#p5021237fde)" d="M 117.576536 51.007809 
L 117.665559 51.041193 
L 117.665559 51.041193 
" style="fill:none;stroke:#0000ff;stroke-linecap:square;"/>
   </g>
   <g id="line2d_95">
    <path clip-path="url(#p5021237fde)" d="M 117.665559 51.041193 
L 119.103909 49.976554 
L 119.103909 49.976554 
" style="fill:none;stroke:#0000ff;stroke-linecap:square;"/>
   </g>
   <g id="line2d_96">
    <path clip-path="url(#p5021237fde)" d="M 119.103909 49.976554 
L 119.126165 49.9849 
L 119.126165 49.9849 
" style="fill:none;stroke:#0000ff;stroke-linecap:square;"/>
   </g>
   <g id="line2d_97">
    <path clip-path="url(#p5021237fde)" d="M 119.126165 49.9849 
L 120.564514 48.92026 
L 120.564514 48.92026 
" style="fill:none;stroke:#0000ff;stroke-linecap:square;"/>
   </g>
   <g id="line2d_98">
    <path clip-path="url(#p5021237fde)" d="M 120.564514 48.92026 
L 126.261995 51.056816 
L 126.261995 51.056816 
" style="fill:none;stroke:#0000ff;stroke-linecap:square;"/>
   </g>
   <g id="line2d_99">
    <path clip-path="url(#p5021237fde)" d="M 126.261995 51.056816 
L 127.700344 49.992176 
L 127.700344 49.992176 
" style="fill:none;stroke:#0000ff;stroke-linecap:square;"/>
   </g>
   <g id="line2d_100">
    <path clip-path="url(#p5021237fde)" d="M 127.700344 49.992176 
L 127.7226 50.000522 
L 127.7226 50.000522 
" style="fill:none;stroke:#0000ff;stroke-linecap:square;"/>
   </g>
   <g id="line2d_101">
    <path clip-path="url(#p5021237fde)" d="M 127.7226 50.000522 
L 129.16095 48.935883 
L 129.16095 48.935883 
" style="fill:none;stroke:#0000ff;stroke-linecap:square;"/>
   </g>
   <g id="line2d_102">
    <path clip-path="url(#p5021237fde)" d="M 129.16095 48.935883 
L 129.249973 48.969267 
L 129.249973 48.969267 
" style="fill:none;stroke:#0000ff;stroke-linecap:square;"/>
   </g>
   <g id="line2d_103">
    <path clip-path="url(#p5021237fde)" d="M 129.249973 48.969267 
L 130.688323 47.904627 
L 130.688323 47.904627 
" style="fill:none;stroke:#0000ff;stroke-linecap:square;"/>
   </g>
   <g id="line2d_104">
    <path clip-path="url(#p5021237fde)" d="M 130.688323 47.904627 
L 130.710578 47.912973 
L 130.710578 47.912973 
" style="fill:none;stroke:#0000ff;stroke-linecap:square;"/>
   </g>
   <g id="line2d_105">
    <path clip-path="url(#p5021237fde)" d="M 130.710578 47.912973 
L 132.148928 46.848334 
L 132.148928 46.848334 
" style="fill:none;stroke:#0000ff;stroke-linecap:square;"/>
   </g>
   <g id="line2d_106">
    <path clip-path="url(#p5021237fde)" d="M 132.148928 46.848334 
L 132.505021 46.981869 
L 132.505021 46.981869 
" style="fill:none;stroke:#0000ff;stroke-linecap:square;"/>
   </g>
   <g id="line2d_107">
    <path clip-path="url(#p5021237fde)" d="M 132.505021 46.981869 
L 133.94337 45.917229 
L 133.94337 45.917229 
" style="fill:none;stroke:#0000ff;stroke-linecap:square;"/>
   </g>
   <g id="line2d_108">
    <path clip-path="url(#p5021237fde)" d="M 133.94337 45.917229 
L 133.965626 45.925575 
L 133.965626 45.925575 
" style="fill:none;stroke:#0000ff;stroke-linecap:square;"/>
   </g>
   <g id="line2d_109">
    <path clip-path="url(#p5021237fde)" d="M 133.965626 45.925575 
L 135.403976 44.860936 
L 135.403976 44.860936 
" style="fill:none;stroke:#0000ff;stroke-linecap:square;"/>
   </g>
   <g id="line2d_110">
    <path clip-path="url(#p5021237fde)" d="M 135.403976 44.860936 
L 135.492999 44.89432 
L 135.492999 44.89432 
" style="fill:none;stroke:#0000ff;stroke-linecap:square;"/>
   </g>
   <g id="line2d_111">
    <path clip-path="url(#p5021237fde)" d="M 135.492999 44.89432 
L 136.931348 43.82968 
L 136.931348 43.82968 
" style="fill:none;stroke:#0000ff;stroke-linecap:square;"/>
   </g>
   <g id="line2d_112">
    <path clip-path="url(#p5021237fde)" d="M 136.931348 43.82968 
L 136.953604 43.838026 
L 136.953604 43.838026 
" style="fill:none;stroke:#0000ff;stroke-linecap:square;"/>
   </g>
   <g id="line2d_113">
    <path clip-path="url(#p5021237fde)" d="M 136.953604 43.838026 
L 138.391954 42.773387 
L 138.391954 42.773387 
" style="fill:none;stroke:#0000ff;stroke-linecap:square;"/>
   </g>
   <g id="line2d_114">
    <path clip-path="url(#p5021237fde)" d="M 138.391954 42.773387 
L 139.816324 43.307526 
L 139.816324 43.307526 
" style="fill:none;stroke:#0000ff;stroke-linecap:square;"/>
   </g>
   <g id="line2d_115">
    <path clip-path="url(#p5021237fde)" d="M 139.816324 43.307526 
L 141.254674 42.242886 
L 141.254674 42.242886 
" style="fill:none;stroke:#0000ff;stroke-linecap:square;"/>
   </g>
   <g id="line2d_116">
    <path clip-path="url(#p5021237fde)" d="M 141.254674 42.242886 
L 141.276929 42.251232 
L 141.276929 42.251232 
" style="fill:none;stroke:#0000ff;stroke-linecap:square;"/>
   </g>
   <g id="line2d_117">
    <path clip-path="url(#p5021237fde)" d="M 141.276929 42.251232 
L 142.715279 41.186593 
L 142.715279 41.186593 
" style="fill:none;stroke:#0000ff;stroke-linecap:square;"/>
   </g>
   <g id="line2d_118">
    <path clip-path="url(#p5021237fde)" d="M 142.715279 41.186593 
L 142.804302 41.219977 
L 142.804302 41.219977 
" style="fill:none;stroke:#0000ff;stroke-linecap:square;"/>
   </g>
   <g id="line2d_119">
    <path clip-path="url(#p5021237fde)" d="M 142.804302 41.219977 
L 144.242652 40.155337 
L 144.242652 40.155337 
" style="fill:none;stroke:#0000ff;stroke-linecap:square;"/>
   </g>
   <g id="line2d_120">
    <path clip-path="url(#p5021237fde)" d="M 144.242652 40.155337 
L 144.264907 40.163683 
L 144.264907 40.163683 
" style="fill:none;stroke:#0000ff;stroke-linecap:square;"/>
   </g>
   <g id="line2d_121">
    <path clip-path="url(#p5021237fde)" d="M 144.264907 40.163683 
L 145.703257 39.099044 
L 145.703257 39.099044 
" style="fill:none;stroke:#0000ff;stroke-linecap:square;"/>
   </g>
   <g id="line2d_122">
    <path clip-path="url(#p5021237fde)" d="M 145.703257 39.099044 
L 146.05935 39.232579 
L 146.05935 39.232579 
" style="fill:none;stroke:#0000ff;stroke-linecap:square;"/>
   </g>
   <g id="line2d_123">
    <path clip-path="url(#p5021237fde)" d="M 146.05935 39.232579 
L 147.497699 38.167939 
L 147.497699 38.167939 
" style="fill:none;stroke:#0000ff;stroke-linecap:square;"/>
   </g>
   <g id="line2d_124">
    <path clip-path="url(#p5021237fde)" d="M 147.497699 38.167939 
L 147.519955 38.176285 
L 147.519955 38.176285 
" style="fill:none;stroke:#0000ff;stroke-linecap:square;"/>
   </g>
   <g id="line2d_125">
    <path clip-path="url(#p5021237fde)" d="M 147.519955 38.176285 
L 148.958305 37.111646 
L 148.958305 37.111646 
" style="fill:none;stroke:#0000ff;stroke-linecap:square;"/>
   </g>
   <g id="line2d_126">
    <path clip-path="url(#p5021237fde)" d="M 148.958305 37.111646 
L 149.047328 37.145029 
L 149.047328 37.145029 
" style="fill:none;stroke:#0000ff;stroke-linecap:square;"/>
   </g>
   <g id="line2d_127">
    <path clip-path="url(#p5021237fde)" d="M 149.047328 37.145029 
L 150.485677 36.08039 
L 150.485677 36.08039 
" style="fill:none;stroke:#0000ff;stroke-linecap:square;"/>
   </g>
   <g id="line2d_128">
    <path clip-path="url(#p5021237fde)" d="M 150.485677 36.08039 
L 150.507933 36.088736 
L 150.507933 36.088736 
" style="fill:none;stroke:#0000ff;stroke-linecap:square;"/>
   </g>
   <g id="line2d_129">
    <path clip-path="url(#p5021237fde)" d="M 150.507933 36.088736 
L 151.946283 35.024097 
L 151.946283 35.024097 
" style="fill:none;stroke:#0000ff;stroke-linecap:square;"/>
   </g>
   <g id="line2d_130">
    <path clip-path="url(#p5021237fde)" d="M 151.946283 35.024097 
L 243.105972 69.20898 
L 243.105972 69.20898 
" style="fill:none;stroke:#0000ff;stroke-linecap:square;"/>
   </g>
   <g id="line2d_131">
    <path clip-path="url(#p5021237fde)" d="M 243.105972 69.20898 
L 244.544321 68.144341 
L 244.544321 68.144341 
" style="fill:none;stroke:#0000ff;stroke-linecap:square;"/>
   </g>
   <g id="line2d_132">
    <path clip-path="url(#p5021237fde)" d="M 244.544321 68.144341 
L 244.544466 68.144395 
L 244.544599 68.144445 
L 244.544647 68.144463 
L 244.544824 68.144529 
L 244.544912 68.144562 
L 244.545034 68.144608 
L 244.545063 68.144619 
L 244.54525 68.144689 
L 244.545284 68.144702 
L 244.545415 68.144751 
L 244.545575 68.144811 
L 244.545712 68.144862 
L 244.545791 68.144892 
L 244.545884 68.144927 
L 244.545945 68.14495 
L 244.546062 68.144994 
L 244.546242 68.145061 
L 244.546378 68.145112 
L 244.546466 68.145145 
L 244.546574 68.145186 
L 244.546654 68.145216 
L 244.546774 68.14526 
L 244.546896 68.145306 
L 244.546993 68.145343 
L 244.547158 68.145405 
L 244.547202 68.145421 
L 244.547338 68.145472 
L 244.547434 68.145508 
L 244.547573 68.14556 
L 244.547628 68.145581 
L 244.547832 68.145657 
L 244.547952 68.145702 
L 244.547965 68.145707 
L 244.548148 68.145776 
L 244.548185 68.14579 
L 244.548369 68.145859 
L 244.548438 68.145885 
L 244.548522 68.145916 
L 244.548664 68.145969 
L 244.548775 68.146011 
L 244.548928 68.146068 
L 244.549029 68.146106 
L 244.549161 68.146156 
L 244.549272 68.146197 
L 244.549337 68.146222 
L 244.549518 68.14629 
L 244.54963 68.146332 
L 244.549651 68.14634 
L 244.549781 68.146388 
L 244.54988 68.146425 
L 244.550018 68.146477 
L 244.550154 68.146528 
L 244.55022 68.146553 
L 244.550312 68.146587 
L 244.550493 68.146655 
L 244.550618 68.146702 
L 244.550662 68.146718 
L 244.550782 68.146763 
L 244.550924 68.146817 
L 244.551045 68.146862 
L 244.551092 68.14688 
L 244.5512 68.14692 
L 244.551382 68.146989 
L 244.551475 68.147023 
L 244.551635 68.147083 
L 244.551713 68.147113 
L 244.551796 68.147144 
L 244.551952 68.147202 
L 244.552054 68.147241 
L 244.552132 68.14727 
L 244.552214 68.1473 
L 244.552354 68.147353 
L 244.552443 68.147386 
L 244.552597 68.147444 
L 244.552721 68.147491 
L 244.552858 68.147542 
L 244.552907 68.14756 
L 244.553027 68.147605 
L 244.553179 68.147662 
L 244.553323 68.147717 
L 244.553388 68.147741 
L 244.553545 68.1478 
L 244.553575 68.147811 
L 244.553662 68.147844 
L 244.553877 68.147924 
L 244.553938 68.147947 
L 244.554091 68.148005 
L 244.554114 68.148013 
L 244.554258 68.148067 
" style="fill:none;stroke:#0000ff;stroke-linecap:square;"/>
   </g>
   <g id="line2d_133">
    <path clip-path="url(#p5021237fde)" d="M 244.554633 68.148208 
L 244.554672 68.148222 
L 244.554845 68.148287 
L 244.554986 68.14834 
L 244.555018 68.148352 
L 244.555201 68.148421 
L 244.55529 68.148454 
L 244.555381 68.148488 
L 244.555538 68.148547 
L 244.555593 68.148567 
L 244.555683 68.148602 
L 244.555799 68.148645 
L 244.55595 68.148702 
L 244.55612 68.148765 
L 244.556124 68.148767 
L 244.55633 68.148844 
L 244.556434 68.148883 
L 244.556518 68.148915 
L 244.556636 68.148959 
L 244.556689 68.148979 
L 244.556809 68.149023 
L 244.556924 68.149067 
L 244.557033 68.149108 
L 244.557236 68.149184 
L 244.557324 68.149217 
L 244.55739 68.149241 
L 244.557504 68.149284 
L 244.557648 68.149338 
L 244.55777 68.149384 
L 244.557873 68.149423 
L 244.558009 68.149474 
L 244.558053 68.14949 
L 244.558219 68.149552 
L 244.55828 68.149575 
L 244.558426 68.14963 
L 244.558581 68.149688 
L 244.55859 68.149691 
L 244.558714 68.149738 
L 244.558912 68.149812 
L 244.558982 68.149838 
L 244.559052 68.149865 
L 244.559191 68.149917 
L 244.559349 68.149976 
L 244.559421 68.150003 
L 244.559575 68.150061 
L 244.559689 68.150104 
L 244.559761 68.15013 
L 244.559887 68.150178 
L 244.559971 68.150209 
L 244.560131 68.15027 
L 244.560258 68.150317 
L 244.560289 68.150329 
L 244.560449 68.150389 
L 244.560507 68.15041 
L 244.560601 68.150446 
L 244.560782 68.150513 
L 244.560858 68.150542 
L 244.561012 68.1506 
L 244.561085 68.150627 
L 244.561217 68.150677 
L 244.561341 68.150723 
L 244.561393 68.150743 
L 244.561519 68.15079 
L 244.56168 68.15085 
L 244.561808 68.150898 
L 244.561876 68.150924 
L 244.56199 68.150967 
L 244.562159 68.15103 
L 244.562194 68.151043 
L 244.562295 68.151081 
L 244.562426 68.15113 
L 244.5626 68.151195 
L 244.562712 68.151237 
L 244.562743 68.151249 
L 244.562855 68.151291 
L 244.563011 68.151349 
L 244.563078 68.151374 
L 244.563257 68.151442 
L 244.563363 68.151481 
L 244.563472 68.151522 
L 244.563553 68.151553 
L 244.563614 68.151575 
L 244.563806 68.151647 
L 244.563922 68.151691 
L 244.564003 68.151721 
L 244.564067 68.151745 
L 244.564175 68.151786 
L 244.564383 68.151864 
L 244.564412 68.151875 
L 244.564534 68.151921 
L 244.564719 68.15199 
L 244.564802 68.152021 
L 244.564873 68.152048 
L 244.564998 68.152094 
L 244.565143 68.152149 
L 244.565188 68.152166 
L 244.565296 68.152206 
L 244.565435 68.152258 
L 244.565525 68.152292 
L 244.565714 68.152363 
L 244.565839 68.15241 
L 244.565862 68.152419 
L 244.56604 68.152485 
L 244.566119 68.152515 
L 244.566248 68.152563 
L 244.566349 68.152601 
L 244.566513 68.152662 
L 244.566577 68.152687 
" style="fill:none;stroke:#0000ff;stroke-linecap:square;"/>
   </g>
   <g id="line2d_134">
    <path clip-path="url(#p5021237fde)" d="M 244.566577 68.152687 
L 246.004927 67.088047 
L 246.004927 67.088047 
" style="fill:none;stroke:#0000ff;stroke-linecap:square;"/>
   </g>
   <g id="line2d_135">
    <path clip-path="url(#p5021237fde)" d="M 246.004927 67.088047 
L 246.09395 67.121431 
L 246.09395 67.121431 
" style="fill:none;stroke:#0000ff;stroke-linecap:square;"/>
   </g>
   <g id="line2d_136">
    <path clip-path="url(#p5021237fde)" d="M 246.09395 67.121431 
L 247.5323 66.056792 
L 247.5323 66.056792 
" style="fill:none;stroke:#0000ff;stroke-linecap:square;"/>
   </g>
   <g id="line2d_137">
    <path clip-path="url(#p5021237fde)" d="M 247.5323 66.056792 
L 247.554555 66.065138 
L 247.554555 66.065138 
" style="fill:none;stroke:#0000ff;stroke-linecap:square;"/>
   </g>
   <g id="line2d_138">
    <path clip-path="url(#p5021237fde)" d="M 247.554555 66.065138 
L 248.992905 65.000498 
L 248.992905 65.000498 
" style="fill:none;stroke:#0000ff;stroke-linecap:square;"/>
   </g>
   <g id="line2d_139">
    <path clip-path="url(#p5021237fde)" d="M 248.992905 65.000498 
L 249.348998 65.134033 
L 249.348998 65.134033 
" style="fill:none;stroke:#0000ff;stroke-linecap:square;"/>
   </g>
   <g id="line2d_140">
    <path clip-path="url(#p5021237fde)" d="M 249.348998 65.134033 
L 250.787347 64.069394 
L 250.787347 64.069394 
" style="fill:none;stroke:#0000ff;stroke-linecap:square;"/>
   </g>
   <g id="line2d_141">
    <path clip-path="url(#p5021237fde)" d="M 250.787347 64.069394 
L 250.809603 64.07774 
L 250.809603 64.07774 
" style="fill:none;stroke:#0000ff;stroke-linecap:square;"/>
   </g>
   <g id="line2d_142">
    <path clip-path="url(#p5021237fde)" d="M 250.809603 64.07774 
L 252.247953 63.0131 
L 252.247953 63.0131 
" style="fill:none;stroke:#0000ff;stroke-linecap:square;"/>
   </g>
   <g id="line2d_143">
    <path clip-path="url(#p5021237fde)" d="M 252.247953 63.0131 
L 252.336976 63.046484 
L 252.336976 63.046484 
" style="fill:none;stroke:#0000ff;stroke-linecap:square;"/>
   </g>
   <g id="line2d_144">
    <path clip-path="url(#p5021237fde)" d="M 252.336976 63.046484 
L 253.775325 61.981845 
L 253.775325 61.981845 
" style="fill:none;stroke:#0000ff;stroke-linecap:square;"/>
   </g>
   <g id="line2d_145">
    <path clip-path="url(#p5021237fde)" d="M 253.775325 61.981845 
L 253.797581 61.990191 
L 253.797581 61.990191 
" style="fill:none;stroke:#0000ff;stroke-linecap:square;"/>
   </g>
   <g id="line2d_146">
    <path clip-path="url(#p5021237fde)" d="M 253.797581 61.990191 
L 255.235931 60.925551 
L 255.235931 60.925551 
" style="fill:none;stroke:#0000ff;stroke-linecap:square;"/>
   </g>
   <g id="line2d_147">
    <path clip-path="url(#p5021237fde)" d="M 255.235931 60.925551 
L 256.660301 61.45969 
L 256.660301 61.45969 
" style="fill:none;stroke:#0000ff;stroke-linecap:square;"/>
   </g>
   <g id="line2d_148">
    <path clip-path="url(#p5021237fde)" d="M 256.660301 61.45969 
L 258.098651 60.395051 
L 258.098651 60.395051 
" style="fill:none;stroke:#0000ff;stroke-linecap:square;"/>
   </g>
   <g id="line2d_149">
    <path clip-path="url(#p5021237fde)" d="M 258.098651 60.395051 
L 258.120906 60.403397 
L 258.120906 60.403397 
" style="fill:none;stroke:#0000ff;stroke-linecap:square;"/>
   </g>
   <g id="line2d_150">
    <path clip-path="url(#p5021237fde)" d="M 258.120906 60.403397 
L 259.559256 59.338757 
L 259.559256 59.338757 
" style="fill:none;stroke:#0000ff;stroke-linecap:square;"/>
   </g>
   <g id="line2d_151">
    <path clip-path="url(#p5021237fde)" d="M 259.559256 59.338757 
L 259.648279 59.372141 
L 259.648279 59.372141 
" style="fill:none;stroke:#0000ff;stroke-linecap:square;"/>
   </g>
   <g id="line2d_152">
    <path clip-path="url(#p5021237fde)" d="M 259.648279 59.372141 
L 261.086629 58.307502 
L 261.086629 58.307502 
" style="fill:none;stroke:#0000ff;stroke-linecap:square;"/>
   </g>
   <g id="line2d_153">
    <path clip-path="url(#p5021237fde)" d="M 261.086629 58.307502 
L 261.108885 58.315848 
L 261.108885 58.315848 
" style="fill:none;stroke:#0000ff;stroke-linecap:square;"/>
   </g>
   <g id="line2d_154">
    <path clip-path="url(#p5021237fde)" d="M 261.108885 58.315848 
L 262.547234 57.251208 
L 262.547234 57.251208 
" style="fill:none;stroke:#0000ff;stroke-linecap:square;"/>
   </g>
   <g id="line2d_155">
    <path clip-path="url(#p5021237fde)" d="M 262.547234 57.251208 
L 262.903327 57.384743 
L 262.903327 57.384743 
" style="fill:none;stroke:#0000ff;stroke-linecap:square;"/>
   </g>
   <g id="line2d_156">
    <path clip-path="url(#p5021237fde)" d="M 262.903327 57.384743 
L 264.341676 56.320104 
L 264.341676 56.320104 
" style="fill:none;stroke:#0000ff;stroke-linecap:square;"/>
   </g>
   <g id="line2d_157">
    <path clip-path="url(#p5021237fde)" d="M 264.341676 56.320104 
L 264.363932 56.32845 
L 264.363932 56.32845 
" style="fill:none;stroke:#0000ff;stroke-linecap:square;"/>
   </g>
   <g id="line2d_158">
    <path clip-path="url(#p5021237fde)" d="M 264.363932 56.32845 
L 265.802282 55.26381 
L 265.802282 55.26381 
" style="fill:none;stroke:#0000ff;stroke-linecap:square;"/>
   </g>
   <g id="line2d_159">
    <path clip-path="url(#p5021237fde)" d="M 265.802282 55.26381 
L 265.891305 55.297194 
L 265.891305 55.297194 
" style="fill:none;stroke:#0000ff;stroke-linecap:square;"/>
   </g>
   <g id="line2d_160">
    <path clip-path="url(#p5021237fde)" d="M 265.891305 55.297194 
L 267.329654 54.232555 
L 267.329654 54.232555 
" style="fill:none;stroke:#0000ff;stroke-linecap:square;"/>
   </g>
   <g id="line2d_161">
    <path clip-path="url(#p5021237fde)" d="M 267.329654 54.232555 
L 267.35191 54.240901 
L 267.35191 54.240901 
" style="fill:none;stroke:#0000ff;stroke-linecap:square;"/>
   </g>
   <g id="line2d_162">
    <path clip-path="url(#p5021237fde)" d="M 267.35191 54.240901 
L 268.79026 53.176261 
L 268.79026 53.176261 
" style="fill:none;stroke:#0000ff;stroke-linecap:square;"/>
   </g>
   <g id="line2d_163">
    <path clip-path="url(#p5021237fde)" d="M 268.79026 53.176261 
L 274.48774 55.312817 
L 274.48774 55.312817 
" style="fill:none;stroke:#0000ff;stroke-linecap:square;"/>
   </g>
   <g id="line2d_164">
    <path clip-path="url(#p5021237fde)" d="M 274.48774 55.312817 
L 275.92609 54.248177 
L 275.92609 54.248177 
" style="fill:none;stroke:#0000ff;stroke-linecap:square;"/>
   </g>
   <g id="line2d_165">
    <path clip-path="url(#p5021237fde)" d="M 275.92609 54.248177 
L 275.948346 54.256523 
L 275.948346 54.256523 
" style="fill:none;stroke:#0000ff;stroke-linecap:square;"/>
   </g>
   <g id="line2d_166">
    <path clip-path="url(#p5021237fde)" d="M 275.948346 54.256523 
L 277.386695 53.191884 
L 277.386695 53.191884 
" style="fill:none;stroke:#0000ff;stroke-linecap:square;"/>
   </g>
   <g id="line2d_167">
    <path clip-path="url(#p5021237fde)" d="M 277.386695 53.191884 
L 277.475719 53.225267 
L 277.475719 53.225267 
" style="fill:none;stroke:#0000ff;stroke-linecap:square;"/>
   </g>
   <g id="line2d_168">
    <path clip-path="url(#p5021237fde)" d="M 277.475719 53.225267 
L 278.914068 52.160628 
L 278.914068 52.160628 
" style="fill:none;stroke:#0000ff;stroke-linecap:square;"/>
   </g>
   <g id="line2d_169">
    <path clip-path="url(#p5021237fde)" d="M 278.914068 52.160628 
L 278.936324 52.168974 
L 278.936324 52.168974 
" style="fill:none;stroke:#0000ff;stroke-linecap:square;"/>
   </g>
   <g id="line2d_170">
    <path clip-path="url(#p5021237fde)" d="M 278.936324 52.168974 
L 280.374674 51.104335 
L 280.374674 51.104335 
" style="fill:none;stroke:#0000ff;stroke-linecap:square;"/>
   </g>
   <g id="line2d_171">
    <path clip-path="url(#p5021237fde)" d="M 280.374674 51.104335 
L 280.730766 51.237869 
L 280.730766 51.237869 
" style="fill:none;stroke:#0000ff;stroke-linecap:square;"/>
   </g>
   <g id="line2d_172">
    <path clip-path="url(#p5021237fde)" d="M 280.730766 51.237869 
L 282.169116 50.17323 
L 282.169116 50.17323 
" style="fill:none;stroke:#0000ff;stroke-linecap:square;"/>
   </g>
   <g id="line2d_173">
    <path clip-path="url(#p5021237fde)" d="M 282.169116 50.17323 
L 282.191372 50.181576 
L 282.191372 50.181576 
" style="fill:none;stroke:#0000ff;stroke-linecap:square;"/>
   </g>
   <g id="line2d_174">
    <path clip-path="url(#p5021237fde)" d="M 282.191372 50.181576 
L 283.629721 49.116937 
L 283.629721 49.116937 
" style="fill:none;stroke:#0000ff;stroke-linecap:square;"/>
   </g>
   <g id="line2d_175">
    <path clip-path="url(#p5021237fde)" d="M 283.629721 49.116937 
L 283.718744 49.15032 
L 283.718744 49.15032 
" style="fill:none;stroke:#0000ff;stroke-linecap:square;"/>
   </g>
   <g id="line2d_176">
    <path clip-path="url(#p5021237fde)" d="M 283.718744 49.15032 
L 285.157094 48.085681 
L 285.157094 48.085681 
" style="fill:none;stroke:#0000ff;stroke-linecap:square;"/>
   </g>
   <g id="line2d_177">
    <path clip-path="url(#p5021237fde)" d="M 285.157094 48.085681 
L 285.17935 48.094027 
L 285.17935 48.094027 
" style="fill:none;stroke:#0000ff;stroke-linecap:square;"/>
   </g>
   <g id="line2d_178">
    <path clip-path="url(#p5021237fde)" d="M 285.17935 48.094027 
L 286.617699 47.029388 
L 286.617699 47.029388 
" style="fill:none;stroke:#0000ff;stroke-linecap:square;"/>
   </g>
   <g id="line2d_179">
    <path clip-path="url(#p5021237fde)" d="M 286.617699 47.029388 
L 288.04207 47.563526 
L 288.04207 47.563526 
" style="fill:none;stroke:#0000ff;stroke-linecap:square;"/>
   </g>
   <g id="line2d_180">
    <path clip-path="url(#p5021237fde)" d="M 288.04207 47.563526 
L 289.480419 46.498887 
L 289.480419 46.498887 
" style="fill:none;stroke:#0000ff;stroke-linecap:square;"/>
   </g>
   <g id="line2d_181">
    <path clip-path="url(#p5021237fde)" d="M 289.480419 46.498887 
L 289.502675 46.507233 
L 289.502675 46.507233 
" style="fill:none;stroke:#0000ff;stroke-linecap:square;"/>
   </g>
   <g id="line2d_182">
    <path clip-path="url(#p5021237fde)" d="M 289.502675 46.507233 
L 290.941025 45.442594 
L 290.941025 45.442594 
" style="fill:none;stroke:#0000ff;stroke-linecap:square;"/>
   </g>
   <g id="line2d_183">
    <path clip-path="url(#p5021237fde)" d="M 290.941025 45.442594 
L 291.030048 45.475977 
L 291.030048 45.475977 
" style="fill:none;stroke:#0000ff;stroke-linecap:square;"/>
   </g>
   <g id="line2d_184">
    <path clip-path="url(#p5021237fde)" d="M 291.030048 45.475977 
L 292.468397 44.411338 
L 292.468397 44.411338 
" style="fill:none;stroke:#0000ff;stroke-linecap:square;"/>
   </g>
   <g id="line2d_185">
    <path clip-path="url(#p5021237fde)" d="M 292.468397 44.411338 
L 292.490653 44.419684 
L 292.490653 44.419684 
" style="fill:none;stroke:#0000ff;stroke-linecap:square;"/>
   </g>
   <g id="line2d_186">
    <path clip-path="url(#p5021237fde)" d="M 292.490653 44.419684 
L 293.929003 43.355045 
L 293.929003 43.355045 
" style="fill:none;stroke:#0000ff;stroke-linecap:square;"/>
   </g>
   <g id="line2d_187">
    <path clip-path="url(#p5021237fde)" d="M 293.929003 43.355045 
L 294.285095 43.488579 
L 294.285095 43.488579 
" style="fill:none;stroke:#0000ff;stroke-linecap:square;"/>
   </g>
   <g id="line2d_188">
    <path clip-path="url(#p5021237fde)" d="M 294.285095 43.488579 
L 295.723445 42.42394 
L 295.723445 42.42394 
" style="fill:none;stroke:#0000ff;stroke-linecap:square;"/>
   </g>
   <g id="line2d_189">
    <path clip-path="url(#p5021237fde)" d="M 295.723445 42.42394 
L 295.745701 42.432286 
L 295.745701 42.432286 
" style="fill:none;stroke:#0000ff;stroke-linecap:square;"/>
   </g>
   <g id="line2d_190">
    <path clip-path="url(#p5021237fde)" d="M 295.745701 42.432286 
L 297.18405 41.367647 
L 297.18405 41.367647 
" style="fill:none;stroke:#0000ff;stroke-linecap:square;"/>
   </g>
   <g id="line2d_191">
    <path clip-path="url(#p5021237fde)" d="M 297.18405 41.367647 
L 297.273073 41.40103 
L 297.273073 41.40103 
" style="fill:none;stroke:#0000ff;stroke-linecap:square;"/>
   </g>
   <g id="line2d_192">
    <path clip-path="url(#p5021237fde)" d="M 297.273073 41.40103 
L 298.711423 40.336391 
L 298.711423 40.336391 
" style="fill:none;stroke:#0000ff;stroke-linecap:square;"/>
   </g>
   <g id="line2d_193">
    <path clip-path="url(#p5021237fde)" d="M 298.711423 40.336391 
L 298.733679 40.344737 
L 298.733679 40.344737 
" style="fill:none;stroke:#0000ff;stroke-linecap:square;"/>
   </g>
   <g id="line2d_194">
    <path clip-path="url(#p5021237fde)" d="M 298.733679 40.344737 
L 300.172028 39.280098 
L 300.172028 39.280098 
" style="fill:none;stroke:#0000ff;stroke-linecap:square;"/>
   </g>
   <g id="line2d_195">
    <path clip-path="url(#p5021237fde)" d="M 300.172028 39.280098 
L 322.961951 47.826318 
L 322.961951 47.826318 
" style="fill:none;stroke:#0000ff;stroke-linecap:square;"/>
   </g>
   <g id="line2d_196">
    <path clip-path="url(#p5021237fde)" d="M 322.961951 47.826318 
L 324.4003 46.761679 
L 324.4003 46.761679 
" style="fill:none;stroke:#0000ff;stroke-linecap:square;"/>
   </g>
   <g id="line2d_197">
    <path clip-path="url(#p5021237fde)" d="M 324.4003 46.761679 
L 324.422556 46.770025 
L 324.422556 46.770025 
" style="fill:none;stroke:#0000ff;stroke-linecap:square;"/>
   </g>
   <g id="line2d_198">
    <path clip-path="url(#p5021237fde)" d="M 324.422556 46.770025 
L 325.860906 45.705386 
L 325.860906 45.705386 
" style="fill:none;stroke:#0000ff;stroke-linecap:square;"/>
   </g>
   <g id="line2d_199">
    <path clip-path="url(#p5021237fde)" d="M 325.860906 45.705386 
L 325.949929 45.738769 
L 325.949929 45.738769 
" style="fill:none;stroke:#0000ff;stroke-linecap:square;"/>
   </g>
   <g id="line2d_200">
    <path clip-path="url(#p5021237fde)" d="M 325.949929 45.738769 
L 327.388278 44.67413 
L 327.388278 44.67413 
" style="fill:none;stroke:#0000ff;stroke-linecap:square;"/>
   </g>
   <g id="line2d_201">
    <path clip-path="url(#p5021237fde)" d="M 327.388278 44.67413 
L 327.410534 44.682476 
L 327.410534 44.682476 
" style="fill:none;stroke:#0000ff;stroke-linecap:square;"/>
   </g>
   <g id="line2d_202">
    <path clip-path="url(#p5021237fde)" d="M 327.410534 44.682476 
L 328.848884 43.617837 
L 328.848884 43.617837 
" style="fill:none;stroke:#0000ff;stroke-linecap:square;"/>
   </g>
   <g id="line2d_203">
    <path clip-path="url(#p5021237fde)" d="M 328.848884 43.617837 
L 329.204976 43.751371 
L 329.204976 43.751371 
" style="fill:none;stroke:#0000ff;stroke-linecap:square;"/>
   </g>
   <g id="line2d_204">
    <path clip-path="url(#p5021237fde)" d="M 329.204976 43.751371 
L 330.643326 42.686732 
L 330.643326 42.686732 
" style="fill:none;stroke:#0000ff;stroke-linecap:square;"/>
   </g>
   <g id="line2d_205">
    <path clip-path="url(#p5021237fde)" d="M 330.643326 42.686732 
L 330.665582 42.695078 
L 330.665582 42.695078 
" style="fill:none;stroke:#0000ff;stroke-linecap:square;"/>
   </g>
   <g id="line2d_206">
    <path clip-path="url(#p5021237fde)" d="M 330.665582 42.695078 
L 332.103931 41.630439 
L 332.103931 41.630439 
" style="fill:none;stroke:#0000ff;stroke-linecap:square;"/>
   </g>
   <g id="line2d_207">
    <path clip-path="url(#p5021237fde)" d="M 332.103931 41.630439 
L 332.192955 41.663822 
L 332.192955 41.663822 
" style="fill:none;stroke:#0000ff;stroke-linecap:square;"/>
   </g>
   <g id="line2d_208">
    <path clip-path="url(#p5021237fde)" d="M 332.192955 41.663822 
L 333.631304 40.599183 
L 333.631304 40.599183 
" style="fill:none;stroke:#0000ff;stroke-linecap:square;"/>
   </g>
   <g id="line2d_209">
    <path clip-path="url(#p5021237fde)" d="M 333.631304 40.599183 
L 333.65356 40.607529 
L 333.65356 40.607529 
" style="fill:none;stroke:#0000ff;stroke-linecap:square;"/>
   </g>
   <g id="line2d_210">
    <path clip-path="url(#p5021237fde)" d="M 333.65356 40.607529 
L 335.09191 39.54289 
L 335.09191 39.54289 
" style="fill:none;stroke:#0000ff;stroke-linecap:square;"/>
   </g>
   <g id="line2d_211">
    <path clip-path="url(#p5021237fde)" d="M 335.09191 39.54289 
L 336.33158 40.007766 
L 336.33158 40.007766 
" style="fill:none;stroke:#0000ff;stroke-linecap:square;"/>
   </g>
   <g id="line2d_212">
    <path clip-path="url(#p5021237fde)" d="M 336.349742 40.014577 
L 336.357813 40.017603 
L 336.363961 40.019909 
L 336.374742 40.023952 
L 336.37772 40.025068 
L 336.384879 40.027753 
L 336.397588 40.032519 
L 336.403776 40.03484 
L 336.40694 40.036026 
L 336.419297 40.04066 
L 336.42075 40.041205 
L 336.428799 40.044223 
L 336.437104 40.047338 
L 336.446557 40.050882 
L 336.451367 40.052686 
L 336.461885 40.05663 
L 336.468638 40.059163 
L 336.471655 40.060294 
L 336.477157 40.062357 
L 336.487178 40.066115 
L 336.493131 40.068348 
L 336.50193 40.071647 
L 336.506966 40.073536 
L 336.51628 40.077028 
" style="fill:none;stroke:#0000ff;stroke-linecap:square;"/>
   </g>
   <g id="line2d_213">
    <path clip-path="url(#p5021237fde)" d="M 336.51628 40.077028 
L 337.954629 39.012389 
L 337.954629 39.012389 
" style="fill:none;stroke:#0000ff;stroke-linecap:square;"/>
   </g>
   <g id="line2d_214">
    <path clip-path="url(#p5021237fde)" d="M 337.954629 39.012389 
L 337.976885 39.020735 
L 337.976885 39.020735 
" style="fill:none;stroke:#0000ff;stroke-linecap:square;"/>
   </g>
   <g id="line2d_215">
    <path clip-path="url(#p5021237fde)" d="M 337.976885 39.020735 
L 339.415235 37.956096 
L 339.415235 37.956096 
" style="fill:none;stroke:#0000ff;stroke-linecap:square;"/>
   </g>
   <g id="line2d_216">
    <path clip-path="url(#p5021237fde)" d="M 339.415235 37.956096 
L 339.504258 37.989479 
L 339.504258 37.989479 
" style="fill:none;stroke:#0000ff;stroke-linecap:square;"/>
   </g>
   <g id="line2d_217">
    <path clip-path="url(#p5021237fde)" d="M 339.504258 37.989479 
L 340.942608 36.92484 
L 340.942608 36.92484 
" style="fill:none;stroke:#0000ff;stroke-linecap:square;"/>
   </g>
   <g id="line2d_218">
    <path clip-path="url(#p5021237fde)" d="M 340.942608 36.92484 
L 340.964863 36.933186 
L 340.964863 36.933186 
" style="fill:none;stroke:#0000ff;stroke-linecap:square;"/>
   </g>
   <g id="line2d_219">
    <path clip-path="url(#p5021237fde)" d="M 340.964863 36.933186 
L 342.403213 35.868547 
L 342.403213 35.868547 
" style="fill:none;stroke:#0000ff;stroke-linecap:square;"/>
   </g>
   <g id="line2d_220">
    <path clip-path="url(#p5021237fde)" d="M 342.403213 35.868547 
L 342.759306 36.002081 
L 342.759306 36.002081 
" style="fill:none;stroke:#0000ff;stroke-linecap:square;"/>
   </g>
   <g id="line2d_221">
    <path clip-path="url(#p5021237fde)" d="M 342.759306 36.002081 
L 344.197655 34.937442 
L 344.197655 34.937442 
" style="fill:none;stroke:#0000ff;stroke-linecap:square;"/>
   </g>
   <g id="line2d_222">
    <path clip-path="url(#p5021237fde)" d="M 344.197655 34.937442 
L 344.219911 34.945788 
L 344.219911 34.945788 
" style="fill:none;stroke:#0000ff;stroke-linecap:square;"/>
   </g>
   <g id="line2d_223">
    <path clip-path="url(#p5021237fde)" d="M 344.219911 34.945788 
L 345.658261 33.881149 
L 345.658261 33.881149 
" style="fill:none;stroke:#0000ff;stroke-linecap:square;"/>
   </g>
   <g id="line2d_224">
    <path clip-path="url(#p5021237fde)" d="M 345.658261 33.881149 
L 345.747284 33.914532 
L 345.747284 33.914532 
" style="fill:none;stroke:#0000ff;stroke-linecap:square;"/>
   </g>
   <g id="line2d_225">
    <path clip-path="url(#p5021237fde)" d="M 345.747284 33.914532 
L 347.185633 32.849893 
L 347.185633 32.849893 
" style="fill:none;stroke:#0000ff;stroke-linecap:square;"/>
   </g>
   <g id="line2d_226">
    <path clip-path="url(#p5021237fde)" d="M 347.185633 32.849893 
L 347.207889 32.858239 
L 347.207889 32.858239 
" style="fill:none;stroke:#0000ff;stroke-linecap:square;"/>
   </g>
   <g id="line2d_227">
    <path clip-path="url(#p5021237fde)" d="M 347.207889 32.858239 
L 348.646239 31.7936 
L 348.646239 31.7936 
" style="fill:none;stroke:#0000ff;stroke-linecap:square;"/>
   </g>
   <g id="line2d_228">
    <path clip-path="url(#p5021237fde)" d="M 348.646239 31.7936 
L 354.343719 33.930155 
L 354.343719 33.930155 
" style="fill:none;stroke:#0000ff;stroke-linecap:square;"/>
   </g>
   <g id="line2d_229">
    <path clip-path="url(#p5021237fde)" d="M 354.343719 33.930155 
L 355.782069 32.865516 
L 355.782069 32.865516 
" style="fill:none;stroke:#0000ff;stroke-linecap:square;"/>
   </g>
   <g id="line2d_230">
    <path clip-path="url(#p5021237fde)" d="M 355.782069 32.865516 
L 355.804325 32.873861 
L 355.804325 32.873861 
" style="fill:none;stroke:#0000ff;stroke-linecap:square;"/>
   </g>
   <g id="line2d_231">
    <path clip-path="url(#p5021237fde)" d="M 355.804325 32.873861 
L 357.242674 31.809222 
L 357.242674 31.809222 
" style="fill:none;stroke:#0000ff;stroke-linecap:square;"/>
   </g>
   <g id="line2d_232">
    <path clip-path="url(#p5021237fde)" d="M 357.242674 31.809222 
L 357.331697 31.842606 
L 357.331697 31.842606 
" style="fill:none;stroke:#0000ff;stroke-linecap:square;"/>
   </g>
   <g id="line2d_233">
    <path clip-path="url(#p5021237fde)" d="M 357.331697 31.842606 
L 358.770047 30.777966 
L 358.770047 30.777966 
" style="fill:none;stroke:#0000ff;stroke-linecap:square;"/>
   </g>
   <g id="line2d_234">
    <path clip-path="url(#p5021237fde)" d="M 358.770047 30.777966 
L 358.792303 30.786312 
L 358.792303 30.786312 
" style="fill:none;stroke:#0000ff;stroke-linecap:square;"/>
   </g>
   <g id="line2d_235">
    <path clip-path="url(#p5021237fde)" d="M 358.792303 30.786312 
L 360.230652 29.721673 
L 360.230652 29.721673 
" style="fill:none;stroke:#0000ff;stroke-linecap:square;"/>
   </g>
   <g id="line2d_236">
    <path clip-path="url(#p5021237fde)" d="M 360.230652 29.721673 
L 360.586745 29.855208 
L 360.586745 29.855208 
" style="fill:none;stroke:#0000ff;stroke-linecap:square;"/>
   </g>
   <g id="line2d_237">
    <path clip-path="url(#p5021237fde)" d="M 360.586745 29.855208 
L 362.025095 28.790568 
L 362.025095 28.790568 
" style="fill:none;stroke:#0000ff;stroke-linecap:square;"/>
   </g>
   <g id="line2d_238">
    <path clip-path="url(#p5021237fde)" d="M 362.025095 28.790568 
L 362.04735 28.798914 
L 362.04735 28.798914 
" style="fill:none;stroke:#0000ff;stroke-linecap:square;"/>
   </g>
   <g id="line2d_239">
    <path clip-path="url(#p5021237fde)" d="M 362.04735 28.798914 
L 363.4857 27.734275 
L 363.4857 27.734275 
" style="fill:none;stroke:#0000ff;stroke-linecap:square;"/>
   </g>
   <g id="line2d_240">
    <path clip-path="url(#p5021237fde)" d="M 363.4857 27.734275 
L 363.574723 27.767659 
L 363.574723 27.767659 
" style="fill:none;stroke:#0000ff;stroke-linecap:square;"/>
   </g>
   <g id="line2d_241">
    <path clip-path="url(#p5021237fde)" d="M 363.574723 27.767659 
L 365.013073 26.703019 
L 365.013073 26.703019 
" style="fill:none;stroke:#0000ff;stroke-linecap:square;"/>
   </g>
   <g id="line2d_242">
    <path clip-path="url(#p5021237fde)" d="M 365.013073 26.703019 
L 365.035329 26.711365 
L 365.035329 26.711365 
" style="fill:none;stroke:#0000ff;stroke-linecap:square;"/>
   </g>
   <g id="line2d_243">
    <path clip-path="url(#p5021237fde)" d="M 365.035329 26.711365 
L 366.473678 25.646726 
L 366.473678 25.646726 
" style="fill:none;stroke:#0000ff;stroke-linecap:square;"/>
   </g>
   <g id="line2d_244">
    <path clip-path="url(#p5021237fde)" d="M 366.473678 25.646726 
L 367.898048 26.180865 
L 367.898048 26.180865 
" style="fill:none;stroke:#0000ff;stroke-linecap:square;"/>
   </g>
   <g id="line2d_245">
    <path clip-path="url(#p5021237fde)" d="M 367.898048 26.180865 
L 369.336398 25.116225 
L 369.336398 25.116225 
" style="fill:none;stroke:#0000ff;stroke-linecap:square;"/>
   </g>
   <g id="line2d_246">
    <path clip-path="url(#p5021237fde)" d="M 369.336398 25.116225 
L 369.358654 25.124571 
L 369.358654 25.124571 
" style="fill:none;stroke:#0000ff;stroke-linecap:square;"/>
   </g>
   <g id="line2d_247">
    <path clip-path="url(#p5021237fde)" d="M 369.358654 25.124571 
L 370.797003 24.059932 
L 370.797003 24.059932 
" style="fill:none;stroke:#0000ff;stroke-linecap:square;"/>
   </g>
   <g id="line2d_248">
    <path clip-path="url(#p5021237fde)" d="M 370.797003 24.059932 
L 370.886027 24.093316 
L 370.886027 24.093316 
" style="fill:none;stroke:#0000ff;stroke-linecap:square;"/>
   </g>
   <g id="line2d_249">
    <path clip-path="url(#p5021237fde)" d="M 370.886027 24.093316 
L 372.324376 23.028676 
L 372.324376 23.028676 
" style="fill:none;stroke:#0000ff;stroke-linecap:square;"/>
   </g>
   <g id="line2d_250">
    <path clip-path="url(#p5021237fde)" d="M 372.324376 23.028676 
L 372.346632 23.037022 
L 372.346632 23.037022 
" style="fill:none;stroke:#0000ff;stroke-linecap:square;"/>
   </g>
   <g id="line2d_251">
    <path clip-path="url(#p5021237fde)" d="M 372.346632 23.037022 
L 373.784982 21.972383 
L 373.784982 21.972383 
" style="fill:none;stroke:#0000ff;stroke-linecap:square;"/>
   </g>
   <g id="line2d_252">
    <path clip-path="url(#p5021237fde)" d="M 373.784982 21.972383 
L 374.141074 22.105918 
L 374.141074 22.105918 
" style="fill:none;stroke:#0000ff;stroke-linecap:square;"/>
   </g>
   <g id="line2d_253">
    <path clip-path="url(#p5021237fde)" d="M 374.141074 22.105918 
L 375.579424 21.041278 
L 375.579424 21.041278 
" style="fill:none;stroke:#0000ff;stroke-linecap:square;"/>
   </g>
   <g id="line2d_254">
    <path clip-path="url(#p5021237fde)" d="M 375.579424 21.041278 
L 375.601679 21.049624 
L 375.601679 21.049624 
" style="fill:none;stroke:#0000ff;stroke-linecap:square;"/>
   </g>
   <g id="line2d_255">
    <path clip-path="url(#p5021237fde)" d="M 375.601679 21.049624 
L 377.040029 19.984985 
L 377.040029 19.984985 
" style="fill:none;stroke:#0000ff;stroke-linecap:square;"/>
   </g>
   <g id="line2d_256">
    <path clip-path="url(#p5021237fde)" d="M 377.040029 19.984985 
L 377.129052 20.018369 
L 377.129052 20.018369 
" style="fill:none;stroke:#0000ff;stroke-linecap:square;"/>
   </g>
   <g id="line2d_257">
    <path clip-path="url(#p5021237fde)" d="M 377.129052 20.018369 
L 378.567402 18.953729 
L 378.567402 18.953729 
" style="fill:none;stroke:#0000ff;stroke-linecap:square;"/>
   </g>
   <g id="line2d_258">
    <path clip-path="url(#p5021237fde)" d="M 378.567402 18.953729 
L 378.589658 18.962075 
L 378.589658 18.962075 
" style="fill:none;stroke:#0000ff;stroke-linecap:square;"/>
   </g>
   <g id="line2d_259">
    <path clip-path="url(#p5021237fde)" d="M 378.589658 18.962075 
L 380.028007 17.897436 
L 380.028007 17.897436 
" style="fill:none;stroke:#0000ff;stroke-linecap:square;"/>
   </g>
   <g id="line2d_260">
    <path clip-path="url(#p5021237fde)" d="M 380.028007 17.897436 
L 562.529887 86.335641 
L 562.529887 86.335641 
" style="fill:none;stroke:#0000ff;stroke-linecap:square;"/>
   </g>
   <g id="matplotlib.axis_1">
    <g id="xtick_1">
     <g id="line2d_261">
      <path clip-path="url(#p5021237fde)" d="M 15.024247 87.704405 
L 15.024247 16.528672 
" style="fill:none;stroke:#000000;stroke-dasharray:0.5,0.825;stroke-dashoffset:0;stroke-width:0.5;"/>
     </g>
     <g id="line2d_262">
      <defs>
       <path d="M 0 0 
L 0 3.5 
" id="m83d9edcd27" style="stroke:#000000;stroke-width:0.8;"/>
      </defs>
      <g>
       <use style="stroke:#000000;stroke-width:0.8;" x="15.024247" xlink:href="#m83d9edcd27" y="86.335641"/>
      </g>
     </g>
    </g>
    <g id="xtick_2">
     <g id="line2d_263">
      <path clip-path="url(#p5021237fde)" d="M 380.028007 87.704405 
L 380.028007 16.528672 
" style="fill:none;stroke:#000000;stroke-dasharray:0.5,0.825;stroke-dashoffset:0;stroke-width:0.5;"/>
     </g>
     <g id="line2d_264">
      <g>
       <use style="stroke:#000000;stroke-width:0.8;" x="380.028007" xlink:href="#m83d9edcd27" y="86.335641"/>
      </g>
     </g>
     <g id="text_1">
      <!-- $f$ -->
      <defs>
       <path d="M 9.71875 -16.5 
Q 11.578125 -17.921875 14.203125 -17.921875 
Q 17.78125 -17.921875 20.015625 -10.015625 
Q 20.953125 -6.203125 25.09375 15.09375 
L 29.6875 39.59375 
L 21.09375 39.59375 
Q 20.125 39.59375 20.125 40.921875 
Q 20.515625 43.109375 21.390625 43.109375 
L 30.328125 43.109375 
L 31.5 49.609375 
Q 32.078125 52.640625 32.5625 54.8125 
Q 33.0625 56.984375 33.625 58.828125 
Q 34.1875 60.6875 35.296875 62.984375 
Q 37.015625 66.265625 39.921875 68.390625 
Q 42.828125 70.515625 46.1875 70.515625 
Q 48.390625 70.515625 50.46875 69.703125 
Q 52.546875 68.890625 53.859375 67.28125 
Q 55.171875 65.671875 55.171875 63.484375 
Q 55.171875 60.9375 53.484375 59.046875 
Q 51.8125 57.171875 49.421875 57.171875 
Q 47.796875 57.171875 46.65625 58.171875 
Q 45.515625 59.1875 45.515625 60.796875 
Q 45.515625 62.984375 47 64.625 
Q 48.484375 66.265625 50.6875 66.5 
Q 48.828125 67.921875 46.09375 67.921875 
Q 44.578125 67.921875 43.234375 66.5 
Q 41.890625 65.09375 41.5 63.484375 
Q 40.875 60.9375 38.71875 49.703125 
L 37.5 43.109375 
L 47.796875 43.109375 
Q 48.78125 43.109375 48.78125 41.796875 
Q 48.734375 41.546875 48.578125 40.9375 
Q 48.4375 40.328125 48.171875 39.953125 
Q 47.90625 39.59375 47.515625 39.59375 
L 36.8125 39.59375 
L 32.171875 15.1875 
Q 31.296875 9.859375 30.140625 4.359375 
Q 29 -1.125 26.921875 -6.90625 
Q 24.859375 -12.703125 21.625 -16.609375 
Q 18.40625 -20.515625 14.015625 -20.515625 
Q 10.640625 -20.515625 7.984375 -18.578125 
Q 5.328125 -16.65625 5.328125 -13.484375 
Q 5.328125 -10.9375 6.953125 -9.046875 
Q 8.59375 -7.171875 11.078125 -7.171875 
Q 12.75 -7.171875 13.859375 -8.171875 
Q 14.984375 -9.1875 14.984375 -10.796875 
Q 14.984375 -12.9375 13.390625 -14.71875 
Q 11.8125 -16.5 9.71875 -16.5 
z
" id="Cmmi10-66"/>
      </defs>
      <g transform="translate(377.578007 100.913766)scale(0.1 -0.1)">
       <use transform="translate(0 0.484375)" xlink:href="#Cmmi10-66"/>
      </g>
     </g>
    </g>
    <g id="xtick_3">
     <g id="line2d_265">
      <path clip-path="url(#p5021237fde)" d="M 562.529887 87.704405 
L 562.529887 16.528672 
" style="fill:none;stroke:#000000;stroke-dasharray:0.5,0.825;stroke-dashoffset:0;stroke-width:0.5;"/>
     </g>
     <g id="line2d_266">
      <g>
       <use style="stroke:#000000;stroke-width:0.8;" x="562.529887" xlink:href="#m83d9edcd27" y="86.335641"/>
      </g>
     </g>
     <g id="text_2">
      <!-- $1$ -->
      <defs>
       <path d="M 9.28125 0 
L 9.28125 3.515625 
Q 21.78125 3.515625 21.78125 6.6875 
L 21.78125 59.1875 
Q 16.609375 56.6875 8.6875 56.6875 
L 8.6875 60.203125 
Q 20.953125 60.203125 27.203125 66.609375 
L 28.609375 66.609375 
Q 28.953125 66.609375 29.265625 66.328125 
Q 29.59375 66.0625 29.59375 65.71875 
L 29.59375 6.6875 
Q 29.59375 3.515625 42.09375 3.515625 
L 42.09375 0 
z
" id="Cmr10-31"/>
      </defs>
      <g transform="translate(560.029887 100.934078)scale(0.1 -0.1)">
       <use transform="translate(0 0.390625)" xlink:href="#Cmr10-31"/>
      </g>
     </g>
    </g>
   </g>
   <g id="matplotlib.axis_2">
    <g id="ytick_1">
     <g id="line2d_267">
      <path clip-path="url(#p5021237fde)" d="M 4.074135 86.335641 
L 573.48 86.335641 
" style="fill:none;stroke:#000000;stroke-dasharray:0.5,0.825;stroke-dashoffset:0;stroke-width:0.5;"/>
     </g>
     <g id="line2d_268">
      <defs>
       <path d="M 0 0 
L -3.5 0 
" id="mad4e0fcd2d" style="stroke:#000000;stroke-width:0.8;"/>
      </defs>
      <g>
       <use style="stroke:#000000;stroke-width:0.8;" x="15.024247" xlink:href="#mad4e0fcd2d" y="86.335641"/>
      </g>
     </g>
    </g>
    <g id="ytick_2">
     <g id="line2d_269">
      <path clip-path="url(#p5021237fde)" d="M 4.074135 17.897436 
L 573.48 17.897436 
" style="fill:none;stroke:#000000;stroke-dasharray:0.5,0.825;stroke-dashoffset:0;stroke-width:0.5;"/>
     </g>
     <g id="line2d_270">
      <g>
       <use style="stroke:#000000;stroke-width:0.8;" x="15.024247" xlink:href="#mad4e0fcd2d" y="17.897436"/>
      </g>
     </g>
     <g id="text_3">
      <!-- $1$ -->
      <g transform="translate(3.024247 21.696655)scale(0.1 -0.1)">
       <use transform="translate(0 0.390625)" xlink:href="#Cmr10-31"/>
      </g>
     </g>
    </g>
   </g>
   <g id="patch_3">
    <path d="M 15.024247 87.704405 
L 15.024247 16.528672 
" style="fill:none;stroke:#000000;stroke-linecap:square;stroke-linejoin:miter;stroke-width:0.8;"/>
   </g>
   <g id="patch_4">
    <path d="M 4.074135 86.335641 
L 573.48 86.335641 
" style="fill:none;stroke:#000000;stroke-linecap:square;stroke-linejoin:miter;stroke-width:0.8;"/>
   </g>
  </g>
 </g>
 <defs>
  <clipPath id="p5021237fde">
   <rect height="71.175733" width="569.405865" x="4.074135" y="16.528672"/>
  </clipPath>
 </defs>
</svg>
