<?xml version="1.0" encoding="utf-8" standalone="no"?>
<!DOCTYPE svg PUBLIC "-//W3C//DTD SVG 1.1//EN"
  "http://www.w3.org/Graphics/SVG/1.1/DTD/svg11.dtd">
<!-- Created with matplotlib (http://matplotlib.org/) -->
<svg height="108pt" version="1.1" viewBox="0 0 576 108" width="576pt" xmlns="http://www.w3.org/2000/svg" xmlns:xlink="http://www.w3.org/1999/xlink">
 <defs>
  <style type="text/css">
*{stroke-linecap:butt;stroke-linejoin:round;}
  </style>
 </defs>
 <g id="figure_1">
  <g id="patch_1">
   <path d="M 0 108 
L 576 108 
L 576 0 
L 0 0 
z
" style="fill:#ffffff;"/>
  </g>
  <g id="axes_1">
   <g id="patch_2">
    <path d="M 4.074135 87.704405 
L 573.48 87.704405 
L 573.48 16.528672 
L 4.074135 16.528672 
z
" style="fill:#ffffff;"/>
   </g>
   <g id="line2d_1">
    <path clip-path="url(#p2d3a09ebd8)" d="M 15.024247 43.561763 
L 124.525375 77.780865 
L 124.525375 77.780865 
" style="fill:none;stroke:#000000;stroke-linecap:square;stroke-width:2;"/>
   </g>
   <g id="line2d_2">
    <path clip-path="url(#p2d3a09ebd8)" d="M 124.525375 35.006987 
L 234.026503 69.22609 
L 234.026503 69.22609 
" style="fill:none;stroke:#000000;stroke-linecap:square;stroke-width:2;"/>
   </g>
   <g id="line2d_3">
    <path clip-path="url(#p2d3a09ebd8)" d="M 234.026503 26.452212 
L 343.527631 60.671314 
L 343.527631 60.671314 
" style="fill:none;stroke:#000000;stroke-linecap:square;stroke-width:2;"/>
   </g>
   <g id="line2d_4">
    <path clip-path="url(#p2d3a09ebd8)" d="M 343.527631 17.897436 
L 562.529887 86.335641 
L 562.529887 86.335641 
" style="fill:none;stroke:#000000;stroke-linecap:square;stroke-width:2;"/>
   </g>
   <g id="line2d_5">
    <path clip-path="url(#p2d3a09ebd8)" d="M 15.024247 43.561763 
L 124.525375 77.780865 
L 124.525375 77.780865 
" style="fill:none;stroke:#ff0000;stroke-linecap:square;stroke-width:2;"/>
   </g>
   <g id="line2d_6">
    <path clip-path="url(#p2d3a09ebd8)" d="M 124.525375 35.006987 
L 217.062617 63.924875 
L 217.062617 63.924875 
" style="fill:none;stroke:#ff0000;stroke-linecap:square;stroke-width:2;"/>
   </g>
   <g id="line2d_7">
    <path clip-path="url(#p2d3a09ebd8)" d="M 218.874796 64.491181 
L 218.903785 64.50024 
L 219.876329 64.80416 
L 220.323844 64.944009 
L 220.838566 65.104859 
L 221.325001 65.25687 
L 222.066107 65.488466 
L 222.70409 65.687835 
L 222.783961 65.712795 
L 223.7531 66.015651 
L 223.935179 66.072551 
L 224.692371 66.309174 
L 225.256459 66.485451 
L 225.854581 66.672364 
L 226.128523 66.757971 
L 227.107267 67.063828 
L 227.669023 67.239377 
L 228.028686 67.351772 
L 228.754658 67.578638 
L 229.017314 67.660718 
L 229.561483 67.830771 
L 229.902455 67.937325 
L 230.703081 68.18752 
L 231.230553 68.352355 
L 231.767273 68.52008 
L 232.202768 68.656172 
L 233.176005 68.960309 
L 233.693393 69.121993 
L 234.026503 69.22609 
" style="fill:none;stroke:#ff0000;stroke-linecap:square;stroke-width:2;"/>
   </g>
   <g id="line2d_8">
    <path clip-path="url(#p2d3a09ebd8)" d="M 234.026503 26.452212 
L 343.527631 60.671314 
L 343.527631 60.671314 
" style="fill:none;stroke:#ff0000;stroke-linecap:square;stroke-width:2;"/>
   </g>
   <g id="line2d_9">
    <path clip-path="url(#p2d3a09ebd8)" d="M 343.527631 17.897436 
L 562.529887 86.335641 
L 562.529887 86.335641 
" style="fill:none;stroke:#ff0000;stroke-linecap:square;stroke-width:2;"/>
   </g>
   <g id="PathCollection_1">
    <path clip-path="url(#p2d3a09ebd8)" d="M 15.024247 88.733557 
C 15.660182 88.733557 16.270156 88.480897 16.71983 88.031223 
C 17.169504 87.58155 17.422163 86.971576 17.422163 86.335641 
C 17.422163 85.699706 17.169504 85.089732 16.71983 84.640058 
C 16.270156 84.190385 15.660182 83.937725 15.024247 83.937725 
C 14.388313 83.937725 13.778339 84.190385 13.328665 84.640058 
C 12.878991 85.089732 12.626332 85.699706 12.626332 86.335641 
C 12.626332 86.971576 12.878991 87.58155 13.328665 88.031223 
C 13.778339 88.480897 14.388313 88.733557 15.024247 88.733557 
z
"/>
   </g>
   <g id="PathCollection_2">
    <path clip-path="url(#p2d3a09ebd8)" d="M 15.024247 88.733557 
C 15.660182 88.733557 16.270156 88.480897 16.71983 88.031223 
C 17.169504 87.58155 17.422163 86.971576 17.422163 86.335641 
C 17.422163 85.699706 17.169504 85.089732 16.71983 84.640058 
C 16.270156 84.190385 15.660182 83.937725 15.024247 83.937725 
C 14.388313 83.937725 13.778339 84.190385 13.328665 84.640058 
C 12.878991 85.089732 12.626332 85.699706 12.626332 86.335641 
C 12.626332 86.971576 12.878991 87.58155 13.328665 88.031223 
C 13.778339 88.480897 14.388313 88.733557 15.024247 88.733557 
z
"/>
   </g>
   <g id="PathCollection_3">
    <path clip-path="url(#p2d3a09ebd8)" d="M 15.024247 45.959679 
C 15.660182 45.959679 16.270156 45.707019 16.71983 45.257345 
C 17.169504 44.807672 17.422163 44.197698 17.422163 43.561763 
C 17.422163 42.925828 17.169504 42.315854 16.71983 41.86618 
C 16.270156 41.416507 15.660182 41.163847 15.024247 41.163847 
C 14.388313 41.163847 13.778339 41.416507 13.328665 41.86618 
C 12.878991 42.315854 12.626332 42.925828 12.626332 43.561763 
C 12.626332 44.197698 12.878991 44.807672 13.328665 45.257345 
C 13.778339 45.707019 14.388313 45.959679 15.024247 45.959679 
z
"/>
   </g>
   <g id="PathCollection_4">
    <path clip-path="url(#p2d3a09ebd8)" d="M 15.024247 45.142902 
C 15.44357 45.142902 15.845775 44.976303 16.142281 44.679797 
C 16.438787 44.383291 16.605386 43.981086 16.605386 43.561763 
C 16.605386 43.14244 16.438787 42.740235 16.142281 42.443729 
C 15.845775 42.147223 15.44357 41.980624 15.024247 41.980624 
C 14.604924 41.980624 14.20272 42.147223 13.906213 42.443729 
C 13.609707 42.740235 13.443109 43.14244 13.443109 43.561763 
C 13.443109 43.981086 13.609707 44.383291 13.906213 44.679797 
C 14.20272 44.976303 14.604924 45.142902 15.024247 45.142902 
z
" style="fill:#ffffff;"/>
   </g>
   <g id="PathCollection_5">
    <path clip-path="url(#p2d3a09ebd8)" d="M 124.525375 80.178781 
C 125.16131 80.178781 125.771284 79.926122 126.220958 79.476448 
C 126.670632 79.026774 126.923291 78.4168 126.923291 77.780865 
C 126.923291 77.144931 126.670632 76.534957 126.220958 76.085283 
C 125.771284 75.635609 125.16131 75.38295 124.525375 75.38295 
C 123.889441 75.38295 123.279467 75.635609 122.829793 76.085283 
C 122.380119 76.534957 122.12746 77.144931 122.12746 77.780865 
C 122.12746 78.4168 122.380119 79.026774 122.829793 79.476448 
C 123.279467 79.926122 123.889441 80.178781 124.525375 80.178781 
z
"/>
   </g>
   <g id="PathCollection_6">
    <path clip-path="url(#p2d3a09ebd8)" d="M 124.525375 79.362004 
C 124.944698 79.362004 125.346903 79.195405 125.643409 78.898899 
C 125.939915 78.602393 126.106514 78.200188 126.106514 77.780865 
C 126.106514 77.361542 125.939915 76.959337 125.643409 76.662831 
C 125.346903 76.366325 124.944698 76.199726 124.525375 76.199726 
C 124.106052 76.199726 123.703847 76.366325 123.407341 76.662831 
C 123.110835 76.959337 122.944237 77.361542 122.944237 77.780865 
C 122.944237 78.200188 123.110835 78.602393 123.407341 78.898899 
C 123.703847 79.195405 124.106052 79.362004 124.525375 79.362004 
z
" style="fill:#ffffff;"/>
   </g>
   <g id="PathCollection_7">
    <path clip-path="url(#p2d3a09ebd8)" d="M 124.525375 65.920822 
C 125.16131 65.920822 125.771284 65.668162 126.220958 65.218488 
C 126.670632 64.768815 126.923291 64.158841 126.923291 63.522906 
C 126.923291 62.886971 126.670632 62.276997 126.220958 61.827323 
C 125.771284 61.37765 125.16131 61.12499 124.525375 61.12499 
C 123.889441 61.12499 123.279467 61.37765 122.829793 61.827323 
C 122.380119 62.276997 122.12746 62.886971 122.12746 63.522906 
C 122.12746 64.158841 122.380119 64.768815 122.829793 65.218488 
C 123.279467 65.668162 123.889441 65.920822 124.525375 65.920822 
z
"/>
   </g>
   <g id="PathCollection_8">
    <path clip-path="url(#p2d3a09ebd8)" d="M 124.525375 65.920822 
C 125.16131 65.920822 125.771284 65.668162 126.220958 65.218488 
C 126.670632 64.768815 126.923291 64.158841 126.923291 63.522906 
C 126.923291 62.886971 126.670632 62.276997 126.220958 61.827323 
C 125.771284 61.37765 125.16131 61.12499 124.525375 61.12499 
C 123.889441 61.12499 123.279467 61.37765 122.829793 61.827323 
C 122.380119 62.276997 122.12746 62.886971 122.12746 63.522906 
C 122.12746 64.158841 122.380119 64.768815 122.829793 65.218488 
C 123.279467 65.668162 123.889441 65.920822 124.525375 65.920822 
z
"/>
   </g>
   <g id="PathCollection_9">
    <path clip-path="url(#p2d3a09ebd8)" d="M 124.525375 65.920822 
C 125.16131 65.920822 125.771284 65.668162 126.220958 65.218488 
C 126.670632 64.768815 126.923291 64.158841 126.923291 63.522906 
C 126.923291 62.886971 126.670632 62.276997 126.220958 61.827323 
C 125.771284 61.37765 125.16131 61.12499 124.525375 61.12499 
C 123.889441 61.12499 123.279467 61.37765 122.829793 61.827323 
C 122.380119 62.276997 122.12746 62.886971 122.12746 63.522906 
C 122.12746 64.158841 122.380119 64.768815 122.829793 65.218488 
C 123.279467 65.668162 123.889441 65.920822 124.525375 65.920822 
z
"/>
   </g>
   <g id="PathCollection_10">
    <path clip-path="url(#p2d3a09ebd8)" d="M 124.525375 37.404903 
C 125.16131 37.404903 125.771284 37.152243 126.220958 36.70257 
C 126.670632 36.252896 126.923291 35.642922 126.923291 35.006987 
C 126.923291 34.371053 126.670632 33.761078 126.220958 33.311405 
C 125.771284 32.861731 125.16131 32.609071 124.525375 32.609071 
C 123.889441 32.609071 123.279467 32.861731 122.829793 33.311405 
C 122.380119 33.761078 122.12746 34.371053 122.12746 35.006987 
C 122.12746 35.642922 122.380119 36.252896 122.829793 36.70257 
C 123.279467 37.152243 123.889441 37.404903 124.525375 37.404903 
z
"/>
   </g>
   <g id="PathCollection_11">
    <path clip-path="url(#p2d3a09ebd8)" d="M 124.525375 36.588126 
C 124.944698 36.588126 125.346903 36.421527 125.643409 36.125021 
C 125.939915 35.828515 126.106514 35.42631 126.106514 35.006987 
C 126.106514 34.587664 125.939915 34.185459 125.643409 33.888953 
C 125.346903 33.592447 124.944698 33.425848 124.525375 33.425848 
C 124.106052 33.425848 123.703847 33.592447 123.407341 33.888953 
C 123.110835 34.185459 122.944237 34.587664 122.944237 35.006987 
C 122.944237 35.42631 123.110835 35.828515 123.407341 36.125021 
C 123.703847 36.421527 124.106052 36.588126 124.525375 36.588126 
z
" style="fill:#ffffff;"/>
   </g>
   <g id="PathCollection_12">
    <path clip-path="url(#p2d3a09ebd8)" d="M 234.026503 71.624005 
C 234.662438 71.624005 235.272412 71.371346 235.722086 70.921672 
C 236.17176 70.471998 236.424419 69.862024 236.424419 69.22609 
C 236.424419 68.590155 236.17176 67.980181 235.722086 67.530507 
C 235.272412 67.080833 234.662438 66.828174 234.026503 66.828174 
C 233.390569 66.828174 232.780595 67.080833 232.330921 67.530507 
C 231.881247 67.980181 231.628588 68.590155 231.628588 69.22609 
C 231.628588 69.862024 231.881247 70.471998 232.330921 70.921672 
C 232.780595 71.371346 233.390569 71.624005 234.026503 71.624005 
z
"/>
   </g>
   <g id="PathCollection_13">
    <path clip-path="url(#p2d3a09ebd8)" d="M 234.026503 70.807229 
C 234.445826 70.807229 234.848031 70.64063 235.144537 70.344124 
C 235.441043 70.047618 235.607642 69.645413 235.607642 69.22609 
C 235.607642 68.806767 235.441043 68.404562 235.144537 68.108056 
C 234.848031 67.81155 234.445826 67.644951 234.026503 67.644951 
C 233.60718 67.644951 233.204975 67.81155 232.908469 68.108056 
C 232.611963 68.404562 232.445364 68.806767 232.445364 69.22609 
C 232.445364 69.645413 232.611963 70.047618 232.908469 70.344124 
C 233.204975 70.64063 233.60718 70.807229 234.026503 70.807229 
z
" style="fill:#ffffff;"/>
   </g>
   <g id="PathCollection_14">
    <path clip-path="url(#p2d3a09ebd8)" d="M 234.026503 43.108087 
C 234.662438 43.108087 235.272412 42.855427 235.722086 42.405753 
C 236.17176 41.95608 236.424419 41.346106 236.424419 40.710171 
C 236.424419 40.074236 236.17176 39.464262 235.722086 39.014588 
C 235.272412 38.564915 234.662438 38.312255 234.026503 38.312255 
C 233.390569 38.312255 232.780595 38.564915 232.330921 39.014588 
C 231.881247 39.464262 231.628588 40.074236 231.628588 40.710171 
C 231.628588 41.346106 231.881247 41.95608 232.330921 42.405753 
C 232.780595 42.855427 233.390569 43.108087 234.026503 43.108087 
z
"/>
   </g>
   <g id="PathCollection_15">
    <path clip-path="url(#p2d3a09ebd8)" d="M 234.026503 43.108087 
C 234.662438 43.108087 235.272412 42.855427 235.722086 42.405753 
C 236.17176 41.95608 236.424419 41.346106 236.424419 40.710171 
C 236.424419 40.074236 236.17176 39.464262 235.722086 39.014588 
C 235.272412 38.564915 234.662438 38.312255 234.026503 38.312255 
C 233.390569 38.312255 232.780595 38.564915 232.330921 39.014588 
C 231.881247 39.464262 231.628588 40.074236 231.628588 40.710171 
C 231.628588 41.346106 231.881247 41.95608 232.330921 42.405753 
C 232.780595 42.855427 233.390569 43.108087 234.026503 43.108087 
z
"/>
   </g>
   <g id="PathCollection_16">
    <path clip-path="url(#p2d3a09ebd8)" d="M 234.026503 43.108087 
C 234.662438 43.108087 235.272412 42.855427 235.722086 42.405753 
C 236.17176 41.95608 236.424419 41.346106 236.424419 40.710171 
C 236.424419 40.074236 236.17176 39.464262 235.722086 39.014588 
C 235.272412 38.564915 234.662438 38.312255 234.026503 38.312255 
C 233.390569 38.312255 232.780595 38.564915 232.330921 39.014588 
C 231.881247 39.464262 231.628588 40.074236 231.628588 40.710171 
C 231.628588 41.346106 231.881247 41.95608 232.330921 42.405753 
C 232.780595 42.855427 233.390569 43.108087 234.026503 43.108087 
z
"/>
   </g>
   <g id="PathCollection_17">
    <path clip-path="url(#p2d3a09ebd8)" d="M 234.026503 28.850127 
C 234.662438 28.850127 235.272412 28.597468 235.722086 28.147794 
C 236.17176 27.69812 236.424419 27.088146 236.424419 26.452212 
C 236.424419 25.816277 236.17176 25.206303 235.722086 24.756629 
C 235.272412 24.306955 234.662438 24.054296 234.026503 24.054296 
C 233.390569 24.054296 232.780595 24.306955 232.330921 24.756629 
C 231.881247 25.206303 231.628588 25.816277 231.628588 26.452212 
C 231.628588 27.088146 231.881247 27.69812 232.330921 28.147794 
C 232.780595 28.597468 233.390569 28.850127 234.026503 28.850127 
z
"/>
   </g>
   <g id="PathCollection_18">
    <path clip-path="url(#p2d3a09ebd8)" d="M 234.026503 28.03335 
C 234.445826 28.03335 234.848031 27.866752 235.144537 27.570246 
C 235.441043 27.27374 235.607642 26.871535 235.607642 26.452212 
C 235.607642 26.032889 235.441043 25.630684 235.144537 25.334178 
C 234.848031 25.037672 234.445826 24.871073 234.026503 24.871073 
C 233.60718 24.871073 233.204975 25.037672 232.908469 25.334178 
C 232.611963 25.630684 232.445364 26.032889 232.445364 26.452212 
C 232.445364 26.871535 232.611963 27.27374 232.908469 27.570246 
C 233.204975 27.866752 233.60718 28.03335 234.026503 28.03335 
z
" style="fill:#ffffff;"/>
   </g>
   <g id="PathCollection_19">
    <path clip-path="url(#p2d3a09ebd8)" d="M 343.527631 63.06923 
C 344.163566 63.06923 344.77354 62.81657 345.223214 62.366897 
C 345.672888 61.917223 345.925547 61.307249 345.925547 60.671314 
C 345.925547 60.035379 345.672888 59.425405 345.223214 58.975732 
C 344.77354 58.526058 344.163566 58.273398 343.527631 58.273398 
C 342.891697 58.273398 342.281723 58.526058 341.832049 58.975732 
C 341.382375 59.425405 341.129716 60.035379 341.129716 60.671314 
C 341.129716 61.307249 341.382375 61.917223 341.832049 62.366897 
C 342.281723 62.81657 342.891697 63.06923 343.527631 63.06923 
z
"/>
   </g>
   <g id="PathCollection_20">
    <path clip-path="url(#p2d3a09ebd8)" d="M 343.527631 62.252453 
C 343.946954 62.252453 344.349159 62.085854 344.645665 61.789348 
C 344.942171 61.492842 345.10877 61.090637 345.10877 60.671314 
C 345.10877 60.251991 344.942171 59.849786 344.645665 59.55328 
C 344.349159 59.256774 343.946954 59.090175 343.527631 59.090175 
C 343.108308 59.090175 342.706103 59.256774 342.409597 59.55328 
C 342.113091 59.849786 341.946492 60.251991 341.946492 60.671314 
C 341.946492 61.090637 342.113091 61.492842 342.409597 61.789348 
C 342.706103 62.085854 343.108308 62.252453 343.527631 62.252453 
z
" style="fill:#ffffff;"/>
   </g>
   <g id="PathCollection_21">
    <path clip-path="url(#p2d3a09ebd8)" d="M 343.527631 20.295352 
C 344.163566 20.295352 344.77354 20.042692 345.223214 19.593018 
C 345.672888 19.143345 345.925547 18.533371 345.925547 17.897436 
C 345.925547 17.261501 345.672888 16.651527 345.223214 16.201853 
C 344.77354 15.75218 344.163566 15.49952 343.527631 15.49952 
C 342.891697 15.49952 342.281723 15.75218 341.832049 16.201853 
C 341.382375 16.651527 341.129716 17.261501 341.129716 17.897436 
C 341.129716 18.533371 341.382375 19.143345 341.832049 19.593018 
C 342.281723 20.042692 342.891697 20.295352 343.527631 20.295352 
z
"/>
   </g>
   <g id="matplotlib.axis_1">
    <g id="xtick_1">
     <g id="line2d_10">
      <path clip-path="url(#p2d3a09ebd8)" d="M 15.024247 87.704405 
L 15.024247 16.528672 
" style="fill:none;stroke:#000000;stroke-dasharray:0.5,0.825;stroke-dashoffset:0;stroke-width:0.5;"/>
     </g>
     <g id="line2d_11">
      <defs>
       <path d="M 0 0 
L 0 3.5 
" id="m0d44ae740d" style="stroke:#000000;stroke-width:0.8;"/>
      </defs>
      <g>
       <use style="stroke:#000000;stroke-width:0.8;" x="15.024247" xlink:href="#m0d44ae740d" y="86.335641"/>
      </g>
     </g>
    </g>
    <g id="xtick_2">
     <g id="line2d_12">
      <path clip-path="url(#p2d3a09ebd8)" d="M 343.527631 87.704405 
L 343.527631 16.528672 
" style="fill:none;stroke:#000000;stroke-dasharray:0.5,0.825;stroke-dashoffset:0;stroke-width:0.5;"/>
     </g>
     <g id="line2d_13">
      <g>
       <use style="stroke:#000000;stroke-width:0.8;" x="343.527631" xlink:href="#m0d44ae740d" y="86.335641"/>
      </g>
     </g>
     <g id="text_1">
      <!-- $f$ -->
      <defs>
       <path d="M 9.71875 -16.5 
Q 11.578125 -17.921875 14.203125 -17.921875 
Q 17.78125 -17.921875 20.015625 -10.015625 
Q 20.953125 -6.203125 25.09375 15.09375 
L 29.6875 39.59375 
L 21.09375 39.59375 
Q 20.125 39.59375 20.125 40.921875 
Q 20.515625 43.109375 21.390625 43.109375 
L 30.328125 43.109375 
L 31.5 49.609375 
Q 32.078125 52.640625 32.5625 54.8125 
Q 33.0625 56.984375 33.625 58.828125 
Q 34.1875 60.6875 35.296875 62.984375 
Q 37.015625 66.265625 39.921875 68.390625 
Q 42.828125 70.515625 46.1875 70.515625 
Q 48.390625 70.515625 50.46875 69.703125 
Q 52.546875 68.890625 53.859375 67.28125 
Q 55.171875 65.671875 55.171875 63.484375 
Q 55.171875 60.9375 53.484375 59.046875 
Q 51.8125 57.171875 49.421875 57.171875 
Q 47.796875 57.171875 46.65625 58.171875 
Q 45.515625 59.1875 45.515625 60.796875 
Q 45.515625 62.984375 47 64.625 
Q 48.484375 66.265625 50.6875 66.5 
Q 48.828125 67.921875 46.09375 67.921875 
Q 44.578125 67.921875 43.234375 66.5 
Q 41.890625 65.09375 41.5 63.484375 
Q 40.875 60.9375 38.71875 49.703125 
L 37.5 43.109375 
L 47.796875 43.109375 
Q 48.78125 43.109375 48.78125 41.796875 
Q 48.734375 41.546875 48.578125 40.9375 
Q 48.4375 40.328125 48.171875 39.953125 
Q 47.90625 39.59375 47.515625 39.59375 
L 36.8125 39.59375 
L 32.171875 15.1875 
Q 31.296875 9.859375 30.140625 4.359375 
Q 29 -1.125 26.921875 -6.90625 
Q 24.859375 -12.703125 21.625 -16.609375 
Q 18.40625 -20.515625 14.015625 -20.515625 
Q 10.640625 -20.515625 7.984375 -18.578125 
Q 5.328125 -16.65625 5.328125 -13.484375 
Q 5.328125 -10.9375 6.953125 -9.046875 
Q 8.59375 -7.171875 11.078125 -7.171875 
Q 12.75 -7.171875 13.859375 -8.171875 
Q 14.984375 -9.1875 14.984375 -10.796875 
Q 14.984375 -12.9375 13.390625 -14.71875 
Q 11.8125 -16.5 9.71875 -16.5 
z
" id="Cmmi10-66"/>
      </defs>
      <g transform="translate(341.077631 100.913766)scale(0.1 -0.1)">
       <use transform="translate(0 0.484375)" xlink:href="#Cmmi10-66"/>
      </g>
     </g>
    </g>
    <g id="xtick_3">
     <g id="line2d_14">
      <path clip-path="url(#p2d3a09ebd8)" d="M 562.529887 87.704405 
L 562.529887 16.528672 
" style="fill:none;stroke:#000000;stroke-dasharray:0.5,0.825;stroke-dashoffset:0;stroke-width:0.5;"/>
     </g>
     <g id="line2d_15">
      <g>
       <use style="stroke:#000000;stroke-width:0.8;" x="562.529887" xlink:href="#m0d44ae740d" y="86.335641"/>
      </g>
     </g>
     <g id="text_2">
      <!-- $1$ -->
      <defs>
       <path d="M 9.28125 0 
L 9.28125 3.515625 
Q 21.78125 3.515625 21.78125 6.6875 
L 21.78125 59.1875 
Q 16.609375 56.6875 8.6875 56.6875 
L 8.6875 60.203125 
Q 20.953125 60.203125 27.203125 66.609375 
L 28.609375 66.609375 
Q 28.953125 66.609375 29.265625 66.328125 
Q 29.59375 66.0625 29.59375 65.71875 
L 29.59375 6.6875 
Q 29.59375 3.515625 42.09375 3.515625 
L 42.09375 0 
z
" id="Cmr10-31"/>
      </defs>
      <g transform="translate(560.029887 100.934078)scale(0.1 -0.1)">
       <use transform="translate(0 0.390625)" xlink:href="#Cmr10-31"/>
      </g>
     </g>
    </g>
   </g>
   <g id="matplotlib.axis_2">
    <g id="ytick_1">
     <g id="line2d_16">
      <path clip-path="url(#p2d3a09ebd8)" d="M 4.074135 86.335641 
L 573.48 86.335641 
" style="fill:none;stroke:#000000;stroke-dasharray:0.5,0.825;stroke-dashoffset:0;stroke-width:0.5;"/>
     </g>
     <g id="line2d_17">
      <defs>
       <path d="M 0 0 
L -3.5 0 
" id="m75a496ef5b" style="stroke:#000000;stroke-width:0.8;"/>
      </defs>
      <g>
       <use style="stroke:#000000;stroke-width:0.8;" x="15.024247" xlink:href="#m75a496ef5b" y="86.335641"/>
      </g>
     </g>
    </g>
    <g id="ytick_2">
     <g id="line2d_18">
      <path clip-path="url(#p2d3a09ebd8)" d="M 4.074135 17.897436 
L 573.48 17.897436 
" style="fill:none;stroke:#000000;stroke-dasharray:0.5,0.825;stroke-dashoffset:0;stroke-width:0.5;"/>
     </g>
     <g id="line2d_19">
      <g>
       <use style="stroke:#000000;stroke-width:0.8;" x="15.024247" xlink:href="#m75a496ef5b" y="17.897436"/>
      </g>
     </g>
     <g id="text_3">
      <!-- $1$ -->
      <g transform="translate(3.024247 21.696655)scale(0.1 -0.1)">
       <use transform="translate(0 0.390625)" xlink:href="#Cmr10-31"/>
      </g>
     </g>
    </g>
   </g>
   <g id="patch_3">
    <path d="M 15.024247 87.704405 
L 15.024247 16.528672 
" style="fill:none;stroke:#000000;stroke-linecap:square;stroke-linejoin:miter;stroke-width:0.8;"/>
   </g>
   <g id="patch_4">
    <path d="M 4.074135 86.335641 
L 573.48 86.335641 
" style="fill:none;stroke:#000000;stroke-linecap:square;stroke-linejoin:miter;stroke-width:0.8;"/>
   </g>
  </g>
 </g>
 <defs>
  <clipPath id="p2d3a09ebd8">
   <rect height="71.175733" width="569.405865" x="4.074135" y="16.528672"/>
  </clipPath>
 </defs>
</svg>
