<?xml version="1.0" encoding="utf-8" standalone="no"?>
<!DOCTYPE svg PUBLIC "-//W3C//DTD SVG 1.1//EN"
  "http://www.w3.org/Graphics/SVG/1.1/DTD/svg11.dtd">
<!-- Created with matplotlib (http://matplotlib.org/) -->
<svg height="108pt" version="1.1" viewBox="0 0 576 108" width="576pt" xmlns="http://www.w3.org/2000/svg" xmlns:xlink="http://www.w3.org/1999/xlink">
 <defs>
  <style type="text/css">
*{stroke-linecap:butt;stroke-linejoin:round;}
  </style>
 </defs>
 <g id="figure_1">
  <g id="patch_1">
   <path d="M 0 108 
L 576 108 
L 576 0 
L 0 0 
z
" style="fill:#ffffff;"/>
  </g>
  <g id="axes_1">
   <g id="patch_2">
    <path d="M 4.074135 87.704405 
L 573.48 87.704405 
L 573.48 16.528672 
L 4.074135 16.528672 
z
" style="fill:#ffffff;"/>
   </g>
   <g id="line2d_1">
    <path clip-path="url(#pe54e4f6d07)" d="M 34.57802 52.116538 
L 54.131793 52.116538 
L 54.131793 52.116538 
" style="fill:none;stroke:#ff0000;stroke-linecap:square;stroke-width:2;"/>
   </g>
   <g id="line2d_2">
    <path clip-path="url(#pe54e4f6d07)" d="M 73.685566 35.006987 
L 112.793112 35.006987 
L 112.793112 35.006987 
" style="fill:none;stroke:#ff0000;stroke-linecap:square;stroke-width:2;"/>
   </g>
   <g id="line2d_3">
    <path clip-path="url(#pe54e4f6d07)" d="M 132.346885 52.116538 
L 171.45443 52.116538 
L 171.45443 52.116538 
" style="fill:none;stroke:#ff0000;stroke-linecap:square;stroke-width:2;"/>
   </g>
   <g id="line2d_4">
    <path clip-path="url(#pe54e4f6d07)" d="M 191.008203 69.22609 
L 230.115749 69.22609 
L 230.115749 69.22609 
" style="fill:none;stroke:#ff0000;stroke-linecap:square;stroke-width:2;"/>
   </g>
   <g id="line2d_5">
    <path clip-path="url(#pe54e4f6d07)" d="M 249.669522 52.116538 
L 269.223294 52.116538 
L 269.223294 52.116538 
" style="fill:none;stroke:#ff0000;stroke-linecap:square;stroke-width:2;"/>
   </g>
   <g id="line2d_6">
    <path clip-path="url(#pe54e4f6d07)" d="M 347.438386 52.116538 
L 366.992159 52.116538 
L 366.992159 52.116538 
" style="fill:none;stroke:#ff0000;stroke-linecap:square;stroke-width:2;"/>
   </g>
   <g id="line2d_7">
    <path clip-path="url(#pe54e4f6d07)" d="M 406.099704 52.116538 
L 445.20725 52.116538 
L 445.20725 52.116538 
" style="fill:none;stroke:#ff0000;stroke-linecap:square;stroke-width:2;"/>
   </g>
   <g id="line2d_8">
    <path clip-path="url(#pe54e4f6d07)" d="M 484.314796 52.116538 
L 503.868569 52.116538 
L 503.868569 52.116538 
" style="fill:none;stroke:#ff0000;stroke-linecap:square;stroke-width:2;"/>
   </g>
   <g id="line2d_9">
    <path clip-path="url(#pe54e4f6d07)" d="M 112.793112 35.006987 
L 132.346885 52.116538 
L 132.346885 52.116538 
" style="fill:none;stroke:#cbff00;stroke-linecap:square;stroke-width:2;"/>
   </g>
   <g id="line2d_10">
    <path clip-path="url(#pe54e4f6d07)" d="M 171.45443 52.116538 
L 191.008203 69.22609 
L 191.008203 69.22609 
" style="fill:none;stroke:#cbff00;stroke-linecap:square;stroke-width:2;"/>
   </g>
   <g id="line2d_11">
    <path clip-path="url(#pe54e4f6d07)" d="M 327.884613 35.006987 
L 327.97898 35.089559 
L 328.047295 35.149334 
L 328.174816 35.260915 
L 328.297715 35.368451 
L 328.328161 35.395091 
L 328.489793 35.53652 
L 328.565651 35.602896 
L 328.672121 35.696057 
L 328.800081 35.808021 
L 328.911127 35.905187 
L 329.008782 35.990635 
L 329.014725 35.995835 
L 329.113439 36.08221 
L 329.26973 36.218965 
L 329.310904 36.254992 
L 329.458793 36.384394 
L 329.549095 36.463409 
L 329.641879 36.544595 
L 329.704106 36.599043 
L 329.880597 36.753474 
L 329.958062 36.821255 
L 329.997691 36.855931 
L 330.157757 36.995989 
L 330.273856 37.097575 
L 330.318033 37.13623 
L 330.441378 37.244157 
L 330.583003 37.368079 
L 330.671975 37.445929 
L 330.704598 37.474474 
L 330.84931 37.601097 
L 330.944295 37.684209 
L 331.066366 37.791021 
L 331.159008 37.872083 
L 331.210678 37.917294 
L 331.287458 37.984477 
L 331.448953 38.125784 
L 331.486903 38.158991 
L 331.641529 38.294289 
L 331.680433 38.32833 
L 331.817787 38.448514 
L 331.924065 38.541508 
L 331.997546 38.605803 
L 332.073868 38.672586 
L 332.188831 38.773178 
L 332.323401 38.890927 
L 332.428191 38.982618 
L 332.461243 39.011539 
L 332.589499 39.123763 
L 332.730771 39.247375 
L 332.828566 39.332946 
L 332.92755 39.419557 
L 333.028384 39.507786 
L 333.068308 39.54272 
L 333.17776 39.638491 
L 333.336955 39.777786 
L 333.357185 39.795488 
L 333.484019 39.906468 
L 333.611576 40.01808 
L 333.681016 40.07884 
L 333.773904 40.160116 
L 333.899669 40.270162 
L 333.972212 40.333636 
L 334.045387 40.397664 
L 334.156592 40.494969 
L 334.246888 40.573977 
L 334.352681 40.666546 
L 334.492032 40.788478 
L 334.552797 40.841648 
L 334.682523 40.955158 
L 334.72178 40.989509 
L 334.891462 41.13798 
L 334.991061 41.225129 
L 335.012888 41.244227 
L 335.157292 41.370581 
L 335.26467 41.464537 
L 335.383296 41.568335 
L 335.48789 41.659855 
L 335.571298 41.732837 
L 335.609061 41.76588 
L 335.725952 41.868159 
L 335.830598 41.959724 
L 335.913637 42.032383 
L 336.074253 42.172922 
L 336.164617 42.251991 
L 336.231508 42.310521 
L 336.375552 42.436559 
L 336.463429 42.513451 
L 336.572017 42.608466 
L 336.676685 42.70005 
L 336.707018 42.726591 
L 336.823583 42.828586 
L 336.921616 42.914365 
" style="fill:none;stroke:#cbff00;stroke-linecap:square;stroke-width:2;"/>
   </g>
   <g id="line2d_12">
    <path clip-path="url(#pe54e4f6d07)" d="M 337.253078 43.204394 
L 337.338785 43.279388 
L 337.39426 43.327929 
L 337.49292 43.414256 
L 337.60562 43.512868 
L 337.74146 43.631729 
L 337.809577 43.691331 
L 337.932305 43.798718 
L 338.021949 43.877157 
L 338.077575 43.925829 
L 338.234907 44.063495 
L 338.280333 44.103242 
L 338.369012 44.180836 
L 338.511116 44.305177 
L 338.582291 44.367456 
L 338.695341 44.466375 
L 338.776119 44.537055 
L 338.930076 44.671767 
L 338.982563 44.717694 
L 339.127327 44.844362 
L 339.220076 44.925518 
L 339.256418 44.957317 
L 339.336146 45.027079 
L 339.490967 45.162547 
L 339.547388 45.211915 
L 339.659171 45.309726 
L 339.775691 45.41168 
L 339.853029 45.479351 
L 339.996007 45.604457 
L 340.024088 45.629028 
L 340.13709 45.727904 
L 340.267415 45.841939 
L 340.351255 45.915299 
L 340.452631 46.004003 
L 340.556687 46.095052 
L 340.68667 46.208787 
L 340.77388 46.285096 
L 340.867154 46.36671 
L 340.938033 46.42873 
L 341.015309 46.496346 
L 341.177279 46.63807 
L 341.258882 46.709473 
L 341.38286 46.817953 
L 341.428113 46.85755 
L 341.536945 46.952778 
L 341.622977 47.028056 
L 341.778947 47.164529 
L 341.867688 47.242178 
L 341.94147 47.306737 
L 342.053223 47.404521 
L 342.121114 47.463926 
L 342.219943 47.550401 
L 342.283954 47.60641 
L 342.438044 47.74124 
L 342.485686 47.782926 
L 342.595582 47.879085 
L 342.696135 47.967069 
L 342.818036 48.073732 
L 342.886693 48.133807 
L 343.025984 48.255687 
L 343.088286 48.310201 
L 343.22012 48.425556 
L 343.348895 48.538234 
L 343.42412 48.604056 
L 343.53163 48.698127 
L 343.600337 48.758246 
L 343.70573 48.850464 
L 343.829661 48.958904 
L 343.929613 49.046362 
L 344.021498 49.126761 
L 344.092042 49.188488 
L 344.183489 49.268504 
L 344.306857 49.376451 
L 344.425447 49.480217 
L 344.48793 49.53489 
L 344.623837 49.653809 
L 344.728207 49.745132 
L 344.820816 49.826164 
L 344.906541 49.901175 
L 345.009433 49.991205 
L 345.065677 50.040418 
L 345.180325 50.140735 
L 345.274833 50.22343 
L 345.398816 50.331915 
L 345.480672 50.403538 
L 345.61621 50.522135 
L 345.672411 50.57131 
L 345.740939 50.631273 
L 345.897283 50.768073 
L 346.00559 50.862842 
L 346.11067 50.954787 
L 346.149245 50.98854 
L 346.236346 51.064754 
L 346.401398 51.209174 
L 346.49256 51.28894 
L 346.595943 51.379401 
L 346.660681 51.436047 
L 346.752572 51.516452 
L 346.885411 51.632685 
L 346.933867 51.675084 
L 347.063467 51.788485 
L 347.149118 51.863429 
L 347.204237 51.911659 
L 347.296083 51.992024 
L 347.438386 52.116538 
" style="fill:none;stroke:#cbff00;stroke-linecap:square;stroke-width:2;"/>
   </g>
   <g id="line2d_13">
    <path clip-path="url(#pe54e4f6d07)" d="M 366.992159 52.116538 
L 386.545932 69.22609 
L 386.545932 69.22609 
" style="fill:none;stroke:#cbff00;stroke-linecap:square;stroke-width:2;"/>
   </g>
   <g id="line2d_14">
    <path clip-path="url(#pe54e4f6d07)" d="M 464.761023 35.006987 
L 484.314796 52.116538 
L 484.314796 52.116538 
" style="fill:none;stroke:#cbff00;stroke-linecap:square;stroke-width:2;"/>
   </g>
   <g id="line2d_15">
    <path clip-path="url(#pe54e4f6d07)" d="M 503.868569 52.116538 
L 523.422342 69.22609 
L 523.422342 69.22609 
" style="fill:none;stroke:#cbff00;stroke-linecap:square;stroke-width:2;"/>
   </g>
   <g id="line2d_16">
    <path clip-path="url(#pe54e4f6d07)" d="M 288.777067 17.897436 
L 308.33084 69.22609 
L 308.33084 69.22609 
" style="fill:none;stroke:#00ff66;stroke-linecap:square;stroke-width:2;"/>
   </g>
   <g id="line2d_17">
    <path clip-path="url(#pe54e4f6d07)" d="M 542.976114 35.006987 
L 562.529887 86.335641 
L 562.529887 86.335641 
" style="fill:none;stroke:#00ff66;stroke-linecap:square;stroke-width:2;"/>
   </g>
   <g id="line2d_18">
    <path clip-path="url(#pe54e4f6d07)" d="M 15.024247 86.335641 
L 34.57802 52.116538 
L 34.57802 52.116538 
" style="fill:none;stroke:#0066ff;stroke-linecap:square;stroke-width:2;"/>
   </g>
   <g id="line2d_19">
    <path clip-path="url(#pe54e4f6d07)" d="M 269.223294 52.116538 
L 288.777067 17.897436 
L 288.777067 17.897436 
" style="fill:none;stroke:#0066ff;stroke-linecap:square;stroke-width:2;"/>
   </g>
   <g id="line2d_20">
    <path clip-path="url(#pe54e4f6d07)" d="M 308.33084 69.22609 
L 327.884613 35.006987 
L 327.884613 35.006987 
" style="fill:none;stroke:#0066ff;stroke-linecap:square;stroke-width:2;"/>
   </g>
   <g id="line2d_21">
    <path clip-path="url(#pe54e4f6d07)" d="M 523.422342 69.22609 
L 542.976114 35.006987 
L 542.976114 35.006987 
" style="fill:none;stroke:#0066ff;stroke-linecap:square;stroke-width:2;"/>
   </g>
   <g id="line2d_22">
    <path clip-path="url(#pe54e4f6d07)" d="M 54.131793 52.116538 
L 73.685566 35.006987 
L 73.685566 35.006987 
" style="fill:none;stroke:#cc00ff;stroke-linecap:square;stroke-width:2;"/>
   </g>
   <g id="line2d_23">
    <path clip-path="url(#pe54e4f6d07)" d="M 230.115749 69.22609 
L 249.669522 52.116538 
L 249.669522 52.116538 
" style="fill:none;stroke:#cc00ff;stroke-linecap:square;stroke-width:2;"/>
   </g>
   <g id="line2d_24">
    <path clip-path="url(#pe54e4f6d07)" d="M 386.545932 69.22609 
L 406.099704 52.116538 
L 406.099704 52.116538 
" style="fill:none;stroke:#cc00ff;stroke-linecap:square;stroke-width:2;"/>
   </g>
   <g id="line2d_25">
    <path clip-path="url(#pe54e4f6d07)" d="M 445.20725 52.116538 
L 464.761023 35.006987 
L 464.761023 35.006987 
" style="fill:none;stroke:#cc00ff;stroke-linecap:square;stroke-width:2;"/>
   </g>
   <g id="matplotlib.axis_1">
    <g id="xtick_1">
     <g id="line2d_26">
      <path clip-path="url(#pe54e4f6d07)" d="M 15.024247 87.704405 
L 15.024247 16.528672 
" style="fill:none;stroke:#000000;stroke-dasharray:0.5,0.825;stroke-dashoffset:0;stroke-width:0.5;"/>
     </g>
     <g id="line2d_27">
      <defs>
       <path d="M 0 0 
L 0 3.5 
" id="m832d20c6ef" style="stroke:#000000;stroke-width:0.8;"/>
      </defs>
      <g>
       <use style="stroke:#000000;stroke-width:0.8;" x="15.024247" xlink:href="#m832d20c6ef" y="86.335641"/>
      </g>
     </g>
    </g>
    <g id="xtick_2">
     <g id="line2d_28">
      <path clip-path="url(#pe54e4f6d07)" d="M 288.777067 87.704405 
L 288.777067 16.528672 
" style="fill:none;stroke:#000000;stroke-dasharray:0.5,0.825;stroke-dashoffset:0;stroke-width:0.5;"/>
     </g>
     <g id="line2d_29">
      <g>
       <use style="stroke:#000000;stroke-width:0.8;" x="288.777067" xlink:href="#m832d20c6ef" y="86.335641"/>
      </g>
     </g>
     <g id="text_1">
      <!-- $f$ -->
      <defs>
       <path d="M 9.71875 -16.5 
Q 11.578125 -17.921875 14.203125 -17.921875 
Q 17.78125 -17.921875 20.015625 -10.015625 
Q 20.953125 -6.203125 25.09375 15.09375 
L 29.6875 39.59375 
L 21.09375 39.59375 
Q 20.125 39.59375 20.125 40.921875 
Q 20.515625 43.109375 21.390625 43.109375 
L 30.328125 43.109375 
L 31.5 49.609375 
Q 32.078125 52.640625 32.5625 54.8125 
Q 33.0625 56.984375 33.625 58.828125 
Q 34.1875 60.6875 35.296875 62.984375 
Q 37.015625 66.265625 39.921875 68.390625 
Q 42.828125 70.515625 46.1875 70.515625 
Q 48.390625 70.515625 50.46875 69.703125 
Q 52.546875 68.890625 53.859375 67.28125 
Q 55.171875 65.671875 55.171875 63.484375 
Q 55.171875 60.9375 53.484375 59.046875 
Q 51.8125 57.171875 49.421875 57.171875 
Q 47.796875 57.171875 46.65625 58.171875 
Q 45.515625 59.1875 45.515625 60.796875 
Q 45.515625 62.984375 47 64.625 
Q 48.484375 66.265625 50.6875 66.5 
Q 48.828125 67.921875 46.09375 67.921875 
Q 44.578125 67.921875 43.234375 66.5 
Q 41.890625 65.09375 41.5 63.484375 
Q 40.875 60.9375 38.71875 49.703125 
L 37.5 43.109375 
L 47.796875 43.109375 
Q 48.78125 43.109375 48.78125 41.796875 
Q 48.734375 41.546875 48.578125 40.9375 
Q 48.4375 40.328125 48.171875 39.953125 
Q 47.90625 39.59375 47.515625 39.59375 
L 36.8125 39.59375 
L 32.171875 15.1875 
Q 31.296875 9.859375 30.140625 4.359375 
Q 29 -1.125 26.921875 -6.90625 
Q 24.859375 -12.703125 21.625 -16.609375 
Q 18.40625 -20.515625 14.015625 -20.515625 
Q 10.640625 -20.515625 7.984375 -18.578125 
Q 5.328125 -16.65625 5.328125 -13.484375 
Q 5.328125 -10.9375 6.953125 -9.046875 
Q 8.59375 -7.171875 11.078125 -7.171875 
Q 12.75 -7.171875 13.859375 -8.171875 
Q 14.984375 -9.1875 14.984375 -10.796875 
Q 14.984375 -12.9375 13.390625 -14.71875 
Q 11.8125 -16.5 9.71875 -16.5 
z
" id="Cmmi10-66"/>
      </defs>
      <g transform="translate(286.327067 100.913766)scale(0.1 -0.1)">
       <use transform="translate(0 0.484375)" xlink:href="#Cmmi10-66"/>
      </g>
     </g>
    </g>
    <g id="xtick_3">
     <g id="line2d_30">
      <path clip-path="url(#pe54e4f6d07)" d="M 562.529887 87.704405 
L 562.529887 16.528672 
" style="fill:none;stroke:#000000;stroke-dasharray:0.5,0.825;stroke-dashoffset:0;stroke-width:0.5;"/>
     </g>
     <g id="line2d_31">
      <g>
       <use style="stroke:#000000;stroke-width:0.8;" x="562.529887" xlink:href="#m832d20c6ef" y="86.335641"/>
      </g>
     </g>
     <g id="text_2">
      <!-- $1$ -->
      <defs>
       <path d="M 9.28125 0 
L 9.28125 3.515625 
Q 21.78125 3.515625 21.78125 6.6875 
L 21.78125 59.1875 
Q 16.609375 56.6875 8.6875 56.6875 
L 8.6875 60.203125 
Q 20.953125 60.203125 27.203125 66.609375 
L 28.609375 66.609375 
Q 28.953125 66.609375 29.265625 66.328125 
Q 29.59375 66.0625 29.59375 65.71875 
L 29.59375 6.6875 
Q 29.59375 3.515625 42.09375 3.515625 
L 42.09375 0 
z
" id="Cmr10-31"/>
      </defs>
      <g transform="translate(560.029887 100.934078)scale(0.1 -0.1)">
       <use transform="translate(0 0.390625)" xlink:href="#Cmr10-31"/>
      </g>
     </g>
    </g>
   </g>
   <g id="matplotlib.axis_2">
    <g id="ytick_1">
     <g id="line2d_32">
      <path clip-path="url(#pe54e4f6d07)" d="M 4.074135 86.335641 
L 573.48 86.335641 
" style="fill:none;stroke:#000000;stroke-dasharray:0.5,0.825;stroke-dashoffset:0;stroke-width:0.5;"/>
     </g>
     <g id="line2d_33">
      <defs>
       <path d="M 0 0 
L -3.5 0 
" id="mbed8a9e360" style="stroke:#000000;stroke-width:0.8;"/>
      </defs>
      <g>
       <use style="stroke:#000000;stroke-width:0.8;" x="15.024247" xlink:href="#mbed8a9e360" y="86.335641"/>
      </g>
     </g>
    </g>
    <g id="ytick_2">
     <g id="line2d_34">
      <path clip-path="url(#pe54e4f6d07)" d="M 4.074135 17.897436 
L 573.48 17.897436 
" style="fill:none;stroke:#000000;stroke-dasharray:0.5,0.825;stroke-dashoffset:0;stroke-width:0.5;"/>
     </g>
     <g id="line2d_35">
      <g>
       <use style="stroke:#000000;stroke-width:0.8;" x="15.024247" xlink:href="#mbed8a9e360" y="17.897436"/>
      </g>
     </g>
     <g id="text_3">
      <!-- $1$ -->
      <g transform="translate(3.024247 21.696655)scale(0.1 -0.1)">
       <use transform="translate(0 0.390625)" xlink:href="#Cmr10-31"/>
      </g>
     </g>
    </g>
   </g>
   <g id="patch_3">
    <path d="M 15.024247 87.704405 
L 15.024247 16.528672 
" style="fill:none;stroke:#000000;stroke-linecap:square;stroke-linejoin:miter;stroke-width:0.8;"/>
   </g>
   <g id="patch_4">
    <path d="M 4.074135 86.335641 
L 573.48 86.335641 
" style="fill:none;stroke:#000000;stroke-linecap:square;stroke-linejoin:miter;stroke-width:0.8;"/>
   </g>
  </g>
 </g>
 <defs>
  <clipPath id="pe54e4f6d07">
   <rect height="71.175733" width="569.405865" x="4.074135" y="16.528672"/>
  </clipPath>
 </defs>
</svg>
