<?xml version="1.0" encoding="utf-8" standalone="no"?>
<!DOCTYPE svg PUBLIC "-//W3C//DTD SVG 1.1//EN"
  "http://www.w3.org/Graphics/SVG/1.1/DTD/svg11.dtd">
<!-- Created with matplotlib (http://matplotlib.org/) -->
<svg height="108pt" version="1.1" viewBox="0 0 576 108" width="576pt" xmlns="http://www.w3.org/2000/svg" xmlns:xlink="http://www.w3.org/1999/xlink">
 <defs>
  <style type="text/css">
*{stroke-linecap:butt;stroke-linejoin:round;}
  </style>
 </defs>
 <g id="figure_1">
  <g id="patch_1">
   <path d="M 0 108 
L 576 108 
L 576 0 
L 0 0 
z
" style="fill:#ffffff;"/>
  </g>
  <g id="axes_1">
   <g id="patch_2">
    <path d="M 4.074135 87.704405 
L 573.48 87.704405 
L 573.48 16.528672 
L 4.074135 16.528672 
z
" style="fill:#ffffff;"/>
   </g>
   <g id="line2d_1">
    <path clip-path="url(#p2fc73be381)" d="M 15.024247 52.116538 
L 83.462452 69.22609 
L 83.462452 69.22609 
" style="fill:none;stroke:#000000;stroke-linecap:square;stroke-width:2;"/>
   </g>
   <g id="line2d_2">
    <path clip-path="url(#p2fc73be381)" d="M 83.462452 69.22609 
L 220.338862 35.006987 
L 220.338862 35.006987 
" style="fill:none;stroke:#000000;stroke-linecap:square;stroke-width:2;"/>
   </g>
   <g id="line2d_3">
    <path clip-path="url(#p2fc73be381)" d="M 220.338862 35.006987 
L 220.62262 35.077927 
L 221.182689 35.217944 
L 221.200948 35.222509 
L 221.582869 35.317989 
L 222.197192 35.47157 
L 222.25593 35.486254 
L 222.803056 35.623036 
L 223.048696 35.684446 
L 223.528918 35.804501 
L 223.645894 35.833745 
L 224.116933 35.951505 
L 224.563125 36.063053 
L 224.727131 36.104054 
L 225.175592 36.21617 
L 225.561983 36.312767 
L 225.908015 36.399275 
L 226.226299 36.478846 
L 226.652083 36.585292 
L 226.911609 36.650174 
L 227.094926 36.696003 
L 227.445146 36.783558 
L 227.814999 36.876021 
L 228.183109 36.968049 
L 228.529784 37.054718 
L 228.953409 37.160624 
L 229.174396 37.215871 
L 229.495347 37.296108 
L 229.812192 37.37532 
L 230.30392 37.498252 
L 230.619321 37.577102 
L 230.882597 37.642921 
L 231.308058 37.749286 
L 231.630345 37.829858 
L 231.990025 37.919778 
L 232.292933 37.995505 
L 232.711909 38.100249 
L 233.171058 38.215036 
L 233.337564 38.256663 
L 233.620774 38.327465 
L 234.216259 38.476336 
L 234.382929 38.518004 
L 234.946888 38.658994 
L 235.222286 38.727843 
L 235.496801 38.796472 
L 235.775772 38.866215 
L 236.046746 38.933958 
L 236.58488 39.068492 
L 236.711366 39.100113 
L 237.15349 39.210644 
L 237.678947 39.342008 
L 237.898007 39.396773 
L 238.186976 39.469016 
L 238.653044 39.585533 
L 238.963759 39.663211 
L 239.33867 39.756939 
L 239.426928 39.779004 
L 239.872179 39.890316 
L 240.131931 39.955254 
L 240.599768 40.072214 
L 241.104151 40.198309 
L 241.312869 40.250489 
L 241.792912 40.3705 
L 242.093302 40.445597 
L 242.38439 40.518369 
L 242.721466 40.602638 
L 243.06483 40.688479 
L 243.226527 40.728903 
L 243.735772 40.856215 
L 244.233833 40.98073 
L 244.511418 41.050126 
L 244.847175 41.134065 
L 245.113942 41.200757 
L 245.38764 41.269182 
L 245.845146 41.383558 
L 246.156485 41.461393 
L 246.353763 41.510712 
L 246.80947 41.624639 
L 247.278711 41.741949 
L 247.441392 41.78262 
L 247.901655 41.897685 
L 248.215357 41.976111 
L 248.459972 42.037265 
L 248.958484 42.161893 
L 249.36492 42.263502 
L 249.708443 42.349382 
L 249.976677 42.416441 
L 250.249105 42.484548 
L 250.64742 42.584127 
L 250.78836 42.619362 
L 251.209444 42.724633 
L 251.605173 42.823565 
L 251.819087 42.877043 
L 252.378287 43.016843 
L 252.783193 43.11807 
L 252.853481 43.135642 
L 253.452651 43.285434 
L 253.548146 43.309308 
L 254.015217 43.426076 
L 254.537313 43.5566 
L 254.687854 43.594235 
L 254.994282 43.670842 
L 255.437753 43.78171 
L 255.620865 43.827488 
L 256.073518 43.940651 
L 256.35361 44.010674 
L 256.624373 44.078365 
L 257.236354 44.23136 
L 257.452254 44.285335 
L 257.961313 44.4126 
L 258.04917 44.434564 
L 258.346172 44.508815 
L 258.961612 44.662675 
L 259.324934 44.753505 
L 259.515948 44.801259 
L 259.954148 44.910809 
L 260.346615 45.008925 
L 260.615078 45.076041 
L 260.880707 45.142448 
L 261.421359 45.277611 
L 261.6788 45.341972 
L 262.101656 45.447686 
L 262.277703 45.491697 
" style="fill:none;stroke:#000000;stroke-linecap:square;stroke-width:2;"/>
   </g>
   <g id="line2d_4">
    <path clip-path="url(#p2fc73be381)" d="M 263.186564 45.718913 
L 263.750186 45.859818 
L 263.965805 45.913723 
L 264.342932 46.008005 
L 264.851055 46.135035 
L 265.173126 46.215553 
L 265.341222 46.257577 
L 265.645065 46.333538 
L 266.128603 46.454422 
L 266.40232 46.522852 
L 266.772407 46.615373 
L 266.948656 46.659436 
L 267.545013 46.808525 
L 267.691173 46.845065 
L 267.987102 46.919047 
L 268.515112 47.05105 
L 268.754162 47.110812 
L 269.260241 47.237332 
L 269.479429 47.292129 
L 269.862382 47.387867 
L 270.247239 47.484081 
L 270.588026 47.569278 
L 270.728822 47.604477 
L 271.289649 47.744684 
L 271.431932 47.780255 
L 272.010762 47.924962 
L 272.414921 48.026002 
L 272.708806 48.099473 
L 272.898786 48.146968 
L 273.131265 48.205088 
L 273.616454 48.326385 
L 273.929909 48.404749 
L 274.434832 48.53098 
L 274.784356 48.618361 
L 274.902042 48.647782 
L 275.461831 48.787729 
L 275.553682 48.810692 
L 276.180292 48.967345 
L 276.549614 49.059675 
L 276.721217 49.102576 
L 277.047893 49.184245 
L 277.565 49.313522 
L 277.814779 49.375966 
L 278.049618 49.434676 
L 278.594512 49.5709 
L 278.684917 49.593501 
L 278.997141 49.671557 
L 279.413502 49.775647 
L 280.00313 49.923054 
L 280.164311 49.96335 
L 280.455923 50.036252 
L 281.032459 50.180386 
L 281.280065 50.242288 
L 281.544148 50.308309 
L 281.730459 50.354886 
L 282.382407 50.517873 
L 282.753958 50.610761 
L 283.076502 50.691397 
L 283.356573 50.761415 
L 283.74372 50.858202 
L 283.95599 50.911269 
L 284.264632 50.98843 
L 284.543386 51.058118 
L 285.136944 51.206508 
L 285.400126 51.272303 
L 285.539603 51.307172 
L 286.034329 51.430854 
L 286.418639 51.526931 
L 286.87661 51.641424 
L 286.983154 51.66806 
L 287.263334 51.738105 
L 287.681622 51.842677 
L 287.97197 51.915264 
L 288.39631 52.021349 
L 288.777067 52.116538 
" style="fill:none;stroke:#000000;stroke-linecap:square;stroke-width:2;"/>
   </g>
   <g id="line2d_5">
    <path clip-path="url(#p2fc73be381)" d="M 288.777067 52.116538 
L 357.215272 35.006987 
L 357.215272 35.006987 
" style="fill:none;stroke:#000000;stroke-linecap:square;stroke-width:2;"/>
   </g>
   <g id="line2d_6">
    <path clip-path="url(#p2fc73be381)" d="M 357.215272 35.006987 
L 494.091682 69.22609 
L 494.091682 69.22609 
" style="fill:none;stroke:#000000;stroke-linecap:square;stroke-width:2;"/>
   </g>
   <g id="line2d_7">
    <path clip-path="url(#p2fc73be381)" d="M 494.091682 69.22609 
L 562.529887 52.116538 
L 562.529887 52.116538 
" style="fill:none;stroke:#000000;stroke-linecap:square;stroke-width:2;"/>
   </g>
   <g id="line2d_8">
    <path clip-path="url(#p2fc73be381)" d="M 83.462452 69.22609 
L 220.338862 35.006987 
L 220.338862 35.006987 
" style="fill:none;stroke:#ff0000;stroke-linecap:square;stroke-width:2;"/>
   </g>
   <g id="line2d_9">
    <path clip-path="url(#p2fc73be381)" d="M 288.777067 52.116538 
L 357.215272 35.006987 
L 357.215272 35.006987 
" style="fill:none;stroke:#ff0000;stroke-linecap:square;stroke-width:2;"/>
   </g>
   <g id="line2d_10">
    <path clip-path="url(#p2fc73be381)" d="M 494.091682 69.22609 
L 562.529887 52.116538 
L 562.529887 52.116538 
" style="fill:none;stroke:#ff0000;stroke-linecap:square;stroke-width:2;"/>
   </g>
   <g id="line2d_11">
    <path clip-path="url(#p2fc73be381)" d="M 15.024247 52.116538 
L 83.462452 69.22609 
L 83.462452 69.22609 
" style="fill:none;stroke:#00ffff;stroke-linecap:square;stroke-width:2;"/>
   </g>
   <g id="line2d_12">
    <path clip-path="url(#p2fc73be381)" d="M 220.338862 35.006987 
L 288.777067 52.116538 
L 288.777067 52.116538 
" style="fill:none;stroke:#00ffff;stroke-linecap:square;stroke-width:2;"/>
   </g>
   <g id="line2d_13">
    <path clip-path="url(#p2fc73be381)" d="M 357.215272 35.006987 
L 494.091682 69.22609 
L 494.091682 69.22609 
" style="fill:none;stroke:#00ffff;stroke-linecap:square;stroke-width:2;"/>
   </g>
   <g id="PathCollection_1">
    <path clip-path="url(#p2fc73be381)" d="M 15.024247 88.733557 
C 15.660182 88.733557 16.270156 88.480897 16.71983 88.031223 
C 17.169504 87.58155 17.422163 86.971576 17.422163 86.335641 
C 17.422163 85.699706 17.169504 85.089732 16.71983 84.640058 
C 16.270156 84.190385 15.660182 83.937725 15.024247 83.937725 
C 14.388313 83.937725 13.778339 84.190385 13.328665 84.640058 
C 12.878991 85.089732 12.626332 85.699706 12.626332 86.335641 
C 12.626332 86.971576 12.878991 87.58155 13.328665 88.031223 
C 13.778339 88.480897 14.388313 88.733557 15.024247 88.733557 
z
"/>
   </g>
   <g id="PathCollection_2">
    <path clip-path="url(#p2fc73be381)" d="M 15.024247 88.733557 
C 15.660182 88.733557 16.270156 88.480897 16.71983 88.031223 
C 17.169504 87.58155 17.422163 86.971576 17.422163 86.335641 
C 17.422163 85.699706 17.169504 85.089732 16.71983 84.640058 
C 16.270156 84.190385 15.660182 83.937725 15.024247 83.937725 
C 14.388313 83.937725 13.778339 84.190385 13.328665 84.640058 
C 12.878991 85.089732 12.626332 85.699706 12.626332 86.335641 
C 12.626332 86.971576 12.878991 87.58155 13.328665 88.031223 
C 13.778339 88.480897 14.388313 88.733557 15.024247 88.733557 
z
"/>
   </g>
   <g id="PathCollection_3">
    <path clip-path="url(#p2fc73be381)" d="M 15.024247 54.514454 
C 15.660182 54.514454 16.270156 54.261795 16.71983 53.812121 
C 17.169504 53.362447 17.422163 52.752473 17.422163 52.116538 
C 17.422163 51.480604 17.169504 50.87063 16.71983 50.420956 
C 16.270156 49.971282 15.660182 49.718623 15.024247 49.718623 
C 14.388313 49.718623 13.778339 49.971282 13.328665 50.420956 
C 12.878991 50.87063 12.626332 51.480604 12.626332 52.116538 
C 12.626332 52.752473 12.878991 53.362447 13.328665 53.812121 
C 13.778339 54.261795 14.388313 54.514454 15.024247 54.514454 
z
"/>
   </g>
   <g id="PathCollection_4">
    <path clip-path="url(#p2fc73be381)" d="M 15.024247 53.697677 
C 15.44357 53.697677 15.845775 53.531079 16.142281 53.234572 
C 16.438787 52.938066 16.605386 52.535861 16.605386 52.116538 
C 16.605386 51.697216 16.438787 51.295011 16.142281 50.998504 
C 15.845775 50.701998 15.44357 50.5354 15.024247 50.5354 
C 14.604924 50.5354 14.20272 50.701998 13.906213 50.998504 
C 13.609707 51.295011 13.443109 51.697216 13.443109 52.116538 
C 13.443109 52.535861 13.609707 52.938066 13.906213 53.234572 
C 14.20272 53.531079 14.604924 53.697677 15.024247 53.697677 
z
" style="fill:#ffffff;"/>
   </g>
   <g id="PathCollection_5">
    <path clip-path="url(#p2fc73be381)" d="M 83.462452 71.624005 
C 84.098387 71.624005 84.708361 71.371346 85.158035 70.921672 
C 85.607709 70.471998 85.860368 69.862024 85.860368 69.22609 
C 85.860368 68.590155 85.607709 67.980181 85.158035 67.530507 
C 84.708361 67.080833 84.098387 66.828174 83.462452 66.828174 
C 82.826518 66.828174 82.216544 67.080833 81.76687 67.530507 
C 81.317196 67.980181 81.064537 68.590155 81.064537 69.22609 
C 81.064537 69.862024 81.317196 70.471998 81.76687 70.921672 
C 82.216544 71.371346 82.826518 71.624005 83.462452 71.624005 
z
"/>
   </g>
   <g id="PathCollection_6">
    <path clip-path="url(#p2fc73be381)" d="M 83.462452 70.807229 
C 83.881775 70.807229 84.28398 70.64063 84.580486 70.344124 
C 84.876992 70.047618 85.043591 69.645413 85.043591 69.22609 
C 85.043591 68.806767 84.876992 68.404562 84.580486 68.108056 
C 84.28398 67.81155 83.881775 67.644951 83.462452 67.644951 
C 83.043129 67.644951 82.640924 67.81155 82.344418 68.108056 
C 82.047912 68.404562 81.881314 68.806767 81.881314 69.22609 
C 81.881314 69.645413 82.047912 70.047618 82.344418 70.344124 
C 82.640924 70.64063 83.043129 70.807229 83.462452 70.807229 
z
" style="fill:#ffffff;"/>
   </g>
   <g id="PathCollection_7">
    <path clip-path="url(#p2fc73be381)" d="M 83.462452 37.404903 
C 84.098387 37.404903 84.708361 37.152243 85.158035 36.70257 
C 85.607709 36.252896 85.860368 35.642922 85.860368 35.006987 
C 85.860368 34.371053 85.607709 33.761078 85.158035 33.311405 
C 84.708361 32.861731 84.098387 32.609071 83.462452 32.609071 
C 82.826518 32.609071 82.216544 32.861731 81.76687 33.311405 
C 81.317196 33.761078 81.064537 34.371053 81.064537 35.006987 
C 81.064537 35.642922 81.317196 36.252896 81.76687 36.70257 
C 82.216544 37.152243 82.826518 37.404903 83.462452 37.404903 
z
"/>
   </g>
   <g id="PathCollection_8">
    <path clip-path="url(#p2fc73be381)" d="M 83.462452 37.404903 
C 84.098387 37.404903 84.708361 37.152243 85.158035 36.70257 
C 85.607709 36.252896 85.860368 35.642922 85.860368 35.006987 
C 85.860368 34.371053 85.607709 33.761078 85.158035 33.311405 
C 84.708361 32.861731 84.098387 32.609071 83.462452 32.609071 
C 82.826518 32.609071 82.216544 32.861731 81.76687 33.311405 
C 81.317196 33.761078 81.064537 34.371053 81.064537 35.006987 
C 81.064537 35.642922 81.317196 36.252896 81.76687 36.70257 
C 82.216544 37.152243 82.826518 37.404903 83.462452 37.404903 
z
"/>
   </g>
   <g id="PathCollection_9">
    <path clip-path="url(#p2fc73be381)" d="M 83.462452 37.404903 
C 84.098387 37.404903 84.708361 37.152243 85.158035 36.70257 
C 85.607709 36.252896 85.860368 35.642922 85.860368 35.006987 
C 85.860368 34.371053 85.607709 33.761078 85.158035 33.311405 
C 84.708361 32.861731 84.098387 32.609071 83.462452 32.609071 
C 82.826518 32.609071 82.216544 32.861731 81.76687 33.311405 
C 81.317196 33.761078 81.064537 34.371053 81.064537 35.006987 
C 81.064537 35.642922 81.317196 36.252896 81.76687 36.70257 
C 82.216544 37.152243 82.826518 37.404903 83.462452 37.404903 
z
"/>
   </g>
   <g id="PathCollection_10">
    <path clip-path="url(#p2fc73be381)" d="M 83.462452 71.624005 
C 84.098387 71.624005 84.708361 71.371346 85.158035 70.921672 
C 85.607709 70.471998 85.860368 69.862024 85.860368 69.22609 
C 85.860368 68.590155 85.607709 67.980181 85.158035 67.530507 
C 84.708361 67.080833 84.098387 66.828174 83.462452 66.828174 
C 82.826518 66.828174 82.216544 67.080833 81.76687 67.530507 
C 81.317196 67.980181 81.064537 68.590155 81.064537 69.22609 
C 81.064537 69.862024 81.317196 70.471998 81.76687 70.921672 
C 82.216544 71.371346 82.826518 71.624005 83.462452 71.624005 
z
"/>
   </g>
   <g id="PathCollection_11">
    <path clip-path="url(#p2fc73be381)" d="M 83.462452 70.807229 
C 83.881775 70.807229 84.28398 70.64063 84.580486 70.344124 
C 84.876992 70.047618 85.043591 69.645413 85.043591 69.22609 
C 85.043591 68.806767 84.876992 68.404562 84.580486 68.108056 
C 84.28398 67.81155 83.881775 67.644951 83.462452 67.644951 
C 83.043129 67.644951 82.640924 67.81155 82.344418 68.108056 
C 82.047912 68.404562 81.881314 68.806767 81.881314 69.22609 
C 81.881314 69.645413 82.047912 70.047618 82.344418 70.344124 
C 82.640924 70.64063 83.043129 70.807229 83.462452 70.807229 
z
" style="fill:#ffffff;"/>
   </g>
   <g id="PathCollection_12">
    <path clip-path="url(#p2fc73be381)" d="M 220.338862 37.404903 
C 220.974797 37.404903 221.584771 37.152243 222.034445 36.70257 
C 222.484119 36.252896 222.736778 35.642922 222.736778 35.006987 
C 222.736778 34.371053 222.484119 33.761078 222.034445 33.311405 
C 221.584771 32.861731 220.974797 32.609071 220.338862 32.609071 
C 219.702928 32.609071 219.092954 32.861731 218.64328 33.311405 
C 218.193606 33.761078 217.940947 34.371053 217.940947 35.006987 
C 217.940947 35.642922 218.193606 36.252896 218.64328 36.70257 
C 219.092954 37.152243 219.702928 37.404903 220.338862 37.404903 
z
"/>
   </g>
   <g id="PathCollection_13">
    <path clip-path="url(#p2fc73be381)" d="M 220.338862 36.588126 
C 220.758185 36.588126 221.16039 36.421527 221.456896 36.125021 
C 221.753402 35.828515 221.920001 35.42631 221.920001 35.006987 
C 221.920001 34.587664 221.753402 34.185459 221.456896 33.888953 
C 221.16039 33.592447 220.758185 33.425848 220.338862 33.425848 
C 219.919539 33.425848 219.517334 33.592447 219.220828 33.888953 
C 218.924322 34.185459 218.757724 34.587664 218.757724 35.006987 
C 218.757724 35.42631 218.924322 35.828515 219.220828 36.125021 
C 219.517334 36.421527 219.919539 36.588126 220.338862 36.588126 
z
" style="fill:#ffffff;"/>
   </g>
   <g id="PathCollection_14">
    <path clip-path="url(#p2fc73be381)" d="M 220.338862 71.624005 
C 220.974797 71.624005 221.584771 71.371346 222.034445 70.921672 
C 222.484119 70.471998 222.736778 69.862024 222.736778 69.22609 
C 222.736778 68.590155 222.484119 67.980181 222.034445 67.530507 
C 221.584771 67.080833 220.974797 66.828174 220.338862 66.828174 
C 219.702928 66.828174 219.092954 67.080833 218.64328 67.530507 
C 218.193606 67.980181 217.940947 68.590155 217.940947 69.22609 
C 217.940947 69.862024 218.193606 70.471998 218.64328 70.921672 
C 219.092954 71.371346 219.702928 71.624005 220.338862 71.624005 
z
"/>
   </g>
   <g id="PathCollection_15">
    <path clip-path="url(#p2fc73be381)" d="M 220.338862 71.624005 
C 220.974797 71.624005 221.584771 71.371346 222.034445 70.921672 
C 222.484119 70.471998 222.736778 69.862024 222.736778 69.22609 
C 222.736778 68.590155 222.484119 67.980181 222.034445 67.530507 
C 221.584771 67.080833 220.974797 66.828174 220.338862 66.828174 
C 219.702928 66.828174 219.092954 67.080833 218.64328 67.530507 
C 218.193606 67.980181 217.940947 68.590155 217.940947 69.22609 
C 217.940947 69.862024 218.193606 70.471998 218.64328 70.921672 
C 219.092954 71.371346 219.702928 71.624005 220.338862 71.624005 
z
"/>
   </g>
   <g id="PathCollection_16">
    <path clip-path="url(#p2fc73be381)" d="M 220.338862 71.624005 
C 220.974797 71.624005 221.584771 71.371346 222.034445 70.921672 
C 222.484119 70.471998 222.736778 69.862024 222.736778 69.22609 
C 222.736778 68.590155 222.484119 67.980181 222.034445 67.530507 
C 221.584771 67.080833 220.974797 66.828174 220.338862 66.828174 
C 219.702928 66.828174 219.092954 67.080833 218.64328 67.530507 
C 218.193606 67.980181 217.940947 68.590155 217.940947 69.22609 
C 217.940947 69.862024 218.193606 70.471998 218.64328 70.921672 
C 219.092954 71.371346 219.702928 71.624005 220.338862 71.624005 
z
"/>
   </g>
   <g id="PathCollection_17">
    <path clip-path="url(#p2fc73be381)" d="M 220.338862 37.404903 
C 220.974797 37.404903 221.584771 37.152243 222.034445 36.70257 
C 222.484119 36.252896 222.736778 35.642922 222.736778 35.006987 
C 222.736778 34.371053 222.484119 33.761078 222.034445 33.311405 
C 221.584771 32.861731 220.974797 32.609071 220.338862 32.609071 
C 219.702928 32.609071 219.092954 32.861731 218.64328 33.311405 
C 218.193606 33.761078 217.940947 34.371053 217.940947 35.006987 
C 217.940947 35.642922 218.193606 36.252896 218.64328 36.70257 
C 219.092954 37.152243 219.702928 37.404903 220.338862 37.404903 
z
"/>
   </g>
   <g id="PathCollection_18">
    <path clip-path="url(#p2fc73be381)" d="M 220.338862 36.588126 
C 220.758185 36.588126 221.16039 36.421527 221.456896 36.125021 
C 221.753402 35.828515 221.920001 35.42631 221.920001 35.006987 
C 221.920001 34.587664 221.753402 34.185459 221.456896 33.888953 
C 221.16039 33.592447 220.758185 33.425848 220.338862 33.425848 
C 219.919539 33.425848 219.517334 33.592447 219.220828 33.888953 
C 218.924322 34.185459 218.757724 34.587664 218.757724 35.006987 
C 218.757724 35.42631 218.924322 35.828515 219.220828 36.125021 
C 219.517334 36.421527 219.919539 36.588126 220.338862 36.588126 
z
" style="fill:#ffffff;"/>
   </g>
   <g id="PathCollection_19">
    <path clip-path="url(#p2fc73be381)" d="M 288.777067 54.514454 
C 289.413002 54.514454 290.022976 54.261795 290.47265 53.812121 
C 290.922324 53.362447 291.174983 52.752473 291.174983 52.116538 
C 291.174983 51.480604 290.922324 50.87063 290.47265 50.420956 
C 290.022976 49.971282 289.413002 49.718623 288.777067 49.718623 
C 288.141133 49.718623 287.531159 49.971282 287.081485 50.420956 
C 286.631811 50.87063 286.379152 51.480604 286.379152 52.116538 
C 286.379152 52.752473 286.631811 53.362447 287.081485 53.812121 
C 287.531159 54.261795 288.141133 54.514454 288.777067 54.514454 
z
"/>
   </g>
   <g id="PathCollection_20">
    <path clip-path="url(#p2fc73be381)" d="M 288.777067 53.697677 
C 289.19639 53.697677 289.598595 53.531079 289.895101 53.234572 
C 290.191607 52.938066 290.358206 52.535861 290.358206 52.116538 
C 290.358206 51.697216 290.191607 51.295011 289.895101 50.998504 
C 289.598595 50.701998 289.19639 50.5354 288.777067 50.5354 
C 288.357744 50.5354 287.955539 50.701998 287.659033 50.998504 
C 287.362527 51.295011 287.195928 51.697216 287.195928 52.116538 
C 287.195928 52.535861 287.362527 52.938066 287.659033 53.234572 
C 287.955539 53.531079 288.357744 53.697677 288.777067 53.697677 
z
" style="fill:#ffffff;"/>
   </g>
   <g id="PathCollection_21">
    <path clip-path="url(#p2fc73be381)" d="M 288.777067 20.295352 
C 289.413002 20.295352 290.022976 20.042692 290.47265 19.593018 
C 290.922324 19.143345 291.174983 18.533371 291.174983 17.897436 
C 291.174983 17.261501 290.922324 16.651527 290.47265 16.201853 
C 290.022976 15.75218 289.413002 15.49952 288.777067 15.49952 
C 288.141133 15.49952 287.531159 15.75218 287.081485 16.201853 
C 286.631811 16.651527 286.379152 17.261501 286.379152 17.897436 
C 286.379152 18.533371 286.631811 19.143345 287.081485 19.593018 
C 287.531159 20.042692 288.141133 20.295352 288.777067 20.295352 
z
"/>
   </g>
   <g id="PathCollection_22">
    <path clip-path="url(#p2fc73be381)" d="M 288.777067 20.295352 
C 289.413002 20.295352 290.022976 20.042692 290.47265 19.593018 
C 290.922324 19.143345 291.174983 18.533371 291.174983 17.897436 
C 291.174983 17.261501 290.922324 16.651527 290.47265 16.201853 
C 290.022976 15.75218 289.413002 15.49952 288.777067 15.49952 
C 288.141133 15.49952 287.531159 15.75218 287.081485 16.201853 
C 286.631811 16.651527 286.379152 17.261501 286.379152 17.897436 
C 286.379152 18.533371 286.631811 19.143345 287.081485 19.593018 
C 287.531159 20.042692 288.141133 20.295352 288.777067 20.295352 
z
"/>
   </g>
   <g id="PathCollection_23">
    <path clip-path="url(#p2fc73be381)" d="M 288.777067 20.295352 
C 289.413002 20.295352 290.022976 20.042692 290.47265 19.593018 
C 290.922324 19.143345 291.174983 18.533371 291.174983 17.897436 
C 291.174983 17.261501 290.922324 16.651527 290.47265 16.201853 
C 290.022976 15.75218 289.413002 15.49952 288.777067 15.49952 
C 288.141133 15.49952 287.531159 15.75218 287.081485 16.201853 
C 286.631811 16.651527 286.379152 17.261501 286.379152 17.897436 
C 286.379152 18.533371 286.631811 19.143345 287.081485 19.593018 
C 287.531159 20.042692 288.141133 20.295352 288.777067 20.295352 
z
"/>
   </g>
   <g id="PathCollection_24">
    <path clip-path="url(#p2fc73be381)" d="M 288.777067 54.514454 
C 289.413002 54.514454 290.022976 54.261795 290.47265 53.812121 
C 290.922324 53.362447 291.174983 52.752473 291.174983 52.116538 
C 291.174983 51.480604 290.922324 50.87063 290.47265 50.420956 
C 290.022976 49.971282 289.413002 49.718623 288.777067 49.718623 
C 288.141133 49.718623 287.531159 49.971282 287.081485 50.420956 
C 286.631811 50.87063 286.379152 51.480604 286.379152 52.116538 
C 286.379152 52.752473 286.631811 53.362447 287.081485 53.812121 
C 287.531159 54.261795 288.141133 54.514454 288.777067 54.514454 
z
"/>
   </g>
   <g id="PathCollection_25">
    <path clip-path="url(#p2fc73be381)" d="M 288.777067 53.697677 
C 289.19639 53.697677 289.598595 53.531079 289.895101 53.234572 
C 290.191607 52.938066 290.358206 52.535861 290.358206 52.116538 
C 290.358206 51.697216 290.191607 51.295011 289.895101 50.998504 
C 289.598595 50.701998 289.19639 50.5354 288.777067 50.5354 
C 288.357744 50.5354 287.955539 50.701998 287.659033 50.998504 
C 287.362527 51.295011 287.195928 51.697216 287.195928 52.116538 
C 287.195928 52.535861 287.362527 52.938066 287.659033 53.234572 
C 287.955539 53.531079 288.357744 53.697677 288.777067 53.697677 
z
" style="fill:#ffffff;"/>
   </g>
   <g id="PathCollection_26">
    <path clip-path="url(#p2fc73be381)" d="M 357.215272 37.404903 
C 357.851207 37.404903 358.461181 37.152243 358.910855 36.70257 
C 359.360529 36.252896 359.613188 35.642922 359.613188 35.006987 
C 359.613188 34.371053 359.360529 33.761078 358.910855 33.311405 
C 358.461181 32.861731 357.851207 32.609071 357.215272 32.609071 
C 356.579338 32.609071 355.969364 32.861731 355.51969 33.311405 
C 355.070016 33.761078 354.817357 34.371053 354.817357 35.006987 
C 354.817357 35.642922 355.070016 36.252896 355.51969 36.70257 
C 355.969364 37.152243 356.579338 37.404903 357.215272 37.404903 
z
"/>
   </g>
   <g id="PathCollection_27">
    <path clip-path="url(#p2fc73be381)" d="M 357.215272 36.588126 
C 357.634595 36.588126 358.0368 36.421527 358.333306 36.125021 
C 358.629812 35.828515 358.796411 35.42631 358.796411 35.006987 
C 358.796411 34.587664 358.629812 34.185459 358.333306 33.888953 
C 358.0368 33.592447 357.634595 33.425848 357.215272 33.425848 
C 356.795949 33.425848 356.393744 33.592447 356.097238 33.888953 
C 355.800732 34.185459 355.634133 34.587664 355.634133 35.006987 
C 355.634133 35.42631 355.800732 35.828515 356.097238 36.125021 
C 356.393744 36.421527 356.795949 36.588126 357.215272 36.588126 
z
" style="fill:#ffffff;"/>
   </g>
   <g id="PathCollection_28">
    <path clip-path="url(#p2fc73be381)" d="M 357.215272 71.624005 
C 357.851207 71.624005 358.461181 71.371346 358.910855 70.921672 
C 359.360529 70.471998 359.613188 69.862024 359.613188 69.22609 
C 359.613188 68.590155 359.360529 67.980181 358.910855 67.530507 
C 358.461181 67.080833 357.851207 66.828174 357.215272 66.828174 
C 356.579338 66.828174 355.969364 67.080833 355.51969 67.530507 
C 355.070016 67.980181 354.817357 68.590155 354.817357 69.22609 
C 354.817357 69.862024 355.070016 70.471998 355.51969 70.921672 
C 355.969364 71.371346 356.579338 71.624005 357.215272 71.624005 
z
"/>
   </g>
   <g id="PathCollection_29">
    <path clip-path="url(#p2fc73be381)" d="M 357.215272 71.624005 
C 357.851207 71.624005 358.461181 71.371346 358.910855 70.921672 
C 359.360529 70.471998 359.613188 69.862024 359.613188 69.22609 
C 359.613188 68.590155 359.360529 67.980181 358.910855 67.530507 
C 358.461181 67.080833 357.851207 66.828174 357.215272 66.828174 
C 356.579338 66.828174 355.969364 67.080833 355.51969 67.530507 
C 355.070016 67.980181 354.817357 68.590155 354.817357 69.22609 
C 354.817357 69.862024 355.070016 70.471998 355.51969 70.921672 
C 355.969364 71.371346 356.579338 71.624005 357.215272 71.624005 
z
"/>
   </g>
   <g id="PathCollection_30">
    <path clip-path="url(#p2fc73be381)" d="M 357.215272 71.624005 
C 357.851207 71.624005 358.461181 71.371346 358.910855 70.921672 
C 359.360529 70.471998 359.613188 69.862024 359.613188 69.22609 
C 359.613188 68.590155 359.360529 67.980181 358.910855 67.530507 
C 358.461181 67.080833 357.851207 66.828174 357.215272 66.828174 
C 356.579338 66.828174 355.969364 67.080833 355.51969 67.530507 
C 355.070016 67.980181 354.817357 68.590155 354.817357 69.22609 
C 354.817357 69.862024 355.070016 70.471998 355.51969 70.921672 
C 355.969364 71.371346 356.579338 71.624005 357.215272 71.624005 
z
"/>
   </g>
   <g id="PathCollection_31">
    <path clip-path="url(#p2fc73be381)" d="M 357.215272 37.404903 
C 357.851207 37.404903 358.461181 37.152243 358.910855 36.70257 
C 359.360529 36.252896 359.613188 35.642922 359.613188 35.006987 
C 359.613188 34.371053 359.360529 33.761078 358.910855 33.311405 
C 358.461181 32.861731 357.851207 32.609071 357.215272 32.609071 
C 356.579338 32.609071 355.969364 32.861731 355.51969 33.311405 
C 355.070016 33.761078 354.817357 34.371053 354.817357 35.006987 
C 354.817357 35.642922 355.070016 36.252896 355.51969 36.70257 
C 355.969364 37.152243 356.579338 37.404903 357.215272 37.404903 
z
"/>
   </g>
   <g id="PathCollection_32">
    <path clip-path="url(#p2fc73be381)" d="M 357.215272 36.588126 
C 357.634595 36.588126 358.0368 36.421527 358.333306 36.125021 
C 358.629812 35.828515 358.796411 35.42631 358.796411 35.006987 
C 358.796411 34.587664 358.629812 34.185459 358.333306 33.888953 
C 358.0368 33.592447 357.634595 33.425848 357.215272 33.425848 
C 356.795949 33.425848 356.393744 33.592447 356.097238 33.888953 
C 355.800732 34.185459 355.634133 34.587664 355.634133 35.006987 
C 355.634133 35.42631 355.800732 35.828515 356.097238 36.125021 
C 356.393744 36.421527 356.795949 36.588126 357.215272 36.588126 
z
" style="fill:#ffffff;"/>
   </g>
   <g id="PathCollection_33">
    <path clip-path="url(#p2fc73be381)" d="M 494.091682 71.624005 
C 494.727617 71.624005 495.337591 71.371346 495.787265 70.921672 
C 496.236938 70.471998 496.489598 69.862024 496.489598 69.22609 
C 496.489598 68.590155 496.236938 67.980181 495.787265 67.530507 
C 495.337591 67.080833 494.727617 66.828174 494.091682 66.828174 
C 493.455748 66.828174 492.845773 67.080833 492.3961 67.530507 
C 491.946426 67.980181 491.693766 68.590155 491.693766 69.22609 
C 491.693766 69.862024 491.946426 70.471998 492.3961 70.921672 
C 492.845773 71.371346 493.455748 71.624005 494.091682 71.624005 
z
"/>
   </g>
   <g id="PathCollection_34">
    <path clip-path="url(#p2fc73be381)" d="M 494.091682 70.807229 
C 494.511005 70.807229 494.91321 70.64063 495.209716 70.344124 
C 495.506222 70.047618 495.672821 69.645413 495.672821 69.22609 
C 495.672821 68.806767 495.506222 68.404562 495.209716 68.108056 
C 494.91321 67.81155 494.511005 67.644951 494.091682 67.644951 
C 493.672359 67.644951 493.270154 67.81155 492.973648 68.108056 
C 492.677142 68.404562 492.510543 68.806767 492.510543 69.22609 
C 492.510543 69.645413 492.677142 70.047618 492.973648 70.344124 
C 493.270154 70.64063 493.672359 70.807229 494.091682 70.807229 
z
" style="fill:#ffffff;"/>
   </g>
   <g id="PathCollection_35">
    <path clip-path="url(#p2fc73be381)" d="M 494.091682 37.404903 
C 494.727617 37.404903 495.337591 37.152243 495.787265 36.70257 
C 496.236938 36.252896 496.489598 35.642922 496.489598 35.006987 
C 496.489598 34.371053 496.236938 33.761078 495.787265 33.311405 
C 495.337591 32.861731 494.727617 32.609071 494.091682 32.609071 
C 493.455748 32.609071 492.845773 32.861731 492.3961 33.311405 
C 491.946426 33.761078 491.693766 34.371053 491.693766 35.006987 
C 491.693766 35.642922 491.946426 36.252896 492.3961 36.70257 
C 492.845773 37.152243 493.455748 37.404903 494.091682 37.404903 
z
"/>
   </g>
   <g id="PathCollection_36">
    <path clip-path="url(#p2fc73be381)" d="M 494.091682 37.404903 
C 494.727617 37.404903 495.337591 37.152243 495.787265 36.70257 
C 496.236938 36.252896 496.489598 35.642922 496.489598 35.006987 
C 496.489598 34.371053 496.236938 33.761078 495.787265 33.311405 
C 495.337591 32.861731 494.727617 32.609071 494.091682 32.609071 
C 493.455748 32.609071 492.845773 32.861731 492.3961 33.311405 
C 491.946426 33.761078 491.693766 34.371053 491.693766 35.006987 
C 491.693766 35.642922 491.946426 36.252896 492.3961 36.70257 
C 492.845773 37.152243 493.455748 37.404903 494.091682 37.404903 
z
"/>
   </g>
   <g id="PathCollection_37">
    <path clip-path="url(#p2fc73be381)" d="M 494.091682 37.404903 
C 494.727617 37.404903 495.337591 37.152243 495.787265 36.70257 
C 496.236938 36.252896 496.489598 35.642922 496.489598 35.006987 
C 496.489598 34.371053 496.236938 33.761078 495.787265 33.311405 
C 495.337591 32.861731 494.727617 32.609071 494.091682 32.609071 
C 493.455748 32.609071 492.845773 32.861731 492.3961 33.311405 
C 491.946426 33.761078 491.693766 34.371053 491.693766 35.006987 
C 491.693766 35.642922 491.946426 36.252896 492.3961 36.70257 
C 492.845773 37.152243 493.455748 37.404903 494.091682 37.404903 
z
"/>
   </g>
   <g id="PathCollection_38">
    <path clip-path="url(#p2fc73be381)" d="M 494.091682 71.624005 
C 494.727617 71.624005 495.337591 71.371346 495.787265 70.921672 
C 496.236938 70.471998 496.489598 69.862024 496.489598 69.22609 
C 496.489598 68.590155 496.236938 67.980181 495.787265 67.530507 
C 495.337591 67.080833 494.727617 66.828174 494.091682 66.828174 
C 493.455748 66.828174 492.845773 67.080833 492.3961 67.530507 
C 491.946426 67.980181 491.693766 68.590155 491.693766 69.22609 
C 491.693766 69.862024 491.946426 70.471998 492.3961 70.921672 
C 492.845773 71.371346 493.455748 71.624005 494.091682 71.624005 
z
"/>
   </g>
   <g id="PathCollection_39">
    <path clip-path="url(#p2fc73be381)" d="M 494.091682 70.807229 
C 494.511005 70.807229 494.91321 70.64063 495.209716 70.344124 
C 495.506222 70.047618 495.672821 69.645413 495.672821 69.22609 
C 495.672821 68.806767 495.506222 68.404562 495.209716 68.108056 
C 494.91321 67.81155 494.511005 67.644951 494.091682 67.644951 
C 493.672359 67.644951 493.270154 67.81155 492.973648 68.108056 
C 492.677142 68.404562 492.510543 68.806767 492.510543 69.22609 
C 492.510543 69.645413 492.677142 70.047618 492.973648 70.344124 
C 493.270154 70.64063 493.672359 70.807229 494.091682 70.807229 
z
" style="fill:#ffffff;"/>
   </g>
   <g id="PathCollection_40">
    <path clip-path="url(#p2fc73be381)" d="M 562.529887 54.514454 
C 563.165822 54.514454 563.775796 54.261795 564.22547 53.812121 
C 564.675143 53.362447 564.927803 52.752473 564.927803 52.116538 
C 564.927803 51.480604 564.675143 50.87063 564.22547 50.420956 
C 563.775796 49.971282 563.165822 49.718623 562.529887 49.718623 
C 561.893953 49.718623 561.283978 49.971282 560.834305 50.420956 
C 560.384631 50.87063 560.131971 51.480604 560.131971 52.116538 
C 560.131971 52.752473 560.384631 53.362447 560.834305 53.812121 
C 561.283978 54.261795 561.893953 54.514454 562.529887 54.514454 
z
"/>
   </g>
   <g id="PathCollection_41">
    <path clip-path="url(#p2fc73be381)" d="M 562.529887 53.697677 
C 562.94921 53.697677 563.351415 53.531079 563.647921 53.234572 
C 563.944427 52.938066 564.111026 52.535861 564.111026 52.116538 
C 564.111026 51.697216 563.944427 51.295011 563.647921 50.998504 
C 563.351415 50.701998 562.94921 50.5354 562.529887 50.5354 
C 562.110564 50.5354 561.708359 50.701998 561.411853 50.998504 
C 561.115347 51.295011 560.948748 51.697216 560.948748 52.116538 
C 560.948748 52.535861 561.115347 52.938066 561.411853 53.234572 
C 561.708359 53.531079 562.110564 53.697677 562.529887 53.697677 
z
" style="fill:#ffffff;"/>
   </g>
   <g id="PathCollection_42">
    <path clip-path="url(#p2fc73be381)" d="M 562.529887 88.733557 
C 563.165822 88.733557 563.775796 88.480897 564.22547 88.031223 
C 564.675143 87.58155 564.927803 86.971576 564.927803 86.335641 
C 564.927803 85.699706 564.675143 85.089732 564.22547 84.640058 
C 563.775796 84.190385 563.165822 83.937725 562.529887 83.937725 
C 561.893953 83.937725 561.283978 84.190385 560.834305 84.640058 
C 560.384631 85.089732 560.131971 85.699706 560.131971 86.335641 
C 560.131971 86.971576 560.384631 87.58155 560.834305 88.031223 
C 561.283978 88.480897 561.893953 88.733557 562.529887 88.733557 
z
"/>
   </g>
   <g id="PathCollection_43">
    <path clip-path="url(#p2fc73be381)" d="M 562.529887 88.733557 
C 563.165822 88.733557 563.775796 88.480897 564.22547 88.031223 
C 564.675143 87.58155 564.927803 86.971576 564.927803 86.335641 
C 564.927803 85.699706 564.675143 85.089732 564.22547 84.640058 
C 563.775796 84.190385 563.165822 83.937725 562.529887 83.937725 
C 561.893953 83.937725 561.283978 84.190385 560.834305 84.640058 
C 560.384631 85.089732 560.131971 85.699706 560.131971 86.335641 
C 560.131971 86.971576 560.384631 87.58155 560.834305 88.031223 
C 561.283978 88.480897 561.893953 88.733557 562.529887 88.733557 
z
"/>
   </g>
   <g id="matplotlib.axis_1">
    <g id="xtick_1">
     <g id="line2d_14">
      <path clip-path="url(#p2fc73be381)" d="M 15.024247 87.704405 
L 15.024247 16.528672 
" style="fill:none;stroke:#000000;stroke-dasharray:0.5,0.825;stroke-dashoffset:0;stroke-width:0.5;"/>
     </g>
     <g id="line2d_15">
      <defs>
       <path d="M 0 0 
L 0 3.5 
" id="m2afbe4b603" style="stroke:#000000;stroke-width:0.8;"/>
      </defs>
      <g>
       <use style="stroke:#000000;stroke-width:0.8;" x="15.024247" xlink:href="#m2afbe4b603" y="86.335641"/>
      </g>
     </g>
    </g>
    <g id="xtick_2">
     <g id="line2d_16">
      <path clip-path="url(#p2fc73be381)" d="M 288.777067 87.704405 
L 288.777067 16.528672 
" style="fill:none;stroke:#000000;stroke-dasharray:0.5,0.825;stroke-dashoffset:0;stroke-width:0.5;"/>
     </g>
     <g id="line2d_17">
      <g>
       <use style="stroke:#000000;stroke-width:0.8;" x="288.777067" xlink:href="#m2afbe4b603" y="86.335641"/>
      </g>
     </g>
     <g id="text_1">
      <!-- $f$ -->
      <defs>
       <path d="M 9.71875 -16.5 
Q 11.578125 -17.921875 14.203125 -17.921875 
Q 17.78125 -17.921875 20.015625 -10.015625 
Q 20.953125 -6.203125 25.09375 15.09375 
L 29.6875 39.59375 
L 21.09375 39.59375 
Q 20.125 39.59375 20.125 40.921875 
Q 20.515625 43.109375 21.390625 43.109375 
L 30.328125 43.109375 
L 31.5 49.609375 
Q 32.078125 52.640625 32.5625 54.8125 
Q 33.0625 56.984375 33.625 58.828125 
Q 34.1875 60.6875 35.296875 62.984375 
Q 37.015625 66.265625 39.921875 68.390625 
Q 42.828125 70.515625 46.1875 70.515625 
Q 48.390625 70.515625 50.46875 69.703125 
Q 52.546875 68.890625 53.859375 67.28125 
Q 55.171875 65.671875 55.171875 63.484375 
Q 55.171875 60.9375 53.484375 59.046875 
Q 51.8125 57.171875 49.421875 57.171875 
Q 47.796875 57.171875 46.65625 58.171875 
Q 45.515625 59.1875 45.515625 60.796875 
Q 45.515625 62.984375 47 64.625 
Q 48.484375 66.265625 50.6875 66.5 
Q 48.828125 67.921875 46.09375 67.921875 
Q 44.578125 67.921875 43.234375 66.5 
Q 41.890625 65.09375 41.5 63.484375 
Q 40.875 60.9375 38.71875 49.703125 
L 37.5 43.109375 
L 47.796875 43.109375 
Q 48.78125 43.109375 48.78125 41.796875 
Q 48.734375 41.546875 48.578125 40.9375 
Q 48.4375 40.328125 48.171875 39.953125 
Q 47.90625 39.59375 47.515625 39.59375 
L 36.8125 39.59375 
L 32.171875 15.1875 
Q 31.296875 9.859375 30.140625 4.359375 
Q 29 -1.125 26.921875 -6.90625 
Q 24.859375 -12.703125 21.625 -16.609375 
Q 18.40625 -20.515625 14.015625 -20.515625 
Q 10.640625 -20.515625 7.984375 -18.578125 
Q 5.328125 -16.65625 5.328125 -13.484375 
Q 5.328125 -10.9375 6.953125 -9.046875 
Q 8.59375 -7.171875 11.078125 -7.171875 
Q 12.75 -7.171875 13.859375 -8.171875 
Q 14.984375 -9.1875 14.984375 -10.796875 
Q 14.984375 -12.9375 13.390625 -14.71875 
Q 11.8125 -16.5 9.71875 -16.5 
z
" id="Cmmi10-66"/>
      </defs>
      <g transform="translate(286.327067 100.913766)scale(0.1 -0.1)">
       <use transform="translate(0 0.484375)" xlink:href="#Cmmi10-66"/>
      </g>
     </g>
    </g>
    <g id="xtick_3">
     <g id="line2d_18">
      <path clip-path="url(#p2fc73be381)" d="M 562.529887 87.704405 
L 562.529887 16.528672 
" style="fill:none;stroke:#000000;stroke-dasharray:0.5,0.825;stroke-dashoffset:0;stroke-width:0.5;"/>
     </g>
     <g id="line2d_19">
      <g>
       <use style="stroke:#000000;stroke-width:0.8;" x="562.529887" xlink:href="#m2afbe4b603" y="86.335641"/>
      </g>
     </g>
     <g id="text_2">
      <!-- $1$ -->
      <defs>
       <path d="M 9.28125 0 
L 9.28125 3.515625 
Q 21.78125 3.515625 21.78125 6.6875 
L 21.78125 59.1875 
Q 16.609375 56.6875 8.6875 56.6875 
L 8.6875 60.203125 
Q 20.953125 60.203125 27.203125 66.609375 
L 28.609375 66.609375 
Q 28.953125 66.609375 29.265625 66.328125 
Q 29.59375 66.0625 29.59375 65.71875 
L 29.59375 6.6875 
Q 29.59375 3.515625 42.09375 3.515625 
L 42.09375 0 
z
" id="Cmr10-31"/>
      </defs>
      <g transform="translate(560.029887 100.934078)scale(0.1 -0.1)">
       <use transform="translate(0 0.390625)" xlink:href="#Cmr10-31"/>
      </g>
     </g>
    </g>
   </g>
   <g id="matplotlib.axis_2">
    <g id="ytick_1">
     <g id="line2d_20">
      <path clip-path="url(#p2fc73be381)" d="M 4.074135 86.335641 
L 573.48 86.335641 
" style="fill:none;stroke:#000000;stroke-dasharray:0.5,0.825;stroke-dashoffset:0;stroke-width:0.5;"/>
     </g>
     <g id="line2d_21">
      <defs>
       <path d="M 0 0 
L -3.5 0 
" id="m631781fa07" style="stroke:#000000;stroke-width:0.8;"/>
      </defs>
      <g>
       <use style="stroke:#000000;stroke-width:0.8;" x="15.024247" xlink:href="#m631781fa07" y="86.335641"/>
      </g>
     </g>
    </g>
    <g id="ytick_2">
     <g id="line2d_22">
      <path clip-path="url(#p2fc73be381)" d="M 4.074135 17.897436 
L 573.48 17.897436 
" style="fill:none;stroke:#000000;stroke-dasharray:0.5,0.825;stroke-dashoffset:0;stroke-width:0.5;"/>
     </g>
     <g id="line2d_23">
      <g>
       <use style="stroke:#000000;stroke-width:0.8;" x="15.024247" xlink:href="#m631781fa07" y="17.897436"/>
      </g>
     </g>
     <g id="text_3">
      <!-- $1$ -->
      <g transform="translate(3.024247 21.696655)scale(0.1 -0.1)">
       <use transform="translate(0 0.390625)" xlink:href="#Cmr10-31"/>
      </g>
     </g>
    </g>
   </g>
   <g id="patch_3">
    <path d="M 15.024247 87.704405 
L 15.024247 16.528672 
" style="fill:none;stroke:#000000;stroke-linecap:square;stroke-linejoin:miter;stroke-width:0.8;"/>
   </g>
   <g id="patch_4">
    <path d="M 4.074135 86.335641 
L 573.48 86.335641 
" style="fill:none;stroke:#000000;stroke-linecap:square;stroke-linejoin:miter;stroke-width:0.8;"/>
   </g>
  </g>
 </g>
 <defs>
  <clipPath id="p2fc73be381">
   <rect height="71.175733" width="569.405865" x="4.074135" y="16.528672"/>
  </clipPath>
 </defs>
</svg>
