<?xml version="1.0" encoding="utf-8" standalone="no"?>
<!DOCTYPE svg PUBLIC "-//W3C//DTD SVG 1.1//EN"
  "http://www.w3.org/Graphics/SVG/1.1/DTD/svg11.dtd">
<!-- Created with matplotlib (http://matplotlib.org/) -->
<svg height="108pt" version="1.1" viewBox="0 0 576 108" width="576pt" xmlns="http://www.w3.org/2000/svg" xmlns:xlink="http://www.w3.org/1999/xlink">
 <defs>
  <style type="text/css">
*{stroke-linecap:butt;stroke-linejoin:round;}
  </style>
 </defs>
 <g id="figure_1">
  <g id="patch_1">
   <path d="M 0 108 
L 576 108 
L 576 0 
L 0 0 
z
" style="fill:#ffffff;"/>
  </g>
  <g id="axes_1">
   <g id="patch_2">
    <path d="M 4.074135 87.704405 
L 573.48 87.704405 
L 573.48 16.528672 
L 4.074135 16.528672 
z
" style="fill:#ffffff;"/>
   </g>
   <g id="line2d_1">
    <path clip-path="url(#p9977f693bd)" d="M 59.416597 61.241632 
L 89.011496 30.44444 
L 89.011496 30.44444 
" style="fill:none;stroke:#ff0000;stroke-linecap:square;stroke-width:2;"/>
   </g>
   <g id="line2d_2">
    <path clip-path="url(#p9977f693bd)" d="M 310.973242 73.788637 
L 340.568141 42.991444 
L 340.568141 42.991444 
" style="fill:none;stroke:#ff0000;stroke-linecap:square;stroke-width:2;"/>
   </g>
   <g id="line2d_3">
    <path clip-path="url(#p9977f693bd)" d="M 29.821697 49.835265 
L 59.416597 61.241632 
L 59.416597 61.241632 
" style="fill:none;stroke:#cbff00;stroke-linecap:square;stroke-width:2;"/>
   </g>
   <g id="line2d_4">
    <path clip-path="url(#p9977f693bd)" d="M 89.011496 30.44444 
L 118.606395 41.850808 
L 118.606395 41.850808 
" style="fill:none;stroke:#cbff00;stroke-linecap:square;stroke-width:2;"/>
   </g>
   <g id="line2d_5">
    <path clip-path="url(#p9977f693bd)" d="M 162.998745 33.638223 
L 192.593644 45.044591 
L 192.593644 45.044591 
" style="fill:none;stroke:#cbff00;stroke-linecap:square;stroke-width:2;"/>
   </g>
   <g id="line2d_6">
    <path clip-path="url(#p9977f693bd)" d="M 207.391094 59.188486 
L 236.985993 70.594854 
L 236.985993 70.594854 
" style="fill:none;stroke:#cbff00;stroke-linecap:square;stroke-width:2;"/>
   </g>
   <g id="line2d_7">
    <path clip-path="url(#p9977f693bd)" d="M 281.378342 62.382269 
L 310.973242 73.788637 
L 310.973242 73.788637 
" style="fill:none;stroke:#cbff00;stroke-linecap:square;stroke-width:2;"/>
   </g>
   <g id="line2d_8">
    <path clip-path="url(#p9977f693bd)" d="M 340.568141 42.991444 
L 370.163041 54.397812 
L 370.163041 54.397812 
" style="fill:none;stroke:#cbff00;stroke-linecap:square;stroke-width:2;"/>
   </g>
   <g id="line2d_9">
    <path clip-path="url(#p9977f693bd)" d="M 399.75794 32.041332 
L 399.858203 32.079975 
L 399.90678 32.098697 
L 399.958624 32.118679 
L 400.079485 32.16526 
L 400.161464 32.196856 
L 400.221596 32.220032 
L 400.294609 32.248173 
L 400.317661 32.257057 
L 400.438496 32.303629 
L 400.523527 32.336401 
L 400.603536 32.367238 
L 400.615973 32.372032 
L 400.739689 32.419714 
L 400.806131 32.445322 
L 400.862939 32.467217 
L 400.975216 32.51049 
L 401.043849 32.536942 
L 401.130376 32.570291 
L 401.141618 32.574624 
L 401.254843 32.618263 
L 401.299803 32.635591 
L 401.399616 32.674061 
L 401.495644 32.711072 
L 401.510088 32.716638 
L 401.597788 32.75044 
L 401.722104 32.798353 
L 401.784683 32.822472 
L 401.842381 32.84471 
L 401.945945 32.884625 
L 401.953477 32.887528 
L 402.054329 32.926398 
L 402.119047 32.951342 
L 402.248686 33.001307 
L 402.27191 33.010257 
L 402.34197 33.03726 
L 402.413384 33.064784 
L 402.511053 33.102427 
L 402.560684 33.121556 
L 402.633994 33.149811 
L 402.74405 33.192228 
L 402.803596 33.215178 
L 402.85325 33.234316 
L 402.933484 33.265239 
L 402.993874 33.288514 
L 403.138156 33.344123 
L 403.193563 33.365478 
L 403.24061 33.383611 
L 403.300305 33.406618 
L 403.40776 33.448033 
L 403.494773 33.481569 
L 403.548658 33.502338 
L 403.661714 33.545911 
L 403.7096 33.564367 
L 403.757541 33.582844 
L 403.85259 33.619478 
L 403.91652 33.644117 
L 403.964699 33.662686 
L 404.045922 33.693991 
L 404.177798 33.744818 
L 404.220451 33.761258 
L 404.27024 33.780447 
L 404.370788 33.8192 
L 404.449741 33.84963 
L 404.508222 33.872169 
L 404.6259 33.917524 
L 404.697163 33.94499 
L 404.771002 33.973449 
L 404.790954 33.981139 
L 404.904443 34.02488 
L 404.988577 34.057306 
L 405.053704 34.082407 
L 405.106213 34.102645 
L 405.149498 34.119328 
L 405.274071 34.167341 
L 405.306331 34.179774 
L 405.391961 34.212777 
L 405.456097 34.237496 
L 405.539536 34.269655 
L 405.634413 34.306222 
L 405.669615 34.31979 
L 405.744334 34.348588 
L 405.844435 34.387168 
L 405.919081 34.415938 
L 406.007612 34.450059 
L 406.112773 34.49059 
L 406.129005 34.496846 
L 406.221262 34.532404 
L 406.335408 34.576397 
L 406.381643 34.594217 
L 406.474947 34.630178 
L 406.528953 34.650993 
L 406.612005 34.683003 
L 406.684838 34.711074 
" style="fill:none;stroke:#cbff00;stroke-linecap:square;stroke-width:2;"/>
   </g>
   <g id="line2d_10">
    <path clip-path="url(#p9977f693bd)" d="M 406.874391 34.78413 
L 406.989235 34.828393 
L 407.059072 34.85531 
L 407.09439 34.868922 
L 407.200619 34.909864 
L 407.259048 34.932384 
L 407.340708 34.963857 
L 407.397189 34.985625 
L 407.457673 35.008937 
L 407.58346 35.057417 
L 407.618196 35.070805 
L 407.703283 35.103599 
L 407.774163 35.130918 
L 407.829666 35.152309 
L 407.917805 35.186279 
L 408.029985 35.229515 
L 408.076807 35.247562 
L 408.141945 35.272667 
L 408.21634 35.30134 
L 408.274613 35.323799 
L 408.392938 35.369404 
L 408.449125 35.391059 
L 408.526323 35.420813 
L 408.643728 35.466062 
L 408.687793 35.483046 
L 408.77638 35.517189 
L 408.853114 35.546763 
L 408.90158 35.565443 
L 409.006874 35.606025 
L 409.076036 35.632681 
L 409.143075 35.658519 
L 409.236559 35.694549 
L 409.299421 35.718777 
L 409.370452 35.746154 
L 409.387691 35.752798 
L 409.499354 35.795835 
L 409.544154 35.813102 
L 409.617491 35.841367 
L 409.729747 35.884632 
L 409.781673 35.904645 
L 409.860047 35.934852 
L 409.951897 35.970253 
L 410.026835 35.999135 
L 410.060322 36.012041 
L 410.189545 36.061846 
L 410.277901 36.0959 
L 410.287608 36.099641 
L 410.381964 36.136007 
L 410.474945 36.171844 
L 410.536628 36.195617 
L 410.594162 36.217792 
L 410.685879 36.253141 
L 410.756141 36.280222 
L 410.810663 36.301235 
L 410.926369 36.34583 
L 411.011222 36.378534 
L 411.060393 36.397485 
L 411.152266 36.432895 
L 411.183929 36.445098 
L 411.261481 36.474988 
L 411.395057 36.52647 
L 411.437205 36.542715 
L 411.493006 36.564222 
L 411.594376 36.603291 
L 411.663121 36.629787 
L 411.763806 36.668593 
L 411.769208 36.670675 
L 411.894495 36.718962 
L 411.943878 36.737995 
L 411.991027 36.756167 
L 412.10698 36.800857 
L 412.169519 36.824961 
L 412.275487 36.865803 
L 412.312688 36.880141 
L 412.390724 36.910217 
L 412.474785 36.942616 
L 412.532395 36.96482 
L 412.638738 37.005806 
L 412.719869 37.037075 
L 412.78036 37.060389 
L 412.815578 37.073963 
L 412.919641 37.114071 
L 412.960721 37.129903 
L 413.064503 37.169903 
L 413.171617 37.211186 
L 413.183253 37.215671 
L 413.30691 37.263331 
L 413.368268 37.286979 
L 413.448477 37.317893 
L 413.516311 37.344037 
L 413.576016 37.367048 
L 413.698999 37.414448 
L 413.700964 37.415206 
L 413.784765 37.447504 
L 413.91085 37.496099 
L 413.948014 37.510423 
L 414.054137 37.551324 
L 414.101973 37.569761 
L 414.219026 37.614875 
L 414.238011 37.622192 
L 414.322549 37.654774 
L 414.409344 37.688227 
L 414.482967 37.716602 
L 414.55539 37.744515 
" style="fill:none;stroke:#cbff00;stroke-linecap:square;stroke-width:2;"/>
   </g>
   <g id="line2d_11">
    <path clip-path="url(#p9977f693bd)" d="M 429.35284 51.888411 
L 444.150289 57.591595 
L 444.150289 57.591595 
" style="fill:none;stroke:#cbff00;stroke-linecap:square;stroke-width:2;"/>
   </g>
   <g id="line2d_12">
    <path clip-path="url(#p9977f693bd)" d="M 503.340088 46.641482 
L 518.137538 52.344666 
L 518.137538 52.344666 
" style="fill:none;stroke:#cbff00;stroke-linecap:square;stroke-width:2;"/>
   </g>
   <g id="line2d_13">
    <path clip-path="url(#p9977f693bd)" d="M 532.934988 66.488562 
L 547.732437 72.191745 
L 547.732437 72.191745 
" style="fill:none;stroke:#cbff00;stroke-linecap:square;stroke-width:2;"/>
   </g>
   <g id="line2d_14">
    <path clip-path="url(#p9977f693bd)" d="M 192.593644 45.044591 
L 207.391094 59.188486 
L 207.391094 59.188486 
" style="fill:none;stroke:#00ff66;stroke-linecap:square;stroke-width:2;"/>
   </g>
   <g id="line2d_15">
    <path clip-path="url(#p9977f693bd)" d="M 384.960491 17.897436 
L 399.75794 32.041332 
L 399.75794 32.041332 
" style="fill:none;stroke:#00ff66;stroke-linecap:square;stroke-width:2;"/>
   </g>
   <g id="line2d_16">
    <path clip-path="url(#p9977f693bd)" d="M 414.55539 37.744515 
L 429.35284 51.888411 
L 429.35284 51.888411 
" style="fill:none;stroke:#00ff66;stroke-linecap:square;stroke-width:2;"/>
   </g>
   <g id="line2d_17">
    <path clip-path="url(#p9977f693bd)" d="M 518.137538 52.344666 
L 532.934988 66.488562 
L 532.934988 66.488562 
" style="fill:none;stroke:#00ff66;stroke-linecap:square;stroke-width:2;"/>
   </g>
   <g id="line2d_18">
    <path clip-path="url(#p9977f693bd)" d="M 547.732437 72.191745 
L 562.529887 86.335641 
L 562.529887 86.335641 
" style="fill:none;stroke:#00ff66;stroke-linecap:square;stroke-width:2;"/>
   </g>
   <g id="line2d_19">
    <path clip-path="url(#p9977f693bd)" d="M 118.606395 41.850808 
L 162.998745 33.638223 
L 162.998745 33.638223 
" style="fill:none;stroke:#0066ff;stroke-linecap:square;stroke-width:2;"/>
   </g>
   <g id="line2d_20">
    <path clip-path="url(#p9977f693bd)" d="M 236.985993 70.594854 
L 281.378342 62.382269 
L 281.378342 62.382269 
" style="fill:none;stroke:#0066ff;stroke-linecap:square;stroke-width:2;"/>
   </g>
   <g id="line2d_21">
    <path clip-path="url(#p9977f693bd)" d="M 444.150289 57.591595 
L 503.340088 46.641482 
L 503.340088 46.641482 
" style="fill:none;stroke:#0066ff;stroke-linecap:square;stroke-width:2;"/>
   </g>
   <g id="line2d_22">
    <path clip-path="url(#p9977f693bd)" d="M 15.024247 86.335641 
L 29.821697 49.835265 
L 29.821697 49.835265 
" style="fill:none;stroke:#cc00ff;stroke-linecap:square;stroke-width:2;"/>
   </g>
   <g id="line2d_23">
    <path clip-path="url(#p9977f693bd)" d="M 370.163041 54.397812 
L 384.960491 17.897436 
L 384.960491 17.897436 
" style="fill:none;stroke:#cc00ff;stroke-linecap:square;stroke-width:2;"/>
   </g>
   <g id="matplotlib.axis_1">
    <g id="xtick_1">
     <g id="line2d_24">
      <path clip-path="url(#p9977f693bd)" d="M 15.024247 87.704405 
L 15.024247 16.528672 
" style="fill:none;stroke:#000000;stroke-dasharray:0.5,0.825;stroke-dashoffset:0;stroke-width:0.5;"/>
     </g>
     <g id="line2d_25">
      <defs>
       <path d="M 0 0 
L 0 3.5 
" id="m8ee276b015" style="stroke:#000000;stroke-width:0.8;"/>
      </defs>
      <g>
       <use style="stroke:#000000;stroke-width:0.8;" x="15.024247" xlink:href="#m8ee276b015" y="86.335641"/>
      </g>
     </g>
    </g>
    <g id="xtick_2">
     <g id="line2d_26">
      <path clip-path="url(#p9977f693bd)" d="M 384.960491 87.704405 
L 384.960491 16.528672 
" style="fill:none;stroke:#000000;stroke-dasharray:0.5,0.825;stroke-dashoffset:0;stroke-width:0.5;"/>
     </g>
     <g id="line2d_27">
      <g>
       <use style="stroke:#000000;stroke-width:0.8;" x="384.960491" xlink:href="#m8ee276b015" y="86.335641"/>
      </g>
     </g>
     <g id="text_1">
      <!-- $f$ -->
      <defs>
       <path d="M 9.71875 -16.5 
Q 11.578125 -17.921875 14.203125 -17.921875 
Q 17.78125 -17.921875 20.015625 -10.015625 
Q 20.953125 -6.203125 25.09375 15.09375 
L 29.6875 39.59375 
L 21.09375 39.59375 
Q 20.125 39.59375 20.125 40.921875 
Q 20.515625 43.109375 21.390625 43.109375 
L 30.328125 43.109375 
L 31.5 49.609375 
Q 32.078125 52.640625 32.5625 54.8125 
Q 33.0625 56.984375 33.625 58.828125 
Q 34.1875 60.6875 35.296875 62.984375 
Q 37.015625 66.265625 39.921875 68.390625 
Q 42.828125 70.515625 46.1875 70.515625 
Q 48.390625 70.515625 50.46875 69.703125 
Q 52.546875 68.890625 53.859375 67.28125 
Q 55.171875 65.671875 55.171875 63.484375 
Q 55.171875 60.9375 53.484375 59.046875 
Q 51.8125 57.171875 49.421875 57.171875 
Q 47.796875 57.171875 46.65625 58.171875 
Q 45.515625 59.1875 45.515625 60.796875 
Q 45.515625 62.984375 47 64.625 
Q 48.484375 66.265625 50.6875 66.5 
Q 48.828125 67.921875 46.09375 67.921875 
Q 44.578125 67.921875 43.234375 66.5 
Q 41.890625 65.09375 41.5 63.484375 
Q 40.875 60.9375 38.71875 49.703125 
L 37.5 43.109375 
L 47.796875 43.109375 
Q 48.78125 43.109375 48.78125 41.796875 
Q 48.734375 41.546875 48.578125 40.9375 
Q 48.4375 40.328125 48.171875 39.953125 
Q 47.90625 39.59375 47.515625 39.59375 
L 36.8125 39.59375 
L 32.171875 15.1875 
Q 31.296875 9.859375 30.140625 4.359375 
Q 29 -1.125 26.921875 -6.90625 
Q 24.859375 -12.703125 21.625 -16.609375 
Q 18.40625 -20.515625 14.015625 -20.515625 
Q 10.640625 -20.515625 7.984375 -18.578125 
Q 5.328125 -16.65625 5.328125 -13.484375 
Q 5.328125 -10.9375 6.953125 -9.046875 
Q 8.59375 -7.171875 11.078125 -7.171875 
Q 12.75 -7.171875 13.859375 -8.171875 
Q 14.984375 -9.1875 14.984375 -10.796875 
Q 14.984375 -12.9375 13.390625 -14.71875 
Q 11.8125 -16.5 9.71875 -16.5 
z
" id="Cmmi10-66"/>
      </defs>
      <g transform="translate(382.510491 100.913766)scale(0.1 -0.1)">
       <use transform="translate(0 0.484375)" xlink:href="#Cmmi10-66"/>
      </g>
     </g>
    </g>
    <g id="xtick_3">
     <g id="line2d_28">
      <path clip-path="url(#p9977f693bd)" d="M 562.529887 87.704405 
L 562.529887 16.528672 
" style="fill:none;stroke:#000000;stroke-dasharray:0.5,0.825;stroke-dashoffset:0;stroke-width:0.5;"/>
     </g>
     <g id="line2d_29">
      <g>
       <use style="stroke:#000000;stroke-width:0.8;" x="562.529887" xlink:href="#m8ee276b015" y="86.335641"/>
      </g>
     </g>
     <g id="text_2">
      <!-- $1$ -->
      <defs>
       <path d="M 9.28125 0 
L 9.28125 3.515625 
Q 21.78125 3.515625 21.78125 6.6875 
L 21.78125 59.1875 
Q 16.609375 56.6875 8.6875 56.6875 
L 8.6875 60.203125 
Q 20.953125 60.203125 27.203125 66.609375 
L 28.609375 66.609375 
Q 28.953125 66.609375 29.265625 66.328125 
Q 29.59375 66.0625 29.59375 65.71875 
L 29.59375 6.6875 
Q 29.59375 3.515625 42.09375 3.515625 
L 42.09375 0 
z
" id="Cmr10-31"/>
      </defs>
      <g transform="translate(560.029887 100.934078)scale(0.1 -0.1)">
       <use transform="translate(0 0.390625)" xlink:href="#Cmr10-31"/>
      </g>
     </g>
    </g>
   </g>
   <g id="matplotlib.axis_2">
    <g id="ytick_1">
     <g id="line2d_30">
      <path clip-path="url(#p9977f693bd)" d="M 4.074135 86.335641 
L 573.48 86.335641 
" style="fill:none;stroke:#000000;stroke-dasharray:0.5,0.825;stroke-dashoffset:0;stroke-width:0.5;"/>
     </g>
     <g id="line2d_31">
      <defs>
       <path d="M 0 0 
L -3.5 0 
" id="maa7f972e13" style="stroke:#000000;stroke-width:0.8;"/>
      </defs>
      <g>
       <use style="stroke:#000000;stroke-width:0.8;" x="15.024247" xlink:href="#maa7f972e13" y="86.335641"/>
      </g>
     </g>
    </g>
    <g id="ytick_2">
     <g id="line2d_32">
      <path clip-path="url(#p9977f693bd)" d="M 4.074135 17.897436 
L 573.48 17.897436 
" style="fill:none;stroke:#000000;stroke-dasharray:0.5,0.825;stroke-dashoffset:0;stroke-width:0.5;"/>
     </g>
     <g id="line2d_33">
      <g>
       <use style="stroke:#000000;stroke-width:0.8;" x="15.024247" xlink:href="#maa7f972e13" y="17.897436"/>
      </g>
     </g>
     <g id="text_3">
      <!-- $1$ -->
      <g transform="translate(3.024247 21.696655)scale(0.1 -0.1)">
       <use transform="translate(0 0.390625)" xlink:href="#Cmr10-31"/>
      </g>
     </g>
    </g>
   </g>
   <g id="patch_3">
    <path d="M 15.024247 87.704405 
L 15.024247 16.528672 
" style="fill:none;stroke:#000000;stroke-linecap:square;stroke-linejoin:miter;stroke-width:0.8;"/>
   </g>
   <g id="patch_4">
    <path d="M 4.074135 86.335641 
L 573.48 86.335641 
" style="fill:none;stroke:#000000;stroke-linecap:square;stroke-linejoin:miter;stroke-width:0.8;"/>
   </g>
  </g>
 </g>
 <defs>
  <clipPath id="p9977f693bd">
   <rect height="71.175733" width="569.405865" x="4.074135" y="16.528672"/>
  </clipPath>
 </defs>
</svg>
