<?xml version="1.0" encoding="utf-8" standalone="no"?>
<!DOCTYPE svg PUBLIC "-//W3C//DTD SVG 1.1//EN"
  "http://www.w3.org/Graphics/SVG/1.1/DTD/svg11.dtd">
<!-- Created with matplotlib (http://matplotlib.org/) -->
<svg height="108pt" version="1.1" viewBox="0 0 576 108" width="576pt" xmlns="http://www.w3.org/2000/svg" xmlns:xlink="http://www.w3.org/1999/xlink">
 <defs>
  <style type="text/css">
*{stroke-linecap:butt;stroke-linejoin:round;}
  </style>
 </defs>
 <g id="figure_1">
  <g id="patch_1">
   <path d="M 0 108 
L 576 108 
L 576 0 
L 0 0 
z
" style="fill:#ffffff;"/>
  </g>
  <g id="axes_1">
   <g id="patch_2">
    <path d="M 4.074135 87.704405 
L 573.48 87.704405 
L 573.48 16.528672 
L 4.074135 16.528672 
z
" style="fill:#ffffff;"/>
   </g>
   <g id="line2d_1">
    <path clip-path="url(#p9b7790119a)" d="M 15.024247 86.335641 
L 39.910867 41.702029 
L 39.910867 41.702029 
" style="fill:none;stroke:#ff0000;stroke-linecap:square;stroke-width:2;"/>
   </g>
   <g id="line2d_2">
    <path clip-path="url(#p9b7790119a)" d="M 64.797487 62.531048 
L 89.684107 17.897436 
L 89.684107 17.897436 
" style="fill:none;stroke:#ff0000;stroke-linecap:square;stroke-width:2;"/>
   </g>
   <g id="line2d_3">
    <path clip-path="url(#p9b7790119a)" d="M 313.663687 74.433344 
L 338.550307 29.799732 
L 338.550307 29.799732 
" style="fill:none;stroke:#ff0000;stroke-linecap:square;stroke-width:2;"/>
   </g>
   <g id="line2d_4">
    <path clip-path="url(#p9b7790119a)" d="M 114.570727 60.547332 
L 114.735667 60.396137 
L 114.867175 60.275588 
L 114.990388 60.162643 
L 115.087133 60.07396 
L 115.20447 59.966401 
L 115.272544 59.904 
L 115.403686 59.783787 
L 115.611206 59.59356 
L 115.724027 59.49014 
L 115.766932 59.450811 
L 115.887399 59.340383 
L 116.00971 59.228265 
L 116.189602 59.063364 
L 116.356784 58.910113 
L 116.397443 58.872843 
L 116.616779 58.671784 
L 116.727298 58.570475 
L 116.815864 58.48929 
L 117.007481 58.313641 
L 117.075983 58.250848 
L 117.151102 58.181989 
L 117.349093 58.000496 
L 117.456129 57.90238 
L 117.578811 57.789922 
L 117.676066 57.700772 
L 117.781018 57.604566 
L 117.974272 57.427416 
L 118.080243 57.330276 
L 118.16607 57.251601 
L 118.350344 57.082684 
L 118.409349 57.028595 
L 118.601619 56.852347 
L 118.729755 56.73489 
L 118.763763 56.703716 
L 118.968163 56.516349 
L 119.012433 56.475768 
L 119.171286 56.330153 
L 119.323422 56.190695 
L 119.440735 56.083158 
L 119.564121 55.970054 
L 119.720427 55.826773 
L 119.864152 55.695026 
L 120.005058 55.565862 
L 120.062711 55.513013 
L 120.189595 55.396704 
L 120.2786 55.315115 
L 120.48591 55.125081 
L 120.554396 55.062302 
L 120.710636 54.919083 
L 120.843202 54.797564 
L 120.941259 54.707677 
L 121.053852 54.604467 
L 121.227857 54.444963 
L 121.365824 54.318494 
L 121.478593 54.215122 
L 121.601447 54.102505 
L 121.725052 53.989201 
L 121.811114 53.910311 
L 121.945529 53.787097 
L 122.030153 53.709525 
L 122.235976 53.520854 
L 122.377637 53.390998 
L 122.447944 53.32655 
L 122.539248 53.242855 
L 122.654228 53.137456 
L 122.775604 53.026195 
L 122.979462 52.839325 
L 123.051287 52.773485 
L 123.251012 52.590405 
L 123.351188 52.498576 
L 123.503753 52.358725 
L 123.523214 52.340886 
L 123.742675 52.139713 
L 123.785323 52.100619 
L 123.903778 51.992036 
L 124.092415 51.819118 
" style="fill:none;stroke:#cbff00;stroke-linecap:square;stroke-width:2;"/>
   </g>
   <g id="line2d_5">
    <path clip-path="url(#p9b7790119a)" d="M 124.511266 51.435172 
L 124.612938 51.341972 
L 124.688502 51.272705 
L 124.863785 51.112029 
L 124.926268 51.054753 
L 125.107658 50.888479 
L 125.163674 50.837131 
L 125.362707 50.654684 
L 125.474229 50.552455 
L 125.60699 50.430758 
L 125.732999 50.31525 
L 125.850583 50.207464 
L 125.968658 50.099229 
L 126.086526 49.991183 
L 126.242316 49.848375 
L 126.302976 49.792771 
L 126.500662 49.611559 
L 126.557687 49.559286 
L 126.702886 49.426186 
L 126.816691 49.321865 
L 126.977354 49.174591 
L 127.017333 49.137943 
L 127.244886 48.929353 
L 127.326433 48.854602 
L 127.500066 48.695438 
L 127.520503 48.676704 
L 127.755687 48.461119 
L 127.881303 48.345971 
L 128.006799 48.230933 
L 128.045773 48.195206 
L 128.222599 48.033116 
L 128.345564 47.920398 
L 128.486138 47.791538 
L 128.584856 47.701047 
L 128.698656 47.59673 
L 128.797889 47.505767 
L 129.001165 47.319431 
L 129.054946 47.270132 
L 129.205617 47.132016 
L 129.377161 46.974767 
L 129.441814 46.915503 
L 129.542959 46.822787 
L 129.683917 46.693575 
L 129.841079 46.54951 
L 129.971868 46.42962 
L 130.023386 46.382395 
L 130.154189 46.262492 
L 130.316993 46.113255 
L 130.460693 45.98153 
L 130.537771 45.910876 
L 130.752433 45.714102 
L 130.859106 45.616318 
L 130.974505 45.510535 
L 131.028909 45.460665 
L 131.147826 45.351658 
L 131.273062 45.236859 
L 131.436611 45.086938 
L 131.634433 44.905602 
L 131.745438 44.803848 
L 131.852993 44.705255 
L 131.94628 44.619742 
L 132.03906 44.534694 
L 132.23745 44.352836 
L 132.32269 44.2747 
L 132.484465 44.126406 
L 132.597267 44.023004 
L 132.717952 43.912376 
L 132.777559 43.857736 
L 133.003063 43.651024 
L 133.020472 43.635066 
L 133.216861 43.455043 
L 133.306502 43.372872 
L 133.455482 43.236307 
L 133.594546 43.108831 
L 133.646834 43.060901 
L 133.877161 42.849768 
L 134.007821 42.729996 
L 134.104421 42.641446 
L 134.152844 42.597058 
L 134.384328 42.384865 
L 134.420806 42.351426 
L 134.616465 42.172073 
L 134.709299 42.086975 
L 134.828023 41.978144 
L 135.002225 41.818459 
L 135.088682 41.739207 
L 135.211771 41.626375 
L 135.278864 41.564874 
L 135.406322 41.448037 
L 135.609088 41.262168 
L 135.691312 41.186796 
L 135.848361 41.042834 
L 135.976244 40.925608 
L 136.087592 40.823539 
L 136.143497 40.772293 
L 136.361711 40.572264 
L 136.464791 40.477774 
L 136.529585 40.418379 
L 136.684837 40.276065 
L 136.780719 40.188173 
L 136.897759 40.080886 
L 137.023008 39.966075 
L 137.257513 39.751111 
L 137.286775 39.724289 
L 137.459124 39.566302 
L 137.579714 39.455761 
L 137.758499 39.291874 
L 137.797884 39.255771 
L 137.99902 39.071397 
L 138.123434 38.957351 
L 138.155464 38.927989 
L 138.328461 38.76941 
L 138.44817 38.659676 
L 138.529921 38.584737 
L 138.670658 38.455729 
L 138.8091 38.328823 
L 138.920169 38.22701 
L 139.026424 38.12961 
L 139.147127 38.018965 
L 139.275114 37.901644 
L 139.457347 37.734597 
" style="fill:none;stroke:#cbff00;stroke-linecap:square;stroke-width:2;"/>
   </g>
   <g id="line2d_6">
    <path clip-path="url(#p9b7790119a)" d="M 263.890447 76.417061 
L 288.777067 53.604326 
L 288.777067 53.604326 
" style="fill:none;stroke:#cbff00;stroke-linecap:square;stroke-width:2;"/>
   </g>
   <g id="line2d_7">
    <path clip-path="url(#p9b7790119a)" d="M 363.436927 50.628751 
L 388.323547 27.816016 
L 388.323547 27.816016 
" style="fill:none;stroke:#cbff00;stroke-linecap:square;stroke-width:2;"/>
   </g>
   <g id="line2d_8">
    <path clip-path="url(#p9b7790119a)" d="M 512.756647 66.49848 
L 537.643267 43.685745 
L 537.643267 43.685745 
" style="fill:none;stroke:#cbff00;stroke-linecap:square;stroke-width:2;"/>
   </g>
   <g id="line2d_9">
    <path clip-path="url(#p9b7790119a)" d="M 89.684107 17.897436 
L 114.570727 60.547332 
L 114.570727 60.547332 
" style="fill:none;stroke:#00ff66;stroke-linecap:square;stroke-width:2;"/>
   </g>
   <g id="line2d_10">
    <path clip-path="url(#p9b7790119a)" d="M 537.643267 43.685745 
L 562.529887 86.335641 
L 562.529887 86.335641 
" style="fill:none;stroke:#00ff66;stroke-linecap:square;stroke-width:2;"/>
   </g>
   <g id="line2d_11">
    <path clip-path="url(#p9b7790119a)" d="M 39.910867 41.702029 
L 64.797487 62.531048 
L 64.797487 62.531048 
" style="fill:none;stroke:#0066ff;stroke-linecap:square;stroke-width:2;"/>
   </g>
   <g id="line2d_12">
    <path clip-path="url(#p9b7790119a)" d="M 164.343967 36.742739 
L 189.230587 57.571758 
L 189.230587 57.571758 
" style="fill:none;stroke:#0066ff;stroke-linecap:square;stroke-width:2;"/>
   </g>
   <g id="line2d_13">
    <path clip-path="url(#p9b7790119a)" d="M 239.003827 55.588042 
L 263.890447 76.417061 
L 263.890447 76.417061 
" style="fill:none;stroke:#0066ff;stroke-linecap:square;stroke-width:2;"/>
   </g>
   <g id="line2d_14">
    <path clip-path="url(#p9b7790119a)" d="M 288.777067 53.604326 
L 313.663687 74.433344 
L 313.663687 74.433344 
" style="fill:none;stroke:#0066ff;stroke-linecap:square;stroke-width:2;"/>
   </g>
   <g id="line2d_15">
    <path clip-path="url(#p9b7790119a)" d="M 338.550307 29.799732 
L 363.436927 50.628751 
L 363.436927 50.628751 
" style="fill:none;stroke:#0066ff;stroke-linecap:square;stroke-width:2;"/>
   </g>
   <g id="line2d_16">
    <path clip-path="url(#p9b7790119a)" d="M 388.323547 27.816016 
L 413.210167 48.645035 
L 413.210167 48.645035 
" style="fill:none;stroke:#0066ff;stroke-linecap:square;stroke-width:2;"/>
   </g>
   <g id="line2d_17">
    <path clip-path="url(#p9b7790119a)" d="M 462.983407 46.661319 
L 487.870027 67.490338 
L 487.870027 67.490338 
" style="fill:none;stroke:#0066ff;stroke-linecap:square;stroke-width:2;"/>
   </g>
   <g id="line2d_18">
    <path clip-path="url(#p9b7790119a)" d="M 139.457347 37.734597 
L 164.343967 36.742739 
L 164.343967 36.742739 
" style="fill:none;stroke:#cc00ff;stroke-linecap:square;stroke-width:2;"/>
   </g>
   <g id="line2d_19">
    <path clip-path="url(#p9b7790119a)" d="M 189.230587 57.571758 
L 239.003827 55.588042 
L 239.003827 55.588042 
" style="fill:none;stroke:#cc00ff;stroke-linecap:square;stroke-width:2;"/>
   </g>
   <g id="line2d_20">
    <path clip-path="url(#p9b7790119a)" d="M 413.210167 48.645035 
L 462.983407 46.661319 
L 462.983407 46.661319 
" style="fill:none;stroke:#cc00ff;stroke-linecap:square;stroke-width:2;"/>
   </g>
   <g id="line2d_21">
    <path clip-path="url(#p9b7790119a)" d="M 487.870027 67.490338 
L 512.756647 66.49848 
L 512.756647 66.49848 
" style="fill:none;stroke:#cc00ff;stroke-linecap:square;stroke-width:2;"/>
   </g>
   <g id="matplotlib.axis_1">
    <g id="xtick_1">
     <g id="line2d_22">
      <path clip-path="url(#p9b7790119a)" d="M 15.024247 87.704405 
L 15.024247 16.528672 
" style="fill:none;stroke:#000000;stroke-dasharray:0.5,0.825;stroke-dashoffset:0;stroke-width:0.5;"/>
     </g>
     <g id="line2d_23">
      <defs>
       <path d="M 0 0 
L 0 3.5 
" id="m3d9c685ef0" style="stroke:#000000;stroke-width:0.8;"/>
      </defs>
      <g>
       <use style="stroke:#000000;stroke-width:0.8;" x="15.024247" xlink:href="#m3d9c685ef0" y="86.335641"/>
      </g>
     </g>
    </g>
    <g id="xtick_2">
     <g id="line2d_24">
      <path clip-path="url(#p9b7790119a)" d="M 89.684107 87.704405 
L 89.684107 16.528672 
" style="fill:none;stroke:#000000;stroke-dasharray:0.5,0.825;stroke-dashoffset:0;stroke-width:0.5;"/>
     </g>
     <g id="line2d_25">
      <g>
       <use style="stroke:#000000;stroke-width:0.8;" x="89.684107" xlink:href="#m3d9c685ef0" y="86.335641"/>
      </g>
     </g>
     <g id="text_1">
      <!-- $f$ -->
      <defs>
       <path d="M 9.71875 -16.5 
Q 11.578125 -17.921875 14.203125 -17.921875 
Q 17.78125 -17.921875 20.015625 -10.015625 
Q 20.953125 -6.203125 25.09375 15.09375 
L 29.6875 39.59375 
L 21.09375 39.59375 
Q 20.125 39.59375 20.125 40.921875 
Q 20.515625 43.109375 21.390625 43.109375 
L 30.328125 43.109375 
L 31.5 49.609375 
Q 32.078125 52.640625 32.5625 54.8125 
Q 33.0625 56.984375 33.625 58.828125 
Q 34.1875 60.6875 35.296875 62.984375 
Q 37.015625 66.265625 39.921875 68.390625 
Q 42.828125 70.515625 46.1875 70.515625 
Q 48.390625 70.515625 50.46875 69.703125 
Q 52.546875 68.890625 53.859375 67.28125 
Q 55.171875 65.671875 55.171875 63.484375 
Q 55.171875 60.9375 53.484375 59.046875 
Q 51.8125 57.171875 49.421875 57.171875 
Q 47.796875 57.171875 46.65625 58.171875 
Q 45.515625 59.1875 45.515625 60.796875 
Q 45.515625 62.984375 47 64.625 
Q 48.484375 66.265625 50.6875 66.5 
Q 48.828125 67.921875 46.09375 67.921875 
Q 44.578125 67.921875 43.234375 66.5 
Q 41.890625 65.09375 41.5 63.484375 
Q 40.875 60.9375 38.71875 49.703125 
L 37.5 43.109375 
L 47.796875 43.109375 
Q 48.78125 43.109375 48.78125 41.796875 
Q 48.734375 41.546875 48.578125 40.9375 
Q 48.4375 40.328125 48.171875 39.953125 
Q 47.90625 39.59375 47.515625 39.59375 
L 36.8125 39.59375 
L 32.171875 15.1875 
Q 31.296875 9.859375 30.140625 4.359375 
Q 29 -1.125 26.921875 -6.90625 
Q 24.859375 -12.703125 21.625 -16.609375 
Q 18.40625 -20.515625 14.015625 -20.515625 
Q 10.640625 -20.515625 7.984375 -18.578125 
Q 5.328125 -16.65625 5.328125 -13.484375 
Q 5.328125 -10.9375 6.953125 -9.046875 
Q 8.59375 -7.171875 11.078125 -7.171875 
Q 12.75 -7.171875 13.859375 -8.171875 
Q 14.984375 -9.1875 14.984375 -10.796875 
Q 14.984375 -12.9375 13.390625 -14.71875 
Q 11.8125 -16.5 9.71875 -16.5 
z
" id="Cmmi10-66"/>
      </defs>
      <g transform="translate(87.234107 100.913766)scale(0.1 -0.1)">
       <use transform="translate(0 0.484375)" xlink:href="#Cmmi10-66"/>
      </g>
     </g>
    </g>
    <g id="xtick_3">
     <g id="line2d_26">
      <path clip-path="url(#p9b7790119a)" d="M 562.529887 87.704405 
L 562.529887 16.528672 
" style="fill:none;stroke:#000000;stroke-dasharray:0.5,0.825;stroke-dashoffset:0;stroke-width:0.5;"/>
     </g>
     <g id="line2d_27">
      <g>
       <use style="stroke:#000000;stroke-width:0.8;" x="562.529887" xlink:href="#m3d9c685ef0" y="86.335641"/>
      </g>
     </g>
     <g id="text_2">
      <!-- $1$ -->
      <defs>
       <path d="M 9.28125 0 
L 9.28125 3.515625 
Q 21.78125 3.515625 21.78125 6.6875 
L 21.78125 59.1875 
Q 16.609375 56.6875 8.6875 56.6875 
L 8.6875 60.203125 
Q 20.953125 60.203125 27.203125 66.609375 
L 28.609375 66.609375 
Q 28.953125 66.609375 29.265625 66.328125 
Q 29.59375 66.0625 29.59375 65.71875 
L 29.59375 6.6875 
Q 29.59375 3.515625 42.09375 3.515625 
L 42.09375 0 
z
" id="Cmr10-31"/>
      </defs>
      <g transform="translate(560.029887 100.934078)scale(0.1 -0.1)">
       <use transform="translate(0 0.390625)" xlink:href="#Cmr10-31"/>
      </g>
     </g>
    </g>
   </g>
   <g id="matplotlib.axis_2">
    <g id="ytick_1">
     <g id="line2d_28">
      <path clip-path="url(#p9b7790119a)" d="M 4.074135 86.335641 
L 573.48 86.335641 
" style="fill:none;stroke:#000000;stroke-dasharray:0.5,0.825;stroke-dashoffset:0;stroke-width:0.5;"/>
     </g>
     <g id="line2d_29">
      <defs>
       <path d="M 0 0 
L -3.5 0 
" id="m141cca2ca4" style="stroke:#000000;stroke-width:0.8;"/>
      </defs>
      <g>
       <use style="stroke:#000000;stroke-width:0.8;" x="15.024247" xlink:href="#m141cca2ca4" y="86.335641"/>
      </g>
     </g>
    </g>
    <g id="ytick_2">
     <g id="line2d_30">
      <path clip-path="url(#p9b7790119a)" d="M 4.074135 17.897436 
L 573.48 17.897436 
" style="fill:none;stroke:#000000;stroke-dasharray:0.5,0.825;stroke-dashoffset:0;stroke-width:0.5;"/>
     </g>
     <g id="line2d_31">
      <g>
       <use style="stroke:#000000;stroke-width:0.8;" x="15.024247" xlink:href="#m141cca2ca4" y="17.897436"/>
      </g>
     </g>
     <g id="text_3">
      <!-- $1$ -->
      <g transform="translate(3.024247 21.696655)scale(0.1 -0.1)">
       <use transform="translate(0 0.390625)" xlink:href="#Cmr10-31"/>
      </g>
     </g>
    </g>
   </g>
   <g id="patch_3">
    <path d="M 15.024247 87.704405 
L 15.024247 16.528672 
" style="fill:none;stroke:#000000;stroke-linecap:square;stroke-linejoin:miter;stroke-width:0.8;"/>
   </g>
   <g id="patch_4">
    <path d="M 4.074135 86.335641 
L 573.48 86.335641 
" style="fill:none;stroke:#000000;stroke-linecap:square;stroke-linejoin:miter;stroke-width:0.8;"/>
   </g>
  </g>
 </g>
 <defs>
  <clipPath id="p9b7790119a">
   <rect height="71.175733" width="569.405865" x="4.074135" y="16.528672"/>
  </clipPath>
 </defs>
</svg>
