<?xml version="1.0" encoding="utf-8" standalone="no"?>
<!DOCTYPE svg PUBLIC "-//W3C//DTD SVG 1.1//EN"
  "http://www.w3.org/Graphics/SVG/1.1/DTD/svg11.dtd">
<!-- Created with matplotlib (http://matplotlib.org/) -->
<svg height="108pt" version="1.1" viewBox="0 0 576 108" width="576pt" xmlns="http://www.w3.org/2000/svg" xmlns:xlink="http://www.w3.org/1999/xlink">
 <defs>
  <style type="text/css">
*{stroke-linecap:butt;stroke-linejoin:round;}
  </style>
 </defs>
 <g id="figure_1">
  <g id="patch_1">
   <path d="M 0 108 
L 576 108 
L 576 0 
L 0 0 
z
" style="fill:#ffffff;"/>
  </g>
  <g id="axes_1">
   <g id="patch_2">
    <path d="M 4.074135 87.704405 
L 573.48 87.704405 
L 573.48 16.528672 
L 4.074135 16.528672 
z
" style="fill:#ffffff;"/>
   </g>
   <g id="line2d_1">
    <path clip-path="url(#pdbd48dc7fc)" d="M 71.662762 71.818446 
L 90.542267 46.931826 
L 90.542267 46.931826 
" style="fill:none;stroke:#ff0000;stroke-linecap:square;stroke-width:2;"/>
   </g>
   <g id="line2d_2">
    <path clip-path="url(#pdbd48dc7fc)" d="M 128.301276 57.301251 
L 147.180781 32.414631 
L 147.180781 32.414631 
" style="fill:none;stroke:#ff0000;stroke-linecap:square;stroke-width:2;"/>
   </g>
   <g id="line2d_3">
    <path clip-path="url(#pdbd48dc7fc)" d="M 317.096325 69.053266 
L 335.975829 44.166646 
L 335.975829 44.166646 
" style="fill:none;stroke:#ff0000;stroke-linecap:square;stroke-width:2;"/>
   </g>
   <g id="line2d_4">
    <path clip-path="url(#pdbd48dc7fc)" d="M 430.373353 60.066431 
L 449.252858 35.179811 
L 449.252858 35.179811 
" style="fill:none;stroke:#ff0000;stroke-linecap:square;stroke-width:2;"/>
   </g>
   <g id="line2d_5">
    <path clip-path="url(#pdbd48dc7fc)" d="M 15.024247 86.335641 
L 15.107756 86.136887 
L 15.247544 85.804183 
L 15.301438 85.675913 
L 15.363537 85.528115 
L 15.50181 85.199017 
L 15.570461 85.035624 
L 15.692594 84.744941 
L 15.750399 84.607363 
L 15.846164 84.379438 
L 15.941613 84.152263 
L 16.067391 83.852907 
L 16.20219 83.532077 
L 16.229281 83.467601 
L 16.338064 83.20869 
L 16.47573 82.881039 
L 16.521127 82.772992 
L 16.674759 82.407339 
L 16.71132 82.320324 
L 16.801661 82.105307 
L 16.965744 81.714781 
L 17.02817 81.566205 
L 17.122951 81.34062 
L 17.163784 81.243437 
L 17.29645 80.927684 
L 17.384334 80.718516 
L 17.457835 80.54358 
L 17.587454 80.23508 
L 17.635456 80.120832 
L 17.810717 79.703704 
L 17.875447 79.549641 
L 17.99675 79.260934 
L 18.055155 79.121928 
L 18.143698 78.911191 
L 18.245996 78.667717 
L 18.324194 78.481602 
L 18.472379 78.128914 
L 18.567913 77.901538 
L 18.656041 77.691789 
L 18.757459 77.45041 
L 18.848934 77.232694 
L 18.949008 76.994513 
L 19.03166 76.797796 
L 19.089306 76.660595 
L 19.228087 76.330291 
L 19.305513 76.146014 
L 19.370192 75.992072 
L 19.443163 75.818399 
L 19.607053 75.428333 
L 19.696864 75.214577 
L 19.74714 75.094918 
L 19.837665 74.879464 
L 19.925132 74.671289 
L 20.086695 74.28676 
L 20.151018 74.133668 
L 20.251582 73.894321 
L 20.311181 73.752473 
L 20.429309 73.471321 
L 20.491207 73.324 
L 20.604776 73.053702 
L 20.722555 72.773381 
L 20.858094 72.450792 
L 20.869834 72.422849 
L 21.042454 72.012006 
L 21.09546 71.885848 
L 21.210638 71.61172 
L 21.253297 71.510189 
L 21.338 71.308591 
L 21.504814 70.911564 
L 21.602551 70.678945 
L 21.680321 70.493849 
L 21.798813 70.211833 
L 21.811053 70.1827 
L 21.980372 69.779712 
L 22.051451 69.610542 
L 22.097477 69.500997 
L 22.260629 69.112686 
L 22.35888 68.878846 
L 22.457265 68.644683 
L 22.513936 68.509804 
L 22.58685 68.336266 
L 22.694063 68.081092 
L 22.810131 67.804845 
L 22.861713 67.682078 
L 22.970497 67.423165 
L 23.072861 67.179535 
L 23.228494 66.80912 
L 23.238827 66.784527 
L 23.332377 66.561874 
L 23.481101 66.207903 
L 23.593103 65.941333 
L 23.638862 65.832423 
L 23.77985 65.496865 
L 23.81468 65.413968 
L 23.935836 65.125611 
L 24.067284 64.812758 
L 24.175573 64.555025 
L 24.216473 64.457681 
L 24.281045 64.303995 
L 24.373091 64.084922 
L 24.519464 63.736547 
L 24.583264 63.584698 
L 24.658119 63.40654 
L 24.826474 63.005846 
L 24.936682 62.743545 
L 24.943022 62.728456 
L 25.035095 62.509318 
L 25.158112 62.216531 
L 25.27148 61.946709 
L 25.386692 61.6725 
L 25.47709 61.457347 
L 25.554015 61.274263 
L 25.618225 61.12144 
L 25.723082 60.871875 
L 25.826871 60.624852 
" style="fill:none;stroke:#ffda00;stroke-linecap:square;stroke-width:2;"/>
   </g>
   <g id="line2d_6">
    <path clip-path="url(#pdbd48dc7fc)" d="M 26.150305 59.855062 
L 26.231101 59.662763 
L 26.29506 59.510538 
L 26.383456 59.300151 
L 26.519311 58.97681 
L 26.570264 58.855538 
L 26.664521 58.631203 
L 26.810185 58.284514 
L 26.878207 58.122619 
L 26.976947 57.887612 
L 27.074346 57.655798 
L 27.20408 57.347024 
L 27.261113 57.211284 
L 27.358196 56.980219 
L 27.418281 56.837215 
L 27.506582 56.627053 
L 27.688216 56.194757 
L 27.721315 56.115979 
L 27.874513 55.75136 
L 27.932427 55.613521 
L 28.022717 55.398626 
L 28.156795 55.079514 
L 28.16994 55.04823 
L 28.259487 54.835103 
L 28.361283 54.592822 
L 28.511411 54.23551 
L 28.635665 53.93978 
L 28.652076 53.90072 
L 28.779416 53.597646 
L 28.839719 53.45412 
L 28.966748 53.151785 
L 29.054181 52.943691 
L 29.182202 52.638995 
L 29.251301 52.474535 
L 29.322503 52.305071 
L 29.469842 51.954397 
L 29.500716 51.880915 
L 29.61701 51.604129 
L 29.732839 51.328451 
L 29.837988 51.078191 
L 29.962808 50.781111 
L 29.991174 50.713599 
L 30.135864 50.369231 
L 30.161395 50.308464 
L 30.276982 50.033363 
L 30.347798 49.864817 
L 30.463162 49.590245 
L 30.617933 49.221881 
L 30.677902 49.079152 
L 30.773585 48.851423 
L 30.852019 48.664745 
L 31.007361 48.295024 
L 31.057806 48.174962 
L 31.133877 47.993909 
L 31.227099 47.772037 
L 31.315291 47.562135 
L 31.39343 47.37616 
L 31.565792 46.96593 
L 31.591849 46.903912 
L 31.69767 46.652054 
L 31.859182 46.267646 
L 31.924924 46.111177 
L 31.964993 46.015811 
L 32.118413 45.650663 
L 32.171017 45.525464 
L 32.264089 45.303948 
L 32.339732 45.123913 
L 32.488062 44.770881 
L 32.580446 44.551001 
L 32.676285 44.322899 
L 32.787672 44.057792 
L 32.841957 43.928593 
L 32.964474 43.636995 
L 33.056918 43.416973 
L 33.102912 43.307507 
L 33.254075 42.947731 
L 33.369075 42.674024 
L 33.416888 42.560229 
L 33.521598 42.311012 
L 33.611712 42.096536 
L 33.759748 41.744204 
L 33.762666 41.737257 
L 33.903752 41.401466 
" style="fill:none;stroke:#ffda00;stroke-linecap:square;stroke-width:2;"/>
   </g>
   <g id="line2d_7">
    <path clip-path="url(#pdbd48dc7fc)" d="M 184.939791 62.831611 
L 203.819296 17.897436 
L 203.819296 17.897436 
" style="fill:none;stroke:#ffda00;stroke-linecap:square;stroke-width:2;"/>
   </g>
   <g id="line2d_8">
    <path clip-path="url(#pdbd48dc7fc)" d="M 373.734839 74.583626 
L 392.614344 29.649451 
L 392.614344 29.649451 
" style="fill:none;stroke:#ffda00;stroke-linecap:square;stroke-width:2;"/>
   </g>
   <g id="line2d_9">
    <path clip-path="url(#pdbd48dc7fc)" d="M 222.6988 53.153481 
L 241.578305 68.361971 
L 241.578305 68.361971 
" style="fill:none;stroke:#48ff00;stroke-linecap:square;stroke-width:2;"/>
   </g>
   <g id="line2d_10">
    <path clip-path="url(#pdbd48dc7fc)" d="M 298.21682 53.844776 
L 317.096325 69.053266 
L 317.096325 69.053266 
" style="fill:none;stroke:#48ff00;stroke-linecap:square;stroke-width:2;"/>
   </g>
   <g id="line2d_11">
    <path clip-path="url(#pdbd48dc7fc)" d="M 449.252858 35.179811 
L 468.132363 50.388301 
L 468.132363 50.388301 
" style="fill:none;stroke:#48ff00;stroke-linecap:square;stroke-width:2;"/>
   </g>
   <g id="line2d_12">
    <path clip-path="url(#pdbd48dc7fc)" d="M 524.770878 35.871106 
L 543.650382 51.079596 
L 543.650382 51.079596 
" style="fill:none;stroke:#48ff00;stroke-linecap:square;stroke-width:2;"/>
   </g>
   <g id="line2d_13">
    <path clip-path="url(#pdbd48dc7fc)" d="M 203.819296 17.897436 
L 222.6988 53.153481 
L 222.6988 53.153481 
" style="fill:none;stroke:#00ff91;stroke-linecap:square;stroke-width:2;"/>
   </g>
   <g id="line2d_14">
    <path clip-path="url(#pdbd48dc7fc)" d="M 543.650382 51.079596 
L 562.529887 86.335641 
L 562.529887 86.335641 
" style="fill:none;stroke:#00ff91;stroke-linecap:square;stroke-width:2;"/>
   </g>
   <g id="line2d_15">
    <path clip-path="url(#pdbd48dc7fc)" d="M 52.783257 66.633733 
L 71.662762 71.818446 
L 71.662762 71.818446 
" style="fill:none;stroke:#0091ff;stroke-linecap:square;stroke-width:2;"/>
   </g>
   <g id="line2d_16">
    <path clip-path="url(#pdbd48dc7fc)" d="M 90.542267 46.931826 
L 128.301276 57.301251 
L 128.301276 57.301251 
" style="fill:none;stroke:#0091ff;stroke-linecap:square;stroke-width:2;"/>
   </g>
   <g id="line2d_17">
    <path clip-path="url(#pdbd48dc7fc)" d="M 147.180781 32.414631 
L 166.060286 37.599343 
L 166.060286 37.599343 
" style="fill:none;stroke:#0091ff;stroke-linecap:square;stroke-width:2;"/>
   </g>
   <g id="line2d_18">
    <path clip-path="url(#pdbd48dc7fc)" d="M 335.975829 44.166646 
L 354.855334 49.351358 
L 354.855334 49.351358 
" style="fill:none;stroke:#0091ff;stroke-linecap:square;stroke-width:2;"/>
   </g>
   <g id="line2d_19">
    <path clip-path="url(#pdbd48dc7fc)" d="M 411.493849 54.881718 
L 430.373353 60.066431 
L 430.373353 60.066431 
" style="fill:none;stroke:#0091ff;stroke-linecap:square;stroke-width:2;"/>
   </g>
   <g id="line2d_20">
    <path clip-path="url(#pdbd48dc7fc)" d="M 241.578305 68.361971 
L 298.21682 53.844776 
L 298.21682 53.844776 
" style="fill:none;stroke:#4800ff;stroke-linecap:square;stroke-width:2;"/>
   </g>
   <g id="line2d_21">
    <path clip-path="url(#pdbd48dc7fc)" d="M 468.132363 50.388301 
L 524.770878 35.871106 
L 524.770878 35.871106 
" style="fill:none;stroke:#4800ff;stroke-linecap:square;stroke-width:2;"/>
   </g>
   <g id="line2d_22">
    <path clip-path="url(#pdbd48dc7fc)" d="M 33.903752 41.401466 
L 52.783257 66.633733 
L 52.783257 66.633733 
" style="fill:none;stroke:#ff00da;stroke-linecap:square;stroke-width:2;"/>
   </g>
   <g id="line2d_23">
    <path clip-path="url(#pdbd48dc7fc)" d="M 166.060286 37.599343 
L 184.939791 62.831611 
L 184.939791 62.831611 
" style="fill:none;stroke:#ff00da;stroke-linecap:square;stroke-width:2;"/>
   </g>
   <g id="line2d_24">
    <path clip-path="url(#pdbd48dc7fc)" d="M 354.855334 49.351358 
L 373.734839 74.583626 
L 373.734839 74.583626 
" style="fill:none;stroke:#ff00da;stroke-linecap:square;stroke-width:2;"/>
   </g>
   <g id="line2d_25">
    <path clip-path="url(#pdbd48dc7fc)" d="M 392.614344 29.649451 
L 411.493849 54.881718 
L 411.493849 54.881718 
" style="fill:none;stroke:#ff00da;stroke-linecap:square;stroke-width:2;"/>
   </g>
   <g id="matplotlib.axis_1">
    <g id="xtick_1">
     <g id="line2d_26">
      <path clip-path="url(#pdbd48dc7fc)" d="M 15.024247 87.704405 
L 15.024247 16.528672 
" style="fill:none;stroke:#000000;stroke-dasharray:0.5,0.825;stroke-dashoffset:0;stroke-width:0.5;"/>
     </g>
     <g id="line2d_27">
      <defs>
       <path d="M 0 0 
L 0 3.5 
" id="m679c949acc" style="stroke:#000000;stroke-width:0.8;"/>
      </defs>
      <g>
       <use style="stroke:#000000;stroke-width:0.8;" x="15.024247" xlink:href="#m679c949acc" y="86.335641"/>
      </g>
     </g>
    </g>
    <g id="xtick_2">
     <g id="line2d_28">
      <path clip-path="url(#pdbd48dc7fc)" d="M 203.819296 87.704405 
L 203.819296 16.528672 
" style="fill:none;stroke:#000000;stroke-dasharray:0.5,0.825;stroke-dashoffset:0;stroke-width:0.5;"/>
     </g>
     <g id="line2d_29">
      <g>
       <use style="stroke:#000000;stroke-width:0.8;" x="203.819296" xlink:href="#m679c949acc" y="86.335641"/>
      </g>
     </g>
     <g id="text_1">
      <!-- $f$ -->
      <defs>
       <path d="M 9.71875 -16.5 
Q 11.578125 -17.921875 14.203125 -17.921875 
Q 17.78125 -17.921875 20.015625 -10.015625 
Q 20.953125 -6.203125 25.09375 15.09375 
L 29.6875 39.59375 
L 21.09375 39.59375 
Q 20.125 39.59375 20.125 40.921875 
Q 20.515625 43.109375 21.390625 43.109375 
L 30.328125 43.109375 
L 31.5 49.609375 
Q 32.078125 52.640625 32.5625 54.8125 
Q 33.0625 56.984375 33.625 58.828125 
Q 34.1875 60.6875 35.296875 62.984375 
Q 37.015625 66.265625 39.921875 68.390625 
Q 42.828125 70.515625 46.1875 70.515625 
Q 48.390625 70.515625 50.46875 69.703125 
Q 52.546875 68.890625 53.859375 67.28125 
Q 55.171875 65.671875 55.171875 63.484375 
Q 55.171875 60.9375 53.484375 59.046875 
Q 51.8125 57.171875 49.421875 57.171875 
Q 47.796875 57.171875 46.65625 58.171875 
Q 45.515625 59.1875 45.515625 60.796875 
Q 45.515625 62.984375 47 64.625 
Q 48.484375 66.265625 50.6875 66.5 
Q 48.828125 67.921875 46.09375 67.921875 
Q 44.578125 67.921875 43.234375 66.5 
Q 41.890625 65.09375 41.5 63.484375 
Q 40.875 60.9375 38.71875 49.703125 
L 37.5 43.109375 
L 47.796875 43.109375 
Q 48.78125 43.109375 48.78125 41.796875 
Q 48.734375 41.546875 48.578125 40.9375 
Q 48.4375 40.328125 48.171875 39.953125 
Q 47.90625 39.59375 47.515625 39.59375 
L 36.8125 39.59375 
L 32.171875 15.1875 
Q 31.296875 9.859375 30.140625 4.359375 
Q 29 -1.125 26.921875 -6.90625 
Q 24.859375 -12.703125 21.625 -16.609375 
Q 18.40625 -20.515625 14.015625 -20.515625 
Q 10.640625 -20.515625 7.984375 -18.578125 
Q 5.328125 -16.65625 5.328125 -13.484375 
Q 5.328125 -10.9375 6.953125 -9.046875 
Q 8.59375 -7.171875 11.078125 -7.171875 
Q 12.75 -7.171875 13.859375 -8.171875 
Q 14.984375 -9.1875 14.984375 -10.796875 
Q 14.984375 -12.9375 13.390625 -14.71875 
Q 11.8125 -16.5 9.71875 -16.5 
z
" id="Cmmi10-66"/>
      </defs>
      <g transform="translate(201.369296 100.913766)scale(0.1 -0.1)">
       <use transform="translate(0 0.484375)" xlink:href="#Cmmi10-66"/>
      </g>
     </g>
    </g>
    <g id="xtick_3">
     <g id="line2d_30">
      <path clip-path="url(#pdbd48dc7fc)" d="M 562.529887 87.704405 
L 562.529887 16.528672 
" style="fill:none;stroke:#000000;stroke-dasharray:0.5,0.825;stroke-dashoffset:0;stroke-width:0.5;"/>
     </g>
     <g id="line2d_31">
      <g>
       <use style="stroke:#000000;stroke-width:0.8;" x="562.529887" xlink:href="#m679c949acc" y="86.335641"/>
      </g>
     </g>
     <g id="text_2">
      <!-- $1$ -->
      <defs>
       <path d="M 9.28125 0 
L 9.28125 3.515625 
Q 21.78125 3.515625 21.78125 6.6875 
L 21.78125 59.1875 
Q 16.609375 56.6875 8.6875 56.6875 
L 8.6875 60.203125 
Q 20.953125 60.203125 27.203125 66.609375 
L 28.609375 66.609375 
Q 28.953125 66.609375 29.265625 66.328125 
Q 29.59375 66.0625 29.59375 65.71875 
L 29.59375 6.6875 
Q 29.59375 3.515625 42.09375 3.515625 
L 42.09375 0 
z
" id="Cmr10-31"/>
      </defs>
      <g transform="translate(560.029887 100.934078)scale(0.1 -0.1)">
       <use transform="translate(0 0.390625)" xlink:href="#Cmr10-31"/>
      </g>
     </g>
    </g>
   </g>
   <g id="matplotlib.axis_2">
    <g id="ytick_1">
     <g id="line2d_32">
      <path clip-path="url(#pdbd48dc7fc)" d="M 4.074135 86.335641 
L 573.48 86.335641 
" style="fill:none;stroke:#000000;stroke-dasharray:0.5,0.825;stroke-dashoffset:0;stroke-width:0.5;"/>
     </g>
     <g id="line2d_33">
      <defs>
       <path d="M 0 0 
L -3.5 0 
" id="m06156d8356" style="stroke:#000000;stroke-width:0.8;"/>
      </defs>
      <g>
       <use style="stroke:#000000;stroke-width:0.8;" x="15.024247" xlink:href="#m06156d8356" y="86.335641"/>
      </g>
     </g>
    </g>
    <g id="ytick_2">
     <g id="line2d_34">
      <path clip-path="url(#pdbd48dc7fc)" d="M 4.074135 17.897436 
L 573.48 17.897436 
" style="fill:none;stroke:#000000;stroke-dasharray:0.5,0.825;stroke-dashoffset:0;stroke-width:0.5;"/>
     </g>
     <g id="line2d_35">
      <g>
       <use style="stroke:#000000;stroke-width:0.8;" x="15.024247" xlink:href="#m06156d8356" y="17.897436"/>
      </g>
     </g>
     <g id="text_3">
      <!-- $1$ -->
      <g transform="translate(3.024247 21.696655)scale(0.1 -0.1)">
       <use transform="translate(0 0.390625)" xlink:href="#Cmr10-31"/>
      </g>
     </g>
    </g>
   </g>
   <g id="patch_3">
    <path d="M 15.024247 87.704405 
L 15.024247 16.528672 
" style="fill:none;stroke:#000000;stroke-linecap:square;stroke-linejoin:miter;stroke-width:0.8;"/>
   </g>
   <g id="patch_4">
    <path d="M 4.074135 86.335641 
L 573.48 86.335641 
" style="fill:none;stroke:#000000;stroke-linecap:square;stroke-linejoin:miter;stroke-width:0.8;"/>
   </g>
  </g>
 </g>
 <defs>
  <clipPath id="pdbd48dc7fc">
   <rect height="71.175733" width="569.405865" x="4.074135" y="16.528672"/>
  </clipPath>
 </defs>
</svg>
