<?xml version="1.0" encoding="utf-8" standalone="no"?>
<!DOCTYPE svg PUBLIC "-//W3C//DTD SVG 1.1//EN"
  "http://www.w3.org/Graphics/SVG/1.1/DTD/svg11.dtd">
<!-- Created with matplotlib (http://matplotlib.org/) -->
<svg height="108pt" version="1.1" viewBox="0 0 576 108" width="576pt" xmlns="http://www.w3.org/2000/svg" xmlns:xlink="http://www.w3.org/1999/xlink">
 <defs>
  <style type="text/css">
*{stroke-linecap:butt;stroke-linejoin:round;}
  </style>
 </defs>
 <g id="figure_1">
  <g id="patch_1">
   <path d="M 0 108 
L 576 108 
L 576 0 
L 0 0 
z
" style="fill:#ffffff;"/>
  </g>
  <g id="axes_1">
   <g id="patch_2">
    <path d="M 4.074135 87.704405 
L 573.48 87.704405 
L 573.48 16.528672 
L 4.074135 16.528672 
z
" style="fill:#ffffff;"/>
   </g>
   <g id="line2d_1">
    <path clip-path="url(#pbb7dee1449)" d="M 179.275939 60.671314 
L 206.651221 60.671314 
L 206.651221 60.671314 
" style="fill:none;stroke:#ff0000;stroke-linecap:square;"/>
   </g>
   <g id="line2d_2">
    <path clip-path="url(#pbb7dee1449)" d="M 261.401785 43.561763 
L 288.777067 43.561763 
L 288.777067 43.561763 
" style="fill:none;stroke:#ff0000;stroke-linecap:square;"/>
   </g>
   <g id="line2d_3">
    <path clip-path="url(#pbb7dee1449)" d="M 15.024247 86.335641 
L 88.024999 63.522906 
L 88.024999 63.522906 
" style="fill:none;stroke:#00ff00;stroke-linecap:square;"/>
   </g>
   <g id="line2d_4">
    <path clip-path="url(#pbb7dee1449)" d="M 97.150093 69.22609 
L 98.975112 68.655771 
L 98.975112 68.655771 
" style="fill:none;stroke:#00ff00;stroke-linecap:square;"/>
   </g>
   <g id="line2d_5">
    <path clip-path="url(#pbb7dee1449)" d="M 99.887622 69.22609 
L 102.468588 68.419538 
L 102.468588 68.419538 
" style="fill:none;stroke:#00ff00;stroke-linecap:square;"/>
   </g>
   <g id="line2d_6">
    <path clip-path="url(#pbb7dee1449)" d="M 103.759071 69.22609 
L 163.228744 50.641817 
L 163.228744 50.641817 
" style="fill:none;stroke:#00ff00;stroke-linecap:square;"/>
   </g>
   <g id="line2d_7">
    <path clip-path="url(#pbb7dee1449)" d="M 206.651221 60.671314 
L 261.401785 43.561763 
L 261.401785 43.561763 
" style="fill:none;stroke:#00ff00;stroke-linecap:square;"/>
   </g>
   <g id="line2d_8">
    <path clip-path="url(#pbb7dee1449)" d="M 304.824263 53.59126 
L 364.293936 35.006987 
L 364.293936 35.006987 
" style="fill:none;stroke:#00ff00;stroke-linecap:square;"/>
   </g>
   <g id="line2d_9">
    <path clip-path="url(#pbb7dee1449)" d="M 365.584419 35.813539 
L 365.602594 35.80786 
L 365.613237 35.804534 
L 365.626779 35.800302 
L 365.637236 35.797034 
L 365.652983 35.792113 
L 365.663607 35.788793 
L 365.675021 35.785226 
L 365.687308 35.781386 
L 365.696345 35.778562 
L 365.709265 35.774525 
L 365.731835 35.767472 
L 365.746447 35.762905 
L 365.75828 35.759208 
L 365.759751 35.758748 
L 365.776236 35.753596 
L 365.789737 35.749377 
L 365.809258 35.743277 
L 365.819841 35.73997 
L 365.828085 35.737394 
L 365.848312 35.731073 
L 365.856434 35.728534 
L 365.863542 35.726313 
L 365.884925 35.719631 
L 365.897135 35.715815 
L 365.909065 35.712087 
L 365.928102 35.706138 
L 365.939789 35.702486 
L 365.952582 35.698488 
L 365.96489 35.694642 
L 365.978648 35.690343 
L 365.988926 35.687131 
L 365.993759 35.68562 
L 366.008163 35.681119 
L 366.029095 35.674578 
L 366.042806 35.670293 
L 366.055404 35.666356 
L 366.067714 35.662509 
L 366.076777 35.659677 
L 366.093061 35.654588 
L 366.100939 35.652127 
L 366.118097 35.646765 
L 366.131543 35.642563 
L 366.143731 35.638754 
L 366.152379 35.636052 
L 366.168061 35.631151 
L 366.183561 35.626307 
L 366.191638 35.623783 
L 366.209304 35.618263 
L 366.223943 35.613688 
L 366.231707 35.611262 
L 366.249313 35.60576 
L 366.264319 35.60107 
L 366.271406 35.598856 
L 366.28733 35.59388 
L 366.291933 35.592441 
L 366.310075 35.586772 
L 366.323602 35.582544 
L 366.340852 35.577154 
L 366.343153 35.576435 
L 366.357475 35.571959 
L 366.369452 35.568216 
L 366.394623 35.56035 
L 366.402218 35.557977 
L 366.418586 35.552862 
L 366.431896 35.548702 
L 366.440733 35.545941 
L 366.451485 35.542581 
L 366.464156 35.538621 
L 366.483724 35.532506 
L 366.49573 35.528754 
L 366.502257 35.526715 
L 366.522202 35.520482 
L 366.525923 35.519319 
L 366.538178 35.51549 
L 366.554838 35.510283 
L 366.576113 35.503635 
L 366.588576 35.49974 
L 366.600759 35.495933 
L 366.612323 35.492319 
L 366.617021 35.490851 
L 366.62996 35.486808 
L 366.652182 35.479863 
L 366.659782 35.477488 
L 366.671093 35.473953 
L 366.686098 35.469264 
L 366.705366 35.463243 
L 366.712054 35.461153 
L 366.731841 35.45497 
L 366.733762 35.454369 
L 366.754844 35.447781 
L 366.761479 35.445708 
L 366.774972 35.441491 
L 366.795366 35.435118 
L 366.800707 35.433449 
L 366.810635 35.430347 
L 366.834401 35.42292 
L 366.842136 35.420503 
L 366.85993 35.414942 
L 366.864045 35.413656 
L 366.88624 35.40672 
" style="fill:none;stroke:#00ff00;stroke-linecap:square;"/>
   </g>
   <g id="line2d_10">
    <path clip-path="url(#pbb7dee1449)" d="M 366.918349 35.396686 
L 366.931118 35.392696 
L 366.939839 35.38997 
L 366.962324 35.382944 
L 366.972341 35.379814 
L 366.985049 35.375842 
L 366.992082 35.373645 
L 367.012194 35.367359 
L 367.023975 35.363678 
L 367.031337 35.361377 
L 367.048217 35.356102 
L 367.057693 35.353141 
L 367.072947 35.348374 
L 367.088942 35.343376 
L 367.107786 35.337487 
L 367.114336 35.33544 
L 367.123918 35.332446 
L 367.136427 35.328537 
L 367.154563 35.322869 
L 367.164948 35.319624 
L 367.181108 35.314574 
L 367.191598 35.311296 
L 367.203209 35.307667 
L 367.222184 35.301738 
L 367.236265 35.297337 
L 367.242637 35.295346 
L 367.25296 35.29212 
L 367.275918 35.284946 
L 367.278355 35.284184 
L 367.302202 35.276732 
L 367.305289 35.275767 
L 367.327543 35.268813 
L 367.332077 35.267396 
L 367.345429 35.263223 
L 367.355839 35.25997 
L 367.378629 35.252849 
L 367.391264 35.2489 
L 367.40563 35.244411 
L 367.40685 35.244029 
L 367.422952 35.238998 
L 367.442721 35.23282 
L 367.451926 35.229943 
L 367.464642 35.225969 
L 367.482282 35.220457 
L 367.486892 35.219016 
L 367.508813 35.212166 
L 367.514142 35.210501 
L 367.531582 35.205051 
L 367.544719 35.200945 
L 367.551555 35.198809 
L 367.568117 35.193633 
L 367.57681 35.190917 
L 367.591746 35.18625 
L 367.613647 35.179405 
L 367.619253 35.177653 
L 367.639682 35.17127 
L 367.641586 35.170674 
L 367.657637 35.165658 
L 367.67334 35.160751 
L 367.684724 35.157194 
L 367.69342 35.154476 
L 367.707133 35.150191 
L 367.719872 35.14621 
L 367.735054 35.141466 
L 367.752318 35.136071 
L 367.759159 35.133933 
L 367.77047 35.130398 
L 367.794179 35.122989 
L 367.807248 35.118905 
L 367.818355 35.115434 
L 367.823917 35.113696 
L 367.841039 35.108345 
L 367.858497 35.10289 
L 367.870153 35.099247 
L 367.875858 35.097464 
L 367.895864 35.091213 
L 367.904597 35.088484 
L 367.92459 35.082236 
L 367.935204 35.078919 
L 367.94615 35.075498 
L 367.959523 35.071319 
L 367.973725 35.066881 
L 367.984914 35.063384 
L 367.996818 35.059665 
L 368.009491 35.055704 
L 368.017975 35.053053 
L 368.034484 35.047894 
L 368.050435 35.042909 
L 368.063074 35.038959 
L 368.080973 35.033366 
L 368.084437 35.032283 
L 368.105904 35.025575 
L 368.107989 35.024924 
L 368.123617 35.02004 
L 368.144313 35.013572 
L 368.152407 35.011043 
L 368.165385 35.006987 
" style="fill:none;stroke:#00ff00;stroke-linecap:square;"/>
   </g>
   <g id="line2d_11">
    <path clip-path="url(#pbb7dee1449)" d="M 369.077894 35.577306 
L 370.902913 35.006987 
L 370.902913 35.006987 
" style="fill:none;stroke:#00ff00;stroke-linecap:square;"/>
   </g>
   <g id="line2d_12">
    <path clip-path="url(#pbb7dee1449)" d="M 380.028007 40.710171 
L 453.028759 17.897436 
L 453.028759 17.897436 
" style="fill:none;stroke:#00ff00;stroke-linecap:square;"/>
   </g>
   <g id="line2d_13">
    <path clip-path="url(#pbb7dee1449)" d="M 88.024999 63.522906 
L 97.150093 69.22609 
L 97.150093 69.22609 
" style="fill:none;stroke:#0000ff;stroke-linecap:square;"/>
   </g>
   <g id="line2d_14">
    <path clip-path="url(#pbb7dee1449)" d="M 98.975112 68.655771 
L 99.887622 69.22609 
L 99.887622 69.22609 
" style="fill:none;stroke:#0000ff;stroke-linecap:square;"/>
   </g>
   <g id="line2d_15">
    <path clip-path="url(#pbb7dee1449)" d="M 102.468588 68.419538 
L 103.759071 69.22609 
L 103.759071 69.22609 
" style="fill:none;stroke:#0000ff;stroke-linecap:square;"/>
   </g>
   <g id="line2d_16">
    <path clip-path="url(#pbb7dee1449)" d="M 163.228744 50.641817 
L 179.275939 60.671314 
L 179.275939 60.671314 
" style="fill:none;stroke:#0000ff;stroke-linecap:square;"/>
   </g>
   <g id="line2d_17">
    <path clip-path="url(#pbb7dee1449)" d="M 288.777067 43.561763 
L 304.824263 53.59126 
L 304.824263 53.59126 
" style="fill:none;stroke:#0000ff;stroke-linecap:square;"/>
   </g>
   <g id="line2d_18">
    <path clip-path="url(#pbb7dee1449)" d="M 364.293936 35.006987 
L 365.584419 35.813539 
L 365.584419 35.813539 
" style="fill:none;stroke:#0000ff;stroke-linecap:square;"/>
   </g>
   <g id="line2d_19">
    <path clip-path="url(#pbb7dee1449)" d="M 368.165385 35.006987 
L 369.077894 35.577306 
L 369.077894 35.577306 
" style="fill:none;stroke:#0000ff;stroke-linecap:square;"/>
   </g>
   <g id="line2d_20">
    <path clip-path="url(#pbb7dee1449)" d="M 370.902913 35.006987 
L 380.028007 40.710171 
L 380.028007 40.710171 
" style="fill:none;stroke:#0000ff;stroke-linecap:square;"/>
   </g>
   <g id="line2d_21">
    <path clip-path="url(#pbb7dee1449)" d="M 453.028759 17.897436 
L 562.529887 86.335641 
L 562.529887 86.335641 
" style="fill:none;stroke:#0000ff;stroke-linecap:square;"/>
   </g>
   <g id="matplotlib.axis_1">
    <g id="xtick_1">
     <g id="line2d_22">
      <path clip-path="url(#pbb7dee1449)" d="M 15.024247 87.704405 
L 15.024247 16.528672 
" style="fill:none;stroke:#000000;stroke-dasharray:0.5,0.825;stroke-dashoffset:0;stroke-width:0.5;"/>
     </g>
     <g id="line2d_23">
      <defs>
       <path d="M 0 0 
L 0 3.5 
" id="m9e292b9afe" style="stroke:#000000;stroke-width:0.8;"/>
      </defs>
      <g>
       <use style="stroke:#000000;stroke-width:0.8;" x="15.024247" xlink:href="#m9e292b9afe" y="86.335641"/>
      </g>
     </g>
    </g>
    <g id="xtick_2">
     <g id="line2d_24">
      <path clip-path="url(#pbb7dee1449)" d="M 453.028759 87.704405 
L 453.028759 16.528672 
" style="fill:none;stroke:#000000;stroke-dasharray:0.5,0.825;stroke-dashoffset:0;stroke-width:0.5;"/>
     </g>
     <g id="line2d_25">
      <g>
       <use style="stroke:#000000;stroke-width:0.8;" x="453.028759" xlink:href="#m9e292b9afe" y="86.335641"/>
      </g>
     </g>
     <g id="text_1">
      <!-- $f$ -->
      <defs>
       <path d="M 9.71875 -16.5 
Q 11.578125 -17.921875 14.203125 -17.921875 
Q 17.78125 -17.921875 20.015625 -10.015625 
Q 20.953125 -6.203125 25.09375 15.09375 
L 29.6875 39.59375 
L 21.09375 39.59375 
Q 20.125 39.59375 20.125 40.921875 
Q 20.515625 43.109375 21.390625 43.109375 
L 30.328125 43.109375 
L 31.5 49.609375 
Q 32.078125 52.640625 32.5625 54.8125 
Q 33.0625 56.984375 33.625 58.828125 
Q 34.1875 60.6875 35.296875 62.984375 
Q 37.015625 66.265625 39.921875 68.390625 
Q 42.828125 70.515625 46.1875 70.515625 
Q 48.390625 70.515625 50.46875 69.703125 
Q 52.546875 68.890625 53.859375 67.28125 
Q 55.171875 65.671875 55.171875 63.484375 
Q 55.171875 60.9375 53.484375 59.046875 
Q 51.8125 57.171875 49.421875 57.171875 
Q 47.796875 57.171875 46.65625 58.171875 
Q 45.515625 59.1875 45.515625 60.796875 
Q 45.515625 62.984375 47 64.625 
Q 48.484375 66.265625 50.6875 66.5 
Q 48.828125 67.921875 46.09375 67.921875 
Q 44.578125 67.921875 43.234375 66.5 
Q 41.890625 65.09375 41.5 63.484375 
Q 40.875 60.9375 38.71875 49.703125 
L 37.5 43.109375 
L 47.796875 43.109375 
Q 48.78125 43.109375 48.78125 41.796875 
Q 48.734375 41.546875 48.578125 40.9375 
Q 48.4375 40.328125 48.171875 39.953125 
Q 47.90625 39.59375 47.515625 39.59375 
L 36.8125 39.59375 
L 32.171875 15.1875 
Q 31.296875 9.859375 30.140625 4.359375 
Q 29 -1.125 26.921875 -6.90625 
Q 24.859375 -12.703125 21.625 -16.609375 
Q 18.40625 -20.515625 14.015625 -20.515625 
Q 10.640625 -20.515625 7.984375 -18.578125 
Q 5.328125 -16.65625 5.328125 -13.484375 
Q 5.328125 -10.9375 6.953125 -9.046875 
Q 8.59375 -7.171875 11.078125 -7.171875 
Q 12.75 -7.171875 13.859375 -8.171875 
Q 14.984375 -9.1875 14.984375 -10.796875 
Q 14.984375 -12.9375 13.390625 -14.71875 
Q 11.8125 -16.5 9.71875 -16.5 
z
" id="Cmmi10-66"/>
      </defs>
      <g transform="translate(450.578759 100.913766)scale(0.1 -0.1)">
       <use transform="translate(0 0.484375)" xlink:href="#Cmmi10-66"/>
      </g>
     </g>
    </g>
    <g id="xtick_3">
     <g id="line2d_26">
      <path clip-path="url(#pbb7dee1449)" d="M 562.529887 87.704405 
L 562.529887 16.528672 
" style="fill:none;stroke:#000000;stroke-dasharray:0.5,0.825;stroke-dashoffset:0;stroke-width:0.5;"/>
     </g>
     <g id="line2d_27">
      <g>
       <use style="stroke:#000000;stroke-width:0.8;" x="562.529887" xlink:href="#m9e292b9afe" y="86.335641"/>
      </g>
     </g>
     <g id="text_2">
      <!-- $1$ -->
      <defs>
       <path d="M 9.28125 0 
L 9.28125 3.515625 
Q 21.78125 3.515625 21.78125 6.6875 
L 21.78125 59.1875 
Q 16.609375 56.6875 8.6875 56.6875 
L 8.6875 60.203125 
Q 20.953125 60.203125 27.203125 66.609375 
L 28.609375 66.609375 
Q 28.953125 66.609375 29.265625 66.328125 
Q 29.59375 66.0625 29.59375 65.71875 
L 29.59375 6.6875 
Q 29.59375 3.515625 42.09375 3.515625 
L 42.09375 0 
z
" id="Cmr10-31"/>
      </defs>
      <g transform="translate(560.029887 100.934078)scale(0.1 -0.1)">
       <use transform="translate(0 0.390625)" xlink:href="#Cmr10-31"/>
      </g>
     </g>
    </g>
   </g>
   <g id="matplotlib.axis_2">
    <g id="ytick_1">
     <g id="line2d_28">
      <path clip-path="url(#pbb7dee1449)" d="M 4.074135 86.335641 
L 573.48 86.335641 
" style="fill:none;stroke:#000000;stroke-dasharray:0.5,0.825;stroke-dashoffset:0;stroke-width:0.5;"/>
     </g>
     <g id="line2d_29">
      <defs>
       <path d="M 0 0 
L -3.5 0 
" id="m417ad8e2c6" style="stroke:#000000;stroke-width:0.8;"/>
      </defs>
      <g>
       <use style="stroke:#000000;stroke-width:0.8;" x="15.024247" xlink:href="#m417ad8e2c6" y="86.335641"/>
      </g>
     </g>
    </g>
    <g id="ytick_2">
     <g id="line2d_30">
      <path clip-path="url(#pbb7dee1449)" d="M 4.074135 17.897436 
L 573.48 17.897436 
" style="fill:none;stroke:#000000;stroke-dasharray:0.5,0.825;stroke-dashoffset:0;stroke-width:0.5;"/>
     </g>
     <g id="line2d_31">
      <g>
       <use style="stroke:#000000;stroke-width:0.8;" x="15.024247" xlink:href="#m417ad8e2c6" y="17.897436"/>
      </g>
     </g>
     <g id="text_3">
      <!-- $1$ -->
      <g transform="translate(3.024247 21.696655)scale(0.1 -0.1)">
       <use transform="translate(0 0.390625)" xlink:href="#Cmr10-31"/>
      </g>
     </g>
    </g>
   </g>
   <g id="patch_3">
    <path d="M 15.024247 87.704405 
L 15.024247 16.528672 
" style="fill:none;stroke:#000000;stroke-linecap:square;stroke-linejoin:miter;stroke-width:0.8;"/>
   </g>
   <g id="patch_4">
    <path d="M 4.074135 86.335641 
L 573.48 86.335641 
" style="fill:none;stroke:#000000;stroke-linecap:square;stroke-linejoin:miter;stroke-width:0.8;"/>
   </g>
  </g>
 </g>
 <defs>
  <clipPath id="pbb7dee1449">
   <rect height="71.175733" width="569.405865" x="4.074135" y="16.528672"/>
  </clipPath>
 </defs>
</svg>
