<?xml version="1.0" encoding="utf-8" standalone="no"?>
<!DOCTYPE svg PUBLIC "-//W3C//DTD SVG 1.1//EN"
  "http://www.w3.org/Graphics/SVG/1.1/DTD/svg11.dtd">
<!-- Created with matplotlib (http://matplotlib.org/) -->
<svg height="108pt" version="1.1" viewBox="0 0 576 108" width="576pt" xmlns="http://www.w3.org/2000/svg" xmlns:xlink="http://www.w3.org/1999/xlink">
 <defs>
  <style type="text/css">
*{stroke-linecap:butt;stroke-linejoin:round;}
  </style>
 </defs>
 <g id="figure_1">
  <g id="patch_1">
   <path d="M 0 108 
L 576 108 
L 576 0 
L 0 0 
z
" style="fill:#ffffff;"/>
  </g>
  <g id="axes_1">
   <g id="patch_2">
    <path d="M 14.874135 86.354405 
L 562.68 86.354405 
L 562.68 17.878672 
L 14.874135 17.878672 
z
" style="fill:#ffffff;"/>
   </g>
   <g id="line2d_1">
    <path clip-path="url(#p294c60b274)" d="M 33.639119 78.864872 
L 58.329888 60.346795 
L 58.329888 60.346795 
" style="fill:none;stroke:#ff0000;stroke-linecap:square;stroke-width:2;"/>
   </g>
   <g id="line2d_2">
    <path clip-path="url(#p294c60b274)" d="M 255.856042 43.886282 
L 280.546811 25.368205 
L 280.546811 25.368205 
" style="fill:none;stroke:#ff0000;stroke-linecap:square;stroke-width:2;"/>
   </g>
   <g id="line2d_3">
    <path clip-path="url(#p294c60b274)" d="M 91.250914 68.577051 
L 222.935016 35.656026 
L 222.935016 35.656026 
" style="fill:none;stroke:#7fff00;stroke-linecap:square;stroke-width:2;"/>
   </g>
   <g id="line2d_4">
    <path clip-path="url(#p294c60b274)" d="M 29.523991 77.83609 
L 33.639119 78.864872 
L 33.639119 78.864872 
" style="fill:none;stroke:#00ffff;stroke-linecap:square;stroke-width:2;"/>
   </g>
   <g id="line2d_5">
    <path clip-path="url(#p294c60b274)" d="M 58.329888 60.346795 
L 91.250914 68.577051 
L 91.250914 68.577051 
" style="fill:none;stroke:#00ffff;stroke-linecap:square;stroke-width:2;"/>
   </g>
   <g id="line2d_6">
    <path clip-path="url(#p294c60b274)" d="M 222.935016 35.656026 
L 255.856042 43.886282 
L 255.856042 43.886282 
" style="fill:none;stroke:#00ffff;stroke-linecap:square;stroke-width:2;"/>
   </g>
   <g id="line2d_7">
    <path clip-path="url(#p294c60b274)" d="M 280.546811 25.368205 
L 284.661939 26.396987 
L 284.661939 26.396987 
" style="fill:none;stroke:#00ffff;stroke-linecap:square;stroke-width:2;"/>
   </g>
   <g id="line2d_8">
    <path clip-path="url(#p294c60b274)" d="M 288.777067 19.195513 
L 552.145272 85.037564 
L 552.145272 85.037564 
" style="fill:none;stroke:#00ffff;stroke-linecap:square;stroke-width:2;"/>
   </g>
   <g id="line2d_9">
    <path clip-path="url(#p294c60b274)" d="M 25.408863 85.037564 
L 29.523991 77.83609 
L 29.523991 77.83609 
" style="fill:none;stroke:#7f00ff;stroke-linecap:square;stroke-width:2;"/>
   </g>
   <g id="line2d_10">
    <path clip-path="url(#p294c60b274)" d="M 284.661939 26.396987 
L 284.691185 26.345806 
L 284.712513 26.308484 
L 284.720538 26.294439 
L 284.75303 26.237578 
L 284.76537 26.215983 
L 284.788215 26.176005 
L 284.807 26.14313 
L 284.829062 26.104522 
L 284.851841 26.064659 
L 284.867352 26.037514 
L 284.888323 26.000816 
L 284.908193 25.966043 
L 284.934554 25.919912 
L 284.95127 25.890659 
L 284.968086 25.86123 
L 284.997133 25.810397 
L 285.014566 25.77989 
L 285.039786 25.735755 
L 285.060076 25.700247 
L 285.0813 25.663105 
L 285.09623 25.636978 
L 285.10932 25.614071 
L 285.145191 25.551296 
L 285.158313 25.528332 
L 285.169516 25.508728 
L 285.198556 25.457908 
L 285.220045 25.420302 
L 285.239596 25.386087 
L 285.253207 25.362268 
L 285.283711 25.308887 
L 285.30528 25.271141 
L 285.315152 25.253865 
L 285.348788 25.195002 
L 285.360307 25.174843 
L 285.391581 25.120114 
L 285.416697 25.076161 
L 285.430968 25.051187 
L 285.455473 25.008303 
L 285.47354 24.976686 
L 285.496133 24.937147 
L 285.503172 24.92483 
L 285.53463 24.869777 
L 285.54163 24.857528 
L 285.561994 24.821891 
L 285.59588 24.762591 
L 285.619604 24.721074 
L 285.638687 24.687679 
L 285.648796 24.669987 
L 285.667418 24.637399 
L 285.69047 24.597057 
L 285.726365 24.534243 
L 285.739153 24.511864 
L 285.75929 24.476623 
L 285.786751 24.428566 
L 285.790499 24.422007 
L 285.81261 24.383313 
L 285.84168 24.33244 
L 285.865038 24.291565 
L 285.88859 24.250348 
L 285.900518 24.229473 
L 285.930142 24.177633 
L 285.937637 24.164516 
" style="fill:none;stroke:#7f00ff;stroke-linecap:square;stroke-width:2;"/>
   </g>
   <g id="line2d_11">
    <path clip-path="url(#p294c60b274)" d="M 286.003501 24.049254 
L 288.777067 19.195513 
L 288.777067 19.195513 
" style="fill:none;stroke:#7f00ff;stroke-linecap:square;stroke-width:2;"/>
   </g>
   <g id="matplotlib.axis_1">
    <g id="xtick_1">
     <g id="line2d_12">
      <path clip-path="url(#p294c60b274)" d="M 25.408863 86.354405 
L 25.408863 17.878672 
" style="fill:none;stroke:#000000;stroke-dasharray:0.5,0.825;stroke-dashoffset:0;stroke-width:0.5;"/>
     </g>
     <g id="line2d_13">
      <defs>
       <path d="M 0 0 
L 0 3.5 
" id="ma5fe1c2d1c" style="stroke:#000000;stroke-width:0.8;"/>
      </defs>
      <g>
       <use style="stroke:#000000;stroke-width:0.8;" x="25.408863" xlink:href="#ma5fe1c2d1c" y="85.037564"/>
      </g>
     </g>
    </g>
    <g id="xtick_2">
     <g id="line2d_14">
      <path clip-path="url(#p294c60b274)" d="M 288.777067 86.354405 
L 288.777067 17.878672 
" style="fill:none;stroke:#000000;stroke-dasharray:0.5,0.825;stroke-dashoffset:0;stroke-width:0.5;"/>
     </g>
     <g id="line2d_15">
      <g>
       <use style="stroke:#000000;stroke-width:0.8;" x="288.777067" xlink:href="#ma5fe1c2d1c" y="85.037564"/>
      </g>
     </g>
     <g id="text_1">
      <!-- $f$ -->
      <defs>
       <path d="M 9.71875 -16.5 
Q 11.578125 -17.921875 14.203125 -17.921875 
Q 17.78125 -17.921875 20.015625 -10.015625 
Q 20.953125 -6.203125 25.09375 15.09375 
L 29.6875 39.59375 
L 21.09375 39.59375 
Q 20.125 39.59375 20.125 40.921875 
Q 20.515625 43.109375 21.390625 43.109375 
L 30.328125 43.109375 
L 31.5 49.609375 
Q 32.078125 52.640625 32.5625 54.8125 
Q 33.0625 56.984375 33.625 58.828125 
Q 34.1875 60.6875 35.296875 62.984375 
Q 37.015625 66.265625 39.921875 68.390625 
Q 42.828125 70.515625 46.1875 70.515625 
Q 48.390625 70.515625 50.46875 69.703125 
Q 52.546875 68.890625 53.859375 67.28125 
Q 55.171875 65.671875 55.171875 63.484375 
Q 55.171875 60.9375 53.484375 59.046875 
Q 51.8125 57.171875 49.421875 57.171875 
Q 47.796875 57.171875 46.65625 58.171875 
Q 45.515625 59.1875 45.515625 60.796875 
Q 45.515625 62.984375 47 64.625 
Q 48.484375 66.265625 50.6875 66.5 
Q 48.828125 67.921875 46.09375 67.921875 
Q 44.578125 67.921875 43.234375 66.5 
Q 41.890625 65.09375 41.5 63.484375 
Q 40.875 60.9375 38.71875 49.703125 
L 37.5 43.109375 
L 47.796875 43.109375 
Q 48.78125 43.109375 48.78125 41.796875 
Q 48.734375 41.546875 48.578125 40.9375 
Q 48.4375 40.328125 48.171875 39.953125 
Q 47.90625 39.59375 47.515625 39.59375 
L 36.8125 39.59375 
L 32.171875 15.1875 
Q 31.296875 9.859375 30.140625 4.359375 
Q 29 -1.125 26.921875 -6.90625 
Q 24.859375 -12.703125 21.625 -16.609375 
Q 18.40625 -20.515625 14.015625 -20.515625 
Q 10.640625 -20.515625 7.984375 -18.578125 
Q 5.328125 -16.65625 5.328125 -13.484375 
Q 5.328125 -10.9375 6.953125 -9.046875 
Q 8.59375 -7.171875 11.078125 -7.171875 
Q 12.75 -7.171875 13.859375 -8.171875 
Q 14.984375 -9.1875 14.984375 -10.796875 
Q 14.984375 -12.9375 13.390625 -14.71875 
Q 11.8125 -16.5 9.71875 -16.5 
z
" id="Cmmi10-66"/>
      </defs>
      <g transform="translate(286.327067 99.615689)scale(0.1 -0.1)">
       <use transform="translate(0 0.484375)" xlink:href="#Cmmi10-66"/>
      </g>
     </g>
    </g>
    <g id="xtick_3">
     <g id="line2d_16">
      <path clip-path="url(#p294c60b274)" d="M 552.145272 86.354405 
L 552.145272 17.878672 
" style="fill:none;stroke:#000000;stroke-dasharray:0.5,0.825;stroke-dashoffset:0;stroke-width:0.5;"/>
     </g>
     <g id="line2d_17">
      <g>
       <use style="stroke:#000000;stroke-width:0.8;" x="552.145272" xlink:href="#ma5fe1c2d1c" y="85.037564"/>
      </g>
     </g>
     <g id="text_2">
      <!-- $1$ -->
      <defs>
       <path d="M 9.28125 0 
L 9.28125 3.515625 
Q 21.78125 3.515625 21.78125 6.6875 
L 21.78125 59.1875 
Q 16.609375 56.6875 8.6875 56.6875 
L 8.6875 60.203125 
Q 20.953125 60.203125 27.203125 66.609375 
L 28.609375 66.609375 
Q 28.953125 66.609375 29.265625 66.328125 
Q 29.59375 66.0625 29.59375 65.71875 
L 29.59375 6.6875 
Q 29.59375 3.515625 42.09375 3.515625 
L 42.09375 0 
z
" id="Cmr10-31"/>
      </defs>
      <g transform="translate(549.645272 99.636002)scale(0.1 -0.1)">
       <use transform="translate(0 0.390625)" xlink:href="#Cmr10-31"/>
      </g>
     </g>
    </g>
   </g>
   <g id="matplotlib.axis_2">
    <g id="ytick_1">
     <g id="line2d_18">
      <path clip-path="url(#p294c60b274)" d="M 14.874135 85.037564 
L 562.68 85.037564 
" style="fill:none;stroke:#000000;stroke-dasharray:0.5,0.825;stroke-dashoffset:0;stroke-width:0.5;"/>
     </g>
     <g id="line2d_19">
      <defs>
       <path d="M 0 0 
L -3.5 0 
" id="m67a1dc4e23" style="stroke:#000000;stroke-width:0.8;"/>
      </defs>
      <g>
       <use style="stroke:#000000;stroke-width:0.8;" x="25.408863" xlink:href="#m67a1dc4e23" y="85.037564"/>
      </g>
     </g>
    </g>
    <g id="ytick_2">
     <g id="line2d_20">
      <path clip-path="url(#p294c60b274)" d="M 14.874135 19.195513 
L 562.68 19.195513 
" style="fill:none;stroke:#000000;stroke-dasharray:0.5,0.825;stroke-dashoffset:0;stroke-width:0.5;"/>
     </g>
     <g id="line2d_21">
      <g>
       <use style="stroke:#000000;stroke-width:0.8;" x="25.408863" xlink:href="#m67a1dc4e23" y="19.195513"/>
      </g>
     </g>
     <g id="text_3">
      <!-- $1$ -->
      <g transform="translate(13.408863 22.994732)scale(0.1 -0.1)">
       <use transform="translate(0 0.390625)" xlink:href="#Cmr10-31"/>
      </g>
     </g>
    </g>
   </g>
   <g id="patch_3">
    <path d="M 25.408863 86.354405 
L 25.408863 17.878672 
" style="fill:none;stroke:#000000;stroke-linecap:square;stroke-linejoin:miter;stroke-width:0.8;"/>
   </g>
   <g id="patch_4">
    <path d="M 14.874135 85.037564 
L 562.68 85.037564 
" style="fill:none;stroke:#000000;stroke-linecap:square;stroke-linejoin:miter;stroke-width:0.8;"/>
   </g>
  </g>
 </g>
 <defs>
  <clipPath id="p294c60b274">
   <rect height="68.475733" width="547.805865" x="14.874135" y="17.878672"/>
  </clipPath>
 </defs>
</svg>
