<?xml version="1.0" encoding="utf-8" standalone="no"?>
<!DOCTYPE svg PUBLIC "-//W3C//DTD SVG 1.1//EN"
  "http://www.w3.org/Graphics/SVG/1.1/DTD/svg11.dtd">
<!-- Created with matplotlib (http://matplotlib.org/) -->
<svg height="108pt" version="1.1" viewBox="0 0 576 108" width="576pt" xmlns="http://www.w3.org/2000/svg" xmlns:xlink="http://www.w3.org/1999/xlink">
 <defs>
  <style type="text/css">
*{stroke-linecap:butt;stroke-linejoin:round;}
  </style>
 </defs>
 <g id="figure_1">
  <g id="patch_1">
   <path d="M 0 108 
L 576 108 
L 576 0 
L 0 0 
z
" style="fill:#ffffff;"/>
  </g>
  <g id="axes_1">
   <g id="patch_2">
    <path d="M 14.874135 86.354405 
L 562.68 86.354405 
L 562.68 17.878672 
L 14.874135 17.878672 
z
" style="fill:#ffffff;"/>
   </g>
   <g id="line2d_1">
    <path clip-path="url(#pcba2cff6bc)" d="M 183.429786 60.346795 
L 209.766606 60.346795 
L 209.766606 60.346795 
" style="fill:none;stroke:#ff0000;stroke-linecap:square;"/>
   </g>
   <g id="line2d_2">
    <path clip-path="url(#pcba2cff6bc)" d="M 262.440247 43.886282 
L 288.777067 43.886282 
L 288.777067 43.886282 
" style="fill:none;stroke:#ff0000;stroke-linecap:square;"/>
   </g>
   <g id="line2d_3">
    <path clip-path="url(#pcba2cff6bc)" d="M 25.408863 85.037564 
L 95.640384 63.090214 
L 95.640384 63.090214 
" style="fill:none;stroke:#00ff00;stroke-linecap:square;"/>
   </g>
   <g id="line2d_4">
    <path clip-path="url(#pcba2cff6bc)" d="M 104.419324 68.577051 
L 106.175112 68.028367 
L 106.175112 68.028367 
" style="fill:none;stroke:#00ff00;stroke-linecap:square;"/>
   </g>
   <g id="line2d_5">
    <path clip-path="url(#pcba2cff6bc)" d="M 107.053006 68.577051 
L 109.536065 67.801095 
L 109.536065 67.801095 
" style="fill:none;stroke:#00ff00;stroke-linecap:square;"/>
   </g>
   <g id="line2d_6">
    <path clip-path="url(#pcba2cff6bc)" d="M 110.777595 68.577051 
L 167.991329 50.697759 
L 167.991329 50.697759 
" style="fill:none;stroke:#00ff00;stroke-linecap:square;"/>
   </g>
   <g id="line2d_7">
    <path clip-path="url(#pcba2cff6bc)" d="M 209.766606 60.346795 
L 262.440247 43.886282 
L 262.440247 43.886282 
" style="fill:none;stroke:#00ff00;stroke-linecap:square;"/>
   </g>
   <g id="line2d_8">
    <path clip-path="url(#pcba2cff6bc)" d="M 304.215524 53.535317 
L 361.429258 35.656026 
L 361.429258 35.656026 
" style="fill:none;stroke:#00ff00;stroke-linecap:square;"/>
   </g>
   <g id="line2d_9">
    <path clip-path="url(#pcba2cff6bc)" d="M 362.670787 36.431982 
L 365.153847 35.656026 
L 365.153847 35.656026 
" style="fill:none;stroke:#00ff00;stroke-linecap:square;"/>
   </g>
   <g id="line2d_10">
    <path clip-path="url(#pcba2cff6bc)" d="M 366.031741 36.204709 
L 367.787529 35.656026 
L 367.787529 35.656026 
" style="fill:none;stroke:#00ff00;stroke-linecap:square;"/>
   </g>
   <g id="line2d_11">
    <path clip-path="url(#pcba2cff6bc)" d="M 376.566469 41.142863 
L 446.79799 19.195513 
L 446.79799 19.195513 
" style="fill:none;stroke:#00ff00;stroke-linecap:square;"/>
   </g>
   <g id="line2d_12">
    <path clip-path="url(#pcba2cff6bc)" d="M 95.640384 63.090214 
L 104.419324 68.577051 
L 104.419324 68.577051 
" style="fill:none;stroke:#0000ff;stroke-linecap:square;"/>
   </g>
   <g id="line2d_13">
    <path clip-path="url(#pcba2cff6bc)" d="M 106.175112 68.028367 
L 107.053006 68.577051 
L 107.053006 68.577051 
" style="fill:none;stroke:#0000ff;stroke-linecap:square;"/>
   </g>
   <g id="line2d_14">
    <path clip-path="url(#pcba2cff6bc)" d="M 109.536065 67.801095 
L 110.777595 68.577051 
L 110.777595 68.577051 
" style="fill:none;stroke:#0000ff;stroke-linecap:square;"/>
   </g>
   <g id="line2d_15">
    <path clip-path="url(#pcba2cff6bc)" d="M 167.991329 50.697759 
L 183.429786 60.346795 
L 183.429786 60.346795 
" style="fill:none;stroke:#0000ff;stroke-linecap:square;"/>
   </g>
   <g id="line2d_16">
    <path clip-path="url(#pcba2cff6bc)" d="M 288.777067 43.886282 
L 304.215524 53.535317 
L 304.215524 53.535317 
" style="fill:none;stroke:#0000ff;stroke-linecap:square;"/>
   </g>
   <g id="line2d_17">
    <path clip-path="url(#pcba2cff6bc)" d="M 361.429258 35.656026 
L 362.670787 36.431982 
L 362.670787 36.431982 
" style="fill:none;stroke:#0000ff;stroke-linecap:square;"/>
   </g>
   <g id="line2d_18">
    <path clip-path="url(#pcba2cff6bc)" d="M 365.153847 35.656026 
L 365.158591 35.658991 
L 365.162629 35.661515 
L 365.166963 35.664224 
L 365.171063 35.666786 
L 365.17526 35.669409 
L 365.181381 35.673234 
L 365.183382 35.674485 
L 365.18821 35.677503 
L 365.191349 35.679465 
L 365.199167 35.684351 
L 365.20236 35.686347 
L 365.205936 35.688582 
L 365.211863 35.692286 
L 365.215458 35.694533 
L 365.218177 35.696232 
L 365.222784 35.699112 
L 365.230001 35.703622 
L 365.234964 35.706724 
L 365.237432 35.708267 
L 365.2423 35.711309 
L 365.244565 35.712724 
L 365.251302 35.716935 
L 365.255632 35.719641 
L 365.258803 35.721623 
L 365.264057 35.724907 
L 365.267274 35.726918 
L 365.271458 35.729533 
L 365.278382 35.73386 
L 365.279986 35.734863 
L 365.287536 35.739582 
L 365.290734 35.741581 
L 365.2943 35.743809 
L 365.300617 35.747757 
L 365.303289 35.749427 
L 365.306354 35.751343 
L 365.312881 35.755422 
L 365.315108 35.756814 
L 365.319862 35.759786 
L 365.326239 35.763771 
L 365.328777 35.765357 
L 365.33674 35.770334 
L 365.340153 35.772467 
L 365.342788 35.774114 
L 365.345834 35.776018 
L 365.354101 35.781185 
L 365.358237 35.783769 
L 365.362808 35.786626 
L 365.363493 35.787055 
L 365.370176 35.791232 
L 365.372884 35.792924 
L 365.378885 35.796674 
L 365.385103 35.800561 
L 365.388403 35.802624 
L 365.392557 35.80522 
L 365.395557 35.807095 
L 365.401296 35.810681 
L 365.404296 35.812557 
L 365.408551 35.815216 
L 365.414778 35.819108 
L 365.416986 35.820488 
L 365.420768 35.822851 
L 365.426582 35.826486 
L 365.430772 35.829104 
L 365.435878 35.832295 
L 365.440854 35.835405 
L 365.445044 35.838024 
L 365.450402 35.841372 
L 365.454575 35.843981 
L 365.456719 35.845321 
L 365.460686 35.8478 
L 365.465604 35.850874 
L 365.473358 35.85572 
L 365.476872 35.857917 
L 365.480942 35.86046 
L 365.483205 35.861875 
L 365.488397 35.86512 
L 365.492753 35.867842 
L 365.498225 35.871262 
L 365.501493 35.873305 
L 365.507506 35.877063 
L 365.510738 35.879082 
L 365.517005 35.883 
L 365.520338 35.885083 
L 365.524805 35.887875 
L 365.529437 35.89077 
L 365.532244 35.892524 
L 365.538286 35.896301 
L 365.543693 35.89968 
L 365.545654 35.900905 
L 365.552487 35.905176 
L 365.557109 35.908065 
L 365.56139 35.91074 
L 365.565093 35.913055 
L 365.567657 35.914657 
L 365.572574 35.91773 
L 365.575271 35.919416 
L 365.583868 35.924789 
L 365.585612 35.925879 
L 365.591735 35.929706 
L 365.593185 35.930612 
L 365.600359 35.935096 
L 365.604065 35.937412 
L 365.609118 35.94057 
L 365.614588 35.943989 
L 365.616982 35.945485 
L 365.621743 35.948461 
L 365.624012 35.949879 
L 365.628751 35.952841 
L 365.635395 35.956993 
L 365.63795 35.95859 
L 365.643064 35.961787 
L 365.647697 35.964682 
L 365.651001 35.966747 
L 365.654858 35.969158 
L 365.661927 35.973576 
L 365.665477 35.975795 
L 365.668016 35.977382 
L 365.67407 35.981165 
" style="fill:none;stroke:#0000ff;stroke-linecap:square;"/>
   </g>
   <g id="line2d_19">
    <path clip-path="url(#pcba2cff6bc)" d="M 365.68943 35.990765 
L 365.690481 35.991422 
L 365.698637 35.99652 
L 365.70125 35.998153 
L 365.705941 36.001085 
L 365.708886 36.002925 
L 365.713412 36.005754 
L 365.718798 36.00912 
L 365.724035 36.012393 
L 365.727737 36.014707 
L 365.729913 36.016067 
L 365.736302 36.02006 
L 365.74214 36.023709 
L 365.744298 36.025058 
L 365.750765 36.0291 
L 365.754637 36.031519 
L 365.757378 36.033233 
L 365.763394 36.036993 
L 365.767687 36.039676 
L 365.76972 36.040946 
L 365.773898 36.043558 
L 365.7796 36.047122 
L 365.782859 36.049158 
L 365.787272 36.051916 
L 365.795103 36.056811 
L 365.79787 36.05854 
L 365.803941 36.062335 
L 365.806999 36.064246 
L 365.809532 36.065829 
L 365.817062 36.070535 
L 365.820971 36.072978 
L 365.822533 36.073955 
L 365.829574 36.078355 
L 365.831361 36.079472 
L 365.839671 36.084666 
L 365.84377 36.087228 
L 365.84514 36.088084 
L 365.849457 36.090782 
L 365.855508 36.094564 
L 365.85767 36.095915 
L 365.866027 36.101138 
L 365.868387 36.102613 
L 365.875086 36.1068 
L 365.878648 36.109027 
L 365.883549 36.11209 
L 365.886408 36.113876 
L 365.890319 36.116321 
L 365.894188 36.118739 
L 365.899072 36.121791 
L 365.902651 36.124028 
L 365.90697 36.126728 
L 365.913994 36.131118 
L 365.918907 36.134188 
L 365.919329 36.134452 
L 365.926706 36.139063 
L 365.929367 36.140726 
L 365.932514 36.142693 
L 365.940809 36.147877 
L 365.945332 36.150704 
L 365.946374 36.151355 
L 365.953968 36.156101 
L 365.955635 36.157143 
L 365.960557 36.16022 
L 365.965782 36.163485 
L 365.970861 36.16666 
L 365.972962 36.167973 
L 365.980608 36.172752 
L 365.981202 36.173122 
L 365.98637 36.176353 
L 365.990899 36.179183 
L 365.994878 36.18167 
L 365.999966 36.18485 
L 366.004501 36.187684 
L 366.011553 36.192092 
L 366.012162 36.192473 
L 366.01899 36.19674 
L 366.023988 36.199864 
L 366.027507 36.202063 
L 366.031741 36.204709 
" style="fill:none;stroke:#0000ff;stroke-linecap:square;"/>
   </g>
   <g id="line2d_20">
    <path clip-path="url(#pcba2cff6bc)" d="M 367.787529 35.656026 
L 376.566469 41.142863 
L 376.566469 41.142863 
" style="fill:none;stroke:#0000ff;stroke-linecap:square;"/>
   </g>
   <g id="line2d_21">
    <path clip-path="url(#pcba2cff6bc)" d="M 446.79799 19.195513 
L 552.145272 85.037564 
L 552.145272 85.037564 
" style="fill:none;stroke:#0000ff;stroke-linecap:square;"/>
   </g>
   <g id="matplotlib.axis_1">
    <g id="xtick_1">
     <g id="line2d_22">
      <path clip-path="url(#pcba2cff6bc)" d="M 25.408863 86.354405 
L 25.408863 17.878672 
" style="fill:none;stroke:#000000;stroke-dasharray:0.5,0.825;stroke-dashoffset:0;stroke-width:0.5;"/>
     </g>
     <g id="line2d_23">
      <defs>
       <path d="M 0 0 
L 0 3.5 
" id="m020af26300" style="stroke:#000000;stroke-width:0.8;"/>
      </defs>
      <g>
       <use style="stroke:#000000;stroke-width:0.8;" x="25.408863" xlink:href="#m020af26300" y="85.037564"/>
      </g>
     </g>
    </g>
    <g id="xtick_2">
     <g id="line2d_24">
      <path clip-path="url(#pcba2cff6bc)" d="M 446.79799 86.354405 
L 446.79799 17.878672 
" style="fill:none;stroke:#000000;stroke-dasharray:0.5,0.825;stroke-dashoffset:0;stroke-width:0.5;"/>
     </g>
     <g id="line2d_25">
      <g>
       <use style="stroke:#000000;stroke-width:0.8;" x="446.79799" xlink:href="#m020af26300" y="85.037564"/>
      </g>
     </g>
     <g id="text_1">
      <!-- $f$ -->
      <defs>
       <path d="M 9.71875 -16.5 
Q 11.578125 -17.921875 14.203125 -17.921875 
Q 17.78125 -17.921875 20.015625 -10.015625 
Q 20.953125 -6.203125 25.09375 15.09375 
L 29.6875 39.59375 
L 21.09375 39.59375 
Q 20.125 39.59375 20.125 40.921875 
Q 20.515625 43.109375 21.390625 43.109375 
L 30.328125 43.109375 
L 31.5 49.609375 
Q 32.078125 52.640625 32.5625 54.8125 
Q 33.0625 56.984375 33.625 58.828125 
Q 34.1875 60.6875 35.296875 62.984375 
Q 37.015625 66.265625 39.921875 68.390625 
Q 42.828125 70.515625 46.1875 70.515625 
Q 48.390625 70.515625 50.46875 69.703125 
Q 52.546875 68.890625 53.859375 67.28125 
Q 55.171875 65.671875 55.171875 63.484375 
Q 55.171875 60.9375 53.484375 59.046875 
Q 51.8125 57.171875 49.421875 57.171875 
Q 47.796875 57.171875 46.65625 58.171875 
Q 45.515625 59.1875 45.515625 60.796875 
Q 45.515625 62.984375 47 64.625 
Q 48.484375 66.265625 50.6875 66.5 
Q 48.828125 67.921875 46.09375 67.921875 
Q 44.578125 67.921875 43.234375 66.5 
Q 41.890625 65.09375 41.5 63.484375 
Q 40.875 60.9375 38.71875 49.703125 
L 37.5 43.109375 
L 47.796875 43.109375 
Q 48.78125 43.109375 48.78125 41.796875 
Q 48.734375 41.546875 48.578125 40.9375 
Q 48.4375 40.328125 48.171875 39.953125 
Q 47.90625 39.59375 47.515625 39.59375 
L 36.8125 39.59375 
L 32.171875 15.1875 
Q 31.296875 9.859375 30.140625 4.359375 
Q 29 -1.125 26.921875 -6.90625 
Q 24.859375 -12.703125 21.625 -16.609375 
Q 18.40625 -20.515625 14.015625 -20.515625 
Q 10.640625 -20.515625 7.984375 -18.578125 
Q 5.328125 -16.65625 5.328125 -13.484375 
Q 5.328125 -10.9375 6.953125 -9.046875 
Q 8.59375 -7.171875 11.078125 -7.171875 
Q 12.75 -7.171875 13.859375 -8.171875 
Q 14.984375 -9.1875 14.984375 -10.796875 
Q 14.984375 -12.9375 13.390625 -14.71875 
Q 11.8125 -16.5 9.71875 -16.5 
z
" id="Cmmi10-66"/>
      </defs>
      <g transform="translate(444.34799 99.615689)scale(0.1 -0.1)">
       <use transform="translate(0 0.484375)" xlink:href="#Cmmi10-66"/>
      </g>
     </g>
    </g>
    <g id="xtick_3">
     <g id="line2d_26">
      <path clip-path="url(#pcba2cff6bc)" d="M 552.145272 86.354405 
L 552.145272 17.878672 
" style="fill:none;stroke:#000000;stroke-dasharray:0.5,0.825;stroke-dashoffset:0;stroke-width:0.5;"/>
     </g>
     <g id="line2d_27">
      <g>
       <use style="stroke:#000000;stroke-width:0.8;" x="552.145272" xlink:href="#m020af26300" y="85.037564"/>
      </g>
     </g>
     <g id="text_2">
      <!-- $1$ -->
      <defs>
       <path d="M 9.28125 0 
L 9.28125 3.515625 
Q 21.78125 3.515625 21.78125 6.6875 
L 21.78125 59.1875 
Q 16.609375 56.6875 8.6875 56.6875 
L 8.6875 60.203125 
Q 20.953125 60.203125 27.203125 66.609375 
L 28.609375 66.609375 
Q 28.953125 66.609375 29.265625 66.328125 
Q 29.59375 66.0625 29.59375 65.71875 
L 29.59375 6.6875 
Q 29.59375 3.515625 42.09375 3.515625 
L 42.09375 0 
z
" id="Cmr10-31"/>
      </defs>
      <g transform="translate(549.645272 99.636002)scale(0.1 -0.1)">
       <use transform="translate(0 0.390625)" xlink:href="#Cmr10-31"/>
      </g>
     </g>
    </g>
   </g>
   <g id="matplotlib.axis_2">
    <g id="ytick_1">
     <g id="line2d_28">
      <path clip-path="url(#pcba2cff6bc)" d="M 14.874135 85.037564 
L 562.68 85.037564 
" style="fill:none;stroke:#000000;stroke-dasharray:0.5,0.825;stroke-dashoffset:0;stroke-width:0.5;"/>
     </g>
     <g id="line2d_29">
      <defs>
       <path d="M 0 0 
L -3.5 0 
" id="m58a7007fb8" style="stroke:#000000;stroke-width:0.8;"/>
      </defs>
      <g>
       <use style="stroke:#000000;stroke-width:0.8;" x="25.408863" xlink:href="#m58a7007fb8" y="85.037564"/>
      </g>
     </g>
    </g>
    <g id="ytick_2">
     <g id="line2d_30">
      <path clip-path="url(#pcba2cff6bc)" d="M 14.874135 19.195513 
L 562.68 19.195513 
" style="fill:none;stroke:#000000;stroke-dasharray:0.5,0.825;stroke-dashoffset:0;stroke-width:0.5;"/>
     </g>
     <g id="line2d_31">
      <g>
       <use style="stroke:#000000;stroke-width:0.8;" x="25.408863" xlink:href="#m58a7007fb8" y="19.195513"/>
      </g>
     </g>
     <g id="text_3">
      <!-- $1$ -->
      <g transform="translate(13.408863 22.994732)scale(0.1 -0.1)">
       <use transform="translate(0 0.390625)" xlink:href="#Cmr10-31"/>
      </g>
     </g>
    </g>
   </g>
   <g id="patch_3">
    <path d="M 25.408863 86.354405 
L 25.408863 17.878672 
" style="fill:none;stroke:#000000;stroke-linecap:square;stroke-linejoin:miter;stroke-width:0.8;"/>
   </g>
   <g id="patch_4">
    <path d="M 14.874135 85.037564 
L 562.68 85.037564 
" style="fill:none;stroke:#000000;stroke-linecap:square;stroke-linejoin:miter;stroke-width:0.8;"/>
   </g>
  </g>
 </g>
 <defs>
  <clipPath id="pcba2cff6bc">
   <rect height="68.475733" width="547.805865" x="14.874135" y="17.878672"/>
  </clipPath>
 </defs>
</svg>
