<?xml version="1.0" encoding="utf-8" standalone="no"?>
<!DOCTYPE svg PUBLIC "-//W3C//DTD SVG 1.1//EN"
  "http://www.w3.org/Graphics/SVG/1.1/DTD/svg11.dtd">
<!-- Created with matplotlib (http://matplotlib.org/) -->
<svg height="216pt" version="1.1" viewBox="0 0 576 216" width="576pt" xmlns="http://www.w3.org/2000/svg" xmlns:xlink="http://www.w3.org/1999/xlink">
 <defs>
  <style type="text/css">
*{stroke-linecap:butt;stroke-linejoin:round;}
  </style>
 </defs>
 <g id="figure_1">
  <g id="patch_1">
   <path d="M 0 216 
L 576 216 
L 576 0 
L 0 0 
z
" style="fill:#ffffff;"/>
  </g>
  <g id="axes_1">
   <g id="patch_2">
    <path d="M 55.677402 202.118462 
L 241.646864 202.118462 
L 241.646864 16.149 
L 55.677402 16.149 
z
" style="fill:#ffffff;"/>
   </g>
   <g id="PathCollection_1">
    <path clip-path="url(#pd013dd8a1c)" d="M 103.957935 155.419067 
C 104.377258 155.419067 104.779463 155.252468 105.075969 154.955962 
C 105.372475 154.659456 105.539074 154.257251 105.539074 153.837928 
C 105.539074 153.418605 105.372475 153.0164 105.075969 152.719894 
C 104.779463 152.423388 104.377258 152.256789 103.957935 152.256789 
C 103.538612 152.256789 103.136407 152.423388 102.839901 152.719894 
C 102.543395 153.0164 102.376797 153.418605 102.376797 153.837928 
C 102.376797 154.257251 102.543395 154.659456 102.839901 154.955962 
C 103.136407 155.252468 103.538612 155.419067 103.957935 155.419067 
z
" style="fill:#ff0000;"/>
   </g>
   <g id="PathCollection_2">
    <defs>
     <path d="M 0 1.581139 
C 0.419323 1.581139 0.821528 1.41454 1.118034 1.118034 
C 1.41454 0.821528 1.581139 0.419323 1.581139 0 
C 1.581139 -0.419323 1.41454 -0.821528 1.118034 -1.118034 
C 0.821528 -1.41454 0.419323 -1.581139 0 -1.581139 
C -0.419323 -1.581139 -0.821528 -1.41454 -1.118034 -1.118034 
C -1.41454 -0.821528 -1.581139 -0.419323 -1.581139 0 
C -1.581139 0.419323 -1.41454 0.821528 -1.118034 1.118034 
C -0.821528 1.41454 -0.419323 1.581139 0 1.581139 
z
" id="C0_0_a1a1f75c71"/>
    </defs>
    <g clip-path="url(#pd013dd8a1c)">
     <use style="fill:#808080;" x="59.253738" xlink:href="#C0_0_a1a1f75c71" y="198.542126"/>
    </g>
    <g clip-path="url(#pd013dd8a1c)">
     <use style="fill:#808080;" x="59.253738" xlink:href="#C0_0_a1a1f75c71" y="109.133731"/>
    </g>
    <g clip-path="url(#pd013dd8a1c)">
     <use style="fill:#808080;" x="59.253738" xlink:href="#C0_0_a1a1f75c71" y="19.725336"/>
    </g>
    <g clip-path="url(#pd013dd8a1c)">
     <use style="fill:#808080;" x="148.662133" xlink:href="#C0_0_a1a1f75c71" y="198.542126"/>
    </g>
    <g clip-path="url(#pd013dd8a1c)">
     <use style="fill:#808080;" x="148.662133" xlink:href="#C0_0_a1a1f75c71" y="109.133731"/>
    </g>
    <g clip-path="url(#pd013dd8a1c)">
     <use style="fill:#808080;" x="148.662133" xlink:href="#C0_0_a1a1f75c71" y="19.725336"/>
    </g>
    <g clip-path="url(#pd013dd8a1c)">
     <use style="fill:#808080;" x="238.070528" xlink:href="#C0_0_a1a1f75c71" y="198.542126"/>
    </g>
    <g clip-path="url(#pd013dd8a1c)">
     <use style="fill:#808080;" x="238.070528" xlink:href="#C0_0_a1a1f75c71" y="109.133731"/>
    </g>
    <g clip-path="url(#pd013dd8a1c)">
     <use style="fill:#808080;" x="238.070528" xlink:href="#C0_0_a1a1f75c71" y="19.725336"/>
    </g>
   </g>
   <g id="patch_3">
    <path clip-path="url(#pd013dd8a1c)" d="M 238.070528 198.542126 
L 59.253738 198.542126 
L 59.253738 19.725336 
z
" style="fill:#ffff00;opacity:0.4;"/>
   </g>
   <g id="patch_4">
    <path clip-path="url(#pd013dd8a1c)" d="M 59.253738 109.133731 
L 81.605837 86.781632 
L 103.957935 153.837928 
L 81.605837 176.190027 
z
" style="fill:#ff0000;opacity:0.4;"/>
   </g>
   <g id="patch_5">
    <path clip-path="url(#pd013dd8a1c)" d="M 81.605837 176.190027 
L 103.957935 153.837928 
L 171.014232 176.190027 
L 148.662133 198.542126 
z
" style="fill:#ff0000;opacity:0.4;"/>
   </g>
   <g id="patch_6">
    <path clip-path="url(#pd013dd8a1c)" d="M 103.957935 153.837928 
L 171.014232 176.190027 
L 148.662133 109.133731 
L 81.605837 86.781632 
z
" style="fill:#ff0000;opacity:0.4;"/>
   </g>
   <g id="line2d_1">
    <path clip-path="url(#pd013dd8a1c)" d="M 59.253738 198.542126 
L 59.253738 19.725336 
" style="fill:none;stroke:#ffff00;stroke-linecap:square;stroke-opacity:0.4;"/>
   </g>
   <g id="line2d_2">
    <path clip-path="url(#pd013dd8a1c)" d="M 59.253738 198.542126 
L 238.070528 198.542126 
" style="fill:none;stroke:#ffff00;stroke-linecap:square;stroke-opacity:0.4;"/>
   </g>
   <g id="line2d_3">
    <path clip-path="url(#pd013dd8a1c)" d="M 59.253738 19.725336 
L 238.070528 198.542126 
" style="fill:none;stroke:#ffff00;stroke-linecap:square;stroke-opacity:0.4;"/>
   </g>
   <g id="line2d_4">
    <path clip-path="url(#pd013dd8a1c)" d="M 81.605837 86.781632 
L 103.957935 153.837928 
" style="fill:none;stroke:#ff0000;stroke-linecap:square;stroke-opacity:0.4;"/>
   </g>
   <g id="line2d_5">
    <path clip-path="url(#pd013dd8a1c)" d="M 81.605837 86.781632 
L 59.253738 109.133731 
" style="fill:none;stroke:#ff0000;stroke-linecap:square;stroke-opacity:0.4;"/>
   </g>
   <g id="line2d_6">
    <path clip-path="url(#pd013dd8a1c)" d="M 103.957935 153.837928 
L 81.605837 176.190027 
" style="fill:none;stroke:#ff0000;stroke-linecap:square;stroke-opacity:0.4;"/>
   </g>
   <g id="line2d_7">
    <path clip-path="url(#pd013dd8a1c)" d="M 81.605837 176.190027 
L 59.253738 109.133731 
" style="fill:none;stroke:#ff0000;stroke-linecap:square;stroke-opacity:0.4;"/>
   </g>
   <g id="line2d_8">
    <path clip-path="url(#pd013dd8a1c)" d="M 103.957935 153.837928 
L 171.014232 176.190027 
" style="fill:none;stroke:#ff0000;stroke-linecap:square;stroke-opacity:0.4;"/>
   </g>
   <g id="line2d_9">
    <path clip-path="url(#pd013dd8a1c)" d="M 103.957935 153.837928 
L 81.605837 176.190027 
" style="fill:none;stroke:#ff0000;stroke-linecap:square;stroke-opacity:0.4;"/>
   </g>
   <g id="line2d_10">
    <path clip-path="url(#pd013dd8a1c)" d="M 171.014232 176.190027 
L 148.662133 198.542126 
" style="fill:none;stroke:#ff0000;stroke-linecap:square;stroke-opacity:0.4;"/>
   </g>
   <g id="line2d_11">
    <path clip-path="url(#pd013dd8a1c)" d="M 148.662133 198.542126 
L 81.605837 176.190027 
" style="fill:none;stroke:#ff0000;stroke-linecap:square;stroke-opacity:0.4;"/>
   </g>
   <g id="line2d_12">
    <path clip-path="url(#pd013dd8a1c)" d="M 171.014232 176.190027 
L 148.662133 109.133731 
" style="fill:none;stroke:#ff0000;stroke-linecap:square;stroke-opacity:0.4;"/>
   </g>
   <g id="line2d_13">
    <path clip-path="url(#pd013dd8a1c)" d="M 171.014232 176.190027 
L 103.957935 153.837928 
" style="fill:none;stroke:#ff0000;stroke-linecap:square;stroke-opacity:0.4;"/>
   </g>
   <g id="line2d_14">
    <path clip-path="url(#pd013dd8a1c)" d="M 148.662133 109.133731 
L 81.605837 86.781632 
" style="fill:none;stroke:#ff0000;stroke-linecap:square;stroke-opacity:0.4;"/>
   </g>
   <g id="line2d_15">
    <path clip-path="url(#pd013dd8a1c)" d="M 81.605837 86.781632 
L 103.957935 153.837928 
" style="fill:none;stroke:#ff0000;stroke-linecap:square;stroke-opacity:0.4;"/>
   </g>
   <g id="matplotlib.axis_1">
    <g id="xtick_1">
     <g id="line2d_16">
      <defs>
       <path d="M 0 0 
L 0 3.5 
" id="me3b5eb3a3e" style="stroke:#000000;stroke-width:0.8;"/>
      </defs>
      <g>
       <use style="stroke:#000000;stroke-width:0.8;" x="59.253738" xlink:href="#me3b5eb3a3e" y="198.542126"/>
      </g>
     </g>
    </g>
    <g id="xtick_2">
     <g id="line2d_17">
      <g>
       <use style="stroke:#000000;stroke-width:0.8;" x="103.957935" xlink:href="#me3b5eb3a3e" y="198.542126"/>
      </g>
     </g>
     <g id="text_1">
      <!-- 0.5 -->
      <defs>
       <path d="M 31.78125 66.40625 
Q 24.171875 66.40625 20.328125 58.90625 
Q 16.5 51.421875 16.5 36.375 
Q 16.5 21.390625 20.328125 13.890625 
Q 24.171875 6.390625 31.78125 6.390625 
Q 39.453125 6.390625 43.28125 13.890625 
Q 47.125 21.390625 47.125 36.375 
Q 47.125 51.421875 43.28125 58.90625 
Q 39.453125 66.40625 31.78125 66.40625 
z
M 31.78125 74.21875 
Q 44.046875 74.21875 50.515625 64.515625 
Q 56.984375 54.828125 56.984375 36.375 
Q 56.984375 17.96875 50.515625 8.265625 
Q 44.046875 -1.421875 31.78125 -1.421875 
Q 19.53125 -1.421875 13.0625 8.265625 
Q 6.59375 17.96875 6.59375 36.375 
Q 6.59375 54.828125 13.0625 64.515625 
Q 19.53125 74.21875 31.78125 74.21875 
z
" id="DejaVuSans-30"/>
       <path d="M 10.6875 12.40625 
L 21 12.40625 
L 21 0 
L 10.6875 0 
z
" id="DejaVuSans-2e"/>
       <path d="M 10.796875 72.90625 
L 49.515625 72.90625 
L 49.515625 64.59375 
L 19.828125 64.59375 
L 19.828125 46.734375 
Q 21.96875 47.46875 24.109375 47.828125 
Q 26.265625 48.1875 28.421875 48.1875 
Q 40.625 48.1875 47.75 41.5 
Q 54.890625 34.8125 54.890625 23.390625 
Q 54.890625 11.625 47.5625 5.09375 
Q 40.234375 -1.421875 26.90625 -1.421875 
Q 22.3125 -1.421875 17.546875 -0.640625 
Q 12.796875 0.140625 7.71875 1.703125 
L 7.71875 11.625 
Q 12.109375 9.234375 16.796875 8.0625 
Q 21.484375 6.890625 26.703125 6.890625 
Q 35.15625 6.890625 40.078125 11.328125 
Q 45.015625 15.765625 45.015625 23.390625 
Q 45.015625 31 40.078125 35.4375 
Q 35.15625 39.890625 26.703125 39.890625 
Q 22.75 39.890625 18.8125 39.015625 
Q 14.890625 38.140625 10.796875 36.28125 
z
" id="DejaVuSans-35"/>
      </defs>
      <g transform="translate(96.006373 213.140563)scale(0.1 -0.1)">
       <use xlink:href="#DejaVuSans-30"/>
       <use x="63.623047" xlink:href="#DejaVuSans-2e"/>
       <use x="95.410156" xlink:href="#DejaVuSans-35"/>
      </g>
     </g>
    </g>
    <g id="xtick_3">
     <g id="line2d_18">
      <g>
       <use style="stroke:#000000;stroke-width:0.8;" x="148.662133" xlink:href="#me3b5eb3a3e" y="198.542126"/>
      </g>
     </g>
     <g id="text_2">
      <!-- 1 -->
      <defs>
       <path d="M 12.40625 8.296875 
L 28.515625 8.296875 
L 28.515625 63.921875 
L 10.984375 60.40625 
L 10.984375 69.390625 
L 28.421875 72.90625 
L 38.28125 72.90625 
L 38.28125 8.296875 
L 54.390625 8.296875 
L 54.390625 0 
L 12.40625 0 
z
" id="DejaVuSans-31"/>
      </defs>
      <g transform="translate(145.480883 213.140563)scale(0.1 -0.1)">
       <use xlink:href="#DejaVuSans-31"/>
      </g>
     </g>
    </g>
    <g id="xtick_4">
     <g id="line2d_19">
      <g>
       <use style="stroke:#000000;stroke-width:0.8;" x="193.36633" xlink:href="#me3b5eb3a3e" y="198.542126"/>
      </g>
     </g>
     <g id="text_3">
      <!-- 1.5 -->
      <g transform="translate(185.414768 213.140563)scale(0.1 -0.1)">
       <use xlink:href="#DejaVuSans-31"/>
       <use x="63.623047" xlink:href="#DejaVuSans-2e"/>
       <use x="95.410156" xlink:href="#DejaVuSans-35"/>
      </g>
     </g>
    </g>
    <g id="xtick_5">
     <g id="line2d_20">
      <g>
       <use style="stroke:#000000;stroke-width:0.8;" x="238.070528" xlink:href="#me3b5eb3a3e" y="198.542126"/>
      </g>
     </g>
     <g id="text_4">
      <!-- 2 -->
      <defs>
       <path d="M 19.1875 8.296875 
L 53.609375 8.296875 
L 53.609375 0 
L 7.328125 0 
L 7.328125 8.296875 
Q 12.9375 14.109375 22.625 23.890625 
Q 32.328125 33.6875 34.8125 36.53125 
Q 39.546875 41.84375 41.421875 45.53125 
Q 43.3125 49.21875 43.3125 52.78125 
Q 43.3125 58.59375 39.234375 62.25 
Q 35.15625 65.921875 28.609375 65.921875 
Q 23.96875 65.921875 18.8125 64.3125 
Q 13.671875 62.703125 7.8125 59.421875 
L 7.8125 69.390625 
Q 13.765625 71.78125 18.9375 73 
Q 24.125 74.21875 28.421875 74.21875 
Q 39.75 74.21875 46.484375 68.546875 
Q 53.21875 62.890625 53.21875 53.421875 
Q 53.21875 48.921875 51.53125 44.890625 
Q 49.859375 40.875 45.40625 35.40625 
Q 44.1875 33.984375 37.640625 27.21875 
Q 31.109375 20.453125 19.1875 8.296875 
z
" id="DejaVuSans-32"/>
      </defs>
      <g transform="translate(234.889278 213.140563)scale(0.1 -0.1)">
       <use xlink:href="#DejaVuSans-32"/>
      </g>
     </g>
    </g>
    <g id="xtick_6">
     <g id="line2d_21">
      <defs>
       <path d="M 0 0 
L 0 2 
" id="m75042c6c71" style="stroke:#000000;stroke-width:0.6;"/>
      </defs>
      <g>
       <use style="stroke:#000000;stroke-width:0.6;" x="68.194577" xlink:href="#m75042c6c71" y="198.542126"/>
      </g>
     </g>
    </g>
    <g id="xtick_7">
     <g id="line2d_22">
      <g>
       <use style="stroke:#000000;stroke-width:0.6;" x="77.135417" xlink:href="#m75042c6c71" y="198.542126"/>
      </g>
     </g>
    </g>
    <g id="xtick_8">
     <g id="line2d_23">
      <g>
       <use style="stroke:#000000;stroke-width:0.6;" x="86.076256" xlink:href="#m75042c6c71" y="198.542126"/>
      </g>
     </g>
    </g>
    <g id="xtick_9">
     <g id="line2d_24">
      <g>
       <use style="stroke:#000000;stroke-width:0.6;" x="95.017096" xlink:href="#m75042c6c71" y="198.542126"/>
      </g>
     </g>
    </g>
    <g id="xtick_10">
     <g id="line2d_25">
      <g>
       <use style="stroke:#000000;stroke-width:0.6;" x="112.898775" xlink:href="#m75042c6c71" y="198.542126"/>
      </g>
     </g>
    </g>
    <g id="xtick_11">
     <g id="line2d_26">
      <g>
       <use style="stroke:#000000;stroke-width:0.6;" x="121.839614" xlink:href="#m75042c6c71" y="198.542126"/>
      </g>
     </g>
    </g>
    <g id="xtick_12">
     <g id="line2d_27">
      <g>
       <use style="stroke:#000000;stroke-width:0.6;" x="130.780454" xlink:href="#m75042c6c71" y="198.542126"/>
      </g>
     </g>
    </g>
    <g id="xtick_13">
     <g id="line2d_28">
      <g>
       <use style="stroke:#000000;stroke-width:0.6;" x="139.721293" xlink:href="#m75042c6c71" y="198.542126"/>
      </g>
     </g>
    </g>
    <g id="xtick_14">
     <g id="line2d_29">
      <g>
       <use style="stroke:#000000;stroke-width:0.6;" x="157.602972" xlink:href="#m75042c6c71" y="198.542126"/>
      </g>
     </g>
    </g>
    <g id="xtick_15">
     <g id="line2d_30">
      <g>
       <use style="stroke:#000000;stroke-width:0.6;" x="166.543812" xlink:href="#m75042c6c71" y="198.542126"/>
      </g>
     </g>
    </g>
    <g id="xtick_16">
     <g id="line2d_31">
      <g>
       <use style="stroke:#000000;stroke-width:0.6;" x="175.484651" xlink:href="#m75042c6c71" y="198.542126"/>
      </g>
     </g>
    </g>
    <g id="xtick_17">
     <g id="line2d_32">
      <g>
       <use style="stroke:#000000;stroke-width:0.6;" x="184.425491" xlink:href="#m75042c6c71" y="198.542126"/>
      </g>
     </g>
    </g>
    <g id="xtick_18">
     <g id="line2d_33">
      <g>
       <use style="stroke:#000000;stroke-width:0.6;" x="202.30717" xlink:href="#m75042c6c71" y="198.542126"/>
      </g>
     </g>
    </g>
    <g id="xtick_19">
     <g id="line2d_34">
      <g>
       <use style="stroke:#000000;stroke-width:0.6;" x="211.248009" xlink:href="#m75042c6c71" y="198.542126"/>
      </g>
     </g>
    </g>
    <g id="xtick_20">
     <g id="line2d_35">
      <g>
       <use style="stroke:#000000;stroke-width:0.6;" x="220.188849" xlink:href="#m75042c6c71" y="198.542126"/>
      </g>
     </g>
    </g>
    <g id="xtick_21">
     <g id="line2d_36">
      <g>
       <use style="stroke:#000000;stroke-width:0.6;" x="229.129688" xlink:href="#m75042c6c71" y="198.542126"/>
      </g>
     </g>
    </g>
   </g>
   <g id="matplotlib.axis_2">
    <g id="ytick_1">
     <g id="line2d_37">
      <defs>
       <path d="M 0 0 
L -3.5 0 
" id="m5cd6fd9839" style="stroke:#000000;stroke-width:0.8;"/>
      </defs>
      <g>
       <use style="stroke:#000000;stroke-width:0.8;" x="59.253738" xlink:href="#m5cd6fd9839" y="198.542126"/>
      </g>
     </g>
    </g>
    <g id="ytick_2">
     <g id="line2d_38">
      <g>
       <use style="stroke:#000000;stroke-width:0.8;" x="59.253738" xlink:href="#m5cd6fd9839" y="153.837928"/>
      </g>
     </g>
     <g id="text_5">
      <!-- 0.5 -->
      <g transform="translate(36.350613 157.637147)scale(0.1 -0.1)">
       <use xlink:href="#DejaVuSans-30"/>
       <use x="63.623047" xlink:href="#DejaVuSans-2e"/>
       <use x="95.410156" xlink:href="#DejaVuSans-35"/>
      </g>
     </g>
    </g>
    <g id="ytick_3">
     <g id="line2d_39">
      <g>
       <use style="stroke:#000000;stroke-width:0.8;" x="59.253738" xlink:href="#m5cd6fd9839" y="109.133731"/>
      </g>
     </g>
     <g id="text_6">
      <!-- 1 -->
      <g transform="translate(45.891238 112.93295)scale(0.1 -0.1)">
       <use xlink:href="#DejaVuSans-31"/>
      </g>
     </g>
    </g>
    <g id="ytick_4">
     <g id="line2d_40">
      <g>
       <use style="stroke:#000000;stroke-width:0.8;" x="59.253738" xlink:href="#m5cd6fd9839" y="64.429533"/>
      </g>
     </g>
     <g id="text_7">
      <!-- 1.5 -->
      <g transform="translate(36.350613 68.228752)scale(0.1 -0.1)">
       <use xlink:href="#DejaVuSans-31"/>
       <use x="63.623047" xlink:href="#DejaVuSans-2e"/>
       <use x="95.410156" xlink:href="#DejaVuSans-35"/>
      </g>
     </g>
    </g>
    <g id="ytick_5">
     <g id="line2d_41">
      <g>
       <use style="stroke:#000000;stroke-width:0.8;" x="59.253738" xlink:href="#m5cd6fd9839" y="19.725336"/>
      </g>
     </g>
     <g id="text_8">
      <!-- 2 -->
      <g transform="translate(45.891238 23.524555)scale(0.1 -0.1)">
       <use xlink:href="#DejaVuSans-32"/>
      </g>
     </g>
    </g>
    <g id="ytick_6">
     <g id="line2d_42">
      <defs>
       <path d="M 0 0 
L -2 0 
" id="m33b394ffcf" style="stroke:#000000;stroke-width:0.6;"/>
      </defs>
      <g>
       <use style="stroke:#000000;stroke-width:0.6;" x="59.253738" xlink:href="#m33b394ffcf" y="189.601286"/>
      </g>
     </g>
    </g>
    <g id="ytick_7">
     <g id="line2d_43">
      <g>
       <use style="stroke:#000000;stroke-width:0.6;" x="59.253738" xlink:href="#m33b394ffcf" y="180.660447"/>
      </g>
     </g>
    </g>
    <g id="ytick_8">
     <g id="line2d_44">
      <g>
       <use style="stroke:#000000;stroke-width:0.6;" x="59.253738" xlink:href="#m33b394ffcf" y="171.719607"/>
      </g>
     </g>
    </g>
    <g id="ytick_9">
     <g id="line2d_45">
      <g>
       <use style="stroke:#000000;stroke-width:0.6;" x="59.253738" xlink:href="#m33b394ffcf" y="162.778768"/>
      </g>
     </g>
    </g>
    <g id="ytick_10">
     <g id="line2d_46">
      <g>
       <use style="stroke:#000000;stroke-width:0.6;" x="59.253738" xlink:href="#m33b394ffcf" y="144.897089"/>
      </g>
     </g>
    </g>
    <g id="ytick_11">
     <g id="line2d_47">
      <g>
       <use style="stroke:#000000;stroke-width:0.6;" x="59.253738" xlink:href="#m33b394ffcf" y="135.956249"/>
      </g>
     </g>
    </g>
    <g id="ytick_12">
     <g id="line2d_48">
      <g>
       <use style="stroke:#000000;stroke-width:0.6;" x="59.253738" xlink:href="#m33b394ffcf" y="127.01541"/>
      </g>
     </g>
    </g>
    <g id="ytick_13">
     <g id="line2d_49">
      <g>
       <use style="stroke:#000000;stroke-width:0.6;" x="59.253738" xlink:href="#m33b394ffcf" y="118.07457"/>
      </g>
     </g>
    </g>
    <g id="ytick_14">
     <g id="line2d_50">
      <g>
       <use style="stroke:#000000;stroke-width:0.6;" x="59.253738" xlink:href="#m33b394ffcf" y="100.192891"/>
      </g>
     </g>
    </g>
    <g id="ytick_15">
     <g id="line2d_51">
      <g>
       <use style="stroke:#000000;stroke-width:0.6;" x="59.253738" xlink:href="#m33b394ffcf" y="91.252052"/>
      </g>
     </g>
    </g>
    <g id="ytick_16">
     <g id="line2d_52">
      <g>
       <use style="stroke:#000000;stroke-width:0.6;" x="59.253738" xlink:href="#m33b394ffcf" y="82.311212"/>
      </g>
     </g>
    </g>
    <g id="ytick_17">
     <g id="line2d_53">
      <g>
       <use style="stroke:#000000;stroke-width:0.6;" x="59.253738" xlink:href="#m33b394ffcf" y="73.370373"/>
      </g>
     </g>
    </g>
    <g id="ytick_18">
     <g id="line2d_54">
      <g>
       <use style="stroke:#000000;stroke-width:0.6;" x="59.253738" xlink:href="#m33b394ffcf" y="55.488694"/>
      </g>
     </g>
    </g>
    <g id="ytick_19">
     <g id="line2d_55">
      <g>
       <use style="stroke:#000000;stroke-width:0.6;" x="59.253738" xlink:href="#m33b394ffcf" y="46.547854"/>
      </g>
     </g>
    </g>
    <g id="ytick_20">
     <g id="line2d_56">
      <g>
       <use style="stroke:#000000;stroke-width:0.6;" x="59.253738" xlink:href="#m33b394ffcf" y="37.607015"/>
      </g>
     </g>
    </g>
    <g id="ytick_21">
     <g id="line2d_57">
      <g>
       <use style="stroke:#000000;stroke-width:0.6;" x="59.253738" xlink:href="#m33b394ffcf" y="28.666175"/>
      </g>
     </g>
    </g>
   </g>
   <g id="PathCollection_3">
    <defs>
     <path d="M 0 1.581139 
C 0.419323 1.581139 0.821528 1.41454 1.118034 1.118034 
C 1.41454 0.821528 1.581139 0.419323 1.581139 0 
C 1.581139 -0.419323 1.41454 -0.821528 1.118034 -1.118034 
C 0.821528 -1.41454 0.419323 -1.581139 0 -1.581139 
C -0.419323 -1.581139 -0.821528 -1.41454 -1.118034 -1.118034 
C -1.41454 -0.821528 -1.581139 -0.419323 -1.581139 0 
C -1.581139 0.419323 -1.41454 0.821528 -1.118034 1.118034 
C -0.821528 1.41454 -0.419323 1.581139 0 1.581139 
z
" id="C1_0_f5e79dc81a"/>
    </defs>
    <g clip-path="url(#pd013dd8a1c)">
     <use style="fill:#ffff00;fill-opacity:0.4;" x="59.253738" xlink:href="#C1_0_f5e79dc81a" y="198.542126"/>
    </g>
    <g clip-path="url(#pd013dd8a1c)">
     <use style="fill:#ffff00;fill-opacity:0.4;" x="59.253738" xlink:href="#C1_0_f5e79dc81a" y="19.725336"/>
    </g>
    <g clip-path="url(#pd013dd8a1c)">
     <use style="fill:#ffff00;fill-opacity:0.4;" x="238.070528" xlink:href="#C1_0_f5e79dc81a" y="198.542126"/>
    </g>
   </g>
   <g id="PathCollection_4">
    <defs>
     <path d="M 0 1.581139 
C 0.419323 1.581139 0.821528 1.41454 1.118034 1.118034 
C 1.41454 0.821528 1.581139 0.419323 1.581139 0 
C 1.581139 -0.419323 1.41454 -0.821528 1.118034 -1.118034 
C 0.821528 -1.41454 0.419323 -1.581139 0 -1.581139 
C -0.419323 -1.581139 -0.821528 -1.41454 -1.118034 -1.118034 
C -1.41454 -0.821528 -1.581139 -0.419323 -1.581139 0 
C -1.581139 0.419323 -1.41454 0.821528 -1.118034 1.118034 
C -0.821528 1.41454 -0.419323 1.581139 0 1.581139 
z
" id="C2_0_e2f22b5c55"/>
    </defs>
    <g clip-path="url(#pd013dd8a1c)">
     <use style="fill:#ff0000;fill-opacity:0.4;" x="81.605837" xlink:href="#C2_0_e2f22b5c55" y="86.781632"/>
    </g>
    <g clip-path="url(#pd013dd8a1c)">
     <use style="fill:#ff0000;fill-opacity:0.4;" x="103.957935" xlink:href="#C2_0_e2f22b5c55" y="153.837928"/>
    </g>
    <g clip-path="url(#pd013dd8a1c)">
     <use style="fill:#ff0000;fill-opacity:0.4;" x="81.605837" xlink:href="#C2_0_e2f22b5c55" y="176.190027"/>
    </g>
    <g clip-path="url(#pd013dd8a1c)">
     <use style="fill:#ff0000;fill-opacity:0.4;" x="59.253738" xlink:href="#C2_0_e2f22b5c55" y="109.133731"/>
    </g>
   </g>
   <g id="PathCollection_5">
    <defs>
     <path d="M 0 1.581139 
C 0.419323 1.581139 0.821528 1.41454 1.118034 1.118034 
C 1.41454 0.821528 1.581139 0.419323 1.581139 0 
C 1.581139 -0.419323 1.41454 -0.821528 1.118034 -1.118034 
C 0.821528 -1.41454 0.419323 -1.581139 0 -1.581139 
C -0.419323 -1.581139 -0.821528 -1.41454 -1.118034 -1.118034 
C -1.41454 -0.821528 -1.581139 -0.419323 -1.581139 0 
C -1.581139 0.419323 -1.41454 0.821528 -1.118034 1.118034 
C -0.821528 1.41454 -0.419323 1.581139 0 1.581139 
z
" id="C3_0_51ccac4562"/>
    </defs>
    <g clip-path="url(#pd013dd8a1c)">
     <use style="fill:#ff0000;fill-opacity:0.4;" x="103.957935" xlink:href="#C3_0_51ccac4562" y="153.837928"/>
    </g>
    <g clip-path="url(#pd013dd8a1c)">
     <use style="fill:#ff0000;fill-opacity:0.4;" x="171.014232" xlink:href="#C3_0_51ccac4562" y="176.190027"/>
    </g>
    <g clip-path="url(#pd013dd8a1c)">
     <use style="fill:#ff0000;fill-opacity:0.4;" x="148.662133" xlink:href="#C3_0_51ccac4562" y="198.542126"/>
    </g>
    <g clip-path="url(#pd013dd8a1c)">
     <use style="fill:#ff0000;fill-opacity:0.4;" x="81.605837" xlink:href="#C3_0_51ccac4562" y="176.190027"/>
    </g>
   </g>
   <g id="PathCollection_6">
    <defs>
     <path d="M 0 1.581139 
C 0.419323 1.581139 0.821528 1.41454 1.118034 1.118034 
C 1.41454 0.821528 1.581139 0.419323 1.581139 0 
C 1.581139 -0.419323 1.41454 -0.821528 1.118034 -1.118034 
C 0.821528 -1.41454 0.419323 -1.581139 0 -1.581139 
C -0.419323 -1.581139 -0.821528 -1.41454 -1.118034 -1.118034 
C -1.41454 -0.821528 -1.581139 -0.419323 -1.581139 0 
C -1.581139 0.419323 -1.41454 0.821528 -1.118034 1.118034 
C -0.821528 1.41454 -0.419323 1.581139 0 1.581139 
z
" id="C4_0_6768302b24"/>
    </defs>
    <g clip-path="url(#pd013dd8a1c)">
     <use style="fill:#ff0000;fill-opacity:0.4;" x="171.014232" xlink:href="#C4_0_6768302b24" y="176.190027"/>
    </g>
    <g clip-path="url(#pd013dd8a1c)">
     <use style="fill:#ff0000;fill-opacity:0.4;" x="148.662133" xlink:href="#C4_0_6768302b24" y="109.133731"/>
    </g>
    <g clip-path="url(#pd013dd8a1c)">
     <use style="fill:#ff0000;fill-opacity:0.4;" x="81.605837" xlink:href="#C4_0_6768302b24" y="86.781632"/>
    </g>
    <g clip-path="url(#pd013dd8a1c)">
     <use style="fill:#ff0000;fill-opacity:0.4;" x="103.957935" xlink:href="#C4_0_6768302b24" y="153.837928"/>
    </g>
   </g>
   <g id="patch_7">
    <path d="M 59.253738 202.118462 
L 59.253738 16.149 
" style="fill:none;stroke:#000000;stroke-linecap:square;stroke-linejoin:miter;stroke-width:0.8;"/>
   </g>
   <g id="patch_8">
    <path d="M 55.677402 198.542126 
L 241.646864 198.542126 
" style="fill:none;stroke:#000000;stroke-linecap:square;stroke-linejoin:miter;stroke-width:0.8;"/>
   </g>
   <g id="text_9">
    <!-- $f$ -->
    <defs>
     <path d="M 9.71875 -16.5 
Q 11.578125 -17.921875 14.203125 -17.921875 
Q 17.78125 -17.921875 20.015625 -10.015625 
Q 20.953125 -6.203125 25.09375 15.09375 
L 29.6875 39.59375 
L 21.09375 39.59375 
Q 20.125 39.59375 20.125 40.921875 
Q 20.515625 43.109375 21.390625 43.109375 
L 30.328125 43.109375 
L 31.5 49.609375 
Q 32.078125 52.640625 32.5625 54.8125 
Q 33.0625 56.984375 33.625 58.828125 
Q 34.1875 60.6875 35.296875 62.984375 
Q 37.015625 66.265625 39.921875 68.390625 
Q 42.828125 70.515625 46.1875 70.515625 
Q 48.390625 70.515625 50.46875 69.703125 
Q 52.546875 68.890625 53.859375 67.28125 
Q 55.171875 65.671875 55.171875 63.484375 
Q 55.171875 60.9375 53.484375 59.046875 
Q 51.8125 57.171875 49.421875 57.171875 
Q 47.796875 57.171875 46.65625 58.171875 
Q 45.515625 59.1875 45.515625 60.796875 
Q 45.515625 62.984375 47 64.625 
Q 48.484375 66.265625 50.6875 66.5 
Q 48.828125 67.921875 46.09375 67.921875 
Q 44.578125 67.921875 43.234375 66.5 
Q 41.890625 65.09375 41.5 63.484375 
Q 40.875 60.9375 38.71875 49.703125 
L 37.5 43.109375 
L 47.796875 43.109375 
Q 48.78125 43.109375 48.78125 41.796875 
Q 48.734375 41.546875 48.578125 40.9375 
Q 48.4375 40.328125 48.171875 39.953125 
Q 47.90625 39.59375 47.515625 39.59375 
L 36.8125 39.59375 
L 32.171875 15.1875 
Q 31.296875 9.859375 30.140625 4.359375 
Q 29 -1.125 26.921875 -6.90625 
Q 24.859375 -12.703125 21.625 -16.609375 
Q 18.40625 -20.515625 14.015625 -20.515625 
Q 10.640625 -20.515625 7.984375 -18.578125 
Q 5.328125 -16.65625 5.328125 -13.484375 
Q 5.328125 -10.9375 6.953125 -9.046875 
Q 8.59375 -7.171875 11.078125 -7.171875 
Q 12.75 -7.171875 13.859375 -8.171875 
Q 14.984375 -9.1875 14.984375 -10.796875 
Q 14.984375 -12.9375 13.390625 -14.71875 
Q 11.8125 -16.5 9.71875 -16.5 
z
" id="Cmmi10-66"/>
    </defs>
    <g transform="translate(103.957935 151.737928)scale(0.1 -0.1)">
     <use transform="translate(0 0.484375)" xlink:href="#Cmmi10-66"/>
    </g>
   </g>
   <g id="text_10">
    <!-- $f=\left(\frac{1}{2}, \frac{1}{2}\right)$ -->
    <defs>
     <path d="M 7.515625 13.28125 
Q 6.6875 13.28125 6.140625 13.90625 
Q 5.609375 14.546875 5.609375 15.28125 
Q 5.609375 16.109375 6.140625 16.6875 
Q 6.6875 17.28125 7.515625 17.28125 
L 70.3125 17.28125 
Q 71.046875 17.28125 71.578125 16.6875 
Q 72.125 16.109375 72.125 15.28125 
Q 72.125 14.546875 71.578125 13.90625 
Q 71.046875 13.28125 70.3125 13.28125 
z
M 7.515625 32.71875 
Q 6.6875 32.71875 6.140625 33.296875 
Q 5.609375 33.890625 5.609375 34.71875 
Q 5.609375 35.453125 6.140625 36.078125 
Q 6.6875 36.71875 7.515625 36.71875 
L 70.3125 36.71875 
Q 71.046875 36.71875 71.578125 36.078125 
Q 72.125 35.453125 72.125 34.71875 
Q 72.125 33.890625 71.578125 33.296875 
Q 71.046875 32.71875 70.3125 32.71875 
z
" id="Cmr10-3d"/>
     <path d="M 39.109375 -115.71875 
Q 26.765625 -105.375 20.96875 -89.59375 
Q 15.1875 -73.828125 15.1875 -56 
Q 15.1875 -38.03125 20.96875 -22.234375 
Q 26.765625 -6.453125 39.109375 3.8125 
Q 39.109375 4 39.59375 4 
L 40.828125 4 
Q 41.109375 4 41.359375 3.6875 
Q 41.609375 3.375 41.609375 3.078125 
Q 41.609375 2.6875 41.40625 2.484375 
Q 35.984375 -3.125 32.296875 -10 
Q 28.609375 -16.890625 26.484375 -24.28125 
Q 24.359375 -31.6875 23.4375 -39.734375 
Q 22.515625 -47.796875 22.515625 -56.109375 
Q 22.515625 -94.875 41.40625 -114.40625 
Q 41.609375 -114.59375 41.609375 -114.984375 
Q 41.609375 -115.28125 41.328125 -115.59375 
Q 41.0625 -115.921875 40.828125 -115.921875 
L 39.59375 -115.921875 
Q 39.109375 -115.921875 39.109375 -115.71875 
z
" id="Cmex10-a1"/>
     <path d="M 9.28125 0 
L 9.28125 3.515625 
Q 21.78125 3.515625 21.78125 6.6875 
L 21.78125 59.1875 
Q 16.609375 56.6875 8.6875 56.6875 
L 8.6875 60.203125 
Q 20.953125 60.203125 27.203125 66.609375 
L 28.609375 66.609375 
Q 28.953125 66.609375 29.265625 66.328125 
Q 29.59375 66.0625 29.59375 65.71875 
L 29.59375 6.6875 
Q 29.59375 3.515625 42.09375 3.515625 
L 42.09375 0 
z
" id="Cmr10-31"/>
     <path d="M 4.984375 0 
L 4.984375 2.6875 
Q 4.984375 2.9375 5.171875 3.21875 
L 20.703125 20.40625 
Q 24.21875 24.21875 26.40625 26.796875 
Q 28.609375 29.390625 30.75 32.765625 
Q 32.90625 36.140625 34.15625 39.625 
Q 35.40625 43.109375 35.40625 47.015625 
Q 35.40625 51.125 33.890625 54.859375 
Q 32.375 58.59375 29.375 60.84375 
Q 26.375 63.09375 22.125 63.09375 
Q 17.78125 63.09375 14.3125 60.46875 
Q 10.84375 57.859375 9.421875 53.71875 
Q 9.8125 53.8125 10.5 53.8125 
Q 12.75 53.8125 14.328125 52.296875 
Q 15.921875 50.78125 15.921875 48.390625 
Q 15.921875 46.09375 14.328125 44.5 
Q 12.75 42.921875 10.5 42.921875 
Q 8.15625 42.921875 6.5625 44.546875 
Q 4.984375 46.1875 4.984375 48.390625 
Q 4.984375 52.15625 6.390625 55.4375 
Q 7.8125 58.734375 10.46875 61.296875 
Q 13.140625 63.875 16.484375 65.234375 
Q 19.828125 66.609375 23.578125 66.609375 
Q 29.296875 66.609375 34.21875 64.1875 
Q 39.15625 61.765625 42.03125 57.34375 
Q 44.921875 52.9375 44.921875 47.015625 
Q 44.921875 42.671875 43.015625 38.765625 
Q 41.109375 34.859375 38.125 31.65625 
Q 35.15625 28.46875 30.515625 24.40625 
Q 25.875 20.359375 24.421875 19 
L 13.09375 8.109375 
L 22.703125 8.109375 
Q 29.78125 8.109375 34.546875 8.21875 
Q 39.3125 8.34375 39.59375 8.59375 
Q 40.765625 9.859375 42 17.828125 
L 44.921875 17.828125 
L 42.09375 0 
z
" id="Cmr10-32"/>
     <path d="M 9.90625 -18.015625 
Q 9.90625 -17.578125 10.296875 -17.1875 
Q 13.921875 -13.71875 15.921875 -9.171875 
Q 17.921875 -4.640625 17.921875 0.390625 
L 17.921875 1.609375 
Q 16.3125 0 13.921875 0 
Q 11.625 0 10.015625 1.609375 
Q 8.40625 3.21875 8.40625 5.515625 
Q 8.40625 7.859375 10.015625 9.421875 
Q 11.625 10.984375 13.921875 10.984375 
Q 17.484375 10.984375 19 7.6875 
Q 20.515625 4.390625 20.515625 0.390625 
Q 20.515625 -5.171875 18.28125 -10.171875 
Q 16.0625 -15.1875 12.015625 -19.1875 
Q 11.625 -19.390625 11.375 -19.390625 
Q 10.890625 -19.390625 10.390625 -18.9375 
Q 9.90625 -18.5 9.90625 -18.015625 
z
" id="Cmmi10-3b"/>
     <path d="M 4.984375 -115.921875 
Q 4.109375 -115.921875 4.109375 -114.984375 
Q 4.109375 -114.59375 4.296875 -114.40625 
Q 11.46875 -106.9375 15.640625 -97.4375 
Q 19.828125 -87.9375 21.5 -77.515625 
Q 23.1875 -67.09375 23.1875 -55.90625 
Q 23.1875 -17.046875 4.296875 2.484375 
Q 4.109375 2.6875 4.109375 3.078125 
Q 4.109375 4 4.984375 4 
L 6.203125 4 
Q 6.5 4 6.6875 3.8125 
Q 19 -6.453125 24.75 -22.234375 
Q 30.515625 -38.03125 30.515625 -56 
Q 30.515625 -73.828125 24.78125 -89.59375 
Q 19.046875 -105.375 6.6875 -115.71875 
Q 6.5 -115.921875 6.203125 -115.921875 
z
" id="Cmex10-a2"/>
    </defs>
    <g transform="translate(128.762133 10.149)scale(0.1 -0.1)">
     <use transform="translate(0 0.873437)" xlink:href="#Cmmi10-66"/>
     <use transform="translate(66.435547 0.873437)" xlink:href="#Cmr10-3d"/>
     <use transform="translate(161.679688 80.840625)scale(1.038202)" xlink:href="#Cmex10-a1"/>
     <use transform="translate(209.226624 38.373438)scale(0.7)" xlink:href="#Cmr10-31"/>
     <use transform="translate(209.226624 -39.503125)scale(0.7)" xlink:href="#Cmr10-32"/>
     <use transform="translate(256.726624 0.873437)" xlink:href="#Cmmi10-3b"/>
     <use transform="translate(301.970764 38.373438)scale(0.7)" xlink:href="#Cmr10-31"/>
     <use transform="translate(301.970764 -39.503125)scale(0.7)" xlink:href="#Cmr10-32"/>
     <use transform="translate(349.470764 80.840625)scale(1.038202)" xlink:href="#Cmex10-a2"/>
     <path d="M 209.226624 13.373437 
L 209.226624 19.623437 
L 244.226624 19.623437 
L 244.226624 13.373437 
L 209.226624 13.373437 
z
"/>
     <path d="M 301.970764 13.373437 
L 301.970764 19.623437 
L 336.970764 19.623437 
L 336.970764 13.373437 
L 301.970764 13.373437 
z
"/>
    </g>
   </g>
  </g>
  <g id="axes_2">
   <g id="patch_9">
    <path d="M 335.790129 202.118462 
L 521.759591 202.118462 
L 521.759591 16.149 
L 335.790129 16.149 
z
" style="fill:#ffffff;"/>
   </g>
   <g id="patch_10">
    <path clip-path="url(#pfa2a0e2818)" d="M 384.070663 153.837928 
L 339.366465 198.542126 
L 398.972062 198.542126 
z
" style="fill:#ff0000;opacity:0.3;"/>
   </g>
   <g id="patch_11">
    <path clip-path="url(#pfa2a0e2818)" d="M 428.77486 109.133731 
L 384.070663 153.837928 
L 339.366465 19.725336 
L 398.972062 19.725336 
z
" style="fill:#ff0000;opacity:0.3;"/>
   </g>
   <g id="patch_12">
    <path clip-path="url(#pfa2a0e2818)" d="M 339.366465 138.936529 
L 339.366465 198.542126 
L 384.070663 153.837928 
z
" style="fill:#ff0000;opacity:0.3;"/>
   </g>
   <g id="patch_13">
    <path clip-path="url(#pfa2a0e2818)" d="M 384.070663 153.837928 
L 518.183255 198.542126 
L 518.183255 138.936529 
L 428.77486 109.133731 
z
" style="fill:#ff0000;opacity:0.3;"/>
   </g>
   <g id="patch_14">
    <path clip-path="url(#pfa2a0e2818)" d="M 339.366465 138.936529 
L 339.366465 19.725336 
L 384.070663 153.837928 
z
" style="fill:#ff0000;opacity:0.3;"/>
   </g>
   <g id="patch_15">
    <path clip-path="url(#pfa2a0e2818)" d="M 384.070663 153.837928 
L 518.183255 198.542126 
L 398.972062 198.542126 
z
" style="fill:#ff0000;opacity:0.3;"/>
   </g>
   <g id="patch_16">
    <path clip-path="url(#pfa2a0e2818)" d="M 428.77486 109.133731 
L 518.183255 138.936529 
L 518.183255 19.725336 
L 398.972062 19.725336 
z
" style="fill:#ff0000;opacity:0.3;"/>
   </g>
   <g id="line2d_58">
    <path clip-path="url(#pfa2a0e2818)" d="M 339.366465 198.542126 
L 398.972062 198.542126 
" style="fill:none;stroke:#ff0000;stroke-linecap:square;stroke-opacity:0.3;"/>
   </g>
   <g id="line2d_59">
    <path clip-path="url(#pfa2a0e2818)" d="M 339.366465 198.542126 
L 384.070663 153.837928 
" style="fill:none;stroke:#ff0000;stroke-linecap:square;stroke-opacity:0.3;"/>
   </g>
   <g id="line2d_60">
    <path clip-path="url(#pfa2a0e2818)" d="M 398.972062 198.542126 
L 384.070663 153.837928 
" style="fill:none;stroke:#ff0000;stroke-linecap:square;stroke-opacity:0.3;"/>
   </g>
   <g id="line2d_61">
    <path clip-path="url(#pfa2a0e2818)" d="M 339.366465 19.725336 
L 398.972062 19.725336 
" style="fill:none;stroke:#ff0000;stroke-linecap:square;stroke-opacity:0.3;"/>
   </g>
   <g id="line2d_62">
    <path clip-path="url(#pfa2a0e2818)" d="M 339.366465 19.725336 
L 384.070663 153.837928 
" style="fill:none;stroke:#ff0000;stroke-linecap:square;stroke-opacity:0.3;"/>
   </g>
   <g id="line2d_63">
    <path clip-path="url(#pfa2a0e2818)" d="M 428.77486 109.133731 
L 398.972062 19.725336 
" style="fill:none;stroke:#ff0000;stroke-linecap:square;stroke-opacity:0.3;"/>
   </g>
   <g id="line2d_64">
    <path clip-path="url(#pfa2a0e2818)" d="M 428.77486 109.133731 
L 384.070663 153.837928 
" style="fill:none;stroke:#ff0000;stroke-linecap:square;stroke-opacity:0.3;"/>
   </g>
   <g id="line2d_65">
    <path clip-path="url(#pfa2a0e2818)" d="M 339.366465 198.542126 
L 384.070663 153.837928 
" style="fill:none;stroke:#ff0000;stroke-linecap:square;stroke-opacity:0.3;"/>
   </g>
   <g id="line2d_66">
    <path clip-path="url(#pfa2a0e2818)" d="M 339.366465 198.542126 
L 339.366465 138.936529 
" style="fill:none;stroke:#ff0000;stroke-linecap:square;stroke-opacity:0.3;"/>
   </g>
   <g id="line2d_67">
    <path clip-path="url(#pfa2a0e2818)" d="M 384.070663 153.837928 
L 339.366465 138.936529 
" style="fill:none;stroke:#ff0000;stroke-linecap:square;stroke-opacity:0.3;"/>
   </g>
   <g id="line2d_68">
    <path clip-path="url(#pfa2a0e2818)" d="M 518.183255 198.542126 
L 518.183255 138.936529 
" style="fill:none;stroke:#ff0000;stroke-linecap:square;stroke-opacity:0.3;"/>
   </g>
   <g id="line2d_69">
    <path clip-path="url(#pfa2a0e2818)" d="M 518.183255 198.542126 
L 384.070663 153.837928 
" style="fill:none;stroke:#ff0000;stroke-linecap:square;stroke-opacity:0.3;"/>
   </g>
   <g id="line2d_70">
    <path clip-path="url(#pfa2a0e2818)" d="M 518.183255 138.936529 
L 428.77486 109.133731 
" style="fill:none;stroke:#ff0000;stroke-linecap:square;stroke-opacity:0.3;"/>
   </g>
   <g id="line2d_71">
    <path clip-path="url(#pfa2a0e2818)" d="M 428.77486 109.133731 
L 384.070663 153.837928 
" style="fill:none;stroke:#ff0000;stroke-linecap:square;stroke-opacity:0.3;"/>
   </g>
   <g id="line2d_72">
    <path clip-path="url(#pfa2a0e2818)" d="M 339.366465 19.725336 
L 384.070663 153.837928 
" style="fill:none;stroke:#ff0000;stroke-linecap:square;stroke-opacity:0.3;"/>
   </g>
   <g id="line2d_73">
    <path clip-path="url(#pfa2a0e2818)" d="M 339.366465 19.725336 
L 339.366465 138.936529 
" style="fill:none;stroke:#ff0000;stroke-linecap:square;stroke-opacity:0.3;"/>
   </g>
   <g id="line2d_74">
    <path clip-path="url(#pfa2a0e2818)" d="M 384.070663 153.837928 
L 339.366465 138.936529 
" style="fill:none;stroke:#ff0000;stroke-linecap:square;stroke-opacity:0.3;"/>
   </g>
   <g id="line2d_75">
    <path clip-path="url(#pfa2a0e2818)" d="M 518.183255 198.542126 
L 398.972062 198.542126 
" style="fill:none;stroke:#ff0000;stroke-linecap:square;stroke-opacity:0.3;"/>
   </g>
   <g id="line2d_76">
    <path clip-path="url(#pfa2a0e2818)" d="M 518.183255 198.542126 
L 384.070663 153.837928 
" style="fill:none;stroke:#ff0000;stroke-linecap:square;stroke-opacity:0.3;"/>
   </g>
   <g id="line2d_77">
    <path clip-path="url(#pfa2a0e2818)" d="M 398.972062 198.542126 
L 384.070663 153.837928 
" style="fill:none;stroke:#ff0000;stroke-linecap:square;stroke-opacity:0.3;"/>
   </g>
   <g id="line2d_78">
    <path clip-path="url(#pfa2a0e2818)" d="M 518.183255 138.936529 
L 518.183255 19.725336 
" style="fill:none;stroke:#ff0000;stroke-linecap:square;stroke-opacity:0.3;"/>
   </g>
   <g id="line2d_79">
    <path clip-path="url(#pfa2a0e2818)" d="M 518.183255 138.936529 
L 428.77486 109.133731 
" style="fill:none;stroke:#ff0000;stroke-linecap:square;stroke-opacity:0.3;"/>
   </g>
   <g id="line2d_80">
    <path clip-path="url(#pfa2a0e2818)" d="M 518.183255 19.725336 
L 398.972062 19.725336 
" style="fill:none;stroke:#ff0000;stroke-linecap:square;stroke-opacity:0.3;"/>
   </g>
   <g id="line2d_81">
    <path clip-path="url(#pfa2a0e2818)" d="M 398.972062 19.725336 
L 428.77486 109.133731 
" style="fill:none;stroke:#ff0000;stroke-linecap:square;stroke-opacity:0.3;"/>
   </g>
   <g id="matplotlib.axis_3">
    <g id="xtick_22">
     <g id="line2d_82">
      <g>
       <use style="stroke:#000000;stroke-width:0.8;" x="339.366465" xlink:href="#me3b5eb3a3e" y="198.542126"/>
      </g>
     </g>
    </g>
    <g id="xtick_23">
     <g id="line2d_83">
      <g>
       <use style="stroke:#000000;stroke-width:0.8;" x="375.129823" xlink:href="#me3b5eb3a3e" y="198.542126"/>
      </g>
     </g>
     <g id="text_11">
      <!-- 0.2 -->
      <g transform="translate(367.178261 213.140563)scale(0.1 -0.1)">
       <use xlink:href="#DejaVuSans-30"/>
       <use x="63.623047" xlink:href="#DejaVuSans-2e"/>
       <use x="95.410156" xlink:href="#DejaVuSans-32"/>
      </g>
     </g>
    </g>
    <g id="xtick_24">
     <g id="line2d_84">
      <g>
       <use style="stroke:#000000;stroke-width:0.8;" x="410.893181" xlink:href="#me3b5eb3a3e" y="198.542126"/>
      </g>
     </g>
     <g id="text_12">
      <!-- 0.4 -->
      <defs>
       <path d="M 37.796875 64.3125 
L 12.890625 25.390625 
L 37.796875 25.390625 
z
M 35.203125 72.90625 
L 47.609375 72.90625 
L 47.609375 25.390625 
L 58.015625 25.390625 
L 58.015625 17.1875 
L 47.609375 17.1875 
L 47.609375 0 
L 37.796875 0 
L 37.796875 17.1875 
L 4.890625 17.1875 
L 4.890625 26.703125 
z
" id="DejaVuSans-34"/>
      </defs>
      <g transform="translate(402.941619 213.140563)scale(0.1 -0.1)">
       <use xlink:href="#DejaVuSans-30"/>
       <use x="63.623047" xlink:href="#DejaVuSans-2e"/>
       <use x="95.410156" xlink:href="#DejaVuSans-34"/>
      </g>
     </g>
    </g>
    <g id="xtick_25">
     <g id="line2d_85">
      <g>
       <use style="stroke:#000000;stroke-width:0.8;" x="446.656539" xlink:href="#me3b5eb3a3e" y="198.542126"/>
      </g>
     </g>
     <g id="text_13">
      <!-- 0.6 -->
      <defs>
       <path d="M 33.015625 40.375 
Q 26.375 40.375 22.484375 35.828125 
Q 18.609375 31.296875 18.609375 23.390625 
Q 18.609375 15.53125 22.484375 10.953125 
Q 26.375 6.390625 33.015625 6.390625 
Q 39.65625 6.390625 43.53125 10.953125 
Q 47.40625 15.53125 47.40625 23.390625 
Q 47.40625 31.296875 43.53125 35.828125 
Q 39.65625 40.375 33.015625 40.375 
z
M 52.59375 71.296875 
L 52.59375 62.3125 
Q 48.875 64.0625 45.09375 64.984375 
Q 41.3125 65.921875 37.59375 65.921875 
Q 27.828125 65.921875 22.671875 59.328125 
Q 17.53125 52.734375 16.796875 39.40625 
Q 19.671875 43.65625 24.015625 45.921875 
Q 28.375 48.1875 33.59375 48.1875 
Q 44.578125 48.1875 50.953125 41.515625 
Q 57.328125 34.859375 57.328125 23.390625 
Q 57.328125 12.15625 50.6875 5.359375 
Q 44.046875 -1.421875 33.015625 -1.421875 
Q 20.359375 -1.421875 13.671875 8.265625 
Q 6.984375 17.96875 6.984375 36.375 
Q 6.984375 53.65625 15.1875 63.9375 
Q 23.390625 74.21875 37.203125 74.21875 
Q 40.921875 74.21875 44.703125 73.484375 
Q 48.484375 72.75 52.59375 71.296875 
z
" id="DejaVuSans-36"/>
      </defs>
      <g transform="translate(438.704977 213.140563)scale(0.1 -0.1)">
       <use xlink:href="#DejaVuSans-30"/>
       <use x="63.623047" xlink:href="#DejaVuSans-2e"/>
       <use x="95.410156" xlink:href="#DejaVuSans-36"/>
      </g>
     </g>
    </g>
    <g id="xtick_26">
     <g id="line2d_86">
      <g>
       <use style="stroke:#000000;stroke-width:0.8;" x="482.419897" xlink:href="#me3b5eb3a3e" y="198.542126"/>
      </g>
     </g>
     <g id="text_14">
      <!-- 0.8 -->
      <defs>
       <path d="M 31.78125 34.625 
Q 24.75 34.625 20.71875 30.859375 
Q 16.703125 27.09375 16.703125 20.515625 
Q 16.703125 13.921875 20.71875 10.15625 
Q 24.75 6.390625 31.78125 6.390625 
Q 38.8125 6.390625 42.859375 10.171875 
Q 46.921875 13.96875 46.921875 20.515625 
Q 46.921875 27.09375 42.890625 30.859375 
Q 38.875 34.625 31.78125 34.625 
z
M 21.921875 38.8125 
Q 15.578125 40.375 12.03125 44.71875 
Q 8.5 49.078125 8.5 55.328125 
Q 8.5 64.0625 14.71875 69.140625 
Q 20.953125 74.21875 31.78125 74.21875 
Q 42.671875 74.21875 48.875 69.140625 
Q 55.078125 64.0625 55.078125 55.328125 
Q 55.078125 49.078125 51.53125 44.71875 
Q 48 40.375 41.703125 38.8125 
Q 48.828125 37.15625 52.796875 32.3125 
Q 56.78125 27.484375 56.78125 20.515625 
Q 56.78125 9.90625 50.3125 4.234375 
Q 43.84375 -1.421875 31.78125 -1.421875 
Q 19.734375 -1.421875 13.25 4.234375 
Q 6.78125 9.90625 6.78125 20.515625 
Q 6.78125 27.484375 10.78125 32.3125 
Q 14.796875 37.15625 21.921875 38.8125 
z
M 18.3125 54.390625 
Q 18.3125 48.734375 21.84375 45.5625 
Q 25.390625 42.390625 31.78125 42.390625 
Q 38.140625 42.390625 41.71875 45.5625 
Q 45.3125 48.734375 45.3125 54.390625 
Q 45.3125 60.0625 41.71875 63.234375 
Q 38.140625 66.40625 31.78125 66.40625 
Q 25.390625 66.40625 21.84375 63.234375 
Q 18.3125 60.0625 18.3125 54.390625 
z
" id="DejaVuSans-38"/>
      </defs>
      <g transform="translate(474.468335 213.140563)scale(0.1 -0.1)">
       <use xlink:href="#DejaVuSans-30"/>
       <use x="63.623047" xlink:href="#DejaVuSans-2e"/>
       <use x="95.410156" xlink:href="#DejaVuSans-38"/>
      </g>
     </g>
    </g>
    <g id="xtick_27">
     <g id="line2d_87">
      <g>
       <use style="stroke:#000000;stroke-width:0.8;" x="518.183255" xlink:href="#me3b5eb3a3e" y="198.542126"/>
      </g>
     </g>
     <g id="text_15">
      <!-- 1 -->
      <g transform="translate(515.002005 213.140563)scale(0.1 -0.1)">
       <use xlink:href="#DejaVuSans-31"/>
      </g>
     </g>
    </g>
    <g id="xtick_28">
     <g id="line2d_88">
      <g>
       <use style="stroke:#000000;stroke-width:0.6;" x="348.307305" xlink:href="#m75042c6c71" y="198.542126"/>
      </g>
     </g>
    </g>
    <g id="xtick_29">
     <g id="line2d_89">
      <g>
       <use style="stroke:#000000;stroke-width:0.6;" x="357.248144" xlink:href="#m75042c6c71" y="198.542126"/>
      </g>
     </g>
    </g>
    <g id="xtick_30">
     <g id="line2d_90">
      <g>
       <use style="stroke:#000000;stroke-width:0.6;" x="366.188984" xlink:href="#m75042c6c71" y="198.542126"/>
      </g>
     </g>
    </g>
    <g id="xtick_31">
     <g id="line2d_91">
      <g>
       <use style="stroke:#000000;stroke-width:0.6;" x="384.070663" xlink:href="#m75042c6c71" y="198.542126"/>
      </g>
     </g>
    </g>
    <g id="xtick_32">
     <g id="line2d_92">
      <g>
       <use style="stroke:#000000;stroke-width:0.6;" x="393.011502" xlink:href="#m75042c6c71" y="198.542126"/>
      </g>
     </g>
    </g>
    <g id="xtick_33">
     <g id="line2d_93">
      <g>
       <use style="stroke:#000000;stroke-width:0.6;" x="401.952342" xlink:href="#m75042c6c71" y="198.542126"/>
      </g>
     </g>
    </g>
    <g id="xtick_34">
     <g id="line2d_94">
      <g>
       <use style="stroke:#000000;stroke-width:0.6;" x="419.834021" xlink:href="#m75042c6c71" y="198.542126"/>
      </g>
     </g>
    </g>
    <g id="xtick_35">
     <g id="line2d_95">
      <g>
       <use style="stroke:#000000;stroke-width:0.6;" x="428.77486" xlink:href="#m75042c6c71" y="198.542126"/>
      </g>
     </g>
    </g>
    <g id="xtick_36">
     <g id="line2d_96">
      <g>
       <use style="stroke:#000000;stroke-width:0.6;" x="437.7157" xlink:href="#m75042c6c71" y="198.542126"/>
      </g>
     </g>
    </g>
    <g id="xtick_37">
     <g id="line2d_97">
      <g>
       <use style="stroke:#000000;stroke-width:0.6;" x="455.597379" xlink:href="#m75042c6c71" y="198.542126"/>
      </g>
     </g>
    </g>
    <g id="xtick_38">
     <g id="line2d_98">
      <g>
       <use style="stroke:#000000;stroke-width:0.6;" x="464.538218" xlink:href="#m75042c6c71" y="198.542126"/>
      </g>
     </g>
    </g>
    <g id="xtick_39">
     <g id="line2d_99">
      <g>
       <use style="stroke:#000000;stroke-width:0.6;" x="473.479058" xlink:href="#m75042c6c71" y="198.542126"/>
      </g>
     </g>
    </g>
    <g id="xtick_40">
     <g id="line2d_100">
      <g>
       <use style="stroke:#000000;stroke-width:0.6;" x="491.360737" xlink:href="#m75042c6c71" y="198.542126"/>
      </g>
     </g>
    </g>
    <g id="xtick_41">
     <g id="line2d_101">
      <g>
       <use style="stroke:#000000;stroke-width:0.6;" x="500.301576" xlink:href="#m75042c6c71" y="198.542126"/>
      </g>
     </g>
    </g>
    <g id="xtick_42">
     <g id="line2d_102">
      <g>
       <use style="stroke:#000000;stroke-width:0.6;" x="509.242416" xlink:href="#m75042c6c71" y="198.542126"/>
      </g>
     </g>
    </g>
   </g>
   <g id="matplotlib.axis_4">
    <g id="ytick_22">
     <g id="line2d_103">
      <g>
       <use style="stroke:#000000;stroke-width:0.8;" x="339.366465" xlink:href="#m5cd6fd9839" y="198.542126"/>
      </g>
     </g>
    </g>
    <g id="ytick_23">
     <g id="line2d_104">
      <g>
       <use style="stroke:#000000;stroke-width:0.8;" x="339.366465" xlink:href="#m5cd6fd9839" y="162.778768"/>
      </g>
     </g>
     <g id="text_16">
      <!-- 0.2 -->
      <g transform="translate(316.46334 166.577987)scale(0.1 -0.1)">
       <use xlink:href="#DejaVuSans-30"/>
       <use x="63.623047" xlink:href="#DejaVuSans-2e"/>
       <use x="95.410156" xlink:href="#DejaVuSans-32"/>
      </g>
     </g>
    </g>
    <g id="ytick_24">
     <g id="line2d_105">
      <g>
       <use style="stroke:#000000;stroke-width:0.8;" x="339.366465" xlink:href="#m5cd6fd9839" y="127.01541"/>
      </g>
     </g>
     <g id="text_17">
      <!-- 0.4 -->
      <g transform="translate(316.46334 130.814629)scale(0.1 -0.1)">
       <use xlink:href="#DejaVuSans-30"/>
       <use x="63.623047" xlink:href="#DejaVuSans-2e"/>
       <use x="95.410156" xlink:href="#DejaVuSans-34"/>
      </g>
     </g>
    </g>
    <g id="ytick_25">
     <g id="line2d_106">
      <g>
       <use style="stroke:#000000;stroke-width:0.8;" x="339.366465" xlink:href="#m5cd6fd9839" y="91.252052"/>
      </g>
     </g>
     <g id="text_18">
      <!-- 0.6 -->
      <g transform="translate(316.46334 95.051271)scale(0.1 -0.1)">
       <use xlink:href="#DejaVuSans-30"/>
       <use x="63.623047" xlink:href="#DejaVuSans-2e"/>
       <use x="95.410156" xlink:href="#DejaVuSans-36"/>
      </g>
     </g>
    </g>
    <g id="ytick_26">
     <g id="line2d_107">
      <g>
       <use style="stroke:#000000;stroke-width:0.8;" x="339.366465" xlink:href="#m5cd6fd9839" y="55.488694"/>
      </g>
     </g>
     <g id="text_19">
      <!-- 0.8 -->
      <g transform="translate(316.46334 59.287913)scale(0.1 -0.1)">
       <use xlink:href="#DejaVuSans-30"/>
       <use x="63.623047" xlink:href="#DejaVuSans-2e"/>
       <use x="95.410156" xlink:href="#DejaVuSans-38"/>
      </g>
     </g>
    </g>
    <g id="ytick_27">
     <g id="line2d_108">
      <g>
       <use style="stroke:#000000;stroke-width:0.8;" x="339.366465" xlink:href="#m5cd6fd9839" y="19.725336"/>
      </g>
     </g>
     <g id="text_20">
      <!-- 1 -->
      <g transform="translate(326.003965 23.524555)scale(0.1 -0.1)">
       <use xlink:href="#DejaVuSans-31"/>
      </g>
     </g>
    </g>
    <g id="ytick_28">
     <g id="line2d_109">
      <g>
       <use style="stroke:#000000;stroke-width:0.6;" x="339.366465" xlink:href="#m33b394ffcf" y="189.601286"/>
      </g>
     </g>
    </g>
    <g id="ytick_29">
     <g id="line2d_110">
      <g>
       <use style="stroke:#000000;stroke-width:0.6;" x="339.366465" xlink:href="#m33b394ffcf" y="180.660447"/>
      </g>
     </g>
    </g>
    <g id="ytick_30">
     <g id="line2d_111">
      <g>
       <use style="stroke:#000000;stroke-width:0.6;" x="339.366465" xlink:href="#m33b394ffcf" y="171.719607"/>
      </g>
     </g>
    </g>
    <g id="ytick_31">
     <g id="line2d_112">
      <g>
       <use style="stroke:#000000;stroke-width:0.6;" x="339.366465" xlink:href="#m33b394ffcf" y="153.837928"/>
      </g>
     </g>
    </g>
    <g id="ytick_32">
     <g id="line2d_113">
      <g>
       <use style="stroke:#000000;stroke-width:0.6;" x="339.366465" xlink:href="#m33b394ffcf" y="144.897089"/>
      </g>
     </g>
    </g>
    <g id="ytick_33">
     <g id="line2d_114">
      <g>
       <use style="stroke:#000000;stroke-width:0.6;" x="339.366465" xlink:href="#m33b394ffcf" y="135.956249"/>
      </g>
     </g>
    </g>
    <g id="ytick_34">
     <g id="line2d_115">
      <g>
       <use style="stroke:#000000;stroke-width:0.6;" x="339.366465" xlink:href="#m33b394ffcf" y="118.07457"/>
      </g>
     </g>
    </g>
    <g id="ytick_35">
     <g id="line2d_116">
      <g>
       <use style="stroke:#000000;stroke-width:0.6;" x="339.366465" xlink:href="#m33b394ffcf" y="109.133731"/>
      </g>
     </g>
    </g>
    <g id="ytick_36">
     <g id="line2d_117">
      <g>
       <use style="stroke:#000000;stroke-width:0.6;" x="339.366465" xlink:href="#m33b394ffcf" y="100.192891"/>
      </g>
     </g>
    </g>
    <g id="ytick_37">
     <g id="line2d_118">
      <g>
       <use style="stroke:#000000;stroke-width:0.6;" x="339.366465" xlink:href="#m33b394ffcf" y="82.311212"/>
      </g>
     </g>
    </g>
    <g id="ytick_38">
     <g id="line2d_119">
      <g>
       <use style="stroke:#000000;stroke-width:0.6;" x="339.366465" xlink:href="#m33b394ffcf" y="73.370373"/>
      </g>
     </g>
    </g>
    <g id="ytick_39">
     <g id="line2d_120">
      <g>
       <use style="stroke:#000000;stroke-width:0.6;" x="339.366465" xlink:href="#m33b394ffcf" y="64.429533"/>
      </g>
     </g>
    </g>
    <g id="ytick_40">
     <g id="line2d_121">
      <g>
       <use style="stroke:#000000;stroke-width:0.6;" x="339.366465" xlink:href="#m33b394ffcf" y="46.547854"/>
      </g>
     </g>
    </g>
    <g id="ytick_41">
     <g id="line2d_122">
      <g>
       <use style="stroke:#000000;stroke-width:0.6;" x="339.366465" xlink:href="#m33b394ffcf" y="37.607015"/>
      </g>
     </g>
    </g>
    <g id="ytick_42">
     <g id="line2d_123">
      <g>
       <use style="stroke:#000000;stroke-width:0.6;" x="339.366465" xlink:href="#m33b394ffcf" y="28.666175"/>
      </g>
     </g>
    </g>
   </g>
   <g id="PathCollection_7">
    <defs>
     <path d="M 0 1.581139 
C 0.419323 1.581139 0.821528 1.41454 1.118034 1.118034 
C 1.41454 0.821528 1.581139 0.419323 1.581139 0 
C 1.581139 -0.419323 1.41454 -0.821528 1.118034 -1.118034 
C 0.821528 -1.41454 0.419323 -1.581139 0 -1.581139 
C -0.419323 -1.581139 -0.821528 -1.41454 -1.118034 -1.118034 
C -1.41454 -0.821528 -1.581139 -0.419323 -1.581139 0 
C -1.581139 0.419323 -1.41454 0.821528 -1.118034 1.118034 
C -0.821528 1.41454 -0.419323 1.581139 0 1.581139 
z
" id="C5_0_22173a42a9"/>
    </defs>
    <g clip-path="url(#pfa2a0e2818)">
     <use style="fill:#ff0000;fill-opacity:0.3;" x="339.366465" xlink:href="#C5_0_22173a42a9" y="198.542126"/>
    </g>
    <g clip-path="url(#pfa2a0e2818)">
     <use style="fill:#ff0000;fill-opacity:0.3;" x="398.972062" xlink:href="#C5_0_22173a42a9" y="198.542126"/>
    </g>
    <g clip-path="url(#pfa2a0e2818)">
     <use style="fill:#ff0000;fill-opacity:0.3;" x="384.070663" xlink:href="#C5_0_22173a42a9" y="153.837928"/>
    </g>
   </g>
   <g id="PathCollection_8">
    <defs>
     <path d="M 0 1.581139 
C 0.419323 1.581139 0.821528 1.41454 1.118034 1.118034 
C 1.41454 0.821528 1.581139 0.419323 1.581139 0 
C 1.581139 -0.419323 1.41454 -0.821528 1.118034 -1.118034 
C 0.821528 -1.41454 0.419323 -1.581139 0 -1.581139 
C -0.419323 -1.581139 -0.821528 -1.41454 -1.118034 -1.118034 
C -1.41454 -0.821528 -1.581139 -0.419323 -1.581139 0 
C -1.581139 0.419323 -1.41454 0.821528 -1.118034 1.118034 
C -0.821528 1.41454 -0.419323 1.581139 0 1.581139 
z
" id="C6_0_1aa06ee3be"/>
    </defs>
    <g clip-path="url(#pfa2a0e2818)">
     <use style="fill:#ff0000;fill-opacity:0.3;" x="339.366465" xlink:href="#C6_0_1aa06ee3be" y="19.725336"/>
    </g>
    <g clip-path="url(#pfa2a0e2818)">
     <use style="fill:#ff0000;fill-opacity:0.3;" x="428.77486" xlink:href="#C6_0_1aa06ee3be" y="109.133731"/>
    </g>
    <g clip-path="url(#pfa2a0e2818)">
     <use style="fill:#ff0000;fill-opacity:0.3;" x="398.972062" xlink:href="#C6_0_1aa06ee3be" y="19.725336"/>
    </g>
    <g clip-path="url(#pfa2a0e2818)">
     <use style="fill:#ff0000;fill-opacity:0.3;" x="384.070663" xlink:href="#C6_0_1aa06ee3be" y="153.837928"/>
    </g>
   </g>
   <g id="PathCollection_9">
    <defs>
     <path d="M 0 1.581139 
C 0.419323 1.581139 0.821528 1.41454 1.118034 1.118034 
C 1.41454 0.821528 1.581139 0.419323 1.581139 0 
C 1.581139 -0.419323 1.41454 -0.821528 1.118034 -1.118034 
C 0.821528 -1.41454 0.419323 -1.581139 0 -1.581139 
C -0.419323 -1.581139 -0.821528 -1.41454 -1.118034 -1.118034 
C -1.41454 -0.821528 -1.581139 -0.419323 -1.581139 0 
C -1.581139 0.419323 -1.41454 0.821528 -1.118034 1.118034 
C -0.821528 1.41454 -0.419323 1.581139 0 1.581139 
z
" id="C7_0_24a0ab1b05"/>
    </defs>
    <g clip-path="url(#pfa2a0e2818)">
     <use style="fill:#ff0000;fill-opacity:0.3;" x="339.366465" xlink:href="#C7_0_24a0ab1b05" y="198.542126"/>
    </g>
    <g clip-path="url(#pfa2a0e2818)">
     <use style="fill:#ff0000;fill-opacity:0.3;" x="384.070663" xlink:href="#C7_0_24a0ab1b05" y="153.837928"/>
    </g>
    <g clip-path="url(#pfa2a0e2818)">
     <use style="fill:#ff0000;fill-opacity:0.3;" x="339.366465" xlink:href="#C7_0_24a0ab1b05" y="138.936529"/>
    </g>
   </g>
   <g id="PathCollection_10">
    <defs>
     <path d="M 0 1.581139 
C 0.419323 1.581139 0.821528 1.41454 1.118034 1.118034 
C 1.41454 0.821528 1.581139 0.419323 1.581139 0 
C 1.581139 -0.419323 1.41454 -0.821528 1.118034 -1.118034 
C 0.821528 -1.41454 0.419323 -1.581139 0 -1.581139 
C -0.419323 -1.581139 -0.821528 -1.41454 -1.118034 -1.118034 
C -1.41454 -0.821528 -1.581139 -0.419323 -1.581139 0 
C -1.581139 0.419323 -1.41454 0.821528 -1.118034 1.118034 
C -0.821528 1.41454 -0.419323 1.581139 0 1.581139 
z
" id="C8_0_560c11403f"/>
    </defs>
    <g clip-path="url(#pfa2a0e2818)">
     <use style="fill:#ff0000;fill-opacity:0.3;" x="518.183255" xlink:href="#C8_0_560c11403f" y="198.542126"/>
    </g>
    <g clip-path="url(#pfa2a0e2818)">
     <use style="fill:#ff0000;fill-opacity:0.3;" x="518.183255" xlink:href="#C8_0_560c11403f" y="138.936529"/>
    </g>
    <g clip-path="url(#pfa2a0e2818)">
     <use style="fill:#ff0000;fill-opacity:0.3;" x="428.77486" xlink:href="#C8_0_560c11403f" y="109.133731"/>
    </g>
    <g clip-path="url(#pfa2a0e2818)">
     <use style="fill:#ff0000;fill-opacity:0.3;" x="384.070663" xlink:href="#C8_0_560c11403f" y="153.837928"/>
    </g>
   </g>
   <g id="PathCollection_11">
    <defs>
     <path d="M 0 1.581139 
C 0.419323 1.581139 0.821528 1.41454 1.118034 1.118034 
C 1.41454 0.821528 1.581139 0.419323 1.581139 0 
C 1.581139 -0.419323 1.41454 -0.821528 1.118034 -1.118034 
C 0.821528 -1.41454 0.419323 -1.581139 0 -1.581139 
C -0.419323 -1.581139 -0.821528 -1.41454 -1.118034 -1.118034 
C -1.41454 -0.821528 -1.581139 -0.419323 -1.581139 0 
C -1.581139 0.419323 -1.41454 0.821528 -1.118034 1.118034 
C -0.821528 1.41454 -0.419323 1.581139 0 1.581139 
z
" id="C9_0_da7d7e75fc"/>
    </defs>
    <g clip-path="url(#pfa2a0e2818)">
     <use style="fill:#ff0000;fill-opacity:0.3;" x="339.366465" xlink:href="#C9_0_da7d7e75fc" y="19.725336"/>
    </g>
    <g clip-path="url(#pfa2a0e2818)">
     <use style="fill:#ff0000;fill-opacity:0.3;" x="384.070663" xlink:href="#C9_0_da7d7e75fc" y="153.837928"/>
    </g>
    <g clip-path="url(#pfa2a0e2818)">
     <use style="fill:#ff0000;fill-opacity:0.3;" x="339.366465" xlink:href="#C9_0_da7d7e75fc" y="138.936529"/>
    </g>
   </g>
   <g id="PathCollection_12">
    <defs>
     <path d="M 0 1.581139 
C 0.419323 1.581139 0.821528 1.41454 1.118034 1.118034 
C 1.41454 0.821528 1.581139 0.419323 1.581139 0 
C 1.581139 -0.419323 1.41454 -0.821528 1.118034 -1.118034 
C 0.821528 -1.41454 0.419323 -1.581139 0 -1.581139 
C -0.419323 -1.581139 -0.821528 -1.41454 -1.118034 -1.118034 
C -1.41454 -0.821528 -1.581139 -0.419323 -1.581139 0 
C -1.581139 0.419323 -1.41454 0.821528 -1.118034 1.118034 
C -0.821528 1.41454 -0.419323 1.581139 0 1.581139 
z
" id="Ca_0_5e210ab801"/>
    </defs>
    <g clip-path="url(#pfa2a0e2818)">
     <use style="fill:#ff0000;fill-opacity:0.3;" x="518.183255" xlink:href="#Ca_0_5e210ab801" y="198.542126"/>
    </g>
    <g clip-path="url(#pfa2a0e2818)">
     <use style="fill:#ff0000;fill-opacity:0.3;" x="398.972062" xlink:href="#Ca_0_5e210ab801" y="198.542126"/>
    </g>
    <g clip-path="url(#pfa2a0e2818)">
     <use style="fill:#ff0000;fill-opacity:0.3;" x="384.070663" xlink:href="#Ca_0_5e210ab801" y="153.837928"/>
    </g>
   </g>
   <g id="PathCollection_13">
    <defs>
     <path d="M 0 1.581139 
C 0.419323 1.581139 0.821528 1.41454 1.118034 1.118034 
C 1.41454 0.821528 1.581139 0.419323 1.581139 0 
C 1.581139 -0.419323 1.41454 -0.821528 1.118034 -1.118034 
C 0.821528 -1.41454 0.419323 -1.581139 0 -1.581139 
C -0.419323 -1.581139 -0.821528 -1.41454 -1.118034 -1.118034 
C -1.41454 -0.821528 -1.581139 -0.419323 -1.581139 0 
C -1.581139 0.419323 -1.41454 0.821528 -1.118034 1.118034 
C -0.821528 1.41454 -0.419323 1.581139 0 1.581139 
z
" id="Cb_0_625a0508fa"/>
    </defs>
    <g clip-path="url(#pfa2a0e2818)">
     <use style="fill:#ff0000;fill-opacity:0.3;" x="518.183255" xlink:href="#Cb_0_625a0508fa" y="138.936529"/>
    </g>
    <g clip-path="url(#pfa2a0e2818)">
     <use style="fill:#ff0000;fill-opacity:0.3;" x="518.183255" xlink:href="#Cb_0_625a0508fa" y="19.725336"/>
    </g>
    <g clip-path="url(#pfa2a0e2818)">
     <use style="fill:#ff0000;fill-opacity:0.3;" x="398.972062" xlink:href="#Cb_0_625a0508fa" y="19.725336"/>
    </g>
    <g clip-path="url(#pfa2a0e2818)">
     <use style="fill:#ff0000;fill-opacity:0.3;" x="428.77486" xlink:href="#Cb_0_625a0508fa" y="109.133731"/>
    </g>
   </g>
   <g id="patch_17">
    <path d="M 339.366465 202.118462 
L 339.366465 16.149 
" style="fill:none;stroke:#000000;stroke-linecap:square;stroke-linejoin:miter;stroke-width:0.8;"/>
   </g>
   <g id="patch_18">
    <path d="M 335.790129 198.542126 
L 521.759591 198.542126 
" style="fill:none;stroke:#000000;stroke-linecap:square;stroke-linejoin:miter;stroke-width:0.8;"/>
   </g>
   <g id="text_21">
    <!-- $f=\left(\frac{1}{2}, \frac{1}{2}\right),\quad \mathrm{vol}_{\mathbb{T}^{2}} \bar{R}(f)/\mathbb{Z}^{2} = 1$ -->
    <defs>
     <path d="M 24.421875 0 
L 9.8125 36.71875 
Q 8.890625 38.578125 6.953125 39.078125 
Q 5.03125 39.59375 1.90625 39.59375 
L 1.90625 43.109375 
L 22.90625 43.109375 
L 22.90625 39.59375 
Q 17.28125 39.59375 17.28125 37.203125 
Q 17.28125 36.8125 17.390625 36.625 
L 28.609375 8.40625 
L 38.71875 33.890625 
Q 39.015625 34.671875 39.015625 35.5 
Q 39.015625 37.40625 37.578125 38.5 
Q 36.140625 39.59375 34.1875 39.59375 
L 34.1875 43.109375 
L 50.78125 43.109375 
L 50.78125 39.59375 
Q 47.703125 39.59375 45.375 38.171875 
Q 43.0625 36.765625 41.796875 33.984375 
L 28.328125 0 
Q 27.9375 -1.125 26.703125 -1.125 
L 25.984375 -1.125 
Q 24.75 -1.125 24.421875 0 
z
" id="Cmr10-76"/>
     <path d="M 25 -1.125 
Q 19 -1.125 13.859375 1.921875 
Q 8.734375 4.984375 5.75 10.109375 
Q 2.78125 15.234375 2.78125 21.296875 
Q 2.78125 25.875 4.421875 30.125 
Q 6.0625 34.375 9.109375 37.71875 
Q 12.15625 41.0625 16.203125 42.9375 
Q 20.265625 44.828125 25 44.828125 
Q 31.15625 44.828125 36.203125 41.578125 
Q 41.265625 38.328125 44.1875 32.875 
Q 47.125 27.4375 47.125 21.296875 
Q 47.125 15.28125 44.140625 10.125 
Q 41.15625 4.984375 36.046875 1.921875 
Q 30.953125 -1.125 25 -1.125 
z
M 25 1.8125 
Q 33.015625 1.8125 35.6875 7.609375 
Q 38.375 13.421875 38.375 22.40625 
Q 38.375 27.4375 37.84375 30.734375 
Q 37.3125 34.03125 35.5 36.71875 
Q 34.375 38.375 32.640625 39.625 
Q 30.90625 40.875 28.96875 41.53125 
Q 27.046875 42.1875 25 42.1875 
Q 21.875 42.1875 19.0625 40.765625 
Q 16.265625 39.359375 14.40625 36.71875 
Q 12.546875 33.890625 12.03125 30.484375 
Q 11.53125 27.09375 11.53125 22.40625 
Q 11.53125 16.796875 12.5 12.328125 
Q 13.484375 7.859375 16.4375 4.828125 
Q 19.390625 1.8125 25 1.8125 
z
" id="Cmr10-6f"/>
     <path d="M 3.078125 0 
L 3.078125 3.515625 
Q 6.5 3.515625 8.6875 4.046875 
Q 10.890625 4.59375 10.890625 6.6875 
L 10.890625 59.1875 
Q 10.890625 61.859375 10.078125 63.0625 
Q 9.28125 64.265625 7.765625 64.53125 
Q 6.25 64.796875 3.078125 64.796875 
L 3.078125 68.3125 
L 17.921875 69.390625 
L 17.921875 6.6875 
Q 17.921875 4.59375 20.109375 4.046875 
Q 22.3125 3.515625 25.6875 3.515625 
L 25.6875 0 
z
" id="Cmr10-6c"/>
     <path d="M 68.203125 65.296875 
L 67.203125 61.59375 
L 43.203125 61.59375 
L 26.90625 0 
L 11.5 0 
L 28 61.59375 
L 3 61.59375 
L 4 65.296875 
z
M 39.296875 60.5 
L 31.5 60.5 
L 16.296875 3.703125 
L 24.09375 3.703125 
z
" id="STIXNonUnicode-Italic-e160"/>
     <path d="M 6.890625 55.515625 
L 6.890625 58.984375 
L 43.015625 58.984375 
L 43.015625 55.515625 
z
" id="Cmr10-b9"/>
     <path d="M 4.890625 0 
Q 3.90625 0 3.90625 1.3125 
Q 3.953125 1.5625 4.09375 2.171875 
Q 4.25 2.78125 4.515625 3.140625 
Q 4.78125 3.515625 5.171875 3.515625 
Q 11.28125 3.515625 13.71875 4.203125 
Q 14.984375 4.640625 15.578125 6.890625 
L 29.296875 61.8125 
Q 29.5 62.796875 29.5 63.1875 
Q 29.5 64.265625 28.328125 64.40625 
Q 26.421875 64.796875 21.09375 64.796875 
Q 20.125 64.796875 20.125 66.109375 
Q 20.171875 66.359375 20.3125 66.96875 
Q 20.453125 67.578125 20.71875 67.9375 
Q 21 68.3125 21.390625 68.3125 
L 51.703125 68.3125 
Q 55.328125 68.3125 59.234375 67.484375 
Q 63.140625 66.65625 66.40625 64.875 
Q 69.671875 63.09375 71.765625 60.125 
Q 73.875 57.171875 73.875 53.21875 
Q 73.875 48.1875 70.546875 44.234375 
Q 67.234375 40.28125 62.15625 37.625 
Q 57.078125 34.96875 52.296875 33.890625 
Q 56.203125 32.46875 58.6875 29.359375 
Q 61.1875 26.265625 61.1875 22.21875 
Q 61.1875 21.6875 61.15625 21.40625 
Q 61.140625 21.140625 61.078125 20.796875 
L 60.296875 11.921875 
Q 60.203125 9.96875 60.109375 8.59375 
Q 60.015625 7.234375 60.015625 6.390625 
Q 60.015625 3.65625 60.8125 2.015625 
Q 61.625 0.390625 64.015625 0.390625 
Q 67.140625 0.390625 69.5 3.296875 
Q 71.875 6.203125 72.609375 9.625 
Q 73.046875 10.5 73.578125 10.5 
L 74.515625 10.5 
Q 75.484375 10.5 75.484375 9.1875 
Q 74.75 6.296875 73.15625 3.703125 
Q 71.578125 1.125 69.15625 -0.53125 
Q 66.75 -2.203125 63.921875 -2.203125 
Q 58.0625 -2.203125 53.9375 0.40625 
Q 49.8125 3.03125 49.8125 8.59375 
Q 49.8125 10.6875 50.203125 12.3125 
L 52.390625 21.1875 
Q 52.78125 22.40625 52.78125 24.03125 
Q 52.78125 28.171875 49.96875 30.53125 
Q 47.171875 32.90625 42.921875 32.90625 
L 30.609375 32.90625 
L 24.03125 6.5 
Q 23.78125 5.671875 23.78125 5.078125 
Q 23.78125 4.046875 25 3.90625 
Q 26.90625 3.515625 32.171875 3.515625 
Q 33.203125 3.515625 33.203125 2.203125 
Q 32.859375 0.78125 32.65625 0.390625 
Q 32.46875 0 31.5 0 
z
M 31.203125 35.5 
L 42.28125 35.5 
Q 53.171875 35.5 58.6875 41.015625 
Q 61.234375 43.5625 62.71875 47.484375 
Q 64.203125 51.421875 64.203125 55.328125 
Q 64.203125 59.03125 62.03125 61.125 
Q 59.859375 63.234375 56.65625 64.015625 
Q 53.46875 64.796875 49.609375 64.796875 
L 42.921875 64.796875 
Q 40.1875 64.796875 39.296875 64.328125 
Q 38.421875 63.875 37.703125 61.375 
z
" id="Cmmi10-52"/>
     <path d="M 31 -24.8125 
Q 25.4375 -20.40625 21.40625 -14.71875 
Q 17.390625 -9.03125 14.8125 -2.578125 
Q 12.25 3.859375 10.984375 10.890625 
Q 9.71875 17.921875 9.71875 25 
Q 9.71875 32.171875 10.984375 39.203125 
Q 12.25 46.234375 14.859375 52.734375 
Q 17.484375 59.234375 21.53125 64.890625 
Q 25.59375 70.5625 31 74.8125 
Q 31 75 31.5 75 
L 32.421875 75 
Q 32.71875 75 32.953125 74.734375 
Q 33.203125 74.46875 33.203125 74.125 
Q 33.203125 73.6875 33.015625 73.484375 
Q 28.125 68.703125 24.875 63.234375 
Q 21.625 57.765625 19.640625 51.578125 
Q 17.671875 45.40625 16.796875 38.78125 
Q 15.921875 32.171875 15.921875 25 
Q 15.921875 -6.78125 32.90625 -23.296875 
Q 33.203125 -23.578125 33.203125 -24.125 
Q 33.203125 -24.359375 32.9375 -24.671875 
Q 32.671875 -25 32.421875 -25 
L 31.5 -25 
Q 31 -25 31 -24.8125 
z
" id="Cmr10-28"/>
     <path d="M 6.5 -25 
Q 5.609375 -25 5.609375 -24.125 
Q 5.609375 -23.6875 5.8125 -23.484375 
Q 22.90625 -6.78125 22.90625 25 
Q 22.90625 56.78125 6 73.296875 
Q 5.609375 73.53125 5.609375 74.125 
Q 5.609375 74.46875 5.875 74.734375 
Q 6.15625 75 6.5 75 
L 7.421875 75 
Q 7.71875 75 7.90625 74.8125 
Q 15.09375 69.140625 19.875 61.03125 
Q 24.65625 52.9375 26.875 43.75 
Q 29.109375 34.578125 29.109375 25 
Q 29.109375 17.921875 27.90625 11.0625 
Q 26.703125 4.203125 24.09375 -2.453125 
Q 21.484375 -9.125 17.484375 -14.765625 
Q 13.484375 -20.40625 7.90625 -24.8125 
Q 7.71875 -25 7.421875 -25 
z
" id="Cmr10-29"/>
     <path d="M 5.609375 -23 
Q 5.609375 -22.703125 5.71875 -22.609375 
L 40.484375 73.78125 
Q 40.671875 74.359375 41.15625 74.671875 
Q 41.65625 75 42.28125 75 
Q 43.171875 75 43.71875 74.453125 
Q 44.28125 73.921875 44.28125 73 
L 44.28125 72.609375 
L 9.515625 -23.78125 
Q 8.9375 -25 7.625 -25 
Q 6.78125 -25 6.1875 -24.40625 
Q 5.609375 -23.828125 5.609375 -23 
z
" id="Cmmi10-3d"/>
     <path d="M 75 61.59375 
L 21.59375 4 
L 21.59375 3.703125 
L 64.5 3.703125 
L 63.59375 0 
L 0.703125 0 
L 0.703125 3.703125 
L 54.59375 61.40625 
L 54.59375 61.59375 
L 14.203125 61.59375 
L 15.09375 65.296875 
L 75 65.296875 
z
M 69.796875 61.59375 
L 59.796875 61.59375 
L 6.09375 3.703125 
L 16.40625 3.703125 
z
" id="STIXGeneral-Italic-2124"/>
    </defs>
    <g transform="translate(364.82486 10.149)scale(0.1 -0.1)">
     <use transform="translate(0 0.109375)" xlink:href="#Cmmi10-66"/>
     <use transform="translate(66.435547 0.109375)" xlink:href="#Cmr10-3d"/>
     <use transform="translate(161.679688 80.076562)scale(1.038202)" xlink:href="#Cmex10-a1"/>
     <use transform="translate(209.226624 37.609375)scale(0.7)" xlink:href="#Cmr10-31"/>
     <use transform="translate(209.226624 -40.267187)scale(0.7)" xlink:href="#Cmr10-32"/>
     <use transform="translate(256.726624 0.109375)" xlink:href="#Cmmi10-3b"/>
     <use transform="translate(301.970764 37.609375)scale(0.7)" xlink:href="#Cmr10-31"/>
     <use transform="translate(301.970764 -40.267187)scale(0.7)" xlink:href="#Cmr10-32"/>
     <use transform="translate(349.470764 80.076562)scale(1.038202)" xlink:href="#Cmex10-a2"/>
     <use transform="translate(397.0177 0.109375)" xlink:href="#Cmmi10-3b"/>
     <use transform="translate(530.05481 0.109375)" xlink:href="#Cmr10-76"/>
     <use transform="translate(582.740356 0.109375)" xlink:href="#Cmr10-6f"/>
     <use transform="translate(632.740356 0.109375)" xlink:href="#Cmr10-6c"/>
     <use transform="translate(664.890044 -16.896875)scale(0.7)" xlink:href="#STIXNonUnicode-Italic-e160"/>
     <use transform="translate(700.424934 9.887969)scale(0.49)" xlink:href="#Cmr10-32"/>
     <use transform="translate(757.84552 25.40625)" xlink:href="#Cmr10-b9"/>
     <use transform="translate(735.766418 0.109375)" xlink:href="#Cmmi10-52"/>
     <use transform="translate(811.645324 0.109375)" xlink:href="#Cmr10-28"/>
     <use transform="translate(850.463684 0.109375)" xlink:href="#Cmmi10-66"/>
     <use transform="translate(899.340637 0.109375)" xlink:href="#Cmr10-29"/>
     <use transform="translate(938.158996 0.109375)" xlink:href="#Cmmi10-3d"/>
     <use transform="translate(988.158996 0.109375)" xlink:href="#STIXGeneral-Italic-2124"/>
     <use transform="translate(1074.29524 38.373438)scale(0.7)" xlink:href="#Cmr10-32"/>
     <use transform="translate(1133.231178 0.109375)" xlink:href="#Cmr10-3d"/>
     <use transform="translate(1228.475318 0.109375)" xlink:href="#Cmr10-31"/>
     <path d="M 209.226624 12.609375 
L 209.226624 18.859375 
L 244.226624 18.859375 
L 244.226624 12.609375 
L 209.226624 12.609375 
z
"/>
     <path d="M 301.970764 12.609375 
L 301.970764 18.859375 
L 336.970764 18.859375 
L 336.970764 12.609375 
L 301.970764 12.609375 
z
"/>
    </g>
   </g>
  </g>
 </g>
 <defs>
  <clipPath id="pd013dd8a1c">
   <rect height="185.969462" width="185.969462" x="55.677402" y="16.149"/>
  </clipPath>
  <clipPath id="pfa2a0e2818">
   <rect height="185.969462" width="185.969462" x="335.790129" y="16.149"/>
  </clipPath>
 </defs>
</svg>
