<?xml version="1.0" encoding="utf-8" standalone="no"?>
<!DOCTYPE svg PUBLIC "-//W3C//DTD SVG 1.1//EN"
  "http://www.w3.org/Graphics/SVG/1.1/DTD/svg11.dtd">
<!-- Created with matplotlib (http://matplotlib.org/) -->
<svg height="108pt" version="1.1" viewBox="0 0 576 108" width="576pt" xmlns="http://www.w3.org/2000/svg" xmlns:xlink="http://www.w3.org/1999/xlink">
 <defs>
  <style type="text/css">
*{stroke-linecap:butt;stroke-linejoin:round;}
  </style>
 </defs>
 <g id="figure_1">
  <g id="patch_1">
   <path d="M 0 108 
L 576 108 
L 576 0 
L 0 0 
z
" style="fill:#ffffff;"/>
  </g>
  <g id="axes_1">
   <g id="patch_2">
    <path d="M 8.756652 91.079231 
L 285.48 91.079231 
L 285.48 2.52 
L 8.756652 2.52 
z
" style="fill:#ffffff;"/>
   </g>
   <g id="line2d_1">
    <path clip-path="url(#p9e2b49dc2e)" d="M 226.942369 4.223062 
L 280.158397 89.376169 
L 280.158397 89.376169 
" style="fill:none;stroke:#ff0000;stroke-linecap:square;"/>
   </g>
   <g id="line2d_2">
    <path clip-path="url(#p9e2b49dc2e)" d="M 14.078255 89.376169 
L 226.942369 4.223062 
L 226.942369 4.223062 
" style="fill:none;stroke:#00ffff;stroke-linecap:square;"/>
   </g>
   <g id="matplotlib.axis_1">
    <g id="xtick_1">
     <g id="line2d_3">
      <path clip-path="url(#p9e2b49dc2e)" d="M 14.078255 91.079231 
L 14.078255 2.52 
" style="fill:none;stroke:#000000;stroke-dasharray:0.5,0.825;stroke-dashoffset:0;stroke-width:0.5;"/>
     </g>
     <g id="line2d_4">
      <defs>
       <path d="M 0 0 
L 0 3.5 
" id="mfffc973bb3" style="stroke:#000000;stroke-width:0.8;"/>
      </defs>
      <g>
       <use style="stroke:#000000;stroke-width:0.8;" x="14.078255" xlink:href="#mfffc973bb3" y="89.376169"/>
      </g>
     </g>
    </g>
    <g id="xtick_2">
     <g id="line2d_5">
      <path clip-path="url(#p9e2b49dc2e)" d="M 226.942369 91.079231 
L 226.942369 2.52 
" style="fill:none;stroke:#000000;stroke-dasharray:0.5,0.825;stroke-dashoffset:0;stroke-width:0.5;"/>
     </g>
     <g id="line2d_6">
      <g>
       <use style="stroke:#000000;stroke-width:0.8;" x="226.942369" xlink:href="#mfffc973bb3" y="89.376169"/>
      </g>
     </g>
     <g id="text_1">
      <!-- $f$ -->
      <defs>
       <path d="M 9.71875 -16.5 
Q 11.578125 -17.921875 14.203125 -17.921875 
Q 17.78125 -17.921875 20.015625 -10.015625 
Q 20.953125 -6.203125 25.09375 15.09375 
L 29.6875 39.59375 
L 21.09375 39.59375 
Q 20.125 39.59375 20.125 40.921875 
Q 20.515625 43.109375 21.390625 43.109375 
L 30.328125 43.109375 
L 31.5 49.609375 
Q 32.078125 52.640625 32.5625 54.8125 
Q 33.0625 56.984375 33.625 58.828125 
Q 34.1875 60.6875 35.296875 62.984375 
Q 37.015625 66.265625 39.921875 68.390625 
Q 42.828125 70.515625 46.1875 70.515625 
Q 48.390625 70.515625 50.46875 69.703125 
Q 52.546875 68.890625 53.859375 67.28125 
Q 55.171875 65.671875 55.171875 63.484375 
Q 55.171875 60.9375 53.484375 59.046875 
Q 51.8125 57.171875 49.421875 57.171875 
Q 47.796875 57.171875 46.65625 58.171875 
Q 45.515625 59.1875 45.515625 60.796875 
Q 45.515625 62.984375 47 64.625 
Q 48.484375 66.265625 50.6875 66.5 
Q 48.828125 67.921875 46.09375 67.921875 
Q 44.578125 67.921875 43.234375 66.5 
Q 41.890625 65.09375 41.5 63.484375 
Q 40.875 60.9375 38.71875 49.703125 
L 37.5 43.109375 
L 47.796875 43.109375 
Q 48.78125 43.109375 48.78125 41.796875 
Q 48.734375 41.546875 48.578125 40.9375 
Q 48.4375 40.328125 48.171875 39.953125 
Q 47.90625 39.59375 47.515625 39.59375 
L 36.8125 39.59375 
L 32.171875 15.1875 
Q 31.296875 9.859375 30.140625 4.359375 
Q 29 -1.125 26.921875 -6.90625 
Q 24.859375 -12.703125 21.625 -16.609375 
Q 18.40625 -20.515625 14.015625 -20.515625 
Q 10.640625 -20.515625 7.984375 -18.578125 
Q 5.328125 -16.65625 5.328125 -13.484375 
Q 5.328125 -10.9375 6.953125 -9.046875 
Q 8.59375 -7.171875 11.078125 -7.171875 
Q 12.75 -7.171875 13.859375 -8.171875 
Q 14.984375 -9.1875 14.984375 -10.796875 
Q 14.984375 -12.9375 13.390625 -14.71875 
Q 11.8125 -16.5 9.71875 -16.5 
z
" id="Cmmi10-66"/>
      </defs>
      <g transform="translate(224.492369 103.954294)scale(0.1 -0.1)">
       <use transform="translate(0 0.484375)" xlink:href="#Cmmi10-66"/>
      </g>
     </g>
    </g>
    <g id="xtick_3">
     <g id="line2d_7">
      <path clip-path="url(#p9e2b49dc2e)" d="M 280.158397 91.079231 
L 280.158397 2.52 
" style="fill:none;stroke:#000000;stroke-dasharray:0.5,0.825;stroke-dashoffset:0;stroke-width:0.5;"/>
     </g>
     <g id="line2d_8">
      <g>
       <use style="stroke:#000000;stroke-width:0.8;" x="280.158397" xlink:href="#mfffc973bb3" y="89.376169"/>
      </g>
     </g>
     <g id="text_2">
      <!-- $1$ -->
      <defs>
       <path d="M 9.28125 0 
L 9.28125 3.515625 
Q 21.78125 3.515625 21.78125 6.6875 
L 21.78125 59.1875 
Q 16.609375 56.6875 8.6875 56.6875 
L 8.6875 60.203125 
Q 20.953125 60.203125 27.203125 66.609375 
L 28.609375 66.609375 
Q 28.953125 66.609375 29.265625 66.328125 
Q 29.59375 66.0625 29.59375 65.71875 
L 29.59375 6.6875 
Q 29.59375 3.515625 42.09375 3.515625 
L 42.09375 0 
z
" id="Cmr10-31"/>
      </defs>
      <g transform="translate(277.658397 103.974606)scale(0.1 -0.1)">
       <use transform="translate(0 0.390625)" xlink:href="#Cmr10-31"/>
      </g>
     </g>
    </g>
   </g>
   <g id="matplotlib.axis_2">
    <g id="ytick_1">
     <g id="line2d_9">
      <path clip-path="url(#p9e2b49dc2e)" d="M 8.756652 89.376169 
L 285.48 89.376169 
" style="fill:none;stroke:#000000;stroke-dasharray:0.5,0.825;stroke-dashoffset:0;stroke-width:0.5;"/>
     </g>
     <g id="line2d_10">
      <defs>
       <path d="M 0 0 
L -3.5 0 
" id="mdb5b1b8fa6" style="stroke:#000000;stroke-width:0.8;"/>
      </defs>
      <g>
       <use style="stroke:#000000;stroke-width:0.8;" x="14.078255" xlink:href="#mdb5b1b8fa6" y="89.376169"/>
      </g>
     </g>
    </g>
    <g id="ytick_2">
     <g id="line2d_11">
      <path clip-path="url(#p9e2b49dc2e)" d="M 8.756652 4.223062 
L 285.48 4.223062 
" style="fill:none;stroke:#000000;stroke-dasharray:0.5,0.825;stroke-dashoffset:0;stroke-width:0.5;"/>
     </g>
     <g id="line2d_12">
      <g>
       <use style="stroke:#000000;stroke-width:0.8;" x="14.078255" xlink:href="#mdb5b1b8fa6" y="4.223062"/>
      </g>
     </g>
     <g id="text_3">
      <!-- $1$ -->
      <g transform="translate(2.078255 8.022281)scale(0.1 -0.1)">
       <use transform="translate(0 0.390625)" xlink:href="#Cmr10-31"/>
      </g>
     </g>
    </g>
   </g>
   <g id="patch_3">
    <path d="M 14.078255 91.079231 
L 14.078255 2.52 
" style="fill:none;stroke:#000000;stroke-linecap:square;stroke-linejoin:miter;stroke-width:0.8;"/>
   </g>
   <g id="patch_4">
    <path d="M 8.756652 89.376169 
L 285.48 89.376169 
" style="fill:none;stroke:#000000;stroke-linecap:square;stroke-linejoin:miter;stroke-width:0.8;"/>
   </g>
  </g>
  <g id="axes_2">
   <g id="patch_5">
    <path d="M 296.756652 91.079231 
L 573.48 91.079231 
L 573.48 2.52 
L 296.756652 2.52 
z
" style="fill:#ffffff;"/>
   </g>
   <g id="line2d_13">
    <path clip-path="url(#p2a5f89afca)" d="M 373.03296 4.223062 
L 390.771636 89.376169 
L 390.771636 89.376169 
" style="fill:none;stroke:#ff0000;stroke-linecap:square;"/>
   </g>
   <g id="line2d_14">
    <path clip-path="url(#p2a5f89afca)" d="M 461.72634 4.223062 
L 479.465016 89.376169 
L 479.465016 89.376169 
" style="fill:none;stroke:#ff0000;stroke-linecap:square;"/>
   </g>
   <g id="line2d_15">
    <path clip-path="url(#p2a5f89afca)" d="M 550.419721 4.223062 
L 568.158397 89.376169 
L 568.158397 89.376169 
" style="fill:none;stroke:#ff0000;stroke-linecap:square;"/>
   </g>
   <g id="line2d_16">
    <path clip-path="url(#p2a5f89afca)" d="M 302.078255 89.376169 
L 373.03296 4.223062 
L 373.03296 4.223062 
" style="fill:none;stroke:#00ffff;stroke-linecap:square;"/>
   </g>
   <g id="line2d_17">
    <path clip-path="url(#p2a5f89afca)" d="M 390.771636 89.376169 
L 461.72634 4.223062 
L 461.72634 4.223062 
" style="fill:none;stroke:#00ffff;stroke-linecap:square;"/>
   </g>
   <g id="line2d_18">
    <path clip-path="url(#p2a5f89afca)" d="M 479.465016 89.376169 
L 479.797971 88.976588 
L 480.172756 88.526807 
L 480.67413 87.925105 
L 480.894159 87.661047 
L 481.085752 87.431116 
L 481.663483 86.737778 
L 481.849198 86.5149 
L 482.239944 86.045963 
L 482.560328 85.661469 
L 482.932079 85.215329 
L 483.3064 84.766104 
L 483.629547 84.378294 
L 484.241802 83.643524 
L 484.342149 83.523097 
L 484.927341 82.820805 
L 485.053538 82.669355 
L 485.393961 82.260812 
L 485.877168 81.680912 
L 486.202991 81.289891 
L 486.596818 80.817257 
L 486.87933 80.478213 
L 487.252189 80.030743 
L 487.624858 79.5835 
L 488.045708 79.078437 
L 488.449345 78.594029 
L 488.6548 78.347462 
L 489.052415 77.870282 
L 489.402897 77.449667 
L 489.92423 76.824013 
L 490.133418 76.572965 
L 490.469054 76.170167 
L 490.960065 75.580902 
L 491.17213 75.326401 
L 491.688111 74.707169 
L 491.914233 74.435799 
L 492.468648 73.770443 
L 492.489569 73.745337 
L 493.160091 72.940639 
L 493.464553 72.575253 
L 493.857621 72.103529 
L 494.019981 71.90868 
L 494.267115 71.612094 
L 494.869259 70.889457 
L 495.054002 70.667746 
L 495.458451 70.182366 
L 495.90936 69.641227 
L 496.361691 69.098382 
L 496.429797 69.016648 
L 496.900191 68.452126 
L 497.319231 67.949233 
L 497.580395 67.635809 
L 498.035332 67.089837 
L 498.251707 66.830164 
L 498.651074 66.350882 
L 498.909182 66.041125 
L 499.272691 65.604876 
L 499.691377 65.102409 
L 500.251439 64.430276 
L 500.562386 64.057107 
L 501.011476 63.518151 
L 501.277398 63.199018 
L 501.578706 62.837416 
L 502.011798 62.31766 
L 502.152633 62.148643 
L 502.767485 61.410756 
L 503.110334 60.999302 
L 503.447454 60.594721 
L 503.817327 60.150835 
L 503.909457 60.04027 
L 504.581101 59.234226 
L 504.731686 59.053508 
L 505.038017 58.685879 
L 505.383303 58.2715 
L 505.865706 57.692565 
L 506.083127 57.431637 
L 506.485279 56.949012 
L 507.005522 56.324666 
L 507.378575 55.876963 
L 507.648689 55.552798 
L 507.835151 55.329024 
L 508.391097 54.66183 
L 508.696914 54.294817 
L 508.972268 53.964364 
L 509.557241 53.262335 
L 509.874397 52.881714 
L 510.127094 52.578451 
L 510.334261 52.329829 
L 510.666079 51.931613 
L 511.102596 51.407746 
L 511.428404 51.016743 
L 512.082533 50.231719 
L 512.291794 49.980583 
L 512.710485 49.478111 
L 512.980946 49.153529 
L 513.342689 48.719399 
L 513.710773 48.27766 
L 514.132192 47.771912 
L 514.486165 47.347108 
L 514.865601 46.891744 
L 515.150988 46.549251 
L 515.302255 46.367715 
L 515.668724 45.927912 
L 516.278865 45.19568 
L 516.47323 44.962421 
L 516.851245 44.508763 
L 517.307943 43.960677 
L 517.613013 43.594561 
L 517.974679 43.160524 
L 518.412953 42.63455 
L 518.740248 42.241761 
L 519.175845 41.718999 
L 519.38746 41.465038 
L 519.789112 40.983014 
L 520.075592 40.639207 
" style="fill:none;stroke:#00ffff;stroke-linecap:square;"/>
   </g>
   <g id="line2d_19">
    <path clip-path="url(#p2a5f89afca)" d="M 521.194353 39.296577 
L 521.609612 38.798222 
L 521.991085 38.340415 
L 522.245592 38.03498 
L 522.678932 37.514926 
L 523.008605 37.119284 
L 523.233889 36.848919 
L 523.509487 36.518172 
L 523.981119 35.952165 
L 524.385589 35.466758 
L 524.591097 35.220127 
L 524.940233 34.801127 
L 525.348231 34.311486 
L 525.820205 33.745068 
L 526.330923 33.132153 
L 526.577605 32.836109 
L 526.920408 32.424709 
L 527.219415 32.065869 
L 527.552717 31.665872 
L 527.949785 31.189348 
L 528.190846 30.900049 
L 528.696075 30.293722 
L 528.899795 30.049236 
L 529.247124 29.632405 
L 529.729023 29.054076 
L 530.235285 28.446508 
L 530.503522 28.124595 
L 530.980235 27.552489 
L 531.136593 27.364844 
L 531.569513 26.845294 
L 532.045901 26.273579 
L 532.305595 25.961918 
L 532.437425 25.803708 
L 532.923719 25.220105 
L 533.404759 24.642805 
L 533.673658 24.320099 
L 534.13262 23.769296 
L 534.551424 23.266687 
L 534.628539 23.17414 
L 534.951984 22.785973 
L 535.59856 22.010014 
L 535.663586 21.931976 
L 536.150423 21.34772 
L 536.411461 21.034447 
L 536.985464 20.345584 
L 537.293503 19.975904 
L 537.534807 19.686314 
L 538.034904 19.086145 
L 538.286202 18.784561 
L 538.478442 18.553852 
L 538.943456 17.995786 
L 539.439515 17.400464 
L 539.643048 17.156203 
L 539.916373 16.828184 
L 540.553674 16.063356 
L 540.843024 15.716106 
L 541.282821 15.188303 
L 541.394297 15.05452 
L 541.97051 14.363004 
L 542.115322 14.189214 
L 542.500191 13.727331 
L 543.080541 13.03085 
L 543.190073 12.8994 
L 543.527028 12.495018 
L 544.102245 11.804698 
L 544.331485 11.529586 
L 544.630184 11.171115 
L 545.162166 10.53268 
L 545.354966 10.3013 
L 545.914971 9.629236 
L 546.249413 9.22787 
L 546.530543 8.890485 
L 546.912694 8.431863 
L 547.266442 8.007328 
L 547.626347 7.575405 
L 547.959677 7.175374 
L 548.356184 6.699523 
L 548.732602 6.247783 
L 548.90533 6.040491 
L 549.319183 5.543823 
L 549.547155 5.270233 
L 550.032048 4.68831 
L 550.419721 4.223062 
" style="fill:none;stroke:#00ffff;stroke-linecap:square;"/>
   </g>
   <g id="matplotlib.axis_3">
    <g id="xtick_4">
     <g id="line2d_20">
      <path clip-path="url(#p2a5f89afca)" d="M 302.078255 91.079231 
L 302.078255 2.52 
" style="fill:none;stroke:#000000;stroke-dasharray:0.5,0.825;stroke-dashoffset:0;stroke-width:0.5;"/>
     </g>
     <g id="line2d_21">
      <g>
       <use style="stroke:#000000;stroke-width:0.8;" x="302.078255" xlink:href="#mfffc973bb3" y="89.376169"/>
      </g>
     </g>
    </g>
    <g id="xtick_5">
     <g id="line2d_22">
      <path clip-path="url(#p2a5f89afca)" d="M 373.03296 91.079231 
L 373.03296 2.52 
" style="fill:none;stroke:#000000;stroke-dasharray:0.5,0.825;stroke-dashoffset:0;stroke-width:0.5;"/>
     </g>
     <g id="line2d_23">
      <g>
       <use style="stroke:#000000;stroke-width:0.8;" x="373.03296" xlink:href="#mfffc973bb3" y="89.376169"/>
      </g>
     </g>
     <g id="text_4">
      <!-- $f$ -->
      <g transform="translate(370.58296 103.954294)scale(0.1 -0.1)">
       <use transform="translate(0 0.484375)" xlink:href="#Cmmi10-66"/>
      </g>
     </g>
    </g>
    <g id="xtick_6">
     <g id="line2d_24">
      <path clip-path="url(#p2a5f89afca)" d="M 568.158397 91.079231 
L 568.158397 2.52 
" style="fill:none;stroke:#000000;stroke-dasharray:0.5,0.825;stroke-dashoffset:0;stroke-width:0.5;"/>
     </g>
     <g id="line2d_25">
      <g>
       <use style="stroke:#000000;stroke-width:0.8;" x="568.158397" xlink:href="#mfffc973bb3" y="89.376169"/>
      </g>
     </g>
     <g id="text_5">
      <!-- $1$ -->
      <g transform="translate(565.658397 103.974606)scale(0.1 -0.1)">
       <use transform="translate(0 0.390625)" xlink:href="#Cmr10-31"/>
      </g>
     </g>
    </g>
   </g>
   <g id="matplotlib.axis_4">
    <g id="ytick_3">
     <g id="line2d_26">
      <path clip-path="url(#p2a5f89afca)" d="M 296.756652 89.376169 
L 573.48 89.376169 
" style="fill:none;stroke:#000000;stroke-dasharray:0.5,0.825;stroke-dashoffset:0;stroke-width:0.5;"/>
     </g>
     <g id="line2d_27">
      <g>
       <use style="stroke:#000000;stroke-width:0.8;" x="302.078255" xlink:href="#mdb5b1b8fa6" y="89.376169"/>
      </g>
     </g>
    </g>
    <g id="ytick_4">
     <g id="line2d_28">
      <path clip-path="url(#p2a5f89afca)" d="M 296.756652 4.223062 
L 573.48 4.223062 
" style="fill:none;stroke:#000000;stroke-dasharray:0.5,0.825;stroke-dashoffset:0;stroke-width:0.5;"/>
     </g>
     <g id="line2d_29">
      <g>
       <use style="stroke:#000000;stroke-width:0.8;" x="302.078255" xlink:href="#mdb5b1b8fa6" y="4.223062"/>
      </g>
     </g>
     <g id="text_6">
      <!-- $1$ -->
      <g transform="translate(290.078255 8.022281)scale(0.1 -0.1)">
       <use transform="translate(0 0.390625)" xlink:href="#Cmr10-31"/>
      </g>
     </g>
    </g>
   </g>
   <g id="patch_6">
    <path d="M 302.078255 91.079231 
L 302.078255 2.52 
" style="fill:none;stroke:#000000;stroke-linecap:square;stroke-linejoin:miter;stroke-width:0.8;"/>
   </g>
   <g id="patch_7">
    <path d="M 296.756652 89.376169 
L 573.48 89.376169 
" style="fill:none;stroke:#000000;stroke-linecap:square;stroke-linejoin:miter;stroke-width:0.8;"/>
   </g>
  </g>
 </g>
 <defs>
  <clipPath id="p9e2b49dc2e">
   <rect height="88.559231" width="276.723348" x="8.756652" y="2.52"/>
  </clipPath>
  <clipPath id="p2a5f89afca">
   <rect height="88.559231" width="276.723348" x="296.756652" y="2.52"/>
  </clipPath>
 </defs>
</svg>
