<?xml version="1.0" encoding="utf-8" standalone="no"?>
<!DOCTYPE svg PUBLIC "-//W3C//DTD SVG 1.1//EN"
  "http://www.w3.org/Graphics/SVG/1.1/DTD/svg11.dtd">
<!-- Created with matplotlib (http://matplotlib.org/) -->
<svg height="108pt" version="1.1" viewBox="0 0 576 108" width="576pt" xmlns="http://www.w3.org/2000/svg" xmlns:xlink="http://www.w3.org/1999/xlink">
 <defs>
  <style type="text/css">
*{stroke-linecap:butt;stroke-linejoin:round;}
  </style>
 </defs>
 <g id="figure_1">
  <g id="patch_1">
   <path d="M 0 108 
L 576 108 
L 576 0 
L 0 0 
z
" style="fill:#ffffff;"/>
  </g>
  <g id="axes_1">
   <g id="patch_2">
    <path d="M 8.756652 91.079231 
L 285.48 91.079231 
L 285.48 2.52 
L 8.756652 2.52 
z
" style="fill:#ffffff;"/>
   </g>
   <g id="line2d_1">
    <path clip-path="url(#p58e0cc95db)" d="M 114.59742 23.145975 
L 232.855261 70.453256 
L 232.855261 70.453256 
" style="fill:none;stroke:#ff0000;stroke-linecap:square;"/>
   </g>
   <g id="line2d_2">
    <path clip-path="url(#p58e0cc95db)" d="M 67.294283 4.223062 
L 96.858744 51.530344 
L 96.858744 51.530344 
" style="fill:none;stroke:#00ff00;stroke-linecap:square;"/>
   </g>
   <g id="line2d_3">
    <path clip-path="url(#p58e0cc95db)" d="M 250.593937 42.068887 
L 280.158397 89.376169 
L 280.158397 89.376169 
" style="fill:none;stroke:#00ff00;stroke-linecap:square;"/>
   </g>
   <g id="line2d_4">
    <path clip-path="url(#p58e0cc95db)" d="M 14.078255 89.376169 
L 67.294283 4.223062 
L 67.294283 4.223062 
" style="fill:none;stroke:#0000ff;stroke-linecap:square;"/>
   </g>
   <g id="line2d_5">
    <path clip-path="url(#p58e0cc95db)" d="M 96.858744 51.530344 
L 114.59742 23.145975 
L 114.59742 23.145975 
" style="fill:none;stroke:#0000ff;stroke-linecap:square;"/>
   </g>
   <g id="line2d_6">
    <path clip-path="url(#p58e0cc95db)" d="M 232.855261 70.453256 
L 250.593937 42.068887 
L 250.593937 42.068887 
" style="fill:none;stroke:#0000ff;stroke-linecap:square;"/>
   </g>
   <g id="matplotlib.axis_1">
    <g id="xtick_1">
     <g id="line2d_7">
      <path clip-path="url(#p58e0cc95db)" d="M 14.078255 91.079231 
L 14.078255 2.52 
" style="fill:none;stroke:#000000;stroke-dasharray:0.5,0.825;stroke-dashoffset:0;stroke-width:0.5;"/>
     </g>
     <g id="line2d_8">
      <defs>
       <path d="M 0 0 
L 0 3.5 
" id="m41cfa68bf1" style="stroke:#000000;stroke-width:0.8;"/>
      </defs>
      <g>
       <use style="stroke:#000000;stroke-width:0.8;" x="14.078255" xlink:href="#m41cfa68bf1" y="89.376169"/>
      </g>
     </g>
    </g>
    <g id="xtick_2">
     <g id="line2d_9">
      <path clip-path="url(#p58e0cc95db)" d="M 67.294283 91.079231 
L 67.294283 2.52 
" style="fill:none;stroke:#000000;stroke-dasharray:0.5,0.825;stroke-dashoffset:0;stroke-width:0.5;"/>
     </g>
     <g id="line2d_10">
      <g>
       <use style="stroke:#000000;stroke-width:0.8;" x="67.294283" xlink:href="#m41cfa68bf1" y="89.376169"/>
      </g>
     </g>
     <g id="text_1">
      <!-- $f$ -->
      <defs>
       <path d="M 9.71875 -16.5 
Q 11.578125 -17.921875 14.203125 -17.921875 
Q 17.78125 -17.921875 20.015625 -10.015625 
Q 20.953125 -6.203125 25.09375 15.09375 
L 29.6875 39.59375 
L 21.09375 39.59375 
Q 20.125 39.59375 20.125 40.921875 
Q 20.515625 43.109375 21.390625 43.109375 
L 30.328125 43.109375 
L 31.5 49.609375 
Q 32.078125 52.640625 32.5625 54.8125 
Q 33.0625 56.984375 33.625 58.828125 
Q 34.1875 60.6875 35.296875 62.984375 
Q 37.015625 66.265625 39.921875 68.390625 
Q 42.828125 70.515625 46.1875 70.515625 
Q 48.390625 70.515625 50.46875 69.703125 
Q 52.546875 68.890625 53.859375 67.28125 
Q 55.171875 65.671875 55.171875 63.484375 
Q 55.171875 60.9375 53.484375 59.046875 
Q 51.8125 57.171875 49.421875 57.171875 
Q 47.796875 57.171875 46.65625 58.171875 
Q 45.515625 59.1875 45.515625 60.796875 
Q 45.515625 62.984375 47 64.625 
Q 48.484375 66.265625 50.6875 66.5 
Q 48.828125 67.921875 46.09375 67.921875 
Q 44.578125 67.921875 43.234375 66.5 
Q 41.890625 65.09375 41.5 63.484375 
Q 40.875 60.9375 38.71875 49.703125 
L 37.5 43.109375 
L 47.796875 43.109375 
Q 48.78125 43.109375 48.78125 41.796875 
Q 48.734375 41.546875 48.578125 40.9375 
Q 48.4375 40.328125 48.171875 39.953125 
Q 47.90625 39.59375 47.515625 39.59375 
L 36.8125 39.59375 
L 32.171875 15.1875 
Q 31.296875 9.859375 30.140625 4.359375 
Q 29 -1.125 26.921875 -6.90625 
Q 24.859375 -12.703125 21.625 -16.609375 
Q 18.40625 -20.515625 14.015625 -20.515625 
Q 10.640625 -20.515625 7.984375 -18.578125 
Q 5.328125 -16.65625 5.328125 -13.484375 
Q 5.328125 -10.9375 6.953125 -9.046875 
Q 8.59375 -7.171875 11.078125 -7.171875 
Q 12.75 -7.171875 13.859375 -8.171875 
Q 14.984375 -9.1875 14.984375 -10.796875 
Q 14.984375 -12.9375 13.390625 -14.71875 
Q 11.8125 -16.5 9.71875 -16.5 
z
" id="Cmmi10-66"/>
      </defs>
      <g transform="translate(64.844283 103.954294)scale(0.1 -0.1)">
       <use transform="translate(0 0.484375)" xlink:href="#Cmmi10-66"/>
      </g>
     </g>
    </g>
    <g id="xtick_3">
     <g id="line2d_11">
      <path clip-path="url(#p58e0cc95db)" d="M 280.158397 91.079231 
L 280.158397 2.52 
" style="fill:none;stroke:#000000;stroke-dasharray:0.5,0.825;stroke-dashoffset:0;stroke-width:0.5;"/>
     </g>
     <g id="line2d_12">
      <g>
       <use style="stroke:#000000;stroke-width:0.8;" x="280.158397" xlink:href="#m41cfa68bf1" y="89.376169"/>
      </g>
     </g>
     <g id="text_2">
      <!-- $1$ -->
      <defs>
       <path d="M 9.28125 0 
L 9.28125 3.515625 
Q 21.78125 3.515625 21.78125 6.6875 
L 21.78125 59.1875 
Q 16.609375 56.6875 8.6875 56.6875 
L 8.6875 60.203125 
Q 20.953125 60.203125 27.203125 66.609375 
L 28.609375 66.609375 
Q 28.953125 66.609375 29.265625 66.328125 
Q 29.59375 66.0625 29.59375 65.71875 
L 29.59375 6.6875 
Q 29.59375 3.515625 42.09375 3.515625 
L 42.09375 0 
z
" id="Cmr10-31"/>
      </defs>
      <g transform="translate(277.658397 103.974606)scale(0.1 -0.1)">
       <use transform="translate(0 0.390625)" xlink:href="#Cmr10-31"/>
      </g>
     </g>
    </g>
   </g>
   <g id="matplotlib.axis_2">
    <g id="ytick_1">
     <g id="line2d_13">
      <path clip-path="url(#p58e0cc95db)" d="M 8.756652 89.376169 
L 285.48 89.376169 
" style="fill:none;stroke:#000000;stroke-dasharray:0.5,0.825;stroke-dashoffset:0;stroke-width:0.5;"/>
     </g>
     <g id="line2d_14">
      <defs>
       <path d="M 0 0 
L -3.5 0 
" id="m1fab566337" style="stroke:#000000;stroke-width:0.8;"/>
      </defs>
      <g>
       <use style="stroke:#000000;stroke-width:0.8;" x="14.078255" xlink:href="#m1fab566337" y="89.376169"/>
      </g>
     </g>
    </g>
    <g id="ytick_2">
     <g id="line2d_15">
      <path clip-path="url(#p58e0cc95db)" d="M 8.756652 4.223062 
L 285.48 4.223062 
" style="fill:none;stroke:#000000;stroke-dasharray:0.5,0.825;stroke-dashoffset:0;stroke-width:0.5;"/>
     </g>
     <g id="line2d_16">
      <g>
       <use style="stroke:#000000;stroke-width:0.8;" x="14.078255" xlink:href="#m1fab566337" y="4.223062"/>
      </g>
     </g>
     <g id="text_3">
      <!-- $1$ -->
      <g transform="translate(2.078255 8.022281)scale(0.1 -0.1)">
       <use transform="translate(0 0.390625)" xlink:href="#Cmr10-31"/>
      </g>
     </g>
    </g>
   </g>
   <g id="patch_3">
    <path d="M 14.078255 91.079231 
L 14.078255 2.52 
" style="fill:none;stroke:#000000;stroke-linecap:square;stroke-linejoin:miter;stroke-width:0.8;"/>
   </g>
   <g id="patch_4">
    <path d="M 8.756652 89.376169 
L 285.48 89.376169 
" style="fill:none;stroke:#000000;stroke-linecap:square;stroke-linejoin:miter;stroke-width:0.8;"/>
   </g>
  </g>
  <g id="axes_2">
   <g id="patch_5">
    <path d="M 296.756652 91.079231 
L 573.48 91.079231 
L 573.48 2.52 
L 296.756652 2.52 
z
" style="fill:#ffffff;"/>
   </g>
   <g id="line2d_17">
    <path clip-path="url(#p1565010d87)" d="M 376.3179 17.88961 
L 376.545895 18.03782 
L 376.758087 18.175757 
L 377.13736 18.422306 
L 377.466363 18.636176 
L 377.585861 18.713857 
L 377.857264 18.890285 
L 378.035366 19.006061 
L 378.400654 19.243519 
L 378.69908 19.437513 
L 379.070679 19.679073 
L 379.261338 19.803013 
L 379.605886 20.026989 
L 379.804984 20.156414 
L 379.922815 20.23301 
L 380.343186 20.506275 
L 380.553828 20.643205 
L 380.846038 20.833158 
L 381.189715 21.056568 
L 381.418343 21.205189 
L 381.66346 21.364529 
L 381.989562 21.576513 
L 382.132709 21.669568 
L 382.488539 21.900877 
L 382.557589 21.945763 
L 382.792445 22.098434 
L 383.20557 22.366988 
L 383.516231 22.568936 
L 383.767165 22.732057 
L 384.041858 22.910623 
L 384.28752 23.070317 
L 384.631818 23.294131 
L 384.641285 23.300285 
L 385.063023 23.574439 
L 385.289709 23.721797 
L 385.632953 23.944925 
L 385.755036 24.024286 
L 386.036335 24.207147 
L 386.481214 24.496344 
L 386.743175 24.666633 
L 386.887384 24.760377 
L 387.200553 24.963954 
L 387.279904 25.015537 
L 387.590659 25.217546 
L 387.814074 25.362778 
L 388.241318 25.640511 
L 388.441702 25.770772 
L 388.826386 26.020839 
L 388.900866 26.069255 
L 389.264667 26.305746 
L 389.49422 26.454969 
L 389.665622 26.56639 
L 390.022469 26.79836 
L 390.25464 26.949285 
L 390.455138 27.079621 
L 390.86118 27.343571 
L 391.123219 27.513911 
L 391.349356 27.660913 
L 391.659783 27.862708 
L 391.81182 27.961541 
L 392.162407 28.189442 
L 392.397044 28.34197 
L 392.58515 28.464249 
L 392.952962 28.703348 
L 393.12001 28.811939 
L 393.521507 29.072935 
L 393.784568 29.243939 
L 393.969754 29.364321 
L 394.395601 29.641146 
L 394.670847 29.820071 
L 394.81311 29.91255 
L 395.040327 30.060255 
L 395.355458 30.265107 
L 395.535061 30.381859 
L 395.820325 30.567297 
L 396.224943 30.830322 
L 396.424197 30.959848 
L 396.748748 31.170825 
L 396.965113 31.311475 
L 397.191648 31.458736 
L 397.577277 31.709416 
" style="fill:none;stroke:#ff0000;stroke-linecap:square;"/>
   </g>
   <g id="line2d_18">
    <path clip-path="url(#p1565010d87)" d="M 398.208722 32.119891 
L 398.408488 32.249751 
L 398.882669 32.557995 
L 399.065721 32.67699 
L 399.374905 32.877977 
L 399.594365 33.020638 
L 399.725975 33.106192 
L 400.147925 33.380484 
L 400.464846 33.586501 
L 400.674207 33.722597 
L 400.811825 33.812057 
L 401.260945 34.10401 
L 401.294686 34.125944 
L 401.802769 34.456227 
L 401.931094 34.539646 
L 402.157915 34.687092 
L 402.341963 34.806734 
L 402.704091 35.042138 
L 402.899869 35.169404 
L 403.168254 35.34387 
L 403.632044 35.64536 
L 403.730534 35.709384 
L 404.129887 35.968986 
L 404.309432 36.085701 
L 404.689473 36.332749 
L 404.924395 36.485461 
L 405.022308 36.54911 
L 405.275485 36.71369 
L 405.707192 36.994324 
L 405.921593 37.133697 
L 406.267641 37.358648 
L 406.526893 37.527177 
L 406.690761 37.6337 
L 407.075788 37.883989 
L 407.264517 38.006674 
L 407.514147 38.168948 
L 407.623841 38.240255 
L 408.070817 38.530815 
L 408.327741 38.69783 
L 408.563927 38.851365 
L 408.705239 38.943225 
L 408.966095 39.112797 
L 409.203254 39.266964 
L 409.615554 39.534982 
L 409.865292 39.697326 
L 410.106724 39.854271 
L 410.371048 40.026096 
L 410.592377 40.169972 
L 410.785323 40.295399 
L 411.267246 40.608676 
L 411.369995 40.675468 
L 411.731151 40.910241 
L 411.965618 41.062658 
L 412.324045 41.295655 
L 412.422568 41.359701 
L 412.829287 41.624092 
L 412.915146 41.679905 
L 413.319988 41.943075 
L 413.437628 42.019548 
L 413.828968 42.273941 
L 414.047467 42.415978 
L 414.316018 42.590552 
L 414.628717 42.793824 
L 414.785125 42.895497 
L 415.156258 43.136755 
L 415.433642 43.317071 
L 415.74064 43.516637 
L 415.845146 43.584572 
L 416.119858 43.76315 
L 416.367256 43.923973 
L 416.84146 44.232233 
L 416.898251 44.26915 
L 417.233524 44.487097 
L 417.431602 44.615859 
L 417.822763 44.870135 
L 418.032569 45.006521 
L 418.384566 45.235339 
L 418.656027 45.411804 
L 418.733494 45.462163 
L 419.149823 45.7328 
L 419.295565 45.82754 
L 419.586921 46.016938 
L 419.842369 46.182994 
L 420.176944 46.400487 
L 420.419394 46.558093 
L 420.599557 46.67521 
L 420.836446 46.829201 
L 421.151612 47.034076 
L 421.538281 47.285434 
L 421.694944 47.387274 
L 421.978357 47.571508 
L 422.172181 47.697505 
L 422.637852 48.000217 
L 422.690485 48.034432 
L 423.195717 48.362862 
L 423.436045 48.519089 
L 423.636839 48.649616 
L 423.944271 48.849464 
L 424.249458 49.047853 
L 424.41367 49.154601 
L 424.666519 49.318966 
L 424.865478 49.448301 
L 425.247579 49.696688 
L 425.469261 49.840795 
L 425.595033 49.922554 
L 426.005972 50.189687 
L 426.225091 50.332127 
L 426.527715 50.52885 
L 426.633788 50.597804 
L 427.139263 50.926391 
L 427.16295 50.941789 
L 427.426227 51.112934 
L 427.801635 51.356971 
L 427.957209 51.458103 
L 428.470267 51.791619 
L 428.68531 51.93141 
L 428.87694 52.05598 
" style="fill:none;stroke:#ff0000;stroke-linecap:square;"/>
   </g>
   <g id="line2d_19">
    <path clip-path="url(#p1565010d87)" d="M 494.575741 41.543251 
L 547.134781 75.709621 
L 547.134781 75.709621 
" style="fill:none;stroke:#ff0000;stroke-linecap:square;"/>
   </g>
   <g id="line2d_20">
    <path clip-path="url(#p1565010d87)" d="M 302.078255 89.376169 
L 355.294283 4.223062 
L 355.294283 4.223062 
" style="fill:none;stroke:#00ff00;stroke-linecap:square;"/>
   </g>
   <g id="line2d_21">
    <path clip-path="url(#p1565010d87)" d="M 368.434043 30.504885 
L 376.3179 17.88961 
L 376.3179 17.88961 
" style="fill:none;stroke:#00ff00;stroke-linecap:square;"/>
   </g>
   <g id="line2d_22">
    <path clip-path="url(#p1565010d87)" d="M 428.87694 52.05598 
L 436.760796 39.440705 
L 436.760796 39.440705 
" style="fill:none;stroke:#00ff00;stroke-linecap:square;"/>
   </g>
   <g id="line2d_23">
    <path clip-path="url(#p1565010d87)" d="M 449.900556 65.722528 
L 473.552124 27.876703 
L 473.552124 27.876703 
" style="fill:none;stroke:#00ff00;stroke-linecap:square;"/>
   </g>
   <g id="line2d_24">
    <path clip-path="url(#p1565010d87)" d="M 486.691884 54.158526 
L 494.575741 41.543251 
L 494.575741 41.543251 
" style="fill:none;stroke:#00ff00;stroke-linecap:square;"/>
   </g>
   <g id="line2d_25">
    <path clip-path="url(#p1565010d87)" d="M 547.134781 75.709621 
L 547.16618 75.659378 
L 547.208712 75.591321 
L 547.245631 75.532245 
L 547.28692 75.466177 
L 547.315809 75.41995 
L 547.371083 75.331504 
L 547.418865 75.255046 
L 547.463153 75.184179 
L 547.485374 75.148623 
L 547.513202 75.104094 
L 547.578818 74.9991 
L 547.59233 74.977478 
L 547.63817 74.904128 
L 547.70233 74.801463 
L 547.731738 74.754405 
L 547.778595 74.679428 
L 547.805951 74.635654 
L 547.85669 74.554465 
L 547.895727 74.492001 
L 547.927074 74.441841 
L 547.968024 74.376315 
L 547.992159 74.337695 
L 548.03268 74.272857 
" style="fill:none;stroke:#00ff00;stroke-linecap:square;"/>
   </g>
   <g id="line2d_26">
    <path clip-path="url(#p1565010d87)" d="M 548.179131 74.038515 
L 555.018637 63.094346 
L 555.018637 63.094346 
" style="fill:none;stroke:#00ff00;stroke-linecap:square;"/>
   </g>
   <g id="line2d_27">
    <path clip-path="url(#p1565010d87)" d="M 355.294283 4.223062 
L 368.434043 30.504885 
L 368.434043 30.504885 
" style="fill:none;stroke:#0000ff;stroke-linecap:square;"/>
   </g>
   <g id="line2d_28">
    <path clip-path="url(#p1565010d87)" d="M 436.760796 39.440705 
L 449.900556 65.722528 
L 449.900556 65.722528 
" style="fill:none;stroke:#0000ff;stroke-linecap:square;"/>
   </g>
   <g id="line2d_29">
    <path clip-path="url(#p1565010d87)" d="M 473.552124 27.876703 
L 486.691884 54.158526 
L 486.691884 54.158526 
" style="fill:none;stroke:#0000ff;stroke-linecap:square;"/>
   </g>
   <g id="line2d_30">
    <path clip-path="url(#p1565010d87)" d="M 555.018637 63.094346 
L 568.158397 89.376169 
L 568.158397 89.376169 
" style="fill:none;stroke:#0000ff;stroke-linecap:square;"/>
   </g>
   <g id="matplotlib.axis_3">
    <g id="xtick_4">
     <g id="line2d_31">
      <path clip-path="url(#p1565010d87)" d="M 302.078255 91.079231 
L 302.078255 2.52 
" style="fill:none;stroke:#000000;stroke-dasharray:0.5,0.825;stroke-dashoffset:0;stroke-width:0.5;"/>
     </g>
     <g id="line2d_32">
      <g>
       <use style="stroke:#000000;stroke-width:0.8;" x="302.078255" xlink:href="#m41cfa68bf1" y="89.376169"/>
      </g>
     </g>
    </g>
    <g id="xtick_5">
     <g id="line2d_33">
      <path clip-path="url(#p1565010d87)" d="M 355.294283 91.079231 
L 355.294283 2.52 
" style="fill:none;stroke:#000000;stroke-dasharray:0.5,0.825;stroke-dashoffset:0;stroke-width:0.5;"/>
     </g>
     <g id="line2d_34">
      <g>
       <use style="stroke:#000000;stroke-width:0.8;" x="355.294283" xlink:href="#m41cfa68bf1" y="89.376169"/>
      </g>
     </g>
     <g id="text_4">
      <!-- $f$ -->
      <g transform="translate(352.844283 103.954294)scale(0.1 -0.1)">
       <use transform="translate(0 0.484375)" xlink:href="#Cmmi10-66"/>
      </g>
     </g>
    </g>
    <g id="xtick_6">
     <g id="line2d_35">
      <path clip-path="url(#p1565010d87)" d="M 568.158397 91.079231 
L 568.158397 2.52 
" style="fill:none;stroke:#000000;stroke-dasharray:0.5,0.825;stroke-dashoffset:0;stroke-width:0.5;"/>
     </g>
     <g id="line2d_36">
      <g>
       <use style="stroke:#000000;stroke-width:0.8;" x="568.158397" xlink:href="#m41cfa68bf1" y="89.376169"/>
      </g>
     </g>
     <g id="text_5">
      <!-- $1$ -->
      <g transform="translate(565.658397 103.974606)scale(0.1 -0.1)">
       <use transform="translate(0 0.390625)" xlink:href="#Cmr10-31"/>
      </g>
     </g>
    </g>
   </g>
   <g id="matplotlib.axis_4">
    <g id="ytick_3">
     <g id="line2d_37">
      <path clip-path="url(#p1565010d87)" d="M 296.756652 89.376169 
L 573.48 89.376169 
" style="fill:none;stroke:#000000;stroke-dasharray:0.5,0.825;stroke-dashoffset:0;stroke-width:0.5;"/>
     </g>
     <g id="line2d_38">
      <g>
       <use style="stroke:#000000;stroke-width:0.8;" x="302.078255" xlink:href="#m1fab566337" y="89.376169"/>
      </g>
     </g>
    </g>
    <g id="ytick_4">
     <g id="line2d_39">
      <path clip-path="url(#p1565010d87)" d="M 296.756652 4.223062 
L 573.48 4.223062 
" style="fill:none;stroke:#000000;stroke-dasharray:0.5,0.825;stroke-dashoffset:0;stroke-width:0.5;"/>
     </g>
     <g id="line2d_40">
      <g>
       <use style="stroke:#000000;stroke-width:0.8;" x="302.078255" xlink:href="#m1fab566337" y="4.223062"/>
      </g>
     </g>
     <g id="text_6">
      <!-- $1$ -->
      <g transform="translate(290.078255 8.022281)scale(0.1 -0.1)">
       <use transform="translate(0 0.390625)" xlink:href="#Cmr10-31"/>
      </g>
     </g>
    </g>
   </g>
   <g id="patch_6">
    <path d="M 302.078255 91.079231 
L 302.078255 2.52 
" style="fill:none;stroke:#000000;stroke-linecap:square;stroke-linejoin:miter;stroke-width:0.8;"/>
   </g>
   <g id="patch_7">
    <path d="M 296.756652 89.376169 
L 573.48 89.376169 
" style="fill:none;stroke:#000000;stroke-linecap:square;stroke-linejoin:miter;stroke-width:0.8;"/>
   </g>
  </g>
 </g>
 <defs>
  <clipPath id="p58e0cc95db">
   <rect height="88.559231" width="276.723348" x="8.756652" y="2.52"/>
  </clipPath>
  <clipPath id="p1565010d87">
   <rect height="88.559231" width="276.723348" x="296.756652" y="2.52"/>
  </clipPath>
 </defs>
</svg>
