<?xml version="1.0" encoding="utf-8" standalone="no"?>
<!DOCTYPE svg PUBLIC "-//W3C//DTD SVG 1.1//EN"
  "http://www.w3.org/Graphics/SVG/1.1/DTD/svg11.dtd">
<!-- Created with matplotlib (http://matplotlib.org/) -->
<svg height="345.6pt" version="1.1" viewBox="0 0 460.8 345.6" width="460.8pt" xmlns="http://www.w3.org/2000/svg" xmlns:xlink="http://www.w3.org/1999/xlink">
 <defs>
  <style type="text/css">
*{stroke-linecap:butt;stroke-linejoin:round;}
  </style>
 </defs>
 <g id="figure_1">
  <g id="patch_1">
   <path d="M 0 345.6 
L 460.8 345.6 
L 460.8 0 
L 0 0 
z
" style="fill:#ffffff;"/>
  </g>
  <g id="axes_1">
   <g id="patch_2">
    <path d="M 65.401269 332.517462 
L 395.398731 332.517462 
L 395.398731 2.52 
L 65.401269 2.52 
z
" style="fill:#ffffff;"/>
   </g>
   <g id="patch_3">
    <path clip-path="url(#pad2ffea558)" d="M 143.862204 80.980935 
L 264.053587 80.980935 
L 264.053587 76.17328 
L 143.862204 76.17328 
z
" style="fill:#808080;opacity:0.35;"/>
   </g>
   <g id="patch_4">
    <path clip-path="url(#pad2ffea558)" d="M 143.862204 321.363701 
L 143.862204 201.172318 
L 139.054549 201.172318 
L 139.054549 321.363701 
z
" style="fill:#808080;opacity:0.35;"/>
   </g>
   <g id="patch_5">
    <path clip-path="url(#pad2ffea558)" d="M 143.862204 321.363701 
L 264.053587 321.363701 
L 268.861243 326.171357 
L 148.669859 326.171357 
z
" style="fill:#808080;opacity:0.35;"/>
   </g>
   <g id="patch_6">
    <path clip-path="url(#pad2ffea558)" d="M 143.862204 80.980935 
L 264.053587 80.980935 
L 264.053587 76.17328 
L 143.862204 76.17328 
z
" style="fill:#808080;opacity:0.35;"/>
   </g>
   <g id="patch_7">
    <path clip-path="url(#pad2ffea558)" d="M 143.862204 201.172318 
L 143.862204 80.980935 
L 139.054549 80.980935 
L 139.054549 201.172318 
z
" style="fill:#808080;opacity:0.35;"/>
   </g>
   <g id="patch_8">
    <path clip-path="url(#pad2ffea558)" d="M 264.053587 321.363701 
L 384.24497 321.363701 
L 389.052626 326.171357 
L 268.861243 326.171357 
z
" style="fill:#808080;opacity:0.35;"/>
   </g>
   <g id="patch_9">
    <path clip-path="url(#pad2ffea558)" d="M 264.053587 80.980935 
L 384.24497 80.980935 
L 384.24497 76.17328 
L 264.053587 76.17328 
z
" style="fill:#808080;opacity:0.35;"/>
   </g>
   <g id="patch_10">
    <path clip-path="url(#pad2ffea558)" d="M 143.862204 321.363701 
L 143.862204 201.172318 
L 139.054549 201.172318 
L 139.054549 321.363701 
z
" style="fill:#808080;opacity:0.35;"/>
   </g>
   <g id="patch_11">
    <path clip-path="url(#pad2ffea558)" d="M 264.053587 321.363701 
L 384.24497 321.363701 
L 389.052626 326.171357 
L 268.861243 326.171357 
z
" style="fill:#808080;opacity:0.35;"/>
   </g>
   <g id="line2d_1">
    <path clip-path="url(#pad2ffea558)" d="M 143.862204 321.363701 
L 143.862204 80.980935 
" style="fill:none;stroke:#000000;stroke-linecap:square;"/>
   </g>
   <g id="line2d_2">
    <path clip-path="url(#pad2ffea558)" d="M 143.862204 321.363701 
L 143.862204 80.980935 
" style="fill:none;stroke:#ffffff;stroke-linecap:square;"/>
   </g>
   <g id="line2d_3">
    <path clip-path="url(#pad2ffea558)" d="M 143.862204 80.980935 
L 264.053587 80.980935 
" style="fill:none;stroke:#000000;stroke-linecap:square;"/>
   </g>
   <g id="line2d_4">
    <path clip-path="url(#pad2ffea558)" d="M 143.862204 321.363701 
L 143.862204 201.172318 
" style="fill:none;stroke:#000000;stroke-linecap:square;"/>
   </g>
   <g id="line2d_5">
    <path clip-path="url(#pad2ffea558)" d="M 264.053587 8.866105 
L 384.24497 8.866105 
" style="fill:none;stroke:#000000;stroke-linecap:square;"/>
   </g>
   <g id="line2d_6">
    <path clip-path="url(#pad2ffea558)" d="M 71.747374 201.172318 
L 71.747374 80.980935 
" style="fill:none;stroke:#000000;stroke-linecap:square;"/>
   </g>
   <g id="line2d_7">
    <path clip-path="url(#pad2ffea558)" d="M 143.862204 80.980935 
L 264.053587 80.980935 
" style="fill:none;stroke:#ff0000;stroke-linecap:square;"/>
   </g>
   <g id="line2d_8">
    <path clip-path="url(#pad2ffea558)" d="M 143.862204 321.363701 
L 143.862204 201.172318 
" style="fill:none;stroke:#ff0000;stroke-linecap:square;"/>
   </g>
   <g id="line2d_9">
    <path clip-path="url(#pad2ffea558)" d="M 264.053587 8.866105 
L 384.24497 8.866105 
" style="fill:none;stroke:#ff0000;stroke-linecap:square;"/>
   </g>
   <g id="line2d_10">
    <path clip-path="url(#pad2ffea558)" d="M 71.747374 201.172318 
L 71.747374 80.980935 
" style="fill:none;stroke:#ff0000;stroke-linecap:square;"/>
   </g>
   <g id="PathCollection_1">
    <defs>
     <path d="M 0 2.397916 
C 0.635935 2.397916 1.245909 2.145256 1.695582 1.695582 
C 2.145256 1.245909 2.397916 0.635935 2.397916 0 
C 2.397916 -0.635935 2.145256 -1.245909 1.695582 -1.695582 
C 1.245909 -2.145256 0.635935 -2.397916 0 -2.397916 
C -0.635935 -2.397916 -1.245909 -2.145256 -1.695582 -1.695582 
C -2.145256 -1.245909 -2.397916 -0.635935 -2.397916 0 
C -2.397916 0.635935 -2.145256 1.245909 -1.695582 1.695582 
C -1.245909 2.145256 -0.635935 2.397916 0 2.397916 
z
" id="C0_0_73b132f195"/>
    </defs>
    <g clip-path="url(#pad2ffea558)">
     <use x="264.053587" xlink:href="#C0_0_73b132f195" y="80.980935"/>
    </g>
    <g clip-path="url(#pad2ffea558)">
     <use x="143.862204" xlink:href="#C0_0_73b132f195" y="201.172318"/>
    </g>
   </g>
   <g id="PathCollection_2">
    <defs>
     <path d="M 0 1.581139 
C 0.419323 1.581139 0.821528 1.41454 1.118034 1.118034 
C 1.41454 0.821528 1.581139 0.419323 1.581139 0 
C 1.581139 -0.419323 1.41454 -0.821528 1.118034 -1.118034 
C 0.821528 -1.41454 0.419323 -1.581139 0 -1.581139 
C -0.419323 -1.581139 -0.821528 -1.41454 -1.118034 -1.118034 
C -1.41454 -0.821528 -1.581139 -0.419323 -1.581139 0 
C -1.581139 0.419323 -1.41454 0.821528 -1.118034 1.118034 
C -0.821528 1.41454 -0.419323 1.581139 0 1.581139 
z
" id="C1_0_65a7e8804b"/>
    </defs>
    <g clip-path="url(#pad2ffea558)">
     <use style="fill:#ffffff;" x="264.053587" xlink:href="#C1_0_65a7e8804b" y="80.980935"/>
    </g>
    <g clip-path="url(#pad2ffea558)">
     <use style="fill:#ffffff;" x="143.862204" xlink:href="#C1_0_65a7e8804b" y="201.172318"/>
    </g>
   </g>
   <g id="PathCollection_3">
    <defs>
     <path d="M 0 2.397916 
C 0.635935 2.397916 1.245909 2.145256 1.695582 1.695582 
C 2.145256 1.245909 2.397916 0.635935 2.397916 0 
C 2.397916 -0.635935 2.145256 -1.245909 1.695582 -1.695582 
C 1.245909 -2.145256 0.635935 -2.397916 0 -2.397916 
C -0.635935 -2.397916 -1.245909 -2.145256 -1.695582 -1.695582 
C -2.145256 -1.245909 -2.397916 -0.635935 -2.397916 0 
C -2.397916 0.635935 -2.145256 1.245909 -1.695582 1.695582 
C -1.245909 2.145256 -0.635935 2.397916 0 2.397916 
z
" id="C2_0_1c69a88001"/>
    </defs>
    <g clip-path="url(#pad2ffea558)">
     <use x="264.053587" xlink:href="#C2_0_1c69a88001" y="44.92352"/>
    </g>
    <g clip-path="url(#pad2ffea558)">
     <use x="107.804789" xlink:href="#C2_0_1c69a88001" y="201.172318"/>
    </g>
   </g>
   <g id="PathCollection_4">
    <defs>
     <path d="M 0 2.397916 
C 0.635935 2.397916 1.245909 2.145256 1.695582 1.695582 
C 2.145256 1.245909 2.397916 0.635935 2.397916 0 
C 2.397916 -0.635935 2.145256 -1.245909 1.695582 -1.695582 
C 1.245909 -2.145256 0.635935 -2.397916 0 -2.397916 
C -0.635935 -2.397916 -1.245909 -2.145256 -1.695582 -1.695582 
C -2.145256 -1.245909 -2.397916 -0.635935 -2.397916 0 
C -2.397916 0.635935 -2.145256 1.245909 -1.695582 1.695582 
C -1.245909 2.145256 -0.635935 2.397916 0 2.397916 
z
" id="C3_0_73b6d04fbd"/>
    </defs>
    <g clip-path="url(#pad2ffea558)">
     <use x="264.053587" xlink:href="#C3_0_73b6d04fbd" y="8.866105"/>
    </g>
    <g clip-path="url(#pad2ffea558)">
     <use x="71.747374" xlink:href="#C3_0_73b6d04fbd" y="201.172318"/>
    </g>
   </g>
   <g id="PathCollection_5">
    <defs>
     <path d="M 0 1.581139 
C 0.419323 1.581139 0.821528 1.41454 1.118034 1.118034 
C 1.41454 0.821528 1.581139 0.419323 1.581139 0 
C 1.581139 -0.419323 1.41454 -0.821528 1.118034 -1.118034 
C 0.821528 -1.41454 0.419323 -1.581139 0 -1.581139 
C -0.419323 -1.581139 -0.821528 -1.41454 -1.118034 -1.118034 
C -1.41454 -0.821528 -1.581139 -0.419323 -1.581139 0 
C -1.581139 0.419323 -1.41454 0.821528 -1.118034 1.118034 
C -0.821528 1.41454 -0.419323 1.581139 0 1.581139 
z
" id="C4_0_09f7249009"/>
    </defs>
    <g clip-path="url(#pad2ffea558)">
     <use style="fill:#ffffff;" x="264.053587" xlink:href="#C4_0_09f7249009" y="8.866105"/>
    </g>
    <g clip-path="url(#pad2ffea558)">
     <use style="fill:#ffffff;" x="71.747374" xlink:href="#C4_0_09f7249009" y="201.172318"/>
    </g>
   </g>
   <g id="PathCollection_6">
    <path clip-path="url(#pad2ffea558)" d="M 264.053587 203.910931 
C 264.779876 203.910931 265.476515 203.622373 265.990079 203.10881 
C 266.503643 202.595246 266.7922 201.898607 266.7922 201.172318 
C 266.7922 200.446029 266.503643 199.74939 265.990079 199.235826 
C 265.476515 198.722263 264.779876 198.433705 264.053587 198.433705 
C 263.327299 198.433705 262.630659 198.722263 262.117096 199.235826 
C 261.603532 199.74939 261.314974 200.446029 261.314974 201.172318 
C 261.314974 201.898607 261.603532 202.595246 262.117096 203.10881 
C 262.630659 203.622373 263.327299 203.910931 264.053587 203.910931 
z
" style="fill:#00fa9a;"/>
   </g>
   <g id="PathCollection_7">
    <path clip-path="url(#pad2ffea558)" d="M 264.053587 203.910931 
C 264.779876 203.910931 265.476515 203.622373 265.990079 203.10881 
C 266.503643 202.595246 266.7922 201.898607 266.7922 201.172318 
C 266.7922 200.446029 266.503643 199.74939 265.990079 199.235826 
C 265.476515 198.722263 264.779876 198.433705 264.053587 198.433705 
C 263.327299 198.433705 262.630659 198.722263 262.117096 199.235826 
C 261.603532 199.74939 261.314974 200.446029 261.314974 201.172318 
C 261.314974 201.898607 261.603532 202.595246 262.117096 203.10881 
C 262.630659 203.622373 263.327299 203.910931 264.053587 203.910931 
z
" style="fill:#00fa9a;"/>
   </g>
   <g id="patch_12">
    <path clip-path="url(#pad2ffea558)" d="M 143.862204 321.363701 
L 143.862204 201.172318 
L 264.053587 321.363701 
z
" style="fill:#ff0000;"/>
   </g>
   <g id="patch_13">
    <path clip-path="url(#pad2ffea558)" d="M 143.862204 201.172318 
L 143.862204 80.980935 
L 264.053587 201.172318 
z
" style="fill:#ff0000;"/>
   </g>
   <g id="patch_14">
    <path clip-path="url(#pad2ffea558)" d="M 264.053587 321.363701 
L 384.24497 321.363701 
L 264.053587 201.172318 
z
" style="fill:#ff0000;"/>
   </g>
   <g id="matplotlib.axis_1">
    <g id="xtick_1">
     <g id="line2d_11">
      <path clip-path="url(#pad2ffea558)" d="M 143.862204 332.517462 
L 143.862204 2.52 
" style="fill:none;stroke:#000000;stroke-dasharray:0.5,0.825;stroke-dashoffset:0;stroke-width:0.5;"/>
     </g>
     <g id="line2d_12">
      <defs>
       <path d="M 0 0 
L 0 3.5 
" id="m7cd4d56461" style="stroke:#000000;stroke-width:0.8;"/>
      </defs>
      <g>
       <use style="stroke:#000000;stroke-width:0.8;" x="143.862204" xlink:href="#m7cd4d56461" y="321.363701"/>
      </g>
     </g>
    </g>
    <g id="xtick_2">
     <g id="line2d_13">
      <path clip-path="url(#pad2ffea558)" d="M 264.053587 332.517462 
L 264.053587 2.52 
" style="fill:none;stroke:#000000;stroke-dasharray:0.5,0.825;stroke-dashoffset:0;stroke-width:0.5;"/>
     </g>
     <g id="line2d_14">
      <g>
       <use style="stroke:#000000;stroke-width:0.8;" x="264.053587" xlink:href="#m7cd4d56461" y="321.363701"/>
      </g>
     </g>
     <g id="text_1">
      <!-- $\frac{1}{2}$ -->
      <defs>
       <path d="M 9.28125 0 
L 9.28125 3.515625 
Q 21.78125 3.515625 21.78125 6.6875 
L 21.78125 59.1875 
Q 16.609375 56.6875 8.6875 56.6875 
L 8.6875 60.203125 
Q 20.953125 60.203125 27.203125 66.609375 
L 28.609375 66.609375 
Q 28.953125 66.609375 29.265625 66.328125 
Q 29.59375 66.0625 29.59375 65.71875 
L 29.59375 6.6875 
Q 29.59375 3.515625 42.09375 3.515625 
L 42.09375 0 
z
" id="Cmr10-31"/>
       <path d="M 4.984375 0 
L 4.984375 2.6875 
Q 4.984375 2.9375 5.171875 3.21875 
L 20.703125 20.40625 
Q 24.21875 24.21875 26.40625 26.796875 
Q 28.609375 29.390625 30.75 32.765625 
Q 32.90625 36.140625 34.15625 39.625 
Q 35.40625 43.109375 35.40625 47.015625 
Q 35.40625 51.125 33.890625 54.859375 
Q 32.375 58.59375 29.375 60.84375 
Q 26.375 63.09375 22.125 63.09375 
Q 17.78125 63.09375 14.3125 60.46875 
Q 10.84375 57.859375 9.421875 53.71875 
Q 9.8125 53.8125 10.5 53.8125 
Q 12.75 53.8125 14.328125 52.296875 
Q 15.921875 50.78125 15.921875 48.390625 
Q 15.921875 46.09375 14.328125 44.5 
Q 12.75 42.921875 10.5 42.921875 
Q 8.15625 42.921875 6.5625 44.546875 
Q 4.984375 46.1875 4.984375 48.390625 
Q 4.984375 52.15625 6.390625 55.4375 
Q 7.8125 58.734375 10.46875 61.296875 
Q 13.140625 63.875 16.484375 65.234375 
Q 19.828125 66.609375 23.578125 66.609375 
Q 29.296875 66.609375 34.21875 64.1875 
Q 39.15625 61.765625 42.03125 57.34375 
Q 44.921875 52.9375 44.921875 47.015625 
Q 44.921875 42.671875 43.015625 38.765625 
Q 41.109375 34.859375 38.125 31.65625 
Q 35.15625 28.46875 30.515625 24.40625 
Q 25.875 20.359375 24.421875 19 
L 13.09375 8.109375 
L 22.703125 8.109375 
Q 29.78125 8.109375 34.546875 8.21875 
Q 39.3125 8.34375 39.59375 8.59375 
Q 40.765625 9.859375 42 17.828125 
L 44.921875 17.828125 
L 42.09375 0 
z
" id="Cmr10-32"/>
      </defs>
      <g transform="translate(261.653587 336.863701)scale(0.1 -0.1)">
       <use transform="translate(0 38.373438)scale(0.7)" xlink:href="#Cmr10-31"/>
       <use transform="translate(0 -39.503125)scale(0.7)" xlink:href="#Cmr10-32"/>
       <path d="M 0 13.373437 
L 0 19.623437 
L 35 19.623437 
L 35 13.373437 
L 0 13.373437 
z
"/>
      </g>
     </g>
    </g>
    <g id="xtick_3">
     <g id="line2d_15">
      <path clip-path="url(#pad2ffea558)" d="M 384.24497 332.517462 
L 384.24497 2.52 
" style="fill:none;stroke:#000000;stroke-dasharray:0.5,0.825;stroke-dashoffset:0;stroke-width:0.5;"/>
     </g>
     <g id="line2d_16">
      <g>
       <use style="stroke:#000000;stroke-width:0.8;" x="384.24497" xlink:href="#m7cd4d56461" y="321.363701"/>
      </g>
     </g>
     <g id="text_2">
      <!-- $1$ -->
      <g transform="translate(381.74497 335.962139)scale(0.1 -0.1)">
       <use transform="translate(0 0.390625)" xlink:href="#Cmr10-31"/>
      </g>
     </g>
    </g>
   </g>
   <g id="matplotlib.axis_2">
    <g id="ytick_1">
     <g id="line2d_17">
      <path clip-path="url(#pad2ffea558)" d="M 65.401269 321.363701 
L 395.398731 321.363701 
" style="fill:none;stroke:#000000;stroke-dasharray:0.5,0.825;stroke-dashoffset:0;stroke-width:0.5;"/>
     </g>
     <g id="line2d_18">
      <defs>
       <path d="M 0 0 
L -3.5 0 
" id="m70d54021c8" style="stroke:#000000;stroke-width:0.8;"/>
      </defs>
      <g>
       <use style="stroke:#000000;stroke-width:0.8;" x="143.862204" xlink:href="#m70d54021c8" y="321.363701"/>
      </g>
     </g>
    </g>
    <g id="ytick_2">
     <g id="line2d_19">
      <path clip-path="url(#pad2ffea558)" d="M 65.401269 201.172318 
L 395.398731 201.172318 
" style="fill:none;stroke:#000000;stroke-dasharray:0.5,0.825;stroke-dashoffset:0;stroke-width:0.5;"/>
     </g>
     <g id="line2d_20">
      <g>
       <use style="stroke:#000000;stroke-width:0.8;" x="143.862204" xlink:href="#m70d54021c8" y="201.172318"/>
      </g>
     </g>
     <g id="text_3">
      <!-- $\frac{1}{2}$ -->
      <g transform="translate(132.062204 205.422318)scale(0.1 -0.1)">
       <use transform="translate(0 38.373438)scale(0.7)" xlink:href="#Cmr10-31"/>
       <use transform="translate(0 -39.503125)scale(0.7)" xlink:href="#Cmr10-32"/>
       <path d="M 0 13.373437 
L 0 19.623437 
L 35 19.623437 
L 35 13.373437 
L 0 13.373437 
z
"/>
      </g>
     </g>
    </g>
    <g id="ytick_3">
     <g id="line2d_21">
      <path clip-path="url(#pad2ffea558)" d="M 65.401269 80.980935 
L 395.398731 80.980935 
" style="fill:none;stroke:#000000;stroke-dasharray:0.5,0.825;stroke-dashoffset:0;stroke-width:0.5;"/>
     </g>
     <g id="line2d_22">
      <g>
       <use style="stroke:#000000;stroke-width:0.8;" x="143.862204" xlink:href="#m70d54021c8" y="80.980935"/>
      </g>
     </g>
     <g id="text_4">
      <!-- $1$ -->
      <g transform="translate(131.862204 84.780154)scale(0.1 -0.1)">
       <use transform="translate(0 0.390625)" xlink:href="#Cmr10-31"/>
      </g>
     </g>
    </g>
   </g>
   <g id="line2d_23">
    <path clip-path="url(#pad2ffea558)" d="M 143.862204 321.363701 
L 143.862204 201.172318 
" style="fill:none;stroke:#00fa9a;stroke-linecap:square;stroke-width:2;"/>
   </g>
   <g id="line2d_24">
    <path clip-path="url(#pad2ffea558)" d="M 143.862204 321.363701 
L 264.053587 321.363701 
" style="fill:none;stroke:#00fa9a;stroke-linecap:square;stroke-width:2;"/>
   </g>
   <g id="line2d_25">
    <path clip-path="url(#pad2ffea558)" d="M 143.862204 201.172318 
L 143.862204 80.980935 
" style="fill:none;stroke:#00fa9a;stroke-linecap:square;stroke-width:2;"/>
   </g>
   <g id="line2d_26">
    <path clip-path="url(#pad2ffea558)" d="M 264.053587 321.363701 
L 384.24497 321.363701 
" style="fill:none;stroke:#00fa9a;stroke-linecap:square;stroke-width:2;"/>
   </g>
   <g id="line2d_27">
    <path clip-path="url(#pad2ffea558)" d="M 264.053587 321.363701 
L 264.053587 201.172318 
" style="fill:none;stroke:#00fa9a;stroke-linecap:square;stroke-width:2;"/>
   </g>
   <g id="line2d_28">
    <path clip-path="url(#pad2ffea558)" d="M 143.862204 201.172318 
L 264.053587 201.172318 
" style="fill:none;stroke:#00fa9a;stroke-linecap:square;stroke-width:2;"/>
   </g>
   <g id="line2d_29">
    <path clip-path="url(#pad2ffea558)" d="M 143.862204 201.172318 
L 264.053587 321.363701 
" style="fill:none;stroke:#00fa9a;stroke-linecap:square;stroke-width:2;"/>
   </g>
   <g id="line2d_30">
    <path clip-path="url(#pad2ffea558)" d="M 143.862204 80.980935 
L 264.053587 201.172318 
" style="fill:none;stroke:#00fa9a;stroke-linecap:square;stroke-width:2;"/>
   </g>
   <g id="line2d_31">
    <path clip-path="url(#pad2ffea558)" d="M 264.053587 201.172318 
L 384.24497 321.363701 
" style="fill:none;stroke:#00fa9a;stroke-linecap:square;stroke-width:2;"/>
   </g>
   <g id="line2d_32">
    <path clip-path="url(#pad2ffea558)" d="M 143.862204 201.172318 
L 264.053587 321.363701 
" style="fill:none;stroke:#808080;stroke-linecap:square;"/>
   </g>
   <g id="line2d_33">
    <path clip-path="url(#pad2ffea558)" d="M 143.862204 80.980935 
L 384.24497 321.363701 
" style="fill:none;stroke:#808080;stroke-linecap:square;"/>
   </g>
   <g id="line2d_34">
    <path clip-path="url(#pad2ffea558)" d="M 143.862204 321.363701 
L 384.24497 321.363701 
L 384.24497 321.363701 
" style="fill:none;stroke:#808080;stroke-linecap:square;"/>
   </g>
   <g id="line2d_35">
    <path clip-path="url(#pad2ffea558)" d="M 143.862204 201.172318 
L 264.053587 201.172318 
L 264.053587 201.172318 
" style="fill:none;stroke:#808080;stroke-linecap:square;"/>
   </g>
   <g id="line2d_36">
    <path clip-path="url(#pad2ffea558)" d="M 143.862204 321.363701 
L 143.862204 80.980935 
L 143.862204 80.980935 
" style="fill:none;stroke:#808080;stroke-linecap:square;"/>
   </g>
   <g id="line2d_37">
    <path clip-path="url(#pad2ffea558)" d="M 264.053587 321.363701 
L 264.053587 320.84738 
L 264.053587 320.155759 
L 264.053587 319.561388 
L 264.053587 319.219912 
L 264.053587 318.047865 
L 264.053587 317.45773 
L 264.053587 316.90325 
L 264.053587 316.669861 
L 264.053587 315.719039 
L 264.053587 315.250448 
L 264.053587 314.814394 
L 264.053587 313.918254 
L 264.053587 313.447788 
L 264.053587 312.819926 
L 264.053587 312.48248 
L 264.053587 311.480279 
L 264.053587 311.397412 
L 264.053587 310.493901 
L 264.053587 310.047512 
L 264.053587 308.983836 
L 264.053587 308.948254 
L 264.053587 308.005362 
L 264.053587 307.364716 
L 264.053587 306.807616 
L 264.053587 306.357414 
L 264.053587 305.364322 
L 264.053587 305.237131 
L 264.053587 304.637058 
L 264.053587 303.906831 
L 264.053587 303.37029 
L 264.053587 302.81708 
L 264.053587 302.263572 
L 264.053587 301.719067 
L 264.053587 300.777843 
L 264.053587 300.36875 
L 264.053587 299.603191 
L 264.053587 299.044909 
L 264.053587 298.511439 
L 264.053587 297.620372 
L 264.053587 297.117996 
L 264.053587 296.388159 
L 264.053587 295.80292 
L 264.053587 295.153852 
L 264.053587 294.921006 
L 264.053587 294.41672 
L 264.053587 293.552087 
L 264.053587 292.889065 
L 264.053587 292.327881 
L 264.053587 291.930973 
L 264.053587 291.114353 
L 264.053587 290.698806 
L 264.053587 289.692664 
L 264.053587 289.27911 
L 264.053587 288.531731 
L 264.053587 288.442322 
L 264.053587 287.628474 
L 264.053587 286.824494 
L 264.053587 286.174601 
L 264.053587 285.679354 
L 264.053587 285.27033 
L 264.053587 284.54692 
L 264.053587 283.99069 
L 264.053587 283.349804 
L 264.053587 282.981895 
L 264.053587 281.807293 
L 264.053587 281.556741 
L 264.053587 281.031616 
L 264.053587 280.279508 
L 264.053587 279.44868 
L 264.053587 278.793065 
L 264.053587 278.56127 
L 264.053587 277.681629 
L 264.053587 277.568505 
L 264.053587 276.521496 
L 264.053587 276.148089 
L 264.053587 275.339683 
L 264.053587 274.865897 
L 264.053587 273.996636 
L 264.053587 273.837219 
L 264.053587 273.257155 
L 264.053587 272.419043 
L 264.053587 271.943755 
L 264.053587 271.232029 
L 264.053587 270.889498 
L 264.053587 270.229998 
L 264.053587 269.210683 
L 264.053587 268.720655 
L 264.053587 268.191931 
L 264.053587 267.889715 
L 264.053587 267.092279 
L 264.053587 266.326174 
L 264.053587 265.770476 
L 264.053587 265.319952 
L 264.053587 264.750568 
L 264.053587 263.769959 
L 264.053587 263.214216 
L 264.053587 262.603492 
L 264.053587 262.415876 
L 264.053587 261.691964 
L 264.053587 261.097475 
L 264.053587 260.535331 
L 264.053587 259.56586 
L 264.053587 259.334588 
L 264.053587 258.590054 
L 264.053587 257.87381 
L 264.053587 257.624376 
L 264.053587 256.643165 
L 264.053587 256.116591 
L 264.053587 255.59241 
" style="fill:none;stroke:#808080;stroke-linecap:square;"/>
   </g>
   <g id="line2d_38">
    <path clip-path="url(#pad2ffea558)" d="M 264.053587 253.484913 
L 264.053587 253.374566 
L 264.053587 252.540403 
L 264.053587 251.781668 
L 264.053587 251.46743 
L 264.053587 250.701466 
L 264.053587 249.934489 
L 264.053587 249.357465 
L 264.053587 248.750013 
L 264.053587 248.567616 
L 264.053587 247.568284 
L 264.053587 247.305988 
L 264.053587 246.539706 
L 264.053587 245.995127 
L 264.053587 245.444673 
L 264.053587 244.834061 
L 264.053587 244.044213 
L 264.053587 243.663684 
L 264.053587 242.608438 
L 264.053587 242.462162 
L 264.053587 241.563368 
L 264.053587 240.76493 
L 264.053587 240.531906 
L 264.053587 239.951089 
L 264.053587 239.48343 
L 264.053587 238.83005 
L 264.053587 237.866845 
L 264.053587 237.644129 
L 264.053587 236.991722 
L 264.053587 236.290919 
L 264.053587 235.443542 
L 264.053587 234.705678 
L 264.053587 234.419838 
L 264.053587 233.541161 
L 264.053587 233.197565 
L 264.053587 232.570157 
L 264.053587 231.854201 
L 264.053587 231.48552 
L 264.053587 231.035171 
L 264.053587 230.045133 
L 264.053587 229.482542 
L 264.053587 229.201641 
L 264.053587 228.388971 
L 264.053587 227.914906 
L 264.053587 226.904223 
L 264.053587 226.540351 
L 264.053587 226.129963 
L 264.053587 225.23532 
L 264.053587 224.83456 
L 264.053587 224.072625 
L 264.053587 223.767858 
L 264.053587 222.997771 
L 264.053587 222.239046 
L 264.053587 221.748704 
L 264.053587 221.152044 
L 264.053587 220.398031 
L 264.053587 220.182351 
L 264.053587 219.199219 
L 264.053587 218.452825 
L 264.053587 218.096893 
L 264.053587 217.237265 
L 264.053587 217.078097 
L 264.053587 216.085209 
L 264.053587 215.449365 
L 264.053587 214.947253 
L 264.053587 214.376258 
L 264.053587 213.729787 
L 264.053587 213.318283 
L 264.053587 212.409264 
L 264.053587 211.987858 
L 264.053587 211.498662 
L 264.053587 210.54608 
L 264.053587 210.11007 
L 264.053587 209.393025 
L 264.053587 208.96005 
L 264.053587 208.510555 
L 264.053587 207.826128 
L 264.053587 207.227042 
L 264.053587 206.699685 
L 264.053587 206.282418 
L 264.053587 205.189555 
L 264.053587 204.628241 
L 264.053587 204.068393 
L 264.053587 203.809644 
L 264.053587 202.741057 
L 264.053587 202.197389 
L 264.053587 201.514755 
L 264.053587 201.172318 
" style="fill:none;stroke:#808080;stroke-linecap:square;"/>
   </g>
   <g id="patch_15">
    <path d="M 143.862204 332.517462 
L 143.862204 2.52 
" style="fill:none;stroke:#000000;stroke-linecap:square;stroke-linejoin:miter;stroke-width:0.8;"/>
   </g>
   <g id="patch_16">
    <path d="M 65.401269 321.363701 
L 395.398731 321.363701 
" style="fill:none;stroke:#000000;stroke-linecap:square;stroke-linejoin:miter;stroke-width:0.8;"/>
   </g>
  </g>
 </g>
 <defs>
  <clipPath id="pad2ffea558">
   <rect height="329.997462" width="329.997462" x="65.401269" y="2.52"/>
  </clipPath>
 </defs>
</svg>
