<?xml version="1.0" encoding="utf-8" standalone="no"?>
<!DOCTYPE svg PUBLIC "-//W3C//DTD SVG 1.1//EN"
  "http://www.w3.org/Graphics/SVG/1.1/DTD/svg11.dtd">
<!-- Created with matplotlib (http://matplotlib.org/) -->
<svg height="345.6pt" version="1.1" viewBox="0 0 460.8 345.6" width="460.8pt" xmlns="http://www.w3.org/2000/svg" xmlns:xlink="http://www.w3.org/1999/xlink">
 <defs>
  <style type="text/css">
*{stroke-linecap:butt;stroke-linejoin:round;}
  </style>
 </defs>
 <g id="figure_1">
  <g id="patch_1">
   <path d="M 0 345.6 
L 460.8 345.6 
L 460.8 0 
L 0 0 
z
" style="fill:#ffffff;"/>
  </g>
  <g id="axes_1">
   <g id="patch_2">
    <path d="M 65.401269 332.517462 
L 395.398731 332.517462 
L 395.398731 2.52 
L 65.401269 2.52 
z
" style="fill:#ffffff;"/>
   </g>
   <g id="patch_3">
    <path clip-path="url(#ped128c75de)" d="M 143.862204 80.980935 
L 264.053587 80.980935 
L 264.053587 76.17328 
L 143.862204 76.17328 
z
" style="fill:#808080;opacity:0.35;"/>
   </g>
   <g id="patch_4">
    <path clip-path="url(#ped128c75de)" d="M 143.862204 321.363701 
L 143.862204 201.172318 
L 139.054549 201.172318 
L 139.054549 321.363701 
z
" style="fill:#808080;opacity:0.35;"/>
   </g>
   <g id="patch_5">
    <path clip-path="url(#ped128c75de)" d="M 143.862204 321.363701 
L 264.053587 321.363701 
L 268.861243 326.171357 
L 148.669859 326.171357 
z
" style="fill:#808080;opacity:0.35;"/>
   </g>
   <g id="patch_6">
    <path clip-path="url(#ped128c75de)" d="M 143.862204 80.980935 
L 264.053587 80.980935 
L 264.053587 76.17328 
L 143.862204 76.17328 
z
" style="fill:#808080;opacity:0.35;"/>
   </g>
   <g id="patch_7">
    <path clip-path="url(#ped128c75de)" d="M 143.862204 201.172318 
L 143.862204 80.980935 
L 139.054549 80.980935 
L 139.054549 201.172318 
z
" style="fill:#808080;opacity:0.35;"/>
   </g>
   <g id="patch_8">
    <path clip-path="url(#ped128c75de)" d="M 264.053587 321.363701 
L 384.24497 321.363701 
L 389.052626 326.171357 
L 268.861243 326.171357 
z
" style="fill:#808080;opacity:0.35;"/>
   </g>
   <g id="patch_9">
    <path clip-path="url(#ped128c75de)" d="M 264.053587 80.980935 
L 384.24497 80.980935 
L 384.24497 76.17328 
L 264.053587 76.17328 
z
" style="fill:#808080;opacity:0.35;"/>
   </g>
   <g id="patch_10">
    <path clip-path="url(#ped128c75de)" d="M 143.862204 321.363701 
L 143.862204 201.172318 
L 139.054549 201.172318 
L 139.054549 321.363701 
z
" style="fill:#808080;opacity:0.35;"/>
   </g>
   <g id="patch_11">
    <path clip-path="url(#ped128c75de)" d="M 264.053587 321.363701 
L 384.24497 321.363701 
L 389.052626 326.171357 
L 268.861243 326.171357 
z
" style="fill:#808080;opacity:0.35;"/>
   </g>
   <g id="line2d_1">
    <path clip-path="url(#ped128c75de)" d="M 143.862204 321.363701 
L 143.862204 80.980935 
" style="fill:none;stroke:#000000;stroke-linecap:square;"/>
   </g>
   <g id="line2d_2">
    <path clip-path="url(#ped128c75de)" d="M 143.862204 321.363701 
L 143.862204 80.980935 
" style="fill:none;stroke:#ffffff;stroke-linecap:square;"/>
   </g>
   <g id="line2d_3">
    <path clip-path="url(#ped128c75de)" d="M 143.862204 80.980935 
L 264.053587 80.980935 
" style="fill:none;stroke:#000000;stroke-linecap:square;"/>
   </g>
   <g id="line2d_4">
    <path clip-path="url(#ped128c75de)" d="M 143.862204 321.363701 
L 143.862204 201.172318 
" style="fill:none;stroke:#000000;stroke-linecap:square;"/>
   </g>
   <g id="line2d_5">
    <path clip-path="url(#ped128c75de)" d="M 264.053587 8.866105 
L 384.24497 8.866105 
" style="fill:none;stroke:#000000;stroke-linecap:square;"/>
   </g>
   <g id="line2d_6">
    <path clip-path="url(#ped128c75de)" d="M 71.747374 201.172318 
L 71.747374 80.980935 
" style="fill:none;stroke:#000000;stroke-linecap:square;"/>
   </g>
   <g id="line2d_7">
    <path clip-path="url(#ped128c75de)" d="M 143.862204 80.980935 
L 264.053587 80.980935 
" style="fill:none;stroke:#ff0000;stroke-linecap:square;"/>
   </g>
   <g id="line2d_8">
    <path clip-path="url(#ped128c75de)" d="M 143.862204 321.363701 
L 143.862204 201.172318 
" style="fill:none;stroke:#ff0000;stroke-linecap:square;"/>
   </g>
   <g id="line2d_9">
    <path clip-path="url(#ped128c75de)" d="M 264.053587 8.866105 
L 384.24497 8.866105 
" style="fill:none;stroke:#ff0000;stroke-linecap:square;"/>
   </g>
   <g id="line2d_10">
    <path clip-path="url(#ped128c75de)" d="M 71.747374 201.172318 
L 71.747374 80.980935 
" style="fill:none;stroke:#ff0000;stroke-linecap:square;"/>
   </g>
   <g id="PathCollection_1">
    <defs>
     <path d="M 0 2.397916 
C 0.635935 2.397916 1.245909 2.145256 1.695582 1.695582 
C 2.145256 1.245909 2.397916 0.635935 2.397916 0 
C 2.397916 -0.635935 2.145256 -1.245909 1.695582 -1.695582 
C 1.245909 -2.145256 0.635935 -2.397916 0 -2.397916 
C -0.635935 -2.397916 -1.245909 -2.145256 -1.695582 -1.695582 
C -2.145256 -1.245909 -2.397916 -0.635935 -2.397916 0 
C -2.397916 0.635935 -2.145256 1.245909 -1.695582 1.695582 
C -1.245909 2.145256 -0.635935 2.397916 0 2.397916 
z
" id="C0_0_dac2b88d11"/>
    </defs>
    <g clip-path="url(#ped128c75de)">
     <use x="264.053587" xlink:href="#C0_0_dac2b88d11" y="80.980935"/>
    </g>
    <g clip-path="url(#ped128c75de)">
     <use x="143.862204" xlink:href="#C0_0_dac2b88d11" y="201.172318"/>
    </g>
   </g>
   <g id="PathCollection_2">
    <defs>
     <path d="M 0 1.581139 
C 0.419323 1.581139 0.821528 1.41454 1.118034 1.118034 
C 1.41454 0.821528 1.581139 0.419323 1.581139 0 
C 1.581139 -0.419323 1.41454 -0.821528 1.118034 -1.118034 
C 0.821528 -1.41454 0.419323 -1.581139 0 -1.581139 
C -0.419323 -1.581139 -0.821528 -1.41454 -1.118034 -1.118034 
C -1.41454 -0.821528 -1.581139 -0.419323 -1.581139 0 
C -1.581139 0.419323 -1.41454 0.821528 -1.118034 1.118034 
C -0.821528 1.41454 -0.419323 1.581139 0 1.581139 
z
" id="C1_0_bf112362af"/>
    </defs>
    <g clip-path="url(#ped128c75de)">
     <use style="fill:#ffffff;" x="264.053587" xlink:href="#C1_0_bf112362af" y="80.980935"/>
    </g>
    <g clip-path="url(#ped128c75de)">
     <use style="fill:#ffffff;" x="143.862204" xlink:href="#C1_0_bf112362af" y="201.172318"/>
    </g>
   </g>
   <g id="PathCollection_3">
    <defs>
     <path d="M 0 2.397916 
C 0.635935 2.397916 1.245909 2.145256 1.695582 1.695582 
C 2.145256 1.245909 2.397916 0.635935 2.397916 0 
C 2.397916 -0.635935 2.145256 -1.245909 1.695582 -1.695582 
C 1.245909 -2.145256 0.635935 -2.397916 0 -2.397916 
C -0.635935 -2.397916 -1.245909 -2.145256 -1.695582 -1.695582 
C -2.145256 -1.245909 -2.397916 -0.635935 -2.397916 0 
C -2.397916 0.635935 -2.145256 1.245909 -1.695582 1.695582 
C -1.245909 2.145256 -0.635935 2.397916 0 2.397916 
z
" id="C2_0_7f96b0d7c5"/>
    </defs>
    <g clip-path="url(#ped128c75de)">
     <use x="264.053587" xlink:href="#C2_0_7f96b0d7c5" y="44.92352"/>
    </g>
    <g clip-path="url(#ped128c75de)">
     <use x="107.804789" xlink:href="#C2_0_7f96b0d7c5" y="201.172318"/>
    </g>
   </g>
   <g id="PathCollection_4">
    <defs>
     <path d="M 0 2.397916 
C 0.635935 2.397916 1.245909 2.145256 1.695582 1.695582 
C 2.145256 1.245909 2.397916 0.635935 2.397916 0 
C 2.397916 -0.635935 2.145256 -1.245909 1.695582 -1.695582 
C 1.245909 -2.145256 0.635935 -2.397916 0 -2.397916 
C -0.635935 -2.397916 -1.245909 -2.145256 -1.695582 -1.695582 
C -2.145256 -1.245909 -2.397916 -0.635935 -2.397916 0 
C -2.397916 0.635935 -2.145256 1.245909 -1.695582 1.695582 
C -1.245909 2.145256 -0.635935 2.397916 0 2.397916 
z
" id="C3_0_b5071da4eb"/>
    </defs>
    <g clip-path="url(#ped128c75de)">
     <use x="264.053587" xlink:href="#C3_0_b5071da4eb" y="8.866105"/>
    </g>
    <g clip-path="url(#ped128c75de)">
     <use x="71.747374" xlink:href="#C3_0_b5071da4eb" y="201.172318"/>
    </g>
   </g>
   <g id="PathCollection_5">
    <defs>
     <path d="M 0 1.581139 
C 0.419323 1.581139 0.821528 1.41454 1.118034 1.118034 
C 1.41454 0.821528 1.581139 0.419323 1.581139 0 
C 1.581139 -0.419323 1.41454 -0.821528 1.118034 -1.118034 
C 0.821528 -1.41454 0.419323 -1.581139 0 -1.581139 
C -0.419323 -1.581139 -0.821528 -1.41454 -1.118034 -1.118034 
C -1.41454 -0.821528 -1.581139 -0.419323 -1.581139 0 
C -1.581139 0.419323 -1.41454 0.821528 -1.118034 1.118034 
C -0.821528 1.41454 -0.419323 1.581139 0 1.581139 
z
" id="C4_0_50cc6f683f"/>
    </defs>
    <g clip-path="url(#ped128c75de)">
     <use style="fill:#ffffff;" x="264.053587" xlink:href="#C4_0_50cc6f683f" y="8.866105"/>
    </g>
    <g clip-path="url(#ped128c75de)">
     <use style="fill:#ffffff;" x="71.747374" xlink:href="#C4_0_50cc6f683f" y="201.172318"/>
    </g>
   </g>
   <g id="PathCollection_6">
    <path clip-path="url(#ped128c75de)" d="M 264.053587 203.910931 
C 264.779876 203.910931 265.476515 203.622373 265.990079 203.10881 
C 266.503643 202.595246 266.7922 201.898607 266.7922 201.172318 
C 266.7922 200.446029 266.503643 199.74939 265.990079 199.235826 
C 265.476515 198.722263 264.779876 198.433705 264.053587 198.433705 
C 263.327299 198.433705 262.630659 198.722263 262.117096 199.235826 
C 261.603532 199.74939 261.314974 200.446029 261.314974 201.172318 
C 261.314974 201.898607 261.603532 202.595246 262.117096 203.10881 
C 262.630659 203.622373 263.327299 203.910931 264.053587 203.910931 
z
" style="fill:#00fa9a;"/>
   </g>
   <g id="PathCollection_7">
    <path clip-path="url(#ped128c75de)" d="M 264.053587 203.910931 
C 264.779876 203.910931 265.476515 203.622373 265.990079 203.10881 
C 266.503643 202.595246 266.7922 201.898607 266.7922 201.172318 
C 266.7922 200.446029 266.503643 199.74939 265.990079 199.235826 
C 265.476515 198.722263 264.779876 198.433705 264.053587 198.433705 
C 263.327299 198.433705 262.630659 198.722263 262.117096 199.235826 
C 261.603532 199.74939 261.314974 200.446029 261.314974 201.172318 
C 261.314974 201.898607 261.603532 202.595246 262.117096 203.10881 
C 262.630659 203.622373 263.327299 203.910931 264.053587 203.910931 
z
" style="fill:#00fa9a;"/>
   </g>
   <g id="patch_12">
    <path clip-path="url(#ped128c75de)" d="M 143.862204 321.363701 
L 143.862204 201.172318 
L 264.053587 321.363701 
z
" style="fill:#ff0000;"/>
   </g>
   <g id="patch_13">
    <path clip-path="url(#ped128c75de)" d="M 143.862204 201.172318 
L 143.862204 80.980935 
L 264.053587 201.172318 
z
" style="fill:#ff0000;"/>
   </g>
   <g id="patch_14">
    <path clip-path="url(#ped128c75de)" d="M 264.053587 321.363701 
L 384.24497 321.363701 
L 264.053587 201.172318 
z
" style="fill:#ff0000;"/>
   </g>
   <g id="matplotlib.axis_1">
    <g id="xtick_1">
     <g id="line2d_11">
      <path clip-path="url(#ped128c75de)" d="M 143.862204 332.517462 
L 143.862204 2.52 
" style="fill:none;stroke:#000000;stroke-dasharray:0.5,0.825;stroke-dashoffset:0;stroke-width:0.5;"/>
     </g>
     <g id="line2d_12">
      <defs>
       <path d="M 0 0 
L 0 3.5 
" id="m83fe811950" style="stroke:#000000;stroke-width:0.8;"/>
      </defs>
      <g>
       <use style="stroke:#000000;stroke-width:0.8;" x="143.862204" xlink:href="#m83fe811950" y="321.363701"/>
      </g>
     </g>
    </g>
    <g id="xtick_2">
     <g id="line2d_13">
      <path clip-path="url(#ped128c75de)" d="M 264.053587 332.517462 
L 264.053587 2.52 
" style="fill:none;stroke:#000000;stroke-dasharray:0.5,0.825;stroke-dashoffset:0;stroke-width:0.5;"/>
     </g>
     <g id="line2d_14">
      <g>
       <use style="stroke:#000000;stroke-width:0.8;" x="264.053587" xlink:href="#m83fe811950" y="321.363701"/>
      </g>
     </g>
     <g id="text_1">
      <!-- $\frac{1}{2}$ -->
      <defs>
       <path d="M 9.28125 0 
L 9.28125 3.515625 
Q 21.78125 3.515625 21.78125 6.6875 
L 21.78125 59.1875 
Q 16.609375 56.6875 8.6875 56.6875 
L 8.6875 60.203125 
Q 20.953125 60.203125 27.203125 66.609375 
L 28.609375 66.609375 
Q 28.953125 66.609375 29.265625 66.328125 
Q 29.59375 66.0625 29.59375 65.71875 
L 29.59375 6.6875 
Q 29.59375 3.515625 42.09375 3.515625 
L 42.09375 0 
z
" id="Cmr10-31"/>
       <path d="M 4.984375 0 
L 4.984375 2.6875 
Q 4.984375 2.9375 5.171875 3.21875 
L 20.703125 20.40625 
Q 24.21875 24.21875 26.40625 26.796875 
Q 28.609375 29.390625 30.75 32.765625 
Q 32.90625 36.140625 34.15625 39.625 
Q 35.40625 43.109375 35.40625 47.015625 
Q 35.40625 51.125 33.890625 54.859375 
Q 32.375 58.59375 29.375 60.84375 
Q 26.375 63.09375 22.125 63.09375 
Q 17.78125 63.09375 14.3125 60.46875 
Q 10.84375 57.859375 9.421875 53.71875 
Q 9.8125 53.8125 10.5 53.8125 
Q 12.75 53.8125 14.328125 52.296875 
Q 15.921875 50.78125 15.921875 48.390625 
Q 15.921875 46.09375 14.328125 44.5 
Q 12.75 42.921875 10.5 42.921875 
Q 8.15625 42.921875 6.5625 44.546875 
Q 4.984375 46.1875 4.984375 48.390625 
Q 4.984375 52.15625 6.390625 55.4375 
Q 7.8125 58.734375 10.46875 61.296875 
Q 13.140625 63.875 16.484375 65.234375 
Q 19.828125 66.609375 23.578125 66.609375 
Q 29.296875 66.609375 34.21875 64.1875 
Q 39.15625 61.765625 42.03125 57.34375 
Q 44.921875 52.9375 44.921875 47.015625 
Q 44.921875 42.671875 43.015625 38.765625 
Q 41.109375 34.859375 38.125 31.65625 
Q 35.15625 28.46875 30.515625 24.40625 
Q 25.875 20.359375 24.421875 19 
L 13.09375 8.109375 
L 22.703125 8.109375 
Q 29.78125 8.109375 34.546875 8.21875 
Q 39.3125 8.34375 39.59375 8.59375 
Q 40.765625 9.859375 42 17.828125 
L 44.921875 17.828125 
L 42.09375 0 
z
" id="Cmr10-32"/>
      </defs>
      <g transform="translate(261.653587 336.863701)scale(0.1 -0.1)">
       <use transform="translate(0 38.373438)scale(0.7)" xlink:href="#Cmr10-31"/>
       <use transform="translate(0 -39.503125)scale(0.7)" xlink:href="#Cmr10-32"/>
       <path d="M 0 13.373437 
L 0 19.623437 
L 35 19.623437 
L 35 13.373437 
L 0 13.373437 
z
"/>
      </g>
     </g>
    </g>
    <g id="xtick_3">
     <g id="line2d_15">
      <path clip-path="url(#ped128c75de)" d="M 384.24497 332.517462 
L 384.24497 2.52 
" style="fill:none;stroke:#000000;stroke-dasharray:0.5,0.825;stroke-dashoffset:0;stroke-width:0.5;"/>
     </g>
     <g id="line2d_16">
      <g>
       <use style="stroke:#000000;stroke-width:0.8;" x="384.24497" xlink:href="#m83fe811950" y="321.363701"/>
      </g>
     </g>
     <g id="text_2">
      <!-- $1$ -->
      <g transform="translate(381.74497 335.962139)scale(0.1 -0.1)">
       <use transform="translate(0 0.390625)" xlink:href="#Cmr10-31"/>
      </g>
     </g>
    </g>
   </g>
   <g id="matplotlib.axis_2">
    <g id="ytick_1">
     <g id="line2d_17">
      <path clip-path="url(#ped128c75de)" d="M 65.401269 321.363701 
L 395.398731 321.363701 
" style="fill:none;stroke:#000000;stroke-dasharray:0.5,0.825;stroke-dashoffset:0;stroke-width:0.5;"/>
     </g>
     <g id="line2d_18">
      <defs>
       <path d="M 0 0 
L -3.5 0 
" id="m0299ea90b9" style="stroke:#000000;stroke-width:0.8;"/>
      </defs>
      <g>
       <use style="stroke:#000000;stroke-width:0.8;" x="143.862204" xlink:href="#m0299ea90b9" y="321.363701"/>
      </g>
     </g>
    </g>
    <g id="ytick_2">
     <g id="line2d_19">
      <path clip-path="url(#ped128c75de)" d="M 65.401269 201.172318 
L 395.398731 201.172318 
" style="fill:none;stroke:#000000;stroke-dasharray:0.5,0.825;stroke-dashoffset:0;stroke-width:0.5;"/>
     </g>
     <g id="line2d_20">
      <g>
       <use style="stroke:#000000;stroke-width:0.8;" x="143.862204" xlink:href="#m0299ea90b9" y="201.172318"/>
      </g>
     </g>
     <g id="text_3">
      <!-- $\frac{1}{2}$ -->
      <g transform="translate(132.062204 205.422318)scale(0.1 -0.1)">
       <use transform="translate(0 38.373438)scale(0.7)" xlink:href="#Cmr10-31"/>
       <use transform="translate(0 -39.503125)scale(0.7)" xlink:href="#Cmr10-32"/>
       <path d="M 0 13.373437 
L 0 19.623437 
L 35 19.623437 
L 35 13.373437 
L 0 13.373437 
z
"/>
      </g>
     </g>
    </g>
    <g id="ytick_3">
     <g id="line2d_21">
      <path clip-path="url(#ped128c75de)" d="M 65.401269 80.980935 
L 395.398731 80.980935 
" style="fill:none;stroke:#000000;stroke-dasharray:0.5,0.825;stroke-dashoffset:0;stroke-width:0.5;"/>
     </g>
     <g id="line2d_22">
      <g>
       <use style="stroke:#000000;stroke-width:0.8;" x="143.862204" xlink:href="#m0299ea90b9" y="80.980935"/>
      </g>
     </g>
     <g id="text_4">
      <!-- $1$ -->
      <g transform="translate(131.862204 84.780154)scale(0.1 -0.1)">
       <use transform="translate(0 0.390625)" xlink:href="#Cmr10-31"/>
      </g>
     </g>
    </g>
   </g>
   <g id="line2d_23">
    <path clip-path="url(#ped128c75de)" d="M 143.862204 321.363701 
L 143.862204 201.172318 
" style="fill:none;stroke:#00fa9a;stroke-linecap:square;stroke-width:2;"/>
   </g>
   <g id="line2d_24">
    <path clip-path="url(#ped128c75de)" d="M 143.862204 321.363701 
L 264.053587 321.363701 
" style="fill:none;stroke:#00fa9a;stroke-linecap:square;stroke-width:2;"/>
   </g>
   <g id="line2d_25">
    <path clip-path="url(#ped128c75de)" d="M 143.862204 201.172318 
L 143.862204 80.980935 
" style="fill:none;stroke:#00fa9a;stroke-linecap:square;stroke-width:2;"/>
   </g>
   <g id="line2d_26">
    <path clip-path="url(#ped128c75de)" d="M 264.053587 321.363701 
L 384.24497 321.363701 
" style="fill:none;stroke:#00fa9a;stroke-linecap:square;stroke-width:2;"/>
   </g>
   <g id="line2d_27">
    <path clip-path="url(#ped128c75de)" d="M 264.053587 321.363701 
L 264.053587 201.172318 
" style="fill:none;stroke:#00fa9a;stroke-linecap:square;stroke-width:2;"/>
   </g>
   <g id="line2d_28">
    <path clip-path="url(#ped128c75de)" d="M 143.862204 201.172318 
L 264.053587 201.172318 
" style="fill:none;stroke:#00fa9a;stroke-linecap:square;stroke-width:2;"/>
   </g>
   <g id="line2d_29">
    <path clip-path="url(#ped128c75de)" d="M 143.862204 201.172318 
L 264.053587 321.363701 
" style="fill:none;stroke:#00fa9a;stroke-linecap:square;stroke-width:2;"/>
   </g>
   <g id="line2d_30">
    <path clip-path="url(#ped128c75de)" d="M 143.862204 80.980935 
L 264.053587 201.172318 
" style="fill:none;stroke:#00fa9a;stroke-linecap:square;stroke-width:2;"/>
   </g>
   <g id="line2d_31">
    <path clip-path="url(#ped128c75de)" d="M 264.053587 201.172318 
L 384.24497 321.363701 
" style="fill:none;stroke:#00fa9a;stroke-linecap:square;stroke-width:2;"/>
   </g>
   <g id="line2d_32">
    <path clip-path="url(#ped128c75de)" d="M 143.862204 201.172318 
L 264.053587 321.363701 
" style="fill:none;stroke:#808080;stroke-linecap:square;"/>
   </g>
   <g id="line2d_33">
    <path clip-path="url(#ped128c75de)" d="M 143.862204 80.980935 
L 384.24497 321.363701 
" style="fill:none;stroke:#808080;stroke-linecap:square;"/>
   </g>
   <g id="line2d_34">
    <path clip-path="url(#ped128c75de)" d="M 143.862204 321.363701 
L 144.825627 321.363701 
L 146.784499 321.363701 
L 147.032743 321.363701 
L 149.031779 321.363701 
L 150.239393 321.363701 
L 151.187847 321.363701 
L 151.771817 321.363701 
L 153.084054 321.363701 
L 155.105767 321.363701 
L 155.825026 321.363701 
L 157.012305 321.363701 
L 158.592987 321.363701 
L 159.558042 321.363701 
L 160.491551 321.363701 
L 161.671338 321.363701 
L 163.311643 321.363701 
L 164.469113 321.363701 
L 165.32783 321.363701 
L 166.325386 321.363701 
L 168.208099 321.363701 
L 169.12301 321.363701 
L 170.883698 321.363701 
L 171.764678 321.363701 
L 172.59497 321.363701 
L 173.860396 321.363701 
L 174.851938 321.363701 
L 176.318842 321.363701 
L 177.62107 321.363701 
L 178.694727 321.363701 
L 179.87743 321.363701 
L 181.527044 321.363701 
L 182.150339 321.363701 
L 183.822004 321.363701 
L 184.454236 321.363701 
L 185.611933 321.363701 
L 187.820877 321.363701 
L 188.485653 321.363701 
L 189.254532 321.363701 
L 190.917883 321.363701 
L 191.63228 321.363701 
L 193.017653 321.363701 
L 195.127949 321.363701 
L 195.201273 321.363701 
L 197.104412 321.363701 
L 198.565236 321.363701 
L 199.682041 321.363701 
L 200.134475 321.363701 
L 201.542249 321.363701 
L 203.13816 321.363701 
L 204.097291 321.363701 
L 205.837089 321.363701 
L 206.316722 321.363701 
L 208.015336 321.363701 
L 209.599094 321.363701 
L 210.016944 321.363701 
L 211.961359 321.363701 
L 212.3271 321.363701 
L 214.37526 321.363701 
L 214.826072 321.363701 
L 216.022683 321.363701 
L 218.067116 321.363701 
L 218.944976 321.363701 
L 219.825066 321.363701 
L 221.336382 321.363701 
L 222.18071 321.363701 
L 223.373558 321.363701 
L 224.294355 321.363701 
L 226.419178 321.363701 
L 226.640596 321.363701 
L 227.96763 321.363701 
L 230.08339 321.363701 
L 230.466629 321.363701 
L 231.440769 321.363701 
L 233.571523 321.363701 
L 234.088803 321.363701 
L 235.307487 321.363701 
L 236.379508 321.363701 
L 238.394368 321.363701 
L 238.946192 321.363701 
L 240.593757 321.363701 
L 241.990947 321.363701 
L 243.476478 321.363701 
L 243.5939 321.363701 
L 245.811206 321.363701 
L 246.010789 321.363701 
L 247.860602 321.363701 
L 248.690667 321.363701 
L 249.790879 321.363701 
L 251.72589 321.363701 
L 252.960697 321.363701 
L 254.250836 321.363701 
" style="fill:none;stroke:#808080;stroke-linecap:square;"/>
   </g>
   <g id="line2d_35">
    <path clip-path="url(#ped128c75de)" d="M 257.088616 321.363701 
L 258.235644 321.363701 
L 260.323139 321.363701 
L 260.973236 321.363701 
L 261.98812 321.363701 
L 263.939613 321.363701 
L 264.980851 321.363701 
L 265.957527 321.363701 
L 267.180258 321.363701 
L 268.245634 321.363701 
L 269.622851 321.363701 
L 270.288178 321.363701 
L 272.455066 321.363701 
L 273.469291 321.363701 
L 274.742426 321.363701 
L 275.261616 321.363701 
L 277.333568 321.363701 
L 278.006922 321.363701 
L 278.635541 321.363701 
L 280.484212 321.363701 
L 281.485217 321.363701 
L 282.878422 321.363701 
L 284.294938 321.363701 
L 285.385752 321.363701 
L 285.992863 321.363701 
L 287.610909 321.363701 
L 288.802531 321.363701 
L 290.034713 321.363701 
L 291.308925 321.363701 
L 292.868442 321.363701 
L 294.104921 321.363701 
L 295.378099 321.363701 
L 295.78992 321.363701 
L 296.741848 321.363701 
L 298.480336 321.363701 
L 300.136934 321.363701 
L 300.460071 321.363701 
L 302.188316 321.363701 
L 303.333515 321.363701 
L 304.113724 321.363701 
L 305.178992 321.363701 
L 306.43189 321.363701 
L 307.865899 321.363701 
L 309.864087 321.363701 
L 310.615216 321.363701 
L 311.371417 321.363701 
L 313.388187 321.363701 
L 313.631208 321.363701 
L 315.140851 321.363701 
L 316.457213 321.363701 
L 317.775812 321.363701 
L 318.985729 321.363701 
L 320.13933 321.363701 
L 321.412407 321.363701 
L 322.835144 321.363701 
L 323.381245 321.363701 
L 325.553921 321.363701 
L 325.681437 321.363701 
L 327.349026 321.363701 
L 329.084755 321.363701 
L 329.934861 321.363701 
L 330.777962 321.363701 
L 331.945572 321.363701 
L 333.91487 321.363701 
L 335.222841 321.363701 
L 336.05154 321.363701 
L 337.459406 321.363701 
L 338.880642 321.363701 
L 339.213634 321.363701 
L 341.312282 321.363701 
L 341.752568 321.363701 
L 343.719757 321.363701 
L 343.909119 321.363701 
L 345.892915 321.363701 
L 347.0488 321.363701 
L 347.622126 321.363701 
L 349.228901 321.363701 
L 350.793514 321.363701 
L 352.065991 321.363701 
L 352.263942 321.363701 
L 353.945703 321.363701 
L 355.697607 321.363701 
L 356.164407 321.363701 
L 358.259826 321.363701 
L 358.596219 321.363701 
L 360.099137 321.363701 
L 361.718643 321.363701 
L 362.447038 321.363701 
L 363.138501 321.363701 
L 364.742916 321.363701 
L 365.692624 321.363701 
L 367.841861 321.363701 
L 368.675832 321.363701 
L 369.594693 321.363701 
L 370.430365 321.363701 
L 372.295411 321.363701 
L 373.679909 321.363701 
L 374.871294 321.363701 
L 375.796913 321.363701 
L 376.878884 321.363701 
L 378.677644 321.363701 
L 379.290134 321.363701 
L 380.653564 321.363701 
L 381.594136 321.363701 
L 382.501658 321.363701 
L 384.24497 321.363701 
" style="fill:none;stroke:#808080;stroke-linecap:square;"/>
   </g>
   <g id="line2d_36">
    <path clip-path="url(#ped128c75de)" d="M 143.862204 201.172318 
L 264.053587 201.172318 
L 264.053587 201.172318 
" style="fill:none;stroke:#808080;stroke-linecap:square;"/>
   </g>
   <g id="line2d_37">
    <path clip-path="url(#ped128c75de)" d="M 143.862204 321.363701 
L 143.862204 80.980935 
L 143.862204 80.980935 
" style="fill:none;stroke:#808080;stroke-linecap:square;"/>
   </g>
   <g id="line2d_38">
    <path clip-path="url(#ped128c75de)" d="M 264.053587 321.363701 
L 264.053587 201.172318 
L 264.053587 201.172318 
" style="fill:none;stroke:#808080;stroke-linecap:square;"/>
   </g>
   <g id="patch_15">
    <path d="M 143.862204 332.517462 
L 143.862204 2.52 
" style="fill:none;stroke:#000000;stroke-linecap:square;stroke-linejoin:miter;stroke-width:0.8;"/>
   </g>
   <g id="patch_16">
    <path d="M 65.401269 321.363701 
L 395.398731 321.363701 
" style="fill:none;stroke:#000000;stroke-linecap:square;stroke-linejoin:miter;stroke-width:0.8;"/>
   </g>
  </g>
 </g>
 <defs>
  <clipPath id="ped128c75de">
   <rect height="329.997462" width="329.997462" x="65.401269" y="2.52"/>
  </clipPath>
 </defs>
</svg>
