<?xml version="1.0" encoding="utf-8" standalone="no"?>
<!DOCTYPE svg PUBLIC "-//W3C//DTD SVG 1.1//EN"
  "http://www.w3.org/Graphics/SVG/1.1/DTD/svg11.dtd">
<!-- Created with matplotlib (http://matplotlib.org/) -->
<svg height="345.6pt" version="1.1" viewBox="0 0 460.8 345.6" width="460.8pt" xmlns="http://www.w3.org/2000/svg" xmlns:xlink="http://www.w3.org/1999/xlink">
 <defs>
  <style type="text/css">
*{stroke-linecap:butt;stroke-linejoin:round;}
  </style>
 </defs>
 <g id="figure_1">
  <g id="patch_1">
   <path d="M 0 345.6 
L 460.8 345.6 
L 460.8 0 
L 0 0 
z
" style="fill:#ffffff;"/>
  </g>
  <g id="axes_1">
   <g id="patch_2">
    <path d="M 65.653269 332.013462 
L 395.146731 332.013462 
L 395.146731 2.52 
L 65.653269 2.52 
z
" style="fill:#ffffff;"/>
   </g>
   <g id="patch_3">
    <path clip-path="url(#p98f2a502c3)" d="M 143.994372 80.861103 
L 250.667987 80.861103 
L 250.667987 76.06079 
L 143.994372 76.06079 
z
" style="fill:#808080;opacity:0.35;"/>
   </g>
   <g id="patch_4">
    <path clip-path="url(#p98f2a502c3)" d="M 143.994372 320.876736 
L 143.994372 214.203121 
L 139.194059 214.203121 
L 139.194059 320.876736 
z
" style="fill:#808080;opacity:0.35;"/>
   </g>
   <g id="patch_5">
    <path clip-path="url(#p98f2a502c3)" d="M 143.994372 320.876736 
L 250.667987 320.876736 
L 255.468299 325.677049 
L 148.794685 325.677049 
z
" style="fill:#808080;opacity:0.35;"/>
   </g>
   <g id="patch_6">
    <path clip-path="url(#p98f2a502c3)" d="M 143.994372 80.861103 
L 250.667987 80.861103 
L 250.667987 76.06079 
L 143.994372 76.06079 
z
" style="fill:#808080;opacity:0.35;"/>
   </g>
   <g id="patch_7">
    <path clip-path="url(#p98f2a502c3)" d="M 143.994372 187.534718 
L 143.994372 80.861103 
L 139.194059 80.861103 
L 139.194059 187.534718 
z
" style="fill:#808080;opacity:0.35;"/>
   </g>
   <g id="patch_8">
    <path clip-path="url(#p98f2a502c3)" d="M 277.336391 320.876736 
L 384.010005 320.876736 
L 388.810318 325.677049 
L 282.136703 325.677049 
z
" style="fill:#808080;opacity:0.35;"/>
   </g>
   <g id="patch_9">
    <path clip-path="url(#p98f2a502c3)" d="M 277.336391 80.861103 
L 384.010005 80.861103 
L 384.010005 76.06079 
L 277.336391 76.06079 
z
" style="fill:#808080;opacity:0.35;"/>
   </g>
   <g id="patch_10">
    <path clip-path="url(#p98f2a502c3)" d="M 143.994372 320.876736 
L 143.994372 214.203121 
L 139.194059 214.203121 
L 139.194059 320.876736 
z
" style="fill:#808080;opacity:0.35;"/>
   </g>
   <g id="patch_11">
    <path clip-path="url(#p98f2a502c3)" d="M 277.336391 320.876736 
L 384.010005 320.876736 
L 388.810318 325.677049 
L 282.136703 325.677049 
z
" style="fill:#808080;opacity:0.35;"/>
   </g>
   <g id="line2d_1">
    <path clip-path="url(#p98f2a502c3)" d="M 143.994372 320.876736 
L 143.994372 80.861103 
" style="fill:none;stroke:#000000;stroke-linecap:square;"/>
   </g>
   <g id="line2d_2">
    <path clip-path="url(#p98f2a502c3)" d="M 143.994372 320.876736 
L 143.994372 80.861103 
" style="fill:none;stroke:#ffffff;stroke-linecap:square;"/>
   </g>
   <g id="line2d_3">
    <path clip-path="url(#p98f2a502c3)" d="M 143.994372 80.861103 
L 250.667987 80.861103 
" style="fill:none;stroke:#000000;stroke-linecap:square;"/>
   </g>
   <g id="line2d_4">
    <path clip-path="url(#p98f2a502c3)" d="M 143.994372 320.876736 
L 143.994372 214.203121 
" style="fill:none;stroke:#000000;stroke-linecap:square;"/>
   </g>
   <g id="line2d_5">
    <path clip-path="url(#p98f2a502c3)" d="M 250.667987 80.861103 
L 277.336391 8.856413 
" style="fill:none;stroke:#000000;stroke-linecap:square;"/>
   </g>
   <g id="line2d_6">
    <path clip-path="url(#p98f2a502c3)" d="M 143.994372 214.203121 
L 71.989682 187.534718 
" style="fill:none;stroke:#000000;stroke-linecap:square;"/>
   </g>
   <g id="line2d_7">
    <path clip-path="url(#p98f2a502c3)" d="M 277.336391 8.856413 
L 384.010005 8.856413 
" style="fill:none;stroke:#000000;stroke-linecap:square;"/>
   </g>
   <g id="line2d_8">
    <path clip-path="url(#p98f2a502c3)" d="M 71.989682 187.534718 
L 71.989682 80.861103 
" style="fill:none;stroke:#000000;stroke-linecap:square;"/>
   </g>
   <g id="line2d_9">
    <path clip-path="url(#p98f2a502c3)" d="M 143.994372 80.861103 
L 250.667987 80.861103 
" style="fill:none;stroke:#ff0000;stroke-linecap:square;"/>
   </g>
   <g id="line2d_10">
    <path clip-path="url(#p98f2a502c3)" d="M 143.994372 320.876736 
L 143.994372 214.203121 
" style="fill:none;stroke:#ff0000;stroke-linecap:square;"/>
   </g>
   <g id="line2d_11">
    <path clip-path="url(#p98f2a502c3)" d="M 277.336391 8.856413 
L 384.010005 8.856413 
" style="fill:none;stroke:#ff0000;stroke-linecap:square;"/>
   </g>
   <g id="line2d_12">
    <path clip-path="url(#p98f2a502c3)" d="M 71.989682 187.534718 
L 71.989682 80.861103 
" style="fill:none;stroke:#ff0000;stroke-linecap:square;"/>
   </g>
   <g id="patch_12">
    <path clip-path="url(#p98f2a502c3)" d="M 143.994372 320.876736 
L 143.994372 214.203121 
L 250.667987 320.876736 
z
" style="fill:#ff0000;"/>
   </g>
   <g id="patch_13">
    <path clip-path="url(#p98f2a502c3)" d="M 143.994372 187.534718 
L 143.994372 80.861103 
L 250.667987 187.534718 
z
" style="fill:#ff0000;"/>
   </g>
   <g id="patch_14">
    <path clip-path="url(#p98f2a502c3)" d="M 277.336391 320.876736 
L 384.010005 320.876736 
L 277.336391 214.203121 
z
" style="fill:#ff0000;"/>
   </g>
   <g id="matplotlib.axis_1">
    <g id="xtick_1">
     <g id="line2d_13">
      <path clip-path="url(#p98f2a502c3)" d="M 143.994372 332.013462 
L 143.994372 2.52 
" style="fill:none;stroke:#000000;stroke-dasharray:0.5,0.825;stroke-dashoffset:0;stroke-width:0.5;"/>
     </g>
     <g id="line2d_14">
      <defs>
       <path d="M 0 0 
L 0 3.5 
" id="m4cfc564b98" style="stroke:#000000;stroke-width:0.8;"/>
      </defs>
      <g>
       <use style="stroke:#000000;stroke-width:0.8;" x="143.994372" xlink:href="#m4cfc564b98" y="320.876736"/>
      </g>
     </g>
    </g>
    <g id="xtick_2">
     <g id="line2d_15">
      <path clip-path="url(#p98f2a502c3)" d="M 250.667987 332.013462 
L 250.667987 2.52 
" style="fill:none;stroke:#000000;stroke-dasharray:0.5,0.825;stroke-dashoffset:0;stroke-width:0.5;"/>
     </g>
     <g id="line2d_16">
      <g>
       <use style="stroke:#000000;stroke-width:0.8;" x="250.667987" xlink:href="#m4cfc564b98" y="320.876736"/>
      </g>
     </g>
     <g id="text_1">
      <!-- $\frac{4}{9}$ -->
      <defs>
       <path d="M 2.78125 16.5 
L 2.78125 20.015625 
L 33.6875 66.109375 
Q 34.03125 66.609375 34.71875 66.609375 
L 36.1875 66.609375 
Q 37.3125 66.609375 37.3125 65.484375 
L 37.3125 20.015625 
L 47.125 20.015625 
L 47.125 16.5 
L 37.3125 16.5 
L 37.3125 6.6875 
Q 37.3125 4.640625 40.234375 4.078125 
Q 43.171875 3.515625 47.015625 3.515625 
L 47.015625 0 
L 19.484375 0 
L 19.484375 3.515625 
Q 23.34375 3.515625 26.265625 4.078125 
Q 29.203125 4.640625 29.203125 6.6875 
L 29.203125 16.5 
z
M 6.109375 20.015625 
L 29.78125 20.015625 
L 29.78125 55.421875 
z
" id="Cmr10-34"/>
       <path d="M 11.28125 4.203125 
Q 14.015625 0.984375 20.796875 0.984375 
Q 24.609375 0.984375 27.90625 3.5625 
Q 31.203125 6.15625 33.015625 9.90625 
Q 35.109375 14.15625 35.6875 18.96875 
Q 36.28125 23.78125 36.28125 30.90625 
Q 34.578125 26.859375 31.375 24.265625 
Q 28.171875 21.6875 24.03125 21.6875 
Q 18.21875 21.6875 13.640625 24.828125 
Q 9.078125 27.984375 6.640625 33.125 
Q 4.203125 38.28125 4.203125 44.09375 
Q 4.203125 50.09375 6.9375 55.296875 
Q 9.671875 60.5 14.5 63.546875 
Q 19.34375 66.609375 25.484375 66.609375 
Q 31.546875 66.609375 35.625 63.3125 
Q 39.703125 60.015625 41.84375 54.8125 
Q 44 49.609375 44.84375 43.796875 
Q 45.703125 37.984375 45.703125 32.328125 
Q 45.703125 24.609375 42.875 16.578125 
Q 40.046875 8.546875 34.40625 3.171875 
Q 28.765625 -2.203125 20.796875 -2.203125 
Q 14.890625 -2.203125 10.78125 0.578125 
Q 6.6875 3.375 6.6875 8.984375 
Q 6.6875 11.03125 8.078125 12.421875 
Q 9.46875 13.8125 11.53125 13.8125 
Q 13.53125 13.8125 14.921875 12.421875 
Q 16.3125 11.03125 16.3125 8.984375 
Q 16.3125 7.03125 14.890625 5.609375 
Q 13.484375 4.203125 11.53125 4.203125 
z
M 24.421875 24.3125 
Q 28.515625 24.3125 31.125 27.0625 
Q 33.734375 29.828125 34.90625 33.921875 
Q 36.078125 38.03125 36.078125 42.09375 
L 36.078125 44 
L 36.078125 44.390625 
Q 36.078125 51.90625 33.875 57.8125 
Q 31.6875 63.71875 25.484375 63.71875 
Q 21.53125 63.71875 19.0625 61.984375 
Q 16.609375 60.25 15.4375 57.375 
Q 14.265625 54.5 13.9375 51.21875 
Q 13.625 47.953125 13.625 44.09375 
Q 13.625 38.421875 14.15625 34.421875 
Q 14.703125 30.421875 17.09375 27.359375 
Q 19.484375 24.3125 24.421875 24.3125 
z
" id="Cmr10-39"/>
      </defs>
      <g transform="translate(248.267987 336.376736)scale(0.1 -0.1)">
       <use transform="translate(0 38.373438)scale(0.7)" xlink:href="#Cmr10-34"/>
       <use transform="translate(0 -39.503125)scale(0.7)" xlink:href="#Cmr10-39"/>
       <path d="M 0 13.373437 
L 0 19.623437 
L 35 19.623437 
L 35 13.373437 
L 0 13.373437 
z
"/>
      </g>
     </g>
    </g>
    <g id="xtick_3">
     <g id="line2d_17">
      <path clip-path="url(#p98f2a502c3)" d="M 277.336391 332.013462 
L 277.336391 2.52 
" style="fill:none;stroke:#000000;stroke-dasharray:0.5,0.825;stroke-dashoffset:0;stroke-width:0.5;"/>
     </g>
     <g id="line2d_18">
      <g>
       <use style="stroke:#000000;stroke-width:0.8;" x="277.336391" xlink:href="#m4cfc564b98" y="320.876736"/>
      </g>
     </g>
     <g id="text_2">
      <!-- $\frac{5}{9}$ -->
      <defs>
       <path d="M 8.6875 11.375 
Q 9.71875 8.453125 11.84375 6.046875 
Q 13.96875 3.65625 16.875 2.3125 
Q 19.78125 0.984375 22.90625 0.984375 
Q 30.125 0.984375 32.859375 6.59375 
Q 35.59375 12.203125 35.59375 20.21875 
Q 35.59375 23.6875 35.46875 26.046875 
Q 35.359375 28.421875 34.8125 30.609375 
Q 33.890625 34.125 31.5625 36.765625 
Q 29.25 39.40625 25.875 39.40625 
Q 22.515625 39.40625 20.09375 38.375 
Q 17.671875 37.359375 16.15625 35.984375 
Q 14.65625 34.625 13.484375 33.109375 
Q 12.3125 31.59375 12.015625 31.5 
L 10.890625 31.5 
Q 10.640625 31.5 10.265625 31.8125 
Q 9.90625 32.125 9.90625 32.421875 
L 9.90625 65.828125 
Q 9.90625 66.0625 10.21875 66.328125 
Q 10.546875 66.609375 10.890625 66.609375 
L 11.1875 66.609375 
Q 17.921875 63.375 25.484375 63.375 
Q 32.90625 63.375 39.796875 66.609375 
L 40.09375 66.609375 
Q 40.4375 66.609375 40.71875 66.359375 
Q 41.015625 66.109375 41.015625 65.828125 
L 41.015625 64.890625 
Q 41.015625 64.40625 40.828125 64.40625 
Q 37.40625 59.859375 32.25 57.3125 
Q 27.09375 54.78125 21.578125 54.78125 
Q 17.578125 54.78125 13.375 55.90625 
L 13.375 37.015625 
Q 16.703125 39.703125 19.3125 40.84375 
Q 21.921875 42 25.984375 42 
Q 31.5 42 35.859375 38.8125 
Q 40.234375 35.640625 42.578125 30.53125 
Q 44.921875 25.4375 44.921875 20.125 
Q 44.921875 14.109375 41.96875 8.984375 
Q 39.015625 3.859375 33.9375 0.828125 
Q 28.859375 -2.203125 22.90625 -2.203125 
Q 17.96875 -2.203125 13.84375 0.328125 
Q 9.71875 2.875 7.34375 7.171875 
Q 4.984375 11.46875 4.984375 16.3125 
Q 4.984375 18.5625 6.4375 19.96875 
Q 7.90625 21.390625 10.109375 21.390625 
Q 12.3125 21.390625 13.796875 19.9375 
Q 15.28125 18.5 15.28125 16.3125 
Q 15.28125 14.15625 13.796875 12.671875 
Q 12.3125 11.1875 10.109375 11.1875 
Q 9.765625 11.1875 9.328125 11.25 
Q 8.890625 11.328125 8.6875 11.375 
z
" id="Cmr10-35"/>
      </defs>
      <g transform="translate(274.936391 336.476736)scale(0.1 -0.1)">
       <use transform="translate(0 39.373438)scale(0.7)" xlink:href="#Cmr10-35"/>
       <use transform="translate(0 -40.045312)scale(0.7)" xlink:href="#Cmr10-39"/>
       <path d="M 0 12.83125 
L 0 19.08125 
L 35 19.08125 
L 35 12.83125 
L 0 12.83125 
z
"/>
      </g>
     </g>
    </g>
    <g id="xtick_4">
     <g id="line2d_19">
      <path clip-path="url(#p98f2a502c3)" d="M 384.010005 332.013462 
L 384.010005 2.52 
" style="fill:none;stroke:#000000;stroke-dasharray:0.5,0.825;stroke-dashoffset:0;stroke-width:0.5;"/>
     </g>
     <g id="line2d_20">
      <g>
       <use style="stroke:#000000;stroke-width:0.8;" x="384.010005" xlink:href="#m4cfc564b98" y="320.876736"/>
      </g>
     </g>
     <g id="text_3">
      <!-- $1$ -->
      <defs>
       <path d="M 9.28125 0 
L 9.28125 3.515625 
Q 21.78125 3.515625 21.78125 6.6875 
L 21.78125 59.1875 
Q 16.609375 56.6875 8.6875 56.6875 
L 8.6875 60.203125 
Q 20.953125 60.203125 27.203125 66.609375 
L 28.609375 66.609375 
Q 28.953125 66.609375 29.265625 66.328125 
Q 29.59375 66.0625 29.59375 65.71875 
L 29.59375 6.6875 
Q 29.59375 3.515625 42.09375 3.515625 
L 42.09375 0 
z
" id="Cmr10-31"/>
      </defs>
      <g transform="translate(381.510005 335.475174)scale(0.1 -0.1)">
       <use transform="translate(0 0.390625)" xlink:href="#Cmr10-31"/>
      </g>
     </g>
    </g>
   </g>
   <g id="matplotlib.axis_2">
    <g id="ytick_1">
     <g id="line2d_21">
      <path clip-path="url(#p98f2a502c3)" d="M 65.653269 320.876736 
L 395.146731 320.876736 
" style="fill:none;stroke:#000000;stroke-dasharray:0.5,0.825;stroke-dashoffset:0;stroke-width:0.5;"/>
     </g>
     <g id="line2d_22">
      <defs>
       <path d="M 0 0 
L -3.5 0 
" id="m0c0ffd9b50" style="stroke:#000000;stroke-width:0.8;"/>
      </defs>
      <g>
       <use style="stroke:#000000;stroke-width:0.8;" x="143.994372" xlink:href="#m0c0ffd9b50" y="320.876736"/>
      </g>
     </g>
    </g>
    <g id="ytick_2">
     <g id="line2d_23">
      <path clip-path="url(#p98f2a502c3)" d="M 65.653269 214.203121 
L 395.146731 214.203121 
" style="fill:none;stroke:#000000;stroke-dasharray:0.5,0.825;stroke-dashoffset:0;stroke-width:0.5;"/>
     </g>
     <g id="line2d_24">
      <g>
       <use style="stroke:#000000;stroke-width:0.8;" x="143.994372" xlink:href="#m0c0ffd9b50" y="214.203121"/>
      </g>
     </g>
     <g id="text_4">
      <!-- $\frac{4}{9}$ -->
      <g transform="translate(132.194372 218.453121)scale(0.1 -0.1)">
       <use transform="translate(0 38.373438)scale(0.7)" xlink:href="#Cmr10-34"/>
       <use transform="translate(0 -39.503125)scale(0.7)" xlink:href="#Cmr10-39"/>
       <path d="M 0 13.373437 
L 0 19.623437 
L 35 19.623437 
L 35 13.373437 
L 0 13.373437 
z
"/>
      </g>
     </g>
    </g>
    <g id="ytick_3">
     <g id="line2d_25">
      <path clip-path="url(#p98f2a502c3)" d="M 65.653269 187.534718 
L 395.146731 187.534718 
" style="fill:none;stroke:#000000;stroke-dasharray:0.5,0.825;stroke-dashoffset:0;stroke-width:0.5;"/>
     </g>
     <g id="line2d_26">
      <g>
       <use style="stroke:#000000;stroke-width:0.8;" x="143.994372" xlink:href="#m0c0ffd9b50" y="187.534718"/>
      </g>
     </g>
     <g id="text_5">
      <!-- $\frac{5}{9}$ -->
      <g transform="translate(132.194372 191.834718)scale(0.1 -0.1)">
       <use transform="translate(0 39.373438)scale(0.7)" xlink:href="#Cmr10-35"/>
       <use transform="translate(0 -40.045312)scale(0.7)" xlink:href="#Cmr10-39"/>
       <path d="M 0 12.83125 
L 0 19.08125 
L 35 19.08125 
L 35 12.83125 
L 0 12.83125 
z
"/>
      </g>
     </g>
    </g>
    <g id="ytick_4">
     <g id="line2d_27">
      <path clip-path="url(#p98f2a502c3)" d="M 65.653269 80.861103 
L 395.146731 80.861103 
" style="fill:none;stroke:#000000;stroke-dasharray:0.5,0.825;stroke-dashoffset:0;stroke-width:0.5;"/>
     </g>
     <g id="line2d_28">
      <g>
       <use style="stroke:#000000;stroke-width:0.8;" x="143.994372" xlink:href="#m0c0ffd9b50" y="80.861103"/>
      </g>
     </g>
     <g id="text_6">
      <!-- $1$ -->
      <g transform="translate(131.994372 84.660321)scale(0.1 -0.1)">
       <use transform="translate(0 0.390625)" xlink:href="#Cmr10-31"/>
      </g>
     </g>
    </g>
   </g>
   <g id="line2d_29">
    <path clip-path="url(#p98f2a502c3)" d="M 143.994372 214.203121 
L 143.994372 187.534718 
" style="fill:none;stroke:#00fa9a;stroke-linecap:square;stroke-width:2;"/>
   </g>
   <g id="line2d_30">
    <path clip-path="url(#p98f2a502c3)" d="M 250.667987 320.876736 
L 277.336391 320.876736 
" style="fill:none;stroke:#00fa9a;stroke-linecap:square;stroke-width:2;"/>
   </g>
   <g id="line2d_31">
    <path clip-path="url(#p98f2a502c3)" d="M 250.667987 187.534718 
L 277.336391 214.203121 
" style="fill:none;stroke:#00fa9a;stroke-linecap:square;stroke-width:2;"/>
   </g>
   <g id="line2d_32">
    <path clip-path="url(#p98f2a502c3)" d="M 143.994372 214.203121 
L 250.667987 320.876736 
" style="fill:none;stroke:#808080;stroke-linecap:square;"/>
   </g>
   <g id="line2d_33">
    <path clip-path="url(#p98f2a502c3)" d="M 143.994372 187.534718 
L 277.336391 320.876736 
" style="fill:none;stroke:#808080;stroke-linecap:square;"/>
   </g>
   <g id="line2d_34">
    <path clip-path="url(#p98f2a502c3)" d="M 143.994372 80.861103 
L 384.010005 320.876736 
" style="fill:none;stroke:#808080;stroke-linecap:square;"/>
   </g>
   <g id="line2d_35">
    <path clip-path="url(#p98f2a502c3)" d="M 143.994372 320.876736 
L 384.010005 320.876736 
L 384.010005 320.876736 
" style="fill:none;stroke:#808080;stroke-linecap:square;"/>
   </g>
   <g id="line2d_36">
    <path clip-path="url(#p98f2a502c3)" d="M 143.994372 214.203121 
L 277.336391 214.203121 
L 277.336391 214.203121 
" style="fill:none;stroke:#808080;stroke-linecap:square;"/>
   </g>
   <g id="line2d_37">
    <path clip-path="url(#p98f2a502c3)" d="M 143.994372 187.534718 
L 250.667987 187.534718 
L 250.667987 187.534718 
" style="fill:none;stroke:#808080;stroke-linecap:square;"/>
   </g>
   <g id="line2d_38">
    <path clip-path="url(#p98f2a502c3)" d="M 143.994372 320.876736 
L 143.994372 80.861103 
L 143.994372 80.861103 
" style="fill:none;stroke:#808080;stroke-linecap:square;"/>
   </g>
   <g id="line2d_39">
    <path clip-path="url(#p98f2a502c3)" d="M 250.667987 320.876736 
L 250.667987 187.534718 
L 250.667987 187.534718 
" style="fill:none;stroke:#808080;stroke-linecap:square;"/>
   </g>
   <g id="line2d_40">
    <path clip-path="url(#p98f2a502c3)" d="M 277.336391 320.876736 
L 277.336391 214.203121 
L 277.336391 214.203121 
" style="fill:none;stroke:#808080;stroke-linecap:square;"/>
   </g>
   <g id="line2d_41">
    <path clip-path="url(#p98f2a502c3)" d="M 170.662776 320.876736 
L 170.662776 80.861103 
" style="fill:none;stroke:#808080;stroke-dasharray:1,1.65;stroke-dashoffset:0;"/>
   </g>
   <g id="line2d_42">
    <path clip-path="url(#p98f2a502c3)" d="M 143.994372 294.208332 
L 384.010005 294.208332 
" style="fill:none;stroke:#808080;stroke-dasharray:1,1.65;stroke-dashoffset:0;"/>
   </g>
   <g id="line2d_43">
    <path clip-path="url(#p98f2a502c3)" d="M 143.994372 107.529506 
L 357.341602 320.876736 
" style="fill:none;stroke:#808080;stroke-dasharray:1,1.65;stroke-dashoffset:0;"/>
   </g>
   <g id="patch_15">
    <path d="M 143.994372 332.013462 
L 143.994372 2.52 
" style="fill:none;stroke:#000000;stroke-linecap:square;stroke-linejoin:miter;stroke-width:0.8;"/>
   </g>
   <g id="patch_16">
    <path d="M 65.653269 320.876736 
L 395.146731 320.876736 
" style="fill:none;stroke:#000000;stroke-linecap:square;stroke-linejoin:miter;stroke-width:0.8;"/>
   </g>
  </g>
 </g>
 <defs>
  <clipPath id="p98f2a502c3">
   <rect height="329.493462" width="329.493462" x="65.653269" y="2.52"/>
  </clipPath>
 </defs>
</svg>
