<?xml version="1.0" encoding="utf-8" standalone="no"?>
<!DOCTYPE svg PUBLIC "-//W3C//DTD SVG 1.1//EN"
  "http://www.w3.org/Graphics/SVG/1.1/DTD/svg11.dtd">
<!-- Created with matplotlib (http://matplotlib.org/) -->
<svg height="345.6pt" version="1.1" viewBox="0 0 460.8 345.6" width="460.8pt" xmlns="http://www.w3.org/2000/svg" xmlns:xlink="http://www.w3.org/1999/xlink">
 <defs>
  <style type="text/css">
*{stroke-linecap:butt;stroke-linejoin:round;}
  </style>
 </defs>
 <g id="figure_1">
  <g id="patch_1">
   <path d="M 0 345.6 
L 460.8 345.6 
L 460.8 0 
L 0 0 
z
" style="fill:#ffffff;"/>
  </g>
  <g id="axes_1">
   <g id="patch_2">
    <path d="M 65.401269 332.517462 
L 395.398731 332.517462 
L 395.398731 2.52 
L 65.401269 2.52 
z
" style="fill:#ffffff;"/>
   </g>
   <g id="PathCollection_1">
    <path clip-path="url(#p3d9cf61435)" d="M 143.862204 324.899235 
C 144.799839 324.899235 145.699196 324.526709 146.362204 323.863701 
C 147.025212 323.200693 147.397738 322.301336 147.397738 321.363701 
C 147.397738 320.426067 147.025212 319.526709 146.362204 318.863701 
C 145.699196 318.200693 144.799839 317.828167 143.862204 317.828167 
C 142.92457 317.828167 142.025212 318.200693 141.362204 318.863701 
C 140.699196 319.526709 140.32667 320.426067 140.32667 321.363701 
C 140.32667 322.301336 140.699196 323.200693 141.362204 323.863701 
C 142.025212 324.526709 142.92457 324.899235 143.862204 324.899235 
z
" style="fill:#c71585;"/>
   </g>
   <g id="patch_3">
    <path clip-path="url(#p3d9cf61435)" d="M 143.862204 80.980935 
L 304.117382 80.980935 
L 304.117382 76.17328 
L 143.862204 76.17328 
z
" style="fill:#808080;opacity:0.35;"/>
   </g>
   <g id="patch_4">
    <path clip-path="url(#p3d9cf61435)" d="M 143.862204 321.363701 
L 143.862204 161.108524 
L 139.054549 161.108524 
L 139.054549 321.363701 
z
" style="fill:#808080;opacity:0.35;"/>
   </g>
   <g id="patch_5">
    <path clip-path="url(#p3d9cf61435)" d="M 143.862204 321.363701 
L 304.117382 321.363701 
L 308.925037 326.171357 
L 148.669859 326.171357 
z
" style="fill:#808080;opacity:0.35;"/>
   </g>
   <g id="patch_6">
    <path clip-path="url(#p3d9cf61435)" d="M 143.862204 80.980935 
L 223.989793 80.980935 
L 223.989793 76.17328 
L 143.862204 76.17328 
z
" style="fill:#808080;opacity:0.35;"/>
   </g>
   <g id="patch_7">
    <path clip-path="url(#p3d9cf61435)" d="M 143.862204 161.108524 
L 143.862204 80.980935 
L 139.054549 80.980935 
L 139.054549 161.108524 
z
" style="fill:#808080;opacity:0.35;"/>
   </g>
   <g id="patch_8">
    <path clip-path="url(#p3d9cf61435)" d="M 304.117382 321.363701 
L 384.24497 321.363701 
L 389.052626 326.171357 
L 308.925037 326.171357 
z
" style="fill:#808080;opacity:0.35;"/>
   </g>
   <g id="patch_9">
    <path clip-path="url(#p3d9cf61435)" d="M 304.117382 80.980935 
L 384.24497 80.980935 
L 384.24497 76.17328 
L 304.117382 76.17328 
z
" style="fill:#808080;opacity:0.35;"/>
   </g>
   <g id="patch_10">
    <path clip-path="url(#p3d9cf61435)" d="M 143.862204 321.363701 
L 143.862204 241.236112 
L 139.054549 241.236112 
L 139.054549 321.363701 
z
" style="fill:#808080;opacity:0.35;"/>
   </g>
   <g id="patch_11">
    <path clip-path="url(#p3d9cf61435)" d="M 304.117382 321.363701 
L 384.24497 321.363701 
L 389.052626 326.171357 
L 308.925037 326.171357 
z
" style="fill:#808080;opacity:0.35;"/>
   </g>
   <g id="line2d_1">
    <path clip-path="url(#p3d9cf61435)" d="M 143.862204 321.363701 
L 143.862204 80.980935 
" style="fill:none;stroke:#0000ff;stroke-linecap:square;"/>
   </g>
   <g id="PathCollection_2">
    <path clip-path="url(#p3d9cf61435)" d="M 143.862204 324.899235 
C 144.799839 324.899235 145.699196 324.526709 146.362204 323.863701 
C 147.025212 323.200693 147.397738 322.301336 147.397738 321.363701 
C 147.397738 320.426067 147.025212 319.526709 146.362204 318.863701 
C 145.699196 318.200693 144.799839 317.828167 143.862204 317.828167 
C 142.92457 317.828167 142.025212 318.200693 141.362204 318.863701 
C 140.699196 319.526709 140.32667 320.426067 140.32667 321.363701 
C 140.32667 322.301336 140.699196 323.200693 141.362204 323.863701 
C 142.025212 324.526709 142.92457 324.899235 143.862204 324.899235 
z
" style="fill:#ffffff;"/>
   </g>
   <g id="line2d_2">
    <path clip-path="url(#p3d9cf61435)" d="M 143.862204 321.363701 
L 143.862204 80.980935 
" style="fill:none;stroke:#ffffff;stroke-linecap:square;"/>
   </g>
   <g id="line2d_3">
    <path clip-path="url(#p3d9cf61435)" d="M 143.862204 80.980935 
L 304.117382 80.980935 
" style="fill:none;stroke:#0000ff;stroke-linecap:square;"/>
   </g>
   <g id="line2d_4">
    <path clip-path="url(#p3d9cf61435)" d="M 143.862204 321.363701 
L 143.862204 161.108524 
" style="fill:none;stroke:#0000ff;stroke-linecap:square;"/>
   </g>
   <g id="line2d_5">
    <path clip-path="url(#p3d9cf61435)" d="M 304.117382 8.866105 
L 384.24497 8.866105 
" style="fill:none;stroke:#0000ff;stroke-linecap:square;"/>
   </g>
   <g id="line2d_6">
    <path clip-path="url(#p3d9cf61435)" d="M 71.747374 161.108524 
L 71.747374 80.980935 
" style="fill:none;stroke:#0000ff;stroke-linecap:square;"/>
   </g>
   <g id="PathCollection_3">
    <defs>
     <path d="M 0 2.397916 
C 0.635935 2.397916 1.245909 2.145256 1.695582 1.695582 
C 2.145256 1.245909 2.397916 0.635935 2.397916 0 
C 2.397916 -0.635935 2.145256 -1.245909 1.695582 -1.695582 
C 1.245909 -2.145256 0.635935 -2.397916 0 -2.397916 
C -0.635935 -2.397916 -1.245909 -2.145256 -1.695582 -1.695582 
C -2.145256 -1.245909 -2.397916 -0.635935 -2.397916 0 
C -2.397916 0.635935 -2.145256 1.245909 -1.695582 1.695582 
C -1.245909 2.145256 -0.635935 2.397916 0 2.397916 
z
" id="C0_0_8be3a986af"/>
    </defs>
    <g clip-path="url(#p3d9cf61435)">
     <use style="fill:#0000ff;" x="304.117382" xlink:href="#C0_0_8be3a986af" y="80.980935"/>
    </g>
    <g clip-path="url(#p3d9cf61435)">
     <use style="fill:#0000ff;" x="143.862204" xlink:href="#C0_0_8be3a986af" y="161.108524"/>
    </g>
   </g>
   <g id="PathCollection_4">
    <defs>
     <path d="M 0 1.581139 
C 0.419323 1.581139 0.821528 1.41454 1.118034 1.118034 
C 1.41454 0.821528 1.581139 0.419323 1.581139 0 
C 1.581139 -0.419323 1.41454 -0.821528 1.118034 -1.118034 
C 0.821528 -1.41454 0.419323 -1.581139 0 -1.581139 
C -0.419323 -1.581139 -0.821528 -1.41454 -1.118034 -1.118034 
C -1.41454 -0.821528 -1.581139 -0.419323 -1.581139 0 
C -1.581139 0.419323 -1.41454 0.821528 -1.118034 1.118034 
C -0.821528 1.41454 -0.419323 1.581139 0 1.581139 
z
" id="C1_0_d04b558d7a"/>
    </defs>
    <g clip-path="url(#p3d9cf61435)">
     <use style="fill:#ffffff;" x="304.117382" xlink:href="#C1_0_d04b558d7a" y="80.980935"/>
    </g>
    <g clip-path="url(#p3d9cf61435)">
     <use style="fill:#ffffff;" x="143.862204" xlink:href="#C1_0_d04b558d7a" y="161.108524"/>
    </g>
   </g>
   <g id="PathCollection_5">
    <defs>
     <path d="M 0 2.397916 
C 0.635935 2.397916 1.245909 2.145256 1.695582 1.695582 
C 2.145256 1.245909 2.397916 0.635935 2.397916 0 
C 2.397916 -0.635935 2.145256 -1.245909 1.695582 -1.695582 
C 1.245909 -2.145256 0.635935 -2.397916 0 -2.397916 
C -0.635935 -2.397916 -1.245909 -2.145256 -1.695582 -1.695582 
C -2.145256 -1.245909 -2.397916 -0.635935 -2.397916 0 
C -2.397916 0.635935 -2.145256 1.245909 -1.695582 1.695582 
C -1.245909 2.145256 -0.635935 2.397916 0 2.397916 
z
" id="C2_0_641d5e5b24"/>
    </defs>
    <g clip-path="url(#p3d9cf61435)">
     <use style="fill:#0000ff;" x="304.117382" xlink:href="#C2_0_641d5e5b24" y="8.866105"/>
    </g>
    <g clip-path="url(#p3d9cf61435)">
     <use style="fill:#0000ff;" x="71.747374" xlink:href="#C2_0_641d5e5b24" y="161.108524"/>
    </g>
   </g>
   <g id="patch_12">
    <path clip-path="url(#p3d9cf61435)" d="M 143.862204 321.363701 
L 143.862204 161.108524 
L 304.117382 321.363701 
z
" style="fill:#00fa9a;"/>
   </g>
   <g id="patch_13">
    <path clip-path="url(#p3d9cf61435)" d="M 143.862204 161.108524 
L 143.862204 80.980935 
L 223.989793 161.108524 
z
" style="fill:#00fa9a;"/>
   </g>
   <g id="patch_14">
    <path clip-path="url(#p3d9cf61435)" d="M 304.117382 321.363701 
L 384.24497 321.363701 
L 304.117382 241.236112 
z
" style="fill:#00fa9a;"/>
   </g>
   <g id="matplotlib.axis_1">
    <g id="xtick_1">
     <g id="line2d_7">
      <path clip-path="url(#p3d9cf61435)" d="M 143.862204 332.517462 
L 143.862204 2.52 
" style="fill:none;stroke:#000000;stroke-dasharray:0.5,0.825;stroke-dashoffset:0;stroke-width:0.5;"/>
     </g>
     <g id="line2d_8">
      <defs>
       <path d="M 0 0 
L 0 3.5 
" id="m296f2120a3" style="stroke:#000000;stroke-width:0.8;"/>
      </defs>
      <g>
       <use style="stroke:#000000;stroke-width:0.8;" x="143.862204" xlink:href="#m296f2120a3" y="321.363701"/>
      </g>
     </g>
    </g>
    <g id="xtick_2">
     <g id="line2d_9">
      <path clip-path="url(#p3d9cf61435)" d="M 304.117382 332.517462 
L 304.117382 2.52 
" style="fill:none;stroke:#000000;stroke-dasharray:0.5,0.825;stroke-dashoffset:0;stroke-width:0.5;"/>
     </g>
     <g id="line2d_10">
      <g>
       <use style="stroke:#000000;stroke-width:0.8;" x="304.117382" xlink:href="#m296f2120a3" y="321.363701"/>
      </g>
     </g>
     <g id="text_1">
      <!-- $\frac{2}{3}$ -->
      <defs>
       <path d="M 4.984375 0 
L 4.984375 2.6875 
Q 4.984375 2.9375 5.171875 3.21875 
L 20.703125 20.40625 
Q 24.21875 24.21875 26.40625 26.796875 
Q 28.609375 29.390625 30.75 32.765625 
Q 32.90625 36.140625 34.15625 39.625 
Q 35.40625 43.109375 35.40625 47.015625 
Q 35.40625 51.125 33.890625 54.859375 
Q 32.375 58.59375 29.375 60.84375 
Q 26.375 63.09375 22.125 63.09375 
Q 17.78125 63.09375 14.3125 60.46875 
Q 10.84375 57.859375 9.421875 53.71875 
Q 9.8125 53.8125 10.5 53.8125 
Q 12.75 53.8125 14.328125 52.296875 
Q 15.921875 50.78125 15.921875 48.390625 
Q 15.921875 46.09375 14.328125 44.5 
Q 12.75 42.921875 10.5 42.921875 
Q 8.15625 42.921875 6.5625 44.546875 
Q 4.984375 46.1875 4.984375 48.390625 
Q 4.984375 52.15625 6.390625 55.4375 
Q 7.8125 58.734375 10.46875 61.296875 
Q 13.140625 63.875 16.484375 65.234375 
Q 19.828125 66.609375 23.578125 66.609375 
Q 29.296875 66.609375 34.21875 64.1875 
Q 39.15625 61.765625 42.03125 57.34375 
Q 44.921875 52.9375 44.921875 47.015625 
Q 44.921875 42.671875 43.015625 38.765625 
Q 41.109375 34.859375 38.125 31.65625 
Q 35.15625 28.46875 30.515625 24.40625 
Q 25.875 20.359375 24.421875 19 
L 13.09375 8.109375 
L 22.703125 8.109375 
Q 29.78125 8.109375 34.546875 8.21875 
Q 39.3125 8.34375 39.59375 8.59375 
Q 40.765625 9.859375 42 17.828125 
L 44.921875 17.828125 
L 42.09375 0 
z
" id="Cmr10-32"/>
       <path d="M 9.515625 7.71875 
Q 11.859375 4.296875 15.8125 2.640625 
Q 19.78125 0.984375 24.3125 0.984375 
Q 30.125 0.984375 32.5625 5.9375 
Q 35.015625 10.890625 35.015625 17.1875 
Q 35.015625 20.015625 34.5 22.84375 
Q 33.984375 25.6875 32.765625 28.125 
Q 31.546875 30.5625 29.421875 32.03125 
Q 27.296875 33.5 24.21875 33.5 
L 17.578125 33.5 
Q 16.703125 33.5 16.703125 34.421875 
L 16.703125 35.296875 
Q 16.703125 36.078125 17.578125 36.078125 
L 23.09375 36.53125 
Q 26.609375 36.53125 28.921875 39.15625 
Q 31.25 41.796875 32.328125 45.578125 
Q 33.40625 49.359375 33.40625 52.78125 
Q 33.40625 57.5625 31.15625 60.640625 
Q 28.90625 63.71875 24.3125 63.71875 
Q 20.515625 63.71875 17.046875 62.28125 
Q 13.578125 60.84375 11.53125 57.90625 
Q 11.71875 57.953125 11.859375 57.984375 
Q 12.015625 58.015625 12.203125 58.015625 
Q 14.453125 58.015625 15.96875 56.453125 
Q 17.484375 54.890625 17.484375 52.6875 
Q 17.484375 50.53125 15.96875 48.96875 
Q 14.453125 47.40625 12.203125 47.40625 
Q 10.015625 47.40625 8.453125 48.96875 
Q 6.890625 50.53125 6.890625 52.6875 
Q 6.890625 56.984375 9.46875 60.15625 
Q 12.0625 63.328125 16.140625 64.96875 
Q 20.21875 66.609375 24.3125 66.609375 
Q 27.34375 66.609375 30.703125 65.703125 
Q 34.078125 64.796875 36.8125 63.109375 
Q 39.546875 61.421875 41.28125 58.78125 
Q 43.015625 56.15625 43.015625 52.78125 
Q 43.015625 48.578125 41.140625 45.015625 
Q 39.265625 41.453125 35.984375 38.859375 
Q 32.71875 36.28125 28.8125 35.015625 
Q 33.15625 34.1875 37.0625 31.734375 
Q 40.96875 29.296875 43.328125 25.484375 
Q 45.703125 21.6875 45.703125 17.28125 
Q 45.703125 11.765625 42.671875 7.296875 
Q 39.65625 2.828125 34.71875 0.3125 
Q 29.78125 -2.203125 24.3125 -2.203125 
Q 19.625 -2.203125 14.90625 -0.40625 
Q 10.203125 1.375 7.203125 4.9375 
Q 4.203125 8.5 4.203125 13.484375 
Q 4.203125 15.96875 5.859375 17.625 
Q 7.515625 19.28125 10.015625 19.28125 
Q 11.625 19.28125 12.96875 18.53125 
Q 14.3125 17.78125 15.0625 16.40625 
Q 15.828125 15.046875 15.828125 13.484375 
Q 15.828125 11.03125 14.109375 9.375 
Q 12.40625 7.71875 10.015625 7.71875 
z
" id="Cmr10-33"/>
      </defs>
      <g transform="translate(301.717382 336.863701)scale(0.1 -0.1)">
       <use transform="translate(0 38.373438)scale(0.7)" xlink:href="#Cmr10-32"/>
       <use transform="translate(0 -39.503125)scale(0.7)" xlink:href="#Cmr10-33"/>
       <path d="M 0 13.373437 
L 0 19.623437 
L 35 19.623437 
L 35 13.373437 
L 0 13.373437 
z
"/>
      </g>
     </g>
    </g>
    <g id="xtick_3">
     <g id="line2d_11">
      <path clip-path="url(#p3d9cf61435)" d="M 384.24497 332.517462 
L 384.24497 2.52 
" style="fill:none;stroke:#000000;stroke-dasharray:0.5,0.825;stroke-dashoffset:0;stroke-width:0.5;"/>
     </g>
     <g id="line2d_12">
      <g>
       <use style="stroke:#000000;stroke-width:0.8;" x="384.24497" xlink:href="#m296f2120a3" y="321.363701"/>
      </g>
     </g>
     <g id="text_2">
      <!-- $1$ -->
      <defs>
       <path d="M 9.28125 0 
L 9.28125 3.515625 
Q 21.78125 3.515625 21.78125 6.6875 
L 21.78125 59.1875 
Q 16.609375 56.6875 8.6875 56.6875 
L 8.6875 60.203125 
Q 20.953125 60.203125 27.203125 66.609375 
L 28.609375 66.609375 
Q 28.953125 66.609375 29.265625 66.328125 
Q 29.59375 66.0625 29.59375 65.71875 
L 29.59375 6.6875 
Q 29.59375 3.515625 42.09375 3.515625 
L 42.09375 0 
z
" id="Cmr10-31"/>
      </defs>
      <g transform="translate(381.74497 335.962139)scale(0.1 -0.1)">
       <use transform="translate(0 0.390625)" xlink:href="#Cmr10-31"/>
      </g>
     </g>
    </g>
   </g>
   <g id="matplotlib.axis_2">
    <g id="ytick_1">
     <g id="line2d_13">
      <path clip-path="url(#p3d9cf61435)" d="M 65.401269 321.363701 
L 395.398731 321.363701 
" style="fill:none;stroke:#000000;stroke-dasharray:0.5,0.825;stroke-dashoffset:0;stroke-width:0.5;"/>
     </g>
     <g id="line2d_14">
      <defs>
       <path d="M 0 0 
L -3.5 0 
" id="m7e04acda35" style="stroke:#000000;stroke-width:0.8;"/>
      </defs>
      <g>
       <use style="stroke:#000000;stroke-width:0.8;" x="143.862204" xlink:href="#m7e04acda35" y="321.363701"/>
      </g>
     </g>
    </g>
    <g id="ytick_2">
     <g id="line2d_15">
      <path clip-path="url(#p3d9cf61435)" d="M 65.401269 161.108524 
L 395.398731 161.108524 
" style="fill:none;stroke:#000000;stroke-dasharray:0.5,0.825;stroke-dashoffset:0;stroke-width:0.5;"/>
     </g>
     <g id="line2d_16">
      <g>
       <use style="stroke:#000000;stroke-width:0.8;" x="143.862204" xlink:href="#m7e04acda35" y="161.108524"/>
      </g>
     </g>
     <g id="text_3">
      <!-- $\frac{2}{3}$ -->
      <g transform="translate(132.062204 165.358524)scale(0.1 -0.1)">
       <use transform="translate(0 38.373438)scale(0.7)" xlink:href="#Cmr10-32"/>
       <use transform="translate(0 -39.503125)scale(0.7)" xlink:href="#Cmr10-33"/>
       <path d="M 0 13.373437 
L 0 19.623437 
L 35 19.623437 
L 35 13.373437 
L 0 13.373437 
z
"/>
      </g>
     </g>
    </g>
    <g id="ytick_3">
     <g id="line2d_17">
      <path clip-path="url(#p3d9cf61435)" d="M 65.401269 80.980935 
L 395.398731 80.980935 
" style="fill:none;stroke:#000000;stroke-dasharray:0.5,0.825;stroke-dashoffset:0;stroke-width:0.5;"/>
     </g>
     <g id="line2d_18">
      <g>
       <use style="stroke:#000000;stroke-width:0.8;" x="143.862204" xlink:href="#m7e04acda35" y="80.980935"/>
      </g>
     </g>
     <g id="text_4">
      <!-- $1$ -->
      <g transform="translate(131.862204 84.780154)scale(0.1 -0.1)">
       <use transform="translate(0 0.390625)" xlink:href="#Cmr10-31"/>
      </g>
     </g>
    </g>
   </g>
   <g id="line2d_19">
    <path clip-path="url(#p3d9cf61435)" d="M 143.862204 321.363701 
L 143.862204 161.108524 
" style="fill:none;stroke:#00fa9a;stroke-linecap:square;stroke-width:2;"/>
   </g>
   <g id="line2d_20">
    <path clip-path="url(#p3d9cf61435)" d="M 143.862204 321.363701 
L 304.117382 321.363701 
" style="fill:none;stroke:#00fa9a;stroke-linecap:square;stroke-width:2;"/>
   </g>
   <g id="line2d_21">
    <path clip-path="url(#p3d9cf61435)" d="M 143.862204 161.108524 
L 143.862204 80.980935 
" style="fill:none;stroke:#00fa9a;stroke-linecap:square;stroke-width:2;"/>
   </g>
   <g id="line2d_22">
    <path clip-path="url(#p3d9cf61435)" d="M 304.117382 321.363701 
L 384.24497 321.363701 
" style="fill:none;stroke:#00fa9a;stroke-linecap:square;stroke-width:2;"/>
   </g>
   <g id="line2d_23">
    <path clip-path="url(#p3d9cf61435)" d="M 304.117382 321.363701 
L 304.117382 241.236112 
" style="fill:none;stroke:#00fa9a;stroke-linecap:square;stroke-width:2;"/>
   </g>
   <g id="line2d_24">
    <path clip-path="url(#p3d9cf61435)" d="M 143.862204 161.108524 
L 223.989793 161.108524 
" style="fill:none;stroke:#00fa9a;stroke-linecap:square;stroke-width:2;"/>
   </g>
   <g id="line2d_25">
    <path clip-path="url(#p3d9cf61435)" d="M 143.862204 161.108524 
L 304.117382 321.363701 
" style="fill:none;stroke:#00fa9a;stroke-linecap:square;stroke-width:2;"/>
   </g>
   <g id="line2d_26">
    <path clip-path="url(#p3d9cf61435)" d="M 223.989793 161.108524 
L 304.117382 241.236112 
" style="fill:none;stroke:#00fa9a;stroke-linecap:square;stroke-width:2;"/>
   </g>
   <g id="line2d_27">
    <path clip-path="url(#p3d9cf61435)" d="M 143.862204 80.980935 
L 223.989793 161.108524 
" style="fill:none;stroke:#00fa9a;stroke-linecap:square;stroke-width:2;"/>
   </g>
   <g id="line2d_28">
    <path clip-path="url(#p3d9cf61435)" d="M 304.117382 241.236112 
L 384.24497 321.363701 
" style="fill:none;stroke:#00fa9a;stroke-linecap:square;stroke-width:2;"/>
   </g>
   <g id="line2d_29">
    <path clip-path="url(#p3d9cf61435)" d="M 143.862204 161.108524 
L 304.117382 321.363701 
" style="fill:none;stroke:#808080;stroke-linecap:square;"/>
   </g>
   <g id="line2d_30">
    <path clip-path="url(#p3d9cf61435)" d="M 143.862204 80.980935 
L 384.24497 321.363701 
" style="fill:none;stroke:#808080;stroke-linecap:square;"/>
   </g>
   <g id="line2d_31">
    <path clip-path="url(#p3d9cf61435)" d="M 143.862204 321.363701 
L 384.24497 321.363701 
L 384.24497 321.363701 
" style="fill:none;stroke:#808080;stroke-linecap:square;"/>
   </g>
   <g id="line2d_32">
    <path clip-path="url(#p3d9cf61435)" d="M 143.862204 161.108524 
L 223.989793 161.108524 
L 223.989793 161.108524 
" style="fill:none;stroke:#808080;stroke-linecap:square;"/>
   </g>
   <g id="line2d_33">
    <path clip-path="url(#p3d9cf61435)" d="M 143.862204 321.363701 
L 143.862204 319.941427 
L 143.862204 319.436215 
L 143.862204 317.872059 
L 143.862204 316.155952 
L 143.862204 315.539072 
L 143.862204 313.925148 
L 143.862204 312.759792 
L 143.862204 311.58431 
L 143.862204 310.443535 
L 143.862204 309.743168 
L 143.862204 307.716156 
L 143.862204 306.673764 
L 143.862204 305.621955 
L 143.862204 304.367434 
L 143.862204 303.065028 
L 143.862204 301.646562 
L 143.862204 300.457613 
L 143.862204 300.163264 
L 143.862204 298.210516 
L 143.862204 296.675846 
L 143.862204 295.879986 
L 143.862204 294.630701 
L 143.862204 293.928511 
L 143.862204 292.054553 
L 143.862204 290.886174 
L 143.862204 289.921667 
L 143.862204 288.781954 
L 143.862204 287.621482 
L 143.862204 286.810244 
L 143.862204 284.666736 
L 143.862204 283.400121 
L 143.862204 283.235862 
L 143.862204 281.385478 
L 143.862204 280.430731 
L 143.862204 278.597051 
L 143.862204 277.99141 
L 143.862204 276.534238 
L 143.862204 275.790045 
L 143.862204 274.422085 
L 143.862204 273.3171 
L 143.862204 271.864655 
L 143.862204 270.988227 
L 143.862204 269.784176 
L 143.862204 268.550635 
L 143.862204 267.389703 
L 143.862204 265.997069 
L 143.862204 264.515071 
L 143.862204 263.569329 
L 143.862204 262.096331 
L 143.862204 260.748412 
L 143.862204 260.068595 
L 143.862204 258.470729 
L 143.862204 257.484196 
L 143.862204 256.656269 
L 143.862204 254.760035 
L 143.862204 253.650822 
L 143.862204 252.756092 
L 143.862204 250.874619 
L 143.862204 249.958878 
L 143.862204 249.097186 
L 143.862204 247.202132 
L 143.862204 246.710182 
L 143.862204 245.030052 
L 143.862204 243.820141 
L 143.862204 242.275973 
L 143.862204 241.822882 
L 143.862204 240.505268 
L 143.862204 239.448602 
L 143.862204 238.116864 
L 143.862204 236.941457 
L 143.862204 236.149032 
L 143.862204 234.466517 
L 143.862204 232.93811 
L 143.862204 231.986958 
L 143.862204 230.916176 
L 143.862204 229.020428 
L 143.862204 228.078801 
L 143.862204 226.590136 
L 143.862204 226.393182 
L 143.862204 225.329151 
L 143.862204 223.837216 
L 143.862204 222.310557 
L 143.862204 220.608535 
L 143.862204 219.50388 
L 143.862204 219.109938 
L 143.862204 217.738794 
L 143.862204 215.737623 
L 143.862204 214.906147 
L 143.862204 213.798157 
L 143.862204 212.241563 
L 143.862204 211.33136 
L 143.862204 210.130114 
L 143.862204 209.259982 
L 143.862204 208.290459 
L 143.862204 206.467959 
L 143.862204 205.969104 
L 143.862204 203.723476 
L 143.862204 203.014797 
L 143.862204 201.923381 
L 143.862204 200.283764 
L 143.862204 199.271344 
L 143.862204 197.97406 
L 143.862204 196.369669 
L 143.862204 196.003002 
L 143.862204 195.132348 
" style="fill:none;stroke:#808080;stroke-linecap:square;"/>
   </g>
   <g id="line2d_34">
    <path clip-path="url(#p3d9cf61435)" d="M 143.862204 190.960639 
L 143.862204 190.019534 
L 143.862204 188.162753 
L 143.862204 186.913167 
L 143.862204 186.250808 
L 143.862204 185.054145 
L 143.862204 183.825196 
L 143.862204 182.976533 
L 143.862204 180.986497 
L 143.862204 179.784176 
L 143.862204 179.020943 
L 143.862204 178.162834 
L 143.862204 176.975834 
L 143.862204 175.436605 
L 143.862204 173.696318 
L 143.862204 173.075181 
L 143.862204 171.245116 
L 143.862204 170.524148 
L 143.862204 169.515191 
L 143.862204 168.395485 
L 143.862204 166.446867 
L 143.862204 165.933514 
L 143.862204 164.119376 
L 143.862204 163.528191 
L 143.862204 162.131154 
L 143.862204 160.46737 
L 143.862204 159.526048 
L 143.862204 158.185773 
L 143.862204 156.96482 
L 143.862204 155.950655 
L 143.862204 154.114779 
L 143.862204 153.765649 
L 143.862204 152.28209 
L 143.862204 150.506867 
L 143.862204 149.640869 
L 143.862204 148.143256 
L 143.862204 147.485615 
L 143.862204 146.316278 
L 143.862204 145.308917 
L 143.862204 144.154633 
L 143.862204 143.064642 
L 143.862204 140.861176 
L 143.862204 140.322027 
L 143.862204 138.374099 
L 143.862204 137.286012 
L 143.862204 136.611535 
L 143.862204 135.254699 
L 143.862204 133.826558 
L 143.862204 132.412236 
L 143.862204 131.260589 
L 143.862204 129.910914 
L 143.862204 128.714679 
L 143.862204 128.047402 
L 143.862204 127.064029 
L 143.862204 125.518672 
L 143.862204 125.062487 
L 143.862204 122.957177 
L 143.862204 121.530231 
L 143.862204 120.603501 
L 143.862204 120.169187 
L 143.862204 118.901129 
L 143.862204 117.23899 
L 143.862204 116.47819 
L 143.862204 115.036388 
L 143.862204 114.163561 
L 143.862204 112.773183 
L 143.862204 110.732104 
L 143.862204 110.224331 
L 143.862204 109.107376 
L 143.862204 107.057855 
L 143.862204 106.779454 
L 143.862204 104.97865 
L 143.862204 104.147137 
L 143.862204 103.165621 
L 143.862204 101.82165 
L 143.862204 100.245964 
L 143.862204 99.158025 
L 143.862204 97.647455 
L 143.862204 96.558096 
L 143.862204 95.791935 
L 143.862204 94.67924 
L 143.862204 93.042659 
L 143.862204 91.285217 
L 143.862204 90.578681 
L 143.862204 89.079868 
L 143.862204 88.052156 
L 143.862204 86.773448 
L 143.862204 85.256588 
L 143.862204 84.107987 
L 143.862204 83.42243 
L 143.862204 81.74051 
L 143.862204 80.980935 
" style="fill:none;stroke:#808080;stroke-linecap:square;"/>
   </g>
   <g id="line2d_35">
    <path clip-path="url(#p3d9cf61435)" d="M 304.117382 321.363701 
L 304.117382 241.236112 
L 304.117382 241.236112 
" style="fill:none;stroke:#808080;stroke-linecap:square;"/>
   </g>
   <g id="line2d_36">
    <path clip-path="url(#p3d9cf61435)" d="M 223.989793 321.363701 
L 223.989793 80.980935 
" style="fill:none;stroke:#808080;stroke-dasharray:1,1.65;stroke-dashoffset:0;"/>
   </g>
   <g id="line2d_37">
    <path clip-path="url(#p3d9cf61435)" d="M 143.862204 241.236112 
L 384.24497 241.236112 
" style="fill:none;stroke:#808080;stroke-dasharray:1,1.65;stroke-dashoffset:0;"/>
   </g>
   <g id="patch_15">
    <path d="M 143.862204 332.517462 
L 143.862204 2.52 
" style="fill:none;stroke:#000000;stroke-linecap:square;stroke-linejoin:miter;stroke-width:0.8;"/>
   </g>
   <g id="patch_16">
    <path d="M 65.401269 321.363701 
L 395.398731 321.363701 
" style="fill:none;stroke:#000000;stroke-linecap:square;stroke-linejoin:miter;stroke-width:0.8;"/>
   </g>
   <g id="patch_17">
    <path clip-path="url(#p3d9cf61435)" d="M 304.117382 234.024629 
C 302.205511 234.024629 300.36999 234.784927 299.018093 236.136824 
C 297.666196 237.488721 296.905899 239.324242 296.905899 241.236112 
L 304.117382 241.236112 
L 304.117382 234.024629 
z
" style="fill:#c71585;"/>
   </g>
   <g id="patch_18">
    <path clip-path="url(#p3d9cf61435)" d="M 223.989793 168.320007 
C 225.901664 168.320007 227.737185 167.559709 229.089081 166.207812 
C 230.440978 164.855915 231.201276 163.020394 231.201276 161.108524 
L 223.989793 161.108524 
L 223.989793 168.320007 
z
" style="fill:#c71585;"/>
   </g>
  </g>
 </g>
 <defs>
  <clipPath id="p3d9cf61435">
   <rect height="329.997462" width="329.997462" x="65.401269" y="2.52"/>
  </clipPath>
 </defs>
</svg>
