<?xml version="1.0" encoding="utf-8" standalone="no"?>
<!DOCTYPE svg PUBLIC "-//W3C//DTD SVG 1.1//EN"
  "http://www.w3.org/Graphics/SVG/1.1/DTD/svg11.dtd">
<!-- Created with matplotlib (http://matplotlib.org/) -->
<svg height="345.6pt" version="1.1" viewBox="0 0 460.8 345.6" width="460.8pt" xmlns="http://www.w3.org/2000/svg" xmlns:xlink="http://www.w3.org/1999/xlink">
 <defs>
  <style type="text/css">
*{stroke-linecap:butt;stroke-linejoin:round;}
  </style>
 </defs>
 <g id="figure_1">
  <g id="patch_1">
   <path d="M 0 345.6 
L 460.8 345.6 
L 460.8 0 
L 0 0 
z
" style="fill:#ffffff;"/>
  </g>
  <g id="axes_1">
   <g id="patch_2">
    <path d="M 65.653269 332.013462 
L 395.146731 332.013462 
L 395.146731 2.52 
L 65.653269 2.52 
z
" style="fill:#ffffff;"/>
   </g>
   <g id="patch_3">
    <path clip-path="url(#pa12a31facd)" d="M 143.994372 80.861103 
L 223.999583 80.861103 
L 223.999583 76.06079 
L 143.994372 76.06079 
z
" style="fill:#808080;opacity:0.35;"/>
   </g>
   <g id="patch_4">
    <path clip-path="url(#pa12a31facd)" d="M 143.994372 320.876736 
L 143.994372 240.871525 
L 139.194059 240.871525 
L 139.194059 320.876736 
z
" style="fill:#808080;opacity:0.35;"/>
   </g>
   <g id="patch_5">
    <path clip-path="url(#pa12a31facd)" d="M 143.994372 320.876736 
L 223.999583 320.876736 
L 228.799896 325.677049 
L 148.794685 325.677049 
z
" style="fill:#808080;opacity:0.35;"/>
   </g>
   <g id="patch_6">
    <path clip-path="url(#pa12a31facd)" d="M 143.994372 80.861103 
L 163.995675 80.861103 
L 163.995675 76.06079 
L 143.994372 76.06079 
z
" style="fill:#808080;opacity:0.35;"/>
   </g>
   <g id="patch_7">
    <path clip-path="url(#pa12a31facd)" d="M 143.994372 240.871525 
L 143.994372 220.870222 
L 139.194059 220.870222 
L 139.194059 240.871525 
z
" style="fill:#808080;opacity:0.35;"/>
   </g>
   <g id="patch_8">
    <path clip-path="url(#pa12a31facd)" d="M 223.999583 320.876736 
L 244.000886 320.876736 
L 248.801199 325.677049 
L 228.799896 325.677049 
z
" style="fill:#808080;opacity:0.35;"/>
   </g>
   <g id="patch_9">
    <path clip-path="url(#pa12a31facd)" d="M 223.999583 80.861103 
L 244.000886 80.861103 
L 244.000886 76.06079 
L 223.999583 76.06079 
z
" style="fill:#808080;opacity:0.35;"/>
   </g>
   <g id="patch_10">
    <path clip-path="url(#pa12a31facd)" d="M 143.994372 320.876736 
L 143.994372 300.875433 
L 139.194059 300.875433 
L 139.194059 320.876736 
z
" style="fill:#808080;opacity:0.35;"/>
   </g>
   <g id="patch_11">
    <path clip-path="url(#pa12a31facd)" d="M 223.999583 320.876736 
L 244.000886 320.876736 
L 248.801199 325.677049 
L 228.799896 325.677049 
z
" style="fill:#808080;opacity:0.35;"/>
   </g>
   <g id="patch_12">
    <path clip-path="url(#pa12a31facd)" d="M 143.994372 80.861103 
L 163.995675 80.861103 
L 163.995675 76.06079 
L 143.994372 76.06079 
z
" style="fill:#808080;opacity:0.35;"/>
   </g>
   <g id="patch_13">
    <path clip-path="url(#pa12a31facd)" d="M 143.994372 220.870222 
L 143.994372 200.868919 
L 139.194059 200.868919 
L 139.194059 220.870222 
z
" style="fill:#808080;opacity:0.35;"/>
   </g>
   <g id="patch_14">
    <path clip-path="url(#pa12a31facd)" d="M 244.000886 320.876736 
L 264.002189 320.876736 
L 268.802501 325.677049 
L 248.801199 325.677049 
z
" style="fill:#808080;opacity:0.35;"/>
   </g>
   <g id="patch_15">
    <path clip-path="url(#pa12a31facd)" d="M 244.000886 80.861103 
L 264.002189 80.861103 
L 264.002189 76.06079 
L 244.000886 76.06079 
z
" style="fill:#808080;opacity:0.35;"/>
   </g>
   <g id="patch_16">
    <path clip-path="url(#pa12a31facd)" d="M 143.994372 320.876736 
L 143.994372 300.875433 
L 139.194059 300.875433 
L 139.194059 320.876736 
z
" style="fill:#808080;opacity:0.35;"/>
   </g>
   <g id="patch_17">
    <path clip-path="url(#pa12a31facd)" d="M 244.000886 320.876736 
L 264.002189 320.876736 
L 268.802501 325.677049 
L 248.801199 325.677049 
z
" style="fill:#808080;opacity:0.35;"/>
   </g>
   <g id="patch_18">
    <path clip-path="url(#pa12a31facd)" d="M 143.994372 80.861103 
L 163.995675 80.861103 
L 163.995675 76.06079 
L 143.994372 76.06079 
z
" style="fill:#808080;opacity:0.35;"/>
   </g>
   <g id="patch_19">
    <path clip-path="url(#pa12a31facd)" d="M 143.994372 200.868919 
L 143.994372 180.867617 
L 139.194059 180.867617 
L 139.194059 200.868919 
z
" style="fill:#808080;opacity:0.35;"/>
   </g>
   <g id="patch_20">
    <path clip-path="url(#pa12a31facd)" d="M 264.002189 320.876736 
L 284.003491 320.876736 
L 288.803804 325.677049 
L 268.802501 325.677049 
z
" style="fill:#808080;opacity:0.35;"/>
   </g>
   <g id="patch_21">
    <path clip-path="url(#pa12a31facd)" d="M 264.002189 80.861103 
L 284.003491 80.861103 
L 284.003491 76.06079 
L 264.002189 76.06079 
z
" style="fill:#808080;opacity:0.35;"/>
   </g>
   <g id="patch_22">
    <path clip-path="url(#pa12a31facd)" d="M 143.994372 320.876736 
L 143.994372 300.875433 
L 139.194059 300.875433 
L 139.194059 320.876736 
z
" style="fill:#808080;opacity:0.35;"/>
   </g>
   <g id="patch_23">
    <path clip-path="url(#pa12a31facd)" d="M 264.002189 320.876736 
L 284.003491 320.876736 
L 288.803804 325.677049 
L 268.802501 325.677049 
z
" style="fill:#808080;opacity:0.35;"/>
   </g>
   <g id="patch_24">
    <path clip-path="url(#pa12a31facd)" d="M 143.994372 80.861103 
L 163.995675 80.861103 
L 163.995675 76.06079 
L 143.994372 76.06079 
z
" style="fill:#808080;opacity:0.35;"/>
   </g>
   <g id="patch_25">
    <path clip-path="url(#pa12a31facd)" d="M 143.994372 180.867617 
L 143.994372 160.866314 
L 139.194059 160.866314 
L 139.194059 180.867617 
z
" style="fill:#808080;opacity:0.35;"/>
   </g>
   <g id="patch_26">
    <path clip-path="url(#pa12a31facd)" d="M 284.003491 320.876736 
L 304.004794 320.876736 
L 308.805107 325.677049 
L 288.803804 325.677049 
z
" style="fill:#808080;opacity:0.35;"/>
   </g>
   <g id="patch_27">
    <path clip-path="url(#pa12a31facd)" d="M 284.003491 80.861103 
L 304.004794 80.861103 
L 304.004794 76.06079 
L 284.003491 76.06079 
z
" style="fill:#808080;opacity:0.35;"/>
   </g>
   <g id="patch_28">
    <path clip-path="url(#pa12a31facd)" d="M 143.994372 320.876736 
L 143.994372 300.875433 
L 139.194059 300.875433 
L 139.194059 320.876736 
z
" style="fill:#808080;opacity:0.35;"/>
   </g>
   <g id="patch_29">
    <path clip-path="url(#pa12a31facd)" d="M 284.003491 320.876736 
L 304.004794 320.876736 
L 308.805107 325.677049 
L 288.803804 325.677049 
z
" style="fill:#808080;opacity:0.35;"/>
   </g>
   <g id="patch_30">
    <path clip-path="url(#pa12a31facd)" d="M 143.994372 80.861103 
L 223.999583 80.861103 
L 223.999583 76.06079 
L 143.994372 76.06079 
z
" style="fill:#808080;opacity:0.35;"/>
   </g>
   <g id="patch_31">
    <path clip-path="url(#pa12a31facd)" d="M 143.994372 160.866314 
L 143.994372 80.861103 
L 139.194059 80.861103 
L 139.194059 160.866314 
z
" style="fill:#808080;opacity:0.35;"/>
   </g>
   <g id="patch_32">
    <path clip-path="url(#pa12a31facd)" d="M 304.004794 320.876736 
L 384.010005 320.876736 
L 388.810318 325.677049 
L 308.805107 325.677049 
z
" style="fill:#808080;opacity:0.35;"/>
   </g>
   <g id="patch_33">
    <path clip-path="url(#pa12a31facd)" d="M 304.004794 80.861103 
L 384.010005 80.861103 
L 384.010005 76.06079 
L 304.004794 76.06079 
z
" style="fill:#808080;opacity:0.35;"/>
   </g>
   <g id="patch_34">
    <path clip-path="url(#pa12a31facd)" d="M 143.994372 320.876736 
L 143.994372 240.871525 
L 139.194059 240.871525 
L 139.194059 320.876736 
z
" style="fill:#808080;opacity:0.35;"/>
   </g>
   <g id="patch_35">
    <path clip-path="url(#pa12a31facd)" d="M 304.004794 320.876736 
L 384.010005 320.876736 
L 388.810318 325.677049 
L 308.805107 325.677049 
z
" style="fill:#808080;opacity:0.35;"/>
   </g>
   <g id="patch_36">
    <path clip-path="url(#pa12a31facd)" d="M 223.999583 80.861103 
L 244.000886 80.861103 
L 244.000886 76.06079 
L 223.999583 76.06079 
z
" style="fill:#808080;opacity:0.35;"/>
   </g>
   <g id="patch_37">
    <path clip-path="url(#pa12a31facd)" d="M 143.994372 180.867617 
L 143.994372 160.866314 
L 139.194059 160.866314 
L 139.194059 180.867617 
z
" style="fill:#808080;opacity:0.35;"/>
   </g>
   <g id="patch_38">
    <path clip-path="url(#pa12a31facd)" d="M 364.008703 320.876736 
L 384.010005 320.876736 
L 388.810318 325.677049 
L 368.809015 325.677049 
z
" style="fill:#808080;opacity:0.35;"/>
   </g>
   <g id="patch_39">
    <path clip-path="url(#pa12a31facd)" d="M 284.003491 80.861103 
L 304.004794 80.861103 
L 304.004794 76.06079 
L 284.003491 76.06079 
z
" style="fill:#808080;opacity:0.35;"/>
   </g>
   <g id="patch_40">
    <path clip-path="url(#pa12a31facd)" d="M 143.994372 240.871525 
L 143.994372 220.870222 
L 139.194059 220.870222 
L 139.194059 240.871525 
z
" style="fill:#808080;opacity:0.35;"/>
   </g>
   <g id="patch_41">
    <path clip-path="url(#pa12a31facd)" d="M 364.008703 320.876736 
L 384.010005 320.876736 
L 388.810318 325.677049 
L 368.809015 325.677049 
z
" style="fill:#808080;opacity:0.35;"/>
   </g>
   <g id="patch_42">
    <path clip-path="url(#pa12a31facd)" d="M 244.000886 80.861103 
L 264.002189 80.861103 
L 264.002189 76.06079 
L 244.000886 76.06079 
z
" style="fill:#808080;opacity:0.35;"/>
   </g>
   <g id="patch_43">
    <path clip-path="url(#pa12a31facd)" d="M 143.994372 200.868919 
L 143.994372 180.867617 
L 139.194059 180.867617 
L 139.194059 200.868919 
z
" style="fill:#808080;opacity:0.35;"/>
   </g>
   <g id="patch_44">
    <path clip-path="url(#pa12a31facd)" d="M 364.008703 320.876736 
L 384.010005 320.876736 
L 388.810318 325.677049 
L 368.809015 325.677049 
z
" style="fill:#808080;opacity:0.35;"/>
   </g>
   <g id="patch_45">
    <path clip-path="url(#pa12a31facd)" d="M 264.002189 80.861103 
L 284.003491 80.861103 
L 284.003491 76.06079 
L 264.002189 76.06079 
z
" style="fill:#808080;opacity:0.35;"/>
   </g>
   <g id="patch_46">
    <path clip-path="url(#pa12a31facd)" d="M 143.994372 220.870222 
L 143.994372 200.868919 
L 139.194059 200.868919 
L 139.194059 220.870222 
z
" style="fill:#808080;opacity:0.35;"/>
   </g>
   <g id="patch_47">
    <path clip-path="url(#pa12a31facd)" d="M 364.008703 320.876736 
L 384.010005 320.876736 
L 388.810318 325.677049 
L 368.809015 325.677049 
z
" style="fill:#808080;opacity:0.35;"/>
   </g>
   <g id="line2d_1">
    <path clip-path="url(#pa12a31facd)" d="M 143.994372 320.876736 
L 143.994372 80.861103 
" style="fill:none;stroke:#000000;stroke-linecap:square;"/>
   </g>
   <g id="line2d_2">
    <path clip-path="url(#pa12a31facd)" d="M 143.994372 320.876736 
L 143.994372 80.861103 
" style="fill:none;stroke:#ffffff;stroke-linecap:square;"/>
   </g>
   <g id="line2d_3">
    <path clip-path="url(#pa12a31facd)" d="M 143.994372 80.861103 
L 223.999583 80.861103 
" style="fill:none;stroke:#000000;stroke-linecap:square;"/>
   </g>
   <g id="line2d_4">
    <path clip-path="url(#pa12a31facd)" d="M 143.994372 320.876736 
L 143.994372 240.871525 
" style="fill:none;stroke:#000000;stroke-linecap:square;"/>
   </g>
   <g id="line2d_5">
    <path clip-path="url(#pa12a31facd)" d="M 223.999583 66.460165 
L 244.000886 66.460165 
" style="fill:none;stroke:#000000;stroke-linecap:square;"/>
   </g>
   <g id="line2d_6">
    <path clip-path="url(#pa12a31facd)" d="M 129.593434 240.871525 
L 129.593434 220.870222 
" style="fill:none;stroke:#000000;stroke-linecap:square;"/>
   </g>
   <g id="line2d_7">
    <path clip-path="url(#pa12a31facd)" d="M 244.000886 52.059227 
L 264.002189 52.059227 
" style="fill:none;stroke:#000000;stroke-linecap:square;"/>
   </g>
   <g id="line2d_8">
    <path clip-path="url(#pa12a31facd)" d="M 115.192496 220.870222 
L 115.192496 200.868919 
" style="fill:none;stroke:#000000;stroke-linecap:square;"/>
   </g>
   <g id="line2d_9">
    <path clip-path="url(#pa12a31facd)" d="M 264.002189 37.658289 
L 284.003491 37.658289 
" style="fill:none;stroke:#000000;stroke-linecap:square;"/>
   </g>
   <g id="line2d_10">
    <path clip-path="url(#pa12a31facd)" d="M 100.791558 200.868919 
L 100.791558 180.867617 
" style="fill:none;stroke:#000000;stroke-linecap:square;"/>
   </g>
   <g id="line2d_11">
    <path clip-path="url(#pa12a31facd)" d="M 284.003491 23.257351 
L 304.004794 23.257351 
" style="fill:none;stroke:#000000;stroke-linecap:square;"/>
   </g>
   <g id="line2d_12">
    <path clip-path="url(#pa12a31facd)" d="M 86.39062 180.867617 
L 86.39062 160.866314 
" style="fill:none;stroke:#000000;stroke-linecap:square;"/>
   </g>
   <g id="line2d_13">
    <path clip-path="url(#pa12a31facd)" d="M 304.004794 8.856413 
L 384.010005 8.856413 
" style="fill:none;stroke:#000000;stroke-linecap:square;"/>
   </g>
   <g id="line2d_14">
    <path clip-path="url(#pa12a31facd)" d="M 71.989682 160.866314 
L 71.989682 80.861103 
" style="fill:none;stroke:#000000;stroke-linecap:square;"/>
   </g>
   <g id="line2d_15">
    <path clip-path="url(#pa12a31facd)" d="M 143.994372 80.861103 
L 223.999583 80.861103 
" style="fill:none;stroke:#ff0000;stroke-linecap:square;"/>
   </g>
   <g id="line2d_16">
    <path clip-path="url(#pa12a31facd)" d="M 143.994372 320.876736 
L 143.994372 240.871525 
" style="fill:none;stroke:#ff0000;stroke-linecap:square;"/>
   </g>
   <g id="line2d_17">
    <path clip-path="url(#pa12a31facd)" d="M 223.999583 66.460165 
L 244.000886 66.460165 
" style="fill:none;stroke:#ff0000;stroke-linecap:square;"/>
   </g>
   <g id="line2d_18">
    <path clip-path="url(#pa12a31facd)" d="M 129.593434 240.871525 
L 129.593434 220.870222 
" style="fill:none;stroke:#ff0000;stroke-linecap:square;"/>
   </g>
   <g id="line2d_19">
    <path clip-path="url(#pa12a31facd)" d="M 244.000886 52.059227 
L 264.002189 52.059227 
" style="fill:none;stroke:#ff0000;stroke-linecap:square;"/>
   </g>
   <g id="line2d_20">
    <path clip-path="url(#pa12a31facd)" d="M 115.192496 220.870222 
L 115.192496 200.868919 
" style="fill:none;stroke:#ff0000;stroke-linecap:square;"/>
   </g>
   <g id="line2d_21">
    <path clip-path="url(#pa12a31facd)" d="M 264.002189 37.658289 
L 284.003491 37.658289 
" style="fill:none;stroke:#ff0000;stroke-linecap:square;"/>
   </g>
   <g id="line2d_22">
    <path clip-path="url(#pa12a31facd)" d="M 100.791558 200.868919 
L 100.791558 180.867617 
" style="fill:none;stroke:#ff0000;stroke-linecap:square;"/>
   </g>
   <g id="line2d_23">
    <path clip-path="url(#pa12a31facd)" d="M 284.003491 23.257351 
L 304.004794 23.257351 
" style="fill:none;stroke:#ff0000;stroke-linecap:square;"/>
   </g>
   <g id="line2d_24">
    <path clip-path="url(#pa12a31facd)" d="M 86.39062 180.867617 
L 86.39062 160.866314 
" style="fill:none;stroke:#ff0000;stroke-linecap:square;"/>
   </g>
   <g id="line2d_25">
    <path clip-path="url(#pa12a31facd)" d="M 304.004794 8.856413 
L 384.010005 8.856413 
" style="fill:none;stroke:#ff0000;stroke-linecap:square;"/>
   </g>
   <g id="line2d_26">
    <path clip-path="url(#pa12a31facd)" d="M 71.989682 160.866314 
L 71.989682 80.861103 
" style="fill:none;stroke:#ff0000;stroke-linecap:square;"/>
   </g>
   <g id="PathCollection_1">
    <defs>
     <path d="M 0 2.397916 
C 0.635935 2.397916 1.245909 2.145256 1.695582 1.695582 
C 2.145256 1.245909 2.397916 0.635935 2.397916 0 
C 2.397916 -0.635935 2.145256 -1.245909 1.695582 -1.695582 
C 1.245909 -2.145256 0.635935 -2.397916 0 -2.397916 
C -0.635935 -2.397916 -1.245909 -2.145256 -1.695582 -1.695582 
C -2.145256 -1.245909 -2.397916 -0.635935 -2.397916 0 
C -2.397916 0.635935 -2.145256 1.245909 -1.695582 1.695582 
C -1.245909 2.145256 -0.635935 2.397916 0 2.397916 
z
" id="C0_0_744af75c42"/>
    </defs>
    <g clip-path="url(#pa12a31facd)">
     <use x="223.999583" xlink:href="#C0_0_744af75c42" y="80.861103"/>
    </g>
    <g clip-path="url(#pa12a31facd)">
     <use x="143.994372" xlink:href="#C0_0_744af75c42" y="240.871525"/>
    </g>
   </g>
   <g id="PathCollection_2">
    <defs>
     <path d="M 0 2.397916 
C 0.635935 2.397916 1.245909 2.145256 1.695582 1.695582 
C 2.145256 1.245909 2.397916 0.635935 2.397916 0 
C 2.397916 -0.635935 2.145256 -1.245909 1.695582 -1.695582 
C 1.245909 -2.145256 0.635935 -2.397916 0 -2.397916 
C -0.635935 -2.397916 -1.245909 -2.145256 -1.695582 -1.695582 
C -2.145256 -1.245909 -2.397916 -0.635935 -2.397916 0 
C -2.397916 0.635935 -2.145256 1.245909 -1.695582 1.695582 
C -1.245909 2.145256 -0.635935 2.397916 0 2.397916 
z
" id="C1_0_e3df0dd6e0"/>
    </defs>
    <g clip-path="url(#pa12a31facd)">
     <use x="223.999583" xlink:href="#C1_0_e3df0dd6e0" y="66.460165"/>
    </g>
    <g clip-path="url(#pa12a31facd)">
     <use x="129.593434" xlink:href="#C1_0_e3df0dd6e0" y="240.871525"/>
    </g>
   </g>
   <g id="PathCollection_3">
    <defs>
     <path d="M 0 1.581139 
C 0.419323 1.581139 0.821528 1.41454 1.118034 1.118034 
C 1.41454 0.821528 1.581139 0.419323 1.581139 0 
C 1.581139 -0.419323 1.41454 -0.821528 1.118034 -1.118034 
C 0.821528 -1.41454 0.419323 -1.581139 0 -1.581139 
C -0.419323 -1.581139 -0.821528 -1.41454 -1.118034 -1.118034 
C -1.41454 -0.821528 -1.581139 -0.419323 -1.581139 0 
C -1.581139 0.419323 -1.41454 0.821528 -1.118034 1.118034 
C -0.821528 1.41454 -0.419323 1.581139 0 1.581139 
z
" id="C2_0_2784258218"/>
    </defs>
    <g clip-path="url(#pa12a31facd)">
     <use style="fill:#ffffff;" x="223.999583" xlink:href="#C2_0_2784258218" y="66.460165"/>
    </g>
    <g clip-path="url(#pa12a31facd)">
     <use style="fill:#ffffff;" x="129.593434" xlink:href="#C2_0_2784258218" y="240.871525"/>
    </g>
   </g>
   <g id="PathCollection_4">
    <defs>
     <path d="M 0 2.397916 
C 0.635935 2.397916 1.245909 2.145256 1.695582 1.695582 
C 2.145256 1.245909 2.397916 0.635935 2.397916 0 
C 2.397916 -0.635935 2.145256 -1.245909 1.695582 -1.695582 
C 1.245909 -2.145256 0.635935 -2.397916 0 -2.397916 
C -0.635935 -2.397916 -1.245909 -2.145256 -1.695582 -1.695582 
C -2.145256 -1.245909 -2.397916 -0.635935 -2.397916 0 
C -2.397916 0.635935 -2.145256 1.245909 -1.695582 1.695582 
C -1.245909 2.145256 -0.635935 2.397916 0 2.397916 
z
" id="C3_0_54fefc863c"/>
    </defs>
    <g clip-path="url(#pa12a31facd)">
     <use x="244.000886" xlink:href="#C3_0_54fefc863c" y="66.460165"/>
    </g>
    <g clip-path="url(#pa12a31facd)">
     <use x="129.593434" xlink:href="#C3_0_54fefc863c" y="220.870222"/>
    </g>
   </g>
   <g id="PathCollection_5">
    <defs>
     <path d="M 0 2.397916 
C 0.635935 2.397916 1.245909 2.145256 1.695582 1.695582 
C 2.145256 1.245909 2.397916 0.635935 2.397916 0 
C 2.397916 -0.635935 2.145256 -1.245909 1.695582 -1.695582 
C 1.245909 -2.145256 0.635935 -2.397916 0 -2.397916 
C -0.635935 -2.397916 -1.245909 -2.145256 -1.695582 -1.695582 
C -2.145256 -1.245909 -2.397916 -0.635935 -2.397916 0 
C -2.397916 0.635935 -2.145256 1.245909 -1.695582 1.695582 
C -1.245909 2.145256 -0.635935 2.397916 0 2.397916 
z
" id="C4_0_0e6f91973e"/>
    </defs>
    <g clip-path="url(#pa12a31facd)">
     <use x="244.000886" xlink:href="#C4_0_0e6f91973e" y="52.059227"/>
    </g>
    <g clip-path="url(#pa12a31facd)">
     <use x="115.192496" xlink:href="#C4_0_0e6f91973e" y="220.870222"/>
    </g>
   </g>
   <g id="PathCollection_6">
    <defs>
     <path d="M 0 1.581139 
C 0.419323 1.581139 0.821528 1.41454 1.118034 1.118034 
C 1.41454 0.821528 1.581139 0.419323 1.581139 0 
C 1.581139 -0.419323 1.41454 -0.821528 1.118034 -1.118034 
C 0.821528 -1.41454 0.419323 -1.581139 0 -1.581139 
C -0.419323 -1.581139 -0.821528 -1.41454 -1.118034 -1.118034 
C -1.41454 -0.821528 -1.581139 -0.419323 -1.581139 0 
C -1.581139 0.419323 -1.41454 0.821528 -1.118034 1.118034 
C -0.821528 1.41454 -0.419323 1.581139 0 1.581139 
z
" id="C5_0_5a529a336b"/>
    </defs>
    <g clip-path="url(#pa12a31facd)">
     <use style="fill:#ffffff;" x="244.000886" xlink:href="#C5_0_5a529a336b" y="52.059227"/>
    </g>
    <g clip-path="url(#pa12a31facd)">
     <use style="fill:#ffffff;" x="115.192496" xlink:href="#C5_0_5a529a336b" y="220.870222"/>
    </g>
   </g>
   <g id="PathCollection_7">
    <defs>
     <path d="M 0 2.397916 
C 0.635935 2.397916 1.245909 2.145256 1.695582 1.695582 
C 2.145256 1.245909 2.397916 0.635935 2.397916 0 
C 2.397916 -0.635935 2.145256 -1.245909 1.695582 -1.695582 
C 1.245909 -2.145256 0.635935 -2.397916 0 -2.397916 
C -0.635935 -2.397916 -1.245909 -2.145256 -1.695582 -1.695582 
C -2.145256 -1.245909 -2.397916 -0.635935 -2.397916 0 
C -2.397916 0.635935 -2.145256 1.245909 -1.695582 1.695582 
C -1.245909 2.145256 -0.635935 2.397916 0 2.397916 
z
" id="C6_0_aa5fdc1636"/>
    </defs>
    <g clip-path="url(#pa12a31facd)">
     <use x="264.002189" xlink:href="#C6_0_aa5fdc1636" y="52.059227"/>
    </g>
    <g clip-path="url(#pa12a31facd)">
     <use x="115.192496" xlink:href="#C6_0_aa5fdc1636" y="200.868919"/>
    </g>
   </g>
   <g id="PathCollection_8">
    <defs>
     <path d="M 0 1.581139 
C 0.419323 1.581139 0.821528 1.41454 1.118034 1.118034 
C 1.41454 0.821528 1.581139 0.419323 1.581139 0 
C 1.581139 -0.419323 1.41454 -0.821528 1.118034 -1.118034 
C 0.821528 -1.41454 0.419323 -1.581139 0 -1.581139 
C -0.419323 -1.581139 -0.821528 -1.41454 -1.118034 -1.118034 
C -1.41454 -0.821528 -1.581139 -0.419323 -1.581139 0 
C -1.581139 0.419323 -1.41454 0.821528 -1.118034 1.118034 
C -0.821528 1.41454 -0.419323 1.581139 0 1.581139 
z
" id="C7_0_1b028645a9"/>
    </defs>
    <g clip-path="url(#pa12a31facd)">
     <use style="fill:#ffffff;" x="264.002189" xlink:href="#C7_0_1b028645a9" y="52.059227"/>
    </g>
    <g clip-path="url(#pa12a31facd)">
     <use style="fill:#ffffff;" x="115.192496" xlink:href="#C7_0_1b028645a9" y="200.868919"/>
    </g>
   </g>
   <g id="PathCollection_9">
    <defs>
     <path d="M 0 2.397916 
C 0.635935 2.397916 1.245909 2.145256 1.695582 1.695582 
C 2.145256 1.245909 2.397916 0.635935 2.397916 0 
C 2.397916 -0.635935 2.145256 -1.245909 1.695582 -1.695582 
C 1.245909 -2.145256 0.635935 -2.397916 0 -2.397916 
C -0.635935 -2.397916 -1.245909 -2.145256 -1.695582 -1.695582 
C -2.145256 -1.245909 -2.397916 -0.635935 -2.397916 0 
C -2.397916 0.635935 -2.145256 1.245909 -1.695582 1.695582 
C -1.245909 2.145256 -0.635935 2.397916 0 2.397916 
z
" id="C8_0_ee8896b9cf"/>
    </defs>
    <g clip-path="url(#pa12a31facd)">
     <use x="264.002189" xlink:href="#C8_0_ee8896b9cf" y="44.858758"/>
    </g>
    <g clip-path="url(#pa12a31facd)">
     <use x="107.992027" xlink:href="#C8_0_ee8896b9cf" y="200.868919"/>
    </g>
   </g>
   <g id="PathCollection_10">
    <defs>
     <path d="M 0 2.397916 
C 0.635935 2.397916 1.245909 2.145256 1.695582 1.695582 
C 2.145256 1.245909 2.397916 0.635935 2.397916 0 
C 2.397916 -0.635935 2.145256 -1.245909 1.695582 -1.695582 
C 1.245909 -2.145256 0.635935 -2.397916 0 -2.397916 
C -0.635935 -2.397916 -1.245909 -2.145256 -1.695582 -1.695582 
C -2.145256 -1.245909 -2.397916 -0.635935 -2.397916 0 
C -2.397916 0.635935 -2.145256 1.245909 -1.695582 1.695582 
C -1.245909 2.145256 -0.635935 2.397916 0 2.397916 
z
" id="C9_0_a28bc1bb90"/>
    </defs>
    <g clip-path="url(#pa12a31facd)">
     <use x="264.002189" xlink:href="#C9_0_a28bc1bb90" y="37.658289"/>
    </g>
    <g clip-path="url(#pa12a31facd)">
     <use x="100.791558" xlink:href="#C9_0_a28bc1bb90" y="200.868919"/>
    </g>
   </g>
   <g id="PathCollection_11">
    <defs>
     <path d="M 0 1.581139 
C 0.419323 1.581139 0.821528 1.41454 1.118034 1.118034 
C 1.41454 0.821528 1.581139 0.419323 1.581139 0 
C 1.581139 -0.419323 1.41454 -0.821528 1.118034 -1.118034 
C 0.821528 -1.41454 0.419323 -1.581139 0 -1.581139 
C -0.419323 -1.581139 -0.821528 -1.41454 -1.118034 -1.118034 
C -1.41454 -0.821528 -1.581139 -0.419323 -1.581139 0 
C -1.581139 0.419323 -1.41454 0.821528 -1.118034 1.118034 
C -0.821528 1.41454 -0.419323 1.581139 0 1.581139 
z
" id="Ca_0_9e2873e318"/>
    </defs>
    <g clip-path="url(#pa12a31facd)">
     <use style="fill:#ffffff;" x="264.002189" xlink:href="#Ca_0_9e2873e318" y="37.658289"/>
    </g>
    <g clip-path="url(#pa12a31facd)">
     <use style="fill:#ffffff;" x="100.791558" xlink:href="#Ca_0_9e2873e318" y="200.868919"/>
    </g>
   </g>
   <g id="PathCollection_12">
    <defs>
     <path d="M 0 2.397916 
C 0.635935 2.397916 1.245909 2.145256 1.695582 1.695582 
C 2.145256 1.245909 2.397916 0.635935 2.397916 0 
C 2.397916 -0.635935 2.145256 -1.245909 1.695582 -1.695582 
C 1.245909 -2.145256 0.635935 -2.397916 0 -2.397916 
C -0.635935 -2.397916 -1.245909 -2.145256 -1.695582 -1.695582 
C -2.145256 -1.245909 -2.397916 -0.635935 -2.397916 0 
C -2.397916 0.635935 -2.145256 1.245909 -1.695582 1.695582 
C -1.245909 2.145256 -0.635935 2.397916 0 2.397916 
z
" id="Cb_0_9f847c1b13"/>
    </defs>
    <g clip-path="url(#pa12a31facd)">
     <use x="284.003491" xlink:href="#Cb_0_9f847c1b13" y="37.658289"/>
    </g>
    <g clip-path="url(#pa12a31facd)">
     <use x="100.791558" xlink:href="#Cb_0_9f847c1b13" y="180.867617"/>
    </g>
   </g>
   <g id="PathCollection_13">
    <defs>
     <path d="M 0 1.581139 
C 0.419323 1.581139 0.821528 1.41454 1.118034 1.118034 
C 1.41454 0.821528 1.581139 0.419323 1.581139 0 
C 1.581139 -0.419323 1.41454 -0.821528 1.118034 -1.118034 
C 0.821528 -1.41454 0.419323 -1.581139 0 -1.581139 
C -0.419323 -1.581139 -0.821528 -1.41454 -1.118034 -1.118034 
C -1.41454 -0.821528 -1.581139 -0.419323 -1.581139 0 
C -1.581139 0.419323 -1.41454 0.821528 -1.118034 1.118034 
C -0.821528 1.41454 -0.419323 1.581139 0 1.581139 
z
" id="Cc_0_2687bc6767"/>
    </defs>
    <g clip-path="url(#pa12a31facd)">
     <use style="fill:#ffffff;" x="284.003491" xlink:href="#Cc_0_2687bc6767" y="37.658289"/>
    </g>
    <g clip-path="url(#pa12a31facd)">
     <use style="fill:#ffffff;" x="100.791558" xlink:href="#Cc_0_2687bc6767" y="180.867617"/>
    </g>
   </g>
   <g id="PathCollection_14">
    <defs>
     <path d="M 0 2.397916 
C 0.635935 2.397916 1.245909 2.145256 1.695582 1.695582 
C 2.145256 1.245909 2.397916 0.635935 2.397916 0 
C 2.397916 -0.635935 2.145256 -1.245909 1.695582 -1.695582 
C 1.245909 -2.145256 0.635935 -2.397916 0 -2.397916 
C -0.635935 -2.397916 -1.245909 -2.145256 -1.695582 -1.695582 
C -2.145256 -1.245909 -2.397916 -0.635935 -2.397916 0 
C -2.397916 0.635935 -2.145256 1.245909 -1.695582 1.695582 
C -1.245909 2.145256 -0.635935 2.397916 0 2.397916 
z
" id="Cd_0_74b6adfcbb"/>
    </defs>
    <g clip-path="url(#pa12a31facd)">
     <use x="284.003491" xlink:href="#Cd_0_74b6adfcbb" y="23.257351"/>
    </g>
    <g clip-path="url(#pa12a31facd)">
     <use x="86.39062" xlink:href="#Cd_0_74b6adfcbb" y="180.867617"/>
    </g>
   </g>
   <g id="PathCollection_15">
    <defs>
     <path d="M 0 2.397916 
C 0.635935 2.397916 1.245909 2.145256 1.695582 1.695582 
C 2.145256 1.245909 2.397916 0.635935 2.397916 0 
C 2.397916 -0.635935 2.145256 -1.245909 1.695582 -1.695582 
C 1.245909 -2.145256 0.635935 -2.397916 0 -2.397916 
C -0.635935 -2.397916 -1.245909 -2.145256 -1.695582 -1.695582 
C -2.145256 -1.245909 -2.397916 -0.635935 -2.397916 0 
C -2.397916 0.635935 -2.145256 1.245909 -1.695582 1.695582 
C -1.245909 2.145256 -0.635935 2.397916 0 2.397916 
z
" id="Ce_0_7907305301"/>
    </defs>
    <g clip-path="url(#pa12a31facd)">
     <use x="304.004794" xlink:href="#Ce_0_7907305301" y="23.257351"/>
    </g>
    <g clip-path="url(#pa12a31facd)">
     <use x="86.39062" xlink:href="#Ce_0_7907305301" y="160.866314"/>
    </g>
   </g>
   <g id="PathCollection_16">
    <defs>
     <path d="M 0 1.581139 
C 0.419323 1.581139 0.821528 1.41454 1.118034 1.118034 
C 1.41454 0.821528 1.581139 0.419323 1.581139 0 
C 1.581139 -0.419323 1.41454 -0.821528 1.118034 -1.118034 
C 0.821528 -1.41454 0.419323 -1.581139 0 -1.581139 
C -0.419323 -1.581139 -0.821528 -1.41454 -1.118034 -1.118034 
C -1.41454 -0.821528 -1.581139 -0.419323 -1.581139 0 
C -1.581139 0.419323 -1.41454 0.821528 -1.118034 1.118034 
C -0.821528 1.41454 -0.419323 1.581139 0 1.581139 
z
" id="Cf_0_4ec7c85bd8"/>
    </defs>
    <g clip-path="url(#pa12a31facd)">
     <use style="fill:#ffffff;" x="304.004794" xlink:href="#Cf_0_4ec7c85bd8" y="23.257351"/>
    </g>
    <g clip-path="url(#pa12a31facd)">
     <use style="fill:#ffffff;" x="86.39062" xlink:href="#Cf_0_4ec7c85bd8" y="160.866314"/>
    </g>
   </g>
   <g id="PathCollection_17">
    <defs>
     <path d="M 0 2.397916 
C 0.635935 2.397916 1.245909 2.145256 1.695582 1.695582 
C 2.145256 1.245909 2.397916 0.635935 2.397916 0 
C 2.397916 -0.635935 2.145256 -1.245909 1.695582 -1.695582 
C 1.245909 -2.145256 0.635935 -2.397916 0 -2.397916 
C -0.635935 -2.397916 -1.245909 -2.145256 -1.695582 -1.695582 
C -2.145256 -1.245909 -2.397916 -0.635935 -2.397916 0 
C -2.397916 0.635935 -2.145256 1.245909 -1.695582 1.695582 
C -1.245909 2.145256 -0.635935 2.397916 0 2.397916 
z
" id="C10_0_505e186d53"/>
    </defs>
    <g clip-path="url(#pa12a31facd)">
     <use x="304.004794" xlink:href="#C10_0_505e186d53" y="8.856413"/>
    </g>
    <g clip-path="url(#pa12a31facd)">
     <use x="71.989682" xlink:href="#C10_0_505e186d53" y="160.866314"/>
    </g>
   </g>
   <g id="PathCollection_18">
    <path clip-path="url(#pa12a31facd)" d="M 223.999583 163.604927 
C 224.725872 163.604927 225.422511 163.316369 225.936075 162.802806 
C 226.449638 162.289242 226.738196 161.592602 226.738196 160.866314 
C 226.738196 160.140025 226.449638 159.443386 225.936075 158.929822 
C 225.422511 158.416259 224.725872 158.127701 223.999583 158.127701 
C 223.273295 158.127701 222.576655 158.416259 222.063091 158.929822 
C 221.549528 159.443386 221.26097 160.140025 221.26097 160.866314 
C 221.26097 161.592602 221.549528 162.289242 222.063091 162.802806 
C 222.576655 163.316369 223.273295 163.604927 223.999583 163.604927 
z
" style="fill:#00fa9a;"/>
   </g>
   <g id="PathCollection_19">
    <path clip-path="url(#pa12a31facd)" d="M 304.004794 243.610138 
C 304.731083 243.610138 305.427722 243.32158 305.941286 242.808017 
C 306.45485 242.294453 306.743407 241.597814 306.743407 240.871525 
C 306.743407 240.145236 306.45485 239.448597 305.941286 238.935033 
C 305.427722 238.42147 304.731083 238.132912 304.004794 238.132912 
C 303.278506 238.132912 302.581866 238.42147 302.068303 238.935033 
C 301.554739 239.448597 301.266181 240.145236 301.266181 240.871525 
C 301.266181 241.597814 301.554739 242.294453 302.068303 242.808017 
C 302.581866 243.32158 303.278506 243.610138 304.004794 243.610138 
z
" style="fill:#00fa9a;"/>
   </g>
   <g id="PathCollection_20">
    <path clip-path="url(#pa12a31facd)" d="M 244.000886 183.606229 
C 244.727174 183.606229 245.423814 183.317672 245.937378 182.804108 
C 246.450941 182.290545 246.739499 181.593905 246.739499 180.867617 
C 246.739499 180.141328 246.450941 179.444689 245.937378 178.931125 
C 245.423814 178.417561 244.727174 178.129004 244.000886 178.129004 
C 243.274597 178.129004 242.577958 178.417561 242.064394 178.931125 
C 241.550831 179.444689 241.262273 180.141328 241.262273 180.867617 
C 241.262273 181.593905 241.550831 182.290545 242.064394 182.804108 
C 242.577958 183.317672 243.274597 183.606229 244.000886 183.606229 
z
" style="fill:#00fa9a;"/>
   </g>
   <g id="PathCollection_21">
    <path clip-path="url(#pa12a31facd)" d="M 284.003491 223.608835 
C 284.72978 223.608835 285.42642 223.320277 285.939983 222.806714 
C 286.453547 222.29315 286.742104 221.596511 286.742104 220.870222 
C 286.742104 220.143934 286.453547 219.447294 285.939983 218.933731 
C 285.42642 218.420167 284.72978 218.131609 284.003491 218.131609 
C 283.277203 218.131609 282.580563 218.420167 282.067 218.933731 
C 281.553436 219.447294 281.264879 220.143934 281.264879 220.870222 
C 281.264879 221.596511 281.553436 222.29315 282.067 222.806714 
C 282.580563 223.320277 283.277203 223.608835 284.003491 223.608835 
z
" style="fill:#00fa9a;"/>
   </g>
   <g id="PathCollection_22">
    <path clip-path="url(#pa12a31facd)" d="M 223.999583 163.604927 
C 224.725872 163.604927 225.422511 163.316369 225.936075 162.802806 
C 226.449638 162.289242 226.738196 161.592602 226.738196 160.866314 
C 226.738196 160.140025 226.449638 159.443386 225.936075 158.929822 
C 225.422511 158.416259 224.725872 158.127701 223.999583 158.127701 
C 223.273295 158.127701 222.576655 158.416259 222.063091 158.929822 
C 221.549528 159.443386 221.26097 160.140025 221.26097 160.866314 
C 221.26097 161.592602 221.549528 162.289242 222.063091 162.802806 
C 222.576655 163.316369 223.273295 163.604927 223.999583 163.604927 
z
" style="fill:#00fa9a;"/>
   </g>
   <g id="PathCollection_23">
    <path clip-path="url(#pa12a31facd)" d="M 304.004794 243.610138 
C 304.731083 243.610138 305.427722 243.32158 305.941286 242.808017 
C 306.45485 242.294453 306.743407 241.597814 306.743407 240.871525 
C 306.743407 240.145236 306.45485 239.448597 305.941286 238.935033 
C 305.427722 238.42147 304.731083 238.132912 304.004794 238.132912 
C 303.278506 238.132912 302.581866 238.42147 302.068303 238.935033 
C 301.554739 239.448597 301.266181 240.145236 301.266181 240.871525 
C 301.266181 241.597814 301.554739 242.294453 302.068303 242.808017 
C 302.581866 243.32158 303.278506 243.610138 304.004794 243.610138 
z
" style="fill:#00fa9a;"/>
   </g>
   <g id="PathCollection_24">
    <path clip-path="url(#pa12a31facd)" d="M 264.002189 203.607532 
C 264.728477 203.607532 265.425117 203.318975 265.93868 202.805411 
C 266.452244 202.291848 266.740801 201.595208 266.740801 200.868919 
C 266.740801 200.142631 266.452244 199.445991 265.93868 198.932428 
C 265.425117 198.418864 264.728477 198.130307 264.002189 198.130307 
C 263.2759 198.130307 262.579261 198.418864 262.065697 198.932428 
C 261.552133 199.445991 261.263576 200.142631 261.263576 200.868919 
C 261.263576 201.595208 261.552133 202.291848 262.065697 202.805411 
C 262.579261 203.318975 263.2759 203.607532 264.002189 203.607532 
z
" style="fill:#00fa9a;"/>
   </g>
   <g id="PathCollection_25">
    <path clip-path="url(#pa12a31facd)" d="M 244.000886 183.606229 
C 244.727174 183.606229 245.423814 183.317672 245.937378 182.804108 
C 246.450941 182.290545 246.739499 181.593905 246.739499 180.867617 
C 246.739499 180.141328 246.450941 179.444689 245.937378 178.931125 
C 245.423814 178.417561 244.727174 178.129004 244.000886 178.129004 
C 243.274597 178.129004 242.577958 178.417561 242.064394 178.931125 
C 241.550831 179.444689 241.262273 180.141328 241.262273 180.867617 
C 241.262273 181.593905 241.550831 182.290545 242.064394 182.804108 
C 242.577958 183.317672 243.274597 183.606229 244.000886 183.606229 
z
" style="fill:#00fa9a;"/>
   </g>
   <g id="PathCollection_26">
    <path clip-path="url(#pa12a31facd)" d="M 284.003491 223.608835 
C 284.72978 223.608835 285.42642 223.320277 285.939983 222.806714 
C 286.453547 222.29315 286.742104 221.596511 286.742104 220.870222 
C 286.742104 220.143934 286.453547 219.447294 285.939983 218.933731 
C 285.42642 218.420167 284.72978 218.131609 284.003491 218.131609 
C 283.277203 218.131609 282.580563 218.420167 282.067 218.933731 
C 281.553436 219.447294 281.264879 220.143934 281.264879 220.870222 
C 281.264879 221.596511 281.553436 222.29315 282.067 222.806714 
C 282.580563 223.320277 283.277203 223.608835 284.003491 223.608835 
z
" style="fill:#00fa9a;"/>
   </g>
   <g id="PathCollection_27">
    <path clip-path="url(#pa12a31facd)" d="M 264.002189 203.607532 
C 264.728477 203.607532 265.425117 203.318975 265.93868 202.805411 
C 266.452244 202.291848 266.740801 201.595208 266.740801 200.868919 
C 266.740801 200.142631 266.452244 199.445991 265.93868 198.932428 
C 265.425117 198.418864 264.728477 198.130307 264.002189 198.130307 
C 263.2759 198.130307 262.579261 198.418864 262.065697 198.932428 
C 261.552133 199.445991 261.263576 200.142631 261.263576 200.868919 
C 261.263576 201.595208 261.552133 202.291848 262.065697 202.805411 
C 262.579261 203.318975 263.2759 203.607532 264.002189 203.607532 
z
" style="fill:#00fa9a;"/>
   </g>
   <g id="patch_48">
    <path clip-path="url(#pa12a31facd)" d="M 143.994372 320.876736 
L 143.994372 240.871525 
L 223.999583 320.876736 
z
" style="fill:#ff0000;"/>
   </g>
   <g id="patch_49">
    <path clip-path="url(#pa12a31facd)" d="M 143.994372 240.871525 
L 143.994372 220.870222 
L 163.995675 240.871525 
z
" style="fill:#ff0000;"/>
   </g>
   <g id="patch_50">
    <path clip-path="url(#pa12a31facd)" d="M 223.999583 320.876736 
L 244.000886 320.876736 
L 223.999583 300.875433 
z
" style="fill:#ff0000;"/>
   </g>
   <g id="patch_51">
    <path clip-path="url(#pa12a31facd)" d="M 143.994372 220.870222 
L 143.994372 200.868919 
L 163.995675 220.870222 
z
" style="fill:#ff0000;"/>
   </g>
   <g id="patch_52">
    <path clip-path="url(#pa12a31facd)" d="M 244.000886 320.876736 
L 264.002189 320.876736 
L 244.000886 300.875433 
z
" style="fill:#ff0000;"/>
   </g>
   <g id="patch_53">
    <path clip-path="url(#pa12a31facd)" d="M 143.994372 200.868919 
L 143.994372 180.867617 
L 163.995675 200.868919 
z
" style="fill:#ff0000;"/>
   </g>
   <g id="patch_54">
    <path clip-path="url(#pa12a31facd)" d="M 264.002189 320.876736 
L 284.003491 320.876736 
L 264.002189 300.875433 
z
" style="fill:#ff0000;"/>
   </g>
   <g id="patch_55">
    <path clip-path="url(#pa12a31facd)" d="M 143.994372 180.867617 
L 143.994372 160.866314 
L 163.995675 180.867617 
z
" style="fill:#ff0000;"/>
   </g>
   <g id="patch_56">
    <path clip-path="url(#pa12a31facd)" d="M 284.003491 320.876736 
L 304.004794 320.876736 
L 284.003491 300.875433 
z
" style="fill:#ff0000;"/>
   </g>
   <g id="patch_57">
    <path clip-path="url(#pa12a31facd)" d="M 143.994372 160.866314 
L 143.994372 80.861103 
L 223.999583 160.866314 
z
" style="fill:#ff0000;"/>
   </g>
   <g id="patch_58">
    <path clip-path="url(#pa12a31facd)" d="M 304.004794 320.876736 
L 384.010005 320.876736 
L 304.004794 240.871525 
z
" style="fill:#ff0000;"/>
   </g>
   <g id="patch_59">
    <path clip-path="url(#pa12a31facd)" d="M 223.999583 180.867617 
L 223.999583 160.866314 
L 244.000886 180.867617 
z
" style="fill:#ff0000;"/>
   </g>
   <g id="patch_60">
    <path clip-path="url(#pa12a31facd)" d="M 284.003491 240.871525 
L 304.004794 240.871525 
L 284.003491 220.870222 
z
" style="fill:#ff0000;"/>
   </g>
   <g id="patch_61">
    <path clip-path="url(#pa12a31facd)" d="M 244.000886 200.868919 
L 244.000886 180.867617 
L 264.002189 200.868919 
z
" style="fill:#ff0000;"/>
   </g>
   <g id="patch_62">
    <path clip-path="url(#pa12a31facd)" d="M 264.002189 220.870222 
L 284.003491 220.870222 
L 264.002189 200.868919 
z
" style="fill:#ff0000;"/>
   </g>
   <g id="matplotlib.axis_1">
    <g id="xtick_1">
     <g id="line2d_27">
      <path clip-path="url(#pa12a31facd)" d="M 143.994372 332.013462 
L 143.994372 2.52 
" style="fill:none;stroke:#000000;stroke-dasharray:0.5,0.825;stroke-dashoffset:0;stroke-width:0.5;"/>
     </g>
     <g id="line2d_28">
      <defs>
       <path d="M 0 0 
L 0 3.5 
" id="m5ea6c5b156" style="stroke:#000000;stroke-width:0.8;"/>
      </defs>
      <g>
       <use style="stroke:#000000;stroke-width:0.8;" x="143.994372" xlink:href="#m5ea6c5b156" y="320.876736"/>
      </g>
     </g>
    </g>
    <g id="xtick_2">
     <g id="line2d_29">
      <path clip-path="url(#pa12a31facd)" d="M 223.999583 332.013462 
L 223.999583 2.52 
" style="fill:none;stroke:#000000;stroke-dasharray:0.5,0.825;stroke-dashoffset:0;stroke-width:0.5;"/>
     </g>
     <g id="line2d_30">
      <g>
       <use style="stroke:#000000;stroke-width:0.8;" x="223.999583" xlink:href="#m5ea6c5b156" y="320.876736"/>
      </g>
     </g>
     <g id="text_1">
      <!-- $\frac{1}{3}$ -->
      <defs>
       <path d="M 9.28125 0 
L 9.28125 3.515625 
Q 21.78125 3.515625 21.78125 6.6875 
L 21.78125 59.1875 
Q 16.609375 56.6875 8.6875 56.6875 
L 8.6875 60.203125 
Q 20.953125 60.203125 27.203125 66.609375 
L 28.609375 66.609375 
Q 28.953125 66.609375 29.265625 66.328125 
Q 29.59375 66.0625 29.59375 65.71875 
L 29.59375 6.6875 
Q 29.59375 3.515625 42.09375 3.515625 
L 42.09375 0 
z
" id="Cmr10-31"/>
       <path d="M 9.515625 7.71875 
Q 11.859375 4.296875 15.8125 2.640625 
Q 19.78125 0.984375 24.3125 0.984375 
Q 30.125 0.984375 32.5625 5.9375 
Q 35.015625 10.890625 35.015625 17.1875 
Q 35.015625 20.015625 34.5 22.84375 
Q 33.984375 25.6875 32.765625 28.125 
Q 31.546875 30.5625 29.421875 32.03125 
Q 27.296875 33.5 24.21875 33.5 
L 17.578125 33.5 
Q 16.703125 33.5 16.703125 34.421875 
L 16.703125 35.296875 
Q 16.703125 36.078125 17.578125 36.078125 
L 23.09375 36.53125 
Q 26.609375 36.53125 28.921875 39.15625 
Q 31.25 41.796875 32.328125 45.578125 
Q 33.40625 49.359375 33.40625 52.78125 
Q 33.40625 57.5625 31.15625 60.640625 
Q 28.90625 63.71875 24.3125 63.71875 
Q 20.515625 63.71875 17.046875 62.28125 
Q 13.578125 60.84375 11.53125 57.90625 
Q 11.71875 57.953125 11.859375 57.984375 
Q 12.015625 58.015625 12.203125 58.015625 
Q 14.453125 58.015625 15.96875 56.453125 
Q 17.484375 54.890625 17.484375 52.6875 
Q 17.484375 50.53125 15.96875 48.96875 
Q 14.453125 47.40625 12.203125 47.40625 
Q 10.015625 47.40625 8.453125 48.96875 
Q 6.890625 50.53125 6.890625 52.6875 
Q 6.890625 56.984375 9.46875 60.15625 
Q 12.0625 63.328125 16.140625 64.96875 
Q 20.21875 66.609375 24.3125 66.609375 
Q 27.34375 66.609375 30.703125 65.703125 
Q 34.078125 64.796875 36.8125 63.109375 
Q 39.546875 61.421875 41.28125 58.78125 
Q 43.015625 56.15625 43.015625 52.78125 
Q 43.015625 48.578125 41.140625 45.015625 
Q 39.265625 41.453125 35.984375 38.859375 
Q 32.71875 36.28125 28.8125 35.015625 
Q 33.15625 34.1875 37.0625 31.734375 
Q 40.96875 29.296875 43.328125 25.484375 
Q 45.703125 21.6875 45.703125 17.28125 
Q 45.703125 11.765625 42.671875 7.296875 
Q 39.65625 2.828125 34.71875 0.3125 
Q 29.78125 -2.203125 24.3125 -2.203125 
Q 19.625 -2.203125 14.90625 -0.40625 
Q 10.203125 1.375 7.203125 4.9375 
Q 4.203125 8.5 4.203125 13.484375 
Q 4.203125 15.96875 5.859375 17.625 
Q 7.515625 19.28125 10.015625 19.28125 
Q 11.625 19.28125 12.96875 18.53125 
Q 14.3125 17.78125 15.0625 16.40625 
Q 15.828125 15.046875 15.828125 13.484375 
Q 15.828125 11.03125 14.109375 9.375 
Q 12.40625 7.71875 10.015625 7.71875 
z
" id="Cmr10-33"/>
      </defs>
      <g transform="translate(221.599583 336.376736)scale(0.1 -0.1)">
       <use transform="translate(0 38.373438)scale(0.7)" xlink:href="#Cmr10-31"/>
       <use transform="translate(0 -39.503125)scale(0.7)" xlink:href="#Cmr10-33"/>
       <path d="M 0 13.373437 
L 0 19.623437 
L 35 19.623437 
L 35 13.373437 
L 0 13.373437 
z
"/>
      </g>
     </g>
    </g>
    <g id="xtick_3">
     <g id="line2d_31">
      <path clip-path="url(#pa12a31facd)" d="M 244.000886 332.013462 
L 244.000886 2.52 
" style="fill:none;stroke:#000000;stroke-dasharray:0.5,0.825;stroke-dashoffset:0;stroke-width:0.5;"/>
     </g>
     <g id="line2d_32">
      <g>
       <use style="stroke:#000000;stroke-width:0.8;" x="244.000886" xlink:href="#m5ea6c5b156" y="320.876736"/>
      </g>
     </g>
     <g id="text_2">
      <!-- $\frac{5}{12}$ -->
      <defs>
       <path d="M 8.6875 11.375 
Q 9.71875 8.453125 11.84375 6.046875 
Q 13.96875 3.65625 16.875 2.3125 
Q 19.78125 0.984375 22.90625 0.984375 
Q 30.125 0.984375 32.859375 6.59375 
Q 35.59375 12.203125 35.59375 20.21875 
Q 35.59375 23.6875 35.46875 26.046875 
Q 35.359375 28.421875 34.8125 30.609375 
Q 33.890625 34.125 31.5625 36.765625 
Q 29.25 39.40625 25.875 39.40625 
Q 22.515625 39.40625 20.09375 38.375 
Q 17.671875 37.359375 16.15625 35.984375 
Q 14.65625 34.625 13.484375 33.109375 
Q 12.3125 31.59375 12.015625 31.5 
L 10.890625 31.5 
Q 10.640625 31.5 10.265625 31.8125 
Q 9.90625 32.125 9.90625 32.421875 
L 9.90625 65.828125 
Q 9.90625 66.0625 10.21875 66.328125 
Q 10.546875 66.609375 10.890625 66.609375 
L 11.1875 66.609375 
Q 17.921875 63.375 25.484375 63.375 
Q 32.90625 63.375 39.796875 66.609375 
L 40.09375 66.609375 
Q 40.4375 66.609375 40.71875 66.359375 
Q 41.015625 66.109375 41.015625 65.828125 
L 41.015625 64.890625 
Q 41.015625 64.40625 40.828125 64.40625 
Q 37.40625 59.859375 32.25 57.3125 
Q 27.09375 54.78125 21.578125 54.78125 
Q 17.578125 54.78125 13.375 55.90625 
L 13.375 37.015625 
Q 16.703125 39.703125 19.3125 40.84375 
Q 21.921875 42 25.984375 42 
Q 31.5 42 35.859375 38.8125 
Q 40.234375 35.640625 42.578125 30.53125 
Q 44.921875 25.4375 44.921875 20.125 
Q 44.921875 14.109375 41.96875 8.984375 
Q 39.015625 3.859375 33.9375 0.828125 
Q 28.859375 -2.203125 22.90625 -2.203125 
Q 17.96875 -2.203125 13.84375 0.328125 
Q 9.71875 2.875 7.34375 7.171875 
Q 4.984375 11.46875 4.984375 16.3125 
Q 4.984375 18.5625 6.4375 19.96875 
Q 7.90625 21.390625 10.109375 21.390625 
Q 12.3125 21.390625 13.796875 19.9375 
Q 15.28125 18.5 15.28125 16.3125 
Q 15.28125 14.15625 13.796875 12.671875 
Q 12.3125 11.1875 10.109375 11.1875 
Q 9.765625 11.1875 9.328125 11.25 
Q 8.890625 11.328125 8.6875 11.375 
z
" id="Cmr10-35"/>
       <path d="M 4.984375 0 
L 4.984375 2.6875 
Q 4.984375 2.9375 5.171875 3.21875 
L 20.703125 20.40625 
Q 24.21875 24.21875 26.40625 26.796875 
Q 28.609375 29.390625 30.75 32.765625 
Q 32.90625 36.140625 34.15625 39.625 
Q 35.40625 43.109375 35.40625 47.015625 
Q 35.40625 51.125 33.890625 54.859375 
Q 32.375 58.59375 29.375 60.84375 
Q 26.375 63.09375 22.125 63.09375 
Q 17.78125 63.09375 14.3125 60.46875 
Q 10.84375 57.859375 9.421875 53.71875 
Q 9.8125 53.8125 10.5 53.8125 
Q 12.75 53.8125 14.328125 52.296875 
Q 15.921875 50.78125 15.921875 48.390625 
Q 15.921875 46.09375 14.328125 44.5 
Q 12.75 42.921875 10.5 42.921875 
Q 8.15625 42.921875 6.5625 44.546875 
Q 4.984375 46.1875 4.984375 48.390625 
Q 4.984375 52.15625 6.390625 55.4375 
Q 7.8125 58.734375 10.46875 61.296875 
Q 13.140625 63.875 16.484375 65.234375 
Q 19.828125 66.609375 23.578125 66.609375 
Q 29.296875 66.609375 34.21875 64.1875 
Q 39.15625 61.765625 42.03125 57.34375 
Q 44.921875 52.9375 44.921875 47.015625 
Q 44.921875 42.671875 43.015625 38.765625 
Q 41.109375 34.859375 38.125 31.65625 
Q 35.15625 28.46875 30.515625 24.40625 
Q 25.875 20.359375 24.421875 19 
L 13.09375 8.109375 
L 22.703125 8.109375 
Q 29.78125 8.109375 34.546875 8.21875 
Q 39.3125 8.34375 39.59375 8.59375 
Q 40.765625 9.859375 42 17.828125 
L 44.921875 17.828125 
L 42.09375 0 
z
" id="Cmr10-32"/>
      </defs>
      <g transform="translate(239.850886 336.476736)scale(0.1 -0.1)">
       <use transform="translate(18 39.373438)scale(0.7)" xlink:href="#Cmr10-35"/>
       <use transform="translate(0 -40.045312)scale(0.7)" xlink:href="#Cmr10-31"/>
       <use transform="translate(35 -40.045312)scale(0.7)" xlink:href="#Cmr10-32"/>
       <path d="M 0 12.83125 
L 0 19.08125 
L 70 19.08125 
L 70 12.83125 
L 0 12.83125 
z
"/>
      </g>
     </g>
    </g>
    <g id="xtick_4">
     <g id="line2d_33">
      <path clip-path="url(#pa12a31facd)" d="M 264.002189 332.013462 
L 264.002189 2.52 
" style="fill:none;stroke:#000000;stroke-dasharray:0.5,0.825;stroke-dashoffset:0;stroke-width:0.5;"/>
     </g>
     <g id="line2d_34">
      <g>
       <use style="stroke:#000000;stroke-width:0.8;" x="264.002189" xlink:href="#m5ea6c5b156" y="320.876736"/>
      </g>
     </g>
     <g id="text_3">
      <!-- $\frac{1}{2}$ -->
      <g transform="translate(261.602189 336.376736)scale(0.1 -0.1)">
       <use transform="translate(0 38.373438)scale(0.7)" xlink:href="#Cmr10-31"/>
       <use transform="translate(0 -39.503125)scale(0.7)" xlink:href="#Cmr10-32"/>
       <path d="M 0 13.373437 
L 0 19.623437 
L 35 19.623437 
L 35 13.373437 
L 0 13.373437 
z
"/>
      </g>
     </g>
    </g>
    <g id="xtick_5">
     <g id="line2d_35">
      <path clip-path="url(#pa12a31facd)" d="M 284.003491 332.013462 
L 284.003491 2.52 
" style="fill:none;stroke:#000000;stroke-dasharray:0.5,0.825;stroke-dashoffset:0;stroke-width:0.5;"/>
     </g>
     <g id="line2d_36">
      <g>
       <use style="stroke:#000000;stroke-width:0.8;" x="284.003491" xlink:href="#m5ea6c5b156" y="320.876736"/>
      </g>
     </g>
     <g id="text_4">
      <!-- $\frac{7}{12}$ -->
      <defs>
       <path d="M 17.390625 2.59375 
Q 17.390625 8.15625 18.359375 13.46875 
Q 19.34375 18.796875 21.21875 24 
Q 23.09375 29.203125 25.75 34.203125 
Q 28.421875 39.203125 31.59375 43.609375 
L 40.71875 56.296875 
L 29.296875 56.296875 
Q 11.53125 56.296875 10.984375 55.8125 
Q 9.671875 54.203125 8.5 46.578125 
L 5.609375 46.578125 
L 8.890625 67.578125 
L 11.8125 67.578125 
L 11.8125 67.28125 
Q 11.8125 65.484375 17.921875 64.9375 
Q 24.03125 64.40625 29.890625 64.40625 
L 48.484375 64.40625 
L 48.484375 61.8125 
Q 48.484375 61.71875 48.453125 61.671875 
Q 48.4375 61.625 48.390625 61.53125 
L 34.625 42.1875 
Q 29.546875 34.671875 28.265625 25.484375 
Q 27 16.3125 27 2.59375 
Q 27 0.640625 25.578125 -0.78125 
Q 24.171875 -2.203125 22.21875 -2.203125 
Q 20.21875 -2.203125 18.796875 -0.78125 
Q 17.390625 0.640625 17.390625 2.59375 
z
" id="Cmr10-37"/>
      </defs>
      <g transform="translate(279.853491 336.576736)scale(0.1 -0.1)">
       <use transform="translate(18 39.695312)scale(0.7)" xlink:href="#Cmr10-37"/>
       <use transform="translate(0 -39.723437)scale(0.7)" xlink:href="#Cmr10-31"/>
       <use transform="translate(35 -39.723437)scale(0.7)" xlink:href="#Cmr10-32"/>
       <path d="M 0 13.153125 
L 0 19.403125 
L 70 19.403125 
L 70 13.153125 
L 0 13.153125 
z
"/>
      </g>
     </g>
    </g>
    <g id="xtick_6">
     <g id="line2d_37">
      <path clip-path="url(#pa12a31facd)" d="M 304.004794 332.013462 
L 304.004794 2.52 
" style="fill:none;stroke:#000000;stroke-dasharray:0.5,0.825;stroke-dashoffset:0;stroke-width:0.5;"/>
     </g>
     <g id="line2d_38">
      <g>
       <use style="stroke:#000000;stroke-width:0.8;" x="304.004794" xlink:href="#m5ea6c5b156" y="320.876736"/>
      </g>
     </g>
     <g id="text_5">
      <!-- $\frac{2}{3}$ -->
      <g transform="translate(301.604794 336.376736)scale(0.1 -0.1)">
       <use transform="translate(0 38.373438)scale(0.7)" xlink:href="#Cmr10-32"/>
       <use transform="translate(0 -39.503125)scale(0.7)" xlink:href="#Cmr10-33"/>
       <path d="M 0 13.373437 
L 0 19.623437 
L 35 19.623437 
L 35 13.373437 
L 0 13.373437 
z
"/>
      </g>
     </g>
    </g>
    <g id="xtick_7">
     <g id="line2d_39">
      <path clip-path="url(#pa12a31facd)" d="M 384.010005 332.013462 
L 384.010005 2.52 
" style="fill:none;stroke:#000000;stroke-dasharray:0.5,0.825;stroke-dashoffset:0;stroke-width:0.5;"/>
     </g>
     <g id="line2d_40">
      <g>
       <use style="stroke:#000000;stroke-width:0.8;" x="384.010005" xlink:href="#m5ea6c5b156" y="320.876736"/>
      </g>
     </g>
     <g id="text_6">
      <!-- $1$ -->
      <g transform="translate(381.510005 335.475174)scale(0.1 -0.1)">
       <use transform="translate(0 0.390625)" xlink:href="#Cmr10-31"/>
      </g>
     </g>
    </g>
   </g>
   <g id="matplotlib.axis_2">
    <g id="ytick_1">
     <g id="line2d_41">
      <path clip-path="url(#pa12a31facd)" d="M 65.653269 320.876736 
L 395.146731 320.876736 
" style="fill:none;stroke:#000000;stroke-dasharray:0.5,0.825;stroke-dashoffset:0;stroke-width:0.5;"/>
     </g>
     <g id="line2d_42">
      <defs>
       <path d="M 0 0 
L -3.5 0 
" id="ma950c52596" style="stroke:#000000;stroke-width:0.8;"/>
      </defs>
      <g>
       <use style="stroke:#000000;stroke-width:0.8;" x="143.994372" xlink:href="#ma950c52596" y="320.876736"/>
      </g>
     </g>
    </g>
    <g id="ytick_2">
     <g id="line2d_43">
      <path clip-path="url(#pa12a31facd)" d="M 65.653269 240.871525 
L 395.146731 240.871525 
" style="fill:none;stroke:#000000;stroke-dasharray:0.5,0.825;stroke-dashoffset:0;stroke-width:0.5;"/>
     </g>
     <g id="line2d_44">
      <g>
       <use style="stroke:#000000;stroke-width:0.8;" x="143.994372" xlink:href="#ma950c52596" y="240.871525"/>
      </g>
     </g>
     <g id="text_7">
      <!-- $\frac{1}{3}$ -->
      <g transform="translate(132.194372 245.121525)scale(0.1 -0.1)">
       <use transform="translate(0 38.373438)scale(0.7)" xlink:href="#Cmr10-31"/>
       <use transform="translate(0 -39.503125)scale(0.7)" xlink:href="#Cmr10-33"/>
       <path d="M 0 13.373437 
L 0 19.623437 
L 35 19.623437 
L 35 13.373437 
L 0 13.373437 
z
"/>
      </g>
     </g>
    </g>
    <g id="ytick_3">
     <g id="line2d_45">
      <path clip-path="url(#pa12a31facd)" d="M 65.653269 220.870222 
L 395.146731 220.870222 
" style="fill:none;stroke:#000000;stroke-dasharray:0.5,0.825;stroke-dashoffset:0;stroke-width:0.5;"/>
     </g>
     <g id="line2d_46">
      <g>
       <use style="stroke:#000000;stroke-width:0.8;" x="143.994372" xlink:href="#ma950c52596" y="220.870222"/>
      </g>
     </g>
     <g id="text_8">
      <!-- $\frac{5}{12}$ -->
      <g transform="translate(128.694372 225.170222)scale(0.1 -0.1)">
       <use transform="translate(18 39.373438)scale(0.7)" xlink:href="#Cmr10-35"/>
       <use transform="translate(0 -40.045312)scale(0.7)" xlink:href="#Cmr10-31"/>
       <use transform="translate(35 -40.045312)scale(0.7)" xlink:href="#Cmr10-32"/>
       <path d="M 0 12.83125 
L 0 19.08125 
L 70 19.08125 
L 70 12.83125 
L 0 12.83125 
z
"/>
      </g>
     </g>
    </g>
    <g id="ytick_4">
     <g id="line2d_47">
      <path clip-path="url(#pa12a31facd)" d="M 65.653269 200.868919 
L 395.146731 200.868919 
" style="fill:none;stroke:#000000;stroke-dasharray:0.5,0.825;stroke-dashoffset:0;stroke-width:0.5;"/>
     </g>
     <g id="line2d_48">
      <g>
       <use style="stroke:#000000;stroke-width:0.8;" x="143.994372" xlink:href="#ma950c52596" y="200.868919"/>
      </g>
     </g>
     <g id="text_9">
      <!-- $\frac{1}{2}$ -->
      <g transform="translate(132.194372 205.118919)scale(0.1 -0.1)">
       <use transform="translate(0 38.373438)scale(0.7)" xlink:href="#Cmr10-31"/>
       <use transform="translate(0 -39.503125)scale(0.7)" xlink:href="#Cmr10-32"/>
       <path d="M 0 13.373437 
L 0 19.623437 
L 35 19.623437 
L 35 13.373437 
L 0 13.373437 
z
"/>
      </g>
     </g>
    </g>
    <g id="ytick_5">
     <g id="line2d_49">
      <path clip-path="url(#pa12a31facd)" d="M 65.653269 180.867617 
L 395.146731 180.867617 
" style="fill:none;stroke:#000000;stroke-dasharray:0.5,0.825;stroke-dashoffset:0;stroke-width:0.5;"/>
     </g>
     <g id="line2d_50">
      <g>
       <use style="stroke:#000000;stroke-width:0.8;" x="143.994372" xlink:href="#ma950c52596" y="180.867617"/>
      </g>
     </g>
     <g id="text_10">
      <!-- $\frac{7}{12}$ -->
      <g transform="translate(128.694372 185.217617)scale(0.1 -0.1)">
       <use transform="translate(18 39.695312)scale(0.7)" xlink:href="#Cmr10-37"/>
       <use transform="translate(0 -39.723437)scale(0.7)" xlink:href="#Cmr10-31"/>
       <use transform="translate(35 -39.723437)scale(0.7)" xlink:href="#Cmr10-32"/>
       <path d="M 0 13.153125 
L 0 19.403125 
L 70 19.403125 
L 70 13.153125 
L 0 13.153125 
z
"/>
      </g>
     </g>
    </g>
    <g id="ytick_6">
     <g id="line2d_51">
      <path clip-path="url(#pa12a31facd)" d="M 65.653269 160.866314 
L 395.146731 160.866314 
" style="fill:none;stroke:#000000;stroke-dasharray:0.5,0.825;stroke-dashoffset:0;stroke-width:0.5;"/>
     </g>
     <g id="line2d_52">
      <g>
       <use style="stroke:#000000;stroke-width:0.8;" x="143.994372" xlink:href="#ma950c52596" y="160.866314"/>
      </g>
     </g>
     <g id="text_11">
      <!-- $\frac{2}{3}$ -->
      <g transform="translate(132.194372 165.116314)scale(0.1 -0.1)">
       <use transform="translate(0 38.373438)scale(0.7)" xlink:href="#Cmr10-32"/>
       <use transform="translate(0 -39.503125)scale(0.7)" xlink:href="#Cmr10-33"/>
       <path d="M 0 13.373437 
L 0 19.623437 
L 35 19.623437 
L 35 13.373437 
L 0 13.373437 
z
"/>
      </g>
     </g>
    </g>
    <g id="ytick_7">
     <g id="line2d_53">
      <path clip-path="url(#pa12a31facd)" d="M 65.653269 80.861103 
L 395.146731 80.861103 
" style="fill:none;stroke:#000000;stroke-dasharray:0.5,0.825;stroke-dashoffset:0;stroke-width:0.5;"/>
     </g>
     <g id="line2d_54">
      <g>
       <use style="stroke:#000000;stroke-width:0.8;" x="143.994372" xlink:href="#ma950c52596" y="80.861103"/>
      </g>
     </g>
     <g id="text_12">
      <!-- $1$ -->
      <g transform="translate(131.994372 84.660321)scale(0.1 -0.1)">
       <use transform="translate(0 0.390625)" xlink:href="#Cmr10-31"/>
      </g>
     </g>
    </g>
   </g>
   <g id="line2d_55">
    <path clip-path="url(#pa12a31facd)" d="M 143.994372 320.876736 
L 143.994372 240.871525 
" style="fill:none;stroke:#00fa9a;stroke-linecap:square;stroke-width:2;"/>
   </g>
   <g id="line2d_56">
    <path clip-path="url(#pa12a31facd)" d="M 143.994372 320.876736 
L 223.999583 320.876736 
" style="fill:none;stroke:#00fa9a;stroke-linecap:square;stroke-width:2;"/>
   </g>
   <g id="line2d_57">
    <path clip-path="url(#pa12a31facd)" d="M 143.994372 240.871525 
L 143.994372 220.870222 
" style="fill:none;stroke:#00fa9a;stroke-linecap:square;stroke-width:2;"/>
   </g>
   <g id="line2d_58">
    <path clip-path="url(#pa12a31facd)" d="M 223.999583 320.876736 
L 244.000886 320.876736 
" style="fill:none;stroke:#00fa9a;stroke-linecap:square;stroke-width:2;"/>
   </g>
   <g id="line2d_59">
    <path clip-path="url(#pa12a31facd)" d="M 143.994372 220.870222 
L 143.994372 200.868919 
" style="fill:none;stroke:#00fa9a;stroke-linecap:square;stroke-width:2;"/>
   </g>
   <g id="line2d_60">
    <path clip-path="url(#pa12a31facd)" d="M 244.000886 320.876736 
L 264.002189 320.876736 
" style="fill:none;stroke:#00fa9a;stroke-linecap:square;stroke-width:2;"/>
   </g>
   <g id="line2d_61">
    <path clip-path="url(#pa12a31facd)" d="M 143.994372 200.868919 
L 143.994372 180.867617 
" style="fill:none;stroke:#00fa9a;stroke-linecap:square;stroke-width:2;"/>
   </g>
   <g id="line2d_62">
    <path clip-path="url(#pa12a31facd)" d="M 264.002189 320.876736 
L 284.003491 320.876736 
" style="fill:none;stroke:#00fa9a;stroke-linecap:square;stroke-width:2;"/>
   </g>
   <g id="line2d_63">
    <path clip-path="url(#pa12a31facd)" d="M 143.994372 180.867617 
L 143.994372 160.866314 
" style="fill:none;stroke:#00fa9a;stroke-linecap:square;stroke-width:2;"/>
   </g>
   <g id="line2d_64">
    <path clip-path="url(#pa12a31facd)" d="M 284.003491 320.876736 
L 304.004794 320.876736 
" style="fill:none;stroke:#00fa9a;stroke-linecap:square;stroke-width:2;"/>
   </g>
   <g id="line2d_65">
    <path clip-path="url(#pa12a31facd)" d="M 143.994372 160.866314 
L 143.994372 80.861103 
" style="fill:none;stroke:#00fa9a;stroke-linecap:square;stroke-width:2;"/>
   </g>
   <g id="line2d_66">
    <path clip-path="url(#pa12a31facd)" d="M 304.004794 320.876736 
L 384.010005 320.876736 
" style="fill:none;stroke:#00fa9a;stroke-linecap:square;stroke-width:2;"/>
   </g>
   <g id="line2d_67">
    <path clip-path="url(#pa12a31facd)" d="M 223.999583 320.876736 
L 223.999583 300.875433 
" style="fill:none;stroke:#00fa9a;stroke-linecap:square;stroke-width:2;"/>
   </g>
   <g id="line2d_68">
    <path clip-path="url(#pa12a31facd)" d="M 143.994372 240.871525 
L 163.995675 240.871525 
" style="fill:none;stroke:#00fa9a;stroke-linecap:square;stroke-width:2;"/>
   </g>
   <g id="line2d_69">
    <path clip-path="url(#pa12a31facd)" d="M 223.999583 180.867617 
L 223.999583 160.866314 
" style="fill:none;stroke:#00fa9a;stroke-linecap:square;stroke-width:2;"/>
   </g>
   <g id="line2d_70">
    <path clip-path="url(#pa12a31facd)" d="M 284.003491 240.871525 
L 304.004794 240.871525 
" style="fill:none;stroke:#00fa9a;stroke-linecap:square;stroke-width:2;"/>
   </g>
   <g id="line2d_71">
    <path clip-path="url(#pa12a31facd)" d="M 244.000886 320.876736 
L 244.000886 300.875433 
" style="fill:none;stroke:#00fa9a;stroke-linecap:square;stroke-width:2;"/>
   </g>
   <g id="line2d_72">
    <path clip-path="url(#pa12a31facd)" d="M 143.994372 220.870222 
L 163.995675 220.870222 
" style="fill:none;stroke:#00fa9a;stroke-linecap:square;stroke-width:2;"/>
   </g>
   <g id="line2d_73">
    <path clip-path="url(#pa12a31facd)" d="M 244.000886 200.868919 
L 244.000886 180.867617 
" style="fill:none;stroke:#00fa9a;stroke-linecap:square;stroke-width:2;"/>
   </g>
   <g id="line2d_74">
    <path clip-path="url(#pa12a31facd)" d="M 264.002189 220.870222 
L 284.003491 220.870222 
" style="fill:none;stroke:#00fa9a;stroke-linecap:square;stroke-width:2;"/>
   </g>
   <g id="line2d_75">
    <path clip-path="url(#pa12a31facd)" d="M 264.002189 320.876736 
L 264.002189 300.875433 
" style="fill:none;stroke:#00fa9a;stroke-linecap:square;stroke-width:2;"/>
   </g>
   <g id="line2d_76">
    <path clip-path="url(#pa12a31facd)" d="M 143.994372 200.868919 
L 163.995675 200.868919 
" style="fill:none;stroke:#00fa9a;stroke-linecap:square;stroke-width:2;"/>
   </g>
   <g id="line2d_77">
    <path clip-path="url(#pa12a31facd)" d="M 264.002189 220.870222 
L 264.002189 200.868919 
" style="fill:none;stroke:#00fa9a;stroke-linecap:square;stroke-width:2;"/>
   </g>
   <g id="line2d_78">
    <path clip-path="url(#pa12a31facd)" d="M 244.000886 200.868919 
L 264.002189 200.868919 
" style="fill:none;stroke:#00fa9a;stroke-linecap:square;stroke-width:2;"/>
   </g>
   <g id="line2d_79">
    <path clip-path="url(#pa12a31facd)" d="M 284.003491 320.876736 
L 284.003491 300.875433 
" style="fill:none;stroke:#00fa9a;stroke-linecap:square;stroke-width:2;"/>
   </g>
   <g id="line2d_80">
    <path clip-path="url(#pa12a31facd)" d="M 143.994372 180.867617 
L 163.995675 180.867617 
" style="fill:none;stroke:#00fa9a;stroke-linecap:square;stroke-width:2;"/>
   </g>
   <g id="line2d_81">
    <path clip-path="url(#pa12a31facd)" d="M 284.003491 240.871525 
L 284.003491 220.870222 
" style="fill:none;stroke:#00fa9a;stroke-linecap:square;stroke-width:2;"/>
   </g>
   <g id="line2d_82">
    <path clip-path="url(#pa12a31facd)" d="M 223.999583 180.867617 
L 244.000886 180.867617 
" style="fill:none;stroke:#00fa9a;stroke-linecap:square;stroke-width:2;"/>
   </g>
   <g id="line2d_83">
    <path clip-path="url(#pa12a31facd)" d="M 304.004794 320.876736 
L 304.004794 240.871525 
" style="fill:none;stroke:#00fa9a;stroke-linecap:square;stroke-width:2;"/>
   </g>
   <g id="line2d_84">
    <path clip-path="url(#pa12a31facd)" d="M 143.994372 160.866314 
L 223.999583 160.866314 
" style="fill:none;stroke:#00fa9a;stroke-linecap:square;stroke-width:2;"/>
   </g>
   <g id="line2d_85">
    <path clip-path="url(#pa12a31facd)" d="M 143.994372 240.871525 
L 223.999583 320.876736 
" style="fill:none;stroke:#00fa9a;stroke-linecap:square;stroke-width:2;"/>
   </g>
   <g id="line2d_86">
    <path clip-path="url(#pa12a31facd)" d="M 143.994372 220.870222 
L 163.995675 240.871525 
" style="fill:none;stroke:#00fa9a;stroke-linecap:square;stroke-width:2;"/>
   </g>
   <g id="line2d_87">
    <path clip-path="url(#pa12a31facd)" d="M 223.999583 300.875433 
L 244.000886 320.876736 
" style="fill:none;stroke:#00fa9a;stroke-linecap:square;stroke-width:2;"/>
   </g>
   <g id="line2d_88">
    <path clip-path="url(#pa12a31facd)" d="M 143.994372 200.868919 
L 163.995675 220.870222 
" style="fill:none;stroke:#00fa9a;stroke-linecap:square;stroke-width:2;"/>
   </g>
   <g id="line2d_89">
    <path clip-path="url(#pa12a31facd)" d="M 244.000886 300.875433 
L 264.002189 320.876736 
" style="fill:none;stroke:#00fa9a;stroke-linecap:square;stroke-width:2;"/>
   </g>
   <g id="line2d_90">
    <path clip-path="url(#pa12a31facd)" d="M 143.994372 180.867617 
L 163.995675 200.868919 
" style="fill:none;stroke:#00fa9a;stroke-linecap:square;stroke-width:2;"/>
   </g>
   <g id="line2d_91">
    <path clip-path="url(#pa12a31facd)" d="M 264.002189 300.875433 
L 284.003491 320.876736 
" style="fill:none;stroke:#00fa9a;stroke-linecap:square;stroke-width:2;"/>
   </g>
   <g id="line2d_92">
    <path clip-path="url(#pa12a31facd)" d="M 143.994372 160.866314 
L 163.995675 180.867617 
" style="fill:none;stroke:#00fa9a;stroke-linecap:square;stroke-width:2;"/>
   </g>
   <g id="line2d_93">
    <path clip-path="url(#pa12a31facd)" d="M 284.003491 300.875433 
L 304.004794 320.876736 
" style="fill:none;stroke:#00fa9a;stroke-linecap:square;stroke-width:2;"/>
   </g>
   <g id="line2d_94">
    <path clip-path="url(#pa12a31facd)" d="M 143.994372 80.861103 
L 223.999583 160.866314 
" style="fill:none;stroke:#00fa9a;stroke-linecap:square;stroke-width:2;"/>
   </g>
   <g id="line2d_95">
    <path clip-path="url(#pa12a31facd)" d="M 304.004794 240.871525 
L 384.010005 320.876736 
" style="fill:none;stroke:#00fa9a;stroke-linecap:square;stroke-width:2;"/>
   </g>
   <g id="line2d_96">
    <path clip-path="url(#pa12a31facd)" d="M 223.999583 160.866314 
L 244.000886 180.867617 
" style="fill:none;stroke:#00fa9a;stroke-linecap:square;stroke-width:2;"/>
   </g>
   <g id="line2d_97">
    <path clip-path="url(#pa12a31facd)" d="M 284.003491 220.870222 
L 304.004794 240.871525 
" style="fill:none;stroke:#00fa9a;stroke-linecap:square;stroke-width:2;"/>
   </g>
   <g id="line2d_98">
    <path clip-path="url(#pa12a31facd)" d="M 244.000886 180.867617 
L 264.002189 200.868919 
" style="fill:none;stroke:#00fa9a;stroke-linecap:square;stroke-width:2;"/>
   </g>
   <g id="line2d_99">
    <path clip-path="url(#pa12a31facd)" d="M 264.002189 200.868919 
L 284.003491 220.870222 
" style="fill:none;stroke:#00fa9a;stroke-linecap:square;stroke-width:2;"/>
   </g>
   <g id="line2d_100">
    <path clip-path="url(#pa12a31facd)" d="M 143.994372 240.871525 
L 223.999583 320.876736 
" style="fill:none;stroke:#808080;stroke-linecap:square;"/>
   </g>
   <g id="line2d_101">
    <path clip-path="url(#pa12a31facd)" d="M 143.994372 220.870222 
L 244.000886 320.876736 
" style="fill:none;stroke:#808080;stroke-linecap:square;"/>
   </g>
   <g id="line2d_102">
    <path clip-path="url(#pa12a31facd)" d="M 143.994372 200.868919 
L 264.002189 320.876736 
" style="fill:none;stroke:#808080;stroke-linecap:square;"/>
   </g>
   <g id="line2d_103">
    <path clip-path="url(#pa12a31facd)" d="M 143.994372 180.867617 
L 284.003491 320.876736 
" style="fill:none;stroke:#808080;stroke-linecap:square;"/>
   </g>
   <g id="line2d_104">
    <path clip-path="url(#pa12a31facd)" d="M 143.994372 160.866314 
L 304.004794 320.876736 
" style="fill:none;stroke:#808080;stroke-linecap:square;"/>
   </g>
   <g id="line2d_105">
    <path clip-path="url(#pa12a31facd)" d="M 143.994372 80.861103 
L 384.010005 320.876736 
" style="fill:none;stroke:#808080;stroke-linecap:square;"/>
   </g>
   <g id="line2d_106">
    <path clip-path="url(#pa12a31facd)" d="M 143.994372 320.876736 
L 384.010005 320.876736 
L 384.010005 320.876736 
" style="fill:none;stroke:#808080;stroke-linecap:square;"/>
   </g>
   <g id="line2d_107">
    <path clip-path="url(#pa12a31facd)" d="M 143.994372 240.871525 
L 304.004794 240.871525 
L 304.004794 240.871525 
" style="fill:none;stroke:#808080;stroke-linecap:square;"/>
   </g>
   <g id="line2d_108">
    <path clip-path="url(#pa12a31facd)" d="M 143.994372 220.870222 
L 284.003491 220.870222 
L 284.003491 220.870222 
" style="fill:none;stroke:#808080;stroke-linecap:square;"/>
   </g>
   <g id="line2d_109">
    <path clip-path="url(#pa12a31facd)" d="M 143.994372 200.868919 
L 264.002189 200.868919 
L 264.002189 200.868919 
" style="fill:none;stroke:#808080;stroke-linecap:square;"/>
   </g>
   <g id="line2d_110">
    <path clip-path="url(#pa12a31facd)" d="M 143.994372 180.867617 
L 244.000886 180.867617 
L 244.000886 180.867617 
" style="fill:none;stroke:#808080;stroke-linecap:square;"/>
   </g>
   <g id="line2d_111">
    <path clip-path="url(#pa12a31facd)" d="M 143.994372 160.866314 
L 223.999583 160.866314 
L 223.999583 160.866314 
" style="fill:none;stroke:#808080;stroke-linecap:square;"/>
   </g>
   <g id="line2d_112">
    <path clip-path="url(#pa12a31facd)" d="M 143.994372 320.876736 
L 143.994372 80.861103 
L 143.994372 80.861103 
" style="fill:none;stroke:#808080;stroke-linecap:square;"/>
   </g>
   <g id="line2d_113">
    <path clip-path="url(#pa12a31facd)" d="M 223.999583 320.876736 
L 223.999583 160.866314 
L 223.999583 160.866314 
" style="fill:none;stroke:#808080;stroke-linecap:square;"/>
   </g>
   <g id="line2d_114">
    <path clip-path="url(#pa12a31facd)" d="M 244.000886 320.876736 
L 244.000886 180.867617 
L 244.000886 180.867617 
" style="fill:none;stroke:#808080;stroke-linecap:square;"/>
   </g>
   <g id="line2d_115">
    <path clip-path="url(#pa12a31facd)" d="M 264.002189 320.876736 
L 264.002189 200.868919 
L 264.002189 200.868919 
" style="fill:none;stroke:#808080;stroke-linecap:square;"/>
   </g>
   <g id="line2d_116">
    <path clip-path="url(#pa12a31facd)" d="M 284.003491 320.876736 
L 284.003491 220.870222 
L 284.003491 220.870222 
" style="fill:none;stroke:#808080;stroke-linecap:square;"/>
   </g>
   <g id="line2d_117">
    <path clip-path="url(#pa12a31facd)" d="M 304.004794 320.876736 
L 304.004794 240.871525 
L 304.004794 240.871525 
" style="fill:none;stroke:#808080;stroke-linecap:square;"/>
   </g>
   <g id="line2d_118">
    <path clip-path="url(#pa12a31facd)" d="M 203.99828 320.876736 
L 203.99828 80.861103 
" style="fill:none;stroke:#808080;stroke-dasharray:1,1.65;stroke-dashoffset:0;"/>
   </g>
   <g id="line2d_119">
    <path clip-path="url(#pa12a31facd)" d="M 143.994372 260.872828 
L 384.010005 260.872828 
" style="fill:none;stroke:#808080;stroke-dasharray:1,1.65;stroke-dashoffset:0;"/>
   </g>
   <g id="line2d_120">
    <path clip-path="url(#pa12a31facd)" d="M 163.995675 320.876736 
L 163.995675 80.861103 
" style="fill:none;stroke:#808080;stroke-dasharray:1,1.65;stroke-dashoffset:0;"/>
   </g>
   <g id="line2d_121">
    <path clip-path="url(#pa12a31facd)" d="M 143.994372 300.875433 
L 384.010005 300.875433 
" style="fill:none;stroke:#808080;stroke-dasharray:1,1.65;stroke-dashoffset:0;"/>
   </g>
   <g id="line2d_122">
    <path clip-path="url(#pa12a31facd)" d="M 183.996978 320.876736 
L 183.996978 80.861103 
" style="fill:none;stroke:#808080;stroke-dasharray:1,1.65;stroke-dashoffset:0;"/>
   </g>
   <g id="line2d_123">
    <path clip-path="url(#pa12a31facd)" d="M 143.994372 280.874131 
L 384.010005 280.874131 
" style="fill:none;stroke:#808080;stroke-dasharray:1,1.65;stroke-dashoffset:0;"/>
   </g>
   <g id="line2d_124">
    <path clip-path="url(#pa12a31facd)" d="M 143.994372 100.862406 
L 364.008703 320.876736 
" style="fill:none;stroke:#808080;stroke-dasharray:1,1.65;stroke-dashoffset:0;"/>
   </g>
   <g id="line2d_125">
    <path clip-path="url(#pa12a31facd)" d="M 143.994372 140.865011 
L 324.006097 320.876736 
" style="fill:none;stroke:#808080;stroke-dasharray:1,1.65;stroke-dashoffset:0;"/>
   </g>
   <g id="line2d_126">
    <path clip-path="url(#pa12a31facd)" d="M 143.994372 120.863708 
L 344.0074 320.876736 
" style="fill:none;stroke:#808080;stroke-dasharray:1,1.65;stroke-dashoffset:0;"/>
   </g>
   <g id="patch_63">
    <path d="M 143.994372 332.013462 
L 143.994372 2.52 
" style="fill:none;stroke:#000000;stroke-linecap:square;stroke-linejoin:miter;stroke-width:0.8;"/>
   </g>
   <g id="patch_64">
    <path d="M 65.653269 320.876736 
L 395.146731 320.876736 
" style="fill:none;stroke:#000000;stroke-linecap:square;stroke-linejoin:miter;stroke-width:0.8;"/>
   </g>
  </g>
 </g>
 <defs>
  <clipPath id="pa12a31facd">
   <rect height="329.493462" width="329.493462" x="65.653269" y="2.52"/>
  </clipPath>
 </defs>
</svg>
