<?xml version="1.0" encoding="utf-8" standalone="no"?>
<!DOCTYPE svg PUBLIC "-//W3C//DTD SVG 1.1//EN"
  "http://www.w3.org/Graphics/SVG/1.1/DTD/svg11.dtd">
<!-- Created with matplotlib (http://matplotlib.org/) -->
<svg height="108pt" version="1.1" viewBox="0 0 576 108" width="576pt" xmlns="http://www.w3.org/2000/svg" xmlns:xlink="http://www.w3.org/1999/xlink">
 <defs>
  <style type="text/css">
*{stroke-linecap:butt;stroke-linejoin:round;}
  </style>
 </defs>
 <g id="figure_1">
  <g id="patch_1">
   <path d="M 0 108 
L 576 108 
L 576 0 
L 0 0 
z
" style="fill:#ffffff;"/>
  </g>
  <g id="axes_1">
   <g id="patch_2">
    <path d="M 4.074135 87.704405 
L 573.48 87.704405 
L 573.48 16.528672 
L 4.074135 16.528672 
z
" style="fill:#ffffff;"/>
   </g>
   <g id="line2d_1">
    <path clip-path="url(#pdba549fbd2)" d="M 71.662762 71.818446 
L 90.542267 46.931826 
L 90.542267 46.931826 
" style="fill:none;stroke:#ff0000;stroke-linecap:square;stroke-width:2;"/>
   </g>
   <g id="line2d_2">
    <path clip-path="url(#pdba549fbd2)" d="M 128.301276 57.301251 
L 147.180781 32.414631 
L 147.180781 32.414631 
" style="fill:none;stroke:#ff0000;stroke-linecap:square;stroke-width:2;"/>
   </g>
   <g id="line2d_3">
    <path clip-path="url(#pdba549fbd2)" d="M 317.096325 69.053266 
L 335.975829 44.166646 
L 335.975829 44.166646 
" style="fill:none;stroke:#ff0000;stroke-linecap:square;stroke-width:2;"/>
   </g>
   <g id="line2d_4">
    <path clip-path="url(#pdba549fbd2)" d="M 430.373353 60.066431 
L 430.513163 59.882136 
L 430.535585 59.852581 
L 430.666176 59.680438 
L 430.725009 59.602885 
L 430.87268 59.408228 
L 430.951213 59.304707 
L 431.081706 59.132694 
L 431.135866 59.061301 
L 431.216471 58.955048 
L 431.280405 58.870773 
L 431.451713 58.644957 
L 431.523724 58.550033 
L 431.599791 58.449764 
L 431.676692 58.348394 
L 431.796142 58.190937 
L 431.867449 58.096941 
L 432.019728 57.89621 
L 432.115281 57.770254 
L 432.131973 57.74825 
L 432.231436 57.617141 
L 432.409332 57.382641 
L 432.460223 57.315558 
L 432.511749 57.247637 
L 432.677892 57.02863 
L 432.787258 56.884466 
L 432.847376 56.805219 
L 432.905919 56.728049 
L 433.068344 56.513944 
L 433.138041 56.42207 
L 433.256887 56.265409 
L 433.354065 56.137311 
L 433.422776 56.046738 
L 433.493791 55.953127 
L 433.601827 55.810716 
L 433.688675 55.696234 
L 433.803697 55.544615 
L 433.904286 55.41202 
L 433.989839 55.299245 
L 434.03652 55.237711 
L 434.20752 55.012302 
L 434.257588 54.946304 
L 434.393859 54.766673 
L 434.418339 54.734405 
L 434.540674 54.573144 
L 434.653877 54.423922 
L 434.741484 54.30844 
L 434.804399 54.225507 
L 434.932648 54.056451 
L 434.985187 53.987196 
" style="fill:none;stroke:#ff0000;stroke-linecap:square;stroke-width:2;"/>
   </g>
   <g id="line2d_5">
    <path clip-path="url(#pdba549fbd2)" d="M 435.353225 53.502055 
L 435.426349 53.405664 
L 435.467742 53.351101 
L 435.600249 53.176432 
L 435.720641 53.017734 
L 435.7553 52.972047 
L 435.840892 52.859221 
L 435.952536 52.712053 
L 436.020009 52.623112 
L 436.133315 52.473755 
L 436.284275 52.274762 
L 436.390379 52.134897 
L 436.473137 52.025807 
L 436.54421 51.93212 
L 436.654188 51.787149 
L 436.735034 51.68058 
L 436.779903 51.621434 
L 436.891394 51.474468 
L 437.036771 51.282835 
L 437.145248 51.139843 
L 437.202893 51.063856 
L 437.254765 50.99548 
L 437.381223 50.828785 
L 437.471982 50.709148 
L 437.565507 50.585865 
L 437.709023 50.396684 
L 437.73458 50.362996 
L 437.862288 50.194653 
L 437.960635 50.065014 
L 438.050956 49.945955 
L 438.194521 49.75671 
L 438.276053 49.649236 
L 438.343674 49.5601 
L 438.43357 49.441599 
L 438.542503 49.298007 
L 438.631035 49.181305 
L 438.749286 49.025429 
L 438.781728 48.982664 
L 438.941058 48.772638 
L 439.015775 48.674148 
L 439.058611 48.617683 
L 439.228534 48.393693 
L 439.26123 48.350594 
L 439.342902 48.242935 
L 439.510886 48.021501 
L 439.574133 47.93813 
L 439.711724 47.756761 
L 439.735773 47.72506 
L 439.904406 47.502771 
L 439.978985 47.404462 
L 440.017308 47.353946 
L 440.181382 47.137667 
L 440.226316 47.078434 
L 440.320552 46.954215 
L 440.403032 46.845491 
L 440.529085 46.67933 
L 440.594088 46.593644 
L 440.711298 46.439141 
L 440.798099 46.324721 
L 440.927855 46.15368 
L 441.012578 46.041999 
L 441.104063 45.921405 
L 441.174319 45.828794 
L 441.288713 45.678003 
L 441.383323 45.55329 
L 441.440483 45.477943 
L 441.57338 45.30276 
L 441.634777 45.221828 
L 441.785291 45.023422 
L 441.891544 44.883361 
L 441.938356 44.821655 
L 442.019185 44.715107 
L 442.162816 44.525776 
L 442.188224 44.492284 
L 442.303808 44.339923 
L 442.382759 44.23585 
L 442.484042 44.102342 
L 442.589991 43.962682 
L 442.673181 43.853022 
L 442.812322 43.669609 
L 442.903431 43.549511 
L 443.02605 43.387877 
L 443.085785 43.309135 
L 443.209154 43.146513 
L 443.254418 43.086846 
L 443.401665 42.892747 
L 443.421585 42.86649 
L 443.523698 42.731885 
L 443.648127 42.567865 
L 443.724623 42.46703 
L 443.88639 42.253792 
L 443.902052 42.233146 
L 443.988794 42.118805 
L 444.160661 41.892253 
L 444.189094 41.854773 
L 444.306828 41.699579 
L 444.398101 41.579264 
L 444.501667 41.442745 
L 444.574243 41.347077 
L 444.712689 41.164579 
L 444.807585 41.03949 
" style="fill:none;stroke:#ff0000;stroke-linecap:square;stroke-width:2;"/>
   </g>
   <g id="line2d_6">
    <path clip-path="url(#pdba549fbd2)" d="M 445.092356 40.664109 
L 445.143725 40.596396 
L 445.293769 40.39861 
L 445.364453 40.305436 
L 445.451414 40.190806 
L 445.532164 40.084362 
L 445.608249 39.984069 
L 445.752171 39.794353 
L 445.858651 39.653994 
L 445.978166 39.496451 
L 445.984513 39.488084 
L 446.164181 39.25125 
L 446.227626 39.167617 
L 446.349185 39.00738 
L 446.369571 38.980508 
L 446.504189 38.803057 
L 446.622115 38.647609 
L 446.7148 38.525434 
L 446.797581 38.416312 
L 446.903504 38.276687 
L 446.973645 38.184228 
L 447.109943 38.004563 
L 447.174248 37.919797 
L 447.272785 37.789908 
L 447.350869 37.686978 
L 447.479512 37.517404 
L 447.515435 37.470051 
L 447.664073 37.274118 
L 447.767075 37.138344 
L 447.83668 37.046592 
L 447.930383 36.923074 
L 448.055896 36.757625 
L 448.080697 36.724933 
L 448.183147 36.589886 
L 448.311254 36.421017 
L 448.379377 36.331217 
L 448.499794 36.172486 
L 448.563617 36.088357 
L 448.724092 35.876821 
L 448.817897 35.753169 
L 448.881878 35.66883 
L 448.996254 35.518063 
L 449.035057 35.466913 
L 449.197923 35.252226 
L 449.252858 35.179811 
" style="fill:none;stroke:#ff0000;stroke-linecap:square;stroke-width:2;"/>
   </g>
   <g id="line2d_7">
    <path clip-path="url(#pdba549fbd2)" d="M 15.024247 86.335641 
L 33.903752 41.401466 
L 33.903752 41.401466 
" style="fill:none;stroke:#ffda00;stroke-linecap:square;stroke-width:2;"/>
   </g>
   <g id="line2d_8">
    <path clip-path="url(#pdba549fbd2)" d="M 184.939791 62.831611 
L 203.819296 17.897436 
L 203.819296 17.897436 
" style="fill:none;stroke:#ffda00;stroke-linecap:square;stroke-width:2;"/>
   </g>
   <g id="line2d_9">
    <path clip-path="url(#pdba549fbd2)" d="M 373.734839 74.583626 
L 392.614344 29.649451 
L 392.614344 29.649451 
" style="fill:none;stroke:#ffda00;stroke-linecap:square;stroke-width:2;"/>
   </g>
   <g id="line2d_10">
    <path clip-path="url(#pdba549fbd2)" d="M 222.6988 53.153481 
L 241.578305 68.361971 
L 241.578305 68.361971 
" style="fill:none;stroke:#48ff00;stroke-linecap:square;stroke-width:2;"/>
   </g>
   <g id="line2d_11">
    <path clip-path="url(#pdba549fbd2)" d="M 298.21682 53.844776 
L 317.096325 69.053266 
L 317.096325 69.053266 
" style="fill:none;stroke:#48ff00;stroke-linecap:square;stroke-width:2;"/>
   </g>
   <g id="line2d_12">
    <path clip-path="url(#pdba549fbd2)" d="M 449.252858 35.179811 
L 468.132363 50.388301 
L 468.132363 50.388301 
" style="fill:none;stroke:#48ff00;stroke-linecap:square;stroke-width:2;"/>
   </g>
   <g id="line2d_13">
    <path clip-path="url(#pdba549fbd2)" d="M 524.770878 35.871106 
L 543.650382 51.079596 
L 543.650382 51.079596 
" style="fill:none;stroke:#48ff00;stroke-linecap:square;stroke-width:2;"/>
   </g>
   <g id="line2d_14">
    <path clip-path="url(#pdba549fbd2)" d="M 203.819296 17.897436 
L 222.6988 53.153481 
L 222.6988 53.153481 
" style="fill:none;stroke:#00ff91;stroke-linecap:square;stroke-width:2;"/>
   </g>
   <g id="line2d_15">
    <path clip-path="url(#pdba549fbd2)" d="M 543.650382 51.079596 
L 562.529887 86.335641 
L 562.529887 86.335641 
" style="fill:none;stroke:#00ff91;stroke-linecap:square;stroke-width:2;"/>
   </g>
   <g id="line2d_16">
    <path clip-path="url(#pdba549fbd2)" d="M 52.783257 66.633733 
L 71.662762 71.818446 
L 71.662762 71.818446 
" style="fill:none;stroke:#0091ff;stroke-linecap:square;stroke-width:2;"/>
   </g>
   <g id="line2d_17">
    <path clip-path="url(#pdba549fbd2)" d="M 90.542267 46.931826 
L 128.301276 57.301251 
L 128.301276 57.301251 
" style="fill:none;stroke:#0091ff;stroke-linecap:square;stroke-width:2;"/>
   </g>
   <g id="line2d_18">
    <path clip-path="url(#pdba549fbd2)" d="M 147.180781 32.414631 
L 166.060286 37.599343 
L 166.060286 37.599343 
" style="fill:none;stroke:#0091ff;stroke-linecap:square;stroke-width:2;"/>
   </g>
   <g id="line2d_19">
    <path clip-path="url(#pdba549fbd2)" d="M 335.975829 44.166646 
L 354.855334 49.351358 
L 354.855334 49.351358 
" style="fill:none;stroke:#0091ff;stroke-linecap:square;stroke-width:2;"/>
   </g>
   <g id="line2d_20">
    <path clip-path="url(#pdba549fbd2)" d="M 411.493849 54.881718 
L 430.373353 60.066431 
L 430.373353 60.066431 
" style="fill:none;stroke:#0091ff;stroke-linecap:square;stroke-width:2;"/>
   </g>
   <g id="line2d_21">
    <path clip-path="url(#pdba549fbd2)" d="M 241.578305 68.361971 
L 298.21682 53.844776 
L 298.21682 53.844776 
" style="fill:none;stroke:#4800ff;stroke-linecap:square;stroke-width:2;"/>
   </g>
   <g id="line2d_22">
    <path clip-path="url(#pdba549fbd2)" d="M 468.132363 50.388301 
L 524.770878 35.871106 
L 524.770878 35.871106 
" style="fill:none;stroke:#4800ff;stroke-linecap:square;stroke-width:2;"/>
   </g>
   <g id="line2d_23">
    <path clip-path="url(#pdba549fbd2)" d="M 33.903752 41.401466 
L 52.783257 66.633733 
L 52.783257 66.633733 
" style="fill:none;stroke:#ff00da;stroke-linecap:square;stroke-width:2;"/>
   </g>
   <g id="line2d_24">
    <path clip-path="url(#pdba549fbd2)" d="M 166.060286 37.599343 
L 184.939791 62.831611 
L 184.939791 62.831611 
" style="fill:none;stroke:#ff00da;stroke-linecap:square;stroke-width:2;"/>
   </g>
   <g id="line2d_25">
    <path clip-path="url(#pdba549fbd2)" d="M 354.855334 49.351358 
L 373.734839 74.583626 
L 373.734839 74.583626 
" style="fill:none;stroke:#ff00da;stroke-linecap:square;stroke-width:2;"/>
   </g>
   <g id="line2d_26">
    <path clip-path="url(#pdba549fbd2)" d="M 392.614344 29.649451 
L 411.493849 54.881718 
L 411.493849 54.881718 
" style="fill:none;stroke:#ff00da;stroke-linecap:square;stroke-width:2;"/>
   </g>
   <g id="matplotlib.axis_1">
    <g id="xtick_1">
     <g id="line2d_27">
      <path clip-path="url(#pdba549fbd2)" d="M 15.024247 87.704405 
L 15.024247 16.528672 
" style="fill:none;stroke:#000000;stroke-dasharray:0.5,0.825;stroke-dashoffset:0;stroke-width:0.5;"/>
     </g>
     <g id="line2d_28">
      <defs>
       <path d="M 0 0 
L 0 3.5 
" id="m081fb0297c" style="stroke:#000000;stroke-width:0.8;"/>
      </defs>
      <g>
       <use style="stroke:#000000;stroke-width:0.8;" x="15.024247" xlink:href="#m081fb0297c" y="86.335641"/>
      </g>
     </g>
    </g>
    <g id="xtick_2">
     <g id="line2d_29">
      <path clip-path="url(#pdba549fbd2)" d="M 203.819296 87.704405 
L 203.819296 16.528672 
" style="fill:none;stroke:#000000;stroke-dasharray:0.5,0.825;stroke-dashoffset:0;stroke-width:0.5;"/>
     </g>
     <g id="line2d_30">
      <g>
       <use style="stroke:#000000;stroke-width:0.8;" x="203.819296" xlink:href="#m081fb0297c" y="86.335641"/>
      </g>
     </g>
     <g id="text_1">
      <!-- $f$ -->
      <defs>
       <path d="M 9.71875 -16.5 
Q 11.578125 -17.921875 14.203125 -17.921875 
Q 17.78125 -17.921875 20.015625 -10.015625 
Q 20.953125 -6.203125 25.09375 15.09375 
L 29.6875 39.59375 
L 21.09375 39.59375 
Q 20.125 39.59375 20.125 40.921875 
Q 20.515625 43.109375 21.390625 43.109375 
L 30.328125 43.109375 
L 31.5 49.609375 
Q 32.078125 52.640625 32.5625 54.8125 
Q 33.0625 56.984375 33.625 58.828125 
Q 34.1875 60.6875 35.296875 62.984375 
Q 37.015625 66.265625 39.921875 68.390625 
Q 42.828125 70.515625 46.1875 70.515625 
Q 48.390625 70.515625 50.46875 69.703125 
Q 52.546875 68.890625 53.859375 67.28125 
Q 55.171875 65.671875 55.171875 63.484375 
Q 55.171875 60.9375 53.484375 59.046875 
Q 51.8125 57.171875 49.421875 57.171875 
Q 47.796875 57.171875 46.65625 58.171875 
Q 45.515625 59.1875 45.515625 60.796875 
Q 45.515625 62.984375 47 64.625 
Q 48.484375 66.265625 50.6875 66.5 
Q 48.828125 67.921875 46.09375 67.921875 
Q 44.578125 67.921875 43.234375 66.5 
Q 41.890625 65.09375 41.5 63.484375 
Q 40.875 60.9375 38.71875 49.703125 
L 37.5 43.109375 
L 47.796875 43.109375 
Q 48.78125 43.109375 48.78125 41.796875 
Q 48.734375 41.546875 48.578125 40.9375 
Q 48.4375 40.328125 48.171875 39.953125 
Q 47.90625 39.59375 47.515625 39.59375 
L 36.8125 39.59375 
L 32.171875 15.1875 
Q 31.296875 9.859375 30.140625 4.359375 
Q 29 -1.125 26.921875 -6.90625 
Q 24.859375 -12.703125 21.625 -16.609375 
Q 18.40625 -20.515625 14.015625 -20.515625 
Q 10.640625 -20.515625 7.984375 -18.578125 
Q 5.328125 -16.65625 5.328125 -13.484375 
Q 5.328125 -10.9375 6.953125 -9.046875 
Q 8.59375 -7.171875 11.078125 -7.171875 
Q 12.75 -7.171875 13.859375 -8.171875 
Q 14.984375 -9.1875 14.984375 -10.796875 
Q 14.984375 -12.9375 13.390625 -14.71875 
Q 11.8125 -16.5 9.71875 -16.5 
z
" id="Cmmi10-66"/>
      </defs>
      <g transform="translate(201.369296 100.913766)scale(0.1 -0.1)">
       <use transform="translate(0 0.484375)" xlink:href="#Cmmi10-66"/>
      </g>
     </g>
    </g>
    <g id="xtick_3">
     <g id="line2d_31">
      <path clip-path="url(#pdba549fbd2)" d="M 562.529887 87.704405 
L 562.529887 16.528672 
" style="fill:none;stroke:#000000;stroke-dasharray:0.5,0.825;stroke-dashoffset:0;stroke-width:0.5;"/>
     </g>
     <g id="line2d_32">
      <g>
       <use style="stroke:#000000;stroke-width:0.8;" x="562.529887" xlink:href="#m081fb0297c" y="86.335641"/>
      </g>
     </g>
     <g id="text_2">
      <!-- $1$ -->
      <defs>
       <path d="M 9.28125 0 
L 9.28125 3.515625 
Q 21.78125 3.515625 21.78125 6.6875 
L 21.78125 59.1875 
Q 16.609375 56.6875 8.6875 56.6875 
L 8.6875 60.203125 
Q 20.953125 60.203125 27.203125 66.609375 
L 28.609375 66.609375 
Q 28.953125 66.609375 29.265625 66.328125 
Q 29.59375 66.0625 29.59375 65.71875 
L 29.59375 6.6875 
Q 29.59375 3.515625 42.09375 3.515625 
L 42.09375 0 
z
" id="Cmr10-31"/>
      </defs>
      <g transform="translate(560.029887 100.934078)scale(0.1 -0.1)">
       <use transform="translate(0 0.390625)" xlink:href="#Cmr10-31"/>
      </g>
     </g>
    </g>
   </g>
   <g id="matplotlib.axis_2">
    <g id="ytick_1">
     <g id="line2d_33">
      <path clip-path="url(#pdba549fbd2)" d="M 4.074135 86.335641 
L 573.48 86.335641 
" style="fill:none;stroke:#000000;stroke-dasharray:0.5,0.825;stroke-dashoffset:0;stroke-width:0.5;"/>
     </g>
     <g id="line2d_34">
      <defs>
       <path d="M 0 0 
L -3.5 0 
" id="m7d7f7deae5" style="stroke:#000000;stroke-width:0.8;"/>
      </defs>
      <g>
       <use style="stroke:#000000;stroke-width:0.8;" x="15.024247" xlink:href="#m7d7f7deae5" y="86.335641"/>
      </g>
     </g>
    </g>
    <g id="ytick_2">
     <g id="line2d_35">
      <path clip-path="url(#pdba549fbd2)" d="M 4.074135 17.897436 
L 573.48 17.897436 
" style="fill:none;stroke:#000000;stroke-dasharray:0.5,0.825;stroke-dashoffset:0;stroke-width:0.5;"/>
     </g>
     <g id="line2d_36">
      <g>
       <use style="stroke:#000000;stroke-width:0.8;" x="15.024247" xlink:href="#m7d7f7deae5" y="17.897436"/>
      </g>
     </g>
     <g id="text_3">
      <!-- $1$ -->
      <g transform="translate(3.024247 21.696655)scale(0.1 -0.1)">
       <use transform="translate(0 0.390625)" xlink:href="#Cmr10-31"/>
      </g>
     </g>
    </g>
   </g>
   <g id="patch_3">
    <path d="M 15.024247 87.704405 
L 15.024247 16.528672 
" style="fill:none;stroke:#000000;stroke-linecap:square;stroke-linejoin:miter;stroke-width:0.8;"/>
   </g>
   <g id="patch_4">
    <path d="M 4.074135 86.335641 
L 573.48 86.335641 
" style="fill:none;stroke:#000000;stroke-linecap:square;stroke-linejoin:miter;stroke-width:0.8;"/>
   </g>
  </g>
 </g>
 <defs>
  <clipPath id="pdba549fbd2">
   <rect height="71.175733" width="569.405865" x="4.074135" y="16.528672"/>
  </clipPath>
 </defs>
</svg>
