<?xml version="1.0" encoding="utf-8" standalone="no"?>
<!DOCTYPE svg PUBLIC "-//W3C//DTD SVG 1.1//EN"
  "http://www.w3.org/Graphics/SVG/1.1/DTD/svg11.dtd">
<!-- Created with matplotlib (http://matplotlib.org/) -->
<svg height="108pt" version="1.1" viewBox="0 0 576 108" width="576pt" xmlns="http://www.w3.org/2000/svg" xmlns:xlink="http://www.w3.org/1999/xlink">
 <defs>
  <style type="text/css">
*{stroke-linecap:butt;stroke-linejoin:round;}
  </style>
 </defs>
 <g id="figure_1">
  <g id="patch_1">
   <path d="M 0 108 
L 576 108 
L 576 0 
L 0 0 
z
" style="fill:#ffffff;"/>
  </g>
  <g id="axes_1">
   <g id="patch_2">
    <path d="M 14.874135 86.354405 
L 562.68 86.354405 
L 562.68 17.878672 
L 14.874135 17.878672 
z
" style="fill:#ffffff;"/>
   </g>
   <g id="line2d_1">
    <path clip-path="url(#pdcefcf5519)" d="M 25.408863 85.037564 
L 130.756145 19.195513 
L 130.756145 19.195513 
" style="fill:none;stroke:#000000;stroke-linecap:square;stroke-width:2;"/>
   </g>
   <g id="line2d_2">
    <path clip-path="url(#pdcefcf5519)" d="M 130.756145 74.063889 
L 552.145272 30.169188 
L 552.145272 30.169188 
" style="fill:none;stroke:#000000;stroke-linecap:square;stroke-width:2;"/>
   </g>
   <g id="line2d_3">
    <path clip-path="url(#pdcefcf5519)" d="M 25.408863 85.037564 
L 130.756145 19.195513 
L 130.756145 19.195513 
" style="fill:none;stroke:#ff0000;stroke-linecap:square;stroke-width:2;"/>
   </g>
   <g id="line2d_4">
    <path clip-path="url(#pdcefcf5519)" d="M 130.756145 74.063889 
L 552.145272 30.169188 
L 552.145272 30.169188 
" style="fill:none;stroke:#00ffff;stroke-linecap:square;stroke-width:2;"/>
   </g>
   <g id="PathCollection_1">
    <path clip-path="url(#pdcefcf5519)" d="M 130.756145 21.593429 
C 131.392079 21.593429 132.002053 21.340769 132.451727 20.891095 
C 132.901401 20.441422 133.15406 19.831448 133.15406 19.195513 
C 133.15406 18.559578 132.901401 17.949604 132.451727 17.49993 
C 132.002053 17.050257 131.392079 16.797597 130.756145 16.797597 
C 130.12021 16.797597 129.510236 17.050257 129.060562 17.49993 
C 128.610888 17.949604 128.358229 18.559578 128.358229 19.195513 
C 128.358229 19.831448 128.610888 20.441422 129.060562 20.891095 
C 129.510236 21.340769 130.12021 21.593429 130.756145 21.593429 
z
"/>
   </g>
   <g id="PathCollection_2">
    <path clip-path="url(#pdcefcf5519)" d="M 130.756145 76.461805 
C 131.392079 76.461805 132.002053 76.209145 132.451727 75.759471 
C 132.901401 75.309798 133.15406 74.699824 133.15406 74.063889 
C 133.15406 73.427954 132.901401 72.81798 132.451727 72.368306 
C 132.002053 71.918633 131.392079 71.665973 130.756145 71.665973 
C 130.12021 71.665973 129.510236 71.918633 129.060562 72.368306 
C 128.610888 72.81798 128.358229 73.427954 128.358229 74.063889 
C 128.358229 74.699824 128.610888 75.309798 129.060562 75.759471 
C 129.510236 76.209145 130.12021 76.461805 130.756145 76.461805 
z
"/>
   </g>
   <g id="PathCollection_3">
    <path clip-path="url(#pdcefcf5519)" d="M 130.756145 75.645028 
C 131.175468 75.645028 131.577673 75.478429 131.874179 75.181923 
C 132.170685 74.885417 132.337283 74.483212 132.337283 74.063889 
C 132.337283 73.644566 132.170685 73.242361 131.874179 72.945855 
C 131.577673 72.649349 131.175468 72.48275 130.756145 72.48275 
C 130.336822 72.48275 129.934617 72.649349 129.638111 72.945855 
C 129.341605 73.242361 129.175006 73.644566 129.175006 74.063889 
C 129.175006 74.483212 129.341605 74.885417 129.638111 75.181923 
C 129.934617 75.478429 130.336822 75.645028 130.756145 75.645028 
z
" style="fill:#ffffff;"/>
   </g>
   <g id="PathCollection_4">
    <path clip-path="url(#pdcefcf5519)" d="M 552.145272 32.567104 
C 552.781207 32.567104 553.391181 32.314444 553.840854 31.864771 
C 554.290528 31.415097 554.543188 30.805123 554.543188 30.169188 
C 554.543188 29.533253 554.290528 28.923279 553.840854 28.473606 
C 553.391181 28.023932 552.781207 27.771272 552.145272 27.771272 
C 551.509337 27.771272 550.899363 28.023932 550.449689 28.473606 
C 550.000016 28.923279 549.747356 29.533253 549.747356 30.169188 
C 549.747356 30.805123 550.000016 31.415097 550.449689 31.864771 
C 550.899363 32.314444 551.509337 32.567104 552.145272 32.567104 
z
"/>
   </g>
   <g id="PathCollection_5">
    <path clip-path="url(#pdcefcf5519)" d="M 552.145272 31.750327 
C 552.564595 31.750327 552.9668 31.583728 553.263306 31.287222 
C 553.559812 30.990716 553.726411 30.588511 553.726411 30.169188 
C 553.726411 29.749865 553.559812 29.34766 553.263306 29.051154 
C 552.9668 28.754648 552.564595 28.588049 552.145272 28.588049 
C 551.725949 28.588049 551.323744 28.754648 551.027238 29.051154 
C 550.730732 29.34766 550.564133 29.749865 550.564133 30.169188 
C 550.564133 30.588511 550.730732 30.990716 551.027238 31.287222 
C 551.323744 31.583728 551.725949 31.750327 552.145272 31.750327 
z
" style="fill:#ffffff;"/>
   </g>
   <g id="PathCollection_6">
    <path clip-path="url(#pdcefcf5519)" d="M 552.145272 87.43548 
C 552.781207 87.43548 553.391181 87.18282 553.840854 86.733147 
C 554.290528 86.283473 554.543188 85.673499 554.543188 85.037564 
C 554.543188 84.401629 554.290528 83.791655 553.840854 83.341982 
C 553.391181 82.892308 552.781207 82.639648 552.145272 82.639648 
C 551.509337 82.639648 550.899363 82.892308 550.449689 83.341982 
C 550.000016 83.791655 549.747356 84.401629 549.747356 85.037564 
C 549.747356 85.673499 550.000016 86.283473 550.449689 86.733147 
C 550.899363 87.18282 551.509337 87.43548 552.145272 87.43548 
z
"/>
   </g>
   <g id="PathCollection_7">
    <path clip-path="url(#pdcefcf5519)" d="M 552.145272 87.43548 
C 552.781207 87.43548 553.391181 87.18282 553.840854 86.733147 
C 554.290528 86.283473 554.543188 85.673499 554.543188 85.037564 
C 554.543188 84.401629 554.290528 83.791655 553.840854 83.341982 
C 553.391181 82.892308 552.781207 82.639648 552.145272 82.639648 
C 551.509337 82.639648 550.899363 82.892308 550.449689 83.341982 
C 550.000016 83.791655 549.747356 84.401629 549.747356 85.037564 
C 549.747356 85.673499 550.000016 86.283473 550.449689 86.733147 
C 550.899363 87.18282 551.509337 87.43548 552.145272 87.43548 
z
"/>
   </g>
   <g id="matplotlib.axis_1">
    <g id="xtick_1">
     <g id="line2d_5">
      <path clip-path="url(#pdcefcf5519)" d="M 25.408863 86.354405 
L 25.408863 17.878672 
" style="fill:none;stroke:#000000;stroke-dasharray:0.5,0.825;stroke-dashoffset:0;stroke-width:0.5;"/>
     </g>
     <g id="line2d_6">
      <defs>
       <path d="M 0 0 
L 0 3.5 
" id="m053456465a" style="stroke:#000000;stroke-width:0.8;"/>
      </defs>
      <g>
       <use style="stroke:#000000;stroke-width:0.8;" x="25.408863" xlink:href="#m053456465a" y="85.037564"/>
      </g>
     </g>
    </g>
    <g id="xtick_2">
     <g id="line2d_7">
      <path clip-path="url(#pdcefcf5519)" d="M 130.756145 86.354405 
L 130.756145 17.878672 
" style="fill:none;stroke:#000000;stroke-dasharray:0.5,0.825;stroke-dashoffset:0;stroke-width:0.5;"/>
     </g>
     <g id="line2d_8">
      <g>
       <use style="stroke:#000000;stroke-width:0.8;" x="130.756145" xlink:href="#m053456465a" y="85.037564"/>
      </g>
     </g>
     <g id="text_1">
      <!-- $f$ -->
      <defs>
       <path d="M 9.71875 -16.5 
Q 11.578125 -17.921875 14.203125 -17.921875 
Q 17.78125 -17.921875 20.015625 -10.015625 
Q 20.953125 -6.203125 25.09375 15.09375 
L 29.6875 39.59375 
L 21.09375 39.59375 
Q 20.125 39.59375 20.125 40.921875 
Q 20.515625 43.109375 21.390625 43.109375 
L 30.328125 43.109375 
L 31.5 49.609375 
Q 32.078125 52.640625 32.5625 54.8125 
Q 33.0625 56.984375 33.625 58.828125 
Q 34.1875 60.6875 35.296875 62.984375 
Q 37.015625 66.265625 39.921875 68.390625 
Q 42.828125 70.515625 46.1875 70.515625 
Q 48.390625 70.515625 50.46875 69.703125 
Q 52.546875 68.890625 53.859375 67.28125 
Q 55.171875 65.671875 55.171875 63.484375 
Q 55.171875 60.9375 53.484375 59.046875 
Q 51.8125 57.171875 49.421875 57.171875 
Q 47.796875 57.171875 46.65625 58.171875 
Q 45.515625 59.1875 45.515625 60.796875 
Q 45.515625 62.984375 47 64.625 
Q 48.484375 66.265625 50.6875 66.5 
Q 48.828125 67.921875 46.09375 67.921875 
Q 44.578125 67.921875 43.234375 66.5 
Q 41.890625 65.09375 41.5 63.484375 
Q 40.875 60.9375 38.71875 49.703125 
L 37.5 43.109375 
L 47.796875 43.109375 
Q 48.78125 43.109375 48.78125 41.796875 
Q 48.734375 41.546875 48.578125 40.9375 
Q 48.4375 40.328125 48.171875 39.953125 
Q 47.90625 39.59375 47.515625 39.59375 
L 36.8125 39.59375 
L 32.171875 15.1875 
Q 31.296875 9.859375 30.140625 4.359375 
Q 29 -1.125 26.921875 -6.90625 
Q 24.859375 -12.703125 21.625 -16.609375 
Q 18.40625 -20.515625 14.015625 -20.515625 
Q 10.640625 -20.515625 7.984375 -18.578125 
Q 5.328125 -16.65625 5.328125 -13.484375 
Q 5.328125 -10.9375 6.953125 -9.046875 
Q 8.59375 -7.171875 11.078125 -7.171875 
Q 12.75 -7.171875 13.859375 -8.171875 
Q 14.984375 -9.1875 14.984375 -10.796875 
Q 14.984375 -12.9375 13.390625 -14.71875 
Q 11.8125 -16.5 9.71875 -16.5 
z
" id="Cmmi10-66"/>
      </defs>
      <g transform="translate(128.306145 99.615689)scale(0.1 -0.1)">
       <use transform="translate(0 0.484375)" xlink:href="#Cmmi10-66"/>
      </g>
     </g>
    </g>
    <g id="xtick_3">
     <g id="line2d_9">
      <path clip-path="url(#pdcefcf5519)" d="M 552.145272 86.354405 
L 552.145272 17.878672 
" style="fill:none;stroke:#000000;stroke-dasharray:0.5,0.825;stroke-dashoffset:0;stroke-width:0.5;"/>
     </g>
     <g id="line2d_10">
      <g>
       <use style="stroke:#000000;stroke-width:0.8;" x="552.145272" xlink:href="#m053456465a" y="85.037564"/>
      </g>
     </g>
     <g id="text_2">
      <!-- $1$ -->
      <defs>
       <path d="M 9.28125 0 
L 9.28125 3.515625 
Q 21.78125 3.515625 21.78125 6.6875 
L 21.78125 59.1875 
Q 16.609375 56.6875 8.6875 56.6875 
L 8.6875 60.203125 
Q 20.953125 60.203125 27.203125 66.609375 
L 28.609375 66.609375 
Q 28.953125 66.609375 29.265625 66.328125 
Q 29.59375 66.0625 29.59375 65.71875 
L 29.59375 6.6875 
Q 29.59375 3.515625 42.09375 3.515625 
L 42.09375 0 
z
" id="Cmr10-31"/>
      </defs>
      <g transform="translate(549.645272 99.636002)scale(0.1 -0.1)">
       <use transform="translate(0 0.390625)" xlink:href="#Cmr10-31"/>
      </g>
     </g>
    </g>
   </g>
   <g id="matplotlib.axis_2">
    <g id="ytick_1">
     <g id="line2d_11">
      <path clip-path="url(#pdcefcf5519)" d="M 14.874135 85.037564 
L 562.68 85.037564 
" style="fill:none;stroke:#000000;stroke-dasharray:0.5,0.825;stroke-dashoffset:0;stroke-width:0.5;"/>
     </g>
     <g id="line2d_12">
      <defs>
       <path d="M 0 0 
L -3.5 0 
" id="m66936577e6" style="stroke:#000000;stroke-width:0.8;"/>
      </defs>
      <g>
       <use style="stroke:#000000;stroke-width:0.8;" x="25.408863" xlink:href="#m66936577e6" y="85.037564"/>
      </g>
     </g>
    </g>
    <g id="ytick_2">
     <g id="line2d_13">
      <path clip-path="url(#pdcefcf5519)" d="M 14.874135 19.195513 
L 562.68 19.195513 
" style="fill:none;stroke:#000000;stroke-dasharray:0.5,0.825;stroke-dashoffset:0;stroke-width:0.5;"/>
     </g>
     <g id="line2d_14">
      <g>
       <use style="stroke:#000000;stroke-width:0.8;" x="25.408863" xlink:href="#m66936577e6" y="19.195513"/>
      </g>
     </g>
     <g id="text_3">
      <!-- $1$ -->
      <g transform="translate(13.408863 22.994732)scale(0.1 -0.1)">
       <use transform="translate(0 0.390625)" xlink:href="#Cmr10-31"/>
      </g>
     </g>
    </g>
   </g>
   <g id="patch_3">
    <path d="M 25.408863 86.354405 
L 25.408863 17.878672 
" style="fill:none;stroke:#000000;stroke-linecap:square;stroke-linejoin:miter;stroke-width:0.8;"/>
   </g>
   <g id="patch_4">
    <path d="M 14.874135 85.037564 
L 562.68 85.037564 
" style="fill:none;stroke:#000000;stroke-linecap:square;stroke-linejoin:miter;stroke-width:0.8;"/>
   </g>
  </g>
 </g>
 <defs>
  <clipPath id="pdcefcf5519">
   <rect height="68.475733" width="547.805865" x="14.874135" y="17.878672"/>
  </clipPath>
 </defs>
</svg>
