<?xml version="1.0" encoding="utf-8" standalone="no"?>
<!DOCTYPE svg PUBLIC "-//W3C//DTD SVG 1.1//EN"
  "http://www.w3.org/Graphics/SVG/1.1/DTD/svg11.dtd">
<!-- Created with matplotlib (http://matplotlib.org/) -->
<svg height="108pt" version="1.1" viewBox="0 0 576 108" width="576pt" xmlns="http://www.w3.org/2000/svg" xmlns:xlink="http://www.w3.org/1999/xlink">
 <defs>
  <style type="text/css">
*{stroke-linecap:butt;stroke-linejoin:round;}
  </style>
 </defs>
 <g id="figure_1">
  <g id="patch_1">
   <path d="M 0 108 
L 576 108 
L 576 0 
L 0 0 
z
" style="fill:#ffffff;"/>
  </g>
  <g id="axes_1">
   <g id="patch_2">
    <path d="M 4.074135 87.704405 
L 573.48 87.704405 
L 573.48 16.528672 
L 4.074135 16.528672 
z
" style="fill:#ffffff;"/>
   </g>
   <g id="line2d_1">
    <path clip-path="url(#p580061494a)" d="M 15.024247 86.335641 
L 212.126278 17.897436 
L 212.126278 17.897436 
" style="fill:none;stroke:#ff0000;stroke-linecap:square;stroke-width:2;"/>
   </g>
   <g id="line2d_2">
    <path clip-path="url(#p580061494a)" d="M 255.926729 50.215477 
L 299.72718 35.006987 
L 299.72718 35.006987 
" style="fill:none;stroke:#ff0000;stroke-linecap:square;stroke-width:2;"/>
   </g>
   <g id="line2d_3">
    <path clip-path="url(#p580061494a)" d="M 474.928985 69.22609 
L 518.729436 54.0176 
L 518.729436 54.0176 
" style="fill:none;stroke:#ff0000;stroke-linecap:square;stroke-width:2;"/>
   </g>
   <g id="line2d_4">
    <path clip-path="url(#p580061494a)" d="M 212.126278 17.897436 
L 255.926729 50.215477 
L 255.926729 50.215477 
" style="fill:none;stroke:#00ff00;stroke-linecap:square;stroke-width:2;"/>
   </g>
   <g id="line2d_5">
    <path clip-path="url(#p580061494a)" d="M 518.729436 54.0176 
L 562.529887 86.335641 
L 562.529887 86.335641 
" style="fill:none;stroke:#00ff00;stroke-linecap:square;stroke-width:2;"/>
   </g>
   <g id="line2d_6">
    <path clip-path="url(#p580061494a)" d="M 299.72718 35.006987 
L 300.409867 35.140325 
L 301.633462 35.379308 
L 302.116626 35.473676 
L 303.321163 35.708937 
L 304.41143 35.92188 
L 305.098672 36.056107 
L 305.485383 36.131636 
L 306.951274 36.417943 
L 307.736616 36.57133 
L 308.751172 36.769486 
L 309.670229 36.948989 
L 310.1672 37.046054 
L 311.544099 37.314979 
L 311.926629 37.389692 
L 312.564667 37.514309 
L 313.659021 37.72805 
L 314.366278 37.866186 
L 315.394926 38.067094 
L 316.026046 38.190359 
L 317.012386 38.383004 
L 318.625905 38.698144 
L 318.837848 38.73954 
L 319.629562 38.894171 
L 320.901014 39.142502 
L 321.345338 39.229284 
L 322.268849 39.409657 
L 323.338276 39.618529 
L 324.372468 39.82052 
L 325.342912 40.01006 
L 325.813096 40.101893 
L 327.229137 40.378463 
L 327.758567 40.481868 
L 328.607837 40.647741 
L 330.098429 40.938872 
L 330.161447 40.95118 
L 331.312652 41.176025 
L 332.124676 41.334623 
L 333.531301 41.609355 
L 334.002757 41.701436 
L 335.357176 41.965971 
L 336.132925 42.117484 
L 337.067305 42.29998 
L 337.443853 42.373525 
L 338.339774 42.548509 
L 339.634359 42.801358 
L 340.158014 42.903635 
L 341.211007 43.109297 
L 342.145891 43.291892 
L 342.435833 43.348521 
L 343.32482 43.522151 
L 344.318234 43.716177 
L 345.289898 43.905955 
L 346.17123 44.078091 
L 347.489243 44.335515 
L 348.482537 44.529518 
L 348.919457 44.614854 
L 349.799345 44.786707 
L 350.991768 45.019602 
L 351.823169 45.181985 
L 352.302942 45.275691 
L 353.347851 45.479774 
L 354.251593 45.656287 
L 354.818661 45.767042 
L 356.143744 46.025847 
L 356.85482 46.164729 
L 357.884937 46.365924 
L 358.29683 46.446372 
L 360.01563 46.782075 
L 360.607161 46.897608 
L 361.19004 47.011452 
L 362.349638 47.237936 
L 363.162032 47.396607 
L 363.714367 47.504485 
L 364.682984 47.693668 
L 366.067429 47.964067 
L 366.471245 48.042937 
L 367.181428 48.181645 
" style="fill:none;stroke:#0000ff;stroke-linecap:square;stroke-width:2;"/>
   </g>
   <g id="line2d_7">
    <path clip-path="url(#p580061494a)" d="M 370.471381 48.824214 
L 371.123234 48.951529 
L 372.009924 49.124711 
L 372.481845 49.216883 
L 373.752942 49.465144 
L 374.994618 49.707659 
L 375.290989 49.765544 
L 376.159224 49.935121 
L 376.834116 50.066936 
L 378.280525 50.349437 
L 379.138017 50.516916 
L 379.640858 50.615127 
L 380.65673 50.81354 
L 381.659983 51.009488 
L 382.813351 51.234755 
L 383.208585 51.311949 
L 384.412499 51.547089 
L 384.826576 51.627963 
L 386.069931 51.870806 
L 386.517468 51.958215 
L 387.39431 52.129473 
L 388.485125 52.342523 
L 389.877616 52.614494 
L 389.977524 52.634007 
L 391.367776 52.905541 
L 391.949257 53.019112 
L 393.051565 53.234406 
L 394.108137 53.440768 
L 394.522298 53.521659 
L 395.625459 53.73712 
L 396.32065 53.872899 
L 397.723489 54.146891 
L 398.566526 54.311547 
L 399.116007 54.418867 
L 400.242923 54.638968 
L 400.734793 54.735037 
L 402.20607 55.022395 
L 402.985258 55.174581 
L 403.899769 55.353196 
L 404.136866 55.399504 
L 405.639803 55.693046 
L 406.621605 55.884805 
L 407.229603 56.003554 
L 408.107283 56.174976 
L 409.24022 56.396253 
L 409.545485 56.455875 
L 411.019439 56.743756 
L 411.271993 56.793083 
L 412.305354 56.994912 
L 413.457398 57.21992 
L 414.392841 57.402624 
L 415.444741 57.608073 
L 415.659905 57.650098 
L 416.52499 57.81906 
L 417.881581 58.084019 
L 418.616289 58.227516 
L 419.355867 58.371965 
L 420.415293 58.578884 
L 421.391833 58.769615 
L 421.82599 58.854411 
L 423.132227 59.109535 
L 423.627341 59.206237 
L 424.766754 59.428779 
L 425.490762 59.570187 
L 426.705465 59.807433 
L 427.741729 60.009829 
L 428.476977 60.153432 
L 428.929873 60.241888 
L 430.017474 60.45431 
L 431.196886 60.684664 
L 432.21109 60.882751 
L 432.794122 60.996624 
L 433.635914 61.161037 
L 434.094912 61.250685 
L 435.286338 61.483385 
L 436.075528 61.637524 
L 437.382606 61.892813 
L 437.697883 61.95439 
L 439.19847 62.247474 
L 440.007496 62.405487 
L 440.673086 62.535484 
L 441.30585 62.659071 
L 442.78077 62.947142 
L 443.301873 63.048919 
L 444.547226 63.292152 
L 445.274376 63.434174 
L 445.848668 63.54634 
L 446.919366 63.755461 
L 447.821393 63.931638 
L 448.810455 64.124814 
L 449.49003 64.257544 
L 450.092035 64.375123 
L 450.810246 64.515399 
L 451.751262 64.699191 
L 452.557367 64.856633 
L 454.141765 65.166086 
L 454.424209 65.221251 
L 455.321222 65.396449 
L 456.656021 65.657151 
L 457.190504 65.761543 
L 457.989947 65.917684 
L 459.195184 66.153082 
L 459.796296 66.270486 
L 461.069636 66.519186 
L 461.957294 66.692556 
L 462.635776 66.825072 
L 463.746058 67.041924 
L 463.926166 67.077102 
L 465.159442 67.317976 
L 466.507519 67.581272 
L 466.569774 67.593431 
L 467.888672 67.851029 
L 468.523839 67.975085 
L 469.76414 68.217331 
L 470.172989 68.297184 
L 471.376739 68.532292 
L 472.402495 68.732635 
L 473.240222 68.896253 
L 473.95642 69.036136 
L 474.928985 69.22609 
" style="fill:none;stroke:#0000ff;stroke-linecap:square;stroke-width:2;"/>
   </g>
   <g id="matplotlib.axis_1">
    <g id="xtick_1">
     <g id="line2d_8">
      <path clip-path="url(#p580061494a)" d="M 15.024247 87.704405 
L 15.024247 16.528672 
" style="fill:none;stroke:#000000;stroke-dasharray:0.5,0.825;stroke-dashoffset:0;stroke-width:0.5;"/>
     </g>
     <g id="line2d_9">
      <defs>
       <path d="M 0 0 
L 0 3.5 
" id="m6a889b5685" style="stroke:#000000;stroke-width:0.8;"/>
      </defs>
      <g>
       <use style="stroke:#000000;stroke-width:0.8;" x="15.024247" xlink:href="#m6a889b5685" y="86.335641"/>
      </g>
     </g>
    </g>
    <g id="xtick_2">
     <g id="line2d_10">
      <path clip-path="url(#p580061494a)" d="M 212.126278 87.704405 
L 212.126278 16.528672 
" style="fill:none;stroke:#000000;stroke-dasharray:0.5,0.825;stroke-dashoffset:0;stroke-width:0.5;"/>
     </g>
     <g id="line2d_11">
      <g>
       <use style="stroke:#000000;stroke-width:0.8;" x="212.126278" xlink:href="#m6a889b5685" y="86.335641"/>
      </g>
     </g>
     <g id="text_1">
      <!-- $f$ -->
      <defs>
       <path d="M 9.71875 -16.5 
Q 11.578125 -17.921875 14.203125 -17.921875 
Q 17.78125 -17.921875 20.015625 -10.015625 
Q 20.953125 -6.203125 25.09375 15.09375 
L 29.6875 39.59375 
L 21.09375 39.59375 
Q 20.125 39.59375 20.125 40.921875 
Q 20.515625 43.109375 21.390625 43.109375 
L 30.328125 43.109375 
L 31.5 49.609375 
Q 32.078125 52.640625 32.5625 54.8125 
Q 33.0625 56.984375 33.625 58.828125 
Q 34.1875 60.6875 35.296875 62.984375 
Q 37.015625 66.265625 39.921875 68.390625 
Q 42.828125 70.515625 46.1875 70.515625 
Q 48.390625 70.515625 50.46875 69.703125 
Q 52.546875 68.890625 53.859375 67.28125 
Q 55.171875 65.671875 55.171875 63.484375 
Q 55.171875 60.9375 53.484375 59.046875 
Q 51.8125 57.171875 49.421875 57.171875 
Q 47.796875 57.171875 46.65625 58.171875 
Q 45.515625 59.1875 45.515625 60.796875 
Q 45.515625 62.984375 47 64.625 
Q 48.484375 66.265625 50.6875 66.5 
Q 48.828125 67.921875 46.09375 67.921875 
Q 44.578125 67.921875 43.234375 66.5 
Q 41.890625 65.09375 41.5 63.484375 
Q 40.875 60.9375 38.71875 49.703125 
L 37.5 43.109375 
L 47.796875 43.109375 
Q 48.78125 43.109375 48.78125 41.796875 
Q 48.734375 41.546875 48.578125 40.9375 
Q 48.4375 40.328125 48.171875 39.953125 
Q 47.90625 39.59375 47.515625 39.59375 
L 36.8125 39.59375 
L 32.171875 15.1875 
Q 31.296875 9.859375 30.140625 4.359375 
Q 29 -1.125 26.921875 -6.90625 
Q 24.859375 -12.703125 21.625 -16.609375 
Q 18.40625 -20.515625 14.015625 -20.515625 
Q 10.640625 -20.515625 7.984375 -18.578125 
Q 5.328125 -16.65625 5.328125 -13.484375 
Q 5.328125 -10.9375 6.953125 -9.046875 
Q 8.59375 -7.171875 11.078125 -7.171875 
Q 12.75 -7.171875 13.859375 -8.171875 
Q 14.984375 -9.1875 14.984375 -10.796875 
Q 14.984375 -12.9375 13.390625 -14.71875 
Q 11.8125 -16.5 9.71875 -16.5 
z
" id="Cmmi10-66"/>
      </defs>
      <g transform="translate(209.676278 100.913766)scale(0.1 -0.1)">
       <use transform="translate(0 0.484375)" xlink:href="#Cmmi10-66"/>
      </g>
     </g>
    </g>
    <g id="xtick_3">
     <g id="line2d_12">
      <path clip-path="url(#p580061494a)" d="M 562.529887 87.704405 
L 562.529887 16.528672 
" style="fill:none;stroke:#000000;stroke-dasharray:0.5,0.825;stroke-dashoffset:0;stroke-width:0.5;"/>
     </g>
     <g id="line2d_13">
      <g>
       <use style="stroke:#000000;stroke-width:0.8;" x="562.529887" xlink:href="#m6a889b5685" y="86.335641"/>
      </g>
     </g>
     <g id="text_2">
      <!-- $1$ -->
      <defs>
       <path d="M 9.28125 0 
L 9.28125 3.515625 
Q 21.78125 3.515625 21.78125 6.6875 
L 21.78125 59.1875 
Q 16.609375 56.6875 8.6875 56.6875 
L 8.6875 60.203125 
Q 20.953125 60.203125 27.203125 66.609375 
L 28.609375 66.609375 
Q 28.953125 66.609375 29.265625 66.328125 
Q 29.59375 66.0625 29.59375 65.71875 
L 29.59375 6.6875 
Q 29.59375 3.515625 42.09375 3.515625 
L 42.09375 0 
z
" id="Cmr10-31"/>
      </defs>
      <g transform="translate(560.029887 100.934078)scale(0.1 -0.1)">
       <use transform="translate(0 0.390625)" xlink:href="#Cmr10-31"/>
      </g>
     </g>
    </g>
   </g>
   <g id="matplotlib.axis_2">
    <g id="ytick_1">
     <g id="line2d_14">
      <path clip-path="url(#p580061494a)" d="M 4.074135 86.335641 
L 573.48 86.335641 
" style="fill:none;stroke:#000000;stroke-dasharray:0.5,0.825;stroke-dashoffset:0;stroke-width:0.5;"/>
     </g>
     <g id="line2d_15">
      <defs>
       <path d="M 0 0 
L -3.5 0 
" id="m81dab1bd72" style="stroke:#000000;stroke-width:0.8;"/>
      </defs>
      <g>
       <use style="stroke:#000000;stroke-width:0.8;" x="15.024247" xlink:href="#m81dab1bd72" y="86.335641"/>
      </g>
     </g>
    </g>
    <g id="ytick_2">
     <g id="line2d_16">
      <path clip-path="url(#p580061494a)" d="M 4.074135 17.897436 
L 573.48 17.897436 
" style="fill:none;stroke:#000000;stroke-dasharray:0.5,0.825;stroke-dashoffset:0;stroke-width:0.5;"/>
     </g>
     <g id="line2d_17">
      <g>
       <use style="stroke:#000000;stroke-width:0.8;" x="15.024247" xlink:href="#m81dab1bd72" y="17.897436"/>
      </g>
     </g>
     <g id="text_3">
      <!-- $1$ -->
      <g transform="translate(3.024247 21.696655)scale(0.1 -0.1)">
       <use transform="translate(0 0.390625)" xlink:href="#Cmr10-31"/>
      </g>
     </g>
    </g>
   </g>
   <g id="patch_3">
    <path d="M 15.024247 87.704405 
L 15.024247 16.528672 
" style="fill:none;stroke:#000000;stroke-linecap:square;stroke-linejoin:miter;stroke-width:0.8;"/>
   </g>
   <g id="patch_4">
    <path d="M 4.074135 86.335641 
L 573.48 86.335641 
" style="fill:none;stroke:#000000;stroke-linecap:square;stroke-linejoin:miter;stroke-width:0.8;"/>
   </g>
  </g>
 </g>
 <defs>
  <clipPath id="p580061494a">
   <rect height="71.175733" width="569.405865" x="4.074135" y="16.528672"/>
  </clipPath>
 </defs>
</svg>
