<?xml version="1.0" encoding="utf-8" standalone="no"?>
<!DOCTYPE svg PUBLIC "-//W3C//DTD SVG 1.1//EN"
  "http://www.w3.org/Graphics/SVG/1.1/DTD/svg11.dtd">
<!-- Created with matplotlib (http://matplotlib.org/) -->
<svg height="108pt" version="1.1" viewBox="0 0 576 108" width="576pt" xmlns="http://www.w3.org/2000/svg" xmlns:xlink="http://www.w3.org/1999/xlink">
 <defs>
  <style type="text/css">
*{stroke-linecap:butt;stroke-linejoin:round;}
  </style>
 </defs>
 <g id="figure_1">
  <g id="patch_1">
   <path d="M 0 108 
L 576 108 
L 576 0 
L 0 0 
z
" style="fill:#ffffff;"/>
  </g>
  <g id="axes_1">
   <g id="patch_2">
    <path d="M 4.074135 87.704405 
L 573.48 87.704405 
L 573.48 16.528672 
L 4.074135 16.528672 
z
" style="fill:#ffffff;"/>
   </g>
   <g id="line2d_1">
    <path clip-path="url(#pe9180dc306)" d="M 15.024247 86.335641 
L 35.302234 61.008116 
L 35.302234 61.008116 
" style="fill:none;stroke:#ff0000;stroke-linecap:square;stroke-width:2;"/>
   </g>
   <g id="line2d_2">
    <path clip-path="url(#pe9180dc306)" d="M 55.580221 64.780301 
L 75.858207 39.452776 
L 75.858207 39.452776 
" style="fill:none;stroke:#ff0000;stroke-linecap:square;stroke-width:2;"/>
   </g>
   <g id="line2d_3">
    <path clip-path="url(#pe9180dc306)" d="M 96.136194 43.224961 
L 109.186305 26.925166 
L 109.186305 26.925166 
" style="fill:none;stroke:#ff0000;stroke-linecap:square;stroke-width:2;"/>
   </g>
   <g id="line2d_4">
    <path clip-path="url(#pe9180dc306)" d="M 109.514775 26.514902 
L 109.568847 26.447366 
L 109.701884 26.2812 
L 109.771111 26.194735 
L 109.901422 26.031975 
L 109.94865 25.972986 
L 110.147228 25.724959 
L 110.227031 25.625283 
L 110.305971 25.526687 
L 110.370739 25.445789 
L 110.471327 25.320154 
L 110.639035 25.110683 
L 110.735373 24.990356 
L 110.829908 24.872281 
L 110.934691 24.741404 
L 110.973153 24.693365 
L 111.103073 24.531093 
L 111.254409 24.342073 
L 111.299073 24.286286 
L 111.413406 24.143482 
L 111.53931 23.986226 
L 111.616293 23.890074 
L 111.720508 23.759908 
L 111.78112 23.684202 
L 111.884122 23.555551 
L 112.063856 23.33106 
L 112.17755 23.189054 
L 112.241582 23.109078 
L 112.319368 23.011922 
L 112.448201 22.851007 
L 112.53904 22.737548 
L 112.619512 22.637037 
L 112.757006 22.465305 
L 112.825382 22.379902 
L 112.907705 22.27708 
L 113.011187 22.147829 
L 113.163909 21.957076 
L 113.267125 21.828158 
L 113.395925 21.667285 
L 113.507662 21.527724 
L 113.606474 21.404306 
L 113.650888 21.348832 
L 113.757867 21.215214 
L 113.885974 21.055206 
L 114.018702 20.889427 
L 114.11533 20.768737 
L 114.175585 20.693477 
L 114.23741 20.616256 
L 114.368958 20.451951 
L 114.460665 20.337408 
L 114.577571 20.191391 
L 114.706891 20.029867 
L 114.806942 19.904902 
L 114.864834 19.832594 
L 115.007427 19.654494 
L 115.038978 19.615086 
L 115.168567 19.453228 
L 115.268559 19.328335 
L 115.36402 19.209103 
L 115.543028 18.98552 
L 115.611103 18.900493 
L 115.650827 18.850876 
L 115.769405 18.702771 
L 115.916446 18.519114 
L 116.02712 18.380881 
L 116.067241 18.330769 
L 116.170002 18.202419 
L 116.290796 18.051545 
L 116.414181 17.897436 
" style="fill:none;stroke:#ff0000;stroke-linecap:square;stroke-width:2;"/>
   </g>
   <g id="line2d_5">
    <path clip-path="url(#pe9180dc306)" d="M 136.692167 65.319184 
L 156.970154 39.99166 
L 156.970154 39.99166 
" style="fill:none;stroke:#ff0000;stroke-linecap:square;stroke-width:2;"/>
   </g>
   <g id="line2d_6">
    <path clip-path="url(#pe9180dc306)" d="M 521.973914 64.241417 
L 542.251901 38.913893 
L 542.251901 38.913893 
" style="fill:none;stroke:#ff0000;stroke-linecap:square;stroke-width:2;"/>
   </g>
   <g id="line2d_7">
    <path clip-path="url(#pe9180dc306)" d="M 116.414181 17.897436 
L 136.692167 65.319184 
L 136.692167 65.319184 
" style="fill:none;stroke:#ffff00;stroke-linecap:square;stroke-width:2;"/>
   </g>
   <g id="line2d_8">
    <path clip-path="url(#pe9180dc306)" d="M 542.251901 38.913893 
L 562.529887 86.335641 
L 562.529887 86.335641 
" style="fill:none;stroke:#ffff00;stroke-linecap:square;stroke-width:2;"/>
   </g>
   <g id="line2d_9">
    <path clip-path="url(#pe9180dc306)" d="M 197.526127 62.085883 
L 238.082101 55.080398 
L 238.082101 55.080398 
" style="fill:none;stroke:#00ff00;stroke-linecap:square;stroke-width:2;"/>
   </g>
   <g id="line2d_10">
    <path clip-path="url(#pe9180dc306)" d="M 278.638074 33.525058 
L 298.916061 30.022315 
L 298.916061 30.022315 
" style="fill:none;stroke:#00ff00;stroke-linecap:square;stroke-width:2;"/>
   </g>
   <g id="line2d_11">
    <path clip-path="url(#pe9180dc306)" d="M 380.028007 74.210762 
L 400.305994 70.708019 
L 400.305994 70.708019 
" style="fill:none;stroke:#00ff00;stroke-linecap:square;stroke-width:2;"/>
   </g>
   <g id="line2d_12">
    <path clip-path="url(#pe9180dc306)" d="M 440.861967 49.152679 
L 440.997861 49.129205 
L 441.367546 49.065347 
L 441.501276 49.042247 
L 441.698791 49.008129 
L 441.951598 48.964461 
L 442.048757 48.947678 
L 442.317389 48.901275 
L 442.450621 48.878261 
L 442.781643 48.821082 
L 442.891769 48.802059 
L 443.202879 48.748319 
L 443.311502 48.729556 
L 443.545186 48.68919 
L 443.6274 48.674989 
L 443.841947 48.637929 
L 444.083575 48.596191 
L 444.418788 48.538287 
L 444.550542 48.515529 
L 444.811436 48.470463 
L 444.944953 48.4474 
L 445.081447 48.423822 
L 445.327374 48.381342 
L 445.60666 48.333099 
L 445.787192 48.301914 
L 446.03181 48.25966 
L 446.232 48.22508 
L 446.335707 48.207166 
L 446.575299 48.16578 
L 446.680965 48.147527 
L 446.904107 48.108983 
L 447.115943 48.072391 
L 447.346883 48.032499 
L 447.547257 47.997888 
L 447.877459 47.94085 
L 447.9263 47.932413 
L 448.285994 47.870281 
L 448.40118 47.850384 
L 448.622925 47.812081 
L 448.908045 47.76283 
L 448.972406 47.751713 
L 449.232092 47.706856 
L 449.396083 47.678528 
L 449.567756 47.648874 
L 449.758725 47.615887 
L 450.086257 47.55931 
L 450.235158 47.53359 
L 450.369117 47.51045 
L 450.728793 47.448321 
L 450.804747 47.435201 
L 450.964587 47.407591 
L 451.268225 47.355142 
L 451.552684 47.306005 
L 451.660972 47.2873 
L 451.813449 47.260962 
L 452.068256 47.216947 
L 452.191653 47.195632 
L 452.491743 47.143796 
L 452.681291 47.111054 
L 452.917975 47.07017 
L 453.125541 47.034316 
L 453.254716 47.012003 
L 453.509438 46.968003 
L 453.620491 46.94882 
L 453.969461 46.88854 
L 454.025489 46.878862 
L 454.283989 46.83421 
L 454.540679 46.78987 
L 454.777644 46.748938 
L 454.830336 46.739836 
L 455.210259 46.674209 
L 455.289153 46.660582 
" style="fill:none;stroke:#00ff00;stroke-linecap:square;stroke-width:2;"/>
   </g>
   <g id="line2d_13">
    <path clip-path="url(#pe9180dc306)" d="M 455.900274 46.555019 
L 456.153391 46.511296 
L 456.427589 46.463932 
L 456.478008 46.455223 
L 456.794705 46.400518 
L 456.887564 46.384478 
L 457.200806 46.33037 
L 457.412117 46.293869 
L 457.54482 46.270946 
L 457.873104 46.21424 
L 457.919647 46.2062 
L 458.273421 46.14509 
L 458.463383 46.112277 
L 458.570692 46.093741 
L 458.890336 46.038527 
L 459.018962 46.016308 
L 459.207008 45.983826 
L 459.417993 45.947381 
L 459.706157 45.897605 
L 459.718034 45.895554 
L 460.106835 45.828393 
L 460.224004 45.808154 
L 460.429643 45.772633 
L 460.697734 45.726324 
L 460.879729 45.694887 
L 461.071191 45.661814 
L 461.280182 45.625714 
L 461.465876 45.593638 
L 461.643821 45.5629 
L 461.8217 45.532174 
L 461.955532 45.509057 
L 462.261538 45.456198 
L 462.521537 45.411287 
L 462.699079 45.380619 
L 462.852754 45.354074 
L 463.029488 45.323545 
L 463.283877 45.279603 
L 463.52415 45.238099 
L 463.781616 45.193626 
L 463.945427 45.16533 
L 464.050187 45.147234 
L 464.242288 45.114051 
L 464.568103 45.057771 
L 464.804873 45.016872 
L 465.010841 44.981294 
L 465.028031 44.978325 
L 465.372888 44.918755 
L 465.613591 44.877177 
L 465.638416 44.872889 
L 465.86879 44.833095 
L 466.068814 44.798544 
L 466.315982 44.755849 
L 466.536048 44.717836 
L 466.761104 44.67896 
L 466.973927 44.642198 
L 467.05123 44.628845 
L 467.335363 44.579765 
L 467.520859 44.547723 
L 467.741589 44.509595 
L 467.912165 44.48013 
L 468.177111 44.434364 
L 468.472985 44.383256 
L 468.670212 44.349188 
L 468.853445 44.317537 
L 468.952496 44.300427 
L 469.177798 44.26151 
L 469.327475 44.235655 
L 469.521243 44.202184 
L 469.818724 44.150798 
L 470.08505 44.104794 
L 470.227683 44.080157 
L 470.385987 44.052812 
L 470.699948 43.998579 
L 470.883882 43.966807 
L 471.039017 43.94001 
L 471.126637 43.924875 
L 471.42499 43.873338 
L 471.551999 43.851399 
L 471.831728 43.80308 
L 471.961347 43.78069 
L 472.248652 43.731062 
L 472.509313 43.686036 
L 472.733578 43.647298 
L 472.801565 43.635554 
L 472.982019 43.604383 
L 473.211845 43.564684 
L 473.459394 43.521923 
L 473.753861 43.471058 
L 473.803318 43.462515 
L 474.101418 43.411022 
L 474.383265 43.362337 
L 474.496287 43.342814 
L 474.756429 43.297878 
L 474.996661 43.256381 
L 475.039988 43.248897 
L 475.28307 43.206908 
L 475.443365 43.179219 
L 475.807493 43.116321 
L 476.002254 43.082679 
L 476.058529 43.072958 
L 476.331701 43.025771 
L 476.447293 43.005805 
L 476.650069 42.970778 
L 476.978686 42.914014 
L 477.228109 42.870929 
L 477.415142 42.838622 
L 477.459353 42.830985 
L 477.674156 42.793881 
L 477.89037 42.756533 
L 478.237421 42.696585 
L 478.437599 42.662007 
L 478.552161 42.642218 
L 478.778557 42.603111 
L 478.931132 42.576755 
L 479.155894 42.537931 
L 479.296169 42.513701 
L 479.533899 42.472636 
L 479.83358 42.42087 
L 479.93345 42.403619 
L 480.236476 42.351275 
L 480.471423 42.310692 
L 480.597746 42.288871 
L 480.805687 42.252952 
L 481.074274 42.206557 
L 481.205377 42.183911 
L 481.417941 42.147194 
" style="fill:none;stroke:#00ff00;stroke-linecap:square;stroke-width:2;"/>
   </g>
   <g id="line2d_14">
    <path clip-path="url(#pe9180dc306)" d="M 238.082101 55.080398 
L 278.638074 33.525058 
L 278.638074 33.525058 
" style="fill:none;stroke:#00ffff;stroke-linecap:square;stroke-width:2;"/>
   </g>
   <g id="line2d_15">
    <path clip-path="url(#pe9180dc306)" d="M 400.305994 70.708019 
L 440.861967 49.152679 
L 440.861967 49.152679 
" style="fill:none;stroke:#00ffff;stroke-linecap:square;stroke-width:2;"/>
   </g>
   <g id="line2d_16">
    <path clip-path="url(#pe9180dc306)" d="M 35.302234 61.008116 
L 55.580221 64.780301 
L 55.580221 64.780301 
" style="fill:none;stroke:#0000ff;stroke-linecap:square;stroke-width:2;"/>
   </g>
   <g id="line2d_17">
    <path clip-path="url(#pe9180dc306)" d="M 75.858207 39.452776 
L 96.136194 43.224961 
L 96.136194 43.224961 
" style="fill:none;stroke:#0000ff;stroke-linecap:square;stroke-width:2;"/>
   </g>
   <g id="line2d_18">
    <path clip-path="url(#pe9180dc306)" d="M 156.970154 39.99166 
L 197.526127 62.085883 
L 197.526127 62.085883 
" style="fill:none;stroke:#ff00ff;stroke-linecap:square;stroke-width:2;"/>
   </g>
   <g id="line2d_19">
    <path clip-path="url(#pe9180dc306)" d="M 298.916061 30.022315 
L 380.028007 74.210762 
L 380.028007 74.210762 
" style="fill:none;stroke:#ff00ff;stroke-linecap:square;stroke-width:2;"/>
   </g>
   <g id="line2d_20">
    <path clip-path="url(#pe9180dc306)" d="M 481.417941 42.147194 
L 521.973914 64.241417 
L 521.973914 64.241417 
" style="fill:none;stroke:#ff00ff;stroke-linecap:square;stroke-width:2;"/>
   </g>
   <g id="matplotlib.axis_1">
    <g id="xtick_1">
     <g id="line2d_21">
      <path clip-path="url(#pe9180dc306)" d="M 15.024247 87.704405 
L 15.024247 16.528672 
" style="fill:none;stroke:#000000;stroke-dasharray:0.5,0.825;stroke-dashoffset:0;stroke-width:0.5;"/>
     </g>
     <g id="line2d_22">
      <defs>
       <path d="M 0 0 
L 0 3.5 
" id="m70079daf28" style="stroke:#000000;stroke-width:0.8;"/>
      </defs>
      <g>
       <use style="stroke:#000000;stroke-width:0.8;" x="15.024247" xlink:href="#m70079daf28" y="86.335641"/>
      </g>
     </g>
    </g>
    <g id="xtick_2">
     <g id="line2d_23">
      <path clip-path="url(#pe9180dc306)" d="M 116.414181 87.704405 
L 116.414181 16.528672 
" style="fill:none;stroke:#000000;stroke-dasharray:0.5,0.825;stroke-dashoffset:0;stroke-width:0.5;"/>
     </g>
     <g id="line2d_24">
      <g>
       <use style="stroke:#000000;stroke-width:0.8;" x="116.414181" xlink:href="#m70079daf28" y="86.335641"/>
      </g>
     </g>
     <g id="text_1">
      <!-- $f$ -->
      <defs>
       <path d="M 9.71875 -16.5 
Q 11.578125 -17.921875 14.203125 -17.921875 
Q 17.78125 -17.921875 20.015625 -10.015625 
Q 20.953125 -6.203125 25.09375 15.09375 
L 29.6875 39.59375 
L 21.09375 39.59375 
Q 20.125 39.59375 20.125 40.921875 
Q 20.515625 43.109375 21.390625 43.109375 
L 30.328125 43.109375 
L 31.5 49.609375 
Q 32.078125 52.640625 32.5625 54.8125 
Q 33.0625 56.984375 33.625 58.828125 
Q 34.1875 60.6875 35.296875 62.984375 
Q 37.015625 66.265625 39.921875 68.390625 
Q 42.828125 70.515625 46.1875 70.515625 
Q 48.390625 70.515625 50.46875 69.703125 
Q 52.546875 68.890625 53.859375 67.28125 
Q 55.171875 65.671875 55.171875 63.484375 
Q 55.171875 60.9375 53.484375 59.046875 
Q 51.8125 57.171875 49.421875 57.171875 
Q 47.796875 57.171875 46.65625 58.171875 
Q 45.515625 59.1875 45.515625 60.796875 
Q 45.515625 62.984375 47 64.625 
Q 48.484375 66.265625 50.6875 66.5 
Q 48.828125 67.921875 46.09375 67.921875 
Q 44.578125 67.921875 43.234375 66.5 
Q 41.890625 65.09375 41.5 63.484375 
Q 40.875 60.9375 38.71875 49.703125 
L 37.5 43.109375 
L 47.796875 43.109375 
Q 48.78125 43.109375 48.78125 41.796875 
Q 48.734375 41.546875 48.578125 40.9375 
Q 48.4375 40.328125 48.171875 39.953125 
Q 47.90625 39.59375 47.515625 39.59375 
L 36.8125 39.59375 
L 32.171875 15.1875 
Q 31.296875 9.859375 30.140625 4.359375 
Q 29 -1.125 26.921875 -6.90625 
Q 24.859375 -12.703125 21.625 -16.609375 
Q 18.40625 -20.515625 14.015625 -20.515625 
Q 10.640625 -20.515625 7.984375 -18.578125 
Q 5.328125 -16.65625 5.328125 -13.484375 
Q 5.328125 -10.9375 6.953125 -9.046875 
Q 8.59375 -7.171875 11.078125 -7.171875 
Q 12.75 -7.171875 13.859375 -8.171875 
Q 14.984375 -9.1875 14.984375 -10.796875 
Q 14.984375 -12.9375 13.390625 -14.71875 
Q 11.8125 -16.5 9.71875 -16.5 
z
" id="Cmmi10-66"/>
      </defs>
      <g transform="translate(113.964181 100.913766)scale(0.1 -0.1)">
       <use transform="translate(0 0.484375)" xlink:href="#Cmmi10-66"/>
      </g>
     </g>
    </g>
    <g id="xtick_3">
     <g id="line2d_25">
      <path clip-path="url(#pe9180dc306)" d="M 562.529887 87.704405 
L 562.529887 16.528672 
" style="fill:none;stroke:#000000;stroke-dasharray:0.5,0.825;stroke-dashoffset:0;stroke-width:0.5;"/>
     </g>
     <g id="line2d_26">
      <g>
       <use style="stroke:#000000;stroke-width:0.8;" x="562.529887" xlink:href="#m70079daf28" y="86.335641"/>
      </g>
     </g>
     <g id="text_2">
      <!-- $1$ -->
      <defs>
       <path d="M 9.28125 0 
L 9.28125 3.515625 
Q 21.78125 3.515625 21.78125 6.6875 
L 21.78125 59.1875 
Q 16.609375 56.6875 8.6875 56.6875 
L 8.6875 60.203125 
Q 20.953125 60.203125 27.203125 66.609375 
L 28.609375 66.609375 
Q 28.953125 66.609375 29.265625 66.328125 
Q 29.59375 66.0625 29.59375 65.71875 
L 29.59375 6.6875 
Q 29.59375 3.515625 42.09375 3.515625 
L 42.09375 0 
z
" id="Cmr10-31"/>
      </defs>
      <g transform="translate(560.029887 100.934078)scale(0.1 -0.1)">
       <use transform="translate(0 0.390625)" xlink:href="#Cmr10-31"/>
      </g>
     </g>
    </g>
   </g>
   <g id="matplotlib.axis_2">
    <g id="ytick_1">
     <g id="line2d_27">
      <path clip-path="url(#pe9180dc306)" d="M 4.074135 86.335641 
L 573.48 86.335641 
" style="fill:none;stroke:#000000;stroke-dasharray:0.5,0.825;stroke-dashoffset:0;stroke-width:0.5;"/>
     </g>
     <g id="line2d_28">
      <defs>
       <path d="M 0 0 
L -3.5 0 
" id="m01f51dd789" style="stroke:#000000;stroke-width:0.8;"/>
      </defs>
      <g>
       <use style="stroke:#000000;stroke-width:0.8;" x="15.024247" xlink:href="#m01f51dd789" y="86.335641"/>
      </g>
     </g>
    </g>
    <g id="ytick_2">
     <g id="line2d_29">
      <path clip-path="url(#pe9180dc306)" d="M 4.074135 17.897436 
L 573.48 17.897436 
" style="fill:none;stroke:#000000;stroke-dasharray:0.5,0.825;stroke-dashoffset:0;stroke-width:0.5;"/>
     </g>
     <g id="line2d_30">
      <g>
       <use style="stroke:#000000;stroke-width:0.8;" x="15.024247" xlink:href="#m01f51dd789" y="17.897436"/>
      </g>
     </g>
     <g id="text_3">
      <!-- $1$ -->
      <g transform="translate(3.024247 21.696655)scale(0.1 -0.1)">
       <use transform="translate(0 0.390625)" xlink:href="#Cmr10-31"/>
      </g>
     </g>
    </g>
   </g>
   <g id="patch_3">
    <path d="M 15.024247 87.704405 
L 15.024247 16.528672 
" style="fill:none;stroke:#000000;stroke-linecap:square;stroke-linejoin:miter;stroke-width:0.8;"/>
   </g>
   <g id="patch_4">
    <path d="M 4.074135 86.335641 
L 573.48 86.335641 
" style="fill:none;stroke:#000000;stroke-linecap:square;stroke-linejoin:miter;stroke-width:0.8;"/>
   </g>
  </g>
 </g>
 <defs>
  <clipPath id="pe9180dc306">
   <rect height="71.175733" width="569.405865" x="4.074135" y="16.528672"/>
  </clipPath>
 </defs>
</svg>
