<?xml version="1.0" encoding="utf-8" standalone="no"?>
<!DOCTYPE svg PUBLIC "-//W3C//DTD SVG 1.1//EN"
  "http://www.w3.org/Graphics/SVG/1.1/DTD/svg11.dtd">
<!-- Created with matplotlib (http://matplotlib.org/) -->
<svg height="108pt" version="1.1" viewBox="0 0 576 108" width="576pt" xmlns="http://www.w3.org/2000/svg" xmlns:xlink="http://www.w3.org/1999/xlink">
 <defs>
  <style type="text/css">
*{stroke-linecap:butt;stroke-linejoin:round;}
  </style>
 </defs>
 <g id="figure_1">
  <g id="patch_1">
   <path d="M 0 108 
L 576 108 
L 576 0 
L 0 0 
z
" style="fill:#ffffff;"/>
  </g>
  <g id="axes_1">
   <g id="patch_2">
    <path d="M 4.074135 87.704405 
L 573.48 87.704405 
L 573.48 16.528672 
L 4.074135 16.528672 
z
" style="fill:#ffffff;"/>
   </g>
   <g id="line2d_1">
    <path clip-path="url(#p72d5e00a1e)" d="M 62.930991 77.780865 
L 350.371452 26.452212 
L 350.371452 26.452212 
" style="fill:none;stroke:#ff0000;stroke-linecap:square;stroke-width:2;"/>
   </g>
   <g id="line2d_2">
    <path clip-path="url(#p72d5e00a1e)" d="M 418.809657 26.452212 
L 419.356184 26.679931 
L 419.825117 26.87532 
L 420.922894 27.332727 
L 421.487514 27.567985 
L 422.006717 27.78432 
L 422.793326 28.112074 
L 423.443952 28.383168 
L 423.807643 28.534706 
L 424.352787 28.761849 
L 425.197831 29.113951 
L 425.711068 29.3278 
L 426.290668 29.5693 
L 426.999561 29.864672 
L 427.772333 30.18666 
L 428.205392 30.367101 
L 428.729236 30.58537 
L 429.442763 30.882673 
L 430.128233 31.168285 
L 430.554579 31.345929 
L 431.448191 31.718267 
L 431.60954 31.785496 
L 432.43019 32.127434 
L 433.274124 32.479073 
L 433.588682 32.610139 
L 434.54046 33.006713 
L 434.737963 33.089006 
L 435.452044 33.38654 
L 435.947488 33.592974 
L 436.885548 33.983833 
L 437.106025 34.075698 
L 437.927426 34.417949 
L 438.797081 34.780305 
L 439.016013 34.871527 
L 439.756037 35.17987 
L 440.198465 35.364215 
L 440.883697 35.649729 
L 441.440584 35.881765 
L 442.47753 36.313826 
L 443.128876 36.58522 
L 443.661153 36.807002 
L 443.89853 36.905909 
L 444.828897 37.293562 
L 445.693618 37.653862 
L 446.157202 37.847022 
L 446.63042 38.044196 
L 447.497577 38.405512 
L 448.040429 38.6317 
L 448.481513 38.815485 
L 448.987832 39.026451 
L 449.461325 39.22374 
L 450.413259 39.620379 
L 450.756203 39.763272 
L 451.436254 40.046627 
L 451.964883 40.266889 
L 452.549569 40.510508 
L 453.300241 40.823288 
L 454.197214 41.197027 
L 454.802101 41.449064 
L 455.367432 41.684618 
L 456.251083 42.052806 
L 456.411875 42.119802 
L 457.090512 42.402568 
L 457.970663 42.769297 
L 458.38456 42.941755 
L 458.822794 43.124352 
L 459.819462 43.539631 
L 460.350583 43.760931 
L 460.658714 43.889319 
L 461.230344 44.127498 
L 462.378071 44.605718 
L 463.036928 44.880241 
L 463.115307 44.912899 
L 464.106819 45.326029 
L 464.428455 45.460044 
L 465.390978 45.861095 
L 465.866144 46.059081 
L 466.478555 46.314252 
L 467.047613 46.55136 
L 467.900017 46.906528 
L 468.536191 47.171601 
L 469.128838 47.418537 
L 469.797379 47.697096 
L 470.056011 47.804859 
L 471.117984 48.247348 
L 471.49741 48.405442 
L 471.912116 48.578236 
L 472.661171 48.890343 
L 473.202298 49.115812 
L 474.067477 49.476303 
" style="fill:none;stroke:#7fff00;stroke-linecap:square;stroke-width:2;"/>
   </g>
   <g id="line2d_3">
    <path clip-path="url(#p72d5e00a1e)" d="M 475.992248 50.278291 
L 476.592235 50.528286 
L 477.003568 50.699675 
L 477.518151 50.914084 
L 478.389201 51.277022 
L 478.864048 51.474875 
L 479.703746 51.824749 
L 479.996449 51.946708 
L 480.683583 52.233014 
L 481.172863 52.436881 
L 481.927534 52.751327 
L 482.555103 53.012814 
L 483.167911 53.268151 
L 484.06746 53.642963 
L 484.159104 53.681148 
L 484.768686 53.935141 
L 485.936674 54.421802 
L 486.120745 54.498499 
L 487.054603 54.887606 
L 487.692453 55.153377 
L 488.029054 55.293627 
L 488.949625 55.677199 
L 489.483814 55.899777 
L 489.810294 56.035811 
L 490.346035 56.259036 
L 491.00773 56.534742 
L 492.033651 56.962209 
L 492.656134 57.221577 
L 493.080844 57.39854 
L 493.913566 57.745507 
L 494.5229 57.999396 
L 494.661944 58.057331 
L 495.489854 58.402294 
L 496.040524 58.63174 
L 496.582931 58.857743 
L 497.262066 59.140715 
L 497.882025 59.399032 
L 498.660887 59.723557 
L 499.462468 60.05755 
L 500.034776 60.296011 
L 500.586293 60.52581 
L 501.195857 60.779795 
L 501.806848 61.034375 
L 502.468885 61.310224 
L 502.930872 61.502718 
L 503.80111 61.865317 
L 504.430551 62.127584 
L 504.791903 62.278147 
L 505.274737 62.479328 
L 506.325629 62.9172 
L 506.592942 63.02858 
L 507.511307 63.411233 
L 507.685692 63.483893 
L 508.530558 63.835921 
L 509.34293 64.174409 
L 509.940897 64.423562 
L 510.620277 64.706637 
L 511.014227 64.870782 
L 511.779825 65.189782 
L 512.244797 65.38352 
L 512.861977 65.640678 
L 513.328848 65.835208 
L 514.223592 66.208018 
L 514.816885 66.455223 
L 515.363669 66.68305 
L 515.906372 66.909176 
L 516.801532 67.28216 
L 517.429794 67.543936 
L 517.866767 67.726007 
L 518.269754 67.893919 
L 519.192523 68.278406 
L 519.55953 68.431325 
L 520.556862 68.84688 
L 520.912175 68.994928 
L 521.588911 69.276901 
L 522.415764 69.621423 
L 522.833895 69.795644 
L 523.442859 70.049379 
L 523.916988 70.246933 
L 524.380215 70.439944 
L 525.201003 70.781939 
L 525.732163 71.003256 
L 526.364681 71.266805 
L 527.110115 71.577403 
L 527.725803 71.833939 
L 528.513903 72.162314 
L 528.911459 72.327963 
L 529.656083 72.638223 
L 530.004221 72.78328 
L 530.720405 73.08169 
L 531.336345 73.338332 
L 532.148019 73.676529 
L 532.678167 73.897424 
L 533.577225 74.272032 
L 533.855068 74.3878 
L 534.397965 74.614007 
L 535.457085 75.055307 
L 536.042986 75.299432 
L 536.167639 75.351371 
L 537.111682 75.744722 
L 537.745519 76.008821 
L 538.214545 76.204249 
L 538.82872 76.460155 
L 539.510583 76.744264 
L 539.918408 76.914191 
L 540.559039 77.181121 
L 541.669462 77.643797 
L 541.998426 77.780865 
" style="fill:none;stroke:#7fff00;stroke-linecap:square;stroke-width:2;"/>
   </g>
   <g id="line2d_4">
    <path clip-path="url(#p72d5e00a1e)" d="M 15.024247 86.335641 
L 58.368444 75.499592 
L 58.368444 75.499592 
" style="fill:none;stroke:#00ffff;stroke-linecap:square;stroke-width:2;"/>
   </g>
   <g id="line2d_5">
    <path clip-path="url(#p72d5e00a1e)" d="M 354.933999 28.733485 
L 398.278195 17.897436 
L 398.278195 17.897436 
" style="fill:none;stroke:#00ffff;stroke-linecap:square;stroke-width:2;"/>
   </g>
   <g id="line2d_6">
    <path clip-path="url(#p72d5e00a1e)" d="M 416.528383 27.02253 
L 418.809657 26.452212 
L 418.809657 26.452212 
" style="fill:none;stroke:#00ffff;stroke-linecap:square;stroke-width:2;"/>
   </g>
   <g id="line2d_7">
    <path clip-path="url(#p72d5e00a1e)" d="M 541.998426 77.780865 
L 544.279699 77.210547 
L 544.279699 77.210547 
" style="fill:none;stroke:#00ffff;stroke-linecap:square;stroke-width:2;"/>
   </g>
   <g id="line2d_8">
    <path clip-path="url(#p72d5e00a1e)" d="M 58.368444 75.499592 
L 62.930991 77.780865 
L 62.930991 77.780865 
" style="fill:none;stroke:#7f00ff;stroke-linecap:square;stroke-width:2;"/>
   </g>
   <g id="line2d_9">
    <path clip-path="url(#p72d5e00a1e)" d="M 350.371452 26.452212 
L 354.933999 28.733485 
L 354.933999 28.733485 
" style="fill:none;stroke:#7f00ff;stroke-linecap:square;stroke-width:2;"/>
   </g>
   <g id="line2d_10">
    <path clip-path="url(#p72d5e00a1e)" d="M 398.278195 17.897436 
L 416.528383 27.02253 
L 416.528383 27.02253 
" style="fill:none;stroke:#7f00ff;stroke-linecap:square;stroke-width:2;"/>
   </g>
   <g id="line2d_11">
    <path clip-path="url(#p72d5e00a1e)" d="M 544.279699 77.210547 
L 562.529887 86.335641 
L 562.529887 86.335641 
" style="fill:none;stroke:#7f00ff;stroke-linecap:square;stroke-width:2;"/>
   </g>
   <g id="matplotlib.axis_1">
    <g id="xtick_1">
     <g id="line2d_12">
      <path clip-path="url(#p72d5e00a1e)" d="M 15.024247 87.704405 
L 15.024247 16.528672 
" style="fill:none;stroke:#000000;stroke-dasharray:0.5,0.825;stroke-dashoffset:0;stroke-width:0.5;"/>
     </g>
     <g id="line2d_13">
      <defs>
       <path d="M 0 0 
L 0 3.5 
" id="mb9d619f3e9" style="stroke:#000000;stroke-width:0.8;"/>
      </defs>
      <g>
       <use style="stroke:#000000;stroke-width:0.8;" x="15.024247" xlink:href="#mb9d619f3e9" y="86.335641"/>
      </g>
     </g>
    </g>
    <g id="xtick_2">
     <g id="line2d_14">
      <path clip-path="url(#p72d5e00a1e)" d="M 398.278195 87.704405 
L 398.278195 16.528672 
" style="fill:none;stroke:#000000;stroke-dasharray:0.5,0.825;stroke-dashoffset:0;stroke-width:0.5;"/>
     </g>
     <g id="line2d_15">
      <g>
       <use style="stroke:#000000;stroke-width:0.8;" x="398.278195" xlink:href="#mb9d619f3e9" y="86.335641"/>
      </g>
     </g>
     <g id="text_1">
      <!-- $f$ -->
      <defs>
       <path d="M 9.71875 -16.5 
Q 11.578125 -17.921875 14.203125 -17.921875 
Q 17.78125 -17.921875 20.015625 -10.015625 
Q 20.953125 -6.203125 25.09375 15.09375 
L 29.6875 39.59375 
L 21.09375 39.59375 
Q 20.125 39.59375 20.125 40.921875 
Q 20.515625 43.109375 21.390625 43.109375 
L 30.328125 43.109375 
L 31.5 49.609375 
Q 32.078125 52.640625 32.5625 54.8125 
Q 33.0625 56.984375 33.625 58.828125 
Q 34.1875 60.6875 35.296875 62.984375 
Q 37.015625 66.265625 39.921875 68.390625 
Q 42.828125 70.515625 46.1875 70.515625 
Q 48.390625 70.515625 50.46875 69.703125 
Q 52.546875 68.890625 53.859375 67.28125 
Q 55.171875 65.671875 55.171875 63.484375 
Q 55.171875 60.9375 53.484375 59.046875 
Q 51.8125 57.171875 49.421875 57.171875 
Q 47.796875 57.171875 46.65625 58.171875 
Q 45.515625 59.1875 45.515625 60.796875 
Q 45.515625 62.984375 47 64.625 
Q 48.484375 66.265625 50.6875 66.5 
Q 48.828125 67.921875 46.09375 67.921875 
Q 44.578125 67.921875 43.234375 66.5 
Q 41.890625 65.09375 41.5 63.484375 
Q 40.875 60.9375 38.71875 49.703125 
L 37.5 43.109375 
L 47.796875 43.109375 
Q 48.78125 43.109375 48.78125 41.796875 
Q 48.734375 41.546875 48.578125 40.9375 
Q 48.4375 40.328125 48.171875 39.953125 
Q 47.90625 39.59375 47.515625 39.59375 
L 36.8125 39.59375 
L 32.171875 15.1875 
Q 31.296875 9.859375 30.140625 4.359375 
Q 29 -1.125 26.921875 -6.90625 
Q 24.859375 -12.703125 21.625 -16.609375 
Q 18.40625 -20.515625 14.015625 -20.515625 
Q 10.640625 -20.515625 7.984375 -18.578125 
Q 5.328125 -16.65625 5.328125 -13.484375 
Q 5.328125 -10.9375 6.953125 -9.046875 
Q 8.59375 -7.171875 11.078125 -7.171875 
Q 12.75 -7.171875 13.859375 -8.171875 
Q 14.984375 -9.1875 14.984375 -10.796875 
Q 14.984375 -12.9375 13.390625 -14.71875 
Q 11.8125 -16.5 9.71875 -16.5 
z
" id="Cmmi10-66"/>
      </defs>
      <g transform="translate(395.828195 100.913766)scale(0.1 -0.1)">
       <use transform="translate(0 0.484375)" xlink:href="#Cmmi10-66"/>
      </g>
     </g>
    </g>
    <g id="xtick_3">
     <g id="line2d_16">
      <path clip-path="url(#p72d5e00a1e)" d="M 562.529887 87.704405 
L 562.529887 16.528672 
" style="fill:none;stroke:#000000;stroke-dasharray:0.5,0.825;stroke-dashoffset:0;stroke-width:0.5;"/>
     </g>
     <g id="line2d_17">
      <g>
       <use style="stroke:#000000;stroke-width:0.8;" x="562.529887" xlink:href="#mb9d619f3e9" y="86.335641"/>
      </g>
     </g>
     <g id="text_2">
      <!-- $1$ -->
      <defs>
       <path d="M 9.28125 0 
L 9.28125 3.515625 
Q 21.78125 3.515625 21.78125 6.6875 
L 21.78125 59.1875 
Q 16.609375 56.6875 8.6875 56.6875 
L 8.6875 60.203125 
Q 20.953125 60.203125 27.203125 66.609375 
L 28.609375 66.609375 
Q 28.953125 66.609375 29.265625 66.328125 
Q 29.59375 66.0625 29.59375 65.71875 
L 29.59375 6.6875 
Q 29.59375 3.515625 42.09375 3.515625 
L 42.09375 0 
z
" id="Cmr10-31"/>
      </defs>
      <g transform="translate(560.029887 100.934078)scale(0.1 -0.1)">
       <use transform="translate(0 0.390625)" xlink:href="#Cmr10-31"/>
      </g>
     </g>
    </g>
   </g>
   <g id="matplotlib.axis_2">
    <g id="ytick_1">
     <g id="line2d_18">
      <path clip-path="url(#p72d5e00a1e)" d="M 4.074135 86.335641 
L 573.48 86.335641 
" style="fill:none;stroke:#000000;stroke-dasharray:0.5,0.825;stroke-dashoffset:0;stroke-width:0.5;"/>
     </g>
     <g id="line2d_19">
      <defs>
       <path d="M 0 0 
L -3.5 0 
" id="m762d522eb0" style="stroke:#000000;stroke-width:0.8;"/>
      </defs>
      <g>
       <use style="stroke:#000000;stroke-width:0.8;" x="15.024247" xlink:href="#m762d522eb0" y="86.335641"/>
      </g>
     </g>
    </g>
    <g id="ytick_2">
     <g id="line2d_20">
      <path clip-path="url(#p72d5e00a1e)" d="M 4.074135 17.897436 
L 573.48 17.897436 
" style="fill:none;stroke:#000000;stroke-dasharray:0.5,0.825;stroke-dashoffset:0;stroke-width:0.5;"/>
     </g>
     <g id="line2d_21">
      <g>
       <use style="stroke:#000000;stroke-width:0.8;" x="15.024247" xlink:href="#m762d522eb0" y="17.897436"/>
      </g>
     </g>
     <g id="text_3">
      <!-- $1$ -->
      <g transform="translate(3.024247 21.696655)scale(0.1 -0.1)">
       <use transform="translate(0 0.390625)" xlink:href="#Cmr10-31"/>
      </g>
     </g>
    </g>
   </g>
   <g id="patch_3">
    <path d="M 15.024247 87.704405 
L 15.024247 16.528672 
" style="fill:none;stroke:#000000;stroke-linecap:square;stroke-linejoin:miter;stroke-width:0.8;"/>
   </g>
   <g id="patch_4">
    <path d="M 4.074135 86.335641 
L 573.48 86.335641 
" style="fill:none;stroke:#000000;stroke-linecap:square;stroke-linejoin:miter;stroke-width:0.8;"/>
   </g>
  </g>
 </g>
 <defs>
  <clipPath id="p72d5e00a1e">
   <rect height="71.175733" width="569.405865" x="4.074135" y="16.528672"/>
  </clipPath>
 </defs>
</svg>
