<?xml version="1.0" encoding="utf-8" standalone="no"?>
<!DOCTYPE svg PUBLIC "-//W3C//DTD SVG 1.1//EN"
  "http://www.w3.org/Graphics/SVG/1.1/DTD/svg11.dtd">
<!-- Created with matplotlib (http://matplotlib.org/) -->
<svg height="108pt" version="1.1" viewBox="0 0 576 108" width="576pt" xmlns="http://www.w3.org/2000/svg" xmlns:xlink="http://www.w3.org/1999/xlink">
 <defs>
  <style type="text/css">
*{stroke-linecap:butt;stroke-linejoin:round;}
  </style>
 </defs>
 <g id="figure_1">
  <g id="patch_1">
   <path d="M 0 108 
L 576 108 
L 576 0 
L 0 0 
z
" style="fill:#ffffff;"/>
  </g>
  <g id="axes_1">
   <g id="patch_2">
    <path d="M 4.074135 87.704405 
L 573.48 87.704405 
L 573.48 16.528672 
L 4.074135 16.528672 
z
" style="fill:#ffffff;"/>
   </g>
   <g id="line2d_1">
    <path clip-path="url(#pc4b3d7e2d7)" d="M 114.570727 49.835265 
L 114.721596 49.932072 
L 114.807588 49.987251 
L 114.906114 50.050472 
L 115.075127 50.158921 
L 115.198631 50.23817 
L 115.289688 50.296598 
L 115.434219 50.389339 
L 115.569305 50.476019 
L 115.679628 50.54681 
L 115.802453 50.625622 
L 115.976009 50.736987 
L 116.115241 50.826328 
L 116.240687 50.906822 
L 116.320542 50.958063 
L 116.465206 51.050889 
L 116.509484 51.079301 
L 116.689441 51.194773 
L 116.77051 51.246792 
L 116.938599 51.354649 
L 117.117708 51.469577 
L 117.259303 51.560435 
L 117.289361 51.579721 
L 117.425801 51.667271 
L 117.584346 51.769004 
L 117.741586 51.869899 
L 117.789687 51.900764 
L 117.893801 51.96757 
L 118.065276 52.0776 
L 118.2394 52.18933 
L 118.267089 52.207097 
L 118.455905 52.328254 
L 118.620406 52.433809 
L 118.716386 52.495396 
L 118.853226 52.583202 
L 118.912719 52.621376 
L 119.114518 52.750864 
L 119.23706 52.829495 
L 119.366176 52.912345 
L 119.408268 52.939354 
L 119.630466 53.081931 
L 119.682754 53.115482 
L 119.832342 53.211468 
L 120.003168 53.321081 
L 120.11031 53.38983 
L 120.174371 53.430936 
L 120.297355 53.509851 
L 120.437959 53.600072 
L 120.524522 53.655617 
L 120.713591 53.776936 
L 120.791018 53.826618 
L 120.981954 53.949135 
L 121.069668 54.005419 
L 121.239841 54.114613 
L 121.378371 54.203503 
L 121.466123 54.25981 
L 121.532048 54.302112 
L 121.757573 54.446825 
L 121.795391 54.471091 
L 121.957888 54.57536 
L 122.026643 54.619477 
L 122.261795 54.770367 
L 122.377495 54.844607 
L 122.487001 54.914874 
L 122.5656 54.965308 
L 122.750649 55.084048 
L 122.768331 55.095394 
L 122.903323 55.182014 
L 123.013241 55.252545 
L 123.145829 55.337622 
L 123.347278 55.466885 
L 123.442928 55.528261 
L 123.581301 55.61705 
L 123.682695 55.682111 
L 123.797221 55.755599 
L 124.007008 55.890212 
L 124.073883 55.933123 
L 124.231122 56.034018 
L 124.299766 56.078065 
L 124.494329 56.202909 
L 124.529227 56.225302 
L 124.753524 56.369226 
" style="fill:none;stroke:#ff0000;stroke-linecap:square;stroke-width:2;"/>
   </g>
   <g id="line2d_2">
    <path clip-path="url(#pc4b3d7e2d7)" d="M 125.075431 56.575783 
L 125.248556 56.686872 
L 125.369096 56.764218 
L 125.457288 56.820808 
L 125.602075 56.913713 
L 125.745159 57.005525 
L 125.81536 57.050571 
L 125.940617 57.130944 
L 126.061641 57.208601 
L 126.257615 57.334351 
L 126.346468 57.391365 
L 126.483859 57.479524 
L 126.55847 57.5274 
L 126.67962 57.605138 
L 126.781845 57.670732 
L 126.926417 57.763499 
L 127.065999 57.853065 
L 127.251235 57.971924 
L 127.343632 58.031212 
L 127.448354 58.098409 
L 127.616254 58.206145 
L 127.712274 58.267757 
L 127.879426 58.375013 
L 127.998516 58.451429 
L 128.064921 58.494039 
L 128.15832 58.55397 
L 128.292608 58.640139 
L 128.510094 58.779692 
L 128.56188 58.812921 
L 128.733686 58.923164 
L 128.868528 59.009687 
L 128.964963 59.071566 
L 129.024561 59.109808 
L 129.217643 59.233703 
L 129.276202 59.271278 
L 129.424806 59.366632 
L 129.544111 59.443186 
L 129.749477 59.574963 
L 129.804687 59.610389 
L 129.90432 59.67432 
L 130.092762 59.795237 
L 130.214899 59.873608 
L 130.272401 59.910506 
L 130.437188 60.016244 
L 130.5183 60.068291 
L 130.707302 60.189567 
L 130.842095 60.276059 
L 130.905915 60.31701 
L 131.127962 60.45949 
L 131.196309 60.503346 
L 131.342995 60.59747 
L 131.50057 60.69858 
L 131.547794 60.728883 
L 131.719614 60.839134 
L 131.841406 60.917284 
L 131.988883 61.011915 
L 132.126585 61.100274 
L 132.250536 61.179809 
L 132.309797 61.217835 
L 132.437963 61.300074 
L 132.527226 61.357352 
L 132.648932 61.435446 
L 132.795583 61.529547 
L 132.93259 61.61746 
L 133.072231 61.707063 
L 133.234862 61.811418 
L 133.296876 61.85121 
L 133.396684 61.915254 
L 133.614753 62.055181 
L 133.656625 62.082049 
L 133.885308 62.228787 
L 133.911165 62.245379 
L 134.062186 62.342284 
L 134.238904 62.455678 
L 134.380214 62.546352 
L 134.483918 62.612895 
L 134.608899 62.693092 
L 134.65104 62.720132 
L 134.867146 62.8588 
L 134.950138 62.912053 
L 135.019986 62.956873 
L 135.15337 63.042461 
L 135.303852 63.13902 
L 135.406063 63.204605 
L 135.600149 63.329144 
L 135.695107 63.390075 
L 135.874214 63.505002 
L 135.931071 63.541485 
L 136.122243 63.664154 
L 136.234428 63.736139 
L 136.359018 63.816084 
L 136.440907 63.86863 
L 136.589604 63.964044 
L 136.715006 64.04451 
L 136.885036 64.153613 
L 136.979086 64.213962 
L 137.03936 64.252638 
L 137.191007 64.349944 
L 137.316169 64.430257 
L 137.422904 64.498745 
L 137.564479 64.589589 
L 137.761789 64.716196 
L 137.846354 64.770459 
L 137.937072 64.828669 
L 138.073511 64.916218 
L 138.21073 65.004266 
L 138.388567 65.118378 
L 138.420186 65.138668 
L 138.638145 65.278524 
L 138.677932 65.304055 
L 138.82083 65.395748 
L 138.902328 65.448042 
L 139.030357 65.530194 
L 139.162123 65.614744 
L 139.311552 65.710627 
L 139.457347 65.804179 
" style="fill:none;stroke:#ff0000;stroke-linecap:square;stroke-width:2;"/>
   </g>
   <g id="line2d_3">
    <path clip-path="url(#pc4b3d7e2d7)" d="M 164.343967 56.679085 
L 189.230587 72.648 
L 189.230587 72.648 
" style="fill:none;stroke:#ff0000;stroke-linecap:square;stroke-width:2;"/>
   </g>
   <g id="line2d_4">
    <path clip-path="url(#pc4b3d7e2d7)" d="M 288.777067 36.147624 
L 338.550307 68.085453 
L 338.550307 68.085453 
" style="fill:none;stroke:#ff0000;stroke-linecap:square;stroke-width:2;"/>
   </g>
   <g id="line2d_5">
    <path clip-path="url(#pc4b3d7e2d7)" d="M 438.096787 31.585077 
L 462.983407 47.553991 
L 462.983407 47.553991 
" style="fill:none;stroke:#ff0000;stroke-linecap:square;stroke-width:2;"/>
   </g>
   <g id="line2d_6">
    <path clip-path="url(#pc4b3d7e2d7)" d="M 487.870027 38.428897 
L 512.756647 54.397812 
L 512.756647 54.397812 
" style="fill:none;stroke:#ff0000;stroke-linecap:square;stroke-width:2;"/>
   </g>
   <g id="line2d_7">
    <path clip-path="url(#pc4b3d7e2d7)" d="M 64.797487 17.897436 
L 89.684107 58.960359 
L 89.684107 58.960359 
" style="fill:none;stroke:#cbff00;stroke-linecap:square;stroke-width:2;"/>
   </g>
   <g id="line2d_8">
    <path clip-path="url(#pc4b3d7e2d7)" d="M 537.643267 45.272718 
L 562.529887 86.335641 
L 562.529887 86.335641 
" style="fill:none;stroke:#cbff00;stroke-linecap:square;stroke-width:2;"/>
   </g>
   <g id="line2d_9">
    <path clip-path="url(#pc4b3d7e2d7)" d="M 15.024247 86.335641 
L 64.797487 17.897436 
L 64.797487 17.897436 
" style="fill:none;stroke:#00ff66;stroke-linecap:square;stroke-width:2;"/>
   </g>
   <g id="line2d_10">
    <path clip-path="url(#pc4b3d7e2d7)" d="M 189.230587 72.648 
L 214.117207 38.428897 
L 214.117207 38.428897 
" style="fill:none;stroke:#00ff66;stroke-linecap:square;stroke-width:2;"/>
   </g>
   <g id="line2d_11">
    <path clip-path="url(#pc4b3d7e2d7)" d="M 413.210167 65.804179 
L 438.096787 31.585077 
L 438.096787 31.585077 
" style="fill:none;stroke:#00ff66;stroke-linecap:square;stroke-width:2;"/>
   </g>
   <g id="line2d_12">
    <path clip-path="url(#pc4b3d7e2d7)" d="M 214.117207 38.428897 
L 263.890447 45.272718 
L 263.890447 45.272718 
" style="fill:none;stroke:#0066ff;stroke-linecap:square;stroke-width:2;"/>
   </g>
   <g id="line2d_13">
    <path clip-path="url(#pc4b3d7e2d7)" d="M 363.436927 58.960359 
L 413.210167 65.804179 
L 413.210167 65.804179 
" style="fill:none;stroke:#0066ff;stroke-linecap:square;stroke-width:2;"/>
   </g>
   <g id="line2d_14">
    <path clip-path="url(#pc4b3d7e2d7)" d="M 89.684107 58.960359 
L 114.570727 49.835265 
L 114.570727 49.835265 
" style="fill:none;stroke:#cc00ff;stroke-linecap:square;stroke-width:2;"/>
   </g>
   <g id="line2d_15">
    <path clip-path="url(#pc4b3d7e2d7)" d="M 139.457347 65.804179 
L 164.343967 56.679085 
L 164.343967 56.679085 
" style="fill:none;stroke:#cc00ff;stroke-linecap:square;stroke-width:2;"/>
   </g>
   <g id="line2d_16">
    <path clip-path="url(#pc4b3d7e2d7)" d="M 263.890447 45.272718 
L 288.777067 36.147624 
L 288.777067 36.147624 
" style="fill:none;stroke:#cc00ff;stroke-linecap:square;stroke-width:2;"/>
   </g>
   <g id="line2d_17">
    <path clip-path="url(#pc4b3d7e2d7)" d="M 338.550307 68.085453 
L 363.436927 58.960359 
L 363.436927 58.960359 
" style="fill:none;stroke:#cc00ff;stroke-linecap:square;stroke-width:2;"/>
   </g>
   <g id="line2d_18">
    <path clip-path="url(#pc4b3d7e2d7)" d="M 462.983407 47.553991 
L 487.870027 38.428897 
L 487.870027 38.428897 
" style="fill:none;stroke:#cc00ff;stroke-linecap:square;stroke-width:2;"/>
   </g>
   <g id="line2d_19">
    <path clip-path="url(#pc4b3d7e2d7)" d="M 512.756647 54.397812 
L 537.643267 45.272718 
L 537.643267 45.272718 
" style="fill:none;stroke:#cc00ff;stroke-linecap:square;stroke-width:2;"/>
   </g>
   <g id="matplotlib.axis_1">
    <g id="xtick_1">
     <g id="line2d_20">
      <path clip-path="url(#pc4b3d7e2d7)" d="M 15.024247 87.704405 
L 15.024247 16.528672 
" style="fill:none;stroke:#000000;stroke-dasharray:0.5,0.825;stroke-dashoffset:0;stroke-width:0.5;"/>
     </g>
     <g id="line2d_21">
      <defs>
       <path d="M 0 0 
L 0 3.5 
" id="m85596b55a0" style="stroke:#000000;stroke-width:0.8;"/>
      </defs>
      <g>
       <use style="stroke:#000000;stroke-width:0.8;" x="15.024247" xlink:href="#m85596b55a0" y="86.335641"/>
      </g>
     </g>
    </g>
    <g id="xtick_2">
     <g id="line2d_22">
      <path clip-path="url(#pc4b3d7e2d7)" d="M 64.797487 87.704405 
L 64.797487 16.528672 
" style="fill:none;stroke:#000000;stroke-dasharray:0.5,0.825;stroke-dashoffset:0;stroke-width:0.5;"/>
     </g>
     <g id="line2d_23">
      <g>
       <use style="stroke:#000000;stroke-width:0.8;" x="64.797487" xlink:href="#m85596b55a0" y="86.335641"/>
      </g>
     </g>
     <g id="text_1">
      <!-- $f$ -->
      <defs>
       <path d="M 9.71875 -16.5 
Q 11.578125 -17.921875 14.203125 -17.921875 
Q 17.78125 -17.921875 20.015625 -10.015625 
Q 20.953125 -6.203125 25.09375 15.09375 
L 29.6875 39.59375 
L 21.09375 39.59375 
Q 20.125 39.59375 20.125 40.921875 
Q 20.515625 43.109375 21.390625 43.109375 
L 30.328125 43.109375 
L 31.5 49.609375 
Q 32.078125 52.640625 32.5625 54.8125 
Q 33.0625 56.984375 33.625 58.828125 
Q 34.1875 60.6875 35.296875 62.984375 
Q 37.015625 66.265625 39.921875 68.390625 
Q 42.828125 70.515625 46.1875 70.515625 
Q 48.390625 70.515625 50.46875 69.703125 
Q 52.546875 68.890625 53.859375 67.28125 
Q 55.171875 65.671875 55.171875 63.484375 
Q 55.171875 60.9375 53.484375 59.046875 
Q 51.8125 57.171875 49.421875 57.171875 
Q 47.796875 57.171875 46.65625 58.171875 
Q 45.515625 59.1875 45.515625 60.796875 
Q 45.515625 62.984375 47 64.625 
Q 48.484375 66.265625 50.6875 66.5 
Q 48.828125 67.921875 46.09375 67.921875 
Q 44.578125 67.921875 43.234375 66.5 
Q 41.890625 65.09375 41.5 63.484375 
Q 40.875 60.9375 38.71875 49.703125 
L 37.5 43.109375 
L 47.796875 43.109375 
Q 48.78125 43.109375 48.78125 41.796875 
Q 48.734375 41.546875 48.578125 40.9375 
Q 48.4375 40.328125 48.171875 39.953125 
Q 47.90625 39.59375 47.515625 39.59375 
L 36.8125 39.59375 
L 32.171875 15.1875 
Q 31.296875 9.859375 30.140625 4.359375 
Q 29 -1.125 26.921875 -6.90625 
Q 24.859375 -12.703125 21.625 -16.609375 
Q 18.40625 -20.515625 14.015625 -20.515625 
Q 10.640625 -20.515625 7.984375 -18.578125 
Q 5.328125 -16.65625 5.328125 -13.484375 
Q 5.328125 -10.9375 6.953125 -9.046875 
Q 8.59375 -7.171875 11.078125 -7.171875 
Q 12.75 -7.171875 13.859375 -8.171875 
Q 14.984375 -9.1875 14.984375 -10.796875 
Q 14.984375 -12.9375 13.390625 -14.71875 
Q 11.8125 -16.5 9.71875 -16.5 
z
" id="Cmmi10-66"/>
      </defs>
      <g transform="translate(62.347487 100.913766)scale(0.1 -0.1)">
       <use transform="translate(0 0.484375)" xlink:href="#Cmmi10-66"/>
      </g>
     </g>
    </g>
    <g id="xtick_3">
     <g id="line2d_24">
      <path clip-path="url(#pc4b3d7e2d7)" d="M 562.529887 87.704405 
L 562.529887 16.528672 
" style="fill:none;stroke:#000000;stroke-dasharray:0.5,0.825;stroke-dashoffset:0;stroke-width:0.5;"/>
     </g>
     <g id="line2d_25">
      <g>
       <use style="stroke:#000000;stroke-width:0.8;" x="562.529887" xlink:href="#m85596b55a0" y="86.335641"/>
      </g>
     </g>
     <g id="text_2">
      <!-- $1$ -->
      <defs>
       <path d="M 9.28125 0 
L 9.28125 3.515625 
Q 21.78125 3.515625 21.78125 6.6875 
L 21.78125 59.1875 
Q 16.609375 56.6875 8.6875 56.6875 
L 8.6875 60.203125 
Q 20.953125 60.203125 27.203125 66.609375 
L 28.609375 66.609375 
Q 28.953125 66.609375 29.265625 66.328125 
Q 29.59375 66.0625 29.59375 65.71875 
L 29.59375 6.6875 
Q 29.59375 3.515625 42.09375 3.515625 
L 42.09375 0 
z
" id="Cmr10-31"/>
      </defs>
      <g transform="translate(560.029887 100.934078)scale(0.1 -0.1)">
       <use transform="translate(0 0.390625)" xlink:href="#Cmr10-31"/>
      </g>
     </g>
    </g>
   </g>
   <g id="matplotlib.axis_2">
    <g id="ytick_1">
     <g id="line2d_26">
      <path clip-path="url(#pc4b3d7e2d7)" d="M 4.074135 86.335641 
L 573.48 86.335641 
" style="fill:none;stroke:#000000;stroke-dasharray:0.5,0.825;stroke-dashoffset:0;stroke-width:0.5;"/>
     </g>
     <g id="line2d_27">
      <defs>
       <path d="M 0 0 
L -3.5 0 
" id="m0317b23aad" style="stroke:#000000;stroke-width:0.8;"/>
      </defs>
      <g>
       <use style="stroke:#000000;stroke-width:0.8;" x="15.024247" xlink:href="#m0317b23aad" y="86.335641"/>
      </g>
     </g>
    </g>
    <g id="ytick_2">
     <g id="line2d_28">
      <path clip-path="url(#pc4b3d7e2d7)" d="M 4.074135 17.897436 
L 573.48 17.897436 
" style="fill:none;stroke:#000000;stroke-dasharray:0.5,0.825;stroke-dashoffset:0;stroke-width:0.5;"/>
     </g>
     <g id="line2d_29">
      <g>
       <use style="stroke:#000000;stroke-width:0.8;" x="15.024247" xlink:href="#m0317b23aad" y="17.897436"/>
      </g>
     </g>
     <g id="text_3">
      <!-- $1$ -->
      <g transform="translate(3.024247 21.696655)scale(0.1 -0.1)">
       <use transform="translate(0 0.390625)" xlink:href="#Cmr10-31"/>
      </g>
     </g>
    </g>
   </g>
   <g id="patch_3">
    <path d="M 15.024247 87.704405 
L 15.024247 16.528672 
" style="fill:none;stroke:#000000;stroke-linecap:square;stroke-linejoin:miter;stroke-width:0.8;"/>
   </g>
   <g id="patch_4">
    <path d="M 4.074135 86.335641 
L 573.48 86.335641 
" style="fill:none;stroke:#000000;stroke-linecap:square;stroke-linejoin:miter;stroke-width:0.8;"/>
   </g>
  </g>
 </g>
 <defs>
  <clipPath id="pc4b3d7e2d7">
   <rect height="71.175733" width="569.405865" x="4.074135" y="16.528672"/>
  </clipPath>
 </defs>
</svg>
