<?xml version="1.0" encoding="utf-8" standalone="no"?>
<!DOCTYPE svg PUBLIC "-//W3C//DTD SVG 1.1//EN"
  "http://www.w3.org/Graphics/SVG/1.1/DTD/svg11.dtd">
<!-- Created with matplotlib (http://matplotlib.org/) -->
<svg height="108pt" version="1.1" viewBox="0 0 576 108" width="576pt" xmlns="http://www.w3.org/2000/svg" xmlns:xlink="http://www.w3.org/1999/xlink">
 <defs>
  <style type="text/css">
*{stroke-linecap:butt;stroke-linejoin:round;}
  </style>
 </defs>
 <g id="figure_1">
  <g id="patch_1">
   <path d="M 0 108 
L 576 108 
L 576 0 
L 0 0 
z
" style="fill:#ffffff;"/>
  </g>
  <g id="axes_1">
   <g id="patch_2">
    <path d="M 4.074135 87.704405 
L 573.48 87.704405 
L 573.48 16.528672 
L 4.074135 16.528672 
z
" style="fill:#ffffff;"/>
   </g>
   <g id="line2d_1">
    <path clip-path="url(#pa6d56c0c15)" d="M 192.593644 44.240713 
L 207.391094 59.992364 
L 207.391094 59.992364 
" style="fill:none;stroke:#ff0000;stroke-linecap:square;stroke-width:2;"/>
   </g>
   <g id="line2d_2">
    <path clip-path="url(#pa6d56c0c15)" d="M 384.960491 17.897436 
L 399.75794 33.649086 
L 399.75794 33.649086 
" style="fill:none;stroke:#ff0000;stroke-linecap:square;stroke-width:2;"/>
   </g>
   <g id="line2d_3">
    <path clip-path="url(#pa6d56c0c15)" d="M 414.55539 39.35227 
L 429.35284 55.10392 
L 429.35284 55.10392 
" style="fill:none;stroke:#ff0000;stroke-linecap:square;stroke-width:2;"/>
   </g>
   <g id="line2d_4">
    <path clip-path="url(#pa6d56c0c15)" d="M 518.137538 49.129156 
L 532.934988 64.880807 
L 532.934988 64.880807 
" style="fill:none;stroke:#ff0000;stroke-linecap:square;stroke-width:2;"/>
   </g>
   <g id="line2d_5">
    <path clip-path="url(#pa6d56c0c15)" d="M 547.732437 70.583991 
L 562.529887 86.335641 
L 562.529887 86.335641 
" style="fill:none;stroke:#ff0000;stroke-linecap:square;stroke-width:2;"/>
   </g>
   <g id="line2d_6">
    <path clip-path="url(#pa6d56c0c15)" d="M 29.821697 41.796492 
L 59.416597 53.202859 
L 59.416597 53.202859 
" style="fill:none;stroke:#cbff00;stroke-linecap:square;stroke-width:2;"/>
   </g>
   <g id="line2d_7">
    <path clip-path="url(#pa6d56c0c15)" d="M 89.011496 34.463827 
L 89.117872 34.504826 
L 89.301761 34.5757 
L 89.507513 34.655 
L 89.550789 34.671679 
L 89.783542 34.761386 
L 89.966642 34.831956 
L 90.004856 34.846684 
L 90.180889 34.91453 
L 90.365384 34.985638 
L 90.428996 35.010155 
L 90.684775 35.108736 
L 90.767055 35.140449 
L 91.01188 35.234808 
L 91.128959 35.279932 
L 91.301106 35.346281 
L 91.337761 35.360408 
L 91.473844 35.412857 
L 91.625748 35.471403 
L 91.872771 35.56661 
L 92.030158 35.62727 
L 92.081474 35.647048 
L 92.246121 35.710505 
L 92.362872 35.755503 
L 92.581192 35.839647 
L 92.794001 35.921667 
L 92.808688 35.927328 
L 93.038107 36.01575 
L 93.233578 36.091088 
L 93.34302 36.133269 
L 93.516784 36.20024 
L 93.587195 36.227378 
L 93.811087 36.313669 
L 93.98745 36.381642 
L 94.035843 36.400294 
L 94.172557 36.452986 
L 94.411995 36.545269 
L 94.525197 36.588899 
L 94.712772 36.661194 
L 94.785747 36.689319 
L 94.983199 36.765421 
L 95.173569 36.838792 
L 95.308208 36.890685 
L 95.338005 36.902169 
L 95.500158 36.964665 
L 95.763052 37.065989 
L 95.89516 37.116906 
L 96.075385 37.186367 
L 96.165188 37.220979 
L 96.367785 37.299063 
L 96.495696 37.348362 
L 96.596281 37.387129 
L 96.721266 37.435301 
L 96.948906 37.523037 
L 97.023137 37.551647 
L 97.233839 37.632855 
L 97.271246 37.647272 
L 97.416205 37.703142 
L 97.661975 37.797866 
L 97.784442 37.845067 
L 97.967496 37.915619 
L 98.026298 37.938282 
L 98.170069 37.993694 
L 98.35245 38.063986 
L 98.465987 38.107745 
L 98.676571 38.188908 
L 98.777999 38.228 
L 99.0209 38.321618 
L 99.181846 38.383649 
L 99.219864 38.398302 
L 99.380304 38.460138 
L 99.640272 38.560334 
L 99.652566 38.565073 
L 99.829615 38.63331 
L 100.050952 38.718617 
L 100.224397 38.785466 
L 100.375889 38.843853 
L 100.516845 38.89818 
L 100.615111 38.936054 
L 100.729432 38.980115 
L 100.978071 39.075944 
L 101.072371 39.112289 
L 101.242033 39.17768 
L 101.3728 39.228079 
L 101.563834 39.301707 
L 101.651597 39.335533 
L 101.815278 39.398618 
L 102.001012 39.470203 
L 102.053693 39.490507 
L 102.260298 39.570136 
L 102.438543 39.638835 
L 102.600344 39.701195 
L 102.635821 39.714869 
L 102.819792 39.785774 
L 102.994831 39.853237 
L 103.207035 39.935024 
L 103.247482 39.950613 
L 103.497561 40.046998 
L 103.643735 40.103336 
L 103.724713 40.134546 
" style="fill:none;stroke:#cbff00;stroke-linecap:square;stroke-width:2;"/>
   </g>
   <g id="line2d_8">
    <path clip-path="url(#pa6d56c0c15)" d="M 104.120163 40.286959 
L 104.378476 40.386517 
L 104.526008 40.443378 
L 104.688873 40.506149 
L 104.82137 40.557216 
L 104.868533 40.575393 
L 105.056388 40.647795 
L 105.261594 40.726885 
L 105.332767 40.754317 
L 105.568233 40.845069 
L 105.59638 40.855917 
L 105.865003 40.959449 
L 105.963247 40.997314 
L 106.094424 41.047872 
L 106.258928 41.111274 
L 106.40934 41.169246 
L 106.532624 41.216762 
L 106.657512 41.264895 
L 106.888049 41.353748 
L 107.062741 41.421077 
L 107.127818 41.446159 
L 107.353132 41.532999 
L 107.379387 41.543118 
L 107.552737 41.60993 
L 107.775775 41.695893 
L 107.912264 41.748498 
L 108.043847 41.799212 
L 108.13211 41.83323 
L 108.380829 41.92909 
L 108.453569 41.957126 
L 108.590359 42.009847 
L 108.751253 42.071858 
L 108.936445 42.143234 
L 109.127886 42.217019 
L 109.309843 42.287148 
L 109.390069 42.318068 
L 109.574794 42.389265 
L 109.683957 42.431338 
L 109.804611 42.47784 
L 109.993689 42.550714 
L 110.179134 42.622187 
L 110.271173 42.657661 
L 110.486716 42.740734 
L 110.56981 42.77276 
L 110.738246 42.837679 
L 110.866917 42.88727 
L 111.00217 42.939399 
L 111.156509 42.998884 
L 111.314012 43.059588 
L 111.496526 43.129932 
L 111.598442 43.169212 
L 111.745915 43.226051 
L 111.89654 43.284104 
L 112.096093 43.361015 
L 112.187567 43.396271 
L 112.409313 43.481735 
L 112.571032 43.544065 
L 112.668154 43.581497 
L 112.841205 43.648194 
L 112.936001 43.68473 
L 113.054018 43.730216 
L 113.29708 43.823896 
L 113.34003 43.840449 
L 113.557919 43.924428 
L 113.721368 43.987423 
L 113.803561 44.019102 
L 114.026348 44.104968 
L 114.124793 44.14291 
L 114.26022 44.195106 
L 114.497942 44.286728 
L 114.572456 44.315447 
L 114.799131 44.402811 
L 114.881843 44.43469 
L 114.985246 44.474543 
L 115.192332 44.554357 
L 115.302196 44.596701 
L 115.477202 44.664151 
L 115.66126 44.73509 
L 115.778743 44.78037 
L 115.921031 44.83521 
L 116.138369 44.918976 
L 116.207891 44.945771 
L 116.42713 45.030269 
L 116.586274 45.091606 
L 116.677316 45.126695 
L 116.873402 45.20227 
L 116.978516 45.242783 
L 117.147588 45.307945 
L 117.202963 45.329288 
L 117.379801 45.397444 
L 117.498602 45.443232 
L 117.757664 45.543079 
L 117.902023 45.598718 
L 118.035762 45.650263 
L 118.20048 45.713748 
L 118.340189 45.767594 
L 118.41296 45.795641 
L 118.606395 45.870194 
" style="fill:none;stroke:#cbff00;stroke-linecap:square;stroke-width:2;"/>
   </g>
   <g id="line2d_9">
    <path clip-path="url(#pa6d56c0c15)" d="M 162.998745 32.834346 
L 192.593644 44.240713 
L 192.593644 44.240713 
" style="fill:none;stroke:#cbff00;stroke-linecap:square;stroke-width:2;"/>
   </g>
   <g id="line2d_10">
    <path clip-path="url(#pa6d56c0c15)" d="M 207.391094 59.992364 
L 236.985993 71.398731 
L 236.985993 71.398731 
" style="fill:none;stroke:#cbff00;stroke-linecap:square;stroke-width:2;"/>
   </g>
   <g id="line2d_11">
    <path clip-path="url(#pa6d56c0c15)" d="M 281.378342 58.362883 
L 310.973242 69.76925 
L 310.973242 69.76925 
" style="fill:none;stroke:#cbff00;stroke-linecap:square;stroke-width:2;"/>
   </g>
   <g id="line2d_12">
    <path clip-path="url(#pa6d56c0c15)" d="M 340.568141 51.030218 
L 370.163041 62.436585 
L 370.163041 62.436585 
" style="fill:none;stroke:#cbff00;stroke-linecap:square;stroke-width:2;"/>
   </g>
   <g id="line2d_13">
    <path clip-path="url(#pa6d56c0c15)" d="M 399.75794 33.649086 
L 414.55539 39.35227 
L 414.55539 39.35227 
" style="fill:none;stroke:#cbff00;stroke-linecap:square;stroke-width:2;"/>
   </g>
   <g id="line2d_14">
    <path clip-path="url(#pa6d56c0c15)" d="M 429.35284 55.10392 
L 444.150289 60.807104 
L 444.150289 60.807104 
" style="fill:none;stroke:#cbff00;stroke-linecap:square;stroke-width:2;"/>
   </g>
   <g id="line2d_15">
    <path clip-path="url(#pa6d56c0c15)" d="M 503.340088 43.425973 
L 518.137538 49.129156 
L 518.137538 49.129156 
" style="fill:none;stroke:#cbff00;stroke-linecap:square;stroke-width:2;"/>
   </g>
   <g id="line2d_16">
    <path clip-path="url(#pa6d56c0c15)" d="M 532.934988 64.880807 
L 547.732437 70.583991 
L 547.732437 70.583991 
" style="fill:none;stroke:#cbff00;stroke-linecap:square;stroke-width:2;"/>
   </g>
   <g id="line2d_17">
    <path clip-path="url(#pa6d56c0c15)" d="M 15.024247 86.335641 
L 29.821697 41.796492 
L 29.821697 41.796492 
" style="fill:none;stroke:#00ff66;stroke-linecap:square;stroke-width:2;"/>
   </g>
   <g id="line2d_18">
    <path clip-path="url(#pa6d56c0c15)" d="M 370.163041 62.436585 
L 384.960491 17.897436 
L 384.960491 17.897436 
" style="fill:none;stroke:#00ff66;stroke-linecap:square;stroke-width:2;"/>
   </g>
   <g id="line2d_19">
    <path clip-path="url(#pa6d56c0c15)" d="M 118.606395 45.870194 
L 162.998745 32.834346 
L 162.998745 32.834346 
" style="fill:none;stroke:#0066ff;stroke-linecap:square;stroke-width:2;"/>
   </g>
   <g id="line2d_20">
    <path clip-path="url(#pa6d56c0c15)" d="M 236.985993 71.398731 
L 281.378342 58.362883 
L 281.378342 58.362883 
" style="fill:none;stroke:#0066ff;stroke-linecap:square;stroke-width:2;"/>
   </g>
   <g id="line2d_21">
    <path clip-path="url(#pa6d56c0c15)" d="M 444.150289 60.807104 
L 503.340088 43.425973 
L 503.340088 43.425973 
" style="fill:none;stroke:#0066ff;stroke-linecap:square;stroke-width:2;"/>
   </g>
   <g id="line2d_22">
    <path clip-path="url(#pa6d56c0c15)" d="M 59.416597 53.202859 
L 89.011496 34.463827 
L 89.011496 34.463827 
" style="fill:none;stroke:#cc00ff;stroke-linecap:square;stroke-width:2;"/>
   </g>
   <g id="line2d_23">
    <path clip-path="url(#pa6d56c0c15)" d="M 310.973242 69.76925 
L 340.568141 51.030218 
L 340.568141 51.030218 
" style="fill:none;stroke:#cc00ff;stroke-linecap:square;stroke-width:2;"/>
   </g>
   <g id="matplotlib.axis_1">
    <g id="xtick_1">
     <g id="line2d_24">
      <path clip-path="url(#pa6d56c0c15)" d="M 15.024247 87.704405 
L 15.024247 16.528672 
" style="fill:none;stroke:#000000;stroke-dasharray:0.5,0.825;stroke-dashoffset:0;stroke-width:0.5;"/>
     </g>
     <g id="line2d_25">
      <defs>
       <path d="M 0 0 
L 0 3.5 
" id="m96933ab139" style="stroke:#000000;stroke-width:0.8;"/>
      </defs>
      <g>
       <use style="stroke:#000000;stroke-width:0.8;" x="15.024247" xlink:href="#m96933ab139" y="86.335641"/>
      </g>
     </g>
    </g>
    <g id="xtick_2">
     <g id="line2d_26">
      <path clip-path="url(#pa6d56c0c15)" d="M 384.960491 87.704405 
L 384.960491 16.528672 
" style="fill:none;stroke:#000000;stroke-dasharray:0.5,0.825;stroke-dashoffset:0;stroke-width:0.5;"/>
     </g>
     <g id="line2d_27">
      <g>
       <use style="stroke:#000000;stroke-width:0.8;" x="384.960491" xlink:href="#m96933ab139" y="86.335641"/>
      </g>
     </g>
     <g id="text_1">
      <!-- $f$ -->
      <defs>
       <path d="M 9.71875 -16.5 
Q 11.578125 -17.921875 14.203125 -17.921875 
Q 17.78125 -17.921875 20.015625 -10.015625 
Q 20.953125 -6.203125 25.09375 15.09375 
L 29.6875 39.59375 
L 21.09375 39.59375 
Q 20.125 39.59375 20.125 40.921875 
Q 20.515625 43.109375 21.390625 43.109375 
L 30.328125 43.109375 
L 31.5 49.609375 
Q 32.078125 52.640625 32.5625 54.8125 
Q 33.0625 56.984375 33.625 58.828125 
Q 34.1875 60.6875 35.296875 62.984375 
Q 37.015625 66.265625 39.921875 68.390625 
Q 42.828125 70.515625 46.1875 70.515625 
Q 48.390625 70.515625 50.46875 69.703125 
Q 52.546875 68.890625 53.859375 67.28125 
Q 55.171875 65.671875 55.171875 63.484375 
Q 55.171875 60.9375 53.484375 59.046875 
Q 51.8125 57.171875 49.421875 57.171875 
Q 47.796875 57.171875 46.65625 58.171875 
Q 45.515625 59.1875 45.515625 60.796875 
Q 45.515625 62.984375 47 64.625 
Q 48.484375 66.265625 50.6875 66.5 
Q 48.828125 67.921875 46.09375 67.921875 
Q 44.578125 67.921875 43.234375 66.5 
Q 41.890625 65.09375 41.5 63.484375 
Q 40.875 60.9375 38.71875 49.703125 
L 37.5 43.109375 
L 47.796875 43.109375 
Q 48.78125 43.109375 48.78125 41.796875 
Q 48.734375 41.546875 48.578125 40.9375 
Q 48.4375 40.328125 48.171875 39.953125 
Q 47.90625 39.59375 47.515625 39.59375 
L 36.8125 39.59375 
L 32.171875 15.1875 
Q 31.296875 9.859375 30.140625 4.359375 
Q 29 -1.125 26.921875 -6.90625 
Q 24.859375 -12.703125 21.625 -16.609375 
Q 18.40625 -20.515625 14.015625 -20.515625 
Q 10.640625 -20.515625 7.984375 -18.578125 
Q 5.328125 -16.65625 5.328125 -13.484375 
Q 5.328125 -10.9375 6.953125 -9.046875 
Q 8.59375 -7.171875 11.078125 -7.171875 
Q 12.75 -7.171875 13.859375 -8.171875 
Q 14.984375 -9.1875 14.984375 -10.796875 
Q 14.984375 -12.9375 13.390625 -14.71875 
Q 11.8125 -16.5 9.71875 -16.5 
z
" id="Cmmi10-66"/>
      </defs>
      <g transform="translate(382.510491 100.913766)scale(0.1 -0.1)">
       <use transform="translate(0 0.484375)" xlink:href="#Cmmi10-66"/>
      </g>
     </g>
    </g>
    <g id="xtick_3">
     <g id="line2d_28">
      <path clip-path="url(#pa6d56c0c15)" d="M 562.529887 87.704405 
L 562.529887 16.528672 
" style="fill:none;stroke:#000000;stroke-dasharray:0.5,0.825;stroke-dashoffset:0;stroke-width:0.5;"/>
     </g>
     <g id="line2d_29">
      <g>
       <use style="stroke:#000000;stroke-width:0.8;" x="562.529887" xlink:href="#m96933ab139" y="86.335641"/>
      </g>
     </g>
     <g id="text_2">
      <!-- $1$ -->
      <defs>
       <path d="M 9.28125 0 
L 9.28125 3.515625 
Q 21.78125 3.515625 21.78125 6.6875 
L 21.78125 59.1875 
Q 16.609375 56.6875 8.6875 56.6875 
L 8.6875 60.203125 
Q 20.953125 60.203125 27.203125 66.609375 
L 28.609375 66.609375 
Q 28.953125 66.609375 29.265625 66.328125 
Q 29.59375 66.0625 29.59375 65.71875 
L 29.59375 6.6875 
Q 29.59375 3.515625 42.09375 3.515625 
L 42.09375 0 
z
" id="Cmr10-31"/>
      </defs>
      <g transform="translate(560.029887 100.934078)scale(0.1 -0.1)">
       <use transform="translate(0 0.390625)" xlink:href="#Cmr10-31"/>
      </g>
     </g>
    </g>
   </g>
   <g id="matplotlib.axis_2">
    <g id="ytick_1">
     <g id="line2d_30">
      <path clip-path="url(#pa6d56c0c15)" d="M 4.074135 86.335641 
L 573.48 86.335641 
" style="fill:none;stroke:#000000;stroke-dasharray:0.5,0.825;stroke-dashoffset:0;stroke-width:0.5;"/>
     </g>
     <g id="line2d_31">
      <defs>
       <path d="M 0 0 
L -3.5 0 
" id="m0bd41dc7ee" style="stroke:#000000;stroke-width:0.8;"/>
      </defs>
      <g>
       <use style="stroke:#000000;stroke-width:0.8;" x="15.024247" xlink:href="#m0bd41dc7ee" y="86.335641"/>
      </g>
     </g>
    </g>
    <g id="ytick_2">
     <g id="line2d_32">
      <path clip-path="url(#pa6d56c0c15)" d="M 4.074135 17.897436 
L 573.48 17.897436 
" style="fill:none;stroke:#000000;stroke-dasharray:0.5,0.825;stroke-dashoffset:0;stroke-width:0.5;"/>
     </g>
     <g id="line2d_33">
      <g>
       <use style="stroke:#000000;stroke-width:0.8;" x="15.024247" xlink:href="#m0bd41dc7ee" y="17.897436"/>
      </g>
     </g>
     <g id="text_3">
      <!-- $1$ -->
      <g transform="translate(3.024247 21.696655)scale(0.1 -0.1)">
       <use transform="translate(0 0.390625)" xlink:href="#Cmr10-31"/>
      </g>
     </g>
    </g>
   </g>
   <g id="patch_3">
    <path d="M 15.024247 87.704405 
L 15.024247 16.528672 
" style="fill:none;stroke:#000000;stroke-linecap:square;stroke-linejoin:miter;stroke-width:0.8;"/>
   </g>
   <g id="patch_4">
    <path d="M 4.074135 86.335641 
L 573.48 86.335641 
" style="fill:none;stroke:#000000;stroke-linecap:square;stroke-linejoin:miter;stroke-width:0.8;"/>
   </g>
  </g>
 </g>
 <defs>
  <clipPath id="pa6d56c0c15">
   <rect height="71.175733" width="569.405865" x="4.074135" y="16.528672"/>
  </clipPath>
 </defs>
</svg>
