<?xml version="1.0" encoding="utf-8" standalone="no"?>
<!DOCTYPE svg PUBLIC "-//W3C//DTD SVG 1.1//EN"
  "http://www.w3.org/Graphics/SVG/1.1/DTD/svg11.dtd">
<!-- Created with matplotlib (http://matplotlib.org/) -->
<svg height="108pt" version="1.1" viewBox="0 0 576 108" width="576pt" xmlns="http://www.w3.org/2000/svg" xmlns:xlink="http://www.w3.org/1999/xlink">
 <defs>
  <style type="text/css">
*{stroke-linecap:butt;stroke-linejoin:round;}
  </style>
 </defs>
 <g id="figure_1">
  <g id="patch_1">
   <path d="M 0 108 
L 576 108 
L 576 0 
L 0 0 
z
" style="fill:#ffffff;"/>
  </g>
  <g id="axes_1">
   <g id="patch_2">
    <path d="M 4.074135 87.704405 
L 573.48 87.704405 
L 573.48 16.528672 
L 4.074135 16.528672 
z
" style="fill:#ffffff;"/>
   </g>
   <g id="line2d_1">
    <path clip-path="url(#pa11b9897ad)" d="M 15.024247 86.335641 
L 35.302234 47.614025 
L 35.302234 47.614025 
" style="fill:none;stroke:#ff0000;stroke-linecap:square;stroke-width:2;"/>
   </g>
   <g id="line2d_2">
    <path clip-path="url(#pa11b9897ad)" d="M 136.692167 56.619052 
L 156.970154 17.897436 
L 156.970154 17.897436 
" style="fill:none;stroke:#ff0000;stroke-linecap:square;stroke-width:2;"/>
   </g>
   <g id="line2d_3">
    <path clip-path="url(#pa11b9897ad)" d="M 35.302234 47.614025 
L 55.580221 33.205982 
L 55.580221 33.205982 
" style="fill:none;stroke:#ffff00;stroke-linecap:square;stroke-width:2;"/>
   </g>
   <g id="line2d_4">
    <path clip-path="url(#pa11b9897ad)" d="M 116.414181 71.027095 
L 136.692167 56.619052 
L 136.692167 56.619052 
" style="fill:none;stroke:#ffff00;stroke-linecap:square;stroke-width:2;"/>
   </g>
   <g id="line2d_5">
    <path clip-path="url(#pa11b9897ad)" d="M 217.804114 55.718549 
L 238.082101 41.310506 
L 238.082101 41.310506 
" style="fill:none;stroke:#ffff00;stroke-linecap:square;stroke-width:2;"/>
   </g>
   <g id="line2d_6">
    <path clip-path="url(#pa11b9897ad)" d="M 481.417941 62.922571 
L 501.695927 48.514528 
L 501.695927 48.514528 
" style="fill:none;stroke:#ffff00;stroke-linecap:square;stroke-width:2;"/>
   </g>
   <g id="line2d_7">
    <path clip-path="url(#pa11b9897ad)" d="M 75.858207 35.006987 
L 96.136194 69.22609 
L 96.136194 69.22609 
" style="fill:none;stroke:#00ff00;stroke-linecap:square;stroke-width:2;"/>
   </g>
   <g id="line2d_8">
    <path clip-path="url(#pa11b9897ad)" d="M 156.970154 17.897436 
L 177.248141 52.116538 
L 177.248141 52.116538 
" style="fill:none;stroke:#00ff00;stroke-linecap:square;stroke-width:2;"/>
   </g>
   <g id="line2d_9">
    <path clip-path="url(#pa11b9897ad)" d="M 542.251901 52.116538 
L 562.529887 86.335641 
L 562.529887 86.335641 
" style="fill:none;stroke:#00ff00;stroke-linecap:square;stroke-width:2;"/>
   </g>
   <g id="line2d_10">
    <path clip-path="url(#pa11b9897ad)" d="M 258.360087 35.006987 
L 258.418739 35.059079 
L 258.547407 35.173356 
L 258.689797 35.299821 
L 258.76859 35.369802 
L 258.891454 35.478925 
L 258.977994 35.555786 
L 259.031771 35.603548 
L 259.216742 35.767831 
L 259.322866 35.862087 
L 259.403392 35.933606 
L 259.477342 35.999286 
L 259.556286 36.069401 
L 259.72782 36.22175 
L 259.801729 36.287393 
L 259.919479 36.391973 
L 259.991536 36.455971 
L 260.117604 36.56794 
L 260.199061 36.640286 
L 260.286548 36.717988 
L 260.404379 36.822641 
L 260.522736 36.927761 
L 260.599044 36.995534 
L 260.730453 37.112246 
L 260.802914 37.176603 
L 260.946235 37.303894 
L 261.045095 37.391698 
L 261.09226 37.433588 
L 261.219296 37.546416 
L 261.354157 37.666194 
L 261.430974 37.734419 
L 261.505765 37.800846 
L 261.662442 37.939999 
L 261.750151 38.017899 
L 261.820764 38.080615 
L 261.9628 38.206765 
L 262.002358 38.241898 
L 262.097079 38.326026 
L 262.257072 38.468125 
L 262.371249 38.569532 
L 262.44148 38.631909 
L 262.581538 38.756302 
L 262.632131 38.801236 
L 262.736094 38.893572 
L 262.835591 38.981941 
L 262.919978 39.05689 
L 263.030979 39.155476 
L 263.142142 39.254207 
L 263.280328 39.376938 
L 263.390997 39.47523 
L 263.426016 39.506332 
L 263.531054 39.599622 
L 263.614058 39.673343 
L 263.780247 39.820945 
L 263.823069 39.858977 
L 263.994792 40.011495 
L 264.063243 40.07229 
L 264.19322 40.18773 
L 264.278943 40.263866 
L 264.334741 40.313423 
L 264.492105 40.453187 
L 264.613682 40.561167 
L 264.638019 40.582781 
L 264.814268 40.739319 
L 264.890544 40.807064 
L 264.993987 40.898937 
L 265.038757 40.9387 
L 265.227719 41.106528 
L 265.319488 41.188034 
L 265.414481 41.272402 
L 265.527754 41.373007 
L 265.568366 41.409077 
L 265.692392 41.519231 
L 265.808392 41.622258 
L 265.875675 41.682015 
L 265.999357 41.791865 
L 266.120446 41.899411 
L 266.252136 42.016373 
L 266.312534 42.070015 
L 266.40689 42.153819 
L 266.518062 42.252556 
L 266.639044 42.360008 
L 266.702199 42.416099 
L 266.836266 42.535173 
L 266.960521 42.64553 
" style="fill:none;stroke:#00ffff;stroke-linecap:square;stroke-width:2;"/>
   </g>
   <g id="line2d_11">
    <path clip-path="url(#pa11b9897ad)" d="M 267.220657 42.876572 
L 267.312601 42.958233 
L 267.3909 43.027774 
L 267.57495 43.19124 
L 267.650428 43.258277 
L 267.739416 43.337312 
L 267.863301 43.447342 
L 267.949027 43.523479 
L 268.088586 43.647431 
L 268.140837 43.693837 
L 268.23515 43.777602 
L 268.324511 43.856969 
L 268.439101 43.958742 
L 268.585652 44.088903 
L 268.628596 44.127045 
L 268.724753 44.212447 
L 268.81797 44.295238 
L 269.005559 44.461847 
L 269.076395 44.524761 
L 269.147976 44.588336 
L 269.256106 44.684372 
L 269.389965 44.80326 
L 269.510943 44.910708 
L 269.587239 44.978471 
L 269.641949 45.027061 
L 269.766352 45.137551 
L 269.916853 45.27122 
L 269.967509 45.316211 
L 270.057088 45.395771 
L 270.204418 45.526623 
L 270.250729 45.567755 
L 270.338138 45.645387 
L 270.443612 45.739065 
L 270.596651 45.874988 
L 270.656997 45.928584 
L 270.743045 46.005009 
L 270.857087 46.106296 
L 270.98175 46.217016 
L 271.147485 46.364215 
L 271.176462 46.389952 
L 271.286204 46.48742 
L 271.440664 46.624605 
L 271.463593 46.644969 
L 271.590034 46.757269 
L 271.673812 46.831677 
L 271.781602 46.927411 
L 271.920002 47.050332 
L 271.966318 47.091468 
L 272.097585 47.208054 
L 272.24476 47.338769 
L 272.284278 47.373867 
L 272.373952 47.453512 
L 272.533158 47.594912 
L 272.611862 47.664814 
L 272.714392 47.755877 
L 272.87079 47.894782 
L 272.943496 47.959357 
L 273.029202 48.035477 
L 273.103538 48.101499 
L 273.227172 48.211306 
L 273.326531 48.299552 
L 273.403516 48.367927 
L 273.576104 48.521213 
L 273.669144 48.603847 
L 273.740191 48.666947 
L 273.802665 48.722435 
L 273.954273 48.857086 
L 274.081434 48.970026 
L 274.13495 49.017556 
L 274.269286 49.136868 
L 274.336568 49.196625 
L 274.486039 49.329378 
L 274.580421 49.413205 
L 274.695643 49.51554 
L 274.745778 49.560068 
L 274.882115 49.681156 
L 274.9481 49.739761 
L 275.054837 49.834561 
L 275.202653 49.965845 
L 275.319269 50.069418 
L 275.342162 50.089751 
L 275.492269 50.223069 
L 275.581913 50.302688 
L 275.654747 50.367376 
L 275.785554 50.483553 
L 275.857109 50.547105 
L 275.980635 50.656815 
L 276.138599 50.797112 
L 276.194674 50.846916 
L 276.250738 50.89671 
L 276.393741 51.023719 
L 276.471228 51.09254 
L 276.561019 51.172288 
L 276.739906 51.331169 
L 276.802672 51.386914 
L 276.933188 51.502834 
L 277.00696 51.568354 
L 277.096519 51.647897 
L 277.227607 51.764324 
L 277.272299 51.804018 
L 277.437191 51.950467 
L 277.533055 52.03561 
L 277.600535 52.095542 
L 277.725255 52.206314 
L 277.852338 52.319184 
L 277.90181 52.363122 
L 278.02637 52.473751 
L 278.177484 52.607964 
L 278.225714 52.6508 
L 278.369166 52.778208 
L 278.455611 52.854985 
L 278.49267 52.8879 
L 278.638074 53.017041 
" style="fill:none;stroke:#00ffff;stroke-linecap:square;stroke-width:2;"/>
   </g>
   <g id="line2d_12">
    <path clip-path="url(#pa11b9897ad)" d="M 339.472034 34.106485 
L 380.028007 70.126592 
L 380.028007 70.126592 
" style="fill:none;stroke:#00ffff;stroke-linecap:square;stroke-width:2;"/>
   </g>
   <g id="line2d_13">
    <path clip-path="url(#pa11b9897ad)" d="M 440.861967 51.216036 
L 461.139954 69.22609 
L 461.139954 69.22609 
" style="fill:none;stroke:#00ffff;stroke-linecap:square;stroke-width:2;"/>
   </g>
   <g id="line2d_14">
    <path clip-path="url(#pa11b9897ad)" d="M 238.082101 41.310506 
L 258.360087 35.006987 
L 258.360087 35.006987 
" style="fill:none;stroke:#0000ff;stroke-linecap:square;stroke-width:2;"/>
   </g>
   <g id="line2d_15">
    <path clip-path="url(#pa11b9897ad)" d="M 278.638074 53.017041 
L 339.472034 34.106485 
L 339.472034 34.106485 
" style="fill:none;stroke:#0000ff;stroke-linecap:square;stroke-width:2;"/>
   </g>
   <g id="line2d_16">
    <path clip-path="url(#pa11b9897ad)" d="M 380.028007 70.126592 
L 440.861967 51.216036 
L 440.861967 51.216036 
" style="fill:none;stroke:#0000ff;stroke-linecap:square;stroke-width:2;"/>
   </g>
   <g id="line2d_17">
    <path clip-path="url(#pa11b9897ad)" d="M 461.139954 69.22609 
L 481.417941 62.922571 
L 481.417941 62.922571 
" style="fill:none;stroke:#0000ff;stroke-linecap:square;stroke-width:2;"/>
   </g>
   <g id="line2d_18">
    <path clip-path="url(#pa11b9897ad)" d="M 55.580221 33.205982 
L 75.858207 35.006987 
L 75.858207 35.006987 
" style="fill:none;stroke:#ff00ff;stroke-linecap:square;stroke-width:2;"/>
   </g>
   <g id="line2d_19">
    <path clip-path="url(#pa11b9897ad)" d="M 96.136194 69.22609 
L 116.414181 71.027095 
L 116.414181 71.027095 
" style="fill:none;stroke:#ff00ff;stroke-linecap:square;stroke-width:2;"/>
   </g>
   <g id="line2d_20">
    <path clip-path="url(#pa11b9897ad)" d="M 177.248141 52.116538 
L 217.804114 55.718549 
L 217.804114 55.718549 
" style="fill:none;stroke:#ff00ff;stroke-linecap:square;stroke-width:2;"/>
   </g>
   <g id="line2d_21">
    <path clip-path="url(#pa11b9897ad)" d="M 501.695927 48.514528 
L 542.251901 52.116538 
L 542.251901 52.116538 
" style="fill:none;stroke:#ff00ff;stroke-linecap:square;stroke-width:2;"/>
   </g>
   <g id="matplotlib.axis_1">
    <g id="xtick_1">
     <g id="line2d_22">
      <path clip-path="url(#pa11b9897ad)" d="M 15.024247 87.704405 
L 15.024247 16.528672 
" style="fill:none;stroke:#000000;stroke-dasharray:0.5,0.825;stroke-dashoffset:0;stroke-width:0.5;"/>
     </g>
     <g id="line2d_23">
      <defs>
       <path d="M 0 0 
L 0 3.5 
" id="m4415146ece" style="stroke:#000000;stroke-width:0.8;"/>
      </defs>
      <g>
       <use style="stroke:#000000;stroke-width:0.8;" x="15.024247" xlink:href="#m4415146ece" y="86.335641"/>
      </g>
     </g>
    </g>
    <g id="xtick_2">
     <g id="line2d_24">
      <path clip-path="url(#pa11b9897ad)" d="M 156.970154 87.704405 
L 156.970154 16.528672 
" style="fill:none;stroke:#000000;stroke-dasharray:0.5,0.825;stroke-dashoffset:0;stroke-width:0.5;"/>
     </g>
     <g id="line2d_25">
      <g>
       <use style="stroke:#000000;stroke-width:0.8;" x="156.970154" xlink:href="#m4415146ece" y="86.335641"/>
      </g>
     </g>
     <g id="text_1">
      <!-- $f$ -->
      <defs>
       <path d="M 9.71875 -16.5 
Q 11.578125 -17.921875 14.203125 -17.921875 
Q 17.78125 -17.921875 20.015625 -10.015625 
Q 20.953125 -6.203125 25.09375 15.09375 
L 29.6875 39.59375 
L 21.09375 39.59375 
Q 20.125 39.59375 20.125 40.921875 
Q 20.515625 43.109375 21.390625 43.109375 
L 30.328125 43.109375 
L 31.5 49.609375 
Q 32.078125 52.640625 32.5625 54.8125 
Q 33.0625 56.984375 33.625 58.828125 
Q 34.1875 60.6875 35.296875 62.984375 
Q 37.015625 66.265625 39.921875 68.390625 
Q 42.828125 70.515625 46.1875 70.515625 
Q 48.390625 70.515625 50.46875 69.703125 
Q 52.546875 68.890625 53.859375 67.28125 
Q 55.171875 65.671875 55.171875 63.484375 
Q 55.171875 60.9375 53.484375 59.046875 
Q 51.8125 57.171875 49.421875 57.171875 
Q 47.796875 57.171875 46.65625 58.171875 
Q 45.515625 59.1875 45.515625 60.796875 
Q 45.515625 62.984375 47 64.625 
Q 48.484375 66.265625 50.6875 66.5 
Q 48.828125 67.921875 46.09375 67.921875 
Q 44.578125 67.921875 43.234375 66.5 
Q 41.890625 65.09375 41.5 63.484375 
Q 40.875 60.9375 38.71875 49.703125 
L 37.5 43.109375 
L 47.796875 43.109375 
Q 48.78125 43.109375 48.78125 41.796875 
Q 48.734375 41.546875 48.578125 40.9375 
Q 48.4375 40.328125 48.171875 39.953125 
Q 47.90625 39.59375 47.515625 39.59375 
L 36.8125 39.59375 
L 32.171875 15.1875 
Q 31.296875 9.859375 30.140625 4.359375 
Q 29 -1.125 26.921875 -6.90625 
Q 24.859375 -12.703125 21.625 -16.609375 
Q 18.40625 -20.515625 14.015625 -20.515625 
Q 10.640625 -20.515625 7.984375 -18.578125 
Q 5.328125 -16.65625 5.328125 -13.484375 
Q 5.328125 -10.9375 6.953125 -9.046875 
Q 8.59375 -7.171875 11.078125 -7.171875 
Q 12.75 -7.171875 13.859375 -8.171875 
Q 14.984375 -9.1875 14.984375 -10.796875 
Q 14.984375 -12.9375 13.390625 -14.71875 
Q 11.8125 -16.5 9.71875 -16.5 
z
" id="Cmmi10-66"/>
      </defs>
      <g transform="translate(154.520154 100.913766)scale(0.1 -0.1)">
       <use transform="translate(0 0.484375)" xlink:href="#Cmmi10-66"/>
      </g>
     </g>
    </g>
    <g id="xtick_3">
     <g id="line2d_26">
      <path clip-path="url(#pa11b9897ad)" d="M 562.529887 87.704405 
L 562.529887 16.528672 
" style="fill:none;stroke:#000000;stroke-dasharray:0.5,0.825;stroke-dashoffset:0;stroke-width:0.5;"/>
     </g>
     <g id="line2d_27">
      <g>
       <use style="stroke:#000000;stroke-width:0.8;" x="562.529887" xlink:href="#m4415146ece" y="86.335641"/>
      </g>
     </g>
     <g id="text_2">
      <!-- $1$ -->
      <defs>
       <path d="M 9.28125 0 
L 9.28125 3.515625 
Q 21.78125 3.515625 21.78125 6.6875 
L 21.78125 59.1875 
Q 16.609375 56.6875 8.6875 56.6875 
L 8.6875 60.203125 
Q 20.953125 60.203125 27.203125 66.609375 
L 28.609375 66.609375 
Q 28.953125 66.609375 29.265625 66.328125 
Q 29.59375 66.0625 29.59375 65.71875 
L 29.59375 6.6875 
Q 29.59375 3.515625 42.09375 3.515625 
L 42.09375 0 
z
" id="Cmr10-31"/>
      </defs>
      <g transform="translate(560.029887 100.934078)scale(0.1 -0.1)">
       <use transform="translate(0 0.390625)" xlink:href="#Cmr10-31"/>
      </g>
     </g>
    </g>
   </g>
   <g id="matplotlib.axis_2">
    <g id="ytick_1">
     <g id="line2d_28">
      <path clip-path="url(#pa11b9897ad)" d="M 4.074135 86.335641 
L 573.48 86.335641 
" style="fill:none;stroke:#000000;stroke-dasharray:0.5,0.825;stroke-dashoffset:0;stroke-width:0.5;"/>
     </g>
     <g id="line2d_29">
      <defs>
       <path d="M 0 0 
L -3.5 0 
" id="m1b69fb6d92" style="stroke:#000000;stroke-width:0.8;"/>
      </defs>
      <g>
       <use style="stroke:#000000;stroke-width:0.8;" x="15.024247" xlink:href="#m1b69fb6d92" y="86.335641"/>
      </g>
     </g>
    </g>
    <g id="ytick_2">
     <g id="line2d_30">
      <path clip-path="url(#pa11b9897ad)" d="M 4.074135 17.897436 
L 573.48 17.897436 
" style="fill:none;stroke:#000000;stroke-dasharray:0.5,0.825;stroke-dashoffset:0;stroke-width:0.5;"/>
     </g>
     <g id="line2d_31">
      <g>
       <use style="stroke:#000000;stroke-width:0.8;" x="15.024247" xlink:href="#m1b69fb6d92" y="17.897436"/>
      </g>
     </g>
     <g id="text_3">
      <!-- $1$ -->
      <g transform="translate(3.024247 21.696655)scale(0.1 -0.1)">
       <use transform="translate(0 0.390625)" xlink:href="#Cmr10-31"/>
      </g>
     </g>
    </g>
   </g>
   <g id="patch_3">
    <path d="M 15.024247 87.704405 
L 15.024247 16.528672 
" style="fill:none;stroke:#000000;stroke-linecap:square;stroke-linejoin:miter;stroke-width:0.8;"/>
   </g>
   <g id="patch_4">
    <path d="M 4.074135 86.335641 
L 573.48 86.335641 
" style="fill:none;stroke:#000000;stroke-linecap:square;stroke-linejoin:miter;stroke-width:0.8;"/>
   </g>
  </g>
 </g>
 <defs>
  <clipPath id="pa11b9897ad">
   <rect height="71.175733" width="569.405865" x="4.074135" y="16.528672"/>
  </clipPath>
 </defs>
</svg>
