<?xml version="1.0" encoding="utf-8" standalone="no"?>
<!DOCTYPE svg PUBLIC "-//W3C//DTD SVG 1.1//EN"
  "http://www.w3.org/Graphics/SVG/1.1/DTD/svg11.dtd">
<!-- Created with matplotlib (http://matplotlib.org/) -->
<svg height="108pt" version="1.1" viewBox="0 0 576 108" width="576pt" xmlns="http://www.w3.org/2000/svg" xmlns:xlink="http://www.w3.org/1999/xlink">
 <defs>
  <style type="text/css">
*{stroke-linecap:butt;stroke-linejoin:round;}
  </style>
 </defs>
 <g id="figure_1">
  <g id="patch_1">
   <path d="M 0 108 
L 576 108 
L 576 0 
L 0 0 
z
" style="fill:#ffffff;"/>
  </g>
  <g id="axes_1">
   <g id="patch_2">
    <path d="M 4.074135 87.704405 
L 573.48 87.704405 
L 573.48 16.528672 
L 4.074135 16.528672 
z
" style="fill:#ffffff;"/>
   </g>
   <g id="line2d_1">
    <path clip-path="url(#p060e92f7ce)" d="M 179.275939 60.671314 
L 206.651221 60.671314 
L 206.651221 60.671314 
" style="fill:none;stroke:#ff0000;stroke-linecap:square;"/>
   </g>
   <g id="line2d_2">
    <path clip-path="url(#p060e92f7ce)" d="M 261.401785 43.561763 
L 288.777067 43.561763 
L 288.777067 43.561763 
" style="fill:none;stroke:#ff0000;stroke-linecap:square;"/>
   </g>
   <g id="line2d_3">
    <path clip-path="url(#p060e92f7ce)" d="M 15.024247 86.335641 
L 88.024999 63.522906 
L 88.024999 63.522906 
" style="fill:none;stroke:#00ff00;stroke-linecap:square;"/>
   </g>
   <g id="line2d_4">
    <path clip-path="url(#p060e92f7ce)" d="M 97.150093 69.22609 
L 98.975112 68.655771 
L 98.975112 68.655771 
" style="fill:none;stroke:#00ff00;stroke-linecap:square;"/>
   </g>
   <g id="line2d_5">
    <path clip-path="url(#p060e92f7ce)" d="M 99.887622 69.22609 
L 102.468588 68.419538 
L 102.468588 68.419538 
" style="fill:none;stroke:#00ff00;stroke-linecap:square;"/>
   </g>
   <g id="line2d_6">
    <path clip-path="url(#p060e92f7ce)" d="M 103.759071 69.22609 
L 163.228744 50.641817 
L 163.228744 50.641817 
" style="fill:none;stroke:#00ff00;stroke-linecap:square;"/>
   </g>
   <g id="line2d_7">
    <path clip-path="url(#p060e92f7ce)" d="M 206.651221 60.671314 
L 261.401785 43.561763 
L 261.401785 43.561763 
" style="fill:none;stroke:#00ff00;stroke-linecap:square;"/>
   </g>
   <g id="line2d_8">
    <path clip-path="url(#p060e92f7ce)" d="M 304.824263 53.59126 
L 364.293936 35.006987 
L 364.293936 35.006987 
" style="fill:none;stroke:#00ff00;stroke-linecap:square;"/>
   </g>
   <g id="line2d_9">
    <path clip-path="url(#p060e92f7ce)" d="M 365.584419 35.813539 
L 368.165385 35.006987 
L 368.165385 35.006987 
" style="fill:none;stroke:#00ff00;stroke-linecap:square;"/>
   </g>
   <g id="line2d_10">
    <path clip-path="url(#p060e92f7ce)" d="M 369.077894 35.577306 
L 370.902913 35.006987 
L 370.902913 35.006987 
" style="fill:none;stroke:#00ff00;stroke-linecap:square;"/>
   </g>
   <g id="line2d_11">
    <path clip-path="url(#p060e92f7ce)" d="M 380.028007 40.710171 
L 453.028759 17.897436 
L 453.028759 17.897436 
" style="fill:none;stroke:#00ff00;stroke-linecap:square;"/>
   </g>
   <g id="line2d_12">
    <path clip-path="url(#p060e92f7ce)" d="M 88.024999 63.522906 
L 97.150093 69.22609 
L 97.150093 69.22609 
" style="fill:none;stroke:#0000ff;stroke-linecap:square;"/>
   </g>
   <g id="line2d_13">
    <path clip-path="url(#p060e92f7ce)" d="M 98.975112 68.655771 
L 99.887622 69.22609 
L 99.887622 69.22609 
" style="fill:none;stroke:#0000ff;stroke-linecap:square;"/>
   </g>
   <g id="line2d_14">
    <path clip-path="url(#p060e92f7ce)" d="M 102.468588 68.419538 
L 103.759071 69.22609 
L 103.759071 69.22609 
" style="fill:none;stroke:#0000ff;stroke-linecap:square;"/>
   </g>
   <g id="line2d_15">
    <path clip-path="url(#p060e92f7ce)" d="M 163.228744 50.641817 
L 179.275939 60.671314 
L 179.275939 60.671314 
" style="fill:none;stroke:#0000ff;stroke-linecap:square;"/>
   </g>
   <g id="line2d_16">
    <path clip-path="url(#p060e92f7ce)" d="M 288.777067 43.561763 
L 288.841533 43.602054 
L 288.91396 43.647321 
L 289.009149 43.706814 
L 289.130607 43.782725 
L 289.203702 43.828409 
L 289.279405 43.875724 
L 289.313551 43.897065 
L 289.446946 43.980437 
L 289.502617 44.015231 
L 289.60076 44.076571 
L 289.680744 44.126561 
L 289.769753 44.182191 
L 289.797561 44.199571 
L 289.912285 44.271274 
L 290.003543 44.32831 
L 290.107537 44.393307 
L 290.141599 44.414595 
L 290.21894 44.462934 
L 290.330629 44.532739 
L 290.402676 44.577768 
L 290.489944 44.632311 
L 290.516176 44.648706 
L 290.591739 44.695933 
L 290.725089 44.779276 
L 290.800313 44.826292 
L 290.858699 44.862783 
L 290.939598 44.913345 
L 291.001854 44.952254 
L 291.127838 45.030995 
L 291.214699 45.085283 
L 291.299058 45.138007 
L 291.380955 45.189192 
L 291.425779 45.217208 
L 291.518701 45.275284 
L 291.570911 45.307915 
L 291.720364 45.401323 
L 291.798014 45.449854 
L 291.845053 45.479254 
L 291.916702 45.524034 
L 292.027374 45.593204 
L 292.093066 45.634262 
L 292.172268 45.683763 
L 292.281061 45.751759 
L 292.338737 45.787806 
L 292.411841 45.833496 
L 292.493421 45.884484 
L 292.560583 45.92646 
L 292.683847 46.0035 
L 292.689187 46.006837 
L 292.849253 46.106879 
L 292.889828 46.132238 
L 292.993857 46.197256 
L 293.036284 46.223774 
L 293.16626 46.305009 
L 293.228747 46.344063 
L 293.282034 46.377367 
L 293.364551 46.42894 
L 293.470627 46.495238 
L 293.509718 46.519669 
L 293.60629 46.580027 
L 293.725565 46.654574 
L 293.8038 46.703471 
L 293.817308 46.711913 
L 293.940467 46.788888 
L 293.999273 46.825641 
L 294.120392 46.901341 
L 294.220082 46.963647 
L 294.253421 46.984484 
L 294.341765 47.039699 
L 294.417295 47.086905 
L 294.466786 47.117837 
L 294.607991 47.20609 
L 294.677639 47.24962 
L 294.763404 47.303223 
L 294.84178 47.352208 
L 294.922981 47.402959 
L 294.978521 47.437672 
L 295.038608 47.475226 
L 295.125946 47.529812 
L 295.218093 47.587404 
" style="fill:none;stroke:#0000ff;stroke-linecap:square;"/>
   </g>
   <g id="line2d_17">
    <path clip-path="url(#p060e92f7ce)" d="M 295.447616 47.730856 
L 295.562335 47.802555 
L 295.604441 47.828872 
L 295.677299 47.874407 
L 295.827536 47.968306 
L 295.852991 47.984215 
L 295.953537 48.047056 
L 296.040745 48.101561 
L 296.096118 48.13617 
L 296.181545 48.189561 
L 296.315542 48.273309 
L 296.367189 48.305589 
L 296.426601 48.342721 
L 296.532783 48.409085 
L 296.577451 48.437003 
L 296.652035 48.483617 
L 296.73792 48.537296 
L 296.858559 48.612695 
L 296.88422 48.628733 
L 297.027087 48.718025 
L 297.053643 48.734623 
L 297.203552 48.828316 
L 297.206426 48.830112 
L 297.33827 48.912514 
L 297.435489 48.973277 
L 297.496451 49.011378 
L 297.528182 49.031209 
L 297.687363 49.130698 
L 297.688871 49.13164 
L 297.792628 49.196488 
L 297.906194 49.267467 
L 297.976571 49.311452 
L 298.020519 49.33892 
L 298.114987 49.397963 
L 298.247205 49.480599 
L 298.304238 49.516244 
L 298.372246 49.558749 
L 298.445877 49.604769 
L 298.51242 49.646358 
L 298.609844 49.707248 
L 298.721801 49.777222 
L 298.757207 49.79935 
L 298.859296 49.863156 
L 298.921082 49.901772 
L 298.984207 49.941225 
L 299.098271 50.012515 
L 299.198795 50.075343 
L 299.268462 50.118884 
L 299.375955 50.186067 
L 299.453791 50.234715 
L 299.489162 50.256822 
L 299.588089 50.318651 
L 299.635178 50.348082 
L 299.770408 50.4326 
L 299.788118 50.44367 
L 299.88564 50.504621 
L 299.993082 50.571772 
L 300.072501 50.621409 
L 300.12272 50.652796 
L 300.238096 50.724906 
L 300.302265 50.765012 
L 300.361943 50.80231 
L 300.431759 50.845945 
L 300.538414 50.912605 
L 300.62138 50.964458 
L 300.711793 51.020966 
L 300.797144 51.074311 
L 300.901671 51.13964 
L 300.946745 51.167811 
L 301.036179 51.223708 
L 301.079705 51.250911 
L 301.203471 51.328265 
L 301.275373 51.373204 
L 301.339063 51.41301 
L 301.401514 51.452042 
L 301.502359 51.51507 
L 301.61246 51.583883 
L 301.698479 51.637645 
L 301.774389 51.685089 
L 301.831808 51.720976 
L 301.920562 51.776447 
L 301.985533 51.817054 
L 302.098728 51.887801 
L 302.126022 51.90486 
L 302.253117 51.984294 
L 302.33996 52.03857 
L 302.414632 52.085241 
L 302.466708 52.117789 
L 302.567258 52.180632 
L 302.627921 52.218546 
L 302.761764 52.302198 
L 302.77857 52.312702 
L 302.869177 52.369332 
L 302.990403 52.445097 
L 303.05167 52.483389 
L 303.161046 52.551749 
L 303.174456 52.560131 
L 303.320431 52.651365 
L 303.388269 52.693764 
L 303.417954 52.712317 
L 303.53714 52.786808 
L 303.615967 52.836075 
L 303.713881 52.897271 
L 303.748522 52.918922 
L 303.846403 52.980097 
L 303.954646 53.04775 
L 304.030935 53.09543 
L 304.099364 53.138198 
L 304.151016 53.17048 
L 304.249223 53.23186 
L 304.365224 53.304361 
L 304.451246 53.358124 
L 304.464396 53.366344 
L 304.560684 53.426523 
L 304.688643 53.506498 
L 304.707164 53.518073 
L 304.824263 53.59126 
" style="fill:none;stroke:#0000ff;stroke-linecap:square;"/>
   </g>
   <g id="line2d_18">
    <path clip-path="url(#p060e92f7ce)" d="M 364.293936 35.006987 
L 365.584419 35.813539 
L 365.584419 35.813539 
" style="fill:none;stroke:#0000ff;stroke-linecap:square;"/>
   </g>
   <g id="line2d_19">
    <path clip-path="url(#p060e92f7ce)" d="M 368.165385 35.006987 
L 369.077894 35.577306 
L 369.077894 35.577306 
" style="fill:none;stroke:#0000ff;stroke-linecap:square;"/>
   </g>
   <g id="line2d_20">
    <path clip-path="url(#p060e92f7ce)" d="M 370.902913 35.006987 
L 380.028007 40.710171 
L 380.028007 40.710171 
" style="fill:none;stroke:#0000ff;stroke-linecap:square;"/>
   </g>
   <g id="line2d_21">
    <path clip-path="url(#p060e92f7ce)" d="M 453.028759 17.897436 
L 562.529887 86.335641 
L 562.529887 86.335641 
" style="fill:none;stroke:#0000ff;stroke-linecap:square;"/>
   </g>
   <g id="matplotlib.axis_1">
    <g id="xtick_1">
     <g id="line2d_22">
      <path clip-path="url(#p060e92f7ce)" d="M 15.024247 87.704405 
L 15.024247 16.528672 
" style="fill:none;stroke:#000000;stroke-dasharray:0.5,0.825;stroke-dashoffset:0;stroke-width:0.5;"/>
     </g>
     <g id="line2d_23">
      <defs>
       <path d="M 0 0 
L 0 3.5 
" id="m763c9913e6" style="stroke:#000000;stroke-width:0.8;"/>
      </defs>
      <g>
       <use style="stroke:#000000;stroke-width:0.8;" x="15.024247" xlink:href="#m763c9913e6" y="86.335641"/>
      </g>
     </g>
    </g>
    <g id="xtick_2">
     <g id="line2d_24">
      <path clip-path="url(#p060e92f7ce)" d="M 453.028759 87.704405 
L 453.028759 16.528672 
" style="fill:none;stroke:#000000;stroke-dasharray:0.5,0.825;stroke-dashoffset:0;stroke-width:0.5;"/>
     </g>
     <g id="line2d_25">
      <g>
       <use style="stroke:#000000;stroke-width:0.8;" x="453.028759" xlink:href="#m763c9913e6" y="86.335641"/>
      </g>
     </g>
     <g id="text_1">
      <!-- $f$ -->
      <defs>
       <path d="M 9.71875 -16.5 
Q 11.578125 -17.921875 14.203125 -17.921875 
Q 17.78125 -17.921875 20.015625 -10.015625 
Q 20.953125 -6.203125 25.09375 15.09375 
L 29.6875 39.59375 
L 21.09375 39.59375 
Q 20.125 39.59375 20.125 40.921875 
Q 20.515625 43.109375 21.390625 43.109375 
L 30.328125 43.109375 
L 31.5 49.609375 
Q 32.078125 52.640625 32.5625 54.8125 
Q 33.0625 56.984375 33.625 58.828125 
Q 34.1875 60.6875 35.296875 62.984375 
Q 37.015625 66.265625 39.921875 68.390625 
Q 42.828125 70.515625 46.1875 70.515625 
Q 48.390625 70.515625 50.46875 69.703125 
Q 52.546875 68.890625 53.859375 67.28125 
Q 55.171875 65.671875 55.171875 63.484375 
Q 55.171875 60.9375 53.484375 59.046875 
Q 51.8125 57.171875 49.421875 57.171875 
Q 47.796875 57.171875 46.65625 58.171875 
Q 45.515625 59.1875 45.515625 60.796875 
Q 45.515625 62.984375 47 64.625 
Q 48.484375 66.265625 50.6875 66.5 
Q 48.828125 67.921875 46.09375 67.921875 
Q 44.578125 67.921875 43.234375 66.5 
Q 41.890625 65.09375 41.5 63.484375 
Q 40.875 60.9375 38.71875 49.703125 
L 37.5 43.109375 
L 47.796875 43.109375 
Q 48.78125 43.109375 48.78125 41.796875 
Q 48.734375 41.546875 48.578125 40.9375 
Q 48.4375 40.328125 48.171875 39.953125 
Q 47.90625 39.59375 47.515625 39.59375 
L 36.8125 39.59375 
L 32.171875 15.1875 
Q 31.296875 9.859375 30.140625 4.359375 
Q 29 -1.125 26.921875 -6.90625 
Q 24.859375 -12.703125 21.625 -16.609375 
Q 18.40625 -20.515625 14.015625 -20.515625 
Q 10.640625 -20.515625 7.984375 -18.578125 
Q 5.328125 -16.65625 5.328125 -13.484375 
Q 5.328125 -10.9375 6.953125 -9.046875 
Q 8.59375 -7.171875 11.078125 -7.171875 
Q 12.75 -7.171875 13.859375 -8.171875 
Q 14.984375 -9.1875 14.984375 -10.796875 
Q 14.984375 -12.9375 13.390625 -14.71875 
Q 11.8125 -16.5 9.71875 -16.5 
z
" id="Cmmi10-66"/>
      </defs>
      <g transform="translate(450.578759 100.913766)scale(0.1 -0.1)">
       <use transform="translate(0 0.484375)" xlink:href="#Cmmi10-66"/>
      </g>
     </g>
    </g>
    <g id="xtick_3">
     <g id="line2d_26">
      <path clip-path="url(#p060e92f7ce)" d="M 562.529887 87.704405 
L 562.529887 16.528672 
" style="fill:none;stroke:#000000;stroke-dasharray:0.5,0.825;stroke-dashoffset:0;stroke-width:0.5;"/>
     </g>
     <g id="line2d_27">
      <g>
       <use style="stroke:#000000;stroke-width:0.8;" x="562.529887" xlink:href="#m763c9913e6" y="86.335641"/>
      </g>
     </g>
     <g id="text_2">
      <!-- $1$ -->
      <defs>
       <path d="M 9.28125 0 
L 9.28125 3.515625 
Q 21.78125 3.515625 21.78125 6.6875 
L 21.78125 59.1875 
Q 16.609375 56.6875 8.6875 56.6875 
L 8.6875 60.203125 
Q 20.953125 60.203125 27.203125 66.609375 
L 28.609375 66.609375 
Q 28.953125 66.609375 29.265625 66.328125 
Q 29.59375 66.0625 29.59375 65.71875 
L 29.59375 6.6875 
Q 29.59375 3.515625 42.09375 3.515625 
L 42.09375 0 
z
" id="Cmr10-31"/>
      </defs>
      <g transform="translate(560.029887 100.934078)scale(0.1 -0.1)">
       <use transform="translate(0 0.390625)" xlink:href="#Cmr10-31"/>
      </g>
     </g>
    </g>
   </g>
   <g id="matplotlib.axis_2">
    <g id="ytick_1">
     <g id="line2d_28">
      <path clip-path="url(#p060e92f7ce)" d="M 4.074135 86.335641 
L 573.48 86.335641 
" style="fill:none;stroke:#000000;stroke-dasharray:0.5,0.825;stroke-dashoffset:0;stroke-width:0.5;"/>
     </g>
     <g id="line2d_29">
      <defs>
       <path d="M 0 0 
L -3.5 0 
" id="m242be019e2" style="stroke:#000000;stroke-width:0.8;"/>
      </defs>
      <g>
       <use style="stroke:#000000;stroke-width:0.8;" x="15.024247" xlink:href="#m242be019e2" y="86.335641"/>
      </g>
     </g>
    </g>
    <g id="ytick_2">
     <g id="line2d_30">
      <path clip-path="url(#p060e92f7ce)" d="M 4.074135 17.897436 
L 573.48 17.897436 
" style="fill:none;stroke:#000000;stroke-dasharray:0.5,0.825;stroke-dashoffset:0;stroke-width:0.5;"/>
     </g>
     <g id="line2d_31">
      <g>
       <use style="stroke:#000000;stroke-width:0.8;" x="15.024247" xlink:href="#m242be019e2" y="17.897436"/>
      </g>
     </g>
     <g id="text_3">
      <!-- $1$ -->
      <g transform="translate(3.024247 21.696655)scale(0.1 -0.1)">
       <use transform="translate(0 0.390625)" xlink:href="#Cmr10-31"/>
      </g>
     </g>
    </g>
   </g>
   <g id="patch_3">
    <path d="M 15.024247 87.704405 
L 15.024247 16.528672 
" style="fill:none;stroke:#000000;stroke-linecap:square;stroke-linejoin:miter;stroke-width:0.8;"/>
   </g>
   <g id="patch_4">
    <path d="M 4.074135 86.335641 
L 573.48 86.335641 
" style="fill:none;stroke:#000000;stroke-linecap:square;stroke-linejoin:miter;stroke-width:0.8;"/>
   </g>
  </g>
 </g>
 <defs>
  <clipPath id="p060e92f7ce">
   <rect height="71.175733" width="569.405865" x="4.074135" y="16.528672"/>
  </clipPath>
 </defs>
</svg>
