<?xml version="1.0" encoding="utf-8" standalone="no"?>
<!DOCTYPE svg PUBLIC "-//W3C//DTD SVG 1.1//EN"
  "http://www.w3.org/Graphics/SVG/1.1/DTD/svg11.dtd">
<!-- Created with matplotlib (http://matplotlib.org/) -->
<svg height="108pt" version="1.1" viewBox="0 0 576 108" width="576pt" xmlns="http://www.w3.org/2000/svg" xmlns:xlink="http://www.w3.org/1999/xlink">
 <defs>
  <style type="text/css">
*{stroke-linecap:butt;stroke-linejoin:round;}
  </style>
 </defs>
 <g id="figure_1">
  <g id="patch_1">
   <path d="M 0 108 
L 576 108 
L 576 0 
L 0 0 
z
" style="fill:#ffffff;"/>
  </g>
  <g id="axes_1">
   <g id="patch_2">
    <path d="M 4.074135 87.704405 
L 573.48 87.704405 
L 573.48 16.528672 
L 4.074135 16.528672 
z
" style="fill:#ffffff;"/>
   </g>
   <g id="line2d_1">
    <path clip-path="url(#pb49d79d1c9)" d="M 214.117207 17.897436 
L 239.003827 61.621845 
L 239.003827 61.621845 
" style="fill:none;stroke:#ff0000;stroke-linecap:square;stroke-width:2;"/>
   </g>
   <g id="line2d_2">
    <path clip-path="url(#pb49d79d1c9)" d="M 537.643267 42.611232 
L 562.529887 86.335641 
L 562.529887 86.335641 
" style="fill:none;stroke:#ff0000;stroke-linecap:square;stroke-width:2;"/>
   </g>
   <g id="line2d_3">
    <path clip-path="url(#pb49d79d1c9)" d="M 39.910867 46.413355 
L 64.797487 48.314416 
L 64.797487 48.314416 
" style="fill:none;stroke:#cbff00;stroke-linecap:square;stroke-width:2;"/>
   </g>
   <g id="line2d_4">
    <path clip-path="url(#pb49d79d1c9)" d="M 164.343967 55.918661 
L 189.230587 57.819722 
L 189.230587 57.819722 
" style="fill:none;stroke:#cbff00;stroke-linecap:square;stroke-width:2;"/>
   </g>
   <g id="line2d_5">
    <path clip-path="url(#pb49d79d1c9)" d="M 239.003827 61.621845 
L 239.341398 61.647631 
L 239.700509 61.675063 
L 240.299759 61.720839 
L 240.330577 61.723194 
L 241.009517 61.775057 
L 241.392776 61.804334 
L 241.596366 61.819886 
L 242.181452 61.86458 
L 242.3326 61.876126 
L 242.900804 61.91953 
L 243.056114 61.931394 
L 243.440788 61.960779 
L 244.020813 62.005087 
L 244.126358 62.013149 
L 244.690888 62.056273 
L 245.130673 62.089868 
L 245.475309 62.116194 
L 245.692451 62.132781 
L 246.185267 62.170427 
L 246.425932 62.188811 
L 246.836744 62.220192 
L 247.146471 62.243852 
L 247.619605 62.279994 
L 247.984192 62.307845 
L 248.414178 62.340691 
L 248.88209 62.376434 
L 249.248883 62.404453 
L 249.499893 62.423627 
L 249.815062 62.447703 
L 250.221255 62.478732 
L 250.653938 62.511784 
L 251.183143 62.552209 
L 251.315415 62.562313 
L 251.609019 62.584741 
L 252.049784 62.618411 
L 252.665299 62.665429 
L 252.948117 62.687034 
L 253.087796 62.697703 
L 253.672053 62.742334 
L 254.182417 62.78132 
L 254.275892 62.788461 
L 254.59736 62.813017 
L 255.072743 62.849331 
L 255.415329 62.875501 
L 255.723332 62.899029 
L 256.131017 62.930172 
L 256.584407 62.964806 
L 256.966426 62.993988 
L 257.426248 63.029113 
L 257.623119 63.044152 
L 257.994925 63.072554 
L 258.618398 63.12018 
L 259.049717 63.153128 
L 259.178831 63.162991 
L 259.527591 63.189632 
L 260.152608 63.237377 
L 260.42727 63.258358 
L 260.939395 63.297478 
L 260.952468 63.298477 
L 261.376472 63.330866 
L 261.90997 63.37162 
L 262.229592 63.396035 
L 262.615277 63.425497 
L 263.180599 63.468681 
L 263.497531 63.492892 
L 263.883535 63.522378 
L 264.191339 63.545891 
L 264.348841 63.557922 
L 264.857653 63.59679 
L 265.143639 63.618636 
L 265.491427 63.645203 
L 266.06671 63.689148 
L 266.453744 63.718713 
L 266.932179 63.75526 
L 266.980053 63.758917 
L 267.421235 63.792619 
L 267.890799 63.828488 
L 268.221345 63.853738 
L 268.531745 63.87745 
L 269.058365 63.917677 
L 269.368327 63.941355 
L 269.896893 63.981732 
L 270.100969 63.997321 
L 270.480379 64.026304 
L 270.952773 64.062389 
L 271.201354 64.081378 
L 271.766214 64.124527 
L 271.83377 64.129688 
L 272.33904 64.168285 
L 272.883281 64.209859 
L 273.088458 64.225532 
L 273.648255 64.268294 
L 273.851602 64.283827 
L 274.309387 64.318797 
L 274.593424 64.340494 
L 274.973084 64.369496 
L 275.37619 64.400289 
L 275.867593 64.437827 
L 276.118256 64.456975 
L 276.413952 64.479563 
L 276.90228 64.516865 
L 277.350026 64.551068 
L 277.569327 64.56782 
L 278.005421 64.601133 
L 278.486607 64.63789 
L 278.736149 64.656953 
L 279.110424 64.685543 
L 279.425726 64.709629 
L 279.891593 64.745216 
L 280.163685 64.766001 
L 280.762823 64.811768 
L 280.982974 64.828585 
L 281.283661 64.851554 
L 281.92858 64.900819 
L 282.260848 64.9262 
L 282.571896 64.949961 
L 282.8556 64.971633 
L 283.295087 65.005205 
L 283.499748 65.020839 
L 283.878859 65.049799 
L 284.397199 65.089394 
L 284.803207 65.120408 
L 285.12727 65.145163 
L 285.604862 65.181646 
L 285.950997 65.208087 
" style="fill:none;stroke:#cbff00;stroke-linecap:square;stroke-width:2;"/>
   </g>
   <g id="line2d_6">
    <path clip-path="url(#pb49d79d1c9)" d="M 287.051672 65.292166 
L 287.428714 65.320968 
L 287.932873 65.35948 
L 288.235969 65.382633 
L 288.365403 65.392521 
L 289.065627 65.44601 
L 289.222921 65.458025 
L 289.8215 65.50375 
L 290.202314 65.53284 
L 290.577594 65.561507 
L 290.922434 65.587849 
L 291.094404 65.600986 
L 291.50043 65.632002 
L 292.014216 65.671249 
L 292.270448 65.690823 
L 292.706545 65.724136 
L 292.972446 65.744447 
L 293.282243 65.768113 
L 293.632106 65.794838 
L 293.98241 65.821598 
L 294.703145 65.876654 
L 294.998196 65.899192 
L 295.114373 65.908067 
L 295.626931 65.947221 
L 295.869405 65.965743 
L 296.315053 65.999786 
L 296.641635 66.024733 
L 297.071283 66.057553 
L 297.563024 66.095117 
L 298.009266 66.129205 
L 298.31908 66.152871 
L 298.772242 66.187487 
L 298.868429 66.194835 
L 299.346165 66.231329 
L 299.948712 66.277357 
L 300.256043 66.300833 
L 300.457247 66.316203 
L 300.771661 66.340221 
L 301.144114 66.368672 
L 301.63092 66.405859 
L 302.014188 66.435136 
L 302.552745 66.476276 
L 302.915706 66.504002 
L 303.2158 66.526926 
L 303.651335 66.560196 
L 304.062678 66.591618 
L 304.37881 66.615767 
L 304.775288 66.646053 
L 305.218026 66.679874 
L 305.323447 66.687927 
L 305.625922 66.711032 
L 305.974078 66.737628 
L 306.383984 66.76894 
L 306.747156 66.796682 
L 307.406492 66.847048 
L 307.62986 66.864111 
L 307.940035 66.887805 
L 308.510488 66.931381 
L 308.948412 66.964834 
L 309.294226 66.99125 
L 309.629509 67.016862 
L 309.951851 67.041485 
L 310.132712 67.055301 
L 310.49351 67.082862 
L 310.877628 67.112204 
L 311.436857 67.154923 
L 311.805943 67.183117 
L 312.063276 67.202775 
L 312.491974 67.235523 
L 312.853028 67.263103 
L 313.238837 67.292575 
L 313.663687 67.325028 
" style="fill:none;stroke:#cbff00;stroke-linecap:square;stroke-width:2;"/>
   </g>
   <g id="line2d_7">
    <path clip-path="url(#pb49d79d1c9)" d="M 462.983407 36.908048 
L 537.643267 42.611232 
L 537.643267 42.611232 
" style="fill:none;stroke:#cbff00;stroke-linecap:square;stroke-width:2;"/>
   </g>
   <g id="line2d_8">
    <path clip-path="url(#pb49d79d1c9)" d="M 64.797487 48.314416 
L 89.684107 71.127151 
L 89.684107 71.127151 
" style="fill:none;stroke:#00ff66;stroke-linecap:square;stroke-width:2;"/>
   </g>
   <g id="line2d_9">
    <path clip-path="url(#pb49d79d1c9)" d="M 139.457347 33.105926 
L 164.343967 55.918661 
L 164.343967 55.918661 
" style="fill:none;stroke:#00ff66;stroke-linecap:square;stroke-width:2;"/>
   </g>
   <g id="line2d_10">
    <path clip-path="url(#pb49d79d1c9)" d="M 338.550307 48.314416 
L 363.436927 71.127151 
L 363.436927 71.127151 
" style="fill:none;stroke:#00ff66;stroke-linecap:square;stroke-width:2;"/>
   </g>
   <g id="line2d_11">
    <path clip-path="url(#pb49d79d1c9)" d="M 413.210167 33.105926 
L 438.096787 55.918661 
L 438.096787 55.918661 
" style="fill:none;stroke:#00ff66;stroke-linecap:square;stroke-width:2;"/>
   </g>
   <g id="line2d_12">
    <path clip-path="url(#pb49d79d1c9)" d="M 15.024247 86.335641 
L 39.910867 46.413355 
L 39.910867 46.413355 
" style="fill:none;stroke:#0066ff;stroke-linecap:square;stroke-width:2;"/>
   </g>
   <g id="line2d_13">
    <path clip-path="url(#pb49d79d1c9)" d="M 189.230587 57.819722 
L 214.117207 17.897436 
L 214.117207 17.897436 
" style="fill:none;stroke:#0066ff;stroke-linecap:square;stroke-width:2;"/>
   </g>
   <g id="line2d_14">
    <path clip-path="url(#pb49d79d1c9)" d="M 89.684107 71.127151 
L 139.457347 33.105926 
L 139.457347 33.105926 
" style="fill:none;stroke:#cc00ff;stroke-linecap:square;stroke-width:2;"/>
   </g>
   <g id="line2d_15">
    <path clip-path="url(#pb49d79d1c9)" d="M 313.663687 67.325028 
L 338.550307 48.314416 
L 338.550307 48.314416 
" style="fill:none;stroke:#cc00ff;stroke-linecap:square;stroke-width:2;"/>
   </g>
   <g id="line2d_16">
    <path clip-path="url(#pb49d79d1c9)" d="M 363.436927 71.127151 
L 413.210167 33.105926 
L 413.210167 33.105926 
" style="fill:none;stroke:#cc00ff;stroke-linecap:square;stroke-width:2;"/>
   </g>
   <g id="line2d_17">
    <path clip-path="url(#pb49d79d1c9)" d="M 438.096787 55.918661 
L 462.983407 36.908048 
L 462.983407 36.908048 
" style="fill:none;stroke:#cc00ff;stroke-linecap:square;stroke-width:2;"/>
   </g>
   <g id="matplotlib.axis_1">
    <g id="xtick_1">
     <g id="line2d_18">
      <path clip-path="url(#pb49d79d1c9)" d="M 15.024247 87.704405 
L 15.024247 16.528672 
" style="fill:none;stroke:#000000;stroke-dasharray:0.5,0.825;stroke-dashoffset:0;stroke-width:0.5;"/>
     </g>
     <g id="line2d_19">
      <defs>
       <path d="M 0 0 
L 0 3.5 
" id="m272457d85c" style="stroke:#000000;stroke-width:0.8;"/>
      </defs>
      <g>
       <use style="stroke:#000000;stroke-width:0.8;" x="15.024247" xlink:href="#m272457d85c" y="86.335641"/>
      </g>
     </g>
    </g>
    <g id="xtick_2">
     <g id="line2d_20">
      <path clip-path="url(#pb49d79d1c9)" d="M 214.117207 87.704405 
L 214.117207 16.528672 
" style="fill:none;stroke:#000000;stroke-dasharray:0.5,0.825;stroke-dashoffset:0;stroke-width:0.5;"/>
     </g>
     <g id="line2d_21">
      <g>
       <use style="stroke:#000000;stroke-width:0.8;" x="214.117207" xlink:href="#m272457d85c" y="86.335641"/>
      </g>
     </g>
     <g id="text_1">
      <!-- $f$ -->
      <defs>
       <path d="M 9.71875 -16.5 
Q 11.578125 -17.921875 14.203125 -17.921875 
Q 17.78125 -17.921875 20.015625 -10.015625 
Q 20.953125 -6.203125 25.09375 15.09375 
L 29.6875 39.59375 
L 21.09375 39.59375 
Q 20.125 39.59375 20.125 40.921875 
Q 20.515625 43.109375 21.390625 43.109375 
L 30.328125 43.109375 
L 31.5 49.609375 
Q 32.078125 52.640625 32.5625 54.8125 
Q 33.0625 56.984375 33.625 58.828125 
Q 34.1875 60.6875 35.296875 62.984375 
Q 37.015625 66.265625 39.921875 68.390625 
Q 42.828125 70.515625 46.1875 70.515625 
Q 48.390625 70.515625 50.46875 69.703125 
Q 52.546875 68.890625 53.859375 67.28125 
Q 55.171875 65.671875 55.171875 63.484375 
Q 55.171875 60.9375 53.484375 59.046875 
Q 51.8125 57.171875 49.421875 57.171875 
Q 47.796875 57.171875 46.65625 58.171875 
Q 45.515625 59.1875 45.515625 60.796875 
Q 45.515625 62.984375 47 64.625 
Q 48.484375 66.265625 50.6875 66.5 
Q 48.828125 67.921875 46.09375 67.921875 
Q 44.578125 67.921875 43.234375 66.5 
Q 41.890625 65.09375 41.5 63.484375 
Q 40.875 60.9375 38.71875 49.703125 
L 37.5 43.109375 
L 47.796875 43.109375 
Q 48.78125 43.109375 48.78125 41.796875 
Q 48.734375 41.546875 48.578125 40.9375 
Q 48.4375 40.328125 48.171875 39.953125 
Q 47.90625 39.59375 47.515625 39.59375 
L 36.8125 39.59375 
L 32.171875 15.1875 
Q 31.296875 9.859375 30.140625 4.359375 
Q 29 -1.125 26.921875 -6.90625 
Q 24.859375 -12.703125 21.625 -16.609375 
Q 18.40625 -20.515625 14.015625 -20.515625 
Q 10.640625 -20.515625 7.984375 -18.578125 
Q 5.328125 -16.65625 5.328125 -13.484375 
Q 5.328125 -10.9375 6.953125 -9.046875 
Q 8.59375 -7.171875 11.078125 -7.171875 
Q 12.75 -7.171875 13.859375 -8.171875 
Q 14.984375 -9.1875 14.984375 -10.796875 
Q 14.984375 -12.9375 13.390625 -14.71875 
Q 11.8125 -16.5 9.71875 -16.5 
z
" id="Cmmi10-66"/>
      </defs>
      <g transform="translate(211.667207 100.913766)scale(0.1 -0.1)">
       <use transform="translate(0 0.484375)" xlink:href="#Cmmi10-66"/>
      </g>
     </g>
    </g>
    <g id="xtick_3">
     <g id="line2d_22">
      <path clip-path="url(#pb49d79d1c9)" d="M 562.529887 87.704405 
L 562.529887 16.528672 
" style="fill:none;stroke:#000000;stroke-dasharray:0.5,0.825;stroke-dashoffset:0;stroke-width:0.5;"/>
     </g>
     <g id="line2d_23">
      <g>
       <use style="stroke:#000000;stroke-width:0.8;" x="562.529887" xlink:href="#m272457d85c" y="86.335641"/>
      </g>
     </g>
     <g id="text_2">
      <!-- $1$ -->
      <defs>
       <path d="M 9.28125 0 
L 9.28125 3.515625 
Q 21.78125 3.515625 21.78125 6.6875 
L 21.78125 59.1875 
Q 16.609375 56.6875 8.6875 56.6875 
L 8.6875 60.203125 
Q 20.953125 60.203125 27.203125 66.609375 
L 28.609375 66.609375 
Q 28.953125 66.609375 29.265625 66.328125 
Q 29.59375 66.0625 29.59375 65.71875 
L 29.59375 6.6875 
Q 29.59375 3.515625 42.09375 3.515625 
L 42.09375 0 
z
" id="Cmr10-31"/>
      </defs>
      <g transform="translate(560.029887 100.934078)scale(0.1 -0.1)">
       <use transform="translate(0 0.390625)" xlink:href="#Cmr10-31"/>
      </g>
     </g>
    </g>
   </g>
   <g id="matplotlib.axis_2">
    <g id="ytick_1">
     <g id="line2d_24">
      <path clip-path="url(#pb49d79d1c9)" d="M 4.074135 86.335641 
L 573.48 86.335641 
" style="fill:none;stroke:#000000;stroke-dasharray:0.5,0.825;stroke-dashoffset:0;stroke-width:0.5;"/>
     </g>
     <g id="line2d_25">
      <defs>
       <path d="M 0 0 
L -3.5 0 
" id="m236ce215df" style="stroke:#000000;stroke-width:0.8;"/>
      </defs>
      <g>
       <use style="stroke:#000000;stroke-width:0.8;" x="15.024247" xlink:href="#m236ce215df" y="86.335641"/>
      </g>
     </g>
    </g>
    <g id="ytick_2">
     <g id="line2d_26">
      <path clip-path="url(#pb49d79d1c9)" d="M 4.074135 17.897436 
L 573.48 17.897436 
" style="fill:none;stroke:#000000;stroke-dasharray:0.5,0.825;stroke-dashoffset:0;stroke-width:0.5;"/>
     </g>
     <g id="line2d_27">
      <g>
       <use style="stroke:#000000;stroke-width:0.8;" x="15.024247" xlink:href="#m236ce215df" y="17.897436"/>
      </g>
     </g>
     <g id="text_3">
      <!-- $1$ -->
      <g transform="translate(3.024247 21.696655)scale(0.1 -0.1)">
       <use transform="translate(0 0.390625)" xlink:href="#Cmr10-31"/>
      </g>
     </g>
    </g>
   </g>
   <g id="patch_3">
    <path d="M 15.024247 87.704405 
L 15.024247 16.528672 
" style="fill:none;stroke:#000000;stroke-linecap:square;stroke-linejoin:miter;stroke-width:0.8;"/>
   </g>
   <g id="patch_4">
    <path d="M 4.074135 86.335641 
L 573.48 86.335641 
" style="fill:none;stroke:#000000;stroke-linecap:square;stroke-linejoin:miter;stroke-width:0.8;"/>
   </g>
  </g>
 </g>
 <defs>
  <clipPath id="pb49d79d1c9">
   <rect height="71.175733" width="569.405865" x="4.074135" y="16.528672"/>
  </clipPath>
 </defs>
</svg>
