<?xml version="1.0" encoding="utf-8" standalone="no"?>
<!DOCTYPE svg PUBLIC "-//W3C//DTD SVG 1.1//EN"
  "http://www.w3.org/Graphics/SVG/1.1/DTD/svg11.dtd">
<!-- Created with matplotlib (http://matplotlib.org/) -->
<svg height="108pt" version="1.1" viewBox="0 0 576 108" width="576pt" xmlns="http://www.w3.org/2000/svg" xmlns:xlink="http://www.w3.org/1999/xlink">
 <defs>
  <style type="text/css">
*{stroke-linecap:butt;stroke-linejoin:round;}
  </style>
 </defs>
 <g id="figure_1">
  <g id="patch_1">
   <path d="M 0 108 
L 576 108 
L 576 0 
L 0 0 
z
" style="fill:#ffffff;"/>
  </g>
  <g id="axes_1">
   <g id="patch_2">
    <path d="M 4.074135 87.704405 
L 573.48 87.704405 
L 573.48 16.528672 
L 4.074135 16.528672 
z
" style="fill:#ffffff;"/>
   </g>
   <g id="line2d_1">
    <path clip-path="url(#p693143f46f)" d="M 89.684107 72.077682 
L 114.570727 46.413355 
L 114.570727 46.413355 
" style="fill:none;stroke:#ff0000;stroke-linecap:square;stroke-width:2;"/>
   </g>
   <g id="line2d_2">
    <path clip-path="url(#p693143f46f)" d="M 164.343967 57.819722 
L 189.230587 32.155395 
L 189.230587 32.155395 
" style="fill:none;stroke:#ff0000;stroke-linecap:square;stroke-width:2;"/>
   </g>
   <g id="line2d_3">
    <path clip-path="url(#p693143f46f)" d="M 313.663687 44.987559 
L 338.550307 35.006987 
L 338.550307 35.006987 
" style="fill:none;stroke:#cbff00;stroke-linecap:square;stroke-width:2;"/>
   </g>
   <g id="line2d_4">
    <path clip-path="url(#p693143f46f)" d="M 388.323547 62.09711 
L 438.096787 42.135967 
L 438.096787 42.135967 
" style="fill:none;stroke:#cbff00;stroke-linecap:square;stroke-width:2;"/>
   </g>
   <g id="line2d_5">
    <path clip-path="url(#p693143f46f)" d="M 487.870027 69.22609 
L 512.756647 59.245518 
L 512.756647 59.245518 
" style="fill:none;stroke:#cbff00;stroke-linecap:square;stroke-width:2;"/>
   </g>
   <g id="line2d_6">
    <path clip-path="url(#p693143f46f)" d="M 15.024247 86.335641 
L 39.910867 44.987559 
L 39.910867 44.987559 
" style="fill:none;stroke:#00ff66;stroke-linecap:square;stroke-width:2;"/>
   </g>
   <g id="line2d_7">
    <path clip-path="url(#p693143f46f)" d="M 239.003827 59.245518 
L 239.135058 59.027484 
L 239.255435 58.827483 
L 239.402833 58.582587 
L 239.472568 58.466725 
L 239.578614 58.290533 
L 239.790472 57.938541 
L 239.890464 57.772408 
L 240.031761 57.537649 
L 240.082291 57.453696 
L 240.205427 57.24911 
L 240.40782 56.912843 
L 240.513165 56.737816 
L 240.672467 56.473142 
L 240.815664 56.235227 
L 240.873604 56.138962 
L 240.990977 55.943952 
L 241.069428 55.813609 
L 241.231023 55.545126 
L 241.396298 55.270528 
L 241.460928 55.163148 
L 241.573796 54.975622 
L 241.786931 54.621507 
L 241.930132 54.383585 
L 241.960079 54.333829 
L 242.145212 54.026238 
L 242.314472 53.745019 
L 242.407127 53.591077 
L 242.526413 53.39289 
L 242.568319 53.323263 
L 242.75553 53.012221 
L 242.873058 52.816953 
L 243.065804 52.496713 
L 243.162665 52.335783 
L 243.292768 52.119622 
L 243.322065 52.070946 
L 243.478526 51.810994 
L 243.626538 51.565077 
L 243.801752 51.273967 
L 243.87663 51.149559 
L 243.967833 50.998029 
L 244.108469 50.764369 
L 244.195851 50.619188 
L 244.376286 50.319402 
L 244.554505 50.023298 
L 244.583026 49.975912 
L 244.702161 49.777975 
L 244.903494 49.443468 
L 245.010318 49.265984 
L 245.107074 49.105228 
L 245.316647 48.757032 
L 245.380872 48.650325 
L 245.470081 48.502108 
L 245.623576 48.247081 
L 245.817984 47.92408 
L 245.935875 47.72821 
L 246.015037 47.596685 
L 246.185916 47.312776 
L 246.244715 47.215085 
L 246.404002 46.950436 
L 246.503165 46.785681 
L 246.689737 46.4757 
L 246.805236 46.283803 
L 246.858398 46.195477 
L 247.024127 45.920125 
L 247.076337 45.833379 
L 247.222628 45.590323 
L 247.359964 45.362146 
L 247.563952 45.023228 
L 247.662474 44.859538 
L 247.80678 44.619779 
L 247.92089 44.43019 
L 248.011034 44.280419 
L 248.115675 44.106564 
L 248.278275 43.836409 
L 248.396249 43.640402 
L 248.466595 43.523524 
L 248.678193 43.171963 
L 248.705075 43.1273 
L 248.879125 42.838123 
" style="fill:none;stroke:#00ff66;stroke-linecap:square;stroke-width:2;"/>
   </g>
   <g id="line2d_8">
    <path clip-path="url(#p693143f46f)" d="M 249.293532 42.149603 
L 249.442137 41.902702 
L 249.546094 41.729982 
L 249.579434 41.674588 
L 249.736915 41.41294 
L 249.851242 41.222991 
L 249.995002 40.984139 
L 250.164043 40.703285 
L 250.238821 40.579044 
L 250.398444 40.313837 
L 250.494326 40.154534 
L 250.654955 39.887654 
L 250.774852 39.688451 
L 250.836044 39.586783 
L 250.989361 39.332053 
L 251.194186 38.991746 
L 251.210318 38.964943 
L 251.39137 38.664132 
L 251.465994 38.540148 
L 251.655043 38.22605 
L 251.802797 37.980563 
L 251.842338 37.914868 
L 251.953673 37.729889 
L 252.147431 37.407968 
L 252.304679 37.146708 
L 252.404393 36.981036 
L 252.468347 36.874779 
L 252.656693 36.561851 
L 252.764611 36.382549 
L 252.896966 36.162648 
L 253.027918 35.945075 
L 253.193815 35.669446 
L 253.227739 35.613081 
L 253.338469 35.429109 
L 253.562134 35.057499 
L 253.596702 35.000064 
L 253.715218 34.803156 
L 253.929928 34.446423 
L 253.99853 34.332444 
L 254.10291 34.159022 
L 254.278442 33.867382 
L 254.405601 33.656112 
L 254.493449 33.510158 
L 254.592515 33.345564 
L 254.739717 33.100993 
L 254.866994 32.889528 
L 255.004898 32.660406 
L 255.091786 32.516045 
L 255.205809 32.326601 
L 255.385646 32.02781 
L 255.572404 31.717519 
L 255.629985 31.621849 
L 255.745761 31.429493 
L 255.948027 31.093437 
L 256.001194 31.005102 
L 256.117984 30.811059 
L 256.226565 30.630656 
L 256.372951 30.387442 
L 256.458855 30.244717 
L 256.647839 29.930728 
L 256.736599 29.783257 
L 256.845809 29.601809 
L 256.97382 29.389124 
L 257.094803 29.188116 
L 257.289773 28.864181 
L 257.385895 28.704478 
L 257.549251 28.43307 
L 257.58392 28.375468 
L 257.753436 28.093824 
L 257.91676 27.822468 
L 258.037421 27.621995 
L 258.080501 27.55042 
L 258.250466 27.26803 
L 258.40965 27.003553 
L 258.552302 26.766542 
L 258.675637 26.561627 
L 258.717672 26.491787 
L 258.87196 26.235443 
L 258.977804 26.059588 
L 259.126008 25.813353 
L 259.272104 25.570621 
L 259.359634 25.425193 
L 259.491171 25.20665 
L 259.65515 24.934206 
L 259.776563 24.732483 
L 259.946352 24.450386 
L 259.996252 24.36748 
L 260.179736 24.062628 
L 260.234939 23.97091 
L 260.386673 23.718811 
L 260.51874 23.499387 
L 260.618019 23.334439 
L 260.796738 23.037506 
L 260.841733 22.962748 
L 261.017555 22.670626 
L 261.199699 22.368003 
L 261.290389 22.217324 
L 261.377168 22.073145 
L 261.473912 21.912409 
L 261.655666 21.610433 
L 261.804552 21.363064 
L 261.876935 21.242803 
L 261.967426 21.092455 
L 262.176606 20.744912 
L 262.211248 20.687355 
L 262.413627 20.351112 
L 262.495585 20.214942 
L 262.692697 19.887448 
L 262.709577 19.859403 
L 262.952092 19.456475 
L 263.013048 19.355199 
L 263.166862 19.099643 
L 263.281982 18.908376 
L 263.403905 18.705806 
L 263.471945 18.592761 
L 263.702711 18.209353 
L 263.7222 18.176972 
L 263.890447 17.897436 
" style="fill:none;stroke:#00ff66;stroke-linecap:square;stroke-width:2;"/>
   </g>
   <g id="line2d_9">
    <path clip-path="url(#p693143f46f)" d="M 39.910867 44.987559 
L 64.797487 66.374498 
L 64.797487 66.374498 
" style="fill:none;stroke:#0066ff;stroke-linecap:square;stroke-width:2;"/>
   </g>
   <g id="line2d_10">
    <path clip-path="url(#p693143f46f)" d="M 214.117207 37.858579 
L 239.003827 59.245518 
L 239.003827 59.245518 
" style="fill:none;stroke:#0066ff;stroke-linecap:square;stroke-width:2;"/>
   </g>
   <g id="line2d_11">
    <path clip-path="url(#p693143f46f)" d="M 263.890447 17.897436 
L 288.777067 39.284375 
L 288.777067 39.284375 
" style="fill:none;stroke:#0066ff;stroke-linecap:square;stroke-width:2;"/>
   </g>
   <g id="line2d_12">
    <path clip-path="url(#p693143f46f)" d="M 363.436927 40.710171 
L 388.323547 62.09711 
L 388.323547 62.09711 
" style="fill:none;stroke:#0066ff;stroke-linecap:square;stroke-width:2;"/>
   </g>
   <g id="line2d_13">
    <path clip-path="url(#p693143f46f)" d="M 438.096787 42.135967 
L 462.983407 63.522906 
L 462.983407 63.522906 
" style="fill:none;stroke:#0066ff;stroke-linecap:square;stroke-width:2;"/>
   </g>
   <g id="line2d_14">
    <path clip-path="url(#p693143f46f)" d="M 537.643267 64.948702 
L 562.529887 86.335641 
L 562.529887 86.335641 
" style="fill:none;stroke:#0066ff;stroke-linecap:square;stroke-width:2;"/>
   </g>
   <g id="line2d_15">
    <path clip-path="url(#p693143f46f)" d="M 64.797487 66.374498 
L 89.684107 72.077682 
L 89.684107 72.077682 
" style="fill:none;stroke:#cc00ff;stroke-linecap:square;stroke-width:2;"/>
   </g>
   <g id="line2d_16">
    <path clip-path="url(#p693143f46f)" d="M 114.570727 46.413355 
L 164.343967 57.819722 
L 164.343967 57.819722 
" style="fill:none;stroke:#cc00ff;stroke-linecap:square;stroke-width:2;"/>
   </g>
   <g id="line2d_17">
    <path clip-path="url(#p693143f46f)" d="M 189.230587 32.155395 
L 214.117207 37.858579 
L 214.117207 37.858579 
" style="fill:none;stroke:#cc00ff;stroke-linecap:square;stroke-width:2;"/>
   </g>
   <g id="line2d_18">
    <path clip-path="url(#p693143f46f)" d="M 288.777067 39.284375 
L 313.663687 44.987559 
L 313.663687 44.987559 
" style="fill:none;stroke:#cc00ff;stroke-linecap:square;stroke-width:2;"/>
   </g>
   <g id="line2d_19">
    <path clip-path="url(#p693143f46f)" d="M 338.550307 35.006987 
L 363.436927 40.710171 
L 363.436927 40.710171 
" style="fill:none;stroke:#cc00ff;stroke-linecap:square;stroke-width:2;"/>
   </g>
   <g id="line2d_20">
    <path clip-path="url(#p693143f46f)" d="M 462.983407 63.522906 
L 487.870027 69.22609 
L 487.870027 69.22609 
" style="fill:none;stroke:#cc00ff;stroke-linecap:square;stroke-width:2;"/>
   </g>
   <g id="line2d_21">
    <path clip-path="url(#p693143f46f)" d="M 512.756647 59.245518 
L 537.643267 64.948702 
L 537.643267 64.948702 
" style="fill:none;stroke:#cc00ff;stroke-linecap:square;stroke-width:2;"/>
   </g>
   <g id="matplotlib.axis_1">
    <g id="xtick_1">
     <g id="line2d_22">
      <path clip-path="url(#p693143f46f)" d="M 15.024247 87.704405 
L 15.024247 16.528672 
" style="fill:none;stroke:#000000;stroke-dasharray:0.5,0.825;stroke-dashoffset:0;stroke-width:0.5;"/>
     </g>
     <g id="line2d_23">
      <defs>
       <path d="M 0 0 
L 0 3.5 
" id="m026e412bdd" style="stroke:#000000;stroke-width:0.8;"/>
      </defs>
      <g>
       <use style="stroke:#000000;stroke-width:0.8;" x="15.024247" xlink:href="#m026e412bdd" y="86.335641"/>
      </g>
     </g>
    </g>
    <g id="xtick_2">
     <g id="line2d_24">
      <path clip-path="url(#p693143f46f)" d="M 263.890447 87.704405 
L 263.890447 16.528672 
" style="fill:none;stroke:#000000;stroke-dasharray:0.5,0.825;stroke-dashoffset:0;stroke-width:0.5;"/>
     </g>
     <g id="line2d_25">
      <g>
       <use style="stroke:#000000;stroke-width:0.8;" x="263.890447" xlink:href="#m026e412bdd" y="86.335641"/>
      </g>
     </g>
     <g id="text_1">
      <!-- $f$ -->
      <defs>
       <path d="M 9.71875 -16.5 
Q 11.578125 -17.921875 14.203125 -17.921875 
Q 17.78125 -17.921875 20.015625 -10.015625 
Q 20.953125 -6.203125 25.09375 15.09375 
L 29.6875 39.59375 
L 21.09375 39.59375 
Q 20.125 39.59375 20.125 40.921875 
Q 20.515625 43.109375 21.390625 43.109375 
L 30.328125 43.109375 
L 31.5 49.609375 
Q 32.078125 52.640625 32.5625 54.8125 
Q 33.0625 56.984375 33.625 58.828125 
Q 34.1875 60.6875 35.296875 62.984375 
Q 37.015625 66.265625 39.921875 68.390625 
Q 42.828125 70.515625 46.1875 70.515625 
Q 48.390625 70.515625 50.46875 69.703125 
Q 52.546875 68.890625 53.859375 67.28125 
Q 55.171875 65.671875 55.171875 63.484375 
Q 55.171875 60.9375 53.484375 59.046875 
Q 51.8125 57.171875 49.421875 57.171875 
Q 47.796875 57.171875 46.65625 58.171875 
Q 45.515625 59.1875 45.515625 60.796875 
Q 45.515625 62.984375 47 64.625 
Q 48.484375 66.265625 50.6875 66.5 
Q 48.828125 67.921875 46.09375 67.921875 
Q 44.578125 67.921875 43.234375 66.5 
Q 41.890625 65.09375 41.5 63.484375 
Q 40.875 60.9375 38.71875 49.703125 
L 37.5 43.109375 
L 47.796875 43.109375 
Q 48.78125 43.109375 48.78125 41.796875 
Q 48.734375 41.546875 48.578125 40.9375 
Q 48.4375 40.328125 48.171875 39.953125 
Q 47.90625 39.59375 47.515625 39.59375 
L 36.8125 39.59375 
L 32.171875 15.1875 
Q 31.296875 9.859375 30.140625 4.359375 
Q 29 -1.125 26.921875 -6.90625 
Q 24.859375 -12.703125 21.625 -16.609375 
Q 18.40625 -20.515625 14.015625 -20.515625 
Q 10.640625 -20.515625 7.984375 -18.578125 
Q 5.328125 -16.65625 5.328125 -13.484375 
Q 5.328125 -10.9375 6.953125 -9.046875 
Q 8.59375 -7.171875 11.078125 -7.171875 
Q 12.75 -7.171875 13.859375 -8.171875 
Q 14.984375 -9.1875 14.984375 -10.796875 
Q 14.984375 -12.9375 13.390625 -14.71875 
Q 11.8125 -16.5 9.71875 -16.5 
z
" id="Cmmi10-66"/>
      </defs>
      <g transform="translate(261.440447 100.913766)scale(0.1 -0.1)">
       <use transform="translate(0 0.484375)" xlink:href="#Cmmi10-66"/>
      </g>
     </g>
    </g>
    <g id="xtick_3">
     <g id="line2d_26">
      <path clip-path="url(#p693143f46f)" d="M 562.529887 87.704405 
L 562.529887 16.528672 
" style="fill:none;stroke:#000000;stroke-dasharray:0.5,0.825;stroke-dashoffset:0;stroke-width:0.5;"/>
     </g>
     <g id="line2d_27">
      <g>
       <use style="stroke:#000000;stroke-width:0.8;" x="562.529887" xlink:href="#m026e412bdd" y="86.335641"/>
      </g>
     </g>
     <g id="text_2">
      <!-- $1$ -->
      <defs>
       <path d="M 9.28125 0 
L 9.28125 3.515625 
Q 21.78125 3.515625 21.78125 6.6875 
L 21.78125 59.1875 
Q 16.609375 56.6875 8.6875 56.6875 
L 8.6875 60.203125 
Q 20.953125 60.203125 27.203125 66.609375 
L 28.609375 66.609375 
Q 28.953125 66.609375 29.265625 66.328125 
Q 29.59375 66.0625 29.59375 65.71875 
L 29.59375 6.6875 
Q 29.59375 3.515625 42.09375 3.515625 
L 42.09375 0 
z
" id="Cmr10-31"/>
      </defs>
      <g transform="translate(560.029887 100.934078)scale(0.1 -0.1)">
       <use transform="translate(0 0.390625)" xlink:href="#Cmr10-31"/>
      </g>
     </g>
    </g>
   </g>
   <g id="matplotlib.axis_2">
    <g id="ytick_1">
     <g id="line2d_28">
      <path clip-path="url(#p693143f46f)" d="M 4.074135 86.335641 
L 573.48 86.335641 
" style="fill:none;stroke:#000000;stroke-dasharray:0.5,0.825;stroke-dashoffset:0;stroke-width:0.5;"/>
     </g>
     <g id="line2d_29">
      <defs>
       <path d="M 0 0 
L -3.5 0 
" id="m0696d4d75f" style="stroke:#000000;stroke-width:0.8;"/>
      </defs>
      <g>
       <use style="stroke:#000000;stroke-width:0.8;" x="15.024247" xlink:href="#m0696d4d75f" y="86.335641"/>
      </g>
     </g>
    </g>
    <g id="ytick_2">
     <g id="line2d_30">
      <path clip-path="url(#p693143f46f)" d="M 4.074135 17.897436 
L 573.48 17.897436 
" style="fill:none;stroke:#000000;stroke-dasharray:0.5,0.825;stroke-dashoffset:0;stroke-width:0.5;"/>
     </g>
     <g id="line2d_31">
      <g>
       <use style="stroke:#000000;stroke-width:0.8;" x="15.024247" xlink:href="#m0696d4d75f" y="17.897436"/>
      </g>
     </g>
     <g id="text_3">
      <!-- $1$ -->
      <g transform="translate(3.024247 21.696655)scale(0.1 -0.1)">
       <use transform="translate(0 0.390625)" xlink:href="#Cmr10-31"/>
      </g>
     </g>
    </g>
   </g>
   <g id="patch_3">
    <path d="M 15.024247 87.704405 
L 15.024247 16.528672 
" style="fill:none;stroke:#000000;stroke-linecap:square;stroke-linejoin:miter;stroke-width:0.8;"/>
   </g>
   <g id="patch_4">
    <path d="M 4.074135 86.335641 
L 573.48 86.335641 
" style="fill:none;stroke:#000000;stroke-linecap:square;stroke-linejoin:miter;stroke-width:0.8;"/>
   </g>
  </g>
 </g>
 <defs>
  <clipPath id="p693143f46f">
   <rect height="71.175733" width="569.405865" x="4.074135" y="16.528672"/>
  </clipPath>
 </defs>
</svg>
