<?xml version="1.0" encoding="utf-8" standalone="no"?>
<!DOCTYPE svg PUBLIC "-//W3C//DTD SVG 1.1//EN"
  "http://www.w3.org/Graphics/SVG/1.1/DTD/svg11.dtd">
<!-- Created with matplotlib (http://matplotlib.org/) -->
<svg height="108pt" version="1.1" viewBox="0 0 576 108" width="576pt" xmlns="http://www.w3.org/2000/svg" xmlns:xlink="http://www.w3.org/1999/xlink">
 <defs>
  <style type="text/css">
*{stroke-linecap:butt;stroke-linejoin:round;}
  </style>
 </defs>
 <g id="figure_1">
  <g id="patch_1">
   <path d="M 0 108 
L 576 108 
L 576 0 
L 0 0 
z
" style="fill:#ffffff;"/>
  </g>
  <g id="axes_1">
   <g id="patch_2">
    <path d="M 4.074135 87.704405 
L 573.48 87.704405 
L 573.48 16.528672 
L 4.074135 16.528672 
z
" style="fill:#ffffff;"/>
   </g>
   <g id="line2d_1">
    <path clip-path="url(#pbe119376a3)" d="M 309.834977 47.228095 
L 351.950795 66.781868 
L 351.950795 66.781868 
" style="fill:none;stroke:#ff0000;stroke-linecap:square;stroke-width:2;"/>
   </g>
   <g id="line2d_2">
    <path clip-path="url(#pbe119376a3)" d="M 394.066613 27.674322 
L 415.124523 37.451209 
L 415.124523 37.451209 
" style="fill:none;stroke:#ff0000;stroke-linecap:square;stroke-width:2;"/>
   </g>
   <g id="line2d_3">
    <path clip-path="url(#pbe119376a3)" d="M 436.182432 66.781868 
L 457.240341 76.558755 
L 457.240341 76.558755 
" style="fill:none;stroke:#ff0000;stroke-linecap:square;stroke-width:2;"/>
   </g>
   <g id="line2d_4">
    <path clip-path="url(#pbe119376a3)" d="M 499.35616 37.451209 
L 541.471978 57.004982 
L 541.471978 57.004982 
" style="fill:none;stroke:#ff0000;stroke-linecap:square;stroke-width:2;"/>
   </g>
   <g id="line2d_5">
    <path clip-path="url(#pbe119376a3)" d="M 78.197975 37.451209 
L 120.313794 76.558755 
L 120.313794 76.558755 
" style="fill:none;stroke:#ffff00;stroke-linecap:square;stroke-width:2;"/>
   </g>
   <g id="line2d_6">
    <path clip-path="url(#pbe119376a3)" d="M 183.487521 27.674322 
L 225.60334 66.781868 
L 225.60334 66.781868 
" style="fill:none;stroke:#ffff00;stroke-linecap:square;stroke-width:2;"/>
   </g>
   <g id="line2d_7">
    <path clip-path="url(#pbe119376a3)" d="M 15.024247 86.335641 
L 36.082157 57.004982 
L 36.082157 57.004982 
" style="fill:none;stroke:#00ff00;stroke-linecap:square;stroke-width:2;"/>
   </g>
   <g id="line2d_8">
    <path clip-path="url(#pbe119376a3)" d="M 141.371703 66.781868 
L 162.429612 37.451209 
L 162.429612 37.451209 
" style="fill:none;stroke:#00ff00;stroke-linecap:square;stroke-width:2;"/>
   </g>
   <g id="line2d_9">
    <path clip-path="url(#pbe119376a3)" d="M 267.719158 47.228095 
L 288.777067 17.897436 
L 288.777067 17.897436 
" style="fill:none;stroke:#00ff00;stroke-linecap:square;stroke-width:2;"/>
   </g>
   <g id="line2d_10">
    <path clip-path="url(#pbe119376a3)" d="M 288.777067 17.897436 
L 309.834977 47.228095 
L 309.834977 47.228095 
" style="fill:none;stroke:#00ffff;stroke-linecap:square;stroke-width:2;"/>
   </g>
   <g id="line2d_11">
    <path clip-path="url(#pbe119376a3)" d="M 415.124523 37.451209 
L 436.182432 66.781868 
L 436.182432 66.781868 
" style="fill:none;stroke:#00ffff;stroke-linecap:square;stroke-width:2;"/>
   </g>
   <g id="line2d_12">
    <path clip-path="url(#pbe119376a3)" d="M 541.471978 57.004982 
L 562.529887 86.335641 
L 562.529887 86.335641 
" style="fill:none;stroke:#00ffff;stroke-linecap:square;stroke-width:2;"/>
   </g>
   <g id="line2d_13">
    <path clip-path="url(#pbe119376a3)" d="M 351.950795 66.781868 
L 394.066613 27.674322 
L 394.066613 27.674322 
" style="fill:none;stroke:#0000ff;stroke-linecap:square;stroke-width:2;"/>
   </g>
   <g id="line2d_14">
    <path clip-path="url(#pbe119376a3)" d="M 457.240341 76.558755 
L 457.414357 76.397168 
L 457.631524 76.195513 
L 457.853374 75.98951 
L 458.157979 75.706662 
L 458.306703 75.568561 
L 458.43093 75.453208 
L 458.714667 75.189738 
L 458.980689 74.942717 
L 459.150903 74.784662 
L 459.275422 74.669037 
L 459.499724 74.460756 
L 459.805194 74.177105 
L 459.952095 74.040697 
L 460.260651 73.754181 
L 460.427889 73.598889 
L 460.622909 73.417798 
L 460.794268 73.25868 
L 461.15037 72.928013 
L 461.361578 72.731892 
L 461.569696 72.538639 
L 461.713564 72.405048 
L 461.798147 72.326506 
L 462.025961 72.114964 
L 462.264894 71.893099 
L 462.519068 71.657079 
L 462.735791 71.455837 
L 462.914544 71.289852 
L 463.12807 71.091578 
L 463.428168 70.812915 
L 463.636486 70.619477 
L 463.762295 70.502654 
L 463.994115 70.287393 
L 464.154507 70.138457 
L 464.432688 69.880147 
L 464.732045 69.602172 
L 464.807056 69.532519 
L 465.015194 69.339248 
L 465.240742 69.129811 
L 465.586915 68.808364 
L 465.747503 68.659247 
L 465.867319 68.547989 
L 466.122716 68.310835 
L 466.374531 68.077007 
L 466.465715 67.992336 
L 466.832891 67.651387 
L 466.92401 67.566776 
L 467.122323 67.382629 
L 467.312365 67.206161 
L 467.570169 66.966772 
L 467.723539 66.824357 
L 468.085531 66.488221 
L 468.266337 66.32033 
L 468.377449 66.217155 
L 468.742466 65.87821 
L 468.838378 65.789149 
L 469.041555 65.600484 
L 469.30083 65.359729 
L 469.615925 65.067141 
L 469.757735 64.93546 
L 470.017134 64.69459 
L 470.190357 64.53374 
L 470.44481 64.297462 
L 470.6764 64.082414 
L 470.867563 63.904905 
L 471.023885 63.759749 
L 471.238523 63.560442 
L 471.428156 63.384355 
L 471.626341 63.200326 
L 471.94167 62.90752 
L 472.157475 62.70713 
L 472.272552 62.600273 
L 472.498171 62.39077 
L 472.769331 62.138978 
L 472.90652 62.011588 
" style="fill:none;stroke:#0000ff;stroke-linecap:square;stroke-width:2;"/>
   </g>
   <g id="line2d_15">
    <path clip-path="url(#pbe119376a3)" d="M 473.587261 61.379472 
L 473.679538 61.293786 
L 473.885326 61.102697 
L 474.219677 60.792229 
L 474.472831 60.557157 
L 474.51427 60.518678 
L 474.732606 60.315937 
L 475.002792 60.06505 
L 475.271157 59.815854 
L 475.3931 59.702621 
L 475.571891 59.536601 
L 475.909074 59.223502 
L 476.004141 59.135226 
L 476.312533 58.848862 
L 476.591526 58.589797 
L 476.66094 58.525341 
L 476.858386 58.341999 
L 477.09191 58.125155 
L 477.398134 57.840804 
L 477.619145 57.635579 
L 477.691604 57.568296 
L 477.950425 57.327962 
L 478.128012 57.16306 
L 478.329367 56.976087 
L 478.61626 56.709687 
L 478.892222 56.453436 
L 479.072532 56.286006 
L 479.350462 56.027928 
L 479.459852 55.926352 
L 479.596583 55.799387 
L 479.979971 55.443384 
L 480.14158 55.293318 
L 480.229359 55.211809 
L 480.608203 54.860026 
L 480.783319 54.697418 
L 480.863741 54.62274 
L 481.11902 54.385696 
L 481.367933 54.154562 
L 481.620234 53.920283 
L 481.808417 53.745541 
L 481.951726 53.612468 
L 482.20345 53.378725 
L 482.484047 53.11817 
L 482.638258 52.974974 
L 482.920063 52.713298 
L 483.080145 52.564651 
L 483.275137 52.383587 
L 483.410575 52.257823 
L 483.723744 51.967023 
L 483.926433 51.778812 
L 484.22373 51.502751 
L 484.304306 51.42793 
L 484.527417 51.220756 
L 484.790726 50.976254 
L 485.014731 50.768249 
L 485.186046 50.609171 
L 485.423879 50.388327 
L 485.62032 50.205917 
L 485.712417 50.120398 
L 485.963043 49.887674 
L 486.316594 49.559377 
L 486.497559 49.391338 
L 486.630538 49.267858 
L 486.772344 49.136181 
L 486.982831 48.940729 
L 487.253535 48.68936 
L 487.430431 48.525099 
L 487.796281 48.185382 
L 487.857218 48.128797 
L 488.132559 47.873124 
L 488.274191 47.741608 
L 488.610436 47.42938 
L 488.782018 47.270054 
L 488.937991 47.125222 
L 489.191882 46.889467 
L 489.377548 46.717063 
L 489.685703 46.430918 
L 489.918372 46.214869 
L 489.949147 46.186292 
L 490.30641 45.854548 
L 490.471686 45.701077 
L 490.583572 45.597183 
L 490.955161 45.252136 
L 491.133669 45.086378 
L 491.324237 44.909422 
L 491.44994 44.792698 
L 491.674474 44.584203 
L 491.893377 44.380936 
L 492.080726 44.206968 
L 492.456811 43.857747 
L 492.649547 43.678778 
L 492.735306 43.599144 
L 493.074881 43.283824 
L 493.275273 43.097746 
L 493.413258 42.969617 
L 493.626268 42.771822 
L 493.829233 42.583355 
L 493.986321 42.437488 
L 494.33044 42.117948 
L 494.471697 41.986781 
L 494.656917 41.814792 
L 494.905885 41.583607 
L 495.228185 41.284328 
L 495.379942 41.143411 
L 495.608223 40.931435 
L 495.839037 40.717109 
L 496.059983 40.511945 
L 496.220388 40.362997 
L 496.382136 40.212802 
L 496.608023 40.00305 
L 496.870746 39.759093 
L 497.082067 39.562866 
L 497.164493 39.486328 
L 497.359649 39.305112 
L 497.638052 39.046594 
L 497.796846 38.899143 
L 498.029955 38.682685 
L 498.350519 38.385018 
L 498.537551 38.211345 
L 498.810185 37.958185 
L 498.890196 37.88389 
L 499.097074 37.691788 
L 499.35616 37.451209 
" style="fill:none;stroke:#0000ff;stroke-linecap:square;stroke-width:2;"/>
   </g>
   <g id="line2d_16">
    <path clip-path="url(#pbe119376a3)" d="M 36.082157 57.004982 
L 78.197975 37.451209 
L 78.197975 37.451209 
" style="fill:none;stroke:#ff00ff;stroke-linecap:square;stroke-width:2;"/>
   </g>
   <g id="line2d_17">
    <path clip-path="url(#pbe119376a3)" d="M 120.313794 76.558755 
L 141.371703 66.781868 
L 141.371703 66.781868 
" style="fill:none;stroke:#ff00ff;stroke-linecap:square;stroke-width:2;"/>
   </g>
   <g id="line2d_18">
    <path clip-path="url(#pbe119376a3)" d="M 162.429612 37.451209 
L 183.487521 27.674322 
L 183.487521 27.674322 
" style="fill:none;stroke:#ff00ff;stroke-linecap:square;stroke-width:2;"/>
   </g>
   <g id="line2d_19">
    <path clip-path="url(#pbe119376a3)" d="M 225.60334 66.781868 
L 267.719158 47.228095 
L 267.719158 47.228095 
" style="fill:none;stroke:#ff00ff;stroke-linecap:square;stroke-width:2;"/>
   </g>
   <g id="matplotlib.axis_1">
    <g id="xtick_1">
     <g id="line2d_20">
      <path clip-path="url(#pbe119376a3)" d="M 15.024247 87.704405 
L 15.024247 16.528672 
" style="fill:none;stroke:#000000;stroke-dasharray:0.5,0.825;stroke-dashoffset:0;stroke-width:0.5;"/>
     </g>
     <g id="line2d_21">
      <defs>
       <path d="M 0 0 
L 0 3.5 
" id="m1cfaed0be3" style="stroke:#000000;stroke-width:0.8;"/>
      </defs>
      <g>
       <use style="stroke:#000000;stroke-width:0.8;" x="15.024247" xlink:href="#m1cfaed0be3" y="86.335641"/>
      </g>
     </g>
    </g>
    <g id="xtick_2">
     <g id="line2d_22">
      <path clip-path="url(#pbe119376a3)" d="M 288.777067 87.704405 
L 288.777067 16.528672 
" style="fill:none;stroke:#000000;stroke-dasharray:0.5,0.825;stroke-dashoffset:0;stroke-width:0.5;"/>
     </g>
     <g id="line2d_23">
      <g>
       <use style="stroke:#000000;stroke-width:0.8;" x="288.777067" xlink:href="#m1cfaed0be3" y="86.335641"/>
      </g>
     </g>
     <g id="text_1">
      <!-- $f$ -->
      <defs>
       <path d="M 9.71875 -16.5 
Q 11.578125 -17.921875 14.203125 -17.921875 
Q 17.78125 -17.921875 20.015625 -10.015625 
Q 20.953125 -6.203125 25.09375 15.09375 
L 29.6875 39.59375 
L 21.09375 39.59375 
Q 20.125 39.59375 20.125 40.921875 
Q 20.515625 43.109375 21.390625 43.109375 
L 30.328125 43.109375 
L 31.5 49.609375 
Q 32.078125 52.640625 32.5625 54.8125 
Q 33.0625 56.984375 33.625 58.828125 
Q 34.1875 60.6875 35.296875 62.984375 
Q 37.015625 66.265625 39.921875 68.390625 
Q 42.828125 70.515625 46.1875 70.515625 
Q 48.390625 70.515625 50.46875 69.703125 
Q 52.546875 68.890625 53.859375 67.28125 
Q 55.171875 65.671875 55.171875 63.484375 
Q 55.171875 60.9375 53.484375 59.046875 
Q 51.8125 57.171875 49.421875 57.171875 
Q 47.796875 57.171875 46.65625 58.171875 
Q 45.515625 59.1875 45.515625 60.796875 
Q 45.515625 62.984375 47 64.625 
Q 48.484375 66.265625 50.6875 66.5 
Q 48.828125 67.921875 46.09375 67.921875 
Q 44.578125 67.921875 43.234375 66.5 
Q 41.890625 65.09375 41.5 63.484375 
Q 40.875 60.9375 38.71875 49.703125 
L 37.5 43.109375 
L 47.796875 43.109375 
Q 48.78125 43.109375 48.78125 41.796875 
Q 48.734375 41.546875 48.578125 40.9375 
Q 48.4375 40.328125 48.171875 39.953125 
Q 47.90625 39.59375 47.515625 39.59375 
L 36.8125 39.59375 
L 32.171875 15.1875 
Q 31.296875 9.859375 30.140625 4.359375 
Q 29 -1.125 26.921875 -6.90625 
Q 24.859375 -12.703125 21.625 -16.609375 
Q 18.40625 -20.515625 14.015625 -20.515625 
Q 10.640625 -20.515625 7.984375 -18.578125 
Q 5.328125 -16.65625 5.328125 -13.484375 
Q 5.328125 -10.9375 6.953125 -9.046875 
Q 8.59375 -7.171875 11.078125 -7.171875 
Q 12.75 -7.171875 13.859375 -8.171875 
Q 14.984375 -9.1875 14.984375 -10.796875 
Q 14.984375 -12.9375 13.390625 -14.71875 
Q 11.8125 -16.5 9.71875 -16.5 
z
" id="Cmmi10-66"/>
      </defs>
      <g transform="translate(286.327067 100.913766)scale(0.1 -0.1)">
       <use transform="translate(0 0.484375)" xlink:href="#Cmmi10-66"/>
      </g>
     </g>
    </g>
    <g id="xtick_3">
     <g id="line2d_24">
      <path clip-path="url(#pbe119376a3)" d="M 562.529887 87.704405 
L 562.529887 16.528672 
" style="fill:none;stroke:#000000;stroke-dasharray:0.5,0.825;stroke-dashoffset:0;stroke-width:0.5;"/>
     </g>
     <g id="line2d_25">
      <g>
       <use style="stroke:#000000;stroke-width:0.8;" x="562.529887" xlink:href="#m1cfaed0be3" y="86.335641"/>
      </g>
     </g>
     <g id="text_2">
      <!-- $1$ -->
      <defs>
       <path d="M 9.28125 0 
L 9.28125 3.515625 
Q 21.78125 3.515625 21.78125 6.6875 
L 21.78125 59.1875 
Q 16.609375 56.6875 8.6875 56.6875 
L 8.6875 60.203125 
Q 20.953125 60.203125 27.203125 66.609375 
L 28.609375 66.609375 
Q 28.953125 66.609375 29.265625 66.328125 
Q 29.59375 66.0625 29.59375 65.71875 
L 29.59375 6.6875 
Q 29.59375 3.515625 42.09375 3.515625 
L 42.09375 0 
z
" id="Cmr10-31"/>
      </defs>
      <g transform="translate(560.029887 100.934078)scale(0.1 -0.1)">
       <use transform="translate(0 0.390625)" xlink:href="#Cmr10-31"/>
      </g>
     </g>
    </g>
   </g>
   <g id="matplotlib.axis_2">
    <g id="ytick_1">
     <g id="line2d_26">
      <path clip-path="url(#pbe119376a3)" d="M 4.074135 86.335641 
L 573.48 86.335641 
" style="fill:none;stroke:#000000;stroke-dasharray:0.5,0.825;stroke-dashoffset:0;stroke-width:0.5;"/>
     </g>
     <g id="line2d_27">
      <defs>
       <path d="M 0 0 
L -3.5 0 
" id="mceb4d3c855" style="stroke:#000000;stroke-width:0.8;"/>
      </defs>
      <g>
       <use style="stroke:#000000;stroke-width:0.8;" x="15.024247" xlink:href="#mceb4d3c855" y="86.335641"/>
      </g>
     </g>
    </g>
    <g id="ytick_2">
     <g id="line2d_28">
      <path clip-path="url(#pbe119376a3)" d="M 4.074135 17.897436 
L 573.48 17.897436 
" style="fill:none;stroke:#000000;stroke-dasharray:0.5,0.825;stroke-dashoffset:0;stroke-width:0.5;"/>
     </g>
     <g id="line2d_29">
      <g>
       <use style="stroke:#000000;stroke-width:0.8;" x="15.024247" xlink:href="#mceb4d3c855" y="17.897436"/>
      </g>
     </g>
     <g id="text_3">
      <!-- $1$ -->
      <g transform="translate(3.024247 21.696655)scale(0.1 -0.1)">
       <use transform="translate(0 0.390625)" xlink:href="#Cmr10-31"/>
      </g>
     </g>
    </g>
   </g>
   <g id="patch_3">
    <path d="M 15.024247 87.704405 
L 15.024247 16.528672 
" style="fill:none;stroke:#000000;stroke-linecap:square;stroke-linejoin:miter;stroke-width:0.8;"/>
   </g>
   <g id="patch_4">
    <path d="M 4.074135 86.335641 
L 573.48 86.335641 
" style="fill:none;stroke:#000000;stroke-linecap:square;stroke-linejoin:miter;stroke-width:0.8;"/>
   </g>
  </g>
 </g>
 <defs>
  <clipPath id="pbe119376a3">
   <rect height="71.175733" width="569.405865" x="4.074135" y="16.528672"/>
  </clipPath>
 </defs>
</svg>
