<?xml version="1.0" encoding="utf-8" standalone="no"?>
<!DOCTYPE svg PUBLIC "-//W3C//DTD SVG 1.1//EN"
  "http://www.w3.org/Graphics/SVG/1.1/DTD/svg11.dtd">
<!-- Created with matplotlib (http://matplotlib.org/) -->
<svg height="108pt" version="1.1" viewBox="0 0 576 108" width="576pt" xmlns="http://www.w3.org/2000/svg" xmlns:xlink="http://www.w3.org/1999/xlink">
 <defs>
  <style type="text/css">
*{stroke-linecap:butt;stroke-linejoin:round;}
  </style>
 </defs>
 <g id="figure_1">
  <g id="patch_1">
   <path d="M 0 108 
L 576 108 
L 576 0 
L 0 0 
z
" style="fill:#ffffff;"/>
  </g>
  <g id="axes_1">
   <g id="patch_2">
    <path d="M 4.074135 87.704405 
L 573.48 87.704405 
L 573.48 16.528672 
L 4.074135 16.528672 
z
" style="fill:#ffffff;"/>
   </g>
   <g id="line2d_1">
    <path clip-path="url(#p411124a53a)" d="M 106.275187 17.897436 
L 151.900657 65.804179 
L 151.900657 65.804179 
" style="fill:none;stroke:#ff0000;stroke-linecap:square;stroke-width:2;"/>
   </g>
   <g id="line2d_2">
    <path clip-path="url(#p411124a53a)" d="M 516.904417 38.428897 
L 517.210742 38.750539 
L 517.422927 38.973333 
L 517.686912 39.250517 
L 517.813538 39.383475 
L 518.067726 39.650372 
L 518.345727 39.942273 
L 518.507742 40.112388 
L 518.718849 40.334051 
L 518.896191 40.52026 
L 519.3008 40.945099 
L 519.357526 41.004662 
L 519.579975 41.238233 
L 519.781911 41.450266 
L 520.002753 41.68215 
L 520.245455 41.936987 
L 520.600329 42.309605 
L 520.798822 42.518023 
L 520.91962 42.644861 
L 521.221063 42.961376 
L 521.595007 43.354016 
L 521.708007 43.472667 
L 522.001771 43.781119 
L 522.268041 44.060703 
L 522.319083 44.114297 
L 522.607479 44.417113 
L 522.904093 44.728557 
L 523.061239 44.893561 
L 523.302749 45.147145 
L 523.478488 45.331672 
L 523.717881 45.583035 
L 523.932911 45.808816 
L 524.348694 46.245388 
L 524.482906 46.386311 
L 524.776016 46.694077 
L 524.821371 46.741699 
L 525.203909 47.143364 
L 525.423945 47.374402 
L 525.685132 47.648648 
L 525.889606 47.863346 
L 525.970835 47.948636 
L 526.32629 48.321864 
L 526.552742 48.559638 
L 526.732888 48.748791 
L 526.929869 48.955622 
L 527.334222 49.380192 
L 527.371418 49.419248 
L 527.780645 49.848936 
L 527.880892 49.954196 
L 528.075954 50.159011 
L 528.309379 50.404107 
L 528.684867 50.79837 
L 528.86475 50.987247 
L 529.05401 51.18597 
L 529.304241 51.448712 
L 529.45402 51.605981 
L 529.770417 51.938197 
L 529.933054 52.108966 
L 530.258952 52.451158 
L 530.423627 52.624067 
L 530.559511 52.766746 
L 530.986852 53.215453 
L 531.202391 53.44177 
L 531.354861 53.601863 
L 531.579076 53.837289 
L 531.774998 54.043008 
L 532.139469 54.425701 
L 532.300943 54.59525 
L 532.47354 54.776477 
L 532.681047 54.994358 
L 533.024355 55.354832 
L 533.201474 55.540807 
L 533.358955 55.706162 
L 533.690804 56.054604 
L 533.98025 56.358522 
L 534.172042 56.559903 
L 534.328202 56.723872 
L 534.512634 56.917525 
L 534.784822 57.203323 
L 535.065973 57.498531 
L 535.214543 57.654529 
L 535.405054 57.854566 
L 535.748168 58.214836 
L 535.82416 58.294627 
L 536.10043 58.58471 
L 536.348709 58.845404 
L 536.62827 59.138943 
L 536.902143 59.426509 
L 537.15659 59.693679 
" style="fill:none;stroke:#ff0000;stroke-linecap:square;stroke-width:2;"/>
   </g>
   <g id="line2d_3">
    <path clip-path="url(#p411124a53a)" d="M 537.853024 60.424935 
L 538.039691 60.620935 
L 538.329259 60.924982 
L 538.357489 60.954623 
L 538.610026 61.219787 
L 538.927599 61.553238 
L 539.134091 61.770055 
L 539.440918 62.092223 
L 539.548129 62.204795 
L 539.751142 62.417958 
L 540.054139 62.736106 
L 540.225595 62.916134 
L 540.58558 63.294118 
L 540.811149 63.530966 
L 541.040062 63.771325 
L 541.304822 64.049322 
L 541.427034 64.177645 
L 541.556509 64.313593 
L 541.944224 64.720695 
L 542.18713 64.975746 
L 542.413409 65.213339 
L 542.659157 65.471374 
L 542.916051 65.741113 
L 543.093161 65.927079 
L 543.165875 66.003428 
L 543.564591 66.42208 
L 543.665635 66.528176 
L 543.87651 66.749594 
L 544.23879 67.129989 
L 544.425218 67.325738 
L 544.57747 67.485603 
L 544.841061 67.762374 
L 545.17838 68.116558 
L 545.238214 68.179384 
L 545.472638 68.425529 
L 545.682619 68.646009 
L 545.97658 68.954669 
L 546.291398 69.285227 
L 546.37964 69.377881 
L 546.676065 69.689128 
L 546.908548 69.933235 
L 547.194481 70.233465 
L 547.302454 70.346836 
L 547.57209 70.629954 
L 547.871199 70.944018 
L 548.003311 71.082736 
L 548.287768 71.381415 
L 548.54704 71.653651 
L 548.785734 71.90428 
L 549.039119 72.170334 
L 549.136391 72.27247 
L 549.427204 72.577824 
L 549.711162 72.87598 
L 549.880528 73.053813 
L 550.085158 73.268675 
L 550.484568 73.688055 
L 550.602091 73.811455 
L 550.758741 73.975938 
L 551.078117 74.311283 
L 551.318609 74.563798 
L 551.502039 74.7564 
L 551.759644 75.026885 
L 551.984937 75.263444 
L 552.286632 75.580223 
L 552.373223 75.671143 
L 552.722299 76.037674 
L 552.816429 76.13651 
L 553.050706 76.3825 
L 553.377248 76.72537 
L 553.693121 77.057037 
L 553.734939 77.100945 
L 554.078302 77.461476 
L 554.3776 77.775739 
L 554.392081 77.790945 
L 554.734349 78.150326 
L 554.947582 78.37422 
L 555.206383 78.645961 
L 555.437147 78.888264 
L 555.601359 79.060686 
L 555.888081 79.361744 
L 556.209855 79.699607 
L 556.450684 79.952478 
L 556.501049 80.00536 
L 556.705379 80.219907 
L 556.994869 80.523872 
L 557.205541 80.745077 
L 557.522742 81.078138 
L 557.816575 81.386664 
L 557.886212 81.459782 
L 558.138535 81.724721 
L 558.467699 82.070344 
L 558.518164 82.123331 
L 558.761158 82.378476 
L 559.003875 82.633328 
L 559.30277 82.947168 
L 559.453761 83.105708 
L 559.830646 83.501438 
L 559.948785 83.625483 
L 560.197251 83.886373 
L 560.356519 84.053604 
L 560.599655 84.308897 
L 560.945263 84.671786 
L 561.049761 84.781508 
L 561.467192 85.219812 
L 561.628005 85.388665 
L 561.875217 85.648237 
L 561.999283 85.778507 
L 562.204793 85.994292 
L 562.529887 86.335641 
" style="fill:none;stroke:#ff0000;stroke-linecap:square;stroke-width:2;"/>
   </g>
   <g id="line2d_4">
    <path clip-path="url(#p411124a53a)" d="M 197.526127 31.585077 
L 471.278947 72.648 
L 471.278947 72.648 
" style="fill:none;stroke:#00ff00;stroke-linecap:square;stroke-width:2;"/>
   </g>
   <g id="line2d_5">
    <path clip-path="url(#p411124a53a)" d="M 15.024247 86.335641 
L 106.275187 17.897436 
L 106.275187 17.897436 
" style="fill:none;stroke:#0000ff;stroke-linecap:square;stroke-width:2;"/>
   </g>
   <g id="line2d_6">
    <path clip-path="url(#p411124a53a)" d="M 151.900657 65.804179 
L 197.526127 31.585077 
L 197.526127 31.585077 
" style="fill:none;stroke:#0000ff;stroke-linecap:square;stroke-width:2;"/>
   </g>
   <g id="line2d_7">
    <path clip-path="url(#p411124a53a)" d="M 471.278947 72.648 
L 516.904417 38.428897 
L 516.904417 38.428897 
" style="fill:none;stroke:#0000ff;stroke-linecap:square;stroke-width:2;"/>
   </g>
   <g id="matplotlib.axis_1">
    <g id="xtick_1">
     <g id="line2d_8">
      <path clip-path="url(#p411124a53a)" d="M 15.024247 87.704405 
L 15.024247 16.528672 
" style="fill:none;stroke:#000000;stroke-dasharray:0.5,0.825;stroke-dashoffset:0;stroke-width:0.5;"/>
     </g>
     <g id="line2d_9">
      <defs>
       <path d="M 0 0 
L 0 3.5 
" id="m10406e6361" style="stroke:#000000;stroke-width:0.8;"/>
      </defs>
      <g>
       <use style="stroke:#000000;stroke-width:0.8;" x="15.024247" xlink:href="#m10406e6361" y="86.335641"/>
      </g>
     </g>
    </g>
    <g id="xtick_2">
     <g id="line2d_10">
      <path clip-path="url(#p411124a53a)" d="M 106.275187 87.704405 
L 106.275187 16.528672 
" style="fill:none;stroke:#000000;stroke-dasharray:0.5,0.825;stroke-dashoffset:0;stroke-width:0.5;"/>
     </g>
     <g id="line2d_11">
      <g>
       <use style="stroke:#000000;stroke-width:0.8;" x="106.275187" xlink:href="#m10406e6361" y="86.335641"/>
      </g>
     </g>
     <g id="text_1">
      <!-- $f$ -->
      <defs>
       <path d="M 9.71875 -16.5 
Q 11.578125 -17.921875 14.203125 -17.921875 
Q 17.78125 -17.921875 20.015625 -10.015625 
Q 20.953125 -6.203125 25.09375 15.09375 
L 29.6875 39.59375 
L 21.09375 39.59375 
Q 20.125 39.59375 20.125 40.921875 
Q 20.515625 43.109375 21.390625 43.109375 
L 30.328125 43.109375 
L 31.5 49.609375 
Q 32.078125 52.640625 32.5625 54.8125 
Q 33.0625 56.984375 33.625 58.828125 
Q 34.1875 60.6875 35.296875 62.984375 
Q 37.015625 66.265625 39.921875 68.390625 
Q 42.828125 70.515625 46.1875 70.515625 
Q 48.390625 70.515625 50.46875 69.703125 
Q 52.546875 68.890625 53.859375 67.28125 
Q 55.171875 65.671875 55.171875 63.484375 
Q 55.171875 60.9375 53.484375 59.046875 
Q 51.8125 57.171875 49.421875 57.171875 
Q 47.796875 57.171875 46.65625 58.171875 
Q 45.515625 59.1875 45.515625 60.796875 
Q 45.515625 62.984375 47 64.625 
Q 48.484375 66.265625 50.6875 66.5 
Q 48.828125 67.921875 46.09375 67.921875 
Q 44.578125 67.921875 43.234375 66.5 
Q 41.890625 65.09375 41.5 63.484375 
Q 40.875 60.9375 38.71875 49.703125 
L 37.5 43.109375 
L 47.796875 43.109375 
Q 48.78125 43.109375 48.78125 41.796875 
Q 48.734375 41.546875 48.578125 40.9375 
Q 48.4375 40.328125 48.171875 39.953125 
Q 47.90625 39.59375 47.515625 39.59375 
L 36.8125 39.59375 
L 32.171875 15.1875 
Q 31.296875 9.859375 30.140625 4.359375 
Q 29 -1.125 26.921875 -6.90625 
Q 24.859375 -12.703125 21.625 -16.609375 
Q 18.40625 -20.515625 14.015625 -20.515625 
Q 10.640625 -20.515625 7.984375 -18.578125 
Q 5.328125 -16.65625 5.328125 -13.484375 
Q 5.328125 -10.9375 6.953125 -9.046875 
Q 8.59375 -7.171875 11.078125 -7.171875 
Q 12.75 -7.171875 13.859375 -8.171875 
Q 14.984375 -9.1875 14.984375 -10.796875 
Q 14.984375 -12.9375 13.390625 -14.71875 
Q 11.8125 -16.5 9.71875 -16.5 
z
" id="Cmmi10-66"/>
      </defs>
      <g transform="translate(103.825187 100.913766)scale(0.1 -0.1)">
       <use transform="translate(0 0.484375)" xlink:href="#Cmmi10-66"/>
      </g>
     </g>
    </g>
    <g id="xtick_3">
     <g id="line2d_12">
      <path clip-path="url(#p411124a53a)" d="M 562.529887 87.704405 
L 562.529887 16.528672 
" style="fill:none;stroke:#000000;stroke-dasharray:0.5,0.825;stroke-dashoffset:0;stroke-width:0.5;"/>
     </g>
     <g id="line2d_13">
      <g>
       <use style="stroke:#000000;stroke-width:0.8;" x="562.529887" xlink:href="#m10406e6361" y="86.335641"/>
      </g>
     </g>
     <g id="text_2">
      <!-- $1$ -->
      <defs>
       <path d="M 9.28125 0 
L 9.28125 3.515625 
Q 21.78125 3.515625 21.78125 6.6875 
L 21.78125 59.1875 
Q 16.609375 56.6875 8.6875 56.6875 
L 8.6875 60.203125 
Q 20.953125 60.203125 27.203125 66.609375 
L 28.609375 66.609375 
Q 28.953125 66.609375 29.265625 66.328125 
Q 29.59375 66.0625 29.59375 65.71875 
L 29.59375 6.6875 
Q 29.59375 3.515625 42.09375 3.515625 
L 42.09375 0 
z
" id="Cmr10-31"/>
      </defs>
      <g transform="translate(560.029887 100.934078)scale(0.1 -0.1)">
       <use transform="translate(0 0.390625)" xlink:href="#Cmr10-31"/>
      </g>
     </g>
    </g>
   </g>
   <g id="matplotlib.axis_2">
    <g id="ytick_1">
     <g id="line2d_14">
      <path clip-path="url(#p411124a53a)" d="M 4.074135 86.335641 
L 573.48 86.335641 
" style="fill:none;stroke:#000000;stroke-dasharray:0.5,0.825;stroke-dashoffset:0;stroke-width:0.5;"/>
     </g>
     <g id="line2d_15">
      <defs>
       <path d="M 0 0 
L -3.5 0 
" id="mc924c1da87" style="stroke:#000000;stroke-width:0.8;"/>
      </defs>
      <g>
       <use style="stroke:#000000;stroke-width:0.8;" x="15.024247" xlink:href="#mc924c1da87" y="86.335641"/>
      </g>
     </g>
    </g>
    <g id="ytick_2">
     <g id="line2d_16">
      <path clip-path="url(#p411124a53a)" d="M 4.074135 17.897436 
L 573.48 17.897436 
" style="fill:none;stroke:#000000;stroke-dasharray:0.5,0.825;stroke-dashoffset:0;stroke-width:0.5;"/>
     </g>
     <g id="line2d_17">
      <g>
       <use style="stroke:#000000;stroke-width:0.8;" x="15.024247" xlink:href="#mc924c1da87" y="17.897436"/>
      </g>
     </g>
     <g id="text_3">
      <!-- $1$ -->
      <g transform="translate(3.024247 21.696655)scale(0.1 -0.1)">
       <use transform="translate(0 0.390625)" xlink:href="#Cmr10-31"/>
      </g>
     </g>
    </g>
   </g>
   <g id="patch_3">
    <path d="M 15.024247 87.704405 
L 15.024247 16.528672 
" style="fill:none;stroke:#000000;stroke-linecap:square;stroke-linejoin:miter;stroke-width:0.8;"/>
   </g>
   <g id="patch_4">
    <path d="M 4.074135 86.335641 
L 573.48 86.335641 
" style="fill:none;stroke:#000000;stroke-linecap:square;stroke-linejoin:miter;stroke-width:0.8;"/>
   </g>
  </g>
 </g>
 <defs>
  <clipPath id="p411124a53a">
   <rect height="71.175733" width="569.405865" x="4.074135" y="16.528672"/>
  </clipPath>
 </defs>
</svg>
