<?xml version="1.0" encoding="utf-8" standalone="no"?>
<!DOCTYPE svg PUBLIC "-//W3C//DTD SVG 1.1//EN"
  "http://www.w3.org/Graphics/SVG/1.1/DTD/svg11.dtd">
<!-- Created with matplotlib (http://matplotlib.org/) -->
<svg height="108pt" version="1.1" viewBox="0 0 576 108" width="576pt" xmlns="http://www.w3.org/2000/svg" xmlns:xlink="http://www.w3.org/1999/xlink">
 <defs>
  <style type="text/css">
*{stroke-linecap:butt;stroke-linejoin:round;}
  </style>
 </defs>
 <g id="figure_1">
  <g id="patch_1">
   <path d="M 0 108 
L 576 108 
L 576 0 
L 0 0 
z
" style="fill:#ffffff;"/>
  </g>
  <g id="axes_1">
   <g id="patch_2">
    <path d="M 4.074135 87.704405 
L 573.48 87.704405 
L 573.48 16.528672 
L 4.074135 16.528672 
z
" style="fill:#ffffff;"/>
   </g>
   <g id="line2d_1">
    <path clip-path="url(#p05376f148e)" d="M 15.024247 86.335641 
L 16.462597 85.271002 
L 16.462597 85.271002 
" style="fill:none;stroke:#0000ff;stroke-linecap:square;"/>
   </g>
   <g id="line2d_2">
    <path clip-path="url(#p05376f148e)" d="M 16.462597 85.271002 
L 16.484853 85.279348 
L 16.484853 85.279348 
" style="fill:none;stroke:#0000ff;stroke-linecap:square;"/>
   </g>
   <g id="line2d_3">
    <path clip-path="url(#p05376f148e)" d="M 16.484853 85.279348 
L 17.923202 84.214708 
L 17.923202 84.214708 
" style="fill:none;stroke:#0000ff;stroke-linecap:square;"/>
   </g>
   <g id="line2d_4">
    <path clip-path="url(#p05376f148e)" d="M 17.923202 84.214708 
L 18.012226 84.248092 
L 18.012226 84.248092 
" style="fill:none;stroke:#0000ff;stroke-linecap:square;"/>
   </g>
   <g id="line2d_5">
    <path clip-path="url(#p05376f148e)" d="M 18.012226 84.248092 
L 19.450575 83.183453 
L 19.450575 83.183453 
" style="fill:none;stroke:#0000ff;stroke-linecap:square;"/>
   </g>
   <g id="line2d_6">
    <path clip-path="url(#p05376f148e)" d="M 19.450575 83.183453 
L 19.472831 83.191799 
L 19.472831 83.191799 
" style="fill:none;stroke:#0000ff;stroke-linecap:square;"/>
   </g>
   <g id="line2d_7">
    <path clip-path="url(#p05376f148e)" d="M 19.472831 83.191799 
L 20.911181 82.127159 
L 20.911181 82.127159 
" style="fill:none;stroke:#0000ff;stroke-linecap:square;"/>
   </g>
   <g id="line2d_8">
    <path clip-path="url(#p05376f148e)" d="M 20.911181 82.127159 
L 21.267273 82.260694 
L 21.267273 82.260694 
" style="fill:none;stroke:#0000ff;stroke-linecap:square;"/>
   </g>
   <g id="line2d_9">
    <path clip-path="url(#p05376f148e)" d="M 21.267273 82.260694 
L 22.705623 81.196055 
L 22.705623 81.196055 
" style="fill:none;stroke:#0000ff;stroke-linecap:square;"/>
   </g>
   <g id="line2d_10">
    <path clip-path="url(#p05376f148e)" d="M 22.705623 81.196055 
L 22.727879 81.2044 
L 22.727879 81.2044 
" style="fill:none;stroke:#0000ff;stroke-linecap:square;"/>
   </g>
   <g id="line2d_11">
    <path clip-path="url(#p05376f148e)" d="M 22.727879 81.2044 
L 24.166228 80.139761 
L 24.166228 80.139761 
" style="fill:none;stroke:#0000ff;stroke-linecap:square;"/>
   </g>
   <g id="line2d_12">
    <path clip-path="url(#p05376f148e)" d="M 24.166228 80.139761 
L 24.255251 80.173145 
L 24.255251 80.173145 
" style="fill:none;stroke:#0000ff;stroke-linecap:square;"/>
   </g>
   <g id="line2d_13">
    <path clip-path="url(#p05376f148e)" d="M 24.255251 80.173145 
L 25.693601 79.108506 
L 25.693601 79.108506 
" style="fill:none;stroke:#0000ff;stroke-linecap:square;"/>
   </g>
   <g id="line2d_14">
    <path clip-path="url(#p05376f148e)" d="M 25.693601 79.108506 
L 25.715857 79.116851 
L 25.715857 79.116851 
" style="fill:none;stroke:#0000ff;stroke-linecap:square;"/>
   </g>
   <g id="line2d_15">
    <path clip-path="url(#p05376f148e)" d="M 25.715857 79.116851 
L 27.154206 78.052212 
L 27.154206 78.052212 
" style="fill:none;stroke:#0000ff;stroke-linecap:square;"/>
   </g>
   <g id="line2d_16">
    <path clip-path="url(#p05376f148e)" d="M 27.154206 78.052212 
L 28.578576 78.586351 
L 28.578576 78.586351 
" style="fill:none;stroke:#0000ff;stroke-linecap:square;"/>
   </g>
   <g id="line2d_17">
    <path clip-path="url(#p05376f148e)" d="M 28.578576 78.586351 
L 30.016926 77.521712 
L 30.016926 77.521712 
" style="fill:none;stroke:#0000ff;stroke-linecap:square;"/>
   </g>
   <g id="line2d_18">
    <path clip-path="url(#p05376f148e)" d="M 30.016926 77.521712 
L 30.039182 77.530058 
L 30.039182 77.530058 
" style="fill:none;stroke:#0000ff;stroke-linecap:square;"/>
   </g>
   <g id="line2d_19">
    <path clip-path="url(#p05376f148e)" d="M 30.039182 77.530058 
L 31.477532 76.465418 
L 31.477532 76.465418 
" style="fill:none;stroke:#0000ff;stroke-linecap:square;"/>
   </g>
   <g id="line2d_20">
    <path clip-path="url(#p05376f148e)" d="M 31.477532 76.465418 
L 31.566555 76.498802 
L 31.566555 76.498802 
" style="fill:none;stroke:#0000ff;stroke-linecap:square;"/>
   </g>
   <g id="line2d_21">
    <path clip-path="url(#p05376f148e)" d="M 31.566555 76.498802 
L 33.004904 75.434163 
L 33.004904 75.434163 
" style="fill:none;stroke:#0000ff;stroke-linecap:square;"/>
   </g>
   <g id="line2d_22">
    <path clip-path="url(#p05376f148e)" d="M 33.004904 75.434163 
L 33.02716 75.442508 
L 33.02716 75.442508 
" style="fill:none;stroke:#0000ff;stroke-linecap:square;"/>
   </g>
   <g id="line2d_23">
    <path clip-path="url(#p05376f148e)" d="M 33.02716 75.442508 
L 34.46551 74.377869 
L 34.46551 74.377869 
" style="fill:none;stroke:#0000ff;stroke-linecap:square;"/>
   </g>
   <g id="line2d_24">
    <path clip-path="url(#p05376f148e)" d="M 34.46551 74.377869 
L 34.821602 74.511404 
L 34.821602 74.511404 
" style="fill:none;stroke:#0000ff;stroke-linecap:square;"/>
   </g>
   <g id="line2d_25">
    <path clip-path="url(#p05376f148e)" d="M 34.821602 74.511404 
L 36.259952 73.446765 
L 36.259952 73.446765 
" style="fill:none;stroke:#0000ff;stroke-linecap:square;"/>
   </g>
   <g id="line2d_26">
    <path clip-path="url(#p05376f148e)" d="M 36.259952 73.446765 
L 36.282208 73.45511 
L 36.282208 73.45511 
" style="fill:none;stroke:#0000ff;stroke-linecap:square;"/>
   </g>
   <g id="line2d_27">
    <path clip-path="url(#p05376f148e)" d="M 36.282208 73.45511 
L 37.720557 72.390471 
L 37.720557 72.390471 
" style="fill:none;stroke:#0000ff;stroke-linecap:square;"/>
   </g>
   <g id="line2d_28">
    <path clip-path="url(#p05376f148e)" d="M 37.720557 72.390471 
L 37.80958 72.423855 
L 37.80958 72.423855 
" style="fill:none;stroke:#0000ff;stroke-linecap:square;"/>
   </g>
   <g id="line2d_29">
    <path clip-path="url(#p05376f148e)" d="M 37.80958 72.423855 
L 39.24793 71.359215 
L 39.24793 71.359215 
" style="fill:none;stroke:#0000ff;stroke-linecap:square;"/>
   </g>
   <g id="line2d_30">
    <path clip-path="url(#p05376f148e)" d="M 39.24793 71.359215 
L 39.270186 71.367561 
L 39.270186 71.367561 
" style="fill:none;stroke:#0000ff;stroke-linecap:square;"/>
   </g>
   <g id="line2d_31">
    <path clip-path="url(#p05376f148e)" d="M 39.270186 71.367561 
L 40.708535 70.302922 
L 40.708535 70.302922 
" style="fill:none;stroke:#0000ff;stroke-linecap:square;"/>
   </g>
   <g id="line2d_32">
    <path clip-path="url(#p05376f148e)" d="M 40.708535 70.302922 
L 46.406016 72.439477 
L 46.406016 72.439477 
" style="fill:none;stroke:#0000ff;stroke-linecap:square;"/>
   </g>
   <g id="line2d_33">
    <path clip-path="url(#p05376f148e)" d="M 46.406016 72.439477 
L 47.844366 71.374838 
L 47.844366 71.374838 
" style="fill:none;stroke:#0000ff;stroke-linecap:square;"/>
   </g>
   <g id="line2d_34">
    <path clip-path="url(#p05376f148e)" d="M 47.844366 71.374838 
L 47.866621 71.383184 
L 47.866621 71.383184 
" style="fill:none;stroke:#0000ff;stroke-linecap:square;"/>
   </g>
   <g id="line2d_35">
    <path clip-path="url(#p05376f148e)" d="M 47.866621 71.383184 
L 49.304971 70.318545 
L 49.304971 70.318545 
" style="fill:none;stroke:#0000ff;stroke-linecap:square;"/>
   </g>
   <g id="line2d_36">
    <path clip-path="url(#p05376f148e)" d="M 49.304971 70.318545 
L 49.393994 70.351928 
L 49.393994 70.351928 
" style="fill:none;stroke:#0000ff;stroke-linecap:square;"/>
   </g>
   <g id="line2d_37">
    <path clip-path="url(#p05376f148e)" d="M 49.393994 70.351928 
L 50.832344 69.287289 
L 50.832344 69.287289 
" style="fill:none;stroke:#0000ff;stroke-linecap:square;"/>
   </g>
   <g id="line2d_38">
    <path clip-path="url(#p05376f148e)" d="M 50.832344 69.287289 
L 50.8546 69.295635 
L 50.8546 69.295635 
" style="fill:none;stroke:#0000ff;stroke-linecap:square;"/>
   </g>
   <g id="line2d_39">
    <path clip-path="url(#p05376f148e)" d="M 50.8546 69.295635 
L 52.292949 68.230996 
L 52.292949 68.230996 
" style="fill:none;stroke:#0000ff;stroke-linecap:square;"/>
   </g>
   <g id="line2d_40">
    <path clip-path="url(#p05376f148e)" d="M 52.292949 68.230996 
L 52.649042 68.36453 
L 52.649042 68.36453 
" style="fill:none;stroke:#0000ff;stroke-linecap:square;"/>
   </g>
   <g id="line2d_41">
    <path clip-path="url(#p05376f148e)" d="M 52.649042 68.36453 
L 54.087391 67.299891 
L 54.087391 67.299891 
" style="fill:none;stroke:#0000ff;stroke-linecap:square;"/>
   </g>
   <g id="line2d_42">
    <path clip-path="url(#p05376f148e)" d="M 54.087391 67.299891 
L 54.109647 67.308237 
L 54.109647 67.308237 
" style="fill:none;stroke:#0000ff;stroke-linecap:square;"/>
   </g>
   <g id="line2d_43">
    <path clip-path="url(#p05376f148e)" d="M 54.109647 67.308237 
L 55.547997 66.243598 
L 55.547997 66.243598 
" style="fill:none;stroke:#0000ff;stroke-linecap:square;"/>
   </g>
   <g id="line2d_44">
    <path clip-path="url(#p05376f148e)" d="M 55.547997 66.243598 
L 55.63702 66.276981 
L 55.63702 66.276981 
" style="fill:none;stroke:#0000ff;stroke-linecap:square;"/>
   </g>
   <g id="line2d_45">
    <path clip-path="url(#p05376f148e)" d="M 55.63702 66.276981 
L 57.07537 65.212342 
L 57.07537 65.212342 
" style="fill:none;stroke:#0000ff;stroke-linecap:square;"/>
   </g>
   <g id="line2d_46">
    <path clip-path="url(#p05376f148e)" d="M 57.07537 65.212342 
L 57.097625 65.220688 
L 57.097625 65.220688 
" style="fill:none;stroke:#0000ff;stroke-linecap:square;"/>
   </g>
   <g id="line2d_47">
    <path clip-path="url(#p05376f148e)" d="M 57.097625 65.220688 
L 58.535975 64.156048 
L 58.535975 64.156048 
" style="fill:none;stroke:#0000ff;stroke-linecap:square;"/>
   </g>
   <g id="line2d_48">
    <path clip-path="url(#p05376f148e)" d="M 58.535975 64.156048 
L 59.960345 64.690187 
L 59.960345 64.690187 
" style="fill:none;stroke:#0000ff;stroke-linecap:square;"/>
   </g>
   <g id="line2d_49">
    <path clip-path="url(#p05376f148e)" d="M 59.960345 64.690187 
L 61.398695 63.625548 
L 61.398695 63.625548 
" style="fill:none;stroke:#0000ff;stroke-linecap:square;"/>
   </g>
   <g id="line2d_50">
    <path clip-path="url(#p05376f148e)" d="M 61.398695 63.625548 
L 61.42095 63.633894 
L 61.42095 63.633894 
" style="fill:none;stroke:#0000ff;stroke-linecap:square;"/>
   </g>
   <g id="line2d_51">
    <path clip-path="url(#p05376f148e)" d="M 61.42095 63.633894 
L 62.8593 62.569255 
L 62.8593 62.569255 
" style="fill:none;stroke:#0000ff;stroke-linecap:square;"/>
   </g>
   <g id="line2d_52">
    <path clip-path="url(#p05376f148e)" d="M 62.8593 62.569255 
L 62.948323 62.602638 
L 62.948323 62.602638 
" style="fill:none;stroke:#0000ff;stroke-linecap:square;"/>
   </g>
   <g id="line2d_53">
    <path clip-path="url(#p05376f148e)" d="M 62.948323 62.602638 
L 64.386673 61.537999 
L 64.386673 61.537999 
" style="fill:none;stroke:#0000ff;stroke-linecap:square;"/>
   </g>
   <g id="line2d_54">
    <path clip-path="url(#p05376f148e)" d="M 64.386673 61.537999 
L 64.408929 61.546345 
L 64.408929 61.546345 
" style="fill:none;stroke:#0000ff;stroke-linecap:square;"/>
   </g>
   <g id="line2d_55">
    <path clip-path="url(#p05376f148e)" d="M 64.408929 61.546345 
L 65.847278 60.481706 
L 65.847278 60.481706 
" style="fill:none;stroke:#0000ff;stroke-linecap:square;"/>
   </g>
   <g id="line2d_56">
    <path clip-path="url(#p05376f148e)" d="M 65.847278 60.481706 
L 66.203371 60.61524 
L 66.203371 60.61524 
" style="fill:none;stroke:#0000ff;stroke-linecap:square;"/>
   </g>
   <g id="line2d_57">
    <path clip-path="url(#p05376f148e)" d="M 66.203371 60.61524 
L 67.64172 59.550601 
L 67.64172 59.550601 
" style="fill:none;stroke:#0000ff;stroke-linecap:square;"/>
   </g>
   <g id="line2d_58">
    <path clip-path="url(#p05376f148e)" d="M 67.64172 59.550601 
L 67.663976 59.558947 
L 67.663976 59.558947 
" style="fill:none;stroke:#0000ff;stroke-linecap:square;"/>
   </g>
   <g id="line2d_59">
    <path clip-path="url(#p05376f148e)" d="M 67.663976 59.558947 
L 69.102326 58.494307 
L 69.102326 58.494307 
" style="fill:none;stroke:#0000ff;stroke-linecap:square;"/>
   </g>
   <g id="line2d_60">
    <path clip-path="url(#p05376f148e)" d="M 69.102326 58.494307 
L 69.191349 58.527691 
L 69.191349 58.527691 
" style="fill:none;stroke:#0000ff;stroke-linecap:square;"/>
   </g>
   <g id="line2d_61">
    <path clip-path="url(#p05376f148e)" d="M 69.191349 58.527691 
L 70.629699 57.463052 
L 70.629699 57.463052 
" style="fill:none;stroke:#0000ff;stroke-linecap:square;"/>
   </g>
   <g id="line2d_62">
    <path clip-path="url(#p05376f148e)" d="M 70.629699 57.463052 
L 70.651954 57.471398 
L 70.651954 57.471398 
" style="fill:none;stroke:#0000ff;stroke-linecap:square;"/>
   </g>
   <g id="line2d_63">
    <path clip-path="url(#p05376f148e)" d="M 70.651954 57.471398 
L 72.090304 56.406758 
L 72.090304 56.406758 
" style="fill:none;stroke:#0000ff;stroke-linecap:square;"/>
   </g>
   <g id="line2d_64">
    <path clip-path="url(#p05376f148e)" d="M 72.090304 56.406758 
L 94.880226 64.952979 
L 94.880226 64.952979 
" style="fill:none;stroke:#0000ff;stroke-linecap:square;"/>
   </g>
   <g id="line2d_65">
    <path clip-path="url(#p05376f148e)" d="M 94.880226 64.952979 
L 94.890314 64.945513 
L 94.893499 64.943155 
L 94.904349 64.935124 
L 94.912112 64.929378 
L 94.915255 64.927052 
L 94.92479 64.919994 
L 94.929795 64.916289 
L 94.940977 64.908013 
L 94.942817 64.906651 
L 94.954572 64.89795 
L 94.95705 64.896116 
L 94.964982 64.890245 
L 94.974508 64.883194 
L 94.977989 64.880617 
L 94.990086 64.871663 
L 94.992489 64.869885 
L 95.005498 64.860255 
L 95.009615 64.857208 
L 95.020271 64.849321 
L 95.028245 64.843418 
L 95.03125 64.841194 
L 95.04174 64.83343 
L 95.04469 64.831247 
L 95.056299 64.822653 
L 95.06059 64.819478 
L 95.066788 64.81489 
L 95.073328 64.810049 
L 95.079801 64.805257 
L 95.090841 64.797087 
L 95.100513 64.789927 
L 95.101668 64.789072 
L 95.113123 64.780594 
L 95.115991 64.77847 
L 95.124908 64.77187 
L 95.129673 64.768343 
L 95.137571 64.762497 
L 95.148869 64.754135 
L 95.153889 64.750419 
L 95.16432 64.742699 
L 95.171327 64.737512 
L 95.174884 64.734879 
L 95.182927 64.728926 
L 95.188751 64.724615 
L 95.195821 64.719382 
L 95.208094 64.710298 
L 95.214342 64.705673 
L 95.222922 64.699322 
L 95.226122 64.696954 
L 95.23604 64.689613 
L 95.239849 64.686793 
L 95.24724 64.681322 
L 95.253477 64.676706 
L 95.264538 64.668519 
L 95.270662 64.663986 
L 95.277427 64.658979 
L 95.286008 64.652627 
L 95.295437 64.645648 
L 95.298461 64.64341 
L 95.304178 64.639178 
L 95.310387 64.634582 
L 95.318677 64.628446 
L 95.330678 64.619564 
L 95.338231 64.613973 
L 95.342939 64.610488 
L 95.351283 64.604312 
L 95.355075 64.601505 
L 95.362438 64.596055 
L 95.370464 64.590114 
L 95.380233 64.582884 
L 95.388813 64.576533 
L 95.389799 64.575803 
L 95.399842 64.568369 
L 95.4064 64.563516 
L 95.418473 64.55458 
L 95.421048 64.552673 
L 95.431283 64.545098 
L 95.434748 64.542533 
L 95.441827 64.537293 
L 95.450697 64.530727 
L 95.455944 64.526844 
L 95.463759 64.52106 
L 95.475341 64.512487 
L 95.481372 64.508023 
L 95.484859 64.505441 
L 95.493431 64.499096 
L 95.50271 64.492228 
L 95.510019 64.486819 
L 95.513787 64.48403 
L 95.520238 64.479255 
L 95.531915 64.470612 
L 95.535 64.468328 
L 95.548152 64.458593 
L 95.5559 64.452858 
L 95.559015 64.450553 
L 95.569234 64.442988 
L 95.572286 64.44073 
L 95.579203 64.43561 
L 95.589811 64.427758 
L 95.597635 64.421967 
L 95.599946 64.420256 
L 95.60953 64.413162 
L 95.615513 64.408734 
L 95.623381 64.40291 
L 95.63392 64.395109 
L 95.642419 64.388818 
L 95.643214 64.38823 
L 95.657145 64.377918 
L 95.664078 64.372787 
L 95.669286 64.368932 
L 95.6723 64.366702 
L 95.683785 64.3582 
L 95.689208 64.354186 
L 95.694315 64.350406 
L 95.706259 64.341565 
" style="fill:none;stroke:#0000ff;stroke-linecap:square;"/>
   </g>
   <g id="line2d_66">
    <path clip-path="url(#p05376f148e)" d="M 95.725705 64.327172 
L 95.731016 64.323241 
L 95.736999 64.318812 
L 95.748954 64.309963 
L 95.758035 64.303242 
L 95.760996 64.30105 
L 95.765841 64.297464 
L 95.776634 64.289475 
L 95.782942 64.284806 
L 95.790071 64.279529 
L 95.800667 64.271686 
L 95.803998 64.269221 
L 95.81178 64.263461 
L 95.819619 64.257658 
L 95.829316 64.250481 
L 95.833761 64.247191 
L 95.839742 64.242764 
L 95.846471 64.237783 
L 95.859009 64.228503 
L 95.865689 64.223559 
L 95.867539 64.222189 
L 95.876436 64.215604 
L 95.882136 64.211385 
L 95.890047 64.205529 
L 95.901728 64.196883 
L 95.905243 64.194281 
L 95.913246 64.188357 
L 95.923282 64.180929 
L 95.926473 64.178567 
L 95.936625 64.171053 
L 95.945415 64.164547 
L 95.951027 64.160393 
L 95.957436 64.155649 
L 95.963431 64.151212 
L 95.973951 64.143425 
L 95.978316 64.140194 
L 95.982886 64.136811 
L 95.995601 64.1274 
L 95.997115 64.126279 
L 96.007448 64.118631 
L 96.014528 64.11339 
L 96.02315 64.107009 
L 96.030809 64.10134 
L 96.040085 64.094474 
L 96.046963 64.089383 
L 96.051963 64.085682 
L 96.061411 64.078689 
L 96.068298 64.073591 
L 96.070423 64.072018 
L 96.079691 64.065158 
L 96.085369 64.060955 
L 96.094787 64.053984 
L 96.102994 64.04791 
L 96.110127 64.04263 
L 96.114595 64.039323 
L 96.126108 64.030801 
L 96.132358 64.026175 
L 96.139456 64.020921 
L 96.148102 64.014522 
L 96.152557 64.011224 
L 96.162954 64.003528 
L 96.166039 64.001245 
L 96.173481 63.995736 
L 96.184009 63.987944 
L 96.19034 63.983258 
L 96.193155 63.981174 
L 96.2022 63.974479 
L 96.210215 63.968546 
L 96.217707 63.963001 
L 96.224122 63.958253 
L 96.229913 63.953967 
L 96.241494 63.945395 
L 96.245979 63.942074 
L 96.254522 63.935751 
L 96.262189 63.930076 
L 96.264878 63.928086 
L 96.274703 63.920814 
L 96.282262 63.915219 
L 96.292304 63.907786 
L 96.295301 63.905568 
L 96.303274 63.899666 
L 96.314858 63.891092 
L 96.318576 63.88834 
" style="fill:none;stroke:#0000ff;stroke-linecap:square;"/>
   </g>
   <g id="line2d_67">
    <path clip-path="url(#p05376f148e)" d="M 96.318576 63.88834 
L 96.340832 63.896686 
L 96.340832 63.896686 
" style="fill:none;stroke:#0000ff;stroke-linecap:square;"/>
   </g>
   <g id="line2d_68">
    <path clip-path="url(#p05376f148e)" d="M 96.340832 63.896686 
L 97.779181 62.832047 
L 97.779181 62.832047 
" style="fill:none;stroke:#0000ff;stroke-linecap:square;"/>
   </g>
   <g id="line2d_69">
    <path clip-path="url(#p05376f148e)" d="M 97.779181 62.832047 
L 97.779634 62.832216 
L 97.779997 62.832352 
L 97.780648 62.832597 
L 97.780924 62.8327 
L 97.781315 62.832847 
L 97.781705 62.832993 
L 97.782377 62.833245 
L 97.782838 62.833418 
L 97.783007 62.833481 
L 97.783793 62.833776 
L 97.784057 62.833875 
L 97.784645 62.834095 
L 97.784992 62.834226 
L 97.785471 62.834405 
L 97.785998 62.834603 
L 97.786135 62.834654 
L 97.786843 62.83492 
L 97.787347 62.835109 
L 97.787679 62.835233 
L 97.788022 62.835362 
L 97.788388 62.835499 
L 97.788895 62.835689 
L 97.78958 62.835946 
L 97.789702 62.835992 
L 97.790314 62.836221 
L 97.790894 62.836439 
L 97.791126 62.836526 
L 97.791568 62.836692 
L 97.792071 62.83688 
L 97.792779 62.837146 
L 97.793119 62.837273 
L 97.793697 62.83749 
L 97.793963 62.83759 
L 97.794462 62.837777 
L 97.794852 62.837923 
L 97.795309 62.838095 
L 97.795911 62.83832 
L 97.796271 62.838455 
L 97.796658 62.838601 
L 97.796965 62.838716 
L 97.797493 62.838913 
L 97.797804 62.83903 
L 97.798594 62.839326 
L 97.798726 62.839376 
L 97.799258 62.839575 
L 97.799539 62.839681 
L 97.800104 62.839893 
L 97.800445 62.840021 
L 97.800967 62.840216 
L 97.801606 62.840456 
L 97.801806 62.840531 
L 97.802324 62.840725 
L 97.802876 62.840932 
L 97.803455 62.841149 
L 97.804006 62.841356 
L 97.804264 62.841452 
L 97.804688 62.841612 
L 97.805223 62.841812 
L 97.805393 62.841876 
L 97.806246 62.842196 
L 97.806314 62.842221 
L 97.807089 62.842512 
L 97.807472 62.842656 
L 97.807815 62.842784 
L 97.808477 62.843033 
L 97.808589 62.843074 
L 97.809289 62.843337 
L 97.809478 62.843408 
L 97.809961 62.843589 
L 97.810583 62.843822 
L 97.811082 62.844009 
L 97.811425 62.844138 
L 97.811814 62.844284 
L 97.812263 62.844452 
L 97.812663 62.844602 
L 97.81324 62.844819 
L 97.813482 62.844909 
L 97.813889 62.845062 
L 97.814716 62.845372 
L 97.815109 62.845519 
L 97.815529 62.845677 
L 97.815901 62.845816 
L 97.816098 62.84589 
L 97.816583 62.846072 
L 97.817238 62.846318 
L 97.817626 62.846463 
L 97.81792 62.846574 
L 97.818531 62.846803 
L 97.819125 62.847026 
L 97.819622 62.847212 
L 97.819733 62.847253 
L 97.820147 62.847409 
L 97.820575 62.847569 
L 97.821401 62.847879 
L 97.821641 62.847969 
L 97.822199 62.848178 
L 97.822751 62.848385 
L 97.822921 62.848449 
L 97.823273 62.848581 
L 97.824062 62.848877 
L 97.824377 62.848995 
L 97.824805 62.849156 
L 97.825181 62.849296 
L 97.825657 62.849475 
L 97.826276 62.849707 
L 97.826724 62.849875 
L 97.82702 62.849986 
L 97.827603 62.850205 
L 97.827781 62.850271 
L 97.828504 62.850543 
L 97.828761 62.850639 
L 97.829442 62.850894 
L 97.829842 62.851044 
L 97.830104 62.851143 
L 97.830415 62.851259 
L 97.830891 62.851438 
L 97.831709 62.851744 
L 97.83212 62.851899 
L 97.832367 62.851991 
L 97.83273 62.852127 
L 97.83327 62.85233 
L 97.833724 62.8525 
" style="fill:none;stroke:#0000ff;stroke-linecap:square;"/>
   </g>
   <g id="line2d_70">
    <path clip-path="url(#p05376f148e)" d="M 97.835285 62.853085 
L 97.835634 62.853216 
L 97.836217 62.853435 
L 97.836228 62.853439 
L 97.836915 62.853697 
L 97.837239 62.853818 
L 97.837729 62.854002 
L 97.838136 62.854154 
L 97.83857 62.854317 
L 97.839211 62.854558 
L 97.839769 62.854767 
L 97.840087 62.854886 
L 97.840277 62.854957 
L 97.841058 62.85525 
L 97.841272 62.855331 
L 97.841886 62.855561 
L 97.842071 62.85563 
L 97.842618 62.855835 
L 97.84319 62.85605 
L 97.84366 62.856226 
L 97.843982 62.856347 
L 97.844683 62.85661 
L 97.844917 62.856697 
L 97.845176 62.856794 
L 97.845709 62.856994 
L 97.846337 62.85723 
L 97.846645 62.857346 
L 97.847039 62.857493 
L 97.847593 62.857701 
L 97.848005 62.857855 
L 97.848542 62.858057 
L 97.848993 62.858226 
L 97.849523 62.858425 
L 97.849876 62.858557 
L 97.850109 62.858645 
L 97.850631 62.85884 
L 97.850993 62.858976 
L 97.851465 62.859153 
L 97.852056 62.859375 
L 97.852763 62.85964 
L 97.852824 62.859662 
L 97.853474 62.859906 
L 97.853896 62.860064 
L 97.854543 62.860307 
L 97.854561 62.860314 
L 97.855437 62.860643 
L 97.855588 62.860699 
L 97.856086 62.860886 
L 97.856727 62.861126 
L 97.857021 62.861237 
L 97.857513 62.861421 
L 97.85798 62.861596 
L 97.858353 62.861736 
L 97.858716 62.861872 
L 97.859322 62.862099 
L 97.859921 62.862324 
L 97.860273 62.862456 
L 97.860771 62.862643 
L 97.861248 62.862822 
L 97.861524 62.862925 
L 97.862161 62.863164 
L 97.862506 62.863293 
L 97.862915 62.863447 
L 97.863467 62.863654 
L 97.863692 62.863738 
L 97.864249 62.863947 
L 97.864415 62.864009 
L 97.865031 62.86424 
L 97.865567 62.864441 
L 97.865889 62.864562 
L 97.866489 62.864787 
L 97.867051 62.864998 
L 97.867266 62.865078 
L 97.867972 62.865343 
L 97.868204 62.86543 
" style="fill:none;stroke:#0000ff;stroke-linecap:square;"/>
   </g>
   <g id="line2d_71">
    <path clip-path="url(#p05376f148e)" d="M 97.868204 62.86543 
L 99.306554 61.800791 
L 99.306554 61.800791 
" style="fill:none;stroke:#0000ff;stroke-linecap:square;"/>
   </g>
   <g id="line2d_72">
    <path clip-path="url(#p05376f148e)" d="M 99.306554 61.800791 
L 99.32881 61.809137 
L 99.32881 61.809137 
" style="fill:none;stroke:#0000ff;stroke-linecap:square;"/>
   </g>
   <g id="line2d_73">
    <path clip-path="url(#p05376f148e)" d="M 99.32881 61.809137 
L 100.767159 60.744498 
L 100.767159 60.744498 
" style="fill:none;stroke:#0000ff;stroke-linecap:square;"/>
   </g>
   <g id="line2d_74">
    <path clip-path="url(#p05376f148e)" d="M 100.767159 60.744498 
L 101.123252 60.878032 
L 101.123252 60.878032 
" style="fill:none;stroke:#0000ff;stroke-linecap:square;"/>
   </g>
   <g id="line2d_75">
    <path clip-path="url(#p05376f148e)" d="M 101.123252 60.878032 
L 102.561602 59.813393 
L 102.561602 59.813393 
" style="fill:none;stroke:#0000ff;stroke-linecap:square;"/>
   </g>
   <g id="line2d_76">
    <path clip-path="url(#p05376f148e)" d="M 102.561602 59.813393 
L 102.583857 59.821739 
L 102.583857 59.821739 
" style="fill:none;stroke:#0000ff;stroke-linecap:square;"/>
   </g>
   <g id="line2d_77">
    <path clip-path="url(#p05376f148e)" d="M 102.583857 59.821739 
L 104.022207 58.757099 
L 104.022207 58.757099 
" style="fill:none;stroke:#0000ff;stroke-linecap:square;"/>
   </g>
   <g id="line2d_78">
    <path clip-path="url(#p05376f148e)" d="M 104.022207 58.757099 
L 104.11123 58.790483 
L 104.11123 58.790483 
" style="fill:none;stroke:#0000ff;stroke-linecap:square;"/>
   </g>
   <g id="line2d_79">
    <path clip-path="url(#p05376f148e)" d="M 104.11123 58.790483 
L 105.54958 57.725844 
L 105.54958 57.725844 
" style="fill:none;stroke:#0000ff;stroke-linecap:square;"/>
   </g>
   <g id="line2d_80">
    <path clip-path="url(#p05376f148e)" d="M 105.54958 57.725844 
L 105.571836 57.73419 
L 105.571836 57.73419 
" style="fill:none;stroke:#0000ff;stroke-linecap:square;"/>
   </g>
   <g id="line2d_81">
    <path clip-path="url(#p05376f148e)" d="M 105.571836 57.73419 
L 107.010185 56.66955 
L 107.010185 56.66955 
" style="fill:none;stroke:#0000ff;stroke-linecap:square;"/>
   </g>
   <g id="line2d_82">
    <path clip-path="url(#p05376f148e)" d="M 107.010185 56.66955 
L 108.434555 57.203689 
L 108.434555 57.203689 
" style="fill:none;stroke:#0000ff;stroke-linecap:square;"/>
   </g>
   <g id="line2d_83">
    <path clip-path="url(#p05376f148e)" d="M 108.434555 57.203689 
L 109.872905 56.13905 
L 109.872905 56.13905 
" style="fill:none;stroke:#0000ff;stroke-linecap:square;"/>
   </g>
   <g id="line2d_84">
    <path clip-path="url(#p05376f148e)" d="M 109.872905 56.13905 
L 109.895161 56.147396 
L 109.895161 56.147396 
" style="fill:none;stroke:#0000ff;stroke-linecap:square;"/>
   </g>
   <g id="line2d_85">
    <path clip-path="url(#p05376f148e)" d="M 109.895161 56.147396 
L 111.33351 55.082757 
L 111.33351 55.082757 
" style="fill:none;stroke:#0000ff;stroke-linecap:square;"/>
   </g>
   <g id="line2d_86">
    <path clip-path="url(#p05376f148e)" d="M 111.33351 55.082757 
L 111.422533 55.11614 
L 111.422533 55.11614 
" style="fill:none;stroke:#0000ff;stroke-linecap:square;"/>
   </g>
   <g id="line2d_87">
    <path clip-path="url(#p05376f148e)" d="M 111.422533 55.11614 
L 112.860883 54.051501 
L 112.860883 54.051501 
" style="fill:none;stroke:#0000ff;stroke-linecap:square;"/>
   </g>
   <g id="line2d_88">
    <path clip-path="url(#p05376f148e)" d="M 112.860883 54.051501 
L 112.883139 54.059847 
L 112.883139 54.059847 
" style="fill:none;stroke:#0000ff;stroke-linecap:square;"/>
   </g>
   <g id="line2d_89">
    <path clip-path="url(#p05376f148e)" d="M 112.883139 54.059847 
L 114.321489 52.995207 
L 114.321489 52.995207 
" style="fill:none;stroke:#0000ff;stroke-linecap:square;"/>
   </g>
   <g id="line2d_90">
    <path clip-path="url(#p05376f148e)" d="M 114.321489 52.995207 
L 114.322992 52.995771 
L 114.325374 52.996665 
L 114.327514 52.997467 
L 114.328699 52.997911 
L 114.330295 52.99851 
L 114.331565 52.998986 
L 114.334438 53.000064 
L 114.335616 53.000505 
L 114.337601 53.00125 
L 114.339727 53.002047 
L 114.340559 53.002359 
L 114.342935 53.00325 
L 114.345056 53.004045 
L 114.346787 53.004694 
L 114.349014 53.00553 
L 114.350717 53.006168 
L 114.351021 53.006282 
L 114.354043 53.007415 
L 114.356301 53.008262 
L 114.357433 53.008687 
L 114.358693 53.009159 
L 114.361585 53.010244 
L 114.362154 53.010457 
L 114.365132 53.011574 
L 114.366839 53.012214 
L 114.36815 53.012706 
L 114.37003 53.01341 
L 114.372336 53.014275 
L 114.374128 53.014947 
L 114.374878 53.015229 
L 114.37725 53.016118 
L 114.378388 53.016545 
L 114.380393 53.017297 
L 114.383176 53.01834 
L 114.383901 53.018612 
L 114.385303 53.019138 
L 114.388309 53.020265 
L 114.389647 53.020767 
L 114.39056 53.021109 
L 114.392707 53.021914 
L 114.394142 53.022453 
L 114.396008 53.023152 
L 114.398446 53.024066 
L 114.400753 53.024932 
L 114.401567 53.025237 
L 114.403122 53.02582 
L 114.405073 53.026552 
L 114.407689 53.027533 
L 114.409494 53.028209 
L 114.410966 53.028762 
L 114.412631 53.029386 
L 114.414466 53.030074 
" style="fill:none;stroke:#0000ff;stroke-linecap:square;"/>
   </g>
   <g id="line2d_91">
    <path clip-path="url(#p05376f148e)" d="M 114.419086 53.031807 
L 114.677581 53.128742 
L 114.677581 53.128742 
" style="fill:none;stroke:#0000ff;stroke-linecap:square;"/>
   </g>
   <g id="line2d_92">
    <path clip-path="url(#p05376f148e)" d="M 114.677581 53.128742 
L 116.115931 52.064103 
L 116.115931 52.064103 
" style="fill:none;stroke:#0000ff;stroke-linecap:square;"/>
   </g>
   <g id="line2d_93">
    <path clip-path="url(#p05376f148e)" d="M 116.115931 52.064103 
L 116.138186 52.072449 
L 116.138186 52.072449 
" style="fill:none;stroke:#0000ff;stroke-linecap:square;"/>
   </g>
   <g id="line2d_94">
    <path clip-path="url(#p05376f148e)" d="M 116.138186 52.072449 
L 117.576536 51.007809 
L 117.576536 51.007809 
" style="fill:none;stroke:#0000ff;stroke-linecap:square;"/>
   </g>
   <g id="line2d_95">
    <path clip-path="url(#p05376f148e)" d="M 117.576536 51.007809 
L 117.665559 51.041193 
L 117.665559 51.041193 
" style="fill:none;stroke:#0000ff;stroke-linecap:square;"/>
   </g>
   <g id="line2d_96">
    <path clip-path="url(#p05376f148e)" d="M 117.665559 51.041193 
L 119.103909 49.976554 
L 119.103909 49.976554 
" style="fill:none;stroke:#0000ff;stroke-linecap:square;"/>
   </g>
   <g id="line2d_97">
    <path clip-path="url(#p05376f148e)" d="M 119.103909 49.976554 
L 119.126165 49.9849 
L 119.126165 49.9849 
" style="fill:none;stroke:#0000ff;stroke-linecap:square;"/>
   </g>
   <g id="line2d_98">
    <path clip-path="url(#p05376f148e)" d="M 119.126165 49.9849 
L 120.564514 48.92026 
L 120.564514 48.92026 
" style="fill:none;stroke:#0000ff;stroke-linecap:square;"/>
   </g>
   <g id="line2d_99">
    <path clip-path="url(#p05376f148e)" d="M 120.564514 48.92026 
L 126.261995 51.056816 
L 126.261995 51.056816 
" style="fill:none;stroke:#0000ff;stroke-linecap:square;"/>
   </g>
   <g id="line2d_100">
    <path clip-path="url(#p05376f148e)" d="M 126.261995 51.056816 
L 127.700344 49.992176 
L 127.700344 49.992176 
" style="fill:none;stroke:#0000ff;stroke-linecap:square;"/>
   </g>
   <g id="line2d_101">
    <path clip-path="url(#p05376f148e)" d="M 127.700344 49.992176 
L 127.7226 50.000522 
L 127.7226 50.000522 
" style="fill:none;stroke:#0000ff;stroke-linecap:square;"/>
   </g>
   <g id="line2d_102">
    <path clip-path="url(#p05376f148e)" d="M 127.7226 50.000522 
L 129.16095 48.935883 
L 129.16095 48.935883 
" style="fill:none;stroke:#0000ff;stroke-linecap:square;"/>
   </g>
   <g id="line2d_103">
    <path clip-path="url(#p05376f148e)" d="M 129.16095 48.935883 
L 129.249973 48.969267 
L 129.249973 48.969267 
" style="fill:none;stroke:#0000ff;stroke-linecap:square;"/>
   </g>
   <g id="line2d_104">
    <path clip-path="url(#p05376f148e)" d="M 129.249973 48.969267 
L 130.688323 47.904627 
L 130.688323 47.904627 
" style="fill:none;stroke:#0000ff;stroke-linecap:square;"/>
   </g>
   <g id="line2d_105">
    <path clip-path="url(#p05376f148e)" d="M 130.688323 47.904627 
L 130.710578 47.912973 
L 130.710578 47.912973 
" style="fill:none;stroke:#0000ff;stroke-linecap:square;"/>
   </g>
   <g id="line2d_106">
    <path clip-path="url(#p05376f148e)" d="M 130.710578 47.912973 
L 132.148928 46.848334 
L 132.148928 46.848334 
" style="fill:none;stroke:#0000ff;stroke-linecap:square;"/>
   </g>
   <g id="line2d_107">
    <path clip-path="url(#p05376f148e)" d="M 132.148928 46.848334 
L 132.505021 46.981869 
L 132.505021 46.981869 
" style="fill:none;stroke:#0000ff;stroke-linecap:square;"/>
   </g>
   <g id="line2d_108">
    <path clip-path="url(#p05376f148e)" d="M 132.505021 46.981869 
L 133.94337 45.917229 
L 133.94337 45.917229 
" style="fill:none;stroke:#0000ff;stroke-linecap:square;"/>
   </g>
   <g id="line2d_109">
    <path clip-path="url(#p05376f148e)" d="M 133.94337 45.917229 
L 133.965626 45.925575 
L 133.965626 45.925575 
" style="fill:none;stroke:#0000ff;stroke-linecap:square;"/>
   </g>
   <g id="line2d_110">
    <path clip-path="url(#p05376f148e)" d="M 133.965626 45.925575 
L 135.403976 44.860936 
L 135.403976 44.860936 
" style="fill:none;stroke:#0000ff;stroke-linecap:square;"/>
   </g>
   <g id="line2d_111">
    <path clip-path="url(#p05376f148e)" d="M 135.403976 44.860936 
L 135.492999 44.89432 
L 135.492999 44.89432 
" style="fill:none;stroke:#0000ff;stroke-linecap:square;"/>
   </g>
   <g id="line2d_112">
    <path clip-path="url(#p05376f148e)" d="M 135.492999 44.89432 
L 136.931348 43.82968 
L 136.931348 43.82968 
" style="fill:none;stroke:#0000ff;stroke-linecap:square;"/>
   </g>
   <g id="line2d_113">
    <path clip-path="url(#p05376f148e)" d="M 136.931348 43.82968 
L 136.953604 43.838026 
L 136.953604 43.838026 
" style="fill:none;stroke:#0000ff;stroke-linecap:square;"/>
   </g>
   <g id="line2d_114">
    <path clip-path="url(#p05376f148e)" d="M 136.953604 43.838026 
L 138.391954 42.773387 
L 138.391954 42.773387 
" style="fill:none;stroke:#0000ff;stroke-linecap:square;"/>
   </g>
   <g id="line2d_115">
    <path clip-path="url(#p05376f148e)" d="M 138.391954 42.773387 
L 139.816324 43.307526 
L 139.816324 43.307526 
" style="fill:none;stroke:#0000ff;stroke-linecap:square;"/>
   </g>
   <g id="line2d_116">
    <path clip-path="url(#p05376f148e)" d="M 139.816324 43.307526 
L 141.254674 42.242886 
L 141.254674 42.242886 
" style="fill:none;stroke:#0000ff;stroke-linecap:square;"/>
   </g>
   <g id="line2d_117">
    <path clip-path="url(#p05376f148e)" d="M 141.254674 42.242886 
L 141.276929 42.251232 
L 141.276929 42.251232 
" style="fill:none;stroke:#0000ff;stroke-linecap:square;"/>
   </g>
   <g id="line2d_118">
    <path clip-path="url(#p05376f148e)" d="M 141.276929 42.251232 
L 142.715279 41.186593 
L 142.715279 41.186593 
" style="fill:none;stroke:#0000ff;stroke-linecap:square;"/>
   </g>
   <g id="line2d_119">
    <path clip-path="url(#p05376f148e)" d="M 142.715279 41.186593 
L 142.804302 41.219977 
L 142.804302 41.219977 
" style="fill:none;stroke:#0000ff;stroke-linecap:square;"/>
   </g>
   <g id="line2d_120">
    <path clip-path="url(#p05376f148e)" d="M 142.804302 41.219977 
L 144.242652 40.155337 
L 144.242652 40.155337 
" style="fill:none;stroke:#0000ff;stroke-linecap:square;"/>
   </g>
   <g id="line2d_121">
    <path clip-path="url(#p05376f148e)" d="M 144.242652 40.155337 
L 144.264907 40.163683 
L 144.264907 40.163683 
" style="fill:none;stroke:#0000ff;stroke-linecap:square;"/>
   </g>
   <g id="line2d_122">
    <path clip-path="url(#p05376f148e)" d="M 144.264907 40.163683 
L 145.703257 39.099044 
L 145.703257 39.099044 
" style="fill:none;stroke:#0000ff;stroke-linecap:square;"/>
   </g>
   <g id="line2d_123">
    <path clip-path="url(#p05376f148e)" d="M 145.703257 39.099044 
L 146.05935 39.232579 
L 146.05935 39.232579 
" style="fill:none;stroke:#0000ff;stroke-linecap:square;"/>
   </g>
   <g id="line2d_124">
    <path clip-path="url(#p05376f148e)" d="M 146.05935 39.232579 
L 147.497699 38.167939 
L 147.497699 38.167939 
" style="fill:none;stroke:#0000ff;stroke-linecap:square;"/>
   </g>
   <g id="line2d_125">
    <path clip-path="url(#p05376f148e)" d="M 147.497699 38.167939 
L 147.519955 38.176285 
L 147.519955 38.176285 
" style="fill:none;stroke:#0000ff;stroke-linecap:square;"/>
   </g>
   <g id="line2d_126">
    <path clip-path="url(#p05376f148e)" d="M 147.519955 38.176285 
L 148.958305 37.111646 
L 148.958305 37.111646 
" style="fill:none;stroke:#0000ff;stroke-linecap:square;"/>
   </g>
   <g id="line2d_127">
    <path clip-path="url(#p05376f148e)" d="M 148.958305 37.111646 
L 149.047328 37.145029 
L 149.047328 37.145029 
" style="fill:none;stroke:#0000ff;stroke-linecap:square;"/>
   </g>
   <g id="line2d_128">
    <path clip-path="url(#p05376f148e)" d="M 149.047328 37.145029 
L 150.485677 36.08039 
L 150.485677 36.08039 
" style="fill:none;stroke:#0000ff;stroke-linecap:square;"/>
   </g>
   <g id="line2d_129">
    <path clip-path="url(#p05376f148e)" d="M 150.485677 36.08039 
L 150.507933 36.088736 
L 150.507933 36.088736 
" style="fill:none;stroke:#0000ff;stroke-linecap:square;"/>
   </g>
   <g id="line2d_130">
    <path clip-path="url(#p05376f148e)" d="M 150.507933 36.088736 
L 151.946283 35.024097 
L 151.946283 35.024097 
" style="fill:none;stroke:#0000ff;stroke-linecap:square;"/>
   </g>
   <g id="line2d_131">
    <path clip-path="url(#p05376f148e)" d="M 151.946283 35.024097 
L 243.105972 69.20898 
L 243.105972 69.20898 
" style="fill:none;stroke:#0000ff;stroke-linecap:square;"/>
   </g>
   <g id="line2d_132">
    <path clip-path="url(#p05376f148e)" d="M 243.105972 69.20898 
L 244.544321 68.144341 
L 244.544321 68.144341 
" style="fill:none;stroke:#0000ff;stroke-linecap:square;"/>
   </g>
   <g id="line2d_133">
    <path clip-path="url(#p05376f148e)" d="M 244.544321 68.144341 
L 244.566577 68.152687 
L 244.566577 68.152687 
" style="fill:none;stroke:#0000ff;stroke-linecap:square;"/>
   </g>
   <g id="line2d_134">
    <path clip-path="url(#p05376f148e)" d="M 244.566577 68.152687 
L 246.004927 67.088047 
L 246.004927 67.088047 
" style="fill:none;stroke:#0000ff;stroke-linecap:square;"/>
   </g>
   <g id="line2d_135">
    <path clip-path="url(#p05376f148e)" d="M 246.004927 67.088047 
L 246.09395 67.121431 
L 246.09395 67.121431 
" style="fill:none;stroke:#0000ff;stroke-linecap:square;"/>
   </g>
   <g id="line2d_136">
    <path clip-path="url(#p05376f148e)" d="M 246.09395 67.121431 
L 247.5323 66.056792 
L 247.5323 66.056792 
" style="fill:none;stroke:#0000ff;stroke-linecap:square;"/>
   </g>
   <g id="line2d_137">
    <path clip-path="url(#p05376f148e)" d="M 247.5323 66.056792 
L 247.554555 66.065138 
L 247.554555 66.065138 
" style="fill:none;stroke:#0000ff;stroke-linecap:square;"/>
   </g>
   <g id="line2d_138">
    <path clip-path="url(#p05376f148e)" d="M 247.554555 66.065138 
L 248.992905 65.000498 
L 248.992905 65.000498 
" style="fill:none;stroke:#0000ff;stroke-linecap:square;"/>
   </g>
   <g id="line2d_139">
    <path clip-path="url(#p05376f148e)" d="M 248.992905 65.000498 
L 249.348998 65.134033 
L 249.348998 65.134033 
" style="fill:none;stroke:#0000ff;stroke-linecap:square;"/>
   </g>
   <g id="line2d_140">
    <path clip-path="url(#p05376f148e)" d="M 249.348998 65.134033 
L 250.787347 64.069394 
L 250.787347 64.069394 
" style="fill:none;stroke:#0000ff;stroke-linecap:square;"/>
   </g>
   <g id="line2d_141">
    <path clip-path="url(#p05376f148e)" d="M 250.787347 64.069394 
L 250.809603 64.07774 
L 250.809603 64.07774 
" style="fill:none;stroke:#0000ff;stroke-linecap:square;"/>
   </g>
   <g id="line2d_142">
    <path clip-path="url(#p05376f148e)" d="M 250.809603 64.07774 
L 252.247953 63.0131 
L 252.247953 63.0131 
" style="fill:none;stroke:#0000ff;stroke-linecap:square;"/>
   </g>
   <g id="line2d_143">
    <path clip-path="url(#p05376f148e)" d="M 252.247953 63.0131 
L 252.336976 63.046484 
L 252.336976 63.046484 
" style="fill:none;stroke:#0000ff;stroke-linecap:square;"/>
   </g>
   <g id="line2d_144">
    <path clip-path="url(#p05376f148e)" d="M 252.336976 63.046484 
L 253.775325 61.981845 
L 253.775325 61.981845 
" style="fill:none;stroke:#0000ff;stroke-linecap:square;"/>
   </g>
   <g id="line2d_145">
    <path clip-path="url(#p05376f148e)" d="M 253.775325 61.981845 
L 253.797581 61.990191 
L 253.797581 61.990191 
" style="fill:none;stroke:#0000ff;stroke-linecap:square;"/>
   </g>
   <g id="line2d_146">
    <path clip-path="url(#p05376f148e)" d="M 253.797581 61.990191 
L 255.235931 60.925551 
L 255.235931 60.925551 
" style="fill:none;stroke:#0000ff;stroke-linecap:square;"/>
   </g>
   <g id="line2d_147">
    <path clip-path="url(#p05376f148e)" d="M 255.235931 60.925551 
L 256.660301 61.45969 
L 256.660301 61.45969 
" style="fill:none;stroke:#0000ff;stroke-linecap:square;"/>
   </g>
   <g id="line2d_148">
    <path clip-path="url(#p05376f148e)" d="M 256.660301 61.45969 
L 258.098651 60.395051 
L 258.098651 60.395051 
" style="fill:none;stroke:#0000ff;stroke-linecap:square;"/>
   </g>
   <g id="line2d_149">
    <path clip-path="url(#p05376f148e)" d="M 258.098651 60.395051 
L 258.120906 60.403397 
L 258.120906 60.403397 
" style="fill:none;stroke:#0000ff;stroke-linecap:square;"/>
   </g>
   <g id="line2d_150">
    <path clip-path="url(#p05376f148e)" d="M 258.120906 60.403397 
L 259.559256 59.338757 
L 259.559256 59.338757 
" style="fill:none;stroke:#0000ff;stroke-linecap:square;"/>
   </g>
   <g id="line2d_151">
    <path clip-path="url(#p05376f148e)" d="M 259.559256 59.338757 
L 259.648279 59.372141 
L 259.648279 59.372141 
" style="fill:none;stroke:#0000ff;stroke-linecap:square;"/>
   </g>
   <g id="line2d_152">
    <path clip-path="url(#p05376f148e)" d="M 259.648279 59.372141 
L 261.086629 58.307502 
L 261.086629 58.307502 
" style="fill:none;stroke:#0000ff;stroke-linecap:square;"/>
   </g>
   <g id="line2d_153">
    <path clip-path="url(#p05376f148e)" d="M 261.086629 58.307502 
L 261.108885 58.315848 
L 261.108885 58.315848 
" style="fill:none;stroke:#0000ff;stroke-linecap:square;"/>
   </g>
   <g id="line2d_154">
    <path clip-path="url(#p05376f148e)" d="M 261.108885 58.315848 
L 262.547234 57.251208 
L 262.547234 57.251208 
" style="fill:none;stroke:#0000ff;stroke-linecap:square;"/>
   </g>
   <g id="line2d_155">
    <path clip-path="url(#p05376f148e)" d="M 262.547234 57.251208 
L 262.903327 57.384743 
L 262.903327 57.384743 
" style="fill:none;stroke:#0000ff;stroke-linecap:square;"/>
   </g>
   <g id="line2d_156">
    <path clip-path="url(#p05376f148e)" d="M 262.903327 57.384743 
L 264.341676 56.320104 
L 264.341676 56.320104 
" style="fill:none;stroke:#0000ff;stroke-linecap:square;"/>
   </g>
   <g id="line2d_157">
    <path clip-path="url(#p05376f148e)" d="M 264.341676 56.320104 
L 264.363932 56.32845 
L 264.363932 56.32845 
" style="fill:none;stroke:#0000ff;stroke-linecap:square;"/>
   </g>
   <g id="line2d_158">
    <path clip-path="url(#p05376f148e)" d="M 264.363932 56.32845 
L 265.802282 55.26381 
L 265.802282 55.26381 
" style="fill:none;stroke:#0000ff;stroke-linecap:square;"/>
   </g>
   <g id="line2d_159">
    <path clip-path="url(#p05376f148e)" d="M 265.802282 55.26381 
L 265.891305 55.297194 
L 265.891305 55.297194 
" style="fill:none;stroke:#0000ff;stroke-linecap:square;"/>
   </g>
   <g id="line2d_160">
    <path clip-path="url(#p05376f148e)" d="M 265.891305 55.297194 
L 267.329654 54.232555 
L 267.329654 54.232555 
" style="fill:none;stroke:#0000ff;stroke-linecap:square;"/>
   </g>
   <g id="line2d_161">
    <path clip-path="url(#p05376f148e)" d="M 267.329654 54.232555 
L 267.35191 54.240901 
L 267.35191 54.240901 
" style="fill:none;stroke:#0000ff;stroke-linecap:square;"/>
   </g>
   <g id="line2d_162">
    <path clip-path="url(#p05376f148e)" d="M 267.35191 54.240901 
L 268.79026 53.176261 
L 268.79026 53.176261 
" style="fill:none;stroke:#0000ff;stroke-linecap:square;"/>
   </g>
   <g id="line2d_163">
    <path clip-path="url(#p05376f148e)" d="M 268.79026 53.176261 
L 274.48774 55.312817 
L 274.48774 55.312817 
" style="fill:none;stroke:#0000ff;stroke-linecap:square;"/>
   </g>
   <g id="line2d_164">
    <path clip-path="url(#p05376f148e)" d="M 274.48774 55.312817 
L 275.92609 54.248177 
L 275.92609 54.248177 
" style="fill:none;stroke:#0000ff;stroke-linecap:square;"/>
   </g>
   <g id="line2d_165">
    <path clip-path="url(#p05376f148e)" d="M 275.92609 54.248177 
L 275.948346 54.256523 
L 275.948346 54.256523 
" style="fill:none;stroke:#0000ff;stroke-linecap:square;"/>
   </g>
   <g id="line2d_166">
    <path clip-path="url(#p05376f148e)" d="M 275.948346 54.256523 
L 277.386695 53.191884 
L 277.386695 53.191884 
" style="fill:none;stroke:#0000ff;stroke-linecap:square;"/>
   </g>
   <g id="line2d_167">
    <path clip-path="url(#p05376f148e)" d="M 277.386695 53.191884 
L 277.475719 53.225267 
L 277.475719 53.225267 
" style="fill:none;stroke:#0000ff;stroke-linecap:square;"/>
   </g>
   <g id="line2d_168">
    <path clip-path="url(#p05376f148e)" d="M 277.475719 53.225267 
L 278.914068 52.160628 
L 278.914068 52.160628 
" style="fill:none;stroke:#0000ff;stroke-linecap:square;"/>
   </g>
   <g id="line2d_169">
    <path clip-path="url(#p05376f148e)" d="M 278.914068 52.160628 
L 278.936324 52.168974 
L 278.936324 52.168974 
" style="fill:none;stroke:#0000ff;stroke-linecap:square;"/>
   </g>
   <g id="line2d_170">
    <path clip-path="url(#p05376f148e)" d="M 278.936324 52.168974 
L 280.374674 51.104335 
L 280.374674 51.104335 
" style="fill:none;stroke:#0000ff;stroke-linecap:square;"/>
   </g>
   <g id="line2d_171">
    <path clip-path="url(#p05376f148e)" d="M 280.374674 51.104335 
L 280.730766 51.237869 
L 280.730766 51.237869 
" style="fill:none;stroke:#0000ff;stroke-linecap:square;"/>
   </g>
   <g id="line2d_172">
    <path clip-path="url(#p05376f148e)" d="M 280.730766 51.237869 
L 282.169116 50.17323 
L 282.169116 50.17323 
" style="fill:none;stroke:#0000ff;stroke-linecap:square;"/>
   </g>
   <g id="line2d_173">
    <path clip-path="url(#p05376f148e)" d="M 282.169116 50.17323 
L 282.191372 50.181576 
L 282.191372 50.181576 
" style="fill:none;stroke:#0000ff;stroke-linecap:square;"/>
   </g>
   <g id="line2d_174">
    <path clip-path="url(#p05376f148e)" d="M 282.191372 50.181576 
L 283.629721 49.116937 
L 283.629721 49.116937 
" style="fill:none;stroke:#0000ff;stroke-linecap:square;"/>
   </g>
   <g id="line2d_175">
    <path clip-path="url(#p05376f148e)" d="M 283.629721 49.116937 
L 283.718744 49.15032 
L 283.718744 49.15032 
" style="fill:none;stroke:#0000ff;stroke-linecap:square;"/>
   </g>
   <g id="line2d_176">
    <path clip-path="url(#p05376f148e)" d="M 283.718744 49.15032 
L 285.157094 48.085681 
L 285.157094 48.085681 
" style="fill:none;stroke:#0000ff;stroke-linecap:square;"/>
   </g>
   <g id="line2d_177">
    <path clip-path="url(#p05376f148e)" d="M 285.157094 48.085681 
L 285.17935 48.094027 
L 285.17935 48.094027 
" style="fill:none;stroke:#0000ff;stroke-linecap:square;"/>
   </g>
   <g id="line2d_178">
    <path clip-path="url(#p05376f148e)" d="M 285.17935 48.094027 
L 286.617699 47.029388 
L 286.617699 47.029388 
" style="fill:none;stroke:#0000ff;stroke-linecap:square;"/>
   </g>
   <g id="line2d_179">
    <path clip-path="url(#p05376f148e)" d="M 286.617699 47.029388 
L 288.04207 47.563526 
L 288.04207 47.563526 
" style="fill:none;stroke:#0000ff;stroke-linecap:square;"/>
   </g>
   <g id="line2d_180">
    <path clip-path="url(#p05376f148e)" d="M 288.04207 47.563526 
L 289.480419 46.498887 
L 289.480419 46.498887 
" style="fill:none;stroke:#0000ff;stroke-linecap:square;"/>
   </g>
   <g id="line2d_181">
    <path clip-path="url(#p05376f148e)" d="M 289.480419 46.498887 
L 289.502675 46.507233 
L 289.502675 46.507233 
" style="fill:none;stroke:#0000ff;stroke-linecap:square;"/>
   </g>
   <g id="line2d_182">
    <path clip-path="url(#p05376f148e)" d="M 289.502675 46.507233 
L 290.941025 45.442594 
L 290.941025 45.442594 
" style="fill:none;stroke:#0000ff;stroke-linecap:square;"/>
   </g>
   <g id="line2d_183">
    <path clip-path="url(#p05376f148e)" d="M 290.941025 45.442594 
L 291.030048 45.475977 
L 291.030048 45.475977 
" style="fill:none;stroke:#0000ff;stroke-linecap:square;"/>
   </g>
   <g id="line2d_184">
    <path clip-path="url(#p05376f148e)" d="M 291.030048 45.475977 
L 292.468397 44.411338 
L 292.468397 44.411338 
" style="fill:none;stroke:#0000ff;stroke-linecap:square;"/>
   </g>
   <g id="line2d_185">
    <path clip-path="url(#p05376f148e)" d="M 292.468397 44.411338 
L 292.490653 44.419684 
L 292.490653 44.419684 
" style="fill:none;stroke:#0000ff;stroke-linecap:square;"/>
   </g>
   <g id="line2d_186">
    <path clip-path="url(#p05376f148e)" d="M 292.490653 44.419684 
L 293.929003 43.355045 
L 293.929003 43.355045 
" style="fill:none;stroke:#0000ff;stroke-linecap:square;"/>
   </g>
   <g id="line2d_187">
    <path clip-path="url(#p05376f148e)" d="M 293.929003 43.355045 
L 294.285095 43.488579 
L 294.285095 43.488579 
" style="fill:none;stroke:#0000ff;stroke-linecap:square;"/>
   </g>
   <g id="line2d_188">
    <path clip-path="url(#p05376f148e)" d="M 294.285095 43.488579 
L 295.723445 42.42394 
L 295.723445 42.42394 
" style="fill:none;stroke:#0000ff;stroke-linecap:square;"/>
   </g>
   <g id="line2d_189">
    <path clip-path="url(#p05376f148e)" d="M 295.723445 42.42394 
L 295.745701 42.432286 
L 295.745701 42.432286 
" style="fill:none;stroke:#0000ff;stroke-linecap:square;"/>
   </g>
   <g id="line2d_190">
    <path clip-path="url(#p05376f148e)" d="M 295.745701 42.432286 
L 297.18405 41.367647 
L 297.18405 41.367647 
" style="fill:none;stroke:#0000ff;stroke-linecap:square;"/>
   </g>
   <g id="line2d_191">
    <path clip-path="url(#p05376f148e)" d="M 297.18405 41.367647 
L 297.273073 41.40103 
L 297.273073 41.40103 
" style="fill:none;stroke:#0000ff;stroke-linecap:square;"/>
   </g>
   <g id="line2d_192">
    <path clip-path="url(#p05376f148e)" d="M 297.273073 41.40103 
L 298.711423 40.336391 
L 298.711423 40.336391 
" style="fill:none;stroke:#0000ff;stroke-linecap:square;"/>
   </g>
   <g id="line2d_193">
    <path clip-path="url(#p05376f148e)" d="M 298.711423 40.336391 
L 298.733679 40.344737 
L 298.733679 40.344737 
" style="fill:none;stroke:#0000ff;stroke-linecap:square;"/>
   </g>
   <g id="line2d_194">
    <path clip-path="url(#p05376f148e)" d="M 298.733679 40.344737 
L 300.172028 39.280098 
L 300.172028 39.280098 
" style="fill:none;stroke:#0000ff;stroke-linecap:square;"/>
   </g>
   <g id="line2d_195">
    <path clip-path="url(#p05376f148e)" d="M 300.172028 39.280098 
L 322.961951 47.826318 
L 322.961951 47.826318 
" style="fill:none;stroke:#0000ff;stroke-linecap:square;"/>
   </g>
   <g id="line2d_196">
    <path clip-path="url(#p05376f148e)" d="M 322.961951 47.826318 
L 324.4003 46.761679 
L 324.4003 46.761679 
" style="fill:none;stroke:#0000ff;stroke-linecap:square;"/>
   </g>
   <g id="line2d_197">
    <path clip-path="url(#p05376f148e)" d="M 324.4003 46.761679 
L 324.422556 46.770025 
L 324.422556 46.770025 
" style="fill:none;stroke:#0000ff;stroke-linecap:square;"/>
   </g>
   <g id="line2d_198">
    <path clip-path="url(#p05376f148e)" d="M 324.422556 46.770025 
L 325.860906 45.705386 
L 325.860906 45.705386 
" style="fill:none;stroke:#0000ff;stroke-linecap:square;"/>
   </g>
   <g id="line2d_199">
    <path clip-path="url(#p05376f148e)" d="M 325.860906 45.705386 
L 325.949929 45.738769 
L 325.949929 45.738769 
" style="fill:none;stroke:#0000ff;stroke-linecap:square;"/>
   </g>
   <g id="line2d_200">
    <path clip-path="url(#p05376f148e)" d="M 325.949929 45.738769 
L 327.388278 44.67413 
L 327.388278 44.67413 
" style="fill:none;stroke:#0000ff;stroke-linecap:square;"/>
   </g>
   <g id="line2d_201">
    <path clip-path="url(#p05376f148e)" d="M 327.388278 44.67413 
L 327.410534 44.682476 
L 327.410534 44.682476 
" style="fill:none;stroke:#0000ff;stroke-linecap:square;"/>
   </g>
   <g id="line2d_202">
    <path clip-path="url(#p05376f148e)" d="M 327.410534 44.682476 
L 328.848884 43.617837 
L 328.848884 43.617837 
" style="fill:none;stroke:#0000ff;stroke-linecap:square;"/>
   </g>
   <g id="line2d_203">
    <path clip-path="url(#p05376f148e)" d="M 328.848884 43.617837 
L 329.204976 43.751371 
L 329.204976 43.751371 
" style="fill:none;stroke:#0000ff;stroke-linecap:square;"/>
   </g>
   <g id="line2d_204">
    <path clip-path="url(#p05376f148e)" d="M 329.204976 43.751371 
L 330.643326 42.686732 
L 330.643326 42.686732 
" style="fill:none;stroke:#0000ff;stroke-linecap:square;"/>
   </g>
   <g id="line2d_205">
    <path clip-path="url(#p05376f148e)" d="M 330.643326 42.686732 
L 330.665582 42.695078 
L 330.665582 42.695078 
" style="fill:none;stroke:#0000ff;stroke-linecap:square;"/>
   </g>
   <g id="line2d_206">
    <path clip-path="url(#p05376f148e)" d="M 330.665582 42.695078 
L 332.103931 41.630439 
L 332.103931 41.630439 
" style="fill:none;stroke:#0000ff;stroke-linecap:square;"/>
   </g>
   <g id="line2d_207">
    <path clip-path="url(#p05376f148e)" d="M 332.103931 41.630439 
L 332.192955 41.663822 
L 332.192955 41.663822 
" style="fill:none;stroke:#0000ff;stroke-linecap:square;"/>
   </g>
   <g id="line2d_208">
    <path clip-path="url(#p05376f148e)" d="M 332.192955 41.663822 
L 333.631304 40.599183 
L 333.631304 40.599183 
" style="fill:none;stroke:#0000ff;stroke-linecap:square;"/>
   </g>
   <g id="line2d_209">
    <path clip-path="url(#p05376f148e)" d="M 333.631304 40.599183 
L 333.65356 40.607529 
L 333.65356 40.607529 
" style="fill:none;stroke:#0000ff;stroke-linecap:square;"/>
   </g>
   <g id="line2d_210">
    <path clip-path="url(#p05376f148e)" d="M 333.65356 40.607529 
L 335.09191 39.54289 
L 335.09191 39.54289 
" style="fill:none;stroke:#0000ff;stroke-linecap:square;"/>
   </g>
   <g id="line2d_211">
    <path clip-path="url(#p05376f148e)" d="M 335.09191 39.54289 
L 336.51628 40.077028 
L 336.51628 40.077028 
" style="fill:none;stroke:#0000ff;stroke-linecap:square;"/>
   </g>
   <g id="line2d_212">
    <path clip-path="url(#p05376f148e)" d="M 336.51628 40.077028 
L 337.954629 39.012389 
L 337.954629 39.012389 
" style="fill:none;stroke:#0000ff;stroke-linecap:square;"/>
   </g>
   <g id="line2d_213">
    <path clip-path="url(#p05376f148e)" d="M 337.954629 39.012389 
L 337.976885 39.020735 
L 337.976885 39.020735 
" style="fill:none;stroke:#0000ff;stroke-linecap:square;"/>
   </g>
   <g id="line2d_214">
    <path clip-path="url(#p05376f148e)" d="M 337.976885 39.020735 
L 339.415235 37.956096 
L 339.415235 37.956096 
" style="fill:none;stroke:#0000ff;stroke-linecap:square;"/>
   </g>
   <g id="line2d_215">
    <path clip-path="url(#p05376f148e)" d="M 339.415235 37.956096 
L 339.504258 37.989479 
L 339.504258 37.989479 
" style="fill:none;stroke:#0000ff;stroke-linecap:square;"/>
   </g>
   <g id="line2d_216">
    <path clip-path="url(#p05376f148e)" d="M 339.504258 37.989479 
L 340.942608 36.92484 
L 340.942608 36.92484 
" style="fill:none;stroke:#0000ff;stroke-linecap:square;"/>
   </g>
   <g id="line2d_217">
    <path clip-path="url(#p05376f148e)" d="M 340.942608 36.92484 
L 340.964863 36.933186 
L 340.964863 36.933186 
" style="fill:none;stroke:#0000ff;stroke-linecap:square;"/>
   </g>
   <g id="line2d_218">
    <path clip-path="url(#p05376f148e)" d="M 340.964863 36.933186 
L 342.403213 35.868547 
L 342.403213 35.868547 
" style="fill:none;stroke:#0000ff;stroke-linecap:square;"/>
   </g>
   <g id="line2d_219">
    <path clip-path="url(#p05376f148e)" d="M 342.403213 35.868547 
L 342.759306 36.002081 
L 342.759306 36.002081 
" style="fill:none;stroke:#0000ff;stroke-linecap:square;"/>
   </g>
   <g id="line2d_220">
    <path clip-path="url(#p05376f148e)" d="M 342.759306 36.002081 
L 344.197655 34.937442 
L 344.197655 34.937442 
" style="fill:none;stroke:#0000ff;stroke-linecap:square;"/>
   </g>
   <g id="line2d_221">
    <path clip-path="url(#p05376f148e)" d="M 344.197655 34.937442 
L 344.219911 34.945788 
L 344.219911 34.945788 
" style="fill:none;stroke:#0000ff;stroke-linecap:square;"/>
   </g>
   <g id="line2d_222">
    <path clip-path="url(#p05376f148e)" d="M 344.219911 34.945788 
L 345.658261 33.881149 
L 345.658261 33.881149 
" style="fill:none;stroke:#0000ff;stroke-linecap:square;"/>
   </g>
   <g id="line2d_223">
    <path clip-path="url(#p05376f148e)" d="M 345.658261 33.881149 
L 345.747284 33.914532 
L 345.747284 33.914532 
" style="fill:none;stroke:#0000ff;stroke-linecap:square;"/>
   </g>
   <g id="line2d_224">
    <path clip-path="url(#p05376f148e)" d="M 345.747284 33.914532 
L 347.185633 32.849893 
L 347.185633 32.849893 
" style="fill:none;stroke:#0000ff;stroke-linecap:square;"/>
   </g>
   <g id="line2d_225">
    <path clip-path="url(#p05376f148e)" d="M 347.185633 32.849893 
L 347.207889 32.858239 
L 347.207889 32.858239 
" style="fill:none;stroke:#0000ff;stroke-linecap:square;"/>
   </g>
   <g id="line2d_226">
    <path clip-path="url(#p05376f148e)" d="M 347.207889 32.858239 
L 348.646239 31.7936 
L 348.646239 31.7936 
" style="fill:none;stroke:#0000ff;stroke-linecap:square;"/>
   </g>
   <g id="line2d_227">
    <path clip-path="url(#p05376f148e)" d="M 348.646239 31.7936 
L 354.343719 33.930155 
L 354.343719 33.930155 
" style="fill:none;stroke:#0000ff;stroke-linecap:square;"/>
   </g>
   <g id="line2d_228">
    <path clip-path="url(#p05376f148e)" d="M 354.343719 33.930155 
L 355.782069 32.865516 
L 355.782069 32.865516 
" style="fill:none;stroke:#0000ff;stroke-linecap:square;"/>
   </g>
   <g id="line2d_229">
    <path clip-path="url(#p05376f148e)" d="M 355.782069 32.865516 
L 355.804325 32.873861 
L 355.804325 32.873861 
" style="fill:none;stroke:#0000ff;stroke-linecap:square;"/>
   </g>
   <g id="line2d_230">
    <path clip-path="url(#p05376f148e)" d="M 355.804325 32.873861 
L 357.242674 31.809222 
L 357.242674 31.809222 
" style="fill:none;stroke:#0000ff;stroke-linecap:square;"/>
   </g>
   <g id="line2d_231">
    <path clip-path="url(#p05376f148e)" d="M 357.242674 31.809222 
L 357.331697 31.842606 
L 357.331697 31.842606 
" style="fill:none;stroke:#0000ff;stroke-linecap:square;"/>
   </g>
   <g id="line2d_232">
    <path clip-path="url(#p05376f148e)" d="M 357.331697 31.842606 
L 358.770047 30.777966 
L 358.770047 30.777966 
" style="fill:none;stroke:#0000ff;stroke-linecap:square;"/>
   </g>
   <g id="line2d_233">
    <path clip-path="url(#p05376f148e)" d="M 358.770047 30.777966 
L 358.792303 30.786312 
L 358.792303 30.786312 
" style="fill:none;stroke:#0000ff;stroke-linecap:square;"/>
   </g>
   <g id="line2d_234">
    <path clip-path="url(#p05376f148e)" d="M 358.792303 30.786312 
L 360.230652 29.721673 
L 360.230652 29.721673 
" style="fill:none;stroke:#0000ff;stroke-linecap:square;"/>
   </g>
   <g id="line2d_235">
    <path clip-path="url(#p05376f148e)" d="M 360.230652 29.721673 
L 360.586745 29.855208 
L 360.586745 29.855208 
" style="fill:none;stroke:#0000ff;stroke-linecap:square;"/>
   </g>
   <g id="line2d_236">
    <path clip-path="url(#p05376f148e)" d="M 360.586745 29.855208 
L 362.025095 28.790568 
L 362.025095 28.790568 
" style="fill:none;stroke:#0000ff;stroke-linecap:square;"/>
   </g>
   <g id="line2d_237">
    <path clip-path="url(#p05376f148e)" d="M 362.025095 28.790568 
L 362.04735 28.798914 
L 362.04735 28.798914 
" style="fill:none;stroke:#0000ff;stroke-linecap:square;"/>
   </g>
   <g id="line2d_238">
    <path clip-path="url(#p05376f148e)" d="M 362.04735 28.798914 
L 363.4857 27.734275 
L 363.4857 27.734275 
" style="fill:none;stroke:#0000ff;stroke-linecap:square;"/>
   </g>
   <g id="line2d_239">
    <path clip-path="url(#p05376f148e)" d="M 363.4857 27.734275 
L 363.574723 27.767659 
L 363.574723 27.767659 
" style="fill:none;stroke:#0000ff;stroke-linecap:square;"/>
   </g>
   <g id="line2d_240">
    <path clip-path="url(#p05376f148e)" d="M 363.574723 27.767659 
L 365.013073 26.703019 
L 365.013073 26.703019 
" style="fill:none;stroke:#0000ff;stroke-linecap:square;"/>
   </g>
   <g id="line2d_241">
    <path clip-path="url(#p05376f148e)" d="M 365.013073 26.703019 
L 365.035329 26.711365 
L 365.035329 26.711365 
" style="fill:none;stroke:#0000ff;stroke-linecap:square;"/>
   </g>
   <g id="line2d_242">
    <path clip-path="url(#p05376f148e)" d="M 365.035329 26.711365 
L 366.473678 25.646726 
L 366.473678 25.646726 
" style="fill:none;stroke:#0000ff;stroke-linecap:square;"/>
   </g>
   <g id="line2d_243">
    <path clip-path="url(#p05376f148e)" d="M 366.473678 25.646726 
L 367.898048 26.180865 
L 367.898048 26.180865 
" style="fill:none;stroke:#0000ff;stroke-linecap:square;"/>
   </g>
   <g id="line2d_244">
    <path clip-path="url(#p05376f148e)" d="M 367.898048 26.180865 
L 369.336398 25.116225 
L 369.336398 25.116225 
" style="fill:none;stroke:#0000ff;stroke-linecap:square;"/>
   </g>
   <g id="line2d_245">
    <path clip-path="url(#p05376f148e)" d="M 369.336398 25.116225 
L 369.358654 25.124571 
L 369.358654 25.124571 
" style="fill:none;stroke:#0000ff;stroke-linecap:square;"/>
   </g>
   <g id="line2d_246">
    <path clip-path="url(#p05376f148e)" d="M 369.358654 25.124571 
L 370.797003 24.059932 
L 370.797003 24.059932 
" style="fill:none;stroke:#0000ff;stroke-linecap:square;"/>
   </g>
   <g id="line2d_247">
    <path clip-path="url(#p05376f148e)" d="M 370.797003 24.059932 
L 370.886027 24.093316 
L 370.886027 24.093316 
" style="fill:none;stroke:#0000ff;stroke-linecap:square;"/>
   </g>
   <g id="line2d_248">
    <path clip-path="url(#p05376f148e)" d="M 370.886027 24.093316 
L 372.324376 23.028676 
L 372.324376 23.028676 
" style="fill:none;stroke:#0000ff;stroke-linecap:square;"/>
   </g>
   <g id="line2d_249">
    <path clip-path="url(#p05376f148e)" d="M 372.324376 23.028676 
L 372.346632 23.037022 
L 372.346632 23.037022 
" style="fill:none;stroke:#0000ff;stroke-linecap:square;"/>
   </g>
   <g id="line2d_250">
    <path clip-path="url(#p05376f148e)" d="M 372.346632 23.037022 
L 373.784982 21.972383 
L 373.784982 21.972383 
" style="fill:none;stroke:#0000ff;stroke-linecap:square;"/>
   </g>
   <g id="line2d_251">
    <path clip-path="url(#p05376f148e)" d="M 373.784982 21.972383 
L 374.141074 22.105918 
L 374.141074 22.105918 
" style="fill:none;stroke:#0000ff;stroke-linecap:square;"/>
   </g>
   <g id="line2d_252">
    <path clip-path="url(#p05376f148e)" d="M 374.141074 22.105918 
L 375.579424 21.041278 
L 375.579424 21.041278 
" style="fill:none;stroke:#0000ff;stroke-linecap:square;"/>
   </g>
   <g id="line2d_253">
    <path clip-path="url(#p05376f148e)" d="M 375.579424 21.041278 
L 375.601679 21.049624 
L 375.601679 21.049624 
" style="fill:none;stroke:#0000ff;stroke-linecap:square;"/>
   </g>
   <g id="line2d_254">
    <path clip-path="url(#p05376f148e)" d="M 375.601679 21.049624 
L 377.040029 19.984985 
L 377.040029 19.984985 
" style="fill:none;stroke:#0000ff;stroke-linecap:square;"/>
   </g>
   <g id="line2d_255">
    <path clip-path="url(#p05376f148e)" d="M 377.040029 19.984985 
L 377.129052 20.018369 
L 377.129052 20.018369 
" style="fill:none;stroke:#0000ff;stroke-linecap:square;"/>
   </g>
   <g id="line2d_256">
    <path clip-path="url(#p05376f148e)" d="M 377.129052 20.018369 
L 378.567402 18.953729 
L 378.567402 18.953729 
" style="fill:none;stroke:#0000ff;stroke-linecap:square;"/>
   </g>
   <g id="line2d_257">
    <path clip-path="url(#p05376f148e)" d="M 378.567402 18.953729 
L 378.589658 18.962075 
L 378.589658 18.962075 
" style="fill:none;stroke:#0000ff;stroke-linecap:square;"/>
   </g>
   <g id="line2d_258">
    <path clip-path="url(#p05376f148e)" d="M 378.589658 18.962075 
L 380.028007 17.897436 
L 380.028007 17.897436 
" style="fill:none;stroke:#0000ff;stroke-linecap:square;"/>
   </g>
   <g id="line2d_259">
    <path clip-path="url(#p05376f148e)" d="M 380.028007 17.897436 
L 562.529887 86.335641 
L 562.529887 86.335641 
" style="fill:none;stroke:#0000ff;stroke-linecap:square;"/>
   </g>
   <g id="matplotlib.axis_1">
    <g id="xtick_1">
     <g id="line2d_260">
      <path clip-path="url(#p05376f148e)" d="M 15.024247 87.704405 
L 15.024247 16.528672 
" style="fill:none;stroke:#000000;stroke-dasharray:0.5,0.825;stroke-dashoffset:0;stroke-width:0.5;"/>
     </g>
     <g id="line2d_261">
      <defs>
       <path d="M 0 0 
L 0 3.5 
" id="m113890b562" style="stroke:#000000;stroke-width:0.8;"/>
      </defs>
      <g>
       <use style="stroke:#000000;stroke-width:0.8;" x="15.024247" xlink:href="#m113890b562" y="86.335641"/>
      </g>
     </g>
    </g>
    <g id="xtick_2">
     <g id="line2d_262">
      <path clip-path="url(#p05376f148e)" d="M 380.028007 87.704405 
L 380.028007 16.528672 
" style="fill:none;stroke:#000000;stroke-dasharray:0.5,0.825;stroke-dashoffset:0;stroke-width:0.5;"/>
     </g>
     <g id="line2d_263">
      <g>
       <use style="stroke:#000000;stroke-width:0.8;" x="380.028007" xlink:href="#m113890b562" y="86.335641"/>
      </g>
     </g>
     <g id="text_1">
      <!-- $f$ -->
      <defs>
       <path d="M 9.71875 -16.5 
Q 11.578125 -17.921875 14.203125 -17.921875 
Q 17.78125 -17.921875 20.015625 -10.015625 
Q 20.953125 -6.203125 25.09375 15.09375 
L 29.6875 39.59375 
L 21.09375 39.59375 
Q 20.125 39.59375 20.125 40.921875 
Q 20.515625 43.109375 21.390625 43.109375 
L 30.328125 43.109375 
L 31.5 49.609375 
Q 32.078125 52.640625 32.5625 54.8125 
Q 33.0625 56.984375 33.625 58.828125 
Q 34.1875 60.6875 35.296875 62.984375 
Q 37.015625 66.265625 39.921875 68.390625 
Q 42.828125 70.515625 46.1875 70.515625 
Q 48.390625 70.515625 50.46875 69.703125 
Q 52.546875 68.890625 53.859375 67.28125 
Q 55.171875 65.671875 55.171875 63.484375 
Q 55.171875 60.9375 53.484375 59.046875 
Q 51.8125 57.171875 49.421875 57.171875 
Q 47.796875 57.171875 46.65625 58.171875 
Q 45.515625 59.1875 45.515625 60.796875 
Q 45.515625 62.984375 47 64.625 
Q 48.484375 66.265625 50.6875 66.5 
Q 48.828125 67.921875 46.09375 67.921875 
Q 44.578125 67.921875 43.234375 66.5 
Q 41.890625 65.09375 41.5 63.484375 
Q 40.875 60.9375 38.71875 49.703125 
L 37.5 43.109375 
L 47.796875 43.109375 
Q 48.78125 43.109375 48.78125 41.796875 
Q 48.734375 41.546875 48.578125 40.9375 
Q 48.4375 40.328125 48.171875 39.953125 
Q 47.90625 39.59375 47.515625 39.59375 
L 36.8125 39.59375 
L 32.171875 15.1875 
Q 31.296875 9.859375 30.140625 4.359375 
Q 29 -1.125 26.921875 -6.90625 
Q 24.859375 -12.703125 21.625 -16.609375 
Q 18.40625 -20.515625 14.015625 -20.515625 
Q 10.640625 -20.515625 7.984375 -18.578125 
Q 5.328125 -16.65625 5.328125 -13.484375 
Q 5.328125 -10.9375 6.953125 -9.046875 
Q 8.59375 -7.171875 11.078125 -7.171875 
Q 12.75 -7.171875 13.859375 -8.171875 
Q 14.984375 -9.1875 14.984375 -10.796875 
Q 14.984375 -12.9375 13.390625 -14.71875 
Q 11.8125 -16.5 9.71875 -16.5 
z
" id="Cmmi10-66"/>
      </defs>
      <g transform="translate(377.578007 100.913766)scale(0.1 -0.1)">
       <use transform="translate(0 0.484375)" xlink:href="#Cmmi10-66"/>
      </g>
     </g>
    </g>
    <g id="xtick_3">
     <g id="line2d_264">
      <path clip-path="url(#p05376f148e)" d="M 562.529887 87.704405 
L 562.529887 16.528672 
" style="fill:none;stroke:#000000;stroke-dasharray:0.5,0.825;stroke-dashoffset:0;stroke-width:0.5;"/>
     </g>
     <g id="line2d_265">
      <g>
       <use style="stroke:#000000;stroke-width:0.8;" x="562.529887" xlink:href="#m113890b562" y="86.335641"/>
      </g>
     </g>
     <g id="text_2">
      <!-- $1$ -->
      <defs>
       <path d="M 9.28125 0 
L 9.28125 3.515625 
Q 21.78125 3.515625 21.78125 6.6875 
L 21.78125 59.1875 
Q 16.609375 56.6875 8.6875 56.6875 
L 8.6875 60.203125 
Q 20.953125 60.203125 27.203125 66.609375 
L 28.609375 66.609375 
Q 28.953125 66.609375 29.265625 66.328125 
Q 29.59375 66.0625 29.59375 65.71875 
L 29.59375 6.6875 
Q 29.59375 3.515625 42.09375 3.515625 
L 42.09375 0 
z
" id="Cmr10-31"/>
      </defs>
      <g transform="translate(560.029887 100.934078)scale(0.1 -0.1)">
       <use transform="translate(0 0.390625)" xlink:href="#Cmr10-31"/>
      </g>
     </g>
    </g>
   </g>
   <g id="matplotlib.axis_2">
    <g id="ytick_1">
     <g id="line2d_266">
      <path clip-path="url(#p05376f148e)" d="M 4.074135 86.335641 
L 573.48 86.335641 
" style="fill:none;stroke:#000000;stroke-dasharray:0.5,0.825;stroke-dashoffset:0;stroke-width:0.5;"/>
     </g>
     <g id="line2d_267">
      <defs>
       <path d="M 0 0 
L -3.5 0 
" id="m06e84908be" style="stroke:#000000;stroke-width:0.8;"/>
      </defs>
      <g>
       <use style="stroke:#000000;stroke-width:0.8;" x="15.024247" xlink:href="#m06e84908be" y="86.335641"/>
      </g>
     </g>
    </g>
    <g id="ytick_2">
     <g id="line2d_268">
      <path clip-path="url(#p05376f148e)" d="M 4.074135 17.897436 
L 573.48 17.897436 
" style="fill:none;stroke:#000000;stroke-dasharray:0.5,0.825;stroke-dashoffset:0;stroke-width:0.5;"/>
     </g>
     <g id="line2d_269">
      <g>
       <use style="stroke:#000000;stroke-width:0.8;" x="15.024247" xlink:href="#m06e84908be" y="17.897436"/>
      </g>
     </g>
     <g id="text_3">
      <!-- $1$ -->
      <g transform="translate(3.024247 21.696655)scale(0.1 -0.1)">
       <use transform="translate(0 0.390625)" xlink:href="#Cmr10-31"/>
      </g>
     </g>
    </g>
   </g>
   <g id="patch_3">
    <path d="M 15.024247 87.704405 
L 15.024247 16.528672 
" style="fill:none;stroke:#000000;stroke-linecap:square;stroke-linejoin:miter;stroke-width:0.8;"/>
   </g>
   <g id="patch_4">
    <path d="M 4.074135 86.335641 
L 573.48 86.335641 
" style="fill:none;stroke:#000000;stroke-linecap:square;stroke-linejoin:miter;stroke-width:0.8;"/>
   </g>
  </g>
 </g>
 <defs>
  <clipPath id="p05376f148e">
   <rect height="71.175733" width="569.405865" x="4.074135" y="16.528672"/>
  </clipPath>
 </defs>
</svg>
