<?xml version="1.0" encoding="utf-8" standalone="no"?>
<!DOCTYPE svg PUBLIC "-//W3C//DTD SVG 1.1//EN"
  "http://www.w3.org/Graphics/SVG/1.1/DTD/svg11.dtd">
<!-- Created with matplotlib (http://matplotlib.org/) -->
<svg height="108pt" version="1.1" viewBox="0 0 576 108" width="576pt" xmlns="http://www.w3.org/2000/svg" xmlns:xlink="http://www.w3.org/1999/xlink">
 <defs>
  <style type="text/css">
*{stroke-linecap:butt;stroke-linejoin:round;}
  </style>
 </defs>
 <g id="figure_1">
  <g id="patch_1">
   <path d="M 0 108 
L 576 108 
L 576 0 
L 0 0 
z
" style="fill:#ffffff;"/>
  </g>
  <g id="axes_1">
   <g id="patch_2">
    <path d="M 4.074135 87.704405 
L 573.48 87.704405 
L 573.48 16.528672 
L 4.074135 16.528672 
z
" style="fill:#ffffff;"/>
   </g>
   <g id="line2d_1">
    <path clip-path="url(#p538c0ead36)" d="M 15.024247 86.335641 
L 35.302234 61.008116 
L 35.302234 61.008116 
" style="fill:none;stroke:#ff0000;stroke-linecap:square;stroke-width:2;"/>
   </g>
   <g id="line2d_2">
    <path clip-path="url(#p538c0ead36)" d="M 55.580221 64.780301 
L 75.858207 39.452776 
L 75.858207 39.452776 
" style="fill:none;stroke:#ff0000;stroke-linecap:square;stroke-width:2;"/>
   </g>
   <g id="line2d_3">
    <path clip-path="url(#p538c0ead36)" d="M 96.136194 43.224961 
L 116.414181 17.897436 
L 116.414181 17.897436 
" style="fill:none;stroke:#ff0000;stroke-linecap:square;stroke-width:2;"/>
   </g>
   <g id="line2d_4">
    <path clip-path="url(#p538c0ead36)" d="M 136.692167 65.319184 
L 156.970154 39.99166 
L 156.970154 39.99166 
" style="fill:none;stroke:#ff0000;stroke-linecap:square;stroke-width:2;"/>
   </g>
   <g id="line2d_5">
    <path clip-path="url(#p538c0ead36)" d="M 521.973914 64.241417 
L 542.251901 38.913893 
L 542.251901 38.913893 
" style="fill:none;stroke:#ff0000;stroke-linecap:square;stroke-width:2;"/>
   </g>
   <g id="line2d_6">
    <path clip-path="url(#p538c0ead36)" d="M 116.414181 17.897436 
L 136.692167 65.319184 
L 136.692167 65.319184 
" style="fill:none;stroke:#ffff00;stroke-linecap:square;stroke-width:2;"/>
   </g>
   <g id="line2d_7">
    <path clip-path="url(#p538c0ead36)" d="M 542.251901 38.913893 
L 562.529887 86.335641 
L 562.529887 86.335641 
" style="fill:none;stroke:#ffff00;stroke-linecap:square;stroke-width:2;"/>
   </g>
   <g id="line2d_8">
    <path clip-path="url(#p538c0ead36)" d="M 197.526127 62.085883 
L 238.082101 55.080398 
L 238.082101 55.080398 
" style="fill:none;stroke:#00ff00;stroke-linecap:square;stroke-width:2;"/>
   </g>
   <g id="line2d_9">
    <path clip-path="url(#p538c0ead36)" d="M 278.638074 33.525058 
L 298.916061 30.022315 
L 298.916061 30.022315 
" style="fill:none;stroke:#00ff00;stroke-linecap:square;stroke-width:2;"/>
   </g>
   <g id="line2d_10">
    <path clip-path="url(#p538c0ead36)" d="M 380.028007 74.210762 
L 400.305994 70.708019 
L 400.305994 70.708019 
" style="fill:none;stroke:#00ff00;stroke-linecap:square;stroke-width:2;"/>
   </g>
   <g id="line2d_11">
    <path clip-path="url(#p538c0ead36)" d="M 440.861967 49.152679 
L 481.417941 42.147194 
L 481.417941 42.147194 
" style="fill:none;stroke:#00ff00;stroke-linecap:square;stroke-width:2;"/>
   </g>
   <g id="line2d_12">
    <path clip-path="url(#p538c0ead36)" d="M 238.082101 55.080398 
L 278.638074 33.525058 
L 278.638074 33.525058 
" style="fill:none;stroke:#00ffff;stroke-linecap:square;stroke-width:2;"/>
   </g>
   <g id="line2d_13">
    <path clip-path="url(#p538c0ead36)" d="M 400.305994 70.708019 
L 400.530987 70.588436 
L 400.671006 70.514017 
L 400.884369 70.400615 
L 401.113686 70.278734 
L 401.250031 70.206268 
L 401.566617 70.038003 
L 401.71879 69.957124 
L 401.899958 69.860834 
L 402.174287 69.715029 
L 402.44543 69.570918 
L 402.487538 69.548537 
L 402.723495 69.423127 
L 402.998152 69.277148 
L 403.172086 69.184703 
L 403.276224 69.129354 
L 403.625044 68.943958 
L 403.681849 68.913765 
L 403.996063 68.746762 
L 404.154058 68.662788 
L 404.306026 68.582018 
L 404.649622 68.399398 
L 404.802434 68.318179 
L 404.962997 68.232841 
L 405.222997 68.094652 
L 405.420784 67.989529 
L 405.546486 67.922719 
L 405.831234 67.771376 
L 406.020368 67.670852 
L 406.274754 67.535647 
L 406.332413 67.505001 
L 406.536805 67.396368 
L 406.79845 67.257304 
L 406.956736 67.173176 
L 407.282961 66.999789 
L 407.498885 66.885026 
L 407.596321 66.833239 
L 407.867918 66.688887 
L 408.024718 66.605548 
L 408.206148 66.509119 
L 408.363809 66.425322 
L 408.645927 66.275378 
L 408.766148 66.211481 
L 409.024396 66.074223 
L 409.216899 65.971908 
L 409.480329 65.831896 
L 409.693221 65.718745 
L 409.877129 65.620999 
L 410.104742 65.500023 
L 410.270384 65.411985 
L 410.552553 65.262013 
L 410.723448 65.171184 
L 410.974789 65.037597 
L 411.01457 65.016453 
L 411.356783 64.834569 
L 411.467057 64.775958 
L 411.624794 64.692122 
L 411.930507 64.529636 
L 412.15511 64.410261 
L 412.421009 64.268937 
L 412.585229 64.181654 
L 412.703393 64.118851 
L 413.036199 63.941965 
L 413.138378 63.887658 
L 413.35438 63.772853 
L 413.498929 63.696026 
L 413.772519 63.550615 
L 413.986513 63.436877 
L 414.249379 63.297165 
L 414.400381 63.216908 
L 414.499853 63.164039 
L 414.751408 63.030339 
L 415.025757 62.884523 
L 415.163619 62.81125 
L 415.383134 62.694579 
L 415.529592 62.616737 
L 415.747336 62.501007 
L 416.032962 62.349198 
L 416.109279 62.308635 
L 416.435101 62.135462 
L 416.597962 62.048902 
L 416.831829 61.924603 
L 417.104002 61.779944 
L 417.243005 61.706065 
L 417.523275 61.557102 
L 417.680765 61.473397 
L 417.887796 61.363361 
L 418.050378 61.276949 
L 418.274268 61.157952 
L 418.535819 61.018939 
L 418.715984 60.923182 
L 418.821647 60.867023 
L 419.129447 60.703428 
L 419.220622 60.654969 
L 419.537521 60.486538 
L 419.637667 60.433311 
L 419.920074 60.283213 
L 420.15851 60.156485 
L 420.374946 60.04145 
" style="fill:none;stroke:#00ffff;stroke-linecap:square;stroke-width:2;"/>
   </g>
   <g id="line2d_14">
    <path clip-path="url(#p538c0ead36)" d="M 420.9778 59.721036 
L 421.186825 59.60994 
L 421.247342 59.577775 
L 421.459952 59.464774 
L 421.666258 59.355123 
L 421.973523 59.191813 
L 422.18061 59.081747 
L 422.341151 58.99642 
L 422.484314 58.92033 
L 422.770884 58.768019 
L 423.024417 58.633267 
L 423.065994 58.611169 
L 423.346574 58.462042 
L 423.626959 58.313018 
L 423.696259 58.276186 
L 423.940088 58.146591 
L 424.053501 58.086313 
L 424.414102 57.894655 
L 424.615503 57.787611 
L 424.777555 57.701481 
L 424.964888 57.601914 
L 425.163021 57.496608 
L 425.465264 57.335966 
L 425.640944 57.242593 
L 425.6814 57.221091 
L 425.912172 57.098437 
L 426.087726 57.00513 
L 426.422284 56.827314 
L 426.563817 56.75209 
L 426.798269 56.627479 
L 427.016601 56.511437 
L 427.159303 56.435591 
L 427.44656 56.282915 
L 427.648053 56.175823 
L 427.787846 56.101523 
L 428.057226 55.958349 
L 428.187811 55.888943 
L 428.346439 55.804633 
L 428.630606 55.653599 
L 428.913374 55.50331 
L 429.03031 55.441158 
L 429.335208 55.279106 
L 429.411493 55.238561 
L 429.565482 55.156717 
L 429.935926 54.959827 
L 430.017574 54.916431 
L 430.320662 54.755341 
L 430.407331 54.709277 
L 430.687529 54.560353 
L 430.850002 54.473999 
L 431.150625 54.314219 
L 431.367018 54.199207 
L 431.580445 54.085772 
L 431.610013 54.070057 
L 431.983425 53.871589 
L 432.105453 53.806732 
L 432.317758 53.693893 
L 432.451732 53.622686 
L 432.807023 53.43385 
L 432.994592 53.334158 
L 433.157737 53.247447 
L 433.322256 53.160006 
L 433.426251 53.104733 
L 433.640091 52.991078 
L 433.962048 52.819959 
L 434.077312 52.758697 
L 434.263603 52.659684 
L 434.522108 52.52229 
L 434.656253 52.450992 
L 434.98588 52.275796 
L 435.077311 52.227201 
L 435.303818 52.106814 
L 435.619702 51.938923 
L 435.821208 51.831823 
L 435.870141 51.805815 
L 436.101709 51.682738 
L 436.361772 51.544515 
L 436.646756 51.393047 
L 436.697756 51.365941 
L 437.091427 51.156706 
L 437.294411 51.048821 
L 437.390856 50.997561 
L 437.632569 50.869092 
L 437.786586 50.787232 
L 438.108649 50.616057 
L 438.212125 50.56106 
L 438.421766 50.449637 
L 438.572615 50.369461 
L 438.7798 50.259343 
L 439.015416 50.134114 
L 439.203078 50.034372 
L 439.530763 49.860209 
L 439.686609 49.777377 
L 439.914317 49.656352 
L 439.980294 49.621285 
L 440.302273 49.450154 
L 440.507263 49.341203 
L 440.588868 49.29783 
L 440.861967 49.152679 
" style="fill:none;stroke:#00ffff;stroke-linecap:square;stroke-width:2;"/>
   </g>
   <g id="line2d_15">
    <path clip-path="url(#p538c0ead36)" d="M 35.302234 61.008116 
L 55.580221 64.780301 
L 55.580221 64.780301 
" style="fill:none;stroke:#0000ff;stroke-linecap:square;stroke-width:2;"/>
   </g>
   <g id="line2d_16">
    <path clip-path="url(#p538c0ead36)" d="M 75.858207 39.452776 
L 96.136194 43.224961 
L 96.136194 43.224961 
" style="fill:none;stroke:#0000ff;stroke-linecap:square;stroke-width:2;"/>
   </g>
   <g id="line2d_17">
    <path clip-path="url(#p538c0ead36)" d="M 156.970154 39.99166 
L 197.526127 62.085883 
L 197.526127 62.085883 
" style="fill:none;stroke:#ff00ff;stroke-linecap:square;stroke-width:2;"/>
   </g>
   <g id="line2d_18">
    <path clip-path="url(#p538c0ead36)" d="M 298.916061 30.022315 
L 380.028007 74.210762 
L 380.028007 74.210762 
" style="fill:none;stroke:#ff00ff;stroke-linecap:square;stroke-width:2;"/>
   </g>
   <g id="line2d_19">
    <path clip-path="url(#p538c0ead36)" d="M 481.417941 42.147194 
L 521.973914 64.241417 
L 521.973914 64.241417 
" style="fill:none;stroke:#ff00ff;stroke-linecap:square;stroke-width:2;"/>
   </g>
   <g id="matplotlib.axis_1">
    <g id="xtick_1">
     <g id="line2d_20">
      <path clip-path="url(#p538c0ead36)" d="M 15.024247 87.704405 
L 15.024247 16.528672 
" style="fill:none;stroke:#000000;stroke-dasharray:0.5,0.825;stroke-dashoffset:0;stroke-width:0.5;"/>
     </g>
     <g id="line2d_21">
      <defs>
       <path d="M 0 0 
L 0 3.5 
" id="mb96e8573f5" style="stroke:#000000;stroke-width:0.8;"/>
      </defs>
      <g>
       <use style="stroke:#000000;stroke-width:0.8;" x="15.024247" xlink:href="#mb96e8573f5" y="86.335641"/>
      </g>
     </g>
    </g>
    <g id="xtick_2">
     <g id="line2d_22">
      <path clip-path="url(#p538c0ead36)" d="M 116.414181 87.704405 
L 116.414181 16.528672 
" style="fill:none;stroke:#000000;stroke-dasharray:0.5,0.825;stroke-dashoffset:0;stroke-width:0.5;"/>
     </g>
     <g id="line2d_23">
      <g>
       <use style="stroke:#000000;stroke-width:0.8;" x="116.414181" xlink:href="#mb96e8573f5" y="86.335641"/>
      </g>
     </g>
     <g id="text_1">
      <!-- $f$ -->
      <defs>
       <path d="M 9.71875 -16.5 
Q 11.578125 -17.921875 14.203125 -17.921875 
Q 17.78125 -17.921875 20.015625 -10.015625 
Q 20.953125 -6.203125 25.09375 15.09375 
L 29.6875 39.59375 
L 21.09375 39.59375 
Q 20.125 39.59375 20.125 40.921875 
Q 20.515625 43.109375 21.390625 43.109375 
L 30.328125 43.109375 
L 31.5 49.609375 
Q 32.078125 52.640625 32.5625 54.8125 
Q 33.0625 56.984375 33.625 58.828125 
Q 34.1875 60.6875 35.296875 62.984375 
Q 37.015625 66.265625 39.921875 68.390625 
Q 42.828125 70.515625 46.1875 70.515625 
Q 48.390625 70.515625 50.46875 69.703125 
Q 52.546875 68.890625 53.859375 67.28125 
Q 55.171875 65.671875 55.171875 63.484375 
Q 55.171875 60.9375 53.484375 59.046875 
Q 51.8125 57.171875 49.421875 57.171875 
Q 47.796875 57.171875 46.65625 58.171875 
Q 45.515625 59.1875 45.515625 60.796875 
Q 45.515625 62.984375 47 64.625 
Q 48.484375 66.265625 50.6875 66.5 
Q 48.828125 67.921875 46.09375 67.921875 
Q 44.578125 67.921875 43.234375 66.5 
Q 41.890625 65.09375 41.5 63.484375 
Q 40.875 60.9375 38.71875 49.703125 
L 37.5 43.109375 
L 47.796875 43.109375 
Q 48.78125 43.109375 48.78125 41.796875 
Q 48.734375 41.546875 48.578125 40.9375 
Q 48.4375 40.328125 48.171875 39.953125 
Q 47.90625 39.59375 47.515625 39.59375 
L 36.8125 39.59375 
L 32.171875 15.1875 
Q 31.296875 9.859375 30.140625 4.359375 
Q 29 -1.125 26.921875 -6.90625 
Q 24.859375 -12.703125 21.625 -16.609375 
Q 18.40625 -20.515625 14.015625 -20.515625 
Q 10.640625 -20.515625 7.984375 -18.578125 
Q 5.328125 -16.65625 5.328125 -13.484375 
Q 5.328125 -10.9375 6.953125 -9.046875 
Q 8.59375 -7.171875 11.078125 -7.171875 
Q 12.75 -7.171875 13.859375 -8.171875 
Q 14.984375 -9.1875 14.984375 -10.796875 
Q 14.984375 -12.9375 13.390625 -14.71875 
Q 11.8125 -16.5 9.71875 -16.5 
z
" id="Cmmi10-66"/>
      </defs>
      <g transform="translate(113.964181 100.913766)scale(0.1 -0.1)">
       <use transform="translate(0 0.484375)" xlink:href="#Cmmi10-66"/>
      </g>
     </g>
    </g>
    <g id="xtick_3">
     <g id="line2d_24">
      <path clip-path="url(#p538c0ead36)" d="M 562.529887 87.704405 
L 562.529887 16.528672 
" style="fill:none;stroke:#000000;stroke-dasharray:0.5,0.825;stroke-dashoffset:0;stroke-width:0.5;"/>
     </g>
     <g id="line2d_25">
      <g>
       <use style="stroke:#000000;stroke-width:0.8;" x="562.529887" xlink:href="#mb96e8573f5" y="86.335641"/>
      </g>
     </g>
     <g id="text_2">
      <!-- $1$ -->
      <defs>
       <path d="M 9.28125 0 
L 9.28125 3.515625 
Q 21.78125 3.515625 21.78125 6.6875 
L 21.78125 59.1875 
Q 16.609375 56.6875 8.6875 56.6875 
L 8.6875 60.203125 
Q 20.953125 60.203125 27.203125 66.609375 
L 28.609375 66.609375 
Q 28.953125 66.609375 29.265625 66.328125 
Q 29.59375 66.0625 29.59375 65.71875 
L 29.59375 6.6875 
Q 29.59375 3.515625 42.09375 3.515625 
L 42.09375 0 
z
" id="Cmr10-31"/>
      </defs>
      <g transform="translate(560.029887 100.934078)scale(0.1 -0.1)">
       <use transform="translate(0 0.390625)" xlink:href="#Cmr10-31"/>
      </g>
     </g>
    </g>
   </g>
   <g id="matplotlib.axis_2">
    <g id="ytick_1">
     <g id="line2d_26">
      <path clip-path="url(#p538c0ead36)" d="M 4.074135 86.335641 
L 573.48 86.335641 
" style="fill:none;stroke:#000000;stroke-dasharray:0.5,0.825;stroke-dashoffset:0;stroke-width:0.5;"/>
     </g>
     <g id="line2d_27">
      <defs>
       <path d="M 0 0 
L -3.5 0 
" id="m7dddbcdf82" style="stroke:#000000;stroke-width:0.8;"/>
      </defs>
      <g>
       <use style="stroke:#000000;stroke-width:0.8;" x="15.024247" xlink:href="#m7dddbcdf82" y="86.335641"/>
      </g>
     </g>
    </g>
    <g id="ytick_2">
     <g id="line2d_28">
      <path clip-path="url(#p538c0ead36)" d="M 4.074135 17.897436 
L 573.48 17.897436 
" style="fill:none;stroke:#000000;stroke-dasharray:0.5,0.825;stroke-dashoffset:0;stroke-width:0.5;"/>
     </g>
     <g id="line2d_29">
      <g>
       <use style="stroke:#000000;stroke-width:0.8;" x="15.024247" xlink:href="#m7dddbcdf82" y="17.897436"/>
      </g>
     </g>
     <g id="text_3">
      <!-- $1$ -->
      <g transform="translate(3.024247 21.696655)scale(0.1 -0.1)">
       <use transform="translate(0 0.390625)" xlink:href="#Cmr10-31"/>
      </g>
     </g>
    </g>
   </g>
   <g id="patch_3">
    <path d="M 15.024247 87.704405 
L 15.024247 16.528672 
" style="fill:none;stroke:#000000;stroke-linecap:square;stroke-linejoin:miter;stroke-width:0.8;"/>
   </g>
   <g id="patch_4">
    <path d="M 4.074135 86.335641 
L 573.48 86.335641 
" style="fill:none;stroke:#000000;stroke-linecap:square;stroke-linejoin:miter;stroke-width:0.8;"/>
   </g>
  </g>
 </g>
 <defs>
  <clipPath id="p538c0ead36">
   <rect height="71.175733" width="569.405865" x="4.074135" y="16.528672"/>
  </clipPath>
 </defs>
</svg>
