<?xml version="1.0" encoding="utf-8" standalone="no"?>
<!DOCTYPE svg PUBLIC "-//W3C//DTD SVG 1.1//EN"
  "http://www.w3.org/Graphics/SVG/1.1/DTD/svg11.dtd">
<!-- Created with matplotlib (http://matplotlib.org/) -->
<svg height="108pt" version="1.1" viewBox="0 0 576 108" width="576pt" xmlns="http://www.w3.org/2000/svg" xmlns:xlink="http://www.w3.org/1999/xlink">
 <defs>
  <style type="text/css">
*{stroke-linecap:butt;stroke-linejoin:round;}
  </style>
 </defs>
 <g id="figure_1">
  <g id="patch_1">
   <path d="M 0 108 
L 576 108 
L 576 0 
L 0 0 
z
" style="fill:#ffffff;"/>
  </g>
  <g id="axes_1">
   <g id="patch_2">
    <path d="M 4.074135 87.704405 
L 573.48 87.704405 
L 573.48 16.528672 
L 4.074135 16.528672 
z
" style="fill:#ffffff;"/>
   </g>
   <g id="line2d_1">
    <path clip-path="url(#p1f81d0a65d)" d="M 141.371703 17.897436 
L 562.529887 86.335641 
L 562.529887 86.335641 
" style="fill:none;stroke:#ff0000;stroke-linecap:square;stroke-width:2;"/>
   </g>
   <g id="line2d_2">
    <path clip-path="url(#p1f81d0a65d)" d="M 15.024247 86.335641 
L 15.577063 86.036199 
L 16.495714 85.538597 
L 16.847434 85.348081 
L 17.707932 84.881979 
L 18.448137 84.481034 
L 18.782248 84.300057 
L 19.269572 84.03609 
L 19.956356 83.664082 
L 20.92635 83.138669 
L 21.060104 83.066219 
L 22.060276 82.524459 
L 22.648501 82.205837 
L 23.06278 81.981436 
L 23.854466 81.552606 
L 24.590699 81.153813 
L 25.454619 80.685857 
L 26.074149 80.350278 
L 26.348945 80.20143 
L 26.937801 79.882466 
L 27.915332 79.35297 
L 28.379452 79.101572 
L 29.089324 78.717058 
L 29.325789 78.588973 
L 30.080168 78.180351 
L 30.961235 77.703106 
L 31.335368 77.500451 
L 32.228724 77.01655 
L 32.588787 76.821515 
L 33.302416 76.434966 
L 34.116946 75.993762 
L 34.736027 75.658427 
L 35.643527 75.166864 
L 36.214303 74.857694 
L 36.396161 74.759188 
L 37.192582 74.327793 
L 37.918343 73.934673 
L 38.79591 73.459324 
L 39.109303 73.289569 
L 39.873366 72.875702 
L 40.334584 72.625876 
L 41.015628 72.256977 
L 41.937699 71.757521 
L 42.466158 71.471273 
L 43.072206 71.142997 
L 43.378934 70.976852 
L 44.055816 70.610208 
L 44.916602 70.143949 
L 45.353291 69.907409 
L 45.933139 69.593325 
L 46.695614 69.180318 
L 47.14611 68.936299 
L 48.297813 68.312459 
L 48.744032 68.070758 
L 49.543422 67.637755 
L 49.737037 67.53288 
L 50.880445 66.913534 
L 51.442605 66.609031 
L 51.712988 66.462573 
L 52.327356 66.12979 
L 53.339412 65.581594 
L 53.593372 65.444032 
L 54.1806 65.12595 
L 54.728697 64.829064 
L 55.695267 64.305505 
L 56.012083 64.133896 
L 57.218726 63.480298 
L 57.505551 63.324935 
L 58.190436 62.953956 
L 58.733188 62.659965 
L 59.260424 62.374379 
L 59.856629 62.051434 
L 60.626856 61.634228 
L 61.48801 61.16777 
L 62.258735 60.750294 
L 62.773199 60.471625 
L 63.116267 60.285797 
L 64.044825 59.782828 
L 64.515031 59.528133 
L 65.006923 59.261691 
L 66.056536 58.693151 
L 66.429284 58.491246 
L 66.914219 58.228573 
L 67.485514 57.919121 
L 68.526562 57.355221 
L 69.116484 57.03568 
L 69.588247 56.780141 
L 70.397372 56.341865 
L 70.64299 56.208822 
L 71.287551 55.859685 
L 71.88105 55.538206 
L 72.536229 55.183318 
L 73.400259 54.715301 
L 73.780398 54.509393 
L 74.610021 54.060014 
L 75.309127 53.681331 
L 75.964017 53.326599 
L 76.558837 53.004405 
L 77.390489 52.553927 
L 77.886664 52.285165 
L 78.72987 51.828429 
L 79.357152 51.488651 
L 79.623915 51.344154 
L 80.302936 50.976351 
L 81.199797 50.490552 
L 81.706811 50.215919 
L 82.64172 49.70951 
L 82.916759 49.560531 
L 83.475619 49.257815 
" style="fill:none;stroke:#00ffff;stroke-linecap:square;stroke-width:2;"/>
   </g>
   <g id="line2d_3">
    <path clip-path="url(#p1f81d0a65d)" d="M 85.547506 48.135543 
L 86.091385 47.840942 
L 87.04451 47.324665 
L 87.090008 47.300021 
L 87.785289 46.92341 
L 88.587174 46.489055 
L 89.145393 46.186687 
L 89.764993 45.85107 
L 90.661984 45.3652 
L 91.097554 45.129266 
L 91.53157 44.894174 
L 92.27607 44.490904 
L 93.105327 44.041723 
L 93.648487 43.747511 
L 94.572862 43.246808 
L 95.316705 42.843893 
L 95.617725 42.680841 
L 96.193181 42.369135 
L 96.646299 42.123696 
L 97.652709 41.578557 
L 98.060126 41.357873 
L 98.616186 41.056674 
L 99.296967 40.687918 
L 99.821936 40.403559 
L 100.724358 39.914748 
L 101.489453 39.500321 
L 102.021255 39.212262 
L 102.621347 38.887212 
L 103.15656 38.597305 
L 103.745972 38.27804 
L 104.236703 38.012227 
L 105.103847 37.542525 
L 105.980543 37.067647 
L 106.227035 36.934131 
L 106.880472 36.580186 
L 107.404198 36.296501 
L 108.443447 35.733575 
L 108.740871 35.57247 
L 109.776593 35.011454 
L 110.097605 34.837572 
L 110.682357 34.520831 
L 111.455266 34.102172 
L 112.172676 33.713576 
L 112.6789 33.439371 
L 113.621072 32.929028 
L 114.061528 32.690447 
L 114.454411 32.477636 
L 115.160991 32.094905 
L 116.185809 31.539795 
L 116.326591 31.463538 
L 116.990016 31.104183 
L 117.763008 30.685479 
L 118.627573 30.217173 
L 119.045497 29.990797 
L 119.51864 29.734512 
L 120.439717 29.235595 
L 121.031478 28.915058 
L 121.674251 28.566889 
L 122.250921 28.254526 
L 122.753173 27.982473 
L 123.450179 27.604928 
L 124.416997 27.081235 
L 124.59002 26.987514 
L 125.442281 26.525873 
L 126.219312 26.104981 
L 126.941816 25.713625 
L 127.51977 25.400566 
L 127.856839 25.217987 
L 128.961656 24.619545 
L 129.262269 24.456712 
L 130.087684 24.009613 
L 130.8459 23.598913 
L 131.410118 23.293294 
L 131.982114 22.983463 
L 132.47885 22.714398 
L 133.39338 22.219027 
L 133.782965 22.008002 
L 134.090265 21.841548 
L 134.782985 21.466325 
L 135.59086 21.028726 
L 136.344735 20.620377 
L 137.066621 20.229355 
L 137.41305 20.041706 
L 138.079783 19.680559 
L 138.917277 19.226917 
L 139.233373 19.055698 
L 139.88322 18.703698 
L 140.979306 18.109984 
L 141.371703 17.897436 
" style="fill:none;stroke:#00ffff;stroke-linecap:square;stroke-width:2;"/>
   </g>
   <g id="matplotlib.axis_1">
    <g id="xtick_1">
     <g id="line2d_4">
      <path clip-path="url(#p1f81d0a65d)" d="M 15.024247 87.704405 
L 15.024247 16.528672 
" style="fill:none;stroke:#000000;stroke-dasharray:0.5,0.825;stroke-dashoffset:0;stroke-width:0.5;"/>
     </g>
     <g id="line2d_5">
      <defs>
       <path d="M 0 0 
L 0 3.5 
" id="m1b785744ee" style="stroke:#000000;stroke-width:0.8;"/>
      </defs>
      <g>
       <use style="stroke:#000000;stroke-width:0.8;" x="15.024247" xlink:href="#m1b785744ee" y="86.335641"/>
      </g>
     </g>
    </g>
    <g id="xtick_2">
     <g id="line2d_6">
      <path clip-path="url(#p1f81d0a65d)" d="M 141.371703 87.704405 
L 141.371703 16.528672 
" style="fill:none;stroke:#000000;stroke-dasharray:0.5,0.825;stroke-dashoffset:0;stroke-width:0.5;"/>
     </g>
     <g id="line2d_7">
      <g>
       <use style="stroke:#000000;stroke-width:0.8;" x="141.371703" xlink:href="#m1b785744ee" y="86.335641"/>
      </g>
     </g>
     <g id="text_1">
      <!-- $f$ -->
      <defs>
       <path d="M 9.71875 -16.5 
Q 11.578125 -17.921875 14.203125 -17.921875 
Q 17.78125 -17.921875 20.015625 -10.015625 
Q 20.953125 -6.203125 25.09375 15.09375 
L 29.6875 39.59375 
L 21.09375 39.59375 
Q 20.125 39.59375 20.125 40.921875 
Q 20.515625 43.109375 21.390625 43.109375 
L 30.328125 43.109375 
L 31.5 49.609375 
Q 32.078125 52.640625 32.5625 54.8125 
Q 33.0625 56.984375 33.625 58.828125 
Q 34.1875 60.6875 35.296875 62.984375 
Q 37.015625 66.265625 39.921875 68.390625 
Q 42.828125 70.515625 46.1875 70.515625 
Q 48.390625 70.515625 50.46875 69.703125 
Q 52.546875 68.890625 53.859375 67.28125 
Q 55.171875 65.671875 55.171875 63.484375 
Q 55.171875 60.9375 53.484375 59.046875 
Q 51.8125 57.171875 49.421875 57.171875 
Q 47.796875 57.171875 46.65625 58.171875 
Q 45.515625 59.1875 45.515625 60.796875 
Q 45.515625 62.984375 47 64.625 
Q 48.484375 66.265625 50.6875 66.5 
Q 48.828125 67.921875 46.09375 67.921875 
Q 44.578125 67.921875 43.234375 66.5 
Q 41.890625 65.09375 41.5 63.484375 
Q 40.875 60.9375 38.71875 49.703125 
L 37.5 43.109375 
L 47.796875 43.109375 
Q 48.78125 43.109375 48.78125 41.796875 
Q 48.734375 41.546875 48.578125 40.9375 
Q 48.4375 40.328125 48.171875 39.953125 
Q 47.90625 39.59375 47.515625 39.59375 
L 36.8125 39.59375 
L 32.171875 15.1875 
Q 31.296875 9.859375 30.140625 4.359375 
Q 29 -1.125 26.921875 -6.90625 
Q 24.859375 -12.703125 21.625 -16.609375 
Q 18.40625 -20.515625 14.015625 -20.515625 
Q 10.640625 -20.515625 7.984375 -18.578125 
Q 5.328125 -16.65625 5.328125 -13.484375 
Q 5.328125 -10.9375 6.953125 -9.046875 
Q 8.59375 -7.171875 11.078125 -7.171875 
Q 12.75 -7.171875 13.859375 -8.171875 
Q 14.984375 -9.1875 14.984375 -10.796875 
Q 14.984375 -12.9375 13.390625 -14.71875 
Q 11.8125 -16.5 9.71875 -16.5 
z
" id="Cmmi10-66"/>
      </defs>
      <g transform="translate(138.921703 100.913766)scale(0.1 -0.1)">
       <use transform="translate(0 0.484375)" xlink:href="#Cmmi10-66"/>
      </g>
     </g>
    </g>
    <g id="xtick_3">
     <g id="line2d_8">
      <path clip-path="url(#p1f81d0a65d)" d="M 562.529887 87.704405 
L 562.529887 16.528672 
" style="fill:none;stroke:#000000;stroke-dasharray:0.5,0.825;stroke-dashoffset:0;stroke-width:0.5;"/>
     </g>
     <g id="line2d_9">
      <g>
       <use style="stroke:#000000;stroke-width:0.8;" x="562.529887" xlink:href="#m1b785744ee" y="86.335641"/>
      </g>
     </g>
     <g id="text_2">
      <!-- $1$ -->
      <defs>
       <path d="M 9.28125 0 
L 9.28125 3.515625 
Q 21.78125 3.515625 21.78125 6.6875 
L 21.78125 59.1875 
Q 16.609375 56.6875 8.6875 56.6875 
L 8.6875 60.203125 
Q 20.953125 60.203125 27.203125 66.609375 
L 28.609375 66.609375 
Q 28.953125 66.609375 29.265625 66.328125 
Q 29.59375 66.0625 29.59375 65.71875 
L 29.59375 6.6875 
Q 29.59375 3.515625 42.09375 3.515625 
L 42.09375 0 
z
" id="Cmr10-31"/>
      </defs>
      <g transform="translate(560.029887 100.934078)scale(0.1 -0.1)">
       <use transform="translate(0 0.390625)" xlink:href="#Cmr10-31"/>
      </g>
     </g>
    </g>
   </g>
   <g id="matplotlib.axis_2">
    <g id="ytick_1">
     <g id="line2d_10">
      <path clip-path="url(#p1f81d0a65d)" d="M 4.074135 86.335641 
L 573.48 86.335641 
" style="fill:none;stroke:#000000;stroke-dasharray:0.5,0.825;stroke-dashoffset:0;stroke-width:0.5;"/>
     </g>
     <g id="line2d_11">
      <defs>
       <path d="M 0 0 
L -3.5 0 
" id="mdb70938145" style="stroke:#000000;stroke-width:0.8;"/>
      </defs>
      <g>
       <use style="stroke:#000000;stroke-width:0.8;" x="15.024247" xlink:href="#mdb70938145" y="86.335641"/>
      </g>
     </g>
    </g>
    <g id="ytick_2">
     <g id="line2d_12">
      <path clip-path="url(#p1f81d0a65d)" d="M 4.074135 17.897436 
L 573.48 17.897436 
" style="fill:none;stroke:#000000;stroke-dasharray:0.5,0.825;stroke-dashoffset:0;stroke-width:0.5;"/>
     </g>
     <g id="line2d_13">
      <g>
       <use style="stroke:#000000;stroke-width:0.8;" x="15.024247" xlink:href="#mdb70938145" y="17.897436"/>
      </g>
     </g>
     <g id="text_3">
      <!-- $1$ -->
      <g transform="translate(3.024247 21.696655)scale(0.1 -0.1)">
       <use transform="translate(0 0.390625)" xlink:href="#Cmr10-31"/>
      </g>
     </g>
    </g>
   </g>
   <g id="patch_3">
    <path d="M 15.024247 87.704405 
L 15.024247 16.528672 
" style="fill:none;stroke:#000000;stroke-linecap:square;stroke-linejoin:miter;stroke-width:0.8;"/>
   </g>
   <g id="patch_4">
    <path d="M 4.074135 86.335641 
L 573.48 86.335641 
" style="fill:none;stroke:#000000;stroke-linecap:square;stroke-linejoin:miter;stroke-width:0.8;"/>
   </g>
  </g>
 </g>
 <defs>
  <clipPath id="p1f81d0a65d">
   <rect height="71.175733" width="569.405865" x="4.074135" y="16.528672"/>
  </clipPath>
 </defs>
</svg>
