<?xml version="1.0" encoding="utf-8" standalone="no"?>
<!DOCTYPE svg PUBLIC "-//W3C//DTD SVG 1.1//EN"
  "http://www.w3.org/Graphics/SVG/1.1/DTD/svg11.dtd">
<!-- Created with matplotlib (http://matplotlib.org/) -->
<svg height="108pt" version="1.1" viewBox="0 0 576 108" width="576pt" xmlns="http://www.w3.org/2000/svg" xmlns:xlink="http://www.w3.org/1999/xlink">
 <defs>
  <style type="text/css">
*{stroke-linecap:butt;stroke-linejoin:round;}
  </style>
 </defs>
 <g id="figure_1">
  <g id="patch_1">
   <path d="M 0 108 
L 576 108 
L 576 0 
L 0 0 
z
" style="fill:#ffffff;"/>
  </g>
  <g id="axes_1">
   <g id="patch_2">
    <path d="M 4.074135 87.704405 
L 573.48 87.704405 
L 573.48 16.528672 
L 4.074135 16.528672 
z
" style="fill:#ffffff;"/>
   </g>
   <g id="line2d_1">
    <path clip-path="url(#p8811e8d3f2)" d="M 191.63897 17.897436 
L 191.689604 18.027006 
L 191.854502 18.448975 
L 191.924006 18.626832 
L 192.004912 18.833867 
L 192.123393 19.137056 
L 192.158323 19.226441 
L 192.299044 19.58654 
L 192.322092 19.645521 
L 192.39732 19.838026 
L 192.496219 20.091105 
L 192.619362 20.406223 
L 192.686252 20.577391 
L 192.827247 20.938192 
L 192.873881 21.057527 
L 193.013555 21.414947 
L 193.032905 21.464464 
L 193.124673 21.699293 
L 193.210936 21.920038 
L 193.339956 22.250194 
L 193.396022 22.393666 
L 193.527996 22.731382 
L 193.563839 22.823103 
L 193.675992 23.110099 
L 193.781069 23.378988 
L 193.835577 23.51847 
L 193.928307 23.755764 
L 194.022617 23.997098 
L 194.166279 24.364724 
L 194.231055 24.530483 
L 194.336286 24.799767 
L 194.391084 24.939992 
L 194.50038 25.219676 
L 194.578757 25.42024 
L 194.697476 25.724039 
L 194.741509 25.836717 
L 194.808953 26.009304 
L 194.891588 26.220763 
L 195.04946 26.624751 
L 195.113696 26.789128 
L 195.18173 26.963225 
L 195.248538 27.134183 
L 195.408498 27.543517 
L 195.477181 27.719274 
L 195.55366 27.91498 
L 195.635769 28.125095 
L 195.757976 28.437817 
L 195.8134 28.579645 
L 195.859013 28.696366 
L 195.94427 28.914535 
L 196.094189 29.298174 
L 196.138913 29.412621 
L 196.26554 29.736653 
L 196.382023 30.034729 
L 196.422499 30.138307 
L 196.494034 30.321361 
L 196.570295 30.516512 
L 196.699803 30.847916 
L 196.769526 31.026336 
L 196.8647 31.269881 
L 196.929775 31.436406 
L 197.087907 31.841061 
L 197.122522 31.92964 
L 197.217729 32.173271 
L 197.305514 32.397909 
L 197.365856 32.55232 
L 197.507066 32.913673 
L 197.56404 33.059466 
L 197.716995 33.450873 
L 197.786013 33.627488 
L 197.843331 33.774162 
L 197.966033 34.088152 
L 198.061195 34.331668 
L 198.133125 34.515734 
L 198.237685 34.783298 
L 198.303416 34.951503 
L 198.348327 35.066428 
L 198.493508 35.437941 
L 198.534273 35.542257 
L 198.628189 35.782583 
L 198.751253 36.0975 
L 198.849073 36.347818 
L 198.895841 36.467495 
L 198.965434 36.645582 
L 199.134803 37.078989 
L 199.172298 37.174938 
L 199.236821 37.34005 
L 199.35758 37.649068 
L 199.441658 37.86422 
L 199.535202 38.103596 
L 199.592155 38.249337 
" style="fill:none;stroke:#ff0000;stroke-linecap:square;stroke-width:2;"/>
   </g>
   <g id="line2d_2">
    <path clip-path="url(#p8811e8d3f2)" d="M 199.930879 39.116119 
L 200.006952 39.310787 
L 200.076944 39.489893 
L 200.201026 39.807414 
L 200.204198 39.815533 
L 200.30532 40.074299 
L 200.408668 40.338761 
L 200.488993 40.544311 
L 200.622186 40.885146 
L 200.658873 40.979029 
L 200.813814 41.375515 
L 200.911843 41.626368 
L 200.94765 41.717998 
L 201.079712 42.055938 
L 201.150656 42.237483 
L 201.197401 42.357101 
L 201.302169 42.625198 
L 201.385796 42.839197 
L 201.486033 43.095699 
L 201.541762 43.238307 
L 201.628229 43.459573 
L 201.761718 43.801166 
L 201.863672 44.062062 
L 201.961043 44.311231 
L 202.004269 44.421845 
L 202.149099 44.792461 
L 202.19561 44.91148 
L 202.249358 45.049017 
L 202.39594 45.424116 
L 202.470643 45.615279 
L 202.580685 45.896872 
L 202.630145 46.023439 
L 202.727274 46.271989 
L 202.78764 46.426461 
L 202.875904 46.652325 
L 203.006459 46.986413 
L 203.1191 47.274656 
L 203.18484 47.442882 
L 203.273919 47.670831 
L 203.33642 47.830769 
L 203.419147 48.042463 
L 203.551727 48.381733 
L 203.659555 48.657659 
L 203.672657 48.691187 
L 203.789393 48.989909 
L 203.869801 49.195672 
L 203.963502 49.435448 
L 204.058015 49.677303 
L 204.109776 49.809757 
L 204.250284 50.169312 
L 204.293189 50.279106 
L 204.376183 50.491483 
L 204.469567 50.73045 
L 204.611769 51.09434 
L 204.659669 51.216914 
L 204.758853 51.470722 
L 204.846636 51.695356 
L 204.993214 52.070442 
L 205.083795 52.302236 
L 205.160398 52.49826 
L 205.244158 52.712598 
L 205.315058 52.89403 
L 205.361514 53.012907 
L 205.460435 53.266042 
L 205.532353 53.45008 
L 205.636739 53.717199 
L 205.712035 53.909879 
L 205.810166 54.160993 
L 205.920094 54.442292 
L 206.033362 54.732142 
L 206.134445 54.990809 
L 206.22497 55.222459 
L 206.266107 55.327727 
L 206.372757 55.60064 
L 206.44545 55.786659 
L 206.586994 56.148865 
L 206.598105 56.177299 
L 206.767043 56.609604 
L 206.805847 56.708902 
L 206.882264 56.90445 
L 207.02736 57.275747 
L 207.111598 57.491306 
L 207.208022 57.738052 
L 207.228995 57.791721 
L 207.312517 58.005452 
L 207.408782 58.25179 
L 207.49583 58.474543 
L 207.598016 58.736032 
L 207.680282 58.946549 
L 207.825262 59.317547 
L 207.897456 59.502289 
L 207.971771 59.692457 
L 208.035895 59.856549 
L 208.163367 60.182745 
L 208.206492 60.293099 
L 208.289356 60.505147 
L 208.431336 60.868467 
L 208.47567 60.981917 
L 208.594948 61.287144 
L 208.718784 61.604034 
L 208.78551 61.774785 
L 208.849361 61.938177 
L 208.916193 62.109199 
L 209.015134 62.362383 
L 209.092198 62.559588 
L 209.197134 62.828115 
L 209.300442 63.092477 
" style="fill:none;stroke:#ff0000;stroke-linecap:square;stroke-width:2;"/>
   </g>
   <g id="line2d_3">
    <path clip-path="url(#p8811e8d3f2)" d="M 544.868415 41.1406 
L 562.529887 86.335641 
L 562.529887 86.335641 
" style="fill:none;stroke:#ff0000;stroke-linecap:square;stroke-width:2;"/>
   </g>
   <g id="line2d_4">
    <path clip-path="url(#p8811e8d3f2)" d="M 68.008664 61.80119 
L 85.670136 66.966338 
L 85.670136 66.966338 
" style="fill:none;stroke:#ffda00;stroke-linecap:square;stroke-width:2;"/>
   </g>
   <g id="line2d_5">
    <path clip-path="url(#p8811e8d3f2)" d="M 120.993081 37.266739 
L 138.654553 42.431887 
L 138.654553 42.431887 
" style="fill:none;stroke:#ffda00;stroke-linecap:square;stroke-width:2;"/>
   </g>
   <g id="line2d_6">
    <path clip-path="url(#p8811e8d3f2)" d="M 368.253692 49.533965 
L 385.915165 54.699112 
L 385.915165 54.699112 
" style="fill:none;stroke:#ffda00;stroke-linecap:square;stroke-width:2;"/>
   </g>
   <g id="line2d_7">
    <path clip-path="url(#p8811e8d3f2)" d="M 244.623387 53.407825 
L 262.284859 68.580446 
L 262.284859 68.580446 
" style="fill:none;stroke:#48ff00;stroke-linecap:square;stroke-width:2;"/>
   </g>
   <g id="line2d_8">
    <path clip-path="url(#p8811e8d3f2)" d="M 491.883998 35.652631 
L 509.54547 50.825252 
L 509.54547 50.825252 
" style="fill:none;stroke:#48ff00;stroke-linecap:square;stroke-width:2;"/>
   </g>
   <g id="line2d_9">
    <path clip-path="url(#p8811e8d3f2)" d="M 209.300442 63.092477 
L 244.623387 53.407825 
L 244.623387 53.407825 
" style="fill:none;stroke:#00ff91;stroke-linecap:square;stroke-width:2;"/>
   </g>
   <g id="line2d_10">
    <path clip-path="url(#p8811e8d3f2)" d="M 279.946331 53.730647 
L 297.607803 48.888321 
L 297.607803 48.888321 
" style="fill:none;stroke:#00ff91;stroke-linecap:square;stroke-width:2;"/>
   </g>
   <g id="line2d_11">
    <path clip-path="url(#p8811e8d3f2)" d="M 315.269276 74.068416 
L 332.930748 69.22609 
L 332.930748 69.22609 
" style="fill:none;stroke:#00ff91;stroke-linecap:square;stroke-width:2;"/>
   </g>
   <g id="line2d_12">
    <path clip-path="url(#p8811e8d3f2)" d="M 350.59222 54.376291 
L 368.253692 49.533965 
L 368.253692 49.533965 
" style="fill:none;stroke:#00ff91;stroke-linecap:square;stroke-width:2;"/>
   </g>
   <g id="line2d_13">
    <path clip-path="url(#p8811e8d3f2)" d="M 385.915165 54.699112 
L 403.576637 49.856786 
L 403.576637 49.856786 
" style="fill:none;stroke:#00ff91;stroke-linecap:square;stroke-width:2;"/>
   </g>
   <g id="line2d_14">
    <path clip-path="url(#p8811e8d3f2)" d="M 421.238109 35.006987 
L 438.899581 30.164661 
L 438.899581 30.164661 
" style="fill:none;stroke:#00ff91;stroke-linecap:square;stroke-width:2;"/>
   </g>
   <g id="line2d_15">
    <path clip-path="url(#p8811e8d3f2)" d="M 456.561054 55.344756 
L 474.222526 50.50243 
L 474.222526 50.50243 
" style="fill:none;stroke:#00ff91;stroke-linecap:square;stroke-width:2;"/>
   </g>
   <g id="line2d_16">
    <path clip-path="url(#p8811e8d3f2)" d="M 509.54547 50.825252 
L 544.868415 41.1406 
L 544.868415 41.1406 
" style="fill:none;stroke:#00ff91;stroke-linecap:square;stroke-width:2;"/>
   </g>
   <g id="line2d_17">
    <path clip-path="url(#p8811e8d3f2)" d="M 15.024247 86.335641 
L 50.347192 36.621096 
L 50.347192 36.621096 
" style="fill:none;stroke:#0091ff;stroke-linecap:square;stroke-width:2;"/>
   </g>
   <g id="line2d_18">
    <path clip-path="url(#p8811e8d3f2)" d="M 156.316025 67.611981 
L 191.63897 17.897436 
L 191.63897 17.897436 
" style="fill:none;stroke:#0091ff;stroke-linecap:square;stroke-width:2;"/>
   </g>
   <g id="line2d_19">
    <path clip-path="url(#p8811e8d3f2)" d="M 50.347192 36.621096 
L 68.008664 61.80119 
L 68.008664 61.80119 
" style="fill:none;stroke:#4800ff;stroke-linecap:square;stroke-width:2;"/>
   </g>
   <g id="line2d_20">
    <path clip-path="url(#p8811e8d3f2)" d="M 138.654553 42.431887 
L 156.316025 67.611981 
L 156.316025 67.611981 
" style="fill:none;stroke:#4800ff;stroke-linecap:square;stroke-width:2;"/>
   </g>
   <g id="line2d_21">
    <path clip-path="url(#p8811e8d3f2)" d="M 297.607803 48.888321 
L 315.269276 74.068416 
L 315.269276 74.068416 
" style="fill:none;stroke:#4800ff;stroke-linecap:square;stroke-width:2;"/>
   </g>
   <g id="line2d_22">
    <path clip-path="url(#p8811e8d3f2)" d="M 438.899581 30.164661 
L 456.561054 55.344756 
L 456.561054 55.344756 
" style="fill:none;stroke:#4800ff;stroke-linecap:square;stroke-width:2;"/>
   </g>
   <g id="line2d_23">
    <path clip-path="url(#p8811e8d3f2)" d="M 85.670136 66.966338 
L 120.993081 37.266739 
L 120.993081 37.266739 
" style="fill:none;stroke:#ff00da;stroke-linecap:square;stroke-width:2;"/>
   </g>
   <g id="line2d_24">
    <path clip-path="url(#p8811e8d3f2)" d="M 262.284859 68.580446 
L 279.946331 53.730647 
L 279.946331 53.730647 
" style="fill:none;stroke:#ff00da;stroke-linecap:square;stroke-width:2;"/>
   </g>
   <g id="line2d_25">
    <path clip-path="url(#p8811e8d3f2)" d="M 332.930748 69.22609 
L 350.59222 54.376291 
L 350.59222 54.376291 
" style="fill:none;stroke:#ff00da;stroke-linecap:square;stroke-width:2;"/>
   </g>
   <g id="line2d_26">
    <path clip-path="url(#p8811e8d3f2)" d="M 403.576637 49.856786 
L 421.238109 35.006987 
L 421.238109 35.006987 
" style="fill:none;stroke:#ff00da;stroke-linecap:square;stroke-width:2;"/>
   </g>
   <g id="line2d_27">
    <path clip-path="url(#p8811e8d3f2)" d="M 474.222526 50.50243 
L 491.883998 35.652631 
L 491.883998 35.652631 
" style="fill:none;stroke:#ff00da;stroke-linecap:square;stroke-width:2;"/>
   </g>
   <g id="matplotlib.axis_1">
    <g id="xtick_1">
     <g id="line2d_28">
      <path clip-path="url(#p8811e8d3f2)" d="M 15.024247 87.704405 
L 15.024247 16.528672 
" style="fill:none;stroke:#000000;stroke-dasharray:0.5,0.825;stroke-dashoffset:0;stroke-width:0.5;"/>
     </g>
     <g id="line2d_29">
      <defs>
       <path d="M 0 0 
L 0 3.5 
" id="ma3d6e1c0dd" style="stroke:#000000;stroke-width:0.8;"/>
      </defs>
      <g>
       <use style="stroke:#000000;stroke-width:0.8;" x="15.024247" xlink:href="#ma3d6e1c0dd" y="86.335641"/>
      </g>
     </g>
    </g>
    <g id="xtick_2">
     <g id="line2d_30">
      <path clip-path="url(#p8811e8d3f2)" d="M 191.63897 87.704405 
L 191.63897 16.528672 
" style="fill:none;stroke:#000000;stroke-dasharray:0.5,0.825;stroke-dashoffset:0;stroke-width:0.5;"/>
     </g>
     <g id="line2d_31">
      <g>
       <use style="stroke:#000000;stroke-width:0.8;" x="191.63897" xlink:href="#ma3d6e1c0dd" y="86.335641"/>
      </g>
     </g>
     <g id="text_1">
      <!-- $f$ -->
      <defs>
       <path d="M 9.71875 -16.5 
Q 11.578125 -17.921875 14.203125 -17.921875 
Q 17.78125 -17.921875 20.015625 -10.015625 
Q 20.953125 -6.203125 25.09375 15.09375 
L 29.6875 39.59375 
L 21.09375 39.59375 
Q 20.125 39.59375 20.125 40.921875 
Q 20.515625 43.109375 21.390625 43.109375 
L 30.328125 43.109375 
L 31.5 49.609375 
Q 32.078125 52.640625 32.5625 54.8125 
Q 33.0625 56.984375 33.625 58.828125 
Q 34.1875 60.6875 35.296875 62.984375 
Q 37.015625 66.265625 39.921875 68.390625 
Q 42.828125 70.515625 46.1875 70.515625 
Q 48.390625 70.515625 50.46875 69.703125 
Q 52.546875 68.890625 53.859375 67.28125 
Q 55.171875 65.671875 55.171875 63.484375 
Q 55.171875 60.9375 53.484375 59.046875 
Q 51.8125 57.171875 49.421875 57.171875 
Q 47.796875 57.171875 46.65625 58.171875 
Q 45.515625 59.1875 45.515625 60.796875 
Q 45.515625 62.984375 47 64.625 
Q 48.484375 66.265625 50.6875 66.5 
Q 48.828125 67.921875 46.09375 67.921875 
Q 44.578125 67.921875 43.234375 66.5 
Q 41.890625 65.09375 41.5 63.484375 
Q 40.875 60.9375 38.71875 49.703125 
L 37.5 43.109375 
L 47.796875 43.109375 
Q 48.78125 43.109375 48.78125 41.796875 
Q 48.734375 41.546875 48.578125 40.9375 
Q 48.4375 40.328125 48.171875 39.953125 
Q 47.90625 39.59375 47.515625 39.59375 
L 36.8125 39.59375 
L 32.171875 15.1875 
Q 31.296875 9.859375 30.140625 4.359375 
Q 29 -1.125 26.921875 -6.90625 
Q 24.859375 -12.703125 21.625 -16.609375 
Q 18.40625 -20.515625 14.015625 -20.515625 
Q 10.640625 -20.515625 7.984375 -18.578125 
Q 5.328125 -16.65625 5.328125 -13.484375 
Q 5.328125 -10.9375 6.953125 -9.046875 
Q 8.59375 -7.171875 11.078125 -7.171875 
Q 12.75 -7.171875 13.859375 -8.171875 
Q 14.984375 -9.1875 14.984375 -10.796875 
Q 14.984375 -12.9375 13.390625 -14.71875 
Q 11.8125 -16.5 9.71875 -16.5 
z
" id="Cmmi10-66"/>
      </defs>
      <g transform="translate(189.18897 100.913766)scale(0.1 -0.1)">
       <use transform="translate(0 0.484375)" xlink:href="#Cmmi10-66"/>
      </g>
     </g>
    </g>
    <g id="xtick_3">
     <g id="line2d_32">
      <path clip-path="url(#p8811e8d3f2)" d="M 562.529887 87.704405 
L 562.529887 16.528672 
" style="fill:none;stroke:#000000;stroke-dasharray:0.5,0.825;stroke-dashoffset:0;stroke-width:0.5;"/>
     </g>
     <g id="line2d_33">
      <g>
       <use style="stroke:#000000;stroke-width:0.8;" x="562.529887" xlink:href="#ma3d6e1c0dd" y="86.335641"/>
      </g>
     </g>
     <g id="text_2">
      <!-- $1$ -->
      <defs>
       <path d="M 9.28125 0 
L 9.28125 3.515625 
Q 21.78125 3.515625 21.78125 6.6875 
L 21.78125 59.1875 
Q 16.609375 56.6875 8.6875 56.6875 
L 8.6875 60.203125 
Q 20.953125 60.203125 27.203125 66.609375 
L 28.609375 66.609375 
Q 28.953125 66.609375 29.265625 66.328125 
Q 29.59375 66.0625 29.59375 65.71875 
L 29.59375 6.6875 
Q 29.59375 3.515625 42.09375 3.515625 
L 42.09375 0 
z
" id="Cmr10-31"/>
      </defs>
      <g transform="translate(560.029887 100.934078)scale(0.1 -0.1)">
       <use transform="translate(0 0.390625)" xlink:href="#Cmr10-31"/>
      </g>
     </g>
    </g>
   </g>
   <g id="matplotlib.axis_2">
    <g id="ytick_1">
     <g id="line2d_34">
      <path clip-path="url(#p8811e8d3f2)" d="M 4.074135 86.335641 
L 573.48 86.335641 
" style="fill:none;stroke:#000000;stroke-dasharray:0.5,0.825;stroke-dashoffset:0;stroke-width:0.5;"/>
     </g>
     <g id="line2d_35">
      <defs>
       <path d="M 0 0 
L -3.5 0 
" id="m32ba9f0ca9" style="stroke:#000000;stroke-width:0.8;"/>
      </defs>
      <g>
       <use style="stroke:#000000;stroke-width:0.8;" x="15.024247" xlink:href="#m32ba9f0ca9" y="86.335641"/>
      </g>
     </g>
    </g>
    <g id="ytick_2">
     <g id="line2d_36">
      <path clip-path="url(#p8811e8d3f2)" d="M 4.074135 17.897436 
L 573.48 17.897436 
" style="fill:none;stroke:#000000;stroke-dasharray:0.5,0.825;stroke-dashoffset:0;stroke-width:0.5;"/>
     </g>
     <g id="line2d_37">
      <g>
       <use style="stroke:#000000;stroke-width:0.8;" x="15.024247" xlink:href="#m32ba9f0ca9" y="17.897436"/>
      </g>
     </g>
     <g id="text_3">
      <!-- $1$ -->
      <g transform="translate(3.024247 21.696655)scale(0.1 -0.1)">
       <use transform="translate(0 0.390625)" xlink:href="#Cmr10-31"/>
      </g>
     </g>
    </g>
   </g>
   <g id="patch_3">
    <path d="M 15.024247 87.704405 
L 15.024247 16.528672 
" style="fill:none;stroke:#000000;stroke-linecap:square;stroke-linejoin:miter;stroke-width:0.8;"/>
   </g>
   <g id="patch_4">
    <path d="M 4.074135 86.335641 
L 573.48 86.335641 
" style="fill:none;stroke:#000000;stroke-linecap:square;stroke-linejoin:miter;stroke-width:0.8;"/>
   </g>
  </g>
 </g>
 <defs>
  <clipPath id="p8811e8d3f2">
   <rect height="71.175733" width="569.405865" x="4.074135" y="16.528672"/>
  </clipPath>
 </defs>
</svg>
