<?xml version="1.0" encoding="utf-8" standalone="no"?>
<!DOCTYPE svg PUBLIC "-//W3C//DTD SVG 1.1//EN"
  "http://www.w3.org/Graphics/SVG/1.1/DTD/svg11.dtd">
<!-- Created with matplotlib (http://matplotlib.org/) -->
<svg height="108pt" version="1.1" viewBox="0 0 576 108" width="576pt" xmlns="http://www.w3.org/2000/svg" xmlns:xlink="http://www.w3.org/1999/xlink">
 <defs>
  <style type="text/css">
*{stroke-linecap:butt;stroke-linejoin:round;}
  </style>
 </defs>
 <g id="figure_1">
  <g id="patch_1">
   <path d="M 0 108 
L 576 108 
L 576 0 
L 0 0 
z
" style="fill:#ffffff;"/>
  </g>
  <g id="axes_1">
   <g id="patch_2">
    <path d="M 4.074135 87.704405 
L 573.48 87.704405 
L 573.48 16.528672 
L 4.074135 16.528672 
z
" style="fill:#ffffff;"/>
   </g>
   <g id="line2d_1">
    <path clip-path="url(#pd66925c40f)" d="M 15.024247 86.335641 
L 36.924473 62.002057 
L 36.924473 62.002057 
" style="fill:none;stroke:#ff0000;stroke-linecap:square;stroke-width:2;"/>
   </g>
   <g id="line2d_2">
    <path clip-path="url(#pd66925c40f)" d="M 58.824699 75.689698 
L 80.724924 51.356114 
L 80.724924 51.356114 
" style="fill:none;stroke:#ff0000;stroke-linecap:square;stroke-width:2;"/>
   </g>
   <g id="line2d_3">
    <path clip-path="url(#pd66925c40f)" d="M 102.62515 65.043755 
L 124.525375 40.710171 
L 124.525375 40.710171 
" style="fill:none;stroke:#ff0000;stroke-linecap:square;stroke-width:2;"/>
   </g>
   <g id="line2d_4">
    <path clip-path="url(#pd66925c40f)" d="M 179.275939 74.929273 
L 201.176165 50.595689 
L 201.176165 50.595689 
" style="fill:none;stroke:#ff0000;stroke-linecap:square;stroke-width:2;"/>
   </g>
   <g id="line2d_5">
    <path clip-path="url(#pd66925c40f)" d="M 223.076391 64.28333 
L 244.976616 39.949746 
L 244.976616 39.949746 
" style="fill:none;stroke:#ff0000;stroke-linecap:square;stroke-width:2;"/>
   </g>
   <g id="line2d_6">
    <path clip-path="url(#pd66925c40f)" d="M 266.876842 53.637387 
L 288.777067 29.303803 
L 288.777067 29.303803 
" style="fill:none;stroke:#ff0000;stroke-linecap:square;stroke-width:2;"/>
   </g>
   <g id="line2d_7">
    <path clip-path="url(#pd66925c40f)" d="M 343.527631 63.522906 
L 365.427857 39.189322 
L 365.427857 39.189322 
" style="fill:none;stroke:#ff0000;stroke-linecap:square;stroke-width:2;"/>
   </g>
   <g id="line2d_8">
    <path clip-path="url(#pd66925c40f)" d="M 387.328082 52.876963 
L 409.228308 28.543379 
L 409.228308 28.543379 
" style="fill:none;stroke:#ff0000;stroke-linecap:square;stroke-width:2;"/>
   </g>
   <g id="line2d_9">
    <path clip-path="url(#pd66925c40f)" d="M 431.128534 42.23102 
L 453.028759 17.897436 
L 453.028759 17.897436 
" style="fill:none;stroke:#ff0000;stroke-linecap:square;stroke-width:2;"/>
   </g>
   <g id="line2d_10">
    <path clip-path="url(#pd66925c40f)" d="M 36.924473 62.002057 
L 58.824699 75.689698 
L 58.824699 75.689698 
" style="fill:none;stroke:#00ffff;stroke-linecap:square;stroke-width:2;"/>
   </g>
   <g id="line2d_11">
    <path clip-path="url(#pd66925c40f)" d="M 80.724924 51.356114 
L 102.62515 65.043755 
L 102.62515 65.043755 
" style="fill:none;stroke:#00ffff;stroke-linecap:square;stroke-width:2;"/>
   </g>
   <g id="line2d_12">
    <path clip-path="url(#pd66925c40f)" d="M 124.525375 40.710171 
L 179.275939 74.929273 
L 179.275939 74.929273 
" style="fill:none;stroke:#00ffff;stroke-linecap:square;stroke-width:2;"/>
   </g>
   <g id="line2d_13">
    <path clip-path="url(#pd66925c40f)" d="M 201.176165 50.595689 
L 223.076391 64.28333 
L 223.076391 64.28333 
" style="fill:none;stroke:#00ffff;stroke-linecap:square;stroke-width:2;"/>
   </g>
   <g id="line2d_14">
    <path clip-path="url(#pd66925c40f)" d="M 244.976616 39.949746 
L 266.876842 53.637387 
L 266.876842 53.637387 
" style="fill:none;stroke:#00ffff;stroke-linecap:square;stroke-width:2;"/>
   </g>
   <g id="line2d_15">
    <path clip-path="url(#pd66925c40f)" d="M 288.777067 29.303803 
L 343.527631 63.522906 
L 343.527631 63.522906 
" style="fill:none;stroke:#00ffff;stroke-linecap:square;stroke-width:2;"/>
   </g>
   <g id="line2d_16">
    <path clip-path="url(#pd66925c40f)" d="M 365.427857 39.189322 
L 387.328082 52.876963 
L 387.328082 52.876963 
" style="fill:none;stroke:#00ffff;stroke-linecap:square;stroke-width:2;"/>
   </g>
   <g id="line2d_17">
    <path clip-path="url(#pd66925c40f)" d="M 409.228308 28.543379 
L 409.389334 28.64402 
L 409.41127 28.65773 
L 409.569893 28.75687 
L 409.647058 28.805098 
L 409.814796 28.909934 
L 409.882331 28.952143 
L 410.032962 29.046288 
L 410.097289 29.086492 
L 410.226107 29.167003 
L 410.285893 29.204369 
L 410.405951 29.279406 
L 410.510384 29.344677 
L 410.623916 29.415634 
L 410.728737 29.481147 
L 410.84819 29.555805 
L 410.963449 29.627842 
L 411.064775 29.691171 
L 411.188671 29.768606 
L 411.268467 29.818478 
L 411.407847 29.905591 
L 411.594291 30.022118 
L 411.693838 30.084335 
L 411.757917 30.124385 
L 411.915952 30.223157 
L 411.975018 30.260072 
L 412.036202 30.298313 
L 412.151049 30.370092 
L 412.280985 30.451302 
L 412.471062 30.5701 
L 412.550198 30.61956 
L 412.61293 30.658768 
L 412.787025 30.767577 
L 412.887164 30.830164 
L 412.922985 30.852552 
L 413.071064 30.945101 
L 413.17875 31.012405 
L 413.253439 31.059086 
L 413.427053 31.167595 
L 413.473843 31.196838 
L 413.663551 31.315406 
L 413.689897 31.331872 
L 413.872418 31.445948 
L 413.926447 31.479716 
L 414.062239 31.564586 
L 414.173783 31.634301 
L 414.252198 31.68331 
L 414.371404 31.757814 
L 414.543523 31.865388 
L 414.651867 31.933103 
L 414.775739 32.010523 
L 414.870869 32.06998 
L 414.960664 32.126101 
L 415.086156 32.204534 
L 415.20951 32.28163 
L 415.308369 32.343417 
L 415.444376 32.428421 
L 415.490574 32.457295 
L 415.561261 32.501475 
L 415.711652 32.595469 
L 415.885686 32.70424 
L 415.9956 32.772937 
L 416.018246 32.78709 
L 416.215921 32.910637 
L 416.240973 32.926295 
L 416.412075 33.033233 
L 416.475503 33.072876 
L 416.603124 33.152639 
L 416.749715 33.244258 
L 416.786451 33.267218 
L 416.960132 33.375769 
L 417.063199 33.440186 
L 417.118602 33.474813 
L 417.218368 33.537167 
" style="fill:none;stroke:#00ffff;stroke-linecap:square;stroke-width:2;"/>
   </g>
   <g id="line2d_18">
    <path clip-path="url(#pd66925c40f)" d="M 417.61017 33.782043 
L 417.71216 33.845786 
L 417.799752 33.900531 
L 417.935167 33.985166 
L 417.981489 34.014117 
L 418.134816 34.109946 
L 418.305797 34.21681 
L 418.328241 34.230837 
L 418.433976 34.296921 
L 418.596251 34.398343 
L 418.726017 34.479447 
L 418.789004 34.518814 
L 418.878441 34.574712 
L 418.990343 34.644651 
L 419.093299 34.708998 
L 419.245449 34.804092 
L 419.330489 34.857242 
L 419.41473 34.909893 
L 419.54142 34.989074 
L 419.665389 35.066554 
L 419.746918 35.11751 
L 419.856343 35.185901 
L 419.991323 35.270263 
L 420.099869 35.338105 
L 420.243453 35.427845 
L 420.344921 35.491262 
L 420.475464 35.572851 
L 420.526037 35.604459 
L 420.646677 35.679859 
L 420.753131 35.746393 
L 420.890382 35.832175 
L 421.03529 35.922743 
L 421.167921 36.005637 
L 421.224223 36.040826 
L 421.323799 36.103061 
L 421.408531 36.156018 
L 421.510447 36.219716 
L 421.642723 36.302388 
L 421.754345 36.372152 
L 421.830238 36.419585 
L 421.950558 36.494785 
L 422.11512 36.597636 
L 422.175037 36.635085 
L 422.345246 36.741465 
L 422.464606 36.816065 
L 422.543826 36.865578 
L 422.612173 36.908295 
L 422.732407 36.983441 
L 422.896215 37.08582 
L 423.027834 37.168082 
L 423.12461 37.228567 
L 423.232336 37.295897 
L 423.300487 37.338491 
L 423.448104 37.430751 
L 423.588616 37.518571 
L 423.640592 37.551057 
L 423.722366 37.602165 
L 423.834096 37.671997 
L 423.933262 37.733975 
L 424.086679 37.829861 
L 424.23242 37.920949 
L 424.335199 37.985186 
L 424.372144 38.008276 
L 424.527524 38.105389 
L 424.652973 38.183795 
L 424.708034 38.218208 
L 424.897872 38.336856 
L 424.958625 38.374827 
L 425.041299 38.426499 
L 425.136703 38.486126 
L 425.283073 38.577607 
L 425.458866 38.687477 
L 425.532868 38.733729 
L 425.672504 38.821001 
L 425.681145 38.826402 
L 425.850959 38.932536 
L 425.950127 38.994516 
L 426.032444 39.045964 
L 426.167215 39.130196 
L 426.252032 39.183206 
L 426.410937 39.282522 
L 426.546541 39.367274 
L 426.588929 39.393767 
L 426.772732 39.508644 
L 426.817962 39.536913 
L 426.95762 39.624199 
L 427.036614 39.67357 
L 427.210143 39.782026 
L 427.30018 39.838299 
L 427.337054 39.861345 
L 427.53558 39.985424 
L 427.624158 40.040785 
L 427.729816 40.106821 
L 427.803662 40.152975 
L 427.946495 40.242246 
L 428.016529 40.286017 
L 428.162745 40.377402 
L 428.265938 40.441898 
L 428.347816 40.493072 
L 428.473365 40.57154 
L 428.543465 40.615352 
L 428.705551 40.716656 
L 428.783276 40.765234 
L 428.967274 40.880233 
L 429.039197 40.925185 
L 429.155418 40.997823 
L 429.204521 41.028512 
L 429.368243 41.130839 
L 429.432303 41.170876 
L 429.634788 41.297429 
L 429.647587 41.305428 
L 429.818554 41.412283 
L 429.893019 41.458823 
L 430.026937 41.542522 
L 430.151989 41.62068 
L 430.277971 41.699418 
L 430.404633 41.778582 
L 430.424735 41.791146 
L 430.628315 41.918383 
L 430.700031 41.963206 
L 430.851541 42.057899 
L 430.898989 42.087554 
L 431.004281 42.153362 
L 431.128534 42.23102 
" style="fill:none;stroke:#00ffff;stroke-linecap:square;stroke-width:2;"/>
   </g>
   <g id="line2d_19">
    <path clip-path="url(#pd66925c40f)" d="M 453.028759 17.897436 
L 562.529887 86.335641 
L 562.529887 86.335641 
" style="fill:none;stroke:#00ffff;stroke-linecap:square;stroke-width:2;"/>
   </g>
   <g id="matplotlib.axis_1">
    <g id="xtick_1">
     <g id="line2d_20">
      <path clip-path="url(#pd66925c40f)" d="M 15.024247 87.704405 
L 15.024247 16.528672 
" style="fill:none;stroke:#000000;stroke-dasharray:0.5,0.825;stroke-dashoffset:0;stroke-width:0.5;"/>
     </g>
     <g id="line2d_21">
      <defs>
       <path d="M 0 0 
L 0 3.5 
" id="m777c0e62a3" style="stroke:#000000;stroke-width:0.8;"/>
      </defs>
      <g>
       <use style="stroke:#000000;stroke-width:0.8;" x="15.024247" xlink:href="#m777c0e62a3" y="86.335641"/>
      </g>
     </g>
    </g>
    <g id="xtick_2">
     <g id="line2d_22">
      <path clip-path="url(#pd66925c40f)" d="M 453.028759 87.704405 
L 453.028759 16.528672 
" style="fill:none;stroke:#000000;stroke-dasharray:0.5,0.825;stroke-dashoffset:0;stroke-width:0.5;"/>
     </g>
     <g id="line2d_23">
      <g>
       <use style="stroke:#000000;stroke-width:0.8;" x="453.028759" xlink:href="#m777c0e62a3" y="86.335641"/>
      </g>
     </g>
     <g id="text_1">
      <!-- $f$ -->
      <defs>
       <path d="M 9.71875 -16.5 
Q 11.578125 -17.921875 14.203125 -17.921875 
Q 17.78125 -17.921875 20.015625 -10.015625 
Q 20.953125 -6.203125 25.09375 15.09375 
L 29.6875 39.59375 
L 21.09375 39.59375 
Q 20.125 39.59375 20.125 40.921875 
Q 20.515625 43.109375 21.390625 43.109375 
L 30.328125 43.109375 
L 31.5 49.609375 
Q 32.078125 52.640625 32.5625 54.8125 
Q 33.0625 56.984375 33.625 58.828125 
Q 34.1875 60.6875 35.296875 62.984375 
Q 37.015625 66.265625 39.921875 68.390625 
Q 42.828125 70.515625 46.1875 70.515625 
Q 48.390625 70.515625 50.46875 69.703125 
Q 52.546875 68.890625 53.859375 67.28125 
Q 55.171875 65.671875 55.171875 63.484375 
Q 55.171875 60.9375 53.484375 59.046875 
Q 51.8125 57.171875 49.421875 57.171875 
Q 47.796875 57.171875 46.65625 58.171875 
Q 45.515625 59.1875 45.515625 60.796875 
Q 45.515625 62.984375 47 64.625 
Q 48.484375 66.265625 50.6875 66.5 
Q 48.828125 67.921875 46.09375 67.921875 
Q 44.578125 67.921875 43.234375 66.5 
Q 41.890625 65.09375 41.5 63.484375 
Q 40.875 60.9375 38.71875 49.703125 
L 37.5 43.109375 
L 47.796875 43.109375 
Q 48.78125 43.109375 48.78125 41.796875 
Q 48.734375 41.546875 48.578125 40.9375 
Q 48.4375 40.328125 48.171875 39.953125 
Q 47.90625 39.59375 47.515625 39.59375 
L 36.8125 39.59375 
L 32.171875 15.1875 
Q 31.296875 9.859375 30.140625 4.359375 
Q 29 -1.125 26.921875 -6.90625 
Q 24.859375 -12.703125 21.625 -16.609375 
Q 18.40625 -20.515625 14.015625 -20.515625 
Q 10.640625 -20.515625 7.984375 -18.578125 
Q 5.328125 -16.65625 5.328125 -13.484375 
Q 5.328125 -10.9375 6.953125 -9.046875 
Q 8.59375 -7.171875 11.078125 -7.171875 
Q 12.75 -7.171875 13.859375 -8.171875 
Q 14.984375 -9.1875 14.984375 -10.796875 
Q 14.984375 -12.9375 13.390625 -14.71875 
Q 11.8125 -16.5 9.71875 -16.5 
z
" id="Cmmi10-66"/>
      </defs>
      <g transform="translate(450.578759 100.913766)scale(0.1 -0.1)">
       <use transform="translate(0 0.484375)" xlink:href="#Cmmi10-66"/>
      </g>
     </g>
    </g>
    <g id="xtick_3">
     <g id="line2d_24">
      <path clip-path="url(#pd66925c40f)" d="M 562.529887 87.704405 
L 562.529887 16.528672 
" style="fill:none;stroke:#000000;stroke-dasharray:0.5,0.825;stroke-dashoffset:0;stroke-width:0.5;"/>
     </g>
     <g id="line2d_25">
      <g>
       <use style="stroke:#000000;stroke-width:0.8;" x="562.529887" xlink:href="#m777c0e62a3" y="86.335641"/>
      </g>
     </g>
     <g id="text_2">
      <!-- $1$ -->
      <defs>
       <path d="M 9.28125 0 
L 9.28125 3.515625 
Q 21.78125 3.515625 21.78125 6.6875 
L 21.78125 59.1875 
Q 16.609375 56.6875 8.6875 56.6875 
L 8.6875 60.203125 
Q 20.953125 60.203125 27.203125 66.609375 
L 28.609375 66.609375 
Q 28.953125 66.609375 29.265625 66.328125 
Q 29.59375 66.0625 29.59375 65.71875 
L 29.59375 6.6875 
Q 29.59375 3.515625 42.09375 3.515625 
L 42.09375 0 
z
" id="Cmr10-31"/>
      </defs>
      <g transform="translate(560.029887 100.934078)scale(0.1 -0.1)">
       <use transform="translate(0 0.390625)" xlink:href="#Cmr10-31"/>
      </g>
     </g>
    </g>
   </g>
   <g id="matplotlib.axis_2">
    <g id="ytick_1">
     <g id="line2d_26">
      <path clip-path="url(#pd66925c40f)" d="M 4.074135 86.335641 
L 573.48 86.335641 
" style="fill:none;stroke:#000000;stroke-dasharray:0.5,0.825;stroke-dashoffset:0;stroke-width:0.5;"/>
     </g>
     <g id="line2d_27">
      <defs>
       <path d="M 0 0 
L -3.5 0 
" id="me6753c1c9f" style="stroke:#000000;stroke-width:0.8;"/>
      </defs>
      <g>
       <use style="stroke:#000000;stroke-width:0.8;" x="15.024247" xlink:href="#me6753c1c9f" y="86.335641"/>
      </g>
     </g>
    </g>
    <g id="ytick_2">
     <g id="line2d_28">
      <path clip-path="url(#pd66925c40f)" d="M 4.074135 17.897436 
L 573.48 17.897436 
" style="fill:none;stroke:#000000;stroke-dasharray:0.5,0.825;stroke-dashoffset:0;stroke-width:0.5;"/>
     </g>
     <g id="line2d_29">
      <g>
       <use style="stroke:#000000;stroke-width:0.8;" x="15.024247" xlink:href="#me6753c1c9f" y="17.897436"/>
      </g>
     </g>
     <g id="text_3">
      <!-- $1$ -->
      <g transform="translate(3.024247 21.696655)scale(0.1 -0.1)">
       <use transform="translate(0 0.390625)" xlink:href="#Cmr10-31"/>
      </g>
     </g>
    </g>
   </g>
   <g id="patch_3">
    <path d="M 15.024247 87.704405 
L 15.024247 16.528672 
" style="fill:none;stroke:#000000;stroke-linecap:square;stroke-linejoin:miter;stroke-width:0.8;"/>
   </g>
   <g id="patch_4">
    <path d="M 4.074135 86.335641 
L 573.48 86.335641 
" style="fill:none;stroke:#000000;stroke-linecap:square;stroke-linejoin:miter;stroke-width:0.8;"/>
   </g>
  </g>
 </g>
 <defs>
  <clipPath id="pd66925c40f">
   <rect height="71.175733" width="569.405865" x="4.074135" y="16.528672"/>
  </clipPath>
 </defs>
</svg>
