<?xml version="1.0" encoding="utf-8" standalone="no"?>
<!DOCTYPE svg PUBLIC "-//W3C//DTD SVG 1.1//EN"
  "http://www.w3.org/Graphics/SVG/1.1/DTD/svg11.dtd">
<!-- Created with matplotlib (http://matplotlib.org/) -->
<svg height="108pt" version="1.1" viewBox="0 0 576 108" width="576pt" xmlns="http://www.w3.org/2000/svg" xmlns:xlink="http://www.w3.org/1999/xlink">
 <defs>
  <style type="text/css">
*{stroke-linecap:butt;stroke-linejoin:round;}
  </style>
 </defs>
 <g id="figure_1">
  <g id="patch_1">
   <path d="M 0 108 
L 576 108 
L 576 0 
L 0 0 
z
" style="fill:#ffffff;"/>
  </g>
  <g id="axes_1">
   <g id="patch_2">
    <path d="M 4.074135 87.704405 
L 573.48 87.704405 
L 573.48 16.528672 
L 4.074135 16.528672 
z
" style="fill:#ffffff;"/>
   </g>
   <g id="line2d_1">
    <path clip-path="url(#pf24804a3f6)" d="M 75.858207 55.918661 
L 104.247389 73.661899 
L 104.247389 73.661899 
" style="fill:none;stroke:#ff0000;stroke-linecap:square;stroke-width:2;"/>
   </g>
   <g id="line2d_2">
    <path clip-path="url(#pf24804a3f6)" d="M 165.081349 43.244919 
L 193.47053 60.988158 
L 193.47053 60.988158 
" style="fill:none;stroke:#ff0000;stroke-linecap:square;stroke-width:2;"/>
   </g>
   <g id="line2d_3">
    <path clip-path="url(#pf24804a3f6)" d="M 254.30449 30.571178 
L 282.693671 48.314416 
L 282.693671 48.314416 
" style="fill:none;stroke:#ff0000;stroke-linecap:square;stroke-width:2;"/>
   </g>
   <g id="line2d_4">
    <path clip-path="url(#pf24804a3f6)" d="M 343.527631 17.897436 
L 396.250397 50.849164 
L 396.250397 50.849164 
" style="fill:none;stroke:#ff0000;stroke-linecap:square;stroke-width:2;"/>
   </g>
   <g id="line2d_5">
    <path clip-path="url(#pf24804a3f6)" d="M 426.667377 35.640674 
L 479.390142 68.592403 
L 479.390142 68.592403 
" style="fill:none;stroke:#ff0000;stroke-linecap:square;stroke-width:2;"/>
   </g>
   <g id="line2d_6">
    <path clip-path="url(#pf24804a3f6)" d="M 509.807122 53.383913 
L 562.529887 86.335641 
L 562.529887 86.335641 
" style="fill:none;stroke:#ff0000;stroke-linecap:square;stroke-width:2;"/>
   </g>
   <g id="line2d_7">
    <path clip-path="url(#pf24804a3f6)" d="M 15.024247 86.335641 
L 15.345225 86.175152 
L 15.769055 85.963237 
L 15.80721 85.94416 
L 16.37679 85.65937 
L 16.656692 85.519419 
L 16.826803 85.434363 
L 17.309927 85.192801 
L 17.450957 85.122286 
L 17.81771 84.93891 
L 18.106771 84.794379 
L 18.37944 84.658044 
L 18.560767 84.567381 
L 18.903262 84.396134 
L 19.16565 84.264939 
L 19.53595 84.07979 
L 19.792828 83.951351 
L 20.336525 83.679502 
L 20.520148 83.587691 
L 20.969251 83.363139 
L 21.1545 83.270514 
L 21.392341 83.151594 
L 21.710774 82.992378 
L 22.014744 82.840393 
L 22.420926 82.637302 
L 22.729969 82.48278 
L 22.928167 82.383681 
L 23.175456 82.260036 
L 23.530131 82.082699 
L 23.836718 81.929406 
L 24.314496 81.690517 
L 24.546784 81.574373 
L 24.837732 81.428899 
L 25.09246 81.301535 
L 25.500047 81.097741 
L 25.832696 80.931417 
L 26.093931 80.800799 
L 26.18533 80.7551 
L 26.631901 80.531814 
L 26.955144 80.370193 
L 27.279784 80.207873 
L 27.549548 80.07299 
L 28.006648 79.844441 
L 28.319358 79.688085 
L 28.377446 79.659042 
L 28.718788 79.48837 
L 28.950198 79.372666 
L 29.490879 79.102325 
L 29.820667 78.937431 
L 30.035167 78.830181 
L 30.457838 78.618846 
L 30.577651 78.558939 
L 30.840469 78.42753 
L 31.141538 78.276996 
L 31.39176 78.151884 
L 31.933387 77.881071 
L 32.205907 77.744811 
L 32.299968 77.69778 
L 32.867269 77.41413 
L 33.065116 77.315207 
L 33.458305 77.118612 
L 33.592591 77.051469 
L 33.846141 76.924694 
L 34.410228 76.642651 
L 34.449388 76.623071 
L 34.820461 76.437534 
L 35.169498 76.263016 
L 35.5029 76.096314 
L 35.74032 75.977605 
L 36.076734 75.809398 
L 36.477522 75.609004 
L 36.623136 75.536197 
L 36.998915 75.348307 
L 37.366872 75.164329 
L 37.62749 75.03402 
L 38.093678 74.800926 
L 38.121084 74.787222 
L 38.652903 74.521313 
L 38.828098 74.433716 
L 39.049531 74.322999 
L 39.384491 74.155519 
L 39.661159 74.017185 
L 40.05165 73.82194 
L 40.301248 73.697141 
L 40.770201 73.462664 
L 41.041827 73.326851 
L 41.459399 73.118065 
L 41.730604 72.982462 
L 41.781622 72.956954 
L 42.103584 72.795973 
L 42.399347 72.648091 
L 42.877133 72.409198 
L 43.228039 72.233745 
L 43.50267 72.09643 
L 43.873514 71.911008 
L 43.959911 71.867809 
L 44.500752 71.597389 
L 44.767049 71.46424 
L 44.902144 71.396693 
L 45.369616 71.162956 
L 45.712602 70.991463 
L 45.999815 70.847857 
L 46.080339 70.807595 
L 46.653933 70.520798 
L 46.803234 70.446148 
L 47.0044 70.345565 
L 47.285437 70.205046 
L 47.767789 69.96387 
L 47.968584 69.863473 
" style="fill:none;stroke:#00ffff;stroke-linecap:square;stroke-width:2;"/>
   </g>
   <g id="line2d_8">
    <path clip-path="url(#pf24804a3f6)" d="M 48.953693 69.370918 
L 49.413897 69.140816 
L 49.453201 69.121164 
L 49.999669 68.84793 
L 50.204525 68.745502 
L 50.565157 68.565186 
L 50.883965 68.405782 
L 51.14625 68.27464 
L 51.357818 68.168856 
L 51.751787 67.971871 
L 52.138785 67.778372 
L 52.192148 67.751691 
L 52.622333 67.536598 
L 53.046447 67.324541 
L 53.217344 67.239093 
L 53.570402 67.062564 
L 53.947793 66.873868 
L 54.272311 66.711609 
L 54.32922 66.683155 
L 54.638238 66.528646 
L 55.046125 66.324702 
L 55.406297 66.144616 
L 55.637949 66.02879 
L 55.90411 65.89571 
L 56.192607 65.751461 
L 56.533342 65.581093 
L 56.950239 65.372645 
L 57.06922 65.313155 
L 57.447019 65.124255 
L 57.678368 65.008581 
L 58.218957 64.738286 
L 58.306448 64.694541 
L 58.656024 64.519753 
L 59.165807 64.264861 
L 59.432398 64.131566 
L 59.557702 64.068914 
L 60.082892 63.806319 
L 60.203929 63.7458 
L 60.594908 63.550311 
L 60.767644 63.463943 
L 61.336321 63.179604 
L 61.369823 63.162853 
L 61.77816 62.958684 
L 61.965738 62.864896 
L 62.369782 62.662874 
L 62.57193 62.5618 
L 63.081594 62.306968 
L 63.224694 62.235417 
L 63.727276 61.984127 
L 63.795751 61.949889 
L 64.155548 61.769991 
L 64.660096 61.517717 
L 64.73554 61.479995 
L 65.253671 61.220929 
L 65.346522 61.174504 
L 65.821019 60.937255 
L 65.990709 60.85241 
L 66.357663 60.668933 
L 66.796476 60.449527 
L 67.086338 60.304596 
L 67.16521 60.26516 
L 67.579012 60.058259 
L 67.804367 59.945581 
L 68.27406 59.710734 
L 68.41698 59.639275 
L 68.920461 59.387534 
L 69.089184 59.303173 
L 69.544945 59.075292 
L 69.593433 59.051048 
L 70.049501 58.823014 
L 70.36891 58.66331 
L 70.741018 58.477255 
L 70.98353 58.356 
L 71.232881 58.231324 
L 71.491888 58.10182 
L 71.893596 57.900967 
L 72.238948 57.728291 
L 72.439888 57.627821 
L 72.929499 57.383015 
L 73.13587 57.279829 
L 73.292309 57.20161 
L 73.635286 57.030122 
L 73.896569 56.89948 
L 74.389598 56.652966 
L 74.761558 56.466986 
L 74.962126 56.366702 
L 75.323599 56.185965 
L 75.644746 56.025392 
L 75.858207 55.918661 
" style="fill:none;stroke:#00ffff;stroke-linecap:square;stroke-width:2;"/>
   </g>
   <g id="line2d_9">
    <path clip-path="url(#pf24804a3f6)" d="M 104.247389 73.661899 
L 165.081349 43.244919 
L 165.081349 43.244919 
" style="fill:none;stroke:#00ffff;stroke-linecap:square;stroke-width:2;"/>
   </g>
   <g id="line2d_10">
    <path clip-path="url(#pf24804a3f6)" d="M 193.47053 60.988158 
L 254.30449 30.571178 
L 254.30449 30.571178 
" style="fill:none;stroke:#00ffff;stroke-linecap:square;stroke-width:2;"/>
   </g>
   <g id="line2d_11">
    <path clip-path="url(#pf24804a3f6)" d="M 282.693671 48.314416 
L 343.527631 17.897436 
L 343.527631 17.897436 
" style="fill:none;stroke:#00ffff;stroke-linecap:square;stroke-width:2;"/>
   </g>
   <g id="line2d_12">
    <path clip-path="url(#pf24804a3f6)" d="M 396.250397 50.849164 
L 426.667377 35.640674 
L 426.667377 35.640674 
" style="fill:none;stroke:#00ffff;stroke-linecap:square;stroke-width:2;"/>
   </g>
   <g id="line2d_13">
    <path clip-path="url(#pf24804a3f6)" d="M 479.390142 68.592403 
L 509.807122 53.383913 
L 509.807122 53.383913 
" style="fill:none;stroke:#00ffff;stroke-linecap:square;stroke-width:2;"/>
   </g>
   <g id="matplotlib.axis_1">
    <g id="xtick_1">
     <g id="line2d_14">
      <path clip-path="url(#pf24804a3f6)" d="M 15.024247 87.704405 
L 15.024247 16.528672 
" style="fill:none;stroke:#000000;stroke-dasharray:0.5,0.825;stroke-dashoffset:0;stroke-width:0.5;"/>
     </g>
     <g id="line2d_15">
      <defs>
       <path d="M 0 0 
L 0 3.5 
" id="mbdfef59bc3" style="stroke:#000000;stroke-width:0.8;"/>
      </defs>
      <g>
       <use style="stroke:#000000;stroke-width:0.8;" x="15.024247" xlink:href="#mbdfef59bc3" y="86.335641"/>
      </g>
     </g>
    </g>
    <g id="xtick_2">
     <g id="line2d_16">
      <path clip-path="url(#pf24804a3f6)" d="M 343.527631 87.704405 
L 343.527631 16.528672 
" style="fill:none;stroke:#000000;stroke-dasharray:0.5,0.825;stroke-dashoffset:0;stroke-width:0.5;"/>
     </g>
     <g id="line2d_17">
      <g>
       <use style="stroke:#000000;stroke-width:0.8;" x="343.527631" xlink:href="#mbdfef59bc3" y="86.335641"/>
      </g>
     </g>
     <g id="text_1">
      <!-- $f$ -->
      <defs>
       <path d="M 9.71875 -16.5 
Q 11.578125 -17.921875 14.203125 -17.921875 
Q 17.78125 -17.921875 20.015625 -10.015625 
Q 20.953125 -6.203125 25.09375 15.09375 
L 29.6875 39.59375 
L 21.09375 39.59375 
Q 20.125 39.59375 20.125 40.921875 
Q 20.515625 43.109375 21.390625 43.109375 
L 30.328125 43.109375 
L 31.5 49.609375 
Q 32.078125 52.640625 32.5625 54.8125 
Q 33.0625 56.984375 33.625 58.828125 
Q 34.1875 60.6875 35.296875 62.984375 
Q 37.015625 66.265625 39.921875 68.390625 
Q 42.828125 70.515625 46.1875 70.515625 
Q 48.390625 70.515625 50.46875 69.703125 
Q 52.546875 68.890625 53.859375 67.28125 
Q 55.171875 65.671875 55.171875 63.484375 
Q 55.171875 60.9375 53.484375 59.046875 
Q 51.8125 57.171875 49.421875 57.171875 
Q 47.796875 57.171875 46.65625 58.171875 
Q 45.515625 59.1875 45.515625 60.796875 
Q 45.515625 62.984375 47 64.625 
Q 48.484375 66.265625 50.6875 66.5 
Q 48.828125 67.921875 46.09375 67.921875 
Q 44.578125 67.921875 43.234375 66.5 
Q 41.890625 65.09375 41.5 63.484375 
Q 40.875 60.9375 38.71875 49.703125 
L 37.5 43.109375 
L 47.796875 43.109375 
Q 48.78125 43.109375 48.78125 41.796875 
Q 48.734375 41.546875 48.578125 40.9375 
Q 48.4375 40.328125 48.171875 39.953125 
Q 47.90625 39.59375 47.515625 39.59375 
L 36.8125 39.59375 
L 32.171875 15.1875 
Q 31.296875 9.859375 30.140625 4.359375 
Q 29 -1.125 26.921875 -6.90625 
Q 24.859375 -12.703125 21.625 -16.609375 
Q 18.40625 -20.515625 14.015625 -20.515625 
Q 10.640625 -20.515625 7.984375 -18.578125 
Q 5.328125 -16.65625 5.328125 -13.484375 
Q 5.328125 -10.9375 6.953125 -9.046875 
Q 8.59375 -7.171875 11.078125 -7.171875 
Q 12.75 -7.171875 13.859375 -8.171875 
Q 14.984375 -9.1875 14.984375 -10.796875 
Q 14.984375 -12.9375 13.390625 -14.71875 
Q 11.8125 -16.5 9.71875 -16.5 
z
" id="Cmmi10-66"/>
      </defs>
      <g transform="translate(341.077631 100.913766)scale(0.1 -0.1)">
       <use transform="translate(0 0.484375)" xlink:href="#Cmmi10-66"/>
      </g>
     </g>
    </g>
    <g id="xtick_3">
     <g id="line2d_18">
      <path clip-path="url(#pf24804a3f6)" d="M 562.529887 87.704405 
L 562.529887 16.528672 
" style="fill:none;stroke:#000000;stroke-dasharray:0.5,0.825;stroke-dashoffset:0;stroke-width:0.5;"/>
     </g>
     <g id="line2d_19">
      <g>
       <use style="stroke:#000000;stroke-width:0.8;" x="562.529887" xlink:href="#mbdfef59bc3" y="86.335641"/>
      </g>
     </g>
     <g id="text_2">
      <!-- $1$ -->
      <defs>
       <path d="M 9.28125 0 
L 9.28125 3.515625 
Q 21.78125 3.515625 21.78125 6.6875 
L 21.78125 59.1875 
Q 16.609375 56.6875 8.6875 56.6875 
L 8.6875 60.203125 
Q 20.953125 60.203125 27.203125 66.609375 
L 28.609375 66.609375 
Q 28.953125 66.609375 29.265625 66.328125 
Q 29.59375 66.0625 29.59375 65.71875 
L 29.59375 6.6875 
Q 29.59375 3.515625 42.09375 3.515625 
L 42.09375 0 
z
" id="Cmr10-31"/>
      </defs>
      <g transform="translate(560.029887 100.934078)scale(0.1 -0.1)">
       <use transform="translate(0 0.390625)" xlink:href="#Cmr10-31"/>
      </g>
     </g>
    </g>
   </g>
   <g id="matplotlib.axis_2">
    <g id="ytick_1">
     <g id="line2d_20">
      <path clip-path="url(#pf24804a3f6)" d="M 4.074135 86.335641 
L 573.48 86.335641 
" style="fill:none;stroke:#000000;stroke-dasharray:0.5,0.825;stroke-dashoffset:0;stroke-width:0.5;"/>
     </g>
     <g id="line2d_21">
      <defs>
       <path d="M 0 0 
L -3.5 0 
" id="m5fe57b3eff" style="stroke:#000000;stroke-width:0.8;"/>
      </defs>
      <g>
       <use style="stroke:#000000;stroke-width:0.8;" x="15.024247" xlink:href="#m5fe57b3eff" y="86.335641"/>
      </g>
     </g>
    </g>
    <g id="ytick_2">
     <g id="line2d_22">
      <path clip-path="url(#pf24804a3f6)" d="M 4.074135 17.897436 
L 573.48 17.897436 
" style="fill:none;stroke:#000000;stroke-dasharray:0.5,0.825;stroke-dashoffset:0;stroke-width:0.5;"/>
     </g>
     <g id="line2d_23">
      <g>
       <use style="stroke:#000000;stroke-width:0.8;" x="15.024247" xlink:href="#m5fe57b3eff" y="17.897436"/>
      </g>
     </g>
     <g id="text_3">
      <!-- $1$ -->
      <g transform="translate(3.024247 21.696655)scale(0.1 -0.1)">
       <use transform="translate(0 0.390625)" xlink:href="#Cmr10-31"/>
      </g>
     </g>
    </g>
   </g>
   <g id="patch_3">
    <path d="M 15.024247 87.704405 
L 15.024247 16.528672 
" style="fill:none;stroke:#000000;stroke-linecap:square;stroke-linejoin:miter;stroke-width:0.8;"/>
   </g>
   <g id="patch_4">
    <path d="M 4.074135 86.335641 
L 573.48 86.335641 
" style="fill:none;stroke:#000000;stroke-linecap:square;stroke-linejoin:miter;stroke-width:0.8;"/>
   </g>
  </g>
 </g>
 <defs>
  <clipPath id="pf24804a3f6">
   <rect height="71.175733" width="569.405865" x="4.074135" y="16.528672"/>
  </clipPath>
 </defs>
</svg>
