<?xml version="1.0" encoding="utf-8" standalone="no"?>
<!DOCTYPE svg PUBLIC "-//W3C//DTD SVG 1.1//EN"
  "http://www.w3.org/Graphics/SVG/1.1/DTD/svg11.dtd">
<!-- Created with matplotlib (http://matplotlib.org/) -->
<svg height="108pt" version="1.1" viewBox="0 0 576 108" width="576pt" xmlns="http://www.w3.org/2000/svg" xmlns:xlink="http://www.w3.org/1999/xlink">
 <defs>
  <style type="text/css">
*{stroke-linecap:butt;stroke-linejoin:round;}
  </style>
 </defs>
 <g id="figure_1">
  <g id="patch_1">
   <path d="M 0 108 
L 576 108 
L 576 0 
L 0 0 
z
" style="fill:#ffffff;"/>
  </g>
  <g id="axes_1">
   <g id="patch_2">
    <path d="M 4.074135 87.704405 
L 573.48 87.704405 
L 573.48 16.528672 
L 4.074135 16.528672 
z
" style="fill:#ffffff;"/>
   </g>
   <g id="line2d_1">
    <path clip-path="url(#p46f8b9dd42)" d="M 15.024247 86.335641 
L 24.464 70.318189 
L 24.464 70.318189 
" style="fill:none;stroke:#ff0000;stroke-linecap:square;stroke-width:2;"/>
   </g>
   <g id="line2d_2">
    <path clip-path="url(#p46f8b9dd42)" d="M 147.180781 60.125265 
L 156.620534 44.107812 
L 156.620534 44.107812 
" style="fill:none;stroke:#ff0000;stroke-linecap:square;stroke-width:2;"/>
   </g>
   <g id="line2d_3">
    <path clip-path="url(#p46f8b9dd42)" d="M 279.337315 33.914888 
L 288.777067 17.897436 
L 288.777067 17.897436 
" style="fill:none;stroke:#ff0000;stroke-linecap:square;stroke-width:2;"/>
   </g>
   <g id="line2d_4">
    <path clip-path="url(#p46f8b9dd42)" d="M 288.777067 17.897436 
L 298.21682 33.914888 
L 298.21682 33.914888 
" style="fill:none;stroke:#ffff00;stroke-linecap:square;stroke-width:2;"/>
   </g>
   <g id="line2d_5">
    <path clip-path="url(#p46f8b9dd42)" d="M 420.933601 44.107812 
L 430.373353 60.125265 
L 430.373353 60.125265 
" style="fill:none;stroke:#ffff00;stroke-linecap:square;stroke-width:2;"/>
   </g>
   <g id="line2d_6">
    <path clip-path="url(#p46f8b9dd42)" d="M 553.090135 70.318189 
L 562.529887 86.335641 
L 562.529887 86.335641 
" style="fill:none;stroke:#ffff00;stroke-linecap:square;stroke-width:2;"/>
   </g>
   <g id="line2d_7">
    <path clip-path="url(#p46f8b9dd42)" d="M 298.21682 33.914888 
L 317.096325 54.300736 
L 317.096325 54.300736 
" style="fill:none;stroke:#00ff00;stroke-linecap:square;stroke-width:2;"/>
   </g>
   <g id="line2d_8">
    <path clip-path="url(#p46f8b9dd42)" d="M 326.536077 47.020076 
L 335.975829 57.213001 
L 335.975829 57.213001 
" style="fill:none;stroke:#00ff00;stroke-linecap:square;stroke-width:2;"/>
   </g>
   <g id="line2d_9">
    <path clip-path="url(#p46f8b9dd42)" d="M 345.415582 49.93234 
L 354.855334 60.125265 
L 354.855334 60.125265 
" style="fill:none;stroke:#00ff00;stroke-linecap:square;stroke-width:2;"/>
   </g>
   <g id="line2d_10">
    <path clip-path="url(#p46f8b9dd42)" d="M 392.614344 31.002624 
L 402.054096 41.195548 
L 402.054096 41.195548 
" style="fill:none;stroke:#00ff00;stroke-linecap:square;stroke-width:2;"/>
   </g>
   <g id="line2d_11">
    <path clip-path="url(#p46f8b9dd42)" d="M 411.493849 33.914888 
L 420.933601 44.107812 
L 420.933601 44.107812 
" style="fill:none;stroke:#00ff00;stroke-linecap:square;stroke-width:2;"/>
   </g>
   <g id="line2d_12">
    <path clip-path="url(#p46f8b9dd42)" d="M 430.373353 60.125265 
L 439.813106 70.318189 
L 439.813106 70.318189 
" style="fill:none;stroke:#00ff00;stroke-linecap:square;stroke-width:2;"/>
   </g>
   <g id="line2d_13">
    <path clip-path="url(#p46f8b9dd42)" d="M 449.252858 63.037529 
L 458.692611 73.230453 
L 458.692611 73.230453 
" style="fill:none;stroke:#00ff00;stroke-linecap:square;stroke-width:2;"/>
   </g>
   <g id="line2d_14">
    <path clip-path="url(#p46f8b9dd42)" d="M 496.45162 44.107812 
L 505.891373 54.300736 
L 505.891373 54.300736 
" style="fill:none;stroke:#00ff00;stroke-linecap:square;stroke-width:2;"/>
   </g>
   <g id="line2d_15">
    <path clip-path="url(#p46f8b9dd42)" d="M 515.331125 47.020076 
L 524.770878 57.213001 
L 524.770878 57.213001 
" style="fill:none;stroke:#00ff00;stroke-linecap:square;stroke-width:2;"/>
   </g>
   <g id="line2d_16">
    <path clip-path="url(#p46f8b9dd42)" d="M 534.21063 49.93234 
L 553.090135 70.318189 
L 553.090135 70.318189 
" style="fill:none;stroke:#00ff00;stroke-linecap:square;stroke-width:2;"/>
   </g>
   <g id="line2d_17">
    <path clip-path="url(#p46f8b9dd42)" d="M 317.096325 54.300736 
L 326.536077 47.020076 
L 326.536077 47.020076 
" style="fill:none;stroke:#00ffff;stroke-linecap:square;stroke-width:2;"/>
   </g>
   <g id="line2d_18">
    <path clip-path="url(#p46f8b9dd42)" d="M 335.975829 57.213001 
L 345.415582 49.93234 
L 345.415582 49.93234 
" style="fill:none;stroke:#00ffff;stroke-linecap:square;stroke-width:2;"/>
   </g>
   <g id="line2d_19">
    <path clip-path="url(#p46f8b9dd42)" d="M 354.855334 60.125265 
L 392.614344 31.002624 
L 392.614344 31.002624 
" style="fill:none;stroke:#00ffff;stroke-linecap:square;stroke-width:2;"/>
   </g>
   <g id="line2d_20">
    <path clip-path="url(#p46f8b9dd42)" d="M 402.054096 41.195548 
L 411.493849 33.914888 
L 411.493849 33.914888 
" style="fill:none;stroke:#00ffff;stroke-linecap:square;stroke-width:2;"/>
   </g>
   <g id="line2d_21">
    <path clip-path="url(#p46f8b9dd42)" d="M 439.813106 70.318189 
L 449.252858 63.037529 
L 449.252858 63.037529 
" style="fill:none;stroke:#00ffff;stroke-linecap:square;stroke-width:2;"/>
   </g>
   <g id="line2d_22">
    <path clip-path="url(#p46f8b9dd42)" d="M 458.692611 73.230453 
L 496.45162 44.107812 
L 496.45162 44.107812 
" style="fill:none;stroke:#00ffff;stroke-linecap:square;stroke-width:2;"/>
   </g>
   <g id="line2d_23">
    <path clip-path="url(#p46f8b9dd42)" d="M 505.891373 54.300736 
L 515.331125 47.020076 
L 515.331125 47.020076 
" style="fill:none;stroke:#00ffff;stroke-linecap:square;stroke-width:2;"/>
   </g>
   <g id="line2d_24">
    <path clip-path="url(#p46f8b9dd42)" d="M 524.770878 57.213001 
L 534.21063 49.93234 
L 534.21063 49.93234 
" style="fill:none;stroke:#00ffff;stroke-linecap:square;stroke-width:2;"/>
   </g>
   <g id="line2d_25">
    <path clip-path="url(#p46f8b9dd42)" d="M 43.343505 49.93234 
L 52.783257 57.213001 
L 52.783257 57.213001 
" style="fill:none;stroke:#0000ff;stroke-linecap:square;stroke-width:2;"/>
   </g>
   <g id="line2d_26">
    <path clip-path="url(#p46f8b9dd42)" d="M 62.223009 47.020076 
L 71.662762 54.300736 
L 71.662762 54.300736 
" style="fill:none;stroke:#0000ff;stroke-linecap:square;stroke-width:2;"/>
   </g>
   <g id="line2d_27">
    <path clip-path="url(#p46f8b9dd42)" d="M 81.102514 44.107812 
L 118.861524 73.230453 
L 118.861524 73.230453 
" style="fill:none;stroke:#0000ff;stroke-linecap:square;stroke-width:2;"/>
   </g>
   <g id="line2d_28">
    <path clip-path="url(#p46f8b9dd42)" d="M 128.301276 63.037529 
L 137.741029 70.318189 
L 137.741029 70.318189 
" style="fill:none;stroke:#0000ff;stroke-linecap:square;stroke-width:2;"/>
   </g>
   <g id="line2d_29">
    <path clip-path="url(#p46f8b9dd42)" d="M 166.060286 33.914888 
L 175.500038 41.195548 
L 175.500038 41.195548 
" style="fill:none;stroke:#0000ff;stroke-linecap:square;stroke-width:2;"/>
   </g>
   <g id="line2d_30">
    <path clip-path="url(#p46f8b9dd42)" d="M 184.939791 31.002624 
L 222.6988 60.125265 
L 222.6988 60.125265 
" style="fill:none;stroke:#0000ff;stroke-linecap:square;stroke-width:2;"/>
   </g>
   <g id="line2d_31">
    <path clip-path="url(#p46f8b9dd42)" d="M 232.138553 49.93234 
L 241.578305 57.213001 
L 241.578305 57.213001 
" style="fill:none;stroke:#0000ff;stroke-linecap:square;stroke-width:2;"/>
   </g>
   <g id="line2d_32">
    <path clip-path="url(#p46f8b9dd42)" d="M 251.018058 47.020076 
L 260.45781 54.300736 
L 260.45781 54.300736 
" style="fill:none;stroke:#0000ff;stroke-linecap:square;stroke-width:2;"/>
   </g>
   <g id="line2d_33">
    <path clip-path="url(#p46f8b9dd42)" d="M 24.464 70.318189 
L 43.343505 49.93234 
L 43.343505 49.93234 
" style="fill:none;stroke:#ff00ff;stroke-linecap:square;stroke-width:2;"/>
   </g>
   <g id="line2d_34">
    <path clip-path="url(#p46f8b9dd42)" d="M 52.783257 57.213001 
L 62.223009 47.020076 
L 62.223009 47.020076 
" style="fill:none;stroke:#ff00ff;stroke-linecap:square;stroke-width:2;"/>
   </g>
   <g id="line2d_35">
    <path clip-path="url(#p46f8b9dd42)" d="M 71.662762 54.300736 
L 81.102514 44.107812 
L 81.102514 44.107812 
" style="fill:none;stroke:#ff00ff;stroke-linecap:square;stroke-width:2;"/>
   </g>
   <g id="line2d_36">
    <path clip-path="url(#p46f8b9dd42)" d="M 118.861524 73.230453 
L 128.301276 63.037529 
L 128.301276 63.037529 
" style="fill:none;stroke:#ff00ff;stroke-linecap:square;stroke-width:2;"/>
   </g>
   <g id="line2d_37">
    <path clip-path="url(#p46f8b9dd42)" d="M 137.741029 70.318189 
L 137.769457 70.287492 
L 137.825945 70.226497 
L 137.860506 70.189179 
L 137.925898 70.11857 
L 137.955681 70.08641 
L 138.024479 70.012122 
L 138.082585 69.949381 
L 138.139995 69.88739 
L 138.167454 69.85774 
L 138.22668 69.793789 
L 138.280119 69.736086 
L 138.316129 69.697203 
L 138.377341 69.631107 
L 138.401779 69.604719 
L 138.475964 69.524615 
L 138.491632 69.507697 
L 138.527379 69.469098 
L 138.59801 69.392831 
L 138.623565 69.365237 
L 138.674868 69.309841 
L 138.735653 69.244206 
L 138.762737 69.214961 
L 138.81118 69.162654 
L 138.869154 69.100054 
L 138.913097 69.052604 
L 138.992427 68.966945 
L 139.023326 68.93358 
L 139.077335 68.875262 
L 139.113958 68.835717 
L 139.180811 68.763531 
L 139.20485 68.737573 
L 139.278749 68.657778 
L 139.318649 68.614694 
L 139.334769 68.597288 
L 139.411317 68.514632 
L 139.441973 68.481531 
L 139.477988 68.442642 
L 139.557215 68.357094 
L 139.600733 68.310104 
L 139.631921 68.276427 
L 139.675224 68.22967 
L 139.732516 68.167806 
L 139.789767 68.105987 
L 139.850697 68.040195 
L 139.893022 67.994494 
L 139.905509 67.98101 
L 139.959686 67.922511 
L 140.023396 67.853718 
L 140.051346 67.823537 
L 140.126275 67.74263 
L 140.14579 67.721559 
L 140.188874 67.675037 
L 140.276678 67.580227 
L 140.294396 67.561095 
L 140.360898 67.489287 
L 140.386394 67.461758 
L 140.422489 67.422782 
L 140.498521 67.340684 
L 140.541299 67.294493 
L 140.59223 67.239498 
L 140.612944 67.217131 
L 140.665832 67.160024 
L 140.731775 67.088819 
L 140.760351 67.057963 
L 140.813997 67.000037 
L 140.853527 66.957353 
" style="fill:none;stroke:#ff00ff;stroke-linecap:square;stroke-width:2;"/>
   </g>
   <g id="line2d_38">
    <path clip-path="url(#p46f8b9dd42)" d="M 141.019977 66.777622 
L 147.180781 60.125265 
L 147.180781 60.125265 
" style="fill:none;stroke:#ff00ff;stroke-linecap:square;stroke-width:2;"/>
   </g>
   <g id="line2d_39">
    <path clip-path="url(#p46f8b9dd42)" d="M 156.620534 44.107812 
L 166.060286 33.914888 
L 166.060286 33.914888 
" style="fill:none;stroke:#ff00ff;stroke-linecap:square;stroke-width:2;"/>
   </g>
   <g id="line2d_40">
    <path clip-path="url(#p46f8b9dd42)" d="M 175.500038 41.195548 
L 184.939791 31.002624 
L 184.939791 31.002624 
" style="fill:none;stroke:#ff00ff;stroke-linecap:square;stroke-width:2;"/>
   </g>
   <g id="line2d_41">
    <path clip-path="url(#p46f8b9dd42)" d="M 222.6988 60.125265 
L 232.138553 49.93234 
L 232.138553 49.93234 
" style="fill:none;stroke:#ff00ff;stroke-linecap:square;stroke-width:2;"/>
   </g>
   <g id="line2d_42">
    <path clip-path="url(#p46f8b9dd42)" d="M 241.578305 57.213001 
L 251.018058 47.020076 
L 251.018058 47.020076 
" style="fill:none;stroke:#ff00ff;stroke-linecap:square;stroke-width:2;"/>
   </g>
   <g id="line2d_43">
    <path clip-path="url(#p46f8b9dd42)" d="M 260.45781 54.300736 
L 279.337315 33.914888 
L 279.337315 33.914888 
" style="fill:none;stroke:#ff00ff;stroke-linecap:square;stroke-width:2;"/>
   </g>
   <g id="matplotlib.axis_1">
    <g id="xtick_1">
     <g id="line2d_44">
      <path clip-path="url(#p46f8b9dd42)" d="M 15.024247 87.704405 
L 15.024247 16.528672 
" style="fill:none;stroke:#000000;stroke-dasharray:0.5,0.825;stroke-dashoffset:0;stroke-width:0.5;"/>
     </g>
     <g id="line2d_45">
      <defs>
       <path d="M 0 0 
L 0 3.5 
" id="m8f3401783e" style="stroke:#000000;stroke-width:0.8;"/>
      </defs>
      <g>
       <use style="stroke:#000000;stroke-width:0.8;" x="15.024247" xlink:href="#m8f3401783e" y="86.335641"/>
      </g>
     </g>
    </g>
    <g id="xtick_2">
     <g id="line2d_46">
      <path clip-path="url(#p46f8b9dd42)" d="M 288.777067 87.704405 
L 288.777067 16.528672 
" style="fill:none;stroke:#000000;stroke-dasharray:0.5,0.825;stroke-dashoffset:0;stroke-width:0.5;"/>
     </g>
     <g id="line2d_47">
      <g>
       <use style="stroke:#000000;stroke-width:0.8;" x="288.777067" xlink:href="#m8f3401783e" y="86.335641"/>
      </g>
     </g>
     <g id="text_1">
      <!-- $f$ -->
      <defs>
       <path d="M 9.71875 -16.5 
Q 11.578125 -17.921875 14.203125 -17.921875 
Q 17.78125 -17.921875 20.015625 -10.015625 
Q 20.953125 -6.203125 25.09375 15.09375 
L 29.6875 39.59375 
L 21.09375 39.59375 
Q 20.125 39.59375 20.125 40.921875 
Q 20.515625 43.109375 21.390625 43.109375 
L 30.328125 43.109375 
L 31.5 49.609375 
Q 32.078125 52.640625 32.5625 54.8125 
Q 33.0625 56.984375 33.625 58.828125 
Q 34.1875 60.6875 35.296875 62.984375 
Q 37.015625 66.265625 39.921875 68.390625 
Q 42.828125 70.515625 46.1875 70.515625 
Q 48.390625 70.515625 50.46875 69.703125 
Q 52.546875 68.890625 53.859375 67.28125 
Q 55.171875 65.671875 55.171875 63.484375 
Q 55.171875 60.9375 53.484375 59.046875 
Q 51.8125 57.171875 49.421875 57.171875 
Q 47.796875 57.171875 46.65625 58.171875 
Q 45.515625 59.1875 45.515625 60.796875 
Q 45.515625 62.984375 47 64.625 
Q 48.484375 66.265625 50.6875 66.5 
Q 48.828125 67.921875 46.09375 67.921875 
Q 44.578125 67.921875 43.234375 66.5 
Q 41.890625 65.09375 41.5 63.484375 
Q 40.875 60.9375 38.71875 49.703125 
L 37.5 43.109375 
L 47.796875 43.109375 
Q 48.78125 43.109375 48.78125 41.796875 
Q 48.734375 41.546875 48.578125 40.9375 
Q 48.4375 40.328125 48.171875 39.953125 
Q 47.90625 39.59375 47.515625 39.59375 
L 36.8125 39.59375 
L 32.171875 15.1875 
Q 31.296875 9.859375 30.140625 4.359375 
Q 29 -1.125 26.921875 -6.90625 
Q 24.859375 -12.703125 21.625 -16.609375 
Q 18.40625 -20.515625 14.015625 -20.515625 
Q 10.640625 -20.515625 7.984375 -18.578125 
Q 5.328125 -16.65625 5.328125 -13.484375 
Q 5.328125 -10.9375 6.953125 -9.046875 
Q 8.59375 -7.171875 11.078125 -7.171875 
Q 12.75 -7.171875 13.859375 -8.171875 
Q 14.984375 -9.1875 14.984375 -10.796875 
Q 14.984375 -12.9375 13.390625 -14.71875 
Q 11.8125 -16.5 9.71875 -16.5 
z
" id="Cmmi10-66"/>
      </defs>
      <g transform="translate(286.327067 100.913766)scale(0.1 -0.1)">
       <use transform="translate(0 0.484375)" xlink:href="#Cmmi10-66"/>
      </g>
     </g>
    </g>
    <g id="xtick_3">
     <g id="line2d_48">
      <path clip-path="url(#p46f8b9dd42)" d="M 562.529887 87.704405 
L 562.529887 16.528672 
" style="fill:none;stroke:#000000;stroke-dasharray:0.5,0.825;stroke-dashoffset:0;stroke-width:0.5;"/>
     </g>
     <g id="line2d_49">
      <g>
       <use style="stroke:#000000;stroke-width:0.8;" x="562.529887" xlink:href="#m8f3401783e" y="86.335641"/>
      </g>
     </g>
     <g id="text_2">
      <!-- $1$ -->
      <defs>
       <path d="M 9.28125 0 
L 9.28125 3.515625 
Q 21.78125 3.515625 21.78125 6.6875 
L 21.78125 59.1875 
Q 16.609375 56.6875 8.6875 56.6875 
L 8.6875 60.203125 
Q 20.953125 60.203125 27.203125 66.609375 
L 28.609375 66.609375 
Q 28.953125 66.609375 29.265625 66.328125 
Q 29.59375 66.0625 29.59375 65.71875 
L 29.59375 6.6875 
Q 29.59375 3.515625 42.09375 3.515625 
L 42.09375 0 
z
" id="Cmr10-31"/>
      </defs>
      <g transform="translate(560.029887 100.934078)scale(0.1 -0.1)">
       <use transform="translate(0 0.390625)" xlink:href="#Cmr10-31"/>
      </g>
     </g>
    </g>
   </g>
   <g id="matplotlib.axis_2">
    <g id="ytick_1">
     <g id="line2d_50">
      <path clip-path="url(#p46f8b9dd42)" d="M 4.074135 86.335641 
L 573.48 86.335641 
" style="fill:none;stroke:#000000;stroke-dasharray:0.5,0.825;stroke-dashoffset:0;stroke-width:0.5;"/>
     </g>
     <g id="line2d_51">
      <defs>
       <path d="M 0 0 
L -3.5 0 
" id="mf23bb90984" style="stroke:#000000;stroke-width:0.8;"/>
      </defs>
      <g>
       <use style="stroke:#000000;stroke-width:0.8;" x="15.024247" xlink:href="#mf23bb90984" y="86.335641"/>
      </g>
     </g>
    </g>
    <g id="ytick_2">
     <g id="line2d_52">
      <path clip-path="url(#p46f8b9dd42)" d="M 4.074135 17.897436 
L 573.48 17.897436 
" style="fill:none;stroke:#000000;stroke-dasharray:0.5,0.825;stroke-dashoffset:0;stroke-width:0.5;"/>
     </g>
     <g id="line2d_53">
      <g>
       <use style="stroke:#000000;stroke-width:0.8;" x="15.024247" xlink:href="#mf23bb90984" y="17.897436"/>
      </g>
     </g>
     <g id="text_3">
      <!-- $1$ -->
      <g transform="translate(3.024247 21.696655)scale(0.1 -0.1)">
       <use transform="translate(0 0.390625)" xlink:href="#Cmr10-31"/>
      </g>
     </g>
    </g>
   </g>
   <g id="patch_3">
    <path d="M 15.024247 87.704405 
L 15.024247 16.528672 
" style="fill:none;stroke:#000000;stroke-linecap:square;stroke-linejoin:miter;stroke-width:0.8;"/>
   </g>
   <g id="patch_4">
    <path d="M 4.074135 86.335641 
L 573.48 86.335641 
" style="fill:none;stroke:#000000;stroke-linecap:square;stroke-linejoin:miter;stroke-width:0.8;"/>
   </g>
  </g>
 </g>
 <defs>
  <clipPath id="p46f8b9dd42">
   <rect height="71.175733" width="569.405865" x="4.074135" y="16.528672"/>
  </clipPath>
 </defs>
</svg>
