<?xml version="1.0" encoding="utf-8" standalone="no"?>
<!DOCTYPE svg PUBLIC "-//W3C//DTD SVG 1.1//EN"
  "http://www.w3.org/Graphics/SVG/1.1/DTD/svg11.dtd">
<!-- Created with matplotlib (http://matplotlib.org/) -->
<svg height="108pt" version="1.1" viewBox="0 0 576 108" width="576pt" xmlns="http://www.w3.org/2000/svg" xmlns:xlink="http://www.w3.org/1999/xlink">
 <defs>
  <style type="text/css">
*{stroke-linecap:butt;stroke-linejoin:round;}
  </style>
 </defs>
 <g id="figure_1">
  <g id="patch_1">
   <path d="M 0 108 
L 576 108 
L 576 0 
L 0 0 
z
" style="fill:#ffffff;"/>
  </g>
  <g id="axes_1">
   <g id="patch_2">
    <path d="M 4.074135 87.704405 
L 573.48 87.704405 
L 573.48 16.528672 
L 4.074135 16.528672 
z
" style="fill:#ffffff;"/>
   </g>
   <g id="line2d_1">
    <path clip-path="url(#pef3f75ce8c)" d="M 191.63897 17.897436 
L 209.300442 63.092477 
L 209.300442 63.092477 
" style="fill:none;stroke:#ff0000;stroke-linecap:square;stroke-width:2;"/>
   </g>
   <g id="line2d_2">
    <path clip-path="url(#pef3f75ce8c)" d="M 544.868415 41.1406 
L 562.529887 86.335641 
L 562.529887 86.335641 
" style="fill:none;stroke:#ff0000;stroke-linecap:square;stroke-width:2;"/>
   </g>
   <g id="line2d_3">
    <path clip-path="url(#pef3f75ce8c)" d="M 68.008664 61.80119 
L 85.670136 66.966338 
L 85.670136 66.966338 
" style="fill:none;stroke:#ffda00;stroke-linecap:square;stroke-width:2;"/>
   </g>
   <g id="line2d_4">
    <path clip-path="url(#pef3f75ce8c)" d="M 120.993081 37.266739 
L 138.654553 42.431887 
L 138.654553 42.431887 
" style="fill:none;stroke:#ffda00;stroke-linecap:square;stroke-width:2;"/>
   </g>
   <g id="line2d_5">
    <path clip-path="url(#pef3f75ce8c)" d="M 368.253692 49.533965 
L 385.915165 54.699112 
L 385.915165 54.699112 
" style="fill:none;stroke:#ffda00;stroke-linecap:square;stroke-width:2;"/>
   </g>
   <g id="line2d_6">
    <path clip-path="url(#pef3f75ce8c)" d="M 244.623387 53.407825 
L 262.284859 68.580446 
L 262.284859 68.580446 
" style="fill:none;stroke:#48ff00;stroke-linecap:square;stroke-width:2;"/>
   </g>
   <g id="line2d_7">
    <path clip-path="url(#pef3f75ce8c)" d="M 491.883998 35.652631 
L 509.54547 50.825252 
L 509.54547 50.825252 
" style="fill:none;stroke:#48ff00;stroke-linecap:square;stroke-width:2;"/>
   </g>
   <g id="line2d_8">
    <path clip-path="url(#pef3f75ce8c)" d="M 209.300442 63.092477 
L 244.623387 53.407825 
L 244.623387 53.407825 
" style="fill:none;stroke:#00ff91;stroke-linecap:square;stroke-width:2;"/>
   </g>
   <g id="line2d_9">
    <path clip-path="url(#pef3f75ce8c)" d="M 279.946331 53.730647 
L 297.607803 48.888321 
L 297.607803 48.888321 
" style="fill:none;stroke:#00ff91;stroke-linecap:square;stroke-width:2;"/>
   </g>
   <g id="line2d_10">
    <path clip-path="url(#pef3f75ce8c)" d="M 315.269276 74.068416 
L 332.930748 69.22609 
L 332.930748 69.22609 
" style="fill:none;stroke:#00ff91;stroke-linecap:square;stroke-width:2;"/>
   </g>
   <g id="line2d_11">
    <path clip-path="url(#pef3f75ce8c)" d="M 350.59222 54.376291 
L 368.253692 49.533965 
L 368.253692 49.533965 
" style="fill:none;stroke:#00ff91;stroke-linecap:square;stroke-width:2;"/>
   </g>
   <g id="line2d_12">
    <path clip-path="url(#pef3f75ce8c)" d="M 385.915165 54.699112 
L 403.576637 49.856786 
L 403.576637 49.856786 
" style="fill:none;stroke:#00ff91;stroke-linecap:square;stroke-width:2;"/>
   </g>
   <g id="line2d_13">
    <path clip-path="url(#pef3f75ce8c)" d="M 421.238109 35.006987 
L 438.899581 30.164661 
L 438.899581 30.164661 
" style="fill:none;stroke:#00ff91;stroke-linecap:square;stroke-width:2;"/>
   </g>
   <g id="line2d_14">
    <path clip-path="url(#pef3f75ce8c)" d="M 456.561054 55.344756 
L 456.609737 55.331408 
L 456.778749 55.285069 
L 456.797579 55.279906 
L 456.941244 55.240517 
L 457.02352 55.217959 
L 457.051993 55.210153 
L 457.155219 55.181851 
L 457.262964 55.15231 
L 457.380708 55.120027 
L 457.471901 55.095024 
L 457.52951 55.07923 
L 457.638286 55.049406 
L 457.726477 55.025226 
L 457.80648 55.003291 
L 457.870444 54.985754 
L 457.957125 54.961988 
L 458.104607 54.921553 
L 458.182064 54.900316 
L 458.244805 54.883114 
L 458.367194 54.849558 
L 458.410476 54.837691 
L 458.554056 54.798325 
L 458.629798 54.777559 
L 458.655511 54.770509 
L 458.742731 54.746595 
L 458.863946 54.713361 
L 458.938515 54.692916 
L 459.064901 54.658264 
L 459.168478 54.629866 
L 459.198992 54.6215 
L 459.273338 54.601116 
L 459.365817 54.575761 
L 459.510648 54.536052 
L 459.562511 54.521833 
L 459.625661 54.504518 
L 459.780789 54.461986 
L 459.832964 54.447681 
L 459.919397 54.423983 
L 460.051383 54.387796 
L 460.107061 54.372531 
L 460.222807 54.340796 
L 460.320985 54.313878 
L 460.382506 54.297011 
L 460.436341 54.28225 
L 460.547042 54.251899 
L 460.633565 54.228177 
L 460.704015 54.208861 
L 460.807524 54.180482 
L 460.935041 54.14552 
L 461.042882 54.115952 
L 461.068795 54.108848 
L 461.187713 54.076243 
L 461.249849 54.059207 
L 461.335028 54.035854 
L 461.454008 54.003232 
L 461.543708 53.978639 
L 461.644162 53.951097 
L 461.700438 53.935667 
L 461.756624 53.920263 
L 461.926828 53.873597 
L 461.972778 53.860999 
L 462.089634 53.82896 
L 462.184721 53.802889 
L 462.25675 53.783141 
L 462.361094 53.754532 
L 462.38629 53.747624 
L 462.54519 53.704058 
L 462.572857 53.696472 
L 462.677564 53.667764 
L 462.79282 53.636164 
L 462.827533 53.626647 
" style="fill:none;stroke:#00ff91;stroke-linecap:square;stroke-width:2;"/>
   </g>
   <g id="line2d_15">
    <path clip-path="url(#pef3f75ce8c)" d="M 463.092273 53.554062 
L 463.185526 53.528494 
L 463.294718 53.498556 
L 463.437118 53.459514 
L 463.516967 53.437621 
L 463.601683 53.414394 
L 463.705307 53.385983 
L 463.761429 53.370596 
L 463.827056 53.352603 
L 463.924899 53.325777 
L 464.000111 53.305156 
L 464.108643 53.275399 
L 464.180264 53.255762 
L 464.305897 53.221317 
L 464.399893 53.195546 
L 464.432519 53.1866 
L 464.543456 53.156184 
L 464.620132 53.135162 
L 464.70276 53.112507 
L 464.817062 53.081169 
L 464.887585 53.061833 
L 464.953502 53.04376 
L 465.10398 53.002503 
L 465.165278 52.985697 
L 465.29557 52.949974 
L 465.387407 52.924794 
L 465.409913 52.918624 
L 465.557014 52.878292 
L 465.590186 52.869197 
L 465.684398 52.843367 
L 465.772086 52.819325 
L 465.849903 52.79799 
L 465.95622 52.76884 
L 466.053692 52.742116 
L 466.10799 52.727229 
L 466.241576 52.690603 
L 466.307383 52.67256 
L 466.375986 52.653751 
L 466.536402 52.609769 
L 466.558854 52.603613 
L 466.656958 52.576716 
L 466.72812 52.557205 
L 466.848696 52.524146 
L 466.97669 52.489053 
L 467.055886 52.46734 
L 467.100393 52.455137 
L 467.200403 52.427717 
L 467.28903 52.403418 
L 467.345834 52.387844 
L 467.446116 52.360349 
L 467.589678 52.320988 
L 467.614407 52.314208 
L 467.703741 52.289715 
L 467.860862 52.246636 
L 467.934374 52.226481 
L 468.038512 52.197929 
L 468.065319 52.190579 
L 468.17401 52.160779 
L 468.291592 52.128541 
L 468.344843 52.113941 
L 468.442539 52.087155 
L 468.571867 52.051697 
L 468.612414 52.04058 
L 468.704168 52.015423 
L 468.811274 51.986057 
L 468.91853 51.95665 
L 469.007797 51.932176 
L 469.094061 51.908524 
L 469.160349 51.89035 
L 469.277442 51.858246 
L 469.32496 51.845218 
L 469.466481 51.806416 
L 469.539312 51.786448 
L 469.64748 51.756791 
L 469.67744 51.748577 
L 469.764087 51.72482 
L 469.913934 51.683736 
L 469.927042 51.680142 
L 470.061589 51.643253 
L 470.170464 51.613402 
L 470.196541 51.606252 
L 470.310125 51.575111 
L 470.441476 51.539097 
L 470.511443 51.519914 
L 470.54993 51.509362 
L 470.671066 51.47615 
L 470.732661 51.459262 
L 470.829121 51.432815 
L 470.914897 51.409298 
L 471.048098 51.372777 
L 471.103172 51.357677 
L 471.186494 51.334832 
L 471.249553 51.317543 
L 471.418216 51.2713 
L 471.431921 51.267543 
L 471.564694 51.23114 
L 471.61086 51.218482 
L 471.703138 51.193182 
L 471.829813 51.158451 
L 471.886234 51.142982 
L 472.031497 51.103154 
L 472.095344 51.085649 
L 472.155655 51.069113 
L 472.310322 51.026707 
L 472.371669 51.009888 
L 472.437955 50.991714 
L 472.501256 50.974358 
L 472.612836 50.943766 
L 472.693162 50.921742 
L 472.822877 50.886178 
L 472.933371 50.855883 
L 473.011478 50.834468 
L 473.034629 50.828121 
L 473.199724 50.782856 
L 473.238871 50.772123 
L 473.347795 50.742259 
L 473.429515 50.719853 
L 473.509101 50.698033 
L 473.557019 50.684895 
L 473.670691 50.653729 
L 473.786391 50.622007 
L 473.826939 50.61089 
L 473.972813 50.570895 
L 474.019156 50.558189 
L 474.145493 50.52355 
L 474.222526 50.50243 
" style="fill:none;stroke:#00ff91;stroke-linecap:square;stroke-width:2;"/>
   </g>
   <g id="line2d_16">
    <path clip-path="url(#pef3f75ce8c)" d="M 509.54547 50.825252 
L 544.868415 41.1406 
L 544.868415 41.1406 
" style="fill:none;stroke:#00ff91;stroke-linecap:square;stroke-width:2;"/>
   </g>
   <g id="line2d_17">
    <path clip-path="url(#pef3f75ce8c)" d="M 15.024247 86.335641 
L 50.347192 36.621096 
L 50.347192 36.621096 
" style="fill:none;stroke:#0091ff;stroke-linecap:square;stroke-width:2;"/>
   </g>
   <g id="line2d_18">
    <path clip-path="url(#pef3f75ce8c)" d="M 156.316025 67.611981 
L 191.63897 17.897436 
L 191.63897 17.897436 
" style="fill:none;stroke:#0091ff;stroke-linecap:square;stroke-width:2;"/>
   </g>
   <g id="line2d_19">
    <path clip-path="url(#pef3f75ce8c)" d="M 50.347192 36.621096 
L 68.008664 61.80119 
L 68.008664 61.80119 
" style="fill:none;stroke:#4800ff;stroke-linecap:square;stroke-width:2;"/>
   </g>
   <g id="line2d_20">
    <path clip-path="url(#pef3f75ce8c)" d="M 138.654553 42.431887 
L 156.316025 67.611981 
L 156.316025 67.611981 
" style="fill:none;stroke:#4800ff;stroke-linecap:square;stroke-width:2;"/>
   </g>
   <g id="line2d_21">
    <path clip-path="url(#pef3f75ce8c)" d="M 297.607803 48.888321 
L 315.269276 74.068416 
L 315.269276 74.068416 
" style="fill:none;stroke:#4800ff;stroke-linecap:square;stroke-width:2;"/>
   </g>
   <g id="line2d_22">
    <path clip-path="url(#pef3f75ce8c)" d="M 438.899581 30.164661 
L 456.561054 55.344756 
L 456.561054 55.344756 
" style="fill:none;stroke:#4800ff;stroke-linecap:square;stroke-width:2;"/>
   </g>
   <g id="line2d_23">
    <path clip-path="url(#pef3f75ce8c)" d="M 85.670136 66.966338 
L 120.993081 37.266739 
L 120.993081 37.266739 
" style="fill:none;stroke:#ff00da;stroke-linecap:square;stroke-width:2;"/>
   </g>
   <g id="line2d_24">
    <path clip-path="url(#pef3f75ce8c)" d="M 262.284859 68.580446 
L 279.946331 53.730647 
L 279.946331 53.730647 
" style="fill:none;stroke:#ff00da;stroke-linecap:square;stroke-width:2;"/>
   </g>
   <g id="line2d_25">
    <path clip-path="url(#pef3f75ce8c)" d="M 332.930748 69.22609 
L 350.59222 54.376291 
L 350.59222 54.376291 
" style="fill:none;stroke:#ff00da;stroke-linecap:square;stroke-width:2;"/>
   </g>
   <g id="line2d_26">
    <path clip-path="url(#pef3f75ce8c)" d="M 403.576637 49.856786 
L 421.238109 35.006987 
L 421.238109 35.006987 
" style="fill:none;stroke:#ff00da;stroke-linecap:square;stroke-width:2;"/>
   </g>
   <g id="line2d_27">
    <path clip-path="url(#pef3f75ce8c)" d="M 474.222526 50.50243 
L 491.883998 35.652631 
L 491.883998 35.652631 
" style="fill:none;stroke:#ff00da;stroke-linecap:square;stroke-width:2;"/>
   </g>
   <g id="matplotlib.axis_1">
    <g id="xtick_1">
     <g id="line2d_28">
      <path clip-path="url(#pef3f75ce8c)" d="M 15.024247 87.704405 
L 15.024247 16.528672 
" style="fill:none;stroke:#000000;stroke-dasharray:0.5,0.825;stroke-dashoffset:0;stroke-width:0.5;"/>
     </g>
     <g id="line2d_29">
      <defs>
       <path d="M 0 0 
L 0 3.5 
" id="m82143ea1d6" style="stroke:#000000;stroke-width:0.8;"/>
      </defs>
      <g>
       <use style="stroke:#000000;stroke-width:0.8;" x="15.024247" xlink:href="#m82143ea1d6" y="86.335641"/>
      </g>
     </g>
    </g>
    <g id="xtick_2">
     <g id="line2d_30">
      <path clip-path="url(#pef3f75ce8c)" d="M 191.63897 87.704405 
L 191.63897 16.528672 
" style="fill:none;stroke:#000000;stroke-dasharray:0.5,0.825;stroke-dashoffset:0;stroke-width:0.5;"/>
     </g>
     <g id="line2d_31">
      <g>
       <use style="stroke:#000000;stroke-width:0.8;" x="191.63897" xlink:href="#m82143ea1d6" y="86.335641"/>
      </g>
     </g>
     <g id="text_1">
      <!-- $f$ -->
      <defs>
       <path d="M 9.71875 -16.5 
Q 11.578125 -17.921875 14.203125 -17.921875 
Q 17.78125 -17.921875 20.015625 -10.015625 
Q 20.953125 -6.203125 25.09375 15.09375 
L 29.6875 39.59375 
L 21.09375 39.59375 
Q 20.125 39.59375 20.125 40.921875 
Q 20.515625 43.109375 21.390625 43.109375 
L 30.328125 43.109375 
L 31.5 49.609375 
Q 32.078125 52.640625 32.5625 54.8125 
Q 33.0625 56.984375 33.625 58.828125 
Q 34.1875 60.6875 35.296875 62.984375 
Q 37.015625 66.265625 39.921875 68.390625 
Q 42.828125 70.515625 46.1875 70.515625 
Q 48.390625 70.515625 50.46875 69.703125 
Q 52.546875 68.890625 53.859375 67.28125 
Q 55.171875 65.671875 55.171875 63.484375 
Q 55.171875 60.9375 53.484375 59.046875 
Q 51.8125 57.171875 49.421875 57.171875 
Q 47.796875 57.171875 46.65625 58.171875 
Q 45.515625 59.1875 45.515625 60.796875 
Q 45.515625 62.984375 47 64.625 
Q 48.484375 66.265625 50.6875 66.5 
Q 48.828125 67.921875 46.09375 67.921875 
Q 44.578125 67.921875 43.234375 66.5 
Q 41.890625 65.09375 41.5 63.484375 
Q 40.875 60.9375 38.71875 49.703125 
L 37.5 43.109375 
L 47.796875 43.109375 
Q 48.78125 43.109375 48.78125 41.796875 
Q 48.734375 41.546875 48.578125 40.9375 
Q 48.4375 40.328125 48.171875 39.953125 
Q 47.90625 39.59375 47.515625 39.59375 
L 36.8125 39.59375 
L 32.171875 15.1875 
Q 31.296875 9.859375 30.140625 4.359375 
Q 29 -1.125 26.921875 -6.90625 
Q 24.859375 -12.703125 21.625 -16.609375 
Q 18.40625 -20.515625 14.015625 -20.515625 
Q 10.640625 -20.515625 7.984375 -18.578125 
Q 5.328125 -16.65625 5.328125 -13.484375 
Q 5.328125 -10.9375 6.953125 -9.046875 
Q 8.59375 -7.171875 11.078125 -7.171875 
Q 12.75 -7.171875 13.859375 -8.171875 
Q 14.984375 -9.1875 14.984375 -10.796875 
Q 14.984375 -12.9375 13.390625 -14.71875 
Q 11.8125 -16.5 9.71875 -16.5 
z
" id="Cmmi10-66"/>
      </defs>
      <g transform="translate(189.18897 100.913766)scale(0.1 -0.1)">
       <use transform="translate(0 0.484375)" xlink:href="#Cmmi10-66"/>
      </g>
     </g>
    </g>
    <g id="xtick_3">
     <g id="line2d_32">
      <path clip-path="url(#pef3f75ce8c)" d="M 562.529887 87.704405 
L 562.529887 16.528672 
" style="fill:none;stroke:#000000;stroke-dasharray:0.5,0.825;stroke-dashoffset:0;stroke-width:0.5;"/>
     </g>
     <g id="line2d_33">
      <g>
       <use style="stroke:#000000;stroke-width:0.8;" x="562.529887" xlink:href="#m82143ea1d6" y="86.335641"/>
      </g>
     </g>
     <g id="text_2">
      <!-- $1$ -->
      <defs>
       <path d="M 9.28125 0 
L 9.28125 3.515625 
Q 21.78125 3.515625 21.78125 6.6875 
L 21.78125 59.1875 
Q 16.609375 56.6875 8.6875 56.6875 
L 8.6875 60.203125 
Q 20.953125 60.203125 27.203125 66.609375 
L 28.609375 66.609375 
Q 28.953125 66.609375 29.265625 66.328125 
Q 29.59375 66.0625 29.59375 65.71875 
L 29.59375 6.6875 
Q 29.59375 3.515625 42.09375 3.515625 
L 42.09375 0 
z
" id="Cmr10-31"/>
      </defs>
      <g transform="translate(560.029887 100.934078)scale(0.1 -0.1)">
       <use transform="translate(0 0.390625)" xlink:href="#Cmr10-31"/>
      </g>
     </g>
    </g>
   </g>
   <g id="matplotlib.axis_2">
    <g id="ytick_1">
     <g id="line2d_34">
      <path clip-path="url(#pef3f75ce8c)" d="M 4.074135 86.335641 
L 573.48 86.335641 
" style="fill:none;stroke:#000000;stroke-dasharray:0.5,0.825;stroke-dashoffset:0;stroke-width:0.5;"/>
     </g>
     <g id="line2d_35">
      <defs>
       <path d="M 0 0 
L -3.5 0 
" id="m0f2a5bd0da" style="stroke:#000000;stroke-width:0.8;"/>
      </defs>
      <g>
       <use style="stroke:#000000;stroke-width:0.8;" x="15.024247" xlink:href="#m0f2a5bd0da" y="86.335641"/>
      </g>
     </g>
    </g>
    <g id="ytick_2">
     <g id="line2d_36">
      <path clip-path="url(#pef3f75ce8c)" d="M 4.074135 17.897436 
L 573.48 17.897436 
" style="fill:none;stroke:#000000;stroke-dasharray:0.5,0.825;stroke-dashoffset:0;stroke-width:0.5;"/>
     </g>
     <g id="line2d_37">
      <g>
       <use style="stroke:#000000;stroke-width:0.8;" x="15.024247" xlink:href="#m0f2a5bd0da" y="17.897436"/>
      </g>
     </g>
     <g id="text_3">
      <!-- $1$ -->
      <g transform="translate(3.024247 21.696655)scale(0.1 -0.1)">
       <use transform="translate(0 0.390625)" xlink:href="#Cmr10-31"/>
      </g>
     </g>
    </g>
   </g>
   <g id="patch_3">
    <path d="M 15.024247 87.704405 
L 15.024247 16.528672 
" style="fill:none;stroke:#000000;stroke-linecap:square;stroke-linejoin:miter;stroke-width:0.8;"/>
   </g>
   <g id="patch_4">
    <path d="M 4.074135 86.335641 
L 573.48 86.335641 
" style="fill:none;stroke:#000000;stroke-linecap:square;stroke-linejoin:miter;stroke-width:0.8;"/>
   </g>
  </g>
 </g>
 <defs>
  <clipPath id="pef3f75ce8c">
   <rect height="71.175733" width="569.405865" x="4.074135" y="16.528672"/>
  </clipPath>
 </defs>
</svg>
