<?xml version="1.0" encoding="utf-8" standalone="no"?>
<!DOCTYPE svg PUBLIC "-//W3C//DTD SVG 1.1//EN"
  "http://www.w3.org/Graphics/SVG/1.1/DTD/svg11.dtd">
<!-- Created with matplotlib (http://matplotlib.org/) -->
<svg height="108pt" version="1.1" viewBox="0 0 576 108" width="576pt" xmlns="http://www.w3.org/2000/svg" xmlns:xlink="http://www.w3.org/1999/xlink">
 <defs>
  <style type="text/css">
*{stroke-linecap:butt;stroke-linejoin:round;}
  </style>
 </defs>
 <g id="figure_1">
  <g id="patch_1">
   <path d="M 0 108 
L 576 108 
L 576 0 
L 0 0 
z
" style="fill:#ffffff;"/>
  </g>
  <g id="axes_1">
   <g id="patch_2">
    <path d="M 4.074135 87.704405 
L 573.48 87.704405 
L 573.48 16.528672 
L 4.074135 16.528672 
z
" style="fill:#ffffff;"/>
   </g>
   <g id="line2d_1">
    <path clip-path="url(#p8a92d207ac)" d="M 106.275187 17.897436 
L 151.900657 65.804179 
L 151.900657 65.804179 
" style="fill:none;stroke:#ff0000;stroke-linecap:square;stroke-width:2;"/>
   </g>
   <g id="line2d_2">
    <path clip-path="url(#p8a92d207ac)" d="M 516.904417 38.428897 
L 562.529887 86.335641 
L 562.529887 86.335641 
" style="fill:none;stroke:#ff0000;stroke-linecap:square;stroke-width:2;"/>
   </g>
   <g id="line2d_3">
    <path clip-path="url(#p8a92d207ac)" d="M 197.526127 31.585077 
L 471.278947 72.648 
L 471.278947 72.648 
" style="fill:none;stroke:#00ff00;stroke-linecap:square;stroke-width:2;"/>
   </g>
   <g id="line2d_4">
    <path clip-path="url(#p8a92d207ac)" d="M 15.024247 86.335641 
L 106.275187 17.897436 
L 106.275187 17.897436 
" style="fill:none;stroke:#0000ff;stroke-linecap:square;stroke-width:2;"/>
   </g>
   <g id="line2d_5">
    <path clip-path="url(#p8a92d207ac)" d="M 151.900657 65.804179 
L 152.179824 65.594805 
L 152.305795 65.500326 
L 152.620846 65.264038 
L 152.76619 65.15503 
L 153.159699 64.859898 
L 153.361591 64.708479 
L 153.408812 64.673064 
L 153.838098 64.351099 
L 153.947294 64.269202 
L 154.133605 64.129468 
L 154.373591 63.949479 
L 154.684546 63.716263 
L 154.961231 63.508749 
L 155.16895 63.35296 
L 155.304589 63.25123 
L 155.637199 63.001773 
L 155.748864 62.918024 
L 156.09242 62.660358 
L 156.146587 62.619732 
L 156.596779 62.282088 
L 156.741077 62.173865 
L 156.953027 62.014902 
L 157.162711 61.857639 
L 157.503091 61.602354 
L 157.583474 61.542067 
L 157.829257 61.35773 
L 158.088228 61.163501 
L 158.316967 60.991947 
L 158.486233 60.864998 
L 158.84649 60.594805 
L 158.989275 60.487716 
L 159.279964 60.2697 
L 159.447041 60.144391 
L 159.643748 59.996861 
L 159.957917 59.761235 
L 160.214744 59.568615 
L 160.306264 59.499974 
L 160.718428 59.190852 
L 160.858613 59.085713 
L 161.158227 58.861003 
L 161.400673 58.679168 
L 161.536201 58.577522 
L 161.842956 58.347456 
L 162.090258 58.161979 
L 162.259707 58.034892 
L 162.527159 57.834303 
L 162.696342 57.707416 
L 162.851508 57.591042 
L 163.184915 57.340986 
L 163.272152 57.275558 
L 163.584183 57.041535 
L 163.852886 56.840008 
L 164.067124 56.67933 
L 164.305288 56.500707 
L 164.6034 56.277122 
L 164.757741 56.161367 
L 164.923221 56.037257 
L 165.097497 55.90655 
L 165.335184 55.728284 
L 165.645988 55.495181 
L 165.99896 55.230453 
L 166.18013 55.094575 
L 166.305365 55.000649 
L 166.667295 54.729201 
L 166.822967 54.612447 
L 167.009546 54.472513 
L 167.316318 54.242434 
L 167.472628 54.125202 
L 167.809802 53.872321 
L 167.93136 53.781153 
L 168.100024 53.654654 
L 168.310073 53.497118 
L 168.677753 53.221357 
L 168.816562 53.117251 
L 169.01271 52.97014 
L 169.24918 52.792787 
L 169.517416 52.59161 
L 169.866446 52.329838 
L 169.916573 52.292243 
L 170.280593 52.019227 
L 170.437146 51.901813 
L 170.709548 51.697512 
L 171.029028 51.457902 
L 171.216964 51.31695 
L 171.489434 51.112597 
L 171.711152 50.946309 
L 171.851881 50.840762 
L 172.145984 50.620184 
L 172.344647 50.471187 
L 172.541938 50.323219 
L 172.654997 50.238425 
L 172.995451 49.983084 
L 173.321275 49.738716 
L 173.449123 49.64283 
L 173.685962 49.465201 
L 173.843109 49.347341 
L 174.058152 49.186059 
L 174.316893 48.992002 
L 174.545516 48.820535 
L 174.719829 48.689801 
L 175.02409 48.461605 
L 175.27483 48.27355 
L 175.430078 48.157114 
L 175.649345 47.992664 
L 175.972607 47.750217 
L 176.18903 47.5879 
L 176.330966 47.481448 
L 176.569612 47.302464 
L 176.877885 47.071259 
L 177.121031 46.888899 
L 177.385773 46.690343 
L 177.657506 46.486543 
L 177.756773 46.412093 
L 178.029291 46.207704 
L 178.338749 45.975611 
" style="fill:none;stroke:#0000ff;stroke-linecap:square;stroke-width:2;"/>
   </g>
   <g id="line2d_6">
    <path clip-path="url(#p8a92d207ac)" d="M 178.89083 45.56155 
L 179.235043 45.30339 
L 179.430263 45.156975 
L 179.542266 45.072973 
L 179.881755 44.818356 
L 180.190478 44.586814 
L 180.230359 44.556903 
L 180.63173 44.255875 
L 180.822745 44.112614 
L 181.001289 43.978706 
L 181.167957 43.853705 
L 181.536201 43.577522 
L 181.784987 43.390932 
L 181.984794 43.241077 
L 182.220261 43.064476 
L 182.290048 43.012137 
L 182.648222 42.743506 
L 182.831554 42.606007 
L 182.984689 42.491156 
L 183.2633 42.282197 
L 183.532134 42.080572 
L 183.812901 41.869997 
L 183.983365 41.742149 
L 184.189731 41.587374 
L 184.556981 41.311937 
L 184.655852 41.237784 
L 185.020828 40.964052 
L 185.118091 40.891104 
L 185.447353 40.644158 
L 185.613205 40.519769 
L 185.732082 40.430611 
L 186.13318 40.129787 
L 186.29075 40.01161 
L 186.495933 39.857723 
L 186.827261 39.609227 
L 187.065548 39.430511 
L 187.19525 39.333235 
L 187.546416 39.069861 
L 187.600859 39.029029 
L 187.830658 38.856679 
L 188.141856 38.62328 
L 188.361132 38.458823 
L 188.513522 38.344531 
L 188.89232 38.060433 
L 189.024165 37.961549 
L 189.280496 37.769301 
L 189.562425 37.557854 
L 189.702761 37.452602 
L 190.026652 37.209684 
L 190.09792 37.156232 
L 190.363166 36.957298 
L 190.728232 36.683499 
L 190.788302 36.638446 
L 191.055231 36.438249 
L 191.407436 36.174095 
L 191.476158 36.122554 
L 191.791602 35.885971 
L 192.020181 35.714537 
L 192.329616 35.48246 
L 192.583238 35.292244 
L 192.810384 35.121884 
L 193.031463 34.956076 
L 193.250002 34.792171 
L 193.451498 34.641049 
L 193.522376 34.58789 
L 193.825659 34.360428 
L 194.201392 34.078629 
L 194.32195 33.98821 
L 194.577636 33.796446 
L 194.748402 33.668371 
L 194.928228 33.533502 
L 195.265002 33.280921 
L 195.369854 33.202282 
L 195.613264 33.019725 
L 195.964669 32.756171 
L 196.042951 32.697459 
L 196.321905 32.488243 
L 196.559656 32.309931 
L 196.913724 32.04438 
L 197.024846 31.961038 
L 197.312805 31.745069 
L 197.526127 31.585077 
" style="fill:none;stroke:#0000ff;stroke-linecap:square;stroke-width:2;"/>
   </g>
   <g id="line2d_7">
    <path clip-path="url(#p8a92d207ac)" d="M 471.278947 72.648 
L 516.904417 38.428897 
L 516.904417 38.428897 
" style="fill:none;stroke:#0000ff;stroke-linecap:square;stroke-width:2;"/>
   </g>
   <g id="matplotlib.axis_1">
    <g id="xtick_1">
     <g id="line2d_8">
      <path clip-path="url(#p8a92d207ac)" d="M 15.024247 87.704405 
L 15.024247 16.528672 
" style="fill:none;stroke:#000000;stroke-dasharray:0.5,0.825;stroke-dashoffset:0;stroke-width:0.5;"/>
     </g>
     <g id="line2d_9">
      <defs>
       <path d="M 0 0 
L 0 3.5 
" id="mbd4f96b075" style="stroke:#000000;stroke-width:0.8;"/>
      </defs>
      <g>
       <use style="stroke:#000000;stroke-width:0.8;" x="15.024247" xlink:href="#mbd4f96b075" y="86.335641"/>
      </g>
     </g>
    </g>
    <g id="xtick_2">
     <g id="line2d_10">
      <path clip-path="url(#p8a92d207ac)" d="M 106.275187 87.704405 
L 106.275187 16.528672 
" style="fill:none;stroke:#000000;stroke-dasharray:0.5,0.825;stroke-dashoffset:0;stroke-width:0.5;"/>
     </g>
     <g id="line2d_11">
      <g>
       <use style="stroke:#000000;stroke-width:0.8;" x="106.275187" xlink:href="#mbd4f96b075" y="86.335641"/>
      </g>
     </g>
     <g id="text_1">
      <!-- $f$ -->
      <defs>
       <path d="M 9.71875 -16.5 
Q 11.578125 -17.921875 14.203125 -17.921875 
Q 17.78125 -17.921875 20.015625 -10.015625 
Q 20.953125 -6.203125 25.09375 15.09375 
L 29.6875 39.59375 
L 21.09375 39.59375 
Q 20.125 39.59375 20.125 40.921875 
Q 20.515625 43.109375 21.390625 43.109375 
L 30.328125 43.109375 
L 31.5 49.609375 
Q 32.078125 52.640625 32.5625 54.8125 
Q 33.0625 56.984375 33.625 58.828125 
Q 34.1875 60.6875 35.296875 62.984375 
Q 37.015625 66.265625 39.921875 68.390625 
Q 42.828125 70.515625 46.1875 70.515625 
Q 48.390625 70.515625 50.46875 69.703125 
Q 52.546875 68.890625 53.859375 67.28125 
Q 55.171875 65.671875 55.171875 63.484375 
Q 55.171875 60.9375 53.484375 59.046875 
Q 51.8125 57.171875 49.421875 57.171875 
Q 47.796875 57.171875 46.65625 58.171875 
Q 45.515625 59.1875 45.515625 60.796875 
Q 45.515625 62.984375 47 64.625 
Q 48.484375 66.265625 50.6875 66.5 
Q 48.828125 67.921875 46.09375 67.921875 
Q 44.578125 67.921875 43.234375 66.5 
Q 41.890625 65.09375 41.5 63.484375 
Q 40.875 60.9375 38.71875 49.703125 
L 37.5 43.109375 
L 47.796875 43.109375 
Q 48.78125 43.109375 48.78125 41.796875 
Q 48.734375 41.546875 48.578125 40.9375 
Q 48.4375 40.328125 48.171875 39.953125 
Q 47.90625 39.59375 47.515625 39.59375 
L 36.8125 39.59375 
L 32.171875 15.1875 
Q 31.296875 9.859375 30.140625 4.359375 
Q 29 -1.125 26.921875 -6.90625 
Q 24.859375 -12.703125 21.625 -16.609375 
Q 18.40625 -20.515625 14.015625 -20.515625 
Q 10.640625 -20.515625 7.984375 -18.578125 
Q 5.328125 -16.65625 5.328125 -13.484375 
Q 5.328125 -10.9375 6.953125 -9.046875 
Q 8.59375 -7.171875 11.078125 -7.171875 
Q 12.75 -7.171875 13.859375 -8.171875 
Q 14.984375 -9.1875 14.984375 -10.796875 
Q 14.984375 -12.9375 13.390625 -14.71875 
Q 11.8125 -16.5 9.71875 -16.5 
z
" id="Cmmi10-66"/>
      </defs>
      <g transform="translate(103.825187 100.913766)scale(0.1 -0.1)">
       <use transform="translate(0 0.484375)" xlink:href="#Cmmi10-66"/>
      </g>
     </g>
    </g>
    <g id="xtick_3">
     <g id="line2d_12">
      <path clip-path="url(#p8a92d207ac)" d="M 562.529887 87.704405 
L 562.529887 16.528672 
" style="fill:none;stroke:#000000;stroke-dasharray:0.5,0.825;stroke-dashoffset:0;stroke-width:0.5;"/>
     </g>
     <g id="line2d_13">
      <g>
       <use style="stroke:#000000;stroke-width:0.8;" x="562.529887" xlink:href="#mbd4f96b075" y="86.335641"/>
      </g>
     </g>
     <g id="text_2">
      <!-- $1$ -->
      <defs>
       <path d="M 9.28125 0 
L 9.28125 3.515625 
Q 21.78125 3.515625 21.78125 6.6875 
L 21.78125 59.1875 
Q 16.609375 56.6875 8.6875 56.6875 
L 8.6875 60.203125 
Q 20.953125 60.203125 27.203125 66.609375 
L 28.609375 66.609375 
Q 28.953125 66.609375 29.265625 66.328125 
Q 29.59375 66.0625 29.59375 65.71875 
L 29.59375 6.6875 
Q 29.59375 3.515625 42.09375 3.515625 
L 42.09375 0 
z
" id="Cmr10-31"/>
      </defs>
      <g transform="translate(560.029887 100.934078)scale(0.1 -0.1)">
       <use transform="translate(0 0.390625)" xlink:href="#Cmr10-31"/>
      </g>
     </g>
    </g>
   </g>
   <g id="matplotlib.axis_2">
    <g id="ytick_1">
     <g id="line2d_14">
      <path clip-path="url(#p8a92d207ac)" d="M 4.074135 86.335641 
L 573.48 86.335641 
" style="fill:none;stroke:#000000;stroke-dasharray:0.5,0.825;stroke-dashoffset:0;stroke-width:0.5;"/>
     </g>
     <g id="line2d_15">
      <defs>
       <path d="M 0 0 
L -3.5 0 
" id="m914c75082f" style="stroke:#000000;stroke-width:0.8;"/>
      </defs>
      <g>
       <use style="stroke:#000000;stroke-width:0.8;" x="15.024247" xlink:href="#m914c75082f" y="86.335641"/>
      </g>
     </g>
    </g>
    <g id="ytick_2">
     <g id="line2d_16">
      <path clip-path="url(#p8a92d207ac)" d="M 4.074135 17.897436 
L 573.48 17.897436 
" style="fill:none;stroke:#000000;stroke-dasharray:0.5,0.825;stroke-dashoffset:0;stroke-width:0.5;"/>
     </g>
     <g id="line2d_17">
      <g>
       <use style="stroke:#000000;stroke-width:0.8;" x="15.024247" xlink:href="#m914c75082f" y="17.897436"/>
      </g>
     </g>
     <g id="text_3">
      <!-- $1$ -->
      <g transform="translate(3.024247 21.696655)scale(0.1 -0.1)">
       <use transform="translate(0 0.390625)" xlink:href="#Cmr10-31"/>
      </g>
     </g>
    </g>
   </g>
   <g id="patch_3">
    <path d="M 15.024247 87.704405 
L 15.024247 16.528672 
" style="fill:none;stroke:#000000;stroke-linecap:square;stroke-linejoin:miter;stroke-width:0.8;"/>
   </g>
   <g id="patch_4">
    <path d="M 4.074135 86.335641 
L 573.48 86.335641 
" style="fill:none;stroke:#000000;stroke-linecap:square;stroke-linejoin:miter;stroke-width:0.8;"/>
   </g>
  </g>
 </g>
 <defs>
  <clipPath id="p8a92d207ac">
   <rect height="71.175733" width="569.405865" x="4.074135" y="16.528672"/>
  </clipPath>
 </defs>
</svg>
