<?xml version="1.0" encoding="utf-8" standalone="no"?>
<!DOCTYPE svg PUBLIC "-//W3C//DTD SVG 1.1//EN"
  "http://www.w3.org/Graphics/SVG/1.1/DTD/svg11.dtd">
<!-- Created with matplotlib (http://matplotlib.org/) -->
<svg height="108pt" version="1.1" viewBox="0 0 576 108" width="576pt" xmlns="http://www.w3.org/2000/svg" xmlns:xlink="http://www.w3.org/1999/xlink">
 <defs>
  <style type="text/css">
*{stroke-linecap:butt;stroke-linejoin:round;}
  </style>
 </defs>
 <g id="figure_1">
  <g id="patch_1">
   <path d="M 0 108 
L 576 108 
L 576 0 
L 0 0 
z
" style="fill:#ffffff;"/>
  </g>
  <g id="axes_1">
   <g id="patch_2">
    <path d="M 4.074135 87.704405 
L 573.48 87.704405 
L 573.48 16.528672 
L 4.074135 16.528672 
z
" style="fill:#ffffff;"/>
   </g>
   <g id="line2d_1">
    <path clip-path="url(#p7d2ba2f888)" d="M 15.024247 86.335641 
L 243.151597 17.897436 
L 243.151597 17.897436 
" style="fill:none;stroke:#ff0000;stroke-linecap:square;stroke-width:2;"/>
   </g>
   <g id="line2d_2">
    <path clip-path="url(#p7d2ba2f888)" d="M 311.589802 58.960359 
L 311.93991 58.855327 
L 312.225968 58.769509 
L 312.761832 58.60875 
L 312.860209 58.579237 
L 313.448163 58.402851 
L 313.51021 58.384237 
L 314.038737 58.225679 
L 314.456269 58.100419 
L 314.769896 58.006331 
L 315.142116 57.894665 
L 315.466182 57.797445 
L 315.673574 57.735227 
L 315.992889 57.639433 
L 316.371435 57.525869 
L 316.607141 57.455157 
L 317.013268 57.333319 
L 317.339716 57.235385 
L 317.64227 57.144619 
L 318.015227 57.032732 
L 318.351982 56.931705 
L 318.699946 56.827316 
L 319.072308 56.715607 
L 319.537781 56.575965 
L 319.967631 56.44701 
L 320.310609 56.344117 
L 320.456863 56.300241 
L 321.033056 56.127383 
L 321.303434 56.04627 
L 321.413259 56.013322 
L 321.843561 55.884231 
L 322.211812 55.773756 
L 322.706253 55.625424 
L 322.996487 55.538353 
L 323.42799 55.408903 
L 323.482825 55.392452 
L 323.910916 55.264025 
L 324.282087 55.152674 
L 324.511095 55.083971 
L 325.169898 54.88633 
L 325.393072 54.819378 
L 325.691521 54.729843 
L 326.108762 54.604671 
L 326.385732 54.52158 
L 326.885986 54.371504 
L 327.199618 54.277414 
L 327.279846 54.253346 
L 327.870258 54.076222 
L 328.260945 53.959016 
L 328.362686 53.928494 
L 328.848173 53.782848 
L 328.969231 53.74653 
L 329.464579 53.597926 
L 329.780542 53.503137 
L 330.241742 53.364777 
L 330.660355 53.239193 
L 330.805068 53.195779 
L 331.199597 53.077421 
L 331.585232 52.96173 
L 331.740905 52.915028 
L 332.08635 52.811395 
L 332.65704 52.640188 
L 332.864698 52.57789 
L 333.244555 52.463933 
L 333.638186 52.345844 
L 333.773334 52.3053 
L 334.186043 52.181487 
L 334.542876 52.074437 
L 334.975712 51.944586 
L 335.363394 51.828282 
L 335.550831 51.77205 
L 336.049151 51.622554 
L 336.389584 51.520425 
L 336.800709 51.397087 
L 337.142367 51.29459 
L 337.392867 51.219439 
L 337.801378 51.096886 
L 338.037918 51.025924 
L 338.410196 50.914241 
L 338.847379 50.783086 
L 338.941442 50.754867 
L 339.504417 50.585974 
L 339.910206 50.464238 
L 340.235429 50.366671 
L 340.519753 50.281374 
L 340.670103 50.236269 
L 341.089495 50.110451 
L 341.558415 49.969775 
" style="fill:none;stroke:#ff0000;stroke-linecap:square;stroke-width:2;"/>
   </g>
   <g id="line2d_3">
    <path clip-path="url(#p7d2ba2f888)" d="M 342.407105 49.715168 
L 342.747548 49.613035 
L 343.127662 49.499001 
L 343.677094 49.334171 
L 343.787126 49.301162 
L 344.226957 49.169213 
L 344.628019 49.048894 
L 345.105486 48.905654 
L 345.287695 48.850991 
L 345.726097 48.71947 
L 345.852461 48.681561 
L 346.474629 48.494911 
L 346.739403 48.415479 
L 347.170022 48.286293 
L 347.511436 48.183869 
L 347.543569 48.174229 
L 348.106901 48.005229 
L 348.464835 47.897849 
L 348.691733 47.82978 
L 348.929283 47.758515 
L 349.252143 47.661657 
L 349.701123 47.526963 
L 350.058762 47.419671 
L 350.390635 47.320109 
L 350.756384 47.210384 
L 351.009273 47.134518 
L 351.636663 46.946301 
L 351.81901 46.891597 
L 352.159056 46.789583 
L 352.602764 46.65647 
L 352.723392 46.620282 
L 353.124008 46.500097 
L 353.681132 46.33296 
L 353.826666 46.2893 
L 354.073223 46.215333 
L 354.719954 46.021314 
L 354.779739 46.003378 
L 355.156868 45.890239 
L 355.722535 45.720539 
L 356.030974 45.628007 
L 356.271427 45.555872 
L 356.703174 45.426347 
L 356.98239 45.342583 
L 357.191176 45.279947 
L 357.650158 45.142252 
L 357.90578 45.065566 
L 358.407548 44.915035 
L 358.588111 44.860866 
L 358.934541 44.756937 
L 359.305785 44.645564 
L 359.818325 44.491802 
L 359.932836 44.457449 
L 360.588434 44.260769 
L 360.6214 44.25088 
L 361.006781 44.135265 
L 361.599504 43.957448 
L 361.743475 43.914257 
L 362.197848 43.777945 
L 362.354093 43.731072 
L 362.802811 43.596456 
L 363.158198 43.48984 
L 363.612882 43.353435 
L 364.031245 43.227926 
L 364.374452 43.124964 
L 364.421578 43.110826 
L 364.959323 42.949503 
L 365.335768 42.836569 
L 365.646759 42.743272 
L 365.795536 42.698639 
L 366.299865 42.54734 
L 366.517007 42.482198 
L 366.987781 42.340965 
L 367.285348 42.251695 
L 367.781483 42.102855 
L 367.858045 42.079886 
L 368.21342 41.973274 
L 368.754451 41.810964 
L 369.062367 41.71859 
L 369.388811 41.620656 
L 369.539253 41.575524 
L 370.21054 41.374138 
L 370.327126 41.339162 
L 370.650147 41.242256 
L 371.083147 41.112356 
L 371.492714 40.989485 
L 371.904575 40.865927 
L 371.962625 40.848512 
L 372.358949 40.729615 
L 372.805202 40.595739 
L 373.23645 40.466365 
L 373.551593 40.371822 
L 373.73151 40.317847 
L 374.236898 40.16623 
L 374.415908 40.112527 
L 374.892893 39.969432 
L 375.220979 39.871006 
L 375.535881 39.776535 
L 375.832438 39.687568 
L 376.22873 39.568681 
L 376.612432 39.45357 
L 377.009457 39.334463 
L 377.317047 39.242185 
L 377.631574 39.147827 
L 377.835408 39.086677 
L 378.293003 38.949399 
L 378.597328 38.858101 
L 378.866847 38.777245 
L 379.4578 38.59996 
L 379.547365 38.57309 
L 380.028007 38.428897 
" style="fill:none;stroke:#ff0000;stroke-linecap:square;stroke-width:2;"/>
   </g>
   <g id="line2d_4">
    <path clip-path="url(#p7d2ba2f888)" d="M 425.653477 65.804179 
L 494.091682 45.272718 
L 494.091682 45.272718 
" style="fill:none;stroke:#ff0000;stroke-linecap:square;stroke-width:2;"/>
   </g>
   <g id="line2d_5">
    <path clip-path="url(#p7d2ba2f888)" d="M 243.151597 17.897436 
L 311.589802 58.960359 
L 311.589802 58.960359 
" style="fill:none;stroke:#00ffff;stroke-linecap:square;stroke-width:2;"/>
   </g>
   <g id="line2d_6">
    <path clip-path="url(#p7d2ba2f888)" d="M 380.028007 38.428897 
L 425.653477 65.804179 
L 425.653477 65.804179 
" style="fill:none;stroke:#00ffff;stroke-linecap:square;stroke-width:2;"/>
   </g>
   <g id="line2d_7">
    <path clip-path="url(#p7d2ba2f888)" d="M 494.091682 45.272718 
L 562.529887 86.335641 
L 562.529887 86.335641 
" style="fill:none;stroke:#00ffff;stroke-linecap:square;stroke-width:2;"/>
   </g>
   <g id="matplotlib.axis_1">
    <g id="xtick_1">
     <g id="line2d_8">
      <path clip-path="url(#p7d2ba2f888)" d="M 15.024247 87.704405 
L 15.024247 16.528672 
" style="fill:none;stroke:#000000;stroke-dasharray:0.5,0.825;stroke-dashoffset:0;stroke-width:0.5;"/>
     </g>
     <g id="line2d_9">
      <defs>
       <path d="M 0 0 
L 0 3.5 
" id="m0cc13796e8" style="stroke:#000000;stroke-width:0.8;"/>
      </defs>
      <g>
       <use style="stroke:#000000;stroke-width:0.8;" x="15.024247" xlink:href="#m0cc13796e8" y="86.335641"/>
      </g>
     </g>
    </g>
    <g id="xtick_2">
     <g id="line2d_10">
      <path clip-path="url(#p7d2ba2f888)" d="M 243.151597 87.704405 
L 243.151597 16.528672 
" style="fill:none;stroke:#000000;stroke-dasharray:0.5,0.825;stroke-dashoffset:0;stroke-width:0.5;"/>
     </g>
     <g id="line2d_11">
      <g>
       <use style="stroke:#000000;stroke-width:0.8;" x="243.151597" xlink:href="#m0cc13796e8" y="86.335641"/>
      </g>
     </g>
     <g id="text_1">
      <!-- $f$ -->
      <defs>
       <path d="M 9.71875 -16.5 
Q 11.578125 -17.921875 14.203125 -17.921875 
Q 17.78125 -17.921875 20.015625 -10.015625 
Q 20.953125 -6.203125 25.09375 15.09375 
L 29.6875 39.59375 
L 21.09375 39.59375 
Q 20.125 39.59375 20.125 40.921875 
Q 20.515625 43.109375 21.390625 43.109375 
L 30.328125 43.109375 
L 31.5 49.609375 
Q 32.078125 52.640625 32.5625 54.8125 
Q 33.0625 56.984375 33.625 58.828125 
Q 34.1875 60.6875 35.296875 62.984375 
Q 37.015625 66.265625 39.921875 68.390625 
Q 42.828125 70.515625 46.1875 70.515625 
Q 48.390625 70.515625 50.46875 69.703125 
Q 52.546875 68.890625 53.859375 67.28125 
Q 55.171875 65.671875 55.171875 63.484375 
Q 55.171875 60.9375 53.484375 59.046875 
Q 51.8125 57.171875 49.421875 57.171875 
Q 47.796875 57.171875 46.65625 58.171875 
Q 45.515625 59.1875 45.515625 60.796875 
Q 45.515625 62.984375 47 64.625 
Q 48.484375 66.265625 50.6875 66.5 
Q 48.828125 67.921875 46.09375 67.921875 
Q 44.578125 67.921875 43.234375 66.5 
Q 41.890625 65.09375 41.5 63.484375 
Q 40.875 60.9375 38.71875 49.703125 
L 37.5 43.109375 
L 47.796875 43.109375 
Q 48.78125 43.109375 48.78125 41.796875 
Q 48.734375 41.546875 48.578125 40.9375 
Q 48.4375 40.328125 48.171875 39.953125 
Q 47.90625 39.59375 47.515625 39.59375 
L 36.8125 39.59375 
L 32.171875 15.1875 
Q 31.296875 9.859375 30.140625 4.359375 
Q 29 -1.125 26.921875 -6.90625 
Q 24.859375 -12.703125 21.625 -16.609375 
Q 18.40625 -20.515625 14.015625 -20.515625 
Q 10.640625 -20.515625 7.984375 -18.578125 
Q 5.328125 -16.65625 5.328125 -13.484375 
Q 5.328125 -10.9375 6.953125 -9.046875 
Q 8.59375 -7.171875 11.078125 -7.171875 
Q 12.75 -7.171875 13.859375 -8.171875 
Q 14.984375 -9.1875 14.984375 -10.796875 
Q 14.984375 -12.9375 13.390625 -14.71875 
Q 11.8125 -16.5 9.71875 -16.5 
z
" id="Cmmi10-66"/>
      </defs>
      <g transform="translate(240.701597 100.913766)scale(0.1 -0.1)">
       <use transform="translate(0 0.484375)" xlink:href="#Cmmi10-66"/>
      </g>
     </g>
    </g>
    <g id="xtick_3">
     <g id="line2d_12">
      <path clip-path="url(#p7d2ba2f888)" d="M 562.529887 87.704405 
L 562.529887 16.528672 
" style="fill:none;stroke:#000000;stroke-dasharray:0.5,0.825;stroke-dashoffset:0;stroke-width:0.5;"/>
     </g>
     <g id="line2d_13">
      <g>
       <use style="stroke:#000000;stroke-width:0.8;" x="562.529887" xlink:href="#m0cc13796e8" y="86.335641"/>
      </g>
     </g>
     <g id="text_2">
      <!-- $1$ -->
      <defs>
       <path d="M 9.28125 0 
L 9.28125 3.515625 
Q 21.78125 3.515625 21.78125 6.6875 
L 21.78125 59.1875 
Q 16.609375 56.6875 8.6875 56.6875 
L 8.6875 60.203125 
Q 20.953125 60.203125 27.203125 66.609375 
L 28.609375 66.609375 
Q 28.953125 66.609375 29.265625 66.328125 
Q 29.59375 66.0625 29.59375 65.71875 
L 29.59375 6.6875 
Q 29.59375 3.515625 42.09375 3.515625 
L 42.09375 0 
z
" id="Cmr10-31"/>
      </defs>
      <g transform="translate(560.029887 100.934078)scale(0.1 -0.1)">
       <use transform="translate(0 0.390625)" xlink:href="#Cmr10-31"/>
      </g>
     </g>
    </g>
   </g>
   <g id="matplotlib.axis_2">
    <g id="ytick_1">
     <g id="line2d_14">
      <path clip-path="url(#p7d2ba2f888)" d="M 4.074135 86.335641 
L 573.48 86.335641 
" style="fill:none;stroke:#000000;stroke-dasharray:0.5,0.825;stroke-dashoffset:0;stroke-width:0.5;"/>
     </g>
     <g id="line2d_15">
      <defs>
       <path d="M 0 0 
L -3.5 0 
" id="m447d4569cc" style="stroke:#000000;stroke-width:0.8;"/>
      </defs>
      <g>
       <use style="stroke:#000000;stroke-width:0.8;" x="15.024247" xlink:href="#m447d4569cc" y="86.335641"/>
      </g>
     </g>
    </g>
    <g id="ytick_2">
     <g id="line2d_16">
      <path clip-path="url(#p7d2ba2f888)" d="M 4.074135 17.897436 
L 573.48 17.897436 
" style="fill:none;stroke:#000000;stroke-dasharray:0.5,0.825;stroke-dashoffset:0;stroke-width:0.5;"/>
     </g>
     <g id="line2d_17">
      <g>
       <use style="stroke:#000000;stroke-width:0.8;" x="15.024247" xlink:href="#m447d4569cc" y="17.897436"/>
      </g>
     </g>
     <g id="text_3">
      <!-- $1$ -->
      <g transform="translate(3.024247 21.696655)scale(0.1 -0.1)">
       <use transform="translate(0 0.390625)" xlink:href="#Cmr10-31"/>
      </g>
     </g>
    </g>
   </g>
   <g id="patch_3">
    <path d="M 15.024247 87.704405 
L 15.024247 16.528672 
" style="fill:none;stroke:#000000;stroke-linecap:square;stroke-linejoin:miter;stroke-width:0.8;"/>
   </g>
   <g id="patch_4">
    <path d="M 4.074135 86.335641 
L 573.48 86.335641 
" style="fill:none;stroke:#000000;stroke-linecap:square;stroke-linejoin:miter;stroke-width:0.8;"/>
   </g>
  </g>
 </g>
 <defs>
  <clipPath id="p7d2ba2f888">
   <rect height="71.175733" width="569.405865" x="4.074135" y="16.528672"/>
  </clipPath>
 </defs>
</svg>
