<?xml version="1.0" encoding="utf-8" standalone="no"?>
<!DOCTYPE svg PUBLIC "-//W3C//DTD SVG 1.1//EN"
  "http://www.w3.org/Graphics/SVG/1.1/DTD/svg11.dtd">
<!-- Created with matplotlib (http://matplotlib.org/) -->
<svg height="108pt" version="1.1" viewBox="0 0 576 108" width="576pt" xmlns="http://www.w3.org/2000/svg" xmlns:xlink="http://www.w3.org/1999/xlink">
 <defs>
  <style type="text/css">
*{stroke-linecap:butt;stroke-linejoin:round;}
  </style>
 </defs>
 <g id="figure_1">
  <g id="patch_1">
   <path d="M 0 108 
L 576 108 
L 576 0 
L 0 0 
z
" style="fill:#ffffff;"/>
  </g>
  <g id="axes_1">
   <g id="patch_2">
    <path d="M 4.074135 87.704405 
L 573.48 87.704405 
L 573.48 16.528672 
L 4.074135 16.528672 
z
" style="fill:#ffffff;"/>
   </g>
   <g id="line2d_1">
    <path clip-path="url(#p61eaf2024a)" d="M 15.024247 86.335641 
L 24.464 70.318189 
L 24.464 70.318189 
" style="fill:none;stroke:#ff0000;stroke-linecap:square;stroke-width:2;"/>
   </g>
   <g id="line2d_2">
    <path clip-path="url(#p61eaf2024a)" d="M 147.180781 60.125265 
L 156.620534 44.107812 
L 156.620534 44.107812 
" style="fill:none;stroke:#ff0000;stroke-linecap:square;stroke-width:2;"/>
   </g>
   <g id="line2d_3">
    <path clip-path="url(#p61eaf2024a)" d="M 279.337315 33.914888 
L 288.777067 17.897436 
L 288.777067 17.897436 
" style="fill:none;stroke:#ff0000;stroke-linecap:square;stroke-width:2;"/>
   </g>
   <g id="line2d_4">
    <path clip-path="url(#p61eaf2024a)" d="M 288.777067 17.897436 
L 298.21682 33.914888 
L 298.21682 33.914888 
" style="fill:none;stroke:#ffff00;stroke-linecap:square;stroke-width:2;"/>
   </g>
   <g id="line2d_5">
    <path clip-path="url(#p61eaf2024a)" d="M 420.933601 44.107812 
L 430.373353 60.125265 
L 430.373353 60.125265 
" style="fill:none;stroke:#ffff00;stroke-linecap:square;stroke-width:2;"/>
   </g>
   <g id="line2d_6">
    <path clip-path="url(#p61eaf2024a)" d="M 553.090135 70.318189 
L 562.529887 86.335641 
L 562.529887 86.335641 
" style="fill:none;stroke:#ffff00;stroke-linecap:square;stroke-width:2;"/>
   </g>
   <g id="line2d_7">
    <path clip-path="url(#p61eaf2024a)" d="M 298.21682 33.914888 
L 317.096325 54.300736 
L 317.096325 54.300736 
" style="fill:none;stroke:#00ff00;stroke-linecap:square;stroke-width:2;"/>
   </g>
   <g id="line2d_8">
    <path clip-path="url(#p61eaf2024a)" d="M 326.536077 47.020076 
L 335.975829 57.213001 
L 335.975829 57.213001 
" style="fill:none;stroke:#00ff00;stroke-linecap:square;stroke-width:2;"/>
   </g>
   <g id="line2d_9">
    <path clip-path="url(#p61eaf2024a)" d="M 345.415582 49.93234 
L 354.855334 60.125265 
L 354.855334 60.125265 
" style="fill:none;stroke:#00ff00;stroke-linecap:square;stroke-width:2;"/>
   </g>
   <g id="line2d_10">
    <path clip-path="url(#p61eaf2024a)" d="M 392.614344 31.002624 
L 402.054096 41.195548 
L 402.054096 41.195548 
" style="fill:none;stroke:#00ff00;stroke-linecap:square;stroke-width:2;"/>
   </g>
   <g id="line2d_11">
    <path clip-path="url(#p61eaf2024a)" d="M 411.493849 33.914888 
L 420.933601 44.107812 
L 420.933601 44.107812 
" style="fill:none;stroke:#00ff00;stroke-linecap:square;stroke-width:2;"/>
   </g>
   <g id="line2d_12">
    <path clip-path="url(#p61eaf2024a)" d="M 430.373353 60.125265 
L 439.813106 70.318189 
L 439.813106 70.318189 
" style="fill:none;stroke:#00ff00;stroke-linecap:square;stroke-width:2;"/>
   </g>
   <g id="line2d_13">
    <path clip-path="url(#p61eaf2024a)" d="M 449.252858 63.037529 
L 458.692611 73.230453 
L 458.692611 73.230453 
" style="fill:none;stroke:#00ff00;stroke-linecap:square;stroke-width:2;"/>
   </g>
   <g id="line2d_14">
    <path clip-path="url(#p61eaf2024a)" d="M 496.45162 44.107812 
L 505.891373 54.300736 
L 505.891373 54.300736 
" style="fill:none;stroke:#00ff00;stroke-linecap:square;stroke-width:2;"/>
   </g>
   <g id="line2d_15">
    <path clip-path="url(#p61eaf2024a)" d="M 515.331125 47.020076 
L 524.770878 57.213001 
L 524.770878 57.213001 
" style="fill:none;stroke:#00ff00;stroke-linecap:square;stroke-width:2;"/>
   </g>
   <g id="line2d_16">
    <path clip-path="url(#p61eaf2024a)" d="M 534.21063 49.93234 
L 553.090135 70.318189 
L 553.090135 70.318189 
" style="fill:none;stroke:#00ff00;stroke-linecap:square;stroke-width:2;"/>
   </g>
   <g id="line2d_17">
    <path clip-path="url(#p61eaf2024a)" d="M 317.096325 54.300736 
L 326.536077 47.020076 
L 326.536077 47.020076 
" style="fill:none;stroke:#00ffff;stroke-linecap:square;stroke-width:2;"/>
   </g>
   <g id="line2d_18">
    <path clip-path="url(#p61eaf2024a)" d="M 335.975829 57.213001 
L 345.415582 49.93234 
L 345.415582 49.93234 
" style="fill:none;stroke:#00ffff;stroke-linecap:square;stroke-width:2;"/>
   </g>
   <g id="line2d_19">
    <path clip-path="url(#p61eaf2024a)" d="M 354.855334 60.125265 
L 392.614344 31.002624 
L 392.614344 31.002624 
" style="fill:none;stroke:#00ffff;stroke-linecap:square;stroke-width:2;"/>
   </g>
   <g id="line2d_20">
    <path clip-path="url(#p61eaf2024a)" d="M 402.054096 41.195548 
L 411.493849 33.914888 
L 411.493849 33.914888 
" style="fill:none;stroke:#00ffff;stroke-linecap:square;stroke-width:2;"/>
   </g>
   <g id="line2d_21">
    <path clip-path="url(#p61eaf2024a)" d="M 439.813106 70.318189 
L 449.252858 63.037529 
L 449.252858 63.037529 
" style="fill:none;stroke:#00ffff;stroke-linecap:square;stroke-width:2;"/>
   </g>
   <g id="line2d_22">
    <path clip-path="url(#p61eaf2024a)" d="M 458.692611 73.230453 
L 496.45162 44.107812 
L 496.45162 44.107812 
" style="fill:none;stroke:#00ffff;stroke-linecap:square;stroke-width:2;"/>
   </g>
   <g id="line2d_23">
    <path clip-path="url(#p61eaf2024a)" d="M 505.891373 54.300736 
L 505.960671 54.247288 
L 505.984177 54.229158 
L 506.024992 54.197679 
L 506.068772 54.163913 
L 506.142554 54.107006 
L 506.158602 54.094629 
L 506.23072 54.039006 
L 506.254305 54.020815 
L 506.323526 53.967427 
L 506.383529 53.921148 
L 506.427057 53.887576 
L 506.438595 53.878677 
L 506.508913 53.824442 
L 506.545214 53.796444 
L 506.607188 53.748645 
L 506.640174 53.723204 
L 506.704511 53.673582 
L 506.753474 53.635818 
L 506.770717 53.622519 
L 506.82587 53.579981 
L 506.893053 53.528164 
L 506.940787 53.491348 
L 506.963904 53.473518 
L 507.022587 53.428258 
L 507.08615 53.379233 
L 507.11483 53.357113 
L 507.176606 53.309466 
L 507.214056 53.280582 
L 507.244971 53.256738 
L 507.312047 53.205004 
L 507.361366 53.166965 
L 507.396564 53.139818 
L 507.455895 53.094057 
L 507.520838 53.043968 
L 507.564103 53.010599 
L 507.603641 52.980104 
L 507.628676 52.960795 
L 507.715223 52.894044 
L 507.756499 52.862208 
L 507.804793 52.824961 
L 507.838614 52.798875 
L 507.860417 52.782058 
L 507.914436 52.740395 
L 508.002208 52.672699 
L 508.03986 52.643659 
L 508.062231 52.626404 
L 508.121407 52.580764 
L 508.161657 52.54972 
L 508.238571 52.490397 
L 508.283409 52.455815 
L 508.318918 52.428428 
L 508.370799 52.388413 
L 508.411419 52.357084 
L 508.447789 52.329033 
L 508.497318 52.290832 
L 508.558895 52.243339 
L 508.615808 52.199444 
L 508.619064 52.196932 
L 508.676679 52.152495 
L 508.737134 52.105867 
L 508.798693 52.058388 
L 508.843769 52.023623 
L 508.888591 51.989052 
L 508.934801 51.953411 
L 508.991805 51.909446 
L 509.026956 51.882335 
L 509.075535 51.844866 
L 509.127457 51.80482 
L 509.161587 51.778497 
L 509.226419 51.728494 
L 509.238483 51.719189 
L 509.301485 51.670597 
L 509.337507 51.642813 
L 509.414626 51.583333 
L 509.446104 51.559056 
L 509.477579 51.53478 
L 509.545254 51.482583 
L 509.582368 51.453958 
L 509.632488 51.415302 
L 509.663958 51.39103 
L 509.717584 51.349669 
L 509.765089 51.31303 
L 509.807859 51.280042 
L 509.865383 51.235676 
L 509.939667 51.178382 
L 509.956933 51.165065 
L 510.013586 51.12137 
L 510.084229 51.066885 
L 510.135875 51.027051 
L 510.160939 51.00772 
L 510.219162 50.962814 
L 510.260471 50.930953 
L 510.299172 50.901104 
L 510.361427 50.853088 
L 510.376785 50.841243 
L 510.46686 50.77177 
L 510.49553 50.749657 
L 510.543637 50.712554 
L 510.606507 50.664064 
L 510.648642 50.631566 
L 510.665565 50.618514 
L 510.729914 50.568883 
L 510.760534 50.545266 
L 510.843637 50.481171 
L 510.854322 50.47293 
L 510.907365 50.432019 
L 510.961657 50.390145 
L 511.021595 50.343916 
L 511.049943 50.322052 
L 511.110408 50.275416 
L 511.178085 50.223219 
" style="fill:none;stroke:#00ffff;stroke-linecap:square;stroke-width:2;"/>
   </g>
   <g id="line2d_24">
    <path clip-path="url(#p61eaf2024a)" d="M 511.278872 50.145485 
L 511.352556 50.088654 
L 511.40707 50.046608 
L 511.438651 50.022251 
L 511.496599 49.977556 
L 511.528506 49.952947 
L 511.598301 49.899117 
L 511.626697 49.877215 
L 511.681536 49.834919 
L 511.736855 49.792253 
L 511.7784 49.76021 
L 511.83707 49.714959 
L 511.864016 49.694177 
L 511.899906 49.666496 
L 511.968256 49.613779 
L 512.006566 49.584231 
L 512.072315 49.53352 
L 512.090591 49.519425 
L 512.153395 49.470985 
L 512.203899 49.432033 
L 512.224549 49.416106 
L 512.299494 49.358303 
L 512.345047 49.323168 
L 512.402137 49.279136 
L 512.440283 49.249715 
L 512.483191 49.216622 
L 512.550979 49.164338 
L 512.568633 49.150722 
L 512.605671 49.122155 
L 512.664001 49.077167 
L 512.738255 49.019897 
L 512.790867 48.979318 
L 512.824957 48.953026 
L 512.857122 48.928217 
L 512.928137 48.873445 
L 512.969401 48.841619 
L 513.019965 48.80262 
L 513.048881 48.780318 
L 513.096562 48.743543 
L 513.140354 48.709767 
L 513.183395 48.676571 
L 513.263948 48.614442 
L 513.311852 48.577494 
L 513.321284 48.57022 
L 513.372178 48.530966 
L 513.431862 48.484934 
L 513.462527 48.461282 
L 513.527533 48.411145 
L 513.575684 48.374007 
L 513.604318 48.351922 
L 513.676313 48.296395 
L 513.698588 48.279214 
L 513.75798 48.233407 
L 513.813999 48.1902 
L 513.8456 48.165827 
L 513.92277 48.106308 
L 513.953748 48.082415 
L 514.019202 48.031932 
L 514.056728 48.002989 
L 514.092489 47.975407 
L 514.124711 47.950555 
L 514.195552 47.895917 
L 514.218785 47.877998 
L 514.270776 47.837899 
L 514.331973 47.790699 
L 514.363308 47.766531 
L 514.415719 47.726108 
L 514.499743 47.661302 
L 514.525707 47.641276 
L 514.585865 47.594878 
L 514.638543 47.554249 
L 514.66689 47.532386 
L 514.734804 47.480005 
L 514.759245 47.461154 
L 514.826227 47.409492 
L 514.854199 47.387919 
L 514.891609 47.359065 
L 514.973376 47.296 
L 514.993957 47.280126 
L 515.040113 47.244527 
L 515.100301 47.198106 
L 515.162045 47.150484 
L 515.210086 47.113431 
L 515.237643 47.092177 
L 515.287764 47.05352 
L 515.331125 47.020076 
" style="fill:none;stroke:#00ffff;stroke-linecap:square;stroke-width:2;"/>
   </g>
   <g id="line2d_25">
    <path clip-path="url(#p61eaf2024a)" d="M 524.770878 57.213001 
L 534.21063 49.93234 
L 534.21063 49.93234 
" style="fill:none;stroke:#00ffff;stroke-linecap:square;stroke-width:2;"/>
   </g>
   <g id="line2d_26">
    <path clip-path="url(#p61eaf2024a)" d="M 43.343505 49.93234 
L 52.783257 57.213001 
L 52.783257 57.213001 
" style="fill:none;stroke:#0000ff;stroke-linecap:square;stroke-width:2;"/>
   </g>
   <g id="line2d_27">
    <path clip-path="url(#p61eaf2024a)" d="M 62.223009 47.020076 
L 71.662762 54.300736 
L 71.662762 54.300736 
" style="fill:none;stroke:#0000ff;stroke-linecap:square;stroke-width:2;"/>
   </g>
   <g id="line2d_28">
    <path clip-path="url(#p61eaf2024a)" d="M 81.102514 44.107812 
L 118.861524 73.230453 
L 118.861524 73.230453 
" style="fill:none;stroke:#0000ff;stroke-linecap:square;stroke-width:2;"/>
   </g>
   <g id="line2d_29">
    <path clip-path="url(#p61eaf2024a)" d="M 128.301276 63.037529 
L 137.741029 70.318189 
L 137.741029 70.318189 
" style="fill:none;stroke:#0000ff;stroke-linecap:square;stroke-width:2;"/>
   </g>
   <g id="line2d_30">
    <path clip-path="url(#p61eaf2024a)" d="M 166.060286 33.914888 
L 175.500038 41.195548 
L 175.500038 41.195548 
" style="fill:none;stroke:#0000ff;stroke-linecap:square;stroke-width:2;"/>
   </g>
   <g id="line2d_31">
    <path clip-path="url(#p61eaf2024a)" d="M 184.939791 31.002624 
L 222.6988 60.125265 
L 222.6988 60.125265 
" style="fill:none;stroke:#0000ff;stroke-linecap:square;stroke-width:2;"/>
   </g>
   <g id="line2d_32">
    <path clip-path="url(#p61eaf2024a)" d="M 232.138553 49.93234 
L 241.578305 57.213001 
L 241.578305 57.213001 
" style="fill:none;stroke:#0000ff;stroke-linecap:square;stroke-width:2;"/>
   </g>
   <g id="line2d_33">
    <path clip-path="url(#p61eaf2024a)" d="M 251.018058 47.020076 
L 260.45781 54.300736 
L 260.45781 54.300736 
" style="fill:none;stroke:#0000ff;stroke-linecap:square;stroke-width:2;"/>
   </g>
   <g id="line2d_34">
    <path clip-path="url(#p61eaf2024a)" d="M 24.464 70.318189 
L 43.343505 49.93234 
L 43.343505 49.93234 
" style="fill:none;stroke:#ff00ff;stroke-linecap:square;stroke-width:2;"/>
   </g>
   <g id="line2d_35">
    <path clip-path="url(#p61eaf2024a)" d="M 52.783257 57.213001 
L 62.223009 47.020076 
L 62.223009 47.020076 
" style="fill:none;stroke:#ff00ff;stroke-linecap:square;stroke-width:2;"/>
   </g>
   <g id="line2d_36">
    <path clip-path="url(#p61eaf2024a)" d="M 71.662762 54.300736 
L 81.102514 44.107812 
L 81.102514 44.107812 
" style="fill:none;stroke:#ff00ff;stroke-linecap:square;stroke-width:2;"/>
   </g>
   <g id="line2d_37">
    <path clip-path="url(#p61eaf2024a)" d="M 118.861524 73.230453 
L 128.301276 63.037529 
L 128.301276 63.037529 
" style="fill:none;stroke:#ff00ff;stroke-linecap:square;stroke-width:2;"/>
   </g>
   <g id="line2d_38">
    <path clip-path="url(#p61eaf2024a)" d="M 137.741029 70.318189 
L 147.180781 60.125265 
L 147.180781 60.125265 
" style="fill:none;stroke:#ff00ff;stroke-linecap:square;stroke-width:2;"/>
   </g>
   <g id="line2d_39">
    <path clip-path="url(#p61eaf2024a)" d="M 156.620534 44.107812 
L 166.060286 33.914888 
L 166.060286 33.914888 
" style="fill:none;stroke:#ff00ff;stroke-linecap:square;stroke-width:2;"/>
   </g>
   <g id="line2d_40">
    <path clip-path="url(#p61eaf2024a)" d="M 175.500038 41.195548 
L 184.939791 31.002624 
L 184.939791 31.002624 
" style="fill:none;stroke:#ff00ff;stroke-linecap:square;stroke-width:2;"/>
   </g>
   <g id="line2d_41">
    <path clip-path="url(#p61eaf2024a)" d="M 222.6988 60.125265 
L 232.138553 49.93234 
L 232.138553 49.93234 
" style="fill:none;stroke:#ff00ff;stroke-linecap:square;stroke-width:2;"/>
   </g>
   <g id="line2d_42">
    <path clip-path="url(#p61eaf2024a)" d="M 241.578305 57.213001 
L 251.018058 47.020076 
L 251.018058 47.020076 
" style="fill:none;stroke:#ff00ff;stroke-linecap:square;stroke-width:2;"/>
   </g>
   <g id="line2d_43">
    <path clip-path="url(#p61eaf2024a)" d="M 260.45781 54.300736 
L 279.337315 33.914888 
L 279.337315 33.914888 
" style="fill:none;stroke:#ff00ff;stroke-linecap:square;stroke-width:2;"/>
   </g>
   <g id="matplotlib.axis_1">
    <g id="xtick_1">
     <g id="line2d_44">
      <path clip-path="url(#p61eaf2024a)" d="M 15.024247 87.704405 
L 15.024247 16.528672 
" style="fill:none;stroke:#000000;stroke-dasharray:0.5,0.825;stroke-dashoffset:0;stroke-width:0.5;"/>
     </g>
     <g id="line2d_45">
      <defs>
       <path d="M 0 0 
L 0 3.5 
" id="mcfbbc49292" style="stroke:#000000;stroke-width:0.8;"/>
      </defs>
      <g>
       <use style="stroke:#000000;stroke-width:0.8;" x="15.024247" xlink:href="#mcfbbc49292" y="86.335641"/>
      </g>
     </g>
    </g>
    <g id="xtick_2">
     <g id="line2d_46">
      <path clip-path="url(#p61eaf2024a)" d="M 288.777067 87.704405 
L 288.777067 16.528672 
" style="fill:none;stroke:#000000;stroke-dasharray:0.5,0.825;stroke-dashoffset:0;stroke-width:0.5;"/>
     </g>
     <g id="line2d_47">
      <g>
       <use style="stroke:#000000;stroke-width:0.8;" x="288.777067" xlink:href="#mcfbbc49292" y="86.335641"/>
      </g>
     </g>
     <g id="text_1">
      <!-- $f$ -->
      <defs>
       <path d="M 9.71875 -16.5 
Q 11.578125 -17.921875 14.203125 -17.921875 
Q 17.78125 -17.921875 20.015625 -10.015625 
Q 20.953125 -6.203125 25.09375 15.09375 
L 29.6875 39.59375 
L 21.09375 39.59375 
Q 20.125 39.59375 20.125 40.921875 
Q 20.515625 43.109375 21.390625 43.109375 
L 30.328125 43.109375 
L 31.5 49.609375 
Q 32.078125 52.640625 32.5625 54.8125 
Q 33.0625 56.984375 33.625 58.828125 
Q 34.1875 60.6875 35.296875 62.984375 
Q 37.015625 66.265625 39.921875 68.390625 
Q 42.828125 70.515625 46.1875 70.515625 
Q 48.390625 70.515625 50.46875 69.703125 
Q 52.546875 68.890625 53.859375 67.28125 
Q 55.171875 65.671875 55.171875 63.484375 
Q 55.171875 60.9375 53.484375 59.046875 
Q 51.8125 57.171875 49.421875 57.171875 
Q 47.796875 57.171875 46.65625 58.171875 
Q 45.515625 59.1875 45.515625 60.796875 
Q 45.515625 62.984375 47 64.625 
Q 48.484375 66.265625 50.6875 66.5 
Q 48.828125 67.921875 46.09375 67.921875 
Q 44.578125 67.921875 43.234375 66.5 
Q 41.890625 65.09375 41.5 63.484375 
Q 40.875 60.9375 38.71875 49.703125 
L 37.5 43.109375 
L 47.796875 43.109375 
Q 48.78125 43.109375 48.78125 41.796875 
Q 48.734375 41.546875 48.578125 40.9375 
Q 48.4375 40.328125 48.171875 39.953125 
Q 47.90625 39.59375 47.515625 39.59375 
L 36.8125 39.59375 
L 32.171875 15.1875 
Q 31.296875 9.859375 30.140625 4.359375 
Q 29 -1.125 26.921875 -6.90625 
Q 24.859375 -12.703125 21.625 -16.609375 
Q 18.40625 -20.515625 14.015625 -20.515625 
Q 10.640625 -20.515625 7.984375 -18.578125 
Q 5.328125 -16.65625 5.328125 -13.484375 
Q 5.328125 -10.9375 6.953125 -9.046875 
Q 8.59375 -7.171875 11.078125 -7.171875 
Q 12.75 -7.171875 13.859375 -8.171875 
Q 14.984375 -9.1875 14.984375 -10.796875 
Q 14.984375 -12.9375 13.390625 -14.71875 
Q 11.8125 -16.5 9.71875 -16.5 
z
" id="Cmmi10-66"/>
      </defs>
      <g transform="translate(286.327067 100.913766)scale(0.1 -0.1)">
       <use transform="translate(0 0.484375)" xlink:href="#Cmmi10-66"/>
      </g>
     </g>
    </g>
    <g id="xtick_3">
     <g id="line2d_48">
      <path clip-path="url(#p61eaf2024a)" d="M 562.529887 87.704405 
L 562.529887 16.528672 
" style="fill:none;stroke:#000000;stroke-dasharray:0.5,0.825;stroke-dashoffset:0;stroke-width:0.5;"/>
     </g>
     <g id="line2d_49">
      <g>
       <use style="stroke:#000000;stroke-width:0.8;" x="562.529887" xlink:href="#mcfbbc49292" y="86.335641"/>
      </g>
     </g>
     <g id="text_2">
      <!-- $1$ -->
      <defs>
       <path d="M 9.28125 0 
L 9.28125 3.515625 
Q 21.78125 3.515625 21.78125 6.6875 
L 21.78125 59.1875 
Q 16.609375 56.6875 8.6875 56.6875 
L 8.6875 60.203125 
Q 20.953125 60.203125 27.203125 66.609375 
L 28.609375 66.609375 
Q 28.953125 66.609375 29.265625 66.328125 
Q 29.59375 66.0625 29.59375 65.71875 
L 29.59375 6.6875 
Q 29.59375 3.515625 42.09375 3.515625 
L 42.09375 0 
z
" id="Cmr10-31"/>
      </defs>
      <g transform="translate(560.029887 100.934078)scale(0.1 -0.1)">
       <use transform="translate(0 0.390625)" xlink:href="#Cmr10-31"/>
      </g>
     </g>
    </g>
   </g>
   <g id="matplotlib.axis_2">
    <g id="ytick_1">
     <g id="line2d_50">
      <path clip-path="url(#p61eaf2024a)" d="M 4.074135 86.335641 
L 573.48 86.335641 
" style="fill:none;stroke:#000000;stroke-dasharray:0.5,0.825;stroke-dashoffset:0;stroke-width:0.5;"/>
     </g>
     <g id="line2d_51">
      <defs>
       <path d="M 0 0 
L -3.5 0 
" id="m4d071b0854" style="stroke:#000000;stroke-width:0.8;"/>
      </defs>
      <g>
       <use style="stroke:#000000;stroke-width:0.8;" x="15.024247" xlink:href="#m4d071b0854" y="86.335641"/>
      </g>
     </g>
    </g>
    <g id="ytick_2">
     <g id="line2d_52">
      <path clip-path="url(#p61eaf2024a)" d="M 4.074135 17.897436 
L 573.48 17.897436 
" style="fill:none;stroke:#000000;stroke-dasharray:0.5,0.825;stroke-dashoffset:0;stroke-width:0.5;"/>
     </g>
     <g id="line2d_53">
      <g>
       <use style="stroke:#000000;stroke-width:0.8;" x="15.024247" xlink:href="#m4d071b0854" y="17.897436"/>
      </g>
     </g>
     <g id="text_3">
      <!-- $1$ -->
      <g transform="translate(3.024247 21.696655)scale(0.1 -0.1)">
       <use transform="translate(0 0.390625)" xlink:href="#Cmr10-31"/>
      </g>
     </g>
    </g>
   </g>
   <g id="patch_3">
    <path d="M 15.024247 87.704405 
L 15.024247 16.528672 
" style="fill:none;stroke:#000000;stroke-linecap:square;stroke-linejoin:miter;stroke-width:0.8;"/>
   </g>
   <g id="patch_4">
    <path d="M 4.074135 86.335641 
L 573.48 86.335641 
" style="fill:none;stroke:#000000;stroke-linecap:square;stroke-linejoin:miter;stroke-width:0.8;"/>
   </g>
  </g>
 </g>
 <defs>
  <clipPath id="p61eaf2024a">
   <rect height="71.175733" width="569.405865" x="4.074135" y="16.528672"/>
  </clipPath>
 </defs>
</svg>
