<?xml version="1.0" encoding="utf-8" standalone="no"?>
<!DOCTYPE svg PUBLIC "-//W3C//DTD SVG 1.1//EN"
  "http://www.w3.org/Graphics/SVG/1.1/DTD/svg11.dtd">
<!-- Created with matplotlib (http://matplotlib.org/) -->
<svg height="108pt" version="1.1" viewBox="0 0 576 108" width="576pt" xmlns="http://www.w3.org/2000/svg" xmlns:xlink="http://www.w3.org/1999/xlink">
 <defs>
  <style type="text/css">
*{stroke-linecap:butt;stroke-linejoin:round;}
  </style>
 </defs>
 <g id="figure_1">
  <g id="patch_1">
   <path d="M 0 108 
L 576 108 
L 576 0 
L 0 0 
z
" style="fill:#ffffff;"/>
  </g>
  <g id="axes_1">
   <g id="patch_2">
    <path d="M 4.074135 87.704405 
L 573.48 87.704405 
L 573.48 16.528672 
L 4.074135 16.528672 
z
" style="fill:#ffffff;"/>
   </g>
   <g id="line2d_1">
    <path clip-path="url(#p9eadf7a490)" d="M 214.117207 57.301251 
L 230.708287 62.485963 
L 230.708287 62.485963 
" style="fill:none;stroke:#ff0000;stroke-linecap:square;stroke-width:2;"/>
   </g>
   <g id="line2d_2">
    <path clip-path="url(#p9eadf7a490)" d="M 280.481527 55.227366 
L 330.254767 70.781503 
L 330.254767 70.781503 
" style="fill:none;stroke:#ff0000;stroke-linecap:square;stroke-width:2;"/>
   </g>
   <g id="line2d_3">
    <path clip-path="url(#p9eadf7a490)" d="M 429.801247 33.451573 
L 479.574487 49.005711 
L 479.574487 49.005711 
" style="fill:none;stroke:#ff0000;stroke-linecap:square;stroke-width:2;"/>
   </g>
   <g id="line2d_4">
    <path clip-path="url(#p9eadf7a490)" d="M 529.347727 41.747113 
L 545.938807 46.931826 
L 545.938807 46.931826 
" style="fill:none;stroke:#ff0000;stroke-linecap:square;stroke-width:2;"/>
   </g>
   <g id="line2d_5">
    <path clip-path="url(#p9eadf7a490)" d="M 81.388567 61.449021 
L 131.161807 42.784056 
L 131.161807 42.784056 
" style="fill:none;stroke:#ffda00;stroke-linecap:square;stroke-width:2;"/>
   </g>
   <g id="line2d_6">
    <path clip-path="url(#p9eadf7a490)" d="M 330.254767 70.781503 
L 429.801247 33.451573 
L 429.801247 33.451573 
" style="fill:none;stroke:#ffda00;stroke-linecap:square;stroke-width:2;"/>
   </g>
   <g id="line2d_7">
    <path clip-path="url(#p9eadf7a490)" d="M 247.299367 44.857941 
L 263.890447 72.855388 
L 263.890447 72.855388 
" style="fill:none;stroke:#48ff00;stroke-linecap:square;stroke-width:2;"/>
   </g>
   <g id="line2d_8">
    <path clip-path="url(#p9eadf7a490)" d="M 496.165567 31.377688 
L 496.283798 31.577203 
L 496.347068 31.68397 
L 496.390565 31.757372 
L 496.493395 31.930897 
L 496.567589 32.056099 
L 496.677303 32.241242 
L 496.772877 32.402524 
L 496.794931 32.43974 
L 496.876274 32.577007 
L 497.032796 32.841136 
L 497.092404 32.941726 
L 497.19876 33.121202 
L 497.232556 33.178231 
L 497.34419 33.366615 
L 497.380443 33.427791 
L 497.520756 33.66457 
L 497.592811 33.786162 
L 497.692113 33.953735 
L 497.760855 34.069737 
L 497.823486 34.175426 
L 497.941773 34.375035 
L 498.007929 34.486674 
L 498.110801 34.66027 
L 498.198676 34.80856 
L 498.2503 34.895675 
L 498.302276 34.983384 
L 498.396859 35.142994 
L 498.524856 35.358989 
L 498.57031 35.435691 
L 498.646405 35.564102 
L 498.765608 35.765257 
L 498.859032 35.922911 
L 498.943254 36.065035 
L 499.028087 36.208191 
L 499.075899 36.288874 
L 499.190336 36.481986 
L 499.255113 36.591297 
L 499.371356 36.787457 
L 499.416456 36.863564 
L 499.468409 36.951234 
L 499.593852 37.162919 
L 499.648286 37.254776 
L 499.734092 37.399574 
L 499.79691 37.50558 
L 499.897197 37.674814 
L 500.000214 37.848654 
L 500.085113 37.991923 
L 500.150725 38.102642 
L 500.234408 38.243858 
L 500.327624 38.401159 
L 500.397072 38.518354 
L 500.471197 38.643438 
L 500.581799 38.83008 
L 500.6702 38.979255 
L 500.750519 39.114795 
L 500.810205 39.215514 
L 500.898771 39.36497 
L 500.965045 39.476807 
L 501.085539 39.680141 
L 501.146598 39.783177 
L 501.239283 39.939585 
L 501.308395 40.05621 
L 501.429937 40.261313 
L 501.508227 40.393427 
L 501.620791 40.583378 
L 501.662593 40.653919 
L 501.717015 40.745756 
L 501.845915 40.963275 
L 501.918003 41.084924 
L 502.034252 41.281094 
L 502.072488 41.345617 
L 502.160628 41.494354 
L 502.232791 41.616129 
L 502.351683 41.816759 
L 502.445206 41.974579 
L 502.465293 42.008476 
L 502.545411 42.143675 
L 502.704371 42.411919 
L 502.729361 42.454091 
L 502.820845 42.608469 
L 502.882249 42.712089 
L 502.982763 42.881706 
L 503.064147 43.019042 
L 503.194336 43.238736 
L 503.243318 43.321393 
L 503.35566 43.510971 
L 503.4099 43.6025 
L 503.477407 43.716419 
L 503.568486 43.870115 
L 503.663951 44.031211 
L 503.7149 44.117187 
" style="fill:none;stroke:#48ff00;stroke-linecap:square;stroke-width:2;"/>
   </g>
   <g id="line2d_9">
    <path clip-path="url(#p9eadf7a490)" d="M 504.015318 44.624143 
L 504.0667 44.710849 
L 504.14726 44.846795 
L 504.217452 44.965244 
L 504.304774 45.1126 
L 504.385513 45.248846 
L 504.473011 45.3965 
L 504.596198 45.604378 
L 504.698324 45.776715 
L 504.76981 45.897348 
L 504.82092 45.983596 
L 504.942836 46.18933 
L 505.012461 46.306821 
L 505.076593 46.415044 
L 505.144226 46.529176 
L 505.211937 46.643438 
L 505.356032 46.886597 
L 505.460864 47.063502 
L 505.525954 47.173341 
L 505.567748 47.243868 
L 505.662497 47.403757 
L 505.716817 47.495423 
L 505.806012 47.645939 
L 505.935685 47.864762 
L 505.99623 47.966933 
L 506.061732 48.077466 
L 506.147543 48.222272 
L 506.265528 48.421372 
L 506.328299 48.527298 
L 506.43255 48.703222 
L 506.504223 48.82417 
L 506.581003 48.953737 
L 506.648739 49.06804 
L 506.778689 49.287331 
L 506.797097 49.318395 
L 506.891344 49.477438 
L 507.002101 49.66434 
L 507.11247 49.850587 
L 507.210926 50.016731 
L 507.279241 50.132012 
L 507.363199 50.273692 
L 507.419023 50.367895 
L 507.465725 50.446704 
L 507.567572 50.618571 
L 507.634568 50.731628 
L 507.744994 50.917972 
L 507.823658 51.050717 
L 507.915484 51.205674 
L 508.03054 51.399831 
L 508.116294 51.54454 
L 508.178874 51.650144 
L 508.282313 51.824698 
L 508.320877 51.889773 
L 508.437872 52.087202 
L 508.480489 52.159118 
L 508.614028 52.384465 
L 508.644509 52.435902 
L 508.746279 52.60764 
L 508.855458 52.791878 
L 508.887234 52.845501 
L 509.0337 53.092663 
L 509.104237 53.211693 
L 509.140581 53.273024 
L 509.255478 53.466914 
L 509.310197 53.559251 
L 509.441551 53.780911 
L 509.504014 53.886318 
L 509.589016 54.029758 
L 509.70468 54.224941 
L 509.737967 54.281113 
L 509.833569 54.442441 
L 509.891158 54.539622 
L 509.984306 54.69681 
L 510.086436 54.869154 
L 510.17742 55.02269 
L 510.235587 55.120847 
L 510.313392 55.252143 
L 510.408316 55.412327 
L 510.524732 55.608779 
L 510.56481 55.676411 
L 510.64211 55.806854 
L 510.781026 56.041275 
L 510.868435 56.188778 
L 510.888875 56.22327 
L 510.979983 56.377014 
L 511.060741 56.513294 
L 511.160696 56.681968 
L 511.292028 56.90359 
L 511.314113 56.94086 
L 511.450841 57.171589 
L 511.486898 57.232435 
L 511.55499 57.34734 
L 511.649955 57.507593 
L 511.725363 57.634844 
L 511.846318 57.838955 
L 511.895458 57.921879 
L 512.041867 58.168944 
L 512.095771 58.259907 
L 512.195573 58.428323 
L 512.260572 58.53801 
L 512.328789 58.653125 
L 512.392622 58.760843 
L 512.528691 58.99046 
L 512.576507 59.07115 
L 512.67336 59.23459 
L 512.756647 59.375136 
" style="fill:none;stroke:#48ff00;stroke-linecap:square;stroke-width:2;"/>
   </g>
   <g id="line2d_10">
    <path clip-path="url(#p9eadf7a490)" d="M 197.526127 17.897436 
L 214.117207 57.301251 
L 214.117207 57.301251 
" style="fill:none;stroke:#00ff91;stroke-linecap:square;stroke-width:2;"/>
   </g>
   <g id="line2d_11">
    <path clip-path="url(#p9eadf7a490)" d="M 545.938807 46.931826 
L 562.529887 86.335641 
L 562.529887 86.335641 
" style="fill:none;stroke:#00ff91;stroke-linecap:square;stroke-width:2;"/>
   </g>
   <g id="line2d_12">
    <path clip-path="url(#p9eadf7a490)" d="M 15.024247 86.335641 
L 31.615327 57.301251 
L 31.615327 57.301251 
" style="fill:none;stroke:#0091ff;stroke-linecap:square;stroke-width:2;"/>
   </g>
   <g id="line2d_13">
    <path clip-path="url(#p9eadf7a490)" d="M 48.206407 73.892331 
L 64.797487 44.857941 
L 64.797487 44.857941 
" style="fill:none;stroke:#0091ff;stroke-linecap:square;stroke-width:2;"/>
   </g>
   <g id="line2d_14">
    <path clip-path="url(#p9eadf7a490)" d="M 147.752887 59.375136 
L 164.343967 30.340746 
L 164.343967 30.340746 
" style="fill:none;stroke:#0091ff;stroke-linecap:square;stroke-width:2;"/>
   </g>
   <g id="line2d_15">
    <path clip-path="url(#p9eadf7a490)" d="M 180.935047 46.931826 
L 197.526127 17.897436 
L 197.526127 17.897436 
" style="fill:none;stroke:#0091ff;stroke-linecap:square;stroke-width:2;"/>
   </g>
   <g id="line2d_16">
    <path clip-path="url(#p9eadf7a490)" d="M 230.708287 62.485963 
L 247.299367 44.857941 
L 247.299367 44.857941 
" style="fill:none;stroke:#4800ff;stroke-linecap:square;stroke-width:2;"/>
   </g>
   <g id="line2d_17">
    <path clip-path="url(#p9eadf7a490)" d="M 263.890447 72.855388 
L 280.481527 55.227366 
L 280.481527 55.227366 
" style="fill:none;stroke:#4800ff;stroke-linecap:square;stroke-width:2;"/>
   </g>
   <g id="line2d_18">
    <path clip-path="url(#p9eadf7a490)" d="M 479.574487 49.005711 
L 496.165567 31.377688 
L 496.165567 31.377688 
" style="fill:none;stroke:#4800ff;stroke-linecap:square;stroke-width:2;"/>
   </g>
   <g id="line2d_19">
    <path clip-path="url(#p9eadf7a490)" d="M 512.756647 59.375136 
L 529.347727 41.747113 
L 529.347727 41.747113 
" style="fill:none;stroke:#4800ff;stroke-linecap:square;stroke-width:2;"/>
   </g>
   <g id="line2d_20">
    <path clip-path="url(#p9eadf7a490)" d="M 31.615327 57.301251 
L 48.206407 73.892331 
L 48.206407 73.892331 
" style="fill:none;stroke:#ff00da;stroke-linecap:square;stroke-width:2;"/>
   </g>
   <g id="line2d_21">
    <path clip-path="url(#p9eadf7a490)" d="M 64.797487 44.857941 
L 81.388567 61.449021 
L 81.388567 61.449021 
" style="fill:none;stroke:#ff00da;stroke-linecap:square;stroke-width:2;"/>
   </g>
   <g id="line2d_22">
    <path clip-path="url(#p9eadf7a490)" d="M 131.161807 42.784056 
L 147.752887 59.375136 
L 147.752887 59.375136 
" style="fill:none;stroke:#ff00da;stroke-linecap:square;stroke-width:2;"/>
   </g>
   <g id="line2d_23">
    <path clip-path="url(#p9eadf7a490)" d="M 164.343967 30.340746 
L 180.935047 46.931826 
L 180.935047 46.931826 
" style="fill:none;stroke:#ff00da;stroke-linecap:square;stroke-width:2;"/>
   </g>
   <g id="matplotlib.axis_1">
    <g id="xtick_1">
     <g id="line2d_24">
      <path clip-path="url(#p9eadf7a490)" d="M 15.024247 87.704405 
L 15.024247 16.528672 
" style="fill:none;stroke:#000000;stroke-dasharray:0.5,0.825;stroke-dashoffset:0;stroke-width:0.5;"/>
     </g>
     <g id="line2d_25">
      <defs>
       <path d="M 0 0 
L 0 3.5 
" id="m672578f5cf" style="stroke:#000000;stroke-width:0.8;"/>
      </defs>
      <g>
       <use style="stroke:#000000;stroke-width:0.8;" x="15.024247" xlink:href="#m672578f5cf" y="86.335641"/>
      </g>
     </g>
    </g>
    <g id="xtick_2">
     <g id="line2d_26">
      <path clip-path="url(#p9eadf7a490)" d="M 197.526127 87.704405 
L 197.526127 16.528672 
" style="fill:none;stroke:#000000;stroke-dasharray:0.5,0.825;stroke-dashoffset:0;stroke-width:0.5;"/>
     </g>
     <g id="line2d_27">
      <g>
       <use style="stroke:#000000;stroke-width:0.8;" x="197.526127" xlink:href="#m672578f5cf" y="86.335641"/>
      </g>
     </g>
     <g id="text_1">
      <!-- $f$ -->
      <defs>
       <path d="M 9.71875 -16.5 
Q 11.578125 -17.921875 14.203125 -17.921875 
Q 17.78125 -17.921875 20.015625 -10.015625 
Q 20.953125 -6.203125 25.09375 15.09375 
L 29.6875 39.59375 
L 21.09375 39.59375 
Q 20.125 39.59375 20.125 40.921875 
Q 20.515625 43.109375 21.390625 43.109375 
L 30.328125 43.109375 
L 31.5 49.609375 
Q 32.078125 52.640625 32.5625 54.8125 
Q 33.0625 56.984375 33.625 58.828125 
Q 34.1875 60.6875 35.296875 62.984375 
Q 37.015625 66.265625 39.921875 68.390625 
Q 42.828125 70.515625 46.1875 70.515625 
Q 48.390625 70.515625 50.46875 69.703125 
Q 52.546875 68.890625 53.859375 67.28125 
Q 55.171875 65.671875 55.171875 63.484375 
Q 55.171875 60.9375 53.484375 59.046875 
Q 51.8125 57.171875 49.421875 57.171875 
Q 47.796875 57.171875 46.65625 58.171875 
Q 45.515625 59.1875 45.515625 60.796875 
Q 45.515625 62.984375 47 64.625 
Q 48.484375 66.265625 50.6875 66.5 
Q 48.828125 67.921875 46.09375 67.921875 
Q 44.578125 67.921875 43.234375 66.5 
Q 41.890625 65.09375 41.5 63.484375 
Q 40.875 60.9375 38.71875 49.703125 
L 37.5 43.109375 
L 47.796875 43.109375 
Q 48.78125 43.109375 48.78125 41.796875 
Q 48.734375 41.546875 48.578125 40.9375 
Q 48.4375 40.328125 48.171875 39.953125 
Q 47.90625 39.59375 47.515625 39.59375 
L 36.8125 39.59375 
L 32.171875 15.1875 
Q 31.296875 9.859375 30.140625 4.359375 
Q 29 -1.125 26.921875 -6.90625 
Q 24.859375 -12.703125 21.625 -16.609375 
Q 18.40625 -20.515625 14.015625 -20.515625 
Q 10.640625 -20.515625 7.984375 -18.578125 
Q 5.328125 -16.65625 5.328125 -13.484375 
Q 5.328125 -10.9375 6.953125 -9.046875 
Q 8.59375 -7.171875 11.078125 -7.171875 
Q 12.75 -7.171875 13.859375 -8.171875 
Q 14.984375 -9.1875 14.984375 -10.796875 
Q 14.984375 -12.9375 13.390625 -14.71875 
Q 11.8125 -16.5 9.71875 -16.5 
z
" id="Cmmi10-66"/>
      </defs>
      <g transform="translate(195.076127 100.913766)scale(0.1 -0.1)">
       <use transform="translate(0 0.484375)" xlink:href="#Cmmi10-66"/>
      </g>
     </g>
    </g>
    <g id="xtick_3">
     <g id="line2d_28">
      <path clip-path="url(#p9eadf7a490)" d="M 562.529887 87.704405 
L 562.529887 16.528672 
" style="fill:none;stroke:#000000;stroke-dasharray:0.5,0.825;stroke-dashoffset:0;stroke-width:0.5;"/>
     </g>
     <g id="line2d_29">
      <g>
       <use style="stroke:#000000;stroke-width:0.8;" x="562.529887" xlink:href="#m672578f5cf" y="86.335641"/>
      </g>
     </g>
     <g id="text_2">
      <!-- $1$ -->
      <defs>
       <path d="M 9.28125 0 
L 9.28125 3.515625 
Q 21.78125 3.515625 21.78125 6.6875 
L 21.78125 59.1875 
Q 16.609375 56.6875 8.6875 56.6875 
L 8.6875 60.203125 
Q 20.953125 60.203125 27.203125 66.609375 
L 28.609375 66.609375 
Q 28.953125 66.609375 29.265625 66.328125 
Q 29.59375 66.0625 29.59375 65.71875 
L 29.59375 6.6875 
Q 29.59375 3.515625 42.09375 3.515625 
L 42.09375 0 
z
" id="Cmr10-31"/>
      </defs>
      <g transform="translate(560.029887 100.934078)scale(0.1 -0.1)">
       <use transform="translate(0 0.390625)" xlink:href="#Cmr10-31"/>
      </g>
     </g>
    </g>
   </g>
   <g id="matplotlib.axis_2">
    <g id="ytick_1">
     <g id="line2d_30">
      <path clip-path="url(#p9eadf7a490)" d="M 4.074135 86.335641 
L 573.48 86.335641 
" style="fill:none;stroke:#000000;stroke-dasharray:0.5,0.825;stroke-dashoffset:0;stroke-width:0.5;"/>
     </g>
     <g id="line2d_31">
      <defs>
       <path d="M 0 0 
L -3.5 0 
" id="maeba7d453c" style="stroke:#000000;stroke-width:0.8;"/>
      </defs>
      <g>
       <use style="stroke:#000000;stroke-width:0.8;" x="15.024247" xlink:href="#maeba7d453c" y="86.335641"/>
      </g>
     </g>
    </g>
    <g id="ytick_2">
     <g id="line2d_32">
      <path clip-path="url(#p9eadf7a490)" d="M 4.074135 17.897436 
L 573.48 17.897436 
" style="fill:none;stroke:#000000;stroke-dasharray:0.5,0.825;stroke-dashoffset:0;stroke-width:0.5;"/>
     </g>
     <g id="line2d_33">
      <g>
       <use style="stroke:#000000;stroke-width:0.8;" x="15.024247" xlink:href="#maeba7d453c" y="17.897436"/>
      </g>
     </g>
     <g id="text_3">
      <!-- $1$ -->
      <g transform="translate(3.024247 21.696655)scale(0.1 -0.1)">
       <use transform="translate(0 0.390625)" xlink:href="#Cmr10-31"/>
      </g>
     </g>
    </g>
   </g>
   <g id="patch_3">
    <path d="M 15.024247 87.704405 
L 15.024247 16.528672 
" style="fill:none;stroke:#000000;stroke-linecap:square;stroke-linejoin:miter;stroke-width:0.8;"/>
   </g>
   <g id="patch_4">
    <path d="M 4.074135 86.335641 
L 573.48 86.335641 
" style="fill:none;stroke:#000000;stroke-linecap:square;stroke-linejoin:miter;stroke-width:0.8;"/>
   </g>
  </g>
 </g>
 <defs>
  <clipPath id="p9eadf7a490">
   <rect height="71.175733" width="569.405865" x="4.074135" y="16.528672"/>
  </clipPath>
 </defs>
</svg>
