<?xml version="1.0" encoding="utf-8" standalone="no"?>
<!DOCTYPE svg PUBLIC "-//W3C//DTD SVG 1.1//EN"
  "http://www.w3.org/Graphics/SVG/1.1/DTD/svg11.dtd">
<!-- Created with matplotlib (http://matplotlib.org/) -->
<svg height="108pt" version="1.1" viewBox="0 0 576 108" width="576pt" xmlns="http://www.w3.org/2000/svg" xmlns:xlink="http://www.w3.org/1999/xlink">
 <defs>
  <style type="text/css">
*{stroke-linecap:butt;stroke-linejoin:round;}
  </style>
 </defs>
 <g id="figure_1">
  <g id="patch_1">
   <path d="M 0 108 
L 576 108 
L 576 0 
L 0 0 
z
" style="fill:#ffffff;"/>
  </g>
  <g id="axes_1">
   <g id="patch_2">
    <path d="M 4.074135 87.704405 
L 573.48 87.704405 
L 573.48 16.528672 
L 4.074135 16.528672 
z
" style="fill:#ffffff;"/>
   </g>
   <g id="line2d_1">
    <path clip-path="url(#pb0e8b43680)" d="M 139.457347 37.278167 
L 164.343967 48.785475 
L 164.343967 48.785475 
" style="fill:none;stroke:#ff0000;stroke-linecap:square;stroke-width:2;"/>
   </g>
   <g id="line2d_2">
    <path clip-path="url(#pb0e8b43680)" d="M 214.117207 45.151588 
L 239.003827 56.658897 
L 239.003827 56.658897 
" style="fill:none;stroke:#ff0000;stroke-linecap:square;stroke-width:2;"/>
   </g>
   <g id="line2d_3">
    <path clip-path="url(#pb0e8b43680)" d="M 263.890447 28.193449 
L 288.777067 39.700758 
L 288.777067 39.700758 
" style="fill:none;stroke:#ff0000;stroke-linecap:square;stroke-width:2;"/>
   </g>
   <g id="line2d_4">
    <path clip-path="url(#pb0e8b43680)" d="M 313.663687 64.532319 
L 338.550307 76.039628 
L 338.550307 76.039628 
" style="fill:none;stroke:#ff0000;stroke-linecap:square;stroke-width:2;"/>
   </g>
   <g id="line2d_5">
    <path clip-path="url(#pb0e8b43680)" d="M 363.436927 47.57418 
L 388.323547 59.081489 
L 388.323547 59.081489 
" style="fill:none;stroke:#ff0000;stroke-linecap:square;stroke-width:2;"/>
   </g>
   <g id="line2d_6">
    <path clip-path="url(#pb0e8b43680)" d="M 438.096787 55.447602 
L 462.983407 66.95491 
L 462.983407 66.95491 
" style="fill:none;stroke:#ff0000;stroke-linecap:square;stroke-width:2;"/>
   </g>
   <g id="line2d_7">
    <path clip-path="url(#pb0e8b43680)" d="M 39.910867 17.897436 
L 89.684107 67.560558 
L 89.684107 67.560558 
" style="fill:none;stroke:#cbff00;stroke-linecap:square;stroke-width:2;"/>
   </g>
   <g id="line2d_8">
    <path clip-path="url(#pb0e8b43680)" d="M 288.777067 39.700758 
L 313.663687 64.532319 
L 313.663687 64.532319 
" style="fill:none;stroke:#cbff00;stroke-linecap:square;stroke-width:2;"/>
   </g>
   <g id="line2d_9">
    <path clip-path="url(#pb0e8b43680)" d="M 512.756647 36.672519 
L 562.529887 86.335641 
L 562.529887 86.335641 
" style="fill:none;stroke:#cbff00;stroke-linecap:square;stroke-width:2;"/>
   </g>
   <g id="line2d_10">
    <path clip-path="url(#pb0e8b43680)" d="M 114.570727 65.743615 
L 139.457347 37.278167 
L 139.457347 37.278167 
" style="fill:none;stroke:#00ff66;stroke-linecap:square;stroke-width:2;"/>
   </g>
   <g id="line2d_11">
    <path clip-path="url(#pb0e8b43680)" d="M 239.003827 56.658897 
L 263.890447 28.193449 
L 263.890447 28.193449 
" style="fill:none;stroke:#00ff66;stroke-linecap:square;stroke-width:2;"/>
   </g>
   <g id="line2d_12">
    <path clip-path="url(#pb0e8b43680)" d="M 338.550307 76.039628 
L 363.436927 47.57418 
L 363.436927 47.57418 
" style="fill:none;stroke:#00ff66;stroke-linecap:square;stroke-width:2;"/>
   </g>
   <g id="line2d_13">
    <path clip-path="url(#pb0e8b43680)" d="M 462.983407 66.95491 
L 487.870027 38.489462 
L 487.870027 38.489462 
" style="fill:none;stroke:#00ff66;stroke-linecap:square;stroke-width:2;"/>
   </g>
   <g id="line2d_14">
    <path clip-path="url(#pb0e8b43680)" d="M 89.684107 67.560558 
L 114.570727 65.743615 
L 114.570727 65.743615 
" style="fill:none;stroke:#0066ff;stroke-linecap:square;stroke-width:2;"/>
   </g>
   <g id="line2d_15">
    <path clip-path="url(#pb0e8b43680)" d="M 164.343967 48.785475 
L 214.117207 45.151588 
L 214.117207 45.151588 
" style="fill:none;stroke:#0066ff;stroke-linecap:square;stroke-width:2;"/>
   </g>
   <g id="line2d_16">
    <path clip-path="url(#pb0e8b43680)" d="M 388.323547 59.081489 
L 388.600101 59.061298 
L 388.938185 59.036615 
L 389.178165 59.019094 
L 389.231997 59.015164 
L 389.533962 58.993118 
L 389.810953 58.972895 
L 390.18333 58.945708 
L 390.302952 58.936974 
L 390.643842 58.912086 
L 390.710052 58.907253 
L 390.954614 58.889397 
L 391.410261 58.856131 
L 391.685648 58.836025 
L 391.92643 58.818446 
L 392.062435 58.808517 
L 392.437774 58.781114 
L 392.680927 58.763361 
L 392.759673 58.757612 
L 393.099868 58.732775 
L 393.221338 58.723906 
L 393.672885 58.69094 
L 393.72871 58.686864 
L 394.157409 58.655565 
L 394.44236 58.634761 
L 394.494164 58.630979 
L 394.918883 58.599971 
L 395.198277 58.579572 
L 395.311055 58.571339 
L 395.657617 58.546037 
L 395.766637 58.538077 
L 396.193083 58.506943 
L 396.225272 58.504593 
L 396.581121 58.478613 
L 396.753645 58.466017 
L 397.132657 58.438346 
L 397.450331 58.415153 
L 397.660549 58.399805 
L 397.86841 58.384629 
L 398.1676 58.362786 
L 398.424503 58.344029 
L 398.587647 58.332118 
L 398.740222 58.320979 
L 399.11107 58.293904 
L 399.329907 58.277927 
L 399.679362 58.252414 
L 399.933426 58.233865 
L 400.165364 58.216931 
L 400.388801 58.200618 
L 400.546926 58.189074 
L 400.924758 58.161489 
L 401.168464 58.143696 
L 401.291751 58.134695 
L 401.471399 58.121579 
L 401.785066 58.098679 
L 401.960613 58.085862 
L 402.298198 58.061215 
L 402.612888 58.03824 
L 402.897651 58.01745 
L 402.969056 58.012237 
L 403.256525 57.991249 
L 403.459966 57.976396 
L 403.764994 57.954126 
L 403.998196 57.9371 
L 404.353029 57.911195 
L 404.667697 57.888221 
L 404.795943 57.878858 
L 405.156127 57.852561 
L 405.287094 57.842999 
L 405.623215 57.81846 
L 405.929826 57.796074 
L 406.172728 57.77834 
L 406.240041 57.773426 
L 406.562112 57.749912 
L 406.811352 57.731715 
L 407.047818 57.714451 
L 407.320035 57.694577 
L 407.534916 57.678889 
L 407.724683 57.665034 
L 408.02952 57.642778 
L 408.44631 57.612349 
L 408.703527 57.59357 
L 408.716969 57.592588 
L 408.974099 57.573815 
L 409.438452 57.539914 
L 409.630737 57.525875 
L 409.772808 57.515503 
L 410.199487 57.484351 
L 410.346195 57.47364 
L 410.533988 57.45993 
L 410.719538 57.446383 
L 410.960483 57.428792 
L 411.332523 57.40163 
L 411.518188 57.388074 
L 411.821099 57.365959 
L 412.002178 57.352739 
L 412.350269 57.327325 
L 412.57109 57.311203 
L 412.723233 57.300096 
L 413.008064 57.2793 
L 413.374337 57.252559 
L 413.706706 57.228293 
L 413.726688 57.226834 
L 414.202529 57.192094 
L 414.249079 57.188695 
L 414.637488 57.160338 
L 414.855745 57.144403 
L 415.007961 57.13329 
L 415.321592 57.110392 
" style="fill:none;stroke:#0066ff;stroke-linecap:square;stroke-width:2;"/>
   </g>
   <g id="line2d_17">
    <path clip-path="url(#pb0e8b43680)" d="M 416.190062 57.046986 
L 416.329598 57.036799 
L 416.50024 57.024341 
L 416.782095 57.003763 
L 417.148326 56.977025 
L 417.409452 56.95796 
L 417.560153 56.946958 
L 417.862973 56.924849 
L 418.16053 56.903125 
L 418.424337 56.883865 
L 418.488149 56.879206 
L 418.875932 56.850894 
L 419.050093 56.838179 
L 419.262317 56.822685 
L 419.663672 56.793382 
L 419.745913 56.787378 
L 420.17942 56.755728 
L 420.320802 56.745406 
L 420.529119 56.730197 
L 420.767519 56.712791 
L 421.056373 56.691703 
L 421.348002 56.670411 
L 421.55769 56.655102 
L 421.891147 56.630757 
L 422.198797 56.608296 
L 422.398049 56.593748 
L 422.473394 56.588247 
L 422.739467 56.568822 
L 423.161232 56.538029 
L 423.34099 56.524905 
L 423.597572 56.506173 
L 423.740001 56.495774 
L 424.212263 56.461295 
L 424.391736 56.448192 
L 424.607797 56.432417 
L 424.946745 56.407671 
L 425.018975 56.402398 
L 425.444091 56.37136 
L 425.69256 56.35322 
L 425.933173 56.335653 
L 426.181397 56.31753 
L 426.285379 56.309939 
L 426.527766 56.292242 
L 426.950848 56.261354 
L 427.10879 56.249823 
L 427.362879 56.231272 
L 427.467275 56.22365 
L 427.815724 56.19821 
L 428.028514 56.182675 
L 428.430781 56.153306 
L 428.507932 56.147673 
L 428.927532 56.117038 
L 429.211692 56.096292 
L 429.244641 56.093887 
L 429.517641 56.073955 
L 429.872483 56.048049 
L 430.022108 56.037125 
L 430.353792 56.012909 
L 430.530771 55.999988 
L 430.860002 55.975951 
L 431.020852 55.964207 
L 431.279992 55.945288 
L 431.683227 55.915848 
L 431.825559 55.905457 
L 432.179112 55.879644 
L 432.390004 55.864247 
L 432.521638 55.854637 
L 432.777054 55.835989 
L 433.065845 55.814905 
L 433.258444 55.800843 
L 433.48427 55.784356 
L 433.843705 55.758114 
L 434.032856 55.744304 
L 434.429767 55.715326 
L 434.533539 55.70775 
L 434.843815 55.685097 
L 435.07988 55.667862 
L 435.374194 55.646375 
L 435.686533 55.623571 
L 435.954551 55.604004 
L 436.058846 55.596389 
L 436.346512 55.575387 
L 436.580979 55.558269 
L 436.916249 55.533791 
L 437.209724 55.512365 
L 437.223065 55.511391 
L 437.57051 55.486024 
L 437.779471 55.470768 
L 438.096787 55.447602 
" style="fill:none;stroke:#0066ff;stroke-linecap:square;stroke-width:2;"/>
   </g>
   <g id="line2d_18">
    <path clip-path="url(#pb0e8b43680)" d="M 487.870027 38.489462 
L 512.756647 36.672519 
L 512.756647 36.672519 
" style="fill:none;stroke:#0066ff;stroke-linecap:square;stroke-width:2;"/>
   </g>
   <g id="line2d_19">
    <path clip-path="url(#pb0e8b43680)" d="M 15.024247 86.335641 
L 39.910867 17.897436 
L 39.910867 17.897436 
" style="fill:none;stroke:#cc00ff;stroke-linecap:square;stroke-width:2;"/>
   </g>
   <g id="matplotlib.axis_1">
    <g id="xtick_1">
     <g id="line2d_20">
      <path clip-path="url(#pb0e8b43680)" d="M 15.024247 87.704405 
L 15.024247 16.528672 
" style="fill:none;stroke:#000000;stroke-dasharray:0.5,0.825;stroke-dashoffset:0;stroke-width:0.5;"/>
     </g>
     <g id="line2d_21">
      <defs>
       <path d="M 0 0 
L 0 3.5 
" id="meb2fc4b9d4" style="stroke:#000000;stroke-width:0.8;"/>
      </defs>
      <g>
       <use style="stroke:#000000;stroke-width:0.8;" x="15.024247" xlink:href="#meb2fc4b9d4" y="86.335641"/>
      </g>
     </g>
    </g>
    <g id="xtick_2">
     <g id="line2d_22">
      <path clip-path="url(#pb0e8b43680)" d="M 39.910867 87.704405 
L 39.910867 16.528672 
" style="fill:none;stroke:#000000;stroke-dasharray:0.5,0.825;stroke-dashoffset:0;stroke-width:0.5;"/>
     </g>
     <g id="line2d_23">
      <g>
       <use style="stroke:#000000;stroke-width:0.8;" x="39.910867" xlink:href="#meb2fc4b9d4" y="86.335641"/>
      </g>
     </g>
     <g id="text_1">
      <!-- $f$ -->
      <defs>
       <path d="M 9.71875 -16.5 
Q 11.578125 -17.921875 14.203125 -17.921875 
Q 17.78125 -17.921875 20.015625 -10.015625 
Q 20.953125 -6.203125 25.09375 15.09375 
L 29.6875 39.59375 
L 21.09375 39.59375 
Q 20.125 39.59375 20.125 40.921875 
Q 20.515625 43.109375 21.390625 43.109375 
L 30.328125 43.109375 
L 31.5 49.609375 
Q 32.078125 52.640625 32.5625 54.8125 
Q 33.0625 56.984375 33.625 58.828125 
Q 34.1875 60.6875 35.296875 62.984375 
Q 37.015625 66.265625 39.921875 68.390625 
Q 42.828125 70.515625 46.1875 70.515625 
Q 48.390625 70.515625 50.46875 69.703125 
Q 52.546875 68.890625 53.859375 67.28125 
Q 55.171875 65.671875 55.171875 63.484375 
Q 55.171875 60.9375 53.484375 59.046875 
Q 51.8125 57.171875 49.421875 57.171875 
Q 47.796875 57.171875 46.65625 58.171875 
Q 45.515625 59.1875 45.515625 60.796875 
Q 45.515625 62.984375 47 64.625 
Q 48.484375 66.265625 50.6875 66.5 
Q 48.828125 67.921875 46.09375 67.921875 
Q 44.578125 67.921875 43.234375 66.5 
Q 41.890625 65.09375 41.5 63.484375 
Q 40.875 60.9375 38.71875 49.703125 
L 37.5 43.109375 
L 47.796875 43.109375 
Q 48.78125 43.109375 48.78125 41.796875 
Q 48.734375 41.546875 48.578125 40.9375 
Q 48.4375 40.328125 48.171875 39.953125 
Q 47.90625 39.59375 47.515625 39.59375 
L 36.8125 39.59375 
L 32.171875 15.1875 
Q 31.296875 9.859375 30.140625 4.359375 
Q 29 -1.125 26.921875 -6.90625 
Q 24.859375 -12.703125 21.625 -16.609375 
Q 18.40625 -20.515625 14.015625 -20.515625 
Q 10.640625 -20.515625 7.984375 -18.578125 
Q 5.328125 -16.65625 5.328125 -13.484375 
Q 5.328125 -10.9375 6.953125 -9.046875 
Q 8.59375 -7.171875 11.078125 -7.171875 
Q 12.75 -7.171875 13.859375 -8.171875 
Q 14.984375 -9.1875 14.984375 -10.796875 
Q 14.984375 -12.9375 13.390625 -14.71875 
Q 11.8125 -16.5 9.71875 -16.5 
z
" id="Cmmi10-66"/>
      </defs>
      <g transform="translate(37.460867 100.913766)scale(0.1 -0.1)">
       <use transform="translate(0 0.484375)" xlink:href="#Cmmi10-66"/>
      </g>
     </g>
    </g>
    <g id="xtick_3">
     <g id="line2d_24">
      <path clip-path="url(#pb0e8b43680)" d="M 562.529887 87.704405 
L 562.529887 16.528672 
" style="fill:none;stroke:#000000;stroke-dasharray:0.5,0.825;stroke-dashoffset:0;stroke-width:0.5;"/>
     </g>
     <g id="line2d_25">
      <g>
       <use style="stroke:#000000;stroke-width:0.8;" x="562.529887" xlink:href="#meb2fc4b9d4" y="86.335641"/>
      </g>
     </g>
     <g id="text_2">
      <!-- $1$ -->
      <defs>
       <path d="M 9.28125 0 
L 9.28125 3.515625 
Q 21.78125 3.515625 21.78125 6.6875 
L 21.78125 59.1875 
Q 16.609375 56.6875 8.6875 56.6875 
L 8.6875 60.203125 
Q 20.953125 60.203125 27.203125 66.609375 
L 28.609375 66.609375 
Q 28.953125 66.609375 29.265625 66.328125 
Q 29.59375 66.0625 29.59375 65.71875 
L 29.59375 6.6875 
Q 29.59375 3.515625 42.09375 3.515625 
L 42.09375 0 
z
" id="Cmr10-31"/>
      </defs>
      <g transform="translate(560.029887 100.934078)scale(0.1 -0.1)">
       <use transform="translate(0 0.390625)" xlink:href="#Cmr10-31"/>
      </g>
     </g>
    </g>
   </g>
   <g id="matplotlib.axis_2">
    <g id="ytick_1">
     <g id="line2d_26">
      <path clip-path="url(#pb0e8b43680)" d="M 4.074135 86.335641 
L 573.48 86.335641 
" style="fill:none;stroke:#000000;stroke-dasharray:0.5,0.825;stroke-dashoffset:0;stroke-width:0.5;"/>
     </g>
     <g id="line2d_27">
      <defs>
       <path d="M 0 0 
L -3.5 0 
" id="m19525a0959" style="stroke:#000000;stroke-width:0.8;"/>
      </defs>
      <g>
       <use style="stroke:#000000;stroke-width:0.8;" x="15.024247" xlink:href="#m19525a0959" y="86.335641"/>
      </g>
     </g>
    </g>
    <g id="ytick_2">
     <g id="line2d_28">
      <path clip-path="url(#pb0e8b43680)" d="M 4.074135 17.897436 
L 573.48 17.897436 
" style="fill:none;stroke:#000000;stroke-dasharray:0.5,0.825;stroke-dashoffset:0;stroke-width:0.5;"/>
     </g>
     <g id="line2d_29">
      <g>
       <use style="stroke:#000000;stroke-width:0.8;" x="15.024247" xlink:href="#m19525a0959" y="17.897436"/>
      </g>
     </g>
     <g id="text_3">
      <!-- $1$ -->
      <g transform="translate(3.024247 21.696655)scale(0.1 -0.1)">
       <use transform="translate(0 0.390625)" xlink:href="#Cmr10-31"/>
      </g>
     </g>
    </g>
   </g>
   <g id="patch_3">
    <path d="M 15.024247 87.704405 
L 15.024247 16.528672 
" style="fill:none;stroke:#000000;stroke-linecap:square;stroke-linejoin:miter;stroke-width:0.8;"/>
   </g>
   <g id="patch_4">
    <path d="M 4.074135 86.335641 
L 573.48 86.335641 
" style="fill:none;stroke:#000000;stroke-linecap:square;stroke-linejoin:miter;stroke-width:0.8;"/>
   </g>
  </g>
 </g>
 <defs>
  <clipPath id="pb0e8b43680">
   <rect height="71.175733" width="569.405865" x="4.074135" y="16.528672"/>
  </clipPath>
 </defs>
</svg>
