<?xml version="1.0" encoding="utf-8" standalone="no"?>
<!DOCTYPE svg PUBLIC "-//W3C//DTD SVG 1.1//EN"
  "http://www.w3.org/Graphics/SVG/1.1/DTD/svg11.dtd">
<!-- Created with matplotlib (http://matplotlib.org/) -->
<svg height="108pt" version="1.1" viewBox="0 0 576 108" width="576pt" xmlns="http://www.w3.org/2000/svg" xmlns:xlink="http://www.w3.org/1999/xlink">
 <defs>
  <style type="text/css">
*{stroke-linecap:butt;stroke-linejoin:round;}
  </style>
 </defs>
 <g id="figure_1">
  <g id="patch_1">
   <path d="M 0 108 
L 576 108 
L 576 0 
L 0 0 
z
" style="fill:#ffffff;"/>
  </g>
  <g id="axes_1">
   <g id="patch_2">
    <path d="M 4.074135 87.704405 
L 573.48 87.704405 
L 573.48 16.528672 
L 4.074135 16.528672 
z
" style="fill:#ffffff;"/>
   </g>
   <g id="line2d_1">
    <path clip-path="url(#pff43b8ecfa)" d="M 174.713392 74.929273 
L 288.777067 40.710171 
L 288.777067 40.710171 
" style="fill:none;stroke:#ff0000;stroke-linecap:square;stroke-width:2;"/>
   </g>
   <g id="line2d_2">
    <path clip-path="url(#pff43b8ecfa)" d="M 334.402537 63.522906 
L 448.466212 29.303803 
L 448.466212 29.303803 
" style="fill:none;stroke:#ff0000;stroke-linecap:square;stroke-width:2;"/>
   </g>
   <g id="line2d_3">
    <path clip-path="url(#pff43b8ecfa)" d="M 60.649717 17.897436 
L 174.713392 74.929273 
L 174.713392 74.929273 
" style="fill:none;stroke:#00ff00;stroke-linecap:square;stroke-width:2;"/>
   </g>
   <g id="line2d_4">
    <path clip-path="url(#pff43b8ecfa)" d="M 288.777067 40.710171 
L 288.894519 40.768897 
L 289.335333 40.989304 
L 289.449588 41.046431 
L 289.6648 41.154037 
L 290.026588 41.334931 
L 290.104637 41.373956 
L 290.381699 41.512487 
L 290.536885 41.59008 
L 290.896565 41.76992 
L 291.009971 41.826623 
L 291.381143 42.012209 
L 291.44304 42.043157 
L 291.868218 42.255746 
L 292.002314 42.322794 
L 292.104092 42.373683 
L 292.534184 42.58873 
L 292.611594 42.627434 
L 292.887912 42.765593 
L 293.138889 42.891082 
L 293.444019 43.043647 
L 293.578363 43.110819 
L 293.746488 43.194881 
L 294.062257 43.352766 
L 294.393655 43.518465 
L 294.463657 43.553466 
L 294.64707 43.645172 
L 294.853415 43.748345 
L 295.12308 43.883177 
L 295.45672 44.049997 
L 295.74355 44.193412 
L 295.85201 44.247642 
L 296.137544 44.390409 
L 296.365442 44.504358 
L 296.602491 44.622883 
L 296.757374 44.700325 
L 297.145475 44.894375 
L 297.235925 44.9396 
L 297.525343 45.084309 
L 297.66133 45.152302 
L 297.850005 45.24664 
L 298.100186 45.37173 
L 298.451951 45.547613 
L 298.546051 45.594663 
L 298.930151 45.786713 
L 299.011012 45.827143 
L 299.396475 46.019875 
L 299.621221 46.132248 
L 299.722 46.182637 
L 299.970664 46.306969 
L 300.14884 46.396057 
L 300.386376 46.514825 
L 300.661459 46.652367 
L 300.909909 46.776592 
L 301.206797 46.925036 
L 301.376167 47.009721 
L 301.679443 47.161359 
L 301.735284 47.189279 
L 302.055968 47.349621 
L 302.203277 47.423276 
L 302.587412 47.615343 
L 302.648235 47.645755 
L 302.981803 47.812539 
L 303.240624 47.94195 
L 303.487529 48.065402 
L 303.621038 48.132156 
L 303.955805 48.29954 
L 304.057175 48.350225 
L 304.336479 48.489877 
L 304.669744 48.656509 
L 304.804494 48.723884 
L 305.070372 48.856824 
L 305.194554 48.918914 
L 305.448195 49.045735 
L 305.716528 49.179901 
L 306.012618 49.327947 
L 306.256938 49.450106 
L 306.401056 49.522165 
L 306.751262 49.697268 
L 306.939412 49.791343 
L 307.198839 49.921057 
L 307.443094 50.043184 
L 307.489998 50.066636 
L 307.87208 50.257677 
L 308.13053 50.386902 
L 308.267401 50.455338 
L 308.386794 50.515034 
L 308.667482 50.655378 
L 308.904507 50.773891 
L 309.093122 50.868198 
L 309.343624 50.99345 
" style="fill:none;stroke:#00ff00;stroke-linecap:square;stroke-width:2;"/>
   </g>
   <g id="line2d_5">
    <path clip-path="url(#pff43b8ecfa)" d="M 310.10296 51.373117 
L 310.338589 51.490932 
L 310.600706 51.62199 
L 310.769564 51.706419 
L 311.096376 51.869826 
L 311.165897 51.904586 
L 311.468965 52.05612 
L 311.77917 52.211222 
L 311.84807 52.245673 
L 312.247393 52.445334 
L 312.412772 52.528024 
L 312.620743 52.632009 
L 312.870583 52.756929 
L 312.998935 52.821105 
L 313.229475 52.936375 
L 313.643849 53.143562 
L 313.722294 53.182785 
L 313.981512 53.312394 
L 314.207396 53.425335 
L 314.449513 53.546394 
L 314.618811 53.631043 
L 314.932345 53.78781 
L 315.100979 53.872127 
L 315.356708 53.999991 
L 315.679263 54.161269 
L 315.890203 54.266739 
L 316.074099 54.358687 
L 316.391256 54.517265 
L 316.505403 54.574339 
L 316.66652 54.654897 
L 317.014807 54.829041 
L 317.106757 54.875016 
L 317.458247 55.050761 
L 317.710492 55.176883 
L 317.971429 55.307352 
L 318.196765 55.42002 
L 318.43718 55.540227 
L 318.587302 55.615288 
L 318.739732 55.691503 
L 319.117134 55.880205 
L 319.271834 55.957554 
L 319.492549 56.067912 
L 319.669311 56.156293 
L 319.875598 56.259436 
L 320.278208 56.460742 
L 320.523702 56.583489 
L 320.664822 56.654048 
L 320.907936 56.775605 
L 321.099345 56.87131 
L 321.393614 57.018444 
L 321.554142 57.098709 
L 321.8541 57.248687 
L 322.056287 57.349781 
L 322.306261 57.474768 
L 322.39642 57.519847 
L 322.690455 57.666865 
L 323.047081 57.845178 
L 323.261757 57.952516 
L 323.406806 58.025041 
L 323.549524 58.096399 
L 323.964822 58.304048 
L 324.071443 58.357359 
L 324.227027 58.435151 
L 324.457472 58.550374 
L 324.732271 58.687773 
L 325.026536 58.834906 
L 325.323721 58.983498 
L 325.503858 59.073566 
L 325.597428 59.120352 
L 326.019638 59.331456 
L 326.25853 59.450902 
L 326.312419 59.477847 
L 326.646476 59.644875 
L 326.755377 59.699326 
L 327.104213 59.873744 
L 327.210014 59.926644 
L 327.417365 60.03032 
L 327.825197 60.234236 
L 328.016303 60.329789 
L 328.148488 60.395881 
L 328.511279 60.577277 
L 328.725039 60.684157 
L 328.982005 60.81264 
L 329.133596 60.888435 
L 329.356628 60.999951 
L 329.60842 61.125847 
L 329.909999 61.276637 
L 330.053728 61.348501 
L 330.243054 61.443164 
L 330.540011 61.591643 
L 330.70544 61.674357 
L 330.915252 61.779264 
L 331.264874 61.954074 
L 331.326877 61.985076 
L 331.677605 62.16044 
L 331.855628 62.249452 
L 332.019002 62.331138 
L 332.345294 62.494284 
L 332.603255 62.623265 
L 332.729891 62.686583 
L 333.000587 62.821931 
L 333.230469 62.936872 
L 333.508021 63.075648 
L 333.6863 63.164787 
L 333.902862 63.273068 
L 334.141174 63.392224 
L 334.402537 63.522906 
" style="fill:none;stroke:#00ff00;stroke-linecap:square;stroke-width:2;"/>
   </g>
   <g id="line2d_6">
    <path clip-path="url(#pff43b8ecfa)" d="M 448.466212 29.303803 
L 562.529887 86.335641 
L 562.529887 86.335641 
" style="fill:none;stroke:#00ff00;stroke-linecap:square;stroke-width:2;"/>
   </g>
   <g id="line2d_7">
    <path clip-path="url(#pff43b8ecfa)" d="M 15.024247 86.335641 
L 60.649717 17.897436 
L 60.649717 17.897436 
" style="fill:none;stroke:#0000ff;stroke-linecap:square;stroke-width:2;"/>
   </g>
   <g id="matplotlib.axis_1">
    <g id="xtick_1">
     <g id="line2d_8">
      <path clip-path="url(#pff43b8ecfa)" d="M 15.024247 87.704405 
L 15.024247 16.528672 
" style="fill:none;stroke:#000000;stroke-dasharray:0.5,0.825;stroke-dashoffset:0;stroke-width:0.5;"/>
     </g>
     <g id="line2d_9">
      <defs>
       <path d="M 0 0 
L 0 3.5 
" id="mebec552336" style="stroke:#000000;stroke-width:0.8;"/>
      </defs>
      <g>
       <use style="stroke:#000000;stroke-width:0.8;" x="15.024247" xlink:href="#mebec552336" y="86.335641"/>
      </g>
     </g>
    </g>
    <g id="xtick_2">
     <g id="line2d_10">
      <path clip-path="url(#pff43b8ecfa)" d="M 60.649717 87.704405 
L 60.649717 16.528672 
" style="fill:none;stroke:#000000;stroke-dasharray:0.5,0.825;stroke-dashoffset:0;stroke-width:0.5;"/>
     </g>
     <g id="line2d_11">
      <g>
       <use style="stroke:#000000;stroke-width:0.8;" x="60.649717" xlink:href="#mebec552336" y="86.335641"/>
      </g>
     </g>
     <g id="text_1">
      <!-- $f$ -->
      <defs>
       <path d="M 9.71875 -16.5 
Q 11.578125 -17.921875 14.203125 -17.921875 
Q 17.78125 -17.921875 20.015625 -10.015625 
Q 20.953125 -6.203125 25.09375 15.09375 
L 29.6875 39.59375 
L 21.09375 39.59375 
Q 20.125 39.59375 20.125 40.921875 
Q 20.515625 43.109375 21.390625 43.109375 
L 30.328125 43.109375 
L 31.5 49.609375 
Q 32.078125 52.640625 32.5625 54.8125 
Q 33.0625 56.984375 33.625 58.828125 
Q 34.1875 60.6875 35.296875 62.984375 
Q 37.015625 66.265625 39.921875 68.390625 
Q 42.828125 70.515625 46.1875 70.515625 
Q 48.390625 70.515625 50.46875 69.703125 
Q 52.546875 68.890625 53.859375 67.28125 
Q 55.171875 65.671875 55.171875 63.484375 
Q 55.171875 60.9375 53.484375 59.046875 
Q 51.8125 57.171875 49.421875 57.171875 
Q 47.796875 57.171875 46.65625 58.171875 
Q 45.515625 59.1875 45.515625 60.796875 
Q 45.515625 62.984375 47 64.625 
Q 48.484375 66.265625 50.6875 66.5 
Q 48.828125 67.921875 46.09375 67.921875 
Q 44.578125 67.921875 43.234375 66.5 
Q 41.890625 65.09375 41.5 63.484375 
Q 40.875 60.9375 38.71875 49.703125 
L 37.5 43.109375 
L 47.796875 43.109375 
Q 48.78125 43.109375 48.78125 41.796875 
Q 48.734375 41.546875 48.578125 40.9375 
Q 48.4375 40.328125 48.171875 39.953125 
Q 47.90625 39.59375 47.515625 39.59375 
L 36.8125 39.59375 
L 32.171875 15.1875 
Q 31.296875 9.859375 30.140625 4.359375 
Q 29 -1.125 26.921875 -6.90625 
Q 24.859375 -12.703125 21.625 -16.609375 
Q 18.40625 -20.515625 14.015625 -20.515625 
Q 10.640625 -20.515625 7.984375 -18.578125 
Q 5.328125 -16.65625 5.328125 -13.484375 
Q 5.328125 -10.9375 6.953125 -9.046875 
Q 8.59375 -7.171875 11.078125 -7.171875 
Q 12.75 -7.171875 13.859375 -8.171875 
Q 14.984375 -9.1875 14.984375 -10.796875 
Q 14.984375 -12.9375 13.390625 -14.71875 
Q 11.8125 -16.5 9.71875 -16.5 
z
" id="Cmmi10-66"/>
      </defs>
      <g transform="translate(58.199717 100.913766)scale(0.1 -0.1)">
       <use transform="translate(0 0.484375)" xlink:href="#Cmmi10-66"/>
      </g>
     </g>
    </g>
    <g id="xtick_3">
     <g id="line2d_12">
      <path clip-path="url(#pff43b8ecfa)" d="M 562.529887 87.704405 
L 562.529887 16.528672 
" style="fill:none;stroke:#000000;stroke-dasharray:0.5,0.825;stroke-dashoffset:0;stroke-width:0.5;"/>
     </g>
     <g id="line2d_13">
      <g>
       <use style="stroke:#000000;stroke-width:0.8;" x="562.529887" xlink:href="#mebec552336" y="86.335641"/>
      </g>
     </g>
     <g id="text_2">
      <!-- $1$ -->
      <defs>
       <path d="M 9.28125 0 
L 9.28125 3.515625 
Q 21.78125 3.515625 21.78125 6.6875 
L 21.78125 59.1875 
Q 16.609375 56.6875 8.6875 56.6875 
L 8.6875 60.203125 
Q 20.953125 60.203125 27.203125 66.609375 
L 28.609375 66.609375 
Q 28.953125 66.609375 29.265625 66.328125 
Q 29.59375 66.0625 29.59375 65.71875 
L 29.59375 6.6875 
Q 29.59375 3.515625 42.09375 3.515625 
L 42.09375 0 
z
" id="Cmr10-31"/>
      </defs>
      <g transform="translate(560.029887 100.934078)scale(0.1 -0.1)">
       <use transform="translate(0 0.390625)" xlink:href="#Cmr10-31"/>
      </g>
     </g>
    </g>
   </g>
   <g id="matplotlib.axis_2">
    <g id="ytick_1">
     <g id="line2d_14">
      <path clip-path="url(#pff43b8ecfa)" d="M 4.074135 86.335641 
L 573.48 86.335641 
" style="fill:none;stroke:#000000;stroke-dasharray:0.5,0.825;stroke-dashoffset:0;stroke-width:0.5;"/>
     </g>
     <g id="line2d_15">
      <defs>
       <path d="M 0 0 
L -3.5 0 
" id="mc835cf6a1a" style="stroke:#000000;stroke-width:0.8;"/>
      </defs>
      <g>
       <use style="stroke:#000000;stroke-width:0.8;" x="15.024247" xlink:href="#mc835cf6a1a" y="86.335641"/>
      </g>
     </g>
    </g>
    <g id="ytick_2">
     <g id="line2d_16">
      <path clip-path="url(#pff43b8ecfa)" d="M 4.074135 17.897436 
L 573.48 17.897436 
" style="fill:none;stroke:#000000;stroke-dasharray:0.5,0.825;stroke-dashoffset:0;stroke-width:0.5;"/>
     </g>
     <g id="line2d_17">
      <g>
       <use style="stroke:#000000;stroke-width:0.8;" x="15.024247" xlink:href="#mc835cf6a1a" y="17.897436"/>
      </g>
     </g>
     <g id="text_3">
      <!-- $1$ -->
      <g transform="translate(3.024247 21.696655)scale(0.1 -0.1)">
       <use transform="translate(0 0.390625)" xlink:href="#Cmr10-31"/>
      </g>
     </g>
    </g>
   </g>
   <g id="patch_3">
    <path d="M 15.024247 87.704405 
L 15.024247 16.528672 
" style="fill:none;stroke:#000000;stroke-linecap:square;stroke-linejoin:miter;stroke-width:0.8;"/>
   </g>
   <g id="patch_4">
    <path d="M 4.074135 86.335641 
L 573.48 86.335641 
" style="fill:none;stroke:#000000;stroke-linecap:square;stroke-linejoin:miter;stroke-width:0.8;"/>
   </g>
  </g>
 </g>
 <defs>
  <clipPath id="pff43b8ecfa">
   <rect height="71.175733" width="569.405865" x="4.074135" y="16.528672"/>
  </clipPath>
 </defs>
</svg>
