<?xml version="1.0" encoding="utf-8" standalone="no"?>
<!DOCTYPE svg PUBLIC "-//W3C//DTD SVG 1.1//EN"
  "http://www.w3.org/Graphics/SVG/1.1/DTD/svg11.dtd">
<!-- Created with matplotlib (http://matplotlib.org/) -->
<svg height="108pt" version="1.1" viewBox="0 0 576 108" width="576pt" xmlns="http://www.w3.org/2000/svg" xmlns:xlink="http://www.w3.org/1999/xlink">
 <defs>
  <style type="text/css">
*{stroke-linecap:butt;stroke-linejoin:round;}
  </style>
 </defs>
 <g id="figure_1">
  <g id="patch_1">
   <path d="M 0 108 
L 576 108 
L 576 0 
L 0 0 
z
" style="fill:#ffffff;"/>
  </g>
  <g id="axes_1">
   <g id="patch_2">
    <path d="M 4.074135 87.704405 
L 573.48 87.704405 
L 573.48 16.528672 
L 4.074135 16.528672 
z
" style="fill:#ffffff;"/>
   </g>
   <g id="line2d_1">
    <path clip-path="url(#p8c87faaaee)" d="M 15.024247 86.335641 
L 24.464 70.318189 
L 24.464 70.318189 
" style="fill:none;stroke:#ff0000;stroke-linecap:square;stroke-width:2;"/>
   </g>
   <g id="line2d_2">
    <path clip-path="url(#p8c87faaaee)" d="M 147.180781 60.125265 
L 156.620534 44.107812 
L 156.620534 44.107812 
" style="fill:none;stroke:#ff0000;stroke-linecap:square;stroke-width:2;"/>
   </g>
   <g id="line2d_3">
    <path clip-path="url(#p8c87faaaee)" d="M 279.337315 33.914888 
L 288.777067 17.897436 
L 288.777067 17.897436 
" style="fill:none;stroke:#ff0000;stroke-linecap:square;stroke-width:2;"/>
   </g>
   <g id="line2d_4">
    <path clip-path="url(#p8c87faaaee)" d="M 288.777067 17.897436 
L 298.21682 33.914888 
L 298.21682 33.914888 
" style="fill:none;stroke:#ffff00;stroke-linecap:square;stroke-width:2;"/>
   </g>
   <g id="line2d_5">
    <path clip-path="url(#p8c87faaaee)" d="M 420.933601 44.107812 
L 430.373353 60.125265 
L 430.373353 60.125265 
" style="fill:none;stroke:#ffff00;stroke-linecap:square;stroke-width:2;"/>
   </g>
   <g id="line2d_6">
    <path clip-path="url(#p8c87faaaee)" d="M 553.090135 70.318189 
L 562.529887 86.335641 
L 562.529887 86.335641 
" style="fill:none;stroke:#ffff00;stroke-linecap:square;stroke-width:2;"/>
   </g>
   <g id="line2d_7">
    <path clip-path="url(#p8c87faaaee)" d="M 298.21682 33.914888 
L 317.096325 54.300736 
L 317.096325 54.300736 
" style="fill:none;stroke:#00ff00;stroke-linecap:square;stroke-width:2;"/>
   </g>
   <g id="line2d_8">
    <path clip-path="url(#p8c87faaaee)" d="M 326.536077 47.020076 
L 335.975829 57.213001 
L 335.975829 57.213001 
" style="fill:none;stroke:#00ff00;stroke-linecap:square;stroke-width:2;"/>
   </g>
   <g id="line2d_9">
    <path clip-path="url(#p8c87faaaee)" d="M 345.415582 49.93234 
L 345.484493 50.00675 
L 345.523908 50.049309 
L 345.562127 50.090578 
L 345.603064 50.134782 
L 345.653275 50.188999 
L 345.688806 50.227365 
L 345.752955 50.296632 
L 345.792141 50.338944 
L 345.85157 50.403115 
L 345.869957 50.422969 
L 345.936584 50.494912 
L 345.998753 50.562041 
L 346.04406 50.610963 
L 346.065632 50.634256 
L 346.132375 50.706325 
L 346.155312 50.731092 
L 346.207653 50.787609 
L 346.286887 50.873165 
L 346.303393 50.890988 
L 346.347759 50.938894 
L 346.417162 51.013834 
L 346.473406 51.074565 
L 346.529798 51.135457 
L 346.560009 51.168078 
L 346.621629 51.234615 
L 346.645502 51.260393 
L 346.704494 51.324091 
L 346.763298 51.387587 
L 346.780389 51.406041 
L 346.849012 51.48014 
L 346.875739 51.508999 
L 346.914314 51.550652 
L 346.974242 51.615362 
L 347.005093 51.648674 
L 347.069255 51.717956 
L 347.14135 51.795802 
L 347.176632 51.8339 
L 347.217728 51.878275 
L 347.274385 51.939453 
L 347.304254 51.971705 
L 347.375685 52.048835 
L 347.416894 52.093331 
L 347.468455 52.149007 
L 347.481224 52.162794 
L 347.555903 52.243432 
L 347.594078 52.284653 
L 347.661593 52.357554 
L 347.706804 52.406373 
L 347.744729 52.447324 
L 347.787063 52.493035 
L 347.825077 52.534082 
L 347.867382 52.579763 
L 347.920808 52.637451 
L 347.979894 52.701252 
L 348.032982 52.758576 
L 348.055791 52.783204 
L 348.116365 52.848612 
L 348.177522 52.914649 
L 348.192831 52.931179 
L 348.24261 52.984929 
L 348.301657 53.048687 
L 348.353045 53.104176 
L 348.420244 53.176736 
L 348.464584 53.224614 
L 348.495755 53.258272 
L 348.539966 53.306011 
L 348.601446 53.372396 
L 348.661167 53.436882 
L 348.689719 53.467712 
L 348.715791 53.495864 
L 348.775675 53.560526 
L 348.830452 53.619674 
L 348.859708 53.651264 
L 348.926485 53.723369 
L 348.971009 53.771445 
L 349.026286 53.831133 
L 349.059086 53.866549 
L 349.136887 53.950558 
L 349.181381 53.998602 
L 349.208876 54.028291 
L 349.272775 54.097289 
L 349.32076 54.149103 
L 349.329886 54.158956 
L 349.410714 54.246233 
L 349.427559 54.264422 
L 349.488871 54.330626 
L 349.53272 54.377973 
L 349.582594 54.431827 
L 349.617526 54.469546 
L 349.696141 54.554433 
L 349.728045 54.588883 
" style="fill:none;stroke:#00ff00;stroke-linecap:square;stroke-width:2;"/>
   </g>
   <g id="line2d_10">
    <path clip-path="url(#p8c87faaaee)" d="M 349.873323 54.745753 
L 349.931074 54.808112 
L 349.983981 54.865239 
L 349.998126 54.880513 
L 350.067775 54.955719 
L 350.132309 55.025403 
L 350.14559 55.039743 
L 350.199699 55.098169 
L 350.271049 55.175212 
L 350.297205 55.203455 
L 350.362838 55.274324 
L 350.388358 55.30188 
L 350.425247 55.341713 
L 350.489225 55.410795 
L 350.559662 55.486853 
L 350.579396 55.508161 
L 350.648345 55.582611 
L 350.677264 55.613838 
L 350.718054 55.657882 
L 350.763269 55.706704 
L 350.8413 55.790962 
L 350.886614 55.839892 
L 350.914168 55.869644 
L 350.970399 55.930361 
L 350.994683 55.956583 
L 351.037404 56.002712 
L 351.110835 56.082002 
L 351.152137 56.1266 
L 351.192974 56.170695 
L 351.231453 56.212244 
L 351.318981 56.306756 
L 351.364707 56.35613 
L 351.381292 56.374039 
L 351.434465 56.431454 
L 351.491505 56.493044 
L 351.534601 56.539579 
L 351.584484 56.593442 
L 351.639677 56.653039 
L 351.681405 56.698097 
L 351.708222 56.727054 
L 351.786132 56.811179 
L 351.827529 56.855879 
L 351.859665 56.890579 
L 351.916183 56.951606 
L 351.958405 56.997197 
L 352.024396 57.068453 
L 352.068661 57.116251 
L 352.101134 57.151314 
L 352.129425 57.181862 
L 352.202406 57.260667 
L 352.257719 57.320393 
L 352.294703 57.360327 
L 352.342473 57.411909 
L 352.397444 57.471266 
L 352.440177 57.517409 
L 352.492911 57.574351 
L 352.526127 57.610216 
L 352.597813 57.687622 
L 352.62226 57.71402 
L 352.675067 57.77104 
L 352.707105 57.805634 
L 352.771373 57.87503 
L 352.838594 57.947614 
L 352.84821 57.957998 
L 352.890935 58.004131 
L 352.964967 58.08407 
L 353.01323 58.136184 
L 353.059534 58.186182 
L 353.089704 58.218759 
L 353.150527 58.284435 
L 353.205497 58.343792 
L 353.231326 58.371682 
L 353.296709 58.442281 
L 353.333072 58.481545 
L 353.399104 58.552846 
L 353.455254 58.613476 
L 353.458613 58.617103 
L 353.536837 58.701568 
L 353.561695 58.72841 
L 353.612125 58.782864 
L 353.667423 58.842573 
L 353.729388 58.909482 
L 353.741429 58.922484 
L 353.797142 58.982643 
L 353.840019 59.02894 
L 353.895592 59.088947 
L 353.931256 59.127457 
L 353.993392 59.19455 
L 354.055739 59.261871 
L 354.086271 59.29484 
L 354.123546 59.335089 
L 354.19164 59.408616 
L 354.251705 59.473474 
L 354.29501 59.520234 
L 354.341339 59.570259 
L 354.374418 59.605977 
L 354.443842 59.680941 
L 354.491027 59.73189 
L 354.543489 59.788538 
L 354.550212 59.795797 
L 354.626538 59.878214 
L 354.681139 59.937171 
L 354.711909 59.970396 
L 354.749856 60.01137 
L 354.828287 60.09606 
L 354.855334 60.125265 
" style="fill:none;stroke:#00ff00;stroke-linecap:square;stroke-width:2;"/>
   </g>
   <g id="line2d_11">
    <path clip-path="url(#p8c87faaaee)" d="M 392.614344 31.002624 
L 402.054096 41.195548 
L 402.054096 41.195548 
" style="fill:none;stroke:#00ff00;stroke-linecap:square;stroke-width:2;"/>
   </g>
   <g id="line2d_12">
    <path clip-path="url(#p8c87faaaee)" d="M 411.493849 33.914888 
L 420.933601 44.107812 
L 420.933601 44.107812 
" style="fill:none;stroke:#00ff00;stroke-linecap:square;stroke-width:2;"/>
   </g>
   <g id="line2d_13">
    <path clip-path="url(#p8c87faaaee)" d="M 430.373353 60.125265 
L 439.813106 70.318189 
L 439.813106 70.318189 
" style="fill:none;stroke:#00ff00;stroke-linecap:square;stroke-width:2;"/>
   </g>
   <g id="line2d_14">
    <path clip-path="url(#p8c87faaaee)" d="M 449.252858 63.037529 
L 458.692611 73.230453 
L 458.692611 73.230453 
" style="fill:none;stroke:#00ff00;stroke-linecap:square;stroke-width:2;"/>
   </g>
   <g id="line2d_15">
    <path clip-path="url(#p8c87faaaee)" d="M 496.45162 44.107812 
L 505.891373 54.300736 
L 505.891373 54.300736 
" style="fill:none;stroke:#00ff00;stroke-linecap:square;stroke-width:2;"/>
   </g>
   <g id="line2d_16">
    <path clip-path="url(#p8c87faaaee)" d="M 515.331125 47.020076 
L 515.378189 47.070895 
L 515.428248 47.124949 
L 515.450234 47.148689 
L 515.517617 47.221448 
L 515.588734 47.298239 
L 515.629985 47.342781 
L 515.653685 47.368373 
L 515.692771 47.410577 
L 515.746255 47.468328 
L 515.789554 47.515081 
L 515.835819 47.565038 
L 515.922265 47.658382 
L 515.928733 47.665366 
L 515.974897 47.715213 
L 516.051413 47.797834 
L 516.090034 47.839537 
L 516.147824 47.901937 
L 516.194192 47.952005 
" style="fill:none;stroke:#00ff00;stroke-linecap:square;stroke-width:2;"/>
   </g>
   <g id="line2d_17">
    <path clip-path="url(#p8c87faaaee)" d="M 516.324539 48.092752 
L 524.770878 57.213001 
L 524.770878 57.213001 
" style="fill:none;stroke:#00ff00;stroke-linecap:square;stroke-width:2;"/>
   </g>
   <g id="line2d_18">
    <path clip-path="url(#p8c87faaaee)" d="M 534.21063 49.93234 
L 553.090135 70.318189 
L 553.090135 70.318189 
" style="fill:none;stroke:#00ff00;stroke-linecap:square;stroke-width:2;"/>
   </g>
   <g id="line2d_19">
    <path clip-path="url(#p8c87faaaee)" d="M 317.096325 54.300736 
L 326.536077 47.020076 
L 326.536077 47.020076 
" style="fill:none;stroke:#00ffff;stroke-linecap:square;stroke-width:2;"/>
   </g>
   <g id="line2d_20">
    <path clip-path="url(#p8c87faaaee)" d="M 335.975829 57.213001 
L 345.415582 49.93234 
L 345.415582 49.93234 
" style="fill:none;stroke:#00ffff;stroke-linecap:square;stroke-width:2;"/>
   </g>
   <g id="line2d_21">
    <path clip-path="url(#p8c87faaaee)" d="M 354.855334 60.125265 
L 392.614344 31.002624 
L 392.614344 31.002624 
" style="fill:none;stroke:#00ffff;stroke-linecap:square;stroke-width:2;"/>
   </g>
   <g id="line2d_22">
    <path clip-path="url(#p8c87faaaee)" d="M 402.054096 41.195548 
L 411.493849 33.914888 
L 411.493849 33.914888 
" style="fill:none;stroke:#00ffff;stroke-linecap:square;stroke-width:2;"/>
   </g>
   <g id="line2d_23">
    <path clip-path="url(#p8c87faaaee)" d="M 439.813106 70.318189 
L 449.252858 63.037529 
L 449.252858 63.037529 
" style="fill:none;stroke:#00ffff;stroke-linecap:square;stroke-width:2;"/>
   </g>
   <g id="line2d_24">
    <path clip-path="url(#p8c87faaaee)" d="M 458.692611 73.230453 
L 496.45162 44.107812 
L 496.45162 44.107812 
" style="fill:none;stroke:#00ffff;stroke-linecap:square;stroke-width:2;"/>
   </g>
   <g id="line2d_25">
    <path clip-path="url(#p8c87faaaee)" d="M 505.891373 54.300736 
L 515.331125 47.020076 
L 515.331125 47.020076 
" style="fill:none;stroke:#00ffff;stroke-linecap:square;stroke-width:2;"/>
   </g>
   <g id="line2d_26">
    <path clip-path="url(#p8c87faaaee)" d="M 524.770878 57.213001 
L 534.21063 49.93234 
L 534.21063 49.93234 
" style="fill:none;stroke:#00ffff;stroke-linecap:square;stroke-width:2;"/>
   </g>
   <g id="line2d_27">
    <path clip-path="url(#p8c87faaaee)" d="M 43.343505 49.93234 
L 52.783257 57.213001 
L 52.783257 57.213001 
" style="fill:none;stroke:#0000ff;stroke-linecap:square;stroke-width:2;"/>
   </g>
   <g id="line2d_28">
    <path clip-path="url(#p8c87faaaee)" d="M 62.223009 47.020076 
L 71.662762 54.300736 
L 71.662762 54.300736 
" style="fill:none;stroke:#0000ff;stroke-linecap:square;stroke-width:2;"/>
   </g>
   <g id="line2d_29">
    <path clip-path="url(#p8c87faaaee)" d="M 81.102514 44.107812 
L 118.861524 73.230453 
L 118.861524 73.230453 
" style="fill:none;stroke:#0000ff;stroke-linecap:square;stroke-width:2;"/>
   </g>
   <g id="line2d_30">
    <path clip-path="url(#p8c87faaaee)" d="M 128.301276 63.037529 
L 137.741029 70.318189 
L 137.741029 70.318189 
" style="fill:none;stroke:#0000ff;stroke-linecap:square;stroke-width:2;"/>
   </g>
   <g id="line2d_31">
    <path clip-path="url(#p8c87faaaee)" d="M 166.060286 33.914888 
L 175.500038 41.195548 
L 175.500038 41.195548 
" style="fill:none;stroke:#0000ff;stroke-linecap:square;stroke-width:2;"/>
   </g>
   <g id="line2d_32">
    <path clip-path="url(#p8c87faaaee)" d="M 184.939791 31.002624 
L 222.6988 60.125265 
L 222.6988 60.125265 
" style="fill:none;stroke:#0000ff;stroke-linecap:square;stroke-width:2;"/>
   </g>
   <g id="line2d_33">
    <path clip-path="url(#p8c87faaaee)" d="M 232.138553 49.93234 
L 241.578305 57.213001 
L 241.578305 57.213001 
" style="fill:none;stroke:#0000ff;stroke-linecap:square;stroke-width:2;"/>
   </g>
   <g id="line2d_34">
    <path clip-path="url(#p8c87faaaee)" d="M 251.018058 47.020076 
L 260.45781 54.300736 
L 260.45781 54.300736 
" style="fill:none;stroke:#0000ff;stroke-linecap:square;stroke-width:2;"/>
   </g>
   <g id="line2d_35">
    <path clip-path="url(#p8c87faaaee)" d="M 24.464 70.318189 
L 43.343505 49.93234 
L 43.343505 49.93234 
" style="fill:none;stroke:#ff00ff;stroke-linecap:square;stroke-width:2;"/>
   </g>
   <g id="line2d_36">
    <path clip-path="url(#p8c87faaaee)" d="M 52.783257 57.213001 
L 62.223009 47.020076 
L 62.223009 47.020076 
" style="fill:none;stroke:#ff00ff;stroke-linecap:square;stroke-width:2;"/>
   </g>
   <g id="line2d_37">
    <path clip-path="url(#p8c87faaaee)" d="M 71.662762 54.300736 
L 81.102514 44.107812 
L 81.102514 44.107812 
" style="fill:none;stroke:#ff00ff;stroke-linecap:square;stroke-width:2;"/>
   </g>
   <g id="line2d_38">
    <path clip-path="url(#p8c87faaaee)" d="M 118.861524 73.230453 
L 128.301276 63.037529 
L 128.301276 63.037529 
" style="fill:none;stroke:#ff00ff;stroke-linecap:square;stroke-width:2;"/>
   </g>
   <g id="line2d_39">
    <path clip-path="url(#p8c87faaaee)" d="M 137.741029 70.318189 
L 147.180781 60.125265 
L 147.180781 60.125265 
" style="fill:none;stroke:#ff00ff;stroke-linecap:square;stroke-width:2;"/>
   </g>
   <g id="line2d_40">
    <path clip-path="url(#p8c87faaaee)" d="M 156.620534 44.107812 
L 166.060286 33.914888 
L 166.060286 33.914888 
" style="fill:none;stroke:#ff00ff;stroke-linecap:square;stroke-width:2;"/>
   </g>
   <g id="line2d_41">
    <path clip-path="url(#p8c87faaaee)" d="M 175.500038 41.195548 
L 184.939791 31.002624 
L 184.939791 31.002624 
" style="fill:none;stroke:#ff00ff;stroke-linecap:square;stroke-width:2;"/>
   </g>
   <g id="line2d_42">
    <path clip-path="url(#p8c87faaaee)" d="M 222.6988 60.125265 
L 232.138553 49.93234 
L 232.138553 49.93234 
" style="fill:none;stroke:#ff00ff;stroke-linecap:square;stroke-width:2;"/>
   </g>
   <g id="line2d_43">
    <path clip-path="url(#p8c87faaaee)" d="M 241.578305 57.213001 
L 251.018058 47.020076 
L 251.018058 47.020076 
" style="fill:none;stroke:#ff00ff;stroke-linecap:square;stroke-width:2;"/>
   </g>
   <g id="line2d_44">
    <path clip-path="url(#p8c87faaaee)" d="M 260.45781 54.300736 
L 279.337315 33.914888 
L 279.337315 33.914888 
" style="fill:none;stroke:#ff00ff;stroke-linecap:square;stroke-width:2;"/>
   </g>
   <g id="matplotlib.axis_1">
    <g id="xtick_1">
     <g id="line2d_45">
      <path clip-path="url(#p8c87faaaee)" d="M 15.024247 87.704405 
L 15.024247 16.528672 
" style="fill:none;stroke:#000000;stroke-dasharray:0.5,0.825;stroke-dashoffset:0;stroke-width:0.5;"/>
     </g>
     <g id="line2d_46">
      <defs>
       <path d="M 0 0 
L 0 3.5 
" id="m37680617ee" style="stroke:#000000;stroke-width:0.8;"/>
      </defs>
      <g>
       <use style="stroke:#000000;stroke-width:0.8;" x="15.024247" xlink:href="#m37680617ee" y="86.335641"/>
      </g>
     </g>
    </g>
    <g id="xtick_2">
     <g id="line2d_47">
      <path clip-path="url(#p8c87faaaee)" d="M 288.777067 87.704405 
L 288.777067 16.528672 
" style="fill:none;stroke:#000000;stroke-dasharray:0.5,0.825;stroke-dashoffset:0;stroke-width:0.5;"/>
     </g>
     <g id="line2d_48">
      <g>
       <use style="stroke:#000000;stroke-width:0.8;" x="288.777067" xlink:href="#m37680617ee" y="86.335641"/>
      </g>
     </g>
     <g id="text_1">
      <!-- $f$ -->
      <defs>
       <path d="M 9.71875 -16.5 
Q 11.578125 -17.921875 14.203125 -17.921875 
Q 17.78125 -17.921875 20.015625 -10.015625 
Q 20.953125 -6.203125 25.09375 15.09375 
L 29.6875 39.59375 
L 21.09375 39.59375 
Q 20.125 39.59375 20.125 40.921875 
Q 20.515625 43.109375 21.390625 43.109375 
L 30.328125 43.109375 
L 31.5 49.609375 
Q 32.078125 52.640625 32.5625 54.8125 
Q 33.0625 56.984375 33.625 58.828125 
Q 34.1875 60.6875 35.296875 62.984375 
Q 37.015625 66.265625 39.921875 68.390625 
Q 42.828125 70.515625 46.1875 70.515625 
Q 48.390625 70.515625 50.46875 69.703125 
Q 52.546875 68.890625 53.859375 67.28125 
Q 55.171875 65.671875 55.171875 63.484375 
Q 55.171875 60.9375 53.484375 59.046875 
Q 51.8125 57.171875 49.421875 57.171875 
Q 47.796875 57.171875 46.65625 58.171875 
Q 45.515625 59.1875 45.515625 60.796875 
Q 45.515625 62.984375 47 64.625 
Q 48.484375 66.265625 50.6875 66.5 
Q 48.828125 67.921875 46.09375 67.921875 
Q 44.578125 67.921875 43.234375 66.5 
Q 41.890625 65.09375 41.5 63.484375 
Q 40.875 60.9375 38.71875 49.703125 
L 37.5 43.109375 
L 47.796875 43.109375 
Q 48.78125 43.109375 48.78125 41.796875 
Q 48.734375 41.546875 48.578125 40.9375 
Q 48.4375 40.328125 48.171875 39.953125 
Q 47.90625 39.59375 47.515625 39.59375 
L 36.8125 39.59375 
L 32.171875 15.1875 
Q 31.296875 9.859375 30.140625 4.359375 
Q 29 -1.125 26.921875 -6.90625 
Q 24.859375 -12.703125 21.625 -16.609375 
Q 18.40625 -20.515625 14.015625 -20.515625 
Q 10.640625 -20.515625 7.984375 -18.578125 
Q 5.328125 -16.65625 5.328125 -13.484375 
Q 5.328125 -10.9375 6.953125 -9.046875 
Q 8.59375 -7.171875 11.078125 -7.171875 
Q 12.75 -7.171875 13.859375 -8.171875 
Q 14.984375 -9.1875 14.984375 -10.796875 
Q 14.984375 -12.9375 13.390625 -14.71875 
Q 11.8125 -16.5 9.71875 -16.5 
z
" id="Cmmi10-66"/>
      </defs>
      <g transform="translate(286.327067 100.913766)scale(0.1 -0.1)">
       <use transform="translate(0 0.484375)" xlink:href="#Cmmi10-66"/>
      </g>
     </g>
    </g>
    <g id="xtick_3">
     <g id="line2d_49">
      <path clip-path="url(#p8c87faaaee)" d="M 562.529887 87.704405 
L 562.529887 16.528672 
" style="fill:none;stroke:#000000;stroke-dasharray:0.5,0.825;stroke-dashoffset:0;stroke-width:0.5;"/>
     </g>
     <g id="line2d_50">
      <g>
       <use style="stroke:#000000;stroke-width:0.8;" x="562.529887" xlink:href="#m37680617ee" y="86.335641"/>
      </g>
     </g>
     <g id="text_2">
      <!-- $1$ -->
      <defs>
       <path d="M 9.28125 0 
L 9.28125 3.515625 
Q 21.78125 3.515625 21.78125 6.6875 
L 21.78125 59.1875 
Q 16.609375 56.6875 8.6875 56.6875 
L 8.6875 60.203125 
Q 20.953125 60.203125 27.203125 66.609375 
L 28.609375 66.609375 
Q 28.953125 66.609375 29.265625 66.328125 
Q 29.59375 66.0625 29.59375 65.71875 
L 29.59375 6.6875 
Q 29.59375 3.515625 42.09375 3.515625 
L 42.09375 0 
z
" id="Cmr10-31"/>
      </defs>
      <g transform="translate(560.029887 100.934078)scale(0.1 -0.1)">
       <use transform="translate(0 0.390625)" xlink:href="#Cmr10-31"/>
      </g>
     </g>
    </g>
   </g>
   <g id="matplotlib.axis_2">
    <g id="ytick_1">
     <g id="line2d_51">
      <path clip-path="url(#p8c87faaaee)" d="M 4.074135 86.335641 
L 573.48 86.335641 
" style="fill:none;stroke:#000000;stroke-dasharray:0.5,0.825;stroke-dashoffset:0;stroke-width:0.5;"/>
     </g>
     <g id="line2d_52">
      <defs>
       <path d="M 0 0 
L -3.5 0 
" id="m5edbe652d2" style="stroke:#000000;stroke-width:0.8;"/>
      </defs>
      <g>
       <use style="stroke:#000000;stroke-width:0.8;" x="15.024247" xlink:href="#m5edbe652d2" y="86.335641"/>
      </g>
     </g>
    </g>
    <g id="ytick_2">
     <g id="line2d_53">
      <path clip-path="url(#p8c87faaaee)" d="M 4.074135 17.897436 
L 573.48 17.897436 
" style="fill:none;stroke:#000000;stroke-dasharray:0.5,0.825;stroke-dashoffset:0;stroke-width:0.5;"/>
     </g>
     <g id="line2d_54">
      <g>
       <use style="stroke:#000000;stroke-width:0.8;" x="15.024247" xlink:href="#m5edbe652d2" y="17.897436"/>
      </g>
     </g>
     <g id="text_3">
      <!-- $1$ -->
      <g transform="translate(3.024247 21.696655)scale(0.1 -0.1)">
       <use transform="translate(0 0.390625)" xlink:href="#Cmr10-31"/>
      </g>
     </g>
    </g>
   </g>
   <g id="patch_3">
    <path d="M 15.024247 87.704405 
L 15.024247 16.528672 
" style="fill:none;stroke:#000000;stroke-linecap:square;stroke-linejoin:miter;stroke-width:0.8;"/>
   </g>
   <g id="patch_4">
    <path d="M 4.074135 86.335641 
L 573.48 86.335641 
" style="fill:none;stroke:#000000;stroke-linecap:square;stroke-linejoin:miter;stroke-width:0.8;"/>
   </g>
  </g>
 </g>
 <defs>
  <clipPath id="p8c87faaaee">
   <rect height="71.175733" width="569.405865" x="4.074135" y="16.528672"/>
  </clipPath>
 </defs>
</svg>
