<?xml version="1.0" encoding="utf-8" standalone="no"?>
<!DOCTYPE svg PUBLIC "-//W3C//DTD SVG 1.1//EN"
  "http://www.w3.org/Graphics/SVG/1.1/DTD/svg11.dtd">
<!-- Created with matplotlib (http://matplotlib.org/) -->
<svg height="108pt" version="1.1" viewBox="0 0 576 108" width="576pt" xmlns="http://www.w3.org/2000/svg" xmlns:xlink="http://www.w3.org/1999/xlink">
 <defs>
  <style type="text/css">
*{stroke-linecap:butt;stroke-linejoin:round;}
  </style>
 </defs>
 <g id="figure_1">
  <g id="patch_1">
   <path d="M 0 108 
L 576 108 
L 576 0 
L 0 0 
z
" style="fill:#ffffff;"/>
  </g>
  <g id="axes_1">
   <g id="patch_2">
    <path d="M 4.074135 87.704405 
L 573.48 87.704405 
L 573.48 16.528672 
L 4.074135 16.528672 
z
" style="fill:#ffffff;"/>
   </g>
   <g id="line2d_1">
    <path clip-path="url(#pa6627f63df)" d="M 89.684107 72.077682 
L 114.570727 46.413355 
L 114.570727 46.413355 
" style="fill:none;stroke:#ff0000;stroke-linecap:square;stroke-width:2;"/>
   </g>
   <g id="line2d_2">
    <path clip-path="url(#pa6627f63df)" d="M 164.343967 57.819722 
L 189.230587 32.155395 
L 189.230587 32.155395 
" style="fill:none;stroke:#ff0000;stroke-linecap:square;stroke-width:2;"/>
   </g>
   <g id="line2d_3">
    <path clip-path="url(#pa6627f63df)" d="M 313.663687 44.987559 
L 338.550307 35.006987 
L 338.550307 35.006987 
" style="fill:none;stroke:#cbff00;stroke-linecap:square;stroke-width:2;"/>
   </g>
   <g id="line2d_4">
    <path clip-path="url(#pa6627f63df)" d="M 388.323547 62.09711 
L 438.096787 42.135967 
L 438.096787 42.135967 
" style="fill:none;stroke:#cbff00;stroke-linecap:square;stroke-width:2;"/>
   </g>
   <g id="line2d_5">
    <path clip-path="url(#pa6627f63df)" d="M 487.870027 69.22609 
L 512.756647 59.245518 
L 512.756647 59.245518 
" style="fill:none;stroke:#cbff00;stroke-linecap:square;stroke-width:2;"/>
   </g>
   <g id="line2d_6">
    <path clip-path="url(#pa6627f63df)" d="M 15.024247 86.335641 
L 39.910867 44.987559 
L 39.910867 44.987559 
" style="fill:none;stroke:#00ff66;stroke-linecap:square;stroke-width:2;"/>
   </g>
   <g id="line2d_7">
    <path clip-path="url(#pa6627f63df)" d="M 239.003827 59.245518 
L 263.890447 17.897436 
L 263.890447 17.897436 
" style="fill:none;stroke:#00ff66;stroke-linecap:square;stroke-width:2;"/>
   </g>
   <g id="line2d_8">
    <path clip-path="url(#pa6627f63df)" d="M 39.910867 44.987559 
L 64.797487 66.374498 
L 64.797487 66.374498 
" style="fill:none;stroke:#0066ff;stroke-linecap:square;stroke-width:2;"/>
   </g>
   <g id="line2d_9">
    <path clip-path="url(#pa6627f63df)" d="M 214.117207 37.858579 
L 239.003827 59.245518 
L 239.003827 59.245518 
" style="fill:none;stroke:#0066ff;stroke-linecap:square;stroke-width:2;"/>
   </g>
   <g id="line2d_10">
    <path clip-path="url(#pa6627f63df)" d="M 263.890447 17.897436 
L 288.777067 39.284375 
L 288.777067 39.284375 
" style="fill:none;stroke:#0066ff;stroke-linecap:square;stroke-width:2;"/>
   </g>
   <g id="line2d_11">
    <path clip-path="url(#pa6627f63df)" d="M 363.436927 40.710171 
L 363.529709 40.789906 
L 363.65457 40.897207 
L 363.80148 41.023458 
L 363.970124 41.168387 
L 364.067444 41.252021 
L 364.186988 41.354754 
L 364.285624 41.43952 
L 364.484564 41.610484 
L 364.507867 41.63051 
L 364.733889 41.824748 
L 364.860592 41.933633 
L 364.969241 42.027003 
L 365.073378 42.116496 
L 365.126641 42.162268 
L 365.252943 42.27081 
L 365.379158 42.379275 
L 365.553551 42.529144 
L 365.701651 42.656418 
L 365.77967 42.723465 
L 365.88127 42.810778 
L 366.010577 42.921901 
L 366.220724 43.102497 
L 366.352015 43.215324 
L 366.471029 43.317602 
L 366.558154 43.392475 
L 366.719456 43.531094 
L 366.798583 43.599094 
L 366.977762 43.753075 
L 367.091848 43.851118 
L 367.219699 43.96099 
L 367.325412 44.051837 
L 367.427252 44.139357 
L 367.561835 44.255013 
L 367.707296 44.380019 
L 367.87473 44.523908 
L 367.883641 44.531566 
L 368.109867 44.725979 
L 368.180309 44.786514 
L 368.365581 44.945733 
L 368.456688 45.024027 
L 368.517796 45.076542 
L 368.641285 45.182666 
L 368.834951 45.349098 
L 368.962302 45.45854 
L 369.033177 45.519448 
L 369.139697 45.610989 
L 369.351354 45.792881 
L 369.379314 45.81691 
L 369.53865 45.953839 
L 369.735889 46.123341 
L 369.807866 46.185197 
L 369.894273 46.259452 
L 370.098917 46.435318 
L 370.172366 46.498439 
L 370.377095 46.674378 
L 370.436079 46.725067 
L 370.613715 46.877723 
L 370.748989 46.993974 
L 370.791965 47.030906 
L 370.961912 47.176954 
L 371.093717 47.290225 
L 371.162949 47.349721 
L 371.283993 47.453743 
L 371.459303 47.6044 
L 371.589879 47.716614 
L 371.634351 47.754832 
L 371.764504 47.866682 
L 371.94483 48.02165 
L 372.0496 48.111687 
L 372.157632 48.204527 
L 372.305831 48.331885 
L 372.456375 48.461259 
L 372.522852 48.518388 
L 372.637439 48.616861 
L 372.790477 48.748378 
L 372.901268 48.843589 
L 373.071718 48.990069 
L 373.240459 49.135081 
L 373.370281 49.246647 
L 373.482466 49.343055 
" style="fill:none;stroke:#0066ff;stroke-linecap:square;stroke-width:2;"/>
   </g>
   <g id="line2d_12">
    <path clip-path="url(#pa6627f63df)" d="M 373.803903 49.619291 
L 373.969882 49.761929 
L 374.017741 49.803057 
L 374.224356 49.980617 
L 374.296948 50.043001 
L 374.384535 50.118271 
L 374.607306 50.309715 
L 374.680273 50.372421 
L 374.858297 50.52541 
L 374.903122 50.563932 
L 375.022536 50.666554 
L 375.244936 50.857678 
L 375.306058 50.910205 
L 375.470151 51.051223 
L 375.516613 51.091151 
L 375.700735 51.249381 
L 375.809967 51.343252 
L 375.972256 51.482719 
L 376.069755 51.566507 
L 376.181314 51.662378 
L 376.266939 51.735962 
L 376.489381 51.927123 
L 376.616871 52.036685 
L 376.749981 52.151076 
L 376.780647 52.17743 
L 376.938656 52.313219 
L 377.095233 52.447778 
L 377.177344 52.518342 
L 377.334751 52.653614 
L 377.468774 52.768789 
L 377.569378 52.855245 
L 377.657172 52.930694 
L 377.833075 53.08186 
L 377.980668 53.208698 
L 378.038496 53.258394 
L 378.225967 53.419502 
L 378.29468 53.478553 
L 378.438341 53.602011 
L 378.536491 53.686359 
L 378.754491 53.873703 
L 378.839242 53.946535 
L 378.99018 54.076248 
L 379.096985 54.168033 
L 379.160678 54.222769 
L 379.346593 54.38254 
L 379.460785 54.480674 
L 379.518811 54.53054 
L 379.712595 54.697073 
L 379.843204 54.809315 
L 379.910678 54.8673 
L 380.028565 54.96861 
L 380.21843 55.131775 
L 380.374379 55.265793 
L 380.423407 55.307927 
L 380.572339 55.435915 
L 380.671332 55.520988 
L 380.771394 55.606979 
L 380.895196 55.713371 
L 381.12912 55.914399 
L 381.202607 55.977552 
L 381.31535 56.074441 
L 381.38296 56.132543 
L 381.575728 56.298203 
L 381.658462 56.369302 
L 381.791465 56.483602 
L 381.895349 56.572877 
L 382.058793 56.713337 
L 382.18057 56.817989 
L 382.353243 56.96638 
L 382.424159 57.027323 
L 382.554489 57.139326 
L 382.675126 57.242998 
L 382.880507 57.419497 
L 383.007045 57.528241 
L 383.117086 57.622807 
L 383.214688 57.706684 
L 383.289105 57.770636 
L 383.385639 57.853596 
L 383.564817 58.007576 
L 383.655723 58.085699 
L 383.786029 58.19768 
L 383.942305 58.33198 
L 384.116532 58.481707 
L 384.164195 58.522667 
L 384.325691 58.661452 
L 384.497193 58.808837 
L 384.605527 58.901936 
L 384.716325 58.997153 
L 384.79503 59.064791 
L 384.972448 59.217259 
L 385.072555 59.303288 
L 385.140625 59.361786 
L 385.300074 59.498812 
L 385.430165 59.61061 
L 385.567837 59.728921 
L 385.645697 59.795832 
L 385.884293 60.000876 
L 385.951101 60.058289 
L 386.055665 60.148149 
L 386.242102 60.308368 
L 386.323171 60.378036 
L 386.485344 60.517404 
L 386.604977 60.620213 
L 386.695497 60.698004 
L 386.836948 60.819564 
L 386.889774 60.864961 
L 387.061695 61.012706 
L 387.140311 61.080266 
L 387.27112 61.19268 
L 387.424802 61.324751 
L 387.522561 61.408763 
L 387.680565 61.544547 
L 387.878747 61.71486 
L 387.986209 61.80721 
L 388.124315 61.925894 
L 388.225609 62.012944 
L 388.323547 62.09711 
" style="fill:none;stroke:#0066ff;stroke-linecap:square;stroke-width:2;"/>
   </g>
   <g id="line2d_13">
    <path clip-path="url(#pa6627f63df)" d="M 438.096787 42.135967 
L 462.983407 63.522906 
L 462.983407 63.522906 
" style="fill:none;stroke:#0066ff;stroke-linecap:square;stroke-width:2;"/>
   </g>
   <g id="line2d_14">
    <path clip-path="url(#pa6627f63df)" d="M 537.643267 64.948702 
L 562.529887 86.335641 
L 562.529887 86.335641 
" style="fill:none;stroke:#0066ff;stroke-linecap:square;stroke-width:2;"/>
   </g>
   <g id="line2d_15">
    <path clip-path="url(#pa6627f63df)" d="M 64.797487 66.374498 
L 89.684107 72.077682 
L 89.684107 72.077682 
" style="fill:none;stroke:#cc00ff;stroke-linecap:square;stroke-width:2;"/>
   </g>
   <g id="line2d_16">
    <path clip-path="url(#pa6627f63df)" d="M 114.570727 46.413355 
L 164.343967 57.819722 
L 164.343967 57.819722 
" style="fill:none;stroke:#cc00ff;stroke-linecap:square;stroke-width:2;"/>
   </g>
   <g id="line2d_17">
    <path clip-path="url(#pa6627f63df)" d="M 189.230587 32.155395 
L 214.117207 37.858579 
L 214.117207 37.858579 
" style="fill:none;stroke:#cc00ff;stroke-linecap:square;stroke-width:2;"/>
   </g>
   <g id="line2d_18">
    <path clip-path="url(#pa6627f63df)" d="M 288.777067 39.284375 
L 313.663687 44.987559 
L 313.663687 44.987559 
" style="fill:none;stroke:#cc00ff;stroke-linecap:square;stroke-width:2;"/>
   </g>
   <g id="line2d_19">
    <path clip-path="url(#pa6627f63df)" d="M 338.550307 35.006987 
L 363.436927 40.710171 
L 363.436927 40.710171 
" style="fill:none;stroke:#cc00ff;stroke-linecap:square;stroke-width:2;"/>
   </g>
   <g id="line2d_20">
    <path clip-path="url(#pa6627f63df)" d="M 462.983407 63.522906 
L 487.870027 69.22609 
L 487.870027 69.22609 
" style="fill:none;stroke:#cc00ff;stroke-linecap:square;stroke-width:2;"/>
   </g>
   <g id="line2d_21">
    <path clip-path="url(#pa6627f63df)" d="M 512.756647 59.245518 
L 537.643267 64.948702 
L 537.643267 64.948702 
" style="fill:none;stroke:#cc00ff;stroke-linecap:square;stroke-width:2;"/>
   </g>
   <g id="matplotlib.axis_1">
    <g id="xtick_1">
     <g id="line2d_22">
      <path clip-path="url(#pa6627f63df)" d="M 15.024247 87.704405 
L 15.024247 16.528672 
" style="fill:none;stroke:#000000;stroke-dasharray:0.5,0.825;stroke-dashoffset:0;stroke-width:0.5;"/>
     </g>
     <g id="line2d_23">
      <defs>
       <path d="M 0 0 
L 0 3.5 
" id="m1a1a497aea" style="stroke:#000000;stroke-width:0.8;"/>
      </defs>
      <g>
       <use style="stroke:#000000;stroke-width:0.8;" x="15.024247" xlink:href="#m1a1a497aea" y="86.335641"/>
      </g>
     </g>
    </g>
    <g id="xtick_2">
     <g id="line2d_24">
      <path clip-path="url(#pa6627f63df)" d="M 263.890447 87.704405 
L 263.890447 16.528672 
" style="fill:none;stroke:#000000;stroke-dasharray:0.5,0.825;stroke-dashoffset:0;stroke-width:0.5;"/>
     </g>
     <g id="line2d_25">
      <g>
       <use style="stroke:#000000;stroke-width:0.8;" x="263.890447" xlink:href="#m1a1a497aea" y="86.335641"/>
      </g>
     </g>
     <g id="text_1">
      <!-- $f$ -->
      <defs>
       <path d="M 9.71875 -16.5 
Q 11.578125 -17.921875 14.203125 -17.921875 
Q 17.78125 -17.921875 20.015625 -10.015625 
Q 20.953125 -6.203125 25.09375 15.09375 
L 29.6875 39.59375 
L 21.09375 39.59375 
Q 20.125 39.59375 20.125 40.921875 
Q 20.515625 43.109375 21.390625 43.109375 
L 30.328125 43.109375 
L 31.5 49.609375 
Q 32.078125 52.640625 32.5625 54.8125 
Q 33.0625 56.984375 33.625 58.828125 
Q 34.1875 60.6875 35.296875 62.984375 
Q 37.015625 66.265625 39.921875 68.390625 
Q 42.828125 70.515625 46.1875 70.515625 
Q 48.390625 70.515625 50.46875 69.703125 
Q 52.546875 68.890625 53.859375 67.28125 
Q 55.171875 65.671875 55.171875 63.484375 
Q 55.171875 60.9375 53.484375 59.046875 
Q 51.8125 57.171875 49.421875 57.171875 
Q 47.796875 57.171875 46.65625 58.171875 
Q 45.515625 59.1875 45.515625 60.796875 
Q 45.515625 62.984375 47 64.625 
Q 48.484375 66.265625 50.6875 66.5 
Q 48.828125 67.921875 46.09375 67.921875 
Q 44.578125 67.921875 43.234375 66.5 
Q 41.890625 65.09375 41.5 63.484375 
Q 40.875 60.9375 38.71875 49.703125 
L 37.5 43.109375 
L 47.796875 43.109375 
Q 48.78125 43.109375 48.78125 41.796875 
Q 48.734375 41.546875 48.578125 40.9375 
Q 48.4375 40.328125 48.171875 39.953125 
Q 47.90625 39.59375 47.515625 39.59375 
L 36.8125 39.59375 
L 32.171875 15.1875 
Q 31.296875 9.859375 30.140625 4.359375 
Q 29 -1.125 26.921875 -6.90625 
Q 24.859375 -12.703125 21.625 -16.609375 
Q 18.40625 -20.515625 14.015625 -20.515625 
Q 10.640625 -20.515625 7.984375 -18.578125 
Q 5.328125 -16.65625 5.328125 -13.484375 
Q 5.328125 -10.9375 6.953125 -9.046875 
Q 8.59375 -7.171875 11.078125 -7.171875 
Q 12.75 -7.171875 13.859375 -8.171875 
Q 14.984375 -9.1875 14.984375 -10.796875 
Q 14.984375 -12.9375 13.390625 -14.71875 
Q 11.8125 -16.5 9.71875 -16.5 
z
" id="Cmmi10-66"/>
      </defs>
      <g transform="translate(261.440447 100.913766)scale(0.1 -0.1)">
       <use transform="translate(0 0.484375)" xlink:href="#Cmmi10-66"/>
      </g>
     </g>
    </g>
    <g id="xtick_3">
     <g id="line2d_26">
      <path clip-path="url(#pa6627f63df)" d="M 562.529887 87.704405 
L 562.529887 16.528672 
" style="fill:none;stroke:#000000;stroke-dasharray:0.5,0.825;stroke-dashoffset:0;stroke-width:0.5;"/>
     </g>
     <g id="line2d_27">
      <g>
       <use style="stroke:#000000;stroke-width:0.8;" x="562.529887" xlink:href="#m1a1a497aea" y="86.335641"/>
      </g>
     </g>
     <g id="text_2">
      <!-- $1$ -->
      <defs>
       <path d="M 9.28125 0 
L 9.28125 3.515625 
Q 21.78125 3.515625 21.78125 6.6875 
L 21.78125 59.1875 
Q 16.609375 56.6875 8.6875 56.6875 
L 8.6875 60.203125 
Q 20.953125 60.203125 27.203125 66.609375 
L 28.609375 66.609375 
Q 28.953125 66.609375 29.265625 66.328125 
Q 29.59375 66.0625 29.59375 65.71875 
L 29.59375 6.6875 
Q 29.59375 3.515625 42.09375 3.515625 
L 42.09375 0 
z
" id="Cmr10-31"/>
      </defs>
      <g transform="translate(560.029887 100.934078)scale(0.1 -0.1)">
       <use transform="translate(0 0.390625)" xlink:href="#Cmr10-31"/>
      </g>
     </g>
    </g>
   </g>
   <g id="matplotlib.axis_2">
    <g id="ytick_1">
     <g id="line2d_28">
      <path clip-path="url(#pa6627f63df)" d="M 4.074135 86.335641 
L 573.48 86.335641 
" style="fill:none;stroke:#000000;stroke-dasharray:0.5,0.825;stroke-dashoffset:0;stroke-width:0.5;"/>
     </g>
     <g id="line2d_29">
      <defs>
       <path d="M 0 0 
L -3.5 0 
" id="m6d616b392f" style="stroke:#000000;stroke-width:0.8;"/>
      </defs>
      <g>
       <use style="stroke:#000000;stroke-width:0.8;" x="15.024247" xlink:href="#m6d616b392f" y="86.335641"/>
      </g>
     </g>
    </g>
    <g id="ytick_2">
     <g id="line2d_30">
      <path clip-path="url(#pa6627f63df)" d="M 4.074135 17.897436 
L 573.48 17.897436 
" style="fill:none;stroke:#000000;stroke-dasharray:0.5,0.825;stroke-dashoffset:0;stroke-width:0.5;"/>
     </g>
     <g id="line2d_31">
      <g>
       <use style="stroke:#000000;stroke-width:0.8;" x="15.024247" xlink:href="#m6d616b392f" y="17.897436"/>
      </g>
     </g>
     <g id="text_3">
      <!-- $1$ -->
      <g transform="translate(3.024247 21.696655)scale(0.1 -0.1)">
       <use transform="translate(0 0.390625)" xlink:href="#Cmr10-31"/>
      </g>
     </g>
    </g>
   </g>
   <g id="patch_3">
    <path d="M 15.024247 87.704405 
L 15.024247 16.528672 
" style="fill:none;stroke:#000000;stroke-linecap:square;stroke-linejoin:miter;stroke-width:0.8;"/>
   </g>
   <g id="patch_4">
    <path d="M 4.074135 86.335641 
L 573.48 86.335641 
" style="fill:none;stroke:#000000;stroke-linecap:square;stroke-linejoin:miter;stroke-width:0.8;"/>
   </g>
  </g>
 </g>
 <defs>
  <clipPath id="pa6627f63df">
   <rect height="71.175733" width="569.405865" x="4.074135" y="16.528672"/>
  </clipPath>
 </defs>
</svg>
