<?xml version="1.0" encoding="utf-8" standalone="no"?>
<!DOCTYPE svg PUBLIC "-//W3C//DTD SVG 1.1//EN"
  "http://www.w3.org/Graphics/SVG/1.1/DTD/svg11.dtd">
<!-- Created with matplotlib (http://matplotlib.org/) -->
<svg height="108pt" version="1.1" viewBox="0 0 576 108" width="576pt" xmlns="http://www.w3.org/2000/svg" xmlns:xlink="http://www.w3.org/1999/xlink">
 <defs>
  <style type="text/css">
*{stroke-linecap:butt;stroke-linejoin:round;}
  </style>
 </defs>
 <g id="figure_1">
  <g id="patch_1">
   <path d="M 0 108 
L 576 108 
L 576 0 
L 0 0 
z
" style="fill:#ffffff;"/>
  </g>
  <g id="axes_1">
   <g id="patch_2">
    <path d="M 4.074135 87.704405 
L 573.48 87.704405 
L 573.48 16.528672 
L 4.074135 16.528672 
z
" style="fill:#ffffff;"/>
   </g>
   <g id="line2d_1">
    <path clip-path="url(#pb66ec8de3f)" d="M 15.024247 86.335641 
L 35.302234 47.614025 
L 35.302234 47.614025 
" style="fill:none;stroke:#ff0000;stroke-linecap:square;stroke-width:2;"/>
   </g>
   <g id="line2d_2">
    <path clip-path="url(#pb66ec8de3f)" d="M 136.692167 56.619052 
L 156.970154 17.897436 
L 156.970154 17.897436 
" style="fill:none;stroke:#ff0000;stroke-linecap:square;stroke-width:2;"/>
   </g>
   <g id="line2d_3">
    <path clip-path="url(#pb66ec8de3f)" d="M 35.302234 47.614025 
L 55.580221 33.205982 
L 55.580221 33.205982 
" style="fill:none;stroke:#ffff00;stroke-linecap:square;stroke-width:2;"/>
   </g>
   <g id="line2d_4">
    <path clip-path="url(#pb66ec8de3f)" d="M 116.414181 71.027095 
L 136.692167 56.619052 
L 136.692167 56.619052 
" style="fill:none;stroke:#ffff00;stroke-linecap:square;stroke-width:2;"/>
   </g>
   <g id="line2d_5">
    <path clip-path="url(#pb66ec8de3f)" d="M 217.804114 55.718549 
L 238.082101 41.310506 
L 238.082101 41.310506 
" style="fill:none;stroke:#ffff00;stroke-linecap:square;stroke-width:2;"/>
   </g>
   <g id="line2d_6">
    <path clip-path="url(#pb66ec8de3f)" d="M 481.417941 62.922571 
L 481.501923 62.862899 
L 481.634662 62.768584 
L 481.755888 62.68245 
L 481.81229 62.642375 
L 481.880706 62.593764 
L 482.029137 62.4883 
L 482.144427 62.406383 
L 482.202714 62.364968 
L 482.345258 62.263688 
L 482.455992 62.185008 
L 482.573184 62.10174 
L 482.604085 62.079784 
L 482.751432 61.97509 
L 482.850172 61.904933 
L 482.94566 61.837086 
L 483.01416 61.788415 
L 483.144093 61.696094 
L 483.302681 61.583413 
L 483.3727 61.533663 
L 483.432115 61.491447 
L 483.60631 61.367677 
L 483.611599 61.363919 
L 483.72405 61.284019 
L 483.827928 61.210211 
L 484.004512 61.084744 
L 484.096621 61.019298 
L 484.121897 61.001338 
L 484.316646 60.862964 
L 484.383884 60.81519 
L 484.479639 60.747154 
L 484.534537 60.708147 
L 484.723124 60.574151 
L 484.743908 60.559383 
L 484.873263 60.467473 
L 484.942039 60.418606 
L 485.096615 60.308776 
L 485.185141 60.245876 
L 485.262315 60.191041 
L 485.381722 60.1062 
L 485.498722 60.023068 
L 485.573053 59.970254 
L 485.686822 59.889419 
L 485.753397 59.842115 
L 485.902563 59.736129 
L 486.005392 59.663066 
L 486.128937 59.575284 
L 486.2395 59.496726 
L 486.259423 59.48257 
L 486.418898 59.369259 
L 486.482558 59.324027 
L 486.575039 59.258317 
L 486.723184 59.153056 
L 486.863094 59.053646 
L 486.873034 59.046583 
L 486.997984 58.957803 
L 487.114826 58.874784 
L 487.217901 58.801546 
L 487.302875 58.74117 
L 487.423484 58.655474 
L 487.530236 58.579624 
L 487.638636 58.502603 
L 487.725504 58.440881 
L 487.820711 58.373234 
L 487.939681 58.288703 
L 488.055967 58.206078 
L 488.191391 58.109856 
L 488.254191 58.065235 
L 488.348108 57.998504 
L 488.403521 57.959132 
L 488.504468 57.887407 
L 488.687593 57.757291 
L 488.782053 57.690175 
L 488.813236 57.668019 
L 488.92547 57.588274 
L 489.100758 57.463727 
L 489.166703 57.416871 
L 489.311987 57.313643 
L 489.367723 57.274041 
L 489.428458 57.230888 
L 489.611109 57.101109 
L 489.686862 57.047284 
L 489.74857 57.00344 
L 489.834905 56.942096 
L 490.001933 56.823418 
L 490.099877 56.753826 
L 490.133958 56.729611 
L 490.2407 56.653768 
L 490.378751 56.555679 
L 490.480819 56.483157 
L 490.580289 56.412481 
L 490.714108 56.317399 
L 490.771088 56.276914 
" style="fill:none;stroke:#ffff00;stroke-linecap:square;stroke-width:2;"/>
   </g>
   <g id="line2d_7">
    <path clip-path="url(#pb66ec8de3f)" d="M 491.14779 56.009257 
L 491.155994 56.003428 
L 491.266853 55.92466 
L 491.390934 55.836497 
L 491.462376 55.785735 
L 491.585595 55.698185 
L 491.744994 55.584928 
L 491.810724 55.538225 
L 491.881024 55.488275 
L 492.04001 55.375311 
L 492.111346 55.324625 
L 492.222231 55.245838 
L 492.345295 55.158398 
L 492.47304 55.067632 
L 492.533554 55.024635 
L 492.672161 54.926151 
L 492.683826 54.917863 
L 492.831773 54.812742 
L 492.958961 54.722372 
L 493.076917 54.638561 
L 493.085973 54.632127 
L 493.262783 54.506498 
L 493.363975 54.434599 
L 493.459726 54.366565 
L 493.518409 54.32487 
L 493.658654 54.225222 
L 493.794257 54.128872 
L 493.858445 54.083265 
L 493.917103 54.041587 
L 494.051686 53.945962 
L 494.111261 53.903633 
L 494.242004 53.810737 
L 494.333107 53.746005 
L 494.42771 53.678787 
L 494.58634 53.566076 
L 494.669898 53.506706 
L 494.730486 53.463657 
L 494.894447 53.347159 
L 494.999191 53.272735 
L 495.048435 53.237746 
L 495.150868 53.164965 
L 495.27936 53.073667 
L 495.387186 52.997054 
L 495.475463 52.934331 
L 495.617974 52.833074 
L 495.71144 52.766664 
L 495.73716 52.748388 
L 495.870877 52.653379 
L 495.964985 52.586513 
L 496.096754 52.492888 
L 496.214291 52.409374 
L 496.32423 52.33126 
L 496.406352 52.27291 
L 496.482257 52.218978 
L 496.628566 52.115021 
L 496.656512 52.095165 
L 496.791855 51.999 
L 496.89922 51.922715 
L 496.97265 51.87054 
L 497.101863 51.778732 
L 497.174616 51.727038 
L 497.274041 51.656394 
L 497.388122 51.575336 
L 497.550712 51.459812 
L 497.659834 51.382278 
L 497.693752 51.358179 
L 497.808252 51.276824 
L 497.963977 51.166177 
L 498.014014 51.130624 
L 498.107747 51.064024 
L 498.230886 50.976531 
L 498.308335 50.921501 
L 498.446374 50.823421 
L 498.520577 50.770697 
L 498.619955 50.700087 
L 498.761528 50.599496 
L 498.796141 50.574902 
L 498.963973 50.455653 
L 498.996036 50.432871 
L 499.174246 50.306249 
L 499.26528 50.241566 
L 499.389856 50.153052 
L 499.4461 50.113089 
L 499.581365 50.01698 
L 499.669707 49.95421 
L 499.709787 49.925732 
L 499.819518 49.847766 
L 499.976075 49.736528 
L 500.085512 49.65877 
L 500.172788 49.596758 
L 500.226166 49.558832 
L 500.360558 49.463343 
L 500.467212 49.387563 
L 500.525081 49.346444 
L 500.704597 49.218894 
L 500.76395 49.176722 
L 500.930531 49.058362 
L 501.015906 48.997701 
L 501.132329 48.914979 
L 501.201343 48.865943 
L 501.260488 48.823919 
L 501.410765 48.717143 
L 501.460292 48.681952 
L 501.553521 48.615711 
L 501.695927 48.514528 
" style="fill:none;stroke:#ffff00;stroke-linecap:square;stroke-width:2;"/>
   </g>
   <g id="line2d_8">
    <path clip-path="url(#pb66ec8de3f)" d="M 75.858207 35.006987 
L 96.136194 69.22609 
L 96.136194 69.22609 
" style="fill:none;stroke:#00ff00;stroke-linecap:square;stroke-width:2;"/>
   </g>
   <g id="line2d_9">
    <path clip-path="url(#pb66ec8de3f)" d="M 156.970154 17.897436 
L 177.248141 52.116538 
L 177.248141 52.116538 
" style="fill:none;stroke:#00ff00;stroke-linecap:square;stroke-width:2;"/>
   </g>
   <g id="line2d_10">
    <path clip-path="url(#pb66ec8de3f)" d="M 542.251901 52.116538 
L 562.529887 86.335641 
L 562.529887 86.335641 
" style="fill:none;stroke:#00ff00;stroke-linecap:square;stroke-width:2;"/>
   </g>
   <g id="line2d_11">
    <path clip-path="url(#pb66ec8de3f)" d="M 258.360087 35.006987 
L 278.638074 53.017041 
L 278.638074 53.017041 
" style="fill:none;stroke:#00ffff;stroke-linecap:square;stroke-width:2;"/>
   </g>
   <g id="line2d_12">
    <path clip-path="url(#pb66ec8de3f)" d="M 339.472034 34.106485 
L 380.028007 70.126592 
L 380.028007 70.126592 
" style="fill:none;stroke:#00ffff;stroke-linecap:square;stroke-width:2;"/>
   </g>
   <g id="line2d_13">
    <path clip-path="url(#pb66ec8de3f)" d="M 440.861967 51.216036 
L 461.139954 69.22609 
L 461.139954 69.22609 
" style="fill:none;stroke:#00ffff;stroke-linecap:square;stroke-width:2;"/>
   </g>
   <g id="line2d_14">
    <path clip-path="url(#pb66ec8de3f)" d="M 238.082101 41.310506 
L 258.360087 35.006987 
L 258.360087 35.006987 
" style="fill:none;stroke:#0000ff;stroke-linecap:square;stroke-width:2;"/>
   </g>
   <g id="line2d_15">
    <path clip-path="url(#pb66ec8de3f)" d="M 278.638074 53.017041 
L 339.472034 34.106485 
L 339.472034 34.106485 
" style="fill:none;stroke:#0000ff;stroke-linecap:square;stroke-width:2;"/>
   </g>
   <g id="line2d_16">
    <path clip-path="url(#pb66ec8de3f)" d="M 380.028007 70.126592 
L 440.861967 51.216036 
L 440.861967 51.216036 
" style="fill:none;stroke:#0000ff;stroke-linecap:square;stroke-width:2;"/>
   </g>
   <g id="line2d_17">
    <path clip-path="url(#pb66ec8de3f)" d="M 461.139954 69.22609 
L 481.417941 62.922571 
L 481.417941 62.922571 
" style="fill:none;stroke:#0000ff;stroke-linecap:square;stroke-width:2;"/>
   </g>
   <g id="line2d_18">
    <path clip-path="url(#pb66ec8de3f)" d="M 55.580221 33.205982 
L 75.858207 35.006987 
L 75.858207 35.006987 
" style="fill:none;stroke:#ff00ff;stroke-linecap:square;stroke-width:2;"/>
   </g>
   <g id="line2d_19">
    <path clip-path="url(#pb66ec8de3f)" d="M 96.136194 69.22609 
L 116.414181 71.027095 
L 116.414181 71.027095 
" style="fill:none;stroke:#ff00ff;stroke-linecap:square;stroke-width:2;"/>
   </g>
   <g id="line2d_20">
    <path clip-path="url(#pb66ec8de3f)" d="M 177.248141 52.116538 
L 217.804114 55.718549 
L 217.804114 55.718549 
" style="fill:none;stroke:#ff00ff;stroke-linecap:square;stroke-width:2;"/>
   </g>
   <g id="line2d_21">
    <path clip-path="url(#pb66ec8de3f)" d="M 501.695927 48.514528 
L 542.251901 52.116538 
L 542.251901 52.116538 
" style="fill:none;stroke:#ff00ff;stroke-linecap:square;stroke-width:2;"/>
   </g>
   <g id="matplotlib.axis_1">
    <g id="xtick_1">
     <g id="line2d_22">
      <path clip-path="url(#pb66ec8de3f)" d="M 15.024247 87.704405 
L 15.024247 16.528672 
" style="fill:none;stroke:#000000;stroke-dasharray:0.5,0.825;stroke-dashoffset:0;stroke-width:0.5;"/>
     </g>
     <g id="line2d_23">
      <defs>
       <path d="M 0 0 
L 0 3.5 
" id="macbc00f549" style="stroke:#000000;stroke-width:0.8;"/>
      </defs>
      <g>
       <use style="stroke:#000000;stroke-width:0.8;" x="15.024247" xlink:href="#macbc00f549" y="86.335641"/>
      </g>
     </g>
    </g>
    <g id="xtick_2">
     <g id="line2d_24">
      <path clip-path="url(#pb66ec8de3f)" d="M 156.970154 87.704405 
L 156.970154 16.528672 
" style="fill:none;stroke:#000000;stroke-dasharray:0.5,0.825;stroke-dashoffset:0;stroke-width:0.5;"/>
     </g>
     <g id="line2d_25">
      <g>
       <use style="stroke:#000000;stroke-width:0.8;" x="156.970154" xlink:href="#macbc00f549" y="86.335641"/>
      </g>
     </g>
     <g id="text_1">
      <!-- $f$ -->
      <defs>
       <path d="M 9.71875 -16.5 
Q 11.578125 -17.921875 14.203125 -17.921875 
Q 17.78125 -17.921875 20.015625 -10.015625 
Q 20.953125 -6.203125 25.09375 15.09375 
L 29.6875 39.59375 
L 21.09375 39.59375 
Q 20.125 39.59375 20.125 40.921875 
Q 20.515625 43.109375 21.390625 43.109375 
L 30.328125 43.109375 
L 31.5 49.609375 
Q 32.078125 52.640625 32.5625 54.8125 
Q 33.0625 56.984375 33.625 58.828125 
Q 34.1875 60.6875 35.296875 62.984375 
Q 37.015625 66.265625 39.921875 68.390625 
Q 42.828125 70.515625 46.1875 70.515625 
Q 48.390625 70.515625 50.46875 69.703125 
Q 52.546875 68.890625 53.859375 67.28125 
Q 55.171875 65.671875 55.171875 63.484375 
Q 55.171875 60.9375 53.484375 59.046875 
Q 51.8125 57.171875 49.421875 57.171875 
Q 47.796875 57.171875 46.65625 58.171875 
Q 45.515625 59.1875 45.515625 60.796875 
Q 45.515625 62.984375 47 64.625 
Q 48.484375 66.265625 50.6875 66.5 
Q 48.828125 67.921875 46.09375 67.921875 
Q 44.578125 67.921875 43.234375 66.5 
Q 41.890625 65.09375 41.5 63.484375 
Q 40.875 60.9375 38.71875 49.703125 
L 37.5 43.109375 
L 47.796875 43.109375 
Q 48.78125 43.109375 48.78125 41.796875 
Q 48.734375 41.546875 48.578125 40.9375 
Q 48.4375 40.328125 48.171875 39.953125 
Q 47.90625 39.59375 47.515625 39.59375 
L 36.8125 39.59375 
L 32.171875 15.1875 
Q 31.296875 9.859375 30.140625 4.359375 
Q 29 -1.125 26.921875 -6.90625 
Q 24.859375 -12.703125 21.625 -16.609375 
Q 18.40625 -20.515625 14.015625 -20.515625 
Q 10.640625 -20.515625 7.984375 -18.578125 
Q 5.328125 -16.65625 5.328125 -13.484375 
Q 5.328125 -10.9375 6.953125 -9.046875 
Q 8.59375 -7.171875 11.078125 -7.171875 
Q 12.75 -7.171875 13.859375 -8.171875 
Q 14.984375 -9.1875 14.984375 -10.796875 
Q 14.984375 -12.9375 13.390625 -14.71875 
Q 11.8125 -16.5 9.71875 -16.5 
z
" id="Cmmi10-66"/>
      </defs>
      <g transform="translate(154.520154 100.913766)scale(0.1 -0.1)">
       <use transform="translate(0 0.484375)" xlink:href="#Cmmi10-66"/>
      </g>
     </g>
    </g>
    <g id="xtick_3">
     <g id="line2d_26">
      <path clip-path="url(#pb66ec8de3f)" d="M 562.529887 87.704405 
L 562.529887 16.528672 
" style="fill:none;stroke:#000000;stroke-dasharray:0.5,0.825;stroke-dashoffset:0;stroke-width:0.5;"/>
     </g>
     <g id="line2d_27">
      <g>
       <use style="stroke:#000000;stroke-width:0.8;" x="562.529887" xlink:href="#macbc00f549" y="86.335641"/>
      </g>
     </g>
     <g id="text_2">
      <!-- $1$ -->
      <defs>
       <path d="M 9.28125 0 
L 9.28125 3.515625 
Q 21.78125 3.515625 21.78125 6.6875 
L 21.78125 59.1875 
Q 16.609375 56.6875 8.6875 56.6875 
L 8.6875 60.203125 
Q 20.953125 60.203125 27.203125 66.609375 
L 28.609375 66.609375 
Q 28.953125 66.609375 29.265625 66.328125 
Q 29.59375 66.0625 29.59375 65.71875 
L 29.59375 6.6875 
Q 29.59375 3.515625 42.09375 3.515625 
L 42.09375 0 
z
" id="Cmr10-31"/>
      </defs>
      <g transform="translate(560.029887 100.934078)scale(0.1 -0.1)">
       <use transform="translate(0 0.390625)" xlink:href="#Cmr10-31"/>
      </g>
     </g>
    </g>
   </g>
   <g id="matplotlib.axis_2">
    <g id="ytick_1">
     <g id="line2d_28">
      <path clip-path="url(#pb66ec8de3f)" d="M 4.074135 86.335641 
L 573.48 86.335641 
" style="fill:none;stroke:#000000;stroke-dasharray:0.5,0.825;stroke-dashoffset:0;stroke-width:0.5;"/>
     </g>
     <g id="line2d_29">
      <defs>
       <path d="M 0 0 
L -3.5 0 
" id="m3e3fcef39e" style="stroke:#000000;stroke-width:0.8;"/>
      </defs>
      <g>
       <use style="stroke:#000000;stroke-width:0.8;" x="15.024247" xlink:href="#m3e3fcef39e" y="86.335641"/>
      </g>
     </g>
    </g>
    <g id="ytick_2">
     <g id="line2d_30">
      <path clip-path="url(#pb66ec8de3f)" d="M 4.074135 17.897436 
L 573.48 17.897436 
" style="fill:none;stroke:#000000;stroke-dasharray:0.5,0.825;stroke-dashoffset:0;stroke-width:0.5;"/>
     </g>
     <g id="line2d_31">
      <g>
       <use style="stroke:#000000;stroke-width:0.8;" x="15.024247" xlink:href="#m3e3fcef39e" y="17.897436"/>
      </g>
     </g>
     <g id="text_3">
      <!-- $1$ -->
      <g transform="translate(3.024247 21.696655)scale(0.1 -0.1)">
       <use transform="translate(0 0.390625)" xlink:href="#Cmr10-31"/>
      </g>
     </g>
    </g>
   </g>
   <g id="patch_3">
    <path d="M 15.024247 87.704405 
L 15.024247 16.528672 
" style="fill:none;stroke:#000000;stroke-linecap:square;stroke-linejoin:miter;stroke-width:0.8;"/>
   </g>
   <g id="patch_4">
    <path d="M 4.074135 86.335641 
L 573.48 86.335641 
" style="fill:none;stroke:#000000;stroke-linecap:square;stroke-linejoin:miter;stroke-width:0.8;"/>
   </g>
  </g>
 </g>
 <defs>
  <clipPath id="pb66ec8de3f">
   <rect height="71.175733" width="569.405865" x="4.074135" y="16.528672"/>
  </clipPath>
 </defs>
</svg>
