<?xml version="1.0" encoding="utf-8" standalone="no"?>
<!DOCTYPE svg PUBLIC "-//W3C//DTD SVG 1.1//EN"
  "http://www.w3.org/Graphics/SVG/1.1/DTD/svg11.dtd">
<!-- Created with matplotlib (http://matplotlib.org/) -->
<svg height="108pt" version="1.1" viewBox="0 0 576 108" width="576pt" xmlns="http://www.w3.org/2000/svg" xmlns:xlink="http://www.w3.org/1999/xlink">
 <defs>
  <style type="text/css">
*{stroke-linecap:butt;stroke-linejoin:round;}
  </style>
 </defs>
 <g id="figure_1">
  <g id="patch_1">
   <path d="M 0 108 
L 576 108 
L 576 0 
L 0 0 
z
" style="fill:#ffffff;"/>
  </g>
  <g id="axes_1">
   <g id="patch_2">
    <path d="M 4.074135 87.704405 
L 573.48 87.704405 
L 573.48 16.528672 
L 4.074135 16.528672 
z
" style="fill:#ffffff;"/>
   </g>
   <g id="line2d_1">
    <path clip-path="url(#p0aca7086ae)" d="M 15.024247 86.335641 
L 39.910867 56.393926 
L 39.910867 56.393926 
" style="fill:none;stroke:#ff0000;stroke-linecap:square;stroke-width:2;"/>
   </g>
   <g id="line2d_2">
    <path clip-path="url(#p0aca7086ae)" d="M 164.343967 47.839151 
L 189.230587 17.897436 
L 189.230587 17.897436 
" style="fill:none;stroke:#ff0000;stroke-linecap:square;stroke-width:2;"/>
   </g>
   <g id="line2d_3">
    <path clip-path="url(#p0aca7086ae)" d="M 363.436927 67.087396 
L 388.323547 37.145681 
L 388.323547 37.145681 
" style="fill:none;stroke:#ff0000;stroke-linecap:square;stroke-width:2;"/>
   </g>
   <g id="line2d_4">
    <path clip-path="url(#p0aca7086ae)" d="M 89.684107 43.561763 
L 105.797466 54.639697 
L 105.797466 54.639697 
" style="fill:none;stroke:#cbff00;stroke-linecap:square;stroke-width:2;"/>
   </g>
   <g id="line2d_5">
    <path clip-path="url(#p0aca7086ae)" d="M 106.145835 54.879201 
L 106.324543 55.002062 
L 106.438006 55.080068 
L 106.593173 55.186745 
L 106.71282 55.269002 
L 106.836999 55.354376 
L 106.98425 55.455611 
L 107.03004 55.487092 
L 107.249389 55.637894 
L 107.333266 55.69556 
L 107.477559 55.794761 
L 107.546396 55.842086 
L 107.719375 55.961009 
L 107.840881 56.044545 
L 107.971502 56.134347 
L 108.037994 56.18006 
L 108.236382 56.316452 
L 108.333408 56.383157 
L 108.409462 56.435444 
L 108.608289 56.572138 
L 108.648146 56.599539 
L 108.87595 56.756155 
L 108.909582 56.779277 
L 109.018879 56.854418 
L 109.195449 56.97581 
L 109.280521 57.034298 
L 109.402904 57.118435 
L 109.567306 57.231462 
L 109.722648 57.338259 
L 109.849668 57.425586 
L 109.982402 57.51684 
L 110.011556 57.536884 
L 110.15718 57.637 
L 110.341141 57.763473 
L 110.435316 57.828219 
L 110.541154 57.900982 
L 110.6468 57.973614 
L 110.804014 58.081699 
L 110.938093 58.173878 
L 111.105714 58.289117 
L 111.14077 58.313218 
L 111.305551 58.426506 
L 111.397133 58.489468 
L 111.627466 58.647822 
L 111.703535 58.70012 
L 111.81962 58.779928 
L 111.970404 58.883592 
L 112.086863 58.963657 
L 112.188108 59.033263 
L 112.275359 59.093248 
L 112.403289 59.1812 
L 112.584288 59.305637 
L 112.726263 59.403245 
L 112.863721 59.497747 
L 112.981582 59.578777 
L 113.086886 59.651173 
L 113.193595 59.724536 
L 113.371512 59.846854 
L 113.429694 59.886853 
L 113.522586 59.950717 
L 113.688649 60.064885 
L 113.833286 60.164323 
L 113.907209 60.215145 
L 114.017065 60.290671 
L 114.144687 60.378412 
L 114.274969 60.46798 
L 114.384086 60.542998 
L 114.570727 60.671314 
" style="fill:none;stroke:#cbff00;stroke-linecap:square;stroke-width:2;"/>
   </g>
   <g id="line2d_6">
    <path clip-path="url(#p0aca7086ae)" d="M 214.117207 58.53262 
L 239.003827 75.642171 
L 239.003827 75.642171 
" style="fill:none;stroke:#cbff00;stroke-linecap:square;stroke-width:2;"/>
   </g>
   <g id="line2d_7">
    <path clip-path="url(#p0aca7086ae)" d="M 288.777067 39.284375 
L 338.550307 73.503478 
L 338.550307 73.503478 
" style="fill:none;stroke:#cbff00;stroke-linecap:square;stroke-width:2;"/>
   </g>
   <g id="line2d_8">
    <path clip-path="url(#p0aca7086ae)" d="M 413.210167 30.729599 
L 462.983407 64.948702 
L 462.983407 64.948702 
" style="fill:none;stroke:#cbff00;stroke-linecap:square;stroke-width:2;"/>
   </g>
   <g id="line2d_9">
    <path clip-path="url(#p0aca7086ae)" d="M 512.756647 28.590906 
L 537.643267 45.700457 
L 537.643267 45.700457 
" style="fill:none;stroke:#cbff00;stroke-linecap:square;stroke-width:2;"/>
   </g>
   <g id="line2d_10">
    <path clip-path="url(#p0aca7086ae)" d="M 39.910867 56.393926 
L 89.684107 43.561763 
L 89.684107 43.561763 
" style="fill:none;stroke:#00ff66;stroke-linecap:square;stroke-width:2;"/>
   </g>
   <g id="line2d_11">
    <path clip-path="url(#p0aca7086ae)" d="M 114.570727 60.671314 
L 164.343967 47.839151 
L 164.343967 47.839151 
" style="fill:none;stroke:#00ff66;stroke-linecap:square;stroke-width:2;"/>
   </g>
   <g id="line2d_12">
    <path clip-path="url(#p0aca7086ae)" d="M 338.550307 73.503478 
L 358.051924 68.475717 
L 358.051924 68.475717 
" style="fill:none;stroke:#00ff66;stroke-linecap:square;stroke-width:2;"/>
   </g>
   <g id="line2d_13">
    <path clip-path="url(#p0aca7086ae)" d="M 358.432627 68.377567 
L 358.594728 68.335775 
L 358.680867 68.313567 
L 358.84518 68.271206 
L 358.927713 68.249928 
L 359.076031 68.211689 
L 359.196179 68.180714 
L 359.248695 68.167174 
L 359.383244 68.132486 
L 359.550637 68.08933 
L 359.639298 68.066472 
L 359.750946 68.037688 
L 359.899205 67.999465 
L 360.09885 67.947994 
L 360.244978 67.91032 
L 360.294822 67.89747 
L 360.406431 67.868696 
L 360.510978 67.841742 
L 360.691792 67.795126 
L 360.845987 67.755373 
L 360.910896 67.738638 
L 361.03965 67.705444 
L 361.23979 67.653845 
L 361.339081 67.628247 
L 361.422917 67.606633 
L 361.540413 67.576341 
L 361.702357 67.53459 
L 361.767296 67.517848 
L 361.87753 67.489428 
L 362.04957 67.445074 
L 362.228282 67.399 
L 362.307844 67.378487 
L 362.378749 67.360207 
L 362.558996 67.313737 
L 362.743492 67.266172 
L 362.838419 67.241699 
L 362.946215 67.213908 
L 363.091061 67.176565 
L 363.186033 67.152079 
L 363.357892 67.107772 
L 363.436927 67.087396 
" style="fill:none;stroke:#00ff66;stroke-linecap:square;stroke-width:2;"/>
   </g>
   <g id="line2d_14">
    <path clip-path="url(#p0aca7086ae)" d="M 388.323547 37.145681 
L 413.210167 30.729599 
L 413.210167 30.729599 
" style="fill:none;stroke:#00ff66;stroke-linecap:square;stroke-width:2;"/>
   </g>
   <g id="line2d_15">
    <path clip-path="url(#p0aca7086ae)" d="M 189.230587 17.897436 
L 214.117207 58.53262 
L 214.117207 58.53262 
" style="fill:none;stroke:#0066ff;stroke-linecap:square;stroke-width:2;"/>
   </g>
   <g id="line2d_16">
    <path clip-path="url(#p0aca7086ae)" d="M 537.643267 45.700457 
L 562.529887 86.335641 
L 562.529887 86.335641 
" style="fill:none;stroke:#0066ff;stroke-linecap:square;stroke-width:2;"/>
   </g>
   <g id="line2d_17">
    <path clip-path="url(#p0aca7086ae)" d="M 239.003827 75.642171 
L 288.777067 39.284375 
L 288.777067 39.284375 
" style="fill:none;stroke:#cc00ff;stroke-linecap:square;stroke-width:2;"/>
   </g>
   <g id="line2d_18">
    <path clip-path="url(#p0aca7086ae)" d="M 462.983407 64.948702 
L 512.756647 28.590906 
L 512.756647 28.590906 
" style="fill:none;stroke:#cc00ff;stroke-linecap:square;stroke-width:2;"/>
   </g>
   <g id="matplotlib.axis_1">
    <g id="xtick_1">
     <g id="line2d_19">
      <path clip-path="url(#p0aca7086ae)" d="M 15.024247 87.704405 
L 15.024247 16.528672 
" style="fill:none;stroke:#000000;stroke-dasharray:0.5,0.825;stroke-dashoffset:0;stroke-width:0.5;"/>
     </g>
     <g id="line2d_20">
      <defs>
       <path d="M 0 0 
L 0 3.5 
" id="ma0e499ae98" style="stroke:#000000;stroke-width:0.8;"/>
      </defs>
      <g>
       <use style="stroke:#000000;stroke-width:0.8;" x="15.024247" xlink:href="#ma0e499ae98" y="86.335641"/>
      </g>
     </g>
    </g>
    <g id="xtick_2">
     <g id="line2d_21">
      <path clip-path="url(#p0aca7086ae)" d="M 189.230587 87.704405 
L 189.230587 16.528672 
" style="fill:none;stroke:#000000;stroke-dasharray:0.5,0.825;stroke-dashoffset:0;stroke-width:0.5;"/>
     </g>
     <g id="line2d_22">
      <g>
       <use style="stroke:#000000;stroke-width:0.8;" x="189.230587" xlink:href="#ma0e499ae98" y="86.335641"/>
      </g>
     </g>
     <g id="text_1">
      <!-- $f$ -->
      <defs>
       <path d="M 9.71875 -16.5 
Q 11.578125 -17.921875 14.203125 -17.921875 
Q 17.78125 -17.921875 20.015625 -10.015625 
Q 20.953125 -6.203125 25.09375 15.09375 
L 29.6875 39.59375 
L 21.09375 39.59375 
Q 20.125 39.59375 20.125 40.921875 
Q 20.515625 43.109375 21.390625 43.109375 
L 30.328125 43.109375 
L 31.5 49.609375 
Q 32.078125 52.640625 32.5625 54.8125 
Q 33.0625 56.984375 33.625 58.828125 
Q 34.1875 60.6875 35.296875 62.984375 
Q 37.015625 66.265625 39.921875 68.390625 
Q 42.828125 70.515625 46.1875 70.515625 
Q 48.390625 70.515625 50.46875 69.703125 
Q 52.546875 68.890625 53.859375 67.28125 
Q 55.171875 65.671875 55.171875 63.484375 
Q 55.171875 60.9375 53.484375 59.046875 
Q 51.8125 57.171875 49.421875 57.171875 
Q 47.796875 57.171875 46.65625 58.171875 
Q 45.515625 59.1875 45.515625 60.796875 
Q 45.515625 62.984375 47 64.625 
Q 48.484375 66.265625 50.6875 66.5 
Q 48.828125 67.921875 46.09375 67.921875 
Q 44.578125 67.921875 43.234375 66.5 
Q 41.890625 65.09375 41.5 63.484375 
Q 40.875 60.9375 38.71875 49.703125 
L 37.5 43.109375 
L 47.796875 43.109375 
Q 48.78125 43.109375 48.78125 41.796875 
Q 48.734375 41.546875 48.578125 40.9375 
Q 48.4375 40.328125 48.171875 39.953125 
Q 47.90625 39.59375 47.515625 39.59375 
L 36.8125 39.59375 
L 32.171875 15.1875 
Q 31.296875 9.859375 30.140625 4.359375 
Q 29 -1.125 26.921875 -6.90625 
Q 24.859375 -12.703125 21.625 -16.609375 
Q 18.40625 -20.515625 14.015625 -20.515625 
Q 10.640625 -20.515625 7.984375 -18.578125 
Q 5.328125 -16.65625 5.328125 -13.484375 
Q 5.328125 -10.9375 6.953125 -9.046875 
Q 8.59375 -7.171875 11.078125 -7.171875 
Q 12.75 -7.171875 13.859375 -8.171875 
Q 14.984375 -9.1875 14.984375 -10.796875 
Q 14.984375 -12.9375 13.390625 -14.71875 
Q 11.8125 -16.5 9.71875 -16.5 
z
" id="Cmmi10-66"/>
      </defs>
      <g transform="translate(186.780587 100.913766)scale(0.1 -0.1)">
       <use transform="translate(0 0.484375)" xlink:href="#Cmmi10-66"/>
      </g>
     </g>
    </g>
    <g id="xtick_3">
     <g id="line2d_23">
      <path clip-path="url(#p0aca7086ae)" d="M 562.529887 87.704405 
L 562.529887 16.528672 
" style="fill:none;stroke:#000000;stroke-dasharray:0.5,0.825;stroke-dashoffset:0;stroke-width:0.5;"/>
     </g>
     <g id="line2d_24">
      <g>
       <use style="stroke:#000000;stroke-width:0.8;" x="562.529887" xlink:href="#ma0e499ae98" y="86.335641"/>
      </g>
     </g>
     <g id="text_2">
      <!-- $1$ -->
      <defs>
       <path d="M 9.28125 0 
L 9.28125 3.515625 
Q 21.78125 3.515625 21.78125 6.6875 
L 21.78125 59.1875 
Q 16.609375 56.6875 8.6875 56.6875 
L 8.6875 60.203125 
Q 20.953125 60.203125 27.203125 66.609375 
L 28.609375 66.609375 
Q 28.953125 66.609375 29.265625 66.328125 
Q 29.59375 66.0625 29.59375 65.71875 
L 29.59375 6.6875 
Q 29.59375 3.515625 42.09375 3.515625 
L 42.09375 0 
z
" id="Cmr10-31"/>
      </defs>
      <g transform="translate(560.029887 100.934078)scale(0.1 -0.1)">
       <use transform="translate(0 0.390625)" xlink:href="#Cmr10-31"/>
      </g>
     </g>
    </g>
   </g>
   <g id="matplotlib.axis_2">
    <g id="ytick_1">
     <g id="line2d_25">
      <path clip-path="url(#p0aca7086ae)" d="M 4.074135 86.335641 
L 573.48 86.335641 
" style="fill:none;stroke:#000000;stroke-dasharray:0.5,0.825;stroke-dashoffset:0;stroke-width:0.5;"/>
     </g>
     <g id="line2d_26">
      <defs>
       <path d="M 0 0 
L -3.5 0 
" id="mee4b25ec32" style="stroke:#000000;stroke-width:0.8;"/>
      </defs>
      <g>
       <use style="stroke:#000000;stroke-width:0.8;" x="15.024247" xlink:href="#mee4b25ec32" y="86.335641"/>
      </g>
     </g>
    </g>
    <g id="ytick_2">
     <g id="line2d_27">
      <path clip-path="url(#p0aca7086ae)" d="M 4.074135 17.897436 
L 573.48 17.897436 
" style="fill:none;stroke:#000000;stroke-dasharray:0.5,0.825;stroke-dashoffset:0;stroke-width:0.5;"/>
     </g>
     <g id="line2d_28">
      <g>
       <use style="stroke:#000000;stroke-width:0.8;" x="15.024247" xlink:href="#mee4b25ec32" y="17.897436"/>
      </g>
     </g>
     <g id="text_3">
      <!-- $1$ -->
      <g transform="translate(3.024247 21.696655)scale(0.1 -0.1)">
       <use transform="translate(0 0.390625)" xlink:href="#Cmr10-31"/>
      </g>
     </g>
    </g>
   </g>
   <g id="patch_3">
    <path d="M 15.024247 87.704405 
L 15.024247 16.528672 
" style="fill:none;stroke:#000000;stroke-linecap:square;stroke-linejoin:miter;stroke-width:0.8;"/>
   </g>
   <g id="patch_4">
    <path d="M 4.074135 86.335641 
L 573.48 86.335641 
" style="fill:none;stroke:#000000;stroke-linecap:square;stroke-linejoin:miter;stroke-width:0.8;"/>
   </g>
  </g>
 </g>
 <defs>
  <clipPath id="p0aca7086ae">
   <rect height="71.175733" width="569.405865" x="4.074135" y="16.528672"/>
  </clipPath>
 </defs>
</svg>
