<?xml version="1.0" encoding="utf-8" standalone="no"?>
<!DOCTYPE svg PUBLIC "-//W3C//DTD SVG 1.1//EN"
  "http://www.w3.org/Graphics/SVG/1.1/DTD/svg11.dtd">
<!-- Created with matplotlib (http://matplotlib.org/) -->
<svg height="108pt" version="1.1" viewBox="0 0 576 108" width="576pt" xmlns="http://www.w3.org/2000/svg" xmlns:xlink="http://www.w3.org/1999/xlink">
 <defs>
  <style type="text/css">
*{stroke-linecap:butt;stroke-linejoin:round;}
  </style>
 </defs>
 <g id="figure_1">
  <g id="patch_1">
   <path d="M 0 108 
L 576 108 
L 576 0 
L 0 0 
z
" style="fill:#ffffff;"/>
  </g>
  <g id="axes_1">
   <g id="patch_2">
    <path d="M 4.074135 87.704405 
L 573.48 87.704405 
L 573.48 16.528672 
L 4.074135 16.528672 
z
" style="fill:#ffffff;"/>
   </g>
   <g id="line2d_1">
    <path clip-path="url(#p0e2facf98e)" d="M 23.579023 79.919559 
L 49.24335 60.671314 
L 49.24335 60.671314 
" style="fill:none;stroke:#ff0000;stroke-linecap:square;stroke-width:2;"/>
   </g>
   <g id="line2d_2">
    <path clip-path="url(#p0e2facf98e)" d="M 254.557965 43.561763 
L 280.222292 24.313518 
L 280.222292 24.313518 
" style="fill:none;stroke:#ff0000;stroke-linecap:square;stroke-width:2;"/>
   </g>
   <g id="line2d_3">
    <path clip-path="url(#p0e2facf98e)" d="M 83.462452 69.22609 
L 220.338862 35.006987 
L 220.338862 35.006987 
" style="fill:none;stroke:#7fff00;stroke-linecap:square;stroke-width:2;"/>
   </g>
   <g id="line2d_4">
    <path clip-path="url(#p0e2facf98e)" d="M 19.301635 78.850212 
L 23.579023 79.919559 
L 23.579023 79.919559 
" style="fill:none;stroke:#00ffff;stroke-linecap:square;stroke-width:2;"/>
   </g>
   <g id="line2d_5">
    <path clip-path="url(#p0e2facf98e)" d="M 49.24335 60.671314 
L 83.462452 69.22609 
L 83.462452 69.22609 
" style="fill:none;stroke:#00ffff;stroke-linecap:square;stroke-width:2;"/>
   </g>
   <g id="line2d_6">
    <path clip-path="url(#p0e2facf98e)" d="M 220.338862 35.006987 
L 254.557965 43.561763 
L 254.557965 43.561763 
" style="fill:none;stroke:#00ffff;stroke-linecap:square;stroke-width:2;"/>
   </g>
   <g id="line2d_7">
    <path clip-path="url(#p0e2facf98e)" d="M 280.222292 24.313518 
L 280.249329 24.320277 
L 280.272919 24.326174 
L 280.286633 24.329603 
L 280.31402 24.33645 
L 280.324884 24.339166 
L 280.350348 24.345532 
L 280.36613 24.349477 
L 280.400614 24.358098 
L 280.417246 24.362256 
L 280.433761 24.366385 
L 280.455673 24.371863 
L 280.490524 24.380576 
L 280.493616 24.381349 
L 280.518539 24.387579 
L 280.53649 24.392067 
L 280.571003 24.400696 
L 280.586921 24.404675 
L 280.619729 24.412877 
L 280.626383 24.414541 
L 280.652167 24.420986 
L 280.664425 24.424051 
L 280.69708 24.432215 
L 280.720283 24.438016 
L 280.745709 24.444372 
L 280.753475 24.446313 
L 280.787809 24.454897 
L 280.806391 24.459543 
L 280.827247 24.464757 
L 280.846103 24.469471 
L 280.856494 24.472068 
L 280.89562 24.48185 
L 280.9087 24.48512 
L 280.933086 24.491216 
L 280.956816 24.497149 
L 280.973388 24.501292 
L 280.99903 24.507702 
L 281.02182 24.5134 
L 281.033963 24.516436 
L 281.050549 24.520582 
L 281.092311 24.531022 
L 281.103775 24.533889 
L 281.115302 24.53677 
L 281.146261 24.54451 
L 281.169036 24.550204 
L 281.181785 24.553391 
L 281.200544 24.558081 
L 281.239531 24.567828 
L 281.262089 24.573467 
L 281.273736 24.576379 
L 281.296186 24.581991 
L 281.328649 24.590107 
L 281.32982 24.5904 
L 281.354446 24.596556 
L 281.381546 24.603331 
L 281.407355 24.609784 
L 281.430205 24.615496 
L 281.440956 24.618184 
L 281.466318 24.624524 
L 281.4937 24.63137 
L 281.51309 24.636217 
L 281.542816 24.643649 
L 281.546775 24.644639 
L 281.578401 24.652545 
L 281.58736 24.654785 
L 281.613902 24.66142 
L 281.633582 24.66634 
L 281.661322 24.673275 
L 281.693908 24.681422 
L 281.711698 24.685869 
L 281.72729 24.689767 
L 281.752054 24.695958 
L 281.773201 24.701245 
L 281.784973 24.704188 
L 281.806678 24.709614 
L 281.841849 24.718407 
L 281.860371 24.723037 
L 281.877328 24.727277 
L 281.902928 24.733677 
L 281.926371 24.739538 
L 281.951203 24.745745 
L 281.971885 24.750916 
L 281.981351 24.753282 
L 282.005664 24.759361 
L 282.024575 24.764089 
L 282.046875 24.769663 
L 282.064985 24.774191 
L 282.099872 24.782913 
L 282.115792 24.786893 
L 282.136299 24.79202 
L 282.155195 24.796743 
L 282.187831 24.804902 
L 282.18909 24.805217 
L 282.230864 24.815661 
" style="fill:none;stroke:#00ffff;stroke-linecap:square;stroke-width:2;"/>
   </g>
   <g id="line2d_8">
    <path clip-path="url(#p0e2facf98e)" d="M 282.278384 24.827541 
L 282.302639 24.833605 
L 282.333489 24.841317 
L 282.352184 24.845991 
L 282.36325 24.848757 
L 282.393149 24.856232 
L 282.420667 24.863111 
L 282.43533 24.866777 
L 282.461527 24.873326 
L 282.480038 24.877954 
L 282.507765 24.884886 
L 282.51356 24.886335 
L 282.553125 24.896226 
L 282.554843 24.896655 
L 282.592688 24.906117 
L 282.599927 24.907926 
L 282.624999 24.914194 
L 282.649294 24.920268 
L 282.674051 24.926458 
L 282.699754 24.932883 
L 282.717175 24.937238 
L 282.729133 24.940228 
L 282.763309 24.948772 
L 282.790309 24.955522 
L 282.805223 24.959251 
L 282.824099 24.96397 
L 282.841699 24.968369 
L 282.869859 24.975409 
L 282.887214 24.979748 
L 282.905843 24.984406 
L 282.926586 24.989591 
L 282.957358 24.997284 
L 282.973776 25.001389 
L 282.995564 25.006836 
L 283.010638 25.010604 
L 283.040647 25.018107 
L 283.054236 25.021504 
L 283.081854 25.028408 
L 283.093704 25.031371 
L 283.123819 25.0389 
L 283.140144 25.042981 
L 283.168232 25.050003 
L 283.187425 25.054801 
L 283.219067 25.062711 
L 283.221471 25.063312 
L 283.2463 25.06952 
L 283.27018 25.07549 
L 283.286004 25.079446 
L 283.31649 25.087067 
L 283.344436 25.094054 
L 283.370891 25.100667 
L 283.377852 25.102408 
L 283.4051 25.10922 
L 283.425588 25.114342 
L 283.456927 25.122176 
L 283.474289 25.126517 
L 283.491105 25.130721 
L 283.516796 25.137144 
L 283.534357 25.141534 
L 283.553132 25.146228 
L 283.58132 25.153275 
L 283.595794 25.156893 
L 283.612692 25.161118 
L 283.642483 25.168566 
L 283.662913 25.173673 
L 283.692185 25.180991 
L 283.711851 25.185908 
L 283.728752 25.190133 
L 283.744833 25.194153 
L 283.758206 25.197496 
L 283.78994 25.20543 
L 283.808072 25.209963 
L 283.842446 25.218556 
L 283.864127 25.223977 
L 283.88473 25.229127 
L 283.891582 25.23084 
L 283.908729 25.235127 
L 283.940244 25.243006 
L 283.95903 25.247702 
L 283.978022 25.25245 
L 284.006432 25.259553 
L 284.031841 25.265905 
L 284.049917 25.270424 
L 284.068608 25.275097 
L 284.090779 25.28064 
L 284.115202 25.286745 
L 284.139372 25.292788 
L 284.159969 25.297937 
L 284.17604 25.301955 
L 284.208603 25.310095 
L 284.22339 25.313792 
L 284.249384 25.320291 
L 284.263157 25.323734 
L 284.27746 25.32731 
L 284.311153 25.335733 
L 284.337339 25.34228 
L 284.35821 25.347497 
L 284.370531 25.350578 
L 284.400712 25.358123 
L 284.403379 25.358789 
L 284.437638 25.367354 
L 284.456879 25.372165 
L 284.467737 25.374879 
L 284.499679 25.382865 
" style="fill:none;stroke:#00ffff;stroke-linecap:square;stroke-width:2;"/>
   </g>
   <g id="line2d_9">
    <path clip-path="url(#p0e2facf98e)" d="M 288.777067 17.897436 
L 562.529887 86.335641 
L 562.529887 86.335641 
" style="fill:none;stroke:#00ffff;stroke-linecap:square;stroke-width:2;"/>
   </g>
   <g id="line2d_10">
    <path clip-path="url(#p0e2facf98e)" d="M 15.024247 86.335641 
L 19.301635 78.850212 
L 19.301635 78.850212 
" style="fill:none;stroke:#7f00ff;stroke-linecap:square;stroke-width:2;"/>
   </g>
   <g id="line2d_11">
    <path clip-path="url(#p0e2facf98e)" d="M 284.499679 25.382865 
L 288.777067 17.897436 
L 288.777067 17.897436 
" style="fill:none;stroke:#7f00ff;stroke-linecap:square;stroke-width:2;"/>
   </g>
   <g id="matplotlib.axis_1">
    <g id="xtick_1">
     <g id="line2d_12">
      <path clip-path="url(#p0e2facf98e)" d="M 15.024247 87.704405 
L 15.024247 16.528672 
" style="fill:none;stroke:#000000;stroke-dasharray:0.5,0.825;stroke-dashoffset:0;stroke-width:0.5;"/>
     </g>
     <g id="line2d_13">
      <defs>
       <path d="M 0 0 
L 0 3.5 
" id="m488fa3bc24" style="stroke:#000000;stroke-width:0.8;"/>
      </defs>
      <g>
       <use style="stroke:#000000;stroke-width:0.8;" x="15.024247" xlink:href="#m488fa3bc24" y="86.335641"/>
      </g>
     </g>
    </g>
    <g id="xtick_2">
     <g id="line2d_14">
      <path clip-path="url(#p0e2facf98e)" d="M 288.777067 87.704405 
L 288.777067 16.528672 
" style="fill:none;stroke:#000000;stroke-dasharray:0.5,0.825;stroke-dashoffset:0;stroke-width:0.5;"/>
     </g>
     <g id="line2d_15">
      <g>
       <use style="stroke:#000000;stroke-width:0.8;" x="288.777067" xlink:href="#m488fa3bc24" y="86.335641"/>
      </g>
     </g>
     <g id="text_1">
      <!-- $f$ -->
      <defs>
       <path d="M 9.71875 -16.5 
Q 11.578125 -17.921875 14.203125 -17.921875 
Q 17.78125 -17.921875 20.015625 -10.015625 
Q 20.953125 -6.203125 25.09375 15.09375 
L 29.6875 39.59375 
L 21.09375 39.59375 
Q 20.125 39.59375 20.125 40.921875 
Q 20.515625 43.109375 21.390625 43.109375 
L 30.328125 43.109375 
L 31.5 49.609375 
Q 32.078125 52.640625 32.5625 54.8125 
Q 33.0625 56.984375 33.625 58.828125 
Q 34.1875 60.6875 35.296875 62.984375 
Q 37.015625 66.265625 39.921875 68.390625 
Q 42.828125 70.515625 46.1875 70.515625 
Q 48.390625 70.515625 50.46875 69.703125 
Q 52.546875 68.890625 53.859375 67.28125 
Q 55.171875 65.671875 55.171875 63.484375 
Q 55.171875 60.9375 53.484375 59.046875 
Q 51.8125 57.171875 49.421875 57.171875 
Q 47.796875 57.171875 46.65625 58.171875 
Q 45.515625 59.1875 45.515625 60.796875 
Q 45.515625 62.984375 47 64.625 
Q 48.484375 66.265625 50.6875 66.5 
Q 48.828125 67.921875 46.09375 67.921875 
Q 44.578125 67.921875 43.234375 66.5 
Q 41.890625 65.09375 41.5 63.484375 
Q 40.875 60.9375 38.71875 49.703125 
L 37.5 43.109375 
L 47.796875 43.109375 
Q 48.78125 43.109375 48.78125 41.796875 
Q 48.734375 41.546875 48.578125 40.9375 
Q 48.4375 40.328125 48.171875 39.953125 
Q 47.90625 39.59375 47.515625 39.59375 
L 36.8125 39.59375 
L 32.171875 15.1875 
Q 31.296875 9.859375 30.140625 4.359375 
Q 29 -1.125 26.921875 -6.90625 
Q 24.859375 -12.703125 21.625 -16.609375 
Q 18.40625 -20.515625 14.015625 -20.515625 
Q 10.640625 -20.515625 7.984375 -18.578125 
Q 5.328125 -16.65625 5.328125 -13.484375 
Q 5.328125 -10.9375 6.953125 -9.046875 
Q 8.59375 -7.171875 11.078125 -7.171875 
Q 12.75 -7.171875 13.859375 -8.171875 
Q 14.984375 -9.1875 14.984375 -10.796875 
Q 14.984375 -12.9375 13.390625 -14.71875 
Q 11.8125 -16.5 9.71875 -16.5 
z
" id="Cmmi10-66"/>
      </defs>
      <g transform="translate(286.327067 100.913766)scale(0.1 -0.1)">
       <use transform="translate(0 0.484375)" xlink:href="#Cmmi10-66"/>
      </g>
     </g>
    </g>
    <g id="xtick_3">
     <g id="line2d_16">
      <path clip-path="url(#p0e2facf98e)" d="M 562.529887 87.704405 
L 562.529887 16.528672 
" style="fill:none;stroke:#000000;stroke-dasharray:0.5,0.825;stroke-dashoffset:0;stroke-width:0.5;"/>
     </g>
     <g id="line2d_17">
      <g>
       <use style="stroke:#000000;stroke-width:0.8;" x="562.529887" xlink:href="#m488fa3bc24" y="86.335641"/>
      </g>
     </g>
     <g id="text_2">
      <!-- $1$ -->
      <defs>
       <path d="M 9.28125 0 
L 9.28125 3.515625 
Q 21.78125 3.515625 21.78125 6.6875 
L 21.78125 59.1875 
Q 16.609375 56.6875 8.6875 56.6875 
L 8.6875 60.203125 
Q 20.953125 60.203125 27.203125 66.609375 
L 28.609375 66.609375 
Q 28.953125 66.609375 29.265625 66.328125 
Q 29.59375 66.0625 29.59375 65.71875 
L 29.59375 6.6875 
Q 29.59375 3.515625 42.09375 3.515625 
L 42.09375 0 
z
" id="Cmr10-31"/>
      </defs>
      <g transform="translate(560.029887 100.934078)scale(0.1 -0.1)">
       <use transform="translate(0 0.390625)" xlink:href="#Cmr10-31"/>
      </g>
     </g>
    </g>
   </g>
   <g id="matplotlib.axis_2">
    <g id="ytick_1">
     <g id="line2d_18">
      <path clip-path="url(#p0e2facf98e)" d="M 4.074135 86.335641 
L 573.48 86.335641 
" style="fill:none;stroke:#000000;stroke-dasharray:0.5,0.825;stroke-dashoffset:0;stroke-width:0.5;"/>
     </g>
     <g id="line2d_19">
      <defs>
       <path d="M 0 0 
L -3.5 0 
" id="m104391c2fe" style="stroke:#000000;stroke-width:0.8;"/>
      </defs>
      <g>
       <use style="stroke:#000000;stroke-width:0.8;" x="15.024247" xlink:href="#m104391c2fe" y="86.335641"/>
      </g>
     </g>
    </g>
    <g id="ytick_2">
     <g id="line2d_20">
      <path clip-path="url(#p0e2facf98e)" d="M 4.074135 17.897436 
L 573.48 17.897436 
" style="fill:none;stroke:#000000;stroke-dasharray:0.5,0.825;stroke-dashoffset:0;stroke-width:0.5;"/>
     </g>
     <g id="line2d_21">
      <g>
       <use style="stroke:#000000;stroke-width:0.8;" x="15.024247" xlink:href="#m104391c2fe" y="17.897436"/>
      </g>
     </g>
     <g id="text_3">
      <!-- $1$ -->
      <g transform="translate(3.024247 21.696655)scale(0.1 -0.1)">
       <use transform="translate(0 0.390625)" xlink:href="#Cmr10-31"/>
      </g>
     </g>
    </g>
   </g>
   <g id="patch_3">
    <path d="M 15.024247 87.704405 
L 15.024247 16.528672 
" style="fill:none;stroke:#000000;stroke-linecap:square;stroke-linejoin:miter;stroke-width:0.8;"/>
   </g>
   <g id="patch_4">
    <path d="M 4.074135 86.335641 
L 573.48 86.335641 
" style="fill:none;stroke:#000000;stroke-linecap:square;stroke-linejoin:miter;stroke-width:0.8;"/>
   </g>
  </g>
 </g>
 <defs>
  <clipPath id="p0e2facf98e">
   <rect height="71.175733" width="569.405865" x="4.074135" y="16.528672"/>
  </clipPath>
 </defs>
</svg>
