<?xml version="1.0" encoding="utf-8" standalone="no"?>
<!DOCTYPE svg PUBLIC "-//W3C//DTD SVG 1.1//EN"
  "http://www.w3.org/Graphics/SVG/1.1/DTD/svg11.dtd">
<!-- Created with matplotlib (http://matplotlib.org/) -->
<svg height="108pt" version="1.1" viewBox="0 0 576 108" width="576pt" xmlns="http://www.w3.org/2000/svg" xmlns:xlink="http://www.w3.org/1999/xlink">
 <defs>
  <style type="text/css">
*{stroke-linecap:butt;stroke-linejoin:round;}
  </style>
 </defs>
 <g id="figure_1">
  <g id="patch_1">
   <path d="M 0 108 
L 576 108 
L 576 0 
L 0 0 
z
" style="fill:#ffffff;"/>
  </g>
  <g id="axes_1">
   <g id="patch_2">
    <path d="M 4.074135 87.704405 
L 573.48 87.704405 
L 573.48 16.528672 
L 4.074135 16.528672 
z
" style="fill:#ffffff;"/>
   </g>
   <g id="line2d_1">
    <path clip-path="url(#p2715de0cb7)" d="M 114.570727 62.09711 
L 164.343967 42.135967 
L 164.343967 42.135967 
" style="fill:none;stroke:#ff0000;stroke-linecap:square;stroke-width:2;"/>
   </g>
   <g id="line2d_2">
    <path clip-path="url(#p2715de0cb7)" d="M 313.663687 60.671314 
L 388.323547 30.729599 
L 388.323547 30.729599 
" style="fill:none;stroke:#ff0000;stroke-linecap:square;stroke-width:2;"/>
   </g>
   <g id="line2d_3">
    <path clip-path="url(#p2715de0cb7)" d="M 438.096787 73.503478 
L 512.756647 43.561763 
L 512.756647 43.561763 
" style="fill:none;stroke:#ff0000;stroke-linecap:square;stroke-width:2;"/>
   </g>
   <g id="line2d_4">
    <path clip-path="url(#p2715de0cb7)" d="M 15.024247 86.335641 
L 15.151764 86.043415 
L 15.221511 85.883578 
L 15.343377 85.604302 
L 15.478802 85.293953 
L 15.681382 84.829707 
L 15.834891 84.477915 
L 15.891053 84.349212 
L 15.998915 84.102027 
L 16.125992 83.810811 
L 16.278955 83.46027 
L 16.448768 83.071114 
L 16.488249 82.980637 
L 16.700406 82.494444 
L 16.792134 82.284234 
L 16.879953 82.082982 
L 16.983011 81.846809 
L 17.106036 81.564875 
L 17.266857 81.196327 
L 17.360584 80.981536 
L 17.47419 80.721189 
L 17.694352 80.216652 
L 17.735224 80.122986 
L 17.908408 79.726106 
L 18.043241 79.417115 
L 18.130437 79.21729 
L 18.222735 79.005774 
L 18.436402 78.516121 
L 18.49854 78.373721 
L 18.701762 77.908003 
L 18.791456 77.702454 
L 18.896197 77.462424 
L 18.968714 77.296238 
L 19.191039 76.786743 
L 19.302335 76.531689 
L 19.372236 76.3715 
L 19.586818 75.879749 
L 19.655749 75.721783 
L 19.802043 75.386527 
L 19.847189 75.283065 
L 19.997793 74.937933 
L 20.213236 74.444208 
L 20.302696 74.239196 
L 20.403535 74.008106 
L 20.500963 73.784835 
L 20.635098 73.477441 
L 20.760102 73.190975 
L 20.86479 72.951064 
L 21.072749 72.474492 
L 21.130038 72.343203 
L 21.219319 72.138603 
L 21.356957 71.823182 
L 21.564946 71.34654 
L 21.616472 71.228459 
L 21.81834 70.765846 
L 21.84654 70.701221 
L 22.030714 70.279154 
L 22.121236 70.07171 
L 22.230684 69.820889 
L 22.370512 69.500451 
L 22.567046 69.050061 
L 22.694258 68.758534 
L 22.73286 68.67007 
L 22.848383 68.40533 
L 23.043254 67.958751 
L 23.1957 67.609396 
L 23.223233 67.5463 
L 23.410017 67.118252 
L 23.510819 66.887249 
L 23.635446 66.601644 
L 23.759699 66.316899 
L 23.965568 65.845115 
L 23.989677 65.789865 
L 24.128949 65.470701 
L 24.22385 65.253219 
L 24.465392 64.699684 
L 24.515771 64.584233 
L 24.594202 64.404496 
L 24.810699 63.908356 
L 24.855434 63.805839 
L 25.083253 63.283754 
L 25.170026 63.084898 
L 25.228016 62.952004 
L 25.465798 62.407087 
L 25.580696 62.14378 
L 25.679607 61.917108 
L 25.786909 61.671208 
" style="fill:none;stroke:#cbff00;stroke-linecap:square;stroke-width:2;"/>
   </g>
   <g id="line2d_5">
    <path clip-path="url(#p2715de0cb7)" d="M 26.170773 60.791519 
L 26.227621 60.661242 
L 26.428291 60.201374 
L 26.483263 60.075397 
L 26.654296 59.683445 
L 26.831965 59.276287 
L 26.870069 59.188967 
L 27.070057 58.730661 
L 27.153552 58.539318 
L 27.288314 58.230487 
L 27.438318 57.886729 
L 27.582649 57.555972 
L 27.630413 57.446511 
L 27.727947 57.222995 
L 27.899099 56.830773 
L 27.979655 56.646166 
L 28.164807 56.22186 
L 28.26554 55.991012 
L 28.355271 55.785378 
L 28.504873 55.442542 
L 28.603046 55.217562 
L 28.819166 54.722287 
L 28.931141 54.465677 
L 28.980893 54.35166 
L 29.140001 53.987039 
L 29.280902 53.664141 
L 29.451953 53.27215 
L 29.473593 53.222557 
L 29.702147 52.698787 
L 29.818666 52.431764 
L 29.905549 52.232659 
L 30.022891 51.963749 
L 30.130294 51.717618 
L 30.331692 51.256079 
L 30.3764 51.153625 
L 30.555848 50.74239 
L 30.644284 50.539723 
L 30.799614 50.18376 
L 30.945348 49.849785 
L 31.041732 49.628906 
L 31.143725 49.39517 
L 31.269252 49.107506 
L 31.425496 48.749445 
L 31.513786 48.547116 
L 31.673508 48.181085 
L 31.773455 47.95204 
L 31.874239 47.721078 
L 32.030638 47.362663 
L 32.133871 47.126088 
L 32.323786 46.690866 
L 32.452101 46.396811 
L 32.51499 46.25269 
L 32.699373 45.830144 
L 32.813533 45.568527 
L 32.868764 45.441956 
L 32.990726 45.16246 
L 33.183888 44.719798 
L 33.344424 44.351903 
L 33.360905 44.314133 
L 33.576037 43.821124 
L 33.612283 43.73806 
L 33.732259 43.463115 
L 33.870004 43.147448 
L 34.010413 42.825678 
L 34.19484 42.403033 
L 34.284355 42.197895 
L 34.365985 42.010825 
L 34.516331 41.666283 
L 34.634989 41.394359 
L 34.814661 40.982609 
L 34.878682 40.835894 
L 34.996905 40.564968 
L 35.162165 40.186247 
L 35.342877 39.772116 
L 35.398048 39.645681 
L 35.50613 39.397994 
L 35.701311 38.950704 
L 35.726952 38.891942 
L 35.934201 38.416998 
L 36.039908 38.174752 
L 36.176409 37.861937 
L 36.297971 37.583357 
L 36.37938 37.396795 
L 36.473769 37.180488 
L 36.600102 36.890974 
L 36.756801 36.531873 
L 36.881776 36.245471 
L 37.091557 35.764724 
L 37.205149 35.504408 
L 37.300104 35.286803 
L 37.454868 34.932135 
L 37.554666 34.703432 
L 37.641692 34.503997 
L 37.753418 34.247959 
L 37.877979 33.962506 
L 38.06573 33.532242 
L 38.108639 33.43391 
L 38.310583 32.971121 
L 38.399644 32.767023 
L 38.567728 32.381831 
L 38.598181 32.312044 
L 38.731895 32.005615 
L 38.970494 31.458827 
L 39.089318 31.18652 
L 39.098156 31.166268 
L 39.341491 30.608625 
L 39.446994 30.366846 
L 39.553315 30.123196 
L 39.606838 30.000538 
L 39.806371 29.543275 
L 39.910867 29.303803 
" style="fill:none;stroke:#cbff00;stroke-linecap:square;stroke-width:2;"/>
   </g>
   <g id="line2d_6">
    <path clip-path="url(#p2715de0cb7)" d="M 239.003827 74.929273 
L 263.890447 17.897436 
L 263.890447 17.897436 
" style="fill:none;stroke:#cbff00;stroke-linecap:square;stroke-width:2;"/>
   </g>
   <g id="line2d_7">
    <path clip-path="url(#p2715de0cb7)" d="M 263.890447 17.897436 
L 288.777067 54.96813 
L 288.777067 54.96813 
" style="fill:none;stroke:#00ff66;stroke-linecap:square;stroke-width:2;"/>
   </g>
   <g id="line2d_8">
    <path clip-path="url(#p2715de0cb7)" d="M 537.643267 49.264947 
L 562.529887 86.335641 
L 562.529887 86.335641 
" style="fill:none;stroke:#00ff66;stroke-linecap:square;stroke-width:2;"/>
   </g>
   <g id="line2d_9">
    <path clip-path="url(#p2715de0cb7)" d="M 64.797487 35.006987 
L 89.684107 56.393926 
L 89.684107 56.393926 
" style="fill:none;stroke:#0066ff;stroke-linecap:square;stroke-width:2;"/>
   </g>
   <g id="line2d_10">
    <path clip-path="url(#p2715de0cb7)" d="M 189.230587 47.839151 
L 214.117207 69.22609 
L 214.117207 69.22609 
" style="fill:none;stroke:#0066ff;stroke-linecap:square;stroke-width:2;"/>
   </g>
   <g id="line2d_11">
    <path clip-path="url(#p2715de0cb7)" d="M 388.323547 30.729599 
L 438.096787 73.503478 
L 438.096787 73.503478 
" style="fill:none;stroke:#0066ff;stroke-linecap:square;stroke-width:2;"/>
   </g>
   <g id="line2d_12">
    <path clip-path="url(#p2715de0cb7)" d="M 39.910867 29.303803 
L 64.797487 35.006987 
L 64.797487 35.006987 
" style="fill:none;stroke:#cc00ff;stroke-linecap:square;stroke-width:2;"/>
   </g>
   <g id="line2d_13">
    <path clip-path="url(#p2715de0cb7)" d="M 89.684107 56.393926 
L 114.570727 62.09711 
L 114.570727 62.09711 
" style="fill:none;stroke:#cc00ff;stroke-linecap:square;stroke-width:2;"/>
   </g>
   <g id="line2d_14">
    <path clip-path="url(#p2715de0cb7)" d="M 164.343967 42.135967 
L 189.230587 47.839151 
L 189.230587 47.839151 
" style="fill:none;stroke:#cc00ff;stroke-linecap:square;stroke-width:2;"/>
   </g>
   <g id="line2d_15">
    <path clip-path="url(#p2715de0cb7)" d="M 214.117207 69.22609 
L 239.003827 74.929273 
L 239.003827 74.929273 
" style="fill:none;stroke:#cc00ff;stroke-linecap:square;stroke-width:2;"/>
   </g>
   <g id="line2d_16">
    <path clip-path="url(#p2715de0cb7)" d="M 288.777067 54.96813 
L 313.663687 60.671314 
L 313.663687 60.671314 
" style="fill:none;stroke:#cc00ff;stroke-linecap:square;stroke-width:2;"/>
   </g>
   <g id="line2d_17">
    <path clip-path="url(#p2715de0cb7)" d="M 512.756647 43.561763 
L 537.643267 49.264947 
L 537.643267 49.264947 
" style="fill:none;stroke:#cc00ff;stroke-linecap:square;stroke-width:2;"/>
   </g>
   <g id="matplotlib.axis_1">
    <g id="xtick_1">
     <g id="line2d_18">
      <path clip-path="url(#p2715de0cb7)" d="M 15.024247 87.704405 
L 15.024247 16.528672 
" style="fill:none;stroke:#000000;stroke-dasharray:0.5,0.825;stroke-dashoffset:0;stroke-width:0.5;"/>
     </g>
     <g id="line2d_19">
      <defs>
       <path d="M 0 0 
L 0 3.5 
" id="m939c2eb1c0" style="stroke:#000000;stroke-width:0.8;"/>
      </defs>
      <g>
       <use style="stroke:#000000;stroke-width:0.8;" x="15.024247" xlink:href="#m939c2eb1c0" y="86.335641"/>
      </g>
     </g>
    </g>
    <g id="xtick_2">
     <g id="line2d_20">
      <path clip-path="url(#p2715de0cb7)" d="M 263.890447 87.704405 
L 263.890447 16.528672 
" style="fill:none;stroke:#000000;stroke-dasharray:0.5,0.825;stroke-dashoffset:0;stroke-width:0.5;"/>
     </g>
     <g id="line2d_21">
      <g>
       <use style="stroke:#000000;stroke-width:0.8;" x="263.890447" xlink:href="#m939c2eb1c0" y="86.335641"/>
      </g>
     </g>
     <g id="text_1">
      <!-- $f$ -->
      <defs>
       <path d="M 9.71875 -16.5 
Q 11.578125 -17.921875 14.203125 -17.921875 
Q 17.78125 -17.921875 20.015625 -10.015625 
Q 20.953125 -6.203125 25.09375 15.09375 
L 29.6875 39.59375 
L 21.09375 39.59375 
Q 20.125 39.59375 20.125 40.921875 
Q 20.515625 43.109375 21.390625 43.109375 
L 30.328125 43.109375 
L 31.5 49.609375 
Q 32.078125 52.640625 32.5625 54.8125 
Q 33.0625 56.984375 33.625 58.828125 
Q 34.1875 60.6875 35.296875 62.984375 
Q 37.015625 66.265625 39.921875 68.390625 
Q 42.828125 70.515625 46.1875 70.515625 
Q 48.390625 70.515625 50.46875 69.703125 
Q 52.546875 68.890625 53.859375 67.28125 
Q 55.171875 65.671875 55.171875 63.484375 
Q 55.171875 60.9375 53.484375 59.046875 
Q 51.8125 57.171875 49.421875 57.171875 
Q 47.796875 57.171875 46.65625 58.171875 
Q 45.515625 59.1875 45.515625 60.796875 
Q 45.515625 62.984375 47 64.625 
Q 48.484375 66.265625 50.6875 66.5 
Q 48.828125 67.921875 46.09375 67.921875 
Q 44.578125 67.921875 43.234375 66.5 
Q 41.890625 65.09375 41.5 63.484375 
Q 40.875 60.9375 38.71875 49.703125 
L 37.5 43.109375 
L 47.796875 43.109375 
Q 48.78125 43.109375 48.78125 41.796875 
Q 48.734375 41.546875 48.578125 40.9375 
Q 48.4375 40.328125 48.171875 39.953125 
Q 47.90625 39.59375 47.515625 39.59375 
L 36.8125 39.59375 
L 32.171875 15.1875 
Q 31.296875 9.859375 30.140625 4.359375 
Q 29 -1.125 26.921875 -6.90625 
Q 24.859375 -12.703125 21.625 -16.609375 
Q 18.40625 -20.515625 14.015625 -20.515625 
Q 10.640625 -20.515625 7.984375 -18.578125 
Q 5.328125 -16.65625 5.328125 -13.484375 
Q 5.328125 -10.9375 6.953125 -9.046875 
Q 8.59375 -7.171875 11.078125 -7.171875 
Q 12.75 -7.171875 13.859375 -8.171875 
Q 14.984375 -9.1875 14.984375 -10.796875 
Q 14.984375 -12.9375 13.390625 -14.71875 
Q 11.8125 -16.5 9.71875 -16.5 
z
" id="Cmmi10-66"/>
      </defs>
      <g transform="translate(261.440447 100.913766)scale(0.1 -0.1)">
       <use transform="translate(0 0.484375)" xlink:href="#Cmmi10-66"/>
      </g>
     </g>
    </g>
    <g id="xtick_3">
     <g id="line2d_22">
      <path clip-path="url(#p2715de0cb7)" d="M 562.529887 87.704405 
L 562.529887 16.528672 
" style="fill:none;stroke:#000000;stroke-dasharray:0.5,0.825;stroke-dashoffset:0;stroke-width:0.5;"/>
     </g>
     <g id="line2d_23">
      <g>
       <use style="stroke:#000000;stroke-width:0.8;" x="562.529887" xlink:href="#m939c2eb1c0" y="86.335641"/>
      </g>
     </g>
     <g id="text_2">
      <!-- $1$ -->
      <defs>
       <path d="M 9.28125 0 
L 9.28125 3.515625 
Q 21.78125 3.515625 21.78125 6.6875 
L 21.78125 59.1875 
Q 16.609375 56.6875 8.6875 56.6875 
L 8.6875 60.203125 
Q 20.953125 60.203125 27.203125 66.609375 
L 28.609375 66.609375 
Q 28.953125 66.609375 29.265625 66.328125 
Q 29.59375 66.0625 29.59375 65.71875 
L 29.59375 6.6875 
Q 29.59375 3.515625 42.09375 3.515625 
L 42.09375 0 
z
" id="Cmr10-31"/>
      </defs>
      <g transform="translate(560.029887 100.934078)scale(0.1 -0.1)">
       <use transform="translate(0 0.390625)" xlink:href="#Cmr10-31"/>
      </g>
     </g>
    </g>
   </g>
   <g id="matplotlib.axis_2">
    <g id="ytick_1">
     <g id="line2d_24">
      <path clip-path="url(#p2715de0cb7)" d="M 4.074135 86.335641 
L 573.48 86.335641 
" style="fill:none;stroke:#000000;stroke-dasharray:0.5,0.825;stroke-dashoffset:0;stroke-width:0.5;"/>
     </g>
     <g id="line2d_25">
      <defs>
       <path d="M 0 0 
L -3.5 0 
" id="m633b844a7c" style="stroke:#000000;stroke-width:0.8;"/>
      </defs>
      <g>
       <use style="stroke:#000000;stroke-width:0.8;" x="15.024247" xlink:href="#m633b844a7c" y="86.335641"/>
      </g>
     </g>
    </g>
    <g id="ytick_2">
     <g id="line2d_26">
      <path clip-path="url(#p2715de0cb7)" d="M 4.074135 17.897436 
L 573.48 17.897436 
" style="fill:none;stroke:#000000;stroke-dasharray:0.5,0.825;stroke-dashoffset:0;stroke-width:0.5;"/>
     </g>
     <g id="line2d_27">
      <g>
       <use style="stroke:#000000;stroke-width:0.8;" x="15.024247" xlink:href="#m633b844a7c" y="17.897436"/>
      </g>
     </g>
     <g id="text_3">
      <!-- $1$ -->
      <g transform="translate(3.024247 21.696655)scale(0.1 -0.1)">
       <use transform="translate(0 0.390625)" xlink:href="#Cmr10-31"/>
      </g>
     </g>
    </g>
   </g>
   <g id="patch_3">
    <path d="M 15.024247 87.704405 
L 15.024247 16.528672 
" style="fill:none;stroke:#000000;stroke-linecap:square;stroke-linejoin:miter;stroke-width:0.8;"/>
   </g>
   <g id="patch_4">
    <path d="M 4.074135 86.335641 
L 573.48 86.335641 
" style="fill:none;stroke:#000000;stroke-linecap:square;stroke-linejoin:miter;stroke-width:0.8;"/>
   </g>
  </g>
 </g>
 <defs>
  <clipPath id="p2715de0cb7">
   <rect height="71.175733" width="569.405865" x="4.074135" y="16.528672"/>
  </clipPath>
 </defs>
</svg>
