<?xml version="1.0" encoding="utf-8" standalone="no"?>
<!DOCTYPE svg PUBLIC "-//W3C//DTD SVG 1.1//EN"
  "http://www.w3.org/Graphics/SVG/1.1/DTD/svg11.dtd">
<!-- Created with matplotlib (http://matplotlib.org/) -->
<svg height="108pt" version="1.1" viewBox="0 0 576 108" width="576pt" xmlns="http://www.w3.org/2000/svg" xmlns:xlink="http://www.w3.org/1999/xlink">
 <defs>
  <style type="text/css">
*{stroke-linecap:butt;stroke-linejoin:round;}
  </style>
 </defs>
 <g id="figure_1">
  <g id="patch_1">
   <path d="M 0 108 
L 576 108 
L 576 0 
L 0 0 
z
" style="fill:#ffffff;"/>
  </g>
  <g id="axes_1">
   <g id="patch_2">
    <path d="M 4.074135 87.704405 
L 573.48 87.704405 
L 573.48 16.528672 
L 4.074135 16.528672 
z
" style="fill:#ffffff;"/>
   </g>
   <g id="line2d_1">
    <path clip-path="url(#p3d042ec7b9)" d="M 34.57802 52.116538 
L 54.131793 52.116538 
L 54.131793 52.116538 
" style="fill:none;stroke:#ff0000;stroke-linecap:square;stroke-width:2;"/>
   </g>
   <g id="line2d_2">
    <path clip-path="url(#p3d042ec7b9)" d="M 73.685566 35.006987 
L 112.793112 35.006987 
L 112.793112 35.006987 
" style="fill:none;stroke:#ff0000;stroke-linecap:square;stroke-width:2;"/>
   </g>
   <g id="line2d_3">
    <path clip-path="url(#p3d042ec7b9)" d="M 132.346885 52.116538 
L 171.45443 52.116538 
L 171.45443 52.116538 
" style="fill:none;stroke:#ff0000;stroke-linecap:square;stroke-width:2;"/>
   </g>
   <g id="line2d_4">
    <path clip-path="url(#p3d042ec7b9)" d="M 191.008203 69.22609 
L 230.115749 69.22609 
L 230.115749 69.22609 
" style="fill:none;stroke:#ff0000;stroke-linecap:square;stroke-width:2;"/>
   </g>
   <g id="line2d_5">
    <path clip-path="url(#p3d042ec7b9)" d="M 249.669522 52.116538 
L 269.223294 52.116538 
L 269.223294 52.116538 
" style="fill:none;stroke:#ff0000;stroke-linecap:square;stroke-width:2;"/>
   </g>
   <g id="line2d_6">
    <path clip-path="url(#p3d042ec7b9)" d="M 347.438386 52.116538 
L 366.992159 52.116538 
L 366.992159 52.116538 
" style="fill:none;stroke:#ff0000;stroke-linecap:square;stroke-width:2;"/>
   </g>
   <g id="line2d_7">
    <path clip-path="url(#p3d042ec7b9)" d="M 406.099704 52.116538 
L 445.20725 52.116538 
L 445.20725 52.116538 
" style="fill:none;stroke:#ff0000;stroke-linecap:square;stroke-width:2;"/>
   </g>
   <g id="line2d_8">
    <path clip-path="url(#p3d042ec7b9)" d="M 484.314796 52.116538 
L 503.868569 52.116538 
L 503.868569 52.116538 
" style="fill:none;stroke:#ff0000;stroke-linecap:square;stroke-width:2;"/>
   </g>
   <g id="line2d_9">
    <path clip-path="url(#p3d042ec7b9)" d="M 112.793112 35.006987 
L 132.346885 52.116538 
L 132.346885 52.116538 
" style="fill:none;stroke:#cbff00;stroke-linecap:square;stroke-width:2;"/>
   </g>
   <g id="line2d_10">
    <path clip-path="url(#p3d042ec7b9)" d="M 171.45443 52.116538 
L 191.008203 69.22609 
L 191.008203 69.22609 
" style="fill:none;stroke:#cbff00;stroke-linecap:square;stroke-width:2;"/>
   </g>
   <g id="line2d_11">
    <path clip-path="url(#p3d042ec7b9)" d="M 327.884613 35.006987 
L 328.015849 35.121819 
L 328.116734 35.210093 
L 328.204927 35.287262 
L 328.261096 35.336409 
L 328.356552 35.419934 
L 328.441482 35.494248 
L 328.523987 35.566439 
L 328.714845 35.73344 
L 328.794881 35.803471 
L 328.874586 35.873214 
L 329.006257 35.988426 
L 329.078896 36.051985 
L 329.174062 36.135255 
L 329.211471 36.167988 
L 329.335007 36.276082 
L 329.470706 36.394819 
L 329.510735 36.429844 
L 329.694861 36.590955 
L 329.747292 36.636832 
L 329.895881 36.766847 
L 329.961876 36.824592 
L 330.058322 36.908982 
L 330.184548 37.01943 
L 330.256352 37.082259 
L 330.303542 37.12355 
L 330.469815 37.269039 
L 330.517832 37.311053 
L 330.637651 37.415896 
L 330.72557 37.492824 
L 330.851137 37.602696 
L 330.894894 37.640983 
L 331.039742 37.767725 
L 331.084072 37.806514 
L 331.179115 37.889676 
L 331.321431 38.014203 
L 331.439691 38.117681 
L 331.557656 38.2209 
L 331.642193 38.294869 
L 331.690609 38.337233 
L 331.79314 38.426948 
L 331.89216 38.513591 
L 332.052638 38.654009 
L 332.153415 38.742189 
L 332.181689 38.766929 
L 332.270824 38.844922 
L 332.361094 38.923908 
L 332.541544 39.081802 
L 332.605817 39.138041 
L 332.729227 39.246025 
L 332.788851 39.298196 
L 332.926445 39.41859 
L 333.009934 39.491643 
L 333.079956 39.552912 
L 333.202332 39.659992 
L 333.253654 39.704898 
L 333.345139 39.784947 
L 333.450351 39.877008 
L 333.60031 40.008222 
L 333.652025 40.053472 
L 333.734295 40.125459 
L 333.914859 40.283452 
L 334.020544 40.375927 
L 334.06144 40.411711 
L 334.124768 40.467123 
L 334.276574 40.599954 
L 334.332286 40.648701 
L 334.439507 40.74252 
L 334.519353 40.812384 
L 334.641492 40.919257 
L 334.730053 40.996747 
L 334.814881 41.070972 
L 334.916563 41.159943 
L 335.049496 41.27626 
L 335.192872 41.401714 
L 335.215817 41.421791 
L 335.394289 41.577954 
L 335.41366 41.594903 
L 335.544361 41.709266 
L 335.687052 41.834122 
L 335.753257 41.892051 
L 335.866632 41.991254 
L 335.953649 42.067394 
L 336.085087 42.182402 
L 336.145725 42.23546 
L 336.22112 42.301431 
L 336.348085 42.412525 
L 336.478734 42.526843 
L 336.541728 42.581963 
L 336.600189 42.633116 
L 336.719021 42.737095 
" style="fill:none;stroke:#cbff00;stroke-linecap:square;stroke-width:2;"/>
   </g>
   <g id="line2d_12">
    <path clip-path="url(#p3d042ec7b9)" d="M 337.037671 43.015913 
L 337.089653 43.061397 
L 337.212572 43.168952 
L 337.339263 43.279806 
L 337.433499 43.362262 
L 337.486616 43.408739 
L 337.656851 43.557696 
L 337.673951 43.572658 
L 337.801269 43.684061 
L 337.858737 43.734346 
L 338.011614 43.868113 
L 338.072573 43.921452 
L 338.182803 44.017904 
L 338.330061 44.146754 
L 338.396973 44.205302 
L 338.53092 44.322506 
L 338.555781 44.344259 
L 338.741734 44.506968 
L 338.798716 44.556827 
L 338.88724 44.634286 
L 338.976774 44.712628 
L 339.039452 44.767472 
L 339.194375 44.903029 
L 339.29355 44.989807 
L 339.423584 45.103587 
L 339.480631 45.153503 
L 339.58899 45.248317 
L 339.70665 45.351269 
L 339.796793 45.430145 
L 339.845435 45.472707 
L 339.999059 45.607127 
L 340.082344 45.680002 
L 340.136498 45.727387 
L 340.245524 45.822784 
L 340.326126 45.893311 
L 340.423825 45.978798 
L 340.56131 46.099097 
L 340.67315 46.196957 
L 340.721053 46.238872 
L 340.809658 46.316402 
L 340.983616 46.468615 
L 341.008236 46.490158 
L 341.117474 46.58574 
L 341.274001 46.722701 
L 341.327921 46.769882 
L 341.400906 46.833743 
L 341.531425 46.947948 
L 341.634444 47.03809 
L 341.707491 47.102006 
L 341.840372 47.218276 
L 341.921555 47.289312 
L 342.019374 47.374903 
L 342.158519 47.496655 
L 342.186448 47.521093 
L 342.32393 47.641389 
L 342.385795 47.695522 
L 342.498319 47.79398 
L 342.584775 47.869629 
L 342.770848 48.032443 
L 342.810304 48.066967 
L 342.962386 48.200039 
L 343.0245 48.254389 
L 343.070351 48.294508 
L 343.251677 48.453168 
L 343.289963 48.486669 
L 343.385916 48.570627 
L 343.518947 48.68703 
L 343.640977 48.793806 
L 343.671303 48.820341 
L 343.83295 48.961782 
L 343.931506 49.048018 
L 344.021832 49.127054 
L 344.098849 49.194444 
L 344.220639 49.30101 
L 344.286015 49.358214 
L 344.409999 49.4667 
L 344.470428 49.519576 
L 344.600685 49.63355 
L 344.694648 49.715768 
L 344.748605 49.762981 
L 344.914599 49.908225 
L 345.002099 49.984788 
L 345.114305 50.082968 
L 345.151024 50.115096 
L 345.301072 50.246388 
L 345.376124 50.312059 
L 345.472518 50.396404 
L 345.548296 50.46271 
L 345.673078 50.571894 
L 345.775156 50.661213 
L 345.839472 50.717489 
L 345.943338 50.808371 
L 346.032723 50.886583 
L 346.174964 51.011044 
L 346.250872 51.077464 
L 346.335009 51.151084 
L 346.463267 51.263309 
L 346.568329 51.355239 
L 346.651967 51.428422 
L 346.78891 51.548247 
L 346.889629 51.636376 
L 346.912283 51.656199 
L 347.00269 51.735304 
L 347.167206 51.879256 
L 347.248399 51.9503 
L 347.301453 51.996722 
L 347.438386 52.116538 
" style="fill:none;stroke:#cbff00;stroke-linecap:square;stroke-width:2;"/>
   </g>
   <g id="line2d_13">
    <path clip-path="url(#p3d042ec7b9)" d="M 366.992159 52.116538 
L 386.545932 69.22609 
L 386.545932 69.22609 
" style="fill:none;stroke:#cbff00;stroke-linecap:square;stroke-width:2;"/>
   </g>
   <g id="line2d_14">
    <path clip-path="url(#p3d042ec7b9)" d="M 464.761023 35.006987 
L 484.314796 52.116538 
L 484.314796 52.116538 
" style="fill:none;stroke:#cbff00;stroke-linecap:square;stroke-width:2;"/>
   </g>
   <g id="line2d_15">
    <path clip-path="url(#p3d042ec7b9)" d="M 503.868569 52.116538 
L 523.422342 69.22609 
L 523.422342 69.22609 
" style="fill:none;stroke:#cbff00;stroke-linecap:square;stroke-width:2;"/>
   </g>
   <g id="line2d_16">
    <path clip-path="url(#p3d042ec7b9)" d="M 288.777067 17.897436 
L 308.33084 69.22609 
L 308.33084 69.22609 
" style="fill:none;stroke:#00ff66;stroke-linecap:square;stroke-width:2;"/>
   </g>
   <g id="line2d_17">
    <path clip-path="url(#p3d042ec7b9)" d="M 542.976114 35.006987 
L 562.529887 86.335641 
L 562.529887 86.335641 
" style="fill:none;stroke:#00ff66;stroke-linecap:square;stroke-width:2;"/>
   </g>
   <g id="line2d_18">
    <path clip-path="url(#p3d042ec7b9)" d="M 15.024247 86.335641 
L 34.57802 52.116538 
L 34.57802 52.116538 
" style="fill:none;stroke:#0066ff;stroke-linecap:square;stroke-width:2;"/>
   </g>
   <g id="line2d_19">
    <path clip-path="url(#p3d042ec7b9)" d="M 269.223294 52.116538 
L 288.777067 17.897436 
L 288.777067 17.897436 
" style="fill:none;stroke:#0066ff;stroke-linecap:square;stroke-width:2;"/>
   </g>
   <g id="line2d_20">
    <path clip-path="url(#p3d042ec7b9)" d="M 308.33084 69.22609 
L 327.884613 35.006987 
L 327.884613 35.006987 
" style="fill:none;stroke:#0066ff;stroke-linecap:square;stroke-width:2;"/>
   </g>
   <g id="line2d_21">
    <path clip-path="url(#p3d042ec7b9)" d="M 523.422342 69.22609 
L 542.976114 35.006987 
L 542.976114 35.006987 
" style="fill:none;stroke:#0066ff;stroke-linecap:square;stroke-width:2;"/>
   </g>
   <g id="line2d_22">
    <path clip-path="url(#p3d042ec7b9)" d="M 54.131793 52.116538 
L 73.685566 35.006987 
L 73.685566 35.006987 
" style="fill:none;stroke:#cc00ff;stroke-linecap:square;stroke-width:2;"/>
   </g>
   <g id="line2d_23">
    <path clip-path="url(#p3d042ec7b9)" d="M 230.115749 69.22609 
L 249.669522 52.116538 
L 249.669522 52.116538 
" style="fill:none;stroke:#cc00ff;stroke-linecap:square;stroke-width:2;"/>
   </g>
   <g id="line2d_24">
    <path clip-path="url(#p3d042ec7b9)" d="M 386.545932 69.22609 
L 406.099704 52.116538 
L 406.099704 52.116538 
" style="fill:none;stroke:#cc00ff;stroke-linecap:square;stroke-width:2;"/>
   </g>
   <g id="line2d_25">
    <path clip-path="url(#p3d042ec7b9)" d="M 445.20725 52.116538 
L 464.761023 35.006987 
L 464.761023 35.006987 
" style="fill:none;stroke:#cc00ff;stroke-linecap:square;stroke-width:2;"/>
   </g>
   <g id="matplotlib.axis_1">
    <g id="xtick_1">
     <g id="line2d_26">
      <path clip-path="url(#p3d042ec7b9)" d="M 15.024247 87.704405 
L 15.024247 16.528672 
" style="fill:none;stroke:#000000;stroke-dasharray:0.5,0.825;stroke-dashoffset:0;stroke-width:0.5;"/>
     </g>
     <g id="line2d_27">
      <defs>
       <path d="M 0 0 
L 0 3.5 
" id="mbe1ff98b7d" style="stroke:#000000;stroke-width:0.8;"/>
      </defs>
      <g>
       <use style="stroke:#000000;stroke-width:0.8;" x="15.024247" xlink:href="#mbe1ff98b7d" y="86.335641"/>
      </g>
     </g>
    </g>
    <g id="xtick_2">
     <g id="line2d_28">
      <path clip-path="url(#p3d042ec7b9)" d="M 288.777067 87.704405 
L 288.777067 16.528672 
" style="fill:none;stroke:#000000;stroke-dasharray:0.5,0.825;stroke-dashoffset:0;stroke-width:0.5;"/>
     </g>
     <g id="line2d_29">
      <g>
       <use style="stroke:#000000;stroke-width:0.8;" x="288.777067" xlink:href="#mbe1ff98b7d" y="86.335641"/>
      </g>
     </g>
     <g id="text_1">
      <!-- $f$ -->
      <defs>
       <path d="M 9.71875 -16.5 
Q 11.578125 -17.921875 14.203125 -17.921875 
Q 17.78125 -17.921875 20.015625 -10.015625 
Q 20.953125 -6.203125 25.09375 15.09375 
L 29.6875 39.59375 
L 21.09375 39.59375 
Q 20.125 39.59375 20.125 40.921875 
Q 20.515625 43.109375 21.390625 43.109375 
L 30.328125 43.109375 
L 31.5 49.609375 
Q 32.078125 52.640625 32.5625 54.8125 
Q 33.0625 56.984375 33.625 58.828125 
Q 34.1875 60.6875 35.296875 62.984375 
Q 37.015625 66.265625 39.921875 68.390625 
Q 42.828125 70.515625 46.1875 70.515625 
Q 48.390625 70.515625 50.46875 69.703125 
Q 52.546875 68.890625 53.859375 67.28125 
Q 55.171875 65.671875 55.171875 63.484375 
Q 55.171875 60.9375 53.484375 59.046875 
Q 51.8125 57.171875 49.421875 57.171875 
Q 47.796875 57.171875 46.65625 58.171875 
Q 45.515625 59.1875 45.515625 60.796875 
Q 45.515625 62.984375 47 64.625 
Q 48.484375 66.265625 50.6875 66.5 
Q 48.828125 67.921875 46.09375 67.921875 
Q 44.578125 67.921875 43.234375 66.5 
Q 41.890625 65.09375 41.5 63.484375 
Q 40.875 60.9375 38.71875 49.703125 
L 37.5 43.109375 
L 47.796875 43.109375 
Q 48.78125 43.109375 48.78125 41.796875 
Q 48.734375 41.546875 48.578125 40.9375 
Q 48.4375 40.328125 48.171875 39.953125 
Q 47.90625 39.59375 47.515625 39.59375 
L 36.8125 39.59375 
L 32.171875 15.1875 
Q 31.296875 9.859375 30.140625 4.359375 
Q 29 -1.125 26.921875 -6.90625 
Q 24.859375 -12.703125 21.625 -16.609375 
Q 18.40625 -20.515625 14.015625 -20.515625 
Q 10.640625 -20.515625 7.984375 -18.578125 
Q 5.328125 -16.65625 5.328125 -13.484375 
Q 5.328125 -10.9375 6.953125 -9.046875 
Q 8.59375 -7.171875 11.078125 -7.171875 
Q 12.75 -7.171875 13.859375 -8.171875 
Q 14.984375 -9.1875 14.984375 -10.796875 
Q 14.984375 -12.9375 13.390625 -14.71875 
Q 11.8125 -16.5 9.71875 -16.5 
z
" id="Cmmi10-66"/>
      </defs>
      <g transform="translate(286.327067 100.913766)scale(0.1 -0.1)">
       <use transform="translate(0 0.484375)" xlink:href="#Cmmi10-66"/>
      </g>
     </g>
    </g>
    <g id="xtick_3">
     <g id="line2d_30">
      <path clip-path="url(#p3d042ec7b9)" d="M 562.529887 87.704405 
L 562.529887 16.528672 
" style="fill:none;stroke:#000000;stroke-dasharray:0.5,0.825;stroke-dashoffset:0;stroke-width:0.5;"/>
     </g>
     <g id="line2d_31">
      <g>
       <use style="stroke:#000000;stroke-width:0.8;" x="562.529887" xlink:href="#mbe1ff98b7d" y="86.335641"/>
      </g>
     </g>
     <g id="text_2">
      <!-- $1$ -->
      <defs>
       <path d="M 9.28125 0 
L 9.28125 3.515625 
Q 21.78125 3.515625 21.78125 6.6875 
L 21.78125 59.1875 
Q 16.609375 56.6875 8.6875 56.6875 
L 8.6875 60.203125 
Q 20.953125 60.203125 27.203125 66.609375 
L 28.609375 66.609375 
Q 28.953125 66.609375 29.265625 66.328125 
Q 29.59375 66.0625 29.59375 65.71875 
L 29.59375 6.6875 
Q 29.59375 3.515625 42.09375 3.515625 
L 42.09375 0 
z
" id="Cmr10-31"/>
      </defs>
      <g transform="translate(560.029887 100.934078)scale(0.1 -0.1)">
       <use transform="translate(0 0.390625)" xlink:href="#Cmr10-31"/>
      </g>
     </g>
    </g>
   </g>
   <g id="matplotlib.axis_2">
    <g id="ytick_1">
     <g id="line2d_32">
      <path clip-path="url(#p3d042ec7b9)" d="M 4.074135 86.335641 
L 573.48 86.335641 
" style="fill:none;stroke:#000000;stroke-dasharray:0.5,0.825;stroke-dashoffset:0;stroke-width:0.5;"/>
     </g>
     <g id="line2d_33">
      <defs>
       <path d="M 0 0 
L -3.5 0 
" id="mbe09892e26" style="stroke:#000000;stroke-width:0.8;"/>
      </defs>
      <g>
       <use style="stroke:#000000;stroke-width:0.8;" x="15.024247" xlink:href="#mbe09892e26" y="86.335641"/>
      </g>
     </g>
    </g>
    <g id="ytick_2">
     <g id="line2d_34">
      <path clip-path="url(#p3d042ec7b9)" d="M 4.074135 17.897436 
L 573.48 17.897436 
" style="fill:none;stroke:#000000;stroke-dasharray:0.5,0.825;stroke-dashoffset:0;stroke-width:0.5;"/>
     </g>
     <g id="line2d_35">
      <g>
       <use style="stroke:#000000;stroke-width:0.8;" x="15.024247" xlink:href="#mbe09892e26" y="17.897436"/>
      </g>
     </g>
     <g id="text_3">
      <!-- $1$ -->
      <g transform="translate(3.024247 21.696655)scale(0.1 -0.1)">
       <use transform="translate(0 0.390625)" xlink:href="#Cmr10-31"/>
      </g>
     </g>
    </g>
   </g>
   <g id="patch_3">
    <path d="M 15.024247 87.704405 
L 15.024247 16.528672 
" style="fill:none;stroke:#000000;stroke-linecap:square;stroke-linejoin:miter;stroke-width:0.8;"/>
   </g>
   <g id="patch_4">
    <path d="M 4.074135 86.335641 
L 573.48 86.335641 
" style="fill:none;stroke:#000000;stroke-linecap:square;stroke-linejoin:miter;stroke-width:0.8;"/>
   </g>
  </g>
 </g>
 <defs>
  <clipPath id="p3d042ec7b9">
   <rect height="71.175733" width="569.405865" x="4.074135" y="16.528672"/>
  </clipPath>
 </defs>
</svg>
