<?xml version="1.0" encoding="utf-8" standalone="no"?>
<!DOCTYPE svg PUBLIC "-//W3C//DTD SVG 1.1//EN"
  "http://www.w3.org/Graphics/SVG/1.1/DTD/svg11.dtd">
<!-- Created with matplotlib (http://matplotlib.org/) -->
<svg height="108pt" version="1.1" viewBox="0 0 576 108" width="576pt" xmlns="http://www.w3.org/2000/svg" xmlns:xlink="http://www.w3.org/1999/xlink">
 <defs>
  <style type="text/css">
*{stroke-linecap:butt;stroke-linejoin:round;}
  </style>
 </defs>
 <g id="figure_1">
  <g id="patch_1">
   <path d="M 0 108 
L 576 108 
L 576 0 
L 0 0 
z
" style="fill:#ffffff;"/>
  </g>
  <g id="axes_1">
   <g id="patch_2">
    <path d="M 4.074135 87.704405 
L 573.48 87.704405 
L 573.48 16.528672 
L 4.074135 16.528672 
z
" style="fill:#ffffff;"/>
   </g>
   <g id="line2d_1">
    <path clip-path="url(#p22eb5fcd94)" d="M 214.117207 17.897436 
L 239.003827 61.621845 
L 239.003827 61.621845 
" style="fill:none;stroke:#ff0000;stroke-linecap:square;stroke-width:2;"/>
   </g>
   <g id="line2d_2">
    <path clip-path="url(#p22eb5fcd94)" d="M 537.643267 42.611232 
L 562.529887 86.335641 
L 562.529887 86.335641 
" style="fill:none;stroke:#ff0000;stroke-linecap:square;stroke-width:2;"/>
   </g>
   <g id="line2d_3">
    <path clip-path="url(#p22eb5fcd94)" d="M 39.910867 46.413355 
L 64.797487 48.314416 
L 64.797487 48.314416 
" style="fill:none;stroke:#cbff00;stroke-linecap:square;stroke-width:2;"/>
   </g>
   <g id="line2d_4">
    <path clip-path="url(#p22eb5fcd94)" d="M 164.343967 55.918661 
L 189.230587 57.819722 
L 189.230587 57.819722 
" style="fill:none;stroke:#cbff00;stroke-linecap:square;stroke-width:2;"/>
   </g>
   <g id="line2d_5">
    <path clip-path="url(#p22eb5fcd94)" d="M 239.003827 61.621845 
L 313.663687 67.325028 
L 313.663687 67.325028 
" style="fill:none;stroke:#cbff00;stroke-linecap:square;stroke-width:2;"/>
   </g>
   <g id="line2d_6">
    <path clip-path="url(#p22eb5fcd94)" d="M 462.983407 36.908048 
L 537.643267 42.611232 
L 537.643267 42.611232 
" style="fill:none;stroke:#cbff00;stroke-linecap:square;stroke-width:2;"/>
   </g>
   <g id="line2d_7">
    <path clip-path="url(#p22eb5fcd94)" d="M 64.797487 48.314416 
L 89.684107 71.127151 
L 89.684107 71.127151 
" style="fill:none;stroke:#00ff66;stroke-linecap:square;stroke-width:2;"/>
   </g>
   <g id="line2d_8">
    <path clip-path="url(#p22eb5fcd94)" d="M 139.457347 33.105926 
L 164.343967 55.918661 
L 164.343967 55.918661 
" style="fill:none;stroke:#00ff66;stroke-linecap:square;stroke-width:2;"/>
   </g>
   <g id="line2d_9">
    <path clip-path="url(#p22eb5fcd94)" d="M 338.550307 48.314416 
L 363.436927 71.127151 
L 363.436927 71.127151 
" style="fill:none;stroke:#00ff66;stroke-linecap:square;stroke-width:2;"/>
   </g>
   <g id="line2d_10">
    <path clip-path="url(#p22eb5fcd94)" d="M 413.210167 33.105926 
L 438.096787 55.918661 
L 438.096787 55.918661 
" style="fill:none;stroke:#00ff66;stroke-linecap:square;stroke-width:2;"/>
   </g>
   <g id="line2d_11">
    <path clip-path="url(#p22eb5fcd94)" d="M 15.024247 86.335641 
L 39.910867 46.413355 
L 39.910867 46.413355 
" style="fill:none;stroke:#0066ff;stroke-linecap:square;stroke-width:2;"/>
   </g>
   <g id="line2d_12">
    <path clip-path="url(#p22eb5fcd94)" d="M 189.230587 57.819722 
L 214.117207 17.897436 
L 214.117207 17.897436 
" style="fill:none;stroke:#0066ff;stroke-linecap:square;stroke-width:2;"/>
   </g>
   <g id="line2d_13">
    <path clip-path="url(#p22eb5fcd94)" d="M 89.684107 71.127151 
L 89.989585 70.8938 
L 90.278092 70.673413 
L 90.399745 70.580483 
L 90.799142 70.275389 
L 90.8199 70.259531 
L 91.302383 69.890969 
L 91.375213 69.835334 
L 91.74866 69.550062 
L 92.008308 69.35172 
L 92.111339 69.273015 
L 92.446426 69.017046 
L 92.809335 68.739824 
L 92.854759 68.705125 
L 93.133907 68.491888 
L 93.361916 68.317714 
L 93.584969 68.147326 
L 93.962983 67.858565 
L 94.068337 67.778087 
L 94.495223 67.451993 
L 94.708489 67.289082 
L 94.995792 67.069614 
L 95.25302 66.87312 
L 95.42845 66.739112 
L 95.735174 66.504809 
L 95.826864 66.434767 
L 96.104891 66.222386 
L 96.559643 65.875005 
L 96.690944 65.774706 
L 97.022378 65.521528 
L 97.280505 65.324348 
L 97.476605 65.174548 
L 97.636515 65.052395 
L 97.82588 64.907741 
L 98.241232 64.590459 
L 98.360812 64.499113 
L 98.608328 64.310038 
L 98.834828 64.137017 
L 99.165212 63.884641 
L 99.542347 63.596552 
L 99.787464 63.409309 
L 100.052853 63.206582 
L 100.109468 63.163333 
L 100.355544 62.975359 
L 100.589932 62.796312 
L 100.862432 62.588153 
L 101.201553 62.329102 
L 101.543096 62.068202 
L 101.697403 61.950328 
L 102.056262 61.676199 
L 102.256351 61.523354 
L 102.418798 61.399263 
L 102.721806 61.167798 
L 102.890268 61.039112 
L 103.22676 60.782069 
L 103.478611 60.589683 
L 103.630913 60.473341 
L 104.043609 60.158087 
L 104.147238 60.078926 
L 104.502117 59.807838 
L 104.690849 59.663668 
L 104.945691 59.468997 
L 105.242089 59.242582 
L 105.531355 59.021615 
L 105.801313 58.815396 
L 105.968096 58.687993 
L 106.225979 58.490999 
L 106.334987 58.407729 
L 106.791422 58.059064 
L 106.895716 57.979394 
L 107.195465 57.75042 
L 107.5674 57.466303 
L 107.728462 57.343269 
L 107.898653 57.213262 
L 108.117576 57.046029 
L 108.440079 56.799673 
L 108.652765 56.637204 
L 109.034265 56.34578 
L 109.150248 56.257183 
L 109.531944 55.965609 
L 109.577769 55.930604 
L 110.029191 55.585767 
L 110.248536 55.418212 
L 110.332578 55.354014 
L 110.652329 55.109759 
L 111.005089 54.84029 
L 111.078607 54.784131 
L 111.520916 54.446256 
L 111.668581 54.333456 
L 112.042794 54.047599 
L 112.176235 53.945665 
L 112.511247 53.689753 
L 112.611696 53.613021 
L 112.830608 53.445796 
L 113.211388 53.154922 
L 113.474894 52.953633 
L 113.570974 52.880239 
L 113.846572 52.669713 
L 114.131036 52.452414 
L 114.556881 52.127116 
L 114.811489 51.932623 
L 114.985002 51.800078 
L 115.124609 51.693435 
L 115.352506 51.519346 
L 115.656793 51.286905 
" style="fill:none;stroke:#cc00ff;stroke-linecap:square;stroke-width:2;"/>
   </g>
   <g id="line2d_14">
    <path clip-path="url(#p22eb5fcd94)" d="M 116.496799 50.645234 
L 116.733874 50.464134 
L 117.070348 50.207106 
L 117.164237 50.135385 
L 117.437893 49.926342 
L 117.726142 49.706152 
L 117.841953 49.617686 
L 118.18622 49.354704 
L 118.519885 49.099821 
L 118.62052 49.022947 
L 118.915331 48.797744 
L 119.136183 48.629037 
L 119.47576 48.369639 
L 119.603188 48.272298 
L 119.940085 48.014946 
L 120.17178 47.837957 
L 120.495649 47.590556 
L 120.620468 47.495209 
L 121.033192 47.179934 
L 121.091481 47.135407 
L 121.438316 46.870464 
L 121.578021 46.763744 
L 121.842614 46.561625 
L 122.226419 46.268441 
L 122.509948 46.051856 
L 122.765816 45.856401 
L 122.921518 45.737462 
L 123.317807 45.434742 
L 123.3295 45.42581 
L 123.787094 45.076258 
L 123.990074 44.921204 
L 124.226266 44.74078 
L 124.33389 44.658567 
L 124.756259 44.335924 
L 124.880214 44.241236 
L 125.282409 43.934004 
L 125.375832 43.862639 
L 125.58974 43.699237 
L 125.92998 43.439331 
L 126.133218 43.28408 
L 126.395536 43.083698 
L 126.81501 42.763267 
L 127.001641 42.620702 
L 127.255202 42.42701 
L 127.49406 42.244548 
L 127.822197 41.993888 
L 127.909436 41.927247 
L 128.095026 41.785477 
L 128.543428 41.442947 
L 128.594039 41.404287 
L 129.020653 41.078401 
L 129.172245 40.962601 
L 129.461026 40.742005 
L 129.731874 40.535107 
L 129.977162 40.347734 
L 130.303491 40.098455 
L 130.468112 39.972703 
L 130.803552 39.716464 
L 131.048895 39.52905 
L 131.272005 39.358618 
L 131.464175 39.211821 
L 131.789186 38.963549 
L 132.070252 38.748846 
L 132.283859 38.585674 
L 132.333021 38.548119 
L 132.631265 38.320294 
L 132.911208 38.106449 
L 133.286513 37.819758 
L 133.470469 37.679236 
L 133.742443 37.471478 
L 133.864836 37.377983 
L 134.163632 37.149736 
L 134.52356 36.874791 
L 134.807744 36.657706 
L 134.879923 36.602569 
L 135.213299 36.347908 
L 135.496337 36.131698 
L 135.817986 35.885993 
L 135.976776 35.764696 
L 136.189719 35.602031 
L 136.535726 35.33772 
L 136.674704 35.231556 
L 136.999239 34.983647 
L 137.246573 34.794712 
L 137.408522 34.671001 
L 137.790709 34.379053 
L 137.840863 34.340741 
L 138.221579 34.049916 
L 138.444792 33.879406 
L 138.752195 33.644584 
L 138.903671 33.528873 
L 139.1129 33.369046 
L 139.457347 33.105926 
" style="fill:none;stroke:#cc00ff;stroke-linecap:square;stroke-width:2;"/>
   </g>
   <g id="line2d_15">
    <path clip-path="url(#p22eb5fcd94)" d="M 313.663687 67.325028 
L 338.550307 48.314416 
L 338.550307 48.314416 
" style="fill:none;stroke:#cc00ff;stroke-linecap:square;stroke-width:2;"/>
   </g>
   <g id="line2d_16">
    <path clip-path="url(#p22eb5fcd94)" d="M 363.436927 71.127151 
L 413.210167 33.105926 
L 413.210167 33.105926 
" style="fill:none;stroke:#cc00ff;stroke-linecap:square;stroke-width:2;"/>
   </g>
   <g id="line2d_17">
    <path clip-path="url(#p22eb5fcd94)" d="M 438.096787 55.918661 
L 462.983407 36.908048 
L 462.983407 36.908048 
" style="fill:none;stroke:#cc00ff;stroke-linecap:square;stroke-width:2;"/>
   </g>
   <g id="matplotlib.axis_1">
    <g id="xtick_1">
     <g id="line2d_18">
      <path clip-path="url(#p22eb5fcd94)" d="M 15.024247 87.704405 
L 15.024247 16.528672 
" style="fill:none;stroke:#000000;stroke-dasharray:0.5,0.825;stroke-dashoffset:0;stroke-width:0.5;"/>
     </g>
     <g id="line2d_19">
      <defs>
       <path d="M 0 0 
L 0 3.5 
" id="m0fd3e707f8" style="stroke:#000000;stroke-width:0.8;"/>
      </defs>
      <g>
       <use style="stroke:#000000;stroke-width:0.8;" x="15.024247" xlink:href="#m0fd3e707f8" y="86.335641"/>
      </g>
     </g>
    </g>
    <g id="xtick_2">
     <g id="line2d_20">
      <path clip-path="url(#p22eb5fcd94)" d="M 214.117207 87.704405 
L 214.117207 16.528672 
" style="fill:none;stroke:#000000;stroke-dasharray:0.5,0.825;stroke-dashoffset:0;stroke-width:0.5;"/>
     </g>
     <g id="line2d_21">
      <g>
       <use style="stroke:#000000;stroke-width:0.8;" x="214.117207" xlink:href="#m0fd3e707f8" y="86.335641"/>
      </g>
     </g>
     <g id="text_1">
      <!-- $f$ -->
      <defs>
       <path d="M 9.71875 -16.5 
Q 11.578125 -17.921875 14.203125 -17.921875 
Q 17.78125 -17.921875 20.015625 -10.015625 
Q 20.953125 -6.203125 25.09375 15.09375 
L 29.6875 39.59375 
L 21.09375 39.59375 
Q 20.125 39.59375 20.125 40.921875 
Q 20.515625 43.109375 21.390625 43.109375 
L 30.328125 43.109375 
L 31.5 49.609375 
Q 32.078125 52.640625 32.5625 54.8125 
Q 33.0625 56.984375 33.625 58.828125 
Q 34.1875 60.6875 35.296875 62.984375 
Q 37.015625 66.265625 39.921875 68.390625 
Q 42.828125 70.515625 46.1875 70.515625 
Q 48.390625 70.515625 50.46875 69.703125 
Q 52.546875 68.890625 53.859375 67.28125 
Q 55.171875 65.671875 55.171875 63.484375 
Q 55.171875 60.9375 53.484375 59.046875 
Q 51.8125 57.171875 49.421875 57.171875 
Q 47.796875 57.171875 46.65625 58.171875 
Q 45.515625 59.1875 45.515625 60.796875 
Q 45.515625 62.984375 47 64.625 
Q 48.484375 66.265625 50.6875 66.5 
Q 48.828125 67.921875 46.09375 67.921875 
Q 44.578125 67.921875 43.234375 66.5 
Q 41.890625 65.09375 41.5 63.484375 
Q 40.875 60.9375 38.71875 49.703125 
L 37.5 43.109375 
L 47.796875 43.109375 
Q 48.78125 43.109375 48.78125 41.796875 
Q 48.734375 41.546875 48.578125 40.9375 
Q 48.4375 40.328125 48.171875 39.953125 
Q 47.90625 39.59375 47.515625 39.59375 
L 36.8125 39.59375 
L 32.171875 15.1875 
Q 31.296875 9.859375 30.140625 4.359375 
Q 29 -1.125 26.921875 -6.90625 
Q 24.859375 -12.703125 21.625 -16.609375 
Q 18.40625 -20.515625 14.015625 -20.515625 
Q 10.640625 -20.515625 7.984375 -18.578125 
Q 5.328125 -16.65625 5.328125 -13.484375 
Q 5.328125 -10.9375 6.953125 -9.046875 
Q 8.59375 -7.171875 11.078125 -7.171875 
Q 12.75 -7.171875 13.859375 -8.171875 
Q 14.984375 -9.1875 14.984375 -10.796875 
Q 14.984375 -12.9375 13.390625 -14.71875 
Q 11.8125 -16.5 9.71875 -16.5 
z
" id="Cmmi10-66"/>
      </defs>
      <g transform="translate(211.667207 100.913766)scale(0.1 -0.1)">
       <use transform="translate(0 0.484375)" xlink:href="#Cmmi10-66"/>
      </g>
     </g>
    </g>
    <g id="xtick_3">
     <g id="line2d_22">
      <path clip-path="url(#p22eb5fcd94)" d="M 562.529887 87.704405 
L 562.529887 16.528672 
" style="fill:none;stroke:#000000;stroke-dasharray:0.5,0.825;stroke-dashoffset:0;stroke-width:0.5;"/>
     </g>
     <g id="line2d_23">
      <g>
       <use style="stroke:#000000;stroke-width:0.8;" x="562.529887" xlink:href="#m0fd3e707f8" y="86.335641"/>
      </g>
     </g>
     <g id="text_2">
      <!-- $1$ -->
      <defs>
       <path d="M 9.28125 0 
L 9.28125 3.515625 
Q 21.78125 3.515625 21.78125 6.6875 
L 21.78125 59.1875 
Q 16.609375 56.6875 8.6875 56.6875 
L 8.6875 60.203125 
Q 20.953125 60.203125 27.203125 66.609375 
L 28.609375 66.609375 
Q 28.953125 66.609375 29.265625 66.328125 
Q 29.59375 66.0625 29.59375 65.71875 
L 29.59375 6.6875 
Q 29.59375 3.515625 42.09375 3.515625 
L 42.09375 0 
z
" id="Cmr10-31"/>
      </defs>
      <g transform="translate(560.029887 100.934078)scale(0.1 -0.1)">
       <use transform="translate(0 0.390625)" xlink:href="#Cmr10-31"/>
      </g>
     </g>
    </g>
   </g>
   <g id="matplotlib.axis_2">
    <g id="ytick_1">
     <g id="line2d_24">
      <path clip-path="url(#p22eb5fcd94)" d="M 4.074135 86.335641 
L 573.48 86.335641 
" style="fill:none;stroke:#000000;stroke-dasharray:0.5,0.825;stroke-dashoffset:0;stroke-width:0.5;"/>
     </g>
     <g id="line2d_25">
      <defs>
       <path d="M 0 0 
L -3.5 0 
" id="m395e59d1d3" style="stroke:#000000;stroke-width:0.8;"/>
      </defs>
      <g>
       <use style="stroke:#000000;stroke-width:0.8;" x="15.024247" xlink:href="#m395e59d1d3" y="86.335641"/>
      </g>
     </g>
    </g>
    <g id="ytick_2">
     <g id="line2d_26">
      <path clip-path="url(#p22eb5fcd94)" d="M 4.074135 17.897436 
L 573.48 17.897436 
" style="fill:none;stroke:#000000;stroke-dasharray:0.5,0.825;stroke-dashoffset:0;stroke-width:0.5;"/>
     </g>
     <g id="line2d_27">
      <g>
       <use style="stroke:#000000;stroke-width:0.8;" x="15.024247" xlink:href="#m395e59d1d3" y="17.897436"/>
      </g>
     </g>
     <g id="text_3">
      <!-- $1$ -->
      <g transform="translate(3.024247 21.696655)scale(0.1 -0.1)">
       <use transform="translate(0 0.390625)" xlink:href="#Cmr10-31"/>
      </g>
     </g>
    </g>
   </g>
   <g id="patch_3">
    <path d="M 15.024247 87.704405 
L 15.024247 16.528672 
" style="fill:none;stroke:#000000;stroke-linecap:square;stroke-linejoin:miter;stroke-width:0.8;"/>
   </g>
   <g id="patch_4">
    <path d="M 4.074135 86.335641 
L 573.48 86.335641 
" style="fill:none;stroke:#000000;stroke-linecap:square;stroke-linejoin:miter;stroke-width:0.8;"/>
   </g>
  </g>
 </g>
 <defs>
  <clipPath id="p22eb5fcd94">
   <rect height="71.175733" width="569.405865" x="4.074135" y="16.528672"/>
  </clipPath>
 </defs>
</svg>
