<?xml version="1.0" encoding="utf-8" standalone="no"?>
<!DOCTYPE svg PUBLIC "-//W3C//DTD SVG 1.1//EN"
  "http://www.w3.org/Graphics/SVG/1.1/DTD/svg11.dtd">
<!-- Created with matplotlib (http://matplotlib.org/) -->
<svg height="108pt" version="1.1" viewBox="0 0 576 108" width="576pt" xmlns="http://www.w3.org/2000/svg" xmlns:xlink="http://www.w3.org/1999/xlink">
 <defs>
  <style type="text/css">
*{stroke-linecap:butt;stroke-linejoin:round;}
  </style>
 </defs>
 <g id="figure_1">
  <g id="patch_1">
   <path d="M 0 108 
L 576 108 
L 576 0 
L 0 0 
z
" style="fill:#ffffff;"/>
  </g>
  <g id="axes_1">
   <g id="patch_2">
    <path d="M 4.074135 87.704405 
L 573.48 87.704405 
L 573.48 16.528672 
L 4.074135 16.528672 
z
" style="fill:#ffffff;"/>
   </g>
   <g id="line2d_1">
    <path clip-path="url(#pd022406a67)" d="M 37.836982 52.116538 
L 60.649717 52.116538 
L 60.649717 52.116538 
" style="fill:none;stroke:#ff0000;stroke-linecap:square;stroke-width:2;"/>
   </g>
   <g id="line2d_2">
    <path clip-path="url(#pd022406a67)" d="M 106.275187 52.116538 
L 197.526127 52.116538 
L 197.526127 52.116538 
" style="fill:none;stroke:#ff0000;stroke-linecap:square;stroke-width:2;"/>
   </g>
   <g id="line2d_3">
    <path clip-path="url(#pd022406a67)" d="M 243.151597 52.116538 
L 265.964332 52.116538 
L 265.964332 52.116538 
" style="fill:none;stroke:#ff0000;stroke-linecap:square;stroke-width:2;"/>
   </g>
   <g id="line2d_4">
    <path clip-path="url(#pd022406a67)" d="M 357.215272 69.22609 
L 380.028007 69.22609 
L 380.028007 69.22609 
" style="fill:none;stroke:#ff0000;stroke-linecap:square;stroke-width:2;"/>
   </g>
   <g id="line2d_5">
    <path clip-path="url(#pd022406a67)" d="M 471.278947 35.006987 
L 494.091682 35.006987 
L 494.091682 35.006987 
" style="fill:none;stroke:#ff0000;stroke-linecap:square;stroke-width:2;"/>
   </g>
   <g id="line2d_6">
    <path clip-path="url(#pd022406a67)" d="M 83.462452 35.006987 
L 106.275187 52.116538 
L 106.275187 52.116538 
" style="fill:none;stroke:#cbff00;stroke-linecap:square;stroke-width:2;"/>
   </g>
   <g id="line2d_7">
    <path clip-path="url(#pd022406a67)" d="M 197.526127 52.116538 
L 220.338862 69.22609 
L 220.338862 69.22609 
" style="fill:none;stroke:#cbff00;stroke-linecap:square;stroke-width:2;"/>
   </g>
   <g id="line2d_8">
    <path clip-path="url(#pd022406a67)" d="M 334.402537 52.116538 
L 357.215272 69.22609 
L 357.215272 69.22609 
" style="fill:none;stroke:#cbff00;stroke-linecap:square;stroke-width:2;"/>
   </g>
   <g id="line2d_9">
    <path clip-path="url(#pd022406a67)" d="M 402.840742 35.006987 
L 448.466212 69.22609 
L 448.466212 69.22609 
" style="fill:none;stroke:#cbff00;stroke-linecap:square;stroke-width:2;"/>
   </g>
   <g id="line2d_10">
    <path clip-path="url(#pd022406a67)" d="M 494.091682 35.006987 
L 494.184353 35.07649 
L 494.309879 35.170635 
L 494.428388 35.259517 
L 494.607058 35.393519 
L 494.630108 35.410806 
L 494.803112 35.540559 
L 494.888734 35.604776 
L 494.964299 35.66145 
L 495.139013 35.792486 
L 495.223944 35.856184 
L 495.36445 35.961563 
L 495.448031 36.024249 
L 495.596861 36.135871 
L 495.721982 36.229712 
L 495.808494 36.294596 
L 495.869616 36.340438 
L 496.074783 36.494313 
L 496.164504 36.561604 
L 496.298932 36.662424 
L 496.404324 36.741468 
L 496.511433 36.821801 
L 496.597957 36.886694 
L 496.732392 36.987519 
L 496.883216 37.100637 
L 496.919145 37.127585 
L 497.049462 37.225322 
L 497.193333 37.333225 
L 497.295995 37.410222 
L 497.451081 37.526537 
L 497.558713 37.607261 
L 497.677191 37.696119 
L 497.805622 37.792442 
L 497.850447 37.82606 
L 498.016393 37.95052 
L 498.142883 38.045388 
L 498.19235 38.082488 
L 498.298086 38.16179 
L 498.463866 38.286125 
L 498.518481 38.327086 
L 498.675314 38.444711 
L 498.802015 38.539737 
L 498.849138 38.575079 
L 499.029062 38.710022 
L 499.166403 38.813028 
L 499.249994 38.875721 
L 499.315007 38.924481 
L 499.432602 39.012677 
L 499.634065 39.163774 
L 499.655113 39.17956 
L 499.775909 39.270157 
L 499.909964 39.370699 
L 499.996977 39.435958 
L 500.113557 39.523394 
L 500.231823 39.612093 
L 500.416456 39.750567 
L 500.503854 39.816116 
L 500.642433 39.920051 
L 500.780403 40.023528 
L 500.872376 40.092507 
L 501.007439 40.193805 
L 501.03633 40.215473 
L 501.166028 40.312747 
L 501.26716 40.388596 
L 501.452022 40.527242 
L 501.530754 40.586291 
L 501.673157 40.693093 
L 501.781565 40.7744 
L 501.911445 40.871809 
L 501.969141 40.915082 
L 502.095695 41.009996 
L 502.253482 41.128337 
L 502.37739 41.221268 
L 502.435342 41.264732 
L 502.526181 41.332861 
L 502.644438 41.421554 
L 502.789755 41.530542 
L 502.926828 41.633347 
L 503.072027 41.742246 
" style="fill:none;stroke:#cbff00;stroke-linecap:square;stroke-width:2;"/>
   </g>
   <g id="line2d_11">
    <path clip-path="url(#pd022406a67)" d="M 503.344277 41.946433 
L 503.511894 42.072146 
L 503.574192 42.11887 
L 503.731492 42.236845 
L 503.886482 42.353087 
L 503.991308 42.431706 
L 504.02378 42.456061 
L 504.234999 42.614475 
L 504.239692 42.617995 
L 504.386933 42.728425 
L 504.472356 42.792492 
L 504.63549 42.914843 
L 504.793281 43.033187 
L 504.82781 43.059083 
L 504.944338 43.146479 
L 505.065039 43.237005 
L 505.25718 43.38111 
L 505.325338 43.432229 
L 505.414338 43.498979 
L 505.539117 43.592564 
L 505.672806 43.69283 
L 505.82691 43.808408 
L 505.938988 43.892467 
L 506.015325 43.949719 
L 506.118132 44.026825 
L 506.273304 44.143203 
L 506.375192 44.219619 
L 506.446837 44.273353 
L 506.603944 44.391183 
L 506.713215 44.473137 
L 506.817145 44.551084 
L 506.947105 44.648554 
L 507.044924 44.721918 
L 507.145455 44.797317 
L 507.300631 44.913699 
L 507.339574 44.942906 
L 507.467847 45.039111 
L 507.562585 45.110164 
L 507.774604 45.269179 
L 507.855039 45.329505 
L 507.974718 45.419264 
L 508.039674 45.467981 
L 508.149824 45.550594 
L 508.2899 45.655651 
L 508.401737 45.739528 
L 508.567011 45.863484 
L 508.597561 45.886396 
L 508.780258 46.023419 
L 508.851773 46.077055 
L 509.017121 46.201066 
L 509.116346 46.275485 
L 509.269664 46.390474 
L 509.323714 46.431011 
L 509.490225 46.555894 
L 509.518181 46.576862 
L 509.676894 46.695896 
L 509.770842 46.766357 
L 509.89068 46.856236 
L 510.034111 46.963809 
L 510.163608 47.060932 
L 510.210108 47.095806 
L 510.37692 47.220916 
L 510.462378 47.285009 
L 510.586027 47.377746 
L 510.759559 47.507895 
L 510.812236 47.547403 
L 510.925873 47.63263 
L 511.070317 47.740963 
L 511.214761 47.849296 
L 511.26219 47.884868 
L 511.457144 48.031084 
L 511.535698 48.089999 
L 511.606955 48.143442 
L 511.778955 48.272442 
L 511.805307 48.292206 
L 511.948902 48.399902 
L 512.131088 48.536542 
L 512.188167 48.579351 
L 512.354147 48.703836 
L 512.463055 48.785517 
L 512.592261 48.882421 
L 512.690413 48.956035 
L 512.727281 48.983686 
L 512.850985 49.076464 
L 513.062372 49.235005 
L 513.111584 49.271913 
L 513.233747 49.363536 
L 513.371781 49.467061 
L 513.456039 49.530255 
L 513.526439 49.583055 
L 513.722664 49.730223 
L 513.766246 49.76291 
L 513.957302 49.906202 
L 514.001968 49.939701 
L 514.17548 50.069836 
L 514.312952 50.172939 
L 514.388401 50.229526 
L 514.473093 50.293046 
L 514.610892 50.396394 
L 514.76263 50.510198 
L 514.813827 50.548596 
L 514.899646 50.61296 
L 515.028831 50.709849 
L 515.215446 50.84981 
L 515.260576 50.883657 
L 515.404312 50.99146 
L 515.568817 51.114838 
L 515.692696 51.207747 
L 515.782657 51.275219 
L 515.911455 51.371817 
L 516.001664 51.439474 
L 516.060557 51.483643 
L 516.233734 51.613526 
L 516.369722 51.715517 
L 516.460262 51.783422 
L 516.568936 51.864928 
L 516.726238 51.982904 
L 516.769921 52.015667 
L 516.904417 52.116538 
" style="fill:none;stroke:#cbff00;stroke-linecap:square;stroke-width:2;"/>
   </g>
   <g id="line2d_12">
    <path clip-path="url(#pd022406a67)" d="M 15.024247 86.335641 
L 37.836982 52.116538 
L 37.836982 52.116538 
" style="fill:none;stroke:#00ff66;stroke-linecap:square;stroke-width:2;"/>
   </g>
   <g id="line2d_13">
    <path clip-path="url(#pd022406a67)" d="M 265.964332 52.116538 
L 288.777067 17.897436 
L 288.777067 17.897436 
" style="fill:none;stroke:#00ff66;stroke-linecap:square;stroke-width:2;"/>
   </g>
   <g id="line2d_14">
    <path clip-path="url(#pd022406a67)" d="M 380.028007 69.22609 
L 402.840742 35.006987 
L 402.840742 35.006987 
" style="fill:none;stroke:#00ff66;stroke-linecap:square;stroke-width:2;"/>
   </g>
   <g id="line2d_15">
    <path clip-path="url(#pd022406a67)" d="M 448.466212 69.22609 
L 471.278947 35.006987 
L 471.278947 35.006987 
" style="fill:none;stroke:#00ff66;stroke-linecap:square;stroke-width:2;"/>
   </g>
   <g id="line2d_16">
    <path clip-path="url(#pd022406a67)" d="M 288.777067 17.897436 
L 311.589802 69.22609 
L 311.589802 69.22609 
" style="fill:none;stroke:#0066ff;stroke-linecap:square;stroke-width:2;"/>
   </g>
   <g id="line2d_17">
    <path clip-path="url(#pd022406a67)" d="M 539.717152 35.006987 
L 562.529887 86.335641 
L 562.529887 86.335641 
" style="fill:none;stroke:#0066ff;stroke-linecap:square;stroke-width:2;"/>
   </g>
   <g id="line2d_18">
    <path clip-path="url(#pd022406a67)" d="M 60.649717 52.116538 
L 83.462452 35.006987 
L 83.462452 35.006987 
" style="fill:none;stroke:#cc00ff;stroke-linecap:square;stroke-width:2;"/>
   </g>
   <g id="line2d_19">
    <path clip-path="url(#pd022406a67)" d="M 220.338862 69.22609 
L 243.151597 52.116538 
L 243.151597 52.116538 
" style="fill:none;stroke:#cc00ff;stroke-linecap:square;stroke-width:2;"/>
   </g>
   <g id="line2d_20">
    <path clip-path="url(#pd022406a67)" d="M 311.589802 69.22609 
L 334.402537 52.116538 
L 334.402537 52.116538 
" style="fill:none;stroke:#cc00ff;stroke-linecap:square;stroke-width:2;"/>
   </g>
   <g id="line2d_21">
    <path clip-path="url(#pd022406a67)" d="M 516.904417 52.116538 
L 539.717152 35.006987 
L 539.717152 35.006987 
" style="fill:none;stroke:#cc00ff;stroke-linecap:square;stroke-width:2;"/>
   </g>
   <g id="matplotlib.axis_1">
    <g id="xtick_1">
     <g id="line2d_22">
      <path clip-path="url(#pd022406a67)" d="M 15.024247 87.704405 
L 15.024247 16.528672 
" style="fill:none;stroke:#000000;stroke-dasharray:0.5,0.825;stroke-dashoffset:0;stroke-width:0.5;"/>
     </g>
     <g id="line2d_23">
      <defs>
       <path d="M 0 0 
L 0 3.5 
" id="m799869ab63" style="stroke:#000000;stroke-width:0.8;"/>
      </defs>
      <g>
       <use style="stroke:#000000;stroke-width:0.8;" x="15.024247" xlink:href="#m799869ab63" y="86.335641"/>
      </g>
     </g>
    </g>
    <g id="xtick_2">
     <g id="line2d_24">
      <path clip-path="url(#pd022406a67)" d="M 288.777067 87.704405 
L 288.777067 16.528672 
" style="fill:none;stroke:#000000;stroke-dasharray:0.5,0.825;stroke-dashoffset:0;stroke-width:0.5;"/>
     </g>
     <g id="line2d_25">
      <g>
       <use style="stroke:#000000;stroke-width:0.8;" x="288.777067" xlink:href="#m799869ab63" y="86.335641"/>
      </g>
     </g>
     <g id="text_1">
      <!-- $f$ -->
      <defs>
       <path d="M 9.71875 -16.5 
Q 11.578125 -17.921875 14.203125 -17.921875 
Q 17.78125 -17.921875 20.015625 -10.015625 
Q 20.953125 -6.203125 25.09375 15.09375 
L 29.6875 39.59375 
L 21.09375 39.59375 
Q 20.125 39.59375 20.125 40.921875 
Q 20.515625 43.109375 21.390625 43.109375 
L 30.328125 43.109375 
L 31.5 49.609375 
Q 32.078125 52.640625 32.5625 54.8125 
Q 33.0625 56.984375 33.625 58.828125 
Q 34.1875 60.6875 35.296875 62.984375 
Q 37.015625 66.265625 39.921875 68.390625 
Q 42.828125 70.515625 46.1875 70.515625 
Q 48.390625 70.515625 50.46875 69.703125 
Q 52.546875 68.890625 53.859375 67.28125 
Q 55.171875 65.671875 55.171875 63.484375 
Q 55.171875 60.9375 53.484375 59.046875 
Q 51.8125 57.171875 49.421875 57.171875 
Q 47.796875 57.171875 46.65625 58.171875 
Q 45.515625 59.1875 45.515625 60.796875 
Q 45.515625 62.984375 47 64.625 
Q 48.484375 66.265625 50.6875 66.5 
Q 48.828125 67.921875 46.09375 67.921875 
Q 44.578125 67.921875 43.234375 66.5 
Q 41.890625 65.09375 41.5 63.484375 
Q 40.875 60.9375 38.71875 49.703125 
L 37.5 43.109375 
L 47.796875 43.109375 
Q 48.78125 43.109375 48.78125 41.796875 
Q 48.734375 41.546875 48.578125 40.9375 
Q 48.4375 40.328125 48.171875 39.953125 
Q 47.90625 39.59375 47.515625 39.59375 
L 36.8125 39.59375 
L 32.171875 15.1875 
Q 31.296875 9.859375 30.140625 4.359375 
Q 29 -1.125 26.921875 -6.90625 
Q 24.859375 -12.703125 21.625 -16.609375 
Q 18.40625 -20.515625 14.015625 -20.515625 
Q 10.640625 -20.515625 7.984375 -18.578125 
Q 5.328125 -16.65625 5.328125 -13.484375 
Q 5.328125 -10.9375 6.953125 -9.046875 
Q 8.59375 -7.171875 11.078125 -7.171875 
Q 12.75 -7.171875 13.859375 -8.171875 
Q 14.984375 -9.1875 14.984375 -10.796875 
Q 14.984375 -12.9375 13.390625 -14.71875 
Q 11.8125 -16.5 9.71875 -16.5 
z
" id="Cmmi10-66"/>
      </defs>
      <g transform="translate(286.327067 100.913766)scale(0.1 -0.1)">
       <use transform="translate(0 0.484375)" xlink:href="#Cmmi10-66"/>
      </g>
     </g>
    </g>
    <g id="xtick_3">
     <g id="line2d_26">
      <path clip-path="url(#pd022406a67)" d="M 562.529887 87.704405 
L 562.529887 16.528672 
" style="fill:none;stroke:#000000;stroke-dasharray:0.5,0.825;stroke-dashoffset:0;stroke-width:0.5;"/>
     </g>
     <g id="line2d_27">
      <g>
       <use style="stroke:#000000;stroke-width:0.8;" x="562.529887" xlink:href="#m799869ab63" y="86.335641"/>
      </g>
     </g>
     <g id="text_2">
      <!-- $1$ -->
      <defs>
       <path d="M 9.28125 0 
L 9.28125 3.515625 
Q 21.78125 3.515625 21.78125 6.6875 
L 21.78125 59.1875 
Q 16.609375 56.6875 8.6875 56.6875 
L 8.6875 60.203125 
Q 20.953125 60.203125 27.203125 66.609375 
L 28.609375 66.609375 
Q 28.953125 66.609375 29.265625 66.328125 
Q 29.59375 66.0625 29.59375 65.71875 
L 29.59375 6.6875 
Q 29.59375 3.515625 42.09375 3.515625 
L 42.09375 0 
z
" id="Cmr10-31"/>
      </defs>
      <g transform="translate(560.029887 100.934078)scale(0.1 -0.1)">
       <use transform="translate(0 0.390625)" xlink:href="#Cmr10-31"/>
      </g>
     </g>
    </g>
   </g>
   <g id="matplotlib.axis_2">
    <g id="ytick_1">
     <g id="line2d_28">
      <path clip-path="url(#pd022406a67)" d="M 4.074135 86.335641 
L 573.48 86.335641 
" style="fill:none;stroke:#000000;stroke-dasharray:0.5,0.825;stroke-dashoffset:0;stroke-width:0.5;"/>
     </g>
     <g id="line2d_29">
      <defs>
       <path d="M 0 0 
L -3.5 0 
" id="m7069b34dca" style="stroke:#000000;stroke-width:0.8;"/>
      </defs>
      <g>
       <use style="stroke:#000000;stroke-width:0.8;" x="15.024247" xlink:href="#m7069b34dca" y="86.335641"/>
      </g>
     </g>
    </g>
    <g id="ytick_2">
     <g id="line2d_30">
      <path clip-path="url(#pd022406a67)" d="M 4.074135 17.897436 
L 573.48 17.897436 
" style="fill:none;stroke:#000000;stroke-dasharray:0.5,0.825;stroke-dashoffset:0;stroke-width:0.5;"/>
     </g>
     <g id="line2d_31">
      <g>
       <use style="stroke:#000000;stroke-width:0.8;" x="15.024247" xlink:href="#m7069b34dca" y="17.897436"/>
      </g>
     </g>
     <g id="text_3">
      <!-- $1$ -->
      <g transform="translate(3.024247 21.696655)scale(0.1 -0.1)">
       <use transform="translate(0 0.390625)" xlink:href="#Cmr10-31"/>
      </g>
     </g>
    </g>
   </g>
   <g id="patch_3">
    <path d="M 15.024247 87.704405 
L 15.024247 16.528672 
" style="fill:none;stroke:#000000;stroke-linecap:square;stroke-linejoin:miter;stroke-width:0.8;"/>
   </g>
   <g id="patch_4">
    <path d="M 4.074135 86.335641 
L 573.48 86.335641 
" style="fill:none;stroke:#000000;stroke-linecap:square;stroke-linejoin:miter;stroke-width:0.8;"/>
   </g>
  </g>
 </g>
 <defs>
  <clipPath id="pd022406a67">
   <rect height="71.175733" width="569.405865" x="4.074135" y="16.528672"/>
  </clipPath>
 </defs>
</svg>
