<?xml version="1.0" encoding="utf-8" standalone="no"?>
<!DOCTYPE svg PUBLIC "-//W3C//DTD SVG 1.1//EN"
  "http://www.w3.org/Graphics/SVG/1.1/DTD/svg11.dtd">
<!-- Created with matplotlib (http://matplotlib.org/) -->
<svg height="108pt" version="1.1" viewBox="0 0 576 108" width="576pt" xmlns="http://www.w3.org/2000/svg" xmlns:xlink="http://www.w3.org/1999/xlink">
 <defs>
  <style type="text/css">
*{stroke-linecap:butt;stroke-linejoin:round;}
  </style>
 </defs>
 <g id="figure_1">
  <g id="patch_1">
   <path d="M 0 108 
L 576 108 
L 576 0 
L 0 0 
z
" style="fill:#ffffff;"/>
  </g>
  <g id="axes_1">
   <g id="patch_2">
    <path d="M 4.074135 87.704405 
L 573.48 87.704405 
L 573.48 16.528672 
L 4.074135 16.528672 
z
" style="fill:#ffffff;"/>
   </g>
   <g id="line2d_1">
    <path clip-path="url(#pd635889b46)" d="M 214.117207 17.897436 
L 239.003827 61.621845 
L 239.003827 61.621845 
" style="fill:none;stroke:#ff0000;stroke-linecap:square;stroke-width:2;"/>
   </g>
   <g id="line2d_2">
    <path clip-path="url(#pd635889b46)" d="M 537.643267 42.611232 
L 562.529887 86.335641 
L 562.529887 86.335641 
" style="fill:none;stroke:#ff0000;stroke-linecap:square;stroke-width:2;"/>
   </g>
   <g id="line2d_3">
    <path clip-path="url(#pd635889b46)" d="M 39.910867 46.413355 
L 64.797487 48.314416 
L 64.797487 48.314416 
" style="fill:none;stroke:#cbff00;stroke-linecap:square;stroke-width:2;"/>
   </g>
   <g id="line2d_4">
    <path clip-path="url(#pd635889b46)" d="M 164.343967 55.918661 
L 189.230587 57.819722 
L 189.230587 57.819722 
" style="fill:none;stroke:#cbff00;stroke-linecap:square;stroke-width:2;"/>
   </g>
   <g id="line2d_5">
    <path clip-path="url(#pd635889b46)" d="M 239.003827 61.621845 
L 313.663687 67.325028 
L 313.663687 67.325028 
" style="fill:none;stroke:#cbff00;stroke-linecap:square;stroke-width:2;"/>
   </g>
   <g id="line2d_6">
    <path clip-path="url(#pd635889b46)" d="M 462.983407 36.908048 
L 537.643267 42.611232 
L 537.643267 42.611232 
" style="fill:none;stroke:#cbff00;stroke-linecap:square;stroke-width:2;"/>
   </g>
   <g id="line2d_7">
    <path clip-path="url(#pd635889b46)" d="M 64.797487 48.314416 
L 64.962883 48.466029 
L 65.083327 48.576435 
L 65.228477 48.70949 
L 65.30583 48.780397 
L 65.433952 48.897842 
L 65.548161 49.002533 
L 65.669059 49.113357 
L 65.736369 49.175057 
L 65.937125 49.359084 
L 66.048587 49.461257 
L 66.134748 49.540238 
L 66.302964 49.694437 
L 66.438052 49.818267 
L 66.560485 49.930497 
L 66.648308 50.011002 
L 66.831871 50.179268 
L 66.88765 50.230398 
L 67.069814 50.397382 
L 67.12199 50.44521 
L 67.332998 50.638634 
L 67.363165 50.666287 
L 67.577668 50.862915 
L 67.702544 50.977385 
L 67.838556 51.102062 
L 67.980649 51.232314 
L 68.086712 51.329539 
L 68.224513 51.455856 
L 68.313985 51.537872 
L 68.373813 51.592715 
L 68.598173 51.798377 
L 68.689802 51.882371 
L 68.8478 52.027203 
L 68.947255 52.11837 
L 69.00798 52.174034 
L 69.202518 52.352361 
L 69.287967 52.430689 
L 69.473084 52.60038 
L 69.514882 52.638694 
L 69.629814 52.744048 
L 69.755247 52.859029 
L 69.902705 52.994199 
L 69.99164 53.075723 
L 70.124112 53.197155 
L 70.326169 53.382374 
L 70.400105 53.450148 
L 70.585527 53.620119 
L 70.648464 53.677811 
L 70.815823 53.831224 
L 70.963283 53.966395 
L 71.095016 54.08715 
L 71.171048 54.156846 
L 71.350721 54.321547 
L 71.447048 54.409847 
L 71.523566 54.479988 
L 71.703963 54.645352 
L 71.818466 54.750313 
L 71.938207 54.860076 
L 72.090124 54.999333 
L 72.176312 55.078339 
L 72.296138 55.188179 
L 72.48214 55.358681 
L 72.579489 55.447917 
L 72.644133 55.507175 
L 72.822925 55.671067 
L 72.987307 55.82175 
L 73.030363 55.861219 
L 73.189839 56.007405 
L 73.265766 56.077005 
L 73.486125 56.279001 
L 73.508863 56.299843 
L 73.726657 56.499488 
L 73.76667 56.536167 
L 73.87555 56.635973 
L 74.060003 56.805055 
L 74.156858 56.893839 
L 74.25483 56.983646 
L 74.460354 57.172043 
L 74.504953 57.212926 
L 74.67789 57.371452 
L 74.851132 57.530257 
L 74.982718 57.650877 
L 75.008888 57.674867 
L 75.23422 57.88142 
L 75.281678 57.924924 
L 75.425474 58.056737 
L 75.574306 58.193167 
L 75.716492 58.323504 
L 75.808772 58.408094 
L 75.965208 58.551494 
L 76.039119 58.619245 
L 76.156816 58.727134 
" style="fill:none;stroke:#00ff66;stroke-linecap:square;stroke-width:2;"/>
   </g>
   <g id="line2d_8">
    <path clip-path="url(#pd635889b46)" d="M 76.564467 59.100814 
L 76.6694 59.197003 
L 76.840751 59.354074 
L 76.873748 59.384322 
L 77.082294 59.575489 
L 77.225652 59.7069 
L 77.277395 59.754331 
L 77.438515 59.902025 
L 77.515354 59.972461 
L 77.665743 60.110317 
L 77.772759 60.208415 
L 77.88365 60.310065 
L 78.10162 60.509871 
L 78.239074 60.63587 
L 78.31953 60.709622 
L 78.367396 60.753499 
L 78.556656 60.926987 
L 78.731343 61.087117 
L 78.777418 61.129352 
L 78.989305 61.323582 
L 79.008845 61.341494 
L 79.240287 61.553649 
L 79.245543 61.558467 
L 79.435481 61.732577 
L 79.614315 61.896508 
L 79.65372 61.932629 
L 79.832148 62.096189 
L 79.954245 62.208111 
L 79.99569 62.246101 
L 80.117234 62.357517 
L 80.359912 62.579972 
L 80.491614 62.700699 
L 80.611529 62.810621 
L 80.626539 62.82438 
L 80.867199 63.044985 
L 80.875966 63.053021 
L 81.093803 63.252705 
L 81.204254 63.353952 
L 81.293476 63.435739 
L 81.463141 63.591265 
L 81.550669 63.6715 
L 81.698106 63.80665 
L 81.776508 63.878518 
L 81.978408 64.063593 
L 82.041271 64.121218 
L 82.226043 64.290591 
L 82.27295 64.33359 
L 82.389905 64.440798 
L 82.590489 64.624668 
L 82.643408 64.673176 
L 82.815269 64.830716 
L 82.886552 64.896059 
L 83.023499 65.021593 
L 83.197295 65.180907 
L 83.284689 65.261018 
L 83.384162 65.352201 
L 83.586568 65.53774 
L 83.636684 65.58368 
L 83.745186 65.683139 
L 83.946133 65.867341 
L 84.025138 65.939762 
L 84.182985 66.084455 
L 84.276358 66.170047 
L 84.462179 66.340383 
L 84.561449 66.431381 
L 84.660236 66.521935 
L 84.863479 66.708242 
L 84.952239 66.789605 
L 85.009254 66.841869 
L 85.166438 66.985954 
L 85.348414 67.152766 
L 85.48781 67.280545 
L 85.533361 67.3223 
L 85.676018 67.453069 
L 85.823376 67.588147 
L 85.966524 67.719366 
L 86.08856 67.831232 
L 86.177624 67.912874 
L 86.328164 68.05087 
L 86.494366 68.203222 
L 86.607586 68.307006 
L 86.642115 68.338658 
L 86.833915 68.514475 
L 86.916857 68.590504 
L 87.037649 68.70123 
L 87.177251 68.829199 
L 87.30082 68.942471 
L 87.44788 69.077276 
L 87.573702 69.192612 
L 87.642963 69.256102 
L 87.867395 69.461831 
L 87.937749 69.526322 
L 88.024362 69.605718 
L 88.137434 69.709367 
L 88.321737 69.878311 
L 88.465152 70.009775 
L 88.604477 70.13749 
L 88.719999 70.243385 
L 88.751477 70.27224 
L 88.94745 70.451882 
L 89.005454 70.505052 
L 89.18393 70.668655 
L 89.369027 70.838328 
L 89.387644 70.855393 
L 89.584758 71.036081 
L 89.684107 71.127151 
" style="fill:none;stroke:#00ff66;stroke-linecap:square;stroke-width:2;"/>
   </g>
   <g id="line2d_9">
    <path clip-path="url(#pd635889b46)" d="M 139.457347 33.105926 
L 164.343967 55.918661 
L 164.343967 55.918661 
" style="fill:none;stroke:#00ff66;stroke-linecap:square;stroke-width:2;"/>
   </g>
   <g id="line2d_10">
    <path clip-path="url(#pd635889b46)" d="M 338.550307 48.314416 
L 363.436927 71.127151 
L 363.436927 71.127151 
" style="fill:none;stroke:#00ff66;stroke-linecap:square;stroke-width:2;"/>
   </g>
   <g id="line2d_11">
    <path clip-path="url(#pd635889b46)" d="M 413.210167 33.105926 
L 438.096787 55.918661 
L 438.096787 55.918661 
" style="fill:none;stroke:#00ff66;stroke-linecap:square;stroke-width:2;"/>
   </g>
   <g id="line2d_12">
    <path clip-path="url(#pd635889b46)" d="M 15.024247 86.335641 
L 39.910867 46.413355 
L 39.910867 46.413355 
" style="fill:none;stroke:#0066ff;stroke-linecap:square;stroke-width:2;"/>
   </g>
   <g id="line2d_13">
    <path clip-path="url(#pd635889b46)" d="M 189.230587 57.819722 
L 214.117207 17.897436 
L 214.117207 17.897436 
" style="fill:none;stroke:#0066ff;stroke-linecap:square;stroke-width:2;"/>
   </g>
   <g id="line2d_14">
    <path clip-path="url(#pd635889b46)" d="M 89.684107 71.127151 
L 139.457347 33.105926 
L 139.457347 33.105926 
" style="fill:none;stroke:#cc00ff;stroke-linecap:square;stroke-width:2;"/>
   </g>
   <g id="line2d_15">
    <path clip-path="url(#pd635889b46)" d="M 313.663687 67.325028 
L 338.550307 48.314416 
L 338.550307 48.314416 
" style="fill:none;stroke:#cc00ff;stroke-linecap:square;stroke-width:2;"/>
   </g>
   <g id="line2d_16">
    <path clip-path="url(#pd635889b46)" d="M 363.436927 71.127151 
L 413.210167 33.105926 
L 413.210167 33.105926 
" style="fill:none;stroke:#cc00ff;stroke-linecap:square;stroke-width:2;"/>
   </g>
   <g id="line2d_17">
    <path clip-path="url(#pd635889b46)" d="M 438.096787 55.918661 
L 462.983407 36.908048 
L 462.983407 36.908048 
" style="fill:none;stroke:#cc00ff;stroke-linecap:square;stroke-width:2;"/>
   </g>
   <g id="matplotlib.axis_1">
    <g id="xtick_1">
     <g id="line2d_18">
      <path clip-path="url(#pd635889b46)" d="M 15.024247 87.704405 
L 15.024247 16.528672 
" style="fill:none;stroke:#000000;stroke-dasharray:0.5,0.825;stroke-dashoffset:0;stroke-width:0.5;"/>
     </g>
     <g id="line2d_19">
      <defs>
       <path d="M 0 0 
L 0 3.5 
" id="m3c29b2fe41" style="stroke:#000000;stroke-width:0.8;"/>
      </defs>
      <g>
       <use style="stroke:#000000;stroke-width:0.8;" x="15.024247" xlink:href="#m3c29b2fe41" y="86.335641"/>
      </g>
     </g>
    </g>
    <g id="xtick_2">
     <g id="line2d_20">
      <path clip-path="url(#pd635889b46)" d="M 214.117207 87.704405 
L 214.117207 16.528672 
" style="fill:none;stroke:#000000;stroke-dasharray:0.5,0.825;stroke-dashoffset:0;stroke-width:0.5;"/>
     </g>
     <g id="line2d_21">
      <g>
       <use style="stroke:#000000;stroke-width:0.8;" x="214.117207" xlink:href="#m3c29b2fe41" y="86.335641"/>
      </g>
     </g>
     <g id="text_1">
      <!-- $f$ -->
      <defs>
       <path d="M 9.71875 -16.5 
Q 11.578125 -17.921875 14.203125 -17.921875 
Q 17.78125 -17.921875 20.015625 -10.015625 
Q 20.953125 -6.203125 25.09375 15.09375 
L 29.6875 39.59375 
L 21.09375 39.59375 
Q 20.125 39.59375 20.125 40.921875 
Q 20.515625 43.109375 21.390625 43.109375 
L 30.328125 43.109375 
L 31.5 49.609375 
Q 32.078125 52.640625 32.5625 54.8125 
Q 33.0625 56.984375 33.625 58.828125 
Q 34.1875 60.6875 35.296875 62.984375 
Q 37.015625 66.265625 39.921875 68.390625 
Q 42.828125 70.515625 46.1875 70.515625 
Q 48.390625 70.515625 50.46875 69.703125 
Q 52.546875 68.890625 53.859375 67.28125 
Q 55.171875 65.671875 55.171875 63.484375 
Q 55.171875 60.9375 53.484375 59.046875 
Q 51.8125 57.171875 49.421875 57.171875 
Q 47.796875 57.171875 46.65625 58.171875 
Q 45.515625 59.1875 45.515625 60.796875 
Q 45.515625 62.984375 47 64.625 
Q 48.484375 66.265625 50.6875 66.5 
Q 48.828125 67.921875 46.09375 67.921875 
Q 44.578125 67.921875 43.234375 66.5 
Q 41.890625 65.09375 41.5 63.484375 
Q 40.875 60.9375 38.71875 49.703125 
L 37.5 43.109375 
L 47.796875 43.109375 
Q 48.78125 43.109375 48.78125 41.796875 
Q 48.734375 41.546875 48.578125 40.9375 
Q 48.4375 40.328125 48.171875 39.953125 
Q 47.90625 39.59375 47.515625 39.59375 
L 36.8125 39.59375 
L 32.171875 15.1875 
Q 31.296875 9.859375 30.140625 4.359375 
Q 29 -1.125 26.921875 -6.90625 
Q 24.859375 -12.703125 21.625 -16.609375 
Q 18.40625 -20.515625 14.015625 -20.515625 
Q 10.640625 -20.515625 7.984375 -18.578125 
Q 5.328125 -16.65625 5.328125 -13.484375 
Q 5.328125 -10.9375 6.953125 -9.046875 
Q 8.59375 -7.171875 11.078125 -7.171875 
Q 12.75 -7.171875 13.859375 -8.171875 
Q 14.984375 -9.1875 14.984375 -10.796875 
Q 14.984375 -12.9375 13.390625 -14.71875 
Q 11.8125 -16.5 9.71875 -16.5 
z
" id="Cmmi10-66"/>
      </defs>
      <g transform="translate(211.667207 100.913766)scale(0.1 -0.1)">
       <use transform="translate(0 0.484375)" xlink:href="#Cmmi10-66"/>
      </g>
     </g>
    </g>
    <g id="xtick_3">
     <g id="line2d_22">
      <path clip-path="url(#pd635889b46)" d="M 562.529887 87.704405 
L 562.529887 16.528672 
" style="fill:none;stroke:#000000;stroke-dasharray:0.5,0.825;stroke-dashoffset:0;stroke-width:0.5;"/>
     </g>
     <g id="line2d_23">
      <g>
       <use style="stroke:#000000;stroke-width:0.8;" x="562.529887" xlink:href="#m3c29b2fe41" y="86.335641"/>
      </g>
     </g>
     <g id="text_2">
      <!-- $1$ -->
      <defs>
       <path d="M 9.28125 0 
L 9.28125 3.515625 
Q 21.78125 3.515625 21.78125 6.6875 
L 21.78125 59.1875 
Q 16.609375 56.6875 8.6875 56.6875 
L 8.6875 60.203125 
Q 20.953125 60.203125 27.203125 66.609375 
L 28.609375 66.609375 
Q 28.953125 66.609375 29.265625 66.328125 
Q 29.59375 66.0625 29.59375 65.71875 
L 29.59375 6.6875 
Q 29.59375 3.515625 42.09375 3.515625 
L 42.09375 0 
z
" id="Cmr10-31"/>
      </defs>
      <g transform="translate(560.029887 100.934078)scale(0.1 -0.1)">
       <use transform="translate(0 0.390625)" xlink:href="#Cmr10-31"/>
      </g>
     </g>
    </g>
   </g>
   <g id="matplotlib.axis_2">
    <g id="ytick_1">
     <g id="line2d_24">
      <path clip-path="url(#pd635889b46)" d="M 4.074135 86.335641 
L 573.48 86.335641 
" style="fill:none;stroke:#000000;stroke-dasharray:0.5,0.825;stroke-dashoffset:0;stroke-width:0.5;"/>
     </g>
     <g id="line2d_25">
      <defs>
       <path d="M 0 0 
L -3.5 0 
" id="m032b7f80b0" style="stroke:#000000;stroke-width:0.8;"/>
      </defs>
      <g>
       <use style="stroke:#000000;stroke-width:0.8;" x="15.024247" xlink:href="#m032b7f80b0" y="86.335641"/>
      </g>
     </g>
    </g>
    <g id="ytick_2">
     <g id="line2d_26">
      <path clip-path="url(#pd635889b46)" d="M 4.074135 17.897436 
L 573.48 17.897436 
" style="fill:none;stroke:#000000;stroke-dasharray:0.5,0.825;stroke-dashoffset:0;stroke-width:0.5;"/>
     </g>
     <g id="line2d_27">
      <g>
       <use style="stroke:#000000;stroke-width:0.8;" x="15.024247" xlink:href="#m032b7f80b0" y="17.897436"/>
      </g>
     </g>
     <g id="text_3">
      <!-- $1$ -->
      <g transform="translate(3.024247 21.696655)scale(0.1 -0.1)">
       <use transform="translate(0 0.390625)" xlink:href="#Cmr10-31"/>
      </g>
     </g>
    </g>
   </g>
   <g id="patch_3">
    <path d="M 15.024247 87.704405 
L 15.024247 16.528672 
" style="fill:none;stroke:#000000;stroke-linecap:square;stroke-linejoin:miter;stroke-width:0.8;"/>
   </g>
   <g id="patch_4">
    <path d="M 4.074135 86.335641 
L 573.48 86.335641 
" style="fill:none;stroke:#000000;stroke-linecap:square;stroke-linejoin:miter;stroke-width:0.8;"/>
   </g>
  </g>
 </g>
 <defs>
  <clipPath id="pd635889b46">
   <rect height="71.175733" width="569.405865" x="4.074135" y="16.528672"/>
  </clipPath>
 </defs>
</svg>
