<?xml version="1.0" encoding="utf-8" standalone="no"?>
<!DOCTYPE svg PUBLIC "-//W3C//DTD SVG 1.1//EN"
  "http://www.w3.org/Graphics/SVG/1.1/DTD/svg11.dtd">
<!-- Created with matplotlib (http://matplotlib.org/) -->
<svg height="108pt" version="1.1" viewBox="0 0 576 108" width="576pt" xmlns="http://www.w3.org/2000/svg" xmlns:xlink="http://www.w3.org/1999/xlink">
 <defs>
  <style type="text/css">
*{stroke-linecap:butt;stroke-linejoin:round;}
  </style>
 </defs>
 <g id="figure_1">
  <g id="patch_1">
   <path d="M 0 108 
L 576 108 
L 576 0 
L 0 0 
z
" style="fill:#ffffff;"/>
  </g>
  <g id="axes_1">
   <g id="patch_2">
    <path d="M 4.074135 87.704405 
L 573.48 87.704405 
L 573.48 16.528672 
L 4.074135 16.528672 
z
" style="fill:#ffffff;"/>
   </g>
   <g id="line2d_1">
    <path clip-path="url(#p4d2bb2048d)" d="M 114.570727 49.835265 
L 139.457347 65.804179 
L 139.457347 65.804179 
" style="fill:none;stroke:#ff0000;stroke-linecap:square;stroke-width:2;"/>
   </g>
   <g id="line2d_2">
    <path clip-path="url(#p4d2bb2048d)" d="M 164.343967 56.679085 
L 189.230587 72.648 
L 189.230587 72.648 
" style="fill:none;stroke:#ff0000;stroke-linecap:square;stroke-width:2;"/>
   </g>
   <g id="line2d_3">
    <path clip-path="url(#p4d2bb2048d)" d="M 288.777067 36.147624 
L 338.550307 68.085453 
L 338.550307 68.085453 
" style="fill:none;stroke:#ff0000;stroke-linecap:square;stroke-width:2;"/>
   </g>
   <g id="line2d_4">
    <path clip-path="url(#p4d2bb2048d)" d="M 438.096787 31.585077 
L 462.983407 47.553991 
L 462.983407 47.553991 
" style="fill:none;stroke:#ff0000;stroke-linecap:square;stroke-width:2;"/>
   </g>
   <g id="line2d_5">
    <path clip-path="url(#p4d2bb2048d)" d="M 487.870027 38.428897 
L 507.670856 51.134429 
L 507.670856 51.134429 
" style="fill:none;stroke:#ff0000;stroke-linecap:square;stroke-width:2;"/>
   </g>
   <g id="line2d_6">
    <path clip-path="url(#p4d2bb2048d)" d="M 508.055388 51.381171 
L 508.099222 51.409297 
L 508.303899 51.540632 
L 508.406388 51.606395 
L 508.502609 51.668137 
L 508.599155 51.730088 
L 508.7382 51.819308 
L 508.825018 51.875017 
L 508.999616 51.98705 
L 509.109854 52.057787 
L 509.242075 52.142628 
L 509.332461 52.200626 
L 509.469354 52.288466 
L 509.688623 52.429163 
L 509.760717 52.475424 
L 509.924713 52.580654 
L 509.984857 52.619247 
L 510.16613 52.735563 
L 510.235852 52.780302 
L 510.38999 52.879207 
L 510.520767 52.963122 
L 510.611879 53.021585 
L 510.715611 53.088147 
L 510.938922 53.231438 
L 511.059822 53.309016 
L 511.076315 53.319599 
L 511.19852 53.398014 
L 511.405434 53.530783 
L 511.491076 53.585737 
L 511.577863 53.641425 
L 511.708003 53.724932 
L 511.902043 53.849441 
L 512.012656 53.920418 
L 512.072388 53.958746 
L 512.213292 54.049159 
L 512.381223 54.156915 
L 512.46821 54.212731 
L 512.673352 54.344364 
L 512.756647 54.397812 
" style="fill:none;stroke:#ff0000;stroke-linecap:square;stroke-width:2;"/>
   </g>
   <g id="line2d_7">
    <path clip-path="url(#p4d2bb2048d)" d="M 64.797487 17.897436 
L 89.684107 58.960359 
L 89.684107 58.960359 
" style="fill:none;stroke:#cbff00;stroke-linecap:square;stroke-width:2;"/>
   </g>
   <g id="line2d_8">
    <path clip-path="url(#p4d2bb2048d)" d="M 537.643267 45.272718 
L 562.529887 86.335641 
L 562.529887 86.335641 
" style="fill:none;stroke:#cbff00;stroke-linecap:square;stroke-width:2;"/>
   </g>
   <g id="line2d_9">
    <path clip-path="url(#p4d2bb2048d)" d="M 15.024247 86.335641 
L 64.797487 17.897436 
L 64.797487 17.897436 
" style="fill:none;stroke:#00ff66;stroke-linecap:square;stroke-width:2;"/>
   </g>
   <g id="line2d_10">
    <path clip-path="url(#p4d2bb2048d)" d="M 189.230587 72.648 
L 214.117207 38.428897 
L 214.117207 38.428897 
" style="fill:none;stroke:#00ff66;stroke-linecap:square;stroke-width:2;"/>
   </g>
   <g id="line2d_11">
    <path clip-path="url(#p4d2bb2048d)" d="M 413.210167 65.804179 
L 438.096787 31.585077 
L 438.096787 31.585077 
" style="fill:none;stroke:#00ff66;stroke-linecap:square;stroke-width:2;"/>
   </g>
   <g id="line2d_12">
    <path clip-path="url(#p4d2bb2048d)" d="M 214.117207 38.428897 
L 263.890447 45.272718 
L 263.890447 45.272718 
" style="fill:none;stroke:#0066ff;stroke-linecap:square;stroke-width:2;"/>
   </g>
   <g id="line2d_13">
    <path clip-path="url(#p4d2bb2048d)" d="M 363.436927 58.960359 
L 413.210167 65.804179 
L 413.210167 65.804179 
" style="fill:none;stroke:#0066ff;stroke-linecap:square;stroke-width:2;"/>
   </g>
   <g id="line2d_14">
    <path clip-path="url(#p4d2bb2048d)" d="M 89.684107 58.960359 
L 114.570727 49.835265 
L 114.570727 49.835265 
" style="fill:none;stroke:#cc00ff;stroke-linecap:square;stroke-width:2;"/>
   </g>
   <g id="line2d_15">
    <path clip-path="url(#p4d2bb2048d)" d="M 139.457347 65.804179 
L 164.343967 56.679085 
L 164.343967 56.679085 
" style="fill:none;stroke:#cc00ff;stroke-linecap:square;stroke-width:2;"/>
   </g>
   <g id="line2d_16">
    <path clip-path="url(#p4d2bb2048d)" d="M 263.890447 45.272718 
L 264.029203 45.221841 
L 264.177361 45.167516 
L 264.253651 45.139543 
L 264.418849 45.078971 
L 264.455779 45.06543 
L 264.624158 45.003691 
L 264.808184 44.936214 
L 264.93468 44.889833 
" style="fill:none;stroke:#cc00ff;stroke-linecap:square;stroke-width:2;"/>
   </g>
   <g id="line2d_17">
    <path clip-path="url(#p4d2bb2048d)" d="M 265.27765 44.764077 
L 288.777067 36.147624 
L 288.777067 36.147624 
" style="fill:none;stroke:#cc00ff;stroke-linecap:square;stroke-width:2;"/>
   </g>
   <g id="line2d_18">
    <path clip-path="url(#p4d2bb2048d)" d="M 338.550307 68.085453 
L 363.436927 58.960359 
L 363.436927 58.960359 
" style="fill:none;stroke:#cc00ff;stroke-linecap:square;stroke-width:2;"/>
   </g>
   <g id="line2d_19">
    <path clip-path="url(#p4d2bb2048d)" d="M 462.983407 47.553991 
L 487.870027 38.428897 
L 487.870027 38.428897 
" style="fill:none;stroke:#cc00ff;stroke-linecap:square;stroke-width:2;"/>
   </g>
   <g id="line2d_20">
    <path clip-path="url(#p4d2bb2048d)" d="M 512.756647 54.397812 
L 537.643267 45.272718 
L 537.643267 45.272718 
" style="fill:none;stroke:#cc00ff;stroke-linecap:square;stroke-width:2;"/>
   </g>
   <g id="matplotlib.axis_1">
    <g id="xtick_1">
     <g id="line2d_21">
      <path clip-path="url(#p4d2bb2048d)" d="M 15.024247 87.704405 
L 15.024247 16.528672 
" style="fill:none;stroke:#000000;stroke-dasharray:0.5,0.825;stroke-dashoffset:0;stroke-width:0.5;"/>
     </g>
     <g id="line2d_22">
      <defs>
       <path d="M 0 0 
L 0 3.5 
" id="m313627beb5" style="stroke:#000000;stroke-width:0.8;"/>
      </defs>
      <g>
       <use style="stroke:#000000;stroke-width:0.8;" x="15.024247" xlink:href="#m313627beb5" y="86.335641"/>
      </g>
     </g>
    </g>
    <g id="xtick_2">
     <g id="line2d_23">
      <path clip-path="url(#p4d2bb2048d)" d="M 64.797487 87.704405 
L 64.797487 16.528672 
" style="fill:none;stroke:#000000;stroke-dasharray:0.5,0.825;stroke-dashoffset:0;stroke-width:0.5;"/>
     </g>
     <g id="line2d_24">
      <g>
       <use style="stroke:#000000;stroke-width:0.8;" x="64.797487" xlink:href="#m313627beb5" y="86.335641"/>
      </g>
     </g>
     <g id="text_1">
      <!-- $f$ -->
      <defs>
       <path d="M 9.71875 -16.5 
Q 11.578125 -17.921875 14.203125 -17.921875 
Q 17.78125 -17.921875 20.015625 -10.015625 
Q 20.953125 -6.203125 25.09375 15.09375 
L 29.6875 39.59375 
L 21.09375 39.59375 
Q 20.125 39.59375 20.125 40.921875 
Q 20.515625 43.109375 21.390625 43.109375 
L 30.328125 43.109375 
L 31.5 49.609375 
Q 32.078125 52.640625 32.5625 54.8125 
Q 33.0625 56.984375 33.625 58.828125 
Q 34.1875 60.6875 35.296875 62.984375 
Q 37.015625 66.265625 39.921875 68.390625 
Q 42.828125 70.515625 46.1875 70.515625 
Q 48.390625 70.515625 50.46875 69.703125 
Q 52.546875 68.890625 53.859375 67.28125 
Q 55.171875 65.671875 55.171875 63.484375 
Q 55.171875 60.9375 53.484375 59.046875 
Q 51.8125 57.171875 49.421875 57.171875 
Q 47.796875 57.171875 46.65625 58.171875 
Q 45.515625 59.1875 45.515625 60.796875 
Q 45.515625 62.984375 47 64.625 
Q 48.484375 66.265625 50.6875 66.5 
Q 48.828125 67.921875 46.09375 67.921875 
Q 44.578125 67.921875 43.234375 66.5 
Q 41.890625 65.09375 41.5 63.484375 
Q 40.875 60.9375 38.71875 49.703125 
L 37.5 43.109375 
L 47.796875 43.109375 
Q 48.78125 43.109375 48.78125 41.796875 
Q 48.734375 41.546875 48.578125 40.9375 
Q 48.4375 40.328125 48.171875 39.953125 
Q 47.90625 39.59375 47.515625 39.59375 
L 36.8125 39.59375 
L 32.171875 15.1875 
Q 31.296875 9.859375 30.140625 4.359375 
Q 29 -1.125 26.921875 -6.90625 
Q 24.859375 -12.703125 21.625 -16.609375 
Q 18.40625 -20.515625 14.015625 -20.515625 
Q 10.640625 -20.515625 7.984375 -18.578125 
Q 5.328125 -16.65625 5.328125 -13.484375 
Q 5.328125 -10.9375 6.953125 -9.046875 
Q 8.59375 -7.171875 11.078125 -7.171875 
Q 12.75 -7.171875 13.859375 -8.171875 
Q 14.984375 -9.1875 14.984375 -10.796875 
Q 14.984375 -12.9375 13.390625 -14.71875 
Q 11.8125 -16.5 9.71875 -16.5 
z
" id="Cmmi10-66"/>
      </defs>
      <g transform="translate(62.347487 100.913766)scale(0.1 -0.1)">
       <use transform="translate(0 0.484375)" xlink:href="#Cmmi10-66"/>
      </g>
     </g>
    </g>
    <g id="xtick_3">
     <g id="line2d_25">
      <path clip-path="url(#p4d2bb2048d)" d="M 562.529887 87.704405 
L 562.529887 16.528672 
" style="fill:none;stroke:#000000;stroke-dasharray:0.5,0.825;stroke-dashoffset:0;stroke-width:0.5;"/>
     </g>
     <g id="line2d_26">
      <g>
       <use style="stroke:#000000;stroke-width:0.8;" x="562.529887" xlink:href="#m313627beb5" y="86.335641"/>
      </g>
     </g>
     <g id="text_2">
      <!-- $1$ -->
      <defs>
       <path d="M 9.28125 0 
L 9.28125 3.515625 
Q 21.78125 3.515625 21.78125 6.6875 
L 21.78125 59.1875 
Q 16.609375 56.6875 8.6875 56.6875 
L 8.6875 60.203125 
Q 20.953125 60.203125 27.203125 66.609375 
L 28.609375 66.609375 
Q 28.953125 66.609375 29.265625 66.328125 
Q 29.59375 66.0625 29.59375 65.71875 
L 29.59375 6.6875 
Q 29.59375 3.515625 42.09375 3.515625 
L 42.09375 0 
z
" id="Cmr10-31"/>
      </defs>
      <g transform="translate(560.029887 100.934078)scale(0.1 -0.1)">
       <use transform="translate(0 0.390625)" xlink:href="#Cmr10-31"/>
      </g>
     </g>
    </g>
   </g>
   <g id="matplotlib.axis_2">
    <g id="ytick_1">
     <g id="line2d_27">
      <path clip-path="url(#p4d2bb2048d)" d="M 4.074135 86.335641 
L 573.48 86.335641 
" style="fill:none;stroke:#000000;stroke-dasharray:0.5,0.825;stroke-dashoffset:0;stroke-width:0.5;"/>
     </g>
     <g id="line2d_28">
      <defs>
       <path d="M 0 0 
L -3.5 0 
" id="mb4da811f0f" style="stroke:#000000;stroke-width:0.8;"/>
      </defs>
      <g>
       <use style="stroke:#000000;stroke-width:0.8;" x="15.024247" xlink:href="#mb4da811f0f" y="86.335641"/>
      </g>
     </g>
    </g>
    <g id="ytick_2">
     <g id="line2d_29">
      <path clip-path="url(#p4d2bb2048d)" d="M 4.074135 17.897436 
L 573.48 17.897436 
" style="fill:none;stroke:#000000;stroke-dasharray:0.5,0.825;stroke-dashoffset:0;stroke-width:0.5;"/>
     </g>
     <g id="line2d_30">
      <g>
       <use style="stroke:#000000;stroke-width:0.8;" x="15.024247" xlink:href="#mb4da811f0f" y="17.897436"/>
      </g>
     </g>
     <g id="text_3">
      <!-- $1$ -->
      <g transform="translate(3.024247 21.696655)scale(0.1 -0.1)">
       <use transform="translate(0 0.390625)" xlink:href="#Cmr10-31"/>
      </g>
     </g>
    </g>
   </g>
   <g id="patch_3">
    <path d="M 15.024247 87.704405 
L 15.024247 16.528672 
" style="fill:none;stroke:#000000;stroke-linecap:square;stroke-linejoin:miter;stroke-width:0.8;"/>
   </g>
   <g id="patch_4">
    <path d="M 4.074135 86.335641 
L 573.48 86.335641 
" style="fill:none;stroke:#000000;stroke-linecap:square;stroke-linejoin:miter;stroke-width:0.8;"/>
   </g>
  </g>
 </g>
 <defs>
  <clipPath id="p4d2bb2048d">
   <rect height="71.175733" width="569.405865" x="4.074135" y="16.528672"/>
  </clipPath>
 </defs>
</svg>
