<?xml version="1.0" encoding="utf-8" standalone="no"?>
<!DOCTYPE svg PUBLIC "-//W3C//DTD SVG 1.1//EN"
  "http://www.w3.org/Graphics/SVG/1.1/DTD/svg11.dtd">
<!-- Created with matplotlib (http://matplotlib.org/) -->
<svg height="108pt" version="1.1" viewBox="0 0 576 108" width="576pt" xmlns="http://www.w3.org/2000/svg" xmlns:xlink="http://www.w3.org/1999/xlink">
 <defs>
  <style type="text/css">
*{stroke-linecap:butt;stroke-linejoin:round;}
  </style>
 </defs>
 <g id="figure_1">
  <g id="patch_1">
   <path d="M 0 108 
L 576 108 
L 576 0 
L 0 0 
z
" style="fill:#ffffff;"/>
  </g>
  <g id="axes_1">
   <g id="patch_2">
    <path d="M 4.074135 87.704405 
L 573.48 87.704405 
L 573.48 16.528672 
L 4.074135 16.528672 
z
" style="fill:#ffffff;"/>
   </g>
   <g id="line2d_1">
    <path clip-path="url(#p820d632866)" d="M 114.570727 63.522906 
L 139.457347 42.135967 
L 139.457347 42.135967 
" style="fill:none;stroke:#ff0000;stroke-linecap:square;stroke-width:2;"/>
   </g>
   <g id="line2d_2">
    <path clip-path="url(#p820d632866)" d="M 239.003827 50.690743 
L 263.890447 29.303803 
L 263.890447 29.303803 
" style="fill:none;stroke:#ff0000;stroke-linecap:square;stroke-width:2;"/>
   </g>
   <g id="line2d_3">
    <path clip-path="url(#p820d632866)" d="M 338.550307 74.929273 
L 363.436927 53.542334 
L 363.436927 53.542334 
" style="fill:none;stroke:#ff0000;stroke-linecap:square;stroke-width:2;"/>
   </g>
   <g id="line2d_4">
    <path clip-path="url(#p820d632866)" d="M 462.983407 62.09711 
L 487.870027 40.710171 
L 487.870027 40.710171 
" style="fill:none;stroke:#ff0000;stroke-linecap:square;stroke-width:2;"/>
   </g>
   <g id="line2d_5">
    <path clip-path="url(#p820d632866)" d="M 139.457347 42.135967 
L 164.343967 52.116538 
L 164.343967 52.116538 
" style="fill:none;stroke:#cbff00;stroke-linecap:square;stroke-width:2;"/>
   </g>
   <g id="line2d_6">
    <path clip-path="url(#p820d632866)" d="M 214.117207 40.710171 
L 239.003827 50.690743 
L 239.003827 50.690743 
" style="fill:none;stroke:#cbff00;stroke-linecap:square;stroke-width:2;"/>
   </g>
   <g id="line2d_7">
    <path clip-path="url(#p820d632866)" d="M 263.890447 29.303803 
L 288.777067 39.284375 
L 288.777067 39.284375 
" style="fill:none;stroke:#cbff00;stroke-linecap:square;stroke-width:2;"/>
   </g>
   <g id="line2d_8">
    <path clip-path="url(#p820d632866)" d="M 313.663687 64.948702 
L 338.550307 74.929273 
L 338.550307 74.929273 
" style="fill:none;stroke:#cbff00;stroke-linecap:square;stroke-width:2;"/>
   </g>
   <g id="line2d_9">
    <path clip-path="url(#p820d632866)" d="M 363.436927 53.542334 
L 388.323547 63.522906 
L 388.323547 63.522906 
" style="fill:none;stroke:#cbff00;stroke-linecap:square;stroke-width:2;"/>
   </g>
   <g id="line2d_10">
    <path clip-path="url(#p820d632866)" d="M 438.096787 52.116538 
L 462.983407 62.09711 
L 462.983407 62.09711 
" style="fill:none;stroke:#cbff00;stroke-linecap:square;stroke-width:2;"/>
   </g>
   <g id="line2d_11">
    <path clip-path="url(#p820d632866)" d="M 89.684107 69.22609 
L 114.570727 63.522906 
L 114.570727 63.522906 
" style="fill:none;stroke:#00ff66;stroke-linecap:square;stroke-width:2;"/>
   </g>
   <g id="line2d_12">
    <path clip-path="url(#p820d632866)" d="M 164.343967 52.116538 
L 214.117207 40.710171 
L 214.117207 40.710171 
" style="fill:none;stroke:#00ff66;stroke-linecap:square;stroke-width:2;"/>
   </g>
   <g id="line2d_13">
    <path clip-path="url(#p820d632866)" d="M 388.323547 63.522906 
L 438.096787 52.116538 
L 438.096787 52.116538 
" style="fill:none;stroke:#00ff66;stroke-linecap:square;stroke-width:2;"/>
   </g>
   <g id="line2d_14">
    <path clip-path="url(#p820d632866)" d="M 487.870027 40.710171 
L 488.05318 40.668198 
L 488.168951 40.641668 
L 488.25075 40.622922 
L 488.330928 40.604548 
L 488.524621 40.56016 
L 488.628785 40.536289 
L 488.769932 40.503943 
L 488.814898 40.493638 
L 489.020982 40.44641 
L 489.068477 40.435526 
L 489.294243 40.383788 
L 489.34443 40.372287 
L 489.499536 40.336742 
L 489.609631 40.311512 
L 489.807973 40.266058 
L 489.852818 40.255781 
L 490.053186 40.209864 
L 490.064896 40.20718 
L 490.230082 40.169325 
L 490.422711 40.125181 
L 490.46365 40.115799 
L 490.672921 40.067841 
L 490.804103 40.037779 
L 490.882129 40.019898 
L 491.033686 39.985166 
L 491.156627 39.956992 
L 491.297284 39.924758 
L 491.400179 39.901178 
L 491.511207 39.875734 
L 491.559476 39.864672 
L 491.778897 39.814388 
L 491.926746 39.780506 
L 492.043526 39.753744 
L 492.13985 39.73167 
L 492.209291 39.715756 
L 492.344159 39.684849 
L 492.466538 39.656804 
L 492.66676 39.61092 
L 492.694901 39.604471 
L 492.924169 39.55193 
L 492.995912 39.535489 
L 493.106484 39.51015 
L 493.305601 39.464519 
L 493.411212 39.440316 
L 493.536941 39.411503 
L 493.585705 39.400328 
L 493.686022 39.377339 
L 493.879755 39.332942 
L 493.960461 39.314446 
L 494.062496 39.291063 
L 494.303202 39.235902 
L 494.426702 39.2076 
L 494.459911 39.199989 
L 494.674174 39.150887 
L 494.784995 39.125491 
L 494.88815 39.101851 
L 495.03111 39.069089 
L 495.068023 39.06063 
L 495.308781 39.005457 
L 495.320614 39.002745 
L 495.538678 38.952772 
L 495.639723 38.929616 
L 495.804067 38.891954 
L 495.922699 38.864767 
L 495.97106 38.853684 
L 496.149283 38.812841 
L 496.247468 38.790341 
L 496.341224 38.768855 
L 496.478601 38.737373 
L 496.6762 38.69209 
" style="fill:none;stroke:#00ff66;stroke-linecap:square;stroke-width:2;"/>
   </g>
   <g id="line2d_15">
    <path clip-path="url(#p820d632866)" d="M 496.968962 38.624998 
L 497.177328 38.577248 
L 497.208257 38.57016 
L 497.403255 38.525473 
L 497.455729 38.513448 
L 497.684393 38.461046 
L 497.752068 38.445537 
L 497.860562 38.420673 
L 497.938997 38.402699 
L 498.079274 38.370552 
L 498.262677 38.328522 
L 498.431712 38.289785 
L 498.477476 38.279297 
L 498.647491 38.240335 
L 498.775528 38.210994 
L 498.922937 38.177213 
L 499.004961 38.158415 
L 499.172176 38.120095 
L 499.270444 38.097575 
L 499.350686 38.079187 
L 499.462422 38.05358 
L 499.619241 38.017643 
L 499.75692 37.986091 
L 499.853689 37.963915 
L 499.9877 37.933204 
L 500.111826 37.904759 
L 500.230575 37.877545 
L 500.322144 37.856561 
L 500.548345 37.804723 
L 500.622573 37.787713 
L 500.728025 37.763547 
L 500.895507 37.725165 
L 501.003524 37.700411 
L 501.151938 37.6664 
L 501.195396 37.656441 
L 501.382659 37.613526 
L 501.466289 37.594361 
L 501.685536 37.544117 
L 501.695428 37.54185 
L 501.904308 37.493982 
L 501.954936 37.482379 
L 502.100087 37.449116 
L 502.197086 37.426887 
L 502.415944 37.376732 
L 502.553704 37.345162 
L 502.631597 37.327311 
L 502.768264 37.295992 
L 502.935029 37.257775 
L 502.981341 37.247162 
L 503.173457 37.203135 
L 503.194059 37.198414 
L 503.401144 37.150957 
L 503.502311 37.127773 
L 503.689805 37.084805 
L 503.701306 37.08217 
L 503.834612 37.05162 
L 504.020814 37.008949 
L 504.111422 36.988185 
L 504.31114 36.942416 
L 504.415719 36.91845 
L 504.51772 36.895075 
L 504.678192 36.8583 
L 504.768116 36.837692 
L 504.854054 36.817998 
L 504.957777 36.794228 
L 505.08193 36.765777 
L 505.214836 36.735319 
L 505.384279 36.696488 
L 505.551932 36.658068 
L 505.591659 36.648964 
L 505.693179 36.625699 
L 505.890364 36.580511 
L 505.948313 36.56723 
L 506.127875 36.526081 
L 506.232184 36.502177 
L 506.340044 36.477459 
L 506.563651 36.426216 
L 506.640322 36.408645 
L 506.807157 36.370412 
L 506.869936 36.356025 
L 506.981252 36.330515 
L 507.078163 36.308307 
L 507.214219 36.277127 
L 507.374571 36.24038 
L 507.489208 36.214109 
L 507.569146 36.19579 
L 507.696351 36.166638 
L 507.833657 36.135172 
L 508.008108 36.095194 
L 508.171799 36.057682 
L 508.235389 36.043109 
L 508.331392 36.021108 
L 508.520571 35.977755 
L 508.614678 35.956188 
L 508.747493 35.925752 
L 508.890391 35.893004 
L 509.056184 35.85501 
L 509.145874 35.834456 
L 509.26313 35.807585 
L 509.411292 35.773631 
L 509.556842 35.740276 
L 509.605759 35.729066 
L 509.719362 35.703032 
L 509.823414 35.679186 
L 510.009931 35.636443 
L 510.133097 35.608217 
L 510.290082 35.572242 
L 510.324485 35.564358 
L 510.559794 35.510433 
L 510.631431 35.494016 
L 510.735423 35.470184 
L 510.914591 35.429125 
L 510.951555 35.420654 
L 511.116425 35.382872 
L 511.269274 35.347844 
L 511.394763 35.319086 
L 511.534143 35.287144 
L 511.674648 35.254945 
L 511.760658 35.235235 
L 511.875914 35.208822 
L 512.009492 35.17821 
L 512.078209 35.162463 
L 512.284376 35.115216 
L 512.327378 35.105361 
L 512.475185 35.071489 
L 512.684513 35.023518 
L 512.756647 35.006987 
" style="fill:none;stroke:#00ff66;stroke-linecap:square;stroke-width:2;"/>
   </g>
   <g id="line2d_16">
    <path clip-path="url(#p820d632866)" d="M 39.910867 17.897436 
L 89.684107 69.22609 
L 89.684107 69.22609 
" style="fill:none;stroke:#0066ff;stroke-linecap:square;stroke-width:2;"/>
   </g>
   <g id="line2d_17">
    <path clip-path="url(#p820d632866)" d="M 288.777067 39.284375 
L 313.663687 64.948702 
L 313.663687 64.948702 
" style="fill:none;stroke:#0066ff;stroke-linecap:square;stroke-width:2;"/>
   </g>
   <g id="line2d_18">
    <path clip-path="url(#p820d632866)" d="M 512.756647 35.006987 
L 562.529887 86.335641 
L 562.529887 86.335641 
" style="fill:none;stroke:#0066ff;stroke-linecap:square;stroke-width:2;"/>
   </g>
   <g id="line2d_19">
    <path clip-path="url(#p820d632866)" d="M 15.024247 86.335641 
L 39.910867 17.897436 
L 39.910867 17.897436 
" style="fill:none;stroke:#cc00ff;stroke-linecap:square;stroke-width:2;"/>
   </g>
   <g id="matplotlib.axis_1">
    <g id="xtick_1">
     <g id="line2d_20">
      <path clip-path="url(#p820d632866)" d="M 15.024247 87.704405 
L 15.024247 16.528672 
" style="fill:none;stroke:#000000;stroke-dasharray:0.5,0.825;stroke-dashoffset:0;stroke-width:0.5;"/>
     </g>
     <g id="line2d_21">
      <defs>
       <path d="M 0 0 
L 0 3.5 
" id="m49a97a7fbd" style="stroke:#000000;stroke-width:0.8;"/>
      </defs>
      <g>
       <use style="stroke:#000000;stroke-width:0.8;" x="15.024247" xlink:href="#m49a97a7fbd" y="86.335641"/>
      </g>
     </g>
    </g>
    <g id="xtick_2">
     <g id="line2d_22">
      <path clip-path="url(#p820d632866)" d="M 39.910867 87.704405 
L 39.910867 16.528672 
" style="fill:none;stroke:#000000;stroke-dasharray:0.5,0.825;stroke-dashoffset:0;stroke-width:0.5;"/>
     </g>
     <g id="line2d_23">
      <g>
       <use style="stroke:#000000;stroke-width:0.8;" x="39.910867" xlink:href="#m49a97a7fbd" y="86.335641"/>
      </g>
     </g>
     <g id="text_1">
      <!-- $f$ -->
      <defs>
       <path d="M 9.71875 -16.5 
Q 11.578125 -17.921875 14.203125 -17.921875 
Q 17.78125 -17.921875 20.015625 -10.015625 
Q 20.953125 -6.203125 25.09375 15.09375 
L 29.6875 39.59375 
L 21.09375 39.59375 
Q 20.125 39.59375 20.125 40.921875 
Q 20.515625 43.109375 21.390625 43.109375 
L 30.328125 43.109375 
L 31.5 49.609375 
Q 32.078125 52.640625 32.5625 54.8125 
Q 33.0625 56.984375 33.625 58.828125 
Q 34.1875 60.6875 35.296875 62.984375 
Q 37.015625 66.265625 39.921875 68.390625 
Q 42.828125 70.515625 46.1875 70.515625 
Q 48.390625 70.515625 50.46875 69.703125 
Q 52.546875 68.890625 53.859375 67.28125 
Q 55.171875 65.671875 55.171875 63.484375 
Q 55.171875 60.9375 53.484375 59.046875 
Q 51.8125 57.171875 49.421875 57.171875 
Q 47.796875 57.171875 46.65625 58.171875 
Q 45.515625 59.1875 45.515625 60.796875 
Q 45.515625 62.984375 47 64.625 
Q 48.484375 66.265625 50.6875 66.5 
Q 48.828125 67.921875 46.09375 67.921875 
Q 44.578125 67.921875 43.234375 66.5 
Q 41.890625 65.09375 41.5 63.484375 
Q 40.875 60.9375 38.71875 49.703125 
L 37.5 43.109375 
L 47.796875 43.109375 
Q 48.78125 43.109375 48.78125 41.796875 
Q 48.734375 41.546875 48.578125 40.9375 
Q 48.4375 40.328125 48.171875 39.953125 
Q 47.90625 39.59375 47.515625 39.59375 
L 36.8125 39.59375 
L 32.171875 15.1875 
Q 31.296875 9.859375 30.140625 4.359375 
Q 29 -1.125 26.921875 -6.90625 
Q 24.859375 -12.703125 21.625 -16.609375 
Q 18.40625 -20.515625 14.015625 -20.515625 
Q 10.640625 -20.515625 7.984375 -18.578125 
Q 5.328125 -16.65625 5.328125 -13.484375 
Q 5.328125 -10.9375 6.953125 -9.046875 
Q 8.59375 -7.171875 11.078125 -7.171875 
Q 12.75 -7.171875 13.859375 -8.171875 
Q 14.984375 -9.1875 14.984375 -10.796875 
Q 14.984375 -12.9375 13.390625 -14.71875 
Q 11.8125 -16.5 9.71875 -16.5 
z
" id="Cmmi10-66"/>
      </defs>
      <g transform="translate(37.460867 100.913766)scale(0.1 -0.1)">
       <use transform="translate(0 0.484375)" xlink:href="#Cmmi10-66"/>
      </g>
     </g>
    </g>
    <g id="xtick_3">
     <g id="line2d_24">
      <path clip-path="url(#p820d632866)" d="M 562.529887 87.704405 
L 562.529887 16.528672 
" style="fill:none;stroke:#000000;stroke-dasharray:0.5,0.825;stroke-dashoffset:0;stroke-width:0.5;"/>
     </g>
     <g id="line2d_25">
      <g>
       <use style="stroke:#000000;stroke-width:0.8;" x="562.529887" xlink:href="#m49a97a7fbd" y="86.335641"/>
      </g>
     </g>
     <g id="text_2">
      <!-- $1$ -->
      <defs>
       <path d="M 9.28125 0 
L 9.28125 3.515625 
Q 21.78125 3.515625 21.78125 6.6875 
L 21.78125 59.1875 
Q 16.609375 56.6875 8.6875 56.6875 
L 8.6875 60.203125 
Q 20.953125 60.203125 27.203125 66.609375 
L 28.609375 66.609375 
Q 28.953125 66.609375 29.265625 66.328125 
Q 29.59375 66.0625 29.59375 65.71875 
L 29.59375 6.6875 
Q 29.59375 3.515625 42.09375 3.515625 
L 42.09375 0 
z
" id="Cmr10-31"/>
      </defs>
      <g transform="translate(560.029887 100.934078)scale(0.1 -0.1)">
       <use transform="translate(0 0.390625)" xlink:href="#Cmr10-31"/>
      </g>
     </g>
    </g>
   </g>
   <g id="matplotlib.axis_2">
    <g id="ytick_1">
     <g id="line2d_26">
      <path clip-path="url(#p820d632866)" d="M 4.074135 86.335641 
L 573.48 86.335641 
" style="fill:none;stroke:#000000;stroke-dasharray:0.5,0.825;stroke-dashoffset:0;stroke-width:0.5;"/>
     </g>
     <g id="line2d_27">
      <defs>
       <path d="M 0 0 
L -3.5 0 
" id="mc082bc35d6" style="stroke:#000000;stroke-width:0.8;"/>
      </defs>
      <g>
       <use style="stroke:#000000;stroke-width:0.8;" x="15.024247" xlink:href="#mc082bc35d6" y="86.335641"/>
      </g>
     </g>
    </g>
    <g id="ytick_2">
     <g id="line2d_28">
      <path clip-path="url(#p820d632866)" d="M 4.074135 17.897436 
L 573.48 17.897436 
" style="fill:none;stroke:#000000;stroke-dasharray:0.5,0.825;stroke-dashoffset:0;stroke-width:0.5;"/>
     </g>
     <g id="line2d_29">
      <g>
       <use style="stroke:#000000;stroke-width:0.8;" x="15.024247" xlink:href="#mc082bc35d6" y="17.897436"/>
      </g>
     </g>
     <g id="text_3">
      <!-- $1$ -->
      <g transform="translate(3.024247 21.696655)scale(0.1 -0.1)">
       <use transform="translate(0 0.390625)" xlink:href="#Cmr10-31"/>
      </g>
     </g>
    </g>
   </g>
   <g id="patch_3">
    <path d="M 15.024247 87.704405 
L 15.024247 16.528672 
" style="fill:none;stroke:#000000;stroke-linecap:square;stroke-linejoin:miter;stroke-width:0.8;"/>
   </g>
   <g id="patch_4">
    <path d="M 4.074135 86.335641 
L 573.48 86.335641 
" style="fill:none;stroke:#000000;stroke-linecap:square;stroke-linejoin:miter;stroke-width:0.8;"/>
   </g>
  </g>
 </g>
 <defs>
  <clipPath id="p820d632866">
   <rect height="71.175733" width="569.405865" x="4.074135" y="16.528672"/>
  </clipPath>
 </defs>
</svg>
