<?xml version="1.0" encoding="utf-8" standalone="no"?>
<!DOCTYPE svg PUBLIC "-//W3C//DTD SVG 1.1//EN"
  "http://www.w3.org/Graphics/SVG/1.1/DTD/svg11.dtd">
<!-- Created with matplotlib (http://matplotlib.org/) -->
<svg height="108pt" version="1.1" viewBox="0 0 576 108" width="576pt" xmlns="http://www.w3.org/2000/svg" xmlns:xlink="http://www.w3.org/1999/xlink">
 <defs>
  <style type="text/css">
*{stroke-linecap:butt;stroke-linejoin:round;}
  </style>
 </defs>
 <g id="figure_1">
  <g id="patch_1">
   <path d="M 0 108 
L 576 108 
L 576 0 
L 0 0 
z
" style="fill:#ffffff;"/>
  </g>
  <g id="axes_1">
   <g id="patch_2">
    <path d="M 4.074135 87.704405 
L 573.48 87.704405 
L 573.48 16.528672 
L 4.074135 16.528672 
z
" style="fill:#ffffff;"/>
   </g>
   <g id="line2d_1">
    <path clip-path="url(#p5e11c27c59)" d="M 214.117207 57.301251 
L 230.708287 62.485963 
L 230.708287 62.485963 
" style="fill:none;stroke:#ff0000;stroke-linecap:square;stroke-width:2;"/>
   </g>
   <g id="line2d_2">
    <path clip-path="url(#p5e11c27c59)" d="M 280.481527 55.227366 
L 330.254767 70.781503 
L 330.254767 70.781503 
" style="fill:none;stroke:#ff0000;stroke-linecap:square;stroke-width:2;"/>
   </g>
   <g id="line2d_3">
    <path clip-path="url(#p5e11c27c59)" d="M 429.801247 33.451573 
L 479.574487 49.005711 
L 479.574487 49.005711 
" style="fill:none;stroke:#ff0000;stroke-linecap:square;stroke-width:2;"/>
   </g>
   <g id="line2d_4">
    <path clip-path="url(#p5e11c27c59)" d="M 529.347727 41.747113 
L 545.938807 46.931826 
L 545.938807 46.931826 
" style="fill:none;stroke:#ff0000;stroke-linecap:square;stroke-width:2;"/>
   </g>
   <g id="line2d_5">
    <path clip-path="url(#p5e11c27c59)" d="M 81.388567 61.449021 
L 131.161807 42.784056 
L 131.161807 42.784056 
" style="fill:none;stroke:#ffda00;stroke-linecap:square;stroke-width:2;"/>
   </g>
   <g id="line2d_6">
    <path clip-path="url(#p5e11c27c59)" d="M 330.254767 70.781503 
L 429.801247 33.451573 
L 429.801247 33.451573 
" style="fill:none;stroke:#ffda00;stroke-linecap:square;stroke-width:2;"/>
   </g>
   <g id="line2d_7">
    <path clip-path="url(#p5e11c27c59)" d="M 247.299367 44.857941 
L 263.890447 72.855388 
L 263.890447 72.855388 
" style="fill:none;stroke:#48ff00;stroke-linecap:square;stroke-width:2;"/>
   </g>
   <g id="line2d_8">
    <path clip-path="url(#p5e11c27c59)" d="M 496.165567 31.377688 
L 496.253147 31.52548 
L 496.306508 31.615527 
L 496.404923 31.781601 
L 496.476284 31.902023 
L 496.589323 32.092776 
L 496.635844 32.17128 
L 496.738128 32.343886 
L 496.812071 32.468663 
L 496.927501 32.663451 
L 497.01611 32.81298 
L 497.089558 32.936923 
L 497.151839 33.042022 
L 497.271164 33.243383 
L 497.34984 33.376149 
L 497.398694 33.458589 
L 497.486936 33.607498 
L 497.553973 33.720623 
L 497.697156 33.962245 
L 497.742143 34.03816 
L 497.848916 34.21834 
L 497.87791 34.267267 
L 497.983724 34.445828 
L 498.118448 34.673175 
L 498.184768 34.785089 
L 498.20834 34.824867 
L 498.31973 35.012837 
L 498.434494 35.206502 
L 498.510599 35.33493 
L 498.546202 35.395009 
L 498.62589 35.529483 
L 498.768338 35.769864 
L 498.827521 35.869735 
L 498.933995 36.04941 
L 498.968008 36.106808 
L 499.072085 36.282437 
L 499.196456 36.492313 
L 499.278975 36.631564 
L 499.340051 36.73463 
L 499.406079 36.846052 
L 499.516396 37.032213 
L 499.559936 37.105687 
L 499.66118 37.276534 
L 499.75658 37.437522 
L 499.855554 37.604541 
L 499.943823 37.753494 
L 499.964877 37.789023 
L 500.087183 37.995416 
L 500.200563 38.186743 
L 500.2624 38.291093 
L 500.374131 38.47964 
L 500.38472 38.497508 
L 500.541821 38.762617 
L 500.552786 38.781121 
L 500.671073 38.98073 
L 500.715285 39.055337 
L 500.822474 39.236219 
L 500.909646 39.383322 
L 500.998055 39.532512 
L 501.059891 39.636859 
L 501.169468 39.821771 
L 501.287869 40.021574 
L 501.345821 40.119367 
L 501.41592 40.237659 
L 501.511413 40.398804 
L 501.623661 40.588221 
L 501.646701 40.627102 
L 501.712428 40.738015 
L 501.855356 40.979207 
L 501.9091 41.0699 
L 502.0367 41.285225 
L 502.052799 41.312392 
L 502.161334 41.495544 
L 502.215238 41.586508 
L 502.301768 41.732527 
L 502.42873 41.946776 
L 502.526007 42.110931 
L 502.606201 42.246259 
L 502.634166 42.293449 
L 502.767171 42.517895 
L 502.855294 42.666602 
L 502.954675 42.834308 
L 502.964446 42.850796 
L 503.110185 43.096731 
L 503.130247 43.130585 
L 503.246096 43.326082 
L 503.348691 43.499209 
L 503.400795 43.587136 
L 503.480649 43.721889 
L 503.548865 43.837003 
L 503.63187 43.977075 
L 503.78795 44.240459 
L 503.796061 44.254147 
L 503.922912 44.468208 
L 503.990357 44.582022 
L 504.088983 44.748453 
L 504.145124 44.843191 
L 504.257696 45.033156 
L 504.313124 45.126691 
L 504.435498 45.333197 
L 504.499113 45.440547 
L 504.583561 45.583053 
L 504.668006 45.725554 
L 504.72464 45.821123 
L 504.812625 45.969598 
L 504.929679 46.167126 
L 505.015975 46.312752 
L 505.116095 46.481704 
L 505.198408 46.620607 
L 505.272088 46.744942 
L 505.297818 46.788362 
L 505.408889 46.975794 
L 505.484047 47.102624 
L 505.605544 47.30765 
L 505.7002 47.467381 
L 505.757878 47.564712 
L 505.810379 47.653308 
L 505.938225 47.869048 
L 505.979141 47.938093 
L 506.055784 48.067429 
L 506.209531 48.326876 
L 506.290657 48.463777 
L 506.354608 48.571694 
" style="fill:none;stroke:#48ff00;stroke-linecap:square;stroke-width:2;"/>
   </g>
   <g id="line2d_9">
    <path clip-path="url(#p5e11c27c59)" d="M 506.570792 48.936506 
L 506.662147 49.090667 
L 506.730692 49.206336 
L 506.797075 49.318359 
L 506.917777 49.522042 
L 506.989902 49.643753 
L 507.070245 49.779331 
L 507.152675 49.918434 
L 507.215768 50.024902 
L 507.328314 50.214823 
L 507.428885 50.384538 
L 507.463057 50.442203 
L 507.590876 50.657898 
L 507.706587 50.853159 
L 507.782819 50.9818 
L 507.826253 51.055096 
L 507.960811 51.282162 
L 508.010048 51.36525 
L 508.099727 51.516583 
L 508.181331 51.654289 
L 508.296026 51.847837 
L 508.29678 51.84911 
L 508.44134 52.093056 
L 508.471706 52.144298 
L 508.620515 52.395413 
L 508.685169 52.504516 
L 508.756327 52.624596 
L 508.876565 52.827498 
L 508.931935 52.920934 
L 509.018797 53.067514 
L 509.069729 53.153461 
L 509.182712 53.344121 
L 509.246184 53.45123 
L 509.347342 53.621933 
L 509.42642 53.755378 
L 509.489219 53.861351 
L 509.582423 54.018633 
L 509.700334 54.217608 
L 509.756341 54.312119 
L 509.84524 54.462136 
L 509.900014 54.554567 
L 510.01968 54.756504 
L 510.090958 54.876786 
L 510.143723 54.965826 
L 510.284275 55.203009 
L 510.317078 55.258362 
L 510.420589 55.433038 
L 510.500658 55.568155 
L 510.564415 55.675744 
L 510.698063 55.901275 
L 510.784877 56.047774 
L 510.820305 56.107559 
L 510.911321 56.261148 
L 511.028144 56.458286 
L 511.047987 56.491771 
L 511.150741 56.66517 
L 511.214311 56.772444 
L 511.337276 56.979947 
L 511.460583 57.188027 
L 511.501179 57.256533 
L 511.580156 57.389807 
L 511.707391 57.604517 
L 511.7576 57.689243 
L 511.856899 57.856811 
L 511.902987 57.934585 
L 512.041928 58.169048 
L 512.077308 58.228751 
L 512.160114 58.368486 
L 512.219025 58.467899 
L 512.299229 58.603242 
L 512.406272 58.783878 
L 512.54349 59.015433 
L 512.629252 59.160157 
L 512.680935 59.247372 
L 512.756647 59.375136 
" style="fill:none;stroke:#48ff00;stroke-linecap:square;stroke-width:2;"/>
   </g>
   <g id="line2d_10">
    <path clip-path="url(#p5e11c27c59)" d="M 197.526127 17.897436 
L 214.117207 57.301251 
L 214.117207 57.301251 
" style="fill:none;stroke:#00ff91;stroke-linecap:square;stroke-width:2;"/>
   </g>
   <g id="line2d_11">
    <path clip-path="url(#p5e11c27c59)" d="M 545.938807 46.931826 
L 562.529887 86.335641 
L 562.529887 86.335641 
" style="fill:none;stroke:#00ff91;stroke-linecap:square;stroke-width:2;"/>
   </g>
   <g id="line2d_12">
    <path clip-path="url(#p5e11c27c59)" d="M 15.024247 86.335641 
L 31.615327 57.301251 
L 31.615327 57.301251 
" style="fill:none;stroke:#0091ff;stroke-linecap:square;stroke-width:2;"/>
   </g>
   <g id="line2d_13">
    <path clip-path="url(#p5e11c27c59)" d="M 48.206407 73.892331 
L 64.797487 44.857941 
L 64.797487 44.857941 
" style="fill:none;stroke:#0091ff;stroke-linecap:square;stroke-width:2;"/>
   </g>
   <g id="line2d_14">
    <path clip-path="url(#p5e11c27c59)" d="M 147.752887 59.375136 
L 164.343967 30.340746 
L 164.343967 30.340746 
" style="fill:none;stroke:#0091ff;stroke-linecap:square;stroke-width:2;"/>
   </g>
   <g id="line2d_15">
    <path clip-path="url(#p5e11c27c59)" d="M 180.935047 46.931826 
L 197.526127 17.897436 
L 197.526127 17.897436 
" style="fill:none;stroke:#0091ff;stroke-linecap:square;stroke-width:2;"/>
   </g>
   <g id="line2d_16">
    <path clip-path="url(#p5e11c27c59)" d="M 230.708287 62.485963 
L 247.299367 44.857941 
L 247.299367 44.857941 
" style="fill:none;stroke:#4800ff;stroke-linecap:square;stroke-width:2;"/>
   </g>
   <g id="line2d_17">
    <path clip-path="url(#p5e11c27c59)" d="M 263.890447 72.855388 
L 280.481527 55.227366 
L 280.481527 55.227366 
" style="fill:none;stroke:#4800ff;stroke-linecap:square;stroke-width:2;"/>
   </g>
   <g id="line2d_18">
    <path clip-path="url(#p5e11c27c59)" d="M 479.574487 49.005711 
L 496.165567 31.377688 
L 496.165567 31.377688 
" style="fill:none;stroke:#4800ff;stroke-linecap:square;stroke-width:2;"/>
   </g>
   <g id="line2d_19">
    <path clip-path="url(#p5e11c27c59)" d="M 512.756647 59.375136 
L 512.848544 59.277496 
L 512.906659 59.215749 
L 512.975788 59.142299 
L 513.122893 58.986 
L 513.19042 58.914252 
L 513.22773 58.874611 
L 513.37644 58.716606 
L 513.402588 58.688824 
L 513.488191 58.597871 
L 513.629002 58.448259 
L 513.696861 58.376159 
L 513.728077 58.342991 
L 513.875486 58.18637 
L 513.948488 58.108806 
L 514.038808 58.01284 
L 514.055352 57.995262 
L 514.178815 57.864083 
L 514.249025 57.789484 
L 514.361936 57.669516 
L 514.444962 57.581302 
L 514.481046 57.542962 
L 514.568187 57.450375 
L 514.649652 57.363819 
L 514.760067 57.246503 
L 514.844714 57.156565 
L 514.914815 57.082083 
L 514.968238 57.025321 
L 515.091473 56.894384 
L 515.199131 56.779997 
L 515.271254 56.703366 
L 515.374547 56.593617 
L 515.393023 56.573987 
L 515.482151 56.479288 
L 515.562175 56.394262 
L 515.670265 56.279417 
L 515.761722 56.182244 
L 515.871712 56.065379 
L 515.957494 55.974237 
L 516.014862 55.913282 
L 516.113547 55.80843 
L 516.197071 55.719686 
L 516.224646 55.690387 
L 516.318505 55.590663 
L 516.461282 55.438961 
L 516.544299 55.350756 
L 516.629676 55.260043 
L 516.695199 55.190424 
L 516.787497 55.092358 
L 516.82495 55.052564 
L 516.919564 54.952037 
L 517.002624 54.863786 
L 517.070779 54.791371 
L 517.147331 54.710034 
L 517.25021 54.600726 
L 517.357228 54.487019 
L 517.454282 54.383899 
L 517.47972 54.356871 
L 517.565159 54.266092 
L 517.683849 54.139984 
" style="fill:none;stroke:#4800ff;stroke-linecap:square;stroke-width:2;"/>
   </g>
   <g id="line2d_20">
    <path clip-path="url(#p5e11c27c59)" d="M 517.957675 53.849044 
L 529.347727 41.747113 
L 529.347727 41.747113 
" style="fill:none;stroke:#4800ff;stroke-linecap:square;stroke-width:2;"/>
   </g>
   <g id="line2d_21">
    <path clip-path="url(#p5e11c27c59)" d="M 31.615327 57.301251 
L 48.206407 73.892331 
L 48.206407 73.892331 
" style="fill:none;stroke:#ff00da;stroke-linecap:square;stroke-width:2;"/>
   </g>
   <g id="line2d_22">
    <path clip-path="url(#p5e11c27c59)" d="M 64.797487 44.857941 
L 81.388567 61.449021 
L 81.388567 61.449021 
" style="fill:none;stroke:#ff00da;stroke-linecap:square;stroke-width:2;"/>
   </g>
   <g id="line2d_23">
    <path clip-path="url(#p5e11c27c59)" d="M 131.161807 42.784056 
L 147.752887 59.375136 
L 147.752887 59.375136 
" style="fill:none;stroke:#ff00da;stroke-linecap:square;stroke-width:2;"/>
   </g>
   <g id="line2d_24">
    <path clip-path="url(#p5e11c27c59)" d="M 164.343967 30.340746 
L 180.935047 46.931826 
L 180.935047 46.931826 
" style="fill:none;stroke:#ff00da;stroke-linecap:square;stroke-width:2;"/>
   </g>
   <g id="matplotlib.axis_1">
    <g id="xtick_1">
     <g id="line2d_25">
      <path clip-path="url(#p5e11c27c59)" d="M 15.024247 87.704405 
L 15.024247 16.528672 
" style="fill:none;stroke:#000000;stroke-dasharray:0.5,0.825;stroke-dashoffset:0;stroke-width:0.5;"/>
     </g>
     <g id="line2d_26">
      <defs>
       <path d="M 0 0 
L 0 3.5 
" id="m73d8387d38" style="stroke:#000000;stroke-width:0.8;"/>
      </defs>
      <g>
       <use style="stroke:#000000;stroke-width:0.8;" x="15.024247" xlink:href="#m73d8387d38" y="86.335641"/>
      </g>
     </g>
    </g>
    <g id="xtick_2">
     <g id="line2d_27">
      <path clip-path="url(#p5e11c27c59)" d="M 197.526127 87.704405 
L 197.526127 16.528672 
" style="fill:none;stroke:#000000;stroke-dasharray:0.5,0.825;stroke-dashoffset:0;stroke-width:0.5;"/>
     </g>
     <g id="line2d_28">
      <g>
       <use style="stroke:#000000;stroke-width:0.8;" x="197.526127" xlink:href="#m73d8387d38" y="86.335641"/>
      </g>
     </g>
     <g id="text_1">
      <!-- $f$ -->
      <defs>
       <path d="M 9.71875 -16.5 
Q 11.578125 -17.921875 14.203125 -17.921875 
Q 17.78125 -17.921875 20.015625 -10.015625 
Q 20.953125 -6.203125 25.09375 15.09375 
L 29.6875 39.59375 
L 21.09375 39.59375 
Q 20.125 39.59375 20.125 40.921875 
Q 20.515625 43.109375 21.390625 43.109375 
L 30.328125 43.109375 
L 31.5 49.609375 
Q 32.078125 52.640625 32.5625 54.8125 
Q 33.0625 56.984375 33.625 58.828125 
Q 34.1875 60.6875 35.296875 62.984375 
Q 37.015625 66.265625 39.921875 68.390625 
Q 42.828125 70.515625 46.1875 70.515625 
Q 48.390625 70.515625 50.46875 69.703125 
Q 52.546875 68.890625 53.859375 67.28125 
Q 55.171875 65.671875 55.171875 63.484375 
Q 55.171875 60.9375 53.484375 59.046875 
Q 51.8125 57.171875 49.421875 57.171875 
Q 47.796875 57.171875 46.65625 58.171875 
Q 45.515625 59.1875 45.515625 60.796875 
Q 45.515625 62.984375 47 64.625 
Q 48.484375 66.265625 50.6875 66.5 
Q 48.828125 67.921875 46.09375 67.921875 
Q 44.578125 67.921875 43.234375 66.5 
Q 41.890625 65.09375 41.5 63.484375 
Q 40.875 60.9375 38.71875 49.703125 
L 37.5 43.109375 
L 47.796875 43.109375 
Q 48.78125 43.109375 48.78125 41.796875 
Q 48.734375 41.546875 48.578125 40.9375 
Q 48.4375 40.328125 48.171875 39.953125 
Q 47.90625 39.59375 47.515625 39.59375 
L 36.8125 39.59375 
L 32.171875 15.1875 
Q 31.296875 9.859375 30.140625 4.359375 
Q 29 -1.125 26.921875 -6.90625 
Q 24.859375 -12.703125 21.625 -16.609375 
Q 18.40625 -20.515625 14.015625 -20.515625 
Q 10.640625 -20.515625 7.984375 -18.578125 
Q 5.328125 -16.65625 5.328125 -13.484375 
Q 5.328125 -10.9375 6.953125 -9.046875 
Q 8.59375 -7.171875 11.078125 -7.171875 
Q 12.75 -7.171875 13.859375 -8.171875 
Q 14.984375 -9.1875 14.984375 -10.796875 
Q 14.984375 -12.9375 13.390625 -14.71875 
Q 11.8125 -16.5 9.71875 -16.5 
z
" id="Cmmi10-66"/>
      </defs>
      <g transform="translate(195.076127 100.913766)scale(0.1 -0.1)">
       <use transform="translate(0 0.484375)" xlink:href="#Cmmi10-66"/>
      </g>
     </g>
    </g>
    <g id="xtick_3">
     <g id="line2d_29">
      <path clip-path="url(#p5e11c27c59)" d="M 562.529887 87.704405 
L 562.529887 16.528672 
" style="fill:none;stroke:#000000;stroke-dasharray:0.5,0.825;stroke-dashoffset:0;stroke-width:0.5;"/>
     </g>
     <g id="line2d_30">
      <g>
       <use style="stroke:#000000;stroke-width:0.8;" x="562.529887" xlink:href="#m73d8387d38" y="86.335641"/>
      </g>
     </g>
     <g id="text_2">
      <!-- $1$ -->
      <defs>
       <path d="M 9.28125 0 
L 9.28125 3.515625 
Q 21.78125 3.515625 21.78125 6.6875 
L 21.78125 59.1875 
Q 16.609375 56.6875 8.6875 56.6875 
L 8.6875 60.203125 
Q 20.953125 60.203125 27.203125 66.609375 
L 28.609375 66.609375 
Q 28.953125 66.609375 29.265625 66.328125 
Q 29.59375 66.0625 29.59375 65.71875 
L 29.59375 6.6875 
Q 29.59375 3.515625 42.09375 3.515625 
L 42.09375 0 
z
" id="Cmr10-31"/>
      </defs>
      <g transform="translate(560.029887 100.934078)scale(0.1 -0.1)">
       <use transform="translate(0 0.390625)" xlink:href="#Cmr10-31"/>
      </g>
     </g>
    </g>
   </g>
   <g id="matplotlib.axis_2">
    <g id="ytick_1">
     <g id="line2d_31">
      <path clip-path="url(#p5e11c27c59)" d="M 4.074135 86.335641 
L 573.48 86.335641 
" style="fill:none;stroke:#000000;stroke-dasharray:0.5,0.825;stroke-dashoffset:0;stroke-width:0.5;"/>
     </g>
     <g id="line2d_32">
      <defs>
       <path d="M 0 0 
L -3.5 0 
" id="mebb381bfdb" style="stroke:#000000;stroke-width:0.8;"/>
      </defs>
      <g>
       <use style="stroke:#000000;stroke-width:0.8;" x="15.024247" xlink:href="#mebb381bfdb" y="86.335641"/>
      </g>
     </g>
    </g>
    <g id="ytick_2">
     <g id="line2d_33">
      <path clip-path="url(#p5e11c27c59)" d="M 4.074135 17.897436 
L 573.48 17.897436 
" style="fill:none;stroke:#000000;stroke-dasharray:0.5,0.825;stroke-dashoffset:0;stroke-width:0.5;"/>
     </g>
     <g id="line2d_34">
      <g>
       <use style="stroke:#000000;stroke-width:0.8;" x="15.024247" xlink:href="#mebb381bfdb" y="17.897436"/>
      </g>
     </g>
     <g id="text_3">
      <!-- $1$ -->
      <g transform="translate(3.024247 21.696655)scale(0.1 -0.1)">
       <use transform="translate(0 0.390625)" xlink:href="#Cmr10-31"/>
      </g>
     </g>
    </g>
   </g>
   <g id="patch_3">
    <path d="M 15.024247 87.704405 
L 15.024247 16.528672 
" style="fill:none;stroke:#000000;stroke-linecap:square;stroke-linejoin:miter;stroke-width:0.8;"/>
   </g>
   <g id="patch_4">
    <path d="M 4.074135 86.335641 
L 573.48 86.335641 
" style="fill:none;stroke:#000000;stroke-linecap:square;stroke-linejoin:miter;stroke-width:0.8;"/>
   </g>
  </g>
 </g>
 <defs>
  <clipPath id="p5e11c27c59">
   <rect height="71.175733" width="569.405865" x="4.074135" y="16.528672"/>
  </clipPath>
 </defs>
</svg>
