<?xml version="1.0" encoding="utf-8" standalone="no"?>
<!DOCTYPE svg PUBLIC "-//W3C//DTD SVG 1.1//EN"
  "http://www.w3.org/Graphics/SVG/1.1/DTD/svg11.dtd">
<!-- Created with matplotlib (http://matplotlib.org/) -->
<svg height="108pt" version="1.1" viewBox="0 0 576 108" width="576pt" xmlns="http://www.w3.org/2000/svg" xmlns:xlink="http://www.w3.org/1999/xlink">
 <defs>
  <style type="text/css">
*{stroke-linecap:butt;stroke-linejoin:round;}
  </style>
 </defs>
 <g id="figure_1">
  <g id="patch_1">
   <path d="M 0 108 
L 576 108 
L 576 0 
L 0 0 
z
" style="fill:#ffffff;"/>
  </g>
  <g id="axes_1">
   <g id="patch_2">
    <path d="M 4.074135 87.704405 
L 573.48 87.704405 
L 573.48 16.528672 
L 4.074135 16.528672 
z
" style="fill:#ffffff;"/>
   </g>
   <g id="line2d_1">
    <path clip-path="url(#p801db33563)" d="M 15.024247 52.116538 
L 15.222804 52.166178 
L 15.865584 52.326873 
L 15.931174 52.34327 
L 16.547297 52.497301 
L 16.663846 52.526438 
L 17.157948 52.649964 
L 17.393768 52.708919 
L 17.808837 52.812686 
L 18.00352 52.861357 
L 18.617979 53.014971 
L 18.969224 53.102783 
L 19.265409 53.176829 
L 19.655719 53.274406 
L 19.912946 53.338713 
L 20.029481 53.367847 
L 20.588341 53.507562 
L 20.755862 53.549442 
L 21.095689 53.634399 
L 21.614948 53.764214 
L 21.83302 53.818731 
L 22.226688 53.917149 
L 22.447289 53.972299 
L 22.868074 54.077495 
L 23.367369 54.202319 
L 23.601531 54.260859 
L 23.865984 54.326973 
L 24.342533 54.44611 
L 24.696275 54.534545 
L 24.989182 54.607772 
L 25.175562 54.654367 
L 25.737697 54.794901 
L 25.883991 54.831474 
L 26.42217 54.966019 
L 26.678063 55.029992 
L 26.937087 55.094748 
L 27.384789 55.206674 
L 27.720767 55.290668 
L 28.169239 55.402786 
L 28.363199 55.451276 
L 28.79501 55.559229 
L 29.207345 55.662313 
L 29.335654 55.69439 
L 29.701592 55.785874 
L 30.200759 55.910666 
L 30.402471 55.961094 
L 30.685201 56.031777 
L 31.226536 56.167111 
L 31.560356 56.250566 
L 31.76219 56.301024 
L 32.335545 56.444363 
L 32.427548 56.467364 
L 32.94905 56.597739 
L 33.325405 56.691828 
L 33.577466 56.754843 
L 34.071334 56.87831 
L 34.221036 56.915736 
L 34.486188 56.982024 
L 34.897022 57.084732 
L 35.305318 57.186806 
L 35.711305 57.288303 
L 35.968151 57.352514 
L 36.233405 57.418828 
L 36.799202 57.560277 
L 37.142264 57.646043 
L 37.359502 57.700352 
L 37.672401 57.778577 
L 38.170033 57.902985 
L 38.432698 57.968651 
L 38.598426 58.010083 
L 39.146336 58.14706 
L 39.579982 58.255472 
L 39.951797 58.348426 
L 40.207763 58.412417 
L 40.327092 58.44225 
L 40.872148 58.578514 
L 41.272719 58.678656 
L 41.335514 58.694355 
L 41.774922 58.804207 
L 42.223781 58.916422 
L 42.679877 59.030446 
L 42.861881 59.075947 
L 43.055821 59.124432 
L 43.670848 59.278189 
L 43.917935 59.33996 
L 44.319424 59.440333 
L 44.463712 59.476405 
L 44.971614 59.60338 
L 45.161781 59.650922 
L 45.737755 59.794915 
L 46.020129 59.865509 
L 46.207457 59.912341 
L 46.654578 60.024121 
L 46.912865 60.088693 
L 47.252192 60.173525 
L 47.552217 60.248531 
L 48.098507 60.385103 
L 48.362268 60.451044 
" style="fill:none;stroke:#000000;stroke-linecap:square;stroke-width:2;"/>
   </g>
   <g id="line2d_2">
    <path clip-path="url(#p801db33563)" d="M 49.464945 60.726713 
L 49.588374 60.75757 
L 50.0931 60.883752 
L 50.455073 60.974245 
L 50.714308 61.039054 
L 51.121772 61.14092 
L 51.584016 61.256481 
L 51.99369 61.358899 
L 52.017127 61.364758 
L 52.349356 61.447816 
L 52.985982 61.606972 
L 53.142283 61.646047 
L 53.634754 61.769165 
L 53.926554 61.842115 
L 54.373256 61.953791 
L 54.527604 61.992378 
L 54.78799 62.057474 
L 55.122319 62.141056 
L 55.773712 62.303905 
L 55.826864 62.317193 
L 56.370421 62.453082 
L 56.47485 62.479189 
L 57.150456 62.648091 
L 57.235078 62.669246 
L 57.796789 62.809674 
L 57.887203 62.832277 
L 58.37932 62.955307 
L 58.677744 63.029913 
L 59.107871 63.137444 
L 59.413433 63.213835 
L 59.82577 63.316919 
L 60.135438 63.394336 
L 60.335524 63.444358 
L 60.924115 63.591505 
L 61.192527 63.658608 
L 61.286521 63.682107 
L 61.67919 63.780274 
L 62.086576 63.882121 
L 62.414309 63.964054 
L 62.890123 64.083007 
L 63.18701 64.157229 
L 63.462366 64.226068 
L 63.864619 64.326631 
L 64.125154 64.391765 
L 64.495761 64.484417 
L 64.982846 64.606188 
L 65.40541 64.711829 
L 65.551375 64.74832 
L 65.81099 64.813224 
L 66.106298 64.887051 
L 66.554683 64.999147 
L 66.855171 65.074269 
L 67.46015 65.225514 
L 67.57938 65.255322 
L 67.815616 65.314381 
L 68.259615 65.42538 
L 68.738785 65.545173 
L 69.156019 65.649481 
L 69.527501 65.742352 
L 69.643267 65.771293 
L 70.10453 65.886609 
L 70.309976 65.937971 
L 70.88233 66.081059 
L 71.199403 66.160327 
L 71.364247 66.201538 
L 71.939781 66.345422 
L 72.151701 66.398402 
L 72.441439 66.470836 
L 72.755634 66.549385 
L 73.256749 66.674664 
L 73.559133 66.75026 
L 73.917464 66.839843 
L 74.243246 66.921288 
L 74.591733 67.00841 
L 74.916839 67.089686 
L 75.119026 67.140233 
L 75.670435 67.278085 
L 75.768446 67.302588 
L 76.13226 67.393541 
L 76.720007 67.540478 
L 76.798922 67.560207 
L 77.288246 67.682538 
L 77.713479 67.788846 
L 78.088016 67.882481 
L 78.270436 67.928086 
L 78.652649 68.023639 
L 78.877104 68.079753 
L 79.399239 68.210286 
L 79.830338 68.318061 
L 80.100486 68.385598 
L 80.212272 68.413545 
L 80.826403 68.567077 
L 81.209036 68.662736 
L 81.461871 68.725944 
L 81.600635 68.760635 
L 81.965962 68.851967 
L 82.407975 68.96247 
L 82.883806 69.081428 
L 83.121457 69.140841 
L 83.462452 69.22609 
" style="fill:none;stroke:#000000;stroke-linecap:square;stroke-width:2;"/>
   </g>
   <g id="line2d_3">
    <path clip-path="url(#p801db33563)" d="M 83.462452 69.22609 
L 220.338862 35.006987 
L 220.338862 35.006987 
" style="fill:none;stroke:#000000;stroke-linecap:square;stroke-width:2;"/>
   </g>
   <g id="line2d_4">
    <path clip-path="url(#p801db33563)" d="M 220.338862 35.006987 
L 288.777067 52.116538 
L 288.777067 52.116538 
" style="fill:none;stroke:#000000;stroke-linecap:square;stroke-width:2;"/>
   </g>
   <g id="line2d_5">
    <path clip-path="url(#p801db33563)" d="M 288.777067 52.116538 
L 357.215272 35.006987 
L 357.215272 35.006987 
" style="fill:none;stroke:#000000;stroke-linecap:square;stroke-width:2;"/>
   </g>
   <g id="line2d_6">
    <path clip-path="url(#p801db33563)" d="M 357.215272 35.006987 
L 494.091682 69.22609 
L 494.091682 69.22609 
" style="fill:none;stroke:#000000;stroke-linecap:square;stroke-width:2;"/>
   </g>
   <g id="line2d_7">
    <path clip-path="url(#p801db33563)" d="M 494.091682 69.22609 
L 562.529887 52.116538 
L 562.529887 52.116538 
" style="fill:none;stroke:#000000;stroke-linecap:square;stroke-width:2;"/>
   </g>
   <g id="line2d_8">
    <path clip-path="url(#p801db33563)" d="M 83.462452 69.22609 
L 220.338862 35.006987 
L 220.338862 35.006987 
" style="fill:none;stroke:#ff0000;stroke-linecap:square;stroke-width:2;"/>
   </g>
   <g id="line2d_9">
    <path clip-path="url(#p801db33563)" d="M 288.777067 52.116538 
L 357.215272 35.006987 
L 357.215272 35.006987 
" style="fill:none;stroke:#ff0000;stroke-linecap:square;stroke-width:2;"/>
   </g>
   <g id="line2d_10">
    <path clip-path="url(#p801db33563)" d="M 494.091682 69.22609 
L 562.529887 52.116538 
L 562.529887 52.116538 
" style="fill:none;stroke:#ff0000;stroke-linecap:square;stroke-width:2;"/>
   </g>
   <g id="line2d_11">
    <path clip-path="url(#p801db33563)" d="M 15.024247 52.116538 
L 83.462452 69.22609 
L 83.462452 69.22609 
" style="fill:none;stroke:#00ffff;stroke-linecap:square;stroke-width:2;"/>
   </g>
   <g id="line2d_12">
    <path clip-path="url(#p801db33563)" d="M 220.338862 35.006987 
L 288.777067 52.116538 
L 288.777067 52.116538 
" style="fill:none;stroke:#00ffff;stroke-linecap:square;stroke-width:2;"/>
   </g>
   <g id="line2d_13">
    <path clip-path="url(#p801db33563)" d="M 357.215272 35.006987 
L 494.091682 69.22609 
L 494.091682 69.22609 
" style="fill:none;stroke:#00ffff;stroke-linecap:square;stroke-width:2;"/>
   </g>
   <g id="PathCollection_1">
    <path clip-path="url(#p801db33563)" d="M 15.024247 88.733557 
C 15.660182 88.733557 16.270156 88.480897 16.71983 88.031223 
C 17.169504 87.58155 17.422163 86.971576 17.422163 86.335641 
C 17.422163 85.699706 17.169504 85.089732 16.71983 84.640058 
C 16.270156 84.190385 15.660182 83.937725 15.024247 83.937725 
C 14.388313 83.937725 13.778339 84.190385 13.328665 84.640058 
C 12.878991 85.089732 12.626332 85.699706 12.626332 86.335641 
C 12.626332 86.971576 12.878991 87.58155 13.328665 88.031223 
C 13.778339 88.480897 14.388313 88.733557 15.024247 88.733557 
z
"/>
   </g>
   <g id="PathCollection_2">
    <path clip-path="url(#p801db33563)" d="M 15.024247 88.733557 
C 15.660182 88.733557 16.270156 88.480897 16.71983 88.031223 
C 17.169504 87.58155 17.422163 86.971576 17.422163 86.335641 
C 17.422163 85.699706 17.169504 85.089732 16.71983 84.640058 
C 16.270156 84.190385 15.660182 83.937725 15.024247 83.937725 
C 14.388313 83.937725 13.778339 84.190385 13.328665 84.640058 
C 12.878991 85.089732 12.626332 85.699706 12.626332 86.335641 
C 12.626332 86.971576 12.878991 87.58155 13.328665 88.031223 
C 13.778339 88.480897 14.388313 88.733557 15.024247 88.733557 
z
"/>
   </g>
   <g id="PathCollection_3">
    <path clip-path="url(#p801db33563)" d="M 15.024247 54.514454 
C 15.660182 54.514454 16.270156 54.261795 16.71983 53.812121 
C 17.169504 53.362447 17.422163 52.752473 17.422163 52.116538 
C 17.422163 51.480604 17.169504 50.87063 16.71983 50.420956 
C 16.270156 49.971282 15.660182 49.718623 15.024247 49.718623 
C 14.388313 49.718623 13.778339 49.971282 13.328665 50.420956 
C 12.878991 50.87063 12.626332 51.480604 12.626332 52.116538 
C 12.626332 52.752473 12.878991 53.362447 13.328665 53.812121 
C 13.778339 54.261795 14.388313 54.514454 15.024247 54.514454 
z
"/>
   </g>
   <g id="PathCollection_4">
    <path clip-path="url(#p801db33563)" d="M 15.024247 53.697677 
C 15.44357 53.697677 15.845775 53.531079 16.142281 53.234572 
C 16.438787 52.938066 16.605386 52.535861 16.605386 52.116538 
C 16.605386 51.697216 16.438787 51.295011 16.142281 50.998504 
C 15.845775 50.701998 15.44357 50.5354 15.024247 50.5354 
C 14.604924 50.5354 14.20272 50.701998 13.906213 50.998504 
C 13.609707 51.295011 13.443109 51.697216 13.443109 52.116538 
C 13.443109 52.535861 13.609707 52.938066 13.906213 53.234572 
C 14.20272 53.531079 14.604924 53.697677 15.024247 53.697677 
z
" style="fill:#ffffff;"/>
   </g>
   <g id="PathCollection_5">
    <path clip-path="url(#p801db33563)" d="M 83.462452 71.624005 
C 84.098387 71.624005 84.708361 71.371346 85.158035 70.921672 
C 85.607709 70.471998 85.860368 69.862024 85.860368 69.22609 
C 85.860368 68.590155 85.607709 67.980181 85.158035 67.530507 
C 84.708361 67.080833 84.098387 66.828174 83.462452 66.828174 
C 82.826518 66.828174 82.216544 67.080833 81.76687 67.530507 
C 81.317196 67.980181 81.064537 68.590155 81.064537 69.22609 
C 81.064537 69.862024 81.317196 70.471998 81.76687 70.921672 
C 82.216544 71.371346 82.826518 71.624005 83.462452 71.624005 
z
"/>
   </g>
   <g id="PathCollection_6">
    <path clip-path="url(#p801db33563)" d="M 83.462452 70.807229 
C 83.881775 70.807229 84.28398 70.64063 84.580486 70.344124 
C 84.876992 70.047618 85.043591 69.645413 85.043591 69.22609 
C 85.043591 68.806767 84.876992 68.404562 84.580486 68.108056 
C 84.28398 67.81155 83.881775 67.644951 83.462452 67.644951 
C 83.043129 67.644951 82.640924 67.81155 82.344418 68.108056 
C 82.047912 68.404562 81.881314 68.806767 81.881314 69.22609 
C 81.881314 69.645413 82.047912 70.047618 82.344418 70.344124 
C 82.640924 70.64063 83.043129 70.807229 83.462452 70.807229 
z
" style="fill:#ffffff;"/>
   </g>
   <g id="PathCollection_7">
    <path clip-path="url(#p801db33563)" d="M 83.462452 37.404903 
C 84.098387 37.404903 84.708361 37.152243 85.158035 36.70257 
C 85.607709 36.252896 85.860368 35.642922 85.860368 35.006987 
C 85.860368 34.371053 85.607709 33.761078 85.158035 33.311405 
C 84.708361 32.861731 84.098387 32.609071 83.462452 32.609071 
C 82.826518 32.609071 82.216544 32.861731 81.76687 33.311405 
C 81.317196 33.761078 81.064537 34.371053 81.064537 35.006987 
C 81.064537 35.642922 81.317196 36.252896 81.76687 36.70257 
C 82.216544 37.152243 82.826518 37.404903 83.462452 37.404903 
z
"/>
   </g>
   <g id="PathCollection_8">
    <path clip-path="url(#p801db33563)" d="M 83.462452 37.404903 
C 84.098387 37.404903 84.708361 37.152243 85.158035 36.70257 
C 85.607709 36.252896 85.860368 35.642922 85.860368 35.006987 
C 85.860368 34.371053 85.607709 33.761078 85.158035 33.311405 
C 84.708361 32.861731 84.098387 32.609071 83.462452 32.609071 
C 82.826518 32.609071 82.216544 32.861731 81.76687 33.311405 
C 81.317196 33.761078 81.064537 34.371053 81.064537 35.006987 
C 81.064537 35.642922 81.317196 36.252896 81.76687 36.70257 
C 82.216544 37.152243 82.826518 37.404903 83.462452 37.404903 
z
"/>
   </g>
   <g id="PathCollection_9">
    <path clip-path="url(#p801db33563)" d="M 83.462452 37.404903 
C 84.098387 37.404903 84.708361 37.152243 85.158035 36.70257 
C 85.607709 36.252896 85.860368 35.642922 85.860368 35.006987 
C 85.860368 34.371053 85.607709 33.761078 85.158035 33.311405 
C 84.708361 32.861731 84.098387 32.609071 83.462452 32.609071 
C 82.826518 32.609071 82.216544 32.861731 81.76687 33.311405 
C 81.317196 33.761078 81.064537 34.371053 81.064537 35.006987 
C 81.064537 35.642922 81.317196 36.252896 81.76687 36.70257 
C 82.216544 37.152243 82.826518 37.404903 83.462452 37.404903 
z
"/>
   </g>
   <g id="PathCollection_10">
    <path clip-path="url(#p801db33563)" d="M 83.462452 71.624005 
C 84.098387 71.624005 84.708361 71.371346 85.158035 70.921672 
C 85.607709 70.471998 85.860368 69.862024 85.860368 69.22609 
C 85.860368 68.590155 85.607709 67.980181 85.158035 67.530507 
C 84.708361 67.080833 84.098387 66.828174 83.462452 66.828174 
C 82.826518 66.828174 82.216544 67.080833 81.76687 67.530507 
C 81.317196 67.980181 81.064537 68.590155 81.064537 69.22609 
C 81.064537 69.862024 81.317196 70.471998 81.76687 70.921672 
C 82.216544 71.371346 82.826518 71.624005 83.462452 71.624005 
z
"/>
   </g>
   <g id="PathCollection_11">
    <path clip-path="url(#p801db33563)" d="M 83.462452 70.807229 
C 83.881775 70.807229 84.28398 70.64063 84.580486 70.344124 
C 84.876992 70.047618 85.043591 69.645413 85.043591 69.22609 
C 85.043591 68.806767 84.876992 68.404562 84.580486 68.108056 
C 84.28398 67.81155 83.881775 67.644951 83.462452 67.644951 
C 83.043129 67.644951 82.640924 67.81155 82.344418 68.108056 
C 82.047912 68.404562 81.881314 68.806767 81.881314 69.22609 
C 81.881314 69.645413 82.047912 70.047618 82.344418 70.344124 
C 82.640924 70.64063 83.043129 70.807229 83.462452 70.807229 
z
" style="fill:#ffffff;"/>
   </g>
   <g id="PathCollection_12">
    <path clip-path="url(#p801db33563)" d="M 220.338862 37.404903 
C 220.974797 37.404903 221.584771 37.152243 222.034445 36.70257 
C 222.484119 36.252896 222.736778 35.642922 222.736778 35.006987 
C 222.736778 34.371053 222.484119 33.761078 222.034445 33.311405 
C 221.584771 32.861731 220.974797 32.609071 220.338862 32.609071 
C 219.702928 32.609071 219.092954 32.861731 218.64328 33.311405 
C 218.193606 33.761078 217.940947 34.371053 217.940947 35.006987 
C 217.940947 35.642922 218.193606 36.252896 218.64328 36.70257 
C 219.092954 37.152243 219.702928 37.404903 220.338862 37.404903 
z
"/>
   </g>
   <g id="PathCollection_13">
    <path clip-path="url(#p801db33563)" d="M 220.338862 36.588126 
C 220.758185 36.588126 221.16039 36.421527 221.456896 36.125021 
C 221.753402 35.828515 221.920001 35.42631 221.920001 35.006987 
C 221.920001 34.587664 221.753402 34.185459 221.456896 33.888953 
C 221.16039 33.592447 220.758185 33.425848 220.338862 33.425848 
C 219.919539 33.425848 219.517334 33.592447 219.220828 33.888953 
C 218.924322 34.185459 218.757724 34.587664 218.757724 35.006987 
C 218.757724 35.42631 218.924322 35.828515 219.220828 36.125021 
C 219.517334 36.421527 219.919539 36.588126 220.338862 36.588126 
z
" style="fill:#ffffff;"/>
   </g>
   <g id="PathCollection_14">
    <path clip-path="url(#p801db33563)" d="M 220.338862 71.624005 
C 220.974797 71.624005 221.584771 71.371346 222.034445 70.921672 
C 222.484119 70.471998 222.736778 69.862024 222.736778 69.22609 
C 222.736778 68.590155 222.484119 67.980181 222.034445 67.530507 
C 221.584771 67.080833 220.974797 66.828174 220.338862 66.828174 
C 219.702928 66.828174 219.092954 67.080833 218.64328 67.530507 
C 218.193606 67.980181 217.940947 68.590155 217.940947 69.22609 
C 217.940947 69.862024 218.193606 70.471998 218.64328 70.921672 
C 219.092954 71.371346 219.702928 71.624005 220.338862 71.624005 
z
"/>
   </g>
   <g id="PathCollection_15">
    <path clip-path="url(#p801db33563)" d="M 220.338862 71.624005 
C 220.974797 71.624005 221.584771 71.371346 222.034445 70.921672 
C 222.484119 70.471998 222.736778 69.862024 222.736778 69.22609 
C 222.736778 68.590155 222.484119 67.980181 222.034445 67.530507 
C 221.584771 67.080833 220.974797 66.828174 220.338862 66.828174 
C 219.702928 66.828174 219.092954 67.080833 218.64328 67.530507 
C 218.193606 67.980181 217.940947 68.590155 217.940947 69.22609 
C 217.940947 69.862024 218.193606 70.471998 218.64328 70.921672 
C 219.092954 71.371346 219.702928 71.624005 220.338862 71.624005 
z
"/>
   </g>
   <g id="PathCollection_16">
    <path clip-path="url(#p801db33563)" d="M 220.338862 71.624005 
C 220.974797 71.624005 221.584771 71.371346 222.034445 70.921672 
C 222.484119 70.471998 222.736778 69.862024 222.736778 69.22609 
C 222.736778 68.590155 222.484119 67.980181 222.034445 67.530507 
C 221.584771 67.080833 220.974797 66.828174 220.338862 66.828174 
C 219.702928 66.828174 219.092954 67.080833 218.64328 67.530507 
C 218.193606 67.980181 217.940947 68.590155 217.940947 69.22609 
C 217.940947 69.862024 218.193606 70.471998 218.64328 70.921672 
C 219.092954 71.371346 219.702928 71.624005 220.338862 71.624005 
z
"/>
   </g>
   <g id="PathCollection_17">
    <path clip-path="url(#p801db33563)" d="M 220.338862 37.404903 
C 220.974797 37.404903 221.584771 37.152243 222.034445 36.70257 
C 222.484119 36.252896 222.736778 35.642922 222.736778 35.006987 
C 222.736778 34.371053 222.484119 33.761078 222.034445 33.311405 
C 221.584771 32.861731 220.974797 32.609071 220.338862 32.609071 
C 219.702928 32.609071 219.092954 32.861731 218.64328 33.311405 
C 218.193606 33.761078 217.940947 34.371053 217.940947 35.006987 
C 217.940947 35.642922 218.193606 36.252896 218.64328 36.70257 
C 219.092954 37.152243 219.702928 37.404903 220.338862 37.404903 
z
"/>
   </g>
   <g id="PathCollection_18">
    <path clip-path="url(#p801db33563)" d="M 220.338862 36.588126 
C 220.758185 36.588126 221.16039 36.421527 221.456896 36.125021 
C 221.753402 35.828515 221.920001 35.42631 221.920001 35.006987 
C 221.920001 34.587664 221.753402 34.185459 221.456896 33.888953 
C 221.16039 33.592447 220.758185 33.425848 220.338862 33.425848 
C 219.919539 33.425848 219.517334 33.592447 219.220828 33.888953 
C 218.924322 34.185459 218.757724 34.587664 218.757724 35.006987 
C 218.757724 35.42631 218.924322 35.828515 219.220828 36.125021 
C 219.517334 36.421527 219.919539 36.588126 220.338862 36.588126 
z
" style="fill:#ffffff;"/>
   </g>
   <g id="PathCollection_19">
    <path clip-path="url(#p801db33563)" d="M 288.777067 54.514454 
C 289.413002 54.514454 290.022976 54.261795 290.47265 53.812121 
C 290.922324 53.362447 291.174983 52.752473 291.174983 52.116538 
C 291.174983 51.480604 290.922324 50.87063 290.47265 50.420956 
C 290.022976 49.971282 289.413002 49.718623 288.777067 49.718623 
C 288.141133 49.718623 287.531159 49.971282 287.081485 50.420956 
C 286.631811 50.87063 286.379152 51.480604 286.379152 52.116538 
C 286.379152 52.752473 286.631811 53.362447 287.081485 53.812121 
C 287.531159 54.261795 288.141133 54.514454 288.777067 54.514454 
z
"/>
   </g>
   <g id="PathCollection_20">
    <path clip-path="url(#p801db33563)" d="M 288.777067 53.697677 
C 289.19639 53.697677 289.598595 53.531079 289.895101 53.234572 
C 290.191607 52.938066 290.358206 52.535861 290.358206 52.116538 
C 290.358206 51.697216 290.191607 51.295011 289.895101 50.998504 
C 289.598595 50.701998 289.19639 50.5354 288.777067 50.5354 
C 288.357744 50.5354 287.955539 50.701998 287.659033 50.998504 
C 287.362527 51.295011 287.195928 51.697216 287.195928 52.116538 
C 287.195928 52.535861 287.362527 52.938066 287.659033 53.234572 
C 287.955539 53.531079 288.357744 53.697677 288.777067 53.697677 
z
" style="fill:#ffffff;"/>
   </g>
   <g id="PathCollection_21">
    <path clip-path="url(#p801db33563)" d="M 288.777067 20.295352 
C 289.413002 20.295352 290.022976 20.042692 290.47265 19.593018 
C 290.922324 19.143345 291.174983 18.533371 291.174983 17.897436 
C 291.174983 17.261501 290.922324 16.651527 290.47265 16.201853 
C 290.022976 15.75218 289.413002 15.49952 288.777067 15.49952 
C 288.141133 15.49952 287.531159 15.75218 287.081485 16.201853 
C 286.631811 16.651527 286.379152 17.261501 286.379152 17.897436 
C 286.379152 18.533371 286.631811 19.143345 287.081485 19.593018 
C 287.531159 20.042692 288.141133 20.295352 288.777067 20.295352 
z
"/>
   </g>
   <g id="PathCollection_22">
    <path clip-path="url(#p801db33563)" d="M 288.777067 20.295352 
C 289.413002 20.295352 290.022976 20.042692 290.47265 19.593018 
C 290.922324 19.143345 291.174983 18.533371 291.174983 17.897436 
C 291.174983 17.261501 290.922324 16.651527 290.47265 16.201853 
C 290.022976 15.75218 289.413002 15.49952 288.777067 15.49952 
C 288.141133 15.49952 287.531159 15.75218 287.081485 16.201853 
C 286.631811 16.651527 286.379152 17.261501 286.379152 17.897436 
C 286.379152 18.533371 286.631811 19.143345 287.081485 19.593018 
C 287.531159 20.042692 288.141133 20.295352 288.777067 20.295352 
z
"/>
   </g>
   <g id="PathCollection_23">
    <path clip-path="url(#p801db33563)" d="M 288.777067 20.295352 
C 289.413002 20.295352 290.022976 20.042692 290.47265 19.593018 
C 290.922324 19.143345 291.174983 18.533371 291.174983 17.897436 
C 291.174983 17.261501 290.922324 16.651527 290.47265 16.201853 
C 290.022976 15.75218 289.413002 15.49952 288.777067 15.49952 
C 288.141133 15.49952 287.531159 15.75218 287.081485 16.201853 
C 286.631811 16.651527 286.379152 17.261501 286.379152 17.897436 
C 286.379152 18.533371 286.631811 19.143345 287.081485 19.593018 
C 287.531159 20.042692 288.141133 20.295352 288.777067 20.295352 
z
"/>
   </g>
   <g id="PathCollection_24">
    <path clip-path="url(#p801db33563)" d="M 288.777067 54.514454 
C 289.413002 54.514454 290.022976 54.261795 290.47265 53.812121 
C 290.922324 53.362447 291.174983 52.752473 291.174983 52.116538 
C 291.174983 51.480604 290.922324 50.87063 290.47265 50.420956 
C 290.022976 49.971282 289.413002 49.718623 288.777067 49.718623 
C 288.141133 49.718623 287.531159 49.971282 287.081485 50.420956 
C 286.631811 50.87063 286.379152 51.480604 286.379152 52.116538 
C 286.379152 52.752473 286.631811 53.362447 287.081485 53.812121 
C 287.531159 54.261795 288.141133 54.514454 288.777067 54.514454 
z
"/>
   </g>
   <g id="PathCollection_25">
    <path clip-path="url(#p801db33563)" d="M 288.777067 53.697677 
C 289.19639 53.697677 289.598595 53.531079 289.895101 53.234572 
C 290.191607 52.938066 290.358206 52.535861 290.358206 52.116538 
C 290.358206 51.697216 290.191607 51.295011 289.895101 50.998504 
C 289.598595 50.701998 289.19639 50.5354 288.777067 50.5354 
C 288.357744 50.5354 287.955539 50.701998 287.659033 50.998504 
C 287.362527 51.295011 287.195928 51.697216 287.195928 52.116538 
C 287.195928 52.535861 287.362527 52.938066 287.659033 53.234572 
C 287.955539 53.531079 288.357744 53.697677 288.777067 53.697677 
z
" style="fill:#ffffff;"/>
   </g>
   <g id="PathCollection_26">
    <path clip-path="url(#p801db33563)" d="M 357.215272 37.404903 
C 357.851207 37.404903 358.461181 37.152243 358.910855 36.70257 
C 359.360529 36.252896 359.613188 35.642922 359.613188 35.006987 
C 359.613188 34.371053 359.360529 33.761078 358.910855 33.311405 
C 358.461181 32.861731 357.851207 32.609071 357.215272 32.609071 
C 356.579338 32.609071 355.969364 32.861731 355.51969 33.311405 
C 355.070016 33.761078 354.817357 34.371053 354.817357 35.006987 
C 354.817357 35.642922 355.070016 36.252896 355.51969 36.70257 
C 355.969364 37.152243 356.579338 37.404903 357.215272 37.404903 
z
"/>
   </g>
   <g id="PathCollection_27">
    <path clip-path="url(#p801db33563)" d="M 357.215272 36.588126 
C 357.634595 36.588126 358.0368 36.421527 358.333306 36.125021 
C 358.629812 35.828515 358.796411 35.42631 358.796411 35.006987 
C 358.796411 34.587664 358.629812 34.185459 358.333306 33.888953 
C 358.0368 33.592447 357.634595 33.425848 357.215272 33.425848 
C 356.795949 33.425848 356.393744 33.592447 356.097238 33.888953 
C 355.800732 34.185459 355.634133 34.587664 355.634133 35.006987 
C 355.634133 35.42631 355.800732 35.828515 356.097238 36.125021 
C 356.393744 36.421527 356.795949 36.588126 357.215272 36.588126 
z
" style="fill:#ffffff;"/>
   </g>
   <g id="PathCollection_28">
    <path clip-path="url(#p801db33563)" d="M 357.215272 71.624005 
C 357.851207 71.624005 358.461181 71.371346 358.910855 70.921672 
C 359.360529 70.471998 359.613188 69.862024 359.613188 69.22609 
C 359.613188 68.590155 359.360529 67.980181 358.910855 67.530507 
C 358.461181 67.080833 357.851207 66.828174 357.215272 66.828174 
C 356.579338 66.828174 355.969364 67.080833 355.51969 67.530507 
C 355.070016 67.980181 354.817357 68.590155 354.817357 69.22609 
C 354.817357 69.862024 355.070016 70.471998 355.51969 70.921672 
C 355.969364 71.371346 356.579338 71.624005 357.215272 71.624005 
z
"/>
   </g>
   <g id="PathCollection_29">
    <path clip-path="url(#p801db33563)" d="M 357.215272 71.624005 
C 357.851207 71.624005 358.461181 71.371346 358.910855 70.921672 
C 359.360529 70.471998 359.613188 69.862024 359.613188 69.22609 
C 359.613188 68.590155 359.360529 67.980181 358.910855 67.530507 
C 358.461181 67.080833 357.851207 66.828174 357.215272 66.828174 
C 356.579338 66.828174 355.969364 67.080833 355.51969 67.530507 
C 355.070016 67.980181 354.817357 68.590155 354.817357 69.22609 
C 354.817357 69.862024 355.070016 70.471998 355.51969 70.921672 
C 355.969364 71.371346 356.579338 71.624005 357.215272 71.624005 
z
"/>
   </g>
   <g id="PathCollection_30">
    <path clip-path="url(#p801db33563)" d="M 357.215272 71.624005 
C 357.851207 71.624005 358.461181 71.371346 358.910855 70.921672 
C 359.360529 70.471998 359.613188 69.862024 359.613188 69.22609 
C 359.613188 68.590155 359.360529 67.980181 358.910855 67.530507 
C 358.461181 67.080833 357.851207 66.828174 357.215272 66.828174 
C 356.579338 66.828174 355.969364 67.080833 355.51969 67.530507 
C 355.070016 67.980181 354.817357 68.590155 354.817357 69.22609 
C 354.817357 69.862024 355.070016 70.471998 355.51969 70.921672 
C 355.969364 71.371346 356.579338 71.624005 357.215272 71.624005 
z
"/>
   </g>
   <g id="PathCollection_31">
    <path clip-path="url(#p801db33563)" d="M 357.215272 37.404903 
C 357.851207 37.404903 358.461181 37.152243 358.910855 36.70257 
C 359.360529 36.252896 359.613188 35.642922 359.613188 35.006987 
C 359.613188 34.371053 359.360529 33.761078 358.910855 33.311405 
C 358.461181 32.861731 357.851207 32.609071 357.215272 32.609071 
C 356.579338 32.609071 355.969364 32.861731 355.51969 33.311405 
C 355.070016 33.761078 354.817357 34.371053 354.817357 35.006987 
C 354.817357 35.642922 355.070016 36.252896 355.51969 36.70257 
C 355.969364 37.152243 356.579338 37.404903 357.215272 37.404903 
z
"/>
   </g>
   <g id="PathCollection_32">
    <path clip-path="url(#p801db33563)" d="M 357.215272 36.588126 
C 357.634595 36.588126 358.0368 36.421527 358.333306 36.125021 
C 358.629812 35.828515 358.796411 35.42631 358.796411 35.006987 
C 358.796411 34.587664 358.629812 34.185459 358.333306 33.888953 
C 358.0368 33.592447 357.634595 33.425848 357.215272 33.425848 
C 356.795949 33.425848 356.393744 33.592447 356.097238 33.888953 
C 355.800732 34.185459 355.634133 34.587664 355.634133 35.006987 
C 355.634133 35.42631 355.800732 35.828515 356.097238 36.125021 
C 356.393744 36.421527 356.795949 36.588126 357.215272 36.588126 
z
" style="fill:#ffffff;"/>
   </g>
   <g id="PathCollection_33">
    <path clip-path="url(#p801db33563)" d="M 494.091682 71.624005 
C 494.727617 71.624005 495.337591 71.371346 495.787265 70.921672 
C 496.236938 70.471998 496.489598 69.862024 496.489598 69.22609 
C 496.489598 68.590155 496.236938 67.980181 495.787265 67.530507 
C 495.337591 67.080833 494.727617 66.828174 494.091682 66.828174 
C 493.455748 66.828174 492.845773 67.080833 492.3961 67.530507 
C 491.946426 67.980181 491.693766 68.590155 491.693766 69.22609 
C 491.693766 69.862024 491.946426 70.471998 492.3961 70.921672 
C 492.845773 71.371346 493.455748 71.624005 494.091682 71.624005 
z
"/>
   </g>
   <g id="PathCollection_34">
    <path clip-path="url(#p801db33563)" d="M 494.091682 70.807229 
C 494.511005 70.807229 494.91321 70.64063 495.209716 70.344124 
C 495.506222 70.047618 495.672821 69.645413 495.672821 69.22609 
C 495.672821 68.806767 495.506222 68.404562 495.209716 68.108056 
C 494.91321 67.81155 494.511005 67.644951 494.091682 67.644951 
C 493.672359 67.644951 493.270154 67.81155 492.973648 68.108056 
C 492.677142 68.404562 492.510543 68.806767 492.510543 69.22609 
C 492.510543 69.645413 492.677142 70.047618 492.973648 70.344124 
C 493.270154 70.64063 493.672359 70.807229 494.091682 70.807229 
z
" style="fill:#ffffff;"/>
   </g>
   <g id="PathCollection_35">
    <path clip-path="url(#p801db33563)" d="M 494.091682 37.404903 
C 494.727617 37.404903 495.337591 37.152243 495.787265 36.70257 
C 496.236938 36.252896 496.489598 35.642922 496.489598 35.006987 
C 496.489598 34.371053 496.236938 33.761078 495.787265 33.311405 
C 495.337591 32.861731 494.727617 32.609071 494.091682 32.609071 
C 493.455748 32.609071 492.845773 32.861731 492.3961 33.311405 
C 491.946426 33.761078 491.693766 34.371053 491.693766 35.006987 
C 491.693766 35.642922 491.946426 36.252896 492.3961 36.70257 
C 492.845773 37.152243 493.455748 37.404903 494.091682 37.404903 
z
"/>
   </g>
   <g id="PathCollection_36">
    <path clip-path="url(#p801db33563)" d="M 494.091682 37.404903 
C 494.727617 37.404903 495.337591 37.152243 495.787265 36.70257 
C 496.236938 36.252896 496.489598 35.642922 496.489598 35.006987 
C 496.489598 34.371053 496.236938 33.761078 495.787265 33.311405 
C 495.337591 32.861731 494.727617 32.609071 494.091682 32.609071 
C 493.455748 32.609071 492.845773 32.861731 492.3961 33.311405 
C 491.946426 33.761078 491.693766 34.371053 491.693766 35.006987 
C 491.693766 35.642922 491.946426 36.252896 492.3961 36.70257 
C 492.845773 37.152243 493.455748 37.404903 494.091682 37.404903 
z
"/>
   </g>
   <g id="PathCollection_37">
    <path clip-path="url(#p801db33563)" d="M 494.091682 37.404903 
C 494.727617 37.404903 495.337591 37.152243 495.787265 36.70257 
C 496.236938 36.252896 496.489598 35.642922 496.489598 35.006987 
C 496.489598 34.371053 496.236938 33.761078 495.787265 33.311405 
C 495.337591 32.861731 494.727617 32.609071 494.091682 32.609071 
C 493.455748 32.609071 492.845773 32.861731 492.3961 33.311405 
C 491.946426 33.761078 491.693766 34.371053 491.693766 35.006987 
C 491.693766 35.642922 491.946426 36.252896 492.3961 36.70257 
C 492.845773 37.152243 493.455748 37.404903 494.091682 37.404903 
z
"/>
   </g>
   <g id="PathCollection_38">
    <path clip-path="url(#p801db33563)" d="M 494.091682 71.624005 
C 494.727617 71.624005 495.337591 71.371346 495.787265 70.921672 
C 496.236938 70.471998 496.489598 69.862024 496.489598 69.22609 
C 496.489598 68.590155 496.236938 67.980181 495.787265 67.530507 
C 495.337591 67.080833 494.727617 66.828174 494.091682 66.828174 
C 493.455748 66.828174 492.845773 67.080833 492.3961 67.530507 
C 491.946426 67.980181 491.693766 68.590155 491.693766 69.22609 
C 491.693766 69.862024 491.946426 70.471998 492.3961 70.921672 
C 492.845773 71.371346 493.455748 71.624005 494.091682 71.624005 
z
"/>
   </g>
   <g id="PathCollection_39">
    <path clip-path="url(#p801db33563)" d="M 494.091682 70.807229 
C 494.511005 70.807229 494.91321 70.64063 495.209716 70.344124 
C 495.506222 70.047618 495.672821 69.645413 495.672821 69.22609 
C 495.672821 68.806767 495.506222 68.404562 495.209716 68.108056 
C 494.91321 67.81155 494.511005 67.644951 494.091682 67.644951 
C 493.672359 67.644951 493.270154 67.81155 492.973648 68.108056 
C 492.677142 68.404562 492.510543 68.806767 492.510543 69.22609 
C 492.510543 69.645413 492.677142 70.047618 492.973648 70.344124 
C 493.270154 70.64063 493.672359 70.807229 494.091682 70.807229 
z
" style="fill:#ffffff;"/>
   </g>
   <g id="PathCollection_40">
    <path clip-path="url(#p801db33563)" d="M 562.529887 54.514454 
C 563.165822 54.514454 563.775796 54.261795 564.22547 53.812121 
C 564.675143 53.362447 564.927803 52.752473 564.927803 52.116538 
C 564.927803 51.480604 564.675143 50.87063 564.22547 50.420956 
C 563.775796 49.971282 563.165822 49.718623 562.529887 49.718623 
C 561.893953 49.718623 561.283978 49.971282 560.834305 50.420956 
C 560.384631 50.87063 560.131971 51.480604 560.131971 52.116538 
C 560.131971 52.752473 560.384631 53.362447 560.834305 53.812121 
C 561.283978 54.261795 561.893953 54.514454 562.529887 54.514454 
z
"/>
   </g>
   <g id="PathCollection_41">
    <path clip-path="url(#p801db33563)" d="M 562.529887 53.697677 
C 562.94921 53.697677 563.351415 53.531079 563.647921 53.234572 
C 563.944427 52.938066 564.111026 52.535861 564.111026 52.116538 
C 564.111026 51.697216 563.944427 51.295011 563.647921 50.998504 
C 563.351415 50.701998 562.94921 50.5354 562.529887 50.5354 
C 562.110564 50.5354 561.708359 50.701998 561.411853 50.998504 
C 561.115347 51.295011 560.948748 51.697216 560.948748 52.116538 
C 560.948748 52.535861 561.115347 52.938066 561.411853 53.234572 
C 561.708359 53.531079 562.110564 53.697677 562.529887 53.697677 
z
" style="fill:#ffffff;"/>
   </g>
   <g id="PathCollection_42">
    <path clip-path="url(#p801db33563)" d="M 562.529887 88.733557 
C 563.165822 88.733557 563.775796 88.480897 564.22547 88.031223 
C 564.675143 87.58155 564.927803 86.971576 564.927803 86.335641 
C 564.927803 85.699706 564.675143 85.089732 564.22547 84.640058 
C 563.775796 84.190385 563.165822 83.937725 562.529887 83.937725 
C 561.893953 83.937725 561.283978 84.190385 560.834305 84.640058 
C 560.384631 85.089732 560.131971 85.699706 560.131971 86.335641 
C 560.131971 86.971576 560.384631 87.58155 560.834305 88.031223 
C 561.283978 88.480897 561.893953 88.733557 562.529887 88.733557 
z
"/>
   </g>
   <g id="PathCollection_43">
    <path clip-path="url(#p801db33563)" d="M 562.529887 88.733557 
C 563.165822 88.733557 563.775796 88.480897 564.22547 88.031223 
C 564.675143 87.58155 564.927803 86.971576 564.927803 86.335641 
C 564.927803 85.699706 564.675143 85.089732 564.22547 84.640058 
C 563.775796 84.190385 563.165822 83.937725 562.529887 83.937725 
C 561.893953 83.937725 561.283978 84.190385 560.834305 84.640058 
C 560.384631 85.089732 560.131971 85.699706 560.131971 86.335641 
C 560.131971 86.971576 560.384631 87.58155 560.834305 88.031223 
C 561.283978 88.480897 561.893953 88.733557 562.529887 88.733557 
z
"/>
   </g>
   <g id="matplotlib.axis_1">
    <g id="xtick_1">
     <g id="line2d_14">
      <path clip-path="url(#p801db33563)" d="M 15.024247 87.704405 
L 15.024247 16.528672 
" style="fill:none;stroke:#000000;stroke-dasharray:0.5,0.825;stroke-dashoffset:0;stroke-width:0.5;"/>
     </g>
     <g id="line2d_15">
      <defs>
       <path d="M 0 0 
L 0 3.5 
" id="m4aa1b6a2e9" style="stroke:#000000;stroke-width:0.8;"/>
      </defs>
      <g>
       <use style="stroke:#000000;stroke-width:0.8;" x="15.024247" xlink:href="#m4aa1b6a2e9" y="86.335641"/>
      </g>
     </g>
    </g>
    <g id="xtick_2">
     <g id="line2d_16">
      <path clip-path="url(#p801db33563)" d="M 288.777067 87.704405 
L 288.777067 16.528672 
" style="fill:none;stroke:#000000;stroke-dasharray:0.5,0.825;stroke-dashoffset:0;stroke-width:0.5;"/>
     </g>
     <g id="line2d_17">
      <g>
       <use style="stroke:#000000;stroke-width:0.8;" x="288.777067" xlink:href="#m4aa1b6a2e9" y="86.335641"/>
      </g>
     </g>
     <g id="text_1">
      <!-- $f$ -->
      <defs>
       <path d="M 9.71875 -16.5 
Q 11.578125 -17.921875 14.203125 -17.921875 
Q 17.78125 -17.921875 20.015625 -10.015625 
Q 20.953125 -6.203125 25.09375 15.09375 
L 29.6875 39.59375 
L 21.09375 39.59375 
Q 20.125 39.59375 20.125 40.921875 
Q 20.515625 43.109375 21.390625 43.109375 
L 30.328125 43.109375 
L 31.5 49.609375 
Q 32.078125 52.640625 32.5625 54.8125 
Q 33.0625 56.984375 33.625 58.828125 
Q 34.1875 60.6875 35.296875 62.984375 
Q 37.015625 66.265625 39.921875 68.390625 
Q 42.828125 70.515625 46.1875 70.515625 
Q 48.390625 70.515625 50.46875 69.703125 
Q 52.546875 68.890625 53.859375 67.28125 
Q 55.171875 65.671875 55.171875 63.484375 
Q 55.171875 60.9375 53.484375 59.046875 
Q 51.8125 57.171875 49.421875 57.171875 
Q 47.796875 57.171875 46.65625 58.171875 
Q 45.515625 59.1875 45.515625 60.796875 
Q 45.515625 62.984375 47 64.625 
Q 48.484375 66.265625 50.6875 66.5 
Q 48.828125 67.921875 46.09375 67.921875 
Q 44.578125 67.921875 43.234375 66.5 
Q 41.890625 65.09375 41.5 63.484375 
Q 40.875 60.9375 38.71875 49.703125 
L 37.5 43.109375 
L 47.796875 43.109375 
Q 48.78125 43.109375 48.78125 41.796875 
Q 48.734375 41.546875 48.578125 40.9375 
Q 48.4375 40.328125 48.171875 39.953125 
Q 47.90625 39.59375 47.515625 39.59375 
L 36.8125 39.59375 
L 32.171875 15.1875 
Q 31.296875 9.859375 30.140625 4.359375 
Q 29 -1.125 26.921875 -6.90625 
Q 24.859375 -12.703125 21.625 -16.609375 
Q 18.40625 -20.515625 14.015625 -20.515625 
Q 10.640625 -20.515625 7.984375 -18.578125 
Q 5.328125 -16.65625 5.328125 -13.484375 
Q 5.328125 -10.9375 6.953125 -9.046875 
Q 8.59375 -7.171875 11.078125 -7.171875 
Q 12.75 -7.171875 13.859375 -8.171875 
Q 14.984375 -9.1875 14.984375 -10.796875 
Q 14.984375 -12.9375 13.390625 -14.71875 
Q 11.8125 -16.5 9.71875 -16.5 
z
" id="Cmmi10-66"/>
      </defs>
      <g transform="translate(286.327067 100.913766)scale(0.1 -0.1)">
       <use transform="translate(0 0.484375)" xlink:href="#Cmmi10-66"/>
      </g>
     </g>
    </g>
    <g id="xtick_3">
     <g id="line2d_18">
      <path clip-path="url(#p801db33563)" d="M 562.529887 87.704405 
L 562.529887 16.528672 
" style="fill:none;stroke:#000000;stroke-dasharray:0.5,0.825;stroke-dashoffset:0;stroke-width:0.5;"/>
     </g>
     <g id="line2d_19">
      <g>
       <use style="stroke:#000000;stroke-width:0.8;" x="562.529887" xlink:href="#m4aa1b6a2e9" y="86.335641"/>
      </g>
     </g>
     <g id="text_2">
      <!-- $1$ -->
      <defs>
       <path d="M 9.28125 0 
L 9.28125 3.515625 
Q 21.78125 3.515625 21.78125 6.6875 
L 21.78125 59.1875 
Q 16.609375 56.6875 8.6875 56.6875 
L 8.6875 60.203125 
Q 20.953125 60.203125 27.203125 66.609375 
L 28.609375 66.609375 
Q 28.953125 66.609375 29.265625 66.328125 
Q 29.59375 66.0625 29.59375 65.71875 
L 29.59375 6.6875 
Q 29.59375 3.515625 42.09375 3.515625 
L 42.09375 0 
z
" id="Cmr10-31"/>
      </defs>
      <g transform="translate(560.029887 100.934078)scale(0.1 -0.1)">
       <use transform="translate(0 0.390625)" xlink:href="#Cmr10-31"/>
      </g>
     </g>
    </g>
   </g>
   <g id="matplotlib.axis_2">
    <g id="ytick_1">
     <g id="line2d_20">
      <path clip-path="url(#p801db33563)" d="M 4.074135 86.335641 
L 573.48 86.335641 
" style="fill:none;stroke:#000000;stroke-dasharray:0.5,0.825;stroke-dashoffset:0;stroke-width:0.5;"/>
     </g>
     <g id="line2d_21">
      <defs>
       <path d="M 0 0 
L -3.5 0 
" id="m18a4de3695" style="stroke:#000000;stroke-width:0.8;"/>
      </defs>
      <g>
       <use style="stroke:#000000;stroke-width:0.8;" x="15.024247" xlink:href="#m18a4de3695" y="86.335641"/>
      </g>
     </g>
    </g>
    <g id="ytick_2">
     <g id="line2d_22">
      <path clip-path="url(#p801db33563)" d="M 4.074135 17.897436 
L 573.48 17.897436 
" style="fill:none;stroke:#000000;stroke-dasharray:0.5,0.825;stroke-dashoffset:0;stroke-width:0.5;"/>
     </g>
     <g id="line2d_23">
      <g>
       <use style="stroke:#000000;stroke-width:0.8;" x="15.024247" xlink:href="#m18a4de3695" y="17.897436"/>
      </g>
     </g>
     <g id="text_3">
      <!-- $1$ -->
      <g transform="translate(3.024247 21.696655)scale(0.1 -0.1)">
       <use transform="translate(0 0.390625)" xlink:href="#Cmr10-31"/>
      </g>
     </g>
    </g>
   </g>
   <g id="patch_3">
    <path d="M 15.024247 87.704405 
L 15.024247 16.528672 
" style="fill:none;stroke:#000000;stroke-linecap:square;stroke-linejoin:miter;stroke-width:0.8;"/>
   </g>
   <g id="patch_4">
    <path d="M 4.074135 86.335641 
L 573.48 86.335641 
" style="fill:none;stroke:#000000;stroke-linecap:square;stroke-linejoin:miter;stroke-width:0.8;"/>
   </g>
  </g>
 </g>
 <defs>
  <clipPath id="p801db33563">
   <rect height="71.175733" width="569.405865" x="4.074135" y="16.528672"/>
  </clipPath>
 </defs>
</svg>
