<?xml version="1.0" encoding="utf-8" standalone="no"?>
<!DOCTYPE svg PUBLIC "-//W3C//DTD SVG 1.1//EN"
  "http://www.w3.org/Graphics/SVG/1.1/DTD/svg11.dtd">
<!-- Created with matplotlib (http://matplotlib.org/) -->
<svg height="108pt" version="1.1" viewBox="0 0 576 108" width="576pt" xmlns="http://www.w3.org/2000/svg" xmlns:xlink="http://www.w3.org/1999/xlink">
 <defs>
  <style type="text/css">
*{stroke-linecap:butt;stroke-linejoin:round;}
  </style>
 </defs>
 <g id="figure_1">
  <g id="patch_1">
   <path d="M 0 108 
L 576 108 
L 576 0 
L 0 0 
z
" style="fill:#ffffff;"/>
  </g>
  <g id="axes_1">
   <g id="patch_2">
    <path d="M 4.074135 87.704405 
L 573.48 87.704405 
L 573.48 16.528672 
L 4.074135 16.528672 
z
" style="fill:#ffffff;"/>
   </g>
   <g id="line2d_1">
    <path clip-path="url(#p0f81c034ac)" d="M 114.570727 62.09711 
L 164.343967 42.135967 
L 164.343967 42.135967 
" style="fill:none;stroke:#ff0000;stroke-linecap:square;stroke-width:2;"/>
   </g>
   <g id="line2d_2">
    <path clip-path="url(#p0f81c034ac)" d="M 313.663687 60.671314 
L 388.323547 30.729599 
L 388.323547 30.729599 
" style="fill:none;stroke:#ff0000;stroke-linecap:square;stroke-width:2;"/>
   </g>
   <g id="line2d_3">
    <path clip-path="url(#p0f81c034ac)" d="M 438.096787 73.503478 
L 512.756647 43.561763 
L 512.756647 43.561763 
" style="fill:none;stroke:#ff0000;stroke-linecap:square;stroke-width:2;"/>
   </g>
   <g id="line2d_4">
    <path clip-path="url(#p0f81c034ac)" d="M 15.024247 86.335641 
L 39.910867 29.303803 
L 39.910867 29.303803 
" style="fill:none;stroke:#cbff00;stroke-linecap:square;stroke-width:2;"/>
   </g>
   <g id="line2d_5">
    <path clip-path="url(#p0f81c034ac)" d="M 239.003827 74.929273 
L 263.890447 17.897436 
L 263.890447 17.897436 
" style="fill:none;stroke:#cbff00;stroke-linecap:square;stroke-width:2;"/>
   </g>
   <g id="line2d_6">
    <path clip-path="url(#p0f81c034ac)" d="M 263.890447 17.897436 
L 264.011431 18.077652 
L 264.174136 18.320015 
L 264.245975 18.427024 
L 264.431377 18.703196 
L 264.489088 18.789161 
L 264.61742 18.980322 
L 264.802661 19.256255 
L 264.945771 19.469428 
L 265.058942 19.638007 
L 265.162082 19.791642 
L 265.268135 19.949617 
L 265.40133 20.148022 
L 265.466089 20.244486 
L 265.598687 20.442001 
L 265.764383 20.688819 
L 265.846999 20.811882 
L 265.971017 20.996618 
L 266.097636 21.185228 
L 266.297849 21.483461 
L 266.443036 21.69973 
L 266.531384 21.831332 
L 266.673828 22.043514 
L 266.719823 22.112027 
L 266.946479 22.449651 
L 266.972235 22.488016 
L 267.14467 22.744872 
L 267.264649 22.92359 
L 267.365413 23.073687 
L 267.509461 23.288258 
L 267.610356 23.438551 
L 267.814031 23.74194 
L 267.927705 23.911268 
L 268.043639 24.083962 
L 268.09246 24.156683 
L 268.207854 24.328574 
L 268.348952 24.53875 
L 268.478761 24.732112 
L 268.659129 25.000784 
L 268.811857 25.228286 
L 268.834899 25.262609 
L 269.058418 25.595559 
L 269.199498 25.805709 
L 269.298437 25.953087 
L 269.427453 26.145267 
L 269.560227 26.343046 
L 269.60644 26.411883 
L 269.720528 26.581826 
L 269.949728 26.92324 
L 269.962943 26.942924 
L 270.16737 27.247435 
L 270.249045 27.369097 
L 270.411664 27.611331 
L 270.580495 27.86282 
L 270.64994 27.966263 
L 270.750571 28.116162 
L 270.948026 28.410287 
L 271.049999 28.562185 
L 271.142111 28.699393 
L 271.248147 28.857343 
L 271.38066 29.054732 
L 271.473567 29.193125 
L 271.589526 29.365855 
L 271.729312 29.574078 
L 271.851469 29.756041 
L 272.051389 30.053838 
L 272.151256 30.202599 
L 272.21654 30.299845 
L 272.340827 30.484981 
L 272.465487 30.670673 
L 272.695069 31.012654 
L 272.777698 31.135736 
L 272.867194 31.269048 
L 273.071315 31.573104 
L 273.12601 31.654576 
L 273.224975 31.801993 
L 273.370458 32.018701 
L 273.472398 32.17055 
L 273.640058 32.420293 
L 273.766842 32.60915 
L 273.8615 32.75015 
L 274.046862 33.026261 
L 274.193573 33.2448 
L 274.304655 33.410267 
L 274.381064 33.524084 
L 274.501296 33.70318 
L 274.659468 33.93879 
L 274.739702 34.058304 
L 274.911899 34.314807 
L 274.98943 34.430296 
L 275.207063 34.754478 
L 275.321745 34.925307 
L 275.378996 35.010587 
L 275.578175 35.30728 
L 275.60055 35.34061 
L 275.740843 35.549589 
L 275.880052 35.756951 
L 276.029434 35.979468 
L 276.148579 36.156945 
L 276.214087 36.254524 
L 276.456967 36.616314 
L 276.488252 36.662917 
L 276.694479 36.970109 
L 276.79642 37.121958 
L 276.931236 37.322778 
L 276.982152 37.398621 
L 277.188977 37.706704 
L 277.272405 37.830977 
L 277.405746 38.0296 
L 277.469077 38.123936 
L 277.699841 38.467679 
L 277.7799 38.586933 
L 277.935465 38.81866 
L 278.059165 39.002922 
L 278.174535 39.174775 
L 278.308333 39.374078 
L 278.40407 39.516687 
L 278.485699 39.63828 
L 278.705574 39.965802 
L 278.749446 40.031153 
L 278.916685 40.28027 
L 279.017777 40.430854 
L 279.131883 40.600824 
L 279.217052 40.72769 
L 279.390732 40.986402 
L 279.486446 41.128976 
" style="fill:none;stroke:#00ff66;stroke-linecap:square;stroke-width:2;"/>
   </g>
   <g id="line2d_7">
    <path clip-path="url(#p0f81c034ac)" d="M 279.890955 41.731525 
L 279.964137 41.840537 
L 280.165506 42.140493 
L 280.220722 42.22274 
L 280.404243 42.496111 
L 280.510239 42.654001 
L 280.625529 42.825735 
L 280.826555 43.125179 
L 280.836529 43.140037 
L 281.036445 43.437829 
L 281.12065 43.563259 
L 281.257627 43.767298 
L 281.350152 43.905121 
L 281.48681 44.108684 
L 281.591684 44.264904 
L 281.797748 44.571852 
L 281.866643 44.674478 
L 282.039189 44.931499 
L 282.087356 45.003248 
L 282.297794 45.316713 
L 282.363961 45.415274 
L 282.574638 45.729095 
L 282.591263 45.753859 
L 282.810222 46.080017 
L 282.933263 46.263297 
L 283.005483 46.370874 
L 283.20892 46.67391 
L 283.28486 46.78703 
L 283.452834 47.037241 
L 283.58434 47.233131 
L 283.625976 47.295151 
L 283.739848 47.464773 
L 283.857866 47.64057 
L 284.021382 47.884141 
L 284.141883 48.063637 
L 284.241309 48.211741 
L 284.397856 48.44493 
L 284.545514 48.664879 
L 284.708509 48.907673 
L 284.80015 49.044181 
L 284.929874 49.237416 
L 284.97216 49.300403 
L 285.103706 49.496353 
L 285.293834 49.779563 
L 285.390802 49.924006 
L 285.544993 50.153686 
L 285.693004 50.374162 
L 285.793167 50.523362 
L 285.882378 50.656249 
L 286.021784 50.863907 
L 286.110473 50.996015 
L 286.238689 51.187004 
L 286.423076 51.461665 
L 286.49506 51.56889 
L 286.692699 51.86329 
L 286.779071 51.991949 
L 286.880916 52.143654 
L 287.01475 52.343012 
L 287.093029 52.459615 
L 287.255738 52.701984 
L 287.425427 52.95475 
L 287.47057 53.021993 
L 287.590122 53.200076 
L 287.823806 53.548168 
L 287.933503 53.711572 
L 288.040433 53.870851 
L 288.207787 54.120139 
L 288.249568 54.182376 
L 288.396569 54.401347 
L 288.4865 54.535307 
L 288.595508 54.697682 
L 288.777067 54.96813 
" style="fill:none;stroke:#00ff66;stroke-linecap:square;stroke-width:2;"/>
   </g>
   <g id="line2d_8">
    <path clip-path="url(#p0f81c034ac)" d="M 537.643267 49.264947 
L 562.529887 86.335641 
L 562.529887 86.335641 
" style="fill:none;stroke:#00ff66;stroke-linecap:square;stroke-width:2;"/>
   </g>
   <g id="line2d_9">
    <path clip-path="url(#p0f81c034ac)" d="M 64.797487 35.006987 
L 89.684107 56.393926 
L 89.684107 56.393926 
" style="fill:none;stroke:#0066ff;stroke-linecap:square;stroke-width:2;"/>
   </g>
   <g id="line2d_10">
    <path clip-path="url(#p0f81c034ac)" d="M 189.230587 47.839151 
L 214.117207 69.22609 
L 214.117207 69.22609 
" style="fill:none;stroke:#0066ff;stroke-linecap:square;stroke-width:2;"/>
   </g>
   <g id="line2d_11">
    <path clip-path="url(#p0f81c034ac)" d="M 388.323547 30.729599 
L 438.096787 73.503478 
L 438.096787 73.503478 
" style="fill:none;stroke:#0066ff;stroke-linecap:square;stroke-width:2;"/>
   </g>
   <g id="line2d_12">
    <path clip-path="url(#p0f81c034ac)" d="M 39.910867 29.303803 
L 64.797487 35.006987 
L 64.797487 35.006987 
" style="fill:none;stroke:#cc00ff;stroke-linecap:square;stroke-width:2;"/>
   </g>
   <g id="line2d_13">
    <path clip-path="url(#p0f81c034ac)" d="M 89.684107 56.393926 
L 114.570727 62.09711 
L 114.570727 62.09711 
" style="fill:none;stroke:#cc00ff;stroke-linecap:square;stroke-width:2;"/>
   </g>
   <g id="line2d_14">
    <path clip-path="url(#p0f81c034ac)" d="M 164.343967 42.135967 
L 189.230587 47.839151 
L 189.230587 47.839151 
" style="fill:none;stroke:#cc00ff;stroke-linecap:square;stroke-width:2;"/>
   </g>
   <g id="line2d_15">
    <path clip-path="url(#p0f81c034ac)" d="M 214.117207 69.22609 
L 239.003827 74.929273 
L 239.003827 74.929273 
" style="fill:none;stroke:#cc00ff;stroke-linecap:square;stroke-width:2;"/>
   </g>
   <g id="line2d_16">
    <path clip-path="url(#p0f81c034ac)" d="M 288.777067 54.96813 
L 313.663687 60.671314 
L 313.663687 60.671314 
" style="fill:none;stroke:#cc00ff;stroke-linecap:square;stroke-width:2;"/>
   </g>
   <g id="line2d_17">
    <path clip-path="url(#p0f81c034ac)" d="M 512.756647 43.561763 
L 537.643267 49.264947 
L 537.643267 49.264947 
" style="fill:none;stroke:#cc00ff;stroke-linecap:square;stroke-width:2;"/>
   </g>
   <g id="matplotlib.axis_1">
    <g id="xtick_1">
     <g id="line2d_18">
      <path clip-path="url(#p0f81c034ac)" d="M 15.024247 87.704405 
L 15.024247 16.528672 
" style="fill:none;stroke:#000000;stroke-dasharray:0.5,0.825;stroke-dashoffset:0;stroke-width:0.5;"/>
     </g>
     <g id="line2d_19">
      <defs>
       <path d="M 0 0 
L 0 3.5 
" id="mb42fc563c8" style="stroke:#000000;stroke-width:0.8;"/>
      </defs>
      <g>
       <use style="stroke:#000000;stroke-width:0.8;" x="15.024247" xlink:href="#mb42fc563c8" y="86.335641"/>
      </g>
     </g>
    </g>
    <g id="xtick_2">
     <g id="line2d_20">
      <path clip-path="url(#p0f81c034ac)" d="M 263.890447 87.704405 
L 263.890447 16.528672 
" style="fill:none;stroke:#000000;stroke-dasharray:0.5,0.825;stroke-dashoffset:0;stroke-width:0.5;"/>
     </g>
     <g id="line2d_21">
      <g>
       <use style="stroke:#000000;stroke-width:0.8;" x="263.890447" xlink:href="#mb42fc563c8" y="86.335641"/>
      </g>
     </g>
     <g id="text_1">
      <!-- $f$ -->
      <defs>
       <path d="M 9.71875 -16.5 
Q 11.578125 -17.921875 14.203125 -17.921875 
Q 17.78125 -17.921875 20.015625 -10.015625 
Q 20.953125 -6.203125 25.09375 15.09375 
L 29.6875 39.59375 
L 21.09375 39.59375 
Q 20.125 39.59375 20.125 40.921875 
Q 20.515625 43.109375 21.390625 43.109375 
L 30.328125 43.109375 
L 31.5 49.609375 
Q 32.078125 52.640625 32.5625 54.8125 
Q 33.0625 56.984375 33.625 58.828125 
Q 34.1875 60.6875 35.296875 62.984375 
Q 37.015625 66.265625 39.921875 68.390625 
Q 42.828125 70.515625 46.1875 70.515625 
Q 48.390625 70.515625 50.46875 69.703125 
Q 52.546875 68.890625 53.859375 67.28125 
Q 55.171875 65.671875 55.171875 63.484375 
Q 55.171875 60.9375 53.484375 59.046875 
Q 51.8125 57.171875 49.421875 57.171875 
Q 47.796875 57.171875 46.65625 58.171875 
Q 45.515625 59.1875 45.515625 60.796875 
Q 45.515625 62.984375 47 64.625 
Q 48.484375 66.265625 50.6875 66.5 
Q 48.828125 67.921875 46.09375 67.921875 
Q 44.578125 67.921875 43.234375 66.5 
Q 41.890625 65.09375 41.5 63.484375 
Q 40.875 60.9375 38.71875 49.703125 
L 37.5 43.109375 
L 47.796875 43.109375 
Q 48.78125 43.109375 48.78125 41.796875 
Q 48.734375 41.546875 48.578125 40.9375 
Q 48.4375 40.328125 48.171875 39.953125 
Q 47.90625 39.59375 47.515625 39.59375 
L 36.8125 39.59375 
L 32.171875 15.1875 
Q 31.296875 9.859375 30.140625 4.359375 
Q 29 -1.125 26.921875 -6.90625 
Q 24.859375 -12.703125 21.625 -16.609375 
Q 18.40625 -20.515625 14.015625 -20.515625 
Q 10.640625 -20.515625 7.984375 -18.578125 
Q 5.328125 -16.65625 5.328125 -13.484375 
Q 5.328125 -10.9375 6.953125 -9.046875 
Q 8.59375 -7.171875 11.078125 -7.171875 
Q 12.75 -7.171875 13.859375 -8.171875 
Q 14.984375 -9.1875 14.984375 -10.796875 
Q 14.984375 -12.9375 13.390625 -14.71875 
Q 11.8125 -16.5 9.71875 -16.5 
z
" id="Cmmi10-66"/>
      </defs>
      <g transform="translate(261.440447 100.913766)scale(0.1 -0.1)">
       <use transform="translate(0 0.484375)" xlink:href="#Cmmi10-66"/>
      </g>
     </g>
    </g>
    <g id="xtick_3">
     <g id="line2d_22">
      <path clip-path="url(#p0f81c034ac)" d="M 562.529887 87.704405 
L 562.529887 16.528672 
" style="fill:none;stroke:#000000;stroke-dasharray:0.5,0.825;stroke-dashoffset:0;stroke-width:0.5;"/>
     </g>
     <g id="line2d_23">
      <g>
       <use style="stroke:#000000;stroke-width:0.8;" x="562.529887" xlink:href="#mb42fc563c8" y="86.335641"/>
      </g>
     </g>
     <g id="text_2">
      <!-- $1$ -->
      <defs>
       <path d="M 9.28125 0 
L 9.28125 3.515625 
Q 21.78125 3.515625 21.78125 6.6875 
L 21.78125 59.1875 
Q 16.609375 56.6875 8.6875 56.6875 
L 8.6875 60.203125 
Q 20.953125 60.203125 27.203125 66.609375 
L 28.609375 66.609375 
Q 28.953125 66.609375 29.265625 66.328125 
Q 29.59375 66.0625 29.59375 65.71875 
L 29.59375 6.6875 
Q 29.59375 3.515625 42.09375 3.515625 
L 42.09375 0 
z
" id="Cmr10-31"/>
      </defs>
      <g transform="translate(560.029887 100.934078)scale(0.1 -0.1)">
       <use transform="translate(0 0.390625)" xlink:href="#Cmr10-31"/>
      </g>
     </g>
    </g>
   </g>
   <g id="matplotlib.axis_2">
    <g id="ytick_1">
     <g id="line2d_24">
      <path clip-path="url(#p0f81c034ac)" d="M 4.074135 86.335641 
L 573.48 86.335641 
" style="fill:none;stroke:#000000;stroke-dasharray:0.5,0.825;stroke-dashoffset:0;stroke-width:0.5;"/>
     </g>
     <g id="line2d_25">
      <defs>
       <path d="M 0 0 
L -3.5 0 
" id="m4e572a5423" style="stroke:#000000;stroke-width:0.8;"/>
      </defs>
      <g>
       <use style="stroke:#000000;stroke-width:0.8;" x="15.024247" xlink:href="#m4e572a5423" y="86.335641"/>
      </g>
     </g>
    </g>
    <g id="ytick_2">
     <g id="line2d_26">
      <path clip-path="url(#p0f81c034ac)" d="M 4.074135 17.897436 
L 573.48 17.897436 
" style="fill:none;stroke:#000000;stroke-dasharray:0.5,0.825;stroke-dashoffset:0;stroke-width:0.5;"/>
     </g>
     <g id="line2d_27">
      <g>
       <use style="stroke:#000000;stroke-width:0.8;" x="15.024247" xlink:href="#m4e572a5423" y="17.897436"/>
      </g>
     </g>
     <g id="text_3">
      <!-- $1$ -->
      <g transform="translate(3.024247 21.696655)scale(0.1 -0.1)">
       <use transform="translate(0 0.390625)" xlink:href="#Cmr10-31"/>
      </g>
     </g>
    </g>
   </g>
   <g id="patch_3">
    <path d="M 15.024247 87.704405 
L 15.024247 16.528672 
" style="fill:none;stroke:#000000;stroke-linecap:square;stroke-linejoin:miter;stroke-width:0.8;"/>
   </g>
   <g id="patch_4">
    <path d="M 4.074135 86.335641 
L 573.48 86.335641 
" style="fill:none;stroke:#000000;stroke-linecap:square;stroke-linejoin:miter;stroke-width:0.8;"/>
   </g>
  </g>
 </g>
 <defs>
  <clipPath id="p0f81c034ac">
   <rect height="71.175733" width="569.405865" x="4.074135" y="16.528672"/>
  </clipPath>
 </defs>
</svg>
