<?xml version="1.0" encoding="utf-8" standalone="no"?>
<!DOCTYPE svg PUBLIC "-//W3C//DTD SVG 1.1//EN"
  "http://www.w3.org/Graphics/SVG/1.1/DTD/svg11.dtd">
<!-- Created with matplotlib (http://matplotlib.org/) -->
<svg height="108pt" version="1.1" viewBox="0 0 576 108" width="576pt" xmlns="http://www.w3.org/2000/svg" xmlns:xlink="http://www.w3.org/1999/xlink">
 <defs>
  <style type="text/css">
*{stroke-linecap:butt;stroke-linejoin:round;}
  </style>
 </defs>
 <g id="figure_1">
  <g id="patch_1">
   <path d="M 0 108 
L 576 108 
L 576 0 
L 0 0 
z
" style="fill:#ffffff;"/>
  </g>
  <g id="axes_1">
   <g id="patch_2">
    <path d="M 4.074135 87.704405 
L 573.48 87.704405 
L 573.48 16.528672 
L 4.074135 16.528672 
z
" style="fill:#ffffff;"/>
   </g>
   <g id="line2d_1">
    <path clip-path="url(#p3f4dd211dd)" d="M 15.024247 86.335641 
L 39.910867 56.393926 
L 39.910867 56.393926 
" style="fill:none;stroke:#ff0000;stroke-linecap:square;stroke-width:2;"/>
   </g>
   <g id="line2d_2">
    <path clip-path="url(#p3f4dd211dd)" d="M 164.343967 47.839151 
L 189.230587 17.897436 
L 189.230587 17.897436 
" style="fill:none;stroke:#ff0000;stroke-linecap:square;stroke-width:2;"/>
   </g>
   <g id="line2d_3">
    <path clip-path="url(#p3f4dd211dd)" d="M 363.436927 67.087396 
L 363.52508 66.981337 
L 363.746896 66.714464 
L 363.829775 66.614751 
L 363.961018 66.456849 
L 364.048995 66.351002 
L 364.247547 66.112119 
L 364.251516 66.107344 
L 364.450719 65.867677 
L 364.610834 65.67504 
L 364.689402 65.580512 
L 364.798814 65.448876 
L 364.940296 65.278655 
L 365.072511 65.119584 
L 365.179356 64.991036 
L 365.329799 64.810035 
L 365.425293 64.695143 
L 365.532793 64.565807 
L 365.637278 64.440098 
L 365.791927 64.254037 
L 365.995705 64.008866 
L 366.079288 63.908306 
L 366.212979 63.747459 
L 366.364755 63.564853 
L 366.49884 63.403532 
L 366.535387 63.359561 
L 366.730145 63.125243 
L 366.780466 63.0647 
L 366.914825 62.903051 
L 367.055619 62.733658 
L 367.236935 62.515511 
L 367.282972 62.460123 
L 367.381521 62.341557 
L 367.537866 62.153454 
L 367.647483 62.021571 
L 367.768251 61.876272 
L 367.998772 61.598927 
L 368.101534 61.475291 
L 368.160719 61.404083 
L 368.317748 61.215159 
L 368.387522 61.131212 
L 368.526751 60.963701 
L 368.678774 60.780799 
L 368.870487 60.550144 
L 368.996976 60.397962 
L 369.0085 60.384098 
L 369.205752 60.146778 
L 369.342076 59.982763 
L 369.421039 59.887761 
L 369.543672 59.740218 
L 369.725747 59.521159 
L 369.849186 59.372647 
L 369.953931 59.246626 
L 370.053882 59.126372 
L 370.181564 58.972755 
L 370.290472 58.841725 
L 370.438761 58.663314 
L 370.61945 58.445923 
L 370.70003 58.348975 
L 370.848578 58.170253 
L 370.953871 58.043573 
L 371.086339 57.884197 
L 371.179481 57.772136 
L 371.302113 57.624594 
L 371.438604 57.460378 
L 371.541678 57.336367 
L 371.734276 57.104648 
L 371.869297 56.9422 
L 371.96818 56.823233 
L 372.120866 56.639533 
L 372.163304 56.588474 
L 372.318453 56.40181 
L 372.502815 56.18 
L 372.571766 56.097043 
" style="fill:none;stroke:#ff0000;stroke-linecap:square;stroke-width:2;"/>
   </g>
   <g id="line2d_4">
    <path clip-path="url(#p3f4dd211dd)" d="M 372.882201 55.723551 
L 373.038322 55.535718 
L 373.130788 55.424469 
L 373.318902 55.198145 
L 373.476369 55.008693 
L 373.569354 54.89682 
L 373.699383 54.740379 
L 373.816389 54.599606 
L 373.909146 54.488007 
L 374.067424 54.29758 
L 374.191605 54.148174 
L 374.272168 54.051247 
L 374.480515 53.80058 
L 374.531591 53.739129 
L 374.692947 53.544997 
L 374.83621 53.372634 
L 374.950385 53.235267 
L 375.042523 53.124414 
L 375.20329 52.930991 
L 375.341672 52.7645 
L 375.381804 52.716216 
L 375.615271 52.435326 
L 375.660004 52.381507 
L 375.808626 52.202696 
L 375.955912 52.025493 
L 376.042824 51.920927 
L 376.212198 51.717148 
L 376.272764 51.64428 
L 376.485048 51.388875 
L 376.596483 51.254805 
L 376.702306 51.127487 
L 376.810136 50.997754 
L 376.986589 50.785459 
L 377.019812 50.745488 
L 377.249434 50.469224 
L 377.264861 50.450663 
L 377.451772 50.225786 
L 377.62142 50.021678 
L 377.673498 49.959022 
L 377.808757 49.796288 
L 377.987781 49.5809 
L 378.056106 49.498697 
L 378.161812 49.371519 
L 378.338129 49.159387 
L 378.452765 49.021466 
L 378.61192 48.829983 
L 378.671911 48.757806 
L 378.802021 48.601267 
L 378.924534 48.453869 
L 379.123349 48.214669 
L 379.149827 48.182813 
L 379.351279 47.940441 
L 379.493887 47.768866 
L 379.539952 47.713444 
L 379.6923 47.530151 
L 379.837379 47.355603 
L 379.943017 47.228507 
L 380.119177 47.016564 
L 380.20856 46.909025 
L 380.343235 46.746994 
L 380.487871 46.572979 
L 380.535596 46.51556 
L 380.73973 46.269962 
L 380.879048 46.102344 
L 380.952904 46.013486 
L 381.041084 45.907395 
L 381.1498 45.776596 
L 381.288251 45.610022 
L 381.452403 45.412526 
L 381.603831 45.23034 
L 381.642866 45.183375 
L 381.78138 45.016726 
L 381.911324 44.860387 
L 382.103317 44.629396 
L 382.168012 44.55156 
L 382.299513 44.393347 
L 382.412902 44.256926 
L 382.591728 44.041777 
L 382.736329 43.867803 
L 382.850585 43.730339 
L 382.987035 43.566173 
L 383.021996 43.52411 
L 383.189912 43.322086 
L 383.350011 43.129467 
L 383.475201 42.978847 
L 383.520362 42.924514 
L 383.739226 42.661192 
L 383.836164 42.544564 
L 384.006524 42.3396 
L 384.067793 42.265886 
L 384.233852 42.066096 
L 384.298343 41.988505 
L 384.456236 41.798539 
L 384.610233 41.613262 
L 384.707007 41.496831 
L 384.883113 41.284954 
L 384.965533 41.185792 
L 385.079837 41.04827 
L 385.13877 40.977366 
L 385.366125 40.70383 
L 385.469741 40.579167 
L 385.512272 40.527997 
L 385.684788 40.320438 
L 385.880538 40.084926 
L 385.936472 40.01763 
L 386.06728 39.860253 
L 386.214432 39.683211 
L 386.297062 39.583796 
L 386.504141 39.334654 
L 386.572049 39.252952 
L 386.699778 39.099278 
L 386.828015 38.944994 
L 386.93872 38.811801 
L 387.077256 38.645126 
L 387.196754 38.501355 
L 387.350428 38.316466 
L 387.398982 38.258049 
L 387.557819 38.066948 
L 387.709937 37.883932 
L 387.830663 37.738682 
L 387.947128 37.598561 
L 388.05718 37.466154 
L 388.179921 37.318481 
L 388.323547 37.145681 
" style="fill:none;stroke:#ff0000;stroke-linecap:square;stroke-width:2;"/>
   </g>
   <g id="line2d_5">
    <path clip-path="url(#p3f4dd211dd)" d="M 89.684107 43.561763 
L 114.570727 60.671314 
L 114.570727 60.671314 
" style="fill:none;stroke:#cbff00;stroke-linecap:square;stroke-width:2;"/>
   </g>
   <g id="line2d_6">
    <path clip-path="url(#p3f4dd211dd)" d="M 214.117207 58.53262 
L 239.003827 75.642171 
L 239.003827 75.642171 
" style="fill:none;stroke:#cbff00;stroke-linecap:square;stroke-width:2;"/>
   </g>
   <g id="line2d_7">
    <path clip-path="url(#p3f4dd211dd)" d="M 288.777067 39.284375 
L 338.550307 73.503478 
L 338.550307 73.503478 
" style="fill:none;stroke:#cbff00;stroke-linecap:square;stroke-width:2;"/>
   </g>
   <g id="line2d_8">
    <path clip-path="url(#p3f4dd211dd)" d="M 413.210167 30.729599 
L 462.983407 64.948702 
L 462.983407 64.948702 
" style="fill:none;stroke:#cbff00;stroke-linecap:square;stroke-width:2;"/>
   </g>
   <g id="line2d_9">
    <path clip-path="url(#p3f4dd211dd)" d="M 512.756647 28.590906 
L 537.643267 45.700457 
L 537.643267 45.700457 
" style="fill:none;stroke:#cbff00;stroke-linecap:square;stroke-width:2;"/>
   </g>
   <g id="line2d_10">
    <path clip-path="url(#p3f4dd211dd)" d="M 39.910867 56.393926 
L 89.684107 43.561763 
L 89.684107 43.561763 
" style="fill:none;stroke:#00ff66;stroke-linecap:square;stroke-width:2;"/>
   </g>
   <g id="line2d_11">
    <path clip-path="url(#p3f4dd211dd)" d="M 114.570727 60.671314 
L 164.343967 47.839151 
L 164.343967 47.839151 
" style="fill:none;stroke:#00ff66;stroke-linecap:square;stroke-width:2;"/>
   </g>
   <g id="line2d_12">
    <path clip-path="url(#p3f4dd211dd)" d="M 338.550307 73.503478 
L 363.436927 67.087396 
L 363.436927 67.087396 
" style="fill:none;stroke:#00ff66;stroke-linecap:square;stroke-width:2;"/>
   </g>
   <g id="line2d_13">
    <path clip-path="url(#p3f4dd211dd)" d="M 388.323547 37.145681 
L 413.210167 30.729599 
L 413.210167 30.729599 
" style="fill:none;stroke:#00ff66;stroke-linecap:square;stroke-width:2;"/>
   </g>
   <g id="line2d_14">
    <path clip-path="url(#p3f4dd211dd)" d="M 189.230587 17.897436 
L 214.117207 58.53262 
L 214.117207 58.53262 
" style="fill:none;stroke:#0066ff;stroke-linecap:square;stroke-width:2;"/>
   </g>
   <g id="line2d_15">
    <path clip-path="url(#p3f4dd211dd)" d="M 537.643267 45.700457 
L 562.529887 86.335641 
L 562.529887 86.335641 
" style="fill:none;stroke:#0066ff;stroke-linecap:square;stroke-width:2;"/>
   </g>
   <g id="line2d_16">
    <path clip-path="url(#p3f4dd211dd)" d="M 239.003827 75.642171 
L 288.777067 39.284375 
L 288.777067 39.284375 
" style="fill:none;stroke:#cc00ff;stroke-linecap:square;stroke-width:2;"/>
   </g>
   <g id="line2d_17">
    <path clip-path="url(#p3f4dd211dd)" d="M 462.983407 64.948702 
L 512.756647 28.590906 
L 512.756647 28.590906 
" style="fill:none;stroke:#cc00ff;stroke-linecap:square;stroke-width:2;"/>
   </g>
   <g id="matplotlib.axis_1">
    <g id="xtick_1">
     <g id="line2d_18">
      <path clip-path="url(#p3f4dd211dd)" d="M 15.024247 87.704405 
L 15.024247 16.528672 
" style="fill:none;stroke:#000000;stroke-dasharray:0.5,0.825;stroke-dashoffset:0;stroke-width:0.5;"/>
     </g>
     <g id="line2d_19">
      <defs>
       <path d="M 0 0 
L 0 3.5 
" id="m01c070a230" style="stroke:#000000;stroke-width:0.8;"/>
      </defs>
      <g>
       <use style="stroke:#000000;stroke-width:0.8;" x="15.024247" xlink:href="#m01c070a230" y="86.335641"/>
      </g>
     </g>
    </g>
    <g id="xtick_2">
     <g id="line2d_20">
      <path clip-path="url(#p3f4dd211dd)" d="M 189.230587 87.704405 
L 189.230587 16.528672 
" style="fill:none;stroke:#000000;stroke-dasharray:0.5,0.825;stroke-dashoffset:0;stroke-width:0.5;"/>
     </g>
     <g id="line2d_21">
      <g>
       <use style="stroke:#000000;stroke-width:0.8;" x="189.230587" xlink:href="#m01c070a230" y="86.335641"/>
      </g>
     </g>
     <g id="text_1">
      <!-- $f$ -->
      <defs>
       <path d="M 9.71875 -16.5 
Q 11.578125 -17.921875 14.203125 -17.921875 
Q 17.78125 -17.921875 20.015625 -10.015625 
Q 20.953125 -6.203125 25.09375 15.09375 
L 29.6875 39.59375 
L 21.09375 39.59375 
Q 20.125 39.59375 20.125 40.921875 
Q 20.515625 43.109375 21.390625 43.109375 
L 30.328125 43.109375 
L 31.5 49.609375 
Q 32.078125 52.640625 32.5625 54.8125 
Q 33.0625 56.984375 33.625 58.828125 
Q 34.1875 60.6875 35.296875 62.984375 
Q 37.015625 66.265625 39.921875 68.390625 
Q 42.828125 70.515625 46.1875 70.515625 
Q 48.390625 70.515625 50.46875 69.703125 
Q 52.546875 68.890625 53.859375 67.28125 
Q 55.171875 65.671875 55.171875 63.484375 
Q 55.171875 60.9375 53.484375 59.046875 
Q 51.8125 57.171875 49.421875 57.171875 
Q 47.796875 57.171875 46.65625 58.171875 
Q 45.515625 59.1875 45.515625 60.796875 
Q 45.515625 62.984375 47 64.625 
Q 48.484375 66.265625 50.6875 66.5 
Q 48.828125 67.921875 46.09375 67.921875 
Q 44.578125 67.921875 43.234375 66.5 
Q 41.890625 65.09375 41.5 63.484375 
Q 40.875 60.9375 38.71875 49.703125 
L 37.5 43.109375 
L 47.796875 43.109375 
Q 48.78125 43.109375 48.78125 41.796875 
Q 48.734375 41.546875 48.578125 40.9375 
Q 48.4375 40.328125 48.171875 39.953125 
Q 47.90625 39.59375 47.515625 39.59375 
L 36.8125 39.59375 
L 32.171875 15.1875 
Q 31.296875 9.859375 30.140625 4.359375 
Q 29 -1.125 26.921875 -6.90625 
Q 24.859375 -12.703125 21.625 -16.609375 
Q 18.40625 -20.515625 14.015625 -20.515625 
Q 10.640625 -20.515625 7.984375 -18.578125 
Q 5.328125 -16.65625 5.328125 -13.484375 
Q 5.328125 -10.9375 6.953125 -9.046875 
Q 8.59375 -7.171875 11.078125 -7.171875 
Q 12.75 -7.171875 13.859375 -8.171875 
Q 14.984375 -9.1875 14.984375 -10.796875 
Q 14.984375 -12.9375 13.390625 -14.71875 
Q 11.8125 -16.5 9.71875 -16.5 
z
" id="Cmmi10-66"/>
      </defs>
      <g transform="translate(186.780587 100.913766)scale(0.1 -0.1)">
       <use transform="translate(0 0.484375)" xlink:href="#Cmmi10-66"/>
      </g>
     </g>
    </g>
    <g id="xtick_3">
     <g id="line2d_22">
      <path clip-path="url(#p3f4dd211dd)" d="M 562.529887 87.704405 
L 562.529887 16.528672 
" style="fill:none;stroke:#000000;stroke-dasharray:0.5,0.825;stroke-dashoffset:0;stroke-width:0.5;"/>
     </g>
     <g id="line2d_23">
      <g>
       <use style="stroke:#000000;stroke-width:0.8;" x="562.529887" xlink:href="#m01c070a230" y="86.335641"/>
      </g>
     </g>
     <g id="text_2">
      <!-- $1$ -->
      <defs>
       <path d="M 9.28125 0 
L 9.28125 3.515625 
Q 21.78125 3.515625 21.78125 6.6875 
L 21.78125 59.1875 
Q 16.609375 56.6875 8.6875 56.6875 
L 8.6875 60.203125 
Q 20.953125 60.203125 27.203125 66.609375 
L 28.609375 66.609375 
Q 28.953125 66.609375 29.265625 66.328125 
Q 29.59375 66.0625 29.59375 65.71875 
L 29.59375 6.6875 
Q 29.59375 3.515625 42.09375 3.515625 
L 42.09375 0 
z
" id="Cmr10-31"/>
      </defs>
      <g transform="translate(560.029887 100.934078)scale(0.1 -0.1)">
       <use transform="translate(0 0.390625)" xlink:href="#Cmr10-31"/>
      </g>
     </g>
    </g>
   </g>
   <g id="matplotlib.axis_2">
    <g id="ytick_1">
     <g id="line2d_24">
      <path clip-path="url(#p3f4dd211dd)" d="M 4.074135 86.335641 
L 573.48 86.335641 
" style="fill:none;stroke:#000000;stroke-dasharray:0.5,0.825;stroke-dashoffset:0;stroke-width:0.5;"/>
     </g>
     <g id="line2d_25">
      <defs>
       <path d="M 0 0 
L -3.5 0 
" id="m8a2f9bd861" style="stroke:#000000;stroke-width:0.8;"/>
      </defs>
      <g>
       <use style="stroke:#000000;stroke-width:0.8;" x="15.024247" xlink:href="#m8a2f9bd861" y="86.335641"/>
      </g>
     </g>
    </g>
    <g id="ytick_2">
     <g id="line2d_26">
      <path clip-path="url(#p3f4dd211dd)" d="M 4.074135 17.897436 
L 573.48 17.897436 
" style="fill:none;stroke:#000000;stroke-dasharray:0.5,0.825;stroke-dashoffset:0;stroke-width:0.5;"/>
     </g>
     <g id="line2d_27">
      <g>
       <use style="stroke:#000000;stroke-width:0.8;" x="15.024247" xlink:href="#m8a2f9bd861" y="17.897436"/>
      </g>
     </g>
     <g id="text_3">
      <!-- $1$ -->
      <g transform="translate(3.024247 21.696655)scale(0.1 -0.1)">
       <use transform="translate(0 0.390625)" xlink:href="#Cmr10-31"/>
      </g>
     </g>
    </g>
   </g>
   <g id="patch_3">
    <path d="M 15.024247 87.704405 
L 15.024247 16.528672 
" style="fill:none;stroke:#000000;stroke-linecap:square;stroke-linejoin:miter;stroke-width:0.8;"/>
   </g>
   <g id="patch_4">
    <path d="M 4.074135 86.335641 
L 573.48 86.335641 
" style="fill:none;stroke:#000000;stroke-linecap:square;stroke-linejoin:miter;stroke-width:0.8;"/>
   </g>
  </g>
 </g>
 <defs>
  <clipPath id="p3f4dd211dd">
   <rect height="71.175733" width="569.405865" x="4.074135" y="16.528672"/>
  </clipPath>
 </defs>
</svg>
