<?xml version="1.0" encoding="utf-8" standalone="no"?>
<!DOCTYPE svg PUBLIC "-//W3C//DTD SVG 1.1//EN"
  "http://www.w3.org/Graphics/SVG/1.1/DTD/svg11.dtd">
<!-- Created with matplotlib (http://matplotlib.org/) -->
<svg height="108pt" version="1.1" viewBox="0 0 576 108" width="576pt" xmlns="http://www.w3.org/2000/svg" xmlns:xlink="http://www.w3.org/1999/xlink">
 <defs>
  <style type="text/css">
*{stroke-linecap:butt;stroke-linejoin:round;}
  </style>
 </defs>
 <g id="figure_1">
  <g id="patch_1">
   <path d="M 0 108 
L 576 108 
L 576 0 
L 0 0 
z
" style="fill:#ffffff;"/>
  </g>
  <g id="axes_1">
   <g id="patch_2">
    <path d="M 8.756652 91.079231 
L 285.48 91.079231 
L 285.48 2.52 
L 8.756652 2.52 
z
" style="fill:#ffffff;"/>
   </g>
   <g id="line2d_1">
    <path clip-path="url(#pa3e7556afe)" d="M 114.59742 23.145975 
L 232.855261 70.453256 
L 232.855261 70.453256 
" style="fill:none;stroke:#ff0000;stroke-linecap:square;"/>
   </g>
   <g id="line2d_2">
    <path clip-path="url(#pa3e7556afe)" d="M 67.294283 4.223062 
L 96.858744 51.530344 
L 96.858744 51.530344 
" style="fill:none;stroke:#00ff00;stroke-linecap:square;"/>
   </g>
   <g id="line2d_3">
    <path clip-path="url(#pa3e7556afe)" d="M 250.593937 42.068887 
L 280.158397 89.376169 
L 280.158397 89.376169 
" style="fill:none;stroke:#00ff00;stroke-linecap:square;"/>
   </g>
   <g id="line2d_4">
    <path clip-path="url(#pa3e7556afe)" d="M 14.078255 89.376169 
L 67.294283 4.223062 
L 67.294283 4.223062 
" style="fill:none;stroke:#0000ff;stroke-linecap:square;"/>
   </g>
   <g id="line2d_5">
    <path clip-path="url(#pa3e7556afe)" d="M 96.858744 51.530344 
L 114.59742 23.145975 
L 114.59742 23.145975 
" style="fill:none;stroke:#0000ff;stroke-linecap:square;"/>
   </g>
   <g id="line2d_6">
    <path clip-path="url(#pa3e7556afe)" d="M 232.855261 70.453256 
L 250.593937 42.068887 
L 250.593937 42.068887 
" style="fill:none;stroke:#0000ff;stroke-linecap:square;"/>
   </g>
   <g id="matplotlib.axis_1">
    <g id="xtick_1">
     <g id="line2d_7">
      <path clip-path="url(#pa3e7556afe)" d="M 14.078255 91.079231 
L 14.078255 2.52 
" style="fill:none;stroke:#000000;stroke-dasharray:0.5,0.825;stroke-dashoffset:0;stroke-width:0.5;"/>
     </g>
     <g id="line2d_8">
      <defs>
       <path d="M 0 0 
L 0 3.5 
" id="mf2d4e7bbc2" style="stroke:#000000;stroke-width:0.8;"/>
      </defs>
      <g>
       <use style="stroke:#000000;stroke-width:0.8;" x="14.078255" xlink:href="#mf2d4e7bbc2" y="89.376169"/>
      </g>
     </g>
    </g>
    <g id="xtick_2">
     <g id="line2d_9">
      <path clip-path="url(#pa3e7556afe)" d="M 67.294283 91.079231 
L 67.294283 2.52 
" style="fill:none;stroke:#000000;stroke-dasharray:0.5,0.825;stroke-dashoffset:0;stroke-width:0.5;"/>
     </g>
     <g id="line2d_10">
      <g>
       <use style="stroke:#000000;stroke-width:0.8;" x="67.294283" xlink:href="#mf2d4e7bbc2" y="89.376169"/>
      </g>
     </g>
     <g id="text_1">
      <!-- $f$ -->
      <defs>
       <path d="M 9.71875 -16.5 
Q 11.578125 -17.921875 14.203125 -17.921875 
Q 17.78125 -17.921875 20.015625 -10.015625 
Q 20.953125 -6.203125 25.09375 15.09375 
L 29.6875 39.59375 
L 21.09375 39.59375 
Q 20.125 39.59375 20.125 40.921875 
Q 20.515625 43.109375 21.390625 43.109375 
L 30.328125 43.109375 
L 31.5 49.609375 
Q 32.078125 52.640625 32.5625 54.8125 
Q 33.0625 56.984375 33.625 58.828125 
Q 34.1875 60.6875 35.296875 62.984375 
Q 37.015625 66.265625 39.921875 68.390625 
Q 42.828125 70.515625 46.1875 70.515625 
Q 48.390625 70.515625 50.46875 69.703125 
Q 52.546875 68.890625 53.859375 67.28125 
Q 55.171875 65.671875 55.171875 63.484375 
Q 55.171875 60.9375 53.484375 59.046875 
Q 51.8125 57.171875 49.421875 57.171875 
Q 47.796875 57.171875 46.65625 58.171875 
Q 45.515625 59.1875 45.515625 60.796875 
Q 45.515625 62.984375 47 64.625 
Q 48.484375 66.265625 50.6875 66.5 
Q 48.828125 67.921875 46.09375 67.921875 
Q 44.578125 67.921875 43.234375 66.5 
Q 41.890625 65.09375 41.5 63.484375 
Q 40.875 60.9375 38.71875 49.703125 
L 37.5 43.109375 
L 47.796875 43.109375 
Q 48.78125 43.109375 48.78125 41.796875 
Q 48.734375 41.546875 48.578125 40.9375 
Q 48.4375 40.328125 48.171875 39.953125 
Q 47.90625 39.59375 47.515625 39.59375 
L 36.8125 39.59375 
L 32.171875 15.1875 
Q 31.296875 9.859375 30.140625 4.359375 
Q 29 -1.125 26.921875 -6.90625 
Q 24.859375 -12.703125 21.625 -16.609375 
Q 18.40625 -20.515625 14.015625 -20.515625 
Q 10.640625 -20.515625 7.984375 -18.578125 
Q 5.328125 -16.65625 5.328125 -13.484375 
Q 5.328125 -10.9375 6.953125 -9.046875 
Q 8.59375 -7.171875 11.078125 -7.171875 
Q 12.75 -7.171875 13.859375 -8.171875 
Q 14.984375 -9.1875 14.984375 -10.796875 
Q 14.984375 -12.9375 13.390625 -14.71875 
Q 11.8125 -16.5 9.71875 -16.5 
z
" id="Cmmi10-66"/>
      </defs>
      <g transform="translate(64.844283 103.954294)scale(0.1 -0.1)">
       <use transform="translate(0 0.484375)" xlink:href="#Cmmi10-66"/>
      </g>
     </g>
    </g>
    <g id="xtick_3">
     <g id="line2d_11">
      <path clip-path="url(#pa3e7556afe)" d="M 280.158397 91.079231 
L 280.158397 2.52 
" style="fill:none;stroke:#000000;stroke-dasharray:0.5,0.825;stroke-dashoffset:0;stroke-width:0.5;"/>
     </g>
     <g id="line2d_12">
      <g>
       <use style="stroke:#000000;stroke-width:0.8;" x="280.158397" xlink:href="#mf2d4e7bbc2" y="89.376169"/>
      </g>
     </g>
     <g id="text_2">
      <!-- $1$ -->
      <defs>
       <path d="M 9.28125 0 
L 9.28125 3.515625 
Q 21.78125 3.515625 21.78125 6.6875 
L 21.78125 59.1875 
Q 16.609375 56.6875 8.6875 56.6875 
L 8.6875 60.203125 
Q 20.953125 60.203125 27.203125 66.609375 
L 28.609375 66.609375 
Q 28.953125 66.609375 29.265625 66.328125 
Q 29.59375 66.0625 29.59375 65.71875 
L 29.59375 6.6875 
Q 29.59375 3.515625 42.09375 3.515625 
L 42.09375 0 
z
" id="Cmr10-31"/>
      </defs>
      <g transform="translate(277.658397 103.974606)scale(0.1 -0.1)">
       <use transform="translate(0 0.390625)" xlink:href="#Cmr10-31"/>
      </g>
     </g>
    </g>
   </g>
   <g id="matplotlib.axis_2">
    <g id="ytick_1">
     <g id="line2d_13">
      <path clip-path="url(#pa3e7556afe)" d="M 8.756652 89.376169 
L 285.48 89.376169 
" style="fill:none;stroke:#000000;stroke-dasharray:0.5,0.825;stroke-dashoffset:0;stroke-width:0.5;"/>
     </g>
     <g id="line2d_14">
      <defs>
       <path d="M 0 0 
L -3.5 0 
" id="m40cf7aff67" style="stroke:#000000;stroke-width:0.8;"/>
      </defs>
      <g>
       <use style="stroke:#000000;stroke-width:0.8;" x="14.078255" xlink:href="#m40cf7aff67" y="89.376169"/>
      </g>
     </g>
    </g>
    <g id="ytick_2">
     <g id="line2d_15">
      <path clip-path="url(#pa3e7556afe)" d="M 8.756652 4.223062 
L 285.48 4.223062 
" style="fill:none;stroke:#000000;stroke-dasharray:0.5,0.825;stroke-dashoffset:0;stroke-width:0.5;"/>
     </g>
     <g id="line2d_16">
      <g>
       <use style="stroke:#000000;stroke-width:0.8;" x="14.078255" xlink:href="#m40cf7aff67" y="4.223062"/>
      </g>
     </g>
     <g id="text_3">
      <!-- $1$ -->
      <g transform="translate(2.078255 8.022281)scale(0.1 -0.1)">
       <use transform="translate(0 0.390625)" xlink:href="#Cmr10-31"/>
      </g>
     </g>
    </g>
   </g>
   <g id="patch_3">
    <path d="M 14.078255 91.079231 
L 14.078255 2.52 
" style="fill:none;stroke:#000000;stroke-linecap:square;stroke-linejoin:miter;stroke-width:0.8;"/>
   </g>
   <g id="patch_4">
    <path d="M 8.756652 89.376169 
L 285.48 89.376169 
" style="fill:none;stroke:#000000;stroke-linecap:square;stroke-linejoin:miter;stroke-width:0.8;"/>
   </g>
  </g>
  <g id="axes_2">
   <g id="patch_5">
    <path d="M 296.756652 91.079231 
L 573.48 91.079231 
L 573.48 2.52 
L 296.756652 2.52 
z
" style="fill:#ffffff;"/>
   </g>
   <g id="line2d_17">
    <path clip-path="url(#pca7bcab86e)" d="M 376.3179 17.88961 
L 428.87694 52.05598 
L 428.87694 52.05598 
" style="fill:none;stroke:#ff0000;stroke-linecap:square;"/>
   </g>
   <g id="line2d_18">
    <path clip-path="url(#pca7bcab86e)" d="M 494.575741 41.543251 
L 547.134781 75.709621 
L 547.134781 75.709621 
" style="fill:none;stroke:#ff0000;stroke-linecap:square;"/>
   </g>
   <g id="line2d_19">
    <path clip-path="url(#pca7bcab86e)" d="M 302.078255 89.376169 
L 355.294283 4.223062 
L 355.294283 4.223062 
" style="fill:none;stroke:#00ff00;stroke-linecap:square;"/>
   </g>
   <g id="line2d_20">
    <path clip-path="url(#pca7bcab86e)" d="M 368.434043 30.504885 
L 376.3179 17.88961 
L 376.3179 17.88961 
" style="fill:none;stroke:#00ff00;stroke-linecap:square;"/>
   </g>
   <g id="line2d_21">
    <path clip-path="url(#pca7bcab86e)" d="M 428.87694 52.05598 
L 436.760796 39.440705 
L 436.760796 39.440705 
" style="fill:none;stroke:#00ff00;stroke-linecap:square;"/>
   </g>
   <g id="line2d_22">
    <path clip-path="url(#pca7bcab86e)" d="M 449.900556 65.722528 
L 465.963429 40.01968 
L 465.963429 40.01968 
" style="fill:none;stroke:#00ff00;stroke-linecap:square;"/>
   </g>
   <g id="line2d_23">
    <path clip-path="url(#pca7bcab86e)" d="M 466.307841 39.468571 
L 466.399811 39.321407 
L 466.516089 39.135346 
L 466.709855 38.825293 
L 466.8239 38.642805 
L 466.934112 38.466451 
L 467.006909 38.349966 
L 467.092647 38.212772 
L 467.198258 38.04378 
L 467.386008 37.743353 
L 467.448909 37.642703 
L 467.552162 37.477483 
L 467.75688 37.149906 
L 467.800114 37.080725 
L 467.987589 36.78074 
L 468.119136 36.570247 
L 468.172662 36.484597 
L 468.28053 36.311993 
L 468.42989 36.072996 
L 468.570021 35.848766 
L 468.702349 35.637024 
L 468.835541 35.423898 
L 468.871096 35.367005 
L 469.085101 35.024566 
L 469.158206 34.907588 
L 469.331125 34.630894 
L 469.368829 34.570562 
L 469.464461 34.417537 
L 469.587265 34.221034 
L 469.765922 33.935157 
L 469.824512 33.841406 
L 470.008051 33.547717 
L 470.123714 33.36264 
L 470.183712 33.266635 
L 470.380039 32.952483 
L 470.439278 32.857694 
L 470.527941 32.715821 
L 470.651306 32.518419 
L 470.804246 32.273694 
L 470.975979 31.998896 
L 471.097115 31.805062 
L 471.141377 31.734237 
L 471.245077 31.568301 
L 471.462578 31.22027 
L 471.516983 31.133214 
L 471.708507 30.826749 
L 471.806106 30.670577 
L 471.906604 30.509767 
L 472.047527 30.284269 
L 472.154996 30.112305 
L 472.227321 29.996574 
L 472.349009 29.801856 
L 472.502224 29.55669 
L 472.619353 29.369268 
L 472.758093 29.147264 
L 472.824877 29.040401 
L 472.931008 28.870576 
L 473.052291 28.676507 
L 473.201027 28.438508 
L 473.326923 28.237056 
L 473.474166 28.001448 
L 473.552124 27.876703 
" style="fill:none;stroke:#00ff00;stroke-linecap:square;"/>
   </g>
   <g id="line2d_24">
    <path clip-path="url(#pca7bcab86e)" d="M 486.691884 54.158526 
L 494.575741 41.543251 
L 494.575741 41.543251 
" style="fill:none;stroke:#00ff00;stroke-linecap:square;"/>
   </g>
   <g id="line2d_25">
    <path clip-path="url(#pca7bcab86e)" d="M 547.134781 75.709621 
L 555.018637 63.094346 
L 555.018637 63.094346 
" style="fill:none;stroke:#00ff00;stroke-linecap:square;"/>
   </g>
   <g id="line2d_26">
    <path clip-path="url(#pca7bcab86e)" d="M 355.294283 4.223062 
L 368.434043 30.504885 
L 368.434043 30.504885 
" style="fill:none;stroke:#0000ff;stroke-linecap:square;"/>
   </g>
   <g id="line2d_27">
    <path clip-path="url(#pca7bcab86e)" d="M 436.760796 39.440705 
L 449.900556 65.722528 
L 449.900556 65.722528 
" style="fill:none;stroke:#0000ff;stroke-linecap:square;"/>
   </g>
   <g id="line2d_28">
    <path clip-path="url(#pca7bcab86e)" d="M 473.552124 27.876703 
L 486.691884 54.158526 
L 486.691884 54.158526 
" style="fill:none;stroke:#0000ff;stroke-linecap:square;"/>
   </g>
   <g id="line2d_29">
    <path clip-path="url(#pca7bcab86e)" d="M 555.018637 63.094346 
L 568.158397 89.376169 
L 568.158397 89.376169 
" style="fill:none;stroke:#0000ff;stroke-linecap:square;"/>
   </g>
   <g id="matplotlib.axis_3">
    <g id="xtick_4">
     <g id="line2d_30">
      <path clip-path="url(#pca7bcab86e)" d="M 302.078255 91.079231 
L 302.078255 2.52 
" style="fill:none;stroke:#000000;stroke-dasharray:0.5,0.825;stroke-dashoffset:0;stroke-width:0.5;"/>
     </g>
     <g id="line2d_31">
      <g>
       <use style="stroke:#000000;stroke-width:0.8;" x="302.078255" xlink:href="#mf2d4e7bbc2" y="89.376169"/>
      </g>
     </g>
    </g>
    <g id="xtick_5">
     <g id="line2d_32">
      <path clip-path="url(#pca7bcab86e)" d="M 355.294283 91.079231 
L 355.294283 2.52 
" style="fill:none;stroke:#000000;stroke-dasharray:0.5,0.825;stroke-dashoffset:0;stroke-width:0.5;"/>
     </g>
     <g id="line2d_33">
      <g>
       <use style="stroke:#000000;stroke-width:0.8;" x="355.294283" xlink:href="#mf2d4e7bbc2" y="89.376169"/>
      </g>
     </g>
     <g id="text_4">
      <!-- $f$ -->
      <g transform="translate(352.844283 103.954294)scale(0.1 -0.1)">
       <use transform="translate(0 0.484375)" xlink:href="#Cmmi10-66"/>
      </g>
     </g>
    </g>
    <g id="xtick_6">
     <g id="line2d_34">
      <path clip-path="url(#pca7bcab86e)" d="M 568.158397 91.079231 
L 568.158397 2.52 
" style="fill:none;stroke:#000000;stroke-dasharray:0.5,0.825;stroke-dashoffset:0;stroke-width:0.5;"/>
     </g>
     <g id="line2d_35">
      <g>
       <use style="stroke:#000000;stroke-width:0.8;" x="568.158397" xlink:href="#mf2d4e7bbc2" y="89.376169"/>
      </g>
     </g>
     <g id="text_5">
      <!-- $1$ -->
      <g transform="translate(565.658397 103.974606)scale(0.1 -0.1)">
       <use transform="translate(0 0.390625)" xlink:href="#Cmr10-31"/>
      </g>
     </g>
    </g>
   </g>
   <g id="matplotlib.axis_4">
    <g id="ytick_3">
     <g id="line2d_36">
      <path clip-path="url(#pca7bcab86e)" d="M 296.756652 89.376169 
L 573.48 89.376169 
" style="fill:none;stroke:#000000;stroke-dasharray:0.5,0.825;stroke-dashoffset:0;stroke-width:0.5;"/>
     </g>
     <g id="line2d_37">
      <g>
       <use style="stroke:#000000;stroke-width:0.8;" x="302.078255" xlink:href="#m40cf7aff67" y="89.376169"/>
      </g>
     </g>
    </g>
    <g id="ytick_4">
     <g id="line2d_38">
      <path clip-path="url(#pca7bcab86e)" d="M 296.756652 4.223062 
L 573.48 4.223062 
" style="fill:none;stroke:#000000;stroke-dasharray:0.5,0.825;stroke-dashoffset:0;stroke-width:0.5;"/>
     </g>
     <g id="line2d_39">
      <g>
       <use style="stroke:#000000;stroke-width:0.8;" x="302.078255" xlink:href="#m40cf7aff67" y="4.223062"/>
      </g>
     </g>
     <g id="text_6">
      <!-- $1$ -->
      <g transform="translate(290.078255 8.022281)scale(0.1 -0.1)">
       <use transform="translate(0 0.390625)" xlink:href="#Cmr10-31"/>
      </g>
     </g>
    </g>
   </g>
   <g id="patch_6">
    <path d="M 302.078255 91.079231 
L 302.078255 2.52 
" style="fill:none;stroke:#000000;stroke-linecap:square;stroke-linejoin:miter;stroke-width:0.8;"/>
   </g>
   <g id="patch_7">
    <path d="M 296.756652 89.376169 
L 573.48 89.376169 
" style="fill:none;stroke:#000000;stroke-linecap:square;stroke-linejoin:miter;stroke-width:0.8;"/>
   </g>
  </g>
 </g>
 <defs>
  <clipPath id="pa3e7556afe">
   <rect height="88.559231" width="276.723348" x="8.756652" y="2.52"/>
  </clipPath>
  <clipPath id="pca7bcab86e">
   <rect height="88.559231" width="276.723348" x="296.756652" y="2.52"/>
  </clipPath>
 </defs>
</svg>
