<?xml version="1.0" encoding="utf-8" standalone="no"?>
<!DOCTYPE svg PUBLIC "-//W3C//DTD SVG 1.1//EN"
  "http://www.w3.org/Graphics/SVG/1.1/DTD/svg11.dtd">
<!-- Created with matplotlib (http://matplotlib.org/) -->
<svg height="108pt" version="1.1" viewBox="0 0 576 108" width="576pt" xmlns="http://www.w3.org/2000/svg" xmlns:xlink="http://www.w3.org/1999/xlink">
 <defs>
  <style type="text/css">
*{stroke-linecap:butt;stroke-linejoin:round;}
  </style>
 </defs>
 <g id="figure_1">
  <g id="patch_1">
   <path d="M 0 108 
L 576 108 
L 576 0 
L 0 0 
z
" style="fill:#ffffff;"/>
  </g>
  <g id="axes_1">
   <g id="patch_2">
    <path d="M 4.074135 87.704405 
L 573.48 87.704405 
L 573.48 16.528672 
L 4.074135 16.528672 
z
" style="fill:#ffffff;"/>
   </g>
   <g id="line2d_1">
    <path clip-path="url(#p6009ba4e80)" d="M 15.024247 86.335641 
L 288.777067 17.897436 
L 288.777067 17.897436 
" style="fill:none;stroke:#000000;stroke-linecap:square;stroke-width:2;"/>
   </g>
   <g id="line2d_2">
    <path clip-path="url(#p6009ba4e80)" d="M 288.777067 52.116538 
L 357.215272 35.006987 
L 357.215272 35.006987 
" style="fill:none;stroke:#000000;stroke-linecap:square;stroke-width:2;"/>
   </g>
   <g id="line2d_3">
    <path clip-path="url(#p6009ba4e80)" d="M 357.215272 35.006987 
L 494.091682 69.22609 
L 494.091682 69.22609 
" style="fill:none;stroke:#000000;stroke-linecap:square;stroke-width:2;"/>
   </g>
   <g id="line2d_4">
    <path clip-path="url(#p6009ba4e80)" d="M 494.091682 69.22609 
L 562.529887 52.116538 
L 562.529887 52.116538 
" style="fill:none;stroke:#000000;stroke-linecap:square;stroke-width:2;"/>
   </g>
   <g id="line2d_5">
    <path clip-path="url(#p6009ba4e80)" d="M 15.024247 86.335641 
L 288.777067 17.897436 
L 288.777067 17.897436 
" style="fill:none;stroke:#ff0000;stroke-linecap:square;stroke-width:2;"/>
   </g>
   <g id="line2d_6">
    <path clip-path="url(#p6009ba4e80)" d="M 288.777067 52.116538 
L 357.215272 35.006987 
L 357.215272 35.006987 
" style="fill:none;stroke:#ff0000;stroke-linecap:square;stroke-width:2;"/>
   </g>
   <g id="line2d_7">
    <path clip-path="url(#p6009ba4e80)" d="M 494.091682 69.22609 
L 562.529887 52.116538 
L 562.529887 52.116538 
" style="fill:none;stroke:#ff0000;stroke-linecap:square;stroke-width:2;"/>
   </g>
   <g id="line2d_8">
    <path clip-path="url(#p6009ba4e80)" d="M 357.215272 35.006987 
L 494.091682 69.22609 
L 494.091682 69.22609 
" style="fill:none;stroke:#00ffff;stroke-linecap:square;stroke-width:2;"/>
   </g>
   <g id="PathCollection_1">
    <path clip-path="url(#p6009ba4e80)" d="M 288.777067 20.295352 
C 289.413002 20.295352 290.022976 20.042692 290.47265 19.593018 
C 290.922324 19.143345 291.174983 18.533371 291.174983 17.897436 
C 291.174983 17.261501 290.922324 16.651527 290.47265 16.201853 
C 290.022976 15.75218 289.413002 15.49952 288.777067 15.49952 
C 288.141133 15.49952 287.531159 15.75218 287.081485 16.201853 
C 286.631811 16.651527 286.379152 17.261501 286.379152 17.897436 
C 286.379152 18.533371 286.631811 19.143345 287.081485 19.593018 
C 287.531159 20.042692 288.141133 20.295352 288.777067 20.295352 
z
"/>
   </g>
   <g id="PathCollection_2">
    <path clip-path="url(#p6009ba4e80)" d="M 288.777067 54.514454 
C 289.413002 54.514454 290.022976 54.261795 290.47265 53.812121 
C 290.922324 53.362447 291.174983 52.752473 291.174983 52.116538 
C 291.174983 51.480604 290.922324 50.87063 290.47265 50.420956 
C 290.022976 49.971282 289.413002 49.718623 288.777067 49.718623 
C 288.141133 49.718623 287.531159 49.971282 287.081485 50.420956 
C 286.631811 50.87063 286.379152 51.480604 286.379152 52.116538 
C 286.379152 52.752473 286.631811 53.362447 287.081485 53.812121 
C 287.531159 54.261795 288.141133 54.514454 288.777067 54.514454 
z
"/>
   </g>
   <g id="PathCollection_3">
    <path clip-path="url(#p6009ba4e80)" d="M 288.777067 53.697677 
C 289.19639 53.697677 289.598595 53.531079 289.895101 53.234572 
C 290.191607 52.938066 290.358206 52.535861 290.358206 52.116538 
C 290.358206 51.697216 290.191607 51.295011 289.895101 50.998504 
C 289.598595 50.701998 289.19639 50.5354 288.777067 50.5354 
C 288.357744 50.5354 287.955539 50.701998 287.659033 50.998504 
C 287.362527 51.295011 287.195928 51.697216 287.195928 52.116538 
C 287.195928 52.535861 287.362527 52.938066 287.659033 53.234572 
C 287.955539 53.531079 288.357744 53.697677 288.777067 53.697677 
z
" style="fill:#ffffff;"/>
   </g>
   <g id="PathCollection_4">
    <path clip-path="url(#p6009ba4e80)" d="M 562.529887 54.514454 
C 563.165822 54.514454 563.775796 54.261795 564.22547 53.812121 
C 564.675143 53.362447 564.927803 52.752473 564.927803 52.116538 
C 564.927803 51.480604 564.675143 50.87063 564.22547 50.420956 
C 563.775796 49.971282 563.165822 49.718623 562.529887 49.718623 
C 561.893953 49.718623 561.283978 49.971282 560.834305 50.420956 
C 560.384631 50.87063 560.131971 51.480604 560.131971 52.116538 
C 560.131971 52.752473 560.384631 53.362447 560.834305 53.812121 
C 561.283978 54.261795 561.893953 54.514454 562.529887 54.514454 
z
"/>
   </g>
   <g id="PathCollection_5">
    <path clip-path="url(#p6009ba4e80)" d="M 562.529887 53.697677 
C 562.94921 53.697677 563.351415 53.531079 563.647921 53.234572 
C 563.944427 52.938066 564.111026 52.535861 564.111026 52.116538 
C 564.111026 51.697216 563.944427 51.295011 563.647921 50.998504 
C 563.351415 50.701998 562.94921 50.5354 562.529887 50.5354 
C 562.110564 50.5354 561.708359 50.701998 561.411853 50.998504 
C 561.115347 51.295011 560.948748 51.697216 560.948748 52.116538 
C 560.948748 52.535861 561.115347 52.938066 561.411853 53.234572 
C 561.708359 53.531079 562.110564 53.697677 562.529887 53.697677 
z
" style="fill:#ffffff;"/>
   </g>
   <g id="PathCollection_6">
    <path clip-path="url(#p6009ba4e80)" d="M 562.529887 88.733557 
C 563.165822 88.733557 563.775796 88.480897 564.22547 88.031223 
C 564.675143 87.58155 564.927803 86.971576 564.927803 86.335641 
C 564.927803 85.699706 564.675143 85.089732 564.22547 84.640058 
C 563.775796 84.190385 563.165822 83.937725 562.529887 83.937725 
C 561.893953 83.937725 561.283978 84.190385 560.834305 84.640058 
C 560.384631 85.089732 560.131971 85.699706 560.131971 86.335641 
C 560.131971 86.971576 560.384631 87.58155 560.834305 88.031223 
C 561.283978 88.480897 561.893953 88.733557 562.529887 88.733557 
z
"/>
   </g>
   <g id="PathCollection_7">
    <path clip-path="url(#p6009ba4e80)" d="M 562.529887 88.733557 
C 563.165822 88.733557 563.775796 88.480897 564.22547 88.031223 
C 564.675143 87.58155 564.927803 86.971576 564.927803 86.335641 
C 564.927803 85.699706 564.675143 85.089732 564.22547 84.640058 
C 563.775796 84.190385 563.165822 83.937725 562.529887 83.937725 
C 561.893953 83.937725 561.283978 84.190385 560.834305 84.640058 
C 560.384631 85.089732 560.131971 85.699706 560.131971 86.335641 
C 560.131971 86.971576 560.384631 87.58155 560.834305 88.031223 
C 561.283978 88.480897 561.893953 88.733557 562.529887 88.733557 
z
"/>
   </g>
   <g id="matplotlib.axis_1">
    <g id="xtick_1">
     <g id="line2d_9">
      <path clip-path="url(#p6009ba4e80)" d="M 15.024247 87.704405 
L 15.024247 16.528672 
" style="fill:none;stroke:#000000;stroke-dasharray:0.5,0.825;stroke-dashoffset:0;stroke-width:0.5;"/>
     </g>
     <g id="line2d_10">
      <defs>
       <path d="M 0 0 
L 0 3.5 
" id="m26fed772d3" style="stroke:#000000;stroke-width:0.8;"/>
      </defs>
      <g>
       <use style="stroke:#000000;stroke-width:0.8;" x="15.024247" xlink:href="#m26fed772d3" y="86.335641"/>
      </g>
     </g>
    </g>
    <g id="xtick_2">
     <g id="line2d_11">
      <path clip-path="url(#p6009ba4e80)" d="M 288.777067 87.704405 
L 288.777067 16.528672 
" style="fill:none;stroke:#000000;stroke-dasharray:0.5,0.825;stroke-dashoffset:0;stroke-width:0.5;"/>
     </g>
     <g id="line2d_12">
      <g>
       <use style="stroke:#000000;stroke-width:0.8;" x="288.777067" xlink:href="#m26fed772d3" y="86.335641"/>
      </g>
     </g>
     <g id="text_1">
      <!-- $f$ -->
      <defs>
       <path d="M 9.71875 -16.5 
Q 11.578125 -17.921875 14.203125 -17.921875 
Q 17.78125 -17.921875 20.015625 -10.015625 
Q 20.953125 -6.203125 25.09375 15.09375 
L 29.6875 39.59375 
L 21.09375 39.59375 
Q 20.125 39.59375 20.125 40.921875 
Q 20.515625 43.109375 21.390625 43.109375 
L 30.328125 43.109375 
L 31.5 49.609375 
Q 32.078125 52.640625 32.5625 54.8125 
Q 33.0625 56.984375 33.625 58.828125 
Q 34.1875 60.6875 35.296875 62.984375 
Q 37.015625 66.265625 39.921875 68.390625 
Q 42.828125 70.515625 46.1875 70.515625 
Q 48.390625 70.515625 50.46875 69.703125 
Q 52.546875 68.890625 53.859375 67.28125 
Q 55.171875 65.671875 55.171875 63.484375 
Q 55.171875 60.9375 53.484375 59.046875 
Q 51.8125 57.171875 49.421875 57.171875 
Q 47.796875 57.171875 46.65625 58.171875 
Q 45.515625 59.1875 45.515625 60.796875 
Q 45.515625 62.984375 47 64.625 
Q 48.484375 66.265625 50.6875 66.5 
Q 48.828125 67.921875 46.09375 67.921875 
Q 44.578125 67.921875 43.234375 66.5 
Q 41.890625 65.09375 41.5 63.484375 
Q 40.875 60.9375 38.71875 49.703125 
L 37.5 43.109375 
L 47.796875 43.109375 
Q 48.78125 43.109375 48.78125 41.796875 
Q 48.734375 41.546875 48.578125 40.9375 
Q 48.4375 40.328125 48.171875 39.953125 
Q 47.90625 39.59375 47.515625 39.59375 
L 36.8125 39.59375 
L 32.171875 15.1875 
Q 31.296875 9.859375 30.140625 4.359375 
Q 29 -1.125 26.921875 -6.90625 
Q 24.859375 -12.703125 21.625 -16.609375 
Q 18.40625 -20.515625 14.015625 -20.515625 
Q 10.640625 -20.515625 7.984375 -18.578125 
Q 5.328125 -16.65625 5.328125 -13.484375 
Q 5.328125 -10.9375 6.953125 -9.046875 
Q 8.59375 -7.171875 11.078125 -7.171875 
Q 12.75 -7.171875 13.859375 -8.171875 
Q 14.984375 -9.1875 14.984375 -10.796875 
Q 14.984375 -12.9375 13.390625 -14.71875 
Q 11.8125 -16.5 9.71875 -16.5 
z
" id="Cmmi10-66"/>
      </defs>
      <g transform="translate(286.327067 100.913766)scale(0.1 -0.1)">
       <use transform="translate(0 0.484375)" xlink:href="#Cmmi10-66"/>
      </g>
     </g>
    </g>
    <g id="xtick_3">
     <g id="line2d_13">
      <path clip-path="url(#p6009ba4e80)" d="M 562.529887 87.704405 
L 562.529887 16.528672 
" style="fill:none;stroke:#000000;stroke-dasharray:0.5,0.825;stroke-dashoffset:0;stroke-width:0.5;"/>
     </g>
     <g id="line2d_14">
      <g>
       <use style="stroke:#000000;stroke-width:0.8;" x="562.529887" xlink:href="#m26fed772d3" y="86.335641"/>
      </g>
     </g>
     <g id="text_2">
      <!-- $1$ -->
      <defs>
       <path d="M 9.28125 0 
L 9.28125 3.515625 
Q 21.78125 3.515625 21.78125 6.6875 
L 21.78125 59.1875 
Q 16.609375 56.6875 8.6875 56.6875 
L 8.6875 60.203125 
Q 20.953125 60.203125 27.203125 66.609375 
L 28.609375 66.609375 
Q 28.953125 66.609375 29.265625 66.328125 
Q 29.59375 66.0625 29.59375 65.71875 
L 29.59375 6.6875 
Q 29.59375 3.515625 42.09375 3.515625 
L 42.09375 0 
z
" id="Cmr10-31"/>
      </defs>
      <g transform="translate(560.029887 100.934078)scale(0.1 -0.1)">
       <use transform="translate(0 0.390625)" xlink:href="#Cmr10-31"/>
      </g>
     </g>
    </g>
   </g>
   <g id="matplotlib.axis_2">
    <g id="ytick_1">
     <g id="line2d_15">
      <path clip-path="url(#p6009ba4e80)" d="M 4.074135 86.335641 
L 573.48 86.335641 
" style="fill:none;stroke:#000000;stroke-dasharray:0.5,0.825;stroke-dashoffset:0;stroke-width:0.5;"/>
     </g>
     <g id="line2d_16">
      <defs>
       <path d="M 0 0 
L -3.5 0 
" id="mb50d08f5e1" style="stroke:#000000;stroke-width:0.8;"/>
      </defs>
      <g>
       <use style="stroke:#000000;stroke-width:0.8;" x="15.024247" xlink:href="#mb50d08f5e1" y="86.335641"/>
      </g>
     </g>
    </g>
    <g id="ytick_2">
     <g id="line2d_17">
      <path clip-path="url(#p6009ba4e80)" d="M 4.074135 17.897436 
L 573.48 17.897436 
" style="fill:none;stroke:#000000;stroke-dasharray:0.5,0.825;stroke-dashoffset:0;stroke-width:0.5;"/>
     </g>
     <g id="line2d_18">
      <g>
       <use style="stroke:#000000;stroke-width:0.8;" x="15.024247" xlink:href="#mb50d08f5e1" y="17.897436"/>
      </g>
     </g>
     <g id="text_3">
      <!-- $1$ -->
      <g transform="translate(3.024247 21.696655)scale(0.1 -0.1)">
       <use transform="translate(0 0.390625)" xlink:href="#Cmr10-31"/>
      </g>
     </g>
    </g>
   </g>
   <g id="patch_3">
    <path d="M 15.024247 87.704405 
L 15.024247 16.528672 
" style="fill:none;stroke:#000000;stroke-linecap:square;stroke-linejoin:miter;stroke-width:0.8;"/>
   </g>
   <g id="patch_4">
    <path d="M 4.074135 86.335641 
L 573.48 86.335641 
" style="fill:none;stroke:#000000;stroke-linecap:square;stroke-linejoin:miter;stroke-width:0.8;"/>
   </g>
  </g>
 </g>
 <defs>
  <clipPath id="p6009ba4e80">
   <rect height="71.175733" width="569.405865" x="4.074135" y="16.528672"/>
  </clipPath>
 </defs>
</svg>
