<?xml version="1.0" encoding="utf-8" standalone="no"?>
<!DOCTYPE svg PUBLIC "-//W3C//DTD SVG 1.1//EN"
  "http://www.w3.org/Graphics/SVG/1.1/DTD/svg11.dtd">
<!-- Created with matplotlib (http://matplotlib.org/) -->
<svg height="108pt" version="1.1" viewBox="0 0 576 108" width="576pt" xmlns="http://www.w3.org/2000/svg" xmlns:xlink="http://www.w3.org/1999/xlink">
 <defs>
  <style type="text/css">
*{stroke-linecap:butt;stroke-linejoin:round;}
  </style>
 </defs>
 <g id="figure_1">
  <g id="patch_1">
   <path d="M 0 108 
L 576 108 
L 576 0 
L 0 0 
z
" style="fill:#ffffff;"/>
  </g>
  <g id="axes_1">
   <g id="patch_2">
    <path d="M 4.074135 87.704405 
L 573.48 87.704405 
L 573.48 16.528672 
L 4.074135 16.528672 
z
" style="fill:#ffffff;"/>
   </g>
   <g id="line2d_1">
    <path clip-path="url(#p7bac34268c)" d="M 15.024247 86.335641 
L 124.525375 17.897436 
L 124.525375 17.897436 
" style="fill:none;stroke:#000000;stroke-linecap:square;stroke-width:2;"/>
   </g>
   <g id="line2d_2">
    <path clip-path="url(#p7bac34268c)" d="M 124.525375 74.929273 
L 562.529887 29.303803 
L 562.529887 29.303803 
" style="fill:none;stroke:#000000;stroke-linecap:square;stroke-width:2;"/>
   </g>
   <g id="line2d_3">
    <path clip-path="url(#p7bac34268c)" d="M 15.024247 86.335641 
L 124.525375 17.897436 
L 124.525375 17.897436 
" style="fill:none;stroke:#ff0000;stroke-linecap:square;stroke-width:2;"/>
   </g>
   <g id="line2d_4">
    <path clip-path="url(#p7bac34268c)" d="M 124.525375 74.929273 
L 488.817943 36.982131 
L 488.817943 36.982131 
" style="fill:none;stroke:#00ffff;stroke-linecap:square;stroke-width:2;"/>
   </g>
   <g id="line2d_5">
    <path clip-path="url(#p7bac34268c)" d="M 495.842845 36.25037 
L 499.429389 35.876772 
L 500.171709 35.799447 
L 502.814824 35.524123 
L 505.395546 35.255297 
L 507.979767 34.986108 
L 508.643182 34.917002 
L 512.360584 34.529773 
L 514.019314 34.356988 
L 515.68583 34.183393 
L 518.919873 33.846513 
L 520.053178 33.728461 
L 523.221178 33.398461 
L 524.119431 33.304893 
L 528.219869 32.877764 
L 530.280534 32.663111 
L 531.55773 32.53007 
L 533.573398 32.320104 
L 537.154701 31.947052 
L 538.468675 31.81018 
L 541.520459 31.492286 
L 543.38337 31.298232 
L 544.924209 31.137728 
L 547.082347 30.912922 
L 549.349319 30.676779 
L 550.456042 30.561496 
L 552.759062 30.321598 
L 555.428337 30.043548 
L 557.475072 29.830347 
L 560.866867 29.477035 
L 562.529887 29.303803 
" style="fill:none;stroke:#00ffff;stroke-linecap:square;stroke-width:2;"/>
   </g>
   <g id="PathCollection_1">
    <path clip-path="url(#p7bac34268c)" d="M 124.525375 20.295352 
C 125.16131 20.295352 125.771284 20.042692 126.220958 19.593018 
C 126.670632 19.143345 126.923291 18.533371 126.923291 17.897436 
C 126.923291 17.261501 126.670632 16.651527 126.220958 16.201853 
C 125.771284 15.75218 125.16131 15.49952 124.525375 15.49952 
C 123.889441 15.49952 123.279467 15.75218 122.829793 16.201853 
C 122.380119 16.651527 122.12746 17.261501 122.12746 17.897436 
C 122.12746 18.533371 122.380119 19.143345 122.829793 19.593018 
C 123.279467 20.042692 123.889441 20.295352 124.525375 20.295352 
z
"/>
   </g>
   <g id="PathCollection_2">
    <path clip-path="url(#p7bac34268c)" d="M 124.525375 77.327189 
C 125.16131 77.327189 125.771284 77.07453 126.220958 76.624856 
C 126.670632 76.175182 126.923291 75.565208 126.923291 74.929273 
C 126.923291 74.293339 126.670632 73.683365 126.220958 73.233691 
C 125.771284 72.784017 125.16131 72.531358 124.525375 72.531358 
C 123.889441 72.531358 123.279467 72.784017 122.829793 73.233691 
C 122.380119 73.683365 122.12746 74.293339 122.12746 74.929273 
C 122.12746 75.565208 122.380119 76.175182 122.829793 76.624856 
C 123.279467 77.07453 123.889441 77.327189 124.525375 77.327189 
z
"/>
   </g>
   <g id="PathCollection_3">
    <path clip-path="url(#p7bac34268c)" d="M 124.525375 76.510412 
C 124.944698 76.510412 125.346903 76.343814 125.643409 76.047307 
C 125.939915 75.750801 126.106514 75.348596 126.106514 74.929273 
C 126.106514 74.509951 125.939915 74.107746 125.643409 73.811239 
C 125.346903 73.514733 124.944698 73.348135 124.525375 73.348135 
C 124.106052 73.348135 123.703847 73.514733 123.407341 73.811239 
C 123.110835 74.107746 122.944237 74.509951 122.944237 74.929273 
C 122.944237 75.348596 123.110835 75.750801 123.407341 76.047307 
C 123.703847 76.343814 124.106052 76.510412 124.525375 76.510412 
z
" style="fill:#ffffff;"/>
   </g>
   <g id="PathCollection_4">
    <path clip-path="url(#p7bac34268c)" d="M 562.529887 31.701719 
C 563.165822 31.701719 563.775796 31.44906 564.22547 30.999386 
C 564.675143 30.549712 564.927803 29.939738 564.927803 29.303803 
C 564.927803 28.667869 564.675143 28.057895 564.22547 27.608221 
C 563.775796 27.158547 563.165822 26.905888 562.529887 26.905888 
C 561.893953 26.905888 561.283978 27.158547 560.834305 27.608221 
C 560.384631 28.057895 560.131971 28.667869 560.131971 29.303803 
C 560.131971 29.939738 560.384631 30.549712 560.834305 30.999386 
C 561.283978 31.44906 561.893953 31.701719 562.529887 31.701719 
z
"/>
   </g>
   <g id="PathCollection_5">
    <path clip-path="url(#p7bac34268c)" d="M 562.529887 30.884942 
C 562.94921 30.884942 563.351415 30.718344 563.647921 30.421837 
C 563.944427 30.125331 564.111026 29.723126 564.111026 29.303803 
C 564.111026 28.884481 563.944427 28.482276 563.647921 28.185769 
C 563.351415 27.889263 562.94921 27.722665 562.529887 27.722665 
C 562.110564 27.722665 561.708359 27.889263 561.411853 28.185769 
C 561.115347 28.482276 560.948748 28.884481 560.948748 29.303803 
C 560.948748 29.723126 561.115347 30.125331 561.411853 30.421837 
C 561.708359 30.718344 562.110564 30.884942 562.529887 30.884942 
z
" style="fill:#ffffff;"/>
   </g>
   <g id="PathCollection_6">
    <path clip-path="url(#p7bac34268c)" d="M 562.529887 88.733557 
C 563.165822 88.733557 563.775796 88.480897 564.22547 88.031223 
C 564.675143 87.58155 564.927803 86.971576 564.927803 86.335641 
C 564.927803 85.699706 564.675143 85.089732 564.22547 84.640058 
C 563.775796 84.190385 563.165822 83.937725 562.529887 83.937725 
C 561.893953 83.937725 561.283978 84.190385 560.834305 84.640058 
C 560.384631 85.089732 560.131971 85.699706 560.131971 86.335641 
C 560.131971 86.971576 560.384631 87.58155 560.834305 88.031223 
C 561.283978 88.480897 561.893953 88.733557 562.529887 88.733557 
z
"/>
   </g>
   <g id="PathCollection_7">
    <path clip-path="url(#p7bac34268c)" d="M 562.529887 88.733557 
C 563.165822 88.733557 563.775796 88.480897 564.22547 88.031223 
C 564.675143 87.58155 564.927803 86.971576 564.927803 86.335641 
C 564.927803 85.699706 564.675143 85.089732 564.22547 84.640058 
C 563.775796 84.190385 563.165822 83.937725 562.529887 83.937725 
C 561.893953 83.937725 561.283978 84.190385 560.834305 84.640058 
C 560.384631 85.089732 560.131971 85.699706 560.131971 86.335641 
C 560.131971 86.971576 560.384631 87.58155 560.834305 88.031223 
C 561.283978 88.480897 561.893953 88.733557 562.529887 88.733557 
z
"/>
   </g>
   <g id="matplotlib.axis_1">
    <g id="xtick_1">
     <g id="line2d_6">
      <path clip-path="url(#p7bac34268c)" d="M 15.024247 87.704405 
L 15.024247 16.528672 
" style="fill:none;stroke:#000000;stroke-dasharray:0.5,0.825;stroke-dashoffset:0;stroke-width:0.5;"/>
     </g>
     <g id="line2d_7">
      <defs>
       <path d="M 0 0 
L 0 3.5 
" id="md80fbe1c3d" style="stroke:#000000;stroke-width:0.8;"/>
      </defs>
      <g>
       <use style="stroke:#000000;stroke-width:0.8;" x="15.024247" xlink:href="#md80fbe1c3d" y="86.335641"/>
      </g>
     </g>
    </g>
    <g id="xtick_2">
     <g id="line2d_8">
      <path clip-path="url(#p7bac34268c)" d="M 124.525375 87.704405 
L 124.525375 16.528672 
" style="fill:none;stroke:#000000;stroke-dasharray:0.5,0.825;stroke-dashoffset:0;stroke-width:0.5;"/>
     </g>
     <g id="line2d_9">
      <g>
       <use style="stroke:#000000;stroke-width:0.8;" x="124.525375" xlink:href="#md80fbe1c3d" y="86.335641"/>
      </g>
     </g>
     <g id="text_1">
      <!-- $f$ -->
      <defs>
       <path d="M 9.71875 -16.5 
Q 11.578125 -17.921875 14.203125 -17.921875 
Q 17.78125 -17.921875 20.015625 -10.015625 
Q 20.953125 -6.203125 25.09375 15.09375 
L 29.6875 39.59375 
L 21.09375 39.59375 
Q 20.125 39.59375 20.125 40.921875 
Q 20.515625 43.109375 21.390625 43.109375 
L 30.328125 43.109375 
L 31.5 49.609375 
Q 32.078125 52.640625 32.5625 54.8125 
Q 33.0625 56.984375 33.625 58.828125 
Q 34.1875 60.6875 35.296875 62.984375 
Q 37.015625 66.265625 39.921875 68.390625 
Q 42.828125 70.515625 46.1875 70.515625 
Q 48.390625 70.515625 50.46875 69.703125 
Q 52.546875 68.890625 53.859375 67.28125 
Q 55.171875 65.671875 55.171875 63.484375 
Q 55.171875 60.9375 53.484375 59.046875 
Q 51.8125 57.171875 49.421875 57.171875 
Q 47.796875 57.171875 46.65625 58.171875 
Q 45.515625 59.1875 45.515625 60.796875 
Q 45.515625 62.984375 47 64.625 
Q 48.484375 66.265625 50.6875 66.5 
Q 48.828125 67.921875 46.09375 67.921875 
Q 44.578125 67.921875 43.234375 66.5 
Q 41.890625 65.09375 41.5 63.484375 
Q 40.875 60.9375 38.71875 49.703125 
L 37.5 43.109375 
L 47.796875 43.109375 
Q 48.78125 43.109375 48.78125 41.796875 
Q 48.734375 41.546875 48.578125 40.9375 
Q 48.4375 40.328125 48.171875 39.953125 
Q 47.90625 39.59375 47.515625 39.59375 
L 36.8125 39.59375 
L 32.171875 15.1875 
Q 31.296875 9.859375 30.140625 4.359375 
Q 29 -1.125 26.921875 -6.90625 
Q 24.859375 -12.703125 21.625 -16.609375 
Q 18.40625 -20.515625 14.015625 -20.515625 
Q 10.640625 -20.515625 7.984375 -18.578125 
Q 5.328125 -16.65625 5.328125 -13.484375 
Q 5.328125 -10.9375 6.953125 -9.046875 
Q 8.59375 -7.171875 11.078125 -7.171875 
Q 12.75 -7.171875 13.859375 -8.171875 
Q 14.984375 -9.1875 14.984375 -10.796875 
Q 14.984375 -12.9375 13.390625 -14.71875 
Q 11.8125 -16.5 9.71875 -16.5 
z
" id="Cmmi10-66"/>
      </defs>
      <g transform="translate(122.075375 100.913766)scale(0.1 -0.1)">
       <use transform="translate(0 0.484375)" xlink:href="#Cmmi10-66"/>
      </g>
     </g>
    </g>
    <g id="xtick_3">
     <g id="line2d_10">
      <path clip-path="url(#p7bac34268c)" d="M 562.529887 87.704405 
L 562.529887 16.528672 
" style="fill:none;stroke:#000000;stroke-dasharray:0.5,0.825;stroke-dashoffset:0;stroke-width:0.5;"/>
     </g>
     <g id="line2d_11">
      <g>
       <use style="stroke:#000000;stroke-width:0.8;" x="562.529887" xlink:href="#md80fbe1c3d" y="86.335641"/>
      </g>
     </g>
     <g id="text_2">
      <!-- $1$ -->
      <defs>
       <path d="M 9.28125 0 
L 9.28125 3.515625 
Q 21.78125 3.515625 21.78125 6.6875 
L 21.78125 59.1875 
Q 16.609375 56.6875 8.6875 56.6875 
L 8.6875 60.203125 
Q 20.953125 60.203125 27.203125 66.609375 
L 28.609375 66.609375 
Q 28.953125 66.609375 29.265625 66.328125 
Q 29.59375 66.0625 29.59375 65.71875 
L 29.59375 6.6875 
Q 29.59375 3.515625 42.09375 3.515625 
L 42.09375 0 
z
" id="Cmr10-31"/>
      </defs>
      <g transform="translate(560.029887 100.934078)scale(0.1 -0.1)">
       <use transform="translate(0 0.390625)" xlink:href="#Cmr10-31"/>
      </g>
     </g>
    </g>
   </g>
   <g id="matplotlib.axis_2">
    <g id="ytick_1">
     <g id="line2d_12">
      <path clip-path="url(#p7bac34268c)" d="M 4.074135 86.335641 
L 573.48 86.335641 
" style="fill:none;stroke:#000000;stroke-dasharray:0.5,0.825;stroke-dashoffset:0;stroke-width:0.5;"/>
     </g>
     <g id="line2d_13">
      <defs>
       <path d="M 0 0 
L -3.5 0 
" id="m0a0129ff89" style="stroke:#000000;stroke-width:0.8;"/>
      </defs>
      <g>
       <use style="stroke:#000000;stroke-width:0.8;" x="15.024247" xlink:href="#m0a0129ff89" y="86.335641"/>
      </g>
     </g>
    </g>
    <g id="ytick_2">
     <g id="line2d_14">
      <path clip-path="url(#p7bac34268c)" d="M 4.074135 17.897436 
L 573.48 17.897436 
" style="fill:none;stroke:#000000;stroke-dasharray:0.5,0.825;stroke-dashoffset:0;stroke-width:0.5;"/>
     </g>
     <g id="line2d_15">
      <g>
       <use style="stroke:#000000;stroke-width:0.8;" x="15.024247" xlink:href="#m0a0129ff89" y="17.897436"/>
      </g>
     </g>
     <g id="text_3">
      <!-- $1$ -->
      <g transform="translate(3.024247 21.696655)scale(0.1 -0.1)">
       <use transform="translate(0 0.390625)" xlink:href="#Cmr10-31"/>
      </g>
     </g>
    </g>
   </g>
   <g id="patch_3">
    <path d="M 15.024247 87.704405 
L 15.024247 16.528672 
" style="fill:none;stroke:#000000;stroke-linecap:square;stroke-linejoin:miter;stroke-width:0.8;"/>
   </g>
   <g id="patch_4">
    <path d="M 4.074135 86.335641 
L 573.48 86.335641 
" style="fill:none;stroke:#000000;stroke-linecap:square;stroke-linejoin:miter;stroke-width:0.8;"/>
   </g>
  </g>
 </g>
 <defs>
  <clipPath id="p7bac34268c">
   <rect height="71.175733" width="569.405865" x="4.074135" y="16.528672"/>
  </clipPath>
 </defs>
</svg>
