<?xml version="1.0" encoding="utf-8" standalone="no"?>
<!DOCTYPE svg PUBLIC "-//W3C//DTD SVG 1.1//EN"
  "http://www.w3.org/Graphics/SVG/1.1/DTD/svg11.dtd">
<!-- Created with matplotlib (http://matplotlib.org/) -->
<svg height="108pt" version="1.1" viewBox="0 0 576 108" width="576pt" xmlns="http://www.w3.org/2000/svg" xmlns:xlink="http://www.w3.org/1999/xlink">
 <defs>
  <style type="text/css">
*{stroke-linecap:butt;stroke-linejoin:round;}
  </style>
 </defs>
 <g id="figure_1">
  <g id="patch_1">
   <path d="M 0 108 
L 576 108 
L 576 0 
L 0 0 
z
" style="fill:#ffffff;"/>
  </g>
  <g id="axes_1">
   <g id="patch_2">
    <path d="M 4.074135 87.704405 
L 573.48 87.704405 
L 573.48 16.528672 
L 4.074135 16.528672 
z
" style="fill:#ffffff;"/>
   </g>
   <g id="line2d_1">
    <path clip-path="url(#p04afd828c3)" d="M 288.777067 17.897436 
L 292.075294 22.459983 
L 292.075294 22.459983 
" style="fill:none;stroke:#ff0000;stroke-linecap:square;stroke-width:2;"/>
   </g>
   <g id="line2d_2">
    <path clip-path="url(#p04afd828c3)" d="M 424.004364 49.835265 
L 427.302591 54.397812 
L 427.302591 54.397812 
" style="fill:none;stroke:#ff0000;stroke-linecap:square;stroke-width:2;"/>
   </g>
   <g id="line2d_3">
    <path clip-path="url(#p04afd828c3)" d="M 559.23166 81.773094 
L 562.529887 86.335641 
L 562.529887 86.335641 
" style="fill:none;stroke:#ff0000;stroke-linecap:square;stroke-width:2;"/>
   </g>
   <g id="line2d_4">
    <path clip-path="url(#p04afd828c3)" d="M 84.287009 36.849554 
L 87.585236 41.061136 
L 87.585236 41.061136 
" style="fill:none;stroke:#ff9900;stroke-linecap:square;stroke-width:2;"/>
   </g>
   <g id="line2d_5">
    <path clip-path="url(#p04afd828c3)" d="M 90.883463 44.570788 
L 94.181689 48.78237 
L 94.181689 48.78237 
" style="fill:none;stroke:#ff9900;stroke-linecap:square;stroke-width:2;"/>
   </g>
   <g id="line2d_6">
    <path clip-path="url(#p04afd828c3)" d="M 97.479916 52.292021 
L 110.672823 69.138348 
L 110.672823 69.138348 
" style="fill:none;stroke:#ff9900;stroke-linecap:square;stroke-width:2;"/>
   </g>
   <g id="line2d_7">
    <path clip-path="url(#p04afd828c3)" d="M 113.97105 72.648 
L 117.269277 76.859582 
L 117.269277 76.859582 
" style="fill:none;stroke:#ff9900;stroke-linecap:square;stroke-width:2;"/>
   </g>
   <g id="line2d_8">
    <path clip-path="url(#p04afd828c3)" d="M 186.532038 27.373495 
L 189.830265 31.585077 
L 189.830265 31.585077 
" style="fill:none;stroke:#ff9900;stroke-linecap:square;stroke-width:2;"/>
   </g>
   <g id="line2d_9">
    <path clip-path="url(#p04afd828c3)" d="M 193.128492 35.094729 
L 206.321399 51.941056 
L 206.321399 51.941056 
" style="fill:none;stroke:#ff9900;stroke-linecap:square;stroke-width:2;"/>
   </g>
   <g id="line2d_10">
    <path clip-path="url(#p04afd828c3)" d="M 209.619625 55.450707 
L 212.917852 59.662289 
L 212.917852 59.662289 
" style="fill:none;stroke:#ff9900;stroke-linecap:square;stroke-width:2;"/>
   </g>
   <g id="line2d_11">
    <path clip-path="url(#p04afd828c3)" d="M 216.216079 63.171941 
L 219.514306 67.383523 
L 219.514306 67.383523 
" style="fill:none;stroke:#ff9900;stroke-linecap:square;stroke-width:2;"/>
   </g>
   <g id="line2d_12">
    <path clip-path="url(#p04afd828c3)" d="M 292.075294 22.459983 
L 298.671748 30.883147 
L 298.671748 30.883147 
" style="fill:none;stroke:#ff9900;stroke-linecap:square;stroke-width:2;"/>
   </g>
   <g id="line2d_13">
    <path clip-path="url(#p04afd828c3)" d="M 301.969974 34.743763 
L 305.268201 38.955345 
L 305.268201 38.955345 
" style="fill:none;stroke:#ff9900;stroke-linecap:square;stroke-width:2;"/>
   </g>
   <g id="line2d_14">
    <path clip-path="url(#p04afd828c3)" d="M 308.566428 42.815962 
L 311.864655 47.027544 
L 311.864655 47.027544 
" style="fill:none;stroke:#ff9900;stroke-linecap:square;stroke-width:2;"/>
   </g>
   <g id="line2d_15">
    <path clip-path="url(#p04afd828c3)" d="M 414.109684 37.551485 
L 417.40791 41.763066 
L 417.40791 41.763066 
" style="fill:none;stroke:#ff9900;stroke-linecap:square;stroke-width:2;"/>
   </g>
   <g id="line2d_16">
    <path clip-path="url(#p04afd828c3)" d="M 420.706137 45.623683 
L 424.004364 49.835265 
L 424.004364 49.835265 
" style="fill:none;stroke:#ff9900;stroke-linecap:square;stroke-width:2;"/>
   </g>
   <g id="line2d_17">
    <path clip-path="url(#p04afd828c3)" d="M 427.302591 54.397812 
L 430.600817 58.609394 
L 430.600817 58.609394 
" style="fill:none;stroke:#ff9900;stroke-linecap:square;stroke-width:2;"/>
   </g>
   <g id="line2d_18">
    <path clip-path="url(#p04afd828c3)" d="M 433.899044 62.47001 
L 437.197271 66.681592 
L 437.197271 66.681592 
" style="fill:none;stroke:#ff9900;stroke-linecap:square;stroke-width:2;"/>
   </g>
   <g id="line2d_19">
    <path clip-path="url(#p04afd828c3)" d="M 539.4423 57.205533 
L 542.740527 61.417115 
L 542.740527 61.417115 
" style="fill:none;stroke:#ff9900;stroke-linecap:square;stroke-width:2;"/>
   </g>
   <g id="line2d_20">
    <path clip-path="url(#p04afd828c3)" d="M 546.038753 65.277732 
L 549.33698 69.489314 
L 549.33698 69.489314 
" style="fill:none;stroke:#ff9900;stroke-linecap:square;stroke-width:2;"/>
   </g>
   <g id="line2d_21">
    <path clip-path="url(#p04afd828c3)" d="M 552.635207 73.34993 
L 559.23166 81.773094 
L 559.23166 81.773094 
" style="fill:none;stroke:#ff9900;stroke-linecap:square;stroke-width:2;"/>
   </g>
   <g id="line2d_22">
    <path clip-path="url(#p04afd828c3)" d="M 15.024247 86.335641 
L 18.322474 81.773094 
L 18.322474 81.773094 
" style="fill:none;stroke:#cbff00;stroke-linecap:square;stroke-width:2;"/>
   </g>
   <g id="line2d_23">
    <path clip-path="url(#p04afd828c3)" d="M 150.251544 54.397812 
L 153.549771 49.835265 
L 153.549771 49.835265 
" style="fill:none;stroke:#cbff00;stroke-linecap:square;stroke-width:2;"/>
   </g>
   <g id="line2d_24">
    <path clip-path="url(#p04afd828c3)" d="M 285.478841 22.459983 
L 288.777067 17.897436 
L 288.777067 17.897436 
" style="fill:none;stroke:#cbff00;stroke-linecap:square;stroke-width:2;"/>
   </g>
   <g id="line2d_25">
    <path clip-path="url(#p04afd828c3)" d="M 338.250468 75.104756 
L 341.548695 71.595104 
L 341.548695 71.595104 
" style="fill:none;stroke:#33ff00;stroke-linecap:square;stroke-width:2;"/>
   </g>
   <g id="line2d_26">
    <path clip-path="url(#p04afd828c3)" d="M 344.846922 74.753791 
L 348.145149 71.244139 
L 348.145149 71.244139 
" style="fill:none;stroke:#33ff00;stroke-linecap:square;stroke-width:2;"/>
   </g>
   <g id="line2d_27">
    <path clip-path="url(#p04afd828c3)" d="M 351.443375 74.402826 
L 358.039829 67.383523 
L 358.039829 67.383523 
" style="fill:none;stroke:#33ff00;stroke-linecap:square;stroke-width:2;"/>
   </g>
   <g id="line2d_28">
    <path clip-path="url(#p04afd828c3)" d="M 361.338056 63.171941 
L 364.636282 59.662289 
L 364.636282 59.662289 
" style="fill:none;stroke:#33ff00;stroke-linecap:square;stroke-width:2;"/>
   </g>
   <g id="line2d_29">
    <path clip-path="url(#p04afd828c3)" d="M 367.934509 55.450707 
L 371.232736 51.941056 
L 371.232736 51.941056 
" style="fill:none;stroke:#33ff00;stroke-linecap:square;stroke-width:2;"/>
   </g>
   <g id="line2d_30">
    <path clip-path="url(#p04afd828c3)" d="M 384.425643 35.094729 
L 387.72387 31.585077 
L 387.72387 31.585077 
" style="fill:none;stroke:#33ff00;stroke-linecap:square;stroke-width:2;"/>
   </g>
   <g id="line2d_31">
    <path clip-path="url(#p04afd828c3)" d="M 391.022096 27.373495 
L 394.320323 23.863844 
L 394.320323 23.863844 
" style="fill:none;stroke:#33ff00;stroke-linecap:square;stroke-width:2;"/>
   </g>
   <g id="line2d_32">
    <path clip-path="url(#p04afd828c3)" d="M 397.61855 27.02253 
L 400.916777 23.512878 
L 400.916777 23.512878 
" style="fill:none;stroke:#33ff00;stroke-linecap:square;stroke-width:2;"/>
   </g>
   <g id="line2d_33">
    <path clip-path="url(#p04afd828c3)" d="M 450.390178 80.720198 
L 453.688405 77.210547 
L 453.688405 77.210547 
" style="fill:none;stroke:#33ff00;stroke-linecap:square;stroke-width:2;"/>
   </g>
   <g id="line2d_34">
    <path clip-path="url(#p04afd828c3)" d="M 456.986631 80.369233 
L 460.284858 76.859582 
L 460.284858 76.859582 
" style="fill:none;stroke:#33ff00;stroke-linecap:square;stroke-width:2;"/>
   </g>
   <g id="line2d_35">
    <path clip-path="url(#p04afd828c3)" d="M 463.583085 72.648 
L 466.881312 69.138348 
L 466.881312 69.138348 
" style="fill:none;stroke:#33ff00;stroke-linecap:square;stroke-width:2;"/>
   </g>
   <g id="line2d_36">
    <path clip-path="url(#p04afd828c3)" d="M 480.074219 52.292021 
L 483.372445 48.78237 
L 483.372445 48.78237 
" style="fill:none;stroke:#33ff00;stroke-linecap:square;stroke-width:2;"/>
   </g>
   <g id="line2d_37">
    <path clip-path="url(#p04afd828c3)" d="M 486.670672 44.570788 
L 489.968899 41.061136 
L 489.968899 41.061136 
" style="fill:none;stroke:#33ff00;stroke-linecap:square;stroke-width:2;"/>
   </g>
   <g id="line2d_38">
    <path clip-path="url(#p04afd828c3)" d="M 493.267126 36.849554 
L 499.863579 29.830251 
L 499.863579 29.830251 
" style="fill:none;stroke:#33ff00;stroke-linecap:square;stroke-width:2;"/>
   </g>
   <g id="line2d_39">
    <path clip-path="url(#p04afd828c3)" d="M 503.161806 32.988938 
L 506.460033 29.479286 
L 506.460033 29.479286 
" style="fill:none;stroke:#33ff00;stroke-linecap:square;stroke-width:2;"/>
   </g>
   <g id="line2d_40">
    <path clip-path="url(#p04afd828c3)" d="M 509.758259 32.637972 
L 513.056486 29.128321 
L 513.056486 29.128321 
" style="fill:none;stroke:#33ff00;stroke-linecap:square;stroke-width:2;"/>
   </g>
   <g id="line2d_41">
    <path clip-path="url(#p04afd828c3)" d="M 24.918928 73.34993 
L 28.217154 69.489314 
L 28.217154 69.489314 
" style="fill:none;stroke:#00ff66;stroke-linecap:square;stroke-width:2;"/>
   </g>
   <g id="line2d_42">
    <path clip-path="url(#p04afd828c3)" d="M 31.515381 65.277732 
L 34.813608 61.417115 
L 34.813608 61.417115 
" style="fill:none;stroke:#00ff66;stroke-linecap:square;stroke-width:2;"/>
   </g>
   <g id="line2d_43">
    <path clip-path="url(#p04afd828c3)" d="M 38.111835 57.205533 
L 44.708288 49.4843 
L 44.708288 49.4843 
" style="fill:none;stroke:#00ff66;stroke-linecap:square;stroke-width:2;"/>
   </g>
   <g id="line2d_44">
    <path clip-path="url(#p04afd828c3)" d="M 48.006515 46.325613 
L 51.304742 42.464997 
L 51.304742 42.464997 
" style="fill:none;stroke:#00ff66;stroke-linecap:square;stroke-width:2;"/>
   </g>
   <g id="line2d_45">
    <path clip-path="url(#p04afd828c3)" d="M 54.602968 39.30631 
L 57.901195 35.445694 
L 57.901195 35.445694 
" style="fill:none;stroke:#00ff66;stroke-linecap:square;stroke-width:2;"/>
   </g>
   <g id="line2d_46">
    <path clip-path="url(#p04afd828c3)" d="M 130.462184 77.561512 
L 133.76041 73.700895 
L 133.76041 73.700895 
" style="fill:none;stroke:#00ff66;stroke-linecap:square;stroke-width:2;"/>
   </g>
   <g id="line2d_47">
    <path clip-path="url(#p04afd828c3)" d="M 137.058637 70.542209 
L 140.356864 66.681592 
L 140.356864 66.681592 
" style="fill:none;stroke:#00ff66;stroke-linecap:square;stroke-width:2;"/>
   </g>
   <g id="line2d_48">
    <path clip-path="url(#p04afd828c3)" d="M 143.65509 62.47001 
L 146.953317 58.609394 
L 146.953317 58.609394 
" style="fill:none;stroke:#00ff66;stroke-linecap:square;stroke-width:2;"/>
   </g>
   <g id="line2d_49">
    <path clip-path="url(#p04afd828c3)" d="M 156.847997 45.623683 
L 160.146224 41.763066 
L 160.146224 41.763066 
" style="fill:none;stroke:#00ff66;stroke-linecap:square;stroke-width:2;"/>
   </g>
   <g id="line2d_50">
    <path clip-path="url(#p04afd828c3)" d="M 163.444451 37.551485 
L 166.742678 33.690868 
L 166.742678 33.690868 
" style="fill:none;stroke:#00ff66;stroke-linecap:square;stroke-width:2;"/>
   </g>
   <g id="line2d_51">
    <path clip-path="url(#p04afd828c3)" d="M 170.040904 30.532182 
L 173.339131 26.671565 
L 173.339131 26.671565 
" style="fill:none;stroke:#00ff66;stroke-linecap:square;stroke-width:2;"/>
   </g>
   <g id="line2d_52">
    <path clip-path="url(#p04afd828c3)" d="M 245.90012 68.787383 
L 249.198346 64.926767 
L 249.198346 64.926767 
" style="fill:none;stroke:#00ff66;stroke-linecap:square;stroke-width:2;"/>
   </g>
   <g id="line2d_53">
    <path clip-path="url(#p04afd828c3)" d="M 252.496573 61.76808 
L 255.7948 57.907463 
L 255.7948 57.907463 
" style="fill:none;stroke:#00ff66;stroke-linecap:square;stroke-width:2;"/>
   </g>
   <g id="line2d_54">
    <path clip-path="url(#p04afd828c3)" d="M 259.093027 54.748777 
L 265.68948 47.027544 
L 265.68948 47.027544 
" style="fill:none;stroke:#00ff66;stroke-linecap:square;stroke-width:2;"/>
   </g>
   <g id="line2d_55">
    <path clip-path="url(#p04afd828c3)" d="M 268.987707 42.815962 
L 272.285934 38.955345 
L 272.285934 38.955345 
" style="fill:none;stroke:#00ff66;stroke-linecap:square;stroke-width:2;"/>
   </g>
   <g id="line2d_56">
    <path clip-path="url(#p04afd828c3)" d="M 275.58416 34.743763 
L 275.5968 34.728969 
L 275.616984 34.705342 
L 275.63113 34.688785 
L 275.644966 34.67259 
L 275.659472 34.65561 
L 275.675926 34.636351 
L 275.7015 34.606416 
L 275.713935 34.59186 
L 275.731951 34.570772 
L 275.749389 34.550361 
L 275.772788 34.522973 
L 275.787003 34.506334 
L 275.797734 34.493773 
L 275.821158 34.466355 
L 275.840324 34.44392 
L 275.845783 34.43753 
L 275.8677 34.411877 
L 275.881238 34.39603 
L 275.897862 34.376571 
L 275.91523 34.356242 
L 275.937778 34.329849 
L 275.945656 34.320628 
L 275.966294 34.296471 
L 275.977671 34.283154 
L 275.991772 34.266649 
L 276.009185 34.246266 
L 276.039012 34.211354 
L 276.043308 34.206325 
L 276.058393 34.188668 
L 276.073913 34.170501 
L 276.094942 34.145887 
L 276.113248 34.124459 
L 276.129115 34.105887 
L 276.140901 34.092091 
L 276.160611 34.069021 
L 276.181421 34.044662 
L 276.190709 34.033791 
L 276.209158 34.012195 
L 276.22935 33.98856 
L 276.248191 33.966507 
L 276.27111 33.93968 
L 276.288195 33.919682 
L 276.288603 33.919204 
L 276.318581 33.884115 
L 276.323439 33.878428 
L 276.343257 33.855231 
L 276.371138 33.822596 
L 276.38025 33.81193 
L 276.399164 33.789791 
L 276.41508 33.771161 
L 276.421703 33.763409 
L 276.447187 33.73358 
L 276.463415 33.714584 
L 276.481202 33.693765 
L 276.494356 33.678368 
L 276.507405 33.663094 
L 276.526961 33.640204 
L 276.552476 33.610337 
L 276.554742 33.607685 
L 276.570802 33.588886 
L 276.590634 33.565673 
L 276.619954 33.531353 
L 276.620461 33.53076 
L 276.640528 33.507271 
L 276.669076 33.473856 
L 276.676493 33.465174 
L 276.693218 33.445597 
L 276.709718 33.426284 
L 276.727037 33.406012 
L 276.747134 33.382488 
L 276.757301 33.370587 
L 276.780069 33.343937 
L 276.795783 33.325544 
L 276.815767 33.302151 
L 276.831243 33.284037 
L 276.845154 33.267754 
L 276.86539 33.244067 
L 276.877758 33.22959 
L 276.89133 33.213705 
L 276.904845 33.197885 
L 276.921272 33.178657 
L 276.935809 33.161641 
L 276.957139 33.136674 
L 276.978724 33.111409 
" style="fill:none;stroke:#00ff66;stroke-linecap:square;stroke-width:2;"/>
   </g>
   <g id="line2d_57">
    <path clip-path="url(#p04afd828c3)" d="M 277.025213 33.056992 
L 277.047517 33.030886 
L 277.067108 33.007954 
L 277.067928 33.006994 
L 277.086725 32.984992 
L 277.114644 32.952313 
L 277.126049 32.938963 
L 277.149383 32.91165 
L 277.160174 32.899019 
L 277.169319 32.888315 
L 277.186176 32.868583 
L 277.205953 32.845435 
L 277.222336 32.826257 
L 277.248321 32.795842 
L 277.25511 32.787895 
L 277.266789 32.774225 
L 277.28799 32.749408 
L 277.30854 32.725354 
L 277.321375 32.710331 
L 277.337808 32.691097 
L 277.364808 32.659493 
L 277.36868 32.65496 
L 277.397474 32.621256 
L 277.399893 32.618424 
L 277.422421 32.592056 
L 277.443996 32.566802 
L 277.450953 32.558659 
L 277.472084 32.533925 
L 277.492998 32.509445 
L 277.513175 32.485827 
L 277.519788 32.478087 
L 277.544085 32.449647 
L 277.563569 32.426841 
L 277.578434 32.409441 
L 277.589016 32.397054 
L 277.598359 32.386118 
L 277.617173 32.364096 
L 277.632261 32.346436 
L 277.652925 32.322247 
L 277.668845 32.303613 
L 277.690835 32.277873 
L 277.703454 32.263103 
L 277.718806 32.245133 
L 277.73155 32.230216 
L 277.752187 32.20606 
L 277.776769 32.177286 
L 277.786019 32.166459 
L 277.812497 32.135466 
L 277.816233 32.131093 
L 277.844954 32.097476 
L 277.859205 32.080795 
L 277.87073 32.067304 
L 277.881732 32.054427 
L 277.908669 32.022896 
L 277.92906 31.999029 
L 277.933894 31.99337 
L 277.952026 31.972146 
L 277.970499 31.950523 
L 277.994858 31.922011 
L 277.996027 31.920643 
L 278.017961 31.894968 
L 278.039201 31.870107 
L 278.05601 31.850431 
L 278.077142 31.825697 
L 278.081488 31.820609 
L 278.095251 31.804499 
L 278.126318 31.768135 
L 278.128871 31.765146 
L 278.146212 31.744849 
L 278.168961 31.718221 
L 278.181104 31.704008 
L 278.194738 31.688049 
L 278.225621 31.6519 
L 278.22876 31.648226 
L 278.254088 31.618578 
L 278.261655 31.609721 
L 278.280367 31.587818 
L 278.296502 31.568933 
L 278.321329 31.539872 
L 278.341888 31.515808 
L 278.356878 31.498262 
L 278.365528 31.488137 
L 278.377254 31.474411 
L 278.396628 31.451734 
L 278.417737 31.427026 
L 278.43873 31.402453 
L 278.454291 31.384238 
L 278.465241 31.371422 
L 278.484721 31.34862 
L 278.499493 31.331329 
L 278.517172 31.310635 
L 278.527907 31.29807 
L 278.546332 31.276503 
L 278.559695 31.260862 
L 278.591625 31.223487 
L 278.59645 31.21784 
L 278.61068 31.201183 
L 278.641033 31.165655 
L 278.64276 31.163633 
L 278.661465 31.141739 
L 278.683477 31.115974 
L 278.705206 31.09054 
L 278.716497 31.077323 
L 278.729357 31.062271 
L 278.755088 31.032152 
L 278.760379 31.025959 
L 278.786408 30.995492 
L 278.803312 30.975705 
L 278.82383 30.951689 
L 278.828688 30.946002 
L 278.857138 30.912701 
L 278.86607 30.902246 
L 278.882387 30.883147 
" style="fill:none;stroke:#00ff66;stroke-linecap:square;stroke-width:2;"/>
   </g>
   <g id="line2d_58">
    <path clip-path="url(#p04afd828c3)" d="M 64.497649 29.128321 
L 67.795875 32.637972 
L 67.795875 32.637972 
" style="fill:none;stroke:#00ffff;stroke-linecap:square;stroke-width:2;"/>
   </g>
   <g id="line2d_59">
    <path clip-path="url(#p04afd828c3)" d="M 71.094102 29.479286 
L 74.392329 32.988938 
L 74.392329 32.988938 
" style="fill:none;stroke:#00ffff;stroke-linecap:square;stroke-width:2;"/>
   </g>
   <g id="line2d_60">
    <path clip-path="url(#p04afd828c3)" d="M 77.690556 29.830251 
L 84.287009 36.849554 
L 84.287009 36.849554 
" style="fill:none;stroke:#00ffff;stroke-linecap:square;stroke-width:2;"/>
   </g>
   <g id="line2d_61">
    <path clip-path="url(#p04afd828c3)" d="M 87.585236 41.061136 
L 90.883463 44.570788 
L 90.883463 44.570788 
" style="fill:none;stroke:#00ffff;stroke-linecap:square;stroke-width:2;"/>
   </g>
   <g id="line2d_62">
    <path clip-path="url(#p04afd828c3)" d="M 94.181689 48.78237 
L 97.479916 52.292021 
L 97.479916 52.292021 
" style="fill:none;stroke:#00ffff;stroke-linecap:square;stroke-width:2;"/>
   </g>
   <g id="line2d_63">
    <path clip-path="url(#p04afd828c3)" d="M 110.672823 69.138348 
L 113.97105 72.648 
L 113.97105 72.648 
" style="fill:none;stroke:#00ffff;stroke-linecap:square;stroke-width:2;"/>
   </g>
   <g id="line2d_64">
    <path clip-path="url(#p04afd828c3)" d="M 117.269277 76.859582 
L 120.567503 80.369233 
L 120.567503 80.369233 
" style="fill:none;stroke:#00ffff;stroke-linecap:square;stroke-width:2;"/>
   </g>
   <g id="line2d_65">
    <path clip-path="url(#p04afd828c3)" d="M 123.86573 77.210547 
L 127.163957 80.720198 
L 127.163957 80.720198 
" style="fill:none;stroke:#00ffff;stroke-linecap:square;stroke-width:2;"/>
   </g>
   <g id="line2d_66">
    <path clip-path="url(#p04afd828c3)" d="M 176.637358 23.512878 
L 179.935585 27.02253 
L 179.935585 27.02253 
" style="fill:none;stroke:#00ffff;stroke-linecap:square;stroke-width:2;"/>
   </g>
   <g id="line2d_67">
    <path clip-path="url(#p04afd828c3)" d="M 183.233811 23.863844 
L 186.532038 27.373495 
L 186.532038 27.373495 
" style="fill:none;stroke:#00ffff;stroke-linecap:square;stroke-width:2;"/>
   </g>
   <g id="line2d_68">
    <path clip-path="url(#p04afd828c3)" d="M 189.830265 31.585077 
L 193.128492 35.094729 
L 193.128492 35.094729 
" style="fill:none;stroke:#00ffff;stroke-linecap:square;stroke-width:2;"/>
   </g>
   <g id="line2d_69">
    <path clip-path="url(#p04afd828c3)" d="M 206.321399 51.941056 
L 209.619625 55.450707 
L 209.619625 55.450707 
" style="fill:none;stroke:#00ffff;stroke-linecap:square;stroke-width:2;"/>
   </g>
   <g id="line2d_70">
    <path clip-path="url(#p04afd828c3)" d="M 212.917852 59.662289 
L 216.216079 63.171941 
L 216.216079 63.171941 
" style="fill:none;stroke:#00ffff;stroke-linecap:square;stroke-width:2;"/>
   </g>
   <g id="line2d_71">
    <path clip-path="url(#p04afd828c3)" d="M 219.514306 67.383523 
L 226.110759 74.402826 
L 226.110759 74.402826 
" style="fill:none;stroke:#00ffff;stroke-linecap:square;stroke-width:2;"/>
   </g>
   <g id="line2d_72">
    <path clip-path="url(#p04afd828c3)" d="M 229.408986 71.244139 
L 232.707213 74.753791 
L 232.707213 74.753791 
" style="fill:none;stroke:#00ffff;stroke-linecap:square;stroke-width:2;"/>
   </g>
   <g id="line2d_73">
    <path clip-path="url(#p04afd828c3)" d="M 236.005439 71.595104 
L 239.303666 75.104756 
L 239.303666 75.104756 
" style="fill:none;stroke:#00ffff;stroke-linecap:square;stroke-width:2;"/>
   </g>
   <g id="line2d_74">
    <path clip-path="url(#p04afd828c3)" d="M 318.461108 54.748777 
L 321.759335 57.907463 
L 321.759335 57.907463 
" style="fill:none;stroke:#0066ff;stroke-linecap:square;stroke-width:2;"/>
   </g>
   <g id="line2d_75">
    <path clip-path="url(#p04afd828c3)" d="M 325.057562 61.76808 
L 328.355788 64.926767 
L 328.355788 64.926767 
" style="fill:none;stroke:#0066ff;stroke-linecap:square;stroke-width:2;"/>
   </g>
   <g id="line2d_76">
    <path clip-path="url(#p04afd828c3)" d="M 331.654015 68.787383 
L 338.250468 75.104756 
L 338.250468 75.104756 
" style="fill:none;stroke:#0066ff;stroke-linecap:square;stroke-width:2;"/>
   </g>
   <g id="line2d_77">
    <path clip-path="url(#p04afd828c3)" d="M 341.548695 71.595104 
L 344.846922 74.753791 
L 344.846922 74.753791 
" style="fill:none;stroke:#0066ff;stroke-linecap:square;stroke-width:2;"/>
   </g>
   <g id="line2d_78">
    <path clip-path="url(#p04afd828c3)" d="M 348.145149 71.244139 
L 351.443375 74.402826 
L 351.443375 74.402826 
" style="fill:none;stroke:#0066ff;stroke-linecap:square;stroke-width:2;"/>
   </g>
   <g id="line2d_79">
    <path clip-path="url(#p04afd828c3)" d="M 394.320323 23.863844 
L 397.61855 27.02253 
L 397.61855 27.02253 
" style="fill:none;stroke:#0066ff;stroke-linecap:square;stroke-width:2;"/>
   </g>
   <g id="line2d_80">
    <path clip-path="url(#p04afd828c3)" d="M 400.916777 23.512878 
L 404.215003 26.671565 
L 404.215003 26.671565 
" style="fill:none;stroke:#0066ff;stroke-linecap:square;stroke-width:2;"/>
   </g>
   <g id="line2d_81">
    <path clip-path="url(#p04afd828c3)" d="M 407.51323 30.532182 
L 410.811457 33.690868 
L 410.811457 33.690868 
" style="fill:none;stroke:#0066ff;stroke-linecap:square;stroke-width:2;"/>
   </g>
   <g id="line2d_82">
    <path clip-path="url(#p04afd828c3)" d="M 440.495498 70.542209 
L 443.793724 73.700895 
L 443.793724 73.700895 
" style="fill:none;stroke:#0066ff;stroke-linecap:square;stroke-width:2;"/>
   </g>
   <g id="line2d_83">
    <path clip-path="url(#p04afd828c3)" d="M 447.091951 77.561512 
L 450.390178 80.720198 
L 450.390178 80.720198 
" style="fill:none;stroke:#0066ff;stroke-linecap:square;stroke-width:2;"/>
   </g>
   <g id="line2d_84">
    <path clip-path="url(#p04afd828c3)" d="M 453.688405 77.210547 
L 456.986631 80.369233 
L 456.986631 80.369233 
" style="fill:none;stroke:#0066ff;stroke-linecap:square;stroke-width:2;"/>
   </g>
   <g id="line2d_85">
    <path clip-path="url(#p04afd828c3)" d="M 499.863579 29.830251 
L 503.161806 32.988938 
L 503.161806 32.988938 
" style="fill:none;stroke:#0066ff;stroke-linecap:square;stroke-width:2;"/>
   </g>
   <g id="line2d_86">
    <path clip-path="url(#p04afd828c3)" d="M 506.460033 29.479286 
L 509.758259 32.637972 
L 509.758259 32.637972 
" style="fill:none;stroke:#0066ff;stroke-linecap:square;stroke-width:2;"/>
   </g>
   <g id="line2d_87">
    <path clip-path="url(#p04afd828c3)" d="M 513.056486 29.128321 
L 519.65294 35.445694 
L 519.65294 35.445694 
" style="fill:none;stroke:#0066ff;stroke-linecap:square;stroke-width:2;"/>
   </g>
   <g id="line2d_88">
    <path clip-path="url(#p04afd828c3)" d="M 522.951166 39.30631 
L 526.249393 42.464997 
L 526.249393 42.464997 
" style="fill:none;stroke:#0066ff;stroke-linecap:square;stroke-width:2;"/>
   </g>
   <g id="line2d_89">
    <path clip-path="url(#p04afd828c3)" d="M 529.54762 46.325613 
L 532.845846 49.4843 
L 532.845846 49.4843 
" style="fill:none;stroke:#0066ff;stroke-linecap:square;stroke-width:2;"/>
   </g>
   <g id="line2d_90">
    <path clip-path="url(#p04afd828c3)" d="M 298.671748 30.883147 
L 301.969974 34.743763 
L 301.969974 34.743763 
" style="fill:none;stroke:#3200ff;stroke-linecap:square;stroke-width:2;"/>
   </g>
   <g id="line2d_91">
    <path clip-path="url(#p04afd828c3)" d="M 305.268201 38.955345 
L 308.566428 42.815962 
L 308.566428 42.815962 
" style="fill:none;stroke:#3200ff;stroke-linecap:square;stroke-width:2;"/>
   </g>
   <g id="line2d_92">
    <path clip-path="url(#p04afd828c3)" d="M 311.864655 47.027544 
L 318.461108 54.748777 
L 318.461108 54.748777 
" style="fill:none;stroke:#3200ff;stroke-linecap:square;stroke-width:2;"/>
   </g>
   <g id="line2d_93">
    <path clip-path="url(#p04afd828c3)" d="M 321.759335 57.907463 
L 325.057562 61.76808 
L 325.057562 61.76808 
" style="fill:none;stroke:#3200ff;stroke-linecap:square;stroke-width:2;"/>
   </g>
   <g id="line2d_94">
    <path clip-path="url(#p04afd828c3)" d="M 328.355788 64.926767 
L 331.654015 68.787383 
L 331.654015 68.787383 
" style="fill:none;stroke:#3200ff;stroke-linecap:square;stroke-width:2;"/>
   </g>
   <g id="line2d_95">
    <path clip-path="url(#p04afd828c3)" d="M 404.215003 26.671565 
L 407.51323 30.532182 
L 407.51323 30.532182 
" style="fill:none;stroke:#3200ff;stroke-linecap:square;stroke-width:2;"/>
   </g>
   <g id="line2d_96">
    <path clip-path="url(#p04afd828c3)" d="M 410.811457 33.690868 
L 414.109684 37.551485 
L 414.109684 37.551485 
" style="fill:none;stroke:#3200ff;stroke-linecap:square;stroke-width:2;"/>
   </g>
   <g id="line2d_97">
    <path clip-path="url(#p04afd828c3)" d="M 417.40791 41.763066 
L 420.706137 45.623683 
L 420.706137 45.623683 
" style="fill:none;stroke:#3200ff;stroke-linecap:square;stroke-width:2;"/>
   </g>
   <g id="line2d_98">
    <path clip-path="url(#p04afd828c3)" d="M 430.600817 58.609394 
L 433.899044 62.47001 
L 433.899044 62.47001 
" style="fill:none;stroke:#3200ff;stroke-linecap:square;stroke-width:2;"/>
   </g>
   <g id="line2d_99">
    <path clip-path="url(#p04afd828c3)" d="M 437.197271 66.681592 
L 440.495498 70.542209 
L 440.495498 70.542209 
" style="fill:none;stroke:#3200ff;stroke-linecap:square;stroke-width:2;"/>
   </g>
   <g id="line2d_100">
    <path clip-path="url(#p04afd828c3)" d="M 443.793724 73.700895 
L 443.805125 73.714239 
L 443.8297 73.743006 
L 443.836024 73.750408 
L 443.855189 73.77284 
L 443.875892 73.797074 
L 443.900394 73.825753 
L 443.906528 73.832934 
L 443.928611 73.858782 
L 443.935423 73.866755 
L 443.964152 73.900383 
L 443.969252 73.906353 
L 443.991933 73.932901 
L 444.005396 73.94866 
L 444.033942 73.982073 
L 444.045101 73.995136 
L 444.055761 74.007613 
L 444.079544 74.035451 
L 444.086351 74.043418 
L 444.116095 74.078234 
L 444.117763 74.080186 
L 444.146831 74.114211 
L 444.150805 74.118863 
L 444.174249 74.146304 
L 444.19651 74.172362 
L 444.213486 74.192231 
L 444.22977 74.211293 
L 444.239564 74.222757 
L 444.25648 74.242557 
L 444.268584 74.256724 
L 444.290951 74.282906 
L 444.305527 74.299968 
L 444.330601 74.329316 
L 444.339766 74.340044 
L 444.362909 74.367134 
L 444.378944 74.385902 
L 444.392029 74.401218 
L 444.410253 74.42255 
L 444.41698 74.430424 
L 444.437139 74.45402 
L 444.449854 74.468904 
L 444.475535 74.498964 
L 444.488652 74.514317 
L 444.504586 74.532968 
L 444.522003 74.553355 
L 444.545475 74.58083 
L 444.555598 74.592678 
L 444.571757 74.611593 
L 444.591604 74.634824 
L 444.605663 74.65128 
L 444.628651 74.678187 
L 444.639761 74.691192 
L 444.659988 74.714869 
L 444.673124 74.730244 
L 444.689804 74.749769 
L 444.71054 74.77404 
L 444.719101 74.78406 
L 444.743878 74.813063 
L 444.753662 74.824514 
L 444.773453 74.84768 
L 444.784916 74.861098 
L 444.804482 74.884 
L 444.818949 74.900934 
L 444.839089 74.924508 
L 444.859511 74.948412 
L 444.868114 74.958482 
L 444.880062 74.972468 
L 444.898854 74.994464 
L 444.912518 75.010458 
L 444.945242 75.048762 
L 444.948047 75.052045 
L 444.969179 75.07678 
L 444.988695 75.099623 
L 445.005703 75.119532 
L 445.023447 75.140301 
L 445.028668 75.146413 
L 445.047562 75.168528 
L 445.074387 75.199927 
L 445.091897 75.220423 
L 445.099236 75.229014 
L 445.114764 75.247189 
" style="fill:none;stroke:#3200ff;stroke-linecap:square;stroke-width:2;"/>
   </g>
   <g id="line2d_101">
    <path clip-path="url(#p04afd828c3)" d="M 445.164433 75.305327 
L 445.183334 75.327451 
L 445.208203 75.356561 
L 445.221856 75.372542 
L 445.229854 75.381904 
L 445.244158 75.398646 
L 445.26543 75.423546 
L 445.287584 75.449478 
L 445.307159 75.47239 
L 445.319655 75.487016 
L 445.341925 75.513085 
L 445.355497 75.528971 
L 445.36325 75.538045 
L 445.38372 75.562006 
L 445.407966 75.590386 
L 445.423423 75.608479 
L 445.437076 75.624459 
L 445.44649 75.635479 
L 445.46455 75.656618 
L 445.478777 75.673271 
L 445.507273 75.706626 
L 445.521781 75.723608 
L 445.536415 75.740737 
L 445.542475 75.747831 
L 445.57504 75.785948 
L 445.58044 75.792269 
L 445.601665 75.817113 
L 445.621162 75.839935 
L 445.641497 75.863737 
L 445.650388 75.874144 
L 445.668023 75.894786 
L 445.677582 75.905975 
L 445.70647 75.939789 
L 445.720193 75.955852 
L 445.736975 75.975495 
L 445.743548 75.983189 
L 445.772914 76.017563 
L 445.787585 76.034735 
L 445.794844 76.043232 
L 445.810168 76.061169 
L 445.840176 76.096293 
L 445.841987 76.098413 
L 445.861557 76.121321 
L 445.877633 76.140137 
L 445.897134 76.162963 
L 445.920735 76.190589 
L 445.93805 76.210856 
L 445.952968 76.228317 
L 445.962187 76.239109 
L 445.989397 76.270959 
L 445.993075 76.275264 
L 446.009778 76.294814 
L 446.033482 76.322561 
L 446.046629 76.337949 
L 446.06941 76.364614 
L 446.0761 76.372445 
L 446.101988 76.402748 
L 446.113612 76.416354 
L 446.131456 76.43724 
L 446.145706 76.45392 
L 446.166881 76.478705 
L 446.185325 76.500294 
L 446.196261 76.513096 
L 446.213361 76.533111 
L 446.222958 76.544345 
L 446.242633 76.567374 
L 446.264593 76.593079 
L 446.281265 76.612594 
L 446.295795 76.629601 
L 446.315404 76.652554 
L 446.329758 76.669356 
L 446.352731 76.696246 
L 446.36172 76.706768 
L 446.374475 76.721697 
L 446.387744 76.737229 
L 446.412913 76.76669 
L 446.422845 76.778315 
L 446.440881 76.799427 
L 446.467225 76.830263 
L 446.476309 76.840895 
L 446.493059 76.860501 
L 446.506666 76.876428 
L 446.536231 76.911035 
L 446.547623 76.924369 
L 446.562404 76.941671 
L 446.577361 76.959177 
L 446.592115 76.976448 
L 446.614753 77.002946 
L 446.624352 77.014182 
L 446.640583 77.03318 
L 446.65573 77.05091 
L 446.679386 77.0786 
L 446.701414 77.104384 
L 446.710055 77.114498 
L 446.721207 77.127551 
L 446.73762 77.146763 
L 446.754295 77.166281 
L 446.777688 77.193663 
L 446.795877 77.214953 
L 446.804916 77.225534 
L 446.819809 77.242966 
L 446.845392 77.272911 
L 446.864812 77.295643 
L 446.882783 77.316678 
L 446.896599 77.33285 
L 446.910214 77.348787 
L 446.919486 77.359639 
L 446.94255 77.386636 
L 446.966673 77.414873 
L 446.980123 77.430616 
L 446.99465 77.447619 
L 447.012064 77.468003 
L 447.022388 77.480088 
L 447.049388 77.511691 
L 447.064722 77.529641 
L 447.069257 77.534948 
L 447.091951 77.561512 
" style="fill:none;stroke:#3200ff;stroke-linecap:square;stroke-width:2;"/>
   </g>
   <g id="line2d_102">
    <path clip-path="url(#p04afd828c3)" d="M 519.65294 35.445694 
L 522.951166 39.30631 
L 522.951166 39.30631 
" style="fill:none;stroke:#3200ff;stroke-linecap:square;stroke-width:2;"/>
   </g>
   <g id="line2d_103">
    <path clip-path="url(#p04afd828c3)" d="M 526.249393 42.464997 
L 529.54762 46.325613 
L 529.54762 46.325613 
" style="fill:none;stroke:#3200ff;stroke-linecap:square;stroke-width:2;"/>
   </g>
   <g id="line2d_104">
    <path clip-path="url(#p04afd828c3)" d="M 532.845846 49.4843 
L 539.4423 57.205533 
L 539.4423 57.205533 
" style="fill:none;stroke:#3200ff;stroke-linecap:square;stroke-width:2;"/>
   </g>
   <g id="line2d_105">
    <path clip-path="url(#p04afd828c3)" d="M 542.740527 61.417115 
L 546.038753 65.277732 
L 546.038753 65.277732 
" style="fill:none;stroke:#3200ff;stroke-linecap:square;stroke-width:2;"/>
   </g>
   <g id="line2d_106">
    <path clip-path="url(#p04afd828c3)" d="M 549.33698 69.489314 
L 552.635207 73.34993 
L 552.635207 73.34993 
" style="fill:none;stroke:#3200ff;stroke-linecap:square;stroke-width:2;"/>
   </g>
   <g id="line2d_107">
    <path clip-path="url(#p04afd828c3)" d="M 44.708288 49.4843 
L 48.006515 46.325613 
L 48.006515 46.325613 
" style="fill:none;stroke:#cc00ff;stroke-linecap:square;stroke-width:2;"/>
   </g>
   <g id="line2d_108">
    <path clip-path="url(#p04afd828c3)" d="M 51.304742 42.464997 
L 54.602968 39.30631 
L 54.602968 39.30631 
" style="fill:none;stroke:#cc00ff;stroke-linecap:square;stroke-width:2;"/>
   </g>
   <g id="line2d_109">
    <path clip-path="url(#p04afd828c3)" d="M 57.901195 35.445694 
L 64.497649 29.128321 
L 64.497649 29.128321 
" style="fill:none;stroke:#cc00ff;stroke-linecap:square;stroke-width:2;"/>
   </g>
   <g id="line2d_110">
    <path clip-path="url(#p04afd828c3)" d="M 67.795875 32.637972 
L 71.094102 29.479286 
L 71.094102 29.479286 
" style="fill:none;stroke:#cc00ff;stroke-linecap:square;stroke-width:2;"/>
   </g>
   <g id="line2d_111">
    <path clip-path="url(#p04afd828c3)" d="M 74.392329 32.988938 
L 77.690556 29.830251 
L 77.690556 29.830251 
" style="fill:none;stroke:#cc00ff;stroke-linecap:square;stroke-width:2;"/>
   </g>
   <g id="line2d_112">
    <path clip-path="url(#p04afd828c3)" d="M 120.567503 80.369233 
L 123.86573 77.210547 
L 123.86573 77.210547 
" style="fill:none;stroke:#cc00ff;stroke-linecap:square;stroke-width:2;"/>
   </g>
   <g id="line2d_113">
    <path clip-path="url(#p04afd828c3)" d="M 127.163957 80.720198 
L 130.462184 77.561512 
L 130.462184 77.561512 
" style="fill:none;stroke:#cc00ff;stroke-linecap:square;stroke-width:2;"/>
   </g>
   <g id="line2d_114">
    <path clip-path="url(#p04afd828c3)" d="M 133.76041 73.700895 
L 137.058637 70.542209 
L 137.058637 70.542209 
" style="fill:none;stroke:#cc00ff;stroke-linecap:square;stroke-width:2;"/>
   </g>
   <g id="line2d_115">
    <path clip-path="url(#p04afd828c3)" d="M 166.742678 33.690868 
L 170.040904 30.532182 
L 170.040904 30.532182 
" style="fill:none;stroke:#cc00ff;stroke-linecap:square;stroke-width:2;"/>
   </g>
   <g id="line2d_116">
    <path clip-path="url(#p04afd828c3)" d="M 173.339131 26.671565 
L 176.637358 23.512878 
L 176.637358 23.512878 
" style="fill:none;stroke:#cc00ff;stroke-linecap:square;stroke-width:2;"/>
   </g>
   <g id="line2d_117">
    <path clip-path="url(#p04afd828c3)" d="M 179.935585 27.02253 
L 183.233811 23.863844 
L 183.233811 23.863844 
" style="fill:none;stroke:#cc00ff;stroke-linecap:square;stroke-width:2;"/>
   </g>
   <g id="line2d_118">
    <path clip-path="url(#p04afd828c3)" d="M 226.110759 74.402826 
L 229.408986 71.244139 
L 229.408986 71.244139 
" style="fill:none;stroke:#cc00ff;stroke-linecap:square;stroke-width:2;"/>
   </g>
   <g id="line2d_119">
    <path clip-path="url(#p04afd828c3)" d="M 232.707213 74.753791 
L 236.005439 71.595104 
L 236.005439 71.595104 
" style="fill:none;stroke:#cc00ff;stroke-linecap:square;stroke-width:2;"/>
   </g>
   <g id="line2d_120">
    <path clip-path="url(#p04afd828c3)" d="M 239.303666 75.104756 
L 245.90012 68.787383 
L 245.90012 68.787383 
" style="fill:none;stroke:#cc00ff;stroke-linecap:square;stroke-width:2;"/>
   </g>
   <g id="line2d_121">
    <path clip-path="url(#p04afd828c3)" d="M 249.198346 64.926767 
L 252.496573 61.76808 
L 252.496573 61.76808 
" style="fill:none;stroke:#cc00ff;stroke-linecap:square;stroke-width:2;"/>
   </g>
   <g id="line2d_122">
    <path clip-path="url(#p04afd828c3)" d="M 255.7948 57.907463 
L 259.093027 54.748777 
L 259.093027 54.748777 
" style="fill:none;stroke:#cc00ff;stroke-linecap:square;stroke-width:2;"/>
   </g>
   <g id="line2d_123">
    <path clip-path="url(#p04afd828c3)" d="M 18.322474 81.773094 
L 24.918928 73.34993 
L 24.918928 73.34993 
" style="fill:none;stroke:#ff0098;stroke-linecap:square;stroke-width:2;"/>
   </g>
   <g id="line2d_124">
    <path clip-path="url(#p04afd828c3)" d="M 28.217154 69.489314 
L 31.515381 65.277732 
L 31.515381 65.277732 
" style="fill:none;stroke:#ff0098;stroke-linecap:square;stroke-width:2;"/>
   </g>
   <g id="line2d_125">
    <path clip-path="url(#p04afd828c3)" d="M 34.813608 61.417115 
L 38.111835 57.205533 
L 38.111835 57.205533 
" style="fill:none;stroke:#ff0098;stroke-linecap:square;stroke-width:2;"/>
   </g>
   <g id="line2d_126">
    <path clip-path="url(#p04afd828c3)" d="M 140.356864 66.681592 
L 143.65509 62.47001 
L 143.65509 62.47001 
" style="fill:none;stroke:#ff0098;stroke-linecap:square;stroke-width:2;"/>
   </g>
   <g id="line2d_127">
    <path clip-path="url(#p04afd828c3)" d="M 146.953317 58.609394 
L 150.251544 54.397812 
L 150.251544 54.397812 
" style="fill:none;stroke:#ff0098;stroke-linecap:square;stroke-width:2;"/>
   </g>
   <g id="line2d_128">
    <path clip-path="url(#p04afd828c3)" d="M 153.549771 49.835265 
L 156.847997 45.623683 
L 156.847997 45.623683 
" style="fill:none;stroke:#ff0098;stroke-linecap:square;stroke-width:2;"/>
   </g>
   <g id="line2d_129">
    <path clip-path="url(#p04afd828c3)" d="M 160.146224 41.763066 
L 163.444451 37.551485 
L 163.444451 37.551485 
" style="fill:none;stroke:#ff0098;stroke-linecap:square;stroke-width:2;"/>
   </g>
   <g id="line2d_130">
    <path clip-path="url(#p04afd828c3)" d="M 265.68948 47.027544 
L 268.987707 42.815962 
L 268.987707 42.815962 
" style="fill:none;stroke:#ff0098;stroke-linecap:square;stroke-width:2;"/>
   </g>
   <g id="line2d_131">
    <path clip-path="url(#p04afd828c3)" d="M 272.285934 38.955345 
L 275.58416 34.743763 
L 275.58416 34.743763 
" style="fill:none;stroke:#ff0098;stroke-linecap:square;stroke-width:2;"/>
   </g>
   <g id="line2d_132">
    <path clip-path="url(#p04afd828c3)" d="M 278.882387 30.883147 
L 285.478841 22.459983 
L 285.478841 22.459983 
" style="fill:none;stroke:#ff0098;stroke-linecap:square;stroke-width:2;"/>
   </g>
   <g id="line2d_133">
    <path clip-path="url(#p04afd828c3)" d="M 358.039829 67.383523 
L 361.338056 63.171941 
L 361.338056 63.171941 
" style="fill:none;stroke:#ff0098;stroke-linecap:square;stroke-width:2;"/>
   </g>
   <g id="line2d_134">
    <path clip-path="url(#p04afd828c3)" d="M 364.636282 59.662289 
L 367.934509 55.450707 
L 367.934509 55.450707 
" style="fill:none;stroke:#ff0098;stroke-linecap:square;stroke-width:2;"/>
   </g>
   <g id="line2d_135">
    <path clip-path="url(#p04afd828c3)" d="M 371.232736 51.941056 
L 384.425643 35.094729 
L 384.425643 35.094729 
" style="fill:none;stroke:#ff0098;stroke-linecap:square;stroke-width:2;"/>
   </g>
   <g id="line2d_136">
    <path clip-path="url(#p04afd828c3)" d="M 387.72387 31.585077 
L 391.022096 27.373495 
L 391.022096 27.373495 
" style="fill:none;stroke:#ff0098;stroke-linecap:square;stroke-width:2;"/>
   </g>
   <g id="line2d_137">
    <path clip-path="url(#p04afd828c3)" d="M 460.284858 76.859582 
L 463.583085 72.648 
L 463.583085 72.648 
" style="fill:none;stroke:#ff0098;stroke-linecap:square;stroke-width:2;"/>
   </g>
   <g id="line2d_138">
    <path clip-path="url(#p04afd828c3)" d="M 466.881312 69.138348 
L 480.074219 52.292021 
L 480.074219 52.292021 
" style="fill:none;stroke:#ff0098;stroke-linecap:square;stroke-width:2;"/>
   </g>
   <g id="line2d_139">
    <path clip-path="url(#p04afd828c3)" d="M 483.372445 48.78237 
L 483.386093 48.764942 
L 483.408806 48.73594 
L 483.425469 48.714662 
L 483.431185 48.707364 
L 483.44729 48.686798 
L 483.473505 48.653324 
L 483.485514 48.637989 
L 483.504872 48.613271 
L 483.514181 48.601384 
L 483.545334 48.561604 
L 483.546863 48.559652 
L 483.569537 48.530699 
L 483.59581 48.49715 
L 483.596255 48.496582 
L 483.617148 48.469903 
L 483.635398 48.446599 
L 483.652314 48.424999 
L 483.667016 48.406225 
L 483.680472 48.389044 
L 483.699101 48.365255 
L 483.720988 48.337308 
L 483.738804 48.314558 
L 483.755417 48.293345 
L 483.765527 48.280435 
L 483.784844 48.255768 
L 483.804999 48.230031 
L 483.825166 48.20428 
L 483.832324 48.195139 
L 483.855641 48.165365 
L 483.868374 48.149106 
L 483.886916 48.125429 
L 483.905644 48.101515 
L 483.916554 48.087585 
L 483.928141 48.072789 
L 483.957495 48.035306 
L 483.969047 48.020555 
L 483.986167 47.998694 
L 484.0033 47.976817 
L 484.021714 47.953303 
L 484.034793 47.936603 
L 484.049117 47.918312 
L 484.076491 47.883358 
L 484.079039 47.880104 
L 484.103685 47.848632 
L 484.119851 47.827989 
L 484.138309 47.804421 
L 484.153021 47.785635 
L 484.16127 47.775101 
L 484.18692 47.742348 
L 484.196974 47.72951 
L 484.223062 47.696198 
L 484.235443 47.680388 
L 484.25602 47.654112 
L 484.26204 47.646425 
L 484.289684 47.611127 
L 484.305817 47.590526 
L 484.316227 47.577233 
L 484.340094 47.546756 
L 484.343765 47.542069 
L 484.360522 47.520672 
L 484.386559 47.487424 
L 484.395138 47.47647 
L 484.413305 47.453272 
L 484.426862 47.435961 
L 484.441473 47.417304 
L 484.459624 47.394125 
L 484.489321 47.356205 
L 484.491529 47.353386 
L 484.51453 47.324015 
L 484.525541 47.309955 
L 484.544237 47.286082 
L 484.569071 47.254371 
L 484.585107 47.233894 
L 484.601342 47.213163 
L 484.621399 47.187551 
L 484.628325 47.178708 
L 484.655518 47.143985 
L 484.666585 47.129852 
L 484.683423 47.108352 
L 484.704681 47.081206 
L 484.714716 47.068393 
L 484.738807 47.037631 
L 484.755837 47.015885 
L 484.759944 47.010641 
L 484.773813 46.99293 
L 484.801517 46.957555 
L 484.820217 46.933676 
L 484.832352 46.918182 
L 484.845679 46.901164 
L 484.867857 46.872844 
L 484.875699 46.86283 
L 484.896486 46.836287 
L 484.91988 46.806415 
L 484.93606 46.785754 
L 484.948969 46.769269 
L 484.96672 46.746604 
L 484.985343 46.722823 
L 484.997388 46.707443 
L 485.011151 46.689868 
L 485.03128 46.664165 
L 485.051113 46.63884 
L 485.06604 46.61978 
L 485.087615 46.59223 
L 485.088605 46.590966 
L 485.116294 46.555609 
L 485.123378 46.546564 
L 485.139851 46.525528 
L 485.168043 46.48953 
L 485.175173 46.480425 
L 485.191015 46.460196 
L 485.20983 46.43617 
L 485.235143 46.403848 
L 485.250463 46.384286 
L 485.256942 46.376012 
L 485.277403 46.349885 
L 485.297805 46.323834 
L 485.314646 46.302328 
L 485.323659 46.29082 
L 485.344758 46.263878 
L 485.357456 46.247664 
L 485.370898 46.230499 
L 485.400751 46.192379 
" style="fill:none;stroke:#ff0098;stroke-linecap:square;stroke-width:2;"/>
   </g>
   <g id="line2d_140">
    <path clip-path="url(#p04afd828c3)" d="M 485.44705 46.133259 
L 485.459074 46.117905 
L 485.483933 46.086162 
L 485.4867 46.082629 
L 485.504289 46.060169 
L 485.532098 46.024659 
L 485.549395 46.002572 
L 485.563763 45.984225 
L 485.576628 45.967798 
L 485.585171 45.95689 
L 485.603439 45.933562 
L 485.628596 45.901439 
L 485.6441 45.881641 
L 485.656444 45.865879 
L 485.674727 45.842533 
L 485.699527 45.810865 
L 485.716281 45.789472 
L 485.733106 45.767988 
L 485.742569 45.755904 
L 485.764507 45.72789 
L 485.779334 45.708958 
L 485.795713 45.688043 
L 485.802342 45.679579 
L 485.829105 45.645404 
L 485.838721 45.633126 
L 485.854751 45.612656 
L 485.873549 45.588652 
L 485.89003 45.567607 
L 485.910884 45.540979 
L 485.923463 45.524916 
L 485.939242 45.504767 
L 485.953695 45.486312 
L 485.969141 45.466589 
L 485.995705 45.432668 
L 486.013471 45.409983 
L 486.024255 45.396213 
L 486.035818 45.381447 
L 486.056931 45.354488 
L 486.071793 45.33551 
L 486.086602 45.316601 
L 486.113106 45.282757 
L 486.125205 45.267307 
L 486.142418 45.245327 
L 486.161136 45.221426 
L 486.178996 45.19862 
L 486.190503 45.183926 
L 486.201747 45.169568 
L 486.219031 45.147499 
L 486.23924 45.121693 
L 486.250717 45.107038 
L 486.27092 45.081241 
L 486.289016 45.058133 
L 486.303122 45.040121 
L 486.316852 45.022588 
L 486.33455 44.99999 
L 486.360205 44.96723 
L 486.374526 44.948943 
L 486.395043 44.922745 
L 486.413715 44.898902 
L 486.423066 44.886961 
L 486.446195 44.857428 
L 486.454799 44.846441 
L 486.469442 44.827743 
L 486.487757 44.804356 
L 486.505449 44.781765 
L 486.522711 44.759723 
L 486.535251 44.74371 
L 486.553341 44.720611 
L 486.564841 44.705925 
L 486.589756 44.674111 
L 486.602342 44.65804 
L 486.624505 44.62974 
L 486.644917 44.603675 
L 486.657339 44.587814 
L 486.670672 44.570788 
" style="fill:none;stroke:#ff0098;stroke-linecap:square;stroke-width:2;"/>
   </g>
   <g id="line2d_141">
    <path clip-path="url(#p04afd828c3)" d="M 489.968899 41.061136 
L 493.267126 36.849554 
L 493.267126 36.849554 
" style="fill:none;stroke:#ff0098;stroke-linecap:square;stroke-width:2;"/>
   </g>
   <g id="matplotlib.axis_1">
    <g id="xtick_1">
     <g id="line2d_142">
      <path clip-path="url(#p04afd828c3)" d="M 15.024247 87.704405 
L 15.024247 16.528672 
" style="fill:none;stroke:#000000;stroke-dasharray:0.5,0.825;stroke-dashoffset:0;stroke-width:0.5;"/>
     </g>
     <g id="line2d_143">
      <defs>
       <path d="M 0 0 
L 0 3.5 
" id="m00ea35171f" style="stroke:#000000;stroke-width:0.8;"/>
      </defs>
      <g>
       <use style="stroke:#000000;stroke-width:0.8;" x="15.024247" xlink:href="#m00ea35171f" y="86.335641"/>
      </g>
     </g>
    </g>
    <g id="xtick_2">
     <g id="line2d_144">
      <path clip-path="url(#p04afd828c3)" d="M 288.777067 87.704405 
L 288.777067 16.528672 
" style="fill:none;stroke:#000000;stroke-dasharray:0.5,0.825;stroke-dashoffset:0;stroke-width:0.5;"/>
     </g>
     <g id="line2d_145">
      <g>
       <use style="stroke:#000000;stroke-width:0.8;" x="288.777067" xlink:href="#m00ea35171f" y="86.335641"/>
      </g>
     </g>
     <g id="text_1">
      <!-- $f$ -->
      <defs>
       <path d="M 9.71875 -16.5 
Q 11.578125 -17.921875 14.203125 -17.921875 
Q 17.78125 -17.921875 20.015625 -10.015625 
Q 20.953125 -6.203125 25.09375 15.09375 
L 29.6875 39.59375 
L 21.09375 39.59375 
Q 20.125 39.59375 20.125 40.921875 
Q 20.515625 43.109375 21.390625 43.109375 
L 30.328125 43.109375 
L 31.5 49.609375 
Q 32.078125 52.640625 32.5625 54.8125 
Q 33.0625 56.984375 33.625 58.828125 
Q 34.1875 60.6875 35.296875 62.984375 
Q 37.015625 66.265625 39.921875 68.390625 
Q 42.828125 70.515625 46.1875 70.515625 
Q 48.390625 70.515625 50.46875 69.703125 
Q 52.546875 68.890625 53.859375 67.28125 
Q 55.171875 65.671875 55.171875 63.484375 
Q 55.171875 60.9375 53.484375 59.046875 
Q 51.8125 57.171875 49.421875 57.171875 
Q 47.796875 57.171875 46.65625 58.171875 
Q 45.515625 59.1875 45.515625 60.796875 
Q 45.515625 62.984375 47 64.625 
Q 48.484375 66.265625 50.6875 66.5 
Q 48.828125 67.921875 46.09375 67.921875 
Q 44.578125 67.921875 43.234375 66.5 
Q 41.890625 65.09375 41.5 63.484375 
Q 40.875 60.9375 38.71875 49.703125 
L 37.5 43.109375 
L 47.796875 43.109375 
Q 48.78125 43.109375 48.78125 41.796875 
Q 48.734375 41.546875 48.578125 40.9375 
Q 48.4375 40.328125 48.171875 39.953125 
Q 47.90625 39.59375 47.515625 39.59375 
L 36.8125 39.59375 
L 32.171875 15.1875 
Q 31.296875 9.859375 30.140625 4.359375 
Q 29 -1.125 26.921875 -6.90625 
Q 24.859375 -12.703125 21.625 -16.609375 
Q 18.40625 -20.515625 14.015625 -20.515625 
Q 10.640625 -20.515625 7.984375 -18.578125 
Q 5.328125 -16.65625 5.328125 -13.484375 
Q 5.328125 -10.9375 6.953125 -9.046875 
Q 8.59375 -7.171875 11.078125 -7.171875 
Q 12.75 -7.171875 13.859375 -8.171875 
Q 14.984375 -9.1875 14.984375 -10.796875 
Q 14.984375 -12.9375 13.390625 -14.71875 
Q 11.8125 -16.5 9.71875 -16.5 
z
" id="Cmmi10-66"/>
      </defs>
      <g transform="translate(286.327067 100.913766)scale(0.1 -0.1)">
       <use transform="translate(0 0.484375)" xlink:href="#Cmmi10-66"/>
      </g>
     </g>
    </g>
    <g id="xtick_3">
     <g id="line2d_146">
      <path clip-path="url(#p04afd828c3)" d="M 562.529887 87.704405 
L 562.529887 16.528672 
" style="fill:none;stroke:#000000;stroke-dasharray:0.5,0.825;stroke-dashoffset:0;stroke-width:0.5;"/>
     </g>
     <g id="line2d_147">
      <g>
       <use style="stroke:#000000;stroke-width:0.8;" x="562.529887" xlink:href="#m00ea35171f" y="86.335641"/>
      </g>
     </g>
     <g id="text_2">
      <!-- $1$ -->
      <defs>
       <path d="M 9.28125 0 
L 9.28125 3.515625 
Q 21.78125 3.515625 21.78125 6.6875 
L 21.78125 59.1875 
Q 16.609375 56.6875 8.6875 56.6875 
L 8.6875 60.203125 
Q 20.953125 60.203125 27.203125 66.609375 
L 28.609375 66.609375 
Q 28.953125 66.609375 29.265625 66.328125 
Q 29.59375 66.0625 29.59375 65.71875 
L 29.59375 6.6875 
Q 29.59375 3.515625 42.09375 3.515625 
L 42.09375 0 
z
" id="Cmr10-31"/>
      </defs>
      <g transform="translate(560.029887 100.934078)scale(0.1 -0.1)">
       <use transform="translate(0 0.390625)" xlink:href="#Cmr10-31"/>
      </g>
     </g>
    </g>
   </g>
   <g id="matplotlib.axis_2">
    <g id="ytick_1">
     <g id="line2d_148">
      <path clip-path="url(#p04afd828c3)" d="M 4.074135 86.335641 
L 573.48 86.335641 
" style="fill:none;stroke:#000000;stroke-dasharray:0.5,0.825;stroke-dashoffset:0;stroke-width:0.5;"/>
     </g>
     <g id="line2d_149">
      <defs>
       <path d="M 0 0 
L -3.5 0 
" id="m8d8471141e" style="stroke:#000000;stroke-width:0.8;"/>
      </defs>
      <g>
       <use style="stroke:#000000;stroke-width:0.8;" x="15.024247" xlink:href="#m8d8471141e" y="86.335641"/>
      </g>
     </g>
    </g>
    <g id="ytick_2">
     <g id="line2d_150">
      <path clip-path="url(#p04afd828c3)" d="M 4.074135 17.897436 
L 573.48 17.897436 
" style="fill:none;stroke:#000000;stroke-dasharray:0.5,0.825;stroke-dashoffset:0;stroke-width:0.5;"/>
     </g>
     <g id="line2d_151">
      <g>
       <use style="stroke:#000000;stroke-width:0.8;" x="15.024247" xlink:href="#m8d8471141e" y="17.897436"/>
      </g>
     </g>
     <g id="text_3">
      <!-- $1$ -->
      <g transform="translate(3.024247 21.696655)scale(0.1 -0.1)">
       <use transform="translate(0 0.390625)" xlink:href="#Cmr10-31"/>
      </g>
     </g>
    </g>
   </g>
   <g id="patch_3">
    <path d="M 15.024247 87.704405 
L 15.024247 16.528672 
" style="fill:none;stroke:#000000;stroke-linecap:square;stroke-linejoin:miter;stroke-width:0.8;"/>
   </g>
   <g id="patch_4">
    <path d="M 4.074135 86.335641 
L 573.48 86.335641 
" style="fill:none;stroke:#000000;stroke-linecap:square;stroke-linejoin:miter;stroke-width:0.8;"/>
   </g>
  </g>
 </g>
 <defs>
  <clipPath id="p04afd828c3">
   <rect height="71.175733" width="569.405865" x="4.074135" y="16.528672"/>
  </clipPath>
 </defs>
</svg>
