<?xml version="1.0" encoding="utf-8" standalone="no"?>
<!DOCTYPE svg PUBLIC "-//W3C//DTD SVG 1.1//EN"
  "http://www.w3.org/Graphics/SVG/1.1/DTD/svg11.dtd">
<!-- Created with matplotlib (http://matplotlib.org/) -->
<svg height="108pt" version="1.1" viewBox="0 0 576 108" width="576pt" xmlns="http://www.w3.org/2000/svg" xmlns:xlink="http://www.w3.org/1999/xlink">
 <defs>
  <style type="text/css">
*{stroke-linecap:butt;stroke-linejoin:round;}
  </style>
 </defs>
 <g id="figure_1">
  <g id="patch_1">
   <path d="M 0 108 
L 576 108 
L 576 0 
L 0 0 
z
" style="fill:#ffffff;"/>
  </g>
  <g id="axes_1">
   <g id="patch_2">
    <path d="M 4.074135 87.704405 
L 573.48 87.704405 
L 573.48 16.528672 
L 4.074135 16.528672 
z
" style="fill:#ffffff;"/>
   </g>
   <g id="line2d_1">
    <path clip-path="url(#p8ccddcb5de)" d="M 106.275187 17.897436 
L 197.526127 86.335641 
L 197.526127 86.335641 
" style="fill:none;stroke:#ff0000;stroke-linecap:square;stroke-width:2;"/>
   </g>
   <g id="line2d_2">
    <path clip-path="url(#p8ccddcb5de)" d="M 288.777067 17.897436 
L 380.028007 86.335641 
L 380.028007 86.335641 
" style="fill:none;stroke:#ff0000;stroke-linecap:square;stroke-width:2;"/>
   </g>
   <g id="line2d_3">
    <path clip-path="url(#p8ccddcb5de)" d="M 471.278947 17.897436 
L 562.529887 86.335641 
L 562.529887 86.335641 
" style="fill:none;stroke:#ff0000;stroke-linecap:square;stroke-width:2;"/>
   </g>
   <g id="line2d_4">
    <path clip-path="url(#p8ccddcb5de)" d="M 15.024247 86.335641 
L 15.437512 86.025692 
L 15.894223 85.683159 
L 16.286282 85.389115 
L 16.820325 84.988583 
L 17.214719 84.692787 
L 17.97122 84.125412 
L 18.052611 84.064368 
L 18.748444 83.542493 
L 19.378807 83.069721 
L 19.625172 82.884948 
L 20.13164 82.505097 
L 20.412763 82.294254 
L 20.783508 82.016195 
L 21.47347 81.498724 
L 22.125059 81.010032 
L 22.132892 81.004158 
L 22.934364 80.403053 
L 23.331476 80.105219 
L 23.719009 79.81457 
L 24.308042 79.372795 
L 24.438575 79.274895 
L 25.146422 78.74401 
L 25.64388 78.370916 
L 26.193698 77.958553 
L 26.327165 77.858453 
L 27.072458 77.299483 
L 27.519618 76.964113 
L 28.042579 76.571893 
L 28.285077 76.390019 
L 28.888045 75.937792 
L 29.195446 75.707242 
L 29.474971 75.497598 
L 30.128547 75.007416 
L 30.81729 74.490859 
L 31.240859 74.173182 
L 31.318929 74.11463 
L 32.176872 73.471173 
L 32.241457 73.422734 
L 32.878071 72.945273 
L 33.443652 72.521087 
L 33.930133 72.156227 
L 34.370961 71.825606 
L 34.765932 71.529377 
L 35.272116 71.149739 
L 35.504572 70.975398 
L 36.125551 70.509663 
L 36.725329 70.05983 
L 37.130093 69.756257 
L 37.570371 69.426048 
L 38.027899 69.082902 
L 38.592652 68.659337 
L 39.016107 68.341746 
L 39.303429 68.126255 
L 39.95166 67.640081 
L 40.04799 67.567834 
L 40.849547 66.966667 
L 40.958935 66.884625 
L 41.650924 66.365633 
L 42.254499 65.912952 
L 42.448489 65.76746 
L 43.118688 65.264811 
L 43.410739 65.045772 
L 44.008345 64.597568 
L 44.255935 64.411875 
L 44.600978 64.153093 
L 45.460887 63.508161 
L 45.601778 63.402493 
L 46.345023 62.845059 
L 46.725708 62.559546 
L 46.96658 62.378892 
L 47.486019 61.989312 
L 48.151663 61.490079 
L 48.695265 61.082378 
L 49.141883 60.747414 
L 49.284606 60.640372 
" style="fill:none;stroke:#00ffff;stroke-linecap:square;stroke-width:2;"/>
   </g>
   <g id="line2d_5">
    <path clip-path="url(#p8ccddcb5de)" d="M 50.957228 59.385905 
L 51.173439 59.223747 
L 51.854728 58.71278 
L 52.315916 58.366889 
L 52.726777 58.058744 
L 53.295883 57.631914 
L 53.471078 57.500518 
L 54.178338 56.970073 
L 54.606571 56.648898 
L 54.801591 56.502633 
L 55.185106 56.214997 
L 55.961796 55.63248 
L 56.22077 55.438249 
L 56.546375 55.194045 
L 57.409383 54.546789 
L 57.847348 54.218316 
L 58.278024 53.895309 
L 58.561966 53.682352 
L 59.099578 53.279143 
L 59.622884 52.886664 
L 59.906178 52.674193 
L 60.467551 52.253163 
L 60.795471 52.007224 
L 61.300502 51.62845 
L 61.751562 51.290155 
L 62.0729 51.049152 
L 62.724766 50.560252 
L 63.183733 50.216027 
L 63.620896 49.888154 
L 64.265125 49.404983 
L 64.325735 49.359525 
L 65.184581 48.715391 
L 65.354495 48.587955 
L 66.0598 48.058976 
L 66.203235 47.9514 
L 66.898472 47.429972 
L 67.470607 47.000871 
L 67.799416 46.754265 
L 68.200784 46.453238 
L 68.775639 46.022097 
L 69.243796 45.670979 
L 69.453693 45.513557 
L 70.159072 44.984522 
L 70.495286 44.732362 
L 70.77983 44.518954 
L 71.228894 44.182156 
L 72.036864 43.576179 
L 72.356775 43.336245 
L 72.601317 43.152838 
L 73.355238 42.587398 
L 73.725641 42.309596 
L 73.968644 42.127344 
L 74.75636 41.536557 
L 75.200183 41.203689 
L 75.418159 41.040208 
L 76.203546 40.451167 
L 76.657628 40.110605 
L 76.772434 40.024501 
L 77.606608 39.39887 
L 77.666839 39.353697 
L 78.393732 38.808528 
L 78.799664 38.504078 
L 79.331623 38.105109 
L 79.794561 37.757905 
L 80.042782 37.57174 
L 80.602552 37.151913 
L 81.058092 36.810258 
L 81.285553 36.639661 
L 82.082955 36.04161 
L 82.424608 35.785371 
L 82.681237 35.592899 
L 83.413184 35.043938 
L 83.945743 34.644519 
L 84.390324 34.311084 
L 84.918139 33.915222 
L 85.031526 33.830182 
L 85.724584 33.310389 
L 85.962598 33.131878 
L 86.6051 32.650002 
L 86.964076 32.380769 
L 87.624978 31.885093 
L 87.966217 31.629164 
L 88.319567 31.364152 
L 89.018441 30.839996 
L 89.485643 30.489594 
L 89.838702 30.2248 
L 90.115305 30.017348 
L 90.524728 29.710281 
L 91.273261 29.14888 
L 91.409551 29.046663 
L 91.924621 28.66036 
L 92.655825 28.111958 
L 92.828179 27.982692 
L 93.292465 27.634478 
L 93.938245 27.150143 
L 94.493539 26.733672 
L 94.807737 26.498024 
L 95.286149 26.139214 
L 95.892411 25.684518 
L 96.227882 25.432915 
L 96.635372 25.127298 
L 97.150499 24.740953 
L 97.413904 24.543398 
L 98.191551 23.960164 
L 98.498802 23.729725 
L 99.084366 23.290552 
L 99.390333 23.061077 
L 99.985613 22.614617 
L 100.334792 22.352732 
L 100.703823 22.07596 
L 101.403545 21.551167 
L 101.816819 21.241212 
L 102.233391 20.928783 
L 102.832904 20.479148 
L 103.190909 20.210645 
L 103.453109 20.013995 
L 103.79515 19.757464 
L 104.536655 19.201335 
L 105.047029 18.818555 
L 105.213809 18.69347 
L 105.764763 18.280254 
L 106.275187 17.897436 
" style="fill:none;stroke:#00ffff;stroke-linecap:square;stroke-width:2;"/>
   </g>
   <g id="line2d_6">
    <path clip-path="url(#p8ccddcb5de)" d="M 197.526127 86.335641 
L 288.777067 17.897436 
L 288.777067 17.897436 
" style="fill:none;stroke:#00ffff;stroke-linecap:square;stroke-width:2;"/>
   </g>
   <g id="line2d_7">
    <path clip-path="url(#p8ccddcb5de)" d="M 380.028007 86.335641 
L 471.278947 17.897436 
L 471.278947 17.897436 
" style="fill:none;stroke:#00ffff;stroke-linecap:square;stroke-width:2;"/>
   </g>
   <g id="matplotlib.axis_1">
    <g id="xtick_1">
     <g id="line2d_8">
      <path clip-path="url(#p8ccddcb5de)" d="M 15.024247 87.704405 
L 15.024247 16.528672 
" style="fill:none;stroke:#000000;stroke-dasharray:0.5,0.825;stroke-dashoffset:0;stroke-width:0.5;"/>
     </g>
     <g id="line2d_9">
      <defs>
       <path d="M 0 0 
L 0 3.5 
" id="m3c16eeb91d" style="stroke:#000000;stroke-width:0.8;"/>
      </defs>
      <g>
       <use style="stroke:#000000;stroke-width:0.8;" x="15.024247" xlink:href="#m3c16eeb91d" y="86.335641"/>
      </g>
     </g>
    </g>
    <g id="xtick_2">
     <g id="line2d_10">
      <path clip-path="url(#p8ccddcb5de)" d="M 106.275187 87.704405 
L 106.275187 16.528672 
" style="fill:none;stroke:#000000;stroke-dasharray:0.5,0.825;stroke-dashoffset:0;stroke-width:0.5;"/>
     </g>
     <g id="line2d_11">
      <g>
       <use style="stroke:#000000;stroke-width:0.8;" x="106.275187" xlink:href="#m3c16eeb91d" y="86.335641"/>
      </g>
     </g>
     <g id="text_1">
      <!-- $f$ -->
      <defs>
       <path d="M 9.71875 -16.5 
Q 11.578125 -17.921875 14.203125 -17.921875 
Q 17.78125 -17.921875 20.015625 -10.015625 
Q 20.953125 -6.203125 25.09375 15.09375 
L 29.6875 39.59375 
L 21.09375 39.59375 
Q 20.125 39.59375 20.125 40.921875 
Q 20.515625 43.109375 21.390625 43.109375 
L 30.328125 43.109375 
L 31.5 49.609375 
Q 32.078125 52.640625 32.5625 54.8125 
Q 33.0625 56.984375 33.625 58.828125 
Q 34.1875 60.6875 35.296875 62.984375 
Q 37.015625 66.265625 39.921875 68.390625 
Q 42.828125 70.515625 46.1875 70.515625 
Q 48.390625 70.515625 50.46875 69.703125 
Q 52.546875 68.890625 53.859375 67.28125 
Q 55.171875 65.671875 55.171875 63.484375 
Q 55.171875 60.9375 53.484375 59.046875 
Q 51.8125 57.171875 49.421875 57.171875 
Q 47.796875 57.171875 46.65625 58.171875 
Q 45.515625 59.1875 45.515625 60.796875 
Q 45.515625 62.984375 47 64.625 
Q 48.484375 66.265625 50.6875 66.5 
Q 48.828125 67.921875 46.09375 67.921875 
Q 44.578125 67.921875 43.234375 66.5 
Q 41.890625 65.09375 41.5 63.484375 
Q 40.875 60.9375 38.71875 49.703125 
L 37.5 43.109375 
L 47.796875 43.109375 
Q 48.78125 43.109375 48.78125 41.796875 
Q 48.734375 41.546875 48.578125 40.9375 
Q 48.4375 40.328125 48.171875 39.953125 
Q 47.90625 39.59375 47.515625 39.59375 
L 36.8125 39.59375 
L 32.171875 15.1875 
Q 31.296875 9.859375 30.140625 4.359375 
Q 29 -1.125 26.921875 -6.90625 
Q 24.859375 -12.703125 21.625 -16.609375 
Q 18.40625 -20.515625 14.015625 -20.515625 
Q 10.640625 -20.515625 7.984375 -18.578125 
Q 5.328125 -16.65625 5.328125 -13.484375 
Q 5.328125 -10.9375 6.953125 -9.046875 
Q 8.59375 -7.171875 11.078125 -7.171875 
Q 12.75 -7.171875 13.859375 -8.171875 
Q 14.984375 -9.1875 14.984375 -10.796875 
Q 14.984375 -12.9375 13.390625 -14.71875 
Q 11.8125 -16.5 9.71875 -16.5 
z
" id="Cmmi10-66"/>
      </defs>
      <g transform="translate(103.825187 100.913766)scale(0.1 -0.1)">
       <use transform="translate(0 0.484375)" xlink:href="#Cmmi10-66"/>
      </g>
     </g>
    </g>
    <g id="xtick_3">
     <g id="line2d_12">
      <path clip-path="url(#p8ccddcb5de)" d="M 562.529887 87.704405 
L 562.529887 16.528672 
" style="fill:none;stroke:#000000;stroke-dasharray:0.5,0.825;stroke-dashoffset:0;stroke-width:0.5;"/>
     </g>
     <g id="line2d_13">
      <g>
       <use style="stroke:#000000;stroke-width:0.8;" x="562.529887" xlink:href="#m3c16eeb91d" y="86.335641"/>
      </g>
     </g>
     <g id="text_2">
      <!-- $1$ -->
      <defs>
       <path d="M 9.28125 0 
L 9.28125 3.515625 
Q 21.78125 3.515625 21.78125 6.6875 
L 21.78125 59.1875 
Q 16.609375 56.6875 8.6875 56.6875 
L 8.6875 60.203125 
Q 20.953125 60.203125 27.203125 66.609375 
L 28.609375 66.609375 
Q 28.953125 66.609375 29.265625 66.328125 
Q 29.59375 66.0625 29.59375 65.71875 
L 29.59375 6.6875 
Q 29.59375 3.515625 42.09375 3.515625 
L 42.09375 0 
z
" id="Cmr10-31"/>
      </defs>
      <g transform="translate(560.029887 100.934078)scale(0.1 -0.1)">
       <use transform="translate(0 0.390625)" xlink:href="#Cmr10-31"/>
      </g>
     </g>
    </g>
   </g>
   <g id="matplotlib.axis_2">
    <g id="ytick_1">
     <g id="line2d_14">
      <path clip-path="url(#p8ccddcb5de)" d="M 4.074135 86.335641 
L 573.48 86.335641 
" style="fill:none;stroke:#000000;stroke-dasharray:0.5,0.825;stroke-dashoffset:0;stroke-width:0.5;"/>
     </g>
     <g id="line2d_15">
      <defs>
       <path d="M 0 0 
L -3.5 0 
" id="m6ff482d00b" style="stroke:#000000;stroke-width:0.8;"/>
      </defs>
      <g>
       <use style="stroke:#000000;stroke-width:0.8;" x="15.024247" xlink:href="#m6ff482d00b" y="86.335641"/>
      </g>
     </g>
    </g>
    <g id="ytick_2">
     <g id="line2d_16">
      <path clip-path="url(#p8ccddcb5de)" d="M 4.074135 17.897436 
L 573.48 17.897436 
" style="fill:none;stroke:#000000;stroke-dasharray:0.5,0.825;stroke-dashoffset:0;stroke-width:0.5;"/>
     </g>
     <g id="line2d_17">
      <g>
       <use style="stroke:#000000;stroke-width:0.8;" x="15.024247" xlink:href="#m6ff482d00b" y="17.897436"/>
      </g>
     </g>
     <g id="text_3">
      <!-- $1$ -->
      <g transform="translate(3.024247 21.696655)scale(0.1 -0.1)">
       <use transform="translate(0 0.390625)" xlink:href="#Cmr10-31"/>
      </g>
     </g>
    </g>
   </g>
   <g id="patch_3">
    <path d="M 15.024247 87.704405 
L 15.024247 16.528672 
" style="fill:none;stroke:#000000;stroke-linecap:square;stroke-linejoin:miter;stroke-width:0.8;"/>
   </g>
   <g id="patch_4">
    <path d="M 4.074135 86.335641 
L 573.48 86.335641 
" style="fill:none;stroke:#000000;stroke-linecap:square;stroke-linejoin:miter;stroke-width:0.8;"/>
   </g>
  </g>
 </g>
 <defs>
  <clipPath id="p8ccddcb5de">
   <rect height="71.175733" width="569.405865" x="4.074135" y="16.528672"/>
  </clipPath>
 </defs>
</svg>
