<?xml version="1.0" encoding="utf-8" standalone="no"?>
<!DOCTYPE svg PUBLIC "-//W3C//DTD SVG 1.1//EN"
  "http://www.w3.org/Graphics/SVG/1.1/DTD/svg11.dtd">
<!-- Created with matplotlib (http://matplotlib.org/) -->
<svg height="108pt" version="1.1" viewBox="0 0 576 108" width="576pt" xmlns="http://www.w3.org/2000/svg" xmlns:xlink="http://www.w3.org/1999/xlink">
 <defs>
  <style type="text/css">
*{stroke-linecap:butt;stroke-linejoin:round;}
  </style>
 </defs>
 <g id="figure_1">
  <g id="patch_1">
   <path d="M 0 108 
L 576 108 
L 576 0 
L 0 0 
z
" style="fill:#ffffff;"/>
  </g>
  <g id="axes_1">
   <g id="patch_2">
    <path d="M 4.074135 87.704405 
L 573.48 87.704405 
L 573.48 16.528672 
L 4.074135 16.528672 
z
" style="fill:#ffffff;"/>
   </g>
   <g id="line2d_1">
    <path clip-path="url(#pcf16dc2c09)" d="M 34.57802 52.116538 
L 54.131793 52.116538 
L 54.131793 52.116538 
" style="fill:none;stroke:#ff0000;stroke-linecap:square;stroke-width:2;"/>
   </g>
   <g id="line2d_2">
    <path clip-path="url(#pcf16dc2c09)" d="M 73.685566 35.006987 
L 112.793112 35.006987 
L 112.793112 35.006987 
" style="fill:none;stroke:#ff0000;stroke-linecap:square;stroke-width:2;"/>
   </g>
   <g id="line2d_3">
    <path clip-path="url(#pcf16dc2c09)" d="M 132.346885 52.116538 
L 132.636509 52.116538 
L 132.675005 52.116538 
L 132.906176 52.116538 
L 133.073073 52.116538 
L 133.312653 52.116538 
L 133.586005 52.116538 
L 133.754157 52.116538 
L 133.917511 52.116538 
L 134.18447 52.116538 
L 134.284935 52.116538 
L 134.564729 52.116538 
L 134.727607 52.116538 
L 134.915517 52.116538 
L 135.150098 52.116538 
L 135.225844 52.116538 
L 135.496663 52.116538 
L 135.782602 52.116538 
L 135.798246 52.116538 
L 136.049584 52.116538 
L 136.199359 52.116538 
L 136.551356 52.116538 
L 136.653321 52.116538 
L 136.874987 52.116538 
L 137.077778 52.116538 
L 137.239706 52.116538 
L 137.432192 52.116538 
L 137.578487 52.116538 
L 137.831646 52.116538 
L 138.078516 52.116538 
L 138.267098 52.116538 
L 138.399399 52.116538 
L 138.705878 52.116538 
L 138.860652 52.116538 
L 138.996869 52.116538 
L 139.138135 52.116538 
L 139.346861 52.116538 
L 139.562388 52.116538 
L 139.811985 52.116538 
L 139.936658 52.116538 
L 140.243062 52.116538 
L 140.307612 52.116538 
L 140.598171 52.116538 
L 140.758105 52.116538 
L 140.980852 52.116538 
L 141.100445 52.116538 
L 141.437032 52.116538 
L 141.639949 52.116538 
L 141.729255 52.116538 
L 142.012166 52.116538 
L 142.163903 52.116538 
L 142.31968 52.116538 
L 142.628548 52.116538 
L 142.66499 52.116538 
L 142.910361 52.116538 
L 143.088638 52.116538 
L 143.441556 52.116538 
L 143.474818 52.116538 
L 143.653447 52.116538 
L 143.862261 52.116538 
L 144.08653 52.116538 
L 144.389627 52.116538 
L 144.600993 52.116538 
L 144.744266 52.116538 
L 144.892118 52.116538 
L 145.216575 52.116538 
L 145.242348 52.116538 
L 145.499539 52.116538 
L 145.80603 52.116538 
L 145.850415 52.116538 
L 146.098171 52.116538 
L 146.354387 52.116538 
L 146.420702 52.116538 
L 146.697957 52.116538 
L 146.962258 52.116538 
L 147.062051 52.116538 
L 147.27641 52.116538 
L 147.42675 52.116538 
L 147.742861 52.116538 
L 147.926112 52.116538 
L 148.053358 52.116538 
L 148.35768 52.116538 
L 148.393606 52.116538 
L 148.73918 52.116538 
L 148.917027 52.116538 
L 149.033667 52.116538 
L 149.223216 52.116538 
L 149.372002 52.116538 
L 149.729794 52.116538 
L 149.912999 52.116538 
L 150.011945 52.116538 
L 150.170327 52.116538 
L 150.451036 52.116538 
L 150.628403 52.116538 
L 150.873216 52.116538 
L 151.030328 52.116538 
L 151.289909 52.116538 
L 151.468126 52.116538 
L 151.678831 52.116538 
L 151.809073 52.116538 
L 152.062258 52.116538 
L 152.190166 52.116538 
L 152.34838 52.116538 
L 152.645069 52.116538 
L 152.784307 52.116538 
L 152.964048 52.116538 
L 153.222267 52.116538 
L 153.40379 52.116538 
L 153.599244 52.116538 
L 153.864832 52.116538 
L 154.057535 52.116538 
L 154.177236 52.116538 
L 154.28139 52.116538 
L 154.516668 52.116538 
L 154.755593 52.116538 
L 154.904956 52.116538 
L 155.100466 52.116538 
L 155.402022 52.116538 
L 155.490256 52.116538 
L 155.767366 52.116538 
L 156.006054 52.116538 
L 156.105072 52.116538 
L 156.321064 52.116538 
L 156.483562 52.116538 
L 156.67135 52.116538 
L 156.846654 52.116538 
" style="fill:none;stroke:#ff0000;stroke-linecap:square;stroke-width:2;"/>
   </g>
   <g id="line2d_4">
    <path clip-path="url(#pcf16dc2c09)" d="M 157.427026 52.116538 
L 157.629592 52.116538 
L 157.8638 52.116538 
L 158.138833 52.116538 
L 158.29967 52.116538 
L 158.442393 52.116538 
L 158.694123 52.116538 
L 158.966609 52.116538 
L 159.12966 52.116538 
L 159.269965 52.116538 
L 159.376021 52.116538 
L 159.679549 52.116538 
L 159.872364 52.116538 
L 160.001893 52.116538 
L 160.166271 52.116538 
L 160.405388 52.116538 
L 160.574186 52.116538 
L 160.760936 52.116538 
L 160.980439 52.116538 
L 161.325778 52.116538 
L 161.442104 52.116538 
L 161.695959 52.116538 
L 161.749862 52.116538 
L 162.097044 52.116538 
L 162.154016 52.116538 
L 162.393955 52.116538 
L 162.578998 52.116538 
L 162.733477 52.116538 
L 163.027463 52.116538 
L 163.110353 52.116538 
L 163.45748 52.116538 
L 163.634571 52.116538 
L 163.887919 52.116538 
L 164.017488 52.116538 
L 164.104015 52.116538 
L 164.324356 52.116538 
L 164.548099 52.116538 
L 164.774746 52.116538 
L 164.958531 52.116538 
L 165.153025 52.116538 
L 165.351451 52.116538 
L 165.52452 52.116538 
L 165.657143 52.116538 
L 165.910903 52.116538 
L 166.13751 52.116538 
L 166.250021 52.116538 
L 166.616769 52.116538 
L 166.757204 52.116538 
L 166.976505 52.116538 
L 167.072942 52.116538 
L 167.282414 52.116538 
L 167.489997 52.116538 
L 167.634479 52.116538 
L 167.949551 52.116538 
L 168.113459 52.116538 
L 168.295832 52.116538 
L 168.512838 52.116538 
L 168.757771 52.116538 
L 168.944641 52.116538 
L 169.189119 52.116538 
L 169.321454 52.116538 
L 169.58645 52.116538 
L 169.680577 52.116538 
L 169.931372 52.116538 
L 170.006918 52.116538 
L 170.192299 52.116538 
L 170.465278 52.116538 
L 170.638841 52.116538 
L 170.801431 52.116538 
L 171.029651 52.116538 
L 171.290688 52.116538 
L 171.45443 52.116538 
" style="fill:none;stroke:#ff0000;stroke-linecap:square;stroke-width:2;"/>
   </g>
   <g id="line2d_5">
    <path clip-path="url(#pcf16dc2c09)" d="M 191.008203 69.22609 
L 230.115749 69.22609 
L 230.115749 69.22609 
" style="fill:none;stroke:#ff0000;stroke-linecap:square;stroke-width:2;"/>
   </g>
   <g id="line2d_6">
    <path clip-path="url(#pcf16dc2c09)" d="M 249.669522 52.116538 
L 269.223294 52.116538 
L 269.223294 52.116538 
" style="fill:none;stroke:#ff0000;stroke-linecap:square;stroke-width:2;"/>
   </g>
   <g id="line2d_7">
    <path clip-path="url(#pcf16dc2c09)" d="M 347.438386 52.116538 
L 366.992159 52.116538 
L 366.992159 52.116538 
" style="fill:none;stroke:#ff0000;stroke-linecap:square;stroke-width:2;"/>
   </g>
   <g id="line2d_8">
    <path clip-path="url(#pcf16dc2c09)" d="M 406.099704 52.116538 
L 445.20725 52.116538 
L 445.20725 52.116538 
" style="fill:none;stroke:#ff0000;stroke-linecap:square;stroke-width:2;"/>
   </g>
   <g id="line2d_9">
    <path clip-path="url(#pcf16dc2c09)" d="M 484.314796 52.116538 
L 503.868569 52.116538 
L 503.868569 52.116538 
" style="fill:none;stroke:#ff0000;stroke-linecap:square;stroke-width:2;"/>
   </g>
   <g id="line2d_10">
    <path clip-path="url(#pcf16dc2c09)" d="M 112.793112 35.006987 
L 132.346885 52.116538 
L 132.346885 52.116538 
" style="fill:none;stroke:#cbff00;stroke-linecap:square;stroke-width:2;"/>
   </g>
   <g id="line2d_11">
    <path clip-path="url(#pcf16dc2c09)" d="M 171.45443 52.116538 
L 191.008203 69.22609 
L 191.008203 69.22609 
" style="fill:none;stroke:#cbff00;stroke-linecap:square;stroke-width:2;"/>
   </g>
   <g id="line2d_12">
    <path clip-path="url(#pcf16dc2c09)" d="M 327.884613 35.006987 
L 347.438386 52.116538 
L 347.438386 52.116538 
" style="fill:none;stroke:#cbff00;stroke-linecap:square;stroke-width:2;"/>
   </g>
   <g id="line2d_13">
    <path clip-path="url(#pcf16dc2c09)" d="M 366.992159 52.116538 
L 386.545932 69.22609 
L 386.545932 69.22609 
" style="fill:none;stroke:#cbff00;stroke-linecap:square;stroke-width:2;"/>
   </g>
   <g id="line2d_14">
    <path clip-path="url(#pcf16dc2c09)" d="M 464.761023 35.006987 
L 484.314796 52.116538 
L 484.314796 52.116538 
" style="fill:none;stroke:#cbff00;stroke-linecap:square;stroke-width:2;"/>
   </g>
   <g id="line2d_15">
    <path clip-path="url(#pcf16dc2c09)" d="M 503.868569 52.116538 
L 523.422342 69.22609 
L 523.422342 69.22609 
" style="fill:none;stroke:#cbff00;stroke-linecap:square;stroke-width:2;"/>
   </g>
   <g id="line2d_16">
    <path clip-path="url(#pcf16dc2c09)" d="M 288.777067 17.897436 
L 308.33084 69.22609 
L 308.33084 69.22609 
" style="fill:none;stroke:#00ff66;stroke-linecap:square;stroke-width:2;"/>
   </g>
   <g id="line2d_17">
    <path clip-path="url(#pcf16dc2c09)" d="M 542.976114 35.006987 
L 562.529887 86.335641 
L 562.529887 86.335641 
" style="fill:none;stroke:#00ff66;stroke-linecap:square;stroke-width:2;"/>
   </g>
   <g id="line2d_18">
    <path clip-path="url(#pcf16dc2c09)" d="M 15.024247 86.335641 
L 34.57802 52.116538 
L 34.57802 52.116538 
" style="fill:none;stroke:#0066ff;stroke-linecap:square;stroke-width:2;"/>
   </g>
   <g id="line2d_19">
    <path clip-path="url(#pcf16dc2c09)" d="M 269.223294 52.116538 
L 288.777067 17.897436 
L 288.777067 17.897436 
" style="fill:none;stroke:#0066ff;stroke-linecap:square;stroke-width:2;"/>
   </g>
   <g id="line2d_20">
    <path clip-path="url(#pcf16dc2c09)" d="M 308.33084 69.22609 
L 327.884613 35.006987 
L 327.884613 35.006987 
" style="fill:none;stroke:#0066ff;stroke-linecap:square;stroke-width:2;"/>
   </g>
   <g id="line2d_21">
    <path clip-path="url(#pcf16dc2c09)" d="M 523.422342 69.22609 
L 542.976114 35.006987 
L 542.976114 35.006987 
" style="fill:none;stroke:#0066ff;stroke-linecap:square;stroke-width:2;"/>
   </g>
   <g id="line2d_22">
    <path clip-path="url(#pcf16dc2c09)" d="M 54.131793 52.116538 
L 73.685566 35.006987 
L 73.685566 35.006987 
" style="fill:none;stroke:#cc00ff;stroke-linecap:square;stroke-width:2;"/>
   </g>
   <g id="line2d_23">
    <path clip-path="url(#pcf16dc2c09)" d="M 230.115749 69.22609 
L 249.669522 52.116538 
L 249.669522 52.116538 
" style="fill:none;stroke:#cc00ff;stroke-linecap:square;stroke-width:2;"/>
   </g>
   <g id="line2d_24">
    <path clip-path="url(#pcf16dc2c09)" d="M 386.545932 69.22609 
L 406.099704 52.116538 
L 406.099704 52.116538 
" style="fill:none;stroke:#cc00ff;stroke-linecap:square;stroke-width:2;"/>
   </g>
   <g id="line2d_25">
    <path clip-path="url(#pcf16dc2c09)" d="M 445.20725 52.116538 
L 464.761023 35.006987 
L 464.761023 35.006987 
" style="fill:none;stroke:#cc00ff;stroke-linecap:square;stroke-width:2;"/>
   </g>
   <g id="matplotlib.axis_1">
    <g id="xtick_1">
     <g id="line2d_26">
      <path clip-path="url(#pcf16dc2c09)" d="M 15.024247 87.704405 
L 15.024247 16.528672 
" style="fill:none;stroke:#000000;stroke-dasharray:0.5,0.825;stroke-dashoffset:0;stroke-width:0.5;"/>
     </g>
     <g id="line2d_27">
      <defs>
       <path d="M 0 0 
L 0 3.5 
" id="m730fbfdee4" style="stroke:#000000;stroke-width:0.8;"/>
      </defs>
      <g>
       <use style="stroke:#000000;stroke-width:0.8;" x="15.024247" xlink:href="#m730fbfdee4" y="86.335641"/>
      </g>
     </g>
    </g>
    <g id="xtick_2">
     <g id="line2d_28">
      <path clip-path="url(#pcf16dc2c09)" d="M 288.777067 87.704405 
L 288.777067 16.528672 
" style="fill:none;stroke:#000000;stroke-dasharray:0.5,0.825;stroke-dashoffset:0;stroke-width:0.5;"/>
     </g>
     <g id="line2d_29">
      <g>
       <use style="stroke:#000000;stroke-width:0.8;" x="288.777067" xlink:href="#m730fbfdee4" y="86.335641"/>
      </g>
     </g>
     <g id="text_1">
      <!-- $f$ -->
      <defs>
       <path d="M 9.71875 -16.5 
Q 11.578125 -17.921875 14.203125 -17.921875 
Q 17.78125 -17.921875 20.015625 -10.015625 
Q 20.953125 -6.203125 25.09375 15.09375 
L 29.6875 39.59375 
L 21.09375 39.59375 
Q 20.125 39.59375 20.125 40.921875 
Q 20.515625 43.109375 21.390625 43.109375 
L 30.328125 43.109375 
L 31.5 49.609375 
Q 32.078125 52.640625 32.5625 54.8125 
Q 33.0625 56.984375 33.625 58.828125 
Q 34.1875 60.6875 35.296875 62.984375 
Q 37.015625 66.265625 39.921875 68.390625 
Q 42.828125 70.515625 46.1875 70.515625 
Q 48.390625 70.515625 50.46875 69.703125 
Q 52.546875 68.890625 53.859375 67.28125 
Q 55.171875 65.671875 55.171875 63.484375 
Q 55.171875 60.9375 53.484375 59.046875 
Q 51.8125 57.171875 49.421875 57.171875 
Q 47.796875 57.171875 46.65625 58.171875 
Q 45.515625 59.1875 45.515625 60.796875 
Q 45.515625 62.984375 47 64.625 
Q 48.484375 66.265625 50.6875 66.5 
Q 48.828125 67.921875 46.09375 67.921875 
Q 44.578125 67.921875 43.234375 66.5 
Q 41.890625 65.09375 41.5 63.484375 
Q 40.875 60.9375 38.71875 49.703125 
L 37.5 43.109375 
L 47.796875 43.109375 
Q 48.78125 43.109375 48.78125 41.796875 
Q 48.734375 41.546875 48.578125 40.9375 
Q 48.4375 40.328125 48.171875 39.953125 
Q 47.90625 39.59375 47.515625 39.59375 
L 36.8125 39.59375 
L 32.171875 15.1875 
Q 31.296875 9.859375 30.140625 4.359375 
Q 29 -1.125 26.921875 -6.90625 
Q 24.859375 -12.703125 21.625 -16.609375 
Q 18.40625 -20.515625 14.015625 -20.515625 
Q 10.640625 -20.515625 7.984375 -18.578125 
Q 5.328125 -16.65625 5.328125 -13.484375 
Q 5.328125 -10.9375 6.953125 -9.046875 
Q 8.59375 -7.171875 11.078125 -7.171875 
Q 12.75 -7.171875 13.859375 -8.171875 
Q 14.984375 -9.1875 14.984375 -10.796875 
Q 14.984375 -12.9375 13.390625 -14.71875 
Q 11.8125 -16.5 9.71875 -16.5 
z
" id="Cmmi10-66"/>
      </defs>
      <g transform="translate(286.327067 100.913766)scale(0.1 -0.1)">
       <use transform="translate(0 0.484375)" xlink:href="#Cmmi10-66"/>
      </g>
     </g>
    </g>
    <g id="xtick_3">
     <g id="line2d_30">
      <path clip-path="url(#pcf16dc2c09)" d="M 562.529887 87.704405 
L 562.529887 16.528672 
" style="fill:none;stroke:#000000;stroke-dasharray:0.5,0.825;stroke-dashoffset:0;stroke-width:0.5;"/>
     </g>
     <g id="line2d_31">
      <g>
       <use style="stroke:#000000;stroke-width:0.8;" x="562.529887" xlink:href="#m730fbfdee4" y="86.335641"/>
      </g>
     </g>
     <g id="text_2">
      <!-- $1$ -->
      <defs>
       <path d="M 9.28125 0 
L 9.28125 3.515625 
Q 21.78125 3.515625 21.78125 6.6875 
L 21.78125 59.1875 
Q 16.609375 56.6875 8.6875 56.6875 
L 8.6875 60.203125 
Q 20.953125 60.203125 27.203125 66.609375 
L 28.609375 66.609375 
Q 28.953125 66.609375 29.265625 66.328125 
Q 29.59375 66.0625 29.59375 65.71875 
L 29.59375 6.6875 
Q 29.59375 3.515625 42.09375 3.515625 
L 42.09375 0 
z
" id="Cmr10-31"/>
      </defs>
      <g transform="translate(560.029887 100.934078)scale(0.1 -0.1)">
       <use transform="translate(0 0.390625)" xlink:href="#Cmr10-31"/>
      </g>
     </g>
    </g>
   </g>
   <g id="matplotlib.axis_2">
    <g id="ytick_1">
     <g id="line2d_32">
      <path clip-path="url(#pcf16dc2c09)" d="M 4.074135 86.335641 
L 573.48 86.335641 
" style="fill:none;stroke:#000000;stroke-dasharray:0.5,0.825;stroke-dashoffset:0;stroke-width:0.5;"/>
     </g>
     <g id="line2d_33">
      <defs>
       <path d="M 0 0 
L -3.5 0 
" id="m88a155e1d3" style="stroke:#000000;stroke-width:0.8;"/>
      </defs>
      <g>
       <use style="stroke:#000000;stroke-width:0.8;" x="15.024247" xlink:href="#m88a155e1d3" y="86.335641"/>
      </g>
     </g>
    </g>
    <g id="ytick_2">
     <g id="line2d_34">
      <path clip-path="url(#pcf16dc2c09)" d="M 4.074135 17.897436 
L 573.48 17.897436 
" style="fill:none;stroke:#000000;stroke-dasharray:0.5,0.825;stroke-dashoffset:0;stroke-width:0.5;"/>
     </g>
     <g id="line2d_35">
      <g>
       <use style="stroke:#000000;stroke-width:0.8;" x="15.024247" xlink:href="#m88a155e1d3" y="17.897436"/>
      </g>
     </g>
     <g id="text_3">
      <!-- $1$ -->
      <g transform="translate(3.024247 21.696655)scale(0.1 -0.1)">
       <use transform="translate(0 0.390625)" xlink:href="#Cmr10-31"/>
      </g>
     </g>
    </g>
   </g>
   <g id="patch_3">
    <path d="M 15.024247 87.704405 
L 15.024247 16.528672 
" style="fill:none;stroke:#000000;stroke-linecap:square;stroke-linejoin:miter;stroke-width:0.8;"/>
   </g>
   <g id="patch_4">
    <path d="M 4.074135 86.335641 
L 573.48 86.335641 
" style="fill:none;stroke:#000000;stroke-linecap:square;stroke-linejoin:miter;stroke-width:0.8;"/>
   </g>
  </g>
 </g>
 <defs>
  <clipPath id="pcf16dc2c09">
   <rect height="71.175733" width="569.405865" x="4.074135" y="16.528672"/>
  </clipPath>
 </defs>
</svg>
