<?xml version="1.0" encoding="utf-8" standalone="no"?>
<!DOCTYPE svg PUBLIC "-//W3C//DTD SVG 1.1//EN"
  "http://www.w3.org/Graphics/SVG/1.1/DTD/svg11.dtd">
<!-- Created with matplotlib (http://matplotlib.org/) -->
<svg height="108pt" version="1.1" viewBox="0 0 576 108" width="576pt" xmlns="http://www.w3.org/2000/svg" xmlns:xlink="http://www.w3.org/1999/xlink">
 <defs>
  <style type="text/css">
*{stroke-linecap:butt;stroke-linejoin:round;}
  </style>
 </defs>
 <g id="figure_1">
  <g id="patch_1">
   <path d="M 0 108 
L 576 108 
L 576 0 
L 0 0 
z
" style="fill:#ffffff;"/>
  </g>
  <g id="axes_1">
   <g id="patch_2">
    <path d="M 4.074135 87.704405 
L 573.48 87.704405 
L 573.48 16.528672 
L 4.074135 16.528672 
z
" style="fill:#ffffff;"/>
   </g>
   <g id="line2d_1">
    <path clip-path="url(#p64bdf0376d)" d="M 114.570727 63.522906 
L 139.457347 42.135967 
L 139.457347 42.135967 
" style="fill:none;stroke:#ff0000;stroke-linecap:square;stroke-width:2;"/>
   </g>
   <g id="line2d_2">
    <path clip-path="url(#p64bdf0376d)" d="M 239.003827 50.690743 
L 263.890447 29.303803 
L 263.890447 29.303803 
" style="fill:none;stroke:#ff0000;stroke-linecap:square;stroke-width:2;"/>
   </g>
   <g id="line2d_3">
    <path clip-path="url(#p64bdf0376d)" d="M 338.550307 74.929273 
L 363.436927 53.542334 
L 363.436927 53.542334 
" style="fill:none;stroke:#ff0000;stroke-linecap:square;stroke-width:2;"/>
   </g>
   <g id="line2d_4">
    <path clip-path="url(#p64bdf0376d)" d="M 462.983407 62.09711 
L 487.870027 40.710171 
L 487.870027 40.710171 
" style="fill:none;stroke:#ff0000;stroke-linecap:square;stroke-width:2;"/>
   </g>
   <g id="line2d_5">
    <path clip-path="url(#p64bdf0376d)" d="M 139.457347 42.135967 
L 164.343967 52.116538 
L 164.343967 52.116538 
" style="fill:none;stroke:#cbff00;stroke-linecap:square;stroke-width:2;"/>
   </g>
   <g id="line2d_6">
    <path clip-path="url(#p64bdf0376d)" d="M 214.117207 40.710171 
L 239.003827 50.690743 
L 239.003827 50.690743 
" style="fill:none;stroke:#cbff00;stroke-linecap:square;stroke-width:2;"/>
   </g>
   <g id="line2d_7">
    <path clip-path="url(#p64bdf0376d)" d="M 263.890447 29.303803 
L 288.777067 39.284375 
L 288.777067 39.284375 
" style="fill:none;stroke:#cbff00;stroke-linecap:square;stroke-width:2;"/>
   </g>
   <g id="line2d_8">
    <path clip-path="url(#p64bdf0376d)" d="M 313.663687 64.948702 
L 338.550307 74.929273 
L 338.550307 74.929273 
" style="fill:none;stroke:#cbff00;stroke-linecap:square;stroke-width:2;"/>
   </g>
   <g id="line2d_9">
    <path clip-path="url(#p64bdf0376d)" d="M 363.436927 53.542334 
L 388.323547 63.522906 
L 388.323547 63.522906 
" style="fill:none;stroke:#cbff00;stroke-linecap:square;stroke-width:2;"/>
   </g>
   <g id="line2d_10">
    <path clip-path="url(#p64bdf0376d)" d="M 438.096787 52.116538 
L 462.983407 62.09711 
L 462.983407 62.09711 
" style="fill:none;stroke:#cbff00;stroke-linecap:square;stroke-width:2;"/>
   </g>
   <g id="line2d_11">
    <path clip-path="url(#p64bdf0376d)" d="M 89.684107 69.22609 
L 89.756489 69.209502 
L 89.878839 69.181464 
L 90.021044 69.148875 
L 90.150727 69.119156 
L 90.365571 69.069921 
L 90.454481 69.049546 
L 90.593443 69.0177 
L 90.69587 68.994227 
L 90.842667 68.960587 
L 90.89786 68.947938 
L 91.014437 68.921222 
L 91.200082 68.878679 
L 91.267385 68.863255 
L 91.482184 68.81403 
L 91.601202 68.786755 
L 91.688263 68.766804 
L 91.8067 68.739662 
L 91.894398 68.719565 
L 92.028099 68.688925 
L 92.211516 68.646892 
L 92.249346 68.638223 
L 92.497094 68.581447 
L 92.589769 68.560209 
L 92.705604 68.533663 
L 92.847333 68.501184 
L 92.952409 68.477104 
L 93.097708 68.443806 
L 93.183578 68.424128 
L 93.372699 68.380787 
L 93.395815 68.37549 
L 93.518732 68.347321 
L 93.648486 68.317586 
L 93.811617 68.280202 
L 93.889616 68.262327 
L 94.107817 68.212323 
L 94.158584 68.200689 
L 94.282573 68.172275 
L 94.489833 68.124778 
L 94.603011 68.098841 
L 94.72478 68.070936 
L 94.827157 68.047474 
L 94.938805 68.021888 
L 95.104341 67.983953 
L 95.133394 67.977295 
L 95.301298 67.938817 
L 95.498113 67.893713 
L 95.593827 67.871779 
L 95.687425 67.850329 
L 95.75828 67.834092 
L 95.89585 67.802565 
L 96.032565 67.771235 
L 96.137847 67.747108 
L 96.277405 67.715126 
L 96.42422 67.681481 
L 96.563102 67.649653 
L 96.682925 67.622194 
L 96.869772 67.579375 
L 96.96035 67.558617 
L 97.098886 67.52687 
L 97.17243 67.510016 
L 97.29028 67.483008 
L 97.435331 67.449768 
L 97.5481 67.423925 
L 97.709924 67.38684 
L 97.790067 67.368474 
L 97.896623 67.344055 
L 98.098241 67.297851 
L 98.225874 67.268602 
L 98.286571 67.254692 
L 98.417804 67.224617 
L 98.551137 67.194062 
L 98.649925 67.171423 
L 98.833301 67.129399 
L 98.964692 67.099289 
L 99.101646 67.067904 
L 99.24574 67.034882 
L 99.356264 67.009554 
L 99.432499 66.992083 
L 99.605434 66.952452 
L 99.69678 66.931519 
L 99.870857 66.891626 
L 99.96729 66.869527 
L 100.062497 66.847709 
L 100.188295 66.81888 
L 100.297793 66.793787 
L 100.380731 66.77478 
L 100.519621 66.742951 
L 100.702731 66.700988 
L 100.777295 66.683901 
L 100.956397 66.642857 
L 101.08244 66.613972 
L 101.203184 66.586301 
L 101.323463 66.558737 
L 101.49665 66.519049 
L 101.565023 66.50338 
L 101.745228 66.462083 
L 101.826608 66.443433 
L 101.942146 66.416956 
L 102.074012 66.386737 
L 102.185692 66.361143 
L 102.279015 66.339757 
L 102.379157 66.316807 
L 102.611023 66.263672 
L 102.631942 66.258878 
L 102.863749 66.205755 
L 102.95664 66.184468 
L 103.118156 66.147454 
L 103.208434 66.126765 
L 103.332429 66.098349 
L 103.490025 66.062234 
L 103.537002 66.051468 
L 103.633323 66.029394 
L 103.780513 65.995663 
" style="fill:none;stroke:#00ff66;stroke-linecap:square;stroke-width:2;"/>
   </g>
   <g id="line2d_12">
    <path clip-path="url(#p64bdf0376d)" d="M 104.246013 65.888986 
L 104.283966 65.880289 
L 104.409947 65.851418 
L 104.531312 65.823605 
L 104.744439 65.774764 
L 104.814548 65.758697 
L 104.879408 65.743833 
L 105.049461 65.704863 
L 105.168916 65.677488 
L 105.282528 65.651452 
L 105.44809 65.61351 
L 105.511666 65.598941 
L 105.653067 65.566537 
L 105.782069 65.536974 
L 105.896286 65.510799 
L 106.047247 65.476203 
L 106.15691 65.451073 
L 106.346448 65.407637 
L 106.451384 65.383589 
L 106.590162 65.351785 
L 106.641899 65.339929 
L 106.838685 65.294832 
L 106.985238 65.261247 
L 107.128031 65.228524 
L 107.157703 65.221724 
L 107.370725 65.172907 
L 107.395219 65.167293 
L 107.544524 65.133077 
L 107.68451 65.100998 
L 107.827257 65.068285 
L 107.889662 65.053983 
L 108.034426 65.020808 
L 108.230592 64.975854 
L 108.277946 64.965002 
L 108.481783 64.918289 
L 108.527193 64.907883 
L 108.750238 64.856768 
L 108.798629 64.845678 
L 108.948341 64.81137 
L 109.051795 64.787661 
L 109.191489 64.755648 
L 109.340843 64.721421 
L 109.463428 64.693329 
L 109.525414 64.679124 
L 109.747288 64.628277 
L 109.87287 64.599498 
L 109.956694 64.580289 
L 110.044635 64.560135 
L 110.189006 64.52705 
L 110.373256 64.484827 
L 110.394424 64.479975 
L 110.595716 64.433846 
L 110.716517 64.406162 
L 110.761744 64.395798 
L 110.885097 64.36753 
L 111.104458 64.317259 
L 111.176248 64.300808 
L 111.350069 64.260973 
L 111.399971 64.249538 
L 111.592936 64.205316 
L 111.651153 64.191975 
L 111.878748 64.139818 
L 112.001438 64.111702 
L 112.115608 64.085538 
L 112.217235 64.062248 
L 112.286112 64.046464 
L 112.443663 64.010358 
L 112.514494 63.994126 
L 112.748239 63.940559 
L 112.864905 63.913824 
L 112.922399 63.900648 
L 113.103039 63.859251 
L 113.246772 63.826312 
L 113.287412 63.816999 
L 113.441155 63.781766 
L 113.583175 63.74922 
L 113.71495 63.719022 
L 113.786132 63.702709 
L 113.981692 63.657893 
L 114.053347 63.641472 
L 114.200485 63.607753 
L 114.286338 63.588079 
L 114.44034 63.552786 
L 114.570727 63.522906 
" style="fill:none;stroke:#00ff66;stroke-linecap:square;stroke-width:2;"/>
   </g>
   <g id="line2d_13">
    <path clip-path="url(#p64bdf0376d)" d="M 164.343967 52.116538 
L 214.117207 40.710171 
L 214.117207 40.710171 
" style="fill:none;stroke:#00ff66;stroke-linecap:square;stroke-width:2;"/>
   </g>
   <g id="line2d_14">
    <path clip-path="url(#p64bdf0376d)" d="M 388.323547 63.522906 
L 438.096787 52.116538 
L 438.096787 52.116538 
" style="fill:none;stroke:#00ff66;stroke-linecap:square;stroke-width:2;"/>
   </g>
   <g id="line2d_15">
    <path clip-path="url(#p64bdf0376d)" d="M 487.870027 40.710171 
L 512.756647 35.006987 
L 512.756647 35.006987 
" style="fill:none;stroke:#00ff66;stroke-linecap:square;stroke-width:2;"/>
   </g>
   <g id="line2d_16">
    <path clip-path="url(#p64bdf0376d)" d="M 39.910867 17.897436 
L 89.684107 69.22609 
L 89.684107 69.22609 
" style="fill:none;stroke:#0066ff;stroke-linecap:square;stroke-width:2;"/>
   </g>
   <g id="line2d_17">
    <path clip-path="url(#p64bdf0376d)" d="M 288.777067 39.284375 
L 313.663687 64.948702 
L 313.663687 64.948702 
" style="fill:none;stroke:#0066ff;stroke-linecap:square;stroke-width:2;"/>
   </g>
   <g id="line2d_18">
    <path clip-path="url(#p64bdf0376d)" d="M 512.756647 35.006987 
L 562.529887 86.335641 
L 562.529887 86.335641 
" style="fill:none;stroke:#0066ff;stroke-linecap:square;stroke-width:2;"/>
   </g>
   <g id="line2d_19">
    <path clip-path="url(#p64bdf0376d)" d="M 15.024247 86.335641 
L 39.910867 17.897436 
L 39.910867 17.897436 
" style="fill:none;stroke:#cc00ff;stroke-linecap:square;stroke-width:2;"/>
   </g>
   <g id="matplotlib.axis_1">
    <g id="xtick_1">
     <g id="line2d_20">
      <path clip-path="url(#p64bdf0376d)" d="M 15.024247 87.704405 
L 15.024247 16.528672 
" style="fill:none;stroke:#000000;stroke-dasharray:0.5,0.825;stroke-dashoffset:0;stroke-width:0.5;"/>
     </g>
     <g id="line2d_21">
      <defs>
       <path d="M 0 0 
L 0 3.5 
" id="me67e0a78d2" style="stroke:#000000;stroke-width:0.8;"/>
      </defs>
      <g>
       <use style="stroke:#000000;stroke-width:0.8;" x="15.024247" xlink:href="#me67e0a78d2" y="86.335641"/>
      </g>
     </g>
    </g>
    <g id="xtick_2">
     <g id="line2d_22">
      <path clip-path="url(#p64bdf0376d)" d="M 39.910867 87.704405 
L 39.910867 16.528672 
" style="fill:none;stroke:#000000;stroke-dasharray:0.5,0.825;stroke-dashoffset:0;stroke-width:0.5;"/>
     </g>
     <g id="line2d_23">
      <g>
       <use style="stroke:#000000;stroke-width:0.8;" x="39.910867" xlink:href="#me67e0a78d2" y="86.335641"/>
      </g>
     </g>
     <g id="text_1">
      <!-- $f$ -->
      <defs>
       <path d="M 9.71875 -16.5 
Q 11.578125 -17.921875 14.203125 -17.921875 
Q 17.78125 -17.921875 20.015625 -10.015625 
Q 20.953125 -6.203125 25.09375 15.09375 
L 29.6875 39.59375 
L 21.09375 39.59375 
Q 20.125 39.59375 20.125 40.921875 
Q 20.515625 43.109375 21.390625 43.109375 
L 30.328125 43.109375 
L 31.5 49.609375 
Q 32.078125 52.640625 32.5625 54.8125 
Q 33.0625 56.984375 33.625 58.828125 
Q 34.1875 60.6875 35.296875 62.984375 
Q 37.015625 66.265625 39.921875 68.390625 
Q 42.828125 70.515625 46.1875 70.515625 
Q 48.390625 70.515625 50.46875 69.703125 
Q 52.546875 68.890625 53.859375 67.28125 
Q 55.171875 65.671875 55.171875 63.484375 
Q 55.171875 60.9375 53.484375 59.046875 
Q 51.8125 57.171875 49.421875 57.171875 
Q 47.796875 57.171875 46.65625 58.171875 
Q 45.515625 59.1875 45.515625 60.796875 
Q 45.515625 62.984375 47 64.625 
Q 48.484375 66.265625 50.6875 66.5 
Q 48.828125 67.921875 46.09375 67.921875 
Q 44.578125 67.921875 43.234375 66.5 
Q 41.890625 65.09375 41.5 63.484375 
Q 40.875 60.9375 38.71875 49.703125 
L 37.5 43.109375 
L 47.796875 43.109375 
Q 48.78125 43.109375 48.78125 41.796875 
Q 48.734375 41.546875 48.578125 40.9375 
Q 48.4375 40.328125 48.171875 39.953125 
Q 47.90625 39.59375 47.515625 39.59375 
L 36.8125 39.59375 
L 32.171875 15.1875 
Q 31.296875 9.859375 30.140625 4.359375 
Q 29 -1.125 26.921875 -6.90625 
Q 24.859375 -12.703125 21.625 -16.609375 
Q 18.40625 -20.515625 14.015625 -20.515625 
Q 10.640625 -20.515625 7.984375 -18.578125 
Q 5.328125 -16.65625 5.328125 -13.484375 
Q 5.328125 -10.9375 6.953125 -9.046875 
Q 8.59375 -7.171875 11.078125 -7.171875 
Q 12.75 -7.171875 13.859375 -8.171875 
Q 14.984375 -9.1875 14.984375 -10.796875 
Q 14.984375 -12.9375 13.390625 -14.71875 
Q 11.8125 -16.5 9.71875 -16.5 
z
" id="Cmmi10-66"/>
      </defs>
      <g transform="translate(37.460867 100.913766)scale(0.1 -0.1)">
       <use transform="translate(0 0.484375)" xlink:href="#Cmmi10-66"/>
      </g>
     </g>
    </g>
    <g id="xtick_3">
     <g id="line2d_24">
      <path clip-path="url(#p64bdf0376d)" d="M 562.529887 87.704405 
L 562.529887 16.528672 
" style="fill:none;stroke:#000000;stroke-dasharray:0.5,0.825;stroke-dashoffset:0;stroke-width:0.5;"/>
     </g>
     <g id="line2d_25">
      <g>
       <use style="stroke:#000000;stroke-width:0.8;" x="562.529887" xlink:href="#me67e0a78d2" y="86.335641"/>
      </g>
     </g>
     <g id="text_2">
      <!-- $1$ -->
      <defs>
       <path d="M 9.28125 0 
L 9.28125 3.515625 
Q 21.78125 3.515625 21.78125 6.6875 
L 21.78125 59.1875 
Q 16.609375 56.6875 8.6875 56.6875 
L 8.6875 60.203125 
Q 20.953125 60.203125 27.203125 66.609375 
L 28.609375 66.609375 
Q 28.953125 66.609375 29.265625 66.328125 
Q 29.59375 66.0625 29.59375 65.71875 
L 29.59375 6.6875 
Q 29.59375 3.515625 42.09375 3.515625 
L 42.09375 0 
z
" id="Cmr10-31"/>
      </defs>
      <g transform="translate(560.029887 100.934078)scale(0.1 -0.1)">
       <use transform="translate(0 0.390625)" xlink:href="#Cmr10-31"/>
      </g>
     </g>
    </g>
   </g>
   <g id="matplotlib.axis_2">
    <g id="ytick_1">
     <g id="line2d_26">
      <path clip-path="url(#p64bdf0376d)" d="M 4.074135 86.335641 
L 573.48 86.335641 
" style="fill:none;stroke:#000000;stroke-dasharray:0.5,0.825;stroke-dashoffset:0;stroke-width:0.5;"/>
     </g>
     <g id="line2d_27">
      <defs>
       <path d="M 0 0 
L -3.5 0 
" id="m73f147a70a" style="stroke:#000000;stroke-width:0.8;"/>
      </defs>
      <g>
       <use style="stroke:#000000;stroke-width:0.8;" x="15.024247" xlink:href="#m73f147a70a" y="86.335641"/>
      </g>
     </g>
    </g>
    <g id="ytick_2">
     <g id="line2d_28">
      <path clip-path="url(#p64bdf0376d)" d="M 4.074135 17.897436 
L 573.48 17.897436 
" style="fill:none;stroke:#000000;stroke-dasharray:0.5,0.825;stroke-dashoffset:0;stroke-width:0.5;"/>
     </g>
     <g id="line2d_29">
      <g>
       <use style="stroke:#000000;stroke-width:0.8;" x="15.024247" xlink:href="#m73f147a70a" y="17.897436"/>
      </g>
     </g>
     <g id="text_3">
      <!-- $1$ -->
      <g transform="translate(3.024247 21.696655)scale(0.1 -0.1)">
       <use transform="translate(0 0.390625)" xlink:href="#Cmr10-31"/>
      </g>
     </g>
    </g>
   </g>
   <g id="patch_3">
    <path d="M 15.024247 87.704405 
L 15.024247 16.528672 
" style="fill:none;stroke:#000000;stroke-linecap:square;stroke-linejoin:miter;stroke-width:0.8;"/>
   </g>
   <g id="patch_4">
    <path d="M 4.074135 86.335641 
L 573.48 86.335641 
" style="fill:none;stroke:#000000;stroke-linecap:square;stroke-linejoin:miter;stroke-width:0.8;"/>
   </g>
  </g>
 </g>
 <defs>
  <clipPath id="p64bdf0376d">
   <rect height="71.175733" width="569.405865" x="4.074135" y="16.528672"/>
  </clipPath>
 </defs>
</svg>
