<?xml version="1.0" encoding="utf-8" standalone="no"?>
<!DOCTYPE svg PUBLIC "-//W3C//DTD SVG 1.1//EN"
  "http://www.w3.org/Graphics/SVG/1.1/DTD/svg11.dtd">
<!-- Created with matplotlib (http://matplotlib.org/) -->
<svg height="108pt" version="1.1" viewBox="0 0 576 108" width="576pt" xmlns="http://www.w3.org/2000/svg" xmlns:xlink="http://www.w3.org/1999/xlink">
 <defs>
  <style type="text/css">
*{stroke-linecap:butt;stroke-linejoin:round;}
  </style>
 </defs>
 <g id="figure_1">
  <g id="patch_1">
   <path d="M 0 108 
L 576 108 
L 576 0 
L 0 0 
z
" style="fill:#ffffff;"/>
  </g>
  <g id="axes_1">
   <g id="patch_2">
    <path d="M 14.874135 86.354405 
L 562.68 86.354405 
L 562.68 17.878672 
L 14.874135 17.878672 
z
" style="fill:#ffffff;"/>
   </g>
   <g id="line2d_1">
    <path clip-path="url(#p91f596d9b1)" d="M 25.408863 85.037564 
L 376.566469 19.195513 
L 376.566469 19.195513 
" style="fill:none;stroke:#000000;stroke-linecap:square;stroke-width:2;"/>
   </g>
   <g id="line2d_2">
    <path clip-path="url(#p91f596d9b1)" d="M 376.566469 68.577051 
L 552.145272 35.656026 
L 552.145272 35.656026 
" style="fill:none;stroke:#000000;stroke-linecap:square;stroke-width:2;"/>
   </g>
   <g id="line2d_3">
    <path clip-path="url(#p91f596d9b1)" d="M 25.408863 85.037564 
L 376.566469 19.195513 
L 376.566469 19.195513 
" style="fill:none;stroke:#ff0000;stroke-linecap:square;stroke-width:2;"/>
   </g>
   <g id="line2d_4">
    <path clip-path="url(#p91f596d9b1)" d="M 376.566469 68.577051 
L 552.145272 35.656026 
L 552.145272 35.656026 
" style="fill:none;stroke:#ff0000;stroke-linecap:square;stroke-width:2;"/>
   </g>
   <g id="PathCollection_1">
    <path clip-path="url(#p91f596d9b1)" d="M 376.566469 21.593429 
C 377.202404 21.593429 377.812378 21.340769 378.262051 20.891095 
C 378.711725 20.441422 378.964385 19.831448 378.964385 19.195513 
C 378.964385 18.559578 378.711725 17.949604 378.262051 17.49993 
C 377.812378 17.050257 377.202404 16.797597 376.566469 16.797597 
C 375.930534 16.797597 375.32056 17.050257 374.870886 17.49993 
C 374.421213 17.949604 374.168553 18.559578 374.168553 19.195513 
C 374.168553 19.831448 374.421213 20.441422 374.870886 20.891095 
C 375.32056 21.340769 375.930534 21.593429 376.566469 21.593429 
z
"/>
   </g>
   <g id="PathCollection_2">
    <path clip-path="url(#p91f596d9b1)" d="M 376.566469 70.974967 
C 377.202404 70.974967 377.812378 70.722307 378.262051 70.272634 
C 378.711725 69.82296 378.964385 69.212986 378.964385 68.577051 
C 378.964385 67.941117 378.711725 67.331142 378.262051 66.881469 
C 377.812378 66.431795 377.202404 66.179135 376.566469 66.179135 
C 375.930534 66.179135 375.32056 66.431795 374.870886 66.881469 
C 374.421213 67.331142 374.168553 67.941117 374.168553 68.577051 
C 374.168553 69.212986 374.421213 69.82296 374.870886 70.272634 
C 375.32056 70.722307 375.930534 70.974967 376.566469 70.974967 
z
"/>
   </g>
   <g id="PathCollection_3">
    <path clip-path="url(#p91f596d9b1)" d="M 376.566469 70.15819 
C 376.985792 70.15819 377.387997 69.991591 377.684503 69.695085 
C 377.981009 69.398579 378.147608 68.996374 378.147608 68.577051 
C 378.147608 68.157728 377.981009 67.755523 377.684503 67.459017 
C 377.387997 67.162511 376.985792 66.995912 376.566469 66.995912 
C 376.147146 66.995912 375.744941 67.162511 375.448435 67.459017 
C 375.151929 67.755523 374.98533 68.157728 374.98533 68.577051 
C 374.98533 68.996374 375.151929 69.398579 375.448435 69.695085 
C 375.744941 69.991591 376.147146 70.15819 376.566469 70.15819 
z
" style="fill:#ffffff;"/>
   </g>
   <g id="PathCollection_4">
    <path clip-path="url(#p91f596d9b1)" d="M 552.145272 38.053941 
C 552.781207 38.053941 553.391181 37.801282 553.840854 37.351608 
C 554.290528 36.901934 554.543188 36.29196 554.543188 35.656026 
C 554.543188 35.020091 554.290528 34.410117 553.840854 33.960443 
C 553.391181 33.510769 552.781207 33.25811 552.145272 33.25811 
C 551.509337 33.25811 550.899363 33.510769 550.449689 33.960443 
C 550.000016 34.410117 549.747356 35.020091 549.747356 35.656026 
C 549.747356 36.29196 550.000016 36.901934 550.449689 37.351608 
C 550.899363 37.801282 551.509337 38.053941 552.145272 38.053941 
z
"/>
   </g>
   <g id="PathCollection_5">
    <path clip-path="url(#p91f596d9b1)" d="M 552.145272 37.237165 
C 552.564595 37.237165 552.9668 37.070566 553.263306 36.77406 
C 553.559812 36.477554 553.726411 36.075349 553.726411 35.656026 
C 553.726411 35.236703 553.559812 34.834498 553.263306 34.537992 
C 552.9668 34.241486 552.564595 34.074887 552.145272 34.074887 
C 551.725949 34.074887 551.323744 34.241486 551.027238 34.537992 
C 550.730732 34.834498 550.564133 35.236703 550.564133 35.656026 
C 550.564133 36.075349 550.730732 36.477554 551.027238 36.77406 
C 551.323744 37.070566 551.725949 37.237165 552.145272 37.237165 
z
" style="fill:#ffffff;"/>
   </g>
   <g id="PathCollection_6">
    <path clip-path="url(#p91f596d9b1)" d="M 552.145272 87.43548 
C 552.781207 87.43548 553.391181 87.18282 553.840854 86.733147 
C 554.290528 86.283473 554.543188 85.673499 554.543188 85.037564 
C 554.543188 84.401629 554.290528 83.791655 553.840854 83.341982 
C 553.391181 82.892308 552.781207 82.639648 552.145272 82.639648 
C 551.509337 82.639648 550.899363 82.892308 550.449689 83.341982 
C 550.000016 83.791655 549.747356 84.401629 549.747356 85.037564 
C 549.747356 85.673499 550.000016 86.283473 550.449689 86.733147 
C 550.899363 87.18282 551.509337 87.43548 552.145272 87.43548 
z
"/>
   </g>
   <g id="PathCollection_7">
    <path clip-path="url(#p91f596d9b1)" d="M 552.145272 87.43548 
C 552.781207 87.43548 553.391181 87.18282 553.840854 86.733147 
C 554.290528 86.283473 554.543188 85.673499 554.543188 85.037564 
C 554.543188 84.401629 554.290528 83.791655 553.840854 83.341982 
C 553.391181 82.892308 552.781207 82.639648 552.145272 82.639648 
C 551.509337 82.639648 550.899363 82.892308 550.449689 83.341982 
C 550.000016 83.791655 549.747356 84.401629 549.747356 85.037564 
C 549.747356 85.673499 550.000016 86.283473 550.449689 86.733147 
C 550.899363 87.18282 551.509337 87.43548 552.145272 87.43548 
z
"/>
   </g>
   <g id="matplotlib.axis_1">
    <g id="xtick_1">
     <g id="line2d_5">
      <path clip-path="url(#p91f596d9b1)" d="M 25.408863 86.354405 
L 25.408863 17.878672 
" style="fill:none;stroke:#000000;stroke-dasharray:0.5,0.825;stroke-dashoffset:0;stroke-width:0.5;"/>
     </g>
     <g id="line2d_6">
      <defs>
       <path d="M 0 0 
L 0 3.5 
" id="m2e18721176" style="stroke:#000000;stroke-width:0.8;"/>
      </defs>
      <g>
       <use style="stroke:#000000;stroke-width:0.8;" x="25.408863" xlink:href="#m2e18721176" y="85.037564"/>
      </g>
     </g>
    </g>
    <g id="xtick_2">
     <g id="line2d_7">
      <path clip-path="url(#p91f596d9b1)" d="M 376.566469 86.354405 
L 376.566469 17.878672 
" style="fill:none;stroke:#000000;stroke-dasharray:0.5,0.825;stroke-dashoffset:0;stroke-width:0.5;"/>
     </g>
     <g id="line2d_8">
      <g>
       <use style="stroke:#000000;stroke-width:0.8;" x="376.566469" xlink:href="#m2e18721176" y="85.037564"/>
      </g>
     </g>
     <g id="text_1">
      <!-- $f$ -->
      <defs>
       <path d="M 9.71875 -16.5 
Q 11.578125 -17.921875 14.203125 -17.921875 
Q 17.78125 -17.921875 20.015625 -10.015625 
Q 20.953125 -6.203125 25.09375 15.09375 
L 29.6875 39.59375 
L 21.09375 39.59375 
Q 20.125 39.59375 20.125 40.921875 
Q 20.515625 43.109375 21.390625 43.109375 
L 30.328125 43.109375 
L 31.5 49.609375 
Q 32.078125 52.640625 32.5625 54.8125 
Q 33.0625 56.984375 33.625 58.828125 
Q 34.1875 60.6875 35.296875 62.984375 
Q 37.015625 66.265625 39.921875 68.390625 
Q 42.828125 70.515625 46.1875 70.515625 
Q 48.390625 70.515625 50.46875 69.703125 
Q 52.546875 68.890625 53.859375 67.28125 
Q 55.171875 65.671875 55.171875 63.484375 
Q 55.171875 60.9375 53.484375 59.046875 
Q 51.8125 57.171875 49.421875 57.171875 
Q 47.796875 57.171875 46.65625 58.171875 
Q 45.515625 59.1875 45.515625 60.796875 
Q 45.515625 62.984375 47 64.625 
Q 48.484375 66.265625 50.6875 66.5 
Q 48.828125 67.921875 46.09375 67.921875 
Q 44.578125 67.921875 43.234375 66.5 
Q 41.890625 65.09375 41.5 63.484375 
Q 40.875 60.9375 38.71875 49.703125 
L 37.5 43.109375 
L 47.796875 43.109375 
Q 48.78125 43.109375 48.78125 41.796875 
Q 48.734375 41.546875 48.578125 40.9375 
Q 48.4375 40.328125 48.171875 39.953125 
Q 47.90625 39.59375 47.515625 39.59375 
L 36.8125 39.59375 
L 32.171875 15.1875 
Q 31.296875 9.859375 30.140625 4.359375 
Q 29 -1.125 26.921875 -6.90625 
Q 24.859375 -12.703125 21.625 -16.609375 
Q 18.40625 -20.515625 14.015625 -20.515625 
Q 10.640625 -20.515625 7.984375 -18.578125 
Q 5.328125 -16.65625 5.328125 -13.484375 
Q 5.328125 -10.9375 6.953125 -9.046875 
Q 8.59375 -7.171875 11.078125 -7.171875 
Q 12.75 -7.171875 13.859375 -8.171875 
Q 14.984375 -9.1875 14.984375 -10.796875 
Q 14.984375 -12.9375 13.390625 -14.71875 
Q 11.8125 -16.5 9.71875 -16.5 
z
" id="Cmmi10-66"/>
      </defs>
      <g transform="translate(374.116469 99.615689)scale(0.1 -0.1)">
       <use transform="translate(0 0.484375)" xlink:href="#Cmmi10-66"/>
      </g>
     </g>
    </g>
    <g id="xtick_3">
     <g id="line2d_9">
      <path clip-path="url(#p91f596d9b1)" d="M 552.145272 86.354405 
L 552.145272 17.878672 
" style="fill:none;stroke:#000000;stroke-dasharray:0.5,0.825;stroke-dashoffset:0;stroke-width:0.5;"/>
     </g>
     <g id="line2d_10">
      <g>
       <use style="stroke:#000000;stroke-width:0.8;" x="552.145272" xlink:href="#m2e18721176" y="85.037564"/>
      </g>
     </g>
     <g id="text_2">
      <!-- $1$ -->
      <defs>
       <path d="M 9.28125 0 
L 9.28125 3.515625 
Q 21.78125 3.515625 21.78125 6.6875 
L 21.78125 59.1875 
Q 16.609375 56.6875 8.6875 56.6875 
L 8.6875 60.203125 
Q 20.953125 60.203125 27.203125 66.609375 
L 28.609375 66.609375 
Q 28.953125 66.609375 29.265625 66.328125 
Q 29.59375 66.0625 29.59375 65.71875 
L 29.59375 6.6875 
Q 29.59375 3.515625 42.09375 3.515625 
L 42.09375 0 
z
" id="Cmr10-31"/>
      </defs>
      <g transform="translate(549.645272 99.636002)scale(0.1 -0.1)">
       <use transform="translate(0 0.390625)" xlink:href="#Cmr10-31"/>
      </g>
     </g>
    </g>
   </g>
   <g id="matplotlib.axis_2">
    <g id="ytick_1">
     <g id="line2d_11">
      <path clip-path="url(#p91f596d9b1)" d="M 14.874135 85.037564 
L 562.68 85.037564 
" style="fill:none;stroke:#000000;stroke-dasharray:0.5,0.825;stroke-dashoffset:0;stroke-width:0.5;"/>
     </g>
     <g id="line2d_12">
      <defs>
       <path d="M 0 0 
L -3.5 0 
" id="me4738bb7b4" style="stroke:#000000;stroke-width:0.8;"/>
      </defs>
      <g>
       <use style="stroke:#000000;stroke-width:0.8;" x="25.408863" xlink:href="#me4738bb7b4" y="85.037564"/>
      </g>
     </g>
    </g>
    <g id="ytick_2">
     <g id="line2d_13">
      <path clip-path="url(#p91f596d9b1)" d="M 14.874135 19.195513 
L 562.68 19.195513 
" style="fill:none;stroke:#000000;stroke-dasharray:0.5,0.825;stroke-dashoffset:0;stroke-width:0.5;"/>
     </g>
     <g id="line2d_14">
      <g>
       <use style="stroke:#000000;stroke-width:0.8;" x="25.408863" xlink:href="#me4738bb7b4" y="19.195513"/>
      </g>
     </g>
     <g id="text_3">
      <!-- $1$ -->
      <g transform="translate(13.408863 22.994732)scale(0.1 -0.1)">
       <use transform="translate(0 0.390625)" xlink:href="#Cmr10-31"/>
      </g>
     </g>
    </g>
   </g>
   <g id="patch_3">
    <path d="M 25.408863 86.354405 
L 25.408863 17.878672 
" style="fill:none;stroke:#000000;stroke-linecap:square;stroke-linejoin:miter;stroke-width:0.8;"/>
   </g>
   <g id="patch_4">
    <path d="M 14.874135 85.037564 
L 562.68 85.037564 
" style="fill:none;stroke:#000000;stroke-linecap:square;stroke-linejoin:miter;stroke-width:0.8;"/>
   </g>
  </g>
 </g>
 <defs>
  <clipPath id="p91f596d9b1">
   <rect height="68.475733" width="547.805865" x="14.874135" y="17.878672"/>
  </clipPath>
 </defs>
</svg>
