<?xml version="1.0" encoding="utf-8" standalone="no"?>
<!DOCTYPE svg PUBLIC "-//W3C//DTD SVG 1.1//EN"
  "http://www.w3.org/Graphics/SVG/1.1/DTD/svg11.dtd">
<!-- Created with matplotlib (http://matplotlib.org/) -->
<svg height="108pt" version="1.1" viewBox="0 0 576 108" width="576pt" xmlns="http://www.w3.org/2000/svg" xmlns:xlink="http://www.w3.org/1999/xlink">
 <defs>
  <style type="text/css">
*{stroke-linecap:butt;stroke-linejoin:round;}
  </style>
 </defs>
 <g id="figure_1">
  <g id="patch_1">
   <path d="M 0 108 
L 576 108 
L 576 0 
L 0 0 
z
" style="fill:#ffffff;"/>
  </g>
  <g id="axes_1">
   <g id="patch_2">
    <path d="M 4.074135 87.704405 
L 573.48 87.704405 
L 573.48 16.528672 
L 4.074135 16.528672 
z
" style="fill:#ffffff;"/>
   </g>
   <g id="line2d_1">
    <path clip-path="url(#p6bc5ab2591)" d="M 89.011496 53.890862 
L 118.606395 55.918661 
L 118.606395 55.918661 
" style="fill:none;stroke:#ff0000;stroke-linecap:square;stroke-width:2;"/>
   </g>
   <g id="line2d_2">
    <path clip-path="url(#p6bc5ab2591)" d="M 162.998745 30.824652 
L 177.796194 31.838552 
L 177.796194 31.838552 
" style="fill:none;stroke:#ff0000;stroke-linecap:square;stroke-width:2;"/>
   </g>
   <g id="line2d_3">
    <path clip-path="url(#p6bc5ab2591)" d="M 222.188544 72.394525 
L 236.985993 73.408424 
L 236.985993 73.408424 
" style="fill:none;stroke:#ff0000;stroke-linecap:square;stroke-width:2;"/>
   </g>
   <g id="line2d_4">
    <path clip-path="url(#p6bc5ab2591)" d="M 281.378342 48.314416 
L 310.973242 50.342215 
L 310.973242 50.342215 
" style="fill:none;stroke:#ff0000;stroke-linecap:square;stroke-width:2;"/>
   </g>
   <g id="line2d_5">
    <path clip-path="url(#p6bc5ab2591)" d="M 429.35284 67.831978 
L 444.150289 68.845877 
L 444.150289 68.845877 
" style="fill:none;stroke:#ff0000;stroke-linecap:square;stroke-width:2;"/>
   </g>
   <g id="line2d_6">
    <path clip-path="url(#p6bc5ab2591)" d="M 503.340088 35.387199 
L 518.137538 36.401099 
L 518.137538 36.401099 
" style="fill:none;stroke:#ff0000;stroke-linecap:square;stroke-width:2;"/>
   </g>
   <g id="line2d_7">
    <path clip-path="url(#p6bc5ab2591)" d="M 59.416597 33.105926 
L 89.011496 53.890862 
L 89.011496 53.890862 
" style="fill:none;stroke:#cbff00;stroke-linecap:square;stroke-width:2;"/>
   </g>
   <g id="line2d_8">
    <path clip-path="url(#p6bc5ab2591)" d="M 177.796194 31.838552 
L 192.593644 42.23102 
L 192.593644 42.23102 
" style="fill:none;stroke:#cbff00;stroke-linecap:square;stroke-width:2;"/>
   </g>
   <g id="line2d_9">
    <path clip-path="url(#p6bc5ab2591)" d="M 207.391094 62.002057 
L 207.494792 62.074886 
L 207.518945 62.091849 
L 207.640296 62.177075 
L 207.657573 62.189209 
L 207.745402 62.250893 
L 207.831715 62.311511 
L 207.883655 62.34799 
L 208.013374 62.439094 
L 208.056401 62.469312 
L 208.119379 62.513543 
L 208.180761 62.556652 
L 208.303268 62.64269 
L 208.364928 62.685995 
L 208.423889 62.727404 
L 208.524112 62.797792 
L 208.567226 62.828072 
L 208.683559 62.909774 
L 208.700645 62.921774 
L 208.801349 62.9925 
L 208.882071 63.049193 
L 208.938869 63.089082 
L 209.000156 63.132125 
L 209.101931 63.203603 
L 209.195161 63.26908 
L 209.262778 63.316568 
L 209.327968 63.362352 
L 209.382741 63.40082 
L 209.498653 63.482227 
L 209.56947 63.531963 
L 209.610441 63.560737 
L 209.687727 63.615017 
L 209.765898 63.669917 
L 209.876828 63.747825 
L 209.909941 63.77108 
L 210.004252 63.837317 
L 210.075602 63.887427 
L 210.175879 63.957853 
L 210.190617 63.968204 
L 210.284871 64.0344 
L 210.396336 64.112683 
L 210.476929 64.169285 
L 210.487663 64.176824 
L 210.570982 64.23534 
L 210.636658 64.281465 
L 210.723188 64.342236 
L 210.787813 64.387623 
L 210.911827 64.47472 
L 210.995716 64.533637 
L 211.01591 64.547819 
L 211.093292 64.602165 
L 211.180403 64.663345 
L 211.272196 64.727812 
L 211.329459 64.768029 
L 211.440137 64.84576 
L 211.498443 64.886709 
L 211.565233 64.933617 
L 211.612261 64.966645 
L 211.713217 65.037548 
L 211.792273 65.09307 
L 211.841032 65.127314 
L 211.909573 65.175452 
L 212.025915 65.257161 
L 212.103965 65.311976 
L 212.122202 65.324785 
L 212.20252 65.381193 
L 212.324451 65.466827 
L 212.384513 65.509009 
L 212.428 65.53955 
L 212.518653 65.603218 
L 212.605943 65.664523 
L 212.686216 65.7209 
L 212.768688 65.778821 
L 212.794227 65.796758 
L 212.891147 65.864826 
L 212.983209 65.929483 
L 213.049762 65.976223 
L 213.100316 66.011728 
L 213.191493 66.075763 
L 213.250962 66.117529 
L 213.350195 66.187222 
L 213.433094 66.245443 
L 213.525071 66.31004 
L 213.570047 66.341628 
L 213.668834 66.411007 
L 213.733142 66.456172 
L 213.751645 66.469166 
L 213.892048 66.567773 
L 213.937261 66.599527 
L 214.023042 66.659772 
L 214.098942 66.713078 
L 214.156192 66.753285 
L 214.250329 66.819399 
L 214.285037 66.843775 
L 214.371914 66.904791 
L 214.420239 66.93873 
L 214.525183 67.012433 
L 214.570375 67.044172 
L 214.643314 67.095399 
L 214.772033 67.1858 
L 214.803074 67.2076 
L 214.929675 67.296514 
L 214.956852 67.315601 
L 215.075618 67.399012 
L 215.135704 67.441211 
" style="fill:none;stroke:#cbff00;stroke-linecap:square;stroke-width:2;"/>
   </g>
   <g id="line2d_10">
    <path clip-path="url(#p6bc5ab2591)" d="M 215.316011 67.567844 
L 215.426415 67.645382 
L 215.505485 67.700914 
L 215.594192 67.763214 
L 215.609457 67.773935 
L 215.742787 67.867575 
L 215.758437 67.878566 
L 215.846012 67.940071 
L 215.90926 67.984491 
L 216.006956 68.053105 
L 216.096798 68.116202 
L 216.152745 68.155495 
L 216.236342 68.214206 
L 216.28003 68.244888 
L 216.372586 68.309892 
L 216.448131 68.362948 
L 216.525262 68.417119 
L 216.640226 68.497859 
L 216.69123 68.53368 
L 216.723507 68.556349 
L 216.821807 68.625387 
L 216.92936 68.700923 
L 216.972869 68.73148 
L 217.026295 68.769002 
L 217.107433 68.825986 
L 217.200024 68.891014 
L 217.252808 68.928085 
L 217.357241 69.001429 
L 217.463297 69.075914 
L 217.498206 69.100431 
L 217.593535 69.167382 
L 217.665256 69.217753 
L 217.753395 69.279655 
L 217.773877 69.29404 
L 217.857688 69.352901 
L 217.932781 69.40564 
L 218.000834 69.453435 
L 218.072676 69.50389 
L 218.188375 69.585147 
L 218.23999 69.621398 
L 218.339103 69.691006 
L 218.419255 69.747298 
L 218.500138 69.804103 
L 218.556719 69.843841 
L 218.65523 69.913026 
L 218.703362 69.94683 
L 218.780433 70.000959 
L 218.85753 70.055105 
L 218.908789 70.091105 
L 219.012519 70.163956 
L 219.101378 70.226363 
L 219.131679 70.247644 
L 219.21207 70.304104 
L 219.31822 70.378655 
L 219.397221 70.434138 
L 219.448859 70.470404 
L 219.514613 70.516584 
L 219.558998 70.547756 
L 219.688343 70.638597 
L 219.706048 70.651032 
L 219.820136 70.731157 
L 219.893228 70.782491 
L 219.922724 70.803206 
L 220.001683 70.85866 
L 220.122374 70.943424 
L 220.162815 70.971826 
L 220.251563 71.034155 
L 220.342672 71.098142 
L 220.385774 71.128413 
L 220.484084 71.197458 
L 220.569485 71.257437 
L 220.605593 71.282796 
L 220.703071 71.351256 
L 220.768494 71.397203 
L 220.830579 71.440807 
L 220.937903 71.516182 
L 221.008426 71.565711 
L 221.086982 71.620882 
L 221.143228 71.660385 
L 221.196964 71.698124 
L 221.291211 71.764315 
L 221.398813 71.839886 
L 221.451194 71.876674 
L 221.484823 71.900292 
L 221.57169 71.9613 
L 221.685576 72.041284 
L 221.723102 72.067639 
L 221.807904 72.127196 
L 221.904578 72.195092 
L 221.991169 72.255906 
L 222.051036 72.297951 
L 222.113794 72.342027 
L 222.188544 72.394525 
" style="fill:none;stroke:#cbff00;stroke-linecap:square;stroke-width:2;"/>
   </g>
   <g id="line2d_11">
    <path clip-path="url(#p6bc5ab2591)" d="M 310.973242 50.342215 
L 340.568141 71.127151 
L 340.568141 71.127151 
" style="fill:none;stroke:#cbff00;stroke-linecap:square;stroke-width:2;"/>
   </g>
   <g id="line2d_12">
    <path clip-path="url(#p6bc5ab2591)" d="M 414.55539 57.43951 
L 429.35284 67.831978 
L 429.35284 67.831978 
" style="fill:none;stroke:#cbff00;stroke-linecap:square;stroke-width:2;"/>
   </g>
   <g id="line2d_13">
    <path clip-path="url(#p6bc5ab2591)" d="M 518.137538 36.401099 
L 532.934988 46.793567 
L 532.934988 46.793567 
" style="fill:none;stroke:#cbff00;stroke-linecap:square;stroke-width:2;"/>
   </g>
   <g id="line2d_14">
    <path clip-path="url(#p6bc5ab2591)" d="M 192.593644 42.23102 
L 207.391094 62.002057 
L 207.391094 62.002057 
" style="fill:none;stroke:#00ff66;stroke-linecap:square;stroke-width:2;"/>
   </g>
   <g id="line2d_15">
    <path clip-path="url(#p6bc5ab2591)" d="M 384.960491 17.897436 
L 414.55539 57.43951 
L 414.55539 57.43951 
" style="fill:none;stroke:#00ff66;stroke-linecap:square;stroke-width:2;"/>
   </g>
   <g id="line2d_16">
    <path clip-path="url(#p6bc5ab2591)" d="M 532.934988 46.793567 
L 562.529887 86.335641 
L 562.529887 86.335641 
" style="fill:none;stroke:#00ff66;stroke-linecap:square;stroke-width:2;"/>
   </g>
   <g id="line2d_17">
    <path clip-path="url(#p6bc5ab2591)" d="M 44.619147 41.470595 
L 59.416597 33.105926 
L 59.416597 33.105926 
" style="fill:none;stroke:#0066ff;stroke-linecap:square;stroke-width:2;"/>
   </g>
   <g id="line2d_18">
    <path clip-path="url(#p6bc5ab2591)" d="M 118.606395 55.918661 
L 162.998745 30.824652 
L 162.998745 30.824652 
" style="fill:none;stroke:#0066ff;stroke-linecap:square;stroke-width:2;"/>
   </g>
   <g id="line2d_19">
    <path clip-path="url(#p6bc5ab2591)" d="M 236.985993 73.408424 
L 281.378342 48.314416 
L 281.378342 48.314416 
" style="fill:none;stroke:#0066ff;stroke-linecap:square;stroke-width:2;"/>
   </g>
   <g id="line2d_20">
    <path clip-path="url(#p6bc5ab2591)" d="M 340.568141 71.127151 
L 340.667115 71.071204 
L 340.737931 71.031172 
L 340.826622 70.981038 
L 340.871073 70.95591 
L 340.912761 70.932345 
L 341.003269 70.881183 
L 341.075374 70.840423 
L 341.140047 70.803865 
L 341.212902 70.762682 
L 341.335923 70.693141 
L 341.35723 70.681097 
L 341.446439 70.630669 
L 341.529327 70.583814 
L 341.60098 70.54331 
L 341.688366 70.493913 
L 341.793487 70.43449 
L 341.822871 70.41788 
L 341.869997 70.391241 
L 341.981292 70.328328 
L 342.068863 70.278827 
L 342.153503 70.230981 
" style="fill:none;stroke:#0066ff;stroke-linecap:square;stroke-width:2;"/>
   </g>
   <g id="line2d_21">
    <path clip-path="url(#p6bc5ab2591)" d="M 342.33077 70.130776 
L 355.365591 62.762481 
L 355.365591 62.762481 
" style="fill:none;stroke:#0066ff;stroke-linecap:square;stroke-width:2;"/>
   </g>
   <g id="line2d_22">
    <path clip-path="url(#p6bc5ab2591)" d="M 444.150289 68.845877 
L 503.340088 35.387199 
L 503.340088 35.387199 
" style="fill:none;stroke:#0066ff;stroke-linecap:square;stroke-width:2;"/>
   </g>
   <g id="line2d_23">
    <path clip-path="url(#p6bc5ab2591)" d="M 15.024247 86.335641 
L 44.619147 41.470595 
L 44.619147 41.470595 
" style="fill:none;stroke:#cc00ff;stroke-linecap:square;stroke-width:2;"/>
   </g>
   <g id="line2d_24">
    <path clip-path="url(#p6bc5ab2591)" d="M 355.365591 62.762481 
L 355.476234 62.594749 
L 355.67078 62.299823 
L 355.836776 62.048178 
L 355.909983 61.937198 
L 356.163366 61.553077 
L 356.31643 61.321035 
L 356.446408 61.123993 
L 356.557262 60.955942 
L 356.698213 60.742264 
L 356.914655 60.414144 
L 356.968446 60.332598 
L 357.153771 60.051651 
L 357.258284 59.893212 
L 357.444852 59.610379 
L 357.534323 59.474744 
L 357.692306 59.235247 
L 357.84477 59.004114 
L 358.063028 58.673241 
L 358.196009 58.471647 
L 358.319901 58.28383 
L 358.443159 58.096975 
L 358.710348 57.691923 
L 358.800386 57.555428 
L 358.86439 57.458399 
L 359.111041 57.084483 
L 359.187833 56.968069 
L 359.410259 56.630877 
L 359.546838 56.423827 
L 359.742017 56.127942 
L 359.847385 55.968207 
L 359.997671 55.740377 
L 360.196505 55.43895 
L 360.254828 55.350533 
L 360.42459 55.09318 
L 360.579128 54.858904 
L 360.645871 54.757724 
L 360.922998 54.337607 
L 360.981624 54.248731 
L 361.215578 53.894064 
L 361.317788 53.739116 
L 361.502119 53.459675 
L 361.558494 53.374213 
L 361.702663 53.155656 
L 361.930239 52.810658 
L 361.999301 52.705961 
L 362.252244 52.322508 
L 362.282594 52.276497 
L 362.574942 51.833306 
L 362.627323 51.753898 
L 362.751356 51.565867 
L 362.969366 51.23537 
L 363.137598 50.980335 
L 363.257642 50.798351 
L 363.378249 50.615515 
L 363.47791 50.464431 
L 363.6269 50.238566 
L 363.823975 49.939806 
L 364.039305 49.613371 
L 364.113815 49.500417 
L 364.233023 49.319702 
L 364.482656 48.941264 
L 364.628541 48.720107 
L 364.743406 48.545975 
L 364.934517 48.256255 
L 365.100886 48.004045 
L 365.158934 47.916045 
L 365.292971 47.712849 
L 365.43275 47.500949 
L 365.665487 47.148125 
L 365.82357 46.908476 
L 365.855536 46.860017 
L 366.051678 46.562671 
L 366.149913 46.413748 
L 366.365112 46.087513 
L 366.542752 45.818216 
L 366.690332 45.594489 
L 366.752321 45.500515 
L 367.007949 45.11299 
L 367.157018 44.887005 
L 367.307784 44.658449 
L 367.344927 44.602142 
L 367.617572 44.188818 
L 367.734663 44.011312 
L 367.931741 43.712547 
L 368.042655 43.544404 
L 368.176305 43.341795 
L 368.373063 43.043515 
L 368.49759 42.854736 
L 368.642108 42.635651 
L 368.716436 42.522972 
L 368.847839 42.323768 
L 369.032349 42.044056 
L 369.245104 41.721526 
L 369.33046 41.592128 
" style="fill:none;stroke:#cc00ff;stroke-linecap:square;stroke-width:2;"/>
   </g>
   <g id="line2d_25">
    <path clip-path="url(#p6bc5ab2591)" d="M 369.749105 40.957474 
L 369.936472 40.67343 
L 370.046012 40.50737 
L 370.247372 40.202115 
L 370.346922 40.051199 
L 370.493672 39.828731 
L 370.713836 39.494968 
L 370.837374 39.307689 
L 370.925285 39.174417 
L 371.058705 38.972157 
L 371.243447 38.692092 
L 371.473776 38.342921 
L 371.547984 38.230424 
L 371.714541 37.977927 
L 371.835539 37.794498 
L 372.043343 37.479473 
L 372.125118 37.355505 
L 372.272229 37.132488 
L 372.437247 36.882325 
L 372.561093 36.694578 
L 372.738774 36.425219 
L 372.896202 36.186563 
L 373.06838 35.925545 
L 373.186882 35.745899 
L 373.402311 35.419315 
L 373.506122 35.26194 
L 373.585872 35.141041 
L 373.821881 34.783258 
L 373.924244 34.628079 
L 374.1486 34.287962 
L 374.232336 34.16102 
L 374.377676 33.940689 
L 374.480588 33.784676 
L 374.772895 33.341548 
L 374.818455 33.27248 
L 374.973402 33.037584 
L 375.102458 32.841939 
L 375.231609 32.64615 
L 375.395872 32.397132 
L 375.548656 32.165516 
L 375.667191 31.98582 
L 375.877408 31.667136 
L 376.084387 31.353363 
L 376.124365 31.292757 
L 376.267781 31.075342 
L 376.460423 30.783302 
L 376.655803 30.487111 
L 376.794574 30.276739 
L 376.908863 30.10348 
L 377.004893 29.957901 
L 377.207427 29.650865 
L 377.335379 29.456893 
L 377.474689 29.245703 
L 377.723356 28.868731 
L 377.864006 28.655509 
L 378.019567 28.419684 
L 378.159197 28.208009 
L 378.31791 27.967403 
L 378.390416 27.857487 
L 378.50861 27.678308 
L 378.688981 27.404871 
L 378.871181 27.128659 
L 379.081373 26.810014 
L 379.134 26.730234 
L 379.373129 26.36772 
L 379.409735 26.312227 
L 379.554985 26.092032 
L 379.704983 25.864639 
L 379.917366 25.542673 
L 380.117092 25.239894 
L 380.161554 25.17249 
L 380.318749 24.934187 
L 380.503286 24.654434 
L 380.639319 24.448211 
L 380.73403 24.304632 
L 380.944579 23.985447 
L 381.147981 23.677095 
L 381.187883 23.616605 
L 381.331035 23.39959 
L 381.4868 23.163454 
L 381.650424 22.915405 
L 381.771873 22.731292 
L 381.966729 22.435895 
L 382.083707 22.25856 
L 382.23309 22.032099 
L 382.403518 21.773736 
L 382.594291 21.484528 
L 382.704004 21.318207 
L 382.952702 20.941187 
L 383.097475 20.721716 
L 383.233702 20.5152 
L 383.353979 20.332863 
L 383.48194 20.138877 
L 383.68088 19.837291 
L 383.83477 19.603997 
L 383.856522 19.571021 
L 384.119514 19.172333 
L 384.169988 19.095816 
L 384.385134 18.769661 
L 384.489472 18.611487 
L 384.718047 18.264973 
L 384.740694 18.230641 
L 384.960491 17.897436 
" style="fill:none;stroke:#cc00ff;stroke-linecap:square;stroke-width:2;"/>
   </g>
   <g id="matplotlib.axis_1">
    <g id="xtick_1">
     <g id="line2d_26">
      <path clip-path="url(#p6bc5ab2591)" d="M 15.024247 87.704405 
L 15.024247 16.528672 
" style="fill:none;stroke:#000000;stroke-dasharray:0.5,0.825;stroke-dashoffset:0;stroke-width:0.5;"/>
     </g>
     <g id="line2d_27">
      <defs>
       <path d="M 0 0 
L 0 3.5 
" id="mf1e81dcb59" style="stroke:#000000;stroke-width:0.8;"/>
      </defs>
      <g>
       <use style="stroke:#000000;stroke-width:0.8;" x="15.024247" xlink:href="#mf1e81dcb59" y="86.335641"/>
      </g>
     </g>
    </g>
    <g id="xtick_2">
     <g id="line2d_28">
      <path clip-path="url(#p6bc5ab2591)" d="M 384.960491 87.704405 
L 384.960491 16.528672 
" style="fill:none;stroke:#000000;stroke-dasharray:0.5,0.825;stroke-dashoffset:0;stroke-width:0.5;"/>
     </g>
     <g id="line2d_29">
      <g>
       <use style="stroke:#000000;stroke-width:0.8;" x="384.960491" xlink:href="#mf1e81dcb59" y="86.335641"/>
      </g>
     </g>
     <g id="text_1">
      <!-- $f$ -->
      <defs>
       <path d="M 9.71875 -16.5 
Q 11.578125 -17.921875 14.203125 -17.921875 
Q 17.78125 -17.921875 20.015625 -10.015625 
Q 20.953125 -6.203125 25.09375 15.09375 
L 29.6875 39.59375 
L 21.09375 39.59375 
Q 20.125 39.59375 20.125 40.921875 
Q 20.515625 43.109375 21.390625 43.109375 
L 30.328125 43.109375 
L 31.5 49.609375 
Q 32.078125 52.640625 32.5625 54.8125 
Q 33.0625 56.984375 33.625 58.828125 
Q 34.1875 60.6875 35.296875 62.984375 
Q 37.015625 66.265625 39.921875 68.390625 
Q 42.828125 70.515625 46.1875 70.515625 
Q 48.390625 70.515625 50.46875 69.703125 
Q 52.546875 68.890625 53.859375 67.28125 
Q 55.171875 65.671875 55.171875 63.484375 
Q 55.171875 60.9375 53.484375 59.046875 
Q 51.8125 57.171875 49.421875 57.171875 
Q 47.796875 57.171875 46.65625 58.171875 
Q 45.515625 59.1875 45.515625 60.796875 
Q 45.515625 62.984375 47 64.625 
Q 48.484375 66.265625 50.6875 66.5 
Q 48.828125 67.921875 46.09375 67.921875 
Q 44.578125 67.921875 43.234375 66.5 
Q 41.890625 65.09375 41.5 63.484375 
Q 40.875 60.9375 38.71875 49.703125 
L 37.5 43.109375 
L 47.796875 43.109375 
Q 48.78125 43.109375 48.78125 41.796875 
Q 48.734375 41.546875 48.578125 40.9375 
Q 48.4375 40.328125 48.171875 39.953125 
Q 47.90625 39.59375 47.515625 39.59375 
L 36.8125 39.59375 
L 32.171875 15.1875 
Q 31.296875 9.859375 30.140625 4.359375 
Q 29 -1.125 26.921875 -6.90625 
Q 24.859375 -12.703125 21.625 -16.609375 
Q 18.40625 -20.515625 14.015625 -20.515625 
Q 10.640625 -20.515625 7.984375 -18.578125 
Q 5.328125 -16.65625 5.328125 -13.484375 
Q 5.328125 -10.9375 6.953125 -9.046875 
Q 8.59375 -7.171875 11.078125 -7.171875 
Q 12.75 -7.171875 13.859375 -8.171875 
Q 14.984375 -9.1875 14.984375 -10.796875 
Q 14.984375 -12.9375 13.390625 -14.71875 
Q 11.8125 -16.5 9.71875 -16.5 
z
" id="Cmmi10-66"/>
      </defs>
      <g transform="translate(382.510491 100.913766)scale(0.1 -0.1)">
       <use transform="translate(0 0.484375)" xlink:href="#Cmmi10-66"/>
      </g>
     </g>
    </g>
    <g id="xtick_3">
     <g id="line2d_30">
      <path clip-path="url(#p6bc5ab2591)" d="M 562.529887 87.704405 
L 562.529887 16.528672 
" style="fill:none;stroke:#000000;stroke-dasharray:0.5,0.825;stroke-dashoffset:0;stroke-width:0.5;"/>
     </g>
     <g id="line2d_31">
      <g>
       <use style="stroke:#000000;stroke-width:0.8;" x="562.529887" xlink:href="#mf1e81dcb59" y="86.335641"/>
      </g>
     </g>
     <g id="text_2">
      <!-- $1$ -->
      <defs>
       <path d="M 9.28125 0 
L 9.28125 3.515625 
Q 21.78125 3.515625 21.78125 6.6875 
L 21.78125 59.1875 
Q 16.609375 56.6875 8.6875 56.6875 
L 8.6875 60.203125 
Q 20.953125 60.203125 27.203125 66.609375 
L 28.609375 66.609375 
Q 28.953125 66.609375 29.265625 66.328125 
Q 29.59375 66.0625 29.59375 65.71875 
L 29.59375 6.6875 
Q 29.59375 3.515625 42.09375 3.515625 
L 42.09375 0 
z
" id="Cmr10-31"/>
      </defs>
      <g transform="translate(560.029887 100.934078)scale(0.1 -0.1)">
       <use transform="translate(0 0.390625)" xlink:href="#Cmr10-31"/>
      </g>
     </g>
    </g>
   </g>
   <g id="matplotlib.axis_2">
    <g id="ytick_1">
     <g id="line2d_32">
      <path clip-path="url(#p6bc5ab2591)" d="M 4.074135 86.335641 
L 573.48 86.335641 
" style="fill:none;stroke:#000000;stroke-dasharray:0.5,0.825;stroke-dashoffset:0;stroke-width:0.5;"/>
     </g>
     <g id="line2d_33">
      <defs>
       <path d="M 0 0 
L -3.5 0 
" id="m0ab7ad7d59" style="stroke:#000000;stroke-width:0.8;"/>
      </defs>
      <g>
       <use style="stroke:#000000;stroke-width:0.8;" x="15.024247" xlink:href="#m0ab7ad7d59" y="86.335641"/>
      </g>
     </g>
    </g>
    <g id="ytick_2">
     <g id="line2d_34">
      <path clip-path="url(#p6bc5ab2591)" d="M 4.074135 17.897436 
L 573.48 17.897436 
" style="fill:none;stroke:#000000;stroke-dasharray:0.5,0.825;stroke-dashoffset:0;stroke-width:0.5;"/>
     </g>
     <g id="line2d_35">
      <g>
       <use style="stroke:#000000;stroke-width:0.8;" x="15.024247" xlink:href="#m0ab7ad7d59" y="17.897436"/>
      </g>
     </g>
     <g id="text_3">
      <!-- $1$ -->
      <g transform="translate(3.024247 21.696655)scale(0.1 -0.1)">
       <use transform="translate(0 0.390625)" xlink:href="#Cmr10-31"/>
      </g>
     </g>
    </g>
   </g>
   <g id="patch_3">
    <path d="M 15.024247 87.704405 
L 15.024247 16.528672 
" style="fill:none;stroke:#000000;stroke-linecap:square;stroke-linejoin:miter;stroke-width:0.8;"/>
   </g>
   <g id="patch_4">
    <path d="M 4.074135 86.335641 
L 573.48 86.335641 
" style="fill:none;stroke:#000000;stroke-linecap:square;stroke-linejoin:miter;stroke-width:0.8;"/>
   </g>
  </g>
 </g>
 <defs>
  <clipPath id="p6bc5ab2591">
   <rect height="71.175733" width="569.405865" x="4.074135" y="16.528672"/>
  </clipPath>
 </defs>
</svg>
