<?xml version="1.0" encoding="utf-8" standalone="no"?>
<!DOCTYPE svg PUBLIC "-//W3C//DTD SVG 1.1//EN"
  "http://www.w3.org/Graphics/SVG/1.1/DTD/svg11.dtd">
<!-- Created with matplotlib (http://matplotlib.org/) -->
<svg height="108pt" version="1.1" viewBox="0 0 576 108" width="576pt" xmlns="http://www.w3.org/2000/svg" xmlns:xlink="http://www.w3.org/1999/xlink">
 <defs>
  <style type="text/css">
*{stroke-linecap:butt;stroke-linejoin:round;}
  </style>
 </defs>
 <g id="figure_1">
  <g id="patch_1">
   <path d="M 0 108 
L 576 108 
L 576 0 
L 0 0 
z
" style="fill:#ffffff;"/>
  </g>
  <g id="axes_1">
   <g id="patch_2">
    <path d="M 4.074135 87.704405 
L 573.48 87.704405 
L 573.48 16.528672 
L 4.074135 16.528672 
z
" style="fill:#ffffff;"/>
   </g>
   <g id="line2d_1">
    <path clip-path="url(#p6b2ad78a43)" d="M 15.024247 86.335641 
L 16.462597 85.271002 
L 16.462597 85.271002 
" style="fill:none;stroke:#0000ff;stroke-linecap:square;"/>
   </g>
   <g id="line2d_2">
    <path clip-path="url(#p6b2ad78a43)" d="M 16.462597 85.271002 
L 16.484853 85.279348 
L 16.484853 85.279348 
" style="fill:none;stroke:#0000ff;stroke-linecap:square;"/>
   </g>
   <g id="line2d_3">
    <path clip-path="url(#p6b2ad78a43)" d="M 16.484853 85.279348 
L 17.923202 84.214708 
L 17.923202 84.214708 
" style="fill:none;stroke:#0000ff;stroke-linecap:square;"/>
   </g>
   <g id="line2d_4">
    <path clip-path="url(#p6b2ad78a43)" d="M 17.923202 84.214708 
L 18.012226 84.248092 
L 18.012226 84.248092 
" style="fill:none;stroke:#0000ff;stroke-linecap:square;"/>
   </g>
   <g id="line2d_5">
    <path clip-path="url(#p6b2ad78a43)" d="M 18.012226 84.248092 
L 19.450575 83.183453 
L 19.450575 83.183453 
" style="fill:none;stroke:#0000ff;stroke-linecap:square;"/>
   </g>
   <g id="line2d_6">
    <path clip-path="url(#p6b2ad78a43)" d="M 19.450575 83.183453 
L 19.472831 83.191799 
L 19.472831 83.191799 
" style="fill:none;stroke:#0000ff;stroke-linecap:square;"/>
   </g>
   <g id="line2d_7">
    <path clip-path="url(#p6b2ad78a43)" d="M 19.472831 83.191799 
L 20.911181 82.127159 
L 20.911181 82.127159 
" style="fill:none;stroke:#0000ff;stroke-linecap:square;"/>
   </g>
   <g id="line2d_8">
    <path clip-path="url(#p6b2ad78a43)" d="M 20.911181 82.127159 
L 21.267273 82.260694 
L 21.267273 82.260694 
" style="fill:none;stroke:#0000ff;stroke-linecap:square;"/>
   </g>
   <g id="line2d_9">
    <path clip-path="url(#p6b2ad78a43)" d="M 21.267273 82.260694 
L 22.705623 81.196055 
L 22.705623 81.196055 
" style="fill:none;stroke:#0000ff;stroke-linecap:square;"/>
   </g>
   <g id="line2d_10">
    <path clip-path="url(#p6b2ad78a43)" d="M 22.705623 81.196055 
L 22.727879 81.2044 
L 22.727879 81.2044 
" style="fill:none;stroke:#0000ff;stroke-linecap:square;"/>
   </g>
   <g id="line2d_11">
    <path clip-path="url(#p6b2ad78a43)" d="M 22.727879 81.2044 
L 24.166228 80.139761 
L 24.166228 80.139761 
" style="fill:none;stroke:#0000ff;stroke-linecap:square;"/>
   </g>
   <g id="line2d_12">
    <path clip-path="url(#p6b2ad78a43)" d="M 24.166228 80.139761 
L 24.255251 80.173145 
L 24.255251 80.173145 
" style="fill:none;stroke:#0000ff;stroke-linecap:square;"/>
   </g>
   <g id="line2d_13">
    <path clip-path="url(#p6b2ad78a43)" d="M 24.255251 80.173145 
L 25.693601 79.108506 
L 25.693601 79.108506 
" style="fill:none;stroke:#0000ff;stroke-linecap:square;"/>
   </g>
   <g id="line2d_14">
    <path clip-path="url(#p6b2ad78a43)" d="M 25.693601 79.108506 
L 25.715857 79.116851 
L 25.715857 79.116851 
" style="fill:none;stroke:#0000ff;stroke-linecap:square;"/>
   </g>
   <g id="line2d_15">
    <path clip-path="url(#p6b2ad78a43)" d="M 25.715857 79.116851 
L 27.154206 78.052212 
L 27.154206 78.052212 
" style="fill:none;stroke:#0000ff;stroke-linecap:square;"/>
   </g>
   <g id="line2d_16">
    <path clip-path="url(#p6b2ad78a43)" d="M 27.154206 78.052212 
L 28.578576 78.586351 
L 28.578576 78.586351 
" style="fill:none;stroke:#0000ff;stroke-linecap:square;"/>
   </g>
   <g id="line2d_17">
    <path clip-path="url(#p6b2ad78a43)" d="M 28.578576 78.586351 
L 30.016926 77.521712 
L 30.016926 77.521712 
" style="fill:none;stroke:#0000ff;stroke-linecap:square;"/>
   </g>
   <g id="line2d_18">
    <path clip-path="url(#p6b2ad78a43)" d="M 30.016926 77.521712 
L 30.039182 77.530058 
L 30.039182 77.530058 
" style="fill:none;stroke:#0000ff;stroke-linecap:square;"/>
   </g>
   <g id="line2d_19">
    <path clip-path="url(#p6b2ad78a43)" d="M 30.039182 77.530058 
L 31.477532 76.465418 
L 31.477532 76.465418 
" style="fill:none;stroke:#0000ff;stroke-linecap:square;"/>
   </g>
   <g id="line2d_20">
    <path clip-path="url(#p6b2ad78a43)" d="M 31.477532 76.465418 
L 31.566555 76.498802 
L 31.566555 76.498802 
" style="fill:none;stroke:#0000ff;stroke-linecap:square;"/>
   </g>
   <g id="line2d_21">
    <path clip-path="url(#p6b2ad78a43)" d="M 31.566555 76.498802 
L 33.004904 75.434163 
L 33.004904 75.434163 
" style="fill:none;stroke:#0000ff;stroke-linecap:square;"/>
   </g>
   <g id="line2d_22">
    <path clip-path="url(#p6b2ad78a43)" d="M 33.004904 75.434163 
L 33.02716 75.442508 
L 33.02716 75.442508 
" style="fill:none;stroke:#0000ff;stroke-linecap:square;"/>
   </g>
   <g id="line2d_23">
    <path clip-path="url(#p6b2ad78a43)" d="M 33.02716 75.442508 
L 34.155403 74.607404 
L 34.155403 74.607404 
" style="fill:none;stroke:#0000ff;stroke-linecap:square;"/>
   </g>
   <g id="line2d_24">
    <path clip-path="url(#p6b2ad78a43)" d="M 34.172854 74.594487 
L 34.18037 74.588924 
L 34.193967 74.57886 
L 34.200006 74.57439 
L 34.205713 74.570166 
L 34.210047 74.566958 
L 34.222513 74.557731 
L 34.223836 74.556751 
L 34.234093 74.54916 
L 34.244436 74.541503 
L 34.245926 74.540401 
L 34.255007 74.53368 
L 34.263407 74.527462 
L 34.268711 74.523536 
L 34.279797 74.51533 
L 34.286201 74.51059 
L 34.290706 74.507255 
L 34.302382 74.498613 
L 34.305945 74.495976 
L 34.315488 74.488913 
L 34.322672 74.483595 
L 34.328923 74.478968 
L 34.337259 74.472798 
L 34.344306 74.467582 
L 34.346693 74.465815 
L 34.356242 74.458747 
L 34.363826 74.453134 
L 34.375146 74.444755 
L 34.381388 74.440134 
L 34.386238 74.436545 
L 34.391224 74.432854 
L 34.400108 74.426278 
L 34.404606 74.422949 
L 34.415799 74.414664 
L 34.420619 74.411096 
L 34.432978 74.401949 
L 34.436226 74.399545 
L 34.446094 74.392241 
L 34.453787 74.386546 
L 34.458814 74.382825 
L 34.46551 74.377869 
" style="fill:none;stroke:#0000ff;stroke-linecap:square;"/>
   </g>
   <g id="line2d_25">
    <path clip-path="url(#p6b2ad78a43)" d="M 34.46551 74.377869 
L 34.821602 74.511404 
L 34.821602 74.511404 
" style="fill:none;stroke:#0000ff;stroke-linecap:square;"/>
   </g>
   <g id="line2d_26">
    <path clip-path="url(#p6b2ad78a43)" d="M 34.821602 74.511404 
L 36.259952 73.446765 
L 36.259952 73.446765 
" style="fill:none;stroke:#0000ff;stroke-linecap:square;"/>
   </g>
   <g id="line2d_27">
    <path clip-path="url(#p6b2ad78a43)" d="M 36.259952 73.446765 
L 36.282208 73.45511 
L 36.282208 73.45511 
" style="fill:none;stroke:#0000ff;stroke-linecap:square;"/>
   </g>
   <g id="line2d_28">
    <path clip-path="url(#p6b2ad78a43)" d="M 36.282208 73.45511 
L 37.720557 72.390471 
L 37.720557 72.390471 
" style="fill:none;stroke:#0000ff;stroke-linecap:square;"/>
   </g>
   <g id="line2d_29">
    <path clip-path="url(#p6b2ad78a43)" d="M 37.720557 72.390471 
L 37.80958 72.423855 
L 37.80958 72.423855 
" style="fill:none;stroke:#0000ff;stroke-linecap:square;"/>
   </g>
   <g id="line2d_30">
    <path clip-path="url(#p6b2ad78a43)" d="M 37.80958 72.423855 
L 39.24793 71.359215 
L 39.24793 71.359215 
" style="fill:none;stroke:#0000ff;stroke-linecap:square;"/>
   </g>
   <g id="line2d_31">
    <path clip-path="url(#p6b2ad78a43)" d="M 39.24793 71.359215 
L 39.270186 71.367561 
L 39.270186 71.367561 
" style="fill:none;stroke:#0000ff;stroke-linecap:square;"/>
   </g>
   <g id="line2d_32">
    <path clip-path="url(#p6b2ad78a43)" d="M 39.270186 71.367561 
L 40.708535 70.302922 
L 40.708535 70.302922 
" style="fill:none;stroke:#0000ff;stroke-linecap:square;"/>
   </g>
   <g id="line2d_33">
    <path clip-path="url(#p6b2ad78a43)" d="M 40.708535 70.302922 
L 46.406016 72.439477 
L 46.406016 72.439477 
" style="fill:none;stroke:#0000ff;stroke-linecap:square;"/>
   </g>
   <g id="line2d_34">
    <path clip-path="url(#p6b2ad78a43)" d="M 46.406016 72.439477 
L 47.844366 71.374838 
L 47.844366 71.374838 
" style="fill:none;stroke:#0000ff;stroke-linecap:square;"/>
   </g>
   <g id="line2d_35">
    <path clip-path="url(#p6b2ad78a43)" d="M 47.844366 71.374838 
L 47.866621 71.383184 
L 47.866621 71.383184 
" style="fill:none;stroke:#0000ff;stroke-linecap:square;"/>
   </g>
   <g id="line2d_36">
    <path clip-path="url(#p6b2ad78a43)" d="M 47.866621 71.383184 
L 49.304971 70.318545 
L 49.304971 70.318545 
" style="fill:none;stroke:#0000ff;stroke-linecap:square;"/>
   </g>
   <g id="line2d_37">
    <path clip-path="url(#p6b2ad78a43)" d="M 49.304971 70.318545 
L 49.393994 70.351928 
L 49.393994 70.351928 
" style="fill:none;stroke:#0000ff;stroke-linecap:square;"/>
   </g>
   <g id="line2d_38">
    <path clip-path="url(#p6b2ad78a43)" d="M 49.393994 70.351928 
L 50.832344 69.287289 
L 50.832344 69.287289 
" style="fill:none;stroke:#0000ff;stroke-linecap:square;"/>
   </g>
   <g id="line2d_39">
    <path clip-path="url(#p6b2ad78a43)" d="M 50.832344 69.287289 
L 50.8546 69.295635 
L 50.8546 69.295635 
" style="fill:none;stroke:#0000ff;stroke-linecap:square;"/>
   </g>
   <g id="line2d_40">
    <path clip-path="url(#p6b2ad78a43)" d="M 50.8546 69.295635 
L 52.292949 68.230996 
L 52.292949 68.230996 
" style="fill:none;stroke:#0000ff;stroke-linecap:square;"/>
   </g>
   <g id="line2d_41">
    <path clip-path="url(#p6b2ad78a43)" d="M 52.292949 68.230996 
L 52.649042 68.36453 
L 52.649042 68.36453 
" style="fill:none;stroke:#0000ff;stroke-linecap:square;"/>
   </g>
   <g id="line2d_42">
    <path clip-path="url(#p6b2ad78a43)" d="M 52.649042 68.36453 
L 54.087391 67.299891 
L 54.087391 67.299891 
" style="fill:none;stroke:#0000ff;stroke-linecap:square;"/>
   </g>
   <g id="line2d_43">
    <path clip-path="url(#p6b2ad78a43)" d="M 54.087391 67.299891 
L 54.109647 67.308237 
L 54.109647 67.308237 
" style="fill:none;stroke:#0000ff;stroke-linecap:square;"/>
   </g>
   <g id="line2d_44">
    <path clip-path="url(#p6b2ad78a43)" d="M 54.109647 67.308237 
L 55.547997 66.243598 
L 55.547997 66.243598 
" style="fill:none;stroke:#0000ff;stroke-linecap:square;"/>
   </g>
   <g id="line2d_45">
    <path clip-path="url(#p6b2ad78a43)" d="M 55.547997 66.243598 
L 55.63702 66.276981 
L 55.63702 66.276981 
" style="fill:none;stroke:#0000ff;stroke-linecap:square;"/>
   </g>
   <g id="line2d_46">
    <path clip-path="url(#p6b2ad78a43)" d="M 55.63702 66.276981 
L 57.07537 65.212342 
L 57.07537 65.212342 
" style="fill:none;stroke:#0000ff;stroke-linecap:square;"/>
   </g>
   <g id="line2d_47">
    <path clip-path="url(#p6b2ad78a43)" d="M 57.07537 65.212342 
L 57.097625 65.220688 
L 57.097625 65.220688 
" style="fill:none;stroke:#0000ff;stroke-linecap:square;"/>
   </g>
   <g id="line2d_48">
    <path clip-path="url(#p6b2ad78a43)" d="M 57.097625 65.220688 
L 58.535975 64.156048 
L 58.535975 64.156048 
" style="fill:none;stroke:#0000ff;stroke-linecap:square;"/>
   </g>
   <g id="line2d_49">
    <path clip-path="url(#p6b2ad78a43)" d="M 58.535975 64.156048 
L 59.960345 64.690187 
L 59.960345 64.690187 
" style="fill:none;stroke:#0000ff;stroke-linecap:square;"/>
   </g>
   <g id="line2d_50">
    <path clip-path="url(#p6b2ad78a43)" d="M 59.960345 64.690187 
L 61.398695 63.625548 
L 61.398695 63.625548 
" style="fill:none;stroke:#0000ff;stroke-linecap:square;"/>
   </g>
   <g id="line2d_51">
    <path clip-path="url(#p6b2ad78a43)" d="M 61.398695 63.625548 
L 61.42095 63.633894 
L 61.42095 63.633894 
" style="fill:none;stroke:#0000ff;stroke-linecap:square;"/>
   </g>
   <g id="line2d_52">
    <path clip-path="url(#p6b2ad78a43)" d="M 61.42095 63.633894 
L 62.8593 62.569255 
L 62.8593 62.569255 
" style="fill:none;stroke:#0000ff;stroke-linecap:square;"/>
   </g>
   <g id="line2d_53">
    <path clip-path="url(#p6b2ad78a43)" d="M 62.8593 62.569255 
L 62.948323 62.602638 
L 62.948323 62.602638 
" style="fill:none;stroke:#0000ff;stroke-linecap:square;"/>
   </g>
   <g id="line2d_54">
    <path clip-path="url(#p6b2ad78a43)" d="M 62.948323 62.602638 
L 64.386673 61.537999 
L 64.386673 61.537999 
" style="fill:none;stroke:#0000ff;stroke-linecap:square;"/>
   </g>
   <g id="line2d_55">
    <path clip-path="url(#p6b2ad78a43)" d="M 64.386673 61.537999 
L 64.408929 61.546345 
L 64.408929 61.546345 
" style="fill:none;stroke:#0000ff;stroke-linecap:square;"/>
   </g>
   <g id="line2d_56">
    <path clip-path="url(#p6b2ad78a43)" d="M 64.408929 61.546345 
L 65.847278 60.481706 
L 65.847278 60.481706 
" style="fill:none;stroke:#0000ff;stroke-linecap:square;"/>
   </g>
   <g id="line2d_57">
    <path clip-path="url(#p6b2ad78a43)" d="M 65.847278 60.481706 
L 66.203371 60.61524 
L 66.203371 60.61524 
" style="fill:none;stroke:#0000ff;stroke-linecap:square;"/>
   </g>
   <g id="line2d_58">
    <path clip-path="url(#p6b2ad78a43)" d="M 66.203371 60.61524 
L 67.64172 59.550601 
L 67.64172 59.550601 
" style="fill:none;stroke:#0000ff;stroke-linecap:square;"/>
   </g>
   <g id="line2d_59">
    <path clip-path="url(#p6b2ad78a43)" d="M 67.64172 59.550601 
L 67.663976 59.558947 
L 67.663976 59.558947 
" style="fill:none;stroke:#0000ff;stroke-linecap:square;"/>
   </g>
   <g id="line2d_60">
    <path clip-path="url(#p6b2ad78a43)" d="M 67.663976 59.558947 
L 69.102326 58.494307 
L 69.102326 58.494307 
" style="fill:none;stroke:#0000ff;stroke-linecap:square;"/>
   </g>
   <g id="line2d_61">
    <path clip-path="url(#p6b2ad78a43)" d="M 69.102326 58.494307 
L 69.191349 58.527691 
L 69.191349 58.527691 
" style="fill:none;stroke:#0000ff;stroke-linecap:square;"/>
   </g>
   <g id="line2d_62">
    <path clip-path="url(#p6b2ad78a43)" d="M 69.191349 58.527691 
L 70.629699 57.463052 
L 70.629699 57.463052 
" style="fill:none;stroke:#0000ff;stroke-linecap:square;"/>
   </g>
   <g id="line2d_63">
    <path clip-path="url(#p6b2ad78a43)" d="M 70.629699 57.463052 
L 70.651954 57.471398 
L 70.651954 57.471398 
" style="fill:none;stroke:#0000ff;stroke-linecap:square;"/>
   </g>
   <g id="line2d_64">
    <path clip-path="url(#p6b2ad78a43)" d="M 70.651954 57.471398 
L 72.090304 56.406758 
L 72.090304 56.406758 
" style="fill:none;stroke:#0000ff;stroke-linecap:square;"/>
   </g>
   <g id="line2d_65">
    <path clip-path="url(#p6b2ad78a43)" d="M 72.090304 56.406758 
L 94.880226 64.952979 
L 94.880226 64.952979 
" style="fill:none;stroke:#0000ff;stroke-linecap:square;"/>
   </g>
   <g id="line2d_66">
    <path clip-path="url(#p6b2ad78a43)" d="M 94.880226 64.952979 
L 96.318576 63.88834 
L 96.318576 63.88834 
" style="fill:none;stroke:#0000ff;stroke-linecap:square;"/>
   </g>
   <g id="line2d_67">
    <path clip-path="url(#p6b2ad78a43)" d="M 96.318576 63.88834 
L 96.340832 63.896686 
L 96.340832 63.896686 
" style="fill:none;stroke:#0000ff;stroke-linecap:square;"/>
   </g>
   <g id="line2d_68">
    <path clip-path="url(#p6b2ad78a43)" d="M 96.340832 63.896686 
L 97.779181 62.832047 
L 97.779181 62.832047 
" style="fill:none;stroke:#0000ff;stroke-linecap:square;"/>
   </g>
   <g id="line2d_69">
    <path clip-path="url(#p6b2ad78a43)" d="M 97.779181 62.832047 
L 97.868204 62.86543 
L 97.868204 62.86543 
" style="fill:none;stroke:#0000ff;stroke-linecap:square;"/>
   </g>
   <g id="line2d_70">
    <path clip-path="url(#p6b2ad78a43)" d="M 97.868204 62.86543 
L 99.306554 61.800791 
L 99.306554 61.800791 
" style="fill:none;stroke:#0000ff;stroke-linecap:square;"/>
   </g>
   <g id="line2d_71">
    <path clip-path="url(#p6b2ad78a43)" d="M 99.306554 61.800791 
L 99.32881 61.809137 
L 99.32881 61.809137 
" style="fill:none;stroke:#0000ff;stroke-linecap:square;"/>
   </g>
   <g id="line2d_72">
    <path clip-path="url(#p6b2ad78a43)" d="M 99.32881 61.809137 
L 100.767159 60.744498 
L 100.767159 60.744498 
" style="fill:none;stroke:#0000ff;stroke-linecap:square;"/>
   </g>
   <g id="line2d_73">
    <path clip-path="url(#p6b2ad78a43)" d="M 100.767159 60.744498 
L 101.123252 60.878032 
L 101.123252 60.878032 
" style="fill:none;stroke:#0000ff;stroke-linecap:square;"/>
   </g>
   <g id="line2d_74">
    <path clip-path="url(#p6b2ad78a43)" d="M 101.123252 60.878032 
L 102.561602 59.813393 
L 102.561602 59.813393 
" style="fill:none;stroke:#0000ff;stroke-linecap:square;"/>
   </g>
   <g id="line2d_75">
    <path clip-path="url(#p6b2ad78a43)" d="M 102.561602 59.813393 
L 102.583857 59.821739 
L 102.583857 59.821739 
" style="fill:none;stroke:#0000ff;stroke-linecap:square;"/>
   </g>
   <g id="line2d_76">
    <path clip-path="url(#p6b2ad78a43)" d="M 102.583857 59.821739 
L 104.022207 58.757099 
L 104.022207 58.757099 
" style="fill:none;stroke:#0000ff;stroke-linecap:square;"/>
   </g>
   <g id="line2d_77">
    <path clip-path="url(#p6b2ad78a43)" d="M 104.022207 58.757099 
L 104.11123 58.790483 
L 104.11123 58.790483 
" style="fill:none;stroke:#0000ff;stroke-linecap:square;"/>
   </g>
   <g id="line2d_78">
    <path clip-path="url(#p6b2ad78a43)" d="M 104.11123 58.790483 
L 105.54958 57.725844 
L 105.54958 57.725844 
" style="fill:none;stroke:#0000ff;stroke-linecap:square;"/>
   </g>
   <g id="line2d_79">
    <path clip-path="url(#p6b2ad78a43)" d="M 105.54958 57.725844 
L 105.571836 57.73419 
L 105.571836 57.73419 
" style="fill:none;stroke:#0000ff;stroke-linecap:square;"/>
   </g>
   <g id="line2d_80">
    <path clip-path="url(#p6b2ad78a43)" d="M 105.571836 57.73419 
L 107.010185 56.66955 
L 107.010185 56.66955 
" style="fill:none;stroke:#0000ff;stroke-linecap:square;"/>
   </g>
   <g id="line2d_81">
    <path clip-path="url(#p6b2ad78a43)" d="M 107.010185 56.66955 
L 108.434555 57.203689 
L 108.434555 57.203689 
" style="fill:none;stroke:#0000ff;stroke-linecap:square;"/>
   </g>
   <g id="line2d_82">
    <path clip-path="url(#p6b2ad78a43)" d="M 108.434555 57.203689 
L 109.872905 56.13905 
L 109.872905 56.13905 
" style="fill:none;stroke:#0000ff;stroke-linecap:square;"/>
   </g>
   <g id="line2d_83">
    <path clip-path="url(#p6b2ad78a43)" d="M 109.872905 56.13905 
L 109.895161 56.147396 
L 109.895161 56.147396 
" style="fill:none;stroke:#0000ff;stroke-linecap:square;"/>
   </g>
   <g id="line2d_84">
    <path clip-path="url(#p6b2ad78a43)" d="M 109.895161 56.147396 
L 111.33351 55.082757 
L 111.33351 55.082757 
" style="fill:none;stroke:#0000ff;stroke-linecap:square;"/>
   </g>
   <g id="line2d_85">
    <path clip-path="url(#p6b2ad78a43)" d="M 111.33351 55.082757 
L 111.422533 55.11614 
L 111.422533 55.11614 
" style="fill:none;stroke:#0000ff;stroke-linecap:square;"/>
   </g>
   <g id="line2d_86">
    <path clip-path="url(#p6b2ad78a43)" d="M 111.422533 55.11614 
L 112.860883 54.051501 
L 112.860883 54.051501 
" style="fill:none;stroke:#0000ff;stroke-linecap:square;"/>
   </g>
   <g id="line2d_87">
    <path clip-path="url(#p6b2ad78a43)" d="M 112.860883 54.051501 
L 112.883139 54.059847 
L 112.883139 54.059847 
" style="fill:none;stroke:#0000ff;stroke-linecap:square;"/>
   </g>
   <g id="line2d_88">
    <path clip-path="url(#p6b2ad78a43)" d="M 112.883139 54.059847 
L 114.321489 52.995207 
L 114.321489 52.995207 
" style="fill:none;stroke:#0000ff;stroke-linecap:square;"/>
   </g>
   <g id="line2d_89">
    <path clip-path="url(#p6b2ad78a43)" d="M 114.321489 52.995207 
L 114.677581 53.128742 
L 114.677581 53.128742 
" style="fill:none;stroke:#0000ff;stroke-linecap:square;"/>
   </g>
   <g id="line2d_90">
    <path clip-path="url(#p6b2ad78a43)" d="M 114.677581 53.128742 
L 116.115931 52.064103 
L 116.115931 52.064103 
" style="fill:none;stroke:#0000ff;stroke-linecap:square;"/>
   </g>
   <g id="line2d_91">
    <path clip-path="url(#p6b2ad78a43)" d="M 116.115931 52.064103 
L 116.138186 52.072449 
L 116.138186 52.072449 
" style="fill:none;stroke:#0000ff;stroke-linecap:square;"/>
   </g>
   <g id="line2d_92">
    <path clip-path="url(#p6b2ad78a43)" d="M 116.138186 52.072449 
L 117.576536 51.007809 
L 117.576536 51.007809 
" style="fill:none;stroke:#0000ff;stroke-linecap:square;"/>
   </g>
   <g id="line2d_93">
    <path clip-path="url(#p6b2ad78a43)" d="M 117.576536 51.007809 
L 117.665559 51.041193 
L 117.665559 51.041193 
" style="fill:none;stroke:#0000ff;stroke-linecap:square;"/>
   </g>
   <g id="line2d_94">
    <path clip-path="url(#p6b2ad78a43)" d="M 117.665559 51.041193 
L 119.103909 49.976554 
L 119.103909 49.976554 
" style="fill:none;stroke:#0000ff;stroke-linecap:square;"/>
   </g>
   <g id="line2d_95">
    <path clip-path="url(#p6b2ad78a43)" d="M 119.103909 49.976554 
L 119.126165 49.9849 
L 119.126165 49.9849 
" style="fill:none;stroke:#0000ff;stroke-linecap:square;"/>
   </g>
   <g id="line2d_96">
    <path clip-path="url(#p6b2ad78a43)" d="M 119.126165 49.9849 
L 120.123867 49.24642 
L 120.123867 49.24642 
" style="fill:none;stroke:#0000ff;stroke-linecap:square;"/>
   </g>
   <g id="line2d_97">
    <path clip-path="url(#p6b2ad78a43)" d="M 120.147009 49.22929 
L 120.154527 49.223725 
L 120.161215 49.218775 
L 120.169977 49.212289 
L 120.177124 49.207 
L 120.181718 49.203599 
L 120.186415 49.200123 
L 120.199013 49.190798 
L 120.202374 49.18831 
L 120.208052 49.184107 
L 120.215943 49.178267 
L 120.222187 49.173644 
L 120.235526 49.163771 
L 120.237204 49.162529 
L 120.246151 49.155907 
L 120.25208 49.151518 
L 120.263635 49.142965 
L 120.265674 49.141456 
L 120.275697 49.134038 
L 120.28498 49.127167 
L 120.286416 49.126104 
L 120.297377 49.11799 
L 120.303053 49.113789 
L 120.308291 49.109912 
L 120.315236 49.104772 
L 120.322802 49.099171 
L 120.333291 49.091407 
L 120.342341 49.084709 
L 120.345358 49.082476 
L 120.354363 49.07581 
L 120.362043 49.070126 
L 120.368398 49.065422 
L 120.378246 49.058132 
L 120.385746 49.052582 
L 120.388254 49.050725 
L 120.39849 49.043148 
L 120.405733 49.037787 
L 120.415008 49.030922 
L 120.420701 49.026708 
L 120.430425 49.019511 
L 120.432833 49.017729 
L 120.439822 49.012556 
L 120.451416 49.003974 
L 120.454394 49.00177 
L 120.460894 48.996958 
L 120.473795 48.987409 
L 120.476058 48.985734 
L 120.483249 48.980411 
L 120.489699 48.975637 
L 120.496216 48.970813 
L 120.504656 48.964566 
L 120.510851 48.959981 
L 120.524729 48.949708 
L 120.530738 48.945261 
L 120.538507 48.93951 
L 120.543325 48.935945 
L 120.55261 48.929071 
L 120.556526 48.926173 
L 120.564514 48.92026 
" style="fill:none;stroke:#0000ff;stroke-linecap:square;"/>
   </g>
   <g id="line2d_98">
    <path clip-path="url(#p6b2ad78a43)" d="M 120.564514 48.92026 
L 126.261995 51.056816 
L 126.261995 51.056816 
" style="fill:none;stroke:#0000ff;stroke-linecap:square;"/>
   </g>
   <g id="line2d_99">
    <path clip-path="url(#p6b2ad78a43)" d="M 126.261995 51.056816 
L 127.700344 49.992176 
L 127.700344 49.992176 
" style="fill:none;stroke:#0000ff;stroke-linecap:square;"/>
   </g>
   <g id="line2d_100">
    <path clip-path="url(#p6b2ad78a43)" d="M 127.700344 49.992176 
L 127.7226 50.000522 
L 127.7226 50.000522 
" style="fill:none;stroke:#0000ff;stroke-linecap:square;"/>
   </g>
   <g id="line2d_101">
    <path clip-path="url(#p6b2ad78a43)" d="M 127.7226 50.000522 
L 129.16095 48.935883 
L 129.16095 48.935883 
" style="fill:none;stroke:#0000ff;stroke-linecap:square;"/>
   </g>
   <g id="line2d_102">
    <path clip-path="url(#p6b2ad78a43)" d="M 129.16095 48.935883 
L 129.249973 48.969267 
L 129.249973 48.969267 
" style="fill:none;stroke:#0000ff;stroke-linecap:square;"/>
   </g>
   <g id="line2d_103">
    <path clip-path="url(#p6b2ad78a43)" d="M 129.249973 48.969267 
L 130.688323 47.904627 
L 130.688323 47.904627 
" style="fill:none;stroke:#0000ff;stroke-linecap:square;"/>
   </g>
   <g id="line2d_104">
    <path clip-path="url(#p6b2ad78a43)" d="M 130.688323 47.904627 
L 130.710578 47.912973 
L 130.710578 47.912973 
" style="fill:none;stroke:#0000ff;stroke-linecap:square;"/>
   </g>
   <g id="line2d_105">
    <path clip-path="url(#p6b2ad78a43)" d="M 130.710578 47.912973 
L 132.148928 46.848334 
L 132.148928 46.848334 
" style="fill:none;stroke:#0000ff;stroke-linecap:square;"/>
   </g>
   <g id="line2d_106">
    <path clip-path="url(#p6b2ad78a43)" d="M 132.148928 46.848334 
L 132.505021 46.981869 
L 132.505021 46.981869 
" style="fill:none;stroke:#0000ff;stroke-linecap:square;"/>
   </g>
   <g id="line2d_107">
    <path clip-path="url(#p6b2ad78a43)" d="M 132.505021 46.981869 
L 133.94337 45.917229 
L 133.94337 45.917229 
" style="fill:none;stroke:#0000ff;stroke-linecap:square;"/>
   </g>
   <g id="line2d_108">
    <path clip-path="url(#p6b2ad78a43)" d="M 133.94337 45.917229 
L 133.965626 45.925575 
L 133.965626 45.925575 
" style="fill:none;stroke:#0000ff;stroke-linecap:square;"/>
   </g>
   <g id="line2d_109">
    <path clip-path="url(#p6b2ad78a43)" d="M 133.965626 45.925575 
L 135.403976 44.860936 
L 135.403976 44.860936 
" style="fill:none;stroke:#0000ff;stroke-linecap:square;"/>
   </g>
   <g id="line2d_110">
    <path clip-path="url(#p6b2ad78a43)" d="M 135.403976 44.860936 
L 135.492999 44.89432 
L 135.492999 44.89432 
" style="fill:none;stroke:#0000ff;stroke-linecap:square;"/>
   </g>
   <g id="line2d_111">
    <path clip-path="url(#p6b2ad78a43)" d="M 135.492999 44.89432 
L 136.931348 43.82968 
L 136.931348 43.82968 
" style="fill:none;stroke:#0000ff;stroke-linecap:square;"/>
   </g>
   <g id="line2d_112">
    <path clip-path="url(#p6b2ad78a43)" d="M 136.931348 43.82968 
L 136.953604 43.838026 
L 136.953604 43.838026 
" style="fill:none;stroke:#0000ff;stroke-linecap:square;"/>
   </g>
   <g id="line2d_113">
    <path clip-path="url(#p6b2ad78a43)" d="M 136.953604 43.838026 
L 138.391954 42.773387 
L 138.391954 42.773387 
" style="fill:none;stroke:#0000ff;stroke-linecap:square;"/>
   </g>
   <g id="line2d_114">
    <path clip-path="url(#p6b2ad78a43)" d="M 138.391954 42.773387 
L 139.816324 43.307526 
L 139.816324 43.307526 
" style="fill:none;stroke:#0000ff;stroke-linecap:square;"/>
   </g>
   <g id="line2d_115">
    <path clip-path="url(#p6b2ad78a43)" d="M 139.816324 43.307526 
L 141.254674 42.242886 
L 141.254674 42.242886 
" style="fill:none;stroke:#0000ff;stroke-linecap:square;"/>
   </g>
   <g id="line2d_116">
    <path clip-path="url(#p6b2ad78a43)" d="M 141.254674 42.242886 
L 141.276929 42.251232 
L 141.276929 42.251232 
" style="fill:none;stroke:#0000ff;stroke-linecap:square;"/>
   </g>
   <g id="line2d_117">
    <path clip-path="url(#p6b2ad78a43)" d="M 141.276929 42.251232 
L 142.715279 41.186593 
L 142.715279 41.186593 
" style="fill:none;stroke:#0000ff;stroke-linecap:square;"/>
   </g>
   <g id="line2d_118">
    <path clip-path="url(#p6b2ad78a43)" d="M 142.715279 41.186593 
L 142.804302 41.219977 
L 142.804302 41.219977 
" style="fill:none;stroke:#0000ff;stroke-linecap:square;"/>
   </g>
   <g id="line2d_119">
    <path clip-path="url(#p6b2ad78a43)" d="M 142.804302 41.219977 
L 144.242652 40.155337 
L 144.242652 40.155337 
" style="fill:none;stroke:#0000ff;stroke-linecap:square;"/>
   </g>
   <g id="line2d_120">
    <path clip-path="url(#p6b2ad78a43)" d="M 144.242652 40.155337 
L 144.264907 40.163683 
L 144.264907 40.163683 
" style="fill:none;stroke:#0000ff;stroke-linecap:square;"/>
   </g>
   <g id="line2d_121">
    <path clip-path="url(#p6b2ad78a43)" d="M 144.264907 40.163683 
L 145.703257 39.099044 
L 145.703257 39.099044 
" style="fill:none;stroke:#0000ff;stroke-linecap:square;"/>
   </g>
   <g id="line2d_122">
    <path clip-path="url(#p6b2ad78a43)" d="M 145.703257 39.099044 
L 146.05935 39.232579 
L 146.05935 39.232579 
" style="fill:none;stroke:#0000ff;stroke-linecap:square;"/>
   </g>
   <g id="line2d_123">
    <path clip-path="url(#p6b2ad78a43)" d="M 146.05935 39.232579 
L 146.063573 39.229453 
L 146.073372 39.222199 
L 146.083156 39.214957 
L 146.08746 39.211772 
L 146.096806 39.204854 
L 146.106203 39.197898 
L 146.109933 39.195138 
L 146.117249 39.189723 
L 146.123551 39.185058 
L 146.135231 39.176412 
L 146.137438 39.174779 
L 146.144833 39.169306 
L 146.154592 39.162082 
L 146.163631 39.155391 
L 146.169264 39.151222 
L 146.17556 39.146562 
L 146.181196 39.14239 
L 146.190553 39.135465 
L 146.197393 39.130401 
L 146.206111 39.123949 
L 146.214486 39.11775 
L 146.215012 39.11736 
L 146.228371 39.107472 
L 146.233219 39.103884 
L 146.239867 39.098963 
L 146.244534 39.095508 
L 146.253642 39.088767 
L 146.263075 39.081785 
L 146.26774 39.078332 
L 146.279208 39.069844 
L 146.280012 39.069248 
L 146.291419 39.060805 
L 146.300856 39.05382 
L 146.306155 39.049898 
L 146.309544 39.047389 
L 146.318058 39.041087 
L 146.327828 39.033856 
L 146.334691 39.028776 
L 146.34298 39.022641 
L 146.349406 39.017885 
L 146.353308 39.014996 
L 146.360039 39.010014 
L 146.368015 39.00411 
L 146.379796 38.99539 
L 146.383291 38.992803 
L 146.394385 38.984591 
L 146.395834 38.983519 
L 146.404571 38.977053 
L 146.415683 38.968828 
L 146.422205 38.964 
L 146.427271 38.96025 
L 146.432873 38.956104 
L 146.446008 38.946381 
L 146.44657 38.945966 
L 146.455454 38.939389 
L 146.461991 38.934551 
L 146.470254 38.928435 
L 146.479093 38.921893 
L 146.48442 38.91795 
L 146.49293 38.91165 
L 146.4979 38.907972 
L 146.509969 38.899039 
L 146.512781 38.896957 
L 146.52349 38.889031 
L 146.531184 38.883336 
L 146.533491 38.881628 
" style="fill:none;stroke:#0000ff;stroke-linecap:square;"/>
   </g>
   <g id="line2d_124">
    <path clip-path="url(#p6b2ad78a43)" d="M 146.558152 38.863374 
L 147.497699 38.167939 
L 147.497699 38.167939 
" style="fill:none;stroke:#0000ff;stroke-linecap:square;"/>
   </g>
   <g id="line2d_125">
    <path clip-path="url(#p6b2ad78a43)" d="M 147.497699 38.167939 
L 147.519955 38.176285 
L 147.519955 38.176285 
" style="fill:none;stroke:#0000ff;stroke-linecap:square;"/>
   </g>
   <g id="line2d_126">
    <path clip-path="url(#p6b2ad78a43)" d="M 147.519955 38.176285 
L 148.958305 37.111646 
L 148.958305 37.111646 
" style="fill:none;stroke:#0000ff;stroke-linecap:square;"/>
   </g>
   <g id="line2d_127">
    <path clip-path="url(#p6b2ad78a43)" d="M 148.958305 37.111646 
L 149.047328 37.145029 
L 149.047328 37.145029 
" style="fill:none;stroke:#0000ff;stroke-linecap:square;"/>
   </g>
   <g id="line2d_128">
    <path clip-path="url(#p6b2ad78a43)" d="M 149.047328 37.145029 
L 150.485677 36.08039 
L 150.485677 36.08039 
" style="fill:none;stroke:#0000ff;stroke-linecap:square;"/>
   </g>
   <g id="line2d_129">
    <path clip-path="url(#p6b2ad78a43)" d="M 150.485677 36.08039 
L 150.507933 36.088736 
L 150.507933 36.088736 
" style="fill:none;stroke:#0000ff;stroke-linecap:square;"/>
   </g>
   <g id="line2d_130">
    <path clip-path="url(#p6b2ad78a43)" d="M 150.507933 36.088736 
L 151.946283 35.024097 
L 151.946283 35.024097 
" style="fill:none;stroke:#0000ff;stroke-linecap:square;"/>
   </g>
   <g id="line2d_131">
    <path clip-path="url(#p6b2ad78a43)" d="M 151.946283 35.024097 
L 243.105972 69.20898 
L 243.105972 69.20898 
" style="fill:none;stroke:#0000ff;stroke-linecap:square;"/>
   </g>
   <g id="line2d_132">
    <path clip-path="url(#p6b2ad78a43)" d="M 243.105972 69.20898 
L 244.544321 68.144341 
L 244.544321 68.144341 
" style="fill:none;stroke:#0000ff;stroke-linecap:square;"/>
   </g>
   <g id="line2d_133">
    <path clip-path="url(#p6b2ad78a43)" d="M 244.544321 68.144341 
L 244.566577 68.152687 
L 244.566577 68.152687 
" style="fill:none;stroke:#0000ff;stroke-linecap:square;"/>
   </g>
   <g id="line2d_134">
    <path clip-path="url(#p6b2ad78a43)" d="M 244.566577 68.152687 
L 244.57504 68.146423 
L 244.578425 68.143917 
L 244.585526 68.138661 
L 244.59767 68.129672 
L 244.603503 68.125355 
L 244.613164 68.118204 
L 244.61933 68.11364 
L 244.622274 68.111461 
L 244.631935 68.10431 
L 244.641071 68.097548 
L 244.64294 68.096164 
L 244.650055 68.090898 
L 244.658442 68.08469 
L 244.667756 68.077796 
L 244.673321 68.073677 
L 244.678981 68.069487 
L 244.692144 68.059744 
L 244.695405 68.057331 
L 244.702574 68.052024 
L 244.710414 68.046221 
L 244.721917 68.037707 
L 244.723102 68.03683 
L 244.73616 68.027165 
L 244.741715 68.023053 
L 244.74614 68.019778 
L 244.756893 68.011818 
L 244.765135 68.005718 
L 244.771133 68.001279 
L 244.775046 67.998382 
L 244.783275 67.992291 
" style="fill:none;stroke:#0000ff;stroke-linecap:square;"/>
   </g>
   <g id="line2d_135">
    <path clip-path="url(#p6b2ad78a43)" d="M 244.804353 67.97669 
L 246.004927 67.088047 
L 246.004927 67.088047 
" style="fill:none;stroke:#0000ff;stroke-linecap:square;"/>
   </g>
   <g id="line2d_136">
    <path clip-path="url(#p6b2ad78a43)" d="M 246.004927 67.088047 
L 246.09395 67.121431 
L 246.09395 67.121431 
" style="fill:none;stroke:#0000ff;stroke-linecap:square;"/>
   </g>
   <g id="line2d_137">
    <path clip-path="url(#p6b2ad78a43)" d="M 246.09395 67.121431 
L 247.5323 66.056792 
L 247.5323 66.056792 
" style="fill:none;stroke:#0000ff;stroke-linecap:square;"/>
   </g>
   <g id="line2d_138">
    <path clip-path="url(#p6b2ad78a43)" d="M 247.5323 66.056792 
L 247.554555 66.065138 
L 247.554555 66.065138 
" style="fill:none;stroke:#0000ff;stroke-linecap:square;"/>
   </g>
   <g id="line2d_139">
    <path clip-path="url(#p6b2ad78a43)" d="M 247.554555 66.065138 
L 248.992905 65.000498 
L 248.992905 65.000498 
" style="fill:none;stroke:#0000ff;stroke-linecap:square;"/>
   </g>
   <g id="line2d_140">
    <path clip-path="url(#p6b2ad78a43)" d="M 248.992905 65.000498 
L 249.348998 65.134033 
L 249.348998 65.134033 
" style="fill:none;stroke:#0000ff;stroke-linecap:square;"/>
   </g>
   <g id="line2d_141">
    <path clip-path="url(#p6b2ad78a43)" d="M 249.348998 65.134033 
L 250.787347 64.069394 
L 250.787347 64.069394 
" style="fill:none;stroke:#0000ff;stroke-linecap:square;"/>
   </g>
   <g id="line2d_142">
    <path clip-path="url(#p6b2ad78a43)" d="M 250.787347 64.069394 
L 250.809603 64.07774 
L 250.809603 64.07774 
" style="fill:none;stroke:#0000ff;stroke-linecap:square;"/>
   </g>
   <g id="line2d_143">
    <path clip-path="url(#p6b2ad78a43)" d="M 250.809603 64.07774 
L 252.247953 63.0131 
L 252.247953 63.0131 
" style="fill:none;stroke:#0000ff;stroke-linecap:square;"/>
   </g>
   <g id="line2d_144">
    <path clip-path="url(#p6b2ad78a43)" d="M 252.247953 63.0131 
L 252.336976 63.046484 
L 252.336976 63.046484 
" style="fill:none;stroke:#0000ff;stroke-linecap:square;"/>
   </g>
   <g id="line2d_145">
    <path clip-path="url(#p6b2ad78a43)" d="M 252.336976 63.046484 
L 253.775325 61.981845 
L 253.775325 61.981845 
" style="fill:none;stroke:#0000ff;stroke-linecap:square;"/>
   </g>
   <g id="line2d_146">
    <path clip-path="url(#p6b2ad78a43)" d="M 253.775325 61.981845 
L 253.797581 61.990191 
L 253.797581 61.990191 
" style="fill:none;stroke:#0000ff;stroke-linecap:square;"/>
   </g>
   <g id="line2d_147">
    <path clip-path="url(#p6b2ad78a43)" d="M 253.797581 61.990191 
L 255.235931 60.925551 
L 255.235931 60.925551 
" style="fill:none;stroke:#0000ff;stroke-linecap:square;"/>
   </g>
   <g id="line2d_148">
    <path clip-path="url(#p6b2ad78a43)" d="M 255.235931 60.925551 
L 256.660301 61.45969 
L 256.660301 61.45969 
" style="fill:none;stroke:#0000ff;stroke-linecap:square;"/>
   </g>
   <g id="line2d_149">
    <path clip-path="url(#p6b2ad78a43)" d="M 256.660301 61.45969 
L 258.098651 60.395051 
L 258.098651 60.395051 
" style="fill:none;stroke:#0000ff;stroke-linecap:square;"/>
   </g>
   <g id="line2d_150">
    <path clip-path="url(#p6b2ad78a43)" d="M 258.098651 60.395051 
L 258.120906 60.403397 
L 258.120906 60.403397 
" style="fill:none;stroke:#0000ff;stroke-linecap:square;"/>
   </g>
   <g id="line2d_151">
    <path clip-path="url(#p6b2ad78a43)" d="M 258.120906 60.403397 
L 259.559256 59.338757 
L 259.559256 59.338757 
" style="fill:none;stroke:#0000ff;stroke-linecap:square;"/>
   </g>
   <g id="line2d_152">
    <path clip-path="url(#p6b2ad78a43)" d="M 259.559256 59.338757 
L 259.648279 59.372141 
L 259.648279 59.372141 
" style="fill:none;stroke:#0000ff;stroke-linecap:square;"/>
   </g>
   <g id="line2d_153">
    <path clip-path="url(#p6b2ad78a43)" d="M 259.648279 59.372141 
L 261.086629 58.307502 
L 261.086629 58.307502 
" style="fill:none;stroke:#0000ff;stroke-linecap:square;"/>
   </g>
   <g id="line2d_154">
    <path clip-path="url(#p6b2ad78a43)" d="M 261.086629 58.307502 
L 261.108885 58.315848 
L 261.108885 58.315848 
" style="fill:none;stroke:#0000ff;stroke-linecap:square;"/>
   </g>
   <g id="line2d_155">
    <path clip-path="url(#p6b2ad78a43)" d="M 261.108885 58.315848 
L 262.547234 57.251208 
L 262.547234 57.251208 
" style="fill:none;stroke:#0000ff;stroke-linecap:square;"/>
   </g>
   <g id="line2d_156">
    <path clip-path="url(#p6b2ad78a43)" d="M 262.547234 57.251208 
L 262.903327 57.384743 
L 262.903327 57.384743 
" style="fill:none;stroke:#0000ff;stroke-linecap:square;"/>
   </g>
   <g id="line2d_157">
    <path clip-path="url(#p6b2ad78a43)" d="M 262.903327 57.384743 
L 264.341676 56.320104 
L 264.341676 56.320104 
" style="fill:none;stroke:#0000ff;stroke-linecap:square;"/>
   </g>
   <g id="line2d_158">
    <path clip-path="url(#p6b2ad78a43)" d="M 264.341676 56.320104 
L 264.363932 56.32845 
L 264.363932 56.32845 
" style="fill:none;stroke:#0000ff;stroke-linecap:square;"/>
   </g>
   <g id="line2d_159">
    <path clip-path="url(#p6b2ad78a43)" d="M 264.363932 56.32845 
L 265.802282 55.26381 
L 265.802282 55.26381 
" style="fill:none;stroke:#0000ff;stroke-linecap:square;"/>
   </g>
   <g id="line2d_160">
    <path clip-path="url(#p6b2ad78a43)" d="M 265.802282 55.26381 
L 265.891305 55.297194 
L 265.891305 55.297194 
" style="fill:none;stroke:#0000ff;stroke-linecap:square;"/>
   </g>
   <g id="line2d_161">
    <path clip-path="url(#p6b2ad78a43)" d="M 265.891305 55.297194 
L 267.329654 54.232555 
L 267.329654 54.232555 
" style="fill:none;stroke:#0000ff;stroke-linecap:square;"/>
   </g>
   <g id="line2d_162">
    <path clip-path="url(#p6b2ad78a43)" d="M 267.329654 54.232555 
L 267.35191 54.240901 
L 267.35191 54.240901 
" style="fill:none;stroke:#0000ff;stroke-linecap:square;"/>
   </g>
   <g id="line2d_163">
    <path clip-path="url(#p6b2ad78a43)" d="M 267.35191 54.240901 
L 268.79026 53.176261 
L 268.79026 53.176261 
" style="fill:none;stroke:#0000ff;stroke-linecap:square;"/>
   </g>
   <g id="line2d_164">
    <path clip-path="url(#p6b2ad78a43)" d="M 268.79026 53.176261 
L 274.48774 55.312817 
L 274.48774 55.312817 
" style="fill:none;stroke:#0000ff;stroke-linecap:square;"/>
   </g>
   <g id="line2d_165">
    <path clip-path="url(#p6b2ad78a43)" d="M 274.48774 55.312817 
L 275.92609 54.248177 
L 275.92609 54.248177 
" style="fill:none;stroke:#0000ff;stroke-linecap:square;"/>
   </g>
   <g id="line2d_166">
    <path clip-path="url(#p6b2ad78a43)" d="M 275.92609 54.248177 
L 275.948346 54.256523 
L 275.948346 54.256523 
" style="fill:none;stroke:#0000ff;stroke-linecap:square;"/>
   </g>
   <g id="line2d_167">
    <path clip-path="url(#p6b2ad78a43)" d="M 275.948346 54.256523 
L 277.386695 53.191884 
L 277.386695 53.191884 
" style="fill:none;stroke:#0000ff;stroke-linecap:square;"/>
   </g>
   <g id="line2d_168">
    <path clip-path="url(#p6b2ad78a43)" d="M 277.386695 53.191884 
L 277.475719 53.225267 
L 277.475719 53.225267 
" style="fill:none;stroke:#0000ff;stroke-linecap:square;"/>
   </g>
   <g id="line2d_169">
    <path clip-path="url(#p6b2ad78a43)" d="M 277.475719 53.225267 
L 278.914068 52.160628 
L 278.914068 52.160628 
" style="fill:none;stroke:#0000ff;stroke-linecap:square;"/>
   </g>
   <g id="line2d_170">
    <path clip-path="url(#p6b2ad78a43)" d="M 278.914068 52.160628 
L 278.936324 52.168974 
L 278.936324 52.168974 
" style="fill:none;stroke:#0000ff;stroke-linecap:square;"/>
   </g>
   <g id="line2d_171">
    <path clip-path="url(#p6b2ad78a43)" d="M 278.936324 52.168974 
L 280.374674 51.104335 
L 280.374674 51.104335 
" style="fill:none;stroke:#0000ff;stroke-linecap:square;"/>
   </g>
   <g id="line2d_172">
    <path clip-path="url(#p6b2ad78a43)" d="M 280.374674 51.104335 
L 280.730766 51.237869 
L 280.730766 51.237869 
" style="fill:none;stroke:#0000ff;stroke-linecap:square;"/>
   </g>
   <g id="line2d_173">
    <path clip-path="url(#p6b2ad78a43)" d="M 280.730766 51.237869 
L 282.169116 50.17323 
L 282.169116 50.17323 
" style="fill:none;stroke:#0000ff;stroke-linecap:square;"/>
   </g>
   <g id="line2d_174">
    <path clip-path="url(#p6b2ad78a43)" d="M 282.169116 50.17323 
L 282.191372 50.181576 
L 282.191372 50.181576 
" style="fill:none;stroke:#0000ff;stroke-linecap:square;"/>
   </g>
   <g id="line2d_175">
    <path clip-path="url(#p6b2ad78a43)" d="M 282.191372 50.181576 
L 283.629721 49.116937 
L 283.629721 49.116937 
" style="fill:none;stroke:#0000ff;stroke-linecap:square;"/>
   </g>
   <g id="line2d_176">
    <path clip-path="url(#p6b2ad78a43)" d="M 283.629721 49.116937 
L 283.718744 49.15032 
L 283.718744 49.15032 
" style="fill:none;stroke:#0000ff;stroke-linecap:square;"/>
   </g>
   <g id="line2d_177">
    <path clip-path="url(#p6b2ad78a43)" d="M 283.718744 49.15032 
L 285.157094 48.085681 
L 285.157094 48.085681 
" style="fill:none;stroke:#0000ff;stroke-linecap:square;"/>
   </g>
   <g id="line2d_178">
    <path clip-path="url(#p6b2ad78a43)" d="M 285.157094 48.085681 
L 285.17935 48.094027 
L 285.17935 48.094027 
" style="fill:none;stroke:#0000ff;stroke-linecap:square;"/>
   </g>
   <g id="line2d_179">
    <path clip-path="url(#p6b2ad78a43)" d="M 285.17935 48.094027 
L 286.617699 47.029388 
L 286.617699 47.029388 
" style="fill:none;stroke:#0000ff;stroke-linecap:square;"/>
   </g>
   <g id="line2d_180">
    <path clip-path="url(#p6b2ad78a43)" d="M 286.617699 47.029388 
L 288.04207 47.563526 
L 288.04207 47.563526 
" style="fill:none;stroke:#0000ff;stroke-linecap:square;"/>
   </g>
   <g id="line2d_181">
    <path clip-path="url(#p6b2ad78a43)" d="M 288.04207 47.563526 
L 289.480419 46.498887 
L 289.480419 46.498887 
" style="fill:none;stroke:#0000ff;stroke-linecap:square;"/>
   </g>
   <g id="line2d_182">
    <path clip-path="url(#p6b2ad78a43)" d="M 289.480419 46.498887 
L 289.502675 46.507233 
L 289.502675 46.507233 
" style="fill:none;stroke:#0000ff;stroke-linecap:square;"/>
   </g>
   <g id="line2d_183">
    <path clip-path="url(#p6b2ad78a43)" d="M 289.502675 46.507233 
L 290.941025 45.442594 
L 290.941025 45.442594 
" style="fill:none;stroke:#0000ff;stroke-linecap:square;"/>
   </g>
   <g id="line2d_184">
    <path clip-path="url(#p6b2ad78a43)" d="M 290.941025 45.442594 
L 291.030048 45.475977 
L 291.030048 45.475977 
" style="fill:none;stroke:#0000ff;stroke-linecap:square;"/>
   </g>
   <g id="line2d_185">
    <path clip-path="url(#p6b2ad78a43)" d="M 291.030048 45.475977 
L 291.034548 45.472646 
L 291.042658 45.466643 
L 291.055149 45.457398 
L 291.05776 45.455465 
L 291.063971 45.450868 
L 291.072165 45.444803 
L 291.083449 45.43645 
L 291.090974 45.430881 
L 291.092007 45.430116 
L 291.10377 45.42141 
L 291.106841 45.419136 
L 291.116981 45.411631 
L 291.123198 45.407029 
L 291.134269 45.398835 
L 291.138672 45.395576 
L 291.143823 45.391763 
L 291.156513 45.38237 
L 291.16315 45.377458 
L 291.167474 45.374257 
L 291.178147 45.366357 
L 291.184585 45.361592 
L 291.192038 45.356075 
L 291.197668 45.351908 
L 291.206013 45.345731 
L 291.210899 45.342114 
L 291.217743 45.337049 
L 291.222194 45.333755 
L 291.230993 45.327242 
L 291.241504 45.319461 
L 291.244701 45.317095 
L 291.252459 45.311353 
L 291.259184 45.306375 
L 291.265921 45.301388 
L 291.276855 45.293295 
L 291.283903 45.288079 
L 291.290746 45.283013 
L 291.294321 45.280367 
L 291.307086 45.270919 
L 291.309083 45.26944 
L 291.321388 45.260333 
L 291.327212 45.256022 
L 291.335509 45.249881 
L 291.343806 45.243739 
L 291.351339 45.238164 
L 291.357222 45.233809 
L 291.360691 45.231242 
L 291.366445 45.226983 
L 291.377992 45.218436 
L 291.387595 45.211327 
L 291.390242 45.209369 
L 291.398861 45.202989 
L 291.406054 45.197664 
L 291.415749 45.190488 
L 291.418304 45.188598 
L 291.425795 45.183053 
L 291.438103 45.173943 
L 291.440694 45.172025 
L 291.446786 45.167516 
L 291.453272 45.162715 
L 291.466381 45.153011 
L 291.471393 45.149302 
L 291.477732 45.14461 
L 291.485226 45.139063 
L 291.495926 45.131143 
L 291.500801 45.127534 
L 291.504246 45.124985 
L 291.513817 45.1179 
L 291.520542 45.112923 
L 291.52797 45.107425 
L 291.53266 45.103954 
L 291.545475 45.094467 
L 291.550355 45.090856 
L 291.560747 45.083164 
L 291.567926 45.07785 
L 291.573763 45.073529 
L 291.57743 45.070816 
L 291.587453 45.063396 
L 291.597067 45.05628 
L 291.599923 45.054166 
L 291.606412 45.049363 
L 291.612251 45.045042 
L 291.622422 45.037513 
L 291.62756 45.03371 
L 291.639469 45.024896 
L 291.64716 45.019202 
L 291.651147 45.016251 
L 291.658527 45.010789 
L 291.669126 45.002943 
L 291.674976 44.998614 
L 291.681697 44.993639 
L 291.690278 44.987287 
L 291.697713 44.981784 
L 291.703604 44.977424 
L 291.708511 44.973791 
L 291.71327 44.970269 
L 291.722298 44.963587 
L 291.730277 44.957681 
L 291.740151 44.950372 
L 291.746182 44.945909 
L 291.75173 44.941801 
L 291.763038 44.933432 
L 291.76619 44.931098 
L 291.774811 44.924717 
L 291.781722 44.919602 
L 291.789017 44.914202 
L 291.79698 44.908309 
L 291.801613 44.904879 
L 291.814024 44.895693 
L 291.814882 44.895058 
L 291.82437 44.888035 
L 291.831119 44.88304 
L 291.837145 44.878579 
" style="fill:none;stroke:#0000ff;stroke-linecap:square;"/>
   </g>
   <g id="line2d_186">
    <path clip-path="url(#p6b2ad78a43)" d="M 291.858067 44.863093 
L 291.865908 44.857289 
L 291.878543 44.847937 
L 291.880979 44.846134 
L 291.889769 44.839628 
L 291.896621 44.834556 
L 291.907529 44.826482 
L 291.908841 44.825511 
L 291.920557 44.816839 
L 291.927694 44.811556 
L 291.932341 44.808117 
L 291.93809 44.803861 
L 291.949137 44.795685 
L 291.955752 44.790788 
L 291.963731 44.784883 
L 291.969865 44.780342 
L 291.975521 44.776156 
L 291.981165 44.771978 
L 291.993787 44.762635 
L 291.998525 44.759129 
L 292.005663 44.753845 
L 292.010639 44.750162 
L 292.021141 44.742389 
L 292.030004 44.735829 
L 292.03653 44.730998 
L 292.038588 44.729475 
L 292.048437 44.722185 
L 292.059669 44.713871 
L 292.061343 44.712632 
L 292.071992 44.70475 
L 292.078818 44.699697 
L 292.083255 44.696413 
L 292.089505 44.691787 
L 292.100051 44.683981 
L 292.110133 44.676519 
L 292.114538 44.673258 
L 292.124458 44.665916 
L 292.129218 44.662392 
L 292.135793 44.657526 
L 292.146132 44.649873 
L 292.1509 44.646343 
L 292.155877 44.64266 
L 292.165535 44.635511 
L 292.173706 44.629463 
L 292.181063 44.624018 
L 292.188171 44.618757 
L 292.195924 44.613018 
L 292.201482 44.608904 
L 292.205313 44.606068 
L 292.214655 44.599153 
L 292.221484 44.594099 
L 292.23081 44.587196 
L 292.235297 44.583874 
L 292.246334 44.575705 
L 292.248765 44.573906 
L 292.258908 44.566398 
L 292.26827 44.559469 
L 292.27355 44.55556 
L 292.279361 44.551259 
L 292.289567 44.543705 
L 292.29805 44.537426 
L 292.299001 44.536722 
L 292.307339 44.53055 
L 292.314995 44.524883 
L 292.32745 44.515665 
L 292.329491 44.514154 
L 292.340478 44.506022 
L 292.342975 44.504173 
L 292.354561 44.495598 
L 292.356896 44.493869 
L 292.367896 44.485727 
L 292.374819 44.480603 
L 292.382304 44.475063 
L 292.389219 44.469945 
L 292.395694 44.465151 
L 292.40049 44.461602 
L 292.411687 44.453314 
L 292.415299 44.450641 
L 292.425391 44.443171 
L 292.432917 44.4376 
L 292.439933 44.432407 
L 292.44438 44.429115 
L 292.450333 44.424709 
L 292.46104 44.416784 
L 292.468397 44.411338 
" style="fill:none;stroke:#0000ff;stroke-linecap:square;"/>
   </g>
   <g id="line2d_187">
    <path clip-path="url(#p6b2ad78a43)" d="M 292.468397 44.411338 
L 292.490653 44.419684 
L 292.490653 44.419684 
" style="fill:none;stroke:#0000ff;stroke-linecap:square;"/>
   </g>
   <g id="line2d_188">
    <path clip-path="url(#p6b2ad78a43)" d="M 292.490653 44.419684 
L 293.929003 43.355045 
L 293.929003 43.355045 
" style="fill:none;stroke:#0000ff;stroke-linecap:square;"/>
   </g>
   <g id="line2d_189">
    <path clip-path="url(#p6b2ad78a43)" d="M 293.929003 43.355045 
L 294.285095 43.488579 
L 294.285095 43.488579 
" style="fill:none;stroke:#0000ff;stroke-linecap:square;"/>
   </g>
   <g id="line2d_190">
    <path clip-path="url(#p6b2ad78a43)" d="M 294.285095 43.488579 
L 295.723445 42.42394 
L 295.723445 42.42394 
" style="fill:none;stroke:#0000ff;stroke-linecap:square;"/>
   </g>
   <g id="line2d_191">
    <path clip-path="url(#p6b2ad78a43)" d="M 295.723445 42.42394 
L 295.745701 42.432286 
L 295.745701 42.432286 
" style="fill:none;stroke:#0000ff;stroke-linecap:square;"/>
   </g>
   <g id="line2d_192">
    <path clip-path="url(#p6b2ad78a43)" d="M 295.745701 42.432286 
L 297.18405 41.367647 
L 297.18405 41.367647 
" style="fill:none;stroke:#0000ff;stroke-linecap:square;"/>
   </g>
   <g id="line2d_193">
    <path clip-path="url(#p6b2ad78a43)" d="M 297.18405 41.367647 
L 297.273073 41.40103 
L 297.273073 41.40103 
" style="fill:none;stroke:#0000ff;stroke-linecap:square;"/>
   </g>
   <g id="line2d_194">
    <path clip-path="url(#p6b2ad78a43)" d="M 297.273073 41.40103 
L 298.711423 40.336391 
L 298.711423 40.336391 
" style="fill:none;stroke:#0000ff;stroke-linecap:square;"/>
   </g>
   <g id="line2d_195">
    <path clip-path="url(#p6b2ad78a43)" d="M 298.711423 40.336391 
L 298.733679 40.344737 
L 298.733679 40.344737 
" style="fill:none;stroke:#0000ff;stroke-linecap:square;"/>
   </g>
   <g id="line2d_196">
    <path clip-path="url(#p6b2ad78a43)" d="M 298.733679 40.344737 
L 300.172028 39.280098 
L 300.172028 39.280098 
" style="fill:none;stroke:#0000ff;stroke-linecap:square;"/>
   </g>
   <g id="line2d_197">
    <path clip-path="url(#p6b2ad78a43)" d="M 300.172028 39.280098 
L 322.961951 47.826318 
L 322.961951 47.826318 
" style="fill:none;stroke:#0000ff;stroke-linecap:square;"/>
   </g>
   <g id="line2d_198">
    <path clip-path="url(#p6b2ad78a43)" d="M 322.961951 47.826318 
L 324.4003 46.761679 
L 324.4003 46.761679 
" style="fill:none;stroke:#0000ff;stroke-linecap:square;"/>
   </g>
   <g id="line2d_199">
    <path clip-path="url(#p6b2ad78a43)" d="M 324.4003 46.761679 
L 324.422556 46.770025 
L 324.422556 46.770025 
" style="fill:none;stroke:#0000ff;stroke-linecap:square;"/>
   </g>
   <g id="line2d_200">
    <path clip-path="url(#p6b2ad78a43)" d="M 324.422556 46.770025 
L 325.860906 45.705386 
L 325.860906 45.705386 
" style="fill:none;stroke:#0000ff;stroke-linecap:square;"/>
   </g>
   <g id="line2d_201">
    <path clip-path="url(#p6b2ad78a43)" d="M 325.860906 45.705386 
L 325.949929 45.738769 
L 325.949929 45.738769 
" style="fill:none;stroke:#0000ff;stroke-linecap:square;"/>
   </g>
   <g id="line2d_202">
    <path clip-path="url(#p6b2ad78a43)" d="M 325.949929 45.738769 
L 327.388278 44.67413 
L 327.388278 44.67413 
" style="fill:none;stroke:#0000ff;stroke-linecap:square;"/>
   </g>
   <g id="line2d_203">
    <path clip-path="url(#p6b2ad78a43)" d="M 327.388278 44.67413 
L 327.410534 44.682476 
L 327.410534 44.682476 
" style="fill:none;stroke:#0000ff;stroke-linecap:square;"/>
   </g>
   <g id="line2d_204">
    <path clip-path="url(#p6b2ad78a43)" d="M 327.410534 44.682476 
L 328.848884 43.617837 
L 328.848884 43.617837 
" style="fill:none;stroke:#0000ff;stroke-linecap:square;"/>
   </g>
   <g id="line2d_205">
    <path clip-path="url(#p6b2ad78a43)" d="M 328.848884 43.617837 
L 329.204976 43.751371 
L 329.204976 43.751371 
" style="fill:none;stroke:#0000ff;stroke-linecap:square;"/>
   </g>
   <g id="line2d_206">
    <path clip-path="url(#p6b2ad78a43)" d="M 329.204976 43.751371 
L 330.643326 42.686732 
L 330.643326 42.686732 
" style="fill:none;stroke:#0000ff;stroke-linecap:square;"/>
   </g>
   <g id="line2d_207">
    <path clip-path="url(#p6b2ad78a43)" d="M 330.643326 42.686732 
L 330.665582 42.695078 
L 330.665582 42.695078 
" style="fill:none;stroke:#0000ff;stroke-linecap:square;"/>
   </g>
   <g id="line2d_208">
    <path clip-path="url(#p6b2ad78a43)" d="M 330.665582 42.695078 
L 332.103931 41.630439 
L 332.103931 41.630439 
" style="fill:none;stroke:#0000ff;stroke-linecap:square;"/>
   </g>
   <g id="line2d_209">
    <path clip-path="url(#p6b2ad78a43)" d="M 332.103931 41.630439 
L 332.192955 41.663822 
L 332.192955 41.663822 
" style="fill:none;stroke:#0000ff;stroke-linecap:square;"/>
   </g>
   <g id="line2d_210">
    <path clip-path="url(#p6b2ad78a43)" d="M 332.192955 41.663822 
L 333.631304 40.599183 
L 333.631304 40.599183 
" style="fill:none;stroke:#0000ff;stroke-linecap:square;"/>
   </g>
   <g id="line2d_211">
    <path clip-path="url(#p6b2ad78a43)" d="M 333.631304 40.599183 
L 333.65356 40.607529 
L 333.65356 40.607529 
" style="fill:none;stroke:#0000ff;stroke-linecap:square;"/>
   </g>
   <g id="line2d_212">
    <path clip-path="url(#p6b2ad78a43)" d="M 333.65356 40.607529 
L 335.09191 39.54289 
L 335.09191 39.54289 
" style="fill:none;stroke:#0000ff;stroke-linecap:square;"/>
   </g>
   <g id="line2d_213">
    <path clip-path="url(#p6b2ad78a43)" d="M 335.09191 39.54289 
L 336.51628 40.077028 
L 336.51628 40.077028 
" style="fill:none;stroke:#0000ff;stroke-linecap:square;"/>
   </g>
   <g id="line2d_214">
    <path clip-path="url(#p6b2ad78a43)" d="M 336.51628 40.077028 
L 337.954629 39.012389 
L 337.954629 39.012389 
" style="fill:none;stroke:#0000ff;stroke-linecap:square;"/>
   </g>
   <g id="line2d_215">
    <path clip-path="url(#p6b2ad78a43)" d="M 337.954629 39.012389 
L 337.976885 39.020735 
L 337.976885 39.020735 
" style="fill:none;stroke:#0000ff;stroke-linecap:square;"/>
   </g>
   <g id="line2d_216">
    <path clip-path="url(#p6b2ad78a43)" d="M 337.976885 39.020735 
L 339.415235 37.956096 
L 339.415235 37.956096 
" style="fill:none;stroke:#0000ff;stroke-linecap:square;"/>
   </g>
   <g id="line2d_217">
    <path clip-path="url(#p6b2ad78a43)" d="M 339.415235 37.956096 
L 339.504258 37.989479 
L 339.504258 37.989479 
" style="fill:none;stroke:#0000ff;stroke-linecap:square;"/>
   </g>
   <g id="line2d_218">
    <path clip-path="url(#p6b2ad78a43)" d="M 339.504258 37.989479 
L 340.942608 36.92484 
L 340.942608 36.92484 
" style="fill:none;stroke:#0000ff;stroke-linecap:square;"/>
   </g>
   <g id="line2d_219">
    <path clip-path="url(#p6b2ad78a43)" d="M 340.942608 36.92484 
L 340.964863 36.933186 
L 340.964863 36.933186 
" style="fill:none;stroke:#0000ff;stroke-linecap:square;"/>
   </g>
   <g id="line2d_220">
    <path clip-path="url(#p6b2ad78a43)" d="M 340.964863 36.933186 
L 342.403213 35.868547 
L 342.403213 35.868547 
" style="fill:none;stroke:#0000ff;stroke-linecap:square;"/>
   </g>
   <g id="line2d_221">
    <path clip-path="url(#p6b2ad78a43)" d="M 342.403213 35.868547 
L 342.759306 36.002081 
L 342.759306 36.002081 
" style="fill:none;stroke:#0000ff;stroke-linecap:square;"/>
   </g>
   <g id="line2d_222">
    <path clip-path="url(#p6b2ad78a43)" d="M 342.759306 36.002081 
L 344.197655 34.937442 
L 344.197655 34.937442 
" style="fill:none;stroke:#0000ff;stroke-linecap:square;"/>
   </g>
   <g id="line2d_223">
    <path clip-path="url(#p6b2ad78a43)" d="M 344.197655 34.937442 
L 344.219911 34.945788 
L 344.219911 34.945788 
" style="fill:none;stroke:#0000ff;stroke-linecap:square;"/>
   </g>
   <g id="line2d_224">
    <path clip-path="url(#p6b2ad78a43)" d="M 344.219911 34.945788 
L 345.658261 33.881149 
L 345.658261 33.881149 
" style="fill:none;stroke:#0000ff;stroke-linecap:square;"/>
   </g>
   <g id="line2d_225">
    <path clip-path="url(#p6b2ad78a43)" d="M 345.658261 33.881149 
L 345.747284 33.914532 
L 345.747284 33.914532 
" style="fill:none;stroke:#0000ff;stroke-linecap:square;"/>
   </g>
   <g id="line2d_226">
    <path clip-path="url(#p6b2ad78a43)" d="M 345.747284 33.914532 
L 347.185633 32.849893 
L 347.185633 32.849893 
" style="fill:none;stroke:#0000ff;stroke-linecap:square;"/>
   </g>
   <g id="line2d_227">
    <path clip-path="url(#p6b2ad78a43)" d="M 347.185633 32.849893 
L 347.207889 32.858239 
L 347.207889 32.858239 
" style="fill:none;stroke:#0000ff;stroke-linecap:square;"/>
   </g>
   <g id="line2d_228">
    <path clip-path="url(#p6b2ad78a43)" d="M 347.207889 32.858239 
L 348.646239 31.7936 
L 348.646239 31.7936 
" style="fill:none;stroke:#0000ff;stroke-linecap:square;"/>
   </g>
   <g id="line2d_229">
    <path clip-path="url(#p6b2ad78a43)" d="M 348.646239 31.7936 
L 354.343719 33.930155 
L 354.343719 33.930155 
" style="fill:none;stroke:#0000ff;stroke-linecap:square;"/>
   </g>
   <g id="line2d_230">
    <path clip-path="url(#p6b2ad78a43)" d="M 354.343719 33.930155 
L 355.782069 32.865516 
L 355.782069 32.865516 
" style="fill:none;stroke:#0000ff;stroke-linecap:square;"/>
   </g>
   <g id="line2d_231">
    <path clip-path="url(#p6b2ad78a43)" d="M 355.782069 32.865516 
L 355.804325 32.873861 
L 355.804325 32.873861 
" style="fill:none;stroke:#0000ff;stroke-linecap:square;"/>
   </g>
   <g id="line2d_232">
    <path clip-path="url(#p6b2ad78a43)" d="M 355.804325 32.873861 
L 357.242674 31.809222 
L 357.242674 31.809222 
" style="fill:none;stroke:#0000ff;stroke-linecap:square;"/>
   </g>
   <g id="line2d_233">
    <path clip-path="url(#p6b2ad78a43)" d="M 357.242674 31.809222 
L 357.331697 31.842606 
L 357.331697 31.842606 
" style="fill:none;stroke:#0000ff;stroke-linecap:square;"/>
   </g>
   <g id="line2d_234">
    <path clip-path="url(#p6b2ad78a43)" d="M 357.331697 31.842606 
L 358.770047 30.777966 
L 358.770047 30.777966 
" style="fill:none;stroke:#0000ff;stroke-linecap:square;"/>
   </g>
   <g id="line2d_235">
    <path clip-path="url(#p6b2ad78a43)" d="M 358.770047 30.777966 
L 358.792303 30.786312 
L 358.792303 30.786312 
" style="fill:none;stroke:#0000ff;stroke-linecap:square;"/>
   </g>
   <g id="line2d_236">
    <path clip-path="url(#p6b2ad78a43)" d="M 358.792303 30.786312 
L 360.230652 29.721673 
L 360.230652 29.721673 
" style="fill:none;stroke:#0000ff;stroke-linecap:square;"/>
   </g>
   <g id="line2d_237">
    <path clip-path="url(#p6b2ad78a43)" d="M 360.230652 29.721673 
L 360.586745 29.855208 
L 360.586745 29.855208 
" style="fill:none;stroke:#0000ff;stroke-linecap:square;"/>
   </g>
   <g id="line2d_238">
    <path clip-path="url(#p6b2ad78a43)" d="M 360.586745 29.855208 
L 362.025095 28.790568 
L 362.025095 28.790568 
" style="fill:none;stroke:#0000ff;stroke-linecap:square;"/>
   </g>
   <g id="line2d_239">
    <path clip-path="url(#p6b2ad78a43)" d="M 362.025095 28.790568 
L 362.04735 28.798914 
L 362.04735 28.798914 
" style="fill:none;stroke:#0000ff;stroke-linecap:square;"/>
   </g>
   <g id="line2d_240">
    <path clip-path="url(#p6b2ad78a43)" d="M 362.04735 28.798914 
L 363.4857 27.734275 
L 363.4857 27.734275 
" style="fill:none;stroke:#0000ff;stroke-linecap:square;"/>
   </g>
   <g id="line2d_241">
    <path clip-path="url(#p6b2ad78a43)" d="M 363.4857 27.734275 
L 363.574723 27.767659 
L 363.574723 27.767659 
" style="fill:none;stroke:#0000ff;stroke-linecap:square;"/>
   </g>
   <g id="line2d_242">
    <path clip-path="url(#p6b2ad78a43)" d="M 363.574723 27.767659 
L 365.013073 26.703019 
L 365.013073 26.703019 
" style="fill:none;stroke:#0000ff;stroke-linecap:square;"/>
   </g>
   <g id="line2d_243">
    <path clip-path="url(#p6b2ad78a43)" d="M 365.013073 26.703019 
L 365.035329 26.711365 
L 365.035329 26.711365 
" style="fill:none;stroke:#0000ff;stroke-linecap:square;"/>
   </g>
   <g id="line2d_244">
    <path clip-path="url(#p6b2ad78a43)" d="M 365.035329 26.711365 
L 366.473678 25.646726 
L 366.473678 25.646726 
" style="fill:none;stroke:#0000ff;stroke-linecap:square;"/>
   </g>
   <g id="line2d_245">
    <path clip-path="url(#p6b2ad78a43)" d="M 366.473678 25.646726 
L 367.898048 26.180865 
L 367.898048 26.180865 
" style="fill:none;stroke:#0000ff;stroke-linecap:square;"/>
   </g>
   <g id="line2d_246">
    <path clip-path="url(#p6b2ad78a43)" d="M 367.898048 26.180865 
L 369.336398 25.116225 
L 369.336398 25.116225 
" style="fill:none;stroke:#0000ff;stroke-linecap:square;"/>
   </g>
   <g id="line2d_247">
    <path clip-path="url(#p6b2ad78a43)" d="M 369.336398 25.116225 
L 369.358654 25.124571 
L 369.358654 25.124571 
" style="fill:none;stroke:#0000ff;stroke-linecap:square;"/>
   </g>
   <g id="line2d_248">
    <path clip-path="url(#p6b2ad78a43)" d="M 369.358654 25.124571 
L 370.797003 24.059932 
L 370.797003 24.059932 
" style="fill:none;stroke:#0000ff;stroke-linecap:square;"/>
   </g>
   <g id="line2d_249">
    <path clip-path="url(#p6b2ad78a43)" d="M 370.797003 24.059932 
L 370.886027 24.093316 
L 370.886027 24.093316 
" style="fill:none;stroke:#0000ff;stroke-linecap:square;"/>
   </g>
   <g id="line2d_250">
    <path clip-path="url(#p6b2ad78a43)" d="M 370.886027 24.093316 
L 372.324376 23.028676 
L 372.324376 23.028676 
" style="fill:none;stroke:#0000ff;stroke-linecap:square;"/>
   </g>
   <g id="line2d_251">
    <path clip-path="url(#p6b2ad78a43)" d="M 372.324376 23.028676 
L 372.346632 23.037022 
L 372.346632 23.037022 
" style="fill:none;stroke:#0000ff;stroke-linecap:square;"/>
   </g>
   <g id="line2d_252">
    <path clip-path="url(#p6b2ad78a43)" d="M 372.346632 23.037022 
L 373.784982 21.972383 
L 373.784982 21.972383 
" style="fill:none;stroke:#0000ff;stroke-linecap:square;"/>
   </g>
   <g id="line2d_253">
    <path clip-path="url(#p6b2ad78a43)" d="M 373.784982 21.972383 
L 374.141074 22.105918 
L 374.141074 22.105918 
" style="fill:none;stroke:#0000ff;stroke-linecap:square;"/>
   </g>
   <g id="line2d_254">
    <path clip-path="url(#p6b2ad78a43)" d="M 374.141074 22.105918 
L 375.579424 21.041278 
L 375.579424 21.041278 
" style="fill:none;stroke:#0000ff;stroke-linecap:square;"/>
   </g>
   <g id="line2d_255">
    <path clip-path="url(#p6b2ad78a43)" d="M 375.579424 21.041278 
L 375.601679 21.049624 
L 375.601679 21.049624 
" style="fill:none;stroke:#0000ff;stroke-linecap:square;"/>
   </g>
   <g id="line2d_256">
    <path clip-path="url(#p6b2ad78a43)" d="M 375.601679 21.049624 
L 377.040029 19.984985 
L 377.040029 19.984985 
" style="fill:none;stroke:#0000ff;stroke-linecap:square;"/>
   </g>
   <g id="line2d_257">
    <path clip-path="url(#p6b2ad78a43)" d="M 377.040029 19.984985 
L 377.129052 20.018369 
L 377.129052 20.018369 
" style="fill:none;stroke:#0000ff;stroke-linecap:square;"/>
   </g>
   <g id="line2d_258">
    <path clip-path="url(#p6b2ad78a43)" d="M 377.129052 20.018369 
L 378.567402 18.953729 
L 378.567402 18.953729 
" style="fill:none;stroke:#0000ff;stroke-linecap:square;"/>
   </g>
   <g id="line2d_259">
    <path clip-path="url(#p6b2ad78a43)" d="M 378.567402 18.953729 
L 378.589658 18.962075 
L 378.589658 18.962075 
" style="fill:none;stroke:#0000ff;stroke-linecap:square;"/>
   </g>
   <g id="line2d_260">
    <path clip-path="url(#p6b2ad78a43)" d="M 378.589658 18.962075 
L 380.028007 17.897436 
L 380.028007 17.897436 
" style="fill:none;stroke:#0000ff;stroke-linecap:square;"/>
   </g>
   <g id="line2d_261">
    <path clip-path="url(#p6b2ad78a43)" d="M 380.028007 17.897436 
L 562.529887 86.335641 
L 562.529887 86.335641 
" style="fill:none;stroke:#0000ff;stroke-linecap:square;"/>
   </g>
   <g id="matplotlib.axis_1">
    <g id="xtick_1">
     <g id="line2d_262">
      <path clip-path="url(#p6b2ad78a43)" d="M 15.024247 87.704405 
L 15.024247 16.528672 
" style="fill:none;stroke:#000000;stroke-dasharray:0.5,0.825;stroke-dashoffset:0;stroke-width:0.5;"/>
     </g>
     <g id="line2d_263">
      <defs>
       <path d="M 0 0 
L 0 3.5 
" id="me2f98e0aa1" style="stroke:#000000;stroke-width:0.8;"/>
      </defs>
      <g>
       <use style="stroke:#000000;stroke-width:0.8;" x="15.024247" xlink:href="#me2f98e0aa1" y="86.335641"/>
      </g>
     </g>
    </g>
    <g id="xtick_2">
     <g id="line2d_264">
      <path clip-path="url(#p6b2ad78a43)" d="M 380.028007 87.704405 
L 380.028007 16.528672 
" style="fill:none;stroke:#000000;stroke-dasharray:0.5,0.825;stroke-dashoffset:0;stroke-width:0.5;"/>
     </g>
     <g id="line2d_265">
      <g>
       <use style="stroke:#000000;stroke-width:0.8;" x="380.028007" xlink:href="#me2f98e0aa1" y="86.335641"/>
      </g>
     </g>
     <g id="text_1">
      <!-- $f$ -->
      <defs>
       <path d="M 9.71875 -16.5 
Q 11.578125 -17.921875 14.203125 -17.921875 
Q 17.78125 -17.921875 20.015625 -10.015625 
Q 20.953125 -6.203125 25.09375 15.09375 
L 29.6875 39.59375 
L 21.09375 39.59375 
Q 20.125 39.59375 20.125 40.921875 
Q 20.515625 43.109375 21.390625 43.109375 
L 30.328125 43.109375 
L 31.5 49.609375 
Q 32.078125 52.640625 32.5625 54.8125 
Q 33.0625 56.984375 33.625 58.828125 
Q 34.1875 60.6875 35.296875 62.984375 
Q 37.015625 66.265625 39.921875 68.390625 
Q 42.828125 70.515625 46.1875 70.515625 
Q 48.390625 70.515625 50.46875 69.703125 
Q 52.546875 68.890625 53.859375 67.28125 
Q 55.171875 65.671875 55.171875 63.484375 
Q 55.171875 60.9375 53.484375 59.046875 
Q 51.8125 57.171875 49.421875 57.171875 
Q 47.796875 57.171875 46.65625 58.171875 
Q 45.515625 59.1875 45.515625 60.796875 
Q 45.515625 62.984375 47 64.625 
Q 48.484375 66.265625 50.6875 66.5 
Q 48.828125 67.921875 46.09375 67.921875 
Q 44.578125 67.921875 43.234375 66.5 
Q 41.890625 65.09375 41.5 63.484375 
Q 40.875 60.9375 38.71875 49.703125 
L 37.5 43.109375 
L 47.796875 43.109375 
Q 48.78125 43.109375 48.78125 41.796875 
Q 48.734375 41.546875 48.578125 40.9375 
Q 48.4375 40.328125 48.171875 39.953125 
Q 47.90625 39.59375 47.515625 39.59375 
L 36.8125 39.59375 
L 32.171875 15.1875 
Q 31.296875 9.859375 30.140625 4.359375 
Q 29 -1.125 26.921875 -6.90625 
Q 24.859375 -12.703125 21.625 -16.609375 
Q 18.40625 -20.515625 14.015625 -20.515625 
Q 10.640625 -20.515625 7.984375 -18.578125 
Q 5.328125 -16.65625 5.328125 -13.484375 
Q 5.328125 -10.9375 6.953125 -9.046875 
Q 8.59375 -7.171875 11.078125 -7.171875 
Q 12.75 -7.171875 13.859375 -8.171875 
Q 14.984375 -9.1875 14.984375 -10.796875 
Q 14.984375 -12.9375 13.390625 -14.71875 
Q 11.8125 -16.5 9.71875 -16.5 
z
" id="Cmmi10-66"/>
      </defs>
      <g transform="translate(377.578007 100.913766)scale(0.1 -0.1)">
       <use transform="translate(0 0.484375)" xlink:href="#Cmmi10-66"/>
      </g>
     </g>
    </g>
    <g id="xtick_3">
     <g id="line2d_266">
      <path clip-path="url(#p6b2ad78a43)" d="M 562.529887 87.704405 
L 562.529887 16.528672 
" style="fill:none;stroke:#000000;stroke-dasharray:0.5,0.825;stroke-dashoffset:0;stroke-width:0.5;"/>
     </g>
     <g id="line2d_267">
      <g>
       <use style="stroke:#000000;stroke-width:0.8;" x="562.529887" xlink:href="#me2f98e0aa1" y="86.335641"/>
      </g>
     </g>
     <g id="text_2">
      <!-- $1$ -->
      <defs>
       <path d="M 9.28125 0 
L 9.28125 3.515625 
Q 21.78125 3.515625 21.78125 6.6875 
L 21.78125 59.1875 
Q 16.609375 56.6875 8.6875 56.6875 
L 8.6875 60.203125 
Q 20.953125 60.203125 27.203125 66.609375 
L 28.609375 66.609375 
Q 28.953125 66.609375 29.265625 66.328125 
Q 29.59375 66.0625 29.59375 65.71875 
L 29.59375 6.6875 
Q 29.59375 3.515625 42.09375 3.515625 
L 42.09375 0 
z
" id="Cmr10-31"/>
      </defs>
      <g transform="translate(560.029887 100.934078)scale(0.1 -0.1)">
       <use transform="translate(0 0.390625)" xlink:href="#Cmr10-31"/>
      </g>
     </g>
    </g>
   </g>
   <g id="matplotlib.axis_2">
    <g id="ytick_1">
     <g id="line2d_268">
      <path clip-path="url(#p6b2ad78a43)" d="M 4.074135 86.335641 
L 573.48 86.335641 
" style="fill:none;stroke:#000000;stroke-dasharray:0.5,0.825;stroke-dashoffset:0;stroke-width:0.5;"/>
     </g>
     <g id="line2d_269">
      <defs>
       <path d="M 0 0 
L -3.5 0 
" id="mdfe63332b9" style="stroke:#000000;stroke-width:0.8;"/>
      </defs>
      <g>
       <use style="stroke:#000000;stroke-width:0.8;" x="15.024247" xlink:href="#mdfe63332b9" y="86.335641"/>
      </g>
     </g>
    </g>
    <g id="ytick_2">
     <g id="line2d_270">
      <path clip-path="url(#p6b2ad78a43)" d="M 4.074135 17.897436 
L 573.48 17.897436 
" style="fill:none;stroke:#000000;stroke-dasharray:0.5,0.825;stroke-dashoffset:0;stroke-width:0.5;"/>
     </g>
     <g id="line2d_271">
      <g>
       <use style="stroke:#000000;stroke-width:0.8;" x="15.024247" xlink:href="#mdfe63332b9" y="17.897436"/>
      </g>
     </g>
     <g id="text_3">
      <!-- $1$ -->
      <g transform="translate(3.024247 21.696655)scale(0.1 -0.1)">
       <use transform="translate(0 0.390625)" xlink:href="#Cmr10-31"/>
      </g>
     </g>
    </g>
   </g>
   <g id="patch_3">
    <path d="M 15.024247 87.704405 
L 15.024247 16.528672 
" style="fill:none;stroke:#000000;stroke-linecap:square;stroke-linejoin:miter;stroke-width:0.8;"/>
   </g>
   <g id="patch_4">
    <path d="M 4.074135 86.335641 
L 573.48 86.335641 
" style="fill:none;stroke:#000000;stroke-linecap:square;stroke-linejoin:miter;stroke-width:0.8;"/>
   </g>
  </g>
 </g>
 <defs>
  <clipPath id="p6b2ad78a43">
   <rect height="71.175733" width="569.405865" x="4.074135" y="16.528672"/>
  </clipPath>
 </defs>
</svg>
