<?xml version="1.0" encoding="utf-8" standalone="no"?>
<!DOCTYPE svg PUBLIC "-//W3C//DTD SVG 1.1//EN"
  "http://www.w3.org/Graphics/SVG/1.1/DTD/svg11.dtd">
<!-- Created with matplotlib (http://matplotlib.org/) -->
<svg height="108pt" version="1.1" viewBox="0 0 576 108" width="576pt" xmlns="http://www.w3.org/2000/svg" xmlns:xlink="http://www.w3.org/1999/xlink">
 <defs>
  <style type="text/css">
*{stroke-linecap:butt;stroke-linejoin:round;}
  </style>
 </defs>
 <g id="figure_1">
  <g id="patch_1">
   <path d="M 0 108 
L 576 108 
L 576 0 
L 0 0 
z
" style="fill:#ffffff;"/>
  </g>
  <g id="axes_1">
   <g id="patch_2">
    <path d="M 4.074135 87.704405 
L 573.48 87.704405 
L 573.48 16.528672 
L 4.074135 16.528672 
z
" style="fill:#ffffff;"/>
   </g>
   <g id="line2d_1">
    <path clip-path="url(#p4de9fb6f0b)" d="M 15.024247 86.335641 
L 190.226052 17.897436 
L 190.226052 17.897436 
" style="fill:none;stroke:#ff0000;stroke-linecap:square;stroke-width:2;"/>
   </g>
   <g id="line2d_2">
    <path clip-path="url(#p4de9fb6f0b)" d="M 277.826955 78.731396 
L 365.427857 44.512293 
L 365.427857 44.512293 
" style="fill:none;stroke:#ff0000;stroke-linecap:square;stroke-width:2;"/>
   </g>
   <g id="line2d_3">
    <path clip-path="url(#p4de9fb6f0b)" d="M 387.328082 59.720783 
L 387.764815 59.550185 
L 388.016975 59.451685 
L 388.437751 59.287319 
L 389.000968 59.067312 
L 389.544536 58.854981 
L 390.09479 58.640038 
L 390.504554 58.479974 
L 390.645441 58.42494 
L 391.163865 58.222431 
L 391.736871 57.9986 
L 392.304287 57.776954 
L 392.54259 57.683866 
L 393.253143 57.406307 
L 393.358157 57.365286 
L 394.022326 57.105845 
L 394.302219 56.996512 
L 394.602166 56.879345 
L 395.360231 56.583225 
L 395.548884 56.509533 
L 395.968487 56.345625 
L 396.42036 56.169113 
L 396.845802 56.002924 
L 397.654616 55.686981 
L 397.872705 55.60179 
L 398.201645 55.473298 
L 398.781982 55.246604 
L 399.016647 55.154938 
L 399.76978 54.860745 
L 399.988524 54.775299 
L 400.519813 54.567764 
L 400.856245 54.436345 
L 401.601332 54.145295 
L 401.87541 54.038234 
L 402.152511 53.929991 
L 402.603749 53.753726 
L 403.034881 53.585315 
L 403.400388 53.442539 
L 404.201366 53.129657 
L 404.603093 52.972732 
L 404.918987 52.849337 
L 405.174877 52.749379 
L 405.745205 52.526595 
L 406.155922 52.366159 
L 406.630908 52.180617 
L 407.054008 52.015344 
L 407.407359 51.877316 
L 408.063741 51.620917 
L 408.259194 51.544568 
L 409.114002 51.210659 
L 409.414167 51.093407 
L 409.791262 50.946104 
L 410.117172 50.818795 
L 410.527554 50.65849 
L 410.92962 50.501433 
L 411.683069 50.207117 
L 411.963018 50.097762 
L 412.449197 49.907848 
L 412.989668 49.696727 
L 413.256978 49.592309 
L 413.841927 49.363813 
L 414.278517 49.19327 
L 414.783179 48.996136 
L 414.871826 48.961509 
L 415.680531 48.645608 
L 415.806059 48.596574 
L 416.396635 48.36588 
L 417.035154 48.116459 
L 417.259847 48.028688 
L 417.655699 47.874058 
L 418.021408 47.731203 
L 418.616674 47.498678 
L 418.804453 47.425326 
L 419.284845 47.237673 
L 419.879376 47.005435 
L 420.262471 46.855788 
L 420.968192 46.580116 
L 421.074046 46.538766 
L 421.660775 46.309576 
L 422.006204 46.174642 
L 422.474045 45.991892 
L 422.871517 45.836629 
L 423.533025 45.578228 
L 423.72716 45.502394 
L 424.24135 45.301538 
L 424.8984 45.044878 
L 425.054743 44.983807 
L 425.434301 44.835542 
L 425.991673 44.617818 
L 426.596442 44.381581 
L 427.143244 44.167986 
" style="fill:none;stroke:#ff0000;stroke-linecap:square;stroke-width:2;"/>
   </g>
   <g id="line2d_4">
    <path clip-path="url(#p4de9fb6f0b)" d="M 428.444926 43.659517 
L 428.644966 43.581376 
L 429.14286 43.386886 
L 429.744383 43.151916 
L 430.231905 42.961478 
L 430.488464 42.86126 
L 430.688538 42.783106 
L 431.515093 42.460233 
L 431.621408 42.418703 
L 432.027504 42.260072 
L 432.722397 41.988629 
L 433.214074 41.796568 
L 433.523102 41.675854 
L 434.197144 41.412556 
L 434.531297 41.282028 
L 434.781895 41.184138 
L 435.185494 41.026482 
L 435.601017 40.864168 
L 436.400812 40.551748 
L 436.654636 40.452598 
L 436.921882 40.348206 
L 437.708776 40.040825 
L 438.022657 39.918215 
L 438.490984 39.735275 
L 439.024719 39.526785 
L 439.450049 39.36064 
L 439.868021 39.19737 
L 440.361972 39.00442 
L 440.379049 38.99775 
L 440.866668 38.807273 
L 441.562388 38.535508 
L 441.774922 38.452487 
L 442.134045 38.312205 
L 442.992888 37.976719 
L 443.06387 37.948991 
L 443.759744 37.677166 
L 444.0685 37.556558 
L 444.661807 37.324797 
L 445.007305 37.189837 
L 445.588846 36.962673 
L 446.014425 36.796431 
L 446.299724 36.684986 
L 446.94034 36.434745 
L 447.007358 36.408566 
L 447.613659 36.17173 
L 447.993652 36.023295 
L 448.614401 35.780815 
L 448.804829 35.70643 
L 449.258808 35.529094 
L 449.755168 35.335203 
L 450.29779 35.123241 
L 450.721062 34.957901 
L 450.968996 34.861051 
L 451.444411 34.675343 
L 452.148019 34.400496 
L 452.339528 34.325688 
L 452.714339 34.179277 
L 453.47342 33.882761 
L 453.875325 33.725767 
L 454.303246 33.55861 
L 454.570106 33.454368 
L 455.001244 33.285955 
L 455.42163 33.121742 
L 455.802033 32.973147 
L 456.258459 32.794855 
L 456.99421 32.507452 
L 457.433379 32.335902 
L 457.679469 32.239773 
L 458.173997 32.046598 
L 458.673044 31.851658 
L 459.008806 31.720501 
L 459.311247 31.60236 
L 460.105041 31.292284 
L 460.303919 31.214597 
L 460.977611 30.951436 
L 461.459869 30.763054 
L 461.903654 30.589701 
L 462.198997 30.474333 
L 462.747825 30.259947 
L 463.021904 30.152885 
L 463.37133 30.01639 
L 463.983663 29.777197 
L 464.348855 29.634544 
L 464.682761 29.504112 
L 465.281306 29.270306 
L 465.626062 29.135635 
L 466.180819 28.918933 
L 466.594346 28.757399 
L 467.04622 28.580886 
L 467.504976 28.401685 
L 467.872341 28.258182 
L 468.205259 28.128137 
L 468.670682 27.946331 
L 469.242268 27.723055 
L 469.441748 27.645133 
L 470.176037 27.358301 
L 470.607289 27.189844 
L 470.997322 27.037487 
L 471.588533 26.806545 
L 471.724368 26.753484 
L 472.272248 26.539469 
L 472.613323 26.406236 
L 473.135623 26.202213 
L 473.552388 26.039414 
L 474.128155 25.814505 
L 474.557297 25.646872 
L 474.928985 25.501681 
" style="fill:none;stroke:#ff0000;stroke-linecap:square;stroke-width:2;"/>
   </g>
   <g id="line2d_5">
    <path clip-path="url(#p4de9fb6f0b)" d="M 190.226052 17.897436 
L 277.826955 78.731396 
L 277.826955 78.731396 
" style="fill:none;stroke:#00ffff;stroke-linecap:square;stroke-width:2;"/>
   </g>
   <g id="line2d_6">
    <path clip-path="url(#p4de9fb6f0b)" d="M 365.427857 44.512293 
L 387.328082 59.720783 
L 387.328082 59.720783 
" style="fill:none;stroke:#00ffff;stroke-linecap:square;stroke-width:2;"/>
   </g>
   <g id="line2d_7">
    <path clip-path="url(#p4de9fb6f0b)" d="M 474.928985 25.501681 
L 562.529887 86.335641 
L 562.529887 86.335641 
" style="fill:none;stroke:#00ffff;stroke-linecap:square;stroke-width:2;"/>
   </g>
   <g id="matplotlib.axis_1">
    <g id="xtick_1">
     <g id="line2d_8">
      <path clip-path="url(#p4de9fb6f0b)" d="M 15.024247 87.704405 
L 15.024247 16.528672 
" style="fill:none;stroke:#000000;stroke-dasharray:0.5,0.825;stroke-dashoffset:0;stroke-width:0.5;"/>
     </g>
     <g id="line2d_9">
      <defs>
       <path d="M 0 0 
L 0 3.5 
" id="mad1178616d" style="stroke:#000000;stroke-width:0.8;"/>
      </defs>
      <g>
       <use style="stroke:#000000;stroke-width:0.8;" x="15.024247" xlink:href="#mad1178616d" y="86.335641"/>
      </g>
     </g>
    </g>
    <g id="xtick_2">
     <g id="line2d_10">
      <path clip-path="url(#p4de9fb6f0b)" d="M 190.226052 87.704405 
L 190.226052 16.528672 
" style="fill:none;stroke:#000000;stroke-dasharray:0.5,0.825;stroke-dashoffset:0;stroke-width:0.5;"/>
     </g>
     <g id="line2d_11">
      <g>
       <use style="stroke:#000000;stroke-width:0.8;" x="190.226052" xlink:href="#mad1178616d" y="86.335641"/>
      </g>
     </g>
     <g id="text_1">
      <!-- $f$ -->
      <defs>
       <path d="M 9.71875 -16.5 
Q 11.578125 -17.921875 14.203125 -17.921875 
Q 17.78125 -17.921875 20.015625 -10.015625 
Q 20.953125 -6.203125 25.09375 15.09375 
L 29.6875 39.59375 
L 21.09375 39.59375 
Q 20.125 39.59375 20.125 40.921875 
Q 20.515625 43.109375 21.390625 43.109375 
L 30.328125 43.109375 
L 31.5 49.609375 
Q 32.078125 52.640625 32.5625 54.8125 
Q 33.0625 56.984375 33.625 58.828125 
Q 34.1875 60.6875 35.296875 62.984375 
Q 37.015625 66.265625 39.921875 68.390625 
Q 42.828125 70.515625 46.1875 70.515625 
Q 48.390625 70.515625 50.46875 69.703125 
Q 52.546875 68.890625 53.859375 67.28125 
Q 55.171875 65.671875 55.171875 63.484375 
Q 55.171875 60.9375 53.484375 59.046875 
Q 51.8125 57.171875 49.421875 57.171875 
Q 47.796875 57.171875 46.65625 58.171875 
Q 45.515625 59.1875 45.515625 60.796875 
Q 45.515625 62.984375 47 64.625 
Q 48.484375 66.265625 50.6875 66.5 
Q 48.828125 67.921875 46.09375 67.921875 
Q 44.578125 67.921875 43.234375 66.5 
Q 41.890625 65.09375 41.5 63.484375 
Q 40.875 60.9375 38.71875 49.703125 
L 37.5 43.109375 
L 47.796875 43.109375 
Q 48.78125 43.109375 48.78125 41.796875 
Q 48.734375 41.546875 48.578125 40.9375 
Q 48.4375 40.328125 48.171875 39.953125 
Q 47.90625 39.59375 47.515625 39.59375 
L 36.8125 39.59375 
L 32.171875 15.1875 
Q 31.296875 9.859375 30.140625 4.359375 
Q 29 -1.125 26.921875 -6.90625 
Q 24.859375 -12.703125 21.625 -16.609375 
Q 18.40625 -20.515625 14.015625 -20.515625 
Q 10.640625 -20.515625 7.984375 -18.578125 
Q 5.328125 -16.65625 5.328125 -13.484375 
Q 5.328125 -10.9375 6.953125 -9.046875 
Q 8.59375 -7.171875 11.078125 -7.171875 
Q 12.75 -7.171875 13.859375 -8.171875 
Q 14.984375 -9.1875 14.984375 -10.796875 
Q 14.984375 -12.9375 13.390625 -14.71875 
Q 11.8125 -16.5 9.71875 -16.5 
z
" id="Cmmi10-66"/>
      </defs>
      <g transform="translate(187.776052 100.913766)scale(0.1 -0.1)">
       <use transform="translate(0 0.484375)" xlink:href="#Cmmi10-66"/>
      </g>
     </g>
    </g>
    <g id="xtick_3">
     <g id="line2d_12">
      <path clip-path="url(#p4de9fb6f0b)" d="M 562.529887 87.704405 
L 562.529887 16.528672 
" style="fill:none;stroke:#000000;stroke-dasharray:0.5,0.825;stroke-dashoffset:0;stroke-width:0.5;"/>
     </g>
     <g id="line2d_13">
      <g>
       <use style="stroke:#000000;stroke-width:0.8;" x="562.529887" xlink:href="#mad1178616d" y="86.335641"/>
      </g>
     </g>
     <g id="text_2">
      <!-- $1$ -->
      <defs>
       <path d="M 9.28125 0 
L 9.28125 3.515625 
Q 21.78125 3.515625 21.78125 6.6875 
L 21.78125 59.1875 
Q 16.609375 56.6875 8.6875 56.6875 
L 8.6875 60.203125 
Q 20.953125 60.203125 27.203125 66.609375 
L 28.609375 66.609375 
Q 28.953125 66.609375 29.265625 66.328125 
Q 29.59375 66.0625 29.59375 65.71875 
L 29.59375 6.6875 
Q 29.59375 3.515625 42.09375 3.515625 
L 42.09375 0 
z
" id="Cmr10-31"/>
      </defs>
      <g transform="translate(560.029887 100.934078)scale(0.1 -0.1)">
       <use transform="translate(0 0.390625)" xlink:href="#Cmr10-31"/>
      </g>
     </g>
    </g>
   </g>
   <g id="matplotlib.axis_2">
    <g id="ytick_1">
     <g id="line2d_14">
      <path clip-path="url(#p4de9fb6f0b)" d="M 4.074135 86.335641 
L 573.48 86.335641 
" style="fill:none;stroke:#000000;stroke-dasharray:0.5,0.825;stroke-dashoffset:0;stroke-width:0.5;"/>
     </g>
     <g id="line2d_15">
      <defs>
       <path d="M 0 0 
L -3.5 0 
" id="m198f3d3c9b" style="stroke:#000000;stroke-width:0.8;"/>
      </defs>
      <g>
       <use style="stroke:#000000;stroke-width:0.8;" x="15.024247" xlink:href="#m198f3d3c9b" y="86.335641"/>
      </g>
     </g>
    </g>
    <g id="ytick_2">
     <g id="line2d_16">
      <path clip-path="url(#p4de9fb6f0b)" d="M 4.074135 17.897436 
L 573.48 17.897436 
" style="fill:none;stroke:#000000;stroke-dasharray:0.5,0.825;stroke-dashoffset:0;stroke-width:0.5;"/>
     </g>
     <g id="line2d_17">
      <g>
       <use style="stroke:#000000;stroke-width:0.8;" x="15.024247" xlink:href="#m198f3d3c9b" y="17.897436"/>
      </g>
     </g>
     <g id="text_3">
      <!-- $1$ -->
      <g transform="translate(3.024247 21.696655)scale(0.1 -0.1)">
       <use transform="translate(0 0.390625)" xlink:href="#Cmr10-31"/>
      </g>
     </g>
    </g>
   </g>
   <g id="patch_3">
    <path d="M 15.024247 87.704405 
L 15.024247 16.528672 
" style="fill:none;stroke:#000000;stroke-linecap:square;stroke-linejoin:miter;stroke-width:0.8;"/>
   </g>
   <g id="patch_4">
    <path d="M 4.074135 86.335641 
L 573.48 86.335641 
" style="fill:none;stroke:#000000;stroke-linecap:square;stroke-linejoin:miter;stroke-width:0.8;"/>
   </g>
  </g>
 </g>
 <defs>
  <clipPath id="p4de9fb6f0b">
   <rect height="71.175733" width="569.405865" x="4.074135" y="16.528672"/>
  </clipPath>
 </defs>
</svg>
