<?xml version="1.0" encoding="utf-8" standalone="no"?>
<!DOCTYPE svg PUBLIC "-//W3C//DTD SVG 1.1//EN"
  "http://www.w3.org/Graphics/SVG/1.1/DTD/svg11.dtd">
<!-- Created with matplotlib (http://matplotlib.org/) -->
<svg height="108pt" version="1.1" viewBox="0 0 576 108" width="576pt" xmlns="http://www.w3.org/2000/svg" xmlns:xlink="http://www.w3.org/1999/xlink">
 <defs>
  <style type="text/css">
*{stroke-linecap:butt;stroke-linejoin:round;}
  </style>
 </defs>
 <g id="figure_1">
  <g id="patch_1">
   <path d="M 0 108 
L 576 108 
L 576 0 
L 0 0 
z
" style="fill:#ffffff;"/>
  </g>
  <g id="axes_1">
   <g id="patch_2">
    <path d="M 4.074135 87.704405 
L 573.48 87.704405 
L 573.48 16.528672 
L 4.074135 16.528672 
z
" style="fill:#ffffff;"/>
   </g>
   <g id="line2d_1">
    <path clip-path="url(#pe9f49fd1c2)" d="M 179.275939 60.671314 
L 206.651221 60.671314 
L 206.651221 60.671314 
" style="fill:none;stroke:#ff0000;stroke-linecap:square;"/>
   </g>
   <g id="line2d_2">
    <path clip-path="url(#pe9f49fd1c2)" d="M 261.401785 43.561763 
L 288.777067 43.561763 
L 288.777067 43.561763 
" style="fill:none;stroke:#ff0000;stroke-linecap:square;"/>
   </g>
   <g id="line2d_3">
    <path clip-path="url(#pe9f49fd1c2)" d="M 15.024247 86.335641 
L 15.233804 86.270155 
L 15.806659 86.091137 
L 16.265349 85.947797 
L 16.382428 85.911209 
L 16.817501 85.775249 
L 17.29591 85.625746 
L 17.532764 85.55173 
L 18.050766 85.389854 
L 18.50074 85.249237 
L 18.873283 85.132817 
L 18.986075 85.09757 
L 19.405923 84.966367 
L 19.937217 84.800338 
L 20.252538 84.7018 
L 20.554594 84.607407 
L 20.956555 84.481795 
L 21.322053 84.367577 
L 21.626664 84.272386 
L 21.996978 84.156663 
L 22.286296 84.066251 
L 22.60246 83.967449 
L 23.140406 83.799341 
L 23.619425 83.649648 
L 23.80115 83.592859 
L 24.18148 83.474006 
L 24.496111 83.375684 
L 24.879906 83.255748 
L 25.351907 83.108247 
L 25.725022 82.991649 
L 26.194946 82.844798 
L 26.216339 82.838112 
L 26.618184 82.712536 
L 27.0821 82.567562 
L 27.556389 82.419347 
L 27.692844 82.376705 
L 28.338227 82.175022 
L 28.502704 82.123623 
L 28.954946 81.982298 
L 29.367179 81.853475 
L 29.696295 81.750626 
L 30.001537 81.655238 
L 30.255729 81.575803 
L 30.933157 81.364107 
L 31.106195 81.310032 
L 31.451421 81.202149 
L 31.983685 81.035817 
L 32.446387 80.891222 
L 32.601352 80.842796 
L 32.871686 80.758316 
L 33.540883 80.549192 
L 33.745305 80.48531 
L 34.229132 80.334115 
L 34.288217 80.31565 
L 34.772091 80.16444 
L 35.068593 80.071783 
L 35.388744 79.971736 
L 35.768438 79.853081 
L 36.184874 79.722945 
L 36.70692 79.559806 
L 36.995636 79.469582 
L 37.414002 79.338843 
L 37.790003 79.221342 
L 38.018002 79.150093 
L 38.568906 78.977935 
L 38.922763 78.867355 
L 39.406204 78.716279 
L 39.612918 78.651681 
L 39.902174 78.561289 
L 40.21144 78.464643 
L 40.829319 78.271556 
L 40.948794 78.23422 
L 41.488167 78.065666 
L 41.88028 77.943131 
L 42.084485 77.879317 
L 42.374031 77.788834 
L 42.828645 77.646767 
L 43.164137 77.541925 
L 43.549486 77.421504 
L 44.146948 77.234797 
L 44.424301 77.148124 
L 44.917143 76.994111 
L 45.051785 76.952036 
L 45.479197 76.818469 
L 45.862139 76.6988 
L 46.307695 76.559564 
L 46.561743 76.480174 
L 46.893229 76.376584 
L 47.45235 76.201859 
L 47.509104 76.184123 
L 47.90195 76.061359 
L 48.340121 75.924431 
L 48.828177 75.771913 
L 49.11328 75.682818 
L 49.555573 75.544602 
L 49.976203 75.413155 
L 50.125495 75.366501 
L 50.773286 75.164066 
L 50.937748 75.112672 
L 51.338953 74.987295 
L 51.585291 74.910315 
L 52.009467 74.77776 
L 52.455868 74.638259 
L 52.929308 74.49031 
L 53.240385 74.393098 
L 53.537567 74.300228 
L 54.004514 74.154308 
L 54.270366 74.071229 
L 54.598315 73.968745 
L 54.865667 73.885197 
L 55.251401 73.764655 
L 55.610205 73.652529 
L 56.163459 73.479637 
L 56.436358 73.394357 
L 56.663408 73.323403 
L 57.237376 73.144038 
" style="fill:none;stroke:#00ff00;stroke-linecap:square;"/>
   </g>
   <g id="line2d_4">
    <path clip-path="url(#pe9f49fd1c2)" d="M 58.487244 72.753455 
L 58.531315 72.739682 
L 59.018187 72.587535 
L 59.558766 72.418604 
L 59.697757 72.375169 
L 60.024691 72.273002 
L 60.62041 72.08684 
L 61.038043 71.95633 
L 61.145773 71.922664 
L 61.682083 71.755067 
L 61.816531 71.713052 
L 62.412336 71.526863 
L 62.871572 71.383352 
L 63.202989 71.279784 
L 63.563276 71.167195 
L 63.736502 71.113061 
L 64.296748 70.937985 
L 64.428448 70.896828 
L 65.045167 70.704104 
L 65.327837 70.615769 
L 65.727897 70.49075 
L 65.867703 70.447061 
L 66.219739 70.33705 
L 66.89671 70.125496 
L 67.102514 70.061183 
L 67.57907 69.912259 
L 67.801199 69.842844 
L 68.14337 69.735915 
L 68.592072 69.595696 
L 68.795301 69.532187 
L 69.36345 69.35464 
L 69.549973 69.296352 
L 70.090887 69.127316 
L 70.597716 68.968932 
L 70.892784 68.876723 
L 71.173552 68.788983 
L 71.477617 68.693963 
L 71.769234 68.602833 
L 72.127372 68.490915 
L 72.472763 68.38298 
L 72.955655 68.232076 
L 73.404103 68.091936 
L 73.669293 68.009064 
L 73.994044 67.90758 
L 74.417922 67.775118 
L 74.714935 67.682301 
L 75.315954 67.494483 
L 75.395385 67.46966 
L 75.950957 67.296044 
L 76.133349 67.239047 
L 76.501302 67.124061 
L 77.112357 66.933107 
L 77.206654 66.903639 
L 77.667328 66.759678 
L 78.040936 66.642926 
L 78.52739 66.490909 
L 79.026566 66.334916 
L 79.076192 66.319408 
L 79.677375 66.131539 
L 79.907564 66.059604 
L 80.373224 65.914086 
L 80.559831 65.855771 
L 80.997516 65.718994 
L 81.458698 65.574875 
L 81.663854 65.510764 
L 82.017648 65.400203 
L 82.390466 65.283698 
L 82.917759 65.118919 
L 83.237936 65.018863 
L 83.663435 64.885895 
L 83.933582 64.801474 
L 84.215068 64.71351 
L 84.711417 64.558401 
L 85.235549 64.394609 
L 85.4764 64.319343 
L 85.868356 64.196857 
L 86.358865 64.043573 
L 86.659693 63.949564 
L 86.971913 63.851996 
L 87.229375 63.771539 
L 87.487194 63.69097 
L 88.024999 63.522906 
" style="fill:none;stroke:#00ff00;stroke-linecap:square;"/>
   </g>
   <g id="line2d_5">
    <path clip-path="url(#pe9f49fd1c2)" d="M 97.150093 69.22609 
L 98.975112 68.655771 
L 98.975112 68.655771 
" style="fill:none;stroke:#00ff00;stroke-linecap:square;"/>
   </g>
   <g id="line2d_6">
    <path clip-path="url(#pe9f49fd1c2)" d="M 99.887622 69.22609 
L 102.468588 68.419538 
L 102.468588 68.419538 
" style="fill:none;stroke:#00ff00;stroke-linecap:square;"/>
   </g>
   <g id="line2d_7">
    <path clip-path="url(#pe9f49fd1c2)" d="M 103.759071 69.22609 
L 163.228744 50.641817 
L 163.228744 50.641817 
" style="fill:none;stroke:#00ff00;stroke-linecap:square;"/>
   </g>
   <g id="line2d_8">
    <path clip-path="url(#pe9f49fd1c2)" d="M 206.651221 60.671314 
L 261.401785 43.561763 
L 261.401785 43.561763 
" style="fill:none;stroke:#00ff00;stroke-linecap:square;"/>
   </g>
   <g id="line2d_9">
    <path clip-path="url(#pe9f49fd1c2)" d="M 304.824263 53.59126 
L 364.293936 35.006987 
L 364.293936 35.006987 
" style="fill:none;stroke:#00ff00;stroke-linecap:square;"/>
   </g>
   <g id="line2d_10">
    <path clip-path="url(#pe9f49fd1c2)" d="M 365.584419 35.813539 
L 368.165385 35.006987 
L 368.165385 35.006987 
" style="fill:none;stroke:#00ff00;stroke-linecap:square;"/>
   </g>
   <g id="line2d_11">
    <path clip-path="url(#pe9f49fd1c2)" d="M 369.077894 35.577306 
L 370.902913 35.006987 
L 370.902913 35.006987 
" style="fill:none;stroke:#00ff00;stroke-linecap:square;"/>
   </g>
   <g id="line2d_12">
    <path clip-path="url(#pe9f49fd1c2)" d="M 380.028007 40.710171 
L 453.028759 17.897436 
L 453.028759 17.897436 
" style="fill:none;stroke:#00ff00;stroke-linecap:square;"/>
   </g>
   <g id="line2d_13">
    <path clip-path="url(#pe9f49fd1c2)" d="M 88.024999 63.522906 
L 97.150093 69.22609 
L 97.150093 69.22609 
" style="fill:none;stroke:#0000ff;stroke-linecap:square;"/>
   </g>
   <g id="line2d_14">
    <path clip-path="url(#pe9f49fd1c2)" d="M 98.975112 68.655771 
L 99.887622 69.22609 
L 99.887622 69.22609 
" style="fill:none;stroke:#0000ff;stroke-linecap:square;"/>
   </g>
   <g id="line2d_15">
    <path clip-path="url(#pe9f49fd1c2)" d="M 102.468588 68.419538 
L 103.759071 69.22609 
L 103.759071 69.22609 
" style="fill:none;stroke:#0000ff;stroke-linecap:square;"/>
   </g>
   <g id="line2d_16">
    <path clip-path="url(#pe9f49fd1c2)" d="M 163.228744 50.641817 
L 179.275939 60.671314 
L 179.275939 60.671314 
" style="fill:none;stroke:#0000ff;stroke-linecap:square;"/>
   </g>
   <g id="line2d_17">
    <path clip-path="url(#pe9f49fd1c2)" d="M 288.777067 43.561763 
L 304.824263 53.59126 
L 304.824263 53.59126 
" style="fill:none;stroke:#0000ff;stroke-linecap:square;"/>
   </g>
   <g id="line2d_18">
    <path clip-path="url(#pe9f49fd1c2)" d="M 364.293936 35.006987 
L 365.584419 35.813539 
L 365.584419 35.813539 
" style="fill:none;stroke:#0000ff;stroke-linecap:square;"/>
   </g>
   <g id="line2d_19">
    <path clip-path="url(#pe9f49fd1c2)" d="M 368.165385 35.006987 
L 369.077894 35.577306 
L 369.077894 35.577306 
" style="fill:none;stroke:#0000ff;stroke-linecap:square;"/>
   </g>
   <g id="line2d_20">
    <path clip-path="url(#pe9f49fd1c2)" d="M 370.902913 35.006987 
L 380.028007 40.710171 
L 380.028007 40.710171 
" style="fill:none;stroke:#0000ff;stroke-linecap:square;"/>
   </g>
   <g id="line2d_21">
    <path clip-path="url(#pe9f49fd1c2)" d="M 453.028759 17.897436 
L 562.529887 86.335641 
L 562.529887 86.335641 
" style="fill:none;stroke:#0000ff;stroke-linecap:square;"/>
   </g>
   <g id="matplotlib.axis_1">
    <g id="xtick_1">
     <g id="line2d_22">
      <path clip-path="url(#pe9f49fd1c2)" d="M 15.024247 87.704405 
L 15.024247 16.528672 
" style="fill:none;stroke:#000000;stroke-dasharray:0.5,0.825;stroke-dashoffset:0;stroke-width:0.5;"/>
     </g>
     <g id="line2d_23">
      <defs>
       <path d="M 0 0 
L 0 3.5 
" id="m77ac02362b" style="stroke:#000000;stroke-width:0.8;"/>
      </defs>
      <g>
       <use style="stroke:#000000;stroke-width:0.8;" x="15.024247" xlink:href="#m77ac02362b" y="86.335641"/>
      </g>
     </g>
    </g>
    <g id="xtick_2">
     <g id="line2d_24">
      <path clip-path="url(#pe9f49fd1c2)" d="M 453.028759 87.704405 
L 453.028759 16.528672 
" style="fill:none;stroke:#000000;stroke-dasharray:0.5,0.825;stroke-dashoffset:0;stroke-width:0.5;"/>
     </g>
     <g id="line2d_25">
      <g>
       <use style="stroke:#000000;stroke-width:0.8;" x="453.028759" xlink:href="#m77ac02362b" y="86.335641"/>
      </g>
     </g>
     <g id="text_1">
      <!-- $f$ -->
      <defs>
       <path d="M 9.71875 -16.5 
Q 11.578125 -17.921875 14.203125 -17.921875 
Q 17.78125 -17.921875 20.015625 -10.015625 
Q 20.953125 -6.203125 25.09375 15.09375 
L 29.6875 39.59375 
L 21.09375 39.59375 
Q 20.125 39.59375 20.125 40.921875 
Q 20.515625 43.109375 21.390625 43.109375 
L 30.328125 43.109375 
L 31.5 49.609375 
Q 32.078125 52.640625 32.5625 54.8125 
Q 33.0625 56.984375 33.625 58.828125 
Q 34.1875 60.6875 35.296875 62.984375 
Q 37.015625 66.265625 39.921875 68.390625 
Q 42.828125 70.515625 46.1875 70.515625 
Q 48.390625 70.515625 50.46875 69.703125 
Q 52.546875 68.890625 53.859375 67.28125 
Q 55.171875 65.671875 55.171875 63.484375 
Q 55.171875 60.9375 53.484375 59.046875 
Q 51.8125 57.171875 49.421875 57.171875 
Q 47.796875 57.171875 46.65625 58.171875 
Q 45.515625 59.1875 45.515625 60.796875 
Q 45.515625 62.984375 47 64.625 
Q 48.484375 66.265625 50.6875 66.5 
Q 48.828125 67.921875 46.09375 67.921875 
Q 44.578125 67.921875 43.234375 66.5 
Q 41.890625 65.09375 41.5 63.484375 
Q 40.875 60.9375 38.71875 49.703125 
L 37.5 43.109375 
L 47.796875 43.109375 
Q 48.78125 43.109375 48.78125 41.796875 
Q 48.734375 41.546875 48.578125 40.9375 
Q 48.4375 40.328125 48.171875 39.953125 
Q 47.90625 39.59375 47.515625 39.59375 
L 36.8125 39.59375 
L 32.171875 15.1875 
Q 31.296875 9.859375 30.140625 4.359375 
Q 29 -1.125 26.921875 -6.90625 
Q 24.859375 -12.703125 21.625 -16.609375 
Q 18.40625 -20.515625 14.015625 -20.515625 
Q 10.640625 -20.515625 7.984375 -18.578125 
Q 5.328125 -16.65625 5.328125 -13.484375 
Q 5.328125 -10.9375 6.953125 -9.046875 
Q 8.59375 -7.171875 11.078125 -7.171875 
Q 12.75 -7.171875 13.859375 -8.171875 
Q 14.984375 -9.1875 14.984375 -10.796875 
Q 14.984375 -12.9375 13.390625 -14.71875 
Q 11.8125 -16.5 9.71875 -16.5 
z
" id="Cmmi10-66"/>
      </defs>
      <g transform="translate(450.578759 100.913766)scale(0.1 -0.1)">
       <use transform="translate(0 0.484375)" xlink:href="#Cmmi10-66"/>
      </g>
     </g>
    </g>
    <g id="xtick_3">
     <g id="line2d_26">
      <path clip-path="url(#pe9f49fd1c2)" d="M 562.529887 87.704405 
L 562.529887 16.528672 
" style="fill:none;stroke:#000000;stroke-dasharray:0.5,0.825;stroke-dashoffset:0;stroke-width:0.5;"/>
     </g>
     <g id="line2d_27">
      <g>
       <use style="stroke:#000000;stroke-width:0.8;" x="562.529887" xlink:href="#m77ac02362b" y="86.335641"/>
      </g>
     </g>
     <g id="text_2">
      <!-- $1$ -->
      <defs>
       <path d="M 9.28125 0 
L 9.28125 3.515625 
Q 21.78125 3.515625 21.78125 6.6875 
L 21.78125 59.1875 
Q 16.609375 56.6875 8.6875 56.6875 
L 8.6875 60.203125 
Q 20.953125 60.203125 27.203125 66.609375 
L 28.609375 66.609375 
Q 28.953125 66.609375 29.265625 66.328125 
Q 29.59375 66.0625 29.59375 65.71875 
L 29.59375 6.6875 
Q 29.59375 3.515625 42.09375 3.515625 
L 42.09375 0 
z
" id="Cmr10-31"/>
      </defs>
      <g transform="translate(560.029887 100.934078)scale(0.1 -0.1)">
       <use transform="translate(0 0.390625)" xlink:href="#Cmr10-31"/>
      </g>
     </g>
    </g>
   </g>
   <g id="matplotlib.axis_2">
    <g id="ytick_1">
     <g id="line2d_28">
      <path clip-path="url(#pe9f49fd1c2)" d="M 4.074135 86.335641 
L 573.48 86.335641 
" style="fill:none;stroke:#000000;stroke-dasharray:0.5,0.825;stroke-dashoffset:0;stroke-width:0.5;"/>
     </g>
     <g id="line2d_29">
      <defs>
       <path d="M 0 0 
L -3.5 0 
" id="mb54b14e1ae" style="stroke:#000000;stroke-width:0.8;"/>
      </defs>
      <g>
       <use style="stroke:#000000;stroke-width:0.8;" x="15.024247" xlink:href="#mb54b14e1ae" y="86.335641"/>
      </g>
     </g>
    </g>
    <g id="ytick_2">
     <g id="line2d_30">
      <path clip-path="url(#pe9f49fd1c2)" d="M 4.074135 17.897436 
L 573.48 17.897436 
" style="fill:none;stroke:#000000;stroke-dasharray:0.5,0.825;stroke-dashoffset:0;stroke-width:0.5;"/>
     </g>
     <g id="line2d_31">
      <g>
       <use style="stroke:#000000;stroke-width:0.8;" x="15.024247" xlink:href="#mb54b14e1ae" y="17.897436"/>
      </g>
     </g>
     <g id="text_3">
      <!-- $1$ -->
      <g transform="translate(3.024247 21.696655)scale(0.1 -0.1)">
       <use transform="translate(0 0.390625)" xlink:href="#Cmr10-31"/>
      </g>
     </g>
    </g>
   </g>
   <g id="patch_3">
    <path d="M 15.024247 87.704405 
L 15.024247 16.528672 
" style="fill:none;stroke:#000000;stroke-linecap:square;stroke-linejoin:miter;stroke-width:0.8;"/>
   </g>
   <g id="patch_4">
    <path d="M 4.074135 86.335641 
L 573.48 86.335641 
" style="fill:none;stroke:#000000;stroke-linecap:square;stroke-linejoin:miter;stroke-width:0.8;"/>
   </g>
  </g>
 </g>
 <defs>
  <clipPath id="pe9f49fd1c2">
   <rect height="71.175733" width="569.405865" x="4.074135" y="16.528672"/>
  </clipPath>
 </defs>
</svg>
