<?xml version="1.0" encoding="utf-8" standalone="no"?>
<!DOCTYPE svg PUBLIC "-//W3C//DTD SVG 1.1//EN"
  "http://www.w3.org/Graphics/SVG/1.1/DTD/svg11.dtd">
<!-- Created with matplotlib (http://matplotlib.org/) -->
<svg height="108pt" version="1.1" viewBox="0 0 576 108" width="576pt" xmlns="http://www.w3.org/2000/svg" xmlns:xlink="http://www.w3.org/1999/xlink">
 <defs>
  <style type="text/css">
*{stroke-linecap:butt;stroke-linejoin:round;}
  </style>
 </defs>
 <g id="figure_1">
  <g id="patch_1">
   <path d="M 0 108 
L 576 108 
L 576 0 
L 0 0 
z
" style="fill:#ffffff;"/>
  </g>
  <g id="axes_1">
   <g id="patch_2">
    <path d="M 4.074135 87.704405 
L 573.48 87.704405 
L 573.48 16.528672 
L 4.074135 16.528672 
z
" style="fill:#ffffff;"/>
   </g>
   <g id="line2d_1">
    <path clip-path="url(#p92814ffacd)" d="M 15.024247 86.335641 
L 36.924473 62.002057 
L 36.924473 62.002057 
" style="fill:none;stroke:#ff0000;stroke-linecap:square;stroke-width:2;"/>
   </g>
   <g id="line2d_2">
    <path clip-path="url(#p92814ffacd)" d="M 58.824699 75.689698 
L 80.724924 51.356114 
L 80.724924 51.356114 
" style="fill:none;stroke:#ff0000;stroke-linecap:square;stroke-width:2;"/>
   </g>
   <g id="line2d_3">
    <path clip-path="url(#p92814ffacd)" d="M 102.62515 65.043755 
L 124.525375 40.710171 
L 124.525375 40.710171 
" style="fill:none;stroke:#ff0000;stroke-linecap:square;stroke-width:2;"/>
   </g>
   <g id="line2d_4">
    <path clip-path="url(#p92814ffacd)" d="M 179.275939 74.929273 
L 201.176165 50.595689 
L 201.176165 50.595689 
" style="fill:none;stroke:#ff0000;stroke-linecap:square;stroke-width:2;"/>
   </g>
   <g id="line2d_5">
    <path clip-path="url(#p92814ffacd)" d="M 223.076391 64.28333 
L 244.976616 39.949746 
L 244.976616 39.949746 
" style="fill:none;stroke:#ff0000;stroke-linecap:square;stroke-width:2;"/>
   </g>
   <g id="line2d_6">
    <path clip-path="url(#p92814ffacd)" d="M 266.876842 53.637387 
L 288.777067 29.303803 
L 288.777067 29.303803 
" style="fill:none;stroke:#ff0000;stroke-linecap:square;stroke-width:2;"/>
   </g>
   <g id="line2d_7">
    <path clip-path="url(#p92814ffacd)" d="M 343.527631 63.522906 
L 365.427857 39.189322 
L 365.427857 39.189322 
" style="fill:none;stroke:#ff0000;stroke-linecap:square;stroke-width:2;"/>
   </g>
   <g id="line2d_8">
    <path clip-path="url(#p92814ffacd)" d="M 387.328082 52.876963 
L 409.228308 28.543379 
L 409.228308 28.543379 
" style="fill:none;stroke:#ff0000;stroke-linecap:square;stroke-width:2;"/>
   </g>
   <g id="line2d_9">
    <path clip-path="url(#p92814ffacd)" d="M 431.128534 42.23102 
L 453.028759 17.897436 
L 453.028759 17.897436 
" style="fill:none;stroke:#ff0000;stroke-linecap:square;stroke-width:2;"/>
   </g>
   <g id="line2d_10">
    <path clip-path="url(#p92814ffacd)" d="M 36.924473 62.002057 
L 58.824699 75.689698 
L 58.824699 75.689698 
" style="fill:none;stroke:#00ffff;stroke-linecap:square;stroke-width:2;"/>
   </g>
   <g id="line2d_11">
    <path clip-path="url(#p92814ffacd)" d="M 80.724924 51.356114 
L 102.62515 65.043755 
L 102.62515 65.043755 
" style="fill:none;stroke:#00ffff;stroke-linecap:square;stroke-width:2;"/>
   </g>
   <g id="line2d_12">
    <path clip-path="url(#p92814ffacd)" d="M 124.525375 40.710171 
L 179.275939 74.929273 
L 179.275939 74.929273 
" style="fill:none;stroke:#00ffff;stroke-linecap:square;stroke-width:2;"/>
   </g>
   <g id="line2d_13">
    <path clip-path="url(#p92814ffacd)" d="M 201.176165 50.595689 
L 223.076391 64.28333 
L 223.076391 64.28333 
" style="fill:none;stroke:#00ffff;stroke-linecap:square;stroke-width:2;"/>
   </g>
   <g id="line2d_14">
    <path clip-path="url(#p92814ffacd)" d="M 244.976616 39.949746 
L 245.096796 40.024859 
L 245.183277 40.078909 
L 245.289416 40.145246 
L 245.436899 40.237423 
L 245.526765 40.293589 
L 245.653682 40.372913 
L 245.752706 40.434802 
L 245.877586 40.512853 
L 245.918339 40.538323 
L 246.055381 40.623975 
L 246.152014 40.68437 
L 246.318773 40.788594 
L 246.451502 40.87155 
L 246.563001 40.941237 
L 246.579175 40.951346 
L 246.767277 41.06891 
L 246.868291 41.132044 
L 247.005595 41.217858 
L 247.015976 41.224347 
L 247.147361 41.306462 
L 247.334709 41.423555 
L 247.36675 41.44358 
L 247.512568 41.534716 
L 247.56849 41.569668 
L 247.689482 41.645288 
L 247.815594 41.724108 
L 247.998563 41.838463 
L 248.110001 41.908112 
L 248.153076 41.935034 
L 248.232753 41.984832 
L 248.375898 42.074298 
L 248.512265 42.159527 
L 248.600072 42.214407 
L 248.773038 42.32251 
L 248.87739 42.38773 
L 248.914248 42.410766 
L 249.091097 42.521297 
L 249.210448 42.595891 
L 249.222286 42.60329 
L 249.386664 42.706026 
L 249.543191 42.803856 
L 249.646466 42.868403 
L 249.735607 42.924116 
L 249.820277 42.977035 
L 249.892081 43.021912 
L 249.989502 43.0828 
L 250.133954 43.173083 
L 250.289935 43.270571 
L 250.365145 43.317577 
L 250.443634 43.366633 
L 250.626867 43.481153 
L 250.653049 43.497517 
L 250.790883 43.583663 
L 250.96736 43.693962 
L 251.070206 43.75824 
L 251.155688 43.811666 
L 251.254938 43.873698 
L 251.365259 43.942648 
L 251.475991 44.011856 
L 251.557306 44.062678 
L 251.688661 44.144774 
L 251.780577 44.202222 
L 251.934643 44.298513 
L 251.991348 44.333954 
L 252.170547 44.445953 
L 252.186233 44.455757 
L 252.362916 44.566184 
L 252.406378 44.593347 
L 252.527619 44.669124 
L 252.657675 44.750408 
L 252.750285 44.808289 
L 252.905871 44.905531 
L 253.06098 45.002474 
L 253.100686 45.02729 
L 253.205158 45.092585 
L 253.320913 45.164932 
L 253.453197 45.247609 
L 253.559774 45.31422 
L 253.644105 45.366927 
L 253.783635 45.454133 
L 253.906148 45.530704 
L 254.035623 45.611625 
L 254.070087 45.633166 
L 254.235382 45.736475 
L 254.300314 45.777058 
L 254.391249 45.833892 
L 254.500429 45.902129 
L 254.71166 46.034149 
L 254.776132 46.074444 
L 254.868088 46.131916 
L 254.987098 46.206298 
L 255.11112 46.283811 
L 255.21872 46.351061 
L 255.350352 46.433332 
" style="fill:none;stroke:#00ffff;stroke-linecap:square;stroke-width:2;"/>
   </g>
   <g id="line2d_15">
    <path clip-path="url(#p92814ffacd)" d="M 255.602712 46.591057 
L 255.798986 46.713727 
L 255.894214 46.773245 
L 255.959176 46.813846 
L 256.048284 46.869539 
L 256.152403 46.934613 
L 256.307864 47.031776 
L 256.457081 47.125037 
L 256.561541 47.190325 
L 256.682744 47.266076 
L 256.700871 47.277406 
L 256.855521 47.374062 
L 256.934721 47.423562 
L 257.108164 47.531964 
L 257.21339 47.59773 
L 257.25392 47.623062 
L 257.402345 47.715827 
L 257.561115 47.815058 
L 257.680106 47.889427 
L 257.759763 47.939213 
L 257.810114 47.970683 
L 257.967613 48.069119 
L 258.045912 48.118057 
L 258.224995 48.229984 
L 258.303709 48.27918 
L 258.392842 48.334888 
L 258.487225 48.393877 
L 258.647947 48.494328 
L 258.718029 48.53813 
L 258.857471 48.625281 
L 258.999869 48.71428 
L 259.073841 48.760512 
L 259.173237 48.822635 
L 259.250058 48.870647 
L 259.344191 48.929481 
L 259.487622 49.019125 
L 259.640131 49.114444 
L 259.697122 49.150062 
L 259.824307 49.229553 
L 259.973358 49.32271 
L 260.051514 49.371558 
L 260.149171 49.432594 
L 260.272506 49.509678 
L 260.371909 49.571805 
L 260.467336 49.631446 
L 260.574869 49.698654 
L 260.70873 49.782318 
L 260.859374 49.87647 
L 260.950403 49.933363 
L 261.057482 50.000288 
L 261.103529 50.029067 
L 261.277041 50.137512 
L 261.388541 50.207199 
L 261.485158 50.267585 
L 261.556218 50.311998 
L 261.684999 50.392486 
L 261.822301 50.478299 
L 261.901205 50.527614 
L 261.998622 50.5885 
L 262.107485 50.656539 
L 262.302684 50.778539 
L 262.402492 50.840919 
L 262.461961 50.878087 
L 262.569537 50.945322 
L 262.66977 51.007968 
L 262.769958 51.070585 
L 262.955846 51.186765 
L 263.061005 51.252489 
L 263.166974 51.31872 
L 263.214051 51.348143 
L 263.375387 51.448978 
L 263.423319 51.478936 
L 263.543815 51.554246 
L 263.72105 51.665017 
L 263.774291 51.698293 
L 263.858765 51.751089 
L 264.070229 51.883254 
L 264.135675 51.924158 
L 264.18078 51.952349 
L 264.351874 52.059283 
L 264.473868 52.135529 
L 264.544463 52.179651 
L 264.680442 52.264638 
L 264.823288 52.353916 
L 264.907198 52.40636 
L 265.017052 52.475019 
L 265.137391 52.550231 
L 265.17802 52.575624 
L 265.390721 52.708562 
L 265.428154 52.731958 
L 265.56776 52.819211 
L 265.635747 52.861703 
L 265.726092 52.918169 
L 265.934085 53.048164 
L 265.952069 53.059404 
L 266.098896 53.151171 
L 266.229424 53.232752 
L 266.28033 53.264568 
L 266.478466 53.388403 
L 266.585649 53.455392 
L 266.654097 53.498172 
L 266.71996 53.539337 
L 266.876842 53.637387 
" style="fill:none;stroke:#00ffff;stroke-linecap:square;stroke-width:2;"/>
   </g>
   <g id="line2d_16">
    <path clip-path="url(#p92814ffacd)" d="M 288.777067 29.303803 
L 343.527631 63.522906 
L 343.527631 63.522906 
" style="fill:none;stroke:#00ffff;stroke-linecap:square;stroke-width:2;"/>
   </g>
   <g id="line2d_17">
    <path clip-path="url(#p92814ffacd)" d="M 365.427857 39.189322 
L 387.328082 52.876963 
L 387.328082 52.876963 
" style="fill:none;stroke:#00ffff;stroke-linecap:square;stroke-width:2;"/>
   </g>
   <g id="line2d_18">
    <path clip-path="url(#p92814ffacd)" d="M 409.228308 28.543379 
L 431.128534 42.23102 
L 431.128534 42.23102 
" style="fill:none;stroke:#00ffff;stroke-linecap:square;stroke-width:2;"/>
   </g>
   <g id="line2d_19">
    <path clip-path="url(#p92814ffacd)" d="M 453.028759 17.897436 
L 562.529887 86.335641 
L 562.529887 86.335641 
" style="fill:none;stroke:#00ffff;stroke-linecap:square;stroke-width:2;"/>
   </g>
   <g id="matplotlib.axis_1">
    <g id="xtick_1">
     <g id="line2d_20">
      <path clip-path="url(#p92814ffacd)" d="M 15.024247 87.704405 
L 15.024247 16.528672 
" style="fill:none;stroke:#000000;stroke-dasharray:0.5,0.825;stroke-dashoffset:0;stroke-width:0.5;"/>
     </g>
     <g id="line2d_21">
      <defs>
       <path d="M 0 0 
L 0 3.5 
" id="mfe6a84ddcb" style="stroke:#000000;stroke-width:0.8;"/>
      </defs>
      <g>
       <use style="stroke:#000000;stroke-width:0.8;" x="15.024247" xlink:href="#mfe6a84ddcb" y="86.335641"/>
      </g>
     </g>
    </g>
    <g id="xtick_2">
     <g id="line2d_22">
      <path clip-path="url(#p92814ffacd)" d="M 453.028759 87.704405 
L 453.028759 16.528672 
" style="fill:none;stroke:#000000;stroke-dasharray:0.5,0.825;stroke-dashoffset:0;stroke-width:0.5;"/>
     </g>
     <g id="line2d_23">
      <g>
       <use style="stroke:#000000;stroke-width:0.8;" x="453.028759" xlink:href="#mfe6a84ddcb" y="86.335641"/>
      </g>
     </g>
     <g id="text_1">
      <!-- $f$ -->
      <defs>
       <path d="M 9.71875 -16.5 
Q 11.578125 -17.921875 14.203125 -17.921875 
Q 17.78125 -17.921875 20.015625 -10.015625 
Q 20.953125 -6.203125 25.09375 15.09375 
L 29.6875 39.59375 
L 21.09375 39.59375 
Q 20.125 39.59375 20.125 40.921875 
Q 20.515625 43.109375 21.390625 43.109375 
L 30.328125 43.109375 
L 31.5 49.609375 
Q 32.078125 52.640625 32.5625 54.8125 
Q 33.0625 56.984375 33.625 58.828125 
Q 34.1875 60.6875 35.296875 62.984375 
Q 37.015625 66.265625 39.921875 68.390625 
Q 42.828125 70.515625 46.1875 70.515625 
Q 48.390625 70.515625 50.46875 69.703125 
Q 52.546875 68.890625 53.859375 67.28125 
Q 55.171875 65.671875 55.171875 63.484375 
Q 55.171875 60.9375 53.484375 59.046875 
Q 51.8125 57.171875 49.421875 57.171875 
Q 47.796875 57.171875 46.65625 58.171875 
Q 45.515625 59.1875 45.515625 60.796875 
Q 45.515625 62.984375 47 64.625 
Q 48.484375 66.265625 50.6875 66.5 
Q 48.828125 67.921875 46.09375 67.921875 
Q 44.578125 67.921875 43.234375 66.5 
Q 41.890625 65.09375 41.5 63.484375 
Q 40.875 60.9375 38.71875 49.703125 
L 37.5 43.109375 
L 47.796875 43.109375 
Q 48.78125 43.109375 48.78125 41.796875 
Q 48.734375 41.546875 48.578125 40.9375 
Q 48.4375 40.328125 48.171875 39.953125 
Q 47.90625 39.59375 47.515625 39.59375 
L 36.8125 39.59375 
L 32.171875 15.1875 
Q 31.296875 9.859375 30.140625 4.359375 
Q 29 -1.125 26.921875 -6.90625 
Q 24.859375 -12.703125 21.625 -16.609375 
Q 18.40625 -20.515625 14.015625 -20.515625 
Q 10.640625 -20.515625 7.984375 -18.578125 
Q 5.328125 -16.65625 5.328125 -13.484375 
Q 5.328125 -10.9375 6.953125 -9.046875 
Q 8.59375 -7.171875 11.078125 -7.171875 
Q 12.75 -7.171875 13.859375 -8.171875 
Q 14.984375 -9.1875 14.984375 -10.796875 
Q 14.984375 -12.9375 13.390625 -14.71875 
Q 11.8125 -16.5 9.71875 -16.5 
z
" id="Cmmi10-66"/>
      </defs>
      <g transform="translate(450.578759 100.913766)scale(0.1 -0.1)">
       <use transform="translate(0 0.484375)" xlink:href="#Cmmi10-66"/>
      </g>
     </g>
    </g>
    <g id="xtick_3">
     <g id="line2d_24">
      <path clip-path="url(#p92814ffacd)" d="M 562.529887 87.704405 
L 562.529887 16.528672 
" style="fill:none;stroke:#000000;stroke-dasharray:0.5,0.825;stroke-dashoffset:0;stroke-width:0.5;"/>
     </g>
     <g id="line2d_25">
      <g>
       <use style="stroke:#000000;stroke-width:0.8;" x="562.529887" xlink:href="#mfe6a84ddcb" y="86.335641"/>
      </g>
     </g>
     <g id="text_2">
      <!-- $1$ -->
      <defs>
       <path d="M 9.28125 0 
L 9.28125 3.515625 
Q 21.78125 3.515625 21.78125 6.6875 
L 21.78125 59.1875 
Q 16.609375 56.6875 8.6875 56.6875 
L 8.6875 60.203125 
Q 20.953125 60.203125 27.203125 66.609375 
L 28.609375 66.609375 
Q 28.953125 66.609375 29.265625 66.328125 
Q 29.59375 66.0625 29.59375 65.71875 
L 29.59375 6.6875 
Q 29.59375 3.515625 42.09375 3.515625 
L 42.09375 0 
z
" id="Cmr10-31"/>
      </defs>
      <g transform="translate(560.029887 100.934078)scale(0.1 -0.1)">
       <use transform="translate(0 0.390625)" xlink:href="#Cmr10-31"/>
      </g>
     </g>
    </g>
   </g>
   <g id="matplotlib.axis_2">
    <g id="ytick_1">
     <g id="line2d_26">
      <path clip-path="url(#p92814ffacd)" d="M 4.074135 86.335641 
L 573.48 86.335641 
" style="fill:none;stroke:#000000;stroke-dasharray:0.5,0.825;stroke-dashoffset:0;stroke-width:0.5;"/>
     </g>
     <g id="line2d_27">
      <defs>
       <path d="M 0 0 
L -3.5 0 
" id="mc99c81726f" style="stroke:#000000;stroke-width:0.8;"/>
      </defs>
      <g>
       <use style="stroke:#000000;stroke-width:0.8;" x="15.024247" xlink:href="#mc99c81726f" y="86.335641"/>
      </g>
     </g>
    </g>
    <g id="ytick_2">
     <g id="line2d_28">
      <path clip-path="url(#p92814ffacd)" d="M 4.074135 17.897436 
L 573.48 17.897436 
" style="fill:none;stroke:#000000;stroke-dasharray:0.5,0.825;stroke-dashoffset:0;stroke-width:0.5;"/>
     </g>
     <g id="line2d_29">
      <g>
       <use style="stroke:#000000;stroke-width:0.8;" x="15.024247" xlink:href="#mc99c81726f" y="17.897436"/>
      </g>
     </g>
     <g id="text_3">
      <!-- $1$ -->
      <g transform="translate(3.024247 21.696655)scale(0.1 -0.1)">
       <use transform="translate(0 0.390625)" xlink:href="#Cmr10-31"/>
      </g>
     </g>
    </g>
   </g>
   <g id="patch_3">
    <path d="M 15.024247 87.704405 
L 15.024247 16.528672 
" style="fill:none;stroke:#000000;stroke-linecap:square;stroke-linejoin:miter;stroke-width:0.8;"/>
   </g>
   <g id="patch_4">
    <path d="M 4.074135 86.335641 
L 573.48 86.335641 
" style="fill:none;stroke:#000000;stroke-linecap:square;stroke-linejoin:miter;stroke-width:0.8;"/>
   </g>
  </g>
 </g>
 <defs>
  <clipPath id="p92814ffacd">
   <rect height="71.175733" width="569.405865" x="4.074135" y="16.528672"/>
  </clipPath>
 </defs>
</svg>
