<?xml version="1.0" encoding="utf-8" standalone="no"?>
<!DOCTYPE svg PUBLIC "-//W3C//DTD SVG 1.1//EN"
  "http://www.w3.org/Graphics/SVG/1.1/DTD/svg11.dtd">
<!-- Created with matplotlib (http://matplotlib.org/) -->
<svg height="108pt" version="1.1" viewBox="0 0 576 108" width="576pt" xmlns="http://www.w3.org/2000/svg" xmlns:xlink="http://www.w3.org/1999/xlink">
 <defs>
  <style type="text/css">
*{stroke-linecap:butt;stroke-linejoin:round;}
  </style>
 </defs>
 <g id="figure_1">
  <g id="patch_1">
   <path d="M 0 108 
L 576 108 
L 576 0 
L 0 0 
z
" style="fill:#ffffff;"/>
  </g>
  <g id="axes_1">
   <g id="patch_2">
    <path d="M 4.074135 87.704405 
L 573.48 87.704405 
L 573.48 16.528672 
L 4.074135 16.528672 
z
" style="fill:#ffffff;"/>
   </g>
   <g id="line2d_1">
    <path clip-path="url(#p8b509a4d39)" d="M 141.371703 17.897436 
L 562.529887 86.335641 
L 562.529887 86.335641 
" style="fill:none;stroke:#ff0000;stroke-linecap:square;stroke-width:2;"/>
   </g>
   <g id="line2d_2">
    <path clip-path="url(#p8b509a4d39)" d="M 15.024247 86.335641 
L 15.696885 85.971296 
L 16.043257 85.783678 
L 16.726485 85.413595 
L 17.375273 85.062169 
L 18.428746 84.491538 
L 18.933865 84.217931 
L 19.621413 83.84551 
L 20.002685 83.638987 
L 20.494996 83.372319 
L 21.094542 83.047565 
L 22.008161 82.552688 
L 22.563549 82.251853 
L 23.193179 81.910803 
L 23.644687 81.666236 
L 24.281041 81.321544 
L 25.08366 80.886792 
L 25.854292 80.469367 
L 26.758207 79.979746 
L 27.012201 79.842166 
L 27.793423 79.419004 
L 28.058234 79.275565 
L 28.84218 78.850927 
L 29.922859 78.26556 
L 30.155801 78.139383 
L 30.952022 77.708096 
L 31.697602 77.30424 
L 32.073474 77.100643 
L 32.727077 76.746608 
L 33.733322 76.201559 
L 34.289115 75.900504 
L 34.899239 75.57002 
L 35.172822 75.42183 
L 36.178595 74.877036 
L 36.712238 74.587979 
L 37.438975 74.19433 
L 37.977021 73.902889 
L 38.700411 73.511052 
L 39.451704 73.104102 
L 39.673561 72.98393 
L 40.588021 72.488597 
L 41.223189 72.144547 
L 41.599754 71.940575 
L 42.593637 71.402222 
L 43.21839 71.063814 
L 43.301033 71.019049 
L 44.180536 70.542651 
L 45.129716 70.028512 
L 45.361613 69.902901 
L 46.233169 69.430808 
L 46.807082 69.119939 
L 47.183055 68.916287 
L 47.794985 68.584825 
L 48.878391 67.99798 
L 49.321252 67.758097 
L 49.841693 67.476191 
L 50.421033 67.162382 
L 51.497217 66.579449 
L 52.065176 66.271805 
L 52.185788 66.206473 
L 53.31975 65.592243 
L 54.035501 65.204545 
L 54.610643 64.89301 
L 55.2278 64.558716 
L 55.45179 64.437389 
L 56.326793 63.963429 
L 57.156316 63.514104 
L 57.395081 63.384773 
L 58.029272 63.041252 
L 58.754339 62.648508 
L 59.384492 62.307175 
L 60.21242 61.858714 
L 61.029109 61.416341 
L 61.496042 61.163419 
L 61.931577 60.927504 
L 62.435994 60.654278 
L 63.458875 60.100218 
L 64.193596 59.702244 
L 64.26382 59.664206 
L 64.932898 59.301789 
L 66.060851 58.690814 
L 66.476638 58.465596 
L 66.807245 58.286517 
L 67.490225 57.91657 
L 68.189563 57.537762 
L 69.150837 57.017072 
L 69.889741 56.616832 
L 70.506943 56.282514 
L 70.850926 56.09619 
L 71.540215 55.722825 
L 72.272175 55.326347 
L 72.78902 55.046389 
L 73.383157 54.724565 
L 73.761729 54.519505 
L 74.818939 53.94685 
L 75.334444 53.667618 
L 76.194323 53.20185 
L 76.343105 53.12126 
L 76.998287 52.766369 
L 77.634514 52.421746 
L 78.234243 52.096893 
L 78.933646 51.71805 
L 79.715446 51.294575 
L 80.638491 50.794592 
L 80.74847 50.73502 
L 81.69029 50.224868 
L 82.369384 49.857025 
L 82.687068 49.684947 
" style="fill:none;stroke:#00ffff;stroke-linecap:square;stroke-width:2;"/>
   </g>
   <g id="line2d_3">
    <path clip-path="url(#p8b509a4d39)" d="M 84.795379 48.542945 
L 85.282479 48.279099 
L 86.215854 47.773521 
L 86.572783 47.580184 
L 87.397376 47.133529 
L 88.337482 46.624305 
L 88.535145 46.517238 
L 89.241782 46.134476 
L 90.098135 45.670619 
L 90.835687 45.271111 
L 90.953659 45.20721 
L 91.53556 44.892013 
L 92.703874 44.259177 
L 93.332132 43.91887 
L 93.45826 43.850551 
L 94.270008 43.410854 
L 95.011962 43.008962 
L 95.35341 42.824011 
L 96.254084 42.336146 
L 97.191327 41.828473 
L 97.275507 41.782875 
L 98.332992 41.210071 
L 98.611294 41.059324 
L 99.594511 40.526748 
L 100.329236 40.128772 
L 100.90794 39.815308 
L 101.657136 39.409493 
L 102.283225 39.070361 
L 102.561995 38.919361 
L 103.496226 38.413319 
L 104.0625 38.106587 
L 104.641568 37.792925 
L 105.379651 37.39313 
L 105.514348 37.32017 
L 106.467077 36.804108 
L 106.927441 36.554745 
L 107.895665 36.03029 
L 108.661824 35.615287 
L 109.152555 35.349475 
L 109.503895 35.159165 
L 110.482253 34.629221 
L 110.831291 34.440159 
L 111.361969 34.152708 
L 112.414747 33.582454 
L 113.047815 33.239542 
L 113.643937 32.916643 
L 113.846826 32.806744 
L 114.603952 32.396634 
L 115.462347 31.93167 
L 115.994247 31.643558 
L 116.836167 31.187518 
L 117.514136 30.820284 
L 117.968096 30.57439 
L 118.305549 30.391603 
L 118.95212 30.041377 
L 119.956741 29.497207 
L 120.208431 29.360875 
L 120.86659 29.004372 
L 121.372005 28.730605 
L 122.449455 28.146987 
L 123.128068 27.779405 
L 123.519913 27.567156 
L 124.215312 27.190481 
L 125.177083 26.669522 
L 125.789545 26.337772 
L 125.896513 26.279831 
L 126.848944 25.76393 
L 127.184666 25.582081 
L 128.278276 24.989709 
L 128.67627 24.774128 
L 129.511128 24.321914 
L 130.053891 24.027917 
L 130.39353 23.843946 
L 131.126702 23.446811 
L 132.068966 22.936418 
L 132.567263 22.666508 
L 133.183312 22.332814 
L 133.895484 21.947054 
L 134.183276 21.791167 
L 134.806357 21.453665 
L 135.691516 20.974204 
L 136.493426 20.539836 
L 136.613058 20.475035 
L 137.735057 19.867286 
L 137.949541 19.751107 
L 138.87079 19.252097 
L 139.559914 18.878821 
L 140.253948 18.502886 
L 141.021475 18.087142 
L 141.371703 17.897436 
" style="fill:none;stroke:#00ffff;stroke-linecap:square;stroke-width:2;"/>
   </g>
   <g id="matplotlib.axis_1">
    <g id="xtick_1">
     <g id="line2d_4">
      <path clip-path="url(#p8b509a4d39)" d="M 15.024247 87.704405 
L 15.024247 16.528672 
" style="fill:none;stroke:#000000;stroke-dasharray:0.5,0.825;stroke-dashoffset:0;stroke-width:0.5;"/>
     </g>
     <g id="line2d_5">
      <defs>
       <path d="M 0 0 
L 0 3.5 
" id="ma8251805d6" style="stroke:#000000;stroke-width:0.8;"/>
      </defs>
      <g>
       <use style="stroke:#000000;stroke-width:0.8;" x="15.024247" xlink:href="#ma8251805d6" y="86.335641"/>
      </g>
     </g>
    </g>
    <g id="xtick_2">
     <g id="line2d_6">
      <path clip-path="url(#p8b509a4d39)" d="M 141.371703 87.704405 
L 141.371703 16.528672 
" style="fill:none;stroke:#000000;stroke-dasharray:0.5,0.825;stroke-dashoffset:0;stroke-width:0.5;"/>
     </g>
     <g id="line2d_7">
      <g>
       <use style="stroke:#000000;stroke-width:0.8;" x="141.371703" xlink:href="#ma8251805d6" y="86.335641"/>
      </g>
     </g>
     <g id="text_1">
      <!-- $f$ -->
      <defs>
       <path d="M 9.71875 -16.5 
Q 11.578125 -17.921875 14.203125 -17.921875 
Q 17.78125 -17.921875 20.015625 -10.015625 
Q 20.953125 -6.203125 25.09375 15.09375 
L 29.6875 39.59375 
L 21.09375 39.59375 
Q 20.125 39.59375 20.125 40.921875 
Q 20.515625 43.109375 21.390625 43.109375 
L 30.328125 43.109375 
L 31.5 49.609375 
Q 32.078125 52.640625 32.5625 54.8125 
Q 33.0625 56.984375 33.625 58.828125 
Q 34.1875 60.6875 35.296875 62.984375 
Q 37.015625 66.265625 39.921875 68.390625 
Q 42.828125 70.515625 46.1875 70.515625 
Q 48.390625 70.515625 50.46875 69.703125 
Q 52.546875 68.890625 53.859375 67.28125 
Q 55.171875 65.671875 55.171875 63.484375 
Q 55.171875 60.9375 53.484375 59.046875 
Q 51.8125 57.171875 49.421875 57.171875 
Q 47.796875 57.171875 46.65625 58.171875 
Q 45.515625 59.1875 45.515625 60.796875 
Q 45.515625 62.984375 47 64.625 
Q 48.484375 66.265625 50.6875 66.5 
Q 48.828125 67.921875 46.09375 67.921875 
Q 44.578125 67.921875 43.234375 66.5 
Q 41.890625 65.09375 41.5 63.484375 
Q 40.875 60.9375 38.71875 49.703125 
L 37.5 43.109375 
L 47.796875 43.109375 
Q 48.78125 43.109375 48.78125 41.796875 
Q 48.734375 41.546875 48.578125 40.9375 
Q 48.4375 40.328125 48.171875 39.953125 
Q 47.90625 39.59375 47.515625 39.59375 
L 36.8125 39.59375 
L 32.171875 15.1875 
Q 31.296875 9.859375 30.140625 4.359375 
Q 29 -1.125 26.921875 -6.90625 
Q 24.859375 -12.703125 21.625 -16.609375 
Q 18.40625 -20.515625 14.015625 -20.515625 
Q 10.640625 -20.515625 7.984375 -18.578125 
Q 5.328125 -16.65625 5.328125 -13.484375 
Q 5.328125 -10.9375 6.953125 -9.046875 
Q 8.59375 -7.171875 11.078125 -7.171875 
Q 12.75 -7.171875 13.859375 -8.171875 
Q 14.984375 -9.1875 14.984375 -10.796875 
Q 14.984375 -12.9375 13.390625 -14.71875 
Q 11.8125 -16.5 9.71875 -16.5 
z
" id="Cmmi10-66"/>
      </defs>
      <g transform="translate(138.921703 100.913766)scale(0.1 -0.1)">
       <use transform="translate(0 0.484375)" xlink:href="#Cmmi10-66"/>
      </g>
     </g>
    </g>
    <g id="xtick_3">
     <g id="line2d_8">
      <path clip-path="url(#p8b509a4d39)" d="M 562.529887 87.704405 
L 562.529887 16.528672 
" style="fill:none;stroke:#000000;stroke-dasharray:0.5,0.825;stroke-dashoffset:0;stroke-width:0.5;"/>
     </g>
     <g id="line2d_9">
      <g>
       <use style="stroke:#000000;stroke-width:0.8;" x="562.529887" xlink:href="#ma8251805d6" y="86.335641"/>
      </g>
     </g>
     <g id="text_2">
      <!-- $1$ -->
      <defs>
       <path d="M 9.28125 0 
L 9.28125 3.515625 
Q 21.78125 3.515625 21.78125 6.6875 
L 21.78125 59.1875 
Q 16.609375 56.6875 8.6875 56.6875 
L 8.6875 60.203125 
Q 20.953125 60.203125 27.203125 66.609375 
L 28.609375 66.609375 
Q 28.953125 66.609375 29.265625 66.328125 
Q 29.59375 66.0625 29.59375 65.71875 
L 29.59375 6.6875 
Q 29.59375 3.515625 42.09375 3.515625 
L 42.09375 0 
z
" id="Cmr10-31"/>
      </defs>
      <g transform="translate(560.029887 100.934078)scale(0.1 -0.1)">
       <use transform="translate(0 0.390625)" xlink:href="#Cmr10-31"/>
      </g>
     </g>
    </g>
   </g>
   <g id="matplotlib.axis_2">
    <g id="ytick_1">
     <g id="line2d_10">
      <path clip-path="url(#p8b509a4d39)" d="M 4.074135 86.335641 
L 573.48 86.335641 
" style="fill:none;stroke:#000000;stroke-dasharray:0.5,0.825;stroke-dashoffset:0;stroke-width:0.5;"/>
     </g>
     <g id="line2d_11">
      <defs>
       <path d="M 0 0 
L -3.5 0 
" id="mbc07c45fa1" style="stroke:#000000;stroke-width:0.8;"/>
      </defs>
      <g>
       <use style="stroke:#000000;stroke-width:0.8;" x="15.024247" xlink:href="#mbc07c45fa1" y="86.335641"/>
      </g>
     </g>
    </g>
    <g id="ytick_2">
     <g id="line2d_12">
      <path clip-path="url(#p8b509a4d39)" d="M 4.074135 17.897436 
L 573.48 17.897436 
" style="fill:none;stroke:#000000;stroke-dasharray:0.5,0.825;stroke-dashoffset:0;stroke-width:0.5;"/>
     </g>
     <g id="line2d_13">
      <g>
       <use style="stroke:#000000;stroke-width:0.8;" x="15.024247" xlink:href="#mbc07c45fa1" y="17.897436"/>
      </g>
     </g>
     <g id="text_3">
      <!-- $1$ -->
      <g transform="translate(3.024247 21.696655)scale(0.1 -0.1)">
       <use transform="translate(0 0.390625)" xlink:href="#Cmr10-31"/>
      </g>
     </g>
    </g>
   </g>
   <g id="patch_3">
    <path d="M 15.024247 87.704405 
L 15.024247 16.528672 
" style="fill:none;stroke:#000000;stroke-linecap:square;stroke-linejoin:miter;stroke-width:0.8;"/>
   </g>
   <g id="patch_4">
    <path d="M 4.074135 86.335641 
L 573.48 86.335641 
" style="fill:none;stroke:#000000;stroke-linecap:square;stroke-linejoin:miter;stroke-width:0.8;"/>
   </g>
  </g>
 </g>
 <defs>
  <clipPath id="p8b509a4d39">
   <rect height="71.175733" width="569.405865" x="4.074135" y="16.528672"/>
  </clipPath>
 </defs>
</svg>
