<?xml version="1.0" encoding="utf-8" standalone="no"?>
<!DOCTYPE svg PUBLIC "-//W3C//DTD SVG 1.1//EN"
  "http://www.w3.org/Graphics/SVG/1.1/DTD/svg11.dtd">
<!-- Created with matplotlib (http://matplotlib.org/) -->
<svg height="108pt" version="1.1" viewBox="0 0 576 108" width="576pt" xmlns="http://www.w3.org/2000/svg" xmlns:xlink="http://www.w3.org/1999/xlink">
 <defs>
  <style type="text/css">
*{stroke-linecap:butt;stroke-linejoin:round;}
  </style>
 </defs>
 <g id="figure_1">
  <g id="patch_1">
   <path d="M 0 108 
L 576 108 
L 576 0 
L 0 0 
z
" style="fill:#ffffff;"/>
  </g>
  <g id="axes_1">
   <g id="patch_2">
    <path d="M 4.074135 87.704405 
L 573.48 87.704405 
L 573.48 16.528672 
L 4.074135 16.528672 
z
" style="fill:#ffffff;"/>
   </g>
   <g id="line2d_1">
    <path clip-path="url(#p1e95df71d8)" d="M 89.011496 53.890862 
L 118.606395 55.918661 
L 118.606395 55.918661 
" style="fill:none;stroke:#ff0000;stroke-linecap:square;stroke-width:2;"/>
   </g>
   <g id="line2d_2">
    <path clip-path="url(#p1e95df71d8)" d="M 162.998745 30.824652 
L 177.796194 31.838552 
L 177.796194 31.838552 
" style="fill:none;stroke:#ff0000;stroke-linecap:square;stroke-width:2;"/>
   </g>
   <g id="line2d_3">
    <path clip-path="url(#p1e95df71d8)" d="M 222.188544 72.394525 
L 236.985993 73.408424 
L 236.985993 73.408424 
" style="fill:none;stroke:#ff0000;stroke-linecap:square;stroke-width:2;"/>
   </g>
   <g id="line2d_4">
    <path clip-path="url(#p1e95df71d8)" d="M 281.378342 48.314416 
L 310.973242 50.342215 
L 310.973242 50.342215 
" style="fill:none;stroke:#ff0000;stroke-linecap:square;stroke-width:2;"/>
   </g>
   <g id="line2d_5">
    <path clip-path="url(#p1e95df71d8)" d="M 429.35284 67.831978 
L 444.150289 68.845877 
L 444.150289 68.845877 
" style="fill:none;stroke:#ff0000;stroke-linecap:square;stroke-width:2;"/>
   </g>
   <g id="line2d_6">
    <path clip-path="url(#p1e95df71d8)" d="M 503.340088 35.387199 
L 518.137538 36.401099 
L 518.137538 36.401099 
" style="fill:none;stroke:#ff0000;stroke-linecap:square;stroke-width:2;"/>
   </g>
   <g id="line2d_7">
    <path clip-path="url(#p1e95df71d8)" d="M 59.416597 33.105926 
L 89.011496 53.890862 
L 89.011496 53.890862 
" style="fill:none;stroke:#cbff00;stroke-linecap:square;stroke-width:2;"/>
   </g>
   <g id="line2d_8">
    <path clip-path="url(#p1e95df71d8)" d="M 177.796194 31.838552 
L 192.593644 42.23102 
L 192.593644 42.23102 
" style="fill:none;stroke:#cbff00;stroke-linecap:square;stroke-width:2;"/>
   </g>
   <g id="line2d_9">
    <path clip-path="url(#p1e95df71d8)" d="M 207.391094 62.002057 
L 222.188544 72.394525 
L 222.188544 72.394525 
" style="fill:none;stroke:#cbff00;stroke-linecap:square;stroke-width:2;"/>
   </g>
   <g id="line2d_10">
    <path clip-path="url(#p1e95df71d8)" d="M 310.973242 50.342215 
L 340.568141 71.127151 
L 340.568141 71.127151 
" style="fill:none;stroke:#cbff00;stroke-linecap:square;stroke-width:2;"/>
   </g>
   <g id="line2d_11">
    <path clip-path="url(#p1e95df71d8)" d="M 414.55539 57.43951 
L 429.35284 67.831978 
L 429.35284 67.831978 
" style="fill:none;stroke:#cbff00;stroke-linecap:square;stroke-width:2;"/>
   </g>
   <g id="line2d_12">
    <path clip-path="url(#p1e95df71d8)" d="M 518.137538 36.401099 
L 532.934988 46.793567 
L 532.934988 46.793567 
" style="fill:none;stroke:#cbff00;stroke-linecap:square;stroke-width:2;"/>
   </g>
   <g id="line2d_13">
    <path clip-path="url(#p1e95df71d8)" d="M 192.593644 42.23102 
L 207.391094 62.002057 
L 207.391094 62.002057 
" style="fill:none;stroke:#00ff66;stroke-linecap:square;stroke-width:2;"/>
   </g>
   <g id="line2d_14">
    <path clip-path="url(#p1e95df71d8)" d="M 384.960491 17.897436 
L 414.55539 57.43951 
L 414.55539 57.43951 
" style="fill:none;stroke:#00ff66;stroke-linecap:square;stroke-width:2;"/>
   </g>
   <g id="line2d_15">
    <path clip-path="url(#p1e95df71d8)" d="M 532.934988 46.793567 
L 562.529887 86.335641 
L 562.529887 86.335641 
" style="fill:none;stroke:#00ff66;stroke-linecap:square;stroke-width:2;"/>
   </g>
   <g id="line2d_16">
    <path clip-path="url(#p1e95df71d8)" d="M 44.619147 41.470595 
L 59.416597 33.105926 
L 59.416597 33.105926 
" style="fill:none;stroke:#0066ff;stroke-linecap:square;stroke-width:2;"/>
   </g>
   <g id="line2d_17">
    <path clip-path="url(#p1e95df71d8)" d="M 118.606395 55.918661 
L 162.998745 30.824652 
L 162.998745 30.824652 
" style="fill:none;stroke:#0066ff;stroke-linecap:square;stroke-width:2;"/>
   </g>
   <g id="line2d_18">
    <path clip-path="url(#p1e95df71d8)" d="M 236.985993 73.408424 
L 237.127808 73.32826 
L 237.506831 73.114007 
L 237.759396 72.971237 
L 237.95419 72.861124 
L 238.120102 72.767338 
L 238.362263 72.63045 
L 238.524881 72.538526 
L 238.659736 72.462295 
L 239.049085 72.242205 
L 239.112113 72.206576 
L 239.36673 72.062647 
L 239.729841 71.857388 
L 239.865142 71.780906 
L 240.166355 71.610636 
L 240.397451 71.480003 
L 240.621314 71.353459 
L 240.827113 71.237125 
L 240.899661 71.196115 
L 241.281811 70.980094 
L 241.353139 70.939774 
L 241.607591 70.795938 
L 241.80232 70.685862 
L 242.033198 70.555352 
L 242.285828 70.412546 
L 242.531902 70.273445 
L 242.722522 70.165692 
L 243.091593 69.957065 
L 243.330723 69.82189 
L 243.502197 69.72496 
L 243.726563 69.59813 
L 243.90032 69.499909 
L 244.182017 69.340672 
L 244.247247 69.303799 
L 244.553922 69.130442 
L 244.893047 68.938743 
L 244.911079 68.928549 
L 245.303092 68.706954 
L 245.364221 68.672398 
L 245.75117 68.453665 
L 245.828759 68.409806 
L 246.089318 68.262517 
L 246.365831 68.10621 
L 246.60526 67.970867 
L 246.899499 67.80454 
L 246.972216 67.763435 
L 247.167488 67.653052 
L 247.487053 67.472409 
L 247.774076 67.310161 
L 247.908389 67.234237 
L 248.02852 67.166329 
L 248.354063 66.982307 
L 248.580197 66.854479 
L 248.898613 66.674485 
L 249.141212 66.537349 
L 249.246681 66.47773 
L 249.409246 66.385836 
L 249.608104 66.273426 
L 249.981163 66.062544 
L 250.098806 65.996043 
L 250.467392 65.78769 
L 250.553559 65.738981 
L 250.866916 65.561847 
L 251.004871 65.483865 
L 251.310551 65.31107 
L 251.537608 65.18272 
L 251.73726 65.069861 
L 251.964851 64.941209 
L 252.086939 64.872195 
L 252.279188 64.763521 
L 252.515765 64.62979 
L 252.827301 64.453685 
L 252.953656 64.38226 
" style="fill:none;stroke:#0066ff;stroke-linecap:square;stroke-width:2;"/>
   </g>
   <g id="line2d_19">
    <path clip-path="url(#p1e95df71d8)" d="M 253.633187 63.998136 
L 253.831483 63.886043 
L 254.101625 63.733338 
L 254.402366 63.563336 
L 254.502544 63.506708 
L 254.766492 63.357503 
L 255.154793 63.138006 
L 255.363311 63.020135 
L 255.510688 62.936826 
L 255.776451 62.786596 
L 255.887399 62.72388 
L 256.208304 62.542479 
L 256.358097 62.457805 
L 256.686717 62.272043 
L 256.878315 62.163737 
L 257.126232 62.023595 
L 257.337365 61.904246 
L 257.444309 61.843793 
L 257.69781 61.700495 
L 258.038761 61.507763 
L 258.165518 61.43611 
L 258.440011 61.280945 
L 258.553964 61.21653 
L 258.758391 61.100972 
L 259.003883 60.9622 
L 259.330629 60.777498 
L 259.493774 60.685276 
L 259.715116 60.560157 
L 260.018667 60.388566 
L 260.20328 60.284208 
L 260.463702 60.136997 
L 260.648336 60.032628 
L 260.87101 59.906755 
L 260.976104 59.847348 
L 261.342929 59.63999 
L 261.482415 59.561141 
L 261.789517 59.387544 
L 261.913924 59.317219 
L 262.266634 59.11784 
L 262.484137 58.99489 
L 262.616727 58.91994 
L 262.898154 58.760856 
L 263.06908 58.664235 
L 263.244285 58.565196 
L 263.619202 58.353264 
L 263.767377 58.269503 
L 263.965241 58.157655 
L 264.296463 57.970423 
L 264.413078 57.904503 
L 264.723813 57.728851 
L 264.837988 57.664311 
L 265.075465 57.53007 
L 265.390006 57.352267 
L 265.459792 57.312819 
L 265.776256 57.133929 
L 265.875973 57.077561 
L 266.306109 56.834415 
L 266.454076 56.750772 
L 266.624019 56.654707 
L 266.98494 56.450687 
L 266.99347 56.445864 
L 267.304823 56.269864 
L 267.629711 56.086212 
L 267.726514 56.031491 
L 268.033721 55.857834 
L 268.212991 55.756496 
L 268.522112 55.581757 
L 268.573027 55.552976 
L 268.990874 55.316777 
L 269.098911 55.255705 
L 269.249127 55.170792 
L 269.479773 55.040413 
L 269.7669 54.878107 
L 270.07921 54.701564 
L 270.211876 54.626571 
L 270.494428 54.466851 
L 270.66618 54.369763 
L 270.835095 54.274279 
L 271.04122 54.157762 
L 271.392472 53.959206 
L 271.587741 53.848825 
L 271.850212 53.700456 
L 272.002502 53.61437 
L 272.250323 53.474282 
L 272.348971 53.418519 
L 272.753775 53.189692 
L 272.866592 53.125919 
L 273.088166 53.000668 
L 273.411271 52.818024 
L 273.673872 52.669582 
L 273.690026 52.66045 
L 274.094192 52.431985 
L 274.28431 52.324515 
L 274.42045 52.247558 
L 274.715733 52.080641 
L 274.940853 51.953386 
L 275.093058 51.867348 
L 275.372744 51.709247 
L 275.61889 51.570106 
L 275.841845 51.444075 
L 276.018815 51.344038 
L 276.310474 51.17917 
L 276.452562 51.09885 
L 276.717434 50.949124 
L 276.900054 50.845893 
L 277.099698 50.733039 
L 277.285559 50.627975 
L 277.686343 50.401421 
L 277.863907 50.301048 
L 278.126741 50.152474 
L 278.150204 50.139211 
L 278.534689 49.92187 
L 278.630655 49.867622 
L 278.999765 49.658973 
L 279.219704 49.534646 
L 279.397058 49.434392 
L 279.656327 49.287833 
L 279.866009 49.169305 
L 280.007363 49.0894 
L 280.203886 48.97831 
L 280.471955 48.826777 
L 280.736069 48.677479 
L 281.009721 48.52279 
L 281.176065 48.428759 
L 281.378342 48.314416 
" style="fill:none;stroke:#0066ff;stroke-linecap:square;stroke-width:2;"/>
   </g>
   <g id="line2d_20">
    <path clip-path="url(#p1e95df71d8)" d="M 340.568141 71.127151 
L 355.365591 62.762481 
L 355.365591 62.762481 
" style="fill:none;stroke:#0066ff;stroke-linecap:square;stroke-width:2;"/>
   </g>
   <g id="line2d_21">
    <path clip-path="url(#p1e95df71d8)" d="M 444.150289 68.845877 
L 503.340088 35.387199 
L 503.340088 35.387199 
" style="fill:none;stroke:#0066ff;stroke-linecap:square;stroke-width:2;"/>
   </g>
   <g id="line2d_22">
    <path clip-path="url(#p1e95df71d8)" d="M 15.024247 86.335641 
L 44.619147 41.470595 
L 44.619147 41.470595 
" style="fill:none;stroke:#cc00ff;stroke-linecap:square;stroke-width:2;"/>
   </g>
   <g id="line2d_23">
    <path clip-path="url(#p1e95df71d8)" d="M 355.365591 62.762481 
L 384.960491 17.897436 
L 384.960491 17.897436 
" style="fill:none;stroke:#cc00ff;stroke-linecap:square;stroke-width:2;"/>
   </g>
   <g id="matplotlib.axis_1">
    <g id="xtick_1">
     <g id="line2d_24">
      <path clip-path="url(#p1e95df71d8)" d="M 15.024247 87.704405 
L 15.024247 16.528672 
" style="fill:none;stroke:#000000;stroke-dasharray:0.5,0.825;stroke-dashoffset:0;stroke-width:0.5;"/>
     </g>
     <g id="line2d_25">
      <defs>
       <path d="M 0 0 
L 0 3.5 
" id="m653f023d8c" style="stroke:#000000;stroke-width:0.8;"/>
      </defs>
      <g>
       <use style="stroke:#000000;stroke-width:0.8;" x="15.024247" xlink:href="#m653f023d8c" y="86.335641"/>
      </g>
     </g>
    </g>
    <g id="xtick_2">
     <g id="line2d_26">
      <path clip-path="url(#p1e95df71d8)" d="M 384.960491 87.704405 
L 384.960491 16.528672 
" style="fill:none;stroke:#000000;stroke-dasharray:0.5,0.825;stroke-dashoffset:0;stroke-width:0.5;"/>
     </g>
     <g id="line2d_27">
      <g>
       <use style="stroke:#000000;stroke-width:0.8;" x="384.960491" xlink:href="#m653f023d8c" y="86.335641"/>
      </g>
     </g>
     <g id="text_1">
      <!-- $f$ -->
      <defs>
       <path d="M 9.71875 -16.5 
Q 11.578125 -17.921875 14.203125 -17.921875 
Q 17.78125 -17.921875 20.015625 -10.015625 
Q 20.953125 -6.203125 25.09375 15.09375 
L 29.6875 39.59375 
L 21.09375 39.59375 
Q 20.125 39.59375 20.125 40.921875 
Q 20.515625 43.109375 21.390625 43.109375 
L 30.328125 43.109375 
L 31.5 49.609375 
Q 32.078125 52.640625 32.5625 54.8125 
Q 33.0625 56.984375 33.625 58.828125 
Q 34.1875 60.6875 35.296875 62.984375 
Q 37.015625 66.265625 39.921875 68.390625 
Q 42.828125 70.515625 46.1875 70.515625 
Q 48.390625 70.515625 50.46875 69.703125 
Q 52.546875 68.890625 53.859375 67.28125 
Q 55.171875 65.671875 55.171875 63.484375 
Q 55.171875 60.9375 53.484375 59.046875 
Q 51.8125 57.171875 49.421875 57.171875 
Q 47.796875 57.171875 46.65625 58.171875 
Q 45.515625 59.1875 45.515625 60.796875 
Q 45.515625 62.984375 47 64.625 
Q 48.484375 66.265625 50.6875 66.5 
Q 48.828125 67.921875 46.09375 67.921875 
Q 44.578125 67.921875 43.234375 66.5 
Q 41.890625 65.09375 41.5 63.484375 
Q 40.875 60.9375 38.71875 49.703125 
L 37.5 43.109375 
L 47.796875 43.109375 
Q 48.78125 43.109375 48.78125 41.796875 
Q 48.734375 41.546875 48.578125 40.9375 
Q 48.4375 40.328125 48.171875 39.953125 
Q 47.90625 39.59375 47.515625 39.59375 
L 36.8125 39.59375 
L 32.171875 15.1875 
Q 31.296875 9.859375 30.140625 4.359375 
Q 29 -1.125 26.921875 -6.90625 
Q 24.859375 -12.703125 21.625 -16.609375 
Q 18.40625 -20.515625 14.015625 -20.515625 
Q 10.640625 -20.515625 7.984375 -18.578125 
Q 5.328125 -16.65625 5.328125 -13.484375 
Q 5.328125 -10.9375 6.953125 -9.046875 
Q 8.59375 -7.171875 11.078125 -7.171875 
Q 12.75 -7.171875 13.859375 -8.171875 
Q 14.984375 -9.1875 14.984375 -10.796875 
Q 14.984375 -12.9375 13.390625 -14.71875 
Q 11.8125 -16.5 9.71875 -16.5 
z
" id="Cmmi10-66"/>
      </defs>
      <g transform="translate(382.510491 100.913766)scale(0.1 -0.1)">
       <use transform="translate(0 0.484375)" xlink:href="#Cmmi10-66"/>
      </g>
     </g>
    </g>
    <g id="xtick_3">
     <g id="line2d_28">
      <path clip-path="url(#p1e95df71d8)" d="M 562.529887 87.704405 
L 562.529887 16.528672 
" style="fill:none;stroke:#000000;stroke-dasharray:0.5,0.825;stroke-dashoffset:0;stroke-width:0.5;"/>
     </g>
     <g id="line2d_29">
      <g>
       <use style="stroke:#000000;stroke-width:0.8;" x="562.529887" xlink:href="#m653f023d8c" y="86.335641"/>
      </g>
     </g>
     <g id="text_2">
      <!-- $1$ -->
      <defs>
       <path d="M 9.28125 0 
L 9.28125 3.515625 
Q 21.78125 3.515625 21.78125 6.6875 
L 21.78125 59.1875 
Q 16.609375 56.6875 8.6875 56.6875 
L 8.6875 60.203125 
Q 20.953125 60.203125 27.203125 66.609375 
L 28.609375 66.609375 
Q 28.953125 66.609375 29.265625 66.328125 
Q 29.59375 66.0625 29.59375 65.71875 
L 29.59375 6.6875 
Q 29.59375 3.515625 42.09375 3.515625 
L 42.09375 0 
z
" id="Cmr10-31"/>
      </defs>
      <g transform="translate(560.029887 100.934078)scale(0.1 -0.1)">
       <use transform="translate(0 0.390625)" xlink:href="#Cmr10-31"/>
      </g>
     </g>
    </g>
   </g>
   <g id="matplotlib.axis_2">
    <g id="ytick_1">
     <g id="line2d_30">
      <path clip-path="url(#p1e95df71d8)" d="M 4.074135 86.335641 
L 573.48 86.335641 
" style="fill:none;stroke:#000000;stroke-dasharray:0.5,0.825;stroke-dashoffset:0;stroke-width:0.5;"/>
     </g>
     <g id="line2d_31">
      <defs>
       <path d="M 0 0 
L -3.5 0 
" id="mc36d449705" style="stroke:#000000;stroke-width:0.8;"/>
      </defs>
      <g>
       <use style="stroke:#000000;stroke-width:0.8;" x="15.024247" xlink:href="#mc36d449705" y="86.335641"/>
      </g>
     </g>
    </g>
    <g id="ytick_2">
     <g id="line2d_32">
      <path clip-path="url(#p1e95df71d8)" d="M 4.074135 17.897436 
L 573.48 17.897436 
" style="fill:none;stroke:#000000;stroke-dasharray:0.5,0.825;stroke-dashoffset:0;stroke-width:0.5;"/>
     </g>
     <g id="line2d_33">
      <g>
       <use style="stroke:#000000;stroke-width:0.8;" x="15.024247" xlink:href="#mc36d449705" y="17.897436"/>
      </g>
     </g>
     <g id="text_3">
      <!-- $1$ -->
      <g transform="translate(3.024247 21.696655)scale(0.1 -0.1)">
       <use transform="translate(0 0.390625)" xlink:href="#Cmr10-31"/>
      </g>
     </g>
    </g>
   </g>
   <g id="patch_3">
    <path d="M 15.024247 87.704405 
L 15.024247 16.528672 
" style="fill:none;stroke:#000000;stroke-linecap:square;stroke-linejoin:miter;stroke-width:0.8;"/>
   </g>
   <g id="patch_4">
    <path d="M 4.074135 86.335641 
L 573.48 86.335641 
" style="fill:none;stroke:#000000;stroke-linecap:square;stroke-linejoin:miter;stroke-width:0.8;"/>
   </g>
  </g>
 </g>
 <defs>
  <clipPath id="p1e95df71d8">
   <rect height="71.175733" width="569.405865" x="4.074135" y="16.528672"/>
  </clipPath>
 </defs>
</svg>
