<?xml version="1.0" encoding="utf-8" standalone="no"?>
<!DOCTYPE svg PUBLIC "-//W3C//DTD SVG 1.1//EN"
  "http://www.w3.org/Graphics/SVG/1.1/DTD/svg11.dtd">
<!-- Created with matplotlib (http://matplotlib.org/) -->
<svg height="108pt" version="1.1" viewBox="0 0 576 108" width="576pt" xmlns="http://www.w3.org/2000/svg" xmlns:xlink="http://www.w3.org/1999/xlink">
 <defs>
  <style type="text/css">
*{stroke-linecap:butt;stroke-linejoin:round;}
  </style>
 </defs>
 <g id="figure_1">
  <g id="patch_1">
   <path d="M 0 108 
L 576 108 
L 576 0 
L 0 0 
z
" style="fill:#ffffff;"/>
  </g>
  <g id="axes_1">
   <g id="patch_2">
    <path d="M 4.074135 87.704405 
L 573.48 87.704405 
L 573.48 16.528672 
L 4.074135 16.528672 
z
" style="fill:#ffffff;"/>
   </g>
   <g id="line2d_1">
    <path clip-path="url(#pa6b2b245d0)" d="M 15.024247 86.335641 
L 15.154748 86.086445 
L 15.234981 85.933237 
L 15.348375 85.716706 
L 15.465549 85.492958 
L 15.523335 85.382613 
L 15.601654 85.233061 
L 15.719143 85.00871 
L 15.85047 84.757936 
L 15.903915 84.655882 
L 16.015015 84.443732 
L 16.18973 84.110106 
L 16.199709 84.091051 
L 16.324285 83.853169 
L 16.472637 83.569884 
L 16.593228 83.339611 
L 16.667671 83.197458 
L 16.750916 83.0385 
L 16.831823 82.884004 
L 16.934925 82.687127 
L 17.031538 82.502641 
L 17.116188 82.340998 
L 17.282383 82.023641 
L 17.413798 81.7727 
L 17.518986 81.57184 
L 17.571427 81.471702 
L 17.681164 81.262153 
L 17.748167 81.134209 
L 17.904706 80.835292 
L 17.962727 80.724497 
L 18.049629 80.558556 
L 18.135624 80.394345 
L 18.30496 80.070992 
L 18.426973 79.838002 
L 18.473655 79.748862 
L 18.584752 79.536717 
L 18.701721 79.313359 
L 18.815242 79.096587 
L 18.945992 78.846916 
L 18.958053 78.823883 
L 19.070568 78.609033 
L 19.247373 78.271416 
L 19.296763 78.177103 
L 19.422571 77.936868 
L 19.542779 77.707326 
" style="fill:none;stroke:#ff0000;stroke-linecap:square;stroke-width:2;"/>
   </g>
   <g id="line2d_2">
    <path clip-path="url(#pa6b2b245d0)" d="M 19.851261 77.118267 
L 35.302234 47.614025 
L 35.302234 47.614025 
" style="fill:none;stroke:#ff0000;stroke-linecap:square;stroke-width:2;"/>
   </g>
   <g id="line2d_3">
    <path clip-path="url(#pa6b2b245d0)" d="M 136.692167 56.619052 
L 156.970154 17.897436 
L 156.970154 17.897436 
" style="fill:none;stroke:#ff0000;stroke-linecap:square;stroke-width:2;"/>
   </g>
   <g id="line2d_4">
    <path clip-path="url(#pa6b2b245d0)" d="M 35.302234 47.614025 
L 55.580221 33.205982 
L 55.580221 33.205982 
" style="fill:none;stroke:#ffff00;stroke-linecap:square;stroke-width:2;"/>
   </g>
   <g id="line2d_5">
    <path clip-path="url(#pa6b2b245d0)" d="M 116.414181 71.027095 
L 136.692167 56.619052 
L 136.692167 56.619052 
" style="fill:none;stroke:#ffff00;stroke-linecap:square;stroke-width:2;"/>
   </g>
   <g id="line2d_6">
    <path clip-path="url(#pa6b2b245d0)" d="M 217.804114 55.718549 
L 238.082101 41.310506 
L 238.082101 41.310506 
" style="fill:none;stroke:#ffff00;stroke-linecap:square;stroke-width:2;"/>
   </g>
   <g id="line2d_7">
    <path clip-path="url(#pa6b2b245d0)" d="M 481.417941 62.922571 
L 501.695927 48.514528 
L 501.695927 48.514528 
" style="fill:none;stroke:#ffff00;stroke-linecap:square;stroke-width:2;"/>
   </g>
   <g id="line2d_8">
    <path clip-path="url(#pa6b2b245d0)" d="M 75.858207 35.006987 
L 96.136194 69.22609 
L 96.136194 69.22609 
" style="fill:none;stroke:#00ff00;stroke-linecap:square;stroke-width:2;"/>
   </g>
   <g id="line2d_9">
    <path clip-path="url(#pa6b2b245d0)" d="M 156.970154 17.897436 
L 177.248141 52.116538 
L 177.248141 52.116538 
" style="fill:none;stroke:#00ff00;stroke-linecap:square;stroke-width:2;"/>
   </g>
   <g id="line2d_10">
    <path clip-path="url(#pa6b2b245d0)" d="M 542.251901 52.116538 
L 562.529887 86.335641 
L 562.529887 86.335641 
" style="fill:none;stroke:#00ff00;stroke-linecap:square;stroke-width:2;"/>
   </g>
   <g id="line2d_11">
    <path clip-path="url(#pa6b2b245d0)" d="M 258.360087 35.006987 
L 278.638074 53.017041 
L 278.638074 53.017041 
" style="fill:none;stroke:#00ffff;stroke-linecap:square;stroke-width:2;"/>
   </g>
   <g id="line2d_12">
    <path clip-path="url(#pa6b2b245d0)" d="M 339.472034 34.106485 
L 339.668379 34.28087 
L 339.907884 34.493588 
L 340.145816 34.704909 
L 340.324299 34.863431 
L 340.434079 34.960933 
L 340.704419 35.201037 
L 340.963585 35.431218 
L 341.07263 35.528066 
L 341.381849 35.802702 
L 341.498482 35.906291 
L 341.79253 36.167452 
L 341.918587 36.27941 
L 342.192149 36.522377 
L 342.420889 36.725533 
L 342.599073 36.883789 
L 342.775046 37.040081 
L 342.962148 37.206257 
L 343.056365 37.289936 
L 343.438908 37.629695 
L 343.469589 37.656944 
L 343.83716 37.983406 
L 344.010879 38.137695 
L 344.152292 38.263292 
L 344.420799 38.501769 
L 344.538054 38.605911 
L 344.690744 38.741523 
L 344.920954 38.945986 
L 345.151163 39.150448 
L 345.458255 39.423194 
L 345.50329 39.463192 
L 345.742056 39.675254 
L 345.920787 39.833996 
L 346.137401 40.026383 
L 346.461718 40.314427 
L 346.634597 40.467972 
L 346.818622 40.631415 
L 347.086684 40.869496 
L 347.304764 41.063186 
L 347.467262 41.207509 
L 347.698957 41.413291 
L 347.924859 41.613928 
L 348.102263 41.771491 
L 348.186841 41.846609 
L 348.442564 42.073732 
L 348.692361 42.295591 
L 348.755409 42.351587 
L 348.980481 42.551487 
L 349.277902 42.815644 
L 349.525025 43.035128 
L 349.729525 43.216756 
L 349.951831 43.414199 
L 350.138848 43.5803 
L 350.342318 43.761014 
L 350.399364 43.811679 
L 350.65203 44.036087 
L 350.875593 44.234646 
L 351.099832 44.433805 
L 351.359776 44.664676 
L 351.454392 44.748711 
L 351.771248 45.030129 
L 351.870372 45.118167 
L 352.131532 45.350118 
L 352.405025 45.593023 
L 352.537354 45.710552 
L 352.802041 45.945636 
L 352.833102 45.973223 
L 353.093613 46.204597 
L 353.422087 46.496334 
L 353.503272 46.568439 
L 353.829594 46.858265 
L 353.948032 46.963457 
L 354.206098 47.19266 
L 354.286996 47.26451 
L 354.611229 47.55248 
L 354.785702 47.70744 
L 354.888935 47.799127 
L 355.127706 48.011193 
L 355.388797 48.243084 
L 355.562645 48.397488 
L 355.776486 48.587412 
L 356.040354 48.821769 
L 356.238735 48.997963 
L 356.483216 49.215101 
L 356.52194 49.249493 
L 356.811759 49.506898 
L 356.968291 49.645923 
L 357.172108 49.826945 
L 357.33528 49.971868 
L 357.708568 50.303406 
L 357.726667 50.319481 
L 357.920905 50.491995 
L 358.187176 50.728485 
L 358.467071 50.977077 
L 358.565815 51.064777 
L 358.854878 51.32151 
L 359.026251 51.473717 
L 359.230322 51.654964 
L 359.508046 51.901627 
" style="fill:none;stroke:#00ffff;stroke-linecap:square;stroke-width:2;"/>
   </g>
   <g id="line2d_13">
    <path clip-path="url(#pa6b2b245d0)" d="M 359.973385 52.314921 
L 360.177856 52.496523 
L 360.544045 52.821757 
L 360.679281 52.941869 
L 360.829903 53.075645 
L 361.168921 53.376746 
L 361.365362 53.551216 
L 361.488897 53.660935 
L 361.589648 53.750418 
L 361.804643 53.941367 
L 362.043113 54.153167 
L 362.382179 54.454311 
L 362.563665 54.615499 
L 362.725985 54.759665 
L 362.982012 54.987057 
L 363.085071 55.07859 
L 363.270113 55.242937 
L 363.503732 55.450427 
L 363.805694 55.718617 
L 363.914411 55.815175 
L 364.037705 55.924679 
L 364.386423 56.234396 
L 364.522054 56.354857 
L 364.647579 56.466343 
L 364.986993 56.767796 
L 365.183168 56.942032 
L 365.349369 57.089644 
L 365.56734 57.283237 
L 365.791897 57.482679 
L 365.871177 57.553092 
L 366.220765 57.863581 
L 366.421959 58.042273 
L 366.565341 58.169619 
L 366.846235 58.419097 
L 366.885047 58.453569 
L 367.20213 58.735188 
L 367.394744 58.90626 
L 367.59746 59.086304 
L 367.883169 59.340059 
L 368.004681 59.44798 
L 368.155087 59.581564 
L 368.401334 59.80027 
L 368.707817 60.072476 
L 368.847565 60.196594 
L 369.027591 60.356486 
L 369.221395 60.528614 
L 369.457666 60.73846 
L 369.690639 60.945378 
L 369.937177 61.164341 
L 369.986824 61.208436 
L 370.161211 61.363319 
L 370.413002 61.58695 
L 370.751496 61.887585 
L 370.940166 62.055155 
L 371.071649 62.171932 
L 371.20514 62.290493 
L 371.494741 62.547705 
L 371.752447 62.776588 
L 371.86898 62.880087 
L 372.171698 63.14895 
L 372.215767 63.18809 
L 372.552543 63.487199 
L 372.78656 63.695044 
L 372.89222 63.788887 
L 373.056663 63.934938 
L 373.29262 64.144505 
L 373.585843 64.404934 
L 373.802474 64.597336 
L 373.865796 64.653576 
L 374.21824 64.966602 
L 374.347626 65.081517 
L 374.545097 65.256903 
L 374.635446 65.337146 
L 374.866144 65.542043 
L 375.042356 65.698547 
L 375.286495 65.915381 
L 375.44275 66.05416 
L 375.830249 66.39832 
L 375.962515 66.515793 
L 376.167599 66.69794 
L 376.455788 66.953898 
L 376.495662 66.989312 
L 376.70483 67.175086 
L 376.998011 67.435478 
L 377.266578 67.674007 
L 377.331311 67.7315 
L 377.613293 67.981944 
L 377.814551 68.160693 
L 378.002831 68.327916 
L 378.21918 68.520068 
L 378.450761 68.725749 
L 378.504725 68.773677 
L 378.784774 69.022405 
L 378.986581 69.201641 
L 379.295041 69.475603 
L 379.328221 69.505072 
L 379.681481 69.818822 
L 379.806597 69.929945 
L 380.028007 70.126592 
" style="fill:none;stroke:#00ffff;stroke-linecap:square;stroke-width:2;"/>
   </g>
   <g id="line2d_14">
    <path clip-path="url(#pa6b2b245d0)" d="M 440.861967 51.216036 
L 461.139954 69.22609 
L 461.139954 69.22609 
" style="fill:none;stroke:#00ffff;stroke-linecap:square;stroke-width:2;"/>
   </g>
   <g id="line2d_15">
    <path clip-path="url(#pa6b2b245d0)" d="M 238.082101 41.310506 
L 258.360087 35.006987 
L 258.360087 35.006987 
" style="fill:none;stroke:#0000ff;stroke-linecap:square;stroke-width:2;"/>
   </g>
   <g id="line2d_16">
    <path clip-path="url(#pa6b2b245d0)" d="M 278.638074 53.017041 
L 339.472034 34.106485 
L 339.472034 34.106485 
" style="fill:none;stroke:#0000ff;stroke-linecap:square;stroke-width:2;"/>
   </g>
   <g id="line2d_17">
    <path clip-path="url(#pa6b2b245d0)" d="M 380.028007 70.126592 
L 440.861967 51.216036 
L 440.861967 51.216036 
" style="fill:none;stroke:#0000ff;stroke-linecap:square;stroke-width:2;"/>
   </g>
   <g id="line2d_18">
    <path clip-path="url(#pa6b2b245d0)" d="M 461.139954 69.22609 
L 481.417941 62.922571 
L 481.417941 62.922571 
" style="fill:none;stroke:#0000ff;stroke-linecap:square;stroke-width:2;"/>
   </g>
   <g id="line2d_19">
    <path clip-path="url(#pa6b2b245d0)" d="M 55.580221 33.205982 
L 75.858207 35.006987 
L 75.858207 35.006987 
" style="fill:none;stroke:#ff00ff;stroke-linecap:square;stroke-width:2;"/>
   </g>
   <g id="line2d_20">
    <path clip-path="url(#pa6b2b245d0)" d="M 96.136194 69.22609 
L 116.414181 71.027095 
L 116.414181 71.027095 
" style="fill:none;stroke:#ff00ff;stroke-linecap:square;stroke-width:2;"/>
   </g>
   <g id="line2d_21">
    <path clip-path="url(#pa6b2b245d0)" d="M 177.248141 52.116538 
L 217.804114 55.718549 
L 217.804114 55.718549 
" style="fill:none;stroke:#ff00ff;stroke-linecap:square;stroke-width:2;"/>
   </g>
   <g id="line2d_22">
    <path clip-path="url(#pa6b2b245d0)" d="M 501.695927 48.514528 
L 542.251901 52.116538 
L 542.251901 52.116538 
" style="fill:none;stroke:#ff00ff;stroke-linecap:square;stroke-width:2;"/>
   </g>
   <g id="matplotlib.axis_1">
    <g id="xtick_1">
     <g id="line2d_23">
      <path clip-path="url(#pa6b2b245d0)" d="M 15.024247 87.704405 
L 15.024247 16.528672 
" style="fill:none;stroke:#000000;stroke-dasharray:0.5,0.825;stroke-dashoffset:0;stroke-width:0.5;"/>
     </g>
     <g id="line2d_24">
      <defs>
       <path d="M 0 0 
L 0 3.5 
" id="me0c3b64369" style="stroke:#000000;stroke-width:0.8;"/>
      </defs>
      <g>
       <use style="stroke:#000000;stroke-width:0.8;" x="15.024247" xlink:href="#me0c3b64369" y="86.335641"/>
      </g>
     </g>
    </g>
    <g id="xtick_2">
     <g id="line2d_25">
      <path clip-path="url(#pa6b2b245d0)" d="M 156.970154 87.704405 
L 156.970154 16.528672 
" style="fill:none;stroke:#000000;stroke-dasharray:0.5,0.825;stroke-dashoffset:0;stroke-width:0.5;"/>
     </g>
     <g id="line2d_26">
      <g>
       <use style="stroke:#000000;stroke-width:0.8;" x="156.970154" xlink:href="#me0c3b64369" y="86.335641"/>
      </g>
     </g>
     <g id="text_1">
      <!-- $f$ -->
      <defs>
       <path d="M 9.71875 -16.5 
Q 11.578125 -17.921875 14.203125 -17.921875 
Q 17.78125 -17.921875 20.015625 -10.015625 
Q 20.953125 -6.203125 25.09375 15.09375 
L 29.6875 39.59375 
L 21.09375 39.59375 
Q 20.125 39.59375 20.125 40.921875 
Q 20.515625 43.109375 21.390625 43.109375 
L 30.328125 43.109375 
L 31.5 49.609375 
Q 32.078125 52.640625 32.5625 54.8125 
Q 33.0625 56.984375 33.625 58.828125 
Q 34.1875 60.6875 35.296875 62.984375 
Q 37.015625 66.265625 39.921875 68.390625 
Q 42.828125 70.515625 46.1875 70.515625 
Q 48.390625 70.515625 50.46875 69.703125 
Q 52.546875 68.890625 53.859375 67.28125 
Q 55.171875 65.671875 55.171875 63.484375 
Q 55.171875 60.9375 53.484375 59.046875 
Q 51.8125 57.171875 49.421875 57.171875 
Q 47.796875 57.171875 46.65625 58.171875 
Q 45.515625 59.1875 45.515625 60.796875 
Q 45.515625 62.984375 47 64.625 
Q 48.484375 66.265625 50.6875 66.5 
Q 48.828125 67.921875 46.09375 67.921875 
Q 44.578125 67.921875 43.234375 66.5 
Q 41.890625 65.09375 41.5 63.484375 
Q 40.875 60.9375 38.71875 49.703125 
L 37.5 43.109375 
L 47.796875 43.109375 
Q 48.78125 43.109375 48.78125 41.796875 
Q 48.734375 41.546875 48.578125 40.9375 
Q 48.4375 40.328125 48.171875 39.953125 
Q 47.90625 39.59375 47.515625 39.59375 
L 36.8125 39.59375 
L 32.171875 15.1875 
Q 31.296875 9.859375 30.140625 4.359375 
Q 29 -1.125 26.921875 -6.90625 
Q 24.859375 -12.703125 21.625 -16.609375 
Q 18.40625 -20.515625 14.015625 -20.515625 
Q 10.640625 -20.515625 7.984375 -18.578125 
Q 5.328125 -16.65625 5.328125 -13.484375 
Q 5.328125 -10.9375 6.953125 -9.046875 
Q 8.59375 -7.171875 11.078125 -7.171875 
Q 12.75 -7.171875 13.859375 -8.171875 
Q 14.984375 -9.1875 14.984375 -10.796875 
Q 14.984375 -12.9375 13.390625 -14.71875 
Q 11.8125 -16.5 9.71875 -16.5 
z
" id="Cmmi10-66"/>
      </defs>
      <g transform="translate(154.520154 100.913766)scale(0.1 -0.1)">
       <use transform="translate(0 0.484375)" xlink:href="#Cmmi10-66"/>
      </g>
     </g>
    </g>
    <g id="xtick_3">
     <g id="line2d_27">
      <path clip-path="url(#pa6b2b245d0)" d="M 562.529887 87.704405 
L 562.529887 16.528672 
" style="fill:none;stroke:#000000;stroke-dasharray:0.5,0.825;stroke-dashoffset:0;stroke-width:0.5;"/>
     </g>
     <g id="line2d_28">
      <g>
       <use style="stroke:#000000;stroke-width:0.8;" x="562.529887" xlink:href="#me0c3b64369" y="86.335641"/>
      </g>
     </g>
     <g id="text_2">
      <!-- $1$ -->
      <defs>
       <path d="M 9.28125 0 
L 9.28125 3.515625 
Q 21.78125 3.515625 21.78125 6.6875 
L 21.78125 59.1875 
Q 16.609375 56.6875 8.6875 56.6875 
L 8.6875 60.203125 
Q 20.953125 60.203125 27.203125 66.609375 
L 28.609375 66.609375 
Q 28.953125 66.609375 29.265625 66.328125 
Q 29.59375 66.0625 29.59375 65.71875 
L 29.59375 6.6875 
Q 29.59375 3.515625 42.09375 3.515625 
L 42.09375 0 
z
" id="Cmr10-31"/>
      </defs>
      <g transform="translate(560.029887 100.934078)scale(0.1 -0.1)">
       <use transform="translate(0 0.390625)" xlink:href="#Cmr10-31"/>
      </g>
     </g>
    </g>
   </g>
   <g id="matplotlib.axis_2">
    <g id="ytick_1">
     <g id="line2d_29">
      <path clip-path="url(#pa6b2b245d0)" d="M 4.074135 86.335641 
L 573.48 86.335641 
" style="fill:none;stroke:#000000;stroke-dasharray:0.5,0.825;stroke-dashoffset:0;stroke-width:0.5;"/>
     </g>
     <g id="line2d_30">
      <defs>
       <path d="M 0 0 
L -3.5 0 
" id="m2d60a2a596" style="stroke:#000000;stroke-width:0.8;"/>
      </defs>
      <g>
       <use style="stroke:#000000;stroke-width:0.8;" x="15.024247" xlink:href="#m2d60a2a596" y="86.335641"/>
      </g>
     </g>
    </g>
    <g id="ytick_2">
     <g id="line2d_31">
      <path clip-path="url(#pa6b2b245d0)" d="M 4.074135 17.897436 
L 573.48 17.897436 
" style="fill:none;stroke:#000000;stroke-dasharray:0.5,0.825;stroke-dashoffset:0;stroke-width:0.5;"/>
     </g>
     <g id="line2d_32">
      <g>
       <use style="stroke:#000000;stroke-width:0.8;" x="15.024247" xlink:href="#m2d60a2a596" y="17.897436"/>
      </g>
     </g>
     <g id="text_3">
      <!-- $1$ -->
      <g transform="translate(3.024247 21.696655)scale(0.1 -0.1)">
       <use transform="translate(0 0.390625)" xlink:href="#Cmr10-31"/>
      </g>
     </g>
    </g>
   </g>
   <g id="patch_3">
    <path d="M 15.024247 87.704405 
L 15.024247 16.528672 
" style="fill:none;stroke:#000000;stroke-linecap:square;stroke-linejoin:miter;stroke-width:0.8;"/>
   </g>
   <g id="patch_4">
    <path d="M 4.074135 86.335641 
L 573.48 86.335641 
" style="fill:none;stroke:#000000;stroke-linecap:square;stroke-linejoin:miter;stroke-width:0.8;"/>
   </g>
  </g>
 </g>
 <defs>
  <clipPath id="pa6b2b245d0">
   <rect height="71.175733" width="569.405865" x="4.074135" y="16.528672"/>
  </clipPath>
 </defs>
</svg>
