<?xml version="1.0" encoding="utf-8" standalone="no"?>
<!DOCTYPE svg PUBLIC "-//W3C//DTD SVG 1.1//EN"
  "http://www.w3.org/Graphics/SVG/1.1/DTD/svg11.dtd">
<!-- Created with matplotlib (http://matplotlib.org/) -->
<svg height="108pt" version="1.1" viewBox="0 0 576 108" width="576pt" xmlns="http://www.w3.org/2000/svg" xmlns:xlink="http://www.w3.org/1999/xlink">
 <defs>
  <style type="text/css">
*{stroke-linecap:butt;stroke-linejoin:round;}
  </style>
 </defs>
 <g id="figure_1">
  <g id="patch_1">
   <path d="M 0 108 
L 576 108 
L 576 0 
L 0 0 
z
" style="fill:#ffffff;"/>
  </g>
  <g id="axes_1">
   <g id="patch_2">
    <path d="M 2.52 87.801538 
L 573.48 87.801538 
L 573.48 16.431538 
L 2.52 16.431538 
z
" style="fill:#ffffff;"/>
   </g>
   <g id="line2d_1">
    <path clip-path="url(#p1447b736f7)" d="M 74.5 48.304038 
L 111.1 71.179038 
L 111.1 71.179038 
" style="fill:none;stroke:#ff0000;stroke-linecap:square;stroke-width:2;"/>
   </g>
   <g id="line2d_2">
    <path clip-path="url(#p1447b736f7)" d="M 355.1 33.054038 
L 391.7 55.929038 
L 391.7 55.929038 
" style="fill:none;stroke:#ff0000;stroke-linecap:square;stroke-width:2;"/>
   </g>
   <g id="line2d_3">
    <path clip-path="url(#p1447b736f7)" d="M 452.7 17.804038 
L 453.321825 18.192679 
L 454.031184 18.636029 
L 454.162388 18.718031 
L 454.943011 19.205921 
L 455.328223 19.446678 
L 455.758494 19.715597 
L 456.660538 20.279375 
L 457.302908 20.680856 
L 457.671626 20.911305 
L 458.049809 21.147669 
L 458.527153 21.446009 
L 459.439894 22.016472 
L 459.610886 22.123343 
L 460.615797 22.751412 
L 460.780111 22.854108 
L 461.632063 23.386578 
L 462.162122 23.717865 
L 462.895211 24.176045 
L 463.430641 24.510689 
L 463.543839 24.581438 
L 464.133071 24.949708 
L 465.026305 25.507979 
L 465.136271 25.576708 
L 465.879069 26.040957 
L 466.527697 26.446349 
L 466.914953 26.688384 
L 467.722498 27.193099 
L 468.316911 27.564608 
L 468.534796 27.700786 
L 469.2131 28.124726 
L 469.605672 28.370084 
L 470.284824 28.794553 
L 471.046617 29.270674 
L 471.576988 29.602156 
L 471.934013 29.825296 
L 472.592792 30.237034 
L 473.099684 30.553841 
L 473.865872 31.032708 
L 474.313805 31.312667 
L 474.810455 31.623073 
L 475.409709 31.997607 
L 475.654413 32.150547 
L 476.504464 32.681829 
L 476.728979 32.82215 
L 477.617251 33.377321 
L 478.114092 33.687846 
L 478.860676 34.154461 
L 478.91776 34.190139 
L 479.467396 34.533661 
L 480.07349 34.91247 
L 481.060708 35.529481 
L 481.605249 35.869819 
L 481.999854 36.116447 
L 482.364941 36.344627 
L 483.258773 36.903272 
L 483.485 37.044663 
L 484.293055 37.549698 
L 484.836529 37.889369 
L 484.978945 37.978379 
L 485.659618 38.4038 
L 486.163875 38.718961 
L 486.917956 39.190261 
L 487.199501 39.366226 
L 487.923559 39.818763 
L 488.685333 40.294872 
L 489.230803 40.63579 
L 489.894757 41.050761 
L 490.490793 41.423284 
L 490.575824 41.476429 
L 491.126737 41.820749 
L 491.803976 42.244024 
L 492.453691 42.650095 
L 493.028553 43.009384 
L 493.316822 43.189552 
L 493.902628 43.555681 
L 494.522145 43.942879 
L 494.962198 44.217912 
L 495.481589 44.542531 
L 496.422684 45.130716 
L 496.676239 45.289188 
L 497.229321 45.634864 
L 498.066325 46.157992 
L 498.542565 46.455641 
L 499.218184 46.877903 
L 499.402761 46.993264 
L 500.181824 47.480179 
L 500.582731 47.730745 
L 501.456546 48.27688 
L 501.877667 48.540081 
L 502.353828 48.837681 
L 502.644994 49.01966 
L 503.656086 49.651592 
L 504.142107 49.955355 
L 504.366819 50.095801 
L 504.984353 50.481759 
L 505.721542 50.942502 
L 506.389949 51.360257 
L 506.900378 51.679275 
L 507.583845 52.106442 
L 508.126802 52.44579 
L 508.642982 52.768402 
L 508.731554 52.82376 
" style="fill:none;stroke:#ff0000;stroke-linecap:square;stroke-width:2;"/>
   </g>
   <g id="line2d_4">
    <path clip-path="url(#p1447b736f7)" d="M 510.710302 54.060477 
L 510.922542 54.193127 
L 511.635564 54.638766 
L 512.121796 54.942661 
L 512.7574 55.339913 
L 513.347184 55.708528 
L 514.139349 56.203632 
L 514.31831 56.315482 
L 515.272084 56.911591 
L 515.78558 57.232526 
L 515.921195 57.317285 
L 516.722031 57.817808 
L 517.0344 58.013038 
L 517.670321 58.410489 
L 518.627352 59.008633 
L 519.050809 59.273294 
L 519.203234 59.36856 
L 520.271981 60.036526 
L 520.377386 60.102405 
L 520.911386 60.436154 
L 521.667711 60.908858 
L 522.483484 61.418716 
L 522.785609 61.607544 
L 523.576462 62.101827 
L 523.74007 62.204082 
L 524.178843 62.478315 
L 524.964019 62.96905 
L 525.366176 63.220398 
L 526.000234 63.616685 
L 526.791794 64.11141 
L 527.44995 64.522757 
L 527.938194 64.82791 
L 528.338298 65.077974 
L 528.648396 65.271786 
L 529.252174 65.649147 
L 529.982391 66.105533 
L 530.302961 66.305889 
L 531.189111 66.859733 
L 531.723183 67.193528 
L 532.425395 67.63241 
L 532.806086 67.870342 
L 533.284507 68.169356 
L 533.965028 68.594681 
L 534.504129 68.931619 
L 535.115666 69.313829 
L 535.538091 69.577845 
L 535.952435 69.83681 
L 536.606758 70.245762 
L 536.884386 70.419279 
L 537.890414 71.048047 
L 538.210576 71.248148 
L 538.968637 71.721937 
L 539.51399 72.062782 
L 539.623133 72.130997 
L 540.313 72.562163 
L 541.137698 73.0776 
L 541.603994 73.369035 
L 541.89893 73.55337 
L 542.778991 74.103408 
L 543.430821 74.510802 
L 543.599289 74.616094 
L 544.398466 75.11558 
L 544.836338 75.389249 
L 545.527882 75.821465 
L 546.111556 76.186261 
L 546.260165 76.279141 
L 547.296775 76.927023 
L 547.443615 77.018798 
L 547.983262 77.356077 
L 548.863611 77.906295 
L 548.993173 77.987271 
L 549.551093 78.335971 
L 550.123867 78.693955 
L 550.770618 79.098174 
L 551.525126 79.569742 
L 551.75903 79.715932 
L 552.645966 80.270267 
L 553.074133 80.537871 
L 553.778001 80.977789 
L 554.349058 81.334699 
L 554.792785 81.612029 
L 555.35127 81.961082 
L 556.121939 82.44275 
L 556.283867 82.543955 
L 556.939879 82.953963 
L 557.33697 83.202145 
L 557.910972 83.560896 
L 558.541796 83.955161 
L 559.203762 84.36889 
L 559.494966 84.550892 
L 560.025198 84.882287 
L 561.027922 85.50899 
L 561.408782 85.747027 
L 561.77258 85.974401 
L 562.5 86.429038 
" style="fill:none;stroke:#ff0000;stroke-linecap:square;stroke-width:2;"/>
   </g>
   <g id="line2d_5">
    <path clip-path="url(#p1447b736f7)" d="M 111.1 71.179038 
L 355.1 33.054038 
L 355.1 33.054038 
" style="fill:none;stroke:#00ff00;stroke-linecap:square;stroke-width:2;"/>
   </g>
   <g id="line2d_6">
    <path clip-path="url(#p1447b736f7)" d="M 13.5 86.429038 
L 74.5 48.304038 
L 74.5 48.304038 
" style="fill:none;stroke:#0000ff;stroke-linecap:square;stroke-width:2;"/>
   </g>
   <g id="line2d_7">
    <path clip-path="url(#p1447b736f7)" d="M 391.7 55.929038 
L 452.7 17.804038 
L 452.7 17.804038 
" style="fill:none;stroke:#0000ff;stroke-linecap:square;stroke-width:2;"/>
   </g>
   <g id="matplotlib.axis_1">
    <g id="xtick_1">
     <g id="line2d_8">
      <path clip-path="url(#p1447b736f7)" d="M 13.5 87.801538 
L 13.5 16.431538 
" style="fill:none;stroke:#000000;stroke-dasharray:0.5,0.825;stroke-dashoffset:0;stroke-width:0.5;"/>
     </g>
     <g id="line2d_9">
      <defs>
       <path d="M 0 0 
L 0 3.5 
" id="mf15d182631" style="stroke:#000000;stroke-width:0.8;"/>
      </defs>
      <g>
       <use style="stroke:#000000;stroke-width:0.8;" x="13.5" xlink:href="#mf15d182631" y="86.429038"/>
      </g>
     </g>
    </g>
    <g id="xtick_2">
     <g id="line2d_10">
      <path clip-path="url(#p1447b736f7)" d="M 74.5 87.801538 
L 74.5 16.431538 
" style="fill:none;stroke:#000000;stroke-dasharray:0.5,0.825;stroke-dashoffset:0;stroke-width:0.5;"/>
     </g>
     <g id="line2d_11">
      <g>
       <use style="stroke:#000000;stroke-width:0.8;" x="74.5" xlink:href="#mf15d182631" y="86.429038"/>
      </g>
     </g>
     <g id="text_1">
      <!-- $a'$ -->
      <defs>
       <path d="M 17.390625 -1.125 
Q 11.078125 -1.125 7.4375 3.640625 
Q 3.8125 8.40625 3.8125 14.890625 
Q 3.8125 21.296875 7.125 28.171875 
Q 10.453125 35.0625 16.09375 39.625 
Q 21.734375 44.1875 28.21875 44.1875 
Q 31.203125 44.1875 33.546875 42.578125 
Q 35.890625 40.96875 37.203125 38.1875 
Q 38.328125 42.1875 41.609375 42.1875 
Q 42.875 42.1875 43.71875 41.421875 
Q 44.578125 40.671875 44.578125 39.40625 
Q 44.578125 39.109375 44.546875 38.953125 
Q 44.53125 38.8125 44.484375 38.625 
L 37.5 10.6875 
Q 36.8125 7.71875 36.8125 5.8125 
Q 36.8125 1.515625 39.703125 1.515625 
Q 42.828125 1.515625 44.453125 5.484375 
Q 46.09375 9.46875 47.21875 14.703125 
Q 47.40625 15.28125 48 15.28125 
L 49.21875 15.28125 
Q 49.609375 15.28125 49.84375 14.9375 
Q 50.09375 14.59375 50.09375 14.3125 
Q 48.34375 7.328125 46.265625 3.09375 
Q 44.1875 -1.125 39.5 -1.125 
Q 36.140625 -1.125 33.546875 0.84375 
Q 30.953125 2.828125 30.328125 6.109375 
Q 23.875 -1.125 17.390625 -1.125 
z
M 17.484375 1.515625 
Q 21.09375 1.515625 24.484375 4.21875 
Q 27.875 6.9375 30.328125 10.59375 
Q 30.421875 10.6875 30.421875 10.890625 
L 35.796875 32.625 
L 35.890625 32.90625 
Q 35.296875 36.46875 33.3125 39.03125 
Q 31.34375 41.609375 27.984375 41.609375 
Q 24.609375 41.609375 21.703125 38.84375 
Q 18.796875 36.078125 16.796875 32.328125 
Q 14.84375 28.328125 13.0625 21.34375 
Q 11.28125 14.359375 11.28125 10.5 
Q 11.28125 7.03125 12.765625 4.265625 
Q 14.265625 1.515625 17.484375 1.515625 
z
" id="Cmmi10-61"/>
       <path d="M 3.515625 5.421875 
Q 2.875 5.609375 2.875 6.390625 
L 15.09375 51.8125 
Q 15.671875 53.65625 17.078125 54.78125 
Q 18.5 55.90625 20.3125 55.90625 
Q 22.65625 55.90625 24.4375 54.359375 
Q 26.21875 52.828125 26.21875 50.484375 
Q 26.21875 49.46875 25.6875 48.1875 
L 7.625 4.984375 
Q 7.28125 4.296875 6.6875 4.296875 
Q 6.15625 4.296875 5 4.78125 
Q 3.859375 5.28125 3.515625 5.421875 
z
" id="Cmsy10-30"/>
      </defs>
      <g transform="translate(70.25 101.027476)scale(0.1 -0.1)">
       <use transform="translate(0 0.601562)" xlink:href="#Cmmi10-61"/>
       <use transform="translate(59.086484 38.865625)scale(0.7)" xlink:href="#Cmsy10-30"/>
      </g>
     </g>
    </g>
    <g id="xtick_3">
     <g id="line2d_12">
      <path clip-path="url(#p1447b736f7)" d="M 111.1 87.801538 
L 111.1 16.431538 
" style="fill:none;stroke:#000000;stroke-dasharray:0.5,0.825;stroke-dashoffset:0;stroke-width:0.5;"/>
     </g>
     <g id="line2d_13">
      <g>
       <use style="stroke:#000000;stroke-width:0.8;" x="111.1" xlink:href="#mf15d182631" y="86.429038"/>
      </g>
     </g>
     <g id="text_2">
      <!-- $a$ -->
      <g transform="translate(108.45 101.027476)scale(0.1 -0.1)">
       <use transform="translate(0 0.8125)" xlink:href="#Cmmi10-61"/>
      </g>
     </g>
    </g>
    <g id="xtick_4">
     <g id="line2d_14">
      <path clip-path="url(#p1447b736f7)" d="M 355.1 87.801538 
L 355.1 16.431538 
" style="fill:none;stroke:#000000;stroke-dasharray:0.5,0.825;stroke-dashoffset:0;stroke-width:0.5;"/>
     </g>
     <g id="line2d_15">
      <g>
       <use style="stroke:#000000;stroke-width:0.8;" x="355.1" xlink:href="#mf15d182631" y="86.429038"/>
      </g>
     </g>
     <g id="text_3">
      <!-- $b$ -->
      <defs>
       <path d="M 17.28125 -1.125 
Q 11.234375 -1.125 7.859375 3.609375 
Q 4.5 8.34375 4.5 14.703125 
Q 4.5 15.625 4.953125 18.328125 
Q 5.421875 21.046875 5.421875 21.6875 
L 15.09375 60.5 
Q 15.484375 62.203125 15.578125 63.1875 
Q 15.578125 64.796875 9.078125 64.796875 
Q 8.109375 64.796875 8.109375 66.109375 
Q 8.15625 66.359375 8.328125 66.984375 
Q 8.5 67.625 8.765625 67.96875 
Q 9.03125 68.3125 9.515625 68.3125 
L 23 69.390625 
Q 24.21875 69.390625 24.21875 68.109375 
L 16.796875 38.625 
Q 22.46875 44.1875 28.21875 44.1875 
Q 32.46875 44.1875 35.515625 41.9375 
Q 38.578125 39.703125 40.09375 36.03125 
Q 41.609375 32.375 41.609375 28.21875 
Q 41.609375 23.390625 39.71875 18.234375 
Q 37.84375 13.09375 34.515625 8.671875 
Q 31.203125 4.25 26.75 1.5625 
Q 22.3125 -1.125 17.28125 -1.125 
z
M 17.484375 1.515625 
Q 20.90625 1.515625 23.875 4.375 
Q 26.859375 7.234375 28.71875 10.796875 
Q 30.71875 14.796875 32.453125 21.65625 
Q 34.1875 28.515625 34.1875 32.625 
Q 34.1875 36.1875 32.6875 38.890625 
Q 31.203125 41.609375 27.984375 41.609375 
Q 24.359375 41.609375 21.0625 38.9375 
Q 17.78125 36.28125 15.28125 32.625 
L 12.5 21.296875 
Q 10.890625 14.984375 10.796875 11.1875 
Q 10.796875 7.421875 12.421875 4.46875 
Q 14.0625 1.515625 17.484375 1.515625 
z
" id="Cmmi10-62"/>
      </defs>
      <g transform="translate(352.95 101.027476)scale(0.1 -0.1)">
       <use transform="translate(0 0.609375)" xlink:href="#Cmmi10-62"/>
      </g>
     </g>
    </g>
    <g id="xtick_5">
     <g id="line2d_16">
      <path clip-path="url(#p1447b736f7)" d="M 391.7 87.801538 
L 391.7 16.431538 
" style="fill:none;stroke:#000000;stroke-dasharray:0.5,0.825;stroke-dashoffset:0;stroke-width:0.5;"/>
     </g>
     <g id="line2d_17">
      <g>
       <use style="stroke:#000000;stroke-width:0.8;" x="391.7" xlink:href="#mf15d182631" y="86.429038"/>
      </g>
     </g>
     <g id="text_4">
      <!-- $b'$ -->
      <g transform="translate(387.65 101.027476)scale(0.1 -0.1)">
       <use transform="translate(0 0.601562)" xlink:href="#Cmmi10-62"/>
       <use transform="translate(54.515859 38.865625)scale(0.7)" xlink:href="#Cmsy10-30"/>
      </g>
     </g>
    </g>
    <g id="xtick_6">
     <g id="line2d_18">
      <path clip-path="url(#p1447b736f7)" d="M 452.7 87.801538 
L 452.7 16.431538 
" style="fill:none;stroke:#000000;stroke-dasharray:0.5,0.825;stroke-dashoffset:0;stroke-width:0.5;"/>
     </g>
     <g id="line2d_19">
      <g>
       <use style="stroke:#000000;stroke-width:0.8;" x="452.7" xlink:href="#mf15d182631" y="86.429038"/>
      </g>
     </g>
     <g id="text_5">
      <!-- $f$ -->
      <defs>
       <path d="M 9.71875 -16.5 
Q 11.578125 -17.921875 14.203125 -17.921875 
Q 17.78125 -17.921875 20.015625 -10.015625 
Q 20.953125 -6.203125 25.09375 15.09375 
L 29.6875 39.59375 
L 21.09375 39.59375 
Q 20.125 39.59375 20.125 40.921875 
Q 20.515625 43.109375 21.390625 43.109375 
L 30.328125 43.109375 
L 31.5 49.609375 
Q 32.078125 52.640625 32.5625 54.8125 
Q 33.0625 56.984375 33.625 58.828125 
Q 34.1875 60.6875 35.296875 62.984375 
Q 37.015625 66.265625 39.921875 68.390625 
Q 42.828125 70.515625 46.1875 70.515625 
Q 48.390625 70.515625 50.46875 69.703125 
Q 52.546875 68.890625 53.859375 67.28125 
Q 55.171875 65.671875 55.171875 63.484375 
Q 55.171875 60.9375 53.484375 59.046875 
Q 51.8125 57.171875 49.421875 57.171875 
Q 47.796875 57.171875 46.65625 58.171875 
Q 45.515625 59.1875 45.515625 60.796875 
Q 45.515625 62.984375 47 64.625 
Q 48.484375 66.265625 50.6875 66.5 
Q 48.828125 67.921875 46.09375 67.921875 
Q 44.578125 67.921875 43.234375 66.5 
Q 41.890625 65.09375 41.5 63.484375 
Q 40.875 60.9375 38.71875 49.703125 
L 37.5 43.109375 
L 47.796875 43.109375 
Q 48.78125 43.109375 48.78125 41.796875 
Q 48.734375 41.546875 48.578125 40.9375 
Q 48.4375 40.328125 48.171875 39.953125 
Q 47.90625 39.59375 47.515625 39.59375 
L 36.8125 39.59375 
L 32.171875 15.1875 
Q 31.296875 9.859375 30.140625 4.359375 
Q 29 -1.125 26.921875 -6.90625 
Q 24.859375 -12.703125 21.625 -16.609375 
Q 18.40625 -20.515625 14.015625 -20.515625 
Q 10.640625 -20.515625 7.984375 -18.578125 
Q 5.328125 -16.65625 5.328125 -13.484375 
Q 5.328125 -10.9375 6.953125 -9.046875 
Q 8.59375 -7.171875 11.078125 -7.171875 
Q 12.75 -7.171875 13.859375 -8.171875 
Q 14.984375 -9.1875 14.984375 -10.796875 
Q 14.984375 -12.9375 13.390625 -14.71875 
Q 11.8125 -16.5 9.71875 -16.5 
z
" id="Cmmi10-66"/>
      </defs>
      <g transform="translate(450.25 101.007163)scale(0.1 -0.1)">
       <use transform="translate(0 0.484375)" xlink:href="#Cmmi10-66"/>
      </g>
     </g>
    </g>
    <g id="xtick_7">
     <g id="line2d_20">
      <path clip-path="url(#p1447b736f7)" d="M 562.5 87.801538 
L 562.5 16.431538 
" style="fill:none;stroke:#000000;stroke-dasharray:0.5,0.825;stroke-dashoffset:0;stroke-width:0.5;"/>
     </g>
     <g id="line2d_21">
      <g>
       <use style="stroke:#000000;stroke-width:0.8;" x="562.5" xlink:href="#mf15d182631" y="86.429038"/>
      </g>
     </g>
     <g id="text_6">
      <!-- $1$ -->
      <defs>
       <path d="M 9.28125 0 
L 9.28125 3.515625 
Q 21.78125 3.515625 21.78125 6.6875 
L 21.78125 59.1875 
Q 16.609375 56.6875 8.6875 56.6875 
L 8.6875 60.203125 
Q 20.953125 60.203125 27.203125 66.609375 
L 28.609375 66.609375 
Q 28.953125 66.609375 29.265625 66.328125 
Q 29.59375 66.0625 29.59375 65.71875 
L 29.59375 6.6875 
Q 29.59375 3.515625 42.09375 3.515625 
L 42.09375 0 
z
" id="Cmr10-31"/>
      </defs>
      <g transform="translate(560 101.027476)scale(0.1 -0.1)">
       <use transform="translate(0 0.390625)" xlink:href="#Cmr10-31"/>
      </g>
     </g>
    </g>
   </g>
   <g id="matplotlib.axis_2"/>
   <g id="patch_3">
    <path d="M 13.5 87.801538 
L 13.5 16.431538 
" style="fill:none;stroke:#000000;stroke-linecap:square;stroke-linejoin:miter;stroke-width:0.8;"/>
   </g>
   <g id="patch_4">
    <path d="M 2.52 86.429038 
L 573.48 86.429038 
" style="fill:none;stroke:#000000;stroke-linecap:square;stroke-linejoin:miter;stroke-width:0.8;"/>
   </g>
   <g id="text_7">
    <!-- $s^+$ -->
    <defs>
     <path d="M 8.6875 6.109375 
Q 11.375 1.515625 19.484375 1.515625 
Q 23 1.515625 26.171875 2.703125 
Q 29.34375 3.90625 31.421875 6.296875 
Q 33.5 8.6875 33.5 12.109375 
Q 33.5 14.703125 31.640625 16.359375 
Q 29.78125 18.015625 27.09375 18.609375 
L 21.6875 19.671875 
Q 17.96875 20.609375 15.578125 23.140625 
Q 13.1875 25.6875 13.1875 29.296875 
Q 13.1875 33.734375 15.59375 37.15625 
Q 18.015625 40.578125 21.96875 42.375 
Q 25.921875 44.1875 30.171875 44.1875 
Q 34.71875 44.1875 38.296875 42.015625 
Q 41.890625 39.84375 41.890625 35.59375 
Q 41.890625 33.296875 40.59375 31.53125 
Q 39.3125 29.78125 37.015625 29.78125 
Q 35.6875 29.78125 34.734375 30.640625 
Q 33.796875 31.5 33.796875 32.8125 
Q 33.796875 33.984375 34.453125 35.078125 
Q 35.109375 36.1875 36.203125 36.84375 
Q 37.3125 37.5 38.484375 37.5 
Q 37.59375 39.65625 35.171875 40.625 
Q 32.765625 41.609375 29.984375 41.609375 
Q 27.4375 41.609375 24.890625 40.578125 
Q 22.359375 39.546875 20.8125 37.5625 
Q 19.28125 35.59375 19.28125 32.90625 
Q 19.28125 31.109375 20.546875 29.734375 
Q 21.828125 28.375 23.6875 27.78125 
L 29.5 26.609375 
Q 32.28125 26.03125 34.59375 24.53125 
Q 36.921875 23.046875 38.25 20.765625 
Q 39.59375 18.5 39.59375 15.578125 
Q 39.59375 11.859375 37.515625 8.25 
Q 35.453125 4.640625 32.421875 2.484375 
Q 27.09375 -1.125 19.390625 -1.125 
Q 14.0625 -1.125 9.609375 1.3125 
Q 5.171875 3.765625 5.171875 8.59375 
Q 5.171875 11.328125 6.75 13.34375 
Q 8.34375 15.375 11.078125 15.375 
Q 12.703125 15.375 13.796875 14.390625 
Q 14.890625 13.421875 14.890625 11.8125 
Q 14.890625 9.515625 13.171875 7.8125 
Q 11.46875 6.109375 9.1875 6.109375 
z
" id="Cmmi10-73"/>
     <path d="M 7.515625 23 
Q 6.6875 23 6.140625 23.625 
Q 5.609375 24.265625 5.609375 25 
Q 5.609375 25.734375 6.140625 26.359375 
Q 6.6875 27 7.515625 27 
L 36.921875 27 
L 36.921875 56.5 
Q 36.921875 57.28125 37.5 57.78125 
Q 38.09375 58.296875 38.921875 58.296875 
Q 39.65625 58.296875 40.28125 57.78125 
Q 40.921875 57.28125 40.921875 56.5 
L 40.921875 27 
L 70.3125 27 
Q 71.046875 27 71.578125 26.359375 
Q 72.125 25.734375 72.125 25 
Q 72.125 24.265625 71.578125 23.625 
Q 71.046875 23 70.3125 23 
L 40.921875 23 
L 40.921875 -6.5 
Q 40.921875 -7.28125 40.28125 -7.78125 
Q 39.65625 -8.296875 38.921875 -8.296875 
Q 38.09375 -8.296875 37.5 -7.78125 
Q 36.921875 -7.28125 36.921875 -6.5 
L 36.921875 23 
z
" id="Cmr10-2b"/>
    </defs>
    <g transform="translate(44 65.286851)scale(0.1 -0.1)">
     <use transform="translate(0 0.928125)" xlink:href="#Cmmi10-73"/>
     <use transform="translate(65.371641 39.192187)scale(0.7)" xlink:href="#Cmr10-2b"/>
    </g>
   </g>
   <g id="text_8">
    <!-- $s^-$ -->
    <defs>
     <path d="M 10.203125 23 
Q 9.375 23 8.828125 23.625 
Q 8.296875 24.265625 8.296875 25 
Q 8.296875 25.734375 8.828125 26.359375 
Q 9.375 27 10.203125 27 
L 67.578125 27 
Q 68.359375 27 68.875 26.359375 
Q 69.390625 25.734375 69.390625 25 
Q 69.390625 24.265625 68.875 23.625 
Q 68.359375 23 67.578125 23 
z
" id="Cmsy10-a1"/>
    </defs>
    <g transform="translate(92.8 57.661851)scale(0.1 -0.1)">
     <use transform="translate(0 0.835938)" xlink:href="#Cmmi10-73"/>
     <use transform="translate(65.371641 39.1)scale(0.7)" xlink:href="#Cmsy10-a1"/>
    </g>
   </g>
   <g id="text_9">
    <!-- $\frac{1}{f}$ -->
    <g transform="translate(233.1 46.316538)scale(0.1 -0.1)">
     <use transform="translate(0 38.373438)scale(0.7)" xlink:href="#Cmr10-31"/>
     <use transform="translate(0 -42.2375)scale(0.7)" xlink:href="#Cmmi10-66"/>
     <path d="M 0 13.373437 
L 0 19.623437 
L 35 19.623437 
L 35 13.373437 
L 0 13.373437 
z
"/>
    </g>
   </g>
   <g id="text_10">
    <!-- $s^-$ -->
    <g transform="translate(373.4 42.411851)scale(0.1 -0.1)">
     <use transform="translate(0 0.835938)" xlink:href="#Cmmi10-73"/>
     <use transform="translate(65.371641 39.1)scale(0.7)" xlink:href="#Cmsy10-a1"/>
    </g>
   </g>
   <g id="text_11">
    <!-- $s^+$ -->
    <g transform="translate(422.2 34.786851)scale(0.1 -0.1)">
     <use transform="translate(0 0.928125)" xlink:href="#Cmmi10-73"/>
     <use transform="translate(65.371641 39.192187)scale(0.7)" xlink:href="#Cmr10-2b"/>
    </g>
   </g>
   <g id="text_12">
    <!-- $s^-$ -->
    <g transform="translate(507.6 50.036851)scale(0.1 -0.1)">
     <use transform="translate(0 0.835938)" xlink:href="#Cmmi10-73"/>
     <use transform="translate(65.371641 39.1)scale(0.7)" xlink:href="#Cmsy10-a1"/>
    </g>
   </g>
  </g>
 </g>
 <defs>
  <clipPath id="p1447b736f7">
   <rect height="71.37" width="570.96" x="2.52" y="16.431538"/>
  </clipPath>
 </defs>
</svg>
