<?xml version="1.0" encoding="utf-8" standalone="no"?>
<!DOCTYPE svg PUBLIC "-//W3C//DTD SVG 1.1//EN"
  "http://www.w3.org/Graphics/SVG/1.1/DTD/svg11.dtd">
<!-- Created with matplotlib (http://matplotlib.org/) -->
<svg height="108pt" version="1.1" viewBox="0 0 576 108" width="576pt" xmlns="http://www.w3.org/2000/svg" xmlns:xlink="http://www.w3.org/1999/xlink">
 <defs>
  <style type="text/css">
*{stroke-linecap:butt;stroke-linejoin:round;}
  </style>
 </defs>
 <g id="figure_1">
  <g id="patch_1">
   <path d="M 0 108 
L 576 108 
L 576 0 
L 0 0 
z
" style="fill:#ffffff;"/>
  </g>
  <g id="axes_1">
   <g id="patch_2">
    <path d="M 4.074135 87.704405 
L 573.48 87.704405 
L 573.48 16.528672 
L 4.074135 16.528672 
z
" style="fill:#ffffff;"/>
   </g>
   <g id="line2d_1">
    <path clip-path="url(#p82447acff4)" d="M 71.662762 71.818446 
L 90.542267 46.931826 
L 90.542267 46.931826 
" style="fill:none;stroke:#ff0000;stroke-linecap:square;stroke-width:2;"/>
   </g>
   <g id="line2d_2">
    <path clip-path="url(#p82447acff4)" d="M 128.301276 57.301251 
L 147.180781 32.414631 
L 147.180781 32.414631 
" style="fill:none;stroke:#ff0000;stroke-linecap:square;stroke-width:2;"/>
   </g>
   <g id="line2d_3">
    <path clip-path="url(#p82447acff4)" d="M 317.096325 69.053266 
L 335.975829 44.166646 
L 335.975829 44.166646 
" style="fill:none;stroke:#ff0000;stroke-linecap:square;stroke-width:2;"/>
   </g>
   <g id="line2d_4">
    <path clip-path="url(#p82447acff4)" d="M 430.373353 60.066431 
L 449.252858 35.179811 
L 449.252858 35.179811 
" style="fill:none;stroke:#ff0000;stroke-linecap:square;stroke-width:2;"/>
   </g>
   <g id="line2d_5">
    <path clip-path="url(#p82447acff4)" d="M 15.024247 86.335641 
L 15.158699 86.01564 
L 15.20636 85.902204 
L 15.314323 85.645246 
L 15.37855 85.492382 
L 15.539991 85.108144 
L 15.586178 84.998218 
L 15.658743 84.825509 
L 15.802729 84.482816 
L 15.923964 84.19427 
L 15.931401 84.176569 
L 16.045236 83.905637 
L 16.162682 83.626108 
L 16.250669 83.416695 
L 16.308534 83.278975 
L 16.487296 82.85351 
L 16.529852 82.752226 
L 16.640733 82.488324 
L 16.731785 82.271616 
L 16.846195 81.999314 
L 16.954048 81.742618 
L 16.986356 81.665723 
L 17.117752 81.352995 
L 17.246282 81.047085 
L 17.308918 80.898009 
L 17.361957 80.771775 
L 17.499242 80.445029 
L 17.612842 80.174656 
L 17.700877 79.965128 
L 17.745495 79.858934 
L 17.859298 79.588077 
L 17.998476 79.256827 
L 18.059546 79.111478 
L 18.176829 78.832338 
L 18.236929 78.689296 
L 18.32056 78.490251 
L 18.416239 78.262531 
L 18.570637 77.895054 
L 18.586261 77.857868 
L 18.751877 77.463694 
L 18.86047 77.205239 
L 18.898564 77.114571 
L 19.001573 76.869405 
L 19.130756 76.561942 
L 19.184685 76.43359 
L 19.276321 76.215492 
L 19.3829 75.961828 
L 19.507842 75.66446 
L 19.608143 75.425738 
L 19.660678 75.300703 
L 19.764003 75.054783 
L 19.824529 74.910727 
L 19.989323 74.51851 
L 20.057298 74.356727 
L 20.159093 74.11445 
L 20.241543 73.918213 
L 20.367878 73.617529 
L 20.470201 73.373997 
L 20.499084 73.305253 
L 20.596859 73.072544 
L 20.68307 72.867358 
L 20.83089 72.515538 
L 20.86413 72.436425 
L 21.045132 72.00563 
L 21.061429 71.966844 
L 21.169704 71.709144 
L 21.297557 71.404848 
L 21.420251 71.112829 
L 21.508858 70.901941 
L 21.6169 70.644794 
L 21.63282 70.606904 
L 21.771681 70.276407 
L 21.895047 69.982792 
L 21.94177 69.871587 
L 22.017928 69.690327 
L 22.137458 69.40584 
L 22.248146 69.142398 
L 22.314048 68.985547 
L 22.383565 68.820092 
L 22.47604 68.599999 
L 22.573922 68.367033 
L 22.674454 68.127764 
L 22.789588 67.853737 
L 22.936771 67.503436 
L 22.987132 67.383575 
L 23.044846 67.246212 
L 23.222908 66.822415 
L 23.301138 66.636223 
L 23.328058 66.572153 
L 23.51175 66.134956 
L 23.547583 66.049671 
L 23.673469 65.750057 
L 23.731022 65.613079 
L 23.845227 65.341265 
L 23.940431 65.114674 
L 24.068221 64.810528 
L 24.103923 64.725554 
L 24.225361 64.436526 
L 24.312715 64.228619 
L 24.398629 64.02414 
L 24.532069 63.706545 
L 24.587413 63.574823 
L 24.727464 63.241496 
L 24.79904 63.07114 
L 24.933435 62.751274 
L 24.961301 62.684952 
L 25.089471 62.3799 
L 25.133636 62.274786 
L 25.276319 61.935193 
L 25.318932 61.833772 
L 25.439419 61.547006 
L 25.576689 61.220297 
L 25.69247 60.944732 
" style="fill:none;stroke:#ffda00;stroke-linecap:square;stroke-width:2;"/>
   </g>
   <g id="line2d_6">
    <path clip-path="url(#p82447acff4)" d="M 25.928905 60.382006 
L 26.055952 60.079626 
L 26.09919 59.976717 
L 26.175039 59.796193 
L 26.313339 59.467032 
L 26.382223 59.303085 
L 26.499464 59.024045 
L 26.564149 58.870092 
L 26.690064 58.570408 
L 26.801919 58.304188 
L 26.901174 58.067956 
L 26.999478 57.833986 
L 27.049639 57.714601 
L 27.158545 57.4554 
L 27.225605 57.295795 
L 27.356752 56.983656 
L 27.414908 56.845244 
L 27.554613 56.512739 
L 27.644673 56.298392 
L 27.720957 56.11683 
L 27.828099 55.861829 
L 27.919068 55.645316 
L 28.026112 55.390547 
L 28.085323 55.249622 
L 28.253741 54.848777 
L 28.341943 54.638854 
L 28.357122 54.602726 
L 28.485583 54.296983 
L 28.620377 53.976165 
L 28.661383 53.87857 
L 28.740756 53.689658 
L 28.880138 53.357921 
L 28.948953 53.194139 
L 29.101102 52.832016 
L 29.132749 52.756695 
L 29.254797 52.466215 
L 29.362162 52.210679 
L 29.462411 51.972082 
L 29.509524 51.859951 
L 29.643863 51.540218 
L 29.689404 51.431827 
L 29.777159 51.222966 
L 29.956998 50.794939 
L 30.041766 50.593189 
L 30.065586 50.536495 
L 30.198107 50.221089 
L 30.307053 49.961792 
L 30.431434 49.665758 
L 30.480699 49.548506 
L 30.541295 49.404283 
L 30.685502 49.061065 
L 30.816347 48.749645 
L 30.83219 48.711939 
L 30.97808 48.364715 
L 31.088724 48.101376 
L 31.160392 47.930801 
L 31.223553 47.780477 
L 31.369245 47.433721 
L 31.463695 47.208925 
L 31.560197 46.979245 
L 31.671084 46.715329 
L 31.691095 46.667703 
L 31.831224 46.334188 
L 31.934529 46.088316 
L 31.967562 46.009696 
L 32.102129 45.68942 
L 32.24089 45.359162 
L 32.252451 45.331646 
L 32.388013 45.009003 
L 32.484066 44.780392 
L 32.571769 44.571654 
L 32.682864 44.307243 
L 32.782993 44.06893 
L 32.86331 43.877771 
L 32.956947 43.654909 
L 33.086942 43.345515 
L 33.152721 43.188958 
L 33.263314 42.925742 
L 33.349491 42.720635 
L 33.382031 42.643188 
L 33.54987 42.243724 
L 33.650142 42.00507 
L 33.736314 41.799977 
L 33.828708 41.580076 
L 33.903752 41.401466 
" style="fill:none;stroke:#ffda00;stroke-linecap:square;stroke-width:2;"/>
   </g>
   <g id="line2d_7">
    <path clip-path="url(#p82447acff4)" d="M 184.939791 62.831611 
L 203.819296 17.897436 
L 203.819296 17.897436 
" style="fill:none;stroke:#ffda00;stroke-linecap:square;stroke-width:2;"/>
   </g>
   <g id="line2d_8">
    <path clip-path="url(#p82447acff4)" d="M 373.734839 74.583626 
L 392.614344 29.649451 
L 392.614344 29.649451 
" style="fill:none;stroke:#ffda00;stroke-linecap:square;stroke-width:2;"/>
   </g>
   <g id="line2d_9">
    <path clip-path="url(#p82447acff4)" d="M 222.6988 53.153481 
L 241.578305 68.361971 
L 241.578305 68.361971 
" style="fill:none;stroke:#48ff00;stroke-linecap:square;stroke-width:2;"/>
   </g>
   <g id="line2d_10">
    <path clip-path="url(#p82447acff4)" d="M 298.21682 53.844776 
L 317.096325 69.053266 
L 317.096325 69.053266 
" style="fill:none;stroke:#48ff00;stroke-linecap:square;stroke-width:2;"/>
   </g>
   <g id="line2d_11">
    <path clip-path="url(#p82447acff4)" d="M 449.252858 35.179811 
L 468.132363 50.388301 
L 468.132363 50.388301 
" style="fill:none;stroke:#48ff00;stroke-linecap:square;stroke-width:2;"/>
   </g>
   <g id="line2d_12">
    <path clip-path="url(#p82447acff4)" d="M 524.770878 35.871106 
L 543.650382 51.079596 
L 543.650382 51.079596 
" style="fill:none;stroke:#48ff00;stroke-linecap:square;stroke-width:2;"/>
   </g>
   <g id="line2d_13">
    <path clip-path="url(#p82447acff4)" d="M 203.819296 17.897436 
L 222.6988 53.153481 
L 222.6988 53.153481 
" style="fill:none;stroke:#00ff91;stroke-linecap:square;stroke-width:2;"/>
   </g>
   <g id="line2d_14">
    <path clip-path="url(#p82447acff4)" d="M 543.650382 51.079596 
L 562.529887 86.335641 
L 562.529887 86.335641 
" style="fill:none;stroke:#00ff91;stroke-linecap:square;stroke-width:2;"/>
   </g>
   <g id="line2d_15">
    <path clip-path="url(#p82447acff4)" d="M 52.783257 66.633733 
L 71.662762 71.818446 
L 71.662762 71.818446 
" style="fill:none;stroke:#0091ff;stroke-linecap:square;stroke-width:2;"/>
   </g>
   <g id="line2d_16">
    <path clip-path="url(#p82447acff4)" d="M 90.542267 46.931826 
L 128.301276 57.301251 
L 128.301276 57.301251 
" style="fill:none;stroke:#0091ff;stroke-linecap:square;stroke-width:2;"/>
   </g>
   <g id="line2d_17">
    <path clip-path="url(#p82447acff4)" d="M 147.180781 32.414631 
L 166.060286 37.599343 
L 166.060286 37.599343 
" style="fill:none;stroke:#0091ff;stroke-linecap:square;stroke-width:2;"/>
   </g>
   <g id="line2d_18">
    <path clip-path="url(#p82447acff4)" d="M 335.975829 44.166646 
L 354.855334 49.351358 
L 354.855334 49.351358 
" style="fill:none;stroke:#0091ff;stroke-linecap:square;stroke-width:2;"/>
   </g>
   <g id="line2d_19">
    <path clip-path="url(#p82447acff4)" d="M 411.493849 54.881718 
L 430.373353 60.066431 
L 430.373353 60.066431 
" style="fill:none;stroke:#0091ff;stroke-linecap:square;stroke-width:2;"/>
   </g>
   <g id="line2d_20">
    <path clip-path="url(#p82447acff4)" d="M 241.578305 68.361971 
L 298.21682 53.844776 
L 298.21682 53.844776 
" style="fill:none;stroke:#4800ff;stroke-linecap:square;stroke-width:2;"/>
   </g>
   <g id="line2d_21">
    <path clip-path="url(#p82447acff4)" d="M 468.132363 50.388301 
L 524.770878 35.871106 
L 524.770878 35.871106 
" style="fill:none;stroke:#4800ff;stroke-linecap:square;stroke-width:2;"/>
   </g>
   <g id="line2d_22">
    <path clip-path="url(#p82447acff4)" d="M 33.903752 41.401466 
L 52.783257 66.633733 
L 52.783257 66.633733 
" style="fill:none;stroke:#ff00da;stroke-linecap:square;stroke-width:2;"/>
   </g>
   <g id="line2d_23">
    <path clip-path="url(#p82447acff4)" d="M 166.060286 37.599343 
L 184.939791 62.831611 
L 184.939791 62.831611 
" style="fill:none;stroke:#ff00da;stroke-linecap:square;stroke-width:2;"/>
   </g>
   <g id="line2d_24">
    <path clip-path="url(#p82447acff4)" d="M 354.855334 49.351358 
L 373.734839 74.583626 
L 373.734839 74.583626 
" style="fill:none;stroke:#ff00da;stroke-linecap:square;stroke-width:2;"/>
   </g>
   <g id="line2d_25">
    <path clip-path="url(#p82447acff4)" d="M 392.614344 29.649451 
L 411.493849 54.881718 
L 411.493849 54.881718 
" style="fill:none;stroke:#ff00da;stroke-linecap:square;stroke-width:2;"/>
   </g>
   <g id="matplotlib.axis_1">
    <g id="xtick_1">
     <g id="line2d_26">
      <path clip-path="url(#p82447acff4)" d="M 15.024247 87.704405 
L 15.024247 16.528672 
" style="fill:none;stroke:#000000;stroke-dasharray:0.5,0.825;stroke-dashoffset:0;stroke-width:0.5;"/>
     </g>
     <g id="line2d_27">
      <defs>
       <path d="M 0 0 
L 0 3.5 
" id="mac062610a7" style="stroke:#000000;stroke-width:0.8;"/>
      </defs>
      <g>
       <use style="stroke:#000000;stroke-width:0.8;" x="15.024247" xlink:href="#mac062610a7" y="86.335641"/>
      </g>
     </g>
    </g>
    <g id="xtick_2">
     <g id="line2d_28">
      <path clip-path="url(#p82447acff4)" d="M 203.819296 87.704405 
L 203.819296 16.528672 
" style="fill:none;stroke:#000000;stroke-dasharray:0.5,0.825;stroke-dashoffset:0;stroke-width:0.5;"/>
     </g>
     <g id="line2d_29">
      <g>
       <use style="stroke:#000000;stroke-width:0.8;" x="203.819296" xlink:href="#mac062610a7" y="86.335641"/>
      </g>
     </g>
     <g id="text_1">
      <!-- $f$ -->
      <defs>
       <path d="M 9.71875 -16.5 
Q 11.578125 -17.921875 14.203125 -17.921875 
Q 17.78125 -17.921875 20.015625 -10.015625 
Q 20.953125 -6.203125 25.09375 15.09375 
L 29.6875 39.59375 
L 21.09375 39.59375 
Q 20.125 39.59375 20.125 40.921875 
Q 20.515625 43.109375 21.390625 43.109375 
L 30.328125 43.109375 
L 31.5 49.609375 
Q 32.078125 52.640625 32.5625 54.8125 
Q 33.0625 56.984375 33.625 58.828125 
Q 34.1875 60.6875 35.296875 62.984375 
Q 37.015625 66.265625 39.921875 68.390625 
Q 42.828125 70.515625 46.1875 70.515625 
Q 48.390625 70.515625 50.46875 69.703125 
Q 52.546875 68.890625 53.859375 67.28125 
Q 55.171875 65.671875 55.171875 63.484375 
Q 55.171875 60.9375 53.484375 59.046875 
Q 51.8125 57.171875 49.421875 57.171875 
Q 47.796875 57.171875 46.65625 58.171875 
Q 45.515625 59.1875 45.515625 60.796875 
Q 45.515625 62.984375 47 64.625 
Q 48.484375 66.265625 50.6875 66.5 
Q 48.828125 67.921875 46.09375 67.921875 
Q 44.578125 67.921875 43.234375 66.5 
Q 41.890625 65.09375 41.5 63.484375 
Q 40.875 60.9375 38.71875 49.703125 
L 37.5 43.109375 
L 47.796875 43.109375 
Q 48.78125 43.109375 48.78125 41.796875 
Q 48.734375 41.546875 48.578125 40.9375 
Q 48.4375 40.328125 48.171875 39.953125 
Q 47.90625 39.59375 47.515625 39.59375 
L 36.8125 39.59375 
L 32.171875 15.1875 
Q 31.296875 9.859375 30.140625 4.359375 
Q 29 -1.125 26.921875 -6.90625 
Q 24.859375 -12.703125 21.625 -16.609375 
Q 18.40625 -20.515625 14.015625 -20.515625 
Q 10.640625 -20.515625 7.984375 -18.578125 
Q 5.328125 -16.65625 5.328125 -13.484375 
Q 5.328125 -10.9375 6.953125 -9.046875 
Q 8.59375 -7.171875 11.078125 -7.171875 
Q 12.75 -7.171875 13.859375 -8.171875 
Q 14.984375 -9.1875 14.984375 -10.796875 
Q 14.984375 -12.9375 13.390625 -14.71875 
Q 11.8125 -16.5 9.71875 -16.5 
z
" id="Cmmi10-66"/>
      </defs>
      <g transform="translate(201.369296 100.913766)scale(0.1 -0.1)">
       <use transform="translate(0 0.484375)" xlink:href="#Cmmi10-66"/>
      </g>
     </g>
    </g>
    <g id="xtick_3">
     <g id="line2d_30">
      <path clip-path="url(#p82447acff4)" d="M 562.529887 87.704405 
L 562.529887 16.528672 
" style="fill:none;stroke:#000000;stroke-dasharray:0.5,0.825;stroke-dashoffset:0;stroke-width:0.5;"/>
     </g>
     <g id="line2d_31">
      <g>
       <use style="stroke:#000000;stroke-width:0.8;" x="562.529887" xlink:href="#mac062610a7" y="86.335641"/>
      </g>
     </g>
     <g id="text_2">
      <!-- $1$ -->
      <defs>
       <path d="M 9.28125 0 
L 9.28125 3.515625 
Q 21.78125 3.515625 21.78125 6.6875 
L 21.78125 59.1875 
Q 16.609375 56.6875 8.6875 56.6875 
L 8.6875 60.203125 
Q 20.953125 60.203125 27.203125 66.609375 
L 28.609375 66.609375 
Q 28.953125 66.609375 29.265625 66.328125 
Q 29.59375 66.0625 29.59375 65.71875 
L 29.59375 6.6875 
Q 29.59375 3.515625 42.09375 3.515625 
L 42.09375 0 
z
" id="Cmr10-31"/>
      </defs>
      <g transform="translate(560.029887 100.934078)scale(0.1 -0.1)">
       <use transform="translate(0 0.390625)" xlink:href="#Cmr10-31"/>
      </g>
     </g>
    </g>
   </g>
   <g id="matplotlib.axis_2">
    <g id="ytick_1">
     <g id="line2d_32">
      <path clip-path="url(#p82447acff4)" d="M 4.074135 86.335641 
L 573.48 86.335641 
" style="fill:none;stroke:#000000;stroke-dasharray:0.5,0.825;stroke-dashoffset:0;stroke-width:0.5;"/>
     </g>
     <g id="line2d_33">
      <defs>
       <path d="M 0 0 
L -3.5 0 
" id="md6e64d90a8" style="stroke:#000000;stroke-width:0.8;"/>
      </defs>
      <g>
       <use style="stroke:#000000;stroke-width:0.8;" x="15.024247" xlink:href="#md6e64d90a8" y="86.335641"/>
      </g>
     </g>
    </g>
    <g id="ytick_2">
     <g id="line2d_34">
      <path clip-path="url(#p82447acff4)" d="M 4.074135 17.897436 
L 573.48 17.897436 
" style="fill:none;stroke:#000000;stroke-dasharray:0.5,0.825;stroke-dashoffset:0;stroke-width:0.5;"/>
     </g>
     <g id="line2d_35">
      <g>
       <use style="stroke:#000000;stroke-width:0.8;" x="15.024247" xlink:href="#md6e64d90a8" y="17.897436"/>
      </g>
     </g>
     <g id="text_3">
      <!-- $1$ -->
      <g transform="translate(3.024247 21.696655)scale(0.1 -0.1)">
       <use transform="translate(0 0.390625)" xlink:href="#Cmr10-31"/>
      </g>
     </g>
    </g>
   </g>
   <g id="patch_3">
    <path d="M 15.024247 87.704405 
L 15.024247 16.528672 
" style="fill:none;stroke:#000000;stroke-linecap:square;stroke-linejoin:miter;stroke-width:0.8;"/>
   </g>
   <g id="patch_4">
    <path d="M 4.074135 86.335641 
L 573.48 86.335641 
" style="fill:none;stroke:#000000;stroke-linecap:square;stroke-linejoin:miter;stroke-width:0.8;"/>
   </g>
  </g>
 </g>
 <defs>
  <clipPath id="p82447acff4">
   <rect height="71.175733" width="569.405865" x="4.074135" y="16.528672"/>
  </clipPath>
 </defs>
</svg>
