<?xml version="1.0" encoding="utf-8" standalone="no"?>
<!DOCTYPE svg PUBLIC "-//W3C//DTD SVG 1.1//EN"
  "http://www.w3.org/Graphics/SVG/1.1/DTD/svg11.dtd">
<!-- Created with matplotlib (http://matplotlib.org/) -->
<svg height="108pt" version="1.1" viewBox="0 0 576 108" width="576pt" xmlns="http://www.w3.org/2000/svg" xmlns:xlink="http://www.w3.org/1999/xlink">
 <defs>
  <style type="text/css">
*{stroke-linecap:butt;stroke-linejoin:round;}
  </style>
 </defs>
 <g id="figure_1">
  <g id="patch_1">
   <path d="M 0 108 
L 576 108 
L 576 0 
L 0 0 
z
" style="fill:#ffffff;"/>
  </g>
  <g id="axes_1">
   <g id="patch_2">
    <path d="M 4.074135 87.704405 
L 573.48 87.704405 
L 573.48 16.528672 
L 4.074135 16.528672 
z
" style="fill:#ffffff;"/>
   </g>
   <g id="line2d_1">
    <path clip-path="url(#p1d99715f52)" d="M 256.570853 45.921701 
L 272.67396 53.5915 
L 272.67396 53.5915 
" style="fill:none;stroke:#ff0000;stroke-linecap:square;stroke-width:2;"/>
   </g>
   <g id="line2d_2">
    <path clip-path="url(#p1d99715f52)" d="M 288.777067 41.201825 
L 320.983281 56.541422 
L 320.983281 56.541422 
" style="fill:none;stroke:#ff0000;stroke-linecap:square;stroke-width:2;"/>
   </g>
   <g id="line2d_3">
    <path clip-path="url(#p1d99715f52)" d="M 337.086388 69.22609 
L 353.189496 76.895889 
L 353.189496 76.895889 
" style="fill:none;stroke:#ff0000;stroke-linecap:square;stroke-width:2;"/>
   </g>
   <g id="line2d_4">
    <path clip-path="url(#p1d99715f52)" d="M 417.601924 27.337188 
L 433.705031 35.006987 
L 433.705031 35.006987 
" style="fill:none;stroke:#ff0000;stroke-linecap:square;stroke-width:2;"/>
   </g>
   <g id="line2d_5">
    <path clip-path="url(#p1d99715f52)" d="M 449.808138 47.691655 
L 482.014352 63.031252 
L 482.014352 63.031252 
" style="fill:none;stroke:#ff0000;stroke-linecap:square;stroke-width:2;"/>
   </g>
   <g id="line2d_6">
    <path clip-path="url(#p1d99715f52)" d="M 498.117459 50.641577 
L 514.220566 58.311376 
L 514.220566 58.311376 
" style="fill:none;stroke:#ff0000;stroke-linecap:square;stroke-width:2;"/>
   </g>
   <g id="line2d_7">
    <path clip-path="url(#p1d99715f52)" d="M 272.67396 53.5915 
L 288.777067 41.201825 
L 288.777067 41.201825 
" style="fill:none;stroke:#ffda00;stroke-linecap:square;stroke-width:2;"/>
   </g>
   <g id="line2d_8">
    <path clip-path="url(#p1d99715f52)" d="M 353.189496 76.895889 
L 417.601924 27.337188 
L 417.601924 27.337188 
" style="fill:none;stroke:#ffda00;stroke-linecap:square;stroke-width:2;"/>
   </g>
   <g id="line2d_9">
    <path clip-path="url(#p1d99715f52)" d="M 482.014352 63.031252 
L 498.117459 50.641577 
L 498.117459 50.641577 
" style="fill:none;stroke:#ffda00;stroke-linecap:square;stroke-width:2;"/>
   </g>
   <g id="line2d_10">
    <path clip-path="url(#p1d99715f52)" d="M 95.539783 39.431871 
L 127.745997 64.801206 
L 127.745997 64.801206 
" style="fill:none;stroke:#48ff00;stroke-linecap:square;stroke-width:2;"/>
   </g>
   <g id="line2d_11">
    <path clip-path="url(#p1d99715f52)" d="M 320.983281 56.541422 
L 337.086388 69.22609 
L 337.086388 69.22609 
" style="fill:none;stroke:#48ff00;stroke-linecap:square;stroke-width:2;"/>
   </g>
   <g id="line2d_12">
    <path clip-path="url(#p1d99715f52)" d="M 433.705031 35.006987 
L 433.792858 35.07617 
L 433.82947 35.10501 
L 433.931037 35.185016 
L 434.040218 35.271019 
L 434.073383 35.297144 
L 434.209382 35.404272 
L 434.26009 35.444216 
L 434.37974 35.538466 
L 434.463969 35.604815 
L 434.531542 35.658043 
L 434.633223 35.738139 
L 434.697778 35.788989 
L 434.771862 35.847347 
L 434.877632 35.930663 
L 434.920982 35.964811 
L 434.996901 36.024613 
L 435.105773 36.110373 
L 435.194576 36.180325 
L 435.231359 36.209299 
L 435.360876 36.311322 
L 435.391741 36.335635 
L 435.470034 36.397308 
L 435.592671 36.493911 
L 435.654972 36.542986 
L 435.740008 36.60997 
L 435.786048 36.646237 
L 435.906389 36.741031 
L 435.994122 36.81014 
L 436.033436 36.841108 
L 436.113489 36.904167 
L 436.205242 36.976443 
L 436.260837 37.020235 
L 436.392282 37.123776 
L 436.458228 37.175723 
L 436.509564 37.216161 
L 436.631634 37.312318 
L 436.69984 37.366045 
L 436.813438 37.455528 
L 436.880742 37.508544 
L 436.911901 37.533088 
L 437.013177 37.612865 
L 437.142193 37.714493 
L 437.161524 37.72972 
L 437.2459 37.796185 
L 437.337754 37.86854 
L 437.437104 37.946799 
L 437.494925 37.992346 
L 437.591781 38.068641 
L 437.686758 38.143456 
L 437.722437 38.17156 
L 437.799989 38.232649 
L 437.918905 38.326321 
L 437.966437 38.363763 
L 438.035398 38.418084 
L 438.118444 38.483501 
L 438.266752 38.600326 
L 438.314941 38.638285 
L 438.391698 38.698748 
L 438.47332 38.763043 
L 438.535577 38.812083 
L 438.629498 38.886067 
L 438.744234 38.976446 
L 438.764573 38.992467 
L 438.911131 39.107913 
L 438.949998 39.138529 
L 439.022079 39.195308 
L 439.124033 39.275619 
L 439.175406 39.316086 
L 439.264853 39.386545 
L 439.338098 39.444242 
L 439.432298 39.518445 
L 439.551771 39.612555 
L 439.581498 39.635971 
L 439.675817 39.710268 
L 439.762199 39.778313 
L 439.876277 39.868173 
L 439.940392 39.918678 
L 440.002461 39.967571 
L 440.105055 40.048386 
L 440.206496 40.128292 
L 440.232599 40.148854 
L 440.308706 40.208804 
L 440.441638 40.313517 
L 440.530958 40.383876 
L 440.575151 40.418688 
L 440.662939 40.487839 
L 440.709759 40.524721 
L 440.84878 40.634229 
L 440.90787 40.680775 
L 440.950977 40.714731 
L 441.061035 40.801426 
L 441.173722 40.890191 
L 441.249637 40.94999 
L 441.273179 40.968535 
L 441.371184 41.045735 
L 441.480506 41.13185 
L 441.533799 41.173829 
L 441.595481 41.222418 
L 441.740659 41.336776 
L 441.813024 41.393779 
L 441.878025 41.444981 
L 441.932647 41.488008 
" style="fill:none;stroke:#48ff00;stroke-linecap:square;stroke-width:2;"/>
   </g>
   <g id="line2d_13">
    <path clip-path="url(#p1d99715f52)" d="M 442.196917 41.696178 
L 442.281296 41.762644 
L 442.378899 41.839528 
L 442.458325 41.902093 
L 442.496285 41.931995 
L 442.588931 42.004973 
L 442.682907 42.079 
L 442.732062 42.117719 
L 442.852894 42.212901 
L 442.937388 42.279458 
L 443.013221 42.339193 
L 443.122385 42.425184 
L 443.145633 42.443496 
L 443.220318 42.502326 
L 443.323451 42.583566 
L 443.375168 42.624305 
L 443.516341 42.735509 
L 443.578641 42.784583 
L 443.685793 42.868988 
L 443.747052 42.917243 
L 443.78861 42.949979 
L 443.871551 43.015313 
L 443.980837 43.1014 
L 444.084997 43.183448 
L 444.140646 43.227284 
L 444.237998 43.303969 
L 444.269906 43.329103 
L 444.390137 43.423811 
L 444.43104 43.456031 
L 444.564494 43.561155 
L 444.644956 43.624536 
L 444.74697 43.704894 
L 444.823999 43.765571 
L 444.860088 43.793999 
L 444.988089 43.894827 
L 445.013095 43.914525 
L 445.078209 43.965816 
L 445.2178 44.075774 
L 445.289332 44.132121 
L 445.388959 44.210598 
L 445.422849 44.237294 
L 445.555996 44.342176 
L 445.616217 44.389613 
L 445.661734 44.425468 
L 445.75891 44.502015 
L 445.873534 44.592306 
L 445.883832 44.600418 
L 446.011007 44.700595 
L 446.119424 44.785998 
L 446.141891 44.803695 
L 446.242042 44.882586 
L 446.358945 44.974672 
L 446.376681 44.988643 
L 446.478847 45.069121 
L 446.598199 45.163136 
L 446.647391 45.201885 
L 446.752648 45.284798 
L 446.830429 45.346067 
L 446.901313 45.401904 
L 446.957862 45.446448 
L 447.051534 45.520235 
L 447.136683 45.587308 
L 447.239064 45.667955 
L 447.312225 45.725585 
L 447.417114 45.808208 
L 447.438023 45.824678 
L 447.525396 45.893503 
L 447.6396 45.983464 
L 447.739453 46.06212 
L 447.763629 46.081163 
L 447.895225 46.184823 
L 447.934467 46.215735 
L 448.028205 46.289574 
L 448.127875 46.368086 
L 448.212011 46.434361 
L 448.276141 46.484876 
L 448.342978 46.537526 
L 448.40524 46.58657 
L 448.482476 46.64741 
L 448.614852 46.751685 
L 448.700159 46.818882 
L 448.781283 46.882785 
L 448.833948 46.92427 
L 448.946858 47.013211 
L 448.963939 47.026666 
L 449.056532 47.099603 
L 449.149898 47.173149 
L 449.214061 47.223691 
L 449.297955 47.289776 
L 449.375968 47.351228 
L 449.459267 47.416844 
L 449.562121 47.497863 
L 449.612886 47.537852 
L 449.74903 47.645095 
L 449.808138 47.691655 
" style="fill:none;stroke:#48ff00;stroke-linecap:square;stroke-width:2;"/>
   </g>
   <g id="line2d_14">
    <path clip-path="url(#p1d99715f52)" d="M 79.436676 36.776941 
L 95.539783 39.431871 
L 95.539783 39.431871 
" style="fill:none;stroke:#00ff91;stroke-linecap:square;stroke-width:2;"/>
   </g>
   <g id="line2d_15">
    <path clip-path="url(#p1d99715f52)" d="M 127.745997 64.801206 
L 143.849104 67.456136 
L 143.849104 67.456136 
" style="fill:none;stroke:#00ff91;stroke-linecap:square;stroke-width:2;"/>
   </g>
   <g id="line2d_16">
    <path clip-path="url(#p1d99715f52)" d="M 240.467746 43.266771 
L 256.570853 45.921701 
L 256.570853 45.921701 
" style="fill:none;stroke:#00ff91;stroke-linecap:square;stroke-width:2;"/>
   </g>
   <g id="line2d_17">
    <path clip-path="url(#p1d99715f52)" d="M 514.220566 58.311376 
L 530.323673 60.966306 
L 530.323673 60.966306 
" style="fill:none;stroke:#00ff91;stroke-linecap:square;stroke-width:2;"/>
   </g>
   <g id="line2d_18">
    <path clip-path="url(#p1d99715f52)" d="M 31.127354 68.931097 
L 47.230462 61.556291 
L 47.230462 61.556291 
" style="fill:none;stroke:#0091ff;stroke-linecap:square;stroke-width:2;"/>
   </g>
   <g id="line2d_19">
    <path clip-path="url(#p1d99715f52)" d="M 63.333569 44.151747 
L 79.436676 36.776941 
L 79.436676 36.776941 
" style="fill:none;stroke:#0091ff;stroke-linecap:square;stroke-width:2;"/>
   </g>
   <g id="line2d_20">
    <path clip-path="url(#p1d99715f52)" d="M 143.849104 67.456136 
L 159.952211 60.08133 
L 159.952211 60.08133 
" style="fill:none;stroke:#0091ff;stroke-linecap:square;stroke-width:2;"/>
   </g>
   <g id="line2d_21">
    <path clip-path="url(#p1d99715f52)" d="M 176.055318 42.676786 
L 192.158425 35.301979 
L 192.158425 35.301979 
" style="fill:none;stroke:#0091ff;stroke-linecap:square;stroke-width:2;"/>
   </g>
   <g id="line2d_22">
    <path clip-path="url(#p1d99715f52)" d="M 15.024247 86.335641 
L 31.127354 68.931097 
L 31.127354 68.931097 
" style="fill:none;stroke:#4800ff;stroke-linecap:square;stroke-width:2;"/>
   </g>
   <g id="line2d_23">
    <path clip-path="url(#p1d99715f52)" d="M 47.230462 61.556291 
L 63.333569 44.151747 
L 63.333569 44.151747 
" style="fill:none;stroke:#4800ff;stroke-linecap:square;stroke-width:2;"/>
   </g>
   <g id="line2d_24">
    <path clip-path="url(#p1d99715f52)" d="M 159.952211 60.08133 
L 176.055318 42.676786 
L 176.055318 42.676786 
" style="fill:none;stroke:#4800ff;stroke-linecap:square;stroke-width:2;"/>
   </g>
   <g id="line2d_25">
    <path clip-path="url(#p1d99715f52)" d="M 192.158425 35.301979 
L 208.261532 17.897436 
L 208.261532 17.897436 
" style="fill:none;stroke:#4800ff;stroke-linecap:square;stroke-width:2;"/>
   </g>
   <g id="line2d_26">
    <path clip-path="url(#p1d99715f52)" d="M 224.364639 60.671314 
L 240.467746 43.266771 
L 240.467746 43.266771 
" style="fill:none;stroke:#4800ff;stroke-linecap:square;stroke-width:2;"/>
   </g>
   <g id="line2d_27">
    <path clip-path="url(#p1d99715f52)" d="M 530.323673 60.966306 
L 546.42678 43.561763 
L 546.42678 43.561763 
" style="fill:none;stroke:#4800ff;stroke-linecap:square;stroke-width:2;"/>
   </g>
   <g id="line2d_28">
    <path clip-path="url(#p1d99715f52)" d="M 208.261532 17.897436 
L 224.364639 60.671314 
L 224.364639 60.671314 
" style="fill:none;stroke:#ff00da;stroke-linecap:square;stroke-width:2;"/>
   </g>
   <g id="line2d_29">
    <path clip-path="url(#p1d99715f52)" d="M 546.42678 43.561763 
L 562.529887 86.335641 
L 562.529887 86.335641 
" style="fill:none;stroke:#ff00da;stroke-linecap:square;stroke-width:2;"/>
   </g>
   <g id="matplotlib.axis_1">
    <g id="xtick_1">
     <g id="line2d_30">
      <path clip-path="url(#p1d99715f52)" d="M 15.024247 87.704405 
L 15.024247 16.528672 
" style="fill:none;stroke:#000000;stroke-dasharray:0.5,0.825;stroke-dashoffset:0;stroke-width:0.5;"/>
     </g>
     <g id="line2d_31">
      <defs>
       <path d="M 0 0 
L 0 3.5 
" id="mea3092aadb" style="stroke:#000000;stroke-width:0.8;"/>
      </defs>
      <g>
       <use style="stroke:#000000;stroke-width:0.8;" x="15.024247" xlink:href="#mea3092aadb" y="86.335641"/>
      </g>
     </g>
    </g>
    <g id="xtick_2">
     <g id="line2d_32">
      <path clip-path="url(#p1d99715f52)" d="M 208.261532 87.704405 
L 208.261532 16.528672 
" style="fill:none;stroke:#000000;stroke-dasharray:0.5,0.825;stroke-dashoffset:0;stroke-width:0.5;"/>
     </g>
     <g id="line2d_33">
      <g>
       <use style="stroke:#000000;stroke-width:0.8;" x="208.261532" xlink:href="#mea3092aadb" y="86.335641"/>
      </g>
     </g>
     <g id="text_1">
      <!-- $f$ -->
      <defs>
       <path d="M 9.71875 -16.5 
Q 11.578125 -17.921875 14.203125 -17.921875 
Q 17.78125 -17.921875 20.015625 -10.015625 
Q 20.953125 -6.203125 25.09375 15.09375 
L 29.6875 39.59375 
L 21.09375 39.59375 
Q 20.125 39.59375 20.125 40.921875 
Q 20.515625 43.109375 21.390625 43.109375 
L 30.328125 43.109375 
L 31.5 49.609375 
Q 32.078125 52.640625 32.5625 54.8125 
Q 33.0625 56.984375 33.625 58.828125 
Q 34.1875 60.6875 35.296875 62.984375 
Q 37.015625 66.265625 39.921875 68.390625 
Q 42.828125 70.515625 46.1875 70.515625 
Q 48.390625 70.515625 50.46875 69.703125 
Q 52.546875 68.890625 53.859375 67.28125 
Q 55.171875 65.671875 55.171875 63.484375 
Q 55.171875 60.9375 53.484375 59.046875 
Q 51.8125 57.171875 49.421875 57.171875 
Q 47.796875 57.171875 46.65625 58.171875 
Q 45.515625 59.1875 45.515625 60.796875 
Q 45.515625 62.984375 47 64.625 
Q 48.484375 66.265625 50.6875 66.5 
Q 48.828125 67.921875 46.09375 67.921875 
Q 44.578125 67.921875 43.234375 66.5 
Q 41.890625 65.09375 41.5 63.484375 
Q 40.875 60.9375 38.71875 49.703125 
L 37.5 43.109375 
L 47.796875 43.109375 
Q 48.78125 43.109375 48.78125 41.796875 
Q 48.734375 41.546875 48.578125 40.9375 
Q 48.4375 40.328125 48.171875 39.953125 
Q 47.90625 39.59375 47.515625 39.59375 
L 36.8125 39.59375 
L 32.171875 15.1875 
Q 31.296875 9.859375 30.140625 4.359375 
Q 29 -1.125 26.921875 -6.90625 
Q 24.859375 -12.703125 21.625 -16.609375 
Q 18.40625 -20.515625 14.015625 -20.515625 
Q 10.640625 -20.515625 7.984375 -18.578125 
Q 5.328125 -16.65625 5.328125 -13.484375 
Q 5.328125 -10.9375 6.953125 -9.046875 
Q 8.59375 -7.171875 11.078125 -7.171875 
Q 12.75 -7.171875 13.859375 -8.171875 
Q 14.984375 -9.1875 14.984375 -10.796875 
Q 14.984375 -12.9375 13.390625 -14.71875 
Q 11.8125 -16.5 9.71875 -16.5 
z
" id="Cmmi10-66"/>
      </defs>
      <g transform="translate(205.811532 100.913766)scale(0.1 -0.1)">
       <use transform="translate(0 0.484375)" xlink:href="#Cmmi10-66"/>
      </g>
     </g>
    </g>
    <g id="xtick_3">
     <g id="line2d_34">
      <path clip-path="url(#p1d99715f52)" d="M 562.529887 87.704405 
L 562.529887 16.528672 
" style="fill:none;stroke:#000000;stroke-dasharray:0.5,0.825;stroke-dashoffset:0;stroke-width:0.5;"/>
     </g>
     <g id="line2d_35">
      <g>
       <use style="stroke:#000000;stroke-width:0.8;" x="562.529887" xlink:href="#mea3092aadb" y="86.335641"/>
      </g>
     </g>
     <g id="text_2">
      <!-- $1$ -->
      <defs>
       <path d="M 9.28125 0 
L 9.28125 3.515625 
Q 21.78125 3.515625 21.78125 6.6875 
L 21.78125 59.1875 
Q 16.609375 56.6875 8.6875 56.6875 
L 8.6875 60.203125 
Q 20.953125 60.203125 27.203125 66.609375 
L 28.609375 66.609375 
Q 28.953125 66.609375 29.265625 66.328125 
Q 29.59375 66.0625 29.59375 65.71875 
L 29.59375 6.6875 
Q 29.59375 3.515625 42.09375 3.515625 
L 42.09375 0 
z
" id="Cmr10-31"/>
      </defs>
      <g transform="translate(560.029887 100.934078)scale(0.1 -0.1)">
       <use transform="translate(0 0.390625)" xlink:href="#Cmr10-31"/>
      </g>
     </g>
    </g>
   </g>
   <g id="matplotlib.axis_2">
    <g id="ytick_1">
     <g id="line2d_36">
      <path clip-path="url(#p1d99715f52)" d="M 4.074135 86.335641 
L 573.48 86.335641 
" style="fill:none;stroke:#000000;stroke-dasharray:0.5,0.825;stroke-dashoffset:0;stroke-width:0.5;"/>
     </g>
     <g id="line2d_37">
      <defs>
       <path d="M 0 0 
L -3.5 0 
" id="m0c6f8f2b68" style="stroke:#000000;stroke-width:0.8;"/>
      </defs>
      <g>
       <use style="stroke:#000000;stroke-width:0.8;" x="15.024247" xlink:href="#m0c6f8f2b68" y="86.335641"/>
      </g>
     </g>
    </g>
    <g id="ytick_2">
     <g id="line2d_38">
      <path clip-path="url(#p1d99715f52)" d="M 4.074135 17.897436 
L 573.48 17.897436 
" style="fill:none;stroke:#000000;stroke-dasharray:0.5,0.825;stroke-dashoffset:0;stroke-width:0.5;"/>
     </g>
     <g id="line2d_39">
      <g>
       <use style="stroke:#000000;stroke-width:0.8;" x="15.024247" xlink:href="#m0c6f8f2b68" y="17.897436"/>
      </g>
     </g>
     <g id="text_3">
      <!-- $1$ -->
      <g transform="translate(3.024247 21.696655)scale(0.1 -0.1)">
       <use transform="translate(0 0.390625)" xlink:href="#Cmr10-31"/>
      </g>
     </g>
    </g>
   </g>
   <g id="patch_3">
    <path d="M 15.024247 87.704405 
L 15.024247 16.528672 
" style="fill:none;stroke:#000000;stroke-linecap:square;stroke-linejoin:miter;stroke-width:0.8;"/>
   </g>
   <g id="patch_4">
    <path d="M 4.074135 86.335641 
L 573.48 86.335641 
" style="fill:none;stroke:#000000;stroke-linecap:square;stroke-linejoin:miter;stroke-width:0.8;"/>
   </g>
  </g>
 </g>
 <defs>
  <clipPath id="p1d99715f52">
   <rect height="71.175733" width="569.405865" x="4.074135" y="16.528672"/>
  </clipPath>
 </defs>
</svg>
