<?xml version="1.0" encoding="utf-8" standalone="no"?>
<!DOCTYPE svg PUBLIC "-//W3C//DTD SVG 1.1//EN"
  "http://www.w3.org/Graphics/SVG/1.1/DTD/svg11.dtd">
<!-- Created with matplotlib (http://matplotlib.org/) -->
<svg height="108pt" version="1.1" viewBox="0 0 576 108" width="576pt" xmlns="http://www.w3.org/2000/svg" xmlns:xlink="http://www.w3.org/1999/xlink">
 <defs>
  <style type="text/css">
*{stroke-linecap:butt;stroke-linejoin:round;}
  </style>
 </defs>
 <g id="figure_1">
  <g id="patch_1">
   <path d="M 0 108 
L 576 108 
L 576 0 
L 0 0 
z
" style="fill:#ffffff;"/>
  </g>
  <g id="axes_1">
   <g id="patch_2">
    <path d="M 4.074135 87.704405 
L 573.48 87.704405 
L 573.48 16.528672 
L 4.074135 16.528672 
z
" style="fill:#ffffff;"/>
   </g>
   <g id="line2d_1">
    <path clip-path="url(#p40fb86b400)" d="M 256.570853 45.921701 
L 272.67396 53.5915 
L 272.67396 53.5915 
" style="fill:none;stroke:#ff0000;stroke-linecap:square;stroke-width:2;"/>
   </g>
   <g id="line2d_2">
    <path clip-path="url(#p40fb86b400)" d="M 288.777067 41.201825 
L 320.983281 56.541422 
L 320.983281 56.541422 
" style="fill:none;stroke:#ff0000;stroke-linecap:square;stroke-width:2;"/>
   </g>
   <g id="line2d_3">
    <path clip-path="url(#p40fb86b400)" d="M 337.086388 69.22609 
L 353.189496 76.895889 
L 353.189496 76.895889 
" style="fill:none;stroke:#ff0000;stroke-linecap:square;stroke-width:2;"/>
   </g>
   <g id="line2d_4">
    <path clip-path="url(#p40fb86b400)" d="M 417.601924 27.337188 
L 433.705031 35.006987 
L 433.705031 35.006987 
" style="fill:none;stroke:#ff0000;stroke-linecap:square;stroke-width:2;"/>
   </g>
   <g id="line2d_5">
    <path clip-path="url(#p40fb86b400)" d="M 449.808138 47.691655 
L 482.014352 63.031252 
L 482.014352 63.031252 
" style="fill:none;stroke:#ff0000;stroke-linecap:square;stroke-width:2;"/>
   </g>
   <g id="line2d_6">
    <path clip-path="url(#p40fb86b400)" d="M 498.117459 50.641577 
L 514.220566 58.311376 
L 514.220566 58.311376 
" style="fill:none;stroke:#ff0000;stroke-linecap:square;stroke-width:2;"/>
   </g>
   <g id="line2d_7">
    <path clip-path="url(#p40fb86b400)" d="M 272.67396 53.5915 
L 288.777067 41.201825 
L 288.777067 41.201825 
" style="fill:none;stroke:#ffda00;stroke-linecap:square;stroke-width:2;"/>
   </g>
   <g id="line2d_8">
    <path clip-path="url(#p40fb86b400)" d="M 353.189496 76.895889 
L 417.601924 27.337188 
L 417.601924 27.337188 
" style="fill:none;stroke:#ffda00;stroke-linecap:square;stroke-width:2;"/>
   </g>
   <g id="line2d_9">
    <path clip-path="url(#p40fb86b400)" d="M 482.014352 63.031252 
L 498.117459 50.641577 
L 498.117459 50.641577 
" style="fill:none;stroke:#ffda00;stroke-linecap:square;stroke-width:2;"/>
   </g>
   <g id="line2d_10">
    <path clip-path="url(#p40fb86b400)" d="M 95.539783 39.431871 
L 127.745997 64.801206 
L 127.745997 64.801206 
" style="fill:none;stroke:#48ff00;stroke-linecap:square;stroke-width:2;"/>
   </g>
   <g id="line2d_11">
    <path clip-path="url(#p40fb86b400)" d="M 320.983281 56.541422 
L 337.086388 69.22609 
L 337.086388 69.22609 
" style="fill:none;stroke:#48ff00;stroke-linecap:square;stroke-width:2;"/>
   </g>
   <g id="line2d_12">
    <path clip-path="url(#p40fb86b400)" d="M 433.705031 35.006987 
L 449.808138 47.691655 
L 449.808138 47.691655 
" style="fill:none;stroke:#48ff00;stroke-linecap:square;stroke-width:2;"/>
   </g>
   <g id="line2d_13">
    <path clip-path="url(#p40fb86b400)" d="M 79.436676 36.776941 
L 95.539783 39.431871 
L 95.539783 39.431871 
" style="fill:none;stroke:#00ff91;stroke-linecap:square;stroke-width:2;"/>
   </g>
   <g id="line2d_14">
    <path clip-path="url(#p40fb86b400)" d="M 127.745997 64.801206 
L 143.849104 67.456136 
L 143.849104 67.456136 
" style="fill:none;stroke:#00ff91;stroke-linecap:square;stroke-width:2;"/>
   </g>
   <g id="line2d_15">
    <path clip-path="url(#p40fb86b400)" d="M 240.467746 43.266771 
L 256.570853 45.921701 
L 256.570853 45.921701 
" style="fill:none;stroke:#00ff91;stroke-linecap:square;stroke-width:2;"/>
   </g>
   <g id="line2d_16">
    <path clip-path="url(#p40fb86b400)" d="M 514.220566 58.311376 
L 514.340548 58.331157 
L 514.411554 58.342864 
L 514.45827 58.350566 
L 514.520315 58.360796 
L 514.659544 58.383751 
L 514.716948 58.393215 
L 514.773027 58.402461 
L 514.882697 58.420542 
L 514.940228 58.430027 
L 515.006066 58.440882 
L 515.095232 58.455583 
L 515.208284 58.474222 
L 515.275983 58.485383 
L 515.360946 58.499391 
L 515.445807 58.513382 
L 515.49693 58.521811 
L 515.571367 58.534084 
L 515.653319 58.547595 
L 515.770298 58.566881 
L 515.867186 58.582855 
L 515.930999 58.593376 
L 515.976755 58.60092 
L 516.103546 58.621824 
L 516.178104 58.634117 
L 516.230216 58.642708 
L 516.314139 58.656545 
L 516.423642 58.674599 
L 516.452261 58.679317 
L 516.575609 58.699653 
L 516.608856 58.705135 
L 516.729743 58.725066 
L 516.793557 58.735587 
L 516.887576 58.751088 
L 516.961865 58.763336 
L 517.063919 58.780161 
L 517.116561 58.788841 
L 517.178085 58.798984 
L 517.320174 58.822411 
L 517.358898 58.828795 
L 517.492898 58.850888 
L 517.548007 58.859973 
L 517.585405 58.866139 
L 517.722989 58.888823 
L 517.788724 58.899661 
L 517.879975 58.914705 
L 517.909111 58.919509 
L 518.035562 58.940357 
L 518.105379 58.951868 
L 518.220796 58.970897 
L 518.258391 58.977095 
L 518.376973 58.996646 
L 518.441849 59.007342 
L 518.50814 59.018271 
L 518.554115 59.025851 
L 518.656052 59.042658 
L 518.786565 59.064175 
L 518.826317 59.070729 
L 518.948032 59.090797 
L 518.985026 59.096896 
L 519.03756 59.105557 
L 519.164681 59.126516 
L 519.255841 59.141545 
L 519.331626 59.15404 
L 519.425835 59.169572 
L 519.465188 59.17606 
L 519.594524 59.197384 
L 519.628378 59.202966 
L 519.69088 59.21327 
L 519.782445 59.228367 
L 519.84972 59.239458 
L 519.947906 59.255646 
L 520.087015 59.278581 
L 520.103615 59.281318 
L 520.21543 59.299753 
L 520.27038 59.308813 
" style="fill:none;stroke:#00ff91;stroke-linecap:square;stroke-width:2;"/>
   </g>
   <g id="line2d_17">
    <path clip-path="url(#p40fb86b400)" d="M 520.551662 59.355188 
L 520.645997 59.370741 
L 520.655726 59.372345 
L 520.763763 59.390157 
L 520.893357 59.411524 
L 520.914372 59.414988 
L 521.014935 59.431568 
L 521.105831 59.446554 
L 521.169043 59.456976 
L 521.222082 59.465721 
L 521.381256 59.491964 
L 521.417605 59.497957 
L 521.463318 59.505493 
L 521.613515 59.530257 
L 521.629895 59.532957 
L 521.716185 59.547184 
L 521.793416 59.559917 
L 521.902065 59.57783 
L 521.989641 59.592269 
L 522.033192 59.599449 
L 522.145248 59.617924 
L 522.24927 59.635074 
L 522.31511 59.645929 
L 522.412529 59.661991 
L 522.435476 59.665774 
L 522.579225 59.689474 
L 522.636594 59.698932 
L 522.695407 59.708629 
L 522.818391 59.728905 
L 522.858108 59.735453 
L 522.998409 59.758585 
L 523.035058 59.764627 
L 523.09079 59.773816 
L 523.186552 59.789604 
L 523.298329 59.808033 
L 523.387565 59.822745 
L 523.472523 59.836752 
L 523.545419 59.848771 
L 523.646281 59.8654 
L 523.694572 59.873362 
L 523.787656 59.888709 
L 523.85613 59.899998 
L 523.953584 59.916065 
L 523.981664 59.920695 
L 524.062098 59.933956 
L 524.204783 59.957481 
L 524.262339 59.96697 
L 524.371196 59.984917 
L 524.395336 59.988897 
L 524.485642 60.003786 
L 524.602718 60.023089 
L 524.694989 60.038301 
L 524.740024 60.045726 
L 524.849965 60.063852 
L 524.865543 60.066421 
L 525.016786 60.091356 
L 525.098957 60.104904 
L 525.185118 60.119109 
L 525.255622 60.130733 
L 525.272055 60.133443 
L 525.421548 60.15809 
L 525.489899 60.169359 
L 525.580143 60.184237 
L 525.631913 60.192773 
L 525.743677 60.211199 
L 525.831664 60.225706 
L 525.850462 60.228805 
L 525.964184 60.247554 
L 526.071296 60.265214 
L 526.140061 60.276551 
L 526.184169 60.283823 
L 526.286899 60.300761 
L 526.368226 60.314169 
L 526.454432 60.328382 
L 526.533421 60.341405 
L 526.613884 60.354671 
L 526.666712 60.363381 
L 526.790781 60.383836 
L 526.806011 60.386347 
L 526.890696 60.400309 
L 527.010726 60.420098 
L 527.050678 60.426685 
L 527.183754 60.448626 
L 527.270136 60.462868 
L 527.312798 60.469901 
L 527.399064 60.484124 
L 527.462431 60.494571 
L 527.593059 60.516108 
L 527.632187 60.522559 
L 527.724789 60.537826 
L 527.850333 60.558525 
L 527.926948 60.571157 
L 527.962038 60.576942 
L 528.092454 60.598444 
L 528.149264 60.60781 
L 528.181177 60.613071 
L 528.298296 60.632381 
L 528.395654 60.648432 
L 528.467103 60.660212 
L 528.566975 60.676678 
L 528.584914 60.679636 
L 528.670483 60.693744 
L 528.804032 60.715762 
L 528.828295 60.719762 
L 528.926373 60.735932 
L 529.026581 60.752454 
L 529.092466 60.763316 
L 529.172057 60.776439 
L 529.261777 60.791231 
L 529.343956 60.80478 
L 529.430725 60.819085 
L 529.510397 60.832221 
L 529.574305 60.842757 
L 529.694957 60.86265 
L 529.783124 60.877186 
L 529.866446 60.890923 
L 529.888908 60.894626 
L 529.960135 60.90637 
L 530.094665 60.92855 
L 530.126127 60.933737 
L 530.247731 60.953786 
L 530.323673 60.966306 
" style="fill:none;stroke:#00ff91;stroke-linecap:square;stroke-width:2;"/>
   </g>
   <g id="line2d_18">
    <path clip-path="url(#p40fb86b400)" d="M 31.127354 68.931097 
L 47.230462 61.556291 
L 47.230462 61.556291 
" style="fill:none;stroke:#0091ff;stroke-linecap:square;stroke-width:2;"/>
   </g>
   <g id="line2d_19">
    <path clip-path="url(#p40fb86b400)" d="M 63.333569 44.151747 
L 79.436676 36.776941 
L 79.436676 36.776941 
" style="fill:none;stroke:#0091ff;stroke-linecap:square;stroke-width:2;"/>
   </g>
   <g id="line2d_20">
    <path clip-path="url(#p40fb86b400)" d="M 143.849104 67.456136 
L 159.952211 60.08133 
L 159.952211 60.08133 
" style="fill:none;stroke:#0091ff;stroke-linecap:square;stroke-width:2;"/>
   </g>
   <g id="line2d_21">
    <path clip-path="url(#p40fb86b400)" d="M 176.055318 42.676786 
L 192.158425 35.301979 
L 192.158425 35.301979 
" style="fill:none;stroke:#0091ff;stroke-linecap:square;stroke-width:2;"/>
   </g>
   <g id="line2d_22">
    <path clip-path="url(#p40fb86b400)" d="M 15.024247 86.335641 
L 31.127354 68.931097 
L 31.127354 68.931097 
" style="fill:none;stroke:#4800ff;stroke-linecap:square;stroke-width:2;"/>
   </g>
   <g id="line2d_23">
    <path clip-path="url(#p40fb86b400)" d="M 47.230462 61.556291 
L 63.333569 44.151747 
L 63.333569 44.151747 
" style="fill:none;stroke:#4800ff;stroke-linecap:square;stroke-width:2;"/>
   </g>
   <g id="line2d_24">
    <path clip-path="url(#p40fb86b400)" d="M 159.952211 60.08133 
L 176.055318 42.676786 
L 176.055318 42.676786 
" style="fill:none;stroke:#4800ff;stroke-linecap:square;stroke-width:2;"/>
   </g>
   <g id="line2d_25">
    <path clip-path="url(#p40fb86b400)" d="M 192.158425 35.301979 
L 208.261532 17.897436 
L 208.261532 17.897436 
" style="fill:none;stroke:#4800ff;stroke-linecap:square;stroke-width:2;"/>
   </g>
   <g id="line2d_26">
    <path clip-path="url(#p40fb86b400)" d="M 224.364639 60.671314 
L 240.467746 43.266771 
L 240.467746 43.266771 
" style="fill:none;stroke:#4800ff;stroke-linecap:square;stroke-width:2;"/>
   </g>
   <g id="line2d_27">
    <path clip-path="url(#p40fb86b400)" d="M 530.323673 60.966306 
L 530.43873 60.841951 
L 530.515094 60.759415 
L 530.570027 60.700042 
L 530.636951 60.627709 
L 530.737536 60.518995 
L 530.813396 60.437005 
L 530.87955 60.365504 
L 530.952689 60.286454 
L 531.031403 60.201378 
L 531.099188 60.128115 
L 531.218694 59.998951 
L 531.258819 59.955583 
L 531.385245 59.818939 
L 531.472784 59.724325 
L 531.500741 59.694109 
L 531.643414 59.539905 
L 531.686511 59.493325 
L 531.789148 59.382393 
L 531.845888 59.321067 
L 531.934296 59.225515 
L 532.030635 59.121389 
L 532.098053 59.048523 
L 532.146497 58.996164 
L 532.243378 58.891453 
L 532.367662 58.757124 
L 532.457896 58.659598 
L 532.524113 58.58803 
L 532.571816 58.536471 
L 532.679037 58.420584 
L 532.737726 58.357152 
L 532.86778 58.216587 
L 532.936637 58.142165 
L 533.026855 58.044656 
L 533.103844 57.961445 
L 533.185042 57.873684 
L 533.209332 57.847431 
L 533.306786 57.742101 
L 533.359663 57.684951 
L 533.510518 57.521904 
L 533.528904 57.502032 
L 533.623934 57.399321 
L 533.757956 57.254469 
L 533.803548 57.205191 
L 533.880207 57.122337 
L 533.971691 57.023459 
L 534.057708 56.93049 
L 534.09902 56.88584 
L 534.224248 56.750491 
L 534.248948 56.723795 
L 534.33416 56.631696 
L 534.454522 56.501607 
L 534.562042 56.385397 
L 534.6394 56.301787 
L 534.715529 56.219505 
L 534.734393 56.199117 
L 534.870867 56.051613 
L 534.934842 55.982467 
L 535.055804 55.851729 
L 535.097347 55.80683 
L 535.214913 55.679761 
L 535.244027 55.648294 
L 535.3553 55.528028 
L 535.410962 55.467868 
L 535.467827 55.406407 
L 535.543214 55.324928 
L 535.659544 55.199195 
L 535.751629 55.099669 
L 535.833923 55.010724 
L 535.871308 54.970318 
L 536.024807 54.804413 
L 536.104443 54.71834 
L 536.189095 54.626847 
L 536.227151 54.585715 
L 536.333901 54.470339 
L 536.355075 54.447453 
L 536.467279 54.326181 
L 536.530481 54.257871 
L 536.606867 54.175311 
L 536.693963 54.081177 
L 536.815645 53.94966 
L 536.888002 53.871455 
L 536.928525 53.827657 
L 536.99971 53.750719 
L 537.100762 53.6415 
L 537.205519 53.528277 
L 537.258455 53.471063 
L 537.36162 53.35956 
L 537.448838 53.265293 
L 537.538523 53.168359 
L 537.62647 53.073305 
L 537.665583 53.031031 
L 537.732984 52.958183 
L 537.860491 52.820371 
L 537.914321 52.76219 
L 538.031991 52.635011 
L 538.059569 52.605203 
L 538.135291 52.523362 
L 538.249644 52.399766 
L 538.367965 52.271883 
L 538.396734 52.240789 
L 538.505502 52.12323 
L 538.585485 52.036783 
L 538.693646 51.919881 
L 538.767613 51.839936 
L 538.841991 51.759546 
L 538.919644 51.675618 
L 538.981074 51.609223 
L 539.02393 51.562903 
L 539.107137 51.472972 
L 539.189066 51.384422 
L 539.31391 51.249488 
L 539.373428 51.18516 
L 539.460654 51.090884 
L 539.534204 51.01139 
L 539.643134 50.893656 
L 539.719687 50.810916 
L 539.802617 50.721284 
L 539.8777 50.640133 
L 539.972488 50.537684 
" style="fill:none;stroke:#4800ff;stroke-linecap:square;stroke-width:2;"/>
   </g>
   <g id="line2d_28">
    <path clip-path="url(#p40fb86b400)" d="M 540.233074 50.256038 
L 540.262439 50.224299 
L 540.377678 50.099747 
L 540.399185 50.076503 
L 540.503459 49.963801 
L 540.571246 49.890535 
L 540.688812 49.763467 
L 540.727825 49.721301 
L 540.878079 49.558904 
L 540.893775 49.54194 
L 541.006479 49.420127 
L 541.094095 49.32543 
L 541.146818 49.268446 
L 541.232962 49.17534 
L 541.347752 49.051272 
L 541.439953 48.951621 
L 541.50011 48.886601 
L 541.558892 48.823069 
L 541.646926 48.72792 
L 541.765759 48.599483 
L 541.817425 48.543641 
L 541.899294 48.455156 
L 541.97132 48.377309 
L 542.04271 48.300149 
L 542.138022 48.197134 
L 542.184009 48.14743 
L 542.298486 48.023701 
L 542.420488 47.89184 
L 542.433531 47.877743 
L 542.527013 47.776705 
L 542.64572 47.648404 
L 542.706008 47.583244 
L 542.782969 47.500063 
L 542.902063 47.371344 
L 542.954677 47.314478 
L 543.012498 47.251984 
L 543.114345 47.141906 
L 543.163061 47.089253 
L 543.275424 46.967809 
L 543.361088 46.875221 
L 543.429781 46.800977 
L 543.541648 46.680068 
L 543.616702 46.598948 
L 543.704221 46.504357 
L 543.721685 46.485481 
L 543.834378 46.36368 
L 543.915498 46.276004 
L 543.961162 46.22665 
L 544.061781 46.117898 
L 544.182678 45.987231 
L 544.270437 45.892379 
L 544.310805 45.848749 
L 544.416469 45.734545 
L 544.485158 45.660305 
L 544.572116 45.566319 
L 544.679679 45.450063 
L 544.728947 45.396814 
L 544.772425 45.349821 
L 544.886492 45.226535 
L 545.00157 45.102157 
L 545.039306 45.061371 
L 545.099006 44.996847 
L 545.246193 44.837763 
L 545.332493 44.744489 
L 545.397258 44.67449 
L 545.443656 44.624342 
L 545.516635 44.545465 
L 545.588217 44.468098 
L 545.695776 44.351846 
L 545.774722 44.26652 
L 545.880383 44.152319 
L 545.956489 44.070062 
L 546.011529 44.010574 
L 546.087052 43.928948 
L 546.170901 43.838322 
L 546.272378 43.728644 
L 546.371933 43.621042 
L 546.42678 43.561763 
" style="fill:none;stroke:#4800ff;stroke-linecap:square;stroke-width:2;"/>
   </g>
   <g id="line2d_29">
    <path clip-path="url(#p40fb86b400)" d="M 208.261532 17.897436 
L 224.364639 60.671314 
L 224.364639 60.671314 
" style="fill:none;stroke:#ff00da;stroke-linecap:square;stroke-width:2;"/>
   </g>
   <g id="line2d_30">
    <path clip-path="url(#p40fb86b400)" d="M 546.42678 43.561763 
L 562.529887 86.335641 
L 562.529887 86.335641 
" style="fill:none;stroke:#ff00da;stroke-linecap:square;stroke-width:2;"/>
   </g>
   <g id="matplotlib.axis_1">
    <g id="xtick_1">
     <g id="line2d_31">
      <path clip-path="url(#p40fb86b400)" d="M 15.024247 87.704405 
L 15.024247 16.528672 
" style="fill:none;stroke:#000000;stroke-dasharray:0.5,0.825;stroke-dashoffset:0;stroke-width:0.5;"/>
     </g>
     <g id="line2d_32">
      <defs>
       <path d="M 0 0 
L 0 3.5 
" id="mf6e6808e3f" style="stroke:#000000;stroke-width:0.8;"/>
      </defs>
      <g>
       <use style="stroke:#000000;stroke-width:0.8;" x="15.024247" xlink:href="#mf6e6808e3f" y="86.335641"/>
      </g>
     </g>
    </g>
    <g id="xtick_2">
     <g id="line2d_33">
      <path clip-path="url(#p40fb86b400)" d="M 208.261532 87.704405 
L 208.261532 16.528672 
" style="fill:none;stroke:#000000;stroke-dasharray:0.5,0.825;stroke-dashoffset:0;stroke-width:0.5;"/>
     </g>
     <g id="line2d_34">
      <g>
       <use style="stroke:#000000;stroke-width:0.8;" x="208.261532" xlink:href="#mf6e6808e3f" y="86.335641"/>
      </g>
     </g>
     <g id="text_1">
      <!-- $f$ -->
      <defs>
       <path d="M 9.71875 -16.5 
Q 11.578125 -17.921875 14.203125 -17.921875 
Q 17.78125 -17.921875 20.015625 -10.015625 
Q 20.953125 -6.203125 25.09375 15.09375 
L 29.6875 39.59375 
L 21.09375 39.59375 
Q 20.125 39.59375 20.125 40.921875 
Q 20.515625 43.109375 21.390625 43.109375 
L 30.328125 43.109375 
L 31.5 49.609375 
Q 32.078125 52.640625 32.5625 54.8125 
Q 33.0625 56.984375 33.625 58.828125 
Q 34.1875 60.6875 35.296875 62.984375 
Q 37.015625 66.265625 39.921875 68.390625 
Q 42.828125 70.515625 46.1875 70.515625 
Q 48.390625 70.515625 50.46875 69.703125 
Q 52.546875 68.890625 53.859375 67.28125 
Q 55.171875 65.671875 55.171875 63.484375 
Q 55.171875 60.9375 53.484375 59.046875 
Q 51.8125 57.171875 49.421875 57.171875 
Q 47.796875 57.171875 46.65625 58.171875 
Q 45.515625 59.1875 45.515625 60.796875 
Q 45.515625 62.984375 47 64.625 
Q 48.484375 66.265625 50.6875 66.5 
Q 48.828125 67.921875 46.09375 67.921875 
Q 44.578125 67.921875 43.234375 66.5 
Q 41.890625 65.09375 41.5 63.484375 
Q 40.875 60.9375 38.71875 49.703125 
L 37.5 43.109375 
L 47.796875 43.109375 
Q 48.78125 43.109375 48.78125 41.796875 
Q 48.734375 41.546875 48.578125 40.9375 
Q 48.4375 40.328125 48.171875 39.953125 
Q 47.90625 39.59375 47.515625 39.59375 
L 36.8125 39.59375 
L 32.171875 15.1875 
Q 31.296875 9.859375 30.140625 4.359375 
Q 29 -1.125 26.921875 -6.90625 
Q 24.859375 -12.703125 21.625 -16.609375 
Q 18.40625 -20.515625 14.015625 -20.515625 
Q 10.640625 -20.515625 7.984375 -18.578125 
Q 5.328125 -16.65625 5.328125 -13.484375 
Q 5.328125 -10.9375 6.953125 -9.046875 
Q 8.59375 -7.171875 11.078125 -7.171875 
Q 12.75 -7.171875 13.859375 -8.171875 
Q 14.984375 -9.1875 14.984375 -10.796875 
Q 14.984375 -12.9375 13.390625 -14.71875 
Q 11.8125 -16.5 9.71875 -16.5 
z
" id="Cmmi10-66"/>
      </defs>
      <g transform="translate(205.811532 100.913766)scale(0.1 -0.1)">
       <use transform="translate(0 0.484375)" xlink:href="#Cmmi10-66"/>
      </g>
     </g>
    </g>
    <g id="xtick_3">
     <g id="line2d_35">
      <path clip-path="url(#p40fb86b400)" d="M 562.529887 87.704405 
L 562.529887 16.528672 
" style="fill:none;stroke:#000000;stroke-dasharray:0.5,0.825;stroke-dashoffset:0;stroke-width:0.5;"/>
     </g>
     <g id="line2d_36">
      <g>
       <use style="stroke:#000000;stroke-width:0.8;" x="562.529887" xlink:href="#mf6e6808e3f" y="86.335641"/>
      </g>
     </g>
     <g id="text_2">
      <!-- $1$ -->
      <defs>
       <path d="M 9.28125 0 
L 9.28125 3.515625 
Q 21.78125 3.515625 21.78125 6.6875 
L 21.78125 59.1875 
Q 16.609375 56.6875 8.6875 56.6875 
L 8.6875 60.203125 
Q 20.953125 60.203125 27.203125 66.609375 
L 28.609375 66.609375 
Q 28.953125 66.609375 29.265625 66.328125 
Q 29.59375 66.0625 29.59375 65.71875 
L 29.59375 6.6875 
Q 29.59375 3.515625 42.09375 3.515625 
L 42.09375 0 
z
" id="Cmr10-31"/>
      </defs>
      <g transform="translate(560.029887 100.934078)scale(0.1 -0.1)">
       <use transform="translate(0 0.390625)" xlink:href="#Cmr10-31"/>
      </g>
     </g>
    </g>
   </g>
   <g id="matplotlib.axis_2">
    <g id="ytick_1">
     <g id="line2d_37">
      <path clip-path="url(#p40fb86b400)" d="M 4.074135 86.335641 
L 573.48 86.335641 
" style="fill:none;stroke:#000000;stroke-dasharray:0.5,0.825;stroke-dashoffset:0;stroke-width:0.5;"/>
     </g>
     <g id="line2d_38">
      <defs>
       <path d="M 0 0 
L -3.5 0 
" id="mec0558b2a7" style="stroke:#000000;stroke-width:0.8;"/>
      </defs>
      <g>
       <use style="stroke:#000000;stroke-width:0.8;" x="15.024247" xlink:href="#mec0558b2a7" y="86.335641"/>
      </g>
     </g>
    </g>
    <g id="ytick_2">
     <g id="line2d_39">
      <path clip-path="url(#p40fb86b400)" d="M 4.074135 17.897436 
L 573.48 17.897436 
" style="fill:none;stroke:#000000;stroke-dasharray:0.5,0.825;stroke-dashoffset:0;stroke-width:0.5;"/>
     </g>
     <g id="line2d_40">
      <g>
       <use style="stroke:#000000;stroke-width:0.8;" x="15.024247" xlink:href="#mec0558b2a7" y="17.897436"/>
      </g>
     </g>
     <g id="text_3">
      <!-- $1$ -->
      <g transform="translate(3.024247 21.696655)scale(0.1 -0.1)">
       <use transform="translate(0 0.390625)" xlink:href="#Cmr10-31"/>
      </g>
     </g>
    </g>
   </g>
   <g id="patch_3">
    <path d="M 15.024247 87.704405 
L 15.024247 16.528672 
" style="fill:none;stroke:#000000;stroke-linecap:square;stroke-linejoin:miter;stroke-width:0.8;"/>
   </g>
   <g id="patch_4">
    <path d="M 4.074135 86.335641 
L 573.48 86.335641 
" style="fill:none;stroke:#000000;stroke-linecap:square;stroke-linejoin:miter;stroke-width:0.8;"/>
   </g>
  </g>
 </g>
 <defs>
  <clipPath id="p40fb86b400">
   <rect height="71.175733" width="569.405865" x="4.074135" y="16.528672"/>
  </clipPath>
 </defs>
</svg>
