<?xml version="1.0" encoding="utf-8" standalone="no"?>
<!DOCTYPE svg PUBLIC "-//W3C//DTD SVG 1.1//EN"
  "http://www.w3.org/Graphics/SVG/1.1/DTD/svg11.dtd">
<!-- Created with matplotlib (http://matplotlib.org/) -->
<svg height="108pt" version="1.1" viewBox="0 0 576 108" width="576pt" xmlns="http://www.w3.org/2000/svg" xmlns:xlink="http://www.w3.org/1999/xlink">
 <defs>
  <style type="text/css">
*{stroke-linecap:butt;stroke-linejoin:round;}
  </style>
 </defs>
 <g id="figure_1">
  <g id="patch_1">
   <path d="M 0 108 
L 576 108 
L 576 0 
L 0 0 
z
" style="fill:#ffffff;"/>
  </g>
  <g id="axes_1">
   <g id="patch_2">
    <path d="M 4.074135 87.704405 
L 573.48 87.704405 
L 573.48 16.528672 
L 4.074135 16.528672 
z
" style="fill:#ffffff;"/>
   </g>
   <g id="line2d_1">
    <path clip-path="url(#pd1189e873c)" d="M 58.824699 69.22609 
L 146.425601 35.006987 
L 146.425601 35.006987 
" style="fill:none;stroke:#ff0000;stroke-linecap:square;stroke-width:2;"/>
   </g>
   <g id="line2d_2">
    <path clip-path="url(#pd1189e873c)" d="M 234.026503 72.077682 
L 255.926729 57.58209 
L 255.926729 57.58209 
" style="fill:none;stroke:#ffff00;stroke-linecap:square;stroke-width:2;"/>
   </g>
   <g id="line2d_3">
    <path clip-path="url(#pd1189e873c)" d="M 277.826955 60.908947 
L 299.72718 46.413355 
L 299.72718 46.413355 
" style="fill:none;stroke:#ffff00;stroke-linecap:square;stroke-width:2;"/>
   </g>
   <g id="line2d_4">
    <path clip-path="url(#pd1189e873c)" d="M 453.028759 57.819722 
L 474.928985 43.32413 
L 474.928985 43.32413 
" style="fill:none;stroke:#ffff00;stroke-linecap:square;stroke-width:2;"/>
   </g>
   <g id="line2d_5">
    <path clip-path="url(#pd1189e873c)" d="M 496.82921 46.650987 
L 496.993431 46.542291 
L 497.032548 46.5164 
L 497.105493 46.468118 
L 497.218202 46.393517 
L 497.341134 46.312149 
L 497.442874 46.244808 
L 497.644985 46.111033 
L 497.660705 46.100627 
L 497.874428 45.959166 
L 497.943085 45.913722 
L 498.005948 45.872114 
L 498.1821 45.75552 
L 498.221227 45.729622 
L 498.320614 45.663838 
L 498.509414 45.538873 
L 498.632986 45.457082 
L 498.667522 45.434223 
L 498.856133 45.309383 
L 498.894179 45.2842 
L 499.083473 45.158908 
L 499.117696 45.136256 
L 499.243364 45.053078 
L 499.318557 45.003308 
L 499.434738 44.926408 
L 499.570951 44.83625 
L 499.708025 44.745522 
L 499.843282 44.655997 
L 499.867723 44.639819 
L 499.978508 44.566491 
L 500.07842 44.500361 
L 500.200768 44.419379 
L 500.36289 44.312072 
L 500.491813 44.226739 
L 500.517184 44.209946 
L 500.694876 44.092333 
L 500.780468 44.03568 
L 500.908337 43.951045 
L 501.064989 43.847358 
L 501.085612 43.833708 
L 501.177811 43.772682 
L 501.381349 43.637961 
L 501.414806 43.615817 
L 501.568153 43.514318 
L 501.723866 43.411252 
L 501.753592 43.391577 
L 501.85352 43.325435 
L 502.034791 43.205453 
L 502.140486 43.135494 
L 502.268867 43.05052 
L 502.30697 43.0253 
L 502.422516 42.948821 
L 502.578514 42.845567 
L 502.629319 42.81194 
L 502.724737 42.748783 
L 502.873925 42.650037 
L 503.018467 42.554366 
L 503.080288 42.513447 
L 503.249582 42.401392 
L 503.368914 42.322407 
L 503.465092 42.258748 
L 503.510667 42.228582 
L 503.644207 42.140193 
L 503.786684 42.045888 
L 503.925365 41.954097 
L 503.988624 41.912226 
L 504.097277 41.84031 
L 504.158813 41.799579 
L 504.347948 41.674392 
L 504.457336 41.601989 
L 504.581217 41.519993 
L 504.606378 41.50334 
L 504.770043 41.395011 
L 504.819198 41.362476 
L 504.991846 41.248201 
L 505.087321 41.185007 
L 505.156503 41.139216 
L 505.269217 41.064611 
L 505.434818 40.955002 
L 505.541477 40.884405 
L 505.603327 40.843467 
L 505.760508 40.73943 
L 505.851574 40.679154 
L 505.950869 40.613431 
L 506.116767 40.503624 
L 506.218622 40.436208 
L 506.294296 40.38612 
L 506.359115 40.343216 
L 506.471499 40.26883 
L 506.644872 40.154076 
L 506.769914 40.071312 
L 506.88736 39.993575 
" style="fill:none;stroke:#ffff00;stroke-linecap:square;stroke-width:2;"/>
   </g>
   <g id="line2d_6">
    <path clip-path="url(#pd1189e873c)" d="M 507.208295 39.78115 
L 507.272462 39.738679 
L 507.430518 39.634063 
L 507.540417 39.561321 
L 507.622233 39.507168 
L 507.719559 39.442749 
L 507.860655 39.349359 
L 507.917634 39.311644 
L 508.022092 39.242505 
L 508.148144 39.159072 
L 508.269597 39.078683 
L 508.339529 39.032395 
L 508.450236 38.959119 
L 508.655618 38.823178 
L 508.755178 38.75728 
L 508.87213 38.679871 
L 508.982205 38.607013 
L 509.029215 38.575898 
L 509.176026 38.478725 
L 509.226992 38.444991 
L 509.373702 38.347884 
L 509.537601 38.239401 
L 509.632795 38.176393 
L 509.726184 38.114579 
L 509.764903 38.088951 
L 509.967918 37.954577 
L 510.009076 37.927335 
L 510.162562 37.825744 
L 510.283177 37.745909 
L 510.317722 37.723045 
L 510.482471 37.613998 
L 510.631536 37.515334 
L 510.663611 37.494103 
L 510.827365 37.385716 
L 510.946788 37.30667 
L 511.063621 37.22934 
L 511.168212 37.160111 
L 511.232393 37.117631 
L 511.392744 37.011495 
L 511.428049 36.988128 
L 511.570002 36.89417 
L 511.730676 36.787821 
L 511.818748 36.729527 
L 511.85508 36.705479 
L 512.031936 36.58842 
L 512.075647 36.559488 
L 512.266343 36.433267 
L 512.385837 36.354175 
L 512.457747 36.306579 
L 512.595027 36.215714 
L 512.653204 36.177207 
L 512.835339 36.056653 
L 512.90579 36.010022 
L 513.059278 35.90843 
L 513.095697 35.884324 
L 513.236446 35.791163 
L 513.379277 35.696625 
L 513.412621 35.674555 
L 513.607674 35.54545 
L 513.706616 35.479961 
L 513.737961 35.459215 
L 513.904231 35.349161 
L 514.01323 35.277016 
L 514.151075 35.185777 
L 514.23495 35.130261 
L 514.324735 35.070833 
L 514.430701 35.000695 
L 514.530558 34.934601 
L 514.658426 34.849966 
L 514.802988 34.754281 
L 514.865079 34.713183 
L 514.986872 34.63257 
L 515.099792 34.557829 
L 515.215729 34.481091 
L 515.365318 34.382079 
L 515.448323 34.327139 
L 515.529344 34.273512 
L 515.693594 34.164796 
L 515.726568 34.142971 
L 515.900927 34.027564 
L 515.951075 33.994371 
L 516.108751 33.890007 
L 516.162469 33.854451 
L 516.320795 33.749656 
L 516.385548 33.706797 
L 516.579442 33.57846 
L 516.671963 33.517221 
L 516.761607 33.457886 
L 516.842755 33.404175 
L 516.999744 33.300265 
L 517.095172 33.237102 
L 517.187905 33.175723 
L 517.309515 33.09523 
L 517.438507 33.009851 
L 517.464874 32.992399 
L 517.61657 32.891993 
L 517.74106 32.809594 
L 517.811888 32.762714 
L 518.007736 32.633083 
L 518.072001 32.590547 
L 518.222312 32.491057 
L 518.3318 32.418588 
L 518.439749 32.347137 
L 518.533179 32.285297 
L 518.571695 32.259803 
L 518.729436 32.155395 
" style="fill:none;stroke:#ffff00;stroke-linecap:square;stroke-width:2;"/>
   </g>
   <g id="line2d_7">
    <path clip-path="url(#pd1189e873c)" d="M 190.226052 17.897436 
L 212.126278 68.750824 
L 212.126278 68.750824 
" style="fill:none;stroke:#00ff00;stroke-linecap:square;stroke-width:2;"/>
   </g>
   <g id="line2d_8">
    <path clip-path="url(#pd1189e873c)" d="M 540.629662 35.482253 
L 562.529887 86.335641 
L 562.529887 86.335641 
" style="fill:none;stroke:#00ff00;stroke-linecap:square;stroke-width:2;"/>
   </g>
   <g id="line2d_9">
    <path clip-path="url(#pd1189e873c)" d="M 36.924473 54.0176 
L 58.824699 69.22609 
L 58.824699 69.22609 
" style="fill:none;stroke:#00ffff;stroke-linecap:square;stroke-width:2;"/>
   </g>
   <g id="line2d_10">
    <path clip-path="url(#pd1189e873c)" d="M 146.425601 35.006987 
L 168.325827 50.215477 
L 168.325827 50.215477 
" style="fill:none;stroke:#00ffff;stroke-linecap:square;stroke-width:2;"/>
   </g>
   <g id="line2d_11">
    <path clip-path="url(#pd1189e873c)" d="M 343.527631 53.067069 
L 365.427857 68.275559 
L 365.427857 68.275559 
" style="fill:none;stroke:#00ffff;stroke-linecap:square;stroke-width:2;"/>
   </g>
   <g id="line2d_12">
    <path clip-path="url(#pd1189e873c)" d="M 387.328082 35.957518 
L 409.228308 51.166008 
L 409.228308 51.166008 
" style="fill:none;stroke:#00ffff;stroke-linecap:square;stroke-width:2;"/>
   </g>
   <g id="line2d_13">
    <path clip-path="url(#pd1189e873c)" d="M 15.024247 86.335641 
L 36.924473 54.0176 
L 36.924473 54.0176 
" style="fill:none;stroke:#0000ff;stroke-linecap:square;stroke-width:2;"/>
   </g>
   <g id="line2d_14">
    <path clip-path="url(#pd1189e873c)" d="M 168.325827 50.215477 
L 190.226052 17.897436 
L 190.226052 17.897436 
" style="fill:none;stroke:#0000ff;stroke-linecap:square;stroke-width:2;"/>
   </g>
   <g id="line2d_15">
    <path clip-path="url(#pd1189e873c)" d="M 365.427857 68.275559 
L 387.328082 35.957518 
L 387.328082 35.957518 
" style="fill:none;stroke:#0000ff;stroke-linecap:square;stroke-width:2;"/>
   </g>
   <g id="line2d_16">
    <path clip-path="url(#pd1189e873c)" d="M 212.126278 68.750824 
L 234.026503 72.077682 
L 234.026503 72.077682 
" style="fill:none;stroke:#ff00ff;stroke-linecap:square;stroke-width:2;"/>
   </g>
   <g id="line2d_17">
    <path clip-path="url(#pd1189e873c)" d="M 255.926729 57.58209 
L 277.826955 60.908947 
L 277.826955 60.908947 
" style="fill:none;stroke:#ff00ff;stroke-linecap:square;stroke-width:2;"/>
   </g>
   <g id="line2d_18">
    <path clip-path="url(#pd1189e873c)" d="M 299.72718 46.413355 
L 343.527631 53.067069 
L 343.527631 53.067069 
" style="fill:none;stroke:#ff00ff;stroke-linecap:square;stroke-width:2;"/>
   </g>
   <g id="line2d_19">
    <path clip-path="url(#pd1189e873c)" d="M 409.228308 51.166008 
L 453.028759 57.819722 
L 453.028759 57.819722 
" style="fill:none;stroke:#ff00ff;stroke-linecap:square;stroke-width:2;"/>
   </g>
   <g id="line2d_20">
    <path clip-path="url(#pd1189e873c)" d="M 474.928985 43.32413 
L 496.82921 46.650987 
L 496.82921 46.650987 
" style="fill:none;stroke:#ff00ff;stroke-linecap:square;stroke-width:2;"/>
   </g>
   <g id="line2d_21">
    <path clip-path="url(#pd1189e873c)" d="M 518.729436 32.155395 
L 540.629662 35.482253 
L 540.629662 35.482253 
" style="fill:none;stroke:#ff00ff;stroke-linecap:square;stroke-width:2;"/>
   </g>
   <g id="matplotlib.axis_1">
    <g id="xtick_1">
     <g id="line2d_22">
      <path clip-path="url(#pd1189e873c)" d="M 15.024247 87.704405 
L 15.024247 16.528672 
" style="fill:none;stroke:#000000;stroke-dasharray:0.5,0.825;stroke-dashoffset:0;stroke-width:0.5;"/>
     </g>
     <g id="line2d_23">
      <defs>
       <path d="M 0 0 
L 0 3.5 
" id="m0e9ecb3518" style="stroke:#000000;stroke-width:0.8;"/>
      </defs>
      <g>
       <use style="stroke:#000000;stroke-width:0.8;" x="15.024247" xlink:href="#m0e9ecb3518" y="86.335641"/>
      </g>
     </g>
    </g>
    <g id="xtick_2">
     <g id="line2d_24">
      <path clip-path="url(#pd1189e873c)" d="M 190.226052 87.704405 
L 190.226052 16.528672 
" style="fill:none;stroke:#000000;stroke-dasharray:0.5,0.825;stroke-dashoffset:0;stroke-width:0.5;"/>
     </g>
     <g id="line2d_25">
      <g>
       <use style="stroke:#000000;stroke-width:0.8;" x="190.226052" xlink:href="#m0e9ecb3518" y="86.335641"/>
      </g>
     </g>
     <g id="text_1">
      <!-- $f$ -->
      <defs>
       <path d="M 9.71875 -16.5 
Q 11.578125 -17.921875 14.203125 -17.921875 
Q 17.78125 -17.921875 20.015625 -10.015625 
Q 20.953125 -6.203125 25.09375 15.09375 
L 29.6875 39.59375 
L 21.09375 39.59375 
Q 20.125 39.59375 20.125 40.921875 
Q 20.515625 43.109375 21.390625 43.109375 
L 30.328125 43.109375 
L 31.5 49.609375 
Q 32.078125 52.640625 32.5625 54.8125 
Q 33.0625 56.984375 33.625 58.828125 
Q 34.1875 60.6875 35.296875 62.984375 
Q 37.015625 66.265625 39.921875 68.390625 
Q 42.828125 70.515625 46.1875 70.515625 
Q 48.390625 70.515625 50.46875 69.703125 
Q 52.546875 68.890625 53.859375 67.28125 
Q 55.171875 65.671875 55.171875 63.484375 
Q 55.171875 60.9375 53.484375 59.046875 
Q 51.8125 57.171875 49.421875 57.171875 
Q 47.796875 57.171875 46.65625 58.171875 
Q 45.515625 59.1875 45.515625 60.796875 
Q 45.515625 62.984375 47 64.625 
Q 48.484375 66.265625 50.6875 66.5 
Q 48.828125 67.921875 46.09375 67.921875 
Q 44.578125 67.921875 43.234375 66.5 
Q 41.890625 65.09375 41.5 63.484375 
Q 40.875 60.9375 38.71875 49.703125 
L 37.5 43.109375 
L 47.796875 43.109375 
Q 48.78125 43.109375 48.78125 41.796875 
Q 48.734375 41.546875 48.578125 40.9375 
Q 48.4375 40.328125 48.171875 39.953125 
Q 47.90625 39.59375 47.515625 39.59375 
L 36.8125 39.59375 
L 32.171875 15.1875 
Q 31.296875 9.859375 30.140625 4.359375 
Q 29 -1.125 26.921875 -6.90625 
Q 24.859375 -12.703125 21.625 -16.609375 
Q 18.40625 -20.515625 14.015625 -20.515625 
Q 10.640625 -20.515625 7.984375 -18.578125 
Q 5.328125 -16.65625 5.328125 -13.484375 
Q 5.328125 -10.9375 6.953125 -9.046875 
Q 8.59375 -7.171875 11.078125 -7.171875 
Q 12.75 -7.171875 13.859375 -8.171875 
Q 14.984375 -9.1875 14.984375 -10.796875 
Q 14.984375 -12.9375 13.390625 -14.71875 
Q 11.8125 -16.5 9.71875 -16.5 
z
" id="Cmmi10-66"/>
      </defs>
      <g transform="translate(187.776052 100.913766)scale(0.1 -0.1)">
       <use transform="translate(0 0.484375)" xlink:href="#Cmmi10-66"/>
      </g>
     </g>
    </g>
    <g id="xtick_3">
     <g id="line2d_26">
      <path clip-path="url(#pd1189e873c)" d="M 562.529887 87.704405 
L 562.529887 16.528672 
" style="fill:none;stroke:#000000;stroke-dasharray:0.5,0.825;stroke-dashoffset:0;stroke-width:0.5;"/>
     </g>
     <g id="line2d_27">
      <g>
       <use style="stroke:#000000;stroke-width:0.8;" x="562.529887" xlink:href="#m0e9ecb3518" y="86.335641"/>
      </g>
     </g>
     <g id="text_2">
      <!-- $1$ -->
      <defs>
       <path d="M 9.28125 0 
L 9.28125 3.515625 
Q 21.78125 3.515625 21.78125 6.6875 
L 21.78125 59.1875 
Q 16.609375 56.6875 8.6875 56.6875 
L 8.6875 60.203125 
Q 20.953125 60.203125 27.203125 66.609375 
L 28.609375 66.609375 
Q 28.953125 66.609375 29.265625 66.328125 
Q 29.59375 66.0625 29.59375 65.71875 
L 29.59375 6.6875 
Q 29.59375 3.515625 42.09375 3.515625 
L 42.09375 0 
z
" id="Cmr10-31"/>
      </defs>
      <g transform="translate(560.029887 100.934078)scale(0.1 -0.1)">
       <use transform="translate(0 0.390625)" xlink:href="#Cmr10-31"/>
      </g>
     </g>
    </g>
   </g>
   <g id="matplotlib.axis_2">
    <g id="ytick_1">
     <g id="line2d_28">
      <path clip-path="url(#pd1189e873c)" d="M 4.074135 86.335641 
L 573.48 86.335641 
" style="fill:none;stroke:#000000;stroke-dasharray:0.5,0.825;stroke-dashoffset:0;stroke-width:0.5;"/>
     </g>
     <g id="line2d_29">
      <defs>
       <path d="M 0 0 
L -3.5 0 
" id="mf23cb446a8" style="stroke:#000000;stroke-width:0.8;"/>
      </defs>
      <g>
       <use style="stroke:#000000;stroke-width:0.8;" x="15.024247" xlink:href="#mf23cb446a8" y="86.335641"/>
      </g>
     </g>
    </g>
    <g id="ytick_2">
     <g id="line2d_30">
      <path clip-path="url(#pd1189e873c)" d="M 4.074135 17.897436 
L 573.48 17.897436 
" style="fill:none;stroke:#000000;stroke-dasharray:0.5,0.825;stroke-dashoffset:0;stroke-width:0.5;"/>
     </g>
     <g id="line2d_31">
      <g>
       <use style="stroke:#000000;stroke-width:0.8;" x="15.024247" xlink:href="#mf23cb446a8" y="17.897436"/>
      </g>
     </g>
     <g id="text_3">
      <!-- $1$ -->
      <g transform="translate(3.024247 21.696655)scale(0.1 -0.1)">
       <use transform="translate(0 0.390625)" xlink:href="#Cmr10-31"/>
      </g>
     </g>
    </g>
   </g>
   <g id="patch_3">
    <path d="M 15.024247 87.704405 
L 15.024247 16.528672 
" style="fill:none;stroke:#000000;stroke-linecap:square;stroke-linejoin:miter;stroke-width:0.8;"/>
   </g>
   <g id="patch_4">
    <path d="M 4.074135 86.335641 
L 573.48 86.335641 
" style="fill:none;stroke:#000000;stroke-linecap:square;stroke-linejoin:miter;stroke-width:0.8;"/>
   </g>
  </g>
 </g>
 <defs>
  <clipPath id="pd1189e873c">
   <rect height="71.175733" width="569.405865" x="4.074135" y="16.528672"/>
  </clipPath>
 </defs>
</svg>
