<?xml version="1.0" encoding="utf-8" standalone="no"?>
<!DOCTYPE svg PUBLIC "-//W3C//DTD SVG 1.1//EN"
  "http://www.w3.org/Graphics/SVG/1.1/DTD/svg11.dtd">
<!-- Created with matplotlib (http://matplotlib.org/) -->
<svg height="108pt" version="1.1" viewBox="0 0 576 108" width="576pt" xmlns="http://www.w3.org/2000/svg" xmlns:xlink="http://www.w3.org/1999/xlink">
 <defs>
  <style type="text/css">
*{stroke-linecap:butt;stroke-linejoin:round;}
  </style>
 </defs>
 <g id="figure_1">
  <g id="patch_1">
   <path d="M 0 108 
L 576 108 
L 576 0 
L 0 0 
z
" style="fill:#ffffff;"/>
  </g>
  <g id="axes_1">
   <g id="patch_2">
    <path d="M 4.074135 87.704405 
L 573.48 87.704405 
L 573.48 16.528672 
L 4.074135 16.528672 
z
" style="fill:#ffffff;"/>
   </g>
   <g id="line2d_1">
    <path clip-path="url(#p4fa502d4a9)" d="M 15.024247 86.335641 
L 35.302234 61.008116 
L 35.302234 61.008116 
" style="fill:none;stroke:#ff0000;stroke-linecap:square;stroke-width:2;"/>
   </g>
   <g id="line2d_2">
    <path clip-path="url(#p4fa502d4a9)" d="M 55.580221 64.780301 
L 75.858207 39.452776 
L 75.858207 39.452776 
" style="fill:none;stroke:#ff0000;stroke-linecap:square;stroke-width:2;"/>
   </g>
   <g id="line2d_3">
    <path clip-path="url(#p4fa502d4a9)" d="M 96.136194 43.224961 
L 116.414181 17.897436 
L 116.414181 17.897436 
" style="fill:none;stroke:#ff0000;stroke-linecap:square;stroke-width:2;"/>
   </g>
   <g id="line2d_4">
    <path clip-path="url(#p4fa502d4a9)" d="M 136.692167 65.319184 
L 156.970154 39.99166 
L 156.970154 39.99166 
" style="fill:none;stroke:#ff0000;stroke-linecap:square;stroke-width:2;"/>
   </g>
   <g id="line2d_5">
    <path clip-path="url(#p4fa502d4a9)" d="M 521.973914 64.241417 
L 542.251901 38.913893 
L 542.251901 38.913893 
" style="fill:none;stroke:#ff0000;stroke-linecap:square;stroke-width:2;"/>
   </g>
   <g id="line2d_6">
    <path clip-path="url(#p4fa502d4a9)" d="M 116.414181 17.897436 
L 136.692167 65.319184 
L 136.692167 65.319184 
" style="fill:none;stroke:#ffff00;stroke-linecap:square;stroke-width:2;"/>
   </g>
   <g id="line2d_7">
    <path clip-path="url(#p4fa502d4a9)" d="M 542.251901 38.913893 
L 542.375143 39.202105 
L 542.458023 39.395927 
L 542.601448 39.731338 
L 542.621011 39.777089 
L 542.748747 40.075809 
L 542.848829 40.309858 
L 542.936653 40.515244 
L 543.030502 40.734716 
L 543.210011 41.154513 
L 543.226611 41.193333 
L 543.35708 41.498446 
L 543.514808 41.867305 
L 543.606754 42.082329 
L 543.710117 42.324052 
L 543.761179 42.443465 
L 543.831715 42.60842 
L 543.951408 42.888332 
L 544.036036 43.086241 
L 544.214908 43.504547 
L 544.281747 43.660857 
L 544.415857 43.974483 
L 544.531143 44.244088 
L 544.563482 44.319717 
L 544.72924 44.707356 
L 544.79229 44.854804 
L 544.865726 45.02654 
L 544.987213 45.310646 
L 545.054879 45.46889 
L 545.246505 45.917024 
L 545.307815 46.060402 
L 545.428241 46.342028 
L 545.495155 46.498512 
L 545.599698 46.742993 
L 545.671982 46.912036 
L 545.846399 47.319924 
L 545.872976 47.382077 
L 546.037315 47.766398 
L 546.078777 47.863359 
L 546.228515 48.213535 
L 546.310874 48.406137 
L 546.446091 48.722354 
L 546.482899 48.808431 
L 546.611993 49.11033 
L 546.697959 49.311369 
L 546.826461 49.611882 
L 546.908914 49.804703 
L 547.008721 50.03811 
L 547.193446 50.470104 
L 547.239318 50.577381 
L 547.396068 50.943953 
L 547.423822 51.008858 
L 547.526376 51.248689 
L 547.67756 51.602245 
L 547.716548 51.693421 
L 547.818987 51.932986 
L 548.003518 52.364525 
L 548.026554 52.418398 
L 548.198808 52.821227 
L 548.248096 52.936492 
L 548.334499 53.138551 
L 548.479043 53.476581 
L 548.566081 53.680125 
L 548.673912 53.932298 
L 548.72277 54.046557 
L 548.847245 54.337651 
L 548.93886 54.551901 
L 549.083838 54.890944 
L 549.169038 55.090191 
L 549.260685 55.304516 
L 549.414426 55.66405 
L 549.479509 55.816252 
L 549.619357 56.143299 
L 549.715314 56.367702 
L 549.806236 56.580331 
L 549.931249 56.872684 
" style="fill:none;stroke:#ffff00;stroke-linecap:square;stroke-width:2;"/>
   </g>
   <g id="line2d_8">
    <path clip-path="url(#p4fa502d4a9)" d="M 550.235932 57.58521 
L 550.348104 57.847534 
L 550.357427 57.869337 
L 550.501971 58.207364 
L 550.629223 58.504954 
L 550.731925 58.745131 
L 550.853749 59.030026 
L 550.909064 59.159385 
L 551.002836 59.37868 
L 551.134396 59.686341 
L 551.245307 59.945716 
L 551.356677 60.206164 
L 551.382561 60.266696 
L 551.531703 60.615478 
L 551.602023 60.779927 
L 551.716615 61.04791 
L 551.807752 61.26104 
L 551.945301 61.582711 
L 552.059133 61.848918 
L 552.114103 61.977469 
L 552.269952 62.341935 
L 552.314428 62.445945 
L 552.427585 62.710572 
L 552.587458 63.084449 
L 552.598346 63.109911 
L 552.719763 63.393855 
L 552.895077 63.803841 
L 552.931244 63.888421 
L 553.009681 64.071853 
L 553.123913 64.338994 
L 553.246091 64.624717 
L 553.394564 64.971931 
L 553.464903 65.136427 
L 553.516578 65.257273 
L 553.662575 65.598698 
L 553.815923 65.957316 
L 553.840491 66.01477 
L 553.976829 66.333608 
L 554.117674 66.662986 
L 554.205963 66.869457 
L 554.254661 66.983341 
L 554.358091 67.22522 
L 554.448326 67.436242 
L 554.560002 67.697407 
L 554.678378 67.974238 
L 554.831595 68.332549 
L 554.857092 68.392176 
L 555.005517 68.739278 
L 555.057731 68.861387 
L 555.242992 69.294634 
L 555.250445 69.312065 
L 555.375756 69.605114 
L 555.509695 69.91834 
L 555.56976 70.058808 
L 555.666784 70.285706 
L 555.776958 70.543358 
L 555.857308 70.731263 
L 555.993131 71.048895 
L 556.116745 71.337978 
L 556.230619 71.604282 
L 556.292923 71.749984 
L 556.45561 72.130441 
L 556.524864 72.292397 
L 556.571248 72.400871 
L 556.69568 72.691865 
L 556.806851 72.951847 
L 556.95142 73.289933 
L 557.063538 73.552132 
L 557.15939 73.77629 
L 557.196285 73.862571 
L 557.363859 74.254458 
L 557.437031 74.425575 
L 557.508212 74.592038 
L 557.59457 74.793993 
L 557.76719 75.197681 
L 557.891678 75.488806 
L 557.939817 75.601382 
L 558.005745 75.75556 
L 558.178551 76.15968 
L 558.280924 76.399089 
L 558.310379 76.467973 
L 558.492889 76.894787 
L 558.550181 77.028768 
L 558.648126 77.257821 
L 558.78624 77.580813 
L 558.890936 77.825654 
L 558.959784 77.986659 
L 559.10006 78.314705 
L 559.158357 78.451039 
L 559.267186 78.705544 
L 559.321293 78.832077 
L 559.510803 79.275262 
L 559.605118 79.495827 
L 559.665398 79.636796 
L 559.789636 79.927336 
L 559.862055 80.096696 
L 560.02275 80.472494 
L 560.048406 80.532493 
L 560.146725 80.762419 
L 560.291325 81.100579 
L 560.41847 81.397917 
L 560.449478 81.470432 
L 560.567901 81.747374 
L 560.662133 81.967743 
L 560.791057 82.269242 
L 560.917353 82.564596 
L 561.0213 82.807685 
L 561.10875 83.012195 
L 561.228214 83.291571 
L 561.327403 83.523533 
L 561.404925 83.704823 
L 561.536686 84.012958 
L 561.615908 84.198226 
L 561.669907 84.324507 
L 561.865606 84.782165 
L 561.919021 84.907079 
L 562.00684 85.112451 
L 562.081678 85.287466 
L 562.25319 85.688563 
L 562.277249 85.744826 
L 562.456829 86.164789 
L 562.529887 86.335641 
" style="fill:none;stroke:#ffff00;stroke-linecap:square;stroke-width:2;"/>
   </g>
   <g id="line2d_9">
    <path clip-path="url(#p4fa502d4a9)" d="M 197.526127 62.085883 
L 238.082101 55.080398 
L 238.082101 55.080398 
" style="fill:none;stroke:#00ff00;stroke-linecap:square;stroke-width:2;"/>
   </g>
   <g id="line2d_10">
    <path clip-path="url(#p4fa502d4a9)" d="M 278.638074 33.525058 
L 298.916061 30.022315 
L 298.916061 30.022315 
" style="fill:none;stroke:#00ff00;stroke-linecap:square;stroke-width:2;"/>
   </g>
   <g id="line2d_11">
    <path clip-path="url(#p4fa502d4a9)" d="M 380.028007 74.210762 
L 400.305994 70.708019 
L 400.305994 70.708019 
" style="fill:none;stroke:#00ff00;stroke-linecap:square;stroke-width:2;"/>
   </g>
   <g id="line2d_12">
    <path clip-path="url(#p4fa502d4a9)" d="M 440.861967 49.152679 
L 481.417941 42.147194 
L 481.417941 42.147194 
" style="fill:none;stroke:#00ff00;stroke-linecap:square;stroke-width:2;"/>
   </g>
   <g id="line2d_13">
    <path clip-path="url(#p4fa502d4a9)" d="M 238.082101 55.080398 
L 278.638074 33.525058 
L 278.638074 33.525058 
" style="fill:none;stroke:#00ffff;stroke-linecap:square;stroke-width:2;"/>
   </g>
   <g id="line2d_14">
    <path clip-path="url(#p4fa502d4a9)" d="M 400.305994 70.708019 
L 440.861967 49.152679 
L 440.861967 49.152679 
" style="fill:none;stroke:#00ffff;stroke-linecap:square;stroke-width:2;"/>
   </g>
   <g id="line2d_15">
    <path clip-path="url(#p4fa502d4a9)" d="M 35.302234 61.008116 
L 55.580221 64.780301 
L 55.580221 64.780301 
" style="fill:none;stroke:#0000ff;stroke-linecap:square;stroke-width:2;"/>
   </g>
   <g id="line2d_16">
    <path clip-path="url(#p4fa502d4a9)" d="M 75.858207 39.452776 
L 96.136194 43.224961 
L 96.136194 43.224961 
" style="fill:none;stroke:#0000ff;stroke-linecap:square;stroke-width:2;"/>
   </g>
   <g id="line2d_17">
    <path clip-path="url(#p4fa502d4a9)" d="M 156.970154 39.99166 
L 197.526127 62.085883 
L 197.526127 62.085883 
" style="fill:none;stroke:#ff00ff;stroke-linecap:square;stroke-width:2;"/>
   </g>
   <g id="line2d_18">
    <path clip-path="url(#p4fa502d4a9)" d="M 298.916061 30.022315 
L 380.028007 74.210762 
L 380.028007 74.210762 
" style="fill:none;stroke:#ff00ff;stroke-linecap:square;stroke-width:2;"/>
   </g>
   <g id="line2d_19">
    <path clip-path="url(#p4fa502d4a9)" d="M 481.417941 42.147194 
L 521.973914 64.241417 
L 521.973914 64.241417 
" style="fill:none;stroke:#ff00ff;stroke-linecap:square;stroke-width:2;"/>
   </g>
   <g id="matplotlib.axis_1">
    <g id="xtick_1">
     <g id="line2d_20">
      <path clip-path="url(#p4fa502d4a9)" d="M 15.024247 87.704405 
L 15.024247 16.528672 
" style="fill:none;stroke:#000000;stroke-dasharray:0.5,0.825;stroke-dashoffset:0;stroke-width:0.5;"/>
     </g>
     <g id="line2d_21">
      <defs>
       <path d="M 0 0 
L 0 3.5 
" id="ma096443472" style="stroke:#000000;stroke-width:0.8;"/>
      </defs>
      <g>
       <use style="stroke:#000000;stroke-width:0.8;" x="15.024247" xlink:href="#ma096443472" y="86.335641"/>
      </g>
     </g>
    </g>
    <g id="xtick_2">
     <g id="line2d_22">
      <path clip-path="url(#p4fa502d4a9)" d="M 116.414181 87.704405 
L 116.414181 16.528672 
" style="fill:none;stroke:#000000;stroke-dasharray:0.5,0.825;stroke-dashoffset:0;stroke-width:0.5;"/>
     </g>
     <g id="line2d_23">
      <g>
       <use style="stroke:#000000;stroke-width:0.8;" x="116.414181" xlink:href="#ma096443472" y="86.335641"/>
      </g>
     </g>
     <g id="text_1">
      <!-- $f$ -->
      <defs>
       <path d="M 9.71875 -16.5 
Q 11.578125 -17.921875 14.203125 -17.921875 
Q 17.78125 -17.921875 20.015625 -10.015625 
Q 20.953125 -6.203125 25.09375 15.09375 
L 29.6875 39.59375 
L 21.09375 39.59375 
Q 20.125 39.59375 20.125 40.921875 
Q 20.515625 43.109375 21.390625 43.109375 
L 30.328125 43.109375 
L 31.5 49.609375 
Q 32.078125 52.640625 32.5625 54.8125 
Q 33.0625 56.984375 33.625 58.828125 
Q 34.1875 60.6875 35.296875 62.984375 
Q 37.015625 66.265625 39.921875 68.390625 
Q 42.828125 70.515625 46.1875 70.515625 
Q 48.390625 70.515625 50.46875 69.703125 
Q 52.546875 68.890625 53.859375 67.28125 
Q 55.171875 65.671875 55.171875 63.484375 
Q 55.171875 60.9375 53.484375 59.046875 
Q 51.8125 57.171875 49.421875 57.171875 
Q 47.796875 57.171875 46.65625 58.171875 
Q 45.515625 59.1875 45.515625 60.796875 
Q 45.515625 62.984375 47 64.625 
Q 48.484375 66.265625 50.6875 66.5 
Q 48.828125 67.921875 46.09375 67.921875 
Q 44.578125 67.921875 43.234375 66.5 
Q 41.890625 65.09375 41.5 63.484375 
Q 40.875 60.9375 38.71875 49.703125 
L 37.5 43.109375 
L 47.796875 43.109375 
Q 48.78125 43.109375 48.78125 41.796875 
Q 48.734375 41.546875 48.578125 40.9375 
Q 48.4375 40.328125 48.171875 39.953125 
Q 47.90625 39.59375 47.515625 39.59375 
L 36.8125 39.59375 
L 32.171875 15.1875 
Q 31.296875 9.859375 30.140625 4.359375 
Q 29 -1.125 26.921875 -6.90625 
Q 24.859375 -12.703125 21.625 -16.609375 
Q 18.40625 -20.515625 14.015625 -20.515625 
Q 10.640625 -20.515625 7.984375 -18.578125 
Q 5.328125 -16.65625 5.328125 -13.484375 
Q 5.328125 -10.9375 6.953125 -9.046875 
Q 8.59375 -7.171875 11.078125 -7.171875 
Q 12.75 -7.171875 13.859375 -8.171875 
Q 14.984375 -9.1875 14.984375 -10.796875 
Q 14.984375 -12.9375 13.390625 -14.71875 
Q 11.8125 -16.5 9.71875 -16.5 
z
" id="Cmmi10-66"/>
      </defs>
      <g transform="translate(113.964181 100.913766)scale(0.1 -0.1)">
       <use transform="translate(0 0.484375)" xlink:href="#Cmmi10-66"/>
      </g>
     </g>
    </g>
    <g id="xtick_3">
     <g id="line2d_24">
      <path clip-path="url(#p4fa502d4a9)" d="M 562.529887 87.704405 
L 562.529887 16.528672 
" style="fill:none;stroke:#000000;stroke-dasharray:0.5,0.825;stroke-dashoffset:0;stroke-width:0.5;"/>
     </g>
     <g id="line2d_25">
      <g>
       <use style="stroke:#000000;stroke-width:0.8;" x="562.529887" xlink:href="#ma096443472" y="86.335641"/>
      </g>
     </g>
     <g id="text_2">
      <!-- $1$ -->
      <defs>
       <path d="M 9.28125 0 
L 9.28125 3.515625 
Q 21.78125 3.515625 21.78125 6.6875 
L 21.78125 59.1875 
Q 16.609375 56.6875 8.6875 56.6875 
L 8.6875 60.203125 
Q 20.953125 60.203125 27.203125 66.609375 
L 28.609375 66.609375 
Q 28.953125 66.609375 29.265625 66.328125 
Q 29.59375 66.0625 29.59375 65.71875 
L 29.59375 6.6875 
Q 29.59375 3.515625 42.09375 3.515625 
L 42.09375 0 
z
" id="Cmr10-31"/>
      </defs>
      <g transform="translate(560.029887 100.934078)scale(0.1 -0.1)">
       <use transform="translate(0 0.390625)" xlink:href="#Cmr10-31"/>
      </g>
     </g>
    </g>
   </g>
   <g id="matplotlib.axis_2">
    <g id="ytick_1">
     <g id="line2d_26">
      <path clip-path="url(#p4fa502d4a9)" d="M 4.074135 86.335641 
L 573.48 86.335641 
" style="fill:none;stroke:#000000;stroke-dasharray:0.5,0.825;stroke-dashoffset:0;stroke-width:0.5;"/>
     </g>
     <g id="line2d_27">
      <defs>
       <path d="M 0 0 
L -3.5 0 
" id="m901b4ce8e6" style="stroke:#000000;stroke-width:0.8;"/>
      </defs>
      <g>
       <use style="stroke:#000000;stroke-width:0.8;" x="15.024247" xlink:href="#m901b4ce8e6" y="86.335641"/>
      </g>
     </g>
    </g>
    <g id="ytick_2">
     <g id="line2d_28">
      <path clip-path="url(#p4fa502d4a9)" d="M 4.074135 17.897436 
L 573.48 17.897436 
" style="fill:none;stroke:#000000;stroke-dasharray:0.5,0.825;stroke-dashoffset:0;stroke-width:0.5;"/>
     </g>
     <g id="line2d_29">
      <g>
       <use style="stroke:#000000;stroke-width:0.8;" x="15.024247" xlink:href="#m901b4ce8e6" y="17.897436"/>
      </g>
     </g>
     <g id="text_3">
      <!-- $1$ -->
      <g transform="translate(3.024247 21.696655)scale(0.1 -0.1)">
       <use transform="translate(0 0.390625)" xlink:href="#Cmr10-31"/>
      </g>
     </g>
    </g>
   </g>
   <g id="patch_3">
    <path d="M 15.024247 87.704405 
L 15.024247 16.528672 
" style="fill:none;stroke:#000000;stroke-linecap:square;stroke-linejoin:miter;stroke-width:0.8;"/>
   </g>
   <g id="patch_4">
    <path d="M 4.074135 86.335641 
L 573.48 86.335641 
" style="fill:none;stroke:#000000;stroke-linecap:square;stroke-linejoin:miter;stroke-width:0.8;"/>
   </g>
  </g>
 </g>
 <defs>
  <clipPath id="p4fa502d4a9">
   <rect height="71.175733" width="569.405865" x="4.074135" y="16.528672"/>
  </clipPath>
 </defs>
</svg>
