<?xml version="1.0" encoding="utf-8" standalone="no"?>
<!DOCTYPE svg PUBLIC "-//W3C//DTD SVG 1.1//EN"
  "http://www.w3.org/Graphics/SVG/1.1/DTD/svg11.dtd">
<!-- Created with matplotlib (http://matplotlib.org/) -->
<svg height="108pt" version="1.1" viewBox="0 0 576 108" width="576pt" xmlns="http://www.w3.org/2000/svg" xmlns:xlink="http://www.w3.org/1999/xlink">
 <defs>
  <style type="text/css">
*{stroke-linecap:butt;stroke-linejoin:round;}
  </style>
 </defs>
 <g id="figure_1">
  <g id="patch_1">
   <path d="M 0 108 
L 576 108 
L 576 0 
L 0 0 
z
" style="fill:#ffffff;"/>
  </g>
  <g id="axes_1">
   <g id="patch_2">
    <path d="M 4.074135 87.704405 
L 573.48 87.704405 
L 573.48 16.528672 
L 4.074135 16.528672 
z
" style="fill:#ffffff;"/>
   </g>
   <g id="line2d_1">
    <path clip-path="url(#pb7bc989b3c)" d="M 161.025751 46.413355 
L 197.526127 57.819722 
L 197.526127 57.819722 
" style="fill:none;stroke:#ff0000;stroke-linecap:square;stroke-width:2;"/>
   </g>
   <g id="line2d_2">
    <path clip-path="url(#pb7bc989b3c)" d="M 343.527631 17.897436 
L 344.359278 18.157326 
L 345.316892 18.45658 
L 347.035869 18.99376 
L 347.863975 19.252544 
L 349.270287 19.692016 
L 350.125678 19.959326 
L 351.313865 20.330634 
L 351.887493 20.509893 
L 353.254488 20.937079 
L 354.950304 21.467021 
L 355.328551 21.585223 
L 356.914248 22.080754 
L 358.030644 22.429627 
L 358.82561 22.678054 
L 359.842623 22.995871 
L 361.305401 23.452989 
L 361.91272 23.642776 
L 362.926436 23.959562 
L 364.764375 24.533918 
L 365.966357 24.909538 
L 366.659097 25.126019 
L 368.034723 25.555902 
L 368.657977 25.750669 
L 370.261208 26.251679 
L 371.166997 26.534738 
L 372.106759 26.828413 
L 373.163632 27.158686 
L 374.705169 27.640416 
L 374.933568 27.711791 
L 376.650121 28.248214 
L 377.633805 28.555615 
L 378.900236 28.951375 
L 380.38158 29.414295 
L 381.212662 29.674008 
L 381.813258 29.861694 
L 382.639494 30.119893 
L 384.717102 30.769145 
L 385.210763 30.923415 
L 386.703105 31.389771 
L 387.856664 31.750259 
L 388.470702 31.942146 
L 389.502119 32.264463 
L 390.817852 32.67563 
L 391.697046 32.950378 
L 393.340077 33.463825 
L 394.151576 33.717419 
L 395.690162 34.198227 
L 396.127654 34.334943 
L 396.9363 34.587645 
L 398.452668 35.06151 
L 400.144811 35.590305 
L 401.060407 35.876428 
L 401.793641 36.105564 
L 402.873884 36.44314 
L 403.572567 36.661478 
L 405.006415 37.109556 
L 406.751356 37.65485 
L 407.565164 37.909165 
L 408.695937 38.262532 
L 410.077607 38.694303 
L 410.199036 38.73225 
L 411.216367 39.050166 
L 413.137034 39.650374 
L 414.070553 39.942099 
L 414.716579 40.143982 
L 415.706726 40.453403 
L 417.592681 41.042764 
L 417.869683 41.129327 
L 419.160055 41.532568 
L 420.483458 41.946132 
L 421.969876 42.410638 
L 422.399412 42.544867 
L 423.631876 42.930012 
L 424.660311 43.251399 
L 426.532115 43.836337 
L 427.583684 44.164953 
L 428.683623 44.508683 
L 429.898563 44.888352 
L 430.579108 45.101023 
L 431.278265 45.319509 
L 432.771653 45.786193 
L 434.013998 46.174426 
L 434.383129 46.289779 
L 436.209908 46.860647 
L 437.098996 47.138487 
L 438.708951 47.641598 
L 439.354558 47.84335 
L 440.644865 48.246572 
L 441.356404 48.468927 
L 442.159859 48.720007 
L 443.907996 49.2663 
L 444.290379 49.385795 
L 446.38567 50.040573 
L 446.694057 50.136944 
L 447.89772 50.513089 
L 449.022786 50.864672 
L 450.534811 51.337179 
L 451.917347 51.769222 
L 452.496891 51.95033 
L 453.539907 52.276272 
L 454.51262 52.580245 
L 455.509688 52.891829 
L 457.362414 53.470806 
L 457.761295 53.595456 
L 459.52405 54.146317 
L 460.635941 54.493783 
L 461.320332 54.707655 
L 461.918333 54.89453 
L 463.078455 55.257069 
L 464.972406 55.848928 
L 465.547479 56.028638 
L 466.361966 56.283166 
L 468.023045 56.802253 
L 468.462581 56.939608 
L 470.346553 57.528349 
L 470.78069 57.664017 
L 472.677199 58.256676 
L 473.135851 58.400005 
" style="fill:none;stroke:#ff0000;stroke-linecap:square;stroke-width:2;"/>
   </g>
   <g id="line2d_3">
    <path clip-path="url(#pb7bc989b3c)" d="M 476.949634 59.591812 
L 477.779634 59.851187 
L 478.582944 60.102221 
L 480.503843 60.702502 
L 481.539193 61.026049 
L 481.800666 61.107759 
L 482.806645 61.422128 
L 484.908129 62.078842 
L 485.579371 62.288605 
L 486.840103 62.682583 
L 488.227188 63.116047 
L 489.133635 63.399312 
L 489.60684 63.547189 
L 490.701571 63.889292 
L 491.718304 64.207021 
L 493.323279 64.708576 
L 494.361255 65.032943 
L 494.928602 65.210239 
L 496.568641 65.722751 
L 498.109151 66.204161 
L 499.127617 66.522432 
L 500.091878 66.823763 
L 500.847586 67.059922 
L 501.59541 67.293617 
L 503.307992 67.828799 
L 503.652465 67.936447 
L 505.587439 68.541126 
L 506.945404 68.96549 
L 508.003087 69.296016 
L 508.804568 69.546479 
L 509.346657 69.715881 
L 511.179758 70.288726 
L 511.399602 70.357427 
L 512.939207 70.838554 
L 514.53832 71.338276 
L 514.765281 71.409202 
L 516.39605 71.918817 
L 517.422647 72.239628 
L 518.352719 72.530276 
L 520.148676 73.091512 
L 521.161571 73.408042 
L 521.693424 73.574246 
L 523.099076 74.013512 
L 524.473831 74.443124 
L 524.953125 74.592903 
L 526.55671 75.094023 
L 527.086539 75.259595 
L 527.961874 75.533137 
L 529.211205 75.923553 
L 530.35166 76.279945 
L 532.069586 76.816797 
L 532.905222 77.077933 
L 533.987776 77.416231 
L 535.211685 77.798703 
L 536.529429 78.210498 
L 536.764784 78.284046 
L 538.314201 78.768239 
L 539.026877 78.99095 
L 540.319874 79.395012 
L 541.587703 79.791208 
L 542.634464 80.118321 
L 543.508659 80.391507 
L 545.445777 80.996857 
L 545.641926 81.058153 
L 547.16468 81.534014 
L 548.580868 81.976573 
L 549.520892 82.27033 
L 550.499516 82.57615 
L 551.350302 82.842021 
L 552.209038 83.110376 
L 553.75494 83.59347 
L 554.78408 83.915076 
L 555.641575 84.183043 
L 557.057376 84.625481 
L 558.258521 85.000839 
L 559.601136 85.420406 
L 560.374695 85.662143 
L 561.057329 85.875467 
L 562.529887 86.335641 
" style="fill:none;stroke:#ff0000;stroke-linecap:square;stroke-width:2;"/>
   </g>
   <g id="line2d_4">
    <path clip-path="url(#pb7bc989b3c)" d="M 15.024247 86.335641 
L 161.025751 46.413355 
L 161.025751 46.413355 
" style="fill:none;stroke:#00ffff;stroke-linecap:square;stroke-width:2;"/>
   </g>
   <g id="line2d_5">
    <path clip-path="url(#pb7bc989b3c)" d="M 197.526127 57.819722 
L 343.527631 17.897436 
L 343.527631 17.897436 
" style="fill:none;stroke:#00ffff;stroke-linecap:square;stroke-width:2;"/>
   </g>
   <g id="matplotlib.axis_1">
    <g id="xtick_1">
     <g id="line2d_6">
      <path clip-path="url(#pb7bc989b3c)" d="M 15.024247 87.704405 
L 15.024247 16.528672 
" style="fill:none;stroke:#000000;stroke-dasharray:0.5,0.825;stroke-dashoffset:0;stroke-width:0.5;"/>
     </g>
     <g id="line2d_7">
      <defs>
       <path d="M 0 0 
L 0 3.5 
" id="m12ee219457" style="stroke:#000000;stroke-width:0.8;"/>
      </defs>
      <g>
       <use style="stroke:#000000;stroke-width:0.8;" x="15.024247" xlink:href="#m12ee219457" y="86.335641"/>
      </g>
     </g>
    </g>
    <g id="xtick_2">
     <g id="line2d_8">
      <path clip-path="url(#pb7bc989b3c)" d="M 343.527631 87.704405 
L 343.527631 16.528672 
" style="fill:none;stroke:#000000;stroke-dasharray:0.5,0.825;stroke-dashoffset:0;stroke-width:0.5;"/>
     </g>
     <g id="line2d_9">
      <g>
       <use style="stroke:#000000;stroke-width:0.8;" x="343.527631" xlink:href="#m12ee219457" y="86.335641"/>
      </g>
     </g>
     <g id="text_1">
      <!-- $f$ -->
      <defs>
       <path d="M 9.71875 -16.5 
Q 11.578125 -17.921875 14.203125 -17.921875 
Q 17.78125 -17.921875 20.015625 -10.015625 
Q 20.953125 -6.203125 25.09375 15.09375 
L 29.6875 39.59375 
L 21.09375 39.59375 
Q 20.125 39.59375 20.125 40.921875 
Q 20.515625 43.109375 21.390625 43.109375 
L 30.328125 43.109375 
L 31.5 49.609375 
Q 32.078125 52.640625 32.5625 54.8125 
Q 33.0625 56.984375 33.625 58.828125 
Q 34.1875 60.6875 35.296875 62.984375 
Q 37.015625 66.265625 39.921875 68.390625 
Q 42.828125 70.515625 46.1875 70.515625 
Q 48.390625 70.515625 50.46875 69.703125 
Q 52.546875 68.890625 53.859375 67.28125 
Q 55.171875 65.671875 55.171875 63.484375 
Q 55.171875 60.9375 53.484375 59.046875 
Q 51.8125 57.171875 49.421875 57.171875 
Q 47.796875 57.171875 46.65625 58.171875 
Q 45.515625 59.1875 45.515625 60.796875 
Q 45.515625 62.984375 47 64.625 
Q 48.484375 66.265625 50.6875 66.5 
Q 48.828125 67.921875 46.09375 67.921875 
Q 44.578125 67.921875 43.234375 66.5 
Q 41.890625 65.09375 41.5 63.484375 
Q 40.875 60.9375 38.71875 49.703125 
L 37.5 43.109375 
L 47.796875 43.109375 
Q 48.78125 43.109375 48.78125 41.796875 
Q 48.734375 41.546875 48.578125 40.9375 
Q 48.4375 40.328125 48.171875 39.953125 
Q 47.90625 39.59375 47.515625 39.59375 
L 36.8125 39.59375 
L 32.171875 15.1875 
Q 31.296875 9.859375 30.140625 4.359375 
Q 29 -1.125 26.921875 -6.90625 
Q 24.859375 -12.703125 21.625 -16.609375 
Q 18.40625 -20.515625 14.015625 -20.515625 
Q 10.640625 -20.515625 7.984375 -18.578125 
Q 5.328125 -16.65625 5.328125 -13.484375 
Q 5.328125 -10.9375 6.953125 -9.046875 
Q 8.59375 -7.171875 11.078125 -7.171875 
Q 12.75 -7.171875 13.859375 -8.171875 
Q 14.984375 -9.1875 14.984375 -10.796875 
Q 14.984375 -12.9375 13.390625 -14.71875 
Q 11.8125 -16.5 9.71875 -16.5 
z
" id="Cmmi10-66"/>
      </defs>
      <g transform="translate(341.077631 100.913766)scale(0.1 -0.1)">
       <use transform="translate(0 0.484375)" xlink:href="#Cmmi10-66"/>
      </g>
     </g>
    </g>
    <g id="xtick_3">
     <g id="line2d_10">
      <path clip-path="url(#pb7bc989b3c)" d="M 562.529887 87.704405 
L 562.529887 16.528672 
" style="fill:none;stroke:#000000;stroke-dasharray:0.5,0.825;stroke-dashoffset:0;stroke-width:0.5;"/>
     </g>
     <g id="line2d_11">
      <g>
       <use style="stroke:#000000;stroke-width:0.8;" x="562.529887" xlink:href="#m12ee219457" y="86.335641"/>
      </g>
     </g>
     <g id="text_2">
      <!-- $1$ -->
      <defs>
       <path d="M 9.28125 0 
L 9.28125 3.515625 
Q 21.78125 3.515625 21.78125 6.6875 
L 21.78125 59.1875 
Q 16.609375 56.6875 8.6875 56.6875 
L 8.6875 60.203125 
Q 20.953125 60.203125 27.203125 66.609375 
L 28.609375 66.609375 
Q 28.953125 66.609375 29.265625 66.328125 
Q 29.59375 66.0625 29.59375 65.71875 
L 29.59375 6.6875 
Q 29.59375 3.515625 42.09375 3.515625 
L 42.09375 0 
z
" id="Cmr10-31"/>
      </defs>
      <g transform="translate(560.029887 100.934078)scale(0.1 -0.1)">
       <use transform="translate(0 0.390625)" xlink:href="#Cmr10-31"/>
      </g>
     </g>
    </g>
   </g>
   <g id="matplotlib.axis_2">
    <g id="ytick_1">
     <g id="line2d_12">
      <path clip-path="url(#pb7bc989b3c)" d="M 4.074135 86.335641 
L 573.48 86.335641 
" style="fill:none;stroke:#000000;stroke-dasharray:0.5,0.825;stroke-dashoffset:0;stroke-width:0.5;"/>
     </g>
     <g id="line2d_13">
      <defs>
       <path d="M 0 0 
L -3.5 0 
" id="m7c71239ea4" style="stroke:#000000;stroke-width:0.8;"/>
      </defs>
      <g>
       <use style="stroke:#000000;stroke-width:0.8;" x="15.024247" xlink:href="#m7c71239ea4" y="86.335641"/>
      </g>
     </g>
    </g>
    <g id="ytick_2">
     <g id="line2d_14">
      <path clip-path="url(#pb7bc989b3c)" d="M 4.074135 17.897436 
L 573.48 17.897436 
" style="fill:none;stroke:#000000;stroke-dasharray:0.5,0.825;stroke-dashoffset:0;stroke-width:0.5;"/>
     </g>
     <g id="line2d_15">
      <g>
       <use style="stroke:#000000;stroke-width:0.8;" x="15.024247" xlink:href="#m7c71239ea4" y="17.897436"/>
      </g>
     </g>
     <g id="text_3">
      <!-- $1$ -->
      <g transform="translate(3.024247 21.696655)scale(0.1 -0.1)">
       <use transform="translate(0 0.390625)" xlink:href="#Cmr10-31"/>
      </g>
     </g>
    </g>
   </g>
   <g id="patch_3">
    <path d="M 15.024247 87.704405 
L 15.024247 16.528672 
" style="fill:none;stroke:#000000;stroke-linecap:square;stroke-linejoin:miter;stroke-width:0.8;"/>
   </g>
   <g id="patch_4">
    <path d="M 4.074135 86.335641 
L 573.48 86.335641 
" style="fill:none;stroke:#000000;stroke-linecap:square;stroke-linejoin:miter;stroke-width:0.8;"/>
   </g>
  </g>
 </g>
 <defs>
  <clipPath id="pb7bc989b3c">
   <rect height="71.175733" width="569.405865" x="4.074135" y="16.528672"/>
  </clipPath>
 </defs>
</svg>
