<?xml version="1.0" encoding="utf-8" standalone="no"?>
<!DOCTYPE svg PUBLIC "-//W3C//DTD SVG 1.1//EN"
  "http://www.w3.org/Graphics/SVG/1.1/DTD/svg11.dtd">
<!-- Created with matplotlib (http://matplotlib.org/) -->
<svg height="108pt" version="1.1" viewBox="0 0 576 108" width="576pt" xmlns="http://www.w3.org/2000/svg" xmlns:xlink="http://www.w3.org/1999/xlink">
 <defs>
  <style type="text/css">
*{stroke-linecap:butt;stroke-linejoin:round;}
  </style>
 </defs>
 <g id="figure_1">
  <g id="patch_1">
   <path d="M 0 108 
L 576 108 
L 576 0 
L 0 0 
z
" style="fill:#ffffff;"/>
  </g>
  <g id="axes_1">
   <g id="patch_2">
    <path d="M 4.074135 87.704405 
L 573.48 87.704405 
L 573.48 16.528672 
L 4.074135 16.528672 
z
" style="fill:#ffffff;"/>
   </g>
   <g id="line2d_1">
    <path clip-path="url(#pa4907d260f)" d="M 192.593644 44.240713 
L 207.391094 59.992364 
L 207.391094 59.992364 
" style="fill:none;stroke:#ff0000;stroke-linecap:square;stroke-width:2;"/>
   </g>
   <g id="line2d_2">
    <path clip-path="url(#pa4907d260f)" d="M 384.960491 17.897436 
L 399.75794 33.649086 
L 399.75794 33.649086 
" style="fill:none;stroke:#ff0000;stroke-linecap:square;stroke-width:2;"/>
   </g>
   <g id="line2d_3">
    <path clip-path="url(#pa4907d260f)" d="M 414.55539 39.35227 
L 429.35284 55.10392 
L 429.35284 55.10392 
" style="fill:none;stroke:#ff0000;stroke-linecap:square;stroke-width:2;"/>
   </g>
   <g id="line2d_4">
    <path clip-path="url(#pa4907d260f)" d="M 518.137538 49.129156 
L 532.934988 64.880807 
L 532.934988 64.880807 
" style="fill:none;stroke:#ff0000;stroke-linecap:square;stroke-width:2;"/>
   </g>
   <g id="line2d_5">
    <path clip-path="url(#pa4907d260f)" d="M 547.732437 70.583991 
L 547.786857 70.641919 
L 547.875604 70.736389 
L 547.988352 70.856408 
L 548.016213 70.886065 
L 548.123211 70.999963 
L 548.175242 71.055348 
L 548.220189 71.103194 
L 548.295173 71.183013 
L 548.366716 71.25917 
L 548.452455 71.350438 
L 548.557085 71.461815 
L 548.599857 71.507345 
L 548.674623 71.586933 
L 548.766638 71.684881 
L 548.820681 71.742408 
L 548.948466 71.878434 
L 549.011578 71.945615 
L 549.090768 72.029911 
L 549.162721 72.106504 
L 549.21598 72.163198 
L 549.313763 72.267286 
L 549.384919 72.343031 
L 549.454154 72.416731 
L 549.530009 72.497477 
L 549.614986 72.587934 
L 549.68391 72.661302 
L 549.741988 72.723125 
L 549.792494 72.776888 
L 549.878334 72.868263 
L 549.984266 72.981026 
L 550.019149 73.018159 
L 550.101871 73.106215 
L 550.209279 73.220549 
L 550.226282 73.238649 
L 550.354098 73.374706 
L 550.37306 73.394891 
L 550.519044 73.550289 
L 550.583219 73.618602 
L 550.667881 73.708723 
L 550.726511 73.771134 
L 550.788865 73.837509 
L 550.875286 73.929503 
L 550.937083 73.995285 
L 551.007194 74.069917 
L 551.042078 74.10705 
L 551.167248 74.240292 
L 551.235045 74.312461 
L 551.310367 74.392639 
L 551.387955 74.475231 
L 551.426781 74.516561 
L 551.524622 74.620711 
L 551.583367 74.683244 
L 551.654323 74.758776 
L 551.750073 74.8607 
L 551.805237 74.919422 
L 551.926722 75.04874 
L 551.966579 75.091167 
L 552.075068 75.206652 
L 552.10946 75.243262 
L 552.170162 75.307878 
L 552.242576 75.384962 
L 552.333648 75.481906 
L 552.423477 75.577528 
L 552.474047 75.631359 
L 552.534903 75.696139 
L 552.664736 75.834344 
L 552.699229 75.871062 
L 552.807651 75.986475 
L 552.848729 76.030201 
L 552.964505 76.153443 
L 553.034826 76.228299 
L 553.089756 76.286772 
L 553.158405 76.359847 
L 553.214283 76.419328 
L 553.275771 76.484781 
L 553.400003 76.617024 
" style="fill:none;stroke:#ff0000;stroke-linecap:square;stroke-width:2;"/>
   </g>
   <g id="line2d_6">
    <path clip-path="url(#pa4907d260f)" d="M 553.603801 76.833964 
L 553.703856 76.940471 
L 553.770636 77.011557 
L 553.841063 77.086525 
L 553.929229 77.180377 
L 553.987028 77.241903 
L 554.073751 77.334218 
L 554.127963 77.391926 
L 554.176453 77.443542 
L 554.25113 77.523035 
L 554.329703 77.606675 
L 554.400056 77.681564 
L 554.503216 77.791377 
L 554.586265 77.879781 
L 554.617928 77.913486 
L 554.729861 78.032637 
L 554.797565 78.104706 
L 554.906418 78.220579 
L 554.932622 78.248473 
L 555.004022 78.324477 
L 555.066273 78.390742 
L 555.143023 78.472441 
L 555.230101 78.565135 
L 555.320239 78.661085 
L 555.389709 78.735035 
L 555.451962 78.801302 
L 555.525316 78.879386 
L 555.606348 78.965644 
L 555.66831 79.031601 
L 555.769615 79.139438 
L 555.841717 79.21619 
L 555.89672 79.274739 
L 555.956824 79.33872 
L 556.096278 79.487167 
L 556.112436 79.504366 
L 556.180935 79.577282 
L 556.269842 79.671922 
L 556.329832 79.735781 
L 556.456083 79.870173 
L 556.527044 79.94571 
L 556.569076 79.990452 
L 556.660534 80.087807 
L 556.716086 80.146942 
L 556.832913 80.271303 
L 556.880403 80.321855 
L 556.948522 80.394366 
L 557.033765 80.485106 
L 557.133522 80.591296 
L 557.185749 80.646891 
L 557.240598 80.705276 
L 557.34761 80.819189 
L 557.412493 80.888256 
L 557.47216 80.95177 
L 557.584827 81.071703 
L 557.595056 81.082592 
L 557.683869 81.177131 
L 557.806385 81.307548 
L 557.865212 81.370168 
L 557.947983 81.458276 
L 558.001439 81.51518 
L 558.081144 81.600025 
L 558.111952 81.632819 
L 558.220657 81.748534 
L 558.275604 81.807023 
L 558.377714 81.915718 
L 558.468558 82.012421 
L 558.517782 82.064819 
L 558.619163 82.172738 
L 558.656464 82.212444 
L 558.712609 82.272208 
L 558.844552 82.41266 
L 558.849201 82.417609 
L 558.967857 82.543916 
L 559.010816 82.589645 
L 559.072289 82.655083 
L 559.157166 82.745432 
L 559.230498 82.823494 
L 559.345781 82.946211 
L 559.416795 83.021804 
L 559.501722 83.112207 
L 559.520637 83.132342 
L 559.611545 83.229112 
L 559.709947 83.33386 
L 559.7932 83.422481 
L 559.844704 83.477306 
L 559.953272 83.592875 
L 560.028817 83.673292 
L 560.103875 83.75319 
L 560.125588 83.776302 
L 560.261902 83.921406 
L 560.26294 83.922511 
L 560.374009 84.040743 
L 560.470516 84.143473 
L 560.549004 84.227022 
L 560.564283 84.243287 
L 560.64144 84.325419 
L 560.780156 84.47308 
L 560.782941 84.476044 
L 560.876033 84.575139 
L 560.959592 84.664087 
L 561.022851 84.731425 
L 561.102421 84.816126 
L 561.197337 84.917163 
L 561.271462 84.996067 
L 561.30793 85.034887 
L 561.391312 85.123645 
L 561.498116 85.237337 
L 561.579285 85.32374 
L 561.66361 85.413502 
L 561.711667 85.464658 
L 561.760677 85.516829 
L 561.872492 85.635854 
L 561.919442 85.685832 
L 561.99704 85.768434 
L 562.078493 85.855139 
L 562.141558 85.922271 
L 562.20675 85.991666 
L 562.273583 86.062809 
L 562.392576 86.189476 
L 562.458247 86.259381 
L 562.529887 86.335641 
" style="fill:none;stroke:#ff0000;stroke-linecap:square;stroke-width:2;"/>
   </g>
   <g id="line2d_7">
    <path clip-path="url(#pa4907d260f)" d="M 29.821697 41.796492 
L 59.416597 53.202859 
L 59.416597 53.202859 
" style="fill:none;stroke:#cbff00;stroke-linecap:square;stroke-width:2;"/>
   </g>
   <g id="line2d_8">
    <path clip-path="url(#pa4907d260f)" d="M 89.011496 34.463827 
L 118.606395 45.870194 
L 118.606395 45.870194 
" style="fill:none;stroke:#cbff00;stroke-linecap:square;stroke-width:2;"/>
   </g>
   <g id="line2d_9">
    <path clip-path="url(#pa4907d260f)" d="M 162.998745 32.834346 
L 192.593644 44.240713 
L 192.593644 44.240713 
" style="fill:none;stroke:#cbff00;stroke-linecap:square;stroke-width:2;"/>
   </g>
   <g id="line2d_10">
    <path clip-path="url(#pa4907d260f)" d="M 207.391094 59.992364 
L 236.985993 71.398731 
L 236.985993 71.398731 
" style="fill:none;stroke:#cbff00;stroke-linecap:square;stroke-width:2;"/>
   </g>
   <g id="line2d_11">
    <path clip-path="url(#pa4907d260f)" d="M 281.378342 58.362883 
L 281.549923 58.429012 
L 281.66105 58.471843 
L 281.893831 58.56156 
L 282.001199 58.602942 
L 282.167938 58.667206 
L 282.25282 58.699921 
L 282.35261 58.738382 
L 282.558486 58.81773 
L 282.758892 58.894969 
L 282.935812 58.963157 
L 283.000819 58.988212 
L 283.197733 59.064106 
L 283.276654 59.094524 
L 283.42231 59.150662 
L 283.610156 59.223061 
L 283.709028 59.261168 
L 283.944373 59.351874 
L 284.056289 59.395008 
L 284.152087 59.43193 
L 284.288322 59.484437 
L 284.572828 59.594091 
L 284.712279 59.647837 
L 284.756573 59.664909 
L 284.903546 59.721555 
L 285.124016 59.806528 
L 285.199482 59.835613 
L 285.453604 59.933556 
L 285.496444 59.950068 
L 285.670899 60.017305 
L 285.819637 60.074632 
L 286.010864 60.148334 
L 286.186332 60.215962 
L 286.253386 60.241806 
L 286.36164 60.283528 
L 286.607385 60.378243 
L 286.793291 60.449894 
L 286.822344 60.461091 
L 287.011595 60.534032 
L 287.152381 60.588293 
L 287.256789 60.628534 
L 287.430115 60.695337 
L 287.668486 60.787209 
L 287.760784 60.822782 
L 287.982387 60.908191 
L 288.019064 60.922327 
L 288.219485 60.999573 
L 288.427694 61.07982 
" style="fill:none;stroke:#cbff00;stroke-linecap:square;stroke-width:2;"/>
   </g>
   <g id="line2d_12">
    <path clip-path="url(#pa4907d260f)" d="M 288.76874 61.211265 
L 310.973242 69.76925 
L 310.973242 69.76925 
" style="fill:none;stroke:#cbff00;stroke-linecap:square;stroke-width:2;"/>
   </g>
   <g id="line2d_13">
    <path clip-path="url(#pa4907d260f)" d="M 340.568141 51.030218 
L 370.163041 62.436585 
L 370.163041 62.436585 
" style="fill:none;stroke:#cbff00;stroke-linecap:square;stroke-width:2;"/>
   </g>
   <g id="line2d_14">
    <path clip-path="url(#pa4907d260f)" d="M 399.75794 33.649086 
L 414.55539 39.35227 
L 414.55539 39.35227 
" style="fill:none;stroke:#cbff00;stroke-linecap:square;stroke-width:2;"/>
   </g>
   <g id="line2d_15">
    <path clip-path="url(#pa4907d260f)" d="M 429.35284 55.10392 
L 444.150289 60.807104 
L 444.150289 60.807104 
" style="fill:none;stroke:#cbff00;stroke-linecap:square;stroke-width:2;"/>
   </g>
   <g id="line2d_16">
    <path clip-path="url(#pa4907d260f)" d="M 503.340088 43.425973 
L 518.137538 49.129156 
L 518.137538 49.129156 
" style="fill:none;stroke:#cbff00;stroke-linecap:square;stroke-width:2;"/>
   </g>
   <g id="line2d_17">
    <path clip-path="url(#pa4907d260f)" d="M 532.934988 64.880807 
L 547.732437 70.583991 
L 547.732437 70.583991 
" style="fill:none;stroke:#cbff00;stroke-linecap:square;stroke-width:2;"/>
   </g>
   <g id="line2d_18">
    <path clip-path="url(#pa4907d260f)" d="M 15.024247 86.335641 
L 29.821697 41.796492 
L 29.821697 41.796492 
" style="fill:none;stroke:#00ff66;stroke-linecap:square;stroke-width:2;"/>
   </g>
   <g id="line2d_19">
    <path clip-path="url(#pa4907d260f)" d="M 370.163041 62.436585 
L 384.960491 17.897436 
L 384.960491 17.897436 
" style="fill:none;stroke:#00ff66;stroke-linecap:square;stroke-width:2;"/>
   </g>
   <g id="line2d_20">
    <path clip-path="url(#pa4907d260f)" d="M 118.606395 45.870194 
L 162.998745 32.834346 
L 162.998745 32.834346 
" style="fill:none;stroke:#0066ff;stroke-linecap:square;stroke-width:2;"/>
   </g>
   <g id="line2d_21">
    <path clip-path="url(#pa4907d260f)" d="M 236.985993 71.398731 
L 281.378342 58.362883 
L 281.378342 58.362883 
" style="fill:none;stroke:#0066ff;stroke-linecap:square;stroke-width:2;"/>
   </g>
   <g id="line2d_22">
    <path clip-path="url(#pa4907d260f)" d="M 444.150289 60.807104 
L 503.340088 43.425973 
L 503.340088 43.425973 
" style="fill:none;stroke:#0066ff;stroke-linecap:square;stroke-width:2;"/>
   </g>
   <g id="line2d_23">
    <path clip-path="url(#pa4907d260f)" d="M 59.416597 53.202859 
L 89.011496 34.463827 
L 89.011496 34.463827 
" style="fill:none;stroke:#cc00ff;stroke-linecap:square;stroke-width:2;"/>
   </g>
   <g id="line2d_24">
    <path clip-path="url(#pa4907d260f)" d="M 310.973242 69.76925 
L 311.060336 69.714104 
L 311.265604 69.584131 
L 311.38759 69.506891 
L 311.529353 69.417129 
L 311.693043 69.313483 
L 311.899225 69.182932 
L 311.949196 69.151291 
L 312.159246 69.01829 
L 312.253378 68.958688 
L 312.524905 68.786761 
L 312.656451 68.703468 
L 312.787598 68.620428 
L 312.930498 68.529946 
L 313.04657 68.456451 
L 313.138251 68.3984 
L 313.289016 68.302938 
L 313.483742 68.17964 
L 313.705447 68.03926 
L 313.757264 68.00645 
L 313.932679 67.89538 
L 314.093222 67.793727 
L 314.19246 67.730891 
L 314.343389 67.635325 
L 314.491947 67.54126 
L 314.64163 67.446483 
L 314.85112 67.313838 
L 315.04398 67.191721 
L 315.090163 67.162479 
L 315.309227 67.023772 
L 315.374941 66.982163 
L 315.577657 66.853806 
L 315.681963 66.787761 
L 315.843951 66.685192 
L 316.048599 66.555613 
L 316.125775 66.506746 
L 316.279718 66.409271 
L 316.404018 66.330567 
L 316.555442 66.234687 
L 316.790497 66.085854 
L 316.883304 66.02709 
L 317.058561 65.91612 
L 317.177129 65.841045 
L 317.390077 65.70621 
L 317.529456 65.617957 
L 317.645767 65.54431 
L 317.887634 65.391164 
L 317.974003 65.336476 
L 318.105739 65.253064 
L 318.257179 65.157174 
L 318.395307 65.069713 
L 318.62753 64.922673 
L 318.683759 64.88707 
L 318.802535 64.811863 
L 318.999705 64.687018 
L 319.130978 64.603898 
L 319.322552 64.482596 
L 319.469539 64.389526 
L 319.615605 64.29704 
L 319.82028 64.167443 
L 319.895524 64.119799 
L 320.096793 63.992359 
L 320.154633 63.955736 
L 320.327567 63.846236 
L 320.512843 63.728923 
L 320.60684 63.669405 
L 320.787237 63.55518 
L 320.937337 63.460139 
L 321.059511 63.38278 
L 321.236198 63.270905 
L 321.446016 63.138051 
L 321.497051 63.105737 
L 321.611409 63.033327 
L 321.84631 62.884592 
L 322.000191 62.787157 
L 322.189061 62.667567 
L 322.232342 62.640162 
L 322.423253 62.51928 
L 322.508347 62.4654 
L 322.787002 62.28896 
L 322.906494 62.213299 
L 323.000765 62.153609 
L 323.14002 62.065435 
L 323.30994 61.957844 
L 323.407577 61.896022 
L 323.683577 61.721263 
L 323.780152 61.660113 
L 323.942352 61.55741 
L 324.031049 61.501249 
L 324.16425 61.416908 
L 324.358536 61.293889 
L 324.513383 61.195843 
" style="fill:none;stroke:#cc00ff;stroke-linecap:square;stroke-width:2;"/>
   </g>
   <g id="line2d_25">
    <path clip-path="url(#pa4907d260f)" d="M 325.026143 60.87117 
L 325.048199 60.857205 
L 325.273495 60.714551 
L 325.418102 60.622988 
L 325.577573 60.522014 
L 325.725236 60.428516 
L 325.826867 60.364165 
L 326.041317 60.228378 
L 326.121963 60.177314 
L 326.293155 60.068918 
L 326.423417 59.986439 
L 326.57542 59.890192 
L 326.804762 59.744977 
L 326.947322 59.65471 
L 327.076952 59.57263 
L 327.118806 59.546129 
L 327.384622 59.377818 
L 327.427831 59.350459 
L 327.663471 59.201255 
L 327.799885 59.11488 
L 327.899326 59.051916 
L 328.028284 58.970262 
L 328.199012 58.862159 
L 328.389522 58.741531 
L 328.466223 58.692965 
L 328.658394 58.571285 
L 328.881405 58.430078 
L 328.949098 58.387216 
L 329.128469 58.273641 
L 329.301496 58.164083 
L 329.360023 58.127025 
L 329.496837 58.040396 
L 329.637887 57.951085 
L 329.88729 57.793167 
L 330.055328 57.686769 
L 330.181005 57.607192 
L 330.290016 57.538168 
L 330.506269 57.401239 
L 330.645639 57.312992 
L 330.813886 57.206461 
L 330.830858 57.195715 
L 331.035347 57.066235 
L 331.146784 56.995675 
L 331.383754 56.84563 
L 331.443215 56.80798 
L 331.612356 56.700882 
L 331.779698 56.594924 
L 331.881101 56.530717 
L 332.156839 56.356125 
L 332.223116 56.314159 
L 332.320902 56.252242 
L 332.491585 56.144168 
L 332.698417 56.013206 
L 332.868978 55.905209 
L 332.964117 55.844968 
L 333.143853 55.731162 
L 333.30124 55.631507 
L 333.381875 55.58045 
L 333.555149 55.470736 
L 333.786945 55.323966 
L 333.858262 55.278809 
L 334.083237 55.136359 
L 334.238326 55.038159 
L 334.256815 55.026452 
L 334.449149 54.904669 
L 334.631914 54.788945 
L 334.83646 54.659429 
L 334.870028 54.638175 
L 335.072189 54.51017 
L 335.167747 54.449664 
L 335.310133 54.359507 
L 335.585986 54.184841 
L 335.628279 54.158062 
L 335.814635 54.040064 
L 335.901809 53.984867 
L 336.111458 53.852121 
L 336.211875 53.788538 
L 336.332099 53.712414 
L 336.624674 53.52716 
L 336.767787 53.436543 
L 336.897715 53.354275 
L 336.991186 53.295091 
L 337.141952 53.199628 
L 337.265563 53.121359 
L 337.451641 53.003537 
L 337.632598 52.888958 
L 337.716342 52.835933 
L 337.878734 52.733109 
L 338.046952 52.626596 
L 338.171396 52.5478 
L 338.404064 52.400478 
L 338.468222 52.359854 
L 338.607158 52.271882 
L 338.780886 52.16188 
L 338.915159 52.07686 
L 339.115432 51.950051 
L 339.202927 51.89465 
L 339.311158 51.82612 
L 339.5392 51.681728 
L 339.716725 51.569321 
L 339.828256 51.498702 
L 340.004516 51.387096 
L 340.074456 51.342812 
L 340.21712 51.252479 
L 340.412331 51.128875 
L 340.568141 51.030218 
" style="fill:none;stroke:#cc00ff;stroke-linecap:square;stroke-width:2;"/>
   </g>
   <g id="matplotlib.axis_1">
    <g id="xtick_1">
     <g id="line2d_26">
      <path clip-path="url(#pa4907d260f)" d="M 15.024247 87.704405 
L 15.024247 16.528672 
" style="fill:none;stroke:#000000;stroke-dasharray:0.5,0.825;stroke-dashoffset:0;stroke-width:0.5;"/>
     </g>
     <g id="line2d_27">
      <defs>
       <path d="M 0 0 
L 0 3.5 
" id="m196079ca3f" style="stroke:#000000;stroke-width:0.8;"/>
      </defs>
      <g>
       <use style="stroke:#000000;stroke-width:0.8;" x="15.024247" xlink:href="#m196079ca3f" y="86.335641"/>
      </g>
     </g>
    </g>
    <g id="xtick_2">
     <g id="line2d_28">
      <path clip-path="url(#pa4907d260f)" d="M 384.960491 87.704405 
L 384.960491 16.528672 
" style="fill:none;stroke:#000000;stroke-dasharray:0.5,0.825;stroke-dashoffset:0;stroke-width:0.5;"/>
     </g>
     <g id="line2d_29">
      <g>
       <use style="stroke:#000000;stroke-width:0.8;" x="384.960491" xlink:href="#m196079ca3f" y="86.335641"/>
      </g>
     </g>
     <g id="text_1">
      <!-- $f$ -->
      <defs>
       <path d="M 9.71875 -16.5 
Q 11.578125 -17.921875 14.203125 -17.921875 
Q 17.78125 -17.921875 20.015625 -10.015625 
Q 20.953125 -6.203125 25.09375 15.09375 
L 29.6875 39.59375 
L 21.09375 39.59375 
Q 20.125 39.59375 20.125 40.921875 
Q 20.515625 43.109375 21.390625 43.109375 
L 30.328125 43.109375 
L 31.5 49.609375 
Q 32.078125 52.640625 32.5625 54.8125 
Q 33.0625 56.984375 33.625 58.828125 
Q 34.1875 60.6875 35.296875 62.984375 
Q 37.015625 66.265625 39.921875 68.390625 
Q 42.828125 70.515625 46.1875 70.515625 
Q 48.390625 70.515625 50.46875 69.703125 
Q 52.546875 68.890625 53.859375 67.28125 
Q 55.171875 65.671875 55.171875 63.484375 
Q 55.171875 60.9375 53.484375 59.046875 
Q 51.8125 57.171875 49.421875 57.171875 
Q 47.796875 57.171875 46.65625 58.171875 
Q 45.515625 59.1875 45.515625 60.796875 
Q 45.515625 62.984375 47 64.625 
Q 48.484375 66.265625 50.6875 66.5 
Q 48.828125 67.921875 46.09375 67.921875 
Q 44.578125 67.921875 43.234375 66.5 
Q 41.890625 65.09375 41.5 63.484375 
Q 40.875 60.9375 38.71875 49.703125 
L 37.5 43.109375 
L 47.796875 43.109375 
Q 48.78125 43.109375 48.78125 41.796875 
Q 48.734375 41.546875 48.578125 40.9375 
Q 48.4375 40.328125 48.171875 39.953125 
Q 47.90625 39.59375 47.515625 39.59375 
L 36.8125 39.59375 
L 32.171875 15.1875 
Q 31.296875 9.859375 30.140625 4.359375 
Q 29 -1.125 26.921875 -6.90625 
Q 24.859375 -12.703125 21.625 -16.609375 
Q 18.40625 -20.515625 14.015625 -20.515625 
Q 10.640625 -20.515625 7.984375 -18.578125 
Q 5.328125 -16.65625 5.328125 -13.484375 
Q 5.328125 -10.9375 6.953125 -9.046875 
Q 8.59375 -7.171875 11.078125 -7.171875 
Q 12.75 -7.171875 13.859375 -8.171875 
Q 14.984375 -9.1875 14.984375 -10.796875 
Q 14.984375 -12.9375 13.390625 -14.71875 
Q 11.8125 -16.5 9.71875 -16.5 
z
" id="Cmmi10-66"/>
      </defs>
      <g transform="translate(382.510491 100.913766)scale(0.1 -0.1)">
       <use transform="translate(0 0.484375)" xlink:href="#Cmmi10-66"/>
      </g>
     </g>
    </g>
    <g id="xtick_3">
     <g id="line2d_30">
      <path clip-path="url(#pa4907d260f)" d="M 562.529887 87.704405 
L 562.529887 16.528672 
" style="fill:none;stroke:#000000;stroke-dasharray:0.5,0.825;stroke-dashoffset:0;stroke-width:0.5;"/>
     </g>
     <g id="line2d_31">
      <g>
       <use style="stroke:#000000;stroke-width:0.8;" x="562.529887" xlink:href="#m196079ca3f" y="86.335641"/>
      </g>
     </g>
     <g id="text_2">
      <!-- $1$ -->
      <defs>
       <path d="M 9.28125 0 
L 9.28125 3.515625 
Q 21.78125 3.515625 21.78125 6.6875 
L 21.78125 59.1875 
Q 16.609375 56.6875 8.6875 56.6875 
L 8.6875 60.203125 
Q 20.953125 60.203125 27.203125 66.609375 
L 28.609375 66.609375 
Q 28.953125 66.609375 29.265625 66.328125 
Q 29.59375 66.0625 29.59375 65.71875 
L 29.59375 6.6875 
Q 29.59375 3.515625 42.09375 3.515625 
L 42.09375 0 
z
" id="Cmr10-31"/>
      </defs>
      <g transform="translate(560.029887 100.934078)scale(0.1 -0.1)">
       <use transform="translate(0 0.390625)" xlink:href="#Cmr10-31"/>
      </g>
     </g>
    </g>
   </g>
   <g id="matplotlib.axis_2">
    <g id="ytick_1">
     <g id="line2d_32">
      <path clip-path="url(#pa4907d260f)" d="M 4.074135 86.335641 
L 573.48 86.335641 
" style="fill:none;stroke:#000000;stroke-dasharray:0.5,0.825;stroke-dashoffset:0;stroke-width:0.5;"/>
     </g>
     <g id="line2d_33">
      <defs>
       <path d="M 0 0 
L -3.5 0 
" id="me55dac34f7" style="stroke:#000000;stroke-width:0.8;"/>
      </defs>
      <g>
       <use style="stroke:#000000;stroke-width:0.8;" x="15.024247" xlink:href="#me55dac34f7" y="86.335641"/>
      </g>
     </g>
    </g>
    <g id="ytick_2">
     <g id="line2d_34">
      <path clip-path="url(#pa4907d260f)" d="M 4.074135 17.897436 
L 573.48 17.897436 
" style="fill:none;stroke:#000000;stroke-dasharray:0.5,0.825;stroke-dashoffset:0;stroke-width:0.5;"/>
     </g>
     <g id="line2d_35">
      <g>
       <use style="stroke:#000000;stroke-width:0.8;" x="15.024247" xlink:href="#me55dac34f7" y="17.897436"/>
      </g>
     </g>
     <g id="text_3">
      <!-- $1$ -->
      <g transform="translate(3.024247 21.696655)scale(0.1 -0.1)">
       <use transform="translate(0 0.390625)" xlink:href="#Cmr10-31"/>
      </g>
     </g>
    </g>
   </g>
   <g id="patch_3">
    <path d="M 15.024247 87.704405 
L 15.024247 16.528672 
" style="fill:none;stroke:#000000;stroke-linecap:square;stroke-linejoin:miter;stroke-width:0.8;"/>
   </g>
   <g id="patch_4">
    <path d="M 4.074135 86.335641 
L 573.48 86.335641 
" style="fill:none;stroke:#000000;stroke-linecap:square;stroke-linejoin:miter;stroke-width:0.8;"/>
   </g>
  </g>
 </g>
 <defs>
  <clipPath id="pa4907d260f">
   <rect height="71.175733" width="569.405865" x="4.074135" y="16.528672"/>
  </clipPath>
 </defs>
</svg>
