<?xml version="1.0" encoding="utf-8" standalone="no"?>
<!DOCTYPE svg PUBLIC "-//W3C//DTD SVG 1.1//EN"
  "http://www.w3.org/Graphics/SVG/1.1/DTD/svg11.dtd">
<!-- Created with matplotlib (http://matplotlib.org/) -->
<svg height="108pt" version="1.1" viewBox="0 0 576 108" width="576pt" xmlns="http://www.w3.org/2000/svg" xmlns:xlink="http://www.w3.org/1999/xlink">
 <defs>
  <style type="text/css">
*{stroke-linecap:butt;stroke-linejoin:round;}
  </style>
 </defs>
 <g id="figure_1">
  <g id="patch_1">
   <path d="M 0 108 
L 576 108 
L 576 0 
L 0 0 
z
" style="fill:#ffffff;"/>
  </g>
  <g id="axes_1">
   <g id="patch_2">
    <path d="M 4.074135 87.704405 
L 573.48 87.704405 
L 573.48 16.528672 
L 4.074135 16.528672 
z
" style="fill:#ffffff;"/>
   </g>
   <g id="line2d_1">
    <path clip-path="url(#p9434adf23e)" d="M 214.117207 57.301251 
L 230.708287 62.485963 
L 230.708287 62.485963 
" style="fill:none;stroke:#ff0000;stroke-linecap:square;stroke-width:2;"/>
   </g>
   <g id="line2d_2">
    <path clip-path="url(#p9434adf23e)" d="M 280.481527 55.227366 
L 330.254767 70.781503 
L 330.254767 70.781503 
" style="fill:none;stroke:#ff0000;stroke-linecap:square;stroke-width:2;"/>
   </g>
   <g id="line2d_3">
    <path clip-path="url(#p9434adf23e)" d="M 429.801247 33.451573 
L 479.574487 49.005711 
L 479.574487 49.005711 
" style="fill:none;stroke:#ff0000;stroke-linecap:square;stroke-width:2;"/>
   </g>
   <g id="line2d_4">
    <path clip-path="url(#p9434adf23e)" d="M 529.347727 41.747113 
L 545.938807 46.931826 
L 545.938807 46.931826 
" style="fill:none;stroke:#ff0000;stroke-linecap:square;stroke-width:2;"/>
   </g>
   <g id="line2d_5">
    <path clip-path="url(#p9434adf23e)" d="M 81.388567 61.449021 
L 131.161807 42.784056 
L 131.161807 42.784056 
" style="fill:none;stroke:#ffda00;stroke-linecap:square;stroke-width:2;"/>
   </g>
   <g id="line2d_6">
    <path clip-path="url(#p9434adf23e)" d="M 330.254767 70.781503 
L 429.801247 33.451573 
L 429.801247 33.451573 
" style="fill:none;stroke:#ffda00;stroke-linecap:square;stroke-width:2;"/>
   </g>
   <g id="line2d_7">
    <path clip-path="url(#p9434adf23e)" d="M 247.299367 44.857941 
L 263.890447 72.855388 
L 263.890447 72.855388 
" style="fill:none;stroke:#48ff00;stroke-linecap:square;stroke-width:2;"/>
   </g>
   <g id="line2d_8">
    <path clip-path="url(#p9434adf23e)" d="M 496.165567 31.377688 
L 496.267126 31.549068 
L 496.335675 31.664746 
L 496.388805 31.754402 
L 496.47924 31.907011 
L 496.611752 32.130625 
L 496.698116 32.276364 
L 496.728014 32.326817 
L 496.818648 32.479762 
L 496.952929 32.706361 
L 497.022156 32.823183 
L 497.118355 32.985518 
L 497.141305 33.024246 
L 497.218088 33.153817 
L 497.331229 33.344743 
L 497.386155 33.437431 
L 497.486751 33.607187 
L 497.563546 33.736778 
L 497.631077 33.850736 
L 497.719971 34.000745 
L 497.833251 34.191906 
L 497.942013 34.375441 
L 497.96579 34.415564 
L 498.088937 34.623375 
L 498.201569 34.813441 
L 498.228702 34.859229 
L 498.294393 34.970082 
L 498.425585 35.191469 
L 498.515986 35.34402 
L 498.549662 35.400848 
L 498.679182 35.619413 
L 498.72751 35.700967 
L 498.792053 35.809884 
L 498.957389 36.088888 
L 498.973274 36.115693 
L 499.087048 36.307688 
L 499.18445 36.472054 
L 499.212328 36.519097 
L 499.340157 36.734808 
L 499.398344 36.832999 
L 499.470257 36.954353 
L 499.61307 37.195349 
L 499.677621 37.304278 
L 499.751729 37.429337 
L 499.856026 37.605337 
L 499.932265 37.733992 
L 499.976127 37.808008 
L 500.073628 37.972541 
L 500.204224 38.192922 
L 500.255935 38.280185 
L 500.370895 38.47418 
L 500.379247 38.488274 
L 500.541807 38.762594 
L 500.594603 38.851687 
L 500.700976 39.031191 
L 500.763372 39.136484 
L 500.840384 39.266442 
L 500.939137 39.433087 
L 501.038981 39.601574 
L 501.099726 39.704082 
L 501.130103 39.755342 
L 501.287543 40.021022 
L 501.307827 40.055252 
L 501.452473 40.299341 
L 501.53775 40.443246 
L 501.567447 40.493361 
L 501.682567 40.687625 
L 501.747575 40.797326 
L 501.850074 40.970294 
L 501.914555 41.079105 
L 501.990453 41.207183 
L 502.124696 41.433718 
L 502.207365 41.573223 
L 502.248271 41.64225 
L 502.363716 41.837064 
L 502.446335 41.976484 
L 502.498618 42.064711 
L 502.583418 42.207811 
L 502.673758 42.360261 
L 502.716795 42.432885 
" style="fill:none;stroke:#48ff00;stroke-linecap:square;stroke-width:2;"/>
   </g>
   <g id="line2d_9">
    <path clip-path="url(#p9434adf23e)" d="M 502.973098 42.865397 
L 503.124887 43.121541 
L 503.130178 43.13047 
L 503.252403 43.336723 
L 503.345194 43.493309 
L 503.423419 43.625314 
L 503.540109 43.822227 
L 503.562123 43.859377 
L 503.692833 44.07995 
L 503.711737 44.111849 
L 503.822313 44.298448 
L 503.94466 44.504908 
L 504.001738 44.601227 
L 504.056283 44.693271 
L 504.144654 44.842398 
L 504.224154 44.976554 
L 504.340659 45.173156 
L 504.438657 45.338528 
L 504.471098 45.393272 
L 504.626321 45.655211 
L 504.643463 45.684138 
L 504.740452 45.847806 
L 504.850996 46.034349 
L 504.95552 46.210734 
L 505.04204 46.356736 
L 505.058234 46.384064 
L 505.132927 46.510107 
L 505.281708 46.761176 
L 505.310397 46.809588 
L 505.390572 46.944883 
L 505.533547 47.186154 
L 505.574779 47.255733 
L 505.695819 47.459989 
L 505.712753 47.488564 
L 505.852832 47.724948 
L 505.937257 47.867415 
L 505.975239 47.931509 
L 506.073002 48.096485 
L 506.133897 48.199245 
L 506.267063 48.423962 
L 506.302326 48.483469 
L 506.427577 48.694831 
L 506.486758 48.794698 
L 506.607644 48.998692 
L 506.706408 49.165357 
L 506.742551 49.226348 
L 506.874871 49.449639 
L 506.907291 49.504348 
L 506.981689 49.629895 
L 507.082678 49.800312 
L 507.19248 49.985604 
L 507.290567 50.151126 
L 507.318152 50.197676 
L 507.415543 50.362022 
L 507.533192 50.560555 
L 507.621275 50.709196 
L 507.702884 50.84691 
L 507.742111 50.913106 
L 507.839226 51.076987 
L 507.944986 51.255457 
L 507.985356 51.323581 
L 508.060084 51.449685 
L 508.193199 51.674317 
L 508.214605 51.710439 
L 508.355336 51.947923 
L 508.398356 52.02052 
L 508.490796 52.176513 
L 508.583647 52.333199 
L 508.630282 52.411894 
L 508.766325 52.641467 
L 508.866282 52.810145 
L 508.917687 52.896891 
L 508.998471 53.033214 
L 509.094667 53.195544 
L 509.212092 53.3937 
L 509.261088 53.476379 
L 509.3201 53.575963 
L 509.436863 53.773001 
L 509.541097 53.948894 
L 509.598661 54.046034 
L 509.69302 54.205265 
L 509.781771 54.355032 
L 509.869437 54.502969 
L 509.952555 54.643231 
L 510.044382 54.798189 
L 510.074507 54.849024 
L 510.162834 54.998076 
L 510.219317 55.093391 
L 510.343891 55.30361 
L 510.454975 55.491063 
L 510.50829 55.581033 
L 510.567608 55.681132 
L 510.708352 55.918638 
L 510.769 56.020981 
L 510.81862 56.104715 
L 510.949848 56.326162 
L 511.039008 56.47662 
L 511.097789 56.575812 
L 511.133435 56.635966 
L 511.244604 56.823564 
L 511.338557 56.982109 
L 511.437569 57.149192 
L 511.506026 57.264713 
L 511.592197 57.410127 
L 511.64281 57.495536 
L 511.767302 57.705615 
L 511.836779 57.822858 
L 511.927197 57.975439 
L 511.99342 58.087189 
L 512.129855 58.317425 
L 512.212644 58.457131 
L 512.281155 58.572742 
L 512.347091 58.684009 
L 512.414064 58.797027 
L 512.533193 58.998057 
L 512.612279 59.131514 
L 512.662984 59.217079 
L 512.756647 59.375136 
" style="fill:none;stroke:#48ff00;stroke-linecap:square;stroke-width:2;"/>
   </g>
   <g id="line2d_10">
    <path clip-path="url(#p9434adf23e)" d="M 197.526127 17.897436 
L 214.117207 57.301251 
L 214.117207 57.301251 
" style="fill:none;stroke:#00ff91;stroke-linecap:square;stroke-width:2;"/>
   </g>
   <g id="line2d_11">
    <path clip-path="url(#p9434adf23e)" d="M 545.938807 46.931826 
L 562.529887 86.335641 
L 562.529887 86.335641 
" style="fill:none;stroke:#00ff91;stroke-linecap:square;stroke-width:2;"/>
   </g>
   <g id="line2d_12">
    <path clip-path="url(#p9434adf23e)" d="M 15.024247 86.335641 
L 31.615327 57.301251 
L 31.615327 57.301251 
" style="fill:none;stroke:#0091ff;stroke-linecap:square;stroke-width:2;"/>
   </g>
   <g id="line2d_13">
    <path clip-path="url(#p9434adf23e)" d="M 48.206407 73.892331 
L 64.797487 44.857941 
L 64.797487 44.857941 
" style="fill:none;stroke:#0091ff;stroke-linecap:square;stroke-width:2;"/>
   </g>
   <g id="line2d_14">
    <path clip-path="url(#p9434adf23e)" d="M 147.752887 59.375136 
L 164.343967 30.340746 
L 164.343967 30.340746 
" style="fill:none;stroke:#0091ff;stroke-linecap:square;stroke-width:2;"/>
   </g>
   <g id="line2d_15">
    <path clip-path="url(#p9434adf23e)" d="M 180.935047 46.931826 
L 197.526127 17.897436 
L 197.526127 17.897436 
" style="fill:none;stroke:#0091ff;stroke-linecap:square;stroke-width:2;"/>
   </g>
   <g id="line2d_16">
    <path clip-path="url(#p9434adf23e)" d="M 230.708287 62.485963 
L 247.299367 44.857941 
L 247.299367 44.857941 
" style="fill:none;stroke:#4800ff;stroke-linecap:square;stroke-width:2;"/>
   </g>
   <g id="line2d_17">
    <path clip-path="url(#p9434adf23e)" d="M 263.890447 72.855388 
L 280.481527 55.227366 
L 280.481527 55.227366 
" style="fill:none;stroke:#4800ff;stroke-linecap:square;stroke-width:2;"/>
   </g>
   <g id="line2d_18">
    <path clip-path="url(#p9434adf23e)" d="M 479.574487 49.005711 
L 496.165567 31.377688 
L 496.165567 31.377688 
" style="fill:none;stroke:#4800ff;stroke-linecap:square;stroke-width:2;"/>
   </g>
   <g id="line2d_19">
    <path clip-path="url(#p9434adf23e)" d="M 512.756647 59.375136 
L 529.347727 41.747113 
L 529.347727 41.747113 
" style="fill:none;stroke:#4800ff;stroke-linecap:square;stroke-width:2;"/>
   </g>
   <g id="line2d_20">
    <path clip-path="url(#p9434adf23e)" d="M 31.615327 57.301251 
L 48.206407 73.892331 
L 48.206407 73.892331 
" style="fill:none;stroke:#ff00da;stroke-linecap:square;stroke-width:2;"/>
   </g>
   <g id="line2d_21">
    <path clip-path="url(#p9434adf23e)" d="M 64.797487 44.857941 
L 81.388567 61.449021 
L 81.388567 61.449021 
" style="fill:none;stroke:#ff00da;stroke-linecap:square;stroke-width:2;"/>
   </g>
   <g id="line2d_22">
    <path clip-path="url(#p9434adf23e)" d="M 131.161807 42.784056 
L 147.752887 59.375136 
L 147.752887 59.375136 
" style="fill:none;stroke:#ff00da;stroke-linecap:square;stroke-width:2;"/>
   </g>
   <g id="line2d_23">
    <path clip-path="url(#p9434adf23e)" d="M 164.343967 30.340746 
L 180.935047 46.931826 
L 180.935047 46.931826 
" style="fill:none;stroke:#ff00da;stroke-linecap:square;stroke-width:2;"/>
   </g>
   <g id="matplotlib.axis_1">
    <g id="xtick_1">
     <g id="line2d_24">
      <path clip-path="url(#p9434adf23e)" d="M 15.024247 87.704405 
L 15.024247 16.528672 
" style="fill:none;stroke:#000000;stroke-dasharray:0.5,0.825;stroke-dashoffset:0;stroke-width:0.5;"/>
     </g>
     <g id="line2d_25">
      <defs>
       <path d="M 0 0 
L 0 3.5 
" id="m31b375614a" style="stroke:#000000;stroke-width:0.8;"/>
      </defs>
      <g>
       <use style="stroke:#000000;stroke-width:0.8;" x="15.024247" xlink:href="#m31b375614a" y="86.335641"/>
      </g>
     </g>
    </g>
    <g id="xtick_2">
     <g id="line2d_26">
      <path clip-path="url(#p9434adf23e)" d="M 197.526127 87.704405 
L 197.526127 16.528672 
" style="fill:none;stroke:#000000;stroke-dasharray:0.5,0.825;stroke-dashoffset:0;stroke-width:0.5;"/>
     </g>
     <g id="line2d_27">
      <g>
       <use style="stroke:#000000;stroke-width:0.8;" x="197.526127" xlink:href="#m31b375614a" y="86.335641"/>
      </g>
     </g>
     <g id="text_1">
      <!-- $f$ -->
      <defs>
       <path d="M 9.71875 -16.5 
Q 11.578125 -17.921875 14.203125 -17.921875 
Q 17.78125 -17.921875 20.015625 -10.015625 
Q 20.953125 -6.203125 25.09375 15.09375 
L 29.6875 39.59375 
L 21.09375 39.59375 
Q 20.125 39.59375 20.125 40.921875 
Q 20.515625 43.109375 21.390625 43.109375 
L 30.328125 43.109375 
L 31.5 49.609375 
Q 32.078125 52.640625 32.5625 54.8125 
Q 33.0625 56.984375 33.625 58.828125 
Q 34.1875 60.6875 35.296875 62.984375 
Q 37.015625 66.265625 39.921875 68.390625 
Q 42.828125 70.515625 46.1875 70.515625 
Q 48.390625 70.515625 50.46875 69.703125 
Q 52.546875 68.890625 53.859375 67.28125 
Q 55.171875 65.671875 55.171875 63.484375 
Q 55.171875 60.9375 53.484375 59.046875 
Q 51.8125 57.171875 49.421875 57.171875 
Q 47.796875 57.171875 46.65625 58.171875 
Q 45.515625 59.1875 45.515625 60.796875 
Q 45.515625 62.984375 47 64.625 
Q 48.484375 66.265625 50.6875 66.5 
Q 48.828125 67.921875 46.09375 67.921875 
Q 44.578125 67.921875 43.234375 66.5 
Q 41.890625 65.09375 41.5 63.484375 
Q 40.875 60.9375 38.71875 49.703125 
L 37.5 43.109375 
L 47.796875 43.109375 
Q 48.78125 43.109375 48.78125 41.796875 
Q 48.734375 41.546875 48.578125 40.9375 
Q 48.4375 40.328125 48.171875 39.953125 
Q 47.90625 39.59375 47.515625 39.59375 
L 36.8125 39.59375 
L 32.171875 15.1875 
Q 31.296875 9.859375 30.140625 4.359375 
Q 29 -1.125 26.921875 -6.90625 
Q 24.859375 -12.703125 21.625 -16.609375 
Q 18.40625 -20.515625 14.015625 -20.515625 
Q 10.640625 -20.515625 7.984375 -18.578125 
Q 5.328125 -16.65625 5.328125 -13.484375 
Q 5.328125 -10.9375 6.953125 -9.046875 
Q 8.59375 -7.171875 11.078125 -7.171875 
Q 12.75 -7.171875 13.859375 -8.171875 
Q 14.984375 -9.1875 14.984375 -10.796875 
Q 14.984375 -12.9375 13.390625 -14.71875 
Q 11.8125 -16.5 9.71875 -16.5 
z
" id="Cmmi10-66"/>
      </defs>
      <g transform="translate(195.076127 100.913766)scale(0.1 -0.1)">
       <use transform="translate(0 0.484375)" xlink:href="#Cmmi10-66"/>
      </g>
     </g>
    </g>
    <g id="xtick_3">
     <g id="line2d_28">
      <path clip-path="url(#p9434adf23e)" d="M 562.529887 87.704405 
L 562.529887 16.528672 
" style="fill:none;stroke:#000000;stroke-dasharray:0.5,0.825;stroke-dashoffset:0;stroke-width:0.5;"/>
     </g>
     <g id="line2d_29">
      <g>
       <use style="stroke:#000000;stroke-width:0.8;" x="562.529887" xlink:href="#m31b375614a" y="86.335641"/>
      </g>
     </g>
     <g id="text_2">
      <!-- $1$ -->
      <defs>
       <path d="M 9.28125 0 
L 9.28125 3.515625 
Q 21.78125 3.515625 21.78125 6.6875 
L 21.78125 59.1875 
Q 16.609375 56.6875 8.6875 56.6875 
L 8.6875 60.203125 
Q 20.953125 60.203125 27.203125 66.609375 
L 28.609375 66.609375 
Q 28.953125 66.609375 29.265625 66.328125 
Q 29.59375 66.0625 29.59375 65.71875 
L 29.59375 6.6875 
Q 29.59375 3.515625 42.09375 3.515625 
L 42.09375 0 
z
" id="Cmr10-31"/>
      </defs>
      <g transform="translate(560.029887 100.934078)scale(0.1 -0.1)">
       <use transform="translate(0 0.390625)" xlink:href="#Cmr10-31"/>
      </g>
     </g>
    </g>
   </g>
   <g id="matplotlib.axis_2">
    <g id="ytick_1">
     <g id="line2d_30">
      <path clip-path="url(#p9434adf23e)" d="M 4.074135 86.335641 
L 573.48 86.335641 
" style="fill:none;stroke:#000000;stroke-dasharray:0.5,0.825;stroke-dashoffset:0;stroke-width:0.5;"/>
     </g>
     <g id="line2d_31">
      <defs>
       <path d="M 0 0 
L -3.5 0 
" id="m9c4f6175cb" style="stroke:#000000;stroke-width:0.8;"/>
      </defs>
      <g>
       <use style="stroke:#000000;stroke-width:0.8;" x="15.024247" xlink:href="#m9c4f6175cb" y="86.335641"/>
      </g>
     </g>
    </g>
    <g id="ytick_2">
     <g id="line2d_32">
      <path clip-path="url(#p9434adf23e)" d="M 4.074135 17.897436 
L 573.48 17.897436 
" style="fill:none;stroke:#000000;stroke-dasharray:0.5,0.825;stroke-dashoffset:0;stroke-width:0.5;"/>
     </g>
     <g id="line2d_33">
      <g>
       <use style="stroke:#000000;stroke-width:0.8;" x="15.024247" xlink:href="#m9c4f6175cb" y="17.897436"/>
      </g>
     </g>
     <g id="text_3">
      <!-- $1$ -->
      <g transform="translate(3.024247 21.696655)scale(0.1 -0.1)">
       <use transform="translate(0 0.390625)" xlink:href="#Cmr10-31"/>
      </g>
     </g>
    </g>
   </g>
   <g id="patch_3">
    <path d="M 15.024247 87.704405 
L 15.024247 16.528672 
" style="fill:none;stroke:#000000;stroke-linecap:square;stroke-linejoin:miter;stroke-width:0.8;"/>
   </g>
   <g id="patch_4">
    <path d="M 4.074135 86.335641 
L 573.48 86.335641 
" style="fill:none;stroke:#000000;stroke-linecap:square;stroke-linejoin:miter;stroke-width:0.8;"/>
   </g>
  </g>
 </g>
 <defs>
  <clipPath id="p9434adf23e">
   <rect height="71.175733" width="569.405865" x="4.074135" y="16.528672"/>
  </clipPath>
 </defs>
</svg>
