<?xml version="1.0" encoding="utf-8" standalone="no"?>
<!DOCTYPE svg PUBLIC "-//W3C//DTD SVG 1.1//EN"
  "http://www.w3.org/Graphics/SVG/1.1/DTD/svg11.dtd">
<!-- Created with matplotlib (http://matplotlib.org/) -->
<svg height="108pt" version="1.1" viewBox="0 0 576 108" width="576pt" xmlns="http://www.w3.org/2000/svg" xmlns:xlink="http://www.w3.org/1999/xlink">
 <defs>
  <style type="text/css">
*{stroke-linecap:butt;stroke-linejoin:round;}
  </style>
 </defs>
 <g id="figure_1">
  <g id="patch_1">
   <path d="M 0 108 
L 576 108 
L 576 0 
L 0 0 
z
" style="fill:#ffffff;"/>
  </g>
  <g id="axes_1">
   <g id="patch_2">
    <path d="M 4.074135 87.704405 
L 573.48 87.704405 
L 573.48 16.528672 
L 4.074135 16.528672 
z
" style="fill:#ffffff;"/>
   </g>
   <g id="line2d_1">
    <path clip-path="url(#p07057d719d)" d="M 288.777067 17.897436 
L 303.18511 46.077873 
L 303.18511 46.077873 
" style="fill:none;stroke:#ff0000;stroke-linecap:square;stroke-width:2;"/>
   </g>
   <g id="line2d_2">
    <path clip-path="url(#p07057d719d)" d="M 418.449456 38.02632 
L 432.857499 66.206757 
L 432.857499 66.206757 
" style="fill:none;stroke:#ff0000;stroke-linecap:square;stroke-width:2;"/>
   </g>
   <g id="line2d_3">
    <path clip-path="url(#p07057d719d)" d="M 548.121844 58.155204 
L 562.529887 86.335641 
L 562.529887 86.335641 
" style="fill:none;stroke:#ff0000;stroke-linecap:square;stroke-width:2;"/>
   </g>
   <g id="line2d_4">
    <path clip-path="url(#p07057d719d)" d="M 360.817283 62.18098 
L 389.633369 29.974766 
L 389.633369 29.974766 
" style="fill:none;stroke:#ffff00;stroke-linecap:square;stroke-width:2;"/>
   </g>
   <g id="line2d_5">
    <path clip-path="url(#p07057d719d)" d="M 461.673585 74.258311 
L 490.489671 42.052097 
L 490.489671 42.052097 
" style="fill:none;stroke:#ffff00;stroke-linecap:square;stroke-width:2;"/>
   </g>
   <g id="line2d_6">
    <path clip-path="url(#p07057d719d)" d="M 303.18511 46.077873 
L 360.817283 62.18098 
L 360.817283 62.18098 
" style="fill:none;stroke:#00ff00;stroke-linecap:square;stroke-width:2;"/>
   </g>
   <g id="line2d_7">
    <path clip-path="url(#p07057d719d)" d="M 389.633369 29.974766 
L 418.449456 38.02632 
L 418.449456 38.02632 
" style="fill:none;stroke:#00ff00;stroke-linecap:square;stroke-width:2;"/>
   </g>
   <g id="line2d_8">
    <path clip-path="url(#p07057d719d)" d="M 432.857499 66.206757 
L 461.673585 74.258311 
L 461.673585 74.258311 
" style="fill:none;stroke:#00ff00;stroke-linecap:square;stroke-width:2;"/>
   </g>
   <g id="line2d_9">
    <path clip-path="url(#p07057d719d)" d="M 490.489671 42.052097 
L 548.121844 58.155204 
L 548.121844 58.155204 
" style="fill:none;stroke:#00ff00;stroke-linecap:square;stroke-width:2;"/>
   </g>
   <g id="line2d_10">
    <path clip-path="url(#p07057d719d)" d="M 29.432291 58.155204 
L 87.064463 42.052097 
L 87.064463 42.052097 
" style="fill:none;stroke:#00ffff;stroke-linecap:square;stroke-width:2;"/>
   </g>
   <g id="line2d_11">
    <path clip-path="url(#p07057d719d)" d="M 115.880549 74.258311 
L 144.696636 66.206757 
L 144.696636 66.206757 
" style="fill:none;stroke:#00ffff;stroke-linecap:square;stroke-width:2;"/>
   </g>
   <g id="line2d_12">
    <path clip-path="url(#p07057d719d)" d="M 159.104679 38.02632 
L 187.920765 29.974766 
L 187.920765 29.974766 
" style="fill:none;stroke:#00ffff;stroke-linecap:square;stroke-width:2;"/>
   </g>
   <g id="line2d_13">
    <path clip-path="url(#p07057d719d)" d="M 216.736852 62.18098 
L 217.06319 62.089797 
L 217.331452 62.014842 
L 217.643691 61.927599 
L 217.780235 61.889447 
L 218.148844 61.786453 
L 218.562775 61.670796 
L 218.843637 61.59232 
L 219.034263 61.539057 
L 219.31569 61.460423 
L 219.676074 61.359727 
L 219.861554 61.307902 
L 220.313673 61.181574 
L 220.3649 61.167261 
L 220.665646 61.083229 
L 221.081719 60.966973 
L 221.256552 60.918123 
L 221.673863 60.801521 
L 221.982834 60.715191 
L 222.108244 60.68015 
L 222.554564 60.555443 
L 222.73563 60.504851 
L 223.234142 60.365561 
L 223.255793 60.359512 
L 223.543558 60.279106 
L 223.987073 60.155183 
L 224.145646 60.110876 
L 224.603029 59.983078 
L 224.974027 59.879417 
L 225.231844 59.80738 
L 225.413555 59.756607 
L 225.60274 59.703747 
L 225.950613 59.606547 
L 226.275627 59.515734 
L 226.701957 59.396613 
L 226.884226 59.345684 
L 227.128024 59.277565 
L 227.461764 59.184314 
L 227.642364 59.133852 
L 228.077239 59.012343 
L 228.291256 58.952544 
L 228.729318 58.830144 
L 228.931862 58.773551 
L 229.290314 58.673395 
L 229.544026 58.602505 
L 229.663973 58.56899 
L 229.952843 58.488277 
L 230.312923 58.387666 
L 230.774553 58.258681 
L 231.071152 58.175808 
L 231.237101 58.12944 
L 231.541084 58.044504 
L 231.864054 57.954262 
L 232.063982 57.8984 
L 232.413409 57.800766 
L 232.803836 57.691676 
L 232.99366 57.638637 
L 233.132434 57.599862 
L 233.634889 57.45947 
L 233.766267 57.422761 
L 234.017141 57.352664 
L 234.465306 57.227442 
L 234.766602 57.143256 
L 234.976353 57.084649 
L 235.388632 56.969454 
L 235.529759 56.930021 
L 235.993033 56.800577 
L 236.154262 56.755527 
L 236.405063 56.685451 
L 236.80824 56.572798 
L 237.13888 56.480414 
L 237.378129 56.413565 
L 237.512155 56.376116 
L 237.951768 56.253283 
L 238.19097 56.186447 
L 238.56962 56.080648 
L 238.857977 56.000078 
L 238.978431 55.966422 
L 239.349825 55.86265 
L 239.570941 55.800867 
" style="fill:none;stroke:#00ffff;stroke-linecap:square;stroke-width:2;"/>
   </g>
   <g id="line2d_14">
    <path clip-path="url(#p07057d719d)" d="M 240.469152 55.549896 
L 240.663626 55.495558 
L 241.031375 55.392805 
L 241.362941 55.300161 
L 241.659444 55.217315 
L 241.86247 55.160587 
L 242.130759 55.085624 
L 242.647664 54.941195 
L 242.819524 54.893175 
L 243.223871 54.780196 
L 243.404491 54.729728 
L 243.615316 54.670821 
L 244.012494 54.559845 
L 244.341141 54.468017 
L 244.469087 54.432267 
L 244.946739 54.298806 
L 245.158021 54.239771 
L 245.343174 54.188037 
L 245.584967 54.120478 
L 246.080475 53.982027 
L 246.262953 53.93104 
L 246.523889 53.858132 
L 246.821298 53.775032 
L 247.282521 53.646161 
L 247.341832 53.629589 
L 247.840325 53.490304 
L 248.091997 53.419984 
L 248.28088 53.367208 
L 248.686401 53.2539 
L 248.835355 53.212281 
L 249.060991 53.149235 
L 249.459509 53.037885 
L 249.713955 52.96679 
L 249.968814 52.895579 
L 250.261172 52.813891 
L 250.708219 52.688981 
L 251.031729 52.598588 
L 251.271045 52.53172 
L 251.450789 52.481498 
L 251.664465 52.421794 
L 252.023925 52.321357 
L 252.353655 52.229227 
L 252.533822 52.178886 
L 252.820957 52.098657 
L 253.153387 52.005772 
L 253.389915 51.939683 
L 253.746116 51.840157 
L 254.104353 51.740061 
L 254.410889 51.654411 
L 254.733921 51.564152 
L 254.822099 51.539514 
L 255.205699 51.432332 
L 255.472013 51.357921 
L 255.898932 51.238634 
L 256.005708 51.2088 
L 256.28123 51.131816 
L 256.824994 50.979882 
L 256.920642 50.953157 
L 257.23575 50.865112 
L 257.655386 50.74786 
L 257.777536 50.71373 
L 258.101098 50.623323 
L 258.576794 50.490408 
L 258.794063 50.429701 
L 258.909433 50.397465 
L 259.361175 50.271243 
L 259.680721 50.181958 
L 260.025821 50.085533 
L 260.128816 50.056755 
L 260.461096 49.963912 
L 260.717642 49.89223 
L 260.999975 49.813343 
L 261.479785 49.679279 
L 261.66278 49.628148 
L 261.871272 49.569892 
L 262.247287 49.464829 
L 262.58058 49.371703 
L 262.814554 49.306328 
L 262.938445 49.271712 
L 263.443905 49.13048 
L 263.649447 49.073049 
L 263.872175 49.010817 
L 264.372515 48.871016 
L 264.639703 48.79636 
L 264.944293 48.711254 
L 265.021469 48.68969 
L 265.388211 48.587218 
L 265.782298 48.477106 
L 265.873561 48.451606 
L 266.343875 48.320194 
L 266.45951 48.287885 
L 266.902411 48.164133 
L 267.118316 48.103806 
L 267.549623 47.983294 
L 267.662201 47.951838 
L 267.927 47.877851 
L 268.360583 47.756702 
L 268.605734 47.688204 
L 268.953363 47.591073 
L 269.13504 47.54031 
L 269.367073 47.475477 
L 269.762046 47.365117 
L 270.01508 47.294417 
L 270.353028 47.19999 
L 270.641283 47.119448 
L 270.872557 47.054827 
L 271.188578 46.966527 
L 271.345113 46.92279 
L 271.89388 46.769458 
L 271.939576 46.75669 
L 272.433021 46.618815 
L 272.629887 46.563809 
L 272.90548 46.486805 
L 273.252126 46.389948 
L 273.498724 46.321045 
L 273.771043 46.244956 
L 274.036019 46.170919 
L 274.369024 46.077873 
" style="fill:none;stroke:#00ffff;stroke-linecap:square;stroke-width:2;"/>
   </g>
   <g id="line2d_15">
    <path clip-path="url(#p07057d719d)" d="M 87.064463 42.052097 
L 115.880549 74.258311 
L 115.880549 74.258311 
" style="fill:none;stroke:#0000ff;stroke-linecap:square;stroke-width:2;"/>
   </g>
   <g id="line2d_16">
    <path clip-path="url(#p07057d719d)" d="M 187.920765 29.974766 
L 216.736852 62.18098 
L 216.736852 62.18098 
" style="fill:none;stroke:#0000ff;stroke-linecap:square;stroke-width:2;"/>
   </g>
   <g id="line2d_17">
    <path clip-path="url(#p07057d719d)" d="M 15.024247 86.335641 
L 29.432291 58.155204 
L 29.432291 58.155204 
" style="fill:none;stroke:#ff00ff;stroke-linecap:square;stroke-width:2;"/>
   </g>
   <g id="line2d_18">
    <path clip-path="url(#p07057d719d)" d="M 144.696636 66.206757 
L 159.104679 38.02632 
L 159.104679 38.02632 
" style="fill:none;stroke:#ff00ff;stroke-linecap:square;stroke-width:2;"/>
   </g>
   <g id="line2d_19">
    <path clip-path="url(#p07057d719d)" d="M 274.369024 46.077873 
L 288.777067 17.897436 
L 288.777067 17.897436 
" style="fill:none;stroke:#ff00ff;stroke-linecap:square;stroke-width:2;"/>
   </g>
   <g id="matplotlib.axis_1">
    <g id="xtick_1">
     <g id="line2d_20">
      <path clip-path="url(#p07057d719d)" d="M 15.024247 87.704405 
L 15.024247 16.528672 
" style="fill:none;stroke:#000000;stroke-dasharray:0.5,0.825;stroke-dashoffset:0;stroke-width:0.5;"/>
     </g>
     <g id="line2d_21">
      <defs>
       <path d="M 0 0 
L 0 3.5 
" id="m83e3344051" style="stroke:#000000;stroke-width:0.8;"/>
      </defs>
      <g>
       <use style="stroke:#000000;stroke-width:0.8;" x="15.024247" xlink:href="#m83e3344051" y="86.335641"/>
      </g>
     </g>
    </g>
    <g id="xtick_2">
     <g id="line2d_22">
      <path clip-path="url(#p07057d719d)" d="M 288.777067 87.704405 
L 288.777067 16.528672 
" style="fill:none;stroke:#000000;stroke-dasharray:0.5,0.825;stroke-dashoffset:0;stroke-width:0.5;"/>
     </g>
     <g id="line2d_23">
      <g>
       <use style="stroke:#000000;stroke-width:0.8;" x="288.777067" xlink:href="#m83e3344051" y="86.335641"/>
      </g>
     </g>
     <g id="text_1">
      <!-- $f$ -->
      <defs>
       <path d="M 9.71875 -16.5 
Q 11.578125 -17.921875 14.203125 -17.921875 
Q 17.78125 -17.921875 20.015625 -10.015625 
Q 20.953125 -6.203125 25.09375 15.09375 
L 29.6875 39.59375 
L 21.09375 39.59375 
Q 20.125 39.59375 20.125 40.921875 
Q 20.515625 43.109375 21.390625 43.109375 
L 30.328125 43.109375 
L 31.5 49.609375 
Q 32.078125 52.640625 32.5625 54.8125 
Q 33.0625 56.984375 33.625 58.828125 
Q 34.1875 60.6875 35.296875 62.984375 
Q 37.015625 66.265625 39.921875 68.390625 
Q 42.828125 70.515625 46.1875 70.515625 
Q 48.390625 70.515625 50.46875 69.703125 
Q 52.546875 68.890625 53.859375 67.28125 
Q 55.171875 65.671875 55.171875 63.484375 
Q 55.171875 60.9375 53.484375 59.046875 
Q 51.8125 57.171875 49.421875 57.171875 
Q 47.796875 57.171875 46.65625 58.171875 
Q 45.515625 59.1875 45.515625 60.796875 
Q 45.515625 62.984375 47 64.625 
Q 48.484375 66.265625 50.6875 66.5 
Q 48.828125 67.921875 46.09375 67.921875 
Q 44.578125 67.921875 43.234375 66.5 
Q 41.890625 65.09375 41.5 63.484375 
Q 40.875 60.9375 38.71875 49.703125 
L 37.5 43.109375 
L 47.796875 43.109375 
Q 48.78125 43.109375 48.78125 41.796875 
Q 48.734375 41.546875 48.578125 40.9375 
Q 48.4375 40.328125 48.171875 39.953125 
Q 47.90625 39.59375 47.515625 39.59375 
L 36.8125 39.59375 
L 32.171875 15.1875 
Q 31.296875 9.859375 30.140625 4.359375 
Q 29 -1.125 26.921875 -6.90625 
Q 24.859375 -12.703125 21.625 -16.609375 
Q 18.40625 -20.515625 14.015625 -20.515625 
Q 10.640625 -20.515625 7.984375 -18.578125 
Q 5.328125 -16.65625 5.328125 -13.484375 
Q 5.328125 -10.9375 6.953125 -9.046875 
Q 8.59375 -7.171875 11.078125 -7.171875 
Q 12.75 -7.171875 13.859375 -8.171875 
Q 14.984375 -9.1875 14.984375 -10.796875 
Q 14.984375 -12.9375 13.390625 -14.71875 
Q 11.8125 -16.5 9.71875 -16.5 
z
" id="Cmmi10-66"/>
      </defs>
      <g transform="translate(286.327067 100.913766)scale(0.1 -0.1)">
       <use transform="translate(0 0.484375)" xlink:href="#Cmmi10-66"/>
      </g>
     </g>
    </g>
    <g id="xtick_3">
     <g id="line2d_24">
      <path clip-path="url(#p07057d719d)" d="M 562.529887 87.704405 
L 562.529887 16.528672 
" style="fill:none;stroke:#000000;stroke-dasharray:0.5,0.825;stroke-dashoffset:0;stroke-width:0.5;"/>
     </g>
     <g id="line2d_25">
      <g>
       <use style="stroke:#000000;stroke-width:0.8;" x="562.529887" xlink:href="#m83e3344051" y="86.335641"/>
      </g>
     </g>
     <g id="text_2">
      <!-- $1$ -->
      <defs>
       <path d="M 9.28125 0 
L 9.28125 3.515625 
Q 21.78125 3.515625 21.78125 6.6875 
L 21.78125 59.1875 
Q 16.609375 56.6875 8.6875 56.6875 
L 8.6875 60.203125 
Q 20.953125 60.203125 27.203125 66.609375 
L 28.609375 66.609375 
Q 28.953125 66.609375 29.265625 66.328125 
Q 29.59375 66.0625 29.59375 65.71875 
L 29.59375 6.6875 
Q 29.59375 3.515625 42.09375 3.515625 
L 42.09375 0 
z
" id="Cmr10-31"/>
      </defs>
      <g transform="translate(560.029887 100.934078)scale(0.1 -0.1)">
       <use transform="translate(0 0.390625)" xlink:href="#Cmr10-31"/>
      </g>
     </g>
    </g>
   </g>
   <g id="matplotlib.axis_2">
    <g id="ytick_1">
     <g id="line2d_26">
      <path clip-path="url(#p07057d719d)" d="M 4.074135 86.335641 
L 573.48 86.335641 
" style="fill:none;stroke:#000000;stroke-dasharray:0.5,0.825;stroke-dashoffset:0;stroke-width:0.5;"/>
     </g>
     <g id="line2d_27">
      <defs>
       <path d="M 0 0 
L -3.5 0 
" id="m6dcfaf8a6c" style="stroke:#000000;stroke-width:0.8;"/>
      </defs>
      <g>
       <use style="stroke:#000000;stroke-width:0.8;" x="15.024247" xlink:href="#m6dcfaf8a6c" y="86.335641"/>
      </g>
     </g>
    </g>
    <g id="ytick_2">
     <g id="line2d_28">
      <path clip-path="url(#p07057d719d)" d="M 4.074135 17.897436 
L 573.48 17.897436 
" style="fill:none;stroke:#000000;stroke-dasharray:0.5,0.825;stroke-dashoffset:0;stroke-width:0.5;"/>
     </g>
     <g id="line2d_29">
      <g>
       <use style="stroke:#000000;stroke-width:0.8;" x="15.024247" xlink:href="#m6dcfaf8a6c" y="17.897436"/>
      </g>
     </g>
     <g id="text_3">
      <!-- $1$ -->
      <g transform="translate(3.024247 21.696655)scale(0.1 -0.1)">
       <use transform="translate(0 0.390625)" xlink:href="#Cmr10-31"/>
      </g>
     </g>
    </g>
   </g>
   <g id="patch_3">
    <path d="M 15.024247 87.704405 
L 15.024247 16.528672 
" style="fill:none;stroke:#000000;stroke-linecap:square;stroke-linejoin:miter;stroke-width:0.8;"/>
   </g>
   <g id="patch_4">
    <path d="M 4.074135 86.335641 
L 573.48 86.335641 
" style="fill:none;stroke:#000000;stroke-linecap:square;stroke-linejoin:miter;stroke-width:0.8;"/>
   </g>
  </g>
 </g>
 <defs>
  <clipPath id="p07057d719d">
   <rect height="71.175733" width="569.405865" x="4.074135" y="16.528672"/>
  </clipPath>
 </defs>
</svg>
