<?xml version="1.0" encoding="utf-8" standalone="no"?>
<!DOCTYPE svg PUBLIC "-//W3C//DTD SVG 1.1//EN"
  "http://www.w3.org/Graphics/SVG/1.1/DTD/svg11.dtd">
<!-- Created with matplotlib (http://matplotlib.org/) -->
<svg height="108pt" version="1.1" viewBox="0 0 576 108" width="576pt" xmlns="http://www.w3.org/2000/svg" xmlns:xlink="http://www.w3.org/1999/xlink">
 <defs>
  <style type="text/css">
*{stroke-linecap:butt;stroke-linejoin:round;}
  </style>
 </defs>
 <g id="figure_1">
  <g id="patch_1">
   <path d="M 0 108 
L 576 108 
L 576 0 
L 0 0 
z
" style="fill:#ffffff;"/>
  </g>
  <g id="axes_1">
   <g id="patch_2">
    <path d="M 4.074135 87.704405 
L 573.48 87.704405 
L 573.48 16.528672 
L 4.074135 16.528672 
z
" style="fill:#ffffff;"/>
   </g>
   <g id="line2d_1">
    <path clip-path="url(#pf1a64118a8)" d="M 15.024247 86.335641 
L 88.278827 63.538968 
L 88.278827 63.538968 
" style="fill:none;stroke:#ff0000;stroke-linecap:square;"/>
   </g>
   <g id="line2d_2">
    <path clip-path="url(#pf1a64118a8)" d="M 97.150093 69.08351 
L 99.000495 68.507669 
L 99.000495 68.507669 
" style="fill:none;stroke:#ff0000;stroke-linecap:square;"/>
   </g>
   <g id="line2d_3">
    <path clip-path="url(#pf1a64118a8)" d="M 99.887622 69.062123 
L 102.504485 68.247761 
L 102.504485 68.247761 
" style="fill:none;stroke:#ff0000;stroke-linecap:square;"/>
   </g>
   <g id="line2d_4">
    <path clip-path="url(#pf1a64118a8)" d="M 103.759071 69.031877 
L 162.913637 50.6231 
L 162.913637 50.6231 
" style="fill:none;stroke:#ff0000;stroke-linecap:square;"/>
   </g>
   <g id="line2d_5">
    <path clip-path="url(#pf1a64118a8)" d="M 206.651221 60.635669 
L 261.401785 43.597408 
L 261.401785 43.597408 
" style="fill:none;stroke:#ff0000;stroke-linecap:square;"/>
   </g>
   <g id="line2d_6">
    <path clip-path="url(#pf1a64118a8)" d="M 305.139369 53.609977 
L 364.293936 35.201199 
L 364.293936 35.201199 
" style="fill:none;stroke:#ff0000;stroke-linecap:square;"/>
   </g>
   <g id="line2d_7">
    <path clip-path="url(#pf1a64118a8)" d="M 365.548522 35.985316 
L 368.165385 35.170954 
L 368.165385 35.170954 
" style="fill:none;stroke:#ff0000;stroke-linecap:square;"/>
   </g>
   <g id="line2d_8">
    <path clip-path="url(#pf1a64118a8)" d="M 369.052512 35.725408 
L 370.902913 35.149567 
L 370.902913 35.149567 
" style="fill:none;stroke:#ff0000;stroke-linecap:square;"/>
   </g>
   <g id="line2d_9">
    <path clip-path="url(#pf1a64118a8)" d="M 379.77418 40.694108 
L 453.028759 17.897436 
L 453.028759 17.897436 
" style="fill:none;stroke:#ff0000;stroke-linecap:square;"/>
   </g>
   <g id="line2d_10">
    <path clip-path="url(#pf1a64118a8)" d="M 88.278827 63.538968 
L 97.150093 69.08351 
L 97.150093 69.08351 
" style="fill:none;stroke:#00ff00;stroke-linecap:square;"/>
   </g>
   <g id="line2d_11">
    <path clip-path="url(#pf1a64118a8)" d="M 99.000495 68.507669 
L 99.887622 69.062123 
L 99.887622 69.062123 
" style="fill:none;stroke:#00ff00;stroke-linecap:square;"/>
   </g>
   <g id="line2d_12">
    <path clip-path="url(#pf1a64118a8)" d="M 102.504485 68.247761 
L 103.759071 69.031877 
L 103.759071 69.031877 
" style="fill:none;stroke:#00ff00;stroke-linecap:square;"/>
   </g>
   <g id="line2d_13">
    <path clip-path="url(#pf1a64118a8)" d="M 162.913637 50.6231 
L 179.275939 60.849539 
L 179.275939 60.849539 
" style="fill:none;stroke:#00ff00;stroke-linecap:square;"/>
   </g>
   <g id="line2d_14">
    <path clip-path="url(#pf1a64118a8)" d="M 288.777067 43.383538 
L 305.139369 53.609977 
L 305.139369 53.609977 
" style="fill:none;stroke:#00ff00;stroke-linecap:square;"/>
   </g>
   <g id="line2d_15">
    <path clip-path="url(#pf1a64118a8)" d="M 364.293936 35.201199 
L 365.548522 35.985316 
L 365.548522 35.985316 
" style="fill:none;stroke:#00ff00;stroke-linecap:square;"/>
   </g>
   <g id="line2d_16">
    <path clip-path="url(#pf1a64118a8)" d="M 368.165385 35.170954 
L 369.052512 35.725408 
L 369.052512 35.725408 
" style="fill:none;stroke:#00ff00;stroke-linecap:square;"/>
   </g>
   <g id="line2d_17">
    <path clip-path="url(#pf1a64118a8)" d="M 370.902913 35.149567 
L 370.937728 35.171326 
L 371.006656 35.214406 
L 371.027965 35.227724 
L 371.093713 35.268817 
L 371.121445 35.286149 
L 371.166986 35.314612 
L 371.194967 35.3321 
L 371.25805 35.371527 
L 371.282832 35.387016 
L 371.332042 35.417772 
L 371.375589 35.444989 
L 371.429965 35.478974 
L 371.501116 35.523444 
L 371.53911 35.54719 
L 371.580512 35.573066 
L 371.611092 35.592179 
L 371.669196 35.628494 
L 371.711627 35.655013 
L 371.748304 35.677936 
L 371.803763 35.712598 
L 371.820985 35.723362 
L 371.868577 35.753106 
L 371.945005 35.800874 
L 371.973809 35.818876 
L 372.028007 35.85275 
L 372.061379 35.873608 
L 372.125352 35.913591 
L 372.129393 35.916117 
L 372.21379 35.968865 
L 372.22514 35.975959 
L 372.26873 36.003202 
L 372.334007 36.044 
L 372.373824 36.068886 
L 372.419329 36.097326 
L 372.458243 36.121648 
L 372.516703 36.158185 
L 372.549655 36.178781 
L 372.5924 36.205496 
L 372.627518 36.227445 
L 372.695596 36.269994 
L 372.749661 36.303784 
L 372.785574 36.32623 
L 372.826788 36.351988 
L 372.843525 36.362449 
L 372.930512 36.416816 
L 372.948529 36.428077 
L 372.981677 36.448794 
L 373.040554 36.485593 
L 373.081733 36.511329 
L 373.153608 36.556251 
L 373.154933 36.557079 
L 373.222069 36.599039 
L 373.282131 36.636578 
L 373.317659 36.658783 
L 373.37443 36.694265 
L 373.415656 36.720031 
L 373.441377 36.736107 
L 373.470104 36.754061 
L 373.527754 36.790093 
L 373.560108 36.810314 
L 373.617368 36.846101 
L 373.6867 36.889434 
L 373.71674 36.908209 
L 373.77471 36.94444 
L 373.803314 36.962317 
L 373.833142 36.98096 
L 373.870473 37.004292 
L 373.92844 37.040521 
L 373.964084 37.062798 
L 374.037978 37.108982 
L 374.073821 37.131384 
L 374.130937 37.167081 
L 374.177892 37.196429 
L 374.221081 37.223421 
L 374.25115 37.242215 
L 374.287442 37.264897 
L 374.319269 37.284789 
L 374.368979 37.315858 
L 374.446463 37.364285 
L 374.449118 37.365944 
L 374.494666 37.394412 
L 374.56757 37.439978 
L 374.619237 37.472269 
L 374.661359 37.498596 
L 374.706419 37.526758 
" style="fill:none;stroke:#00ff00;stroke-linecap:square;"/>
   </g>
   <g id="line2d_18">
    <path clip-path="url(#pf1a64118a8)" d="M 374.807788 37.590114 
L 374.861947 37.623963 
L 374.935952 37.670216 
L 374.941919 37.673945 
L 375.012575 37.718106 
L 375.068804 37.753248 
L 375.08463 37.763139 
L 375.147449 37.802401 
L 375.171051 37.817153 
L 375.244119 37.862821 
L 375.286218 37.889132 
L 375.333343 37.918586 
L 375.373665 37.943787 
L 375.401963 37.961473 
L 375.470617 38.004382 
L 375.489868 38.016414 
L 375.539596 38.047494 
L 375.572487 38.06805 
L 375.611615 38.092505 
L 375.689411 38.141128 
L 375.727367 38.16485 
L 375.744895 38.175805 
L 375.818826 38.222012 
L 375.858402 38.246747 
L 375.90278 38.274483 
L 375.941152 38.298466 
L 375.971755 38.317593 
L 376.027349 38.352339 
L 376.053363 38.368598 
L 376.121688 38.411301 
L 376.185439 38.451145 
L 376.222743 38.47446 
L 376.262781 38.499484 
L 376.28874 38.515708 
L 376.338341 38.546709 
L 376.392147 38.580338 
L 376.417751 38.596341 
L 376.486192 38.639116 
L 376.500684 38.648173 
L 376.555974 38.68273 
L 376.601642 38.711272 
L 376.670893 38.754554 
L 376.690138 38.766582 
L 376.738237 38.796644 
L 376.786765 38.826974 
L 376.829702 38.85381 
L 376.890247 38.89165 
L 376.90801 38.902752 
L 376.959225 38.934761 
L 377.017618 38.971257 
L 377.062213 38.999129 
L 377.088382 39.015485 
L 377.16225 39.061652 
L 377.193416 39.081131 
L 377.239465 39.109912 
L 377.289522 39.141197 
L 377.323723 39.162573 
L 377.38878 39.203234 
L 377.412749 39.218214 
L 377.460329 39.247951 
L 377.479062 39.25966 
L 377.523621 39.287509 
L 377.573123 39.318448 
L 377.638202 39.359122 
L 377.658502 39.37181 
L 377.736543 39.420585 
L 377.768139 39.440333 
L 377.796029 39.457764 
L 377.857729 39.496326 
L 377.899253 39.522279 
L 377.933863 39.54391 
L 378.001737 39.586332 
L 378.047851 39.615153 
L 378.087646 39.640025 
L 378.137963 39.671473 
L 378.153112 39.680941 
L 378.234692 39.731929 
L 378.252204 39.742873 
L 378.302534 39.77433 
L 378.369851 39.816403 
L 378.408673 39.840667 
L 378.441203 39.860998 
L 378.495039 39.894645 
L 378.533509 39.918689 
L 378.578748 39.946964 
L 378.617625 39.971261 
L 378.672666 40.005662 
L 378.713463 40.031161 
L 378.752083 40.055298 
L 378.803318 40.087319 
L 378.817935 40.096455 
L 378.872112 40.130316 
L 378.937072 40.170916 
L 378.991915 40.205193 
L 379.013947 40.218963 
L 379.067391 40.252365 
L 379.113609 40.281252 
L 379.156165 40.307849 
L 379.184998 40.32587 
L 379.261089 40.373427 
L 379.262608 40.374376 
L 379.307064 40.402161 
L 379.381452 40.448653 
L 379.428618 40.478132 
L 379.469663 40.503785 
L 379.51513 40.532202 
L 379.566821 40.564509 
L 379.615701 40.595059 
L 379.629026 40.603387 
L 379.678268 40.634163 
L 379.738201 40.671622 
L 379.77418 40.694108 
" style="fill:none;stroke:#00ff00;stroke-linecap:square;"/>
   </g>
   <g id="line2d_19">
    <path clip-path="url(#pf1a64118a8)" d="M 453.028759 17.897436 
L 562.529887 86.335641 
L 562.529887 86.335641 
" style="fill:none;stroke:#00ff00;stroke-linecap:square;"/>
   </g>
   <g id="line2d_20">
    <path clip-path="url(#pf1a64118a8)" d="M 179.275939 60.849539 
L 206.651221 60.635669 
L 206.651221 60.635669 
" style="fill:none;stroke:#0000ff;stroke-linecap:square;"/>
   </g>
   <g id="line2d_21">
    <path clip-path="url(#pf1a64118a8)" d="M 261.401785 43.597408 
L 288.777067 43.383538 
L 288.777067 43.383538 
" style="fill:none;stroke:#0000ff;stroke-linecap:square;"/>
   </g>
   <g id="matplotlib.axis_1">
    <g id="xtick_1">
     <g id="line2d_22">
      <path clip-path="url(#pf1a64118a8)" d="M 15.024247 87.704405 
L 15.024247 16.528672 
" style="fill:none;stroke:#000000;stroke-dasharray:0.5,0.825;stroke-dashoffset:0;stroke-width:0.5;"/>
     </g>
     <g id="line2d_23">
      <defs>
       <path d="M 0 0 
L 0 3.5 
" id="m1d3f389739" style="stroke:#000000;stroke-width:0.8;"/>
      </defs>
      <g>
       <use style="stroke:#000000;stroke-width:0.8;" x="15.024247" xlink:href="#m1d3f389739" y="86.335641"/>
      </g>
     </g>
    </g>
    <g id="xtick_2">
     <g id="line2d_24">
      <path clip-path="url(#pf1a64118a8)" d="M 453.028759 87.704405 
L 453.028759 16.528672 
" style="fill:none;stroke:#000000;stroke-dasharray:0.5,0.825;stroke-dashoffset:0;stroke-width:0.5;"/>
     </g>
     <g id="line2d_25">
      <g>
       <use style="stroke:#000000;stroke-width:0.8;" x="453.028759" xlink:href="#m1d3f389739" y="86.335641"/>
      </g>
     </g>
     <g id="text_1">
      <!-- $f$ -->
      <defs>
       <path d="M 9.71875 -16.5 
Q 11.578125 -17.921875 14.203125 -17.921875 
Q 17.78125 -17.921875 20.015625 -10.015625 
Q 20.953125 -6.203125 25.09375 15.09375 
L 29.6875 39.59375 
L 21.09375 39.59375 
Q 20.125 39.59375 20.125 40.921875 
Q 20.515625 43.109375 21.390625 43.109375 
L 30.328125 43.109375 
L 31.5 49.609375 
Q 32.078125 52.640625 32.5625 54.8125 
Q 33.0625 56.984375 33.625 58.828125 
Q 34.1875 60.6875 35.296875 62.984375 
Q 37.015625 66.265625 39.921875 68.390625 
Q 42.828125 70.515625 46.1875 70.515625 
Q 48.390625 70.515625 50.46875 69.703125 
Q 52.546875 68.890625 53.859375 67.28125 
Q 55.171875 65.671875 55.171875 63.484375 
Q 55.171875 60.9375 53.484375 59.046875 
Q 51.8125 57.171875 49.421875 57.171875 
Q 47.796875 57.171875 46.65625 58.171875 
Q 45.515625 59.1875 45.515625 60.796875 
Q 45.515625 62.984375 47 64.625 
Q 48.484375 66.265625 50.6875 66.5 
Q 48.828125 67.921875 46.09375 67.921875 
Q 44.578125 67.921875 43.234375 66.5 
Q 41.890625 65.09375 41.5 63.484375 
Q 40.875 60.9375 38.71875 49.703125 
L 37.5 43.109375 
L 47.796875 43.109375 
Q 48.78125 43.109375 48.78125 41.796875 
Q 48.734375 41.546875 48.578125 40.9375 
Q 48.4375 40.328125 48.171875 39.953125 
Q 47.90625 39.59375 47.515625 39.59375 
L 36.8125 39.59375 
L 32.171875 15.1875 
Q 31.296875 9.859375 30.140625 4.359375 
Q 29 -1.125 26.921875 -6.90625 
Q 24.859375 -12.703125 21.625 -16.609375 
Q 18.40625 -20.515625 14.015625 -20.515625 
Q 10.640625 -20.515625 7.984375 -18.578125 
Q 5.328125 -16.65625 5.328125 -13.484375 
Q 5.328125 -10.9375 6.953125 -9.046875 
Q 8.59375 -7.171875 11.078125 -7.171875 
Q 12.75 -7.171875 13.859375 -8.171875 
Q 14.984375 -9.1875 14.984375 -10.796875 
Q 14.984375 -12.9375 13.390625 -14.71875 
Q 11.8125 -16.5 9.71875 -16.5 
z
" id="Cmmi10-66"/>
      </defs>
      <g transform="translate(450.578759 100.913766)scale(0.1 -0.1)">
       <use transform="translate(0 0.484375)" xlink:href="#Cmmi10-66"/>
      </g>
     </g>
    </g>
    <g id="xtick_3">
     <g id="line2d_26">
      <path clip-path="url(#pf1a64118a8)" d="M 562.529887 87.704405 
L 562.529887 16.528672 
" style="fill:none;stroke:#000000;stroke-dasharray:0.5,0.825;stroke-dashoffset:0;stroke-width:0.5;"/>
     </g>
     <g id="line2d_27">
      <g>
       <use style="stroke:#000000;stroke-width:0.8;" x="562.529887" xlink:href="#m1d3f389739" y="86.335641"/>
      </g>
     </g>
     <g id="text_2">
      <!-- $1$ -->
      <defs>
       <path d="M 9.28125 0 
L 9.28125 3.515625 
Q 21.78125 3.515625 21.78125 6.6875 
L 21.78125 59.1875 
Q 16.609375 56.6875 8.6875 56.6875 
L 8.6875 60.203125 
Q 20.953125 60.203125 27.203125 66.609375 
L 28.609375 66.609375 
Q 28.953125 66.609375 29.265625 66.328125 
Q 29.59375 66.0625 29.59375 65.71875 
L 29.59375 6.6875 
Q 29.59375 3.515625 42.09375 3.515625 
L 42.09375 0 
z
" id="Cmr10-31"/>
      </defs>
      <g transform="translate(560.029887 100.934078)scale(0.1 -0.1)">
       <use transform="translate(0 0.390625)" xlink:href="#Cmr10-31"/>
      </g>
     </g>
    </g>
   </g>
   <g id="matplotlib.axis_2">
    <g id="ytick_1">
     <g id="line2d_28">
      <path clip-path="url(#pf1a64118a8)" d="M 4.074135 86.335641 
L 573.48 86.335641 
" style="fill:none;stroke:#000000;stroke-dasharray:0.5,0.825;stroke-dashoffset:0;stroke-width:0.5;"/>
     </g>
     <g id="line2d_29">
      <defs>
       <path d="M 0 0 
L -3.5 0 
" id="m22b40acd93" style="stroke:#000000;stroke-width:0.8;"/>
      </defs>
      <g>
       <use style="stroke:#000000;stroke-width:0.8;" x="15.024247" xlink:href="#m22b40acd93" y="86.335641"/>
      </g>
     </g>
    </g>
    <g id="ytick_2">
     <g id="line2d_30">
      <path clip-path="url(#pf1a64118a8)" d="M 4.074135 17.897436 
L 573.48 17.897436 
" style="fill:none;stroke:#000000;stroke-dasharray:0.5,0.825;stroke-dashoffset:0;stroke-width:0.5;"/>
     </g>
     <g id="line2d_31">
      <g>
       <use style="stroke:#000000;stroke-width:0.8;" x="15.024247" xlink:href="#m22b40acd93" y="17.897436"/>
      </g>
     </g>
     <g id="text_3">
      <!-- $1$ -->
      <g transform="translate(3.024247 21.696655)scale(0.1 -0.1)">
       <use transform="translate(0 0.390625)" xlink:href="#Cmr10-31"/>
      </g>
     </g>
    </g>
   </g>
   <g id="patch_3">
    <path d="M 15.024247 87.704405 
L 15.024247 16.528672 
" style="fill:none;stroke:#000000;stroke-linecap:square;stroke-linejoin:miter;stroke-width:0.8;"/>
   </g>
   <g id="patch_4">
    <path d="M 4.074135 86.335641 
L 573.48 86.335641 
" style="fill:none;stroke:#000000;stroke-linecap:square;stroke-linejoin:miter;stroke-width:0.8;"/>
   </g>
  </g>
 </g>
 <defs>
  <clipPath id="pf1a64118a8">
   <rect height="71.175733" width="569.405865" x="4.074135" y="16.528672"/>
  </clipPath>
 </defs>
</svg>
