<?xml version="1.0" encoding="utf-8" standalone="no"?>
<!DOCTYPE svg PUBLIC "-//W3C//DTD SVG 1.1//EN"
  "http://www.w3.org/Graphics/SVG/1.1/DTD/svg11.dtd">
<!-- Created with matplotlib (http://matplotlib.org/) -->
<svg height="108pt" version="1.1" viewBox="0 0 576 108" width="576pt" xmlns="http://www.w3.org/2000/svg" xmlns:xlink="http://www.w3.org/1999/xlink">
 <defs>
  <style type="text/css">
*{stroke-linecap:butt;stroke-linejoin:round;}
  </style>
 </defs>
 <g id="figure_1">
  <g id="patch_1">
   <path d="M 0 108 
L 576 108 
L 576 0 
L 0 0 
z
" style="fill:#ffffff;"/>
  </g>
  <g id="axes_1">
   <g id="patch_2">
    <path d="M 4.074135 87.704405 
L 573.48 87.704405 
L 573.48 16.528672 
L 4.074135 16.528672 
z
" style="fill:#ffffff;"/>
   </g>
   <g id="line2d_1">
    <path clip-path="url(#p0d0a97318f)" d="M 34.57802 52.116538 
L 54.131793 52.116538 
L 54.131793 52.116538 
" style="fill:none;stroke:#ff0000;stroke-linecap:square;stroke-width:2;"/>
   </g>
   <g id="line2d_2">
    <path clip-path="url(#p0d0a97318f)" d="M 73.685566 35.006987 
L 112.793112 35.006987 
L 112.793112 35.006987 
" style="fill:none;stroke:#ff0000;stroke-linecap:square;stroke-width:2;"/>
   </g>
   <g id="line2d_3">
    <path clip-path="url(#p0d0a97318f)" d="M 132.346885 52.116538 
L 171.45443 52.116538 
L 171.45443 52.116538 
" style="fill:none;stroke:#ff0000;stroke-linecap:square;stroke-width:2;"/>
   </g>
   <g id="line2d_4">
    <path clip-path="url(#p0d0a97318f)" d="M 191.008203 69.22609 
L 230.115749 69.22609 
L 230.115749 69.22609 
" style="fill:none;stroke:#ff0000;stroke-linecap:square;stroke-width:2;"/>
   </g>
   <g id="line2d_5">
    <path clip-path="url(#p0d0a97318f)" d="M 249.669522 52.116538 
L 269.223294 52.116538 
L 269.223294 52.116538 
" style="fill:none;stroke:#ff0000;stroke-linecap:square;stroke-width:2;"/>
   </g>
   <g id="line2d_6">
    <path clip-path="url(#p0d0a97318f)" d="M 347.438386 52.116538 
L 366.992159 52.116538 
L 366.992159 52.116538 
" style="fill:none;stroke:#ff0000;stroke-linecap:square;stroke-width:2;"/>
   </g>
   <g id="line2d_7">
    <path clip-path="url(#p0d0a97318f)" d="M 406.099704 52.116538 
L 445.20725 52.116538 
L 445.20725 52.116538 
" style="fill:none;stroke:#ff0000;stroke-linecap:square;stroke-width:2;"/>
   </g>
   <g id="line2d_8">
    <path clip-path="url(#p0d0a97318f)" d="M 484.314796 52.116538 
L 503.868569 52.116538 
L 503.868569 52.116538 
" style="fill:none;stroke:#ff0000;stroke-linecap:square;stroke-width:2;"/>
   </g>
   <g id="line2d_9">
    <path clip-path="url(#p0d0a97318f)" d="M 112.793112 35.006987 
L 132.346885 52.116538 
L 132.346885 52.116538 
" style="fill:none;stroke:#cbff00;stroke-linecap:square;stroke-width:2;"/>
   </g>
   <g id="line2d_10">
    <path clip-path="url(#p0d0a97318f)" d="M 171.45443 52.116538 
L 191.008203 69.22609 
L 191.008203 69.22609 
" style="fill:none;stroke:#cbff00;stroke-linecap:square;stroke-width:2;"/>
   </g>
   <g id="line2d_11">
    <path clip-path="url(#p0d0a97318f)" d="M 327.884613 35.006987 
L 327.987387 35.096914 
L 328.039473 35.14249 
L 328.158399 35.24655 
L 328.324862 35.392205 
L 328.402924 35.460509 
L 328.475 35.523576 
L 328.567673 35.604665 
L 328.675963 35.699418 
L 328.721878 35.739594 
L 328.903735 35.898719 
" style="fill:none;stroke:#cbff00;stroke-linecap:square;stroke-width:2;"/>
   </g>
   <g id="line2d_12">
    <path clip-path="url(#p0d0a97318f)" d="M 329.172096 36.133535 
L 347.438386 52.116538 
L 347.438386 52.116538 
" style="fill:none;stroke:#cbff00;stroke-linecap:square;stroke-width:2;"/>
   </g>
   <g id="line2d_13">
    <path clip-path="url(#p0d0a97318f)" d="M 366.992159 52.116538 
L 386.545932 69.22609 
L 386.545932 69.22609 
" style="fill:none;stroke:#cbff00;stroke-linecap:square;stroke-width:2;"/>
   </g>
   <g id="line2d_14">
    <path clip-path="url(#p0d0a97318f)" d="M 464.761023 35.006987 
L 484.314796 52.116538 
L 484.314796 52.116538 
" style="fill:none;stroke:#cbff00;stroke-linecap:square;stroke-width:2;"/>
   </g>
   <g id="line2d_15">
    <path clip-path="url(#p0d0a97318f)" d="M 503.868569 52.116538 
L 523.422342 69.22609 
L 523.422342 69.22609 
" style="fill:none;stroke:#cbff00;stroke-linecap:square;stroke-width:2;"/>
   </g>
   <g id="line2d_16">
    <path clip-path="url(#p0d0a97318f)" d="M 288.777067 17.897436 
L 308.33084 69.22609 
L 308.33084 69.22609 
" style="fill:none;stroke:#00ff66;stroke-linecap:square;stroke-width:2;"/>
   </g>
   <g id="line2d_17">
    <path clip-path="url(#p0d0a97318f)" d="M 542.976114 35.006987 
L 562.529887 86.335641 
L 562.529887 86.335641 
" style="fill:none;stroke:#00ff66;stroke-linecap:square;stroke-width:2;"/>
   </g>
   <g id="line2d_18">
    <path clip-path="url(#p0d0a97318f)" d="M 15.024247 86.335641 
L 34.57802 52.116538 
L 34.57802 52.116538 
" style="fill:none;stroke:#0066ff;stroke-linecap:square;stroke-width:2;"/>
   </g>
   <g id="line2d_19">
    <path clip-path="url(#p0d0a97318f)" d="M 269.223294 52.116538 
L 269.341916 51.908951 
L 269.44777 51.723707 
L 269.499813 51.632631 
L 269.616402 51.4286 
L 269.725065 51.238439 
L 269.778026 51.145758 
L 269.868495 50.987438 
L 269.979937 50.792414 
L 270.098387 50.585126 
L 270.196852 50.412813 
L 270.315709 50.204813 
L 270.42934 50.005959 
L 270.463147 49.946797 
L 270.570487 49.758951 
L 270.660438 49.601537 
L 270.805911 49.34696 
L 270.916972 49.152602 
L 270.943283 49.106558 
L 271.072926 48.879683 
L 271.229699 48.605331 
L 271.26785 48.538566 
L 271.405658 48.297402 
L 271.514646 48.106674 
L 271.583588 47.986024 
L 271.709079 47.766415 
L 271.816846 47.577824 
L 271.909985 47.41483 
L 271.981919 47.288945 
L 272.054175 47.162497 
L 272.141127 47.010331 
L 272.292362 46.745671 
L 272.407804 46.543648 
L 272.487252 46.404612 
L 272.603474 46.201225 
L 272.701366 46.029914 
L 272.720967 45.995612 
L 272.866626 45.740708 
L 272.963679 45.570865 
L 273.097976 45.335845 
L 273.202353 45.153186 
L 273.269591 45.03552 
L 273.323896 44.940485 
L 273.417889 44.775999 
L 273.540164 44.562017 
L 273.6117 44.436829 
L 273.735664 44.219891 
L 273.81918 44.073739 
L 273.955825 43.834611 
L 274.032412 43.700583 
L 274.140327 43.511731 
L 274.204644 43.399177 
L 274.294783 43.241434 
L 274.411264 43.037592 
L 274.569476 42.76072 
L 274.638898 42.639233 
L 274.742696 42.457585 
L 274.818389 42.325123 
L 274.877539 42.22161 
L 275.008994 41.991564 
L 275.138503 41.764923 
L 275.265128 41.543329 
L 275.323728 41.440781 
L 275.42619 41.261471 
L 275.478701 41.169576 
L 275.642839 40.882335 
L 275.718767 40.749461 
L 275.807462 40.594245 
L 275.943696 40.355835 
L 275.996272 40.263827 
L 276.072408 40.130591 
L 276.208202 39.89295 
L 276.298082 39.735659 
L 276.387214 39.579679 
L 276.454362 39.462171 
L 276.576576 39.248296 
L 276.666788 39.090425 
L 276.810135 38.839568 
L 276.923723 38.640789 
L 276.968874 38.561775 
L 277.06181 38.399136 
L 277.145992 38.251818 
L 277.263124 38.046836 
L 277.417343 37.776953 
L 277.45071 37.718561 
L 277.586942 37.480155 
L 277.628822 37.406865 
L 277.786217 37.131424 
L 277.826945 37.06015 
L 277.949432 36.845798 
L 278.062798 36.647407 
L 278.182417 36.438074 
L 278.234883 36.346258 
L 278.312911 36.20971 
L 278.453823 35.963114 
L 278.529436 35.830791 
L 278.678562 35.56982 
L 278.771234 35.407644 
L 278.828112 35.308108 
L 278.994202 35.01745 
L 279.025257 34.963103 
L 279.185717 34.682299 
L 279.232618 34.600223 
L 279.371781 34.356687 
L 279.419321 34.273491 
L 279.544988 34.053575 
L 279.654346 33.862198 
L 279.758017 33.680774 
L 279.793421 33.618818 
" style="fill:none;stroke:#0066ff;stroke-linecap:square;stroke-width:2;"/>
   </g>
   <g id="line2d_20">
    <path clip-path="url(#p0d0a97318f)" d="M 280.097901 33.085977 
L 280.18165 32.939416 
L 280.333426 32.673809 
L 280.45636 32.458673 
L 280.536968 32.31761 
L 280.631711 32.15181 
L 280.736772 31.967952 
L 280.844688 31.779101 
L 280.899956 31.682381 
L 281.033579 31.448541 
L 281.109842 31.31508 
L 281.247101 31.074877 
L 281.273809 31.028139 
L 281.401465 30.80474 
L 281.532329 30.575727 
L 281.616909 30.427712 
L 281.748325 30.197735 
L 281.781907 30.138966 
L 281.864265 29.99484 
L 282.011699 29.736831 
L 282.137967 29.515861 
L 282.16273 29.472526 
L 282.277155 29.272282 
L 282.399887 29.057501 
L 282.514463 28.856993 
L 282.630296 28.654287 
L 282.659631 28.602949 
L 282.76606 28.416698 
L 282.848566 28.272314 
L 282.933825 28.123111 
L 283.08839 27.852621 
L 283.149521 27.745642 
L 283.244589 27.579273 
L 283.332993 27.424565 
L 283.511634 27.111944 
L 283.562445 27.023025 
L 283.706449 26.771017 
L 283.754703 26.686573 
L 283.831445 26.552275 
L 283.946963 26.350118 
L 284.085805 26.107145 
L 284.137519 26.016645 
L 284.24236 25.833174 
L 284.401766 25.554213 
L 284.455863 25.459544 
L 284.590725 25.223535 
L 284.694785 25.04143 
L 284.734384 24.972131 
L 284.855568 24.76006 
L 284.977308 24.547015 
L 285.04847 24.422482 
L 285.187302 24.179525 
L 285.288106 24.003118 
L 285.291181 23.997738 
L 285.465444 23.692777 
L 285.576949 23.497643 
L 285.622076 23.41867 
L 285.683646 23.310924 
L 285.803512 23.101159 
L 285.940616 22.861226 
L 286.039368 22.68841 
L 286.118806 22.549393 
L 286.187299 22.42953 
L 286.332322 22.17574 
L 286.439872 21.987528 
L 286.556961 21.782622 
L 286.568858 21.761803 
L 286.748499 21.447431 
L 286.781743 21.389254 
L 286.936292 21.118794 
L 286.983714 21.035805 
L 287.121691 20.794345 
L 287.159975 20.727348 
L 287.314665 20.456641 
L 287.436169 20.244007 
L 287.545265 20.05309 
L 287.617472 19.926728 
L 287.694482 19.79196 
L 287.795591 19.615019 
L 287.845693 19.52734 
L 287.966635 19.315693 
L 288.099036 19.083991 
L 288.222641 18.867681 
L 288.29717 18.737256 
L 288.363331 18.621475 
L 288.460083 18.452159 
L 288.591905 18.22147 
L 288.682546 18.062849 
L 288.777067 17.897436 
" style="fill:none;stroke:#0066ff;stroke-linecap:square;stroke-width:2;"/>
   </g>
   <g id="line2d_21">
    <path clip-path="url(#p0d0a97318f)" d="M 308.33084 69.22609 
L 327.884613 35.006987 
L 327.884613 35.006987 
" style="fill:none;stroke:#0066ff;stroke-linecap:square;stroke-width:2;"/>
   </g>
   <g id="line2d_22">
    <path clip-path="url(#p0d0a97318f)" d="M 523.422342 69.22609 
L 542.976114 35.006987 
L 542.976114 35.006987 
" style="fill:none;stroke:#0066ff;stroke-linecap:square;stroke-width:2;"/>
   </g>
   <g id="line2d_23">
    <path clip-path="url(#p0d0a97318f)" d="M 54.131793 52.116538 
L 73.685566 35.006987 
L 73.685566 35.006987 
" style="fill:none;stroke:#cc00ff;stroke-linecap:square;stroke-width:2;"/>
   </g>
   <g id="line2d_24">
    <path clip-path="url(#p0d0a97318f)" d="M 230.115749 69.22609 
L 249.669522 52.116538 
L 249.669522 52.116538 
" style="fill:none;stroke:#cc00ff;stroke-linecap:square;stroke-width:2;"/>
   </g>
   <g id="line2d_25">
    <path clip-path="url(#p0d0a97318f)" d="M 386.545932 69.22609 
L 406.099704 52.116538 
L 406.099704 52.116538 
" style="fill:none;stroke:#cc00ff;stroke-linecap:square;stroke-width:2;"/>
   </g>
   <g id="line2d_26">
    <path clip-path="url(#p0d0a97318f)" d="M 445.20725 52.116538 
L 464.761023 35.006987 
L 464.761023 35.006987 
" style="fill:none;stroke:#cc00ff;stroke-linecap:square;stroke-width:2;"/>
   </g>
   <g id="matplotlib.axis_1">
    <g id="xtick_1">
     <g id="line2d_27">
      <path clip-path="url(#p0d0a97318f)" d="M 15.024247 87.704405 
L 15.024247 16.528672 
" style="fill:none;stroke:#000000;stroke-dasharray:0.5,0.825;stroke-dashoffset:0;stroke-width:0.5;"/>
     </g>
     <g id="line2d_28">
      <defs>
       <path d="M 0 0 
L 0 3.5 
" id="m1e524f7924" style="stroke:#000000;stroke-width:0.8;"/>
      </defs>
      <g>
       <use style="stroke:#000000;stroke-width:0.8;" x="15.024247" xlink:href="#m1e524f7924" y="86.335641"/>
      </g>
     </g>
    </g>
    <g id="xtick_2">
     <g id="line2d_29">
      <path clip-path="url(#p0d0a97318f)" d="M 288.777067 87.704405 
L 288.777067 16.528672 
" style="fill:none;stroke:#000000;stroke-dasharray:0.5,0.825;stroke-dashoffset:0;stroke-width:0.5;"/>
     </g>
     <g id="line2d_30">
      <g>
       <use style="stroke:#000000;stroke-width:0.8;" x="288.777067" xlink:href="#m1e524f7924" y="86.335641"/>
      </g>
     </g>
     <g id="text_1">
      <!-- $f$ -->
      <defs>
       <path d="M 9.71875 -16.5 
Q 11.578125 -17.921875 14.203125 -17.921875 
Q 17.78125 -17.921875 20.015625 -10.015625 
Q 20.953125 -6.203125 25.09375 15.09375 
L 29.6875 39.59375 
L 21.09375 39.59375 
Q 20.125 39.59375 20.125 40.921875 
Q 20.515625 43.109375 21.390625 43.109375 
L 30.328125 43.109375 
L 31.5 49.609375 
Q 32.078125 52.640625 32.5625 54.8125 
Q 33.0625 56.984375 33.625 58.828125 
Q 34.1875 60.6875 35.296875 62.984375 
Q 37.015625 66.265625 39.921875 68.390625 
Q 42.828125 70.515625 46.1875 70.515625 
Q 48.390625 70.515625 50.46875 69.703125 
Q 52.546875 68.890625 53.859375 67.28125 
Q 55.171875 65.671875 55.171875 63.484375 
Q 55.171875 60.9375 53.484375 59.046875 
Q 51.8125 57.171875 49.421875 57.171875 
Q 47.796875 57.171875 46.65625 58.171875 
Q 45.515625 59.1875 45.515625 60.796875 
Q 45.515625 62.984375 47 64.625 
Q 48.484375 66.265625 50.6875 66.5 
Q 48.828125 67.921875 46.09375 67.921875 
Q 44.578125 67.921875 43.234375 66.5 
Q 41.890625 65.09375 41.5 63.484375 
Q 40.875 60.9375 38.71875 49.703125 
L 37.5 43.109375 
L 47.796875 43.109375 
Q 48.78125 43.109375 48.78125 41.796875 
Q 48.734375 41.546875 48.578125 40.9375 
Q 48.4375 40.328125 48.171875 39.953125 
Q 47.90625 39.59375 47.515625 39.59375 
L 36.8125 39.59375 
L 32.171875 15.1875 
Q 31.296875 9.859375 30.140625 4.359375 
Q 29 -1.125 26.921875 -6.90625 
Q 24.859375 -12.703125 21.625 -16.609375 
Q 18.40625 -20.515625 14.015625 -20.515625 
Q 10.640625 -20.515625 7.984375 -18.578125 
Q 5.328125 -16.65625 5.328125 -13.484375 
Q 5.328125 -10.9375 6.953125 -9.046875 
Q 8.59375 -7.171875 11.078125 -7.171875 
Q 12.75 -7.171875 13.859375 -8.171875 
Q 14.984375 -9.1875 14.984375 -10.796875 
Q 14.984375 -12.9375 13.390625 -14.71875 
Q 11.8125 -16.5 9.71875 -16.5 
z
" id="Cmmi10-66"/>
      </defs>
      <g transform="translate(286.327067 100.913766)scale(0.1 -0.1)">
       <use transform="translate(0 0.484375)" xlink:href="#Cmmi10-66"/>
      </g>
     </g>
    </g>
    <g id="xtick_3">
     <g id="line2d_31">
      <path clip-path="url(#p0d0a97318f)" d="M 562.529887 87.704405 
L 562.529887 16.528672 
" style="fill:none;stroke:#000000;stroke-dasharray:0.5,0.825;stroke-dashoffset:0;stroke-width:0.5;"/>
     </g>
     <g id="line2d_32">
      <g>
       <use style="stroke:#000000;stroke-width:0.8;" x="562.529887" xlink:href="#m1e524f7924" y="86.335641"/>
      </g>
     </g>
     <g id="text_2">
      <!-- $1$ -->
      <defs>
       <path d="M 9.28125 0 
L 9.28125 3.515625 
Q 21.78125 3.515625 21.78125 6.6875 
L 21.78125 59.1875 
Q 16.609375 56.6875 8.6875 56.6875 
L 8.6875 60.203125 
Q 20.953125 60.203125 27.203125 66.609375 
L 28.609375 66.609375 
Q 28.953125 66.609375 29.265625 66.328125 
Q 29.59375 66.0625 29.59375 65.71875 
L 29.59375 6.6875 
Q 29.59375 3.515625 42.09375 3.515625 
L 42.09375 0 
z
" id="Cmr10-31"/>
      </defs>
      <g transform="translate(560.029887 100.934078)scale(0.1 -0.1)">
       <use transform="translate(0 0.390625)" xlink:href="#Cmr10-31"/>
      </g>
     </g>
    </g>
   </g>
   <g id="matplotlib.axis_2">
    <g id="ytick_1">
     <g id="line2d_33">
      <path clip-path="url(#p0d0a97318f)" d="M 4.074135 86.335641 
L 573.48 86.335641 
" style="fill:none;stroke:#000000;stroke-dasharray:0.5,0.825;stroke-dashoffset:0;stroke-width:0.5;"/>
     </g>
     <g id="line2d_34">
      <defs>
       <path d="M 0 0 
L -3.5 0 
" id="m314eeadbc6" style="stroke:#000000;stroke-width:0.8;"/>
      </defs>
      <g>
       <use style="stroke:#000000;stroke-width:0.8;" x="15.024247" xlink:href="#m314eeadbc6" y="86.335641"/>
      </g>
     </g>
    </g>
    <g id="ytick_2">
     <g id="line2d_35">
      <path clip-path="url(#p0d0a97318f)" d="M 4.074135 17.897436 
L 573.48 17.897436 
" style="fill:none;stroke:#000000;stroke-dasharray:0.5,0.825;stroke-dashoffset:0;stroke-width:0.5;"/>
     </g>
     <g id="line2d_36">
      <g>
       <use style="stroke:#000000;stroke-width:0.8;" x="15.024247" xlink:href="#m314eeadbc6" y="17.897436"/>
      </g>
     </g>
     <g id="text_3">
      <!-- $1$ -->
      <g transform="translate(3.024247 21.696655)scale(0.1 -0.1)">
       <use transform="translate(0 0.390625)" xlink:href="#Cmr10-31"/>
      </g>
     </g>
    </g>
   </g>
   <g id="patch_3">
    <path d="M 15.024247 87.704405 
L 15.024247 16.528672 
" style="fill:none;stroke:#000000;stroke-linecap:square;stroke-linejoin:miter;stroke-width:0.8;"/>
   </g>
   <g id="patch_4">
    <path d="M 4.074135 86.335641 
L 573.48 86.335641 
" style="fill:none;stroke:#000000;stroke-linecap:square;stroke-linejoin:miter;stroke-width:0.8;"/>
   </g>
  </g>
 </g>
 <defs>
  <clipPath id="p0d0a97318f">
   <rect height="71.175733" width="569.405865" x="4.074135" y="16.528672"/>
  </clipPath>
 </defs>
</svg>
