<?xml version="1.0" encoding="utf-8" standalone="no"?>
<!DOCTYPE svg PUBLIC "-//W3C//DTD SVG 1.1//EN"
  "http://www.w3.org/Graphics/SVG/1.1/DTD/svg11.dtd">
<!-- Created with matplotlib (http://matplotlib.org/) -->
<svg height="108pt" version="1.1" viewBox="0 0 576 108" width="576pt" xmlns="http://www.w3.org/2000/svg" xmlns:xlink="http://www.w3.org/1999/xlink">
 <defs>
  <style type="text/css">
*{stroke-linecap:butt;stroke-linejoin:round;}
  </style>
 </defs>
 <g id="figure_1">
  <g id="patch_1">
   <path d="M 0 108 
L 576 108 
L 576 0 
L 0 0 
z
" style="fill:#ffffff;"/>
  </g>
  <g id="axes_1">
   <g id="patch_2">
    <path d="M 4.074135 87.704405 
L 573.48 87.704405 
L 573.48 16.528672 
L 4.074135 16.528672 
z
" style="fill:#ffffff;"/>
   </g>
   <g id="line2d_1">
    <path clip-path="url(#pa3a2dd90cd)" d="M 309.834977 47.228095 
L 351.950795 66.781868 
L 351.950795 66.781868 
" style="fill:none;stroke:#ff0000;stroke-linecap:square;stroke-width:2;"/>
   </g>
   <g id="line2d_2">
    <path clip-path="url(#pa3a2dd90cd)" d="M 394.066613 27.674322 
L 415.124523 37.451209 
L 415.124523 37.451209 
" style="fill:none;stroke:#ff0000;stroke-linecap:square;stroke-width:2;"/>
   </g>
   <g id="line2d_3">
    <path clip-path="url(#pa3a2dd90cd)" d="M 436.182432 66.781868 
L 457.240341 76.558755 
L 457.240341 76.558755 
" style="fill:none;stroke:#ff0000;stroke-linecap:square;stroke-width:2;"/>
   </g>
   <g id="line2d_4">
    <path clip-path="url(#pa3a2dd90cd)" d="M 499.35616 37.451209 
L 541.471978 57.004982 
L 541.471978 57.004982 
" style="fill:none;stroke:#ff0000;stroke-linecap:square;stroke-width:2;"/>
   </g>
   <g id="line2d_5">
    <path clip-path="url(#pa3a2dd90cd)" d="M 78.197975 37.451209 
L 120.313794 76.558755 
L 120.313794 76.558755 
" style="fill:none;stroke:#ffff00;stroke-linecap:square;stroke-width:2;"/>
   </g>
   <g id="line2d_6">
    <path clip-path="url(#pa3a2dd90cd)" d="M 183.487521 27.674322 
L 225.60334 66.781868 
L 225.60334 66.781868 
" style="fill:none;stroke:#ffff00;stroke-linecap:square;stroke-width:2;"/>
   </g>
   <g id="line2d_7">
    <path clip-path="url(#pa3a2dd90cd)" d="M 15.024247 86.335641 
L 36.082157 57.004982 
L 36.082157 57.004982 
" style="fill:none;stroke:#00ff00;stroke-linecap:square;stroke-width:2;"/>
   </g>
   <g id="line2d_8">
    <path clip-path="url(#pa3a2dd90cd)" d="M 141.371703 66.781868 
L 162.429612 37.451209 
L 162.429612 37.451209 
" style="fill:none;stroke:#00ff00;stroke-linecap:square;stroke-width:2;"/>
   </g>
   <g id="line2d_9">
    <path clip-path="url(#pa3a2dd90cd)" d="M 267.719158 47.228095 
L 288.777067 17.897436 
L 288.777067 17.897436 
" style="fill:none;stroke:#00ff00;stroke-linecap:square;stroke-width:2;"/>
   </g>
   <g id="line2d_10">
    <path clip-path="url(#pa3a2dd90cd)" d="M 288.777067 17.897436 
L 309.834977 47.228095 
L 309.834977 47.228095 
" style="fill:none;stroke:#00ffff;stroke-linecap:square;stroke-width:2;"/>
   </g>
   <g id="line2d_11">
    <path clip-path="url(#pa3a2dd90cd)" d="M 415.124523 37.451209 
L 415.206514 37.565411 
L 415.330126 37.737584 
L 415.464355 37.924547 
L 415.526233 38.010734 
L 415.683307 38.229515 
L 415.733213 38.299027 
L 415.890114 38.517568 
L 415.944966 38.593969 
L 416.109657 38.823361 
L 416.214294 38.969104 
L 416.334386 39.136376 
L 416.388178 39.2113 
L 416.495267 39.36046 
L 416.656701 39.585314 
L 416.763312 39.733808 
L 416.792865 39.774971 
L 416.876865 39.891972 
L 417.008141 40.074821 
L 417.178417 40.31199 
L 417.202555 40.345612 
L 417.299787 40.481041 
L 417.433115 40.666748 
L 417.527314 40.797954 
L 417.710833 41.053569 
L 417.752916 41.112185 
L 417.920409 41.34548 
L 418.013142 41.474643 
L 418.048004 41.5232 
L 418.217287 41.758987 
L 418.298251 41.871759 
L 418.374622 41.978133 
L 418.545103 42.215588 
L 418.620977 42.321271 
L 418.676931 42.399206 
L 418.794003 42.562271 
L 418.909214 42.722743 
L 419.018834 42.875428 
L 419.133675 43.035385 
L 419.208582 43.139721 
L 419.370739 43.365582 
L 419.500597 43.546455 
L 419.548853 43.613669 
L 419.687966 43.807433 
L 419.737703 43.87671 
L 419.856032 44.041526 
L 419.961327 44.188187 
L 420.129829 44.422885 
L 420.165807 44.472998 
L 420.280864 44.633255 
L 420.377354 44.767653 
L 420.53439 44.986382 
L 420.66203 45.164165 
L 420.754371 45.292783 
L 420.825427 45.391754 
L 420.910409 45.510122 
L 421.033354 45.681366 
L 421.124697 45.808595 
L 421.221203 45.943013 
L 421.375929 46.158525 
L 421.522303 46.362403 
L 421.53883 46.385422 
L 421.655293 46.547639 
L 421.771985 46.710175 
L 421.90278 46.892353 
L 422.016894 47.051297 
L 422.131701 47.211208 
L 422.170115 47.264712 
L 422.328491 47.485308 
L 422.373251 47.547652 
L 422.480855 47.69753 
L 422.624139 47.897103 
L 422.711832 48.019247 
L 422.823776 48.175169 
L 422.94602 48.345438 
L 423.082495 48.535527 
L 423.153894 48.634976 
L 423.301674 48.840812 
L 423.35269 48.91187 
L 423.510439 49.131593 
L 423.630603 49.298964 
L 423.739778 49.451029 
L 423.785861 49.515216 
L 423.959155 49.756589 
L 424.028614 49.853336 
L 424.110881 49.967923 
L 424.218944 50.118438 
L 424.36973 50.328461 
L 424.452078 50.443161 
L 424.51265 50.527529 
L 424.682957 50.764742 
L 424.775722 50.893951 
L 424.818241 50.953174 
L 424.96753 51.161111 
L 425.05605 51.284408 
L 425.190287 51.471381 
L 425.248431 51.552366 
L 425.424997 51.798298 
" style="fill:none;stroke:#00ffff;stroke-linecap:square;stroke-width:2;"/>
   </g>
   <g id="line2d_12">
    <path clip-path="url(#pa3a2dd90cd)" d="M 425.716601 52.204461 
L 425.820931 52.349777 
L 425.907559 52.470439 
L 425.976077 52.565874 
L 426.156056 52.816558 
L 426.190281 52.86423 
L 426.306657 53.026324 
L 426.433018 53.202328 
L 426.570036 53.393174 
L 426.697983 53.571386 
L 426.784467 53.691845 
L 426.914296 53.872679 
L 426.960886 53.937572 
L 427.066547 54.084743 
L 427.218403 54.296256 
L 427.290632 54.396861 
L 427.45213 54.621804 
L 427.548969 54.756687 
L 427.583063 54.804176 
L 427.732548 55.012387 
L 427.825514 55.141876 
L 427.979328 55.356116 
L 428.037114 55.436604 
L 428.127569 55.562594 
L 428.204178 55.6693 
L 428.360034 55.886385 
L 428.437797 55.994698 
L 428.589461 56.205944 
L 428.678765 56.330332 
L 428.770545 56.458169 
L 428.866009 56.591136 
L 429.00118 56.77941 
L 429.108405 56.928759 
L 429.1854 57.036002 
L 429.251528 57.128109 
L 429.359311 57.278235 
L 429.506077 57.48266 
L 429.66792 57.708084 
L 429.746842 57.81801 
L 429.80933 57.905048 
L 429.939362 58.086164 
L 430.012688 58.188297 
L 430.185482 58.428974 
L 430.307999 58.599623 
L 430.368616 58.684053 
L 430.460112 58.811493 
L 430.622391 59.037526 
L 430.642178 59.065086 
L 430.744602 59.207748 
L 430.910913 59.439395 
L 431.012187 59.580456 
L 431.074127 59.666729 
L 431.238801 59.896096 
L 431.315117 60.002394 
L 431.435261 60.169738 
L 431.508301 60.271472 
L 431.676734 60.506074 
L 431.730194 60.580536 
L 431.861769 60.763802 
L 431.915612 60.838798 
L 432.021363 60.986094 
L 432.156833 61.174784 
L 432.306029 61.382593 
L 432.362492 61.461237 
L 432.458757 61.59532 
L 432.570897 61.751516 
L 432.73939 61.986202 
L 432.808647 62.082668 
L 432.878319 62.179711 
L 432.964007 62.299062 
L 433.164645 62.578522 
L 433.199859 62.62757 
L 433.33619 62.81746 
L 433.450197 62.976255 
L 433.520225 63.073794 
L 433.685309 63.303732 
L 433.719731 63.351677 
L 433.805034 63.470492 
L 433.908242 63.614246 
L 434.01715 63.76594 
L 434.187899 64.003768 
L 434.276079 64.126591 
L 434.347588 64.226193 
L 434.45707 64.378685 
L 434.616674 64.600991 
L 434.682306 64.692407 
L 434.835679 64.906033 
L 434.932047 65.040261 
L 435.006834 65.144428 
L 435.080346 65.24682 
L 435.244466 65.475416 
L 435.338099 65.605833 
L 435.426867 65.729473 
L 435.502529 65.834861 
L 435.60314 65.974997 
L 435.784313 66.227346 
L 435.857096 66.328722 
L 436.003549 66.53271 
L 436.030584 66.570366 
L 436.182432 66.781868 
" style="fill:none;stroke:#00ffff;stroke-linecap:square;stroke-width:2;"/>
   </g>
   <g id="line2d_13">
    <path clip-path="url(#pa3a2dd90cd)" d="M 541.471978 57.004982 
L 562.529887 86.335641 
L 562.529887 86.335641 
" style="fill:none;stroke:#00ffff;stroke-linecap:square;stroke-width:2;"/>
   </g>
   <g id="line2d_14">
    <path clip-path="url(#pa3a2dd90cd)" d="M 351.950795 66.781868 
L 394.066613 27.674322 
L 394.066613 27.674322 
" style="fill:none;stroke:#0000ff;stroke-linecap:square;stroke-width:2;"/>
   </g>
   <g id="line2d_15">
    <path clip-path="url(#pa3a2dd90cd)" d="M 457.240341 76.558755 
L 499.35616 37.451209 
L 499.35616 37.451209 
" style="fill:none;stroke:#0000ff;stroke-linecap:square;stroke-width:2;"/>
   </g>
   <g id="line2d_16">
    <path clip-path="url(#pa3a2dd90cd)" d="M 36.082157 57.004982 
L 78.197975 37.451209 
L 78.197975 37.451209 
" style="fill:none;stroke:#ff00ff;stroke-linecap:square;stroke-width:2;"/>
   </g>
   <g id="line2d_17">
    <path clip-path="url(#pa3a2dd90cd)" d="M 120.313794 76.558755 
L 141.371703 66.781868 
L 141.371703 66.781868 
" style="fill:none;stroke:#ff00ff;stroke-linecap:square;stroke-width:2;"/>
   </g>
   <g id="line2d_18">
    <path clip-path="url(#pa3a2dd90cd)" d="M 162.429612 37.451209 
L 183.487521 27.674322 
L 183.487521 27.674322 
" style="fill:none;stroke:#ff00ff;stroke-linecap:square;stroke-width:2;"/>
   </g>
   <g id="line2d_19">
    <path clip-path="url(#pa3a2dd90cd)" d="M 225.60334 66.781868 
L 267.719158 47.228095 
L 267.719158 47.228095 
" style="fill:none;stroke:#ff00ff;stroke-linecap:square;stroke-width:2;"/>
   </g>
   <g id="matplotlib.axis_1">
    <g id="xtick_1">
     <g id="line2d_20">
      <path clip-path="url(#pa3a2dd90cd)" d="M 15.024247 87.704405 
L 15.024247 16.528672 
" style="fill:none;stroke:#000000;stroke-dasharray:0.5,0.825;stroke-dashoffset:0;stroke-width:0.5;"/>
     </g>
     <g id="line2d_21">
      <defs>
       <path d="M 0 0 
L 0 3.5 
" id="m2150d07436" style="stroke:#000000;stroke-width:0.8;"/>
      </defs>
      <g>
       <use style="stroke:#000000;stroke-width:0.8;" x="15.024247" xlink:href="#m2150d07436" y="86.335641"/>
      </g>
     </g>
    </g>
    <g id="xtick_2">
     <g id="line2d_22">
      <path clip-path="url(#pa3a2dd90cd)" d="M 288.777067 87.704405 
L 288.777067 16.528672 
" style="fill:none;stroke:#000000;stroke-dasharray:0.5,0.825;stroke-dashoffset:0;stroke-width:0.5;"/>
     </g>
     <g id="line2d_23">
      <g>
       <use style="stroke:#000000;stroke-width:0.8;" x="288.777067" xlink:href="#m2150d07436" y="86.335641"/>
      </g>
     </g>
     <g id="text_1">
      <!-- $f$ -->
      <defs>
       <path d="M 9.71875 -16.5 
Q 11.578125 -17.921875 14.203125 -17.921875 
Q 17.78125 -17.921875 20.015625 -10.015625 
Q 20.953125 -6.203125 25.09375 15.09375 
L 29.6875 39.59375 
L 21.09375 39.59375 
Q 20.125 39.59375 20.125 40.921875 
Q 20.515625 43.109375 21.390625 43.109375 
L 30.328125 43.109375 
L 31.5 49.609375 
Q 32.078125 52.640625 32.5625 54.8125 
Q 33.0625 56.984375 33.625 58.828125 
Q 34.1875 60.6875 35.296875 62.984375 
Q 37.015625 66.265625 39.921875 68.390625 
Q 42.828125 70.515625 46.1875 70.515625 
Q 48.390625 70.515625 50.46875 69.703125 
Q 52.546875 68.890625 53.859375 67.28125 
Q 55.171875 65.671875 55.171875 63.484375 
Q 55.171875 60.9375 53.484375 59.046875 
Q 51.8125 57.171875 49.421875 57.171875 
Q 47.796875 57.171875 46.65625 58.171875 
Q 45.515625 59.1875 45.515625 60.796875 
Q 45.515625 62.984375 47 64.625 
Q 48.484375 66.265625 50.6875 66.5 
Q 48.828125 67.921875 46.09375 67.921875 
Q 44.578125 67.921875 43.234375 66.5 
Q 41.890625 65.09375 41.5 63.484375 
Q 40.875 60.9375 38.71875 49.703125 
L 37.5 43.109375 
L 47.796875 43.109375 
Q 48.78125 43.109375 48.78125 41.796875 
Q 48.734375 41.546875 48.578125 40.9375 
Q 48.4375 40.328125 48.171875 39.953125 
Q 47.90625 39.59375 47.515625 39.59375 
L 36.8125 39.59375 
L 32.171875 15.1875 
Q 31.296875 9.859375 30.140625 4.359375 
Q 29 -1.125 26.921875 -6.90625 
Q 24.859375 -12.703125 21.625 -16.609375 
Q 18.40625 -20.515625 14.015625 -20.515625 
Q 10.640625 -20.515625 7.984375 -18.578125 
Q 5.328125 -16.65625 5.328125 -13.484375 
Q 5.328125 -10.9375 6.953125 -9.046875 
Q 8.59375 -7.171875 11.078125 -7.171875 
Q 12.75 -7.171875 13.859375 -8.171875 
Q 14.984375 -9.1875 14.984375 -10.796875 
Q 14.984375 -12.9375 13.390625 -14.71875 
Q 11.8125 -16.5 9.71875 -16.5 
z
" id="Cmmi10-66"/>
      </defs>
      <g transform="translate(286.327067 100.913766)scale(0.1 -0.1)">
       <use transform="translate(0 0.484375)" xlink:href="#Cmmi10-66"/>
      </g>
     </g>
    </g>
    <g id="xtick_3">
     <g id="line2d_24">
      <path clip-path="url(#pa3a2dd90cd)" d="M 562.529887 87.704405 
L 562.529887 16.528672 
" style="fill:none;stroke:#000000;stroke-dasharray:0.5,0.825;stroke-dashoffset:0;stroke-width:0.5;"/>
     </g>
     <g id="line2d_25">
      <g>
       <use style="stroke:#000000;stroke-width:0.8;" x="562.529887" xlink:href="#m2150d07436" y="86.335641"/>
      </g>
     </g>
     <g id="text_2">
      <!-- $1$ -->
      <defs>
       <path d="M 9.28125 0 
L 9.28125 3.515625 
Q 21.78125 3.515625 21.78125 6.6875 
L 21.78125 59.1875 
Q 16.609375 56.6875 8.6875 56.6875 
L 8.6875 60.203125 
Q 20.953125 60.203125 27.203125 66.609375 
L 28.609375 66.609375 
Q 28.953125 66.609375 29.265625 66.328125 
Q 29.59375 66.0625 29.59375 65.71875 
L 29.59375 6.6875 
Q 29.59375 3.515625 42.09375 3.515625 
L 42.09375 0 
z
" id="Cmr10-31"/>
      </defs>
      <g transform="translate(560.029887 100.934078)scale(0.1 -0.1)">
       <use transform="translate(0 0.390625)" xlink:href="#Cmr10-31"/>
      </g>
     </g>
    </g>
   </g>
   <g id="matplotlib.axis_2">
    <g id="ytick_1">
     <g id="line2d_26">
      <path clip-path="url(#pa3a2dd90cd)" d="M 4.074135 86.335641 
L 573.48 86.335641 
" style="fill:none;stroke:#000000;stroke-dasharray:0.5,0.825;stroke-dashoffset:0;stroke-width:0.5;"/>
     </g>
     <g id="line2d_27">
      <defs>
       <path d="M 0 0 
L -3.5 0 
" id="mb4c9466fef" style="stroke:#000000;stroke-width:0.8;"/>
      </defs>
      <g>
       <use style="stroke:#000000;stroke-width:0.8;" x="15.024247" xlink:href="#mb4c9466fef" y="86.335641"/>
      </g>
     </g>
    </g>
    <g id="ytick_2">
     <g id="line2d_28">
      <path clip-path="url(#pa3a2dd90cd)" d="M 4.074135 17.897436 
L 573.48 17.897436 
" style="fill:none;stroke:#000000;stroke-dasharray:0.5,0.825;stroke-dashoffset:0;stroke-width:0.5;"/>
     </g>
     <g id="line2d_29">
      <g>
       <use style="stroke:#000000;stroke-width:0.8;" x="15.024247" xlink:href="#mb4c9466fef" y="17.897436"/>
      </g>
     </g>
     <g id="text_3">
      <!-- $1$ -->
      <g transform="translate(3.024247 21.696655)scale(0.1 -0.1)">
       <use transform="translate(0 0.390625)" xlink:href="#Cmr10-31"/>
      </g>
     </g>
    </g>
   </g>
   <g id="patch_3">
    <path d="M 15.024247 87.704405 
L 15.024247 16.528672 
" style="fill:none;stroke:#000000;stroke-linecap:square;stroke-linejoin:miter;stroke-width:0.8;"/>
   </g>
   <g id="patch_4">
    <path d="M 4.074135 86.335641 
L 573.48 86.335641 
" style="fill:none;stroke:#000000;stroke-linecap:square;stroke-linejoin:miter;stroke-width:0.8;"/>
   </g>
  </g>
 </g>
 <defs>
  <clipPath id="pa3a2dd90cd">
   <rect height="71.175733" width="569.405865" x="4.074135" y="16.528672"/>
  </clipPath>
 </defs>
</svg>
