<?xml version="1.0" encoding="utf-8" standalone="no"?>
<!DOCTYPE svg PUBLIC "-//W3C//DTD SVG 1.1//EN"
  "http://www.w3.org/Graphics/SVG/1.1/DTD/svg11.dtd">
<!-- Created with matplotlib (http://matplotlib.org/) -->
<svg height="108pt" version="1.1" viewBox="0 0 576 108" width="576pt" xmlns="http://www.w3.org/2000/svg" xmlns:xlink="http://www.w3.org/1999/xlink">
 <defs>
  <style type="text/css">
*{stroke-linecap:butt;stroke-linejoin:round;}
  </style>
 </defs>
 <g id="figure_1">
  <g id="patch_1">
   <path d="M 0 108 
L 576 108 
L 576 0 
L 0 0 
z
" style="fill:#ffffff;"/>
  </g>
  <g id="axes_1">
   <g id="patch_2">
    <path d="M 4.074135 87.704405 
L 573.48 87.704405 
L 573.48 16.528672 
L 4.074135 16.528672 
z
" style="fill:#ffffff;"/>
   </g>
   <g id="line2d_1">
    <path clip-path="url(#p39ade38763)" d="M 62.930991 77.780865 
L 350.371452 26.452212 
L 350.371452 26.452212 
" style="fill:none;stroke:#ff0000;stroke-linecap:square;stroke-width:2;"/>
   </g>
   <g id="line2d_2">
    <path clip-path="url(#p39ade38763)" d="M 418.809657 26.452212 
L 541.998426 77.780865 
L 541.998426 77.780865 
" style="fill:none;stroke:#7fff00;stroke-linecap:square;stroke-width:2;"/>
   </g>
   <g id="line2d_3">
    <path clip-path="url(#p39ade38763)" d="M 15.024247 86.335641 
L 58.368444 75.499592 
L 58.368444 75.499592 
" style="fill:none;stroke:#00ffff;stroke-linecap:square;stroke-width:2;"/>
   </g>
   <g id="line2d_4">
    <path clip-path="url(#p39ade38763)" d="M 354.933999 28.733485 
L 398.278195 17.897436 
L 398.278195 17.897436 
" style="fill:none;stroke:#00ffff;stroke-linecap:square;stroke-width:2;"/>
   </g>
   <g id="line2d_5">
    <path clip-path="url(#p39ade38763)" d="M 416.528383 27.02253 
L 418.809657 26.452212 
L 418.809657 26.452212 
" style="fill:none;stroke:#00ffff;stroke-linecap:square;stroke-width:2;"/>
   </g>
   <g id="line2d_6">
    <path clip-path="url(#p39ade38763)" d="M 541.998426 77.780865 
L 542.009546 77.778085 
L 542.018934 77.775738 
L 542.027376 77.773628 
L 542.044545 77.769335 
L 542.055448 77.76661 
L 542.069679 77.763052 
L 542.075236 77.761663 
L 542.085601 77.759072 
L 542.098469 77.755855 
L 542.11191 77.752494 
L 542.127455 77.748608 
L 542.130323 77.747891 
L 542.149057 77.743208 
L 542.155374 77.741628 
L 542.172085 77.73745 
L 542.187077 77.733702 
L 542.195327 77.73164 
L 542.20496 77.729232 
L 542.216947 77.726235 
L 542.231987 77.722475 
L 542.236765 77.721281 
L 542.255446 77.71661 
L 542.260263 77.715406 
L 542.269094 77.713198 
L 542.283664 77.709556 
L 542.302029 77.704964 
L 542.302916 77.704743 
L 542.313867 77.702005 
L 542.331381 77.697626 
L 542.337498 77.696097 
L 542.353121 77.692191 
L 542.367661 77.688557 
L 542.37961 77.685569 
L 542.384394 77.684373 
L 542.398355 77.680883 
L 542.407951 77.678484 
L 542.425655 77.674058 
L 542.42832 77.673392 
L 542.451001 77.667721 
L 542.460069 77.665454 
L 542.474141 77.661937 
L 542.481571 77.660079 
L 542.494236 77.656913 
L 542.500499 77.655347 
L 542.510444 77.652861 
L 542.529371 77.648129 
L 542.537492 77.646099 
L 542.554394 77.641873 
L 542.559426 77.640615 
L 542.575576 77.636578 
L 542.583606 77.63457 
L 542.599007 77.63072 
L 542.602216 77.629918 
L 542.614536 77.626838 
L 542.62476 77.624282 
L 542.6443 77.619397 
L 542.651607 77.61757 
L 542.667841 77.613511 
L 542.679528 77.61059 
L 542.685668 77.609055 
L 542.701529 77.605089 
L 542.708398 77.603372 
L 542.718973 77.600728 
L 542.727142 77.598686 
L 542.744003 77.594471 
L 542.760719 77.590292 
L 542.767431 77.588614 
L 542.782784 77.584776 
L 542.783881 77.584501 
L 542.796972 77.581229 
L 542.816442 77.576361 
L 542.823528 77.57459 
L 542.837045 77.571211 
" style="fill:none;stroke:#00ffff;stroke-linecap:square;stroke-width:2;"/>
   </g>
   <g id="line2d_7">
    <path clip-path="url(#p39ade38763)" d="M 542.869799 77.563022 
L 542.880946 77.560235 
L 542.891957 77.557482 
L 542.908822 77.553266 
L 542.910214 77.552918 
L 542.926793 77.548773 
L 542.940547 77.545335 
L 542.944416 77.544368 
L 542.957286 77.54115 
L 542.970581 77.537826 
L 542.980321 77.535391 
L 542.997551 77.531084 
L 543.009494 77.528098 
L 543.019228 77.525665 
L 543.032456 77.522358 
L 543.038041 77.520962 
L 543.054632 77.516814 
L 543.05925 77.515659 
L 543.080323 77.510391 
L 543.082768 77.50978 
L 543.099432 77.505614 
L 543.11209 77.502449 
L 543.127182 77.498676 
L 543.1362 77.496422 
L 543.147862 77.493506 
L 543.150839 77.492762 
L 543.168396 77.488373 
L 543.179921 77.485491 
L 543.187678 77.483552 
L 543.207065 77.478706 
L 543.208506 77.478345 
L 543.223841 77.474512 
L 543.233455 77.472108 
L 543.2475 77.468597 
L 543.263635 77.464563 
L 543.276286 77.4614 
L 543.279805 77.460521 
L 543.297784 77.456026 
L 543.303892 77.454499 
L 543.316645 77.451311 
L 543.325419 77.449117 
L 543.334919 77.446742 
L 543.352977 77.442228 
L 543.359947 77.440485 
L 543.368707 77.438295 
L 543.387116 77.433693 
L 543.39568 77.431552 
L 543.407277 77.428652 
L 543.419147 77.425685 
L 543.428111 77.423444 
L 543.447321 77.418641 
L 543.452766 77.41728 
L 543.471094 77.412698 
L 543.478581 77.410827 
L 543.492643 77.407311 
L 543.497972 77.405979 
L 543.516882 77.401251 
L 543.521005 77.400221 
L 543.533842 77.397011 
L 543.540422 77.395366 
L 543.552723 77.392291 
L 543.568671 77.388304 
L 543.576052 77.386459 
L 543.595784 77.381526 
L 543.60633 77.378889 
L 543.615631 77.376564 
L 543.623249 77.37466 
L 543.642204 77.369921 
L 543.653572 77.367079 
L 543.656752 77.366284 
L 543.669254 77.363158 
L 543.68168 77.360052 
L 543.697391 77.356124 
L 543.709155 77.353183 
L 543.721171 77.350179 
L 543.726085 77.34895 
L 543.744675 77.344303 
L 543.747658 77.343557 
L 543.769343 77.338136 
L 543.773149 77.337185 
L 543.78469 77.334299 
L 543.795192 77.331674 
L 543.808892 77.328249 
L 543.816471 77.326354 
L 543.831684 77.322551 
L 543.840873 77.320253 
L 543.855871 77.316504 
L 543.866648 77.31381 
L 543.88387 77.309504 
L 543.885467 77.309105 
L 543.901863 77.305006 
L 543.911656 77.302558 
L 543.928059 77.298457 
L 543.932519 77.297342 
L 543.950446 77.29286 
L 543.958355 77.290883 
L 543.975764 77.286531 
L 543.981234 77.285163 
L 543.991892 77.282499 
L 544.005872 77.279004 
L 544.02154 77.275087 
L 544.032015 77.272468 
L 544.038553 77.270834 
L 544.053613 77.267069 
L 544.065286 77.26415 
L 544.078145 77.260935 
L 544.079761 77.260531 
L 544.100405 77.25537 
L 544.11331 77.252144 
L 544.122616 77.249818 
L 544.13154 77.247587 
L 544.13644 77.246362 
L 544.159239 77.240662 
L 544.16108 77.240202 
L 544.175892 77.236499 
L 544.193301 77.232146 
L 544.203079 77.229702 
L 544.206262 77.228906 
L 544.218809 77.225769 
L 544.234231 77.221914 
L 544.243828 77.219515 
L 544.252187 77.217425 
L 544.265588 77.214075 
L 544.279699 77.210547 
" style="fill:none;stroke:#00ffff;stroke-linecap:square;stroke-width:2;"/>
   </g>
   <g id="line2d_8">
    <path clip-path="url(#p39ade38763)" d="M 58.368444 75.499592 
L 62.930991 77.780865 
L 62.930991 77.780865 
" style="fill:none;stroke:#7f00ff;stroke-linecap:square;stroke-width:2;"/>
   </g>
   <g id="line2d_9">
    <path clip-path="url(#p39ade38763)" d="M 350.371452 26.452212 
L 354.933999 28.733485 
L 354.933999 28.733485 
" style="fill:none;stroke:#7f00ff;stroke-linecap:square;stroke-width:2;"/>
   </g>
   <g id="line2d_10">
    <path clip-path="url(#p39ade38763)" d="M 398.278195 17.897436 
L 416.528383 27.02253 
L 416.528383 27.02253 
" style="fill:none;stroke:#7f00ff;stroke-linecap:square;stroke-width:2;"/>
   </g>
   <g id="line2d_11">
    <path clip-path="url(#p39ade38763)" d="M 544.279699 77.210547 
L 562.529887 86.335641 
L 562.529887 86.335641 
" style="fill:none;stroke:#7f00ff;stroke-linecap:square;stroke-width:2;"/>
   </g>
   <g id="matplotlib.axis_1">
    <g id="xtick_1">
     <g id="line2d_12">
      <path clip-path="url(#p39ade38763)" d="M 15.024247 87.704405 
L 15.024247 16.528672 
" style="fill:none;stroke:#000000;stroke-dasharray:0.5,0.825;stroke-dashoffset:0;stroke-width:0.5;"/>
     </g>
     <g id="line2d_13">
      <defs>
       <path d="M 0 0 
L 0 3.5 
" id="m6434620c77" style="stroke:#000000;stroke-width:0.8;"/>
      </defs>
      <g>
       <use style="stroke:#000000;stroke-width:0.8;" x="15.024247" xlink:href="#m6434620c77" y="86.335641"/>
      </g>
     </g>
    </g>
    <g id="xtick_2">
     <g id="line2d_14">
      <path clip-path="url(#p39ade38763)" d="M 398.278195 87.704405 
L 398.278195 16.528672 
" style="fill:none;stroke:#000000;stroke-dasharray:0.5,0.825;stroke-dashoffset:0;stroke-width:0.5;"/>
     </g>
     <g id="line2d_15">
      <g>
       <use style="stroke:#000000;stroke-width:0.8;" x="398.278195" xlink:href="#m6434620c77" y="86.335641"/>
      </g>
     </g>
     <g id="text_1">
      <!-- $f$ -->
      <defs>
       <path d="M 9.71875 -16.5 
Q 11.578125 -17.921875 14.203125 -17.921875 
Q 17.78125 -17.921875 20.015625 -10.015625 
Q 20.953125 -6.203125 25.09375 15.09375 
L 29.6875 39.59375 
L 21.09375 39.59375 
Q 20.125 39.59375 20.125 40.921875 
Q 20.515625 43.109375 21.390625 43.109375 
L 30.328125 43.109375 
L 31.5 49.609375 
Q 32.078125 52.640625 32.5625 54.8125 
Q 33.0625 56.984375 33.625 58.828125 
Q 34.1875 60.6875 35.296875 62.984375 
Q 37.015625 66.265625 39.921875 68.390625 
Q 42.828125 70.515625 46.1875 70.515625 
Q 48.390625 70.515625 50.46875 69.703125 
Q 52.546875 68.890625 53.859375 67.28125 
Q 55.171875 65.671875 55.171875 63.484375 
Q 55.171875 60.9375 53.484375 59.046875 
Q 51.8125 57.171875 49.421875 57.171875 
Q 47.796875 57.171875 46.65625 58.171875 
Q 45.515625 59.1875 45.515625 60.796875 
Q 45.515625 62.984375 47 64.625 
Q 48.484375 66.265625 50.6875 66.5 
Q 48.828125 67.921875 46.09375 67.921875 
Q 44.578125 67.921875 43.234375 66.5 
Q 41.890625 65.09375 41.5 63.484375 
Q 40.875 60.9375 38.71875 49.703125 
L 37.5 43.109375 
L 47.796875 43.109375 
Q 48.78125 43.109375 48.78125 41.796875 
Q 48.734375 41.546875 48.578125 40.9375 
Q 48.4375 40.328125 48.171875 39.953125 
Q 47.90625 39.59375 47.515625 39.59375 
L 36.8125 39.59375 
L 32.171875 15.1875 
Q 31.296875 9.859375 30.140625 4.359375 
Q 29 -1.125 26.921875 -6.90625 
Q 24.859375 -12.703125 21.625 -16.609375 
Q 18.40625 -20.515625 14.015625 -20.515625 
Q 10.640625 -20.515625 7.984375 -18.578125 
Q 5.328125 -16.65625 5.328125 -13.484375 
Q 5.328125 -10.9375 6.953125 -9.046875 
Q 8.59375 -7.171875 11.078125 -7.171875 
Q 12.75 -7.171875 13.859375 -8.171875 
Q 14.984375 -9.1875 14.984375 -10.796875 
Q 14.984375 -12.9375 13.390625 -14.71875 
Q 11.8125 -16.5 9.71875 -16.5 
z
" id="Cmmi10-66"/>
      </defs>
      <g transform="translate(395.828195 100.913766)scale(0.1 -0.1)">
       <use transform="translate(0 0.484375)" xlink:href="#Cmmi10-66"/>
      </g>
     </g>
    </g>
    <g id="xtick_3">
     <g id="line2d_16">
      <path clip-path="url(#p39ade38763)" d="M 562.529887 87.704405 
L 562.529887 16.528672 
" style="fill:none;stroke:#000000;stroke-dasharray:0.5,0.825;stroke-dashoffset:0;stroke-width:0.5;"/>
     </g>
     <g id="line2d_17">
      <g>
       <use style="stroke:#000000;stroke-width:0.8;" x="562.529887" xlink:href="#m6434620c77" y="86.335641"/>
      </g>
     </g>
     <g id="text_2">
      <!-- $1$ -->
      <defs>
       <path d="M 9.28125 0 
L 9.28125 3.515625 
Q 21.78125 3.515625 21.78125 6.6875 
L 21.78125 59.1875 
Q 16.609375 56.6875 8.6875 56.6875 
L 8.6875 60.203125 
Q 20.953125 60.203125 27.203125 66.609375 
L 28.609375 66.609375 
Q 28.953125 66.609375 29.265625 66.328125 
Q 29.59375 66.0625 29.59375 65.71875 
L 29.59375 6.6875 
Q 29.59375 3.515625 42.09375 3.515625 
L 42.09375 0 
z
" id="Cmr10-31"/>
      </defs>
      <g transform="translate(560.029887 100.934078)scale(0.1 -0.1)">
       <use transform="translate(0 0.390625)" xlink:href="#Cmr10-31"/>
      </g>
     </g>
    </g>
   </g>
   <g id="matplotlib.axis_2">
    <g id="ytick_1">
     <g id="line2d_18">
      <path clip-path="url(#p39ade38763)" d="M 4.074135 86.335641 
L 573.48 86.335641 
" style="fill:none;stroke:#000000;stroke-dasharray:0.5,0.825;stroke-dashoffset:0;stroke-width:0.5;"/>
     </g>
     <g id="line2d_19">
      <defs>
       <path d="M 0 0 
L -3.5 0 
" id="mdf7153e2ed" style="stroke:#000000;stroke-width:0.8;"/>
      </defs>
      <g>
       <use style="stroke:#000000;stroke-width:0.8;" x="15.024247" xlink:href="#mdf7153e2ed" y="86.335641"/>
      </g>
     </g>
    </g>
    <g id="ytick_2">
     <g id="line2d_20">
      <path clip-path="url(#p39ade38763)" d="M 4.074135 17.897436 
L 573.48 17.897436 
" style="fill:none;stroke:#000000;stroke-dasharray:0.5,0.825;stroke-dashoffset:0;stroke-width:0.5;"/>
     </g>
     <g id="line2d_21">
      <g>
       <use style="stroke:#000000;stroke-width:0.8;" x="15.024247" xlink:href="#mdf7153e2ed" y="17.897436"/>
      </g>
     </g>
     <g id="text_3">
      <!-- $1$ -->
      <g transform="translate(3.024247 21.696655)scale(0.1 -0.1)">
       <use transform="translate(0 0.390625)" xlink:href="#Cmr10-31"/>
      </g>
     </g>
    </g>
   </g>
   <g id="patch_3">
    <path d="M 15.024247 87.704405 
L 15.024247 16.528672 
" style="fill:none;stroke:#000000;stroke-linecap:square;stroke-linejoin:miter;stroke-width:0.8;"/>
   </g>
   <g id="patch_4">
    <path d="M 4.074135 86.335641 
L 573.48 86.335641 
" style="fill:none;stroke:#000000;stroke-linecap:square;stroke-linejoin:miter;stroke-width:0.8;"/>
   </g>
  </g>
 </g>
 <defs>
  <clipPath id="p39ade38763">
   <rect height="71.175733" width="569.405865" x="4.074135" y="16.528672"/>
  </clipPath>
 </defs>
</svg>
