<?xml version="1.0" encoding="utf-8" standalone="no"?>
<!DOCTYPE svg PUBLIC "-//W3C//DTD SVG 1.1//EN"
  "http://www.w3.org/Graphics/SVG/1.1/DTD/svg11.dtd">
<!-- Created with matplotlib (http://matplotlib.org/) -->
<svg height="108pt" version="1.1" viewBox="0 0 576 108" width="576pt" xmlns="http://www.w3.org/2000/svg" xmlns:xlink="http://www.w3.org/1999/xlink">
 <defs>
  <style type="text/css">
*{stroke-linecap:butt;stroke-linejoin:round;}
  </style>
 </defs>
 <g id="figure_1">
  <g id="patch_1">
   <path d="M 0 108 
L 576 108 
L 576 0 
L 0 0 
z
" style="fill:#ffffff;"/>
  </g>
  <g id="axes_1">
   <g id="patch_2">
    <path d="M 4.074135 87.704405 
L 573.48 87.704405 
L 573.48 16.528672 
L 4.074135 16.528672 
z
" style="fill:#ffffff;"/>
   </g>
   <g id="line2d_1">
    <path clip-path="url(#p1d81e02fa3)" d="M 15.024247 86.335641 
L 35.302234 47.614025 
L 35.302234 47.614025 
" style="fill:none;stroke:#ff0000;stroke-linecap:square;stroke-width:2;"/>
   </g>
   <g id="line2d_2">
    <path clip-path="url(#p1d81e02fa3)" d="M 136.692167 56.619052 
L 156.970154 17.897436 
L 156.970154 17.897436 
" style="fill:none;stroke:#ff0000;stroke-linecap:square;stroke-width:2;"/>
   </g>
   <g id="line2d_3">
    <path clip-path="url(#p1d81e02fa3)" d="M 35.302234 47.614025 
L 55.580221 33.205982 
L 55.580221 33.205982 
" style="fill:none;stroke:#ffff00;stroke-linecap:square;stroke-width:2;"/>
   </g>
   <g id="line2d_4">
    <path clip-path="url(#p1d81e02fa3)" d="M 116.414181 71.027095 
L 136.692167 56.619052 
L 136.692167 56.619052 
" style="fill:none;stroke:#ffff00;stroke-linecap:square;stroke-width:2;"/>
   </g>
   <g id="line2d_5">
    <path clip-path="url(#p1d81e02fa3)" d="M 217.804114 55.718549 
L 238.082101 41.310506 
L 238.082101 41.310506 
" style="fill:none;stroke:#ffff00;stroke-linecap:square;stroke-width:2;"/>
   </g>
   <g id="line2d_6">
    <path clip-path="url(#p1d81e02fa3)" d="M 481.417941 62.922571 
L 501.695927 48.514528 
L 501.695927 48.514528 
" style="fill:none;stroke:#ffff00;stroke-linecap:square;stroke-width:2;"/>
   </g>
   <g id="line2d_7">
    <path clip-path="url(#p1d81e02fa3)" d="M 75.858207 35.006987 
L 96.136194 69.22609 
L 96.136194 69.22609 
" style="fill:none;stroke:#00ff00;stroke-linecap:square;stroke-width:2;"/>
   </g>
   <g id="line2d_8">
    <path clip-path="url(#p1d81e02fa3)" d="M 156.970154 17.897436 
L 177.248141 52.116538 
L 177.248141 52.116538 
" style="fill:none;stroke:#00ff00;stroke-linecap:square;stroke-width:2;"/>
   </g>
   <g id="line2d_9">
    <path clip-path="url(#p1d81e02fa3)" d="M 542.251901 52.116538 
L 562.529887 86.335641 
L 562.529887 86.335641 
" style="fill:none;stroke:#00ff00;stroke-linecap:square;stroke-width:2;"/>
   </g>
   <g id="line2d_10">
    <path clip-path="url(#p1d81e02fa3)" d="M 258.360087 35.006987 
L 278.638074 53.017041 
L 278.638074 53.017041 
" style="fill:none;stroke:#00ffff;stroke-linecap:square;stroke-width:2;"/>
   </g>
   <g id="line2d_11">
    <path clip-path="url(#p1d81e02fa3)" d="M 339.472034 34.106485 
L 380.028007 70.126592 
L 380.028007 70.126592 
" style="fill:none;stroke:#00ffff;stroke-linecap:square;stroke-width:2;"/>
   </g>
   <g id="line2d_12">
    <path clip-path="url(#p1d81e02fa3)" d="M 440.861967 51.216036 
L 461.139954 69.22609 
L 461.139954 69.22609 
" style="fill:none;stroke:#00ffff;stroke-linecap:square;stroke-width:2;"/>
   </g>
   <g id="line2d_13">
    <path clip-path="url(#p1d81e02fa3)" d="M 238.082101 41.310506 
L 258.360087 35.006987 
L 258.360087 35.006987 
" style="fill:none;stroke:#0000ff;stroke-linecap:square;stroke-width:2;"/>
   </g>
   <g id="line2d_14">
    <path clip-path="url(#p1d81e02fa3)" d="M 278.638074 53.017041 
L 339.472034 34.106485 
L 339.472034 34.106485 
" style="fill:none;stroke:#0000ff;stroke-linecap:square;stroke-width:2;"/>
   </g>
   <g id="line2d_15">
    <path clip-path="url(#p1d81e02fa3)" d="M 380.028007 70.126592 
L 440.861967 51.216036 
L 440.861967 51.216036 
" style="fill:none;stroke:#0000ff;stroke-linecap:square;stroke-width:2;"/>
   </g>
   <g id="line2d_16">
    <path clip-path="url(#p1d81e02fa3)" d="M 461.139954 69.22609 
L 481.417941 62.922571 
L 481.417941 62.922571 
" style="fill:none;stroke:#0000ff;stroke-linecap:square;stroke-width:2;"/>
   </g>
   <g id="line2d_17">
    <path clip-path="url(#p1d81e02fa3)" d="M 55.580221 33.205982 
L 55.718774 33.218288 
L 55.785697 33.224231 
L 55.855434 33.230425 
L 55.954498 33.239224 
L 56.041145 33.246919 
L 56.156993 33.257208 
L 56.318101 33.271517 
L 56.414903 33.280115 
L 56.516243 33.289115 
L 56.631062 33.299313 
L 56.692001 33.304725 
L 56.76314 33.311044 
L 56.888499 33.322178 
L 57.056998 33.337143 
L 57.124957 33.343179 
L 57.183811 33.348406 
L 57.353956 33.363518 
L 57.45587 33.372569 
L 57.540768 33.380109 
L 57.664271 33.391078 
L 57.686817 33.393081 
L 57.807192 33.403772 
L 57.896452 33.4117 
L 58.037612 33.424237 
L 58.136539 33.433023 
L 58.267152 33.444624 
L 58.313772 33.448764 
L 58.411704 33.457462 
L 58.500889 33.465383 
L 58.619013 33.475875 
L 58.742249 33.48682 
L 58.877137 33.4988 
L 58.899747 33.500808 
L 59.055791 33.514667 
L 59.141613 33.52229 
L 59.257321 33.532566 
L 59.344983 33.540352 
L 59.474066 33.551817 
L 59.542829 33.557924 
L 59.677916 33.569922 
L 59.715754 33.573283 
L 59.822785 33.582789 
L 59.944389 33.593589 
L 60.020924 33.600386 
L 60.191594 33.615545 
L 60.263791 33.621957 
L 60.333308 33.628131 
L 60.475342 33.640746 
L 60.573245 33.649441 
L 60.674397 33.658425 
L 60.750448 33.66518 
L 60.853637 33.674344 
L 61.000463 33.687385 
L 61.058579 33.692547 
L 61.183205 33.703615 
L 61.262103 33.710623 
L 61.358432 33.719178 
L 61.478248 33.72982 
L 61.593391 33.740046 
L 61.708583 33.750277 
L 61.757806 33.754649 
L 61.869216 33.764544 
L 61.981532 33.774519 
L 62.099229 33.784973 
L 62.243058 33.797747 
L 62.269121 33.800062 
L 62.382445 33.810127 
L 62.483483 33.819101 
L 62.582153 33.827864 
L 62.733931 33.841344 
L 62.845097 33.851218 
L 62.877376 33.854084 
L 63.043665 33.868854 
L 63.126999 33.876255 
L 63.258562 33.88794 
L 63.336558 33.894867 
L 63.40151 33.900636 
L 63.52219 33.911354 
L 63.585264 33.916956 
L 63.73302 33.930079 
L 63.813814 33.937255 
L 63.970402 33.951162 
L 64.061411 33.959245 
L 64.134502 33.965737 
L 64.240113 33.975117 
L 64.341533 33.984125 
L 64.467211 33.995287 
L 64.563072 34.003801 
L 64.638588 34.010508 
L 64.737073 34.019255 
L 64.802446 34.025061 
L 64.969672 34.039913 
L 65.03717 34.045908 
L 65.170951 34.05779 
L 65.250536 34.064858 
L 65.326893 34.07164 
L 65.502502 34.087237 
L 65.594475 34.095406 
L 65.643499 34.09976 
L 65.729659 34.107412 
L 65.829885 34.116314 
L 65.936133 34.12575 
L 66.053508 34.136175 
" style="fill:none;stroke:#ff00ff;stroke-linecap:square;stroke-width:2;"/>
   </g>
   <g id="line2d_18">
    <path clip-path="url(#p1d81e02fa3)" d="M 66.351463 34.162638 
L 66.44194 34.170674 
L 66.609422 34.185549 
L 66.689972 34.192703 
L 66.786893 34.201311 
L 66.919278 34.213069 
L 66.979094 34.218382 
L 67.046296 34.22435 
L 67.187398 34.236882 
L 67.27069 34.24428 
L 67.392586 34.255106 
L 67.451602 34.260348 
L 67.568605 34.27074 
L 67.676766 34.280346 
L 67.822123 34.293256 
L 67.923385 34.30225 
L 68.021306 34.310947 
L 68.079707 34.316134 
L 68.208484 34.327571 
L 68.295799 34.335326 
L 68.422355 34.346566 
L 68.498636 34.353341 
L 68.635208 34.365471 
L 68.707883 34.371926 
L 68.842869 34.383914 
L 68.908049 34.389703 
L 69.067544 34.403869 
L 69.137705 34.4101 
L 69.228146 34.418133 
L 69.315362 34.425879 
L 69.46349 34.439035 
L 69.569558 34.448456 
L 69.650716 34.455664 
L 69.704886 34.460475 
L 69.805471 34.469409 
L 69.988194 34.485637 
L 70.085748 34.494302 
L 70.181157 34.502776 
L 70.284978 34.511996 
L 70.362462 34.518878 
L 70.434907 34.525313 
L 70.603998 34.54033 
L 70.639999 34.543528 
L 70.764616 34.554596 
L 70.912189 34.567703 
L 70.999438 34.575452 
L 71.091194 34.583601 
L 71.1819 34.591657 
L 71.305869 34.602668 
L 71.353363 34.606886 
L 71.431268 34.613805 
L 71.579665 34.626985 
L 71.672918 34.635267 
L 71.774291 34.644271 
L 71.933749 34.658433 
L 72.022674 34.666331 
L 72.03929 34.667807 
L 72.207302 34.682729 
L 72.31332 34.692145 
L 72.438772 34.703287 
L 72.511842 34.709777 
L 72.601194 34.717713 
L 72.690711 34.725663 
L 72.77758 34.733379 
L 72.858743 34.740587 
L 73.022985 34.755175 
L 73.122698 34.764031 
L 73.247888 34.77515 
L 73.322593 34.781785 
L 73.460577 34.79404 
L 73.56075 34.802937 
L 73.605724 34.806931 
L 73.757879 34.820445 
L 73.839398 34.827685 
L 73.876789 34.831006 
L 74.001382 34.842072 
L 74.173679 34.857375 
L 74.210964 34.860686 
L 74.278832 34.866714 
L 74.471606 34.883835 
L 74.55085 34.890873 
L 74.593783 34.894686 
L 74.70836 34.904863 
L 74.825705 34.915285 
L 74.968913 34.928004 
L 75.055309 34.935677 
L 75.187241 34.947395 
L 75.291583 34.956662 
L 75.314117 34.958663 
L 75.478702 34.973281 
L 75.602906 34.984312 
L 75.61241 34.985157 
L 75.769479 34.999107 
L 75.858207 35.006987 
" style="fill:none;stroke:#ff00ff;stroke-linecap:square;stroke-width:2;"/>
   </g>
   <g id="line2d_19">
    <path clip-path="url(#p1d81e02fa3)" d="M 96.136194 69.22609 
L 116.414181 71.027095 
L 116.414181 71.027095 
" style="fill:none;stroke:#ff00ff;stroke-linecap:square;stroke-width:2;"/>
   </g>
   <g id="line2d_20">
    <path clip-path="url(#p1d81e02fa3)" d="M 177.248141 52.116538 
L 217.804114 55.718549 
L 217.804114 55.718549 
" style="fill:none;stroke:#ff00ff;stroke-linecap:square;stroke-width:2;"/>
   </g>
   <g id="line2d_21">
    <path clip-path="url(#p1d81e02fa3)" d="M 501.695927 48.514528 
L 542.251901 52.116538 
L 542.251901 52.116538 
" style="fill:none;stroke:#ff00ff;stroke-linecap:square;stroke-width:2;"/>
   </g>
   <g id="matplotlib.axis_1">
    <g id="xtick_1">
     <g id="line2d_22">
      <path clip-path="url(#p1d81e02fa3)" d="M 15.024247 87.704405 
L 15.024247 16.528672 
" style="fill:none;stroke:#000000;stroke-dasharray:0.5,0.825;stroke-dashoffset:0;stroke-width:0.5;"/>
     </g>
     <g id="line2d_23">
      <defs>
       <path d="M 0 0 
L 0 3.5 
" id="mc95f44a149" style="stroke:#000000;stroke-width:0.8;"/>
      </defs>
      <g>
       <use style="stroke:#000000;stroke-width:0.8;" x="15.024247" xlink:href="#mc95f44a149" y="86.335641"/>
      </g>
     </g>
    </g>
    <g id="xtick_2">
     <g id="line2d_24">
      <path clip-path="url(#p1d81e02fa3)" d="M 156.970154 87.704405 
L 156.970154 16.528672 
" style="fill:none;stroke:#000000;stroke-dasharray:0.5,0.825;stroke-dashoffset:0;stroke-width:0.5;"/>
     </g>
     <g id="line2d_25">
      <g>
       <use style="stroke:#000000;stroke-width:0.8;" x="156.970154" xlink:href="#mc95f44a149" y="86.335641"/>
      </g>
     </g>
     <g id="text_1">
      <!-- $f$ -->
      <defs>
       <path d="M 9.71875 -16.5 
Q 11.578125 -17.921875 14.203125 -17.921875 
Q 17.78125 -17.921875 20.015625 -10.015625 
Q 20.953125 -6.203125 25.09375 15.09375 
L 29.6875 39.59375 
L 21.09375 39.59375 
Q 20.125 39.59375 20.125 40.921875 
Q 20.515625 43.109375 21.390625 43.109375 
L 30.328125 43.109375 
L 31.5 49.609375 
Q 32.078125 52.640625 32.5625 54.8125 
Q 33.0625 56.984375 33.625 58.828125 
Q 34.1875 60.6875 35.296875 62.984375 
Q 37.015625 66.265625 39.921875 68.390625 
Q 42.828125 70.515625 46.1875 70.515625 
Q 48.390625 70.515625 50.46875 69.703125 
Q 52.546875 68.890625 53.859375 67.28125 
Q 55.171875 65.671875 55.171875 63.484375 
Q 55.171875 60.9375 53.484375 59.046875 
Q 51.8125 57.171875 49.421875 57.171875 
Q 47.796875 57.171875 46.65625 58.171875 
Q 45.515625 59.1875 45.515625 60.796875 
Q 45.515625 62.984375 47 64.625 
Q 48.484375 66.265625 50.6875 66.5 
Q 48.828125 67.921875 46.09375 67.921875 
Q 44.578125 67.921875 43.234375 66.5 
Q 41.890625 65.09375 41.5 63.484375 
Q 40.875 60.9375 38.71875 49.703125 
L 37.5 43.109375 
L 47.796875 43.109375 
Q 48.78125 43.109375 48.78125 41.796875 
Q 48.734375 41.546875 48.578125 40.9375 
Q 48.4375 40.328125 48.171875 39.953125 
Q 47.90625 39.59375 47.515625 39.59375 
L 36.8125 39.59375 
L 32.171875 15.1875 
Q 31.296875 9.859375 30.140625 4.359375 
Q 29 -1.125 26.921875 -6.90625 
Q 24.859375 -12.703125 21.625 -16.609375 
Q 18.40625 -20.515625 14.015625 -20.515625 
Q 10.640625 -20.515625 7.984375 -18.578125 
Q 5.328125 -16.65625 5.328125 -13.484375 
Q 5.328125 -10.9375 6.953125 -9.046875 
Q 8.59375 -7.171875 11.078125 -7.171875 
Q 12.75 -7.171875 13.859375 -8.171875 
Q 14.984375 -9.1875 14.984375 -10.796875 
Q 14.984375 -12.9375 13.390625 -14.71875 
Q 11.8125 -16.5 9.71875 -16.5 
z
" id="Cmmi10-66"/>
      </defs>
      <g transform="translate(154.520154 100.913766)scale(0.1 -0.1)">
       <use transform="translate(0 0.484375)" xlink:href="#Cmmi10-66"/>
      </g>
     </g>
    </g>
    <g id="xtick_3">
     <g id="line2d_26">
      <path clip-path="url(#p1d81e02fa3)" d="M 562.529887 87.704405 
L 562.529887 16.528672 
" style="fill:none;stroke:#000000;stroke-dasharray:0.5,0.825;stroke-dashoffset:0;stroke-width:0.5;"/>
     </g>
     <g id="line2d_27">
      <g>
       <use style="stroke:#000000;stroke-width:0.8;" x="562.529887" xlink:href="#mc95f44a149" y="86.335641"/>
      </g>
     </g>
     <g id="text_2">
      <!-- $1$ -->
      <defs>
       <path d="M 9.28125 0 
L 9.28125 3.515625 
Q 21.78125 3.515625 21.78125 6.6875 
L 21.78125 59.1875 
Q 16.609375 56.6875 8.6875 56.6875 
L 8.6875 60.203125 
Q 20.953125 60.203125 27.203125 66.609375 
L 28.609375 66.609375 
Q 28.953125 66.609375 29.265625 66.328125 
Q 29.59375 66.0625 29.59375 65.71875 
L 29.59375 6.6875 
Q 29.59375 3.515625 42.09375 3.515625 
L 42.09375 0 
z
" id="Cmr10-31"/>
      </defs>
      <g transform="translate(560.029887 100.934078)scale(0.1 -0.1)">
       <use transform="translate(0 0.390625)" xlink:href="#Cmr10-31"/>
      </g>
     </g>
    </g>
   </g>
   <g id="matplotlib.axis_2">
    <g id="ytick_1">
     <g id="line2d_28">
      <path clip-path="url(#p1d81e02fa3)" d="M 4.074135 86.335641 
L 573.48 86.335641 
" style="fill:none;stroke:#000000;stroke-dasharray:0.5,0.825;stroke-dashoffset:0;stroke-width:0.5;"/>
     </g>
     <g id="line2d_29">
      <defs>
       <path d="M 0 0 
L -3.5 0 
" id="mf5335c650d" style="stroke:#000000;stroke-width:0.8;"/>
      </defs>
      <g>
       <use style="stroke:#000000;stroke-width:0.8;" x="15.024247" xlink:href="#mf5335c650d" y="86.335641"/>
      </g>
     </g>
    </g>
    <g id="ytick_2">
     <g id="line2d_30">
      <path clip-path="url(#p1d81e02fa3)" d="M 4.074135 17.897436 
L 573.48 17.897436 
" style="fill:none;stroke:#000000;stroke-dasharray:0.5,0.825;stroke-dashoffset:0;stroke-width:0.5;"/>
     </g>
     <g id="line2d_31">
      <g>
       <use style="stroke:#000000;stroke-width:0.8;" x="15.024247" xlink:href="#mf5335c650d" y="17.897436"/>
      </g>
     </g>
     <g id="text_3">
      <!-- $1$ -->
      <g transform="translate(3.024247 21.696655)scale(0.1 -0.1)">
       <use transform="translate(0 0.390625)" xlink:href="#Cmr10-31"/>
      </g>
     </g>
    </g>
   </g>
   <g id="patch_3">
    <path d="M 15.024247 87.704405 
L 15.024247 16.528672 
" style="fill:none;stroke:#000000;stroke-linecap:square;stroke-linejoin:miter;stroke-width:0.8;"/>
   </g>
   <g id="patch_4">
    <path d="M 4.074135 86.335641 
L 573.48 86.335641 
" style="fill:none;stroke:#000000;stroke-linecap:square;stroke-linejoin:miter;stroke-width:0.8;"/>
   </g>
  </g>
 </g>
 <defs>
  <clipPath id="p1d81e02fa3">
   <rect height="71.175733" width="569.405865" x="4.074135" y="16.528672"/>
  </clipPath>
 </defs>
</svg>
