<?xml version="1.0" encoding="utf-8" standalone="no"?>
<!DOCTYPE svg PUBLIC "-//W3C//DTD SVG 1.1//EN"
  "http://www.w3.org/Graphics/SVG/1.1/DTD/svg11.dtd">
<!-- Created with matplotlib (http://matplotlib.org/) -->
<svg height="288pt" version="1.1" viewBox="0 0 576 288" width="576pt" xmlns="http://www.w3.org/2000/svg" xmlns:xlink="http://www.w3.org/1999/xlink">
 <defs>
  <style type="text/css">
*{stroke-linecap:butt;stroke-linejoin:round;}
  </style>
 </defs>
 <g id="figure_1">
  <g id="patch_1">
   <path d="M 0 288 
L 576 288 
L 576 0 
L 0 0 
z
" style="fill:#ffffff;"/>
  </g>
  <g id="axes_1">
   <g id="patch_2">
    <path d="M 2.52 271.124357 
L 573.48 271.124357 
L 573.48 6.035786 
L 2.52 6.035786 
z
" style="fill:#ffffff;"/>
   </g>
   <g id="line2d_1">
    <path clip-path="url(#p1634314083)" d="M 72.321429 266.0265 
L 72.321429 69.955071 
" style="fill:none;stroke:#ff00ff;stroke-linecap:square;"/>
   </g>
   <g id="line2d_2">
    <path clip-path="url(#p1634314083)" d="M 72.321429 266.0265 
L 72.321429 69.955071 
" style="fill:none;stroke:#000000;stroke-linecap:square;"/>
   </g>
   <g id="line2d_3">
    <path clip-path="url(#p1634314083)" d="M 72.321429 266.0265 
L 72.321429 69.955071 
" style="fill:none;stroke:#ff00ff;stroke-linecap:square;"/>
   </g>
   <g id="line2d_4">
    <path clip-path="url(#p1634314083)" d="M 72.321429 266.0265 
L 72.321429 69.955071 
" style="fill:none;stroke:#ffffff;stroke-linecap:square;"/>
   </g>
   <g id="line2d_5">
    <path clip-path="url(#p1634314083)" d="M 72.321429 266.0265 
L 72.321429 69.955071 
" style="fill:none;stroke:#ffffff;stroke-linecap:square;"/>
   </g>
   <g id="line2d_6">
    <path clip-path="url(#p1634314083)" d="M 72.321429 266.0265 
L 72.321429 69.955071 
" style="fill:none;stroke:#ffffff;stroke-linecap:square;"/>
   </g>
   <g id="line2d_7">
    <path clip-path="url(#p1634314083)" d="M 72.321429 69.955071 
L 96.830357 69.955071 
" style="fill:none;stroke:#ff00ff;stroke-linecap:square;stroke-width:3;"/>
   </g>
   <g id="line2d_8">
    <path clip-path="url(#p1634314083)" d="M 72.321429 266.0265 
L 72.321429 241.517571 
" style="fill:none;stroke:#ff00ff;stroke-linecap:square;stroke-width:3;"/>
   </g>
   <g id="line2d_9">
    <path clip-path="url(#p1634314083)" d="M 105 69.955071 
L 121.339286 69.955071 
" style="fill:none;stroke:#ff00ff;stroke-linecap:square;stroke-width:3;"/>
   </g>
   <g id="line2d_10">
    <path clip-path="url(#p1634314083)" d="M 72.321429 233.347929 
L 72.321429 217.008643 
" style="fill:none;stroke:#ff00ff;stroke-linecap:square;stroke-width:3;"/>
   </g>
   <g id="line2d_11">
    <path clip-path="url(#p1634314083)" d="M 203.035714 69.955071 
L 219.375 69.955071 
" style="fill:none;stroke:#ff00ff;stroke-linecap:square;stroke-width:3;"/>
   </g>
   <g id="line2d_12">
    <path clip-path="url(#p1634314083)" d="M 72.321429 135.312214 
L 72.321429 118.972929 
" style="fill:none;stroke:#ff00ff;stroke-linecap:square;stroke-width:3;"/>
   </g>
   <g id="line2d_13">
    <path clip-path="url(#p1634314083)" d="M 227.544643 69.955071 
L 268.392857 69.955071 
" style="fill:none;stroke:#ff00ff;stroke-linecap:square;stroke-width:3;"/>
   </g>
   <g id="line2d_14">
    <path clip-path="url(#p1634314083)" d="M 72.321429 110.803286 
L 72.321429 69.955071 
" style="fill:none;stroke:#ff00ff;stroke-linecap:square;stroke-width:3;"/>
   </g>
   <g id="line2d_15">
    <path clip-path="url(#p1634314083)" d="M 72.321429 69.955071 
L 80.491071 27.309536 
" style="fill:none;stroke:#000000;stroke-linecap:square;"/>
   </g>
   <g id="line2d_16">
    <path clip-path="url(#p1634314083)" d="M 72.321429 266.0265 
L 29.675893 257.856857 
" style="fill:none;stroke:#000000;stroke-linecap:square;"/>
   </g>
   <g id="line2d_17">
    <path clip-path="url(#p1634314083)" d="M 80.491071 27.309536 
L 121.339286 54.269357 
" style="fill:none;stroke:#000000;stroke-linecap:square;"/>
   </g>
   <g id="line2d_18">
    <path clip-path="url(#p1634314083)" d="M 29.675893 257.856857 
L 56.635714 217.008643 
" style="fill:none;stroke:#000000;stroke-linecap:square;"/>
   </g>
   <g id="line2d_19">
    <path clip-path="url(#p1634314083)" d="M 121.339286 54.269357 
L 137.678571 46.4265 
" style="fill:none;stroke:#000000;stroke-linecap:square;"/>
   </g>
   <g id="line2d_20">
    <path clip-path="url(#p1634314083)" d="M 56.635714 217.008643 
L 48.792857 200.669357 
" style="fill:none;stroke:#000000;stroke-linecap:square;"/>
   </g>
   <g id="line2d_21">
    <path clip-path="url(#p1634314083)" d="M 137.678571 46.4265 
L 186.696429 34.662214 
" style="fill:none;stroke:#000000;stroke-linecap:square;"/>
   </g>
   <g id="line2d_22">
    <path clip-path="url(#p1634314083)" d="M 48.792857 200.669357 
L 37.028571 151.6515 
" style="fill:none;stroke:#000000;stroke-linecap:square;"/>
   </g>
   <g id="line2d_23">
    <path clip-path="url(#p1634314083)" d="M 186.696429 34.662214 
L 203.035714 26.819357 
" style="fill:none;stroke:#000000;stroke-linecap:square;"/>
   </g>
   <g id="line2d_24">
    <path clip-path="url(#p1634314083)" d="M 37.028571 151.6515 
L 29.185714 135.312214 
" style="fill:none;stroke:#000000;stroke-linecap:square;"/>
   </g>
   <g id="line2d_25">
    <path clip-path="url(#p1634314083)" d="M 203.035714 26.819357 
L 243.883929 53.779179 
" style="fill:none;stroke:#000000;stroke-linecap:square;"/>
   </g>
   <g id="line2d_26">
    <path clip-path="url(#p1634314083)" d="M 29.185714 135.312214 
L 56.145536 94.464 
" style="fill:none;stroke:#000000;stroke-linecap:square;"/>
   </g>
   <g id="line2d_27">
    <path clip-path="url(#p1634314083)" d="M 243.883929 53.779179 
L 252.053571 11.133643 
" style="fill:none;stroke:#000000;stroke-linecap:square;"/>
   </g>
   <g id="line2d_28">
    <path clip-path="url(#p1634314083)" d="M 56.145536 94.464 
L 13.5 86.294357 
" style="fill:none;stroke:#000000;stroke-linecap:square;"/>
   </g>
   <g id="line2d_29">
    <path clip-path="url(#p1634314083)" d="M 252.053571 11.133643 
L 268.392857 69.955071 
" style="fill:none;stroke:#000000;stroke-linecap:square;"/>
   </g>
   <g id="line2d_30">
    <path clip-path="url(#p1634314083)" d="M 13.5 86.294357 
L 72.321429 69.955071 
" style="fill:none;stroke:#000000;stroke-linecap:square;"/>
   </g>
   <g id="line2d_31">
    <path clip-path="url(#p1634314083)" d="M 72.321429 69.955071 
L 80.491071 27.309536 
" style="fill:none;stroke:#ff0000;stroke-linecap:square;"/>
   </g>
   <g id="line2d_32">
    <path clip-path="url(#p1634314083)" d="M 72.321429 266.0265 
L 29.675893 257.856857 
" style="fill:none;stroke:#ff0000;stroke-linecap:square;"/>
   </g>
   <g id="line2d_33">
    <path clip-path="url(#p1634314083)" d="M 243.883929 53.779179 
L 252.053571 11.133643 
" style="fill:none;stroke:#ff0000;stroke-linecap:square;"/>
   </g>
   <g id="line2d_34">
    <path clip-path="url(#p1634314083)" d="M 56.145536 94.464 
L 13.5 86.294357 
" style="fill:none;stroke:#ff0000;stroke-linecap:square;"/>
   </g>
   <g id="line2d_35">
    <path clip-path="url(#p1634314083)" d="M 80.491071 27.309536 
L 96.830357 38.093464 
" style="fill:none;stroke:#00ff00;stroke-linecap:square;"/>
   </g>
   <g id="line2d_36">
    <path clip-path="url(#p1634314083)" d="M 29.675893 257.856857 
L 40.459821 241.517571 
" style="fill:none;stroke:#00ff00;stroke-linecap:square;"/>
   </g>
   <g id="line2d_37">
    <path clip-path="url(#p1634314083)" d="M 105 43.485429 
L 121.339286 54.269357 
" style="fill:none;stroke:#00ff00;stroke-linecap:square;"/>
   </g>
   <g id="line2d_38">
    <path clip-path="url(#p1634314083)" d="M 45.851786 233.347929 
L 56.635714 217.008643 
" style="fill:none;stroke:#00ff00;stroke-linecap:square;"/>
   </g>
   <g id="line2d_39">
    <path clip-path="url(#p1634314083)" d="M 203.035714 26.819357 
L 219.375 37.603286 
" style="fill:none;stroke:#00ff00;stroke-linecap:square;"/>
   </g>
   <g id="line2d_40">
    <path clip-path="url(#p1634314083)" d="M 29.185714 135.312214 
L 39.969643 118.972929 
" style="fill:none;stroke:#00ff00;stroke-linecap:square;"/>
   </g>
   <g id="line2d_41">
    <path clip-path="url(#p1634314083)" d="M 227.544643 42.99525 
L 243.883929 53.779179 
" style="fill:none;stroke:#00ff00;stroke-linecap:square;"/>
   </g>
   <g id="line2d_42">
    <path clip-path="url(#p1634314083)" d="M 45.361607 110.803286 
L 56.145536 94.464 
" style="fill:none;stroke:#00ff00;stroke-linecap:square;"/>
   </g>
   <g id="line2d_43">
    <path clip-path="url(#p1634314083)" d="M 252.053571 11.133643 
L 268.392857 69.955071 
" style="fill:none;stroke:#0000ff;stroke-linecap:square;"/>
   </g>
   <g id="line2d_44">
    <path clip-path="url(#p1634314083)" d="M 13.5 86.294357 
L 72.321429 69.955071 
" style="fill:none;stroke:#0000ff;stroke-linecap:square;"/>
   </g>
   <g id="line2d_45">
    <path clip-path="url(#p1634314083)" d="M 72.321429 69.955071 
L 121.339286 69.955071 
" style="fill:none;stroke:#ff00ff;stroke-linecap:square;"/>
   </g>
   <g id="line2d_46">
    <path clip-path="url(#p1634314083)" d="M 72.321429 266.0265 
L 72.321429 217.008643 
" style="fill:none;stroke:#ff00ff;stroke-linecap:square;"/>
   </g>
   <g id="line2d_47">
    <path clip-path="url(#p1634314083)" d="M 121.339286 69.955071 
L 129.508929 64.072929 
" style="fill:none;stroke:#ff00ff;stroke-linecap:square;"/>
   </g>
   <g id="line2d_48">
    <path clip-path="url(#p1634314083)" d="M 72.321429 217.008643 
L 66.439286 208.839 
" style="fill:none;stroke:#ff00ff;stroke-linecap:square;"/>
   </g>
   <g id="line2d_49">
    <path clip-path="url(#p1634314083)" d="M 129.508929 64.072929 
L 137.678571 69.955071 
" style="fill:none;stroke:#ff00ff;stroke-linecap:square;"/>
   </g>
   <g id="line2d_50">
    <path clip-path="url(#p1634314083)" d="M 66.439286 208.839 
L 72.321429 200.669357 
" style="fill:none;stroke:#ff00ff;stroke-linecap:square;"/>
   </g>
   <g id="line2d_51">
    <path clip-path="url(#p1634314083)" d="M 137.678571 69.955071 
L 186.696429 69.955071 
" style="fill:none;stroke:#ff00ff;stroke-linecap:square;"/>
   </g>
   <g id="line2d_52">
    <path clip-path="url(#p1634314083)" d="M 72.321429 200.669357 
L 72.321429 151.6515 
" style="fill:none;stroke:#ff00ff;stroke-linecap:square;"/>
   </g>
   <g id="line2d_53">
    <path clip-path="url(#p1634314083)" d="M 186.696429 69.955071 
L 194.866071 75.837214 
" style="fill:none;stroke:#ff00ff;stroke-linecap:square;"/>
   </g>
   <g id="line2d_54">
    <path clip-path="url(#p1634314083)" d="M 72.321429 151.6515 
L 78.203571 143.481857 
" style="fill:none;stroke:#ff00ff;stroke-linecap:square;"/>
   </g>
   <g id="line2d_55">
    <path clip-path="url(#p1634314083)" d="M 194.866071 75.837214 
L 203.035714 69.955071 
" style="fill:none;stroke:#ff00ff;stroke-linecap:square;"/>
   </g>
   <g id="line2d_56">
    <path clip-path="url(#p1634314083)" d="M 78.203571 143.481857 
L 72.321429 135.312214 
" style="fill:none;stroke:#ff00ff;stroke-linecap:square;"/>
   </g>
   <g id="line2d_57">
    <path clip-path="url(#p1634314083)" d="M 203.035714 69.955071 
L 268.392857 69.955071 
" style="fill:none;stroke:#ff00ff;stroke-linecap:square;"/>
   </g>
   <g id="line2d_58">
    <path clip-path="url(#p1634314083)" d="M 72.321429 135.312214 
L 72.321429 69.955071 
" style="fill:none;stroke:#ff00ff;stroke-linecap:square;"/>
   </g>
   <g id="PathCollection_1">
    <defs>
     <path d="M 0 2.397916 
C 0.635935 2.397916 1.245909 2.145256 1.695582 1.695582 
C 2.145256 1.245909 2.397916 0.635935 2.397916 0 
C 2.397916 -0.635935 2.145256 -1.245909 1.695582 -1.695582 
C 1.245909 -2.145256 0.635935 -2.397916 0 -2.397916 
C -0.635935 -2.397916 -1.245909 -2.145256 -1.695582 -1.695582 
C -2.145256 -1.245909 -2.397916 -0.635935 -2.397916 0 
C -2.397916 0.635935 -2.145256 1.245909 -1.695582 1.695582 
C -1.245909 2.145256 -0.635935 2.397916 0 2.397916 
z
" id="C0_0_bc6b1c3397"/>
    </defs>
    <g clip-path="url(#p1634314083)">
     <use style="fill:#ff00ff;" x="137.678571" xlink:href="#C0_0_bc6b1c3397" y="69.955071"/>
    </g>
    <g clip-path="url(#p1634314083)">
     <use style="fill:#ff00ff;" x="72.321429" xlink:href="#C0_0_bc6b1c3397" y="200.669357"/>
    </g>
   </g>
   <g id="PathCollection_2">
    <defs>
     <path d="M 0 2.397916 
C 0.635935 2.397916 1.245909 2.145256 1.695582 1.695582 
C 2.145256 1.245909 2.397916 0.635935 2.397916 0 
C 2.397916 -0.635935 2.145256 -1.245909 1.695582 -1.695582 
C 1.245909 -2.145256 0.635935 -2.397916 0 -2.397916 
C -0.635935 -2.397916 -1.245909 -2.145256 -1.695582 -1.695582 
C -2.145256 -1.245909 -2.397916 -0.635935 -2.397916 0 
C -2.397916 0.635935 -2.145256 1.245909 -1.695582 1.695582 
C -1.245909 2.145256 -0.635935 2.397916 0 2.397916 
z
" id="C1_0_017131a194"/>
    </defs>
    <g clip-path="url(#p1634314083)">
     <use style="fill:#ff00ff;" x="154.017857" xlink:href="#C1_0_017131a194" y="69.955071"/>
    </g>
    <g clip-path="url(#p1634314083)">
     <use style="fill:#ff00ff;" x="72.321429" xlink:href="#C1_0_017131a194" y="184.330071"/>
    </g>
   </g>
   <g id="PathCollection_3">
    <defs>
     <path d="M 0 2.397916 
C 0.635935 2.397916 1.245909 2.145256 1.695582 1.695582 
C 2.145256 1.245909 2.397916 0.635935 2.397916 0 
C 2.397916 -0.635935 2.145256 -1.245909 1.695582 -1.695582 
C 1.245909 -2.145256 0.635935 -2.397916 0 -2.397916 
C -0.635935 -2.397916 -1.245909 -2.145256 -1.695582 -1.695582 
C -2.145256 -1.245909 -2.397916 -0.635935 -2.397916 0 
C -2.397916 0.635935 -2.145256 1.245909 -1.695582 1.695582 
C -1.245909 2.145256 -0.635935 2.397916 0 2.397916 
z
" id="C2_0_e60ff24bec"/>
    </defs>
    <g clip-path="url(#p1634314083)">
     <use style="fill:#ff00ff;" x="162.1875" xlink:href="#C2_0_e60ff24bec" y="69.955071"/>
    </g>
    <g clip-path="url(#p1634314083)">
     <use style="fill:#ff00ff;" x="72.321429" xlink:href="#C2_0_e60ff24bec" y="176.160429"/>
    </g>
   </g>
   <g id="PathCollection_4">
    <defs>
     <path d="M 0 2.397916 
C 0.635935 2.397916 1.245909 2.145256 1.695582 1.695582 
C 2.145256 1.245909 2.397916 0.635935 2.397916 0 
C 2.397916 -0.635935 2.145256 -1.245909 1.695582 -1.695582 
C 1.245909 -2.145256 0.635935 -2.397916 0 -2.397916 
C -0.635935 -2.397916 -1.245909 -2.145256 -1.695582 -1.695582 
C -2.145256 -1.245909 -2.397916 -0.635935 -2.397916 0 
C -2.397916 0.635935 -2.145256 1.245909 -1.695582 1.695582 
C -1.245909 2.145256 -0.635935 2.397916 0 2.397916 
z
" id="C3_0_1cb951e48e"/>
    </defs>
    <g clip-path="url(#p1634314083)">
     <use style="fill:#ff00ff;" x="170.357143" xlink:href="#C3_0_1cb951e48e" y="69.955071"/>
    </g>
    <g clip-path="url(#p1634314083)">
     <use style="fill:#ff00ff;" x="72.321429" xlink:href="#C3_0_1cb951e48e" y="167.990786"/>
    </g>
   </g>
   <g id="PathCollection_5">
    <defs>
     <path d="M 0 2.397916 
C 0.635935 2.397916 1.245909 2.145256 1.695582 1.695582 
C 2.145256 1.245909 2.397916 0.635935 2.397916 0 
C 2.397916 -0.635935 2.145256 -1.245909 1.695582 -1.695582 
C 1.245909 -2.145256 0.635935 -2.397916 0 -2.397916 
C -0.635935 -2.397916 -1.245909 -2.145256 -1.695582 -1.695582 
C -2.145256 -1.245909 -2.397916 -0.635935 -2.397916 0 
C -2.397916 0.635935 -2.145256 1.245909 -1.695582 1.695582 
C -1.245909 2.145256 -0.635935 2.397916 0 2.397916 
z
" id="C4_0_52103e8980"/>
    </defs>
    <g clip-path="url(#p1634314083)">
     <use style="fill:#ff00ff;" x="186.696429" xlink:href="#C4_0_52103e8980" y="69.955071"/>
    </g>
    <g clip-path="url(#p1634314083)">
     <use style="fill:#ff00ff;" x="72.321429" xlink:href="#C4_0_52103e8980" y="151.6515"/>
    </g>
   </g>
   <g id="line2d_59">
    <path clip-path="url(#p1634314083)" d="M 72.321429 266.0265 
L 268.392857 69.955071 
L 268.392857 69.955071 
" style="fill:none;stroke:#0000ff;stroke-linecap:square;"/>
   </g>
   <g id="line2d_60">
    <path clip-path="url(#p1634314083)" d="M 72.321429 86.294357 
L 252.053571 266.0265 
L 252.053571 266.0265 
" style="fill:none;stroke:#ff0000;stroke-linecap:square;"/>
   </g>
   <g id="PathCollection_6">
    <path clip-path="url(#p1634314083)" d="M 72.321429 268.424416 
C 72.957363 268.424416 73.567337 268.171756 74.017011 267.722082 
C 74.466685 267.272409 74.719344 266.662435 74.719344 266.0265 
C 74.719344 265.390565 74.466685 264.780591 74.017011 264.330918 
C 73.567337 263.881244 72.957363 263.628584 72.321429 263.628584 
C 71.685494 263.628584 71.07552 263.881244 70.625846 264.330918 
C 70.176172 264.780591 69.923513 265.390565 69.923513 266.0265 
C 69.923513 266.662435 70.176172 267.272409 70.625846 267.722082 
C 71.07552 268.171756 71.685494 268.424416 72.321429 268.424416 
z
" style="fill:#0000ff;"/>
   </g>
   <g id="PathCollection_7">
    <path clip-path="url(#p1634314083)" d="M 72.321429 267.607639 
C 72.740751 267.607639 73.142956 267.44104 73.439463 267.144534 
C 73.735969 266.848028 73.902567 266.445823 73.902567 266.0265 
C 73.902567 265.607177 73.735969 265.204972 73.439463 264.908466 
C 73.142956 264.61196 72.740751 264.445361 72.321429 264.445361 
C 71.902106 264.445361 71.499901 264.61196 71.203395 264.908466 
C 70.906889 265.204972 70.74029 265.607177 70.74029 266.0265 
C 70.74029 266.445823 70.906889 266.848028 71.203395 267.144534 
C 71.499901 267.44104 71.902106 267.607639 72.321429 267.607639 
z
" style="fill:#ffffff;"/>
   </g>
   <g id="PathCollection_8">
    <path clip-path="url(#p1634314083)" d="M 268.392857 72.352987 
C 269.028792 72.352987 269.638766 72.100328 270.08844 71.650654 
C 270.538113 71.20098 270.790773 70.591006 270.790773 69.955071 
C 270.790773 69.319137 270.538113 68.709163 270.08844 68.259489 
C 269.638766 67.809815 269.028792 67.557156 268.392857 67.557156 
C 267.756922 67.557156 267.146948 67.809815 266.697275 68.259489 
C 266.247601 68.709163 265.994941 69.319137 265.994941 69.955071 
C 265.994941 70.591006 266.247601 71.20098 266.697275 71.650654 
C 267.146948 72.100328 267.756922 72.352987 268.392857 72.352987 
z
" style="fill:#0000ff;"/>
   </g>
   <g id="PathCollection_9">
    <path clip-path="url(#p1634314083)" d="M 268.392857 71.53621 
C 268.81218 71.53621 269.214385 71.369611 269.510891 71.073105 
C 269.807397 70.776599 269.973996 70.374394 269.973996 69.955071 
C 269.973996 69.535749 269.807397 69.133544 269.510891 68.837037 
C 269.214385 68.540531 268.81218 68.373933 268.392857 68.373933 
C 267.973534 68.373933 267.571329 68.540531 267.274823 68.837037 
C 266.978317 69.133544 266.811718 69.535749 266.811718 69.955071 
C 266.811718 70.374394 266.978317 70.776599 267.274823 71.073105 
C 267.571329 71.369611 267.973534 71.53621 268.392857 71.53621 
z
" style="fill:#ffffff;"/>
   </g>
   <g id="PathCollection_10">
    <path clip-path="url(#p1634314083)" d="M 72.321429 88.692273 
C 72.957363 88.692273 73.567337 88.439613 74.017011 87.98994 
C 74.466685 87.540266 74.719344 86.930292 74.719344 86.294357 
C 74.719344 85.658422 74.466685 85.048448 74.017011 84.598775 
C 73.567337 84.149101 72.957363 83.896441 72.321429 83.896441 
C 71.685494 83.896441 71.07552 84.149101 70.625846 84.598775 
C 70.176172 85.048448 69.923513 85.658422 69.923513 86.294357 
C 69.923513 86.930292 70.176172 87.540266 70.625846 87.98994 
C 71.07552 88.439613 71.685494 88.692273 72.321429 88.692273 
z
" style="fill:#ff0000;"/>
   </g>
   <g id="PathCollection_11">
    <path clip-path="url(#p1634314083)" d="M 72.321429 87.875496 
C 72.740751 87.875496 73.142956 87.708897 73.439463 87.412391 
C 73.735969 87.115885 73.902567 86.71368 73.902567 86.294357 
C 73.902567 85.875034 73.735969 85.472829 73.439463 85.176323 
C 73.142956 84.879817 72.740751 84.713218 72.321429 84.713218 
C 71.902106 84.713218 71.499901 84.879817 71.203395 85.176323 
C 70.906889 85.472829 70.74029 85.875034 70.74029 86.294357 
C 70.74029 86.71368 70.906889 87.115885 71.203395 87.412391 
C 71.499901 87.708897 71.902106 87.875496 72.321429 87.875496 
z
" style="fill:#ffffff;"/>
   </g>
   <g id="PathCollection_12">
    <path clip-path="url(#p1634314083)" d="M 252.053571 268.424416 
C 252.689506 268.424416 253.29948 268.171756 253.749154 267.722082 
C 254.198828 267.272409 254.451487 266.662435 254.451487 266.0265 
C 254.451487 265.390565 254.198828 264.780591 253.749154 264.330918 
C 253.29948 263.881244 252.689506 263.628584 252.053571 263.628584 
C 251.417637 263.628584 250.807663 263.881244 250.357989 264.330918 
C 249.908315 264.780591 249.655656 265.390565 249.655656 266.0265 
C 249.655656 266.662435 249.908315 267.272409 250.357989 267.722082 
C 250.807663 268.171756 251.417637 268.424416 252.053571 268.424416 
z
" style="fill:#ff0000;"/>
   </g>
   <g id="PathCollection_13">
    <path clip-path="url(#p1634314083)" d="M 252.053571 267.607639 
C 252.472894 267.607639 252.875099 267.44104 253.171605 267.144534 
C 253.468111 266.848028 253.63471 266.445823 253.63471 266.0265 
C 253.63471 265.607177 253.468111 265.204972 253.171605 264.908466 
C 252.875099 264.61196 252.472894 264.445361 252.053571 264.445361 
C 251.634249 264.445361 251.232044 264.61196 250.935537 264.908466 
C 250.639031 265.204972 250.472433 265.607177 250.472433 266.0265 
C 250.472433 266.445823 250.639031 266.848028 250.935537 267.144534 
C 251.232044 267.44104 251.634249 267.607639 252.053571 267.607639 
z
" style="fill:#ffffff;"/>
   </g>
   <g id="PathCollection_14">
    <path clip-path="url(#p1634314083)" d="M 562.5 71.53621 
C 562.919323 71.53621 563.321528 71.369611 563.618034 71.073105 
C 563.91454 70.776599 564.081139 70.374394 564.081139 69.955071 
C 564.081139 69.535749 563.91454 69.133544 563.618034 68.837037 
C 563.321528 68.540531 562.919323 68.373933 562.5 68.373933 
C 562.080677 68.373933 561.678472 68.540531 561.381966 68.837037 
C 561.08546 69.133544 560.918861 69.535749 560.918861 69.955071 
C 560.918861 70.374394 561.08546 70.776599 561.381966 71.073105 
C 561.678472 71.369611 562.080677 71.53621 562.5 71.53621 
z
" style="fill:#ffffff;"/>
   </g>
   <g id="patch_3">
    <path clip-path="url(#p1634314083)" d="M 72.321429 266.0265 
L 80.491071 266.0265 
L 80.491071 257.856857 
L 72.321429 257.856857 
z
" style="fill:#ff0000;opacity:0.5;stroke:#ff0000;stroke-linejoin:miter;"/>
   </g>
   <g id="patch_4">
    <path clip-path="url(#p1634314083)" d="M 72.321429 266.0265 
L 80.491071 266.0265 
L 80.491071 257.856857 
L 72.321429 257.856857 
z
" style="fill:none;stroke:#808080;stroke-linejoin:miter;"/>
   </g>
   <g id="patch_5">
    <path clip-path="url(#p1634314083)" d="M 72.321429 94.464 
L 80.491071 94.464 
L 80.491071 86.294357 
L 72.321429 86.294357 
z
" style="fill:#ff0000;opacity:0.5;stroke:#ff0000;stroke-linejoin:miter;"/>
   </g>
   <g id="patch_6">
    <path clip-path="url(#p1634314083)" d="M 72.321429 94.464 
L 80.491071 94.464 
L 80.491071 86.294357 
L 72.321429 86.294357 
z
" style="fill:none;stroke:#808080;stroke-linejoin:miter;"/>
   </g>
   <g id="patch_7">
    <path clip-path="url(#p1634314083)" d="M 243.883929 266.0265 
L 252.053571 266.0265 
L 252.053571 257.856857 
L 243.883929 257.856857 
z
" style="fill:#ff0000;opacity:0.5;stroke:#ff0000;stroke-linejoin:miter;"/>
   </g>
   <g id="patch_8">
    <path clip-path="url(#p1634314083)" d="M 243.883929 266.0265 
L 252.053571 266.0265 
L 252.053571 257.856857 
L 243.883929 257.856857 
z
" style="fill:none;stroke:#808080;stroke-linejoin:miter;"/>
   </g>
   <g id="patch_9">
    <path clip-path="url(#p1634314083)" d="M 243.883929 94.464 
L 252.053571 94.464 
L 252.053571 86.294357 
L 243.883929 86.294357 
z
" style="fill:#ff0000;opacity:0.5;stroke:#ff0000;stroke-linejoin:miter;"/>
   </g>
   <g id="patch_10">
    <path clip-path="url(#p1634314083)" d="M 243.883929 94.464 
L 252.053571 94.464 
L 252.053571 86.294357 
L 243.883929 86.294357 
z
" style="fill:none;stroke:#808080;stroke-linejoin:miter;"/>
   </g>
   <g id="patch_11">
    <path clip-path="url(#p1634314083)" d="M 80.491071 257.856857 
L 96.830357 257.856857 
L 96.830357 241.517571 
L 80.491071 241.517571 
z
" style="fill:#00ff00;opacity:0.5;stroke:#00ff00;stroke-linejoin:miter;"/>
   </g>
   <g id="patch_12">
    <path clip-path="url(#p1634314083)" d="M 80.491071 257.856857 
L 96.830357 257.856857 
L 96.830357 241.517571 
L 80.491071 241.517571 
z
" style="fill:none;stroke:#808080;stroke-linejoin:miter;"/>
   </g>
   <g id="patch_13">
    <path clip-path="url(#p1634314083)" d="M 80.491071 233.347929 
L 96.830357 233.347929 
L 96.830357 217.008643 
L 80.491071 217.008643 
z
" style="fill:#00ff00;opacity:0.5;stroke:#00ff00;stroke-linejoin:miter;"/>
   </g>
   <g id="patch_14">
    <path clip-path="url(#p1634314083)" d="M 80.491071 233.347929 
L 96.830357 233.347929 
L 96.830357 217.008643 
L 80.491071 217.008643 
z
" style="fill:none;stroke:#808080;stroke-linejoin:miter;"/>
   </g>
   <g id="patch_15">
    <path clip-path="url(#p1634314083)" d="M 80.491071 135.312214 
L 96.830357 135.312214 
L 96.830357 118.972929 
L 80.491071 118.972929 
z
" style="fill:#00ff00;opacity:0.5;stroke:#00ff00;stroke-linejoin:miter;"/>
   </g>
   <g id="patch_16">
    <path clip-path="url(#p1634314083)" d="M 80.491071 135.312214 
L 96.830357 135.312214 
L 96.830357 118.972929 
L 80.491071 118.972929 
z
" style="fill:none;stroke:#808080;stroke-linejoin:miter;"/>
   </g>
   <g id="patch_17">
    <path clip-path="url(#p1634314083)" d="M 80.491071 110.803286 
L 96.830357 110.803286 
L 96.830357 94.464 
L 80.491071 94.464 
z
" style="fill:#00ff00;opacity:0.5;stroke:#00ff00;stroke-linejoin:miter;"/>
   </g>
   <g id="patch_18">
    <path clip-path="url(#p1634314083)" d="M 80.491071 110.803286 
L 96.830357 110.803286 
L 96.830357 94.464 
L 80.491071 94.464 
z
" style="fill:none;stroke:#808080;stroke-linejoin:miter;"/>
   </g>
   <g id="patch_19">
    <path clip-path="url(#p1634314083)" d="M 105 257.856857 
L 121.339286 257.856857 
L 121.339286 241.517571 
L 105 241.517571 
z
" style="fill:#00ff00;opacity:0.5;stroke:#00ff00;stroke-linejoin:miter;"/>
   </g>
   <g id="patch_20">
    <path clip-path="url(#p1634314083)" d="M 105 257.856857 
L 121.339286 257.856857 
L 121.339286 241.517571 
L 105 241.517571 
z
" style="fill:none;stroke:#808080;stroke-linejoin:miter;"/>
   </g>
   <g id="patch_21">
    <path clip-path="url(#p1634314083)" d="M 105 233.347929 
L 121.339286 233.347929 
L 121.339286 217.008643 
L 105 217.008643 
z
" style="fill:#00ff00;opacity:0.5;stroke:#00ff00;stroke-linejoin:miter;"/>
   </g>
   <g id="patch_22">
    <path clip-path="url(#p1634314083)" d="M 105 233.347929 
L 121.339286 233.347929 
L 121.339286 217.008643 
L 105 217.008643 
z
" style="fill:none;stroke:#808080;stroke-linejoin:miter;"/>
   </g>
   <g id="patch_23">
    <path clip-path="url(#p1634314083)" d="M 105 135.312214 
L 121.339286 135.312214 
L 121.339286 118.972929 
L 105 118.972929 
z
" style="fill:#00ff00;opacity:0.5;stroke:#00ff00;stroke-linejoin:miter;"/>
   </g>
   <g id="patch_24">
    <path clip-path="url(#p1634314083)" d="M 105 135.312214 
L 121.339286 135.312214 
L 121.339286 118.972929 
L 105 118.972929 
z
" style="fill:none;stroke:#808080;stroke-linejoin:miter;"/>
   </g>
   <g id="patch_25">
    <path clip-path="url(#p1634314083)" d="M 105 110.803286 
L 121.339286 110.803286 
L 121.339286 94.464 
L 105 94.464 
z
" style="fill:#00ff00;opacity:0.5;stroke:#00ff00;stroke-linejoin:miter;"/>
   </g>
   <g id="patch_26">
    <path clip-path="url(#p1634314083)" d="M 105 110.803286 
L 121.339286 110.803286 
L 121.339286 94.464 
L 105 94.464 
z
" style="fill:none;stroke:#808080;stroke-linejoin:miter;"/>
   </g>
   <g id="patch_27">
    <path clip-path="url(#p1634314083)" d="M 203.035714 257.856857 
L 219.375 257.856857 
L 219.375 241.517571 
L 203.035714 241.517571 
z
" style="fill:#00ff00;opacity:0.5;stroke:#00ff00;stroke-linejoin:miter;"/>
   </g>
   <g id="patch_28">
    <path clip-path="url(#p1634314083)" d="M 203.035714 257.856857 
L 219.375 257.856857 
L 219.375 241.517571 
L 203.035714 241.517571 
z
" style="fill:none;stroke:#808080;stroke-linejoin:miter;"/>
   </g>
   <g id="patch_29">
    <path clip-path="url(#p1634314083)" d="M 203.035714 233.347929 
L 219.375 233.347929 
L 219.375 217.008643 
L 203.035714 217.008643 
z
" style="fill:#00ff00;opacity:0.5;stroke:#00ff00;stroke-linejoin:miter;"/>
   </g>
   <g id="patch_30">
    <path clip-path="url(#p1634314083)" d="M 203.035714 233.347929 
L 219.375 233.347929 
L 219.375 217.008643 
L 203.035714 217.008643 
z
" style="fill:none;stroke:#808080;stroke-linejoin:miter;"/>
   </g>
   <g id="patch_31">
    <path clip-path="url(#p1634314083)" d="M 203.035714 135.312214 
L 219.375 135.312214 
L 219.375 118.972929 
L 203.035714 118.972929 
z
" style="fill:#00ff00;opacity:0.5;stroke:#00ff00;stroke-linejoin:miter;"/>
   </g>
   <g id="patch_32">
    <path clip-path="url(#p1634314083)" d="M 203.035714 135.312214 
L 219.375 135.312214 
L 219.375 118.972929 
L 203.035714 118.972929 
z
" style="fill:none;stroke:#808080;stroke-linejoin:miter;"/>
   </g>
   <g id="patch_33">
    <path clip-path="url(#p1634314083)" d="M 203.035714 110.803286 
L 219.375 110.803286 
L 219.375 94.464 
L 203.035714 94.464 
z
" style="fill:#00ff00;opacity:0.5;stroke:#00ff00;stroke-linejoin:miter;"/>
   </g>
   <g id="patch_34">
    <path clip-path="url(#p1634314083)" d="M 203.035714 110.803286 
L 219.375 110.803286 
L 219.375 94.464 
L 203.035714 94.464 
z
" style="fill:none;stroke:#808080;stroke-linejoin:miter;"/>
   </g>
   <g id="patch_35">
    <path clip-path="url(#p1634314083)" d="M 227.544643 257.856857 
L 243.883929 257.856857 
L 243.883929 241.517571 
L 227.544643 241.517571 
z
" style="fill:#00ff00;opacity:0.5;stroke:#00ff00;stroke-linejoin:miter;"/>
   </g>
   <g id="patch_36">
    <path clip-path="url(#p1634314083)" d="M 227.544643 257.856857 
L 243.883929 257.856857 
L 243.883929 241.517571 
L 227.544643 241.517571 
z
" style="fill:none;stroke:#808080;stroke-linejoin:miter;"/>
   </g>
   <g id="patch_37">
    <path clip-path="url(#p1634314083)" d="M 227.544643 233.347929 
L 243.883929 233.347929 
L 243.883929 217.008643 
L 227.544643 217.008643 
z
" style="fill:#00ff00;opacity:0.5;stroke:#00ff00;stroke-linejoin:miter;"/>
   </g>
   <g id="patch_38">
    <path clip-path="url(#p1634314083)" d="M 227.544643 233.347929 
L 243.883929 233.347929 
L 243.883929 217.008643 
L 227.544643 217.008643 
z
" style="fill:none;stroke:#808080;stroke-linejoin:miter;"/>
   </g>
   <g id="patch_39">
    <path clip-path="url(#p1634314083)" d="M 227.544643 135.312214 
L 243.883929 135.312214 
L 243.883929 118.972929 
L 227.544643 118.972929 
z
" style="fill:#00ff00;opacity:0.5;stroke:#00ff00;stroke-linejoin:miter;"/>
   </g>
   <g id="patch_40">
    <path clip-path="url(#p1634314083)" d="M 227.544643 135.312214 
L 243.883929 135.312214 
L 243.883929 118.972929 
L 227.544643 118.972929 
z
" style="fill:none;stroke:#808080;stroke-linejoin:miter;"/>
   </g>
   <g id="patch_41">
    <path clip-path="url(#p1634314083)" d="M 227.544643 110.803286 
L 243.883929 110.803286 
L 243.883929 94.464 
L 227.544643 94.464 
z
" style="fill:#00ff00;opacity:0.5;stroke:#00ff00;stroke-linejoin:miter;"/>
   </g>
   <g id="patch_42">
    <path clip-path="url(#p1634314083)" d="M 227.544643 110.803286 
L 243.883929 110.803286 
L 243.883929 94.464 
L 227.544643 94.464 
z
" style="fill:none;stroke:#808080;stroke-linejoin:miter;"/>
   </g>
   <g id="patch_43">
    <path clip-path="url(#p1634314083)" d="M 252.053571 86.294357 
L 268.392857 86.294357 
L 268.392857 69.955071 
L 252.053571 69.955071 
z
" style="fill:#0000ff;opacity:0.5;stroke:#0000ff;stroke-linejoin:miter;"/>
   </g>
   <g id="patch_44">
    <path clip-path="url(#p1634314083)" d="M 252.053571 86.294357 
L 268.392857 86.294357 
L 268.392857 69.955071 
L 252.053571 69.955071 
z
" style="fill:none;stroke:#808080;stroke-linejoin:miter;"/>
   </g>
   <g id="patch_45">
    <path clip-path="url(#p1634314083)" d="M 72.321429 266.0265 
L 72.321429 69.955071 
L 268.392857 69.955071 
L 268.392857 266.0265 
z
" style="fill:none;stroke:#808080;stroke-linejoin:miter;"/>
   </g>
   <g id="matplotlib.axis_1">
    <g id="xtick_1">
     <g id="line2d_61">
      <path clip-path="url(#p1634314083)" d="M 72.321429 271.124357 
L 72.321429 6.035786 
" style="fill:none;stroke:#000000;stroke-dasharray:0.5,0.825;stroke-dashoffset:0;stroke-width:0.5;"/>
     </g>
     <g id="line2d_62">
      <defs>
       <path d="M 0 0 
L 0 3.5 
" id="m5cbc019205" style="stroke:#000000;stroke-width:0.8;"/>
      </defs>
      <g>
       <use style="stroke:#000000;stroke-width:0.8;" x="72.321429" xlink:href="#m5cbc019205" y="266.0265"/>
      </g>
     </g>
    </g>
    <g id="xtick_2">
     <g id="line2d_63">
      <path clip-path="url(#p1634314083)" d="M 80.491071 271.124357 
L 80.491071 6.035786 
" style="fill:none;stroke:#000000;stroke-dasharray:0.5,0.825;stroke-dashoffset:0;stroke-width:0.5;"/>
     </g>
     <g id="line2d_64">
      <g>
       <use style="stroke:#000000;stroke-width:0.8;" x="80.491071" xlink:href="#m5cbc019205" y="266.0265"/>
      </g>
     </g>
     <g id="text_1">
      <!-- $\frac{1}{24}$ -->
      <defs>
       <path d="M 9.28125 0 
L 9.28125 3.515625 
Q 21.78125 3.515625 21.78125 6.6875 
L 21.78125 59.1875 
Q 16.609375 56.6875 8.6875 56.6875 
L 8.6875 60.203125 
Q 20.953125 60.203125 27.203125 66.609375 
L 28.609375 66.609375 
Q 28.953125 66.609375 29.265625 66.328125 
Q 29.59375 66.0625 29.59375 65.71875 
L 29.59375 6.6875 
Q 29.59375 3.515625 42.09375 3.515625 
L 42.09375 0 
z
" id="Cmr10-31"/>
       <path d="M 4.984375 0 
L 4.984375 2.6875 
Q 4.984375 2.9375 5.171875 3.21875 
L 20.703125 20.40625 
Q 24.21875 24.21875 26.40625 26.796875 
Q 28.609375 29.390625 30.75 32.765625 
Q 32.90625 36.140625 34.15625 39.625 
Q 35.40625 43.109375 35.40625 47.015625 
Q 35.40625 51.125 33.890625 54.859375 
Q 32.375 58.59375 29.375 60.84375 
Q 26.375 63.09375 22.125 63.09375 
Q 17.78125 63.09375 14.3125 60.46875 
Q 10.84375 57.859375 9.421875 53.71875 
Q 9.8125 53.8125 10.5 53.8125 
Q 12.75 53.8125 14.328125 52.296875 
Q 15.921875 50.78125 15.921875 48.390625 
Q 15.921875 46.09375 14.328125 44.5 
Q 12.75 42.921875 10.5 42.921875 
Q 8.15625 42.921875 6.5625 44.546875 
Q 4.984375 46.1875 4.984375 48.390625 
Q 4.984375 52.15625 6.390625 55.4375 
Q 7.8125 58.734375 10.46875 61.296875 
Q 13.140625 63.875 16.484375 65.234375 
Q 19.828125 66.609375 23.578125 66.609375 
Q 29.296875 66.609375 34.21875 64.1875 
Q 39.15625 61.765625 42.03125 57.34375 
Q 44.921875 52.9375 44.921875 47.015625 
Q 44.921875 42.671875 43.015625 38.765625 
Q 41.109375 34.859375 38.125 31.65625 
Q 35.15625 28.46875 30.515625 24.40625 
Q 25.875 20.359375 24.421875 19 
L 13.09375 8.109375 
L 22.703125 8.109375 
Q 29.78125 8.109375 34.546875 8.21875 
Q 39.3125 8.34375 39.59375 8.59375 
Q 40.765625 9.859375 42 17.828125 
L 44.921875 17.828125 
L 42.09375 0 
z
" id="Cmr10-32"/>
       <path d="M 2.78125 16.5 
L 2.78125 20.015625 
L 33.6875 66.109375 
Q 34.03125 66.609375 34.71875 66.609375 
L 36.1875 66.609375 
Q 37.3125 66.609375 37.3125 65.484375 
L 37.3125 20.015625 
L 47.125 20.015625 
L 47.125 16.5 
L 37.3125 16.5 
L 37.3125 6.6875 
Q 37.3125 4.640625 40.234375 4.078125 
Q 43.171875 3.515625 47.015625 3.515625 
L 47.015625 0 
L 19.484375 0 
L 19.484375 3.515625 
Q 23.34375 3.515625 26.265625 4.078125 
Q 29.203125 4.640625 29.203125 6.6875 
L 29.203125 16.5 
z
M 6.109375 20.015625 
L 29.78125 20.015625 
L 29.78125 55.421875 
z
" id="Cmr10-34"/>
      </defs>
      <g transform="translate(76.341071 281.5265)scale(0.1 -0.1)">
       <use transform="translate(18 38.373438)scale(0.7)" xlink:href="#Cmr10-31"/>
       <use transform="translate(0 -39.503125)scale(0.7)" xlink:href="#Cmr10-32"/>
       <use transform="translate(35 -39.503125)scale(0.7)" xlink:href="#Cmr10-34"/>
       <path d="M 0 13.373437 
L 0 19.623437 
L 70 19.623437 
L 70 13.373437 
L 0 13.373437 
z
"/>
      </g>
     </g>
    </g>
    <g id="xtick_3">
     <g id="line2d_65">
      <path clip-path="url(#p1634314083)" d="M 121.339286 271.124357 
L 121.339286 6.035786 
" style="fill:none;stroke:#000000;stroke-dasharray:0.5,0.825;stroke-dashoffset:0;stroke-width:0.5;"/>
     </g>
     <g id="line2d_66">
      <g>
       <use style="stroke:#000000;stroke-width:0.8;" x="121.339286" xlink:href="#m5cbc019205" y="266.0265"/>
      </g>
     </g>
     <g id="text_2">
      <!-- $\frac{1}{4}$ -->
      <g transform="translate(118.939286 281.5265)scale(0.1 -0.1)">
       <use transform="translate(0 38.373438)scale(0.7)" xlink:href="#Cmr10-31"/>
       <use transform="translate(0 -39.503125)scale(0.7)" xlink:href="#Cmr10-34"/>
       <path d="M 0 13.373437 
L 0 19.623437 
L 35 19.623437 
L 35 13.373437 
L 0 13.373437 
z
"/>
      </g>
     </g>
    </g>
    <g id="xtick_4">
     <g id="line2d_67">
      <path clip-path="url(#p1634314083)" d="M 137.678571 271.124357 
L 137.678571 6.035786 
" style="fill:none;stroke:#000000;stroke-dasharray:0.5,0.825;stroke-dashoffset:0;stroke-width:0.5;"/>
     </g>
     <g id="line2d_68">
      <g>
       <use style="stroke:#000000;stroke-width:0.8;" x="137.678571" xlink:href="#m5cbc019205" y="266.0265"/>
      </g>
     </g>
     <g id="text_3">
      <!-- $\frac{1}{3}$ -->
      <defs>
       <path d="M 9.515625 7.71875 
Q 11.859375 4.296875 15.8125 2.640625 
Q 19.78125 0.984375 24.3125 0.984375 
Q 30.125 0.984375 32.5625 5.9375 
Q 35.015625 10.890625 35.015625 17.1875 
Q 35.015625 20.015625 34.5 22.84375 
Q 33.984375 25.6875 32.765625 28.125 
Q 31.546875 30.5625 29.421875 32.03125 
Q 27.296875 33.5 24.21875 33.5 
L 17.578125 33.5 
Q 16.703125 33.5 16.703125 34.421875 
L 16.703125 35.296875 
Q 16.703125 36.078125 17.578125 36.078125 
L 23.09375 36.53125 
Q 26.609375 36.53125 28.921875 39.15625 
Q 31.25 41.796875 32.328125 45.578125 
Q 33.40625 49.359375 33.40625 52.78125 
Q 33.40625 57.5625 31.15625 60.640625 
Q 28.90625 63.71875 24.3125 63.71875 
Q 20.515625 63.71875 17.046875 62.28125 
Q 13.578125 60.84375 11.53125 57.90625 
Q 11.71875 57.953125 11.859375 57.984375 
Q 12.015625 58.015625 12.203125 58.015625 
Q 14.453125 58.015625 15.96875 56.453125 
Q 17.484375 54.890625 17.484375 52.6875 
Q 17.484375 50.53125 15.96875 48.96875 
Q 14.453125 47.40625 12.203125 47.40625 
Q 10.015625 47.40625 8.453125 48.96875 
Q 6.890625 50.53125 6.890625 52.6875 
Q 6.890625 56.984375 9.46875 60.15625 
Q 12.0625 63.328125 16.140625 64.96875 
Q 20.21875 66.609375 24.3125 66.609375 
Q 27.34375 66.609375 30.703125 65.703125 
Q 34.078125 64.796875 36.8125 63.109375 
Q 39.546875 61.421875 41.28125 58.78125 
Q 43.015625 56.15625 43.015625 52.78125 
Q 43.015625 48.578125 41.140625 45.015625 
Q 39.265625 41.453125 35.984375 38.859375 
Q 32.71875 36.28125 28.8125 35.015625 
Q 33.15625 34.1875 37.0625 31.734375 
Q 40.96875 29.296875 43.328125 25.484375 
Q 45.703125 21.6875 45.703125 17.28125 
Q 45.703125 11.765625 42.671875 7.296875 
Q 39.65625 2.828125 34.71875 0.3125 
Q 29.78125 -2.203125 24.3125 -2.203125 
Q 19.625 -2.203125 14.90625 -0.40625 
Q 10.203125 1.375 7.203125 4.9375 
Q 4.203125 8.5 4.203125 13.484375 
Q 4.203125 15.96875 5.859375 17.625 
Q 7.515625 19.28125 10.015625 19.28125 
Q 11.625 19.28125 12.96875 18.53125 
Q 14.3125 17.78125 15.0625 16.40625 
Q 15.828125 15.046875 15.828125 13.484375 
Q 15.828125 11.03125 14.109375 9.375 
Q 12.40625 7.71875 10.015625 7.71875 
z
" id="Cmr10-33"/>
      </defs>
      <g transform="translate(135.278571 281.5265)scale(0.1 -0.1)">
       <use transform="translate(0 38.373438)scale(0.7)" xlink:href="#Cmr10-31"/>
       <use transform="translate(0 -39.503125)scale(0.7)" xlink:href="#Cmr10-33"/>
       <path d="M 0 13.373437 
L 0 19.623437 
L 35 19.623437 
L 35 13.373437 
L 0 13.373437 
z
"/>
      </g>
     </g>
    </g>
    <g id="xtick_5">
     <g id="line2d_69">
      <path clip-path="url(#p1634314083)" d="M 186.696429 271.124357 
L 186.696429 6.035786 
" style="fill:none;stroke:#000000;stroke-dasharray:0.5,0.825;stroke-dashoffset:0;stroke-width:0.5;"/>
     </g>
     <g id="line2d_70">
      <g>
       <use style="stroke:#000000;stroke-width:0.8;" x="186.696429" xlink:href="#m5cbc019205" y="266.0265"/>
      </g>
     </g>
     <g id="text_4">
      <!-- $\frac{7}{12}$ -->
      <defs>
       <path d="M 17.390625 2.59375 
Q 17.390625 8.15625 18.359375 13.46875 
Q 19.34375 18.796875 21.21875 24 
Q 23.09375 29.203125 25.75 34.203125 
Q 28.421875 39.203125 31.59375 43.609375 
L 40.71875 56.296875 
L 29.296875 56.296875 
Q 11.53125 56.296875 10.984375 55.8125 
Q 9.671875 54.203125 8.5 46.578125 
L 5.609375 46.578125 
L 8.890625 67.578125 
L 11.8125 67.578125 
L 11.8125 67.28125 
Q 11.8125 65.484375 17.921875 64.9375 
Q 24.03125 64.40625 29.890625 64.40625 
L 48.484375 64.40625 
L 48.484375 61.8125 
Q 48.484375 61.71875 48.453125 61.671875 
Q 48.4375 61.625 48.390625 61.53125 
L 34.625 42.1875 
Q 29.546875 34.671875 28.265625 25.484375 
Q 27 16.3125 27 2.59375 
Q 27 0.640625 25.578125 -0.78125 
Q 24.171875 -2.203125 22.21875 -2.203125 
Q 20.21875 -2.203125 18.796875 -0.78125 
Q 17.390625 0.640625 17.390625 2.59375 
z
" id="Cmr10-37"/>
      </defs>
      <g transform="translate(182.546429 281.7265)scale(0.1 -0.1)">
       <use transform="translate(18 39.695312)scale(0.7)" xlink:href="#Cmr10-37"/>
       <use transform="translate(0 -39.723437)scale(0.7)" xlink:href="#Cmr10-31"/>
       <use transform="translate(35 -39.723437)scale(0.7)" xlink:href="#Cmr10-32"/>
       <path d="M 0 13.153125 
L 0 19.403125 
L 70 19.403125 
L 70 13.153125 
L 0 13.153125 
z
"/>
      </g>
     </g>
    </g>
    <g id="xtick_6">
     <g id="line2d_71">
      <path clip-path="url(#p1634314083)" d="M 203.035714 271.124357 
L 203.035714 6.035786 
" style="fill:none;stroke:#000000;stroke-dasharray:0.5,0.825;stroke-dashoffset:0;stroke-width:0.5;"/>
     </g>
     <g id="line2d_72">
      <g>
       <use style="stroke:#000000;stroke-width:0.8;" x="203.035714" xlink:href="#m5cbc019205" y="266.0265"/>
      </g>
     </g>
     <g id="text_5">
      <!-- $\frac{2}{3}$ -->
      <g transform="translate(200.635714 281.5265)scale(0.1 -0.1)">
       <use transform="translate(0 38.373438)scale(0.7)" xlink:href="#Cmr10-32"/>
       <use transform="translate(0 -39.503125)scale(0.7)" xlink:href="#Cmr10-33"/>
       <path d="M 0 13.373437 
L 0 19.623437 
L 35 19.623437 
L 35 13.373437 
L 0 13.373437 
z
"/>
      </g>
     </g>
    </g>
    <g id="xtick_7">
     <g id="line2d_73">
      <path clip-path="url(#p1634314083)" d="M 243.883929 271.124357 
L 243.883929 6.035786 
" style="fill:none;stroke:#000000;stroke-dasharray:0.5,0.825;stroke-dashoffset:0;stroke-width:0.5;"/>
     </g>
     <g id="line2d_74">
      <g>
       <use style="stroke:#000000;stroke-width:0.8;" x="243.883929" xlink:href="#m5cbc019205" y="266.0265"/>
      </g>
     </g>
     <g id="text_6">
      <!-- $\frac{7}{8}$ -->
      <defs>
       <path d="M 4.203125 15.1875 
Q 4.203125 21.1875 8.15625 25.796875 
Q 12.109375 30.421875 18.3125 33.5 
L 14.59375 35.890625 
Q 11.1875 38.140625 9.03125 41.875 
Q 6.890625 45.609375 6.890625 49.703125 
Q 6.890625 54.5 9.40625 58.34375 
Q 11.921875 62.203125 16.09375 64.40625 
Q 20.265625 66.609375 25 66.609375 
Q 29.4375 66.609375 33.5625 64.796875 
Q 37.703125 62.984375 40.359375 59.609375 
Q 43.015625 56.25 43.015625 51.609375 
Q 43.015625 48.25 41.421875 45.359375 
Q 39.84375 42.484375 37.078125 40.1875 
Q 34.328125 37.890625 31.203125 36.28125 
L 36.921875 32.625 
Q 40.875 30.03125 43.28125 25.828125 
Q 45.703125 21.625 45.703125 17 
Q 45.703125 11.578125 42.796875 7.125 
Q 39.890625 2.6875 35.109375 0.234375 
Q 30.328125 -2.203125 25 -2.203125 
Q 19.828125 -2.203125 15.015625 -0.09375 
Q 10.203125 2 7.203125 5.984375 
Q 4.203125 9.96875 4.203125 15.1875 
z
M 9.625 15.1875 
Q 9.625 11.234375 11.796875 7.953125 
Q 13.96875 4.6875 17.53125 2.828125 
Q 21.09375 0.984375 25 0.984375 
Q 30.8125 0.984375 35.546875 4.375 
Q 40.28125 7.765625 40.28125 13.375 
Q 40.28125 15.28125 39.515625 17.15625 
Q 38.765625 19.046875 37.421875 20.578125 
Q 36.078125 22.125 34.421875 23.09375 
L 21 31.78125 
Q 17.875 30.125 15.25 27.578125 
Q 12.640625 25.046875 11.125 21.875 
Q 9.625 18.703125 9.625 15.1875 
z
M 16.5 45.703125 
L 28.609375 37.890625 
Q 32.8125 40.328125 35.5 43.796875 
Q 38.1875 47.265625 38.1875 51.609375 
Q 38.1875 54.984375 36.296875 57.78125 
Q 34.421875 60.59375 31.390625 62.15625 
Q 28.375 63.71875 24.90625 63.71875 
Q 21.875 63.71875 18.796875 62.546875 
Q 15.71875 61.375 13.71875 59.046875 
Q 11.71875 56.734375 11.71875 53.609375 
Q 11.71875 48.921875 16.5 45.703125 
z
" id="Cmr10-38"/>
      </defs>
      <g transform="translate(241.483929 281.7265)scale(0.1 -0.1)">
       <use transform="translate(0 39.695312)scale(0.7)" xlink:href="#Cmr10-37"/>
       <use transform="translate(0 -39.723437)scale(0.7)" xlink:href="#Cmr10-38"/>
       <path d="M 0 13.153125 
L 0 19.403125 
L 35 19.403125 
L 35 13.153125 
L 0 13.153125 
z
"/>
      </g>
     </g>
    </g>
    <g id="xtick_8">
     <g id="line2d_75">
      <path clip-path="url(#p1634314083)" d="M 252.053571 271.124357 
L 252.053571 6.035786 
" style="fill:none;stroke:#000000;stroke-dasharray:0.5,0.825;stroke-dashoffset:0;stroke-width:0.5;"/>
     </g>
     <g id="line2d_76">
      <g>
       <use style="stroke:#000000;stroke-width:0.8;" x="252.053571" xlink:href="#m5cbc019205" y="266.0265"/>
      </g>
     </g>
     <g id="text_7">
      <!-- $\frac{11}{12}$ -->
      <g transform="translate(247.903571 281.5265)scale(0.1 -0.1)">
       <use transform="translate(0 38.373438)scale(0.7)" xlink:href="#Cmr10-31"/>
       <use transform="translate(35 38.373438)scale(0.7)" xlink:href="#Cmr10-31"/>
       <use transform="translate(0 -39.503125)scale(0.7)" xlink:href="#Cmr10-31"/>
       <use transform="translate(35 -39.503125)scale(0.7)" xlink:href="#Cmr10-32"/>
       <path d="M 0 13.373437 
L 0 19.623437 
L 70 19.623437 
L 70 13.373437 
L 0 13.373437 
z
"/>
      </g>
     </g>
    </g>
    <g id="xtick_9">
     <g id="line2d_77">
      <path clip-path="url(#p1634314083)" d="M 268.392857 271.124357 
L 268.392857 6.035786 
" style="fill:none;stroke:#000000;stroke-dasharray:0.5,0.825;stroke-dashoffset:0;stroke-width:0.5;"/>
     </g>
     <g id="line2d_78">
      <g>
       <use style="stroke:#000000;stroke-width:0.8;" x="268.392857" xlink:href="#m5cbc019205" y="266.0265"/>
      </g>
     </g>
     <g id="text_8">
      <!-- $1$ -->
      <g transform="translate(265.892857 280.624937)scale(0.1 -0.1)">
       <use transform="translate(0 0.390625)" xlink:href="#Cmr10-31"/>
      </g>
     </g>
    </g>
   </g>
   <g id="matplotlib.axis_2">
    <g id="ytick_1">
     <g id="line2d_79">
      <path clip-path="url(#p1634314083)" d="M 2.52 266.0265 
L 573.48 266.0265 
" style="fill:none;stroke:#000000;stroke-dasharray:0.5,0.825;stroke-dashoffset:0;stroke-width:0.5;"/>
     </g>
     <g id="line2d_80">
      <defs>
       <path d="M 0 0 
L -3.5 0 
" id="md41c637df1" style="stroke:#000000;stroke-width:0.8;"/>
      </defs>
      <g>
       <use style="stroke:#000000;stroke-width:0.8;" x="72.321429" xlink:href="#md41c637df1" y="266.0265"/>
      </g>
     </g>
    </g>
    <g id="ytick_2">
     <g id="line2d_81">
      <path clip-path="url(#p1634314083)" d="M 2.52 257.856857 
L 573.48 257.856857 
" style="fill:none;stroke:#000000;stroke-dasharray:0.5,0.825;stroke-dashoffset:0;stroke-width:0.5;"/>
     </g>
     <g id="line2d_82">
      <g>
       <use style="stroke:#000000;stroke-width:0.8;" x="72.321429" xlink:href="#md41c637df1" y="257.856857"/>
      </g>
     </g>
     <g id="text_9">
      <!-- $\frac{1}{24}$ -->
      <g transform="translate(57.021429 262.106857)scale(0.1 -0.1)">
       <use transform="translate(18 38.373438)scale(0.7)" xlink:href="#Cmr10-31"/>
       <use transform="translate(0 -39.503125)scale(0.7)" xlink:href="#Cmr10-32"/>
       <use transform="translate(35 -39.503125)scale(0.7)" xlink:href="#Cmr10-34"/>
       <path d="M 0 13.373437 
L 0 19.623437 
L 70 19.623437 
L 70 13.373437 
L 0 13.373437 
z
"/>
      </g>
     </g>
    </g>
    <g id="ytick_3">
     <g id="line2d_83">
      <path clip-path="url(#p1634314083)" d="M 2.52 217.008643 
L 573.48 217.008643 
" style="fill:none;stroke:#000000;stroke-dasharray:0.5,0.825;stroke-dashoffset:0;stroke-width:0.5;"/>
     </g>
     <g id="line2d_84">
      <g>
       <use style="stroke:#000000;stroke-width:0.8;" x="72.321429" xlink:href="#md41c637df1" y="217.008643"/>
      </g>
     </g>
     <g id="text_10">
      <!-- $\frac{1}{4}$ -->
      <g transform="translate(60.521429 221.258643)scale(0.1 -0.1)">
       <use transform="translate(0 38.373438)scale(0.7)" xlink:href="#Cmr10-31"/>
       <use transform="translate(0 -39.503125)scale(0.7)" xlink:href="#Cmr10-34"/>
       <path d="M 0 13.373437 
L 0 19.623437 
L 35 19.623437 
L 35 13.373437 
L 0 13.373437 
z
"/>
      </g>
     </g>
    </g>
    <g id="ytick_4">
     <g id="line2d_85">
      <path clip-path="url(#p1634314083)" d="M 2.52 200.669357 
L 573.48 200.669357 
" style="fill:none;stroke:#000000;stroke-dasharray:0.5,0.825;stroke-dashoffset:0;stroke-width:0.5;"/>
     </g>
     <g id="line2d_86">
      <g>
       <use style="stroke:#000000;stroke-width:0.8;" x="72.321429" xlink:href="#md41c637df1" y="200.669357"/>
      </g>
     </g>
     <g id="text_11">
      <!-- $\frac{1}{3}$ -->
      <g transform="translate(60.521429 204.919357)scale(0.1 -0.1)">
       <use transform="translate(0 38.373438)scale(0.7)" xlink:href="#Cmr10-31"/>
       <use transform="translate(0 -39.503125)scale(0.7)" xlink:href="#Cmr10-33"/>
       <path d="M 0 13.373437 
L 0 19.623437 
L 35 19.623437 
L 35 13.373437 
L 0 13.373437 
z
"/>
      </g>
     </g>
    </g>
    <g id="ytick_5">
     <g id="line2d_87">
      <path clip-path="url(#p1634314083)" d="M 2.52 151.6515 
L 573.48 151.6515 
" style="fill:none;stroke:#000000;stroke-dasharray:0.5,0.825;stroke-dashoffset:0;stroke-width:0.5;"/>
     </g>
     <g id="line2d_88">
      <g>
       <use style="stroke:#000000;stroke-width:0.8;" x="72.321429" xlink:href="#md41c637df1" y="151.6515"/>
      </g>
     </g>
     <g id="text_12">
      <!-- $\frac{7}{12}$ -->
      <g transform="translate(57.021429 156.0015)scale(0.1 -0.1)">
       <use transform="translate(18 39.695312)scale(0.7)" xlink:href="#Cmr10-37"/>
       <use transform="translate(0 -39.723437)scale(0.7)" xlink:href="#Cmr10-31"/>
       <use transform="translate(35 -39.723437)scale(0.7)" xlink:href="#Cmr10-32"/>
       <path d="M 0 13.153125 
L 0 19.403125 
L 70 19.403125 
L 70 13.153125 
L 0 13.153125 
z
"/>
      </g>
     </g>
    </g>
    <g id="ytick_6">
     <g id="line2d_89">
      <path clip-path="url(#p1634314083)" d="M 2.52 135.312214 
L 573.48 135.312214 
" style="fill:none;stroke:#000000;stroke-dasharray:0.5,0.825;stroke-dashoffset:0;stroke-width:0.5;"/>
     </g>
     <g id="line2d_90">
      <g>
       <use style="stroke:#000000;stroke-width:0.8;" x="72.321429" xlink:href="#md41c637df1" y="135.312214"/>
      </g>
     </g>
     <g id="text_13">
      <!-- $\frac{2}{3}$ -->
      <g transform="translate(60.521429 139.562214)scale(0.1 -0.1)">
       <use transform="translate(0 38.373438)scale(0.7)" xlink:href="#Cmr10-32"/>
       <use transform="translate(0 -39.503125)scale(0.7)" xlink:href="#Cmr10-33"/>
       <path d="M 0 13.373437 
L 0 19.623437 
L 35 19.623437 
L 35 13.373437 
L 0 13.373437 
z
"/>
      </g>
     </g>
    </g>
    <g id="ytick_7">
     <g id="line2d_91">
      <path clip-path="url(#p1634314083)" d="M 2.52 94.464 
L 573.48 94.464 
" style="fill:none;stroke:#000000;stroke-dasharray:0.5,0.825;stroke-dashoffset:0;stroke-width:0.5;"/>
     </g>
     <g id="line2d_92">
      <g>
       <use style="stroke:#000000;stroke-width:0.8;" x="72.321429" xlink:href="#md41c637df1" y="94.464"/>
      </g>
     </g>
     <g id="text_14">
      <!-- $\frac{7}{8}$ -->
      <g transform="translate(60.521429 98.814)scale(0.1 -0.1)">
       <use transform="translate(0 39.695312)scale(0.7)" xlink:href="#Cmr10-37"/>
       <use transform="translate(0 -39.723437)scale(0.7)" xlink:href="#Cmr10-38"/>
       <path d="M 0 13.153125 
L 0 19.403125 
L 35 19.403125 
L 35 13.153125 
L 0 13.153125 
z
"/>
      </g>
     </g>
    </g>
    <g id="ytick_8">
     <g id="line2d_93">
      <path clip-path="url(#p1634314083)" d="M 2.52 86.294357 
L 573.48 86.294357 
" style="fill:none;stroke:#000000;stroke-dasharray:0.5,0.825;stroke-dashoffset:0;stroke-width:0.5;"/>
     </g>
     <g id="line2d_94">
      <g>
       <use style="stroke:#000000;stroke-width:0.8;" x="72.321429" xlink:href="#md41c637df1" y="86.294357"/>
      </g>
     </g>
     <g id="text_15">
      <!-- $\frac{11}{12}$ -->
      <g transform="translate(57.021429 90.544357)scale(0.1 -0.1)">
       <use transform="translate(0 38.373438)scale(0.7)" xlink:href="#Cmr10-31"/>
       <use transform="translate(35 38.373438)scale(0.7)" xlink:href="#Cmr10-31"/>
       <use transform="translate(0 -39.503125)scale(0.7)" xlink:href="#Cmr10-31"/>
       <use transform="translate(35 -39.503125)scale(0.7)" xlink:href="#Cmr10-32"/>
       <path d="M 0 13.373437 
L 0 19.623437 
L 70 19.623437 
L 70 13.373437 
L 0 13.373437 
z
"/>
      </g>
     </g>
    </g>
    <g id="ytick_9">
     <g id="line2d_95">
      <path clip-path="url(#p1634314083)" d="M 2.52 69.955071 
L 573.48 69.955071 
" style="fill:none;stroke:#000000;stroke-dasharray:0.5,0.825;stroke-dashoffset:0;stroke-width:0.5;"/>
     </g>
     <g id="line2d_96">
      <g>
       <use style="stroke:#000000;stroke-width:0.8;" x="72.321429" xlink:href="#md41c637df1" y="69.955071"/>
      </g>
     </g>
     <g id="text_16">
      <!-- $1$ -->
      <g transform="translate(60.321429 73.75429)scale(0.1 -0.1)">
       <use transform="translate(0 0.390625)" xlink:href="#Cmr10-31"/>
      </g>
     </g>
    </g>
   </g>
   <g id="line2d_97">
    <path clip-path="url(#p1634314083)" d="M 129.508929 266.0265 
L 129.508929 69.955071 
" style="fill:none;stroke:#32cd32;stroke-dasharray:1,1.65;stroke-dashoffset:0;"/>
   </g>
   <g id="line2d_98">
    <path clip-path="url(#p1634314083)" d="M 72.321429 143.481857 
L 129.508929 143.481857 
" style="fill:none;stroke:#32cd32;stroke-dasharray:1,1.65;stroke-dashoffset:0;"/>
   </g>
   <g id="line2d_99">
    <path clip-path="url(#p1634314083)" d="M 72.321429 208.839 
L 129.508929 208.839 
" style="fill:none;stroke:#32cd32;stroke-dasharray:1,1.65;stroke-dashoffset:0;"/>
   </g>
   <g id="patch_46">
    <path d="M 72.321429 271.124357 
L 72.321429 6.035786 
" style="fill:none;stroke:#000000;stroke-linecap:square;stroke-linejoin:miter;stroke-width:0.8;"/>
   </g>
   <g id="patch_47">
    <path d="M 2.52 266.0265 
L 573.48 266.0265 
" style="fill:none;stroke:#000000;stroke-linecap:square;stroke-linejoin:miter;stroke-width:0.8;"/>
   </g>
   <g id="legend_1">
    <g id="patch_48">
     <path d="M 351.706563 266.124357 
L 566.48 266.124357 
Q 568.48 266.124357 568.48 264.124357 
L 568.48 162.099357 
Q 568.48 160.099357 566.48 160.099357 
L 351.706563 160.099357 
Q 349.706563 160.099357 349.706563 162.099357 
L 349.706563 264.124357 
Q 349.706563 266.124357 351.706563 266.124357 
z
" style="fill:#ffffff;opacity:0.8;stroke:#cccccc;stroke-linejoin:miter;"/>
    </g>
    <g id="text_17">
     <!-- Moves closure of equiv7_example_xyz_2() -->
     <defs>
      <path d="M 9.8125 72.90625 
L 24.515625 72.90625 
L 43.109375 23.296875 
L 61.8125 72.90625 
L 76.515625 72.90625 
L 76.515625 0 
L 66.890625 0 
L 66.890625 64.015625 
L 48.09375 14.015625 
L 38.1875 14.015625 
L 19.390625 64.015625 
L 19.390625 0 
L 9.8125 0 
z
" id="DejaVuSans-4d"/>
      <path d="M 30.609375 48.390625 
Q 23.390625 48.390625 19.1875 42.75 
Q 14.984375 37.109375 14.984375 27.296875 
Q 14.984375 17.484375 19.15625 11.84375 
Q 23.34375 6.203125 30.609375 6.203125 
Q 37.796875 6.203125 41.984375 11.859375 
Q 46.1875 17.53125 46.1875 27.296875 
Q 46.1875 37.015625 41.984375 42.703125 
Q 37.796875 48.390625 30.609375 48.390625 
z
M 30.609375 56 
Q 42.328125 56 49.015625 48.375 
Q 55.71875 40.765625 55.71875 27.296875 
Q 55.71875 13.875 49.015625 6.21875 
Q 42.328125 -1.421875 30.609375 -1.421875 
Q 18.84375 -1.421875 12.171875 6.21875 
Q 5.515625 13.875 5.515625 27.296875 
Q 5.515625 40.765625 12.171875 48.375 
Q 18.84375 56 30.609375 56 
z
" id="DejaVuSans-6f"/>
      <path d="M 2.984375 54.6875 
L 12.5 54.6875 
L 29.59375 8.796875 
L 46.6875 54.6875 
L 56.203125 54.6875 
L 35.6875 0 
L 23.484375 0 
z
" id="DejaVuSans-76"/>
      <path d="M 56.203125 29.59375 
L 56.203125 25.203125 
L 14.890625 25.203125 
Q 15.484375 15.921875 20.484375 11.0625 
Q 25.484375 6.203125 34.421875 6.203125 
Q 39.59375 6.203125 44.453125 7.46875 
Q 49.3125 8.734375 54.109375 11.28125 
L 54.109375 2.78125 
Q 49.265625 0.734375 44.1875 -0.34375 
Q 39.109375 -1.421875 33.890625 -1.421875 
Q 20.796875 -1.421875 13.15625 6.1875 
Q 5.515625 13.8125 5.515625 26.8125 
Q 5.515625 40.234375 12.765625 48.109375 
Q 20.015625 56 32.328125 56 
Q 43.359375 56 49.78125 48.890625 
Q 56.203125 41.796875 56.203125 29.59375 
z
M 47.21875 32.234375 
Q 47.125 39.59375 43.09375 43.984375 
Q 39.0625 48.390625 32.421875 48.390625 
Q 24.90625 48.390625 20.390625 44.140625 
Q 15.875 39.890625 15.1875 32.171875 
z
" id="DejaVuSans-65"/>
      <path d="M 44.28125 53.078125 
L 44.28125 44.578125 
Q 40.484375 46.53125 36.375 47.5 
Q 32.28125 48.484375 27.875 48.484375 
Q 21.1875 48.484375 17.84375 46.4375 
Q 14.5 44.390625 14.5 40.28125 
Q 14.5 37.15625 16.890625 35.375 
Q 19.28125 33.59375 26.515625 31.984375 
L 29.59375 31.296875 
Q 39.15625 29.25 43.1875 25.515625 
Q 47.21875 21.78125 47.21875 15.09375 
Q 47.21875 7.46875 41.1875 3.015625 
Q 35.15625 -1.421875 24.609375 -1.421875 
Q 20.21875 -1.421875 15.453125 -0.5625 
Q 10.6875 0.296875 5.421875 2 
L 5.421875 11.28125 
Q 10.40625 8.6875 15.234375 7.390625 
Q 20.0625 6.109375 24.8125 6.109375 
Q 31.15625 6.109375 34.5625 8.28125 
Q 37.984375 10.453125 37.984375 14.40625 
Q 37.984375 18.0625 35.515625 20.015625 
Q 33.0625 21.96875 24.703125 23.78125 
L 21.578125 24.515625 
Q 13.234375 26.265625 9.515625 29.90625 
Q 5.8125 33.546875 5.8125 39.890625 
Q 5.8125 47.609375 11.28125 51.796875 
Q 16.75 56 26.8125 56 
Q 31.78125 56 36.171875 55.265625 
Q 40.578125 54.546875 44.28125 53.078125 
z
" id="DejaVuSans-73"/>
      <path id="DejaVuSans-20"/>
      <path d="M 48.78125 52.59375 
L 48.78125 44.1875 
Q 44.96875 46.296875 41.140625 47.34375 
Q 37.3125 48.390625 33.40625 48.390625 
Q 24.65625 48.390625 19.8125 42.84375 
Q 14.984375 37.3125 14.984375 27.296875 
Q 14.984375 17.28125 19.8125 11.734375 
Q 24.65625 6.203125 33.40625 6.203125 
Q 37.3125 6.203125 41.140625 7.25 
Q 44.96875 8.296875 48.78125 10.40625 
L 48.78125 2.09375 
Q 45.015625 0.34375 40.984375 -0.53125 
Q 36.96875 -1.421875 32.421875 -1.421875 
Q 20.0625 -1.421875 12.78125 6.34375 
Q 5.515625 14.109375 5.515625 27.296875 
Q 5.515625 40.671875 12.859375 48.328125 
Q 20.21875 56 33.015625 56 
Q 37.15625 56 41.109375 55.140625 
Q 45.0625 54.296875 48.78125 52.59375 
z
" id="DejaVuSans-63"/>
      <path d="M 9.421875 75.984375 
L 18.40625 75.984375 
L 18.40625 0 
L 9.421875 0 
z
" id="DejaVuSans-6c"/>
      <path d="M 8.5 21.578125 
L 8.5 54.6875 
L 17.484375 54.6875 
L 17.484375 21.921875 
Q 17.484375 14.15625 20.5 10.265625 
Q 23.53125 6.390625 29.59375 6.390625 
Q 36.859375 6.390625 41.078125 11.03125 
Q 45.3125 15.671875 45.3125 23.6875 
L 45.3125 54.6875 
L 54.296875 54.6875 
L 54.296875 0 
L 45.3125 0 
L 45.3125 8.40625 
Q 42.046875 3.421875 37.71875 1 
Q 33.40625 -1.421875 27.6875 -1.421875 
Q 18.265625 -1.421875 13.375 4.4375 
Q 8.5 10.296875 8.5 21.578125 
z
M 31.109375 56 
z
" id="DejaVuSans-75"/>
      <path d="M 41.109375 46.296875 
Q 39.59375 47.171875 37.8125 47.578125 
Q 36.03125 48 33.890625 48 
Q 26.265625 48 22.1875 43.046875 
Q 18.109375 38.09375 18.109375 28.8125 
L 18.109375 0 
L 9.078125 0 
L 9.078125 54.6875 
L 18.109375 54.6875 
L 18.109375 46.1875 
Q 20.953125 51.171875 25.484375 53.578125 
Q 30.03125 56 36.53125 56 
Q 37.453125 56 38.578125 55.875 
Q 39.703125 55.765625 41.0625 55.515625 
z
" id="DejaVuSans-72"/>
      <path d="M 37.109375 75.984375 
L 37.109375 68.5 
L 28.515625 68.5 
Q 23.6875 68.5 21.796875 66.546875 
Q 19.921875 64.59375 19.921875 59.515625 
L 19.921875 54.6875 
L 34.71875 54.6875 
L 34.71875 47.703125 
L 19.921875 47.703125 
L 19.921875 0 
L 10.890625 0 
L 10.890625 47.703125 
L 2.296875 47.703125 
L 2.296875 54.6875 
L 10.890625 54.6875 
L 10.890625 58.5 
Q 10.890625 67.625 15.140625 71.796875 
Q 19.390625 75.984375 28.609375 75.984375 
z
" id="DejaVuSans-66"/>
      <path d="M 14.796875 27.296875 
Q 14.796875 17.390625 18.875 11.75 
Q 22.953125 6.109375 30.078125 6.109375 
Q 37.203125 6.109375 41.296875 11.75 
Q 45.40625 17.390625 45.40625 27.296875 
Q 45.40625 37.203125 41.296875 42.84375 
Q 37.203125 48.484375 30.078125 48.484375 
Q 22.953125 48.484375 18.875 42.84375 
Q 14.796875 37.203125 14.796875 27.296875 
z
M 45.40625 8.203125 
Q 42.578125 3.328125 38.25 0.953125 
Q 33.9375 -1.421875 27.875 -1.421875 
Q 17.96875 -1.421875 11.734375 6.484375 
Q 5.515625 14.40625 5.515625 27.296875 
Q 5.515625 40.1875 11.734375 48.09375 
Q 17.96875 56 27.875 56 
Q 33.9375 56 38.25 53.625 
Q 42.578125 51.265625 45.40625 46.390625 
L 45.40625 54.6875 
L 54.390625 54.6875 
L 54.390625 -20.796875 
L 45.40625 -20.796875 
z
" id="DejaVuSans-71"/>
      <path d="M 9.421875 54.6875 
L 18.40625 54.6875 
L 18.40625 0 
L 9.421875 0 
z
M 9.421875 75.984375 
L 18.40625 75.984375 
L 18.40625 64.59375 
L 9.421875 64.59375 
z
" id="DejaVuSans-69"/>
      <path d="M 8.203125 72.90625 
L 55.078125 72.90625 
L 55.078125 68.703125 
L 28.609375 0 
L 18.3125 0 
L 43.21875 64.59375 
L 8.203125 64.59375 
z
" id="DejaVuSans-37"/>
      <path d="M 50.984375 -16.609375 
L 50.984375 -23.578125 
L -0.984375 -23.578125 
L -0.984375 -16.609375 
z
" id="DejaVuSans-5f"/>
      <path d="M 54.890625 54.6875 
L 35.109375 28.078125 
L 55.90625 0 
L 45.3125 0 
L 29.390625 21.484375 
L 13.484375 0 
L 2.875 0 
L 24.125 28.609375 
L 4.6875 54.6875 
L 15.28125 54.6875 
L 29.78125 35.203125 
L 44.28125 54.6875 
z
" id="DejaVuSans-78"/>
      <path d="M 34.28125 27.484375 
Q 23.390625 27.484375 19.1875 25 
Q 14.984375 22.515625 14.984375 16.5 
Q 14.984375 11.71875 18.140625 8.90625 
Q 21.296875 6.109375 26.703125 6.109375 
Q 34.1875 6.109375 38.703125 11.40625 
Q 43.21875 16.703125 43.21875 25.484375 
L 43.21875 27.484375 
z
M 52.203125 31.203125 
L 52.203125 0 
L 43.21875 0 
L 43.21875 8.296875 
Q 40.140625 3.328125 35.546875 0.953125 
Q 30.953125 -1.421875 24.3125 -1.421875 
Q 15.921875 -1.421875 10.953125 3.296875 
Q 6 8.015625 6 15.921875 
Q 6 25.140625 12.171875 29.828125 
Q 18.359375 34.515625 30.609375 34.515625 
L 43.21875 34.515625 
L 43.21875 35.40625 
Q 43.21875 41.609375 39.140625 45 
Q 35.0625 48.390625 27.6875 48.390625 
Q 23 48.390625 18.546875 47.265625 
Q 14.109375 46.140625 10.015625 43.890625 
L 10.015625 52.203125 
Q 14.9375 54.109375 19.578125 55.046875 
Q 24.21875 56 28.609375 56 
Q 40.484375 56 46.34375 49.84375 
Q 52.203125 43.703125 52.203125 31.203125 
z
" id="DejaVuSans-61"/>
      <path d="M 52 44.1875 
Q 55.375 50.25 60.0625 53.125 
Q 64.75 56 71.09375 56 
Q 79.640625 56 84.28125 50.015625 
Q 88.921875 44.046875 88.921875 33.015625 
L 88.921875 0 
L 79.890625 0 
L 79.890625 32.71875 
Q 79.890625 40.578125 77.09375 44.375 
Q 74.3125 48.1875 68.609375 48.1875 
Q 61.625 48.1875 57.5625 43.546875 
Q 53.515625 38.921875 53.515625 30.90625 
L 53.515625 0 
L 44.484375 0 
L 44.484375 32.71875 
Q 44.484375 40.625 41.703125 44.40625 
Q 38.921875 48.1875 33.109375 48.1875 
Q 26.21875 48.1875 22.15625 43.53125 
Q 18.109375 38.875 18.109375 30.90625 
L 18.109375 0 
L 9.078125 0 
L 9.078125 54.6875 
L 18.109375 54.6875 
L 18.109375 46.1875 
Q 21.1875 51.21875 25.484375 53.609375 
Q 29.78125 56 35.6875 56 
Q 41.65625 56 45.828125 52.96875 
Q 50 49.953125 52 44.1875 
z
" id="DejaVuSans-6d"/>
      <path d="M 18.109375 8.203125 
L 18.109375 -20.796875 
L 9.078125 -20.796875 
L 9.078125 54.6875 
L 18.109375 54.6875 
L 18.109375 46.390625 
Q 20.953125 51.265625 25.265625 53.625 
Q 29.59375 56 35.59375 56 
Q 45.5625 56 51.78125 48.09375 
Q 58.015625 40.1875 58.015625 27.296875 
Q 58.015625 14.40625 51.78125 6.484375 
Q 45.5625 -1.421875 35.59375 -1.421875 
Q 29.59375 -1.421875 25.265625 0.953125 
Q 20.953125 3.328125 18.109375 8.203125 
z
M 48.6875 27.296875 
Q 48.6875 37.203125 44.609375 42.84375 
Q 40.53125 48.484375 33.40625 48.484375 
Q 26.265625 48.484375 22.1875 42.84375 
Q 18.109375 37.203125 18.109375 27.296875 
Q 18.109375 17.390625 22.1875 11.75 
Q 26.265625 6.109375 33.40625 6.109375 
Q 40.53125 6.109375 44.609375 11.75 
Q 48.6875 17.390625 48.6875 27.296875 
z
" id="DejaVuSans-70"/>
      <path d="M 32.171875 -5.078125 
Q 28.375 -14.84375 24.75 -17.8125 
Q 21.140625 -20.796875 15.09375 -20.796875 
L 7.90625 -20.796875 
L 7.90625 -13.28125 
L 13.1875 -13.28125 
Q 16.890625 -13.28125 18.9375 -11.515625 
Q 21 -9.765625 23.484375 -3.21875 
L 25.09375 0.875 
L 2.984375 54.6875 
L 12.5 54.6875 
L 29.59375 11.921875 
L 46.6875 54.6875 
L 56.203125 54.6875 
z
" id="DejaVuSans-79"/>
      <path d="M 5.515625 54.6875 
L 48.1875 54.6875 
L 48.1875 46.484375 
L 14.40625 7.171875 
L 48.1875 7.171875 
L 48.1875 0 
L 4.296875 0 
L 4.296875 8.203125 
L 38.09375 47.515625 
L 5.515625 47.515625 
z
" id="DejaVuSans-7a"/>
      <path d="M 19.1875 8.296875 
L 53.609375 8.296875 
L 53.609375 0 
L 7.328125 0 
L 7.328125 8.296875 
Q 12.9375 14.109375 22.625 23.890625 
Q 32.328125 33.6875 34.8125 36.53125 
Q 39.546875 41.84375 41.421875 45.53125 
Q 43.3125 49.21875 43.3125 52.78125 
Q 43.3125 58.59375 39.234375 62.25 
Q 35.15625 65.921875 28.609375 65.921875 
Q 23.96875 65.921875 18.8125 64.3125 
Q 13.671875 62.703125 7.8125 59.421875 
L 7.8125 69.390625 
Q 13.765625 71.78125 18.9375 73 
Q 24.125 74.21875 28.421875 74.21875 
Q 39.75 74.21875 46.484375 68.546875 
Q 53.21875 62.890625 53.21875 53.421875 
Q 53.21875 48.921875 51.53125 44.890625 
Q 49.859375 40.875 45.40625 35.40625 
Q 44.1875 33.984375 37.640625 27.21875 
Q 31.109375 20.453125 19.1875 8.296875 
z
" id="DejaVuSans-32"/>
      <path d="M 31 75.875 
Q 24.46875 64.65625 21.28125 53.65625 
Q 18.109375 42.671875 18.109375 31.390625 
Q 18.109375 20.125 21.3125 9.0625 
Q 24.515625 -2 31 -13.1875 
L 23.1875 -13.1875 
Q 15.875 -1.703125 12.234375 9.375 
Q 8.59375 20.453125 8.59375 31.390625 
Q 8.59375 42.28125 12.203125 53.3125 
Q 15.828125 64.359375 23.1875 75.875 
z
" id="DejaVuSans-28"/>
      <path d="M 8.015625 75.875 
L 15.828125 75.875 
Q 23.140625 64.359375 26.78125 53.3125 
Q 30.421875 42.28125 30.421875 31.390625 
Q 30.421875 20.453125 26.78125 9.375 
Q 23.140625 -1.703125 15.828125 -13.1875 
L 8.015625 -13.1875 
Q 14.5 -2 17.703125 9.0625 
Q 20.90625 20.125 20.90625 31.390625 
Q 20.90625 42.671875 17.703125 53.65625 
Q 14.5 64.65625 8.015625 75.875 
z
" id="DejaVuSans-29"/>
     </defs>
     <g transform="translate(353.706563 171.697795)scale(0.1 -0.1)">
      <use xlink:href="#DejaVuSans-4d"/>
      <use x="86.279297" xlink:href="#DejaVuSans-6f"/>
      <use x="147.460938" xlink:href="#DejaVuSans-76"/>
      <use x="206.640625" xlink:href="#DejaVuSans-65"/>
      <use x="268.164062" xlink:href="#DejaVuSans-73"/>
      <use x="320.263672" xlink:href="#DejaVuSans-20"/>
      <use x="352.050781" xlink:href="#DejaVuSans-63"/>
      <use x="407.03125" xlink:href="#DejaVuSans-6c"/>
      <use x="434.814453" xlink:href="#DejaVuSans-6f"/>
      <use x="495.996094" xlink:href="#DejaVuSans-73"/>
      <use x="548.095703" xlink:href="#DejaVuSans-75"/>
      <use x="611.474609" xlink:href="#DejaVuSans-72"/>
      <use x="652.556641" xlink:href="#DejaVuSans-65"/>
      <use x="714.080078" xlink:href="#DejaVuSans-20"/>
      <use x="745.867188" xlink:href="#DejaVuSans-6f"/>
      <use x="807.048828" xlink:href="#DejaVuSans-66"/>
      <use x="842.253906" xlink:href="#DejaVuSans-20"/>
      <use x="874.041016" xlink:href="#DejaVuSans-65"/>
      <use x="935.564453" xlink:href="#DejaVuSans-71"/>
      <use x="999.041016" xlink:href="#DejaVuSans-75"/>
      <use x="1062.419922" xlink:href="#DejaVuSans-69"/>
      <use x="1090.203125" xlink:href="#DejaVuSans-76"/>
      <use x="1149.382812" xlink:href="#DejaVuSans-37"/>
      <use x="1213.005859" xlink:href="#DejaVuSans-5f"/>
      <use x="1263.005859" xlink:href="#DejaVuSans-65"/>
      <use x="1324.513672" xlink:href="#DejaVuSans-78"/>
      <use x="1383.693359" xlink:href="#DejaVuSans-61"/>
      <use x="1444.972656" xlink:href="#DejaVuSans-6d"/>
      <use x="1542.384766" xlink:href="#DejaVuSans-70"/>
      <use x="1605.861328" xlink:href="#DejaVuSans-6c"/>
      <use x="1633.644531" xlink:href="#DejaVuSans-65"/>
      <use x="1695.167969" xlink:href="#DejaVuSans-5f"/>
      <use x="1745.167969" xlink:href="#DejaVuSans-78"/>
      <use x="1804.347656" xlink:href="#DejaVuSans-79"/>
      <use x="1863.527344" xlink:href="#DejaVuSans-7a"/>
      <use x="1916.017578" xlink:href="#DejaVuSans-5f"/>
      <use x="1966.017578" xlink:href="#DejaVuSans-32"/>
      <use x="2029.640625" xlink:href="#DejaVuSans-28"/>
      <use x="2068.654297" xlink:href="#DejaVuSans-29"/>
     </g>
    </g>
    <g id="line2d_100">
     <path d="M 389.555781 183.154045 
L 409.555781 183.154045 
" style="fill:none;stroke:#0000ff;stroke-linecap:square;"/>
    </g>
    <g id="line2d_101"/>
    <g id="text_18">
     <!-- moves -->
     <g transform="translate(417.555781 186.654045)scale(0.1 -0.1)">
      <use xlink:href="#DejaVuSans-6d"/>
      <use x="97.412109" xlink:href="#DejaVuSans-6f"/>
      <use x="158.59375" xlink:href="#DejaVuSans-76"/>
      <use x="217.773438" xlink:href="#DejaVuSans-65"/>
      <use x="279.296875" xlink:href="#DejaVuSans-73"/>
     </g>
    </g>
    <g id="line2d_102">
     <path d="M 389.555781 197.83217 
L 409.555781 197.83217 
" style="fill:none;stroke:#32cd32;stroke-dasharray:1,1.65;stroke-dashoffset:0;"/>
    </g>
    <g id="line2d_103"/>
    <g id="text_19">
     <!-- seed value -->
     <defs>
      <path d="M 45.40625 46.390625 
L 45.40625 75.984375 
L 54.390625 75.984375 
L 54.390625 0 
L 45.40625 0 
L 45.40625 8.203125 
Q 42.578125 3.328125 38.25 0.953125 
Q 33.9375 -1.421875 27.875 -1.421875 
Q 17.96875 -1.421875 11.734375 6.484375 
Q 5.515625 14.40625 5.515625 27.296875 
Q 5.515625 40.1875 11.734375 48.09375 
Q 17.96875 56 27.875 56 
Q 33.9375 56 38.25 53.625 
Q 42.578125 51.265625 45.40625 46.390625 
z
M 14.796875 27.296875 
Q 14.796875 17.390625 18.875 11.75 
Q 22.953125 6.109375 30.078125 6.109375 
Q 37.203125 6.109375 41.296875 11.75 
Q 45.40625 17.390625 45.40625 27.296875 
Q 45.40625 37.203125 41.296875 42.84375 
Q 37.203125 48.484375 30.078125 48.484375 
Q 22.953125 48.484375 18.875 42.84375 
Q 14.796875 37.203125 14.796875 27.296875 
z
" id="DejaVuSans-64"/>
     </defs>
     <g transform="translate(417.555781 201.33217)scale(0.1 -0.1)">
      <use xlink:href="#DejaVuSans-73"/>
      <use x="52.099609" xlink:href="#DejaVuSans-65"/>
      <use x="113.623047" xlink:href="#DejaVuSans-65"/>
      <use x="175.146484" xlink:href="#DejaVuSans-64"/>
      <use x="238.623047" xlink:href="#DejaVuSans-20"/>
      <use x="270.410156" xlink:href="#DejaVuSans-76"/>
      <use x="329.589844" xlink:href="#DejaVuSans-61"/>
      <use x="390.869141" xlink:href="#DejaVuSans-6c"/>
      <use x="418.652344" xlink:href="#DejaVuSans-75"/>
      <use x="482.03125" xlink:href="#DejaVuSans-65"/>
     </g>
    </g>
    <g id="line2d_104">
     <path d="M 389.555781 212.510295 
L 409.555781 212.510295 
" style="fill:none;stroke:#32cd32;stroke-dasharray:1,1.65;stroke-dashoffset:0;"/>
    </g>
    <g id="line2d_105"/>
    <g id="text_20">
     <!-- reachable orbit -->
     <defs>
      <path d="M 54.890625 33.015625 
L 54.890625 0 
L 45.90625 0 
L 45.90625 32.71875 
Q 45.90625 40.484375 42.875 44.328125 
Q 39.84375 48.1875 33.796875 48.1875 
Q 26.515625 48.1875 22.3125 43.546875 
Q 18.109375 38.921875 18.109375 30.90625 
L 18.109375 0 
L 9.078125 0 
L 9.078125 75.984375 
L 18.109375 75.984375 
L 18.109375 46.1875 
Q 21.34375 51.125 25.703125 53.5625 
Q 30.078125 56 35.796875 56 
Q 45.21875 56 50.046875 50.171875 
Q 54.890625 44.34375 54.890625 33.015625 
z
" id="DejaVuSans-68"/>
      <path d="M 48.6875 27.296875 
Q 48.6875 37.203125 44.609375 42.84375 
Q 40.53125 48.484375 33.40625 48.484375 
Q 26.265625 48.484375 22.1875 42.84375 
Q 18.109375 37.203125 18.109375 27.296875 
Q 18.109375 17.390625 22.1875 11.75 
Q 26.265625 6.109375 33.40625 6.109375 
Q 40.53125 6.109375 44.609375 11.75 
Q 48.6875 17.390625 48.6875 27.296875 
z
M 18.109375 46.390625 
Q 20.953125 51.265625 25.265625 53.625 
Q 29.59375 56 35.59375 56 
Q 45.5625 56 51.78125 48.09375 
Q 58.015625 40.1875 58.015625 27.296875 
Q 58.015625 14.40625 51.78125 6.484375 
Q 45.5625 -1.421875 35.59375 -1.421875 
Q 29.59375 -1.421875 25.265625 0.953125 
Q 20.953125 3.328125 18.109375 8.203125 
L 18.109375 0 
L 9.078125 0 
L 9.078125 75.984375 
L 18.109375 75.984375 
z
" id="DejaVuSans-62"/>
      <path d="M 18.3125 70.21875 
L 18.3125 54.6875 
L 36.8125 54.6875 
L 36.8125 47.703125 
L 18.3125 47.703125 
L 18.3125 18.015625 
Q 18.3125 11.328125 20.140625 9.421875 
Q 21.96875 7.515625 27.59375 7.515625 
L 36.8125 7.515625 
L 36.8125 0 
L 27.59375 0 
Q 17.1875 0 13.234375 3.875 
Q 9.28125 7.765625 9.28125 18.015625 
L 9.28125 47.703125 
L 2.6875 47.703125 
L 2.6875 54.6875 
L 9.28125 54.6875 
L 9.28125 70.21875 
z
" id="DejaVuSans-74"/>
     </defs>
     <g transform="translate(417.555781 216.010295)scale(0.1 -0.1)">
      <use xlink:href="#DejaVuSans-72"/>
      <use x="41.082031" xlink:href="#DejaVuSans-65"/>
      <use x="102.605469" xlink:href="#DejaVuSans-61"/>
      <use x="163.884766" xlink:href="#DejaVuSans-63"/>
      <use x="218.865234" xlink:href="#DejaVuSans-68"/>
      <use x="282.244141" xlink:href="#DejaVuSans-61"/>
      <use x="343.523438" xlink:href="#DejaVuSans-62"/>
      <use x="407" xlink:href="#DejaVuSans-6c"/>
      <use x="434.783203" xlink:href="#DejaVuSans-65"/>
      <use x="496.306641" xlink:href="#DejaVuSans-20"/>
      <use x="528.09375" xlink:href="#DejaVuSans-6f"/>
      <use x="589.275391" xlink:href="#DejaVuSans-72"/>
      <use x="630.388672" xlink:href="#DejaVuSans-62"/>
      <use x="693.865234" xlink:href="#DejaVuSans-69"/>
      <use x="721.648438" xlink:href="#DejaVuSans-74"/>
     </g>
    </g>
    <g id="patch_49">
     <path d="M 389.555781 230.68842 
L 409.555781 230.68842 
L 409.555781 223.68842 
L 389.555781 223.68842 
z
" style="fill:#ff0000;opacity:0.5;stroke:#ff0000;stroke-linejoin:miter;"/>
    </g>
    <g id="text_21">
     <!-- Covered component 1 -->
     <defs>
      <path d="M 64.40625 67.28125 
L 64.40625 56.890625 
Q 59.421875 61.53125 53.78125 63.8125 
Q 48.140625 66.109375 41.796875 66.109375 
Q 29.296875 66.109375 22.65625 58.46875 
Q 16.015625 50.828125 16.015625 36.375 
Q 16.015625 21.96875 22.65625 14.328125 
Q 29.296875 6.6875 41.796875 6.6875 
Q 48.140625 6.6875 53.78125 8.984375 
Q 59.421875 11.28125 64.40625 15.921875 
L 64.40625 5.609375 
Q 59.234375 2.09375 53.4375 0.328125 
Q 47.65625 -1.421875 41.21875 -1.421875 
Q 24.65625 -1.421875 15.125 8.703125 
Q 5.609375 18.84375 5.609375 36.375 
Q 5.609375 53.953125 15.125 64.078125 
Q 24.65625 74.21875 41.21875 74.21875 
Q 47.75 74.21875 53.53125 72.484375 
Q 59.328125 70.75 64.40625 67.28125 
z
" id="DejaVuSans-43"/>
      <path d="M 54.890625 33.015625 
L 54.890625 0 
L 45.90625 0 
L 45.90625 32.71875 
Q 45.90625 40.484375 42.875 44.328125 
Q 39.84375 48.1875 33.796875 48.1875 
Q 26.515625 48.1875 22.3125 43.546875 
Q 18.109375 38.921875 18.109375 30.90625 
L 18.109375 0 
L 9.078125 0 
L 9.078125 54.6875 
L 18.109375 54.6875 
L 18.109375 46.1875 
Q 21.34375 51.125 25.703125 53.5625 
Q 30.078125 56 35.796875 56 
Q 45.21875 56 50.046875 50.171875 
Q 54.890625 44.34375 54.890625 33.015625 
z
" id="DejaVuSans-6e"/>
      <path d="M 12.40625 8.296875 
L 28.515625 8.296875 
L 28.515625 63.921875 
L 10.984375 60.40625 
L 10.984375 69.390625 
L 28.421875 72.90625 
L 38.28125 72.90625 
L 38.28125 8.296875 
L 54.390625 8.296875 
L 54.390625 0 
L 12.40625 0 
z
" id="DejaVuSans-31"/>
     </defs>
     <g transform="translate(417.555781 230.68842)scale(0.1 -0.1)">
      <use xlink:href="#DejaVuSans-43"/>
      <use x="69.824219" xlink:href="#DejaVuSans-6f"/>
      <use x="131.005859" xlink:href="#DejaVuSans-76"/>
      <use x="190.185547" xlink:href="#DejaVuSans-65"/>
      <use x="251.708984" xlink:href="#DejaVuSans-72"/>
      <use x="292.791016" xlink:href="#DejaVuSans-65"/>
      <use x="354.314453" xlink:href="#DejaVuSans-64"/>
      <use x="417.791016" xlink:href="#DejaVuSans-20"/>
      <use x="449.578125" xlink:href="#DejaVuSans-63"/>
      <use x="504.558594" xlink:href="#DejaVuSans-6f"/>
      <use x="565.740234" xlink:href="#DejaVuSans-6d"/>
      <use x="663.152344" xlink:href="#DejaVuSans-70"/>
      <use x="726.628906" xlink:href="#DejaVuSans-6f"/>
      <use x="787.810547" xlink:href="#DejaVuSans-6e"/>
      <use x="851.189453" xlink:href="#DejaVuSans-65"/>
      <use x="912.712891" xlink:href="#DejaVuSans-6e"/>
      <use x="976.091797" xlink:href="#DejaVuSans-74"/>
      <use x="1015.300781" xlink:href="#DejaVuSans-20"/>
      <use x="1047.087891" xlink:href="#DejaVuSans-31"/>
     </g>
    </g>
    <g id="patch_50">
     <path d="M 389.555781 245.366545 
L 409.555781 245.366545 
L 409.555781 238.366545 
L 389.555781 238.366545 
z
" style="fill:#00ff00;opacity:0.5;stroke:#00ff00;stroke-linejoin:miter;"/>
    </g>
    <g id="text_22">
     <!-- Covered component 2 -->
     <g transform="translate(417.555781 245.366545)scale(0.1 -0.1)">
      <use xlink:href="#DejaVuSans-43"/>
      <use x="69.824219" xlink:href="#DejaVuSans-6f"/>
      <use x="131.005859" xlink:href="#DejaVuSans-76"/>
      <use x="190.185547" xlink:href="#DejaVuSans-65"/>
      <use x="251.708984" xlink:href="#DejaVuSans-72"/>
      <use x="292.791016" xlink:href="#DejaVuSans-65"/>
      <use x="354.314453" xlink:href="#DejaVuSans-64"/>
      <use x="417.791016" xlink:href="#DejaVuSans-20"/>
      <use x="449.578125" xlink:href="#DejaVuSans-63"/>
      <use x="504.558594" xlink:href="#DejaVuSans-6f"/>
      <use x="565.740234" xlink:href="#DejaVuSans-6d"/>
      <use x="663.152344" xlink:href="#DejaVuSans-70"/>
      <use x="726.628906" xlink:href="#DejaVuSans-6f"/>
      <use x="787.810547" xlink:href="#DejaVuSans-6e"/>
      <use x="851.189453" xlink:href="#DejaVuSans-65"/>
      <use x="912.712891" xlink:href="#DejaVuSans-6e"/>
      <use x="976.091797" xlink:href="#DejaVuSans-74"/>
      <use x="1015.300781" xlink:href="#DejaVuSans-20"/>
      <use x="1047.087891" xlink:href="#DejaVuSans-32"/>
     </g>
    </g>
    <g id="patch_51">
     <path d="M 389.555781 260.04467 
L 409.555781 260.04467 
L 409.555781 253.04467 
L 389.555781 253.04467 
z
" style="fill:#0000ff;opacity:0.5;stroke:#0000ff;stroke-linejoin:miter;"/>
    </g>
    <g id="text_23">
     <!-- Covered component 3 -->
     <defs>
      <path d="M 40.578125 39.3125 
Q 47.65625 37.796875 51.625 33 
Q 55.609375 28.21875 55.609375 21.1875 
Q 55.609375 10.40625 48.1875 4.484375 
Q 40.765625 -1.421875 27.09375 -1.421875 
Q 22.515625 -1.421875 17.65625 -0.515625 
Q 12.796875 0.390625 7.625 2.203125 
L 7.625 11.71875 
Q 11.71875 9.328125 16.59375 8.109375 
Q 21.484375 6.890625 26.8125 6.890625 
Q 36.078125 6.890625 40.9375 10.546875 
Q 45.796875 14.203125 45.796875 21.1875 
Q 45.796875 27.640625 41.28125 31.265625 
Q 36.765625 34.90625 28.71875 34.90625 
L 20.21875 34.90625 
L 20.21875 43.015625 
L 29.109375 43.015625 
Q 36.375 43.015625 40.234375 45.921875 
Q 44.09375 48.828125 44.09375 54.296875 
Q 44.09375 59.90625 40.109375 62.90625 
Q 36.140625 65.921875 28.71875 65.921875 
Q 24.65625 65.921875 20.015625 65.03125 
Q 15.375 64.15625 9.8125 62.3125 
L 9.8125 71.09375 
Q 15.4375 72.65625 20.34375 73.4375 
Q 25.25 74.21875 29.59375 74.21875 
Q 40.828125 74.21875 47.359375 69.109375 
Q 53.90625 64.015625 53.90625 55.328125 
Q 53.90625 49.265625 50.4375 45.09375 
Q 46.96875 40.921875 40.578125 39.3125 
z
" id="DejaVuSans-33"/>
     </defs>
     <g transform="translate(417.555781 260.04467)scale(0.1 -0.1)">
      <use xlink:href="#DejaVuSans-43"/>
      <use x="69.824219" xlink:href="#DejaVuSans-6f"/>
      <use x="131.005859" xlink:href="#DejaVuSans-76"/>
      <use x="190.185547" xlink:href="#DejaVuSans-65"/>
      <use x="251.708984" xlink:href="#DejaVuSans-72"/>
      <use x="292.791016" xlink:href="#DejaVuSans-65"/>
      <use x="354.314453" xlink:href="#DejaVuSans-64"/>
      <use x="417.791016" xlink:href="#DejaVuSans-20"/>
      <use x="449.578125" xlink:href="#DejaVuSans-63"/>
      <use x="504.558594" xlink:href="#DejaVuSans-6f"/>
      <use x="565.740234" xlink:href="#DejaVuSans-6d"/>
      <use x="663.152344" xlink:href="#DejaVuSans-70"/>
      <use x="726.628906" xlink:href="#DejaVuSans-6f"/>
      <use x="787.810547" xlink:href="#DejaVuSans-6e"/>
      <use x="851.189453" xlink:href="#DejaVuSans-65"/>
      <use x="912.712891" xlink:href="#DejaVuSans-6e"/>
      <use x="976.091797" xlink:href="#DejaVuSans-74"/>
      <use x="1015.300781" xlink:href="#DejaVuSans-20"/>
      <use x="1047.087891" xlink:href="#DejaVuSans-33"/>
     </g>
    </g>
   </g>
  </g>
 </g>
 <defs>
  <clipPath id="p1634314083">
   <rect height="265.088571" width="570.96" x="2.52" y="6.035786"/>
  </clipPath>
 </defs>
</svg>
