<?xml version="1.0" encoding="utf-8" standalone="no"?>
<!DOCTYPE svg PUBLIC "-//W3C//DTD SVG 1.1//EN"
  "http://www.w3.org/Graphics/SVG/1.1/DTD/svg11.dtd">
<!-- Created with matplotlib (http://matplotlib.org/) -->
<svg height="108pt" version="1.1" viewBox="0 0 576 108" width="576pt" xmlns="http://www.w3.org/2000/svg" xmlns:xlink="http://www.w3.org/1999/xlink">
 <defs>
  <style type="text/css">
*{stroke-linecap:butt;stroke-linejoin:round;}
  </style>
 </defs>
 <g id="figure_1">
  <g id="patch_1">
   <path d="M 0 108 
L 576 108 
L 576 0 
L 0 0 
z
" style="fill:#ffffff;"/>
  </g>
  <g id="axes_1">
   <g id="patch_2">
    <path d="M 19.556652 80.279231 
L 280.08 80.279231 
L 280.08 13.32 
L 19.556652 13.32 
z
" style="fill:#ffffff;"/>
   </g>
   <g id="line2d_1">
    <path clip-path="url(#p13658f41ff)" d="M 74.66736 30.703646 
L 124.768004 62.895584 
L 124.768004 62.895584 
" style="fill:none;stroke:#ff0000;stroke-linecap:square;"/>
   </g>
   <g id="line2d_2">
    <path clip-path="url(#p13658f41ff)" d="M 174.868648 14.607678 
L 275.069936 78.991553 
L 275.069936 78.991553 
" style="fill:none;stroke:#ff0000;stroke-linecap:square;"/>
   </g>
   <g id="line2d_3">
    <path clip-path="url(#p13658f41ff)" d="M 24.566716 78.991553 
L 74.66736 30.703646 
L 74.66736 30.703646 
" style="fill:none;stroke:#00ffff;stroke-linecap:square;"/>
   </g>
   <g id="line2d_4">
    <path clip-path="url(#p13658f41ff)" d="M 124.768004 62.895584 
L 174.868648 14.607678 
L 174.868648 14.607678 
" style="fill:none;stroke:#00ffff;stroke-linecap:square;"/>
   </g>
   <g id="matplotlib.axis_1">
    <g id="xtick_1">
     <g id="line2d_5">
      <path clip-path="url(#p13658f41ff)" d="M 24.566716 80.279231 
L 24.566716 13.32 
" style="fill:none;stroke:#000000;stroke-dasharray:0.5,0.825;stroke-dashoffset:0;stroke-width:0.5;"/>
     </g>
     <g id="line2d_6">
      <defs>
       <path d="M 0 0 
L 0 3.5 
" id="m94e5e2d9ef" style="stroke:#000000;stroke-width:0.8;"/>
      </defs>
      <g>
       <use style="stroke:#000000;stroke-width:0.8;" x="24.566716" xlink:href="#m94e5e2d9ef" y="78.991553"/>
      </g>
     </g>
    </g>
    <g id="xtick_2">
     <g id="line2d_7">
      <path clip-path="url(#p13658f41ff)" d="M 174.868648 80.279231 
L 174.868648 13.32 
" style="fill:none;stroke:#000000;stroke-dasharray:0.5,0.825;stroke-dashoffset:0;stroke-width:0.5;"/>
     </g>
     <g id="line2d_8">
      <g>
       <use style="stroke:#000000;stroke-width:0.8;" x="174.868648" xlink:href="#m94e5e2d9ef" y="78.991553"/>
      </g>
     </g>
     <g id="text_1">
      <!-- $f$ -->
      <defs>
       <path d="M 9.71875 -16.5 
Q 11.578125 -17.921875 14.203125 -17.921875 
Q 17.78125 -17.921875 20.015625 -10.015625 
Q 20.953125 -6.203125 25.09375 15.09375 
L 29.6875 39.59375 
L 21.09375 39.59375 
Q 20.125 39.59375 20.125 40.921875 
Q 20.515625 43.109375 21.390625 43.109375 
L 30.328125 43.109375 
L 31.5 49.609375 
Q 32.078125 52.640625 32.5625 54.8125 
Q 33.0625 56.984375 33.625 58.828125 
Q 34.1875 60.6875 35.296875 62.984375 
Q 37.015625 66.265625 39.921875 68.390625 
Q 42.828125 70.515625 46.1875 70.515625 
Q 48.390625 70.515625 50.46875 69.703125 
Q 52.546875 68.890625 53.859375 67.28125 
Q 55.171875 65.671875 55.171875 63.484375 
Q 55.171875 60.9375 53.484375 59.046875 
Q 51.8125 57.171875 49.421875 57.171875 
Q 47.796875 57.171875 46.65625 58.171875 
Q 45.515625 59.1875 45.515625 60.796875 
Q 45.515625 62.984375 47 64.625 
Q 48.484375 66.265625 50.6875 66.5 
Q 48.828125 67.921875 46.09375 67.921875 
Q 44.578125 67.921875 43.234375 66.5 
Q 41.890625 65.09375 41.5 63.484375 
Q 40.875 60.9375 38.71875 49.703125 
L 37.5 43.109375 
L 47.796875 43.109375 
Q 48.78125 43.109375 48.78125 41.796875 
Q 48.734375 41.546875 48.578125 40.9375 
Q 48.4375 40.328125 48.171875 39.953125 
Q 47.90625 39.59375 47.515625 39.59375 
L 36.8125 39.59375 
L 32.171875 15.1875 
Q 31.296875 9.859375 30.140625 4.359375 
Q 29 -1.125 26.921875 -6.90625 
Q 24.859375 -12.703125 21.625 -16.609375 
Q 18.40625 -20.515625 14.015625 -20.515625 
Q 10.640625 -20.515625 7.984375 -18.578125 
Q 5.328125 -16.65625 5.328125 -13.484375 
Q 5.328125 -10.9375 6.953125 -9.046875 
Q 8.59375 -7.171875 11.078125 -7.171875 
Q 12.75 -7.171875 13.859375 -8.171875 
Q 14.984375 -9.1875 14.984375 -10.796875 
Q 14.984375 -12.9375 13.390625 -14.71875 
Q 11.8125 -16.5 9.71875 -16.5 
z
" id="Cmmi10-66"/>
      </defs>
      <g transform="translate(172.418648 93.569678)scale(0.1 -0.1)">
       <use transform="translate(0 0.484375)" xlink:href="#Cmmi10-66"/>
      </g>
     </g>
    </g>
    <g id="xtick_3">
     <g id="line2d_9">
      <path clip-path="url(#p13658f41ff)" d="M 275.069936 80.279231 
L 275.069936 13.32 
" style="fill:none;stroke:#000000;stroke-dasharray:0.5,0.825;stroke-dashoffset:0;stroke-width:0.5;"/>
     </g>
     <g id="line2d_10">
      <g>
       <use style="stroke:#000000;stroke-width:0.8;" x="275.069936" xlink:href="#m94e5e2d9ef" y="78.991553"/>
      </g>
     </g>
     <g id="text_2">
      <!-- $1$ -->
      <defs>
       <path d="M 9.28125 0 
L 9.28125 3.515625 
Q 21.78125 3.515625 21.78125 6.6875 
L 21.78125 59.1875 
Q 16.609375 56.6875 8.6875 56.6875 
L 8.6875 60.203125 
Q 20.953125 60.203125 27.203125 66.609375 
L 28.609375 66.609375 
Q 28.953125 66.609375 29.265625 66.328125 
Q 29.59375 66.0625 29.59375 65.71875 
L 29.59375 6.6875 
Q 29.59375 3.515625 42.09375 3.515625 
L 42.09375 0 
z
" id="Cmr10-31"/>
      </defs>
      <g transform="translate(272.569936 93.589991)scale(0.1 -0.1)">
       <use transform="translate(0 0.390625)" xlink:href="#Cmr10-31"/>
      </g>
     </g>
    </g>
   </g>
   <g id="matplotlib.axis_2">
    <g id="ytick_1">
     <g id="line2d_11">
      <path clip-path="url(#p13658f41ff)" d="M 19.556652 78.991553 
L 280.08 78.991553 
" style="fill:none;stroke:#000000;stroke-dasharray:0.5,0.825;stroke-dashoffset:0;stroke-width:0.5;"/>
     </g>
     <g id="line2d_12">
      <defs>
       <path d="M 0 0 
L -3.5 0 
" id="m336901c06f" style="stroke:#000000;stroke-width:0.8;"/>
      </defs>
      <g>
       <use style="stroke:#000000;stroke-width:0.8;" x="24.566716" xlink:href="#m336901c06f" y="78.991553"/>
      </g>
     </g>
    </g>
    <g id="ytick_2">
     <g id="line2d_13">
      <path clip-path="url(#p13658f41ff)" d="M 19.556652 14.607678 
L 280.08 14.607678 
" style="fill:none;stroke:#000000;stroke-dasharray:0.5,0.825;stroke-dashoffset:0;stroke-width:0.5;"/>
     </g>
     <g id="line2d_14">
      <g>
       <use style="stroke:#000000;stroke-width:0.8;" x="24.566716" xlink:href="#m336901c06f" y="14.607678"/>
      </g>
     </g>
     <g id="text_3">
      <!-- $1$ -->
      <g transform="translate(12.566716 18.406896)scale(0.1 -0.1)">
       <use transform="translate(0 0.390625)" xlink:href="#Cmr10-31"/>
      </g>
     </g>
    </g>
   </g>
   <g id="patch_3">
    <path d="M 24.566716 80.279231 
L 24.566716 13.32 
" style="fill:none;stroke:#000000;stroke-linecap:square;stroke-linejoin:miter;stroke-width:0.8;"/>
   </g>
   <g id="patch_4">
    <path d="M 19.556652 78.991553 
L 280.08 78.991553 
" style="fill:none;stroke:#000000;stroke-linecap:square;stroke-linejoin:miter;stroke-width:0.8;"/>
   </g>
  </g>
  <g id="axes_2">
   <g id="patch_5">
    <path d="M 302.156652 80.279231 
L 562.68 80.279231 
L 562.68 13.32 
L 302.156652 13.32 
z
" style="fill:#ffffff;"/>
   </g>
   <g id="PathCollection_1">
    <path clip-path="url(#pf0b21ef69f)" d="M 307.166716 81.389469 
C 307.802651 81.389469 308.412625 81.136809 308.862299 80.687136 
C 309.311973 80.237462 309.564632 79.627488 309.564632 78.991553 
C 309.564632 78.355619 309.311973 77.745644 308.862299 77.295971 
C 308.412625 76.846297 307.802651 76.593637 307.166716 76.593637 
C 306.530782 76.593637 305.920808 76.846297 305.471134 77.295971 
C 305.02146 77.745644 304.768801 78.355619 304.768801 78.991553 
C 304.768801 79.627488 305.02146 80.237462 305.471134 80.687136 
C 305.920808 81.136809 306.530782 81.389469 307.166716 81.389469 
z
"/>
   </g>
   <g id="PathCollection_2">
    <path clip-path="url(#pf0b21ef69f)" d="M 323.866931 65.2935 
C 324.502866 65.2935 325.11284 65.040841 325.562514 64.591167 
C 326.012187 64.141493 326.264847 63.531519 326.264847 62.895584 
C 326.264847 62.25965 326.012187 61.649676 325.562514 61.200002 
C 325.11284 60.750328 324.502866 60.497669 323.866931 60.497669 
C 323.230996 60.497669 322.621022 60.750328 322.171349 61.200002 
C 321.721675 61.649676 321.469015 62.25965 321.469015 62.895584 
C 321.469015 63.531519 321.721675 64.141493 322.171349 64.591167 
C 322.621022 65.040841 323.230996 65.2935 323.866931 65.2935 
z
"/>
   </g>
   <g id="PathCollection_3">
    <path clip-path="url(#pf0b21ef69f)" d="M 340.567146 49.197531 
C 341.20308 49.197531 341.813054 48.944872 342.262728 48.495198 
C 342.712402 48.045524 342.965061 47.43555 342.965061 46.799615 
C 342.965061 46.163681 342.712402 45.553707 342.262728 45.104033 
C 341.813054 44.654359 341.20308 44.4017 340.567146 44.4017 
C 339.931211 44.4017 339.321237 44.654359 338.871563 45.104033 
C 338.421889 45.553707 338.16923 46.163681 338.16923 46.799615 
C 338.16923 47.43555 338.421889 48.045524 338.871563 48.495198 
C 339.321237 48.944872 339.931211 49.197531 340.567146 49.197531 
z
"/>
   </g>
   <g id="PathCollection_4">
    <path clip-path="url(#pf0b21ef69f)" d="M 357.26736 33.101562 
C 357.903295 33.101562 358.513269 32.848903 358.962943 32.399229 
C 359.412617 31.949555 359.665276 31.339581 359.665276 30.703646 
C 359.665276 30.067712 359.412617 29.457738 358.962943 29.008064 
C 358.513269 28.55839 357.903295 28.305731 357.26736 28.305731 
C 356.631426 28.305731 356.021452 28.55839 355.571778 29.008064 
C 355.122104 29.457738 354.869445 30.067712 354.869445 30.703646 
C 354.869445 31.339581 355.122104 31.949555 355.571778 32.399229 
C 356.021452 32.848903 356.631426 33.101562 357.26736 33.101562 
z
"/>
   </g>
   <g id="PathCollection_5">
    <path clip-path="url(#pf0b21ef69f)" d="M 373.967575 43.832208 
C 374.60351 43.832208 375.213484 43.579549 375.663157 43.129875 
C 376.112831 42.680201 376.365491 42.070227 376.365491 41.434292 
C 376.365491 40.798358 376.112831 40.188384 375.663157 39.73871 
C 375.213484 39.289036 374.60351 39.036377 373.967575 39.036377 
C 373.33164 39.036377 372.721666 39.289036 372.271992 39.73871 
C 371.822319 40.188384 371.569659 40.798358 371.569659 41.434292 
C 371.569659 42.070227 371.822319 42.680201 372.271992 43.129875 
C 372.721666 43.579549 373.33164 43.832208 373.967575 43.832208 
z
"/>
   </g>
   <g id="PathCollection_6">
    <path clip-path="url(#pf0b21ef69f)" d="M 390.66779 54.562854 
C 391.303724 54.562854 391.913698 54.310195 392.363372 53.860521 
C 392.813046 53.410847 393.065705 52.800873 393.065705 52.164938 
C 393.065705 51.529004 392.813046 50.91903 392.363372 50.469356 
C 391.913698 50.019682 391.303724 49.767023 390.66779 49.767023 
C 390.031855 49.767023 389.421881 50.019682 388.972207 50.469356 
C 388.522533 50.91903 388.269874 51.529004 388.269874 52.164938 
C 388.269874 52.800873 388.522533 53.410847 388.972207 53.860521 
C 389.421881 54.310195 390.031855 54.562854 390.66779 54.562854 
z
"/>
   </g>
   <g id="PathCollection_7">
    <path clip-path="url(#pf0b21ef69f)" d="M 407.368004 65.2935 
C 408.003939 65.2935 408.613913 65.040841 409.063587 64.591167 
C 409.51326 64.141493 409.76592 63.531519 409.76592 62.895584 
C 409.76592 62.25965 409.51326 61.649676 409.063587 61.200002 
C 408.613913 60.750328 408.003939 60.497669 407.368004 60.497669 
C 406.732069 60.497669 406.122095 60.750328 405.672422 61.200002 
C 405.222748 61.649676 404.970088 62.25965 404.970088 62.895584 
C 404.970088 63.531519 405.222748 64.141493 405.672422 64.591167 
C 406.122095 65.040841 406.732069 65.2935 407.368004 65.2935 
z
"/>
   </g>
   <g id="PathCollection_8">
    <path clip-path="url(#pf0b21ef69f)" d="M 424.068219 49.197531 
C 424.704153 49.197531 425.314128 48.944872 425.763801 48.495198 
C 426.213475 48.045524 426.466135 47.43555 426.466135 46.799615 
C 426.466135 46.163681 426.213475 45.553707 425.763801 45.104033 
C 425.314128 44.654359 424.704153 44.4017 424.068219 44.4017 
C 423.432284 44.4017 422.82231 44.654359 422.372636 45.104033 
C 421.922963 45.553707 421.670303 46.163681 421.670303 46.799615 
C 421.670303 47.43555 421.922963 48.045524 422.372636 48.495198 
C 422.82231 48.944872 423.432284 49.197531 424.068219 49.197531 
z
"/>
   </g>
   <g id="PathCollection_9">
    <path clip-path="url(#pf0b21ef69f)" d="M 440.768433 33.101562 
C 441.404368 33.101562 442.014342 32.848903 442.464016 32.399229 
C 442.91369 31.949555 443.166349 31.339581 443.166349 30.703646 
C 443.166349 30.067712 442.91369 29.457738 442.464016 29.008064 
C 442.014342 28.55839 441.404368 28.305731 440.768433 28.305731 
C 440.132499 28.305731 439.522525 28.55839 439.072851 29.008064 
C 438.623177 29.457738 438.370518 30.067712 438.370518 30.703646 
C 438.370518 31.339581 438.623177 31.949555 439.072851 32.399229 
C 439.522525 32.848903 440.132499 33.101562 440.768433 33.101562 
z
"/>
   </g>
   <g id="PathCollection_10">
    <path clip-path="url(#pf0b21ef69f)" d="M 457.468648 17.005593 
C 458.104583 17.005593 458.714557 16.752934 459.16423 16.30326 
C 459.613904 15.853586 459.866564 15.243612 459.866564 14.607678 
C 459.866564 13.971743 459.613904 13.361769 459.16423 12.912095 
C 458.714557 12.462421 458.104583 12.209762 457.468648 12.209762 
C 456.832713 12.209762 456.222739 12.462421 455.773065 12.912095 
C 455.323392 13.361769 455.070732 13.971743 455.070732 14.607678 
C 455.070732 15.243612 455.323392 15.853586 455.773065 16.30326 
C 456.222739 16.752934 456.832713 17.005593 457.468648 17.005593 
z
"/>
   </g>
   <g id="PathCollection_11">
    <path clip-path="url(#pf0b21ef69f)" d="M 474.168863 27.736239 
C 474.804797 27.736239 475.414771 27.48358 475.864445 27.033906 
C 476.314119 26.584232 476.566778 25.974258 476.566778 25.338323 
C 476.566778 24.702389 476.314119 24.092415 475.864445 23.642741 
C 475.414771 23.193067 474.804797 22.940408 474.168863 22.940408 
C 473.532928 22.940408 472.922954 23.193067 472.47328 23.642741 
C 472.023606 24.092415 471.770947 24.702389 471.770947 25.338323 
C 471.770947 25.974258 472.023606 26.584232 472.47328 27.033906 
C 472.922954 27.48358 473.532928 27.736239 474.168863 27.736239 
z
"/>
   </g>
   <g id="PathCollection_12">
    <path clip-path="url(#pf0b21ef69f)" d="M 490.869077 38.466885 
C 491.505012 38.466885 492.114986 38.214226 492.56466 37.764552 
C 493.014333 37.314878 493.266993 36.704904 493.266993 36.068969 
C 493.266993 35.433035 493.014333 34.823061 492.56466 34.373387 
C 492.114986 33.923713 491.505012 33.671054 490.869077 33.671054 
C 490.233142 33.671054 489.623168 33.923713 489.173495 34.373387 
C 488.723821 34.823061 488.471161 35.433035 488.471161 36.068969 
C 488.471161 36.704904 488.723821 37.314878 489.173495 37.764552 
C 489.623168 38.214226 490.233142 38.466885 490.869077 38.466885 
z
"/>
   </g>
   <g id="PathCollection_13">
    <path clip-path="url(#pf0b21ef69f)" d="M 507.569292 49.197531 
C 508.205226 49.197531 508.815201 48.944872 509.264874 48.495198 
C 509.714548 48.045524 509.967208 47.43555 509.967208 46.799615 
C 509.967208 46.163681 509.714548 45.553707 509.264874 45.104033 
C 508.815201 44.654359 508.205226 44.4017 507.569292 44.4017 
C 506.933357 44.4017 506.323383 44.654359 505.873709 45.104033 
C 505.424036 45.553707 505.171376 46.163681 505.171376 46.799615 
C 505.171376 47.43555 505.424036 48.045524 505.873709 48.495198 
C 506.323383 48.944872 506.933357 49.197531 507.569292 49.197531 
z
"/>
   </g>
   <g id="PathCollection_14">
    <path clip-path="url(#pf0b21ef69f)" d="M 524.269506 59.928177 
C 524.905441 59.928177 525.515415 59.675518 525.965089 59.225844 
C 526.414763 58.77617 526.667422 58.166196 526.667422 57.530261 
C 526.667422 56.894327 526.414763 56.284353 525.965089 55.834679 
C 525.515415 55.385005 524.905441 55.132346 524.269506 55.132346 
C 523.633572 55.132346 523.023598 55.385005 522.573924 55.834679 
C 522.12425 56.284353 521.871591 56.894327 521.871591 57.530261 
C 521.871591 58.166196 522.12425 58.77617 522.573924 59.225844 
C 523.023598 59.675518 523.633572 59.928177 524.269506 59.928177 
z
"/>
   </g>
   <g id="PathCollection_15">
    <path clip-path="url(#pf0b21ef69f)" d="M 540.969721 70.658823 
C 541.605656 70.658823 542.21563 70.406164 542.665304 69.95649 
C 543.114977 69.506816 543.367637 68.896842 543.367637 68.260907 
C 543.367637 67.624973 543.114977 67.014999 542.665304 66.565325 
C 542.21563 66.115651 541.605656 65.862992 540.969721 65.862992 
C 540.333786 65.862992 539.723812 66.115651 539.274139 66.565325 
C 538.824465 67.014999 538.571805 67.624973 538.571805 68.260907 
C 538.571805 68.896842 538.824465 69.506816 539.274139 69.95649 
C 539.723812 70.406164 540.333786 70.658823 540.969721 70.658823 
z
"/>
   </g>
   <g id="PathCollection_16">
    <path clip-path="url(#pf0b21ef69f)" d="M 557.669936 81.389469 
C 558.30587 81.389469 558.915844 81.136809 559.365518 80.687136 
C 559.815192 80.237462 560.067851 79.627488 560.067851 78.991553 
C 560.067851 78.355619 559.815192 77.745644 559.365518 77.295971 
C 558.915844 76.846297 558.30587 76.593637 557.669936 76.593637 
C 557.034001 76.593637 556.424027 76.846297 555.974353 77.295971 
C 555.524679 77.745644 555.27202 78.355619 555.27202 78.991553 
C 555.27202 79.627488 555.524679 80.237462 555.974353 80.687136 
C 556.424027 81.136809 557.034001 81.389469 557.669936 81.389469 
z
"/>
   </g>
   <g id="matplotlib.axis_3">
    <g id="xtick_4">
     <g id="line2d_15">
      <path clip-path="url(#pf0b21ef69f)" d="M 307.166716 80.279231 
L 307.166716 13.32 
" style="fill:none;stroke:#000000;stroke-dasharray:0.5,0.825;stroke-dashoffset:0;stroke-width:0.5;"/>
     </g>
     <g id="line2d_16">
      <g>
       <use style="stroke:#000000;stroke-width:0.8;" x="307.166716" xlink:href="#m94e5e2d9ef" y="78.991553"/>
      </g>
     </g>
    </g>
    <g id="xtick_5">
     <g id="line2d_17">
      <path clip-path="url(#pf0b21ef69f)" d="M 457.468648 80.279231 
L 457.468648 13.32 
" style="fill:none;stroke:#000000;stroke-dasharray:0.5,0.825;stroke-dashoffset:0;stroke-width:0.5;"/>
     </g>
     <g id="line2d_18">
      <g>
       <use style="stroke:#000000;stroke-width:0.8;" x="457.468648" xlink:href="#m94e5e2d9ef" y="78.991553"/>
      </g>
     </g>
     <g id="text_4">
      <!-- $f$ -->
      <g transform="translate(455.018648 93.569678)scale(0.1 -0.1)">
       <use transform="translate(0 0.484375)" xlink:href="#Cmmi10-66"/>
      </g>
     </g>
    </g>
    <g id="xtick_6">
     <g id="line2d_19">
      <path clip-path="url(#pf0b21ef69f)" d="M 557.669936 80.279231 
L 557.669936 13.32 
" style="fill:none;stroke:#000000;stroke-dasharray:0.5,0.825;stroke-dashoffset:0;stroke-width:0.5;"/>
     </g>
     <g id="line2d_20">
      <g>
       <use style="stroke:#000000;stroke-width:0.8;" x="557.669936" xlink:href="#m94e5e2d9ef" y="78.991553"/>
      </g>
     </g>
     <g id="text_5">
      <!-- $1$ -->
      <g transform="translate(555.169936 93.589991)scale(0.1 -0.1)">
       <use transform="translate(0 0.390625)" xlink:href="#Cmr10-31"/>
      </g>
     </g>
    </g>
   </g>
   <g id="matplotlib.axis_4">
    <g id="ytick_3">
     <g id="line2d_21">
      <path clip-path="url(#pf0b21ef69f)" d="M 302.156652 78.991553 
L 562.68 78.991553 
" style="fill:none;stroke:#000000;stroke-dasharray:0.5,0.825;stroke-dashoffset:0;stroke-width:0.5;"/>
     </g>
     <g id="line2d_22">
      <g>
       <use style="stroke:#000000;stroke-width:0.8;" x="307.166716" xlink:href="#m336901c06f" y="78.991553"/>
      </g>
     </g>
    </g>
    <g id="ytick_4">
     <g id="line2d_23">
      <path clip-path="url(#pf0b21ef69f)" d="M 302.156652 14.607678 
L 562.68 14.607678 
" style="fill:none;stroke:#000000;stroke-dasharray:0.5,0.825;stroke-dashoffset:0;stroke-width:0.5;"/>
     </g>
     <g id="line2d_24">
      <g>
       <use style="stroke:#000000;stroke-width:0.8;" x="307.166716" xlink:href="#m336901c06f" y="14.607678"/>
      </g>
     </g>
     <g id="text_6">
      <!-- $1$ -->
      <g transform="translate(295.166716 18.406896)scale(0.1 -0.1)">
       <use transform="translate(0 0.390625)" xlink:href="#Cmr10-31"/>
      </g>
     </g>
    </g>
   </g>
   <g id="patch_6">
    <path d="M 307.166716 80.279231 
L 307.166716 13.32 
" style="fill:none;stroke:#000000;stroke-linecap:square;stroke-linejoin:miter;stroke-width:0.8;"/>
   </g>
   <g id="patch_7">
    <path d="M 302.156652 78.991553 
L 562.68 78.991553 
" style="fill:none;stroke:#000000;stroke-linecap:square;stroke-linejoin:miter;stroke-width:0.8;"/>
   </g>
  </g>
 </g>
 <defs>
  <clipPath id="p13658f41ff">
   <rect height="66.959231" width="260.523348" x="19.556652" y="13.32"/>
  </clipPath>
  <clipPath id="pf0b21ef69f">
   <rect height="66.959231" width="260.523348" x="302.156652" y="13.32"/>
  </clipPath>
 </defs>
</svg>
