<?xml version="1.0" encoding="utf-8" standalone="no"?>
<!DOCTYPE svg PUBLIC "-//W3C//DTD SVG 1.1//EN"
  "http://www.w3.org/Graphics/SVG/1.1/DTD/svg11.dtd">
<!-- Created with matplotlib (http://matplotlib.org/) -->
<svg height="108pt" version="1.1" viewBox="0 0 576 108" width="576pt" xmlns="http://www.w3.org/2000/svg" xmlns:xlink="http://www.w3.org/1999/xlink">
 <defs>
  <style type="text/css">
*{stroke-linecap:butt;stroke-linejoin:round;}
  </style>
 </defs>
 <g id="figure_1">
  <g id="patch_1">
   <path d="M 0 108 
L 576 108 
L 576 0 
L 0 0 
z
" style="fill:#ffffff;"/>
  </g>
  <g id="axes_1">
   <g id="patch_2">
    <path d="M 8.756652 91.079231 
L 285.48 91.079231 
L 285.48 2.52 
L 8.756652 2.52 
z
" style="fill:#ffffff;"/>
   </g>
   <g id="PathCollection_1">
    <path clip-path="url(#p75310d3705)" d="M 14.078255 91.774084 
C 14.71419 91.774084 15.324164 91.521425 15.773837 91.071751 
C 16.223511 90.622077 16.476171 90.012103 16.476171 89.376169 
C 16.476171 88.740234 16.223511 88.13026 15.773837 87.680586 
C 15.324164 87.230912 14.71419 86.978253 14.078255 86.978253 
C 13.44232 86.978253 12.832346 87.230912 12.382672 87.680586 
C 11.932999 88.13026 11.680339 88.740234 11.680339 89.376169 
C 11.680339 90.012103 11.932999 90.622077 12.382672 91.071751 
C 12.832346 91.521425 13.44232 91.774084 14.078255 91.774084 
z
"/>
   </g>
   <g id="PathCollection_2">
    <path clip-path="url(#p75310d3705)" d="M 67.294283 70.485808 
C 67.930218 70.485808 68.540192 70.233148 68.989866 69.783475 
C 69.43954 69.333801 69.692199 68.723827 69.692199 68.087892 
C 69.692199 67.451957 69.43954 66.841983 68.989866 66.39231 
C 68.540192 65.942636 67.930218 65.689976 67.294283 65.689976 
C 66.658349 65.689976 66.048375 65.942636 65.598701 66.39231 
C 65.149027 66.841983 64.896368 67.451957 64.896368 68.087892 
C 64.896368 68.723827 65.149027 69.333801 65.598701 69.783475 
C 66.048375 70.233148 66.658349 70.485808 67.294283 70.485808 
z
"/>
   </g>
   <g id="PathCollection_3">
    <path clip-path="url(#p75310d3705)" d="M 120.510312 49.197531 
C 121.146247 49.197531 121.756221 48.944872 122.205894 48.495198 
C 122.655568 48.045524 122.908228 47.43555 122.908228 46.799615 
C 122.908228 46.163681 122.655568 45.553707 122.205894 45.104033 
C 121.756221 44.654359 121.146247 44.4017 120.510312 44.4017 
C 119.874377 44.4017 119.264403 44.654359 118.814729 45.104033 
C 118.365056 45.553707 118.112396 46.163681 118.112396 46.799615 
C 118.112396 47.43555 118.365056 48.045524 118.814729 48.495198 
C 119.264403 48.944872 119.874377 49.197531 120.510312 49.197531 
z
"/>
   </g>
   <g id="PathCollection_4">
    <path clip-path="url(#p75310d3705)" d="M 173.72634 27.909255 
C 174.362275 27.909255 174.972249 27.656595 175.421923 27.206921 
C 175.871597 26.757248 176.124256 26.147273 176.124256 25.511339 
C 176.124256 24.875404 175.871597 24.26543 175.421923 23.815756 
C 174.972249 23.366083 174.362275 23.113423 173.72634 23.113423 
C 173.090406 23.113423 172.480432 23.366083 172.030758 23.815756 
C 171.581084 24.26543 171.328425 24.875404 171.328425 25.511339 
C 171.328425 26.147273 171.581084 26.757248 172.030758 27.206921 
C 172.480432 27.656595 173.090406 27.909255 173.72634 27.909255 
z
"/>
   </g>
   <g id="PathCollection_5">
    <path clip-path="url(#p75310d3705)" d="M 226.942369 6.620978 
C 227.578303 6.620978 228.188277 6.368318 228.637951 5.918645 
C 229.087625 5.468971 229.340284 4.858997 229.340284 4.223062 
C 229.340284 3.587127 229.087625 2.977153 228.637951 2.52748 
C 228.188277 2.077806 227.578303 1.825146 226.942369 1.825146 
C 226.306434 1.825146 225.69646 2.077806 225.246786 2.52748 
C 224.797112 2.977153 224.544453 3.587127 224.544453 4.223062 
C 224.544453 4.858997 224.797112 5.468971 225.246786 5.918645 
C 225.69646 6.368318 226.306434 6.620978 226.942369 6.620978 
z
"/>
   </g>
   <g id="PathCollection_6">
    <path clip-path="url(#p75310d3705)" d="M 280.158397 91.774084 
C 280.794332 91.774084 281.404306 91.521425 281.85398 91.071751 
C 282.303653 90.622077 282.556313 90.012103 282.556313 89.376169 
C 282.556313 88.740234 282.303653 88.13026 281.85398 87.680586 
C 281.404306 87.230912 280.794332 86.978253 280.158397 86.978253 
C 279.522462 86.978253 278.912488 87.230912 278.462815 87.680586 
C 278.013141 88.13026 277.760481 88.740234 277.760481 89.376169 
C 277.760481 90.012103 278.013141 90.622077 278.462815 91.071751 
C 278.912488 91.521425 279.522462 91.774084 280.158397 91.774084 
z
"/>
   </g>
   <g id="matplotlib.axis_1">
    <g id="xtick_1">
     <g id="line2d_1">
      <path clip-path="url(#p75310d3705)" d="M 14.078255 91.079231 
L 14.078255 2.52 
" style="fill:none;stroke:#000000;stroke-dasharray:0.5,0.825;stroke-dashoffset:0;stroke-width:0.5;"/>
     </g>
     <g id="line2d_2">
      <defs>
       <path d="M 0 0 
L 0 3.5 
" id="mae723d2667" style="stroke:#000000;stroke-width:0.8;"/>
      </defs>
      <g>
       <use style="stroke:#000000;stroke-width:0.8;" x="14.078255" xlink:href="#mae723d2667" y="89.376169"/>
      </g>
     </g>
    </g>
    <g id="xtick_2">
     <g id="line2d_3">
      <path clip-path="url(#p75310d3705)" d="M 226.942369 91.079231 
L 226.942369 2.52 
" style="fill:none;stroke:#000000;stroke-dasharray:0.5,0.825;stroke-dashoffset:0;stroke-width:0.5;"/>
     </g>
     <g id="line2d_4">
      <g>
       <use style="stroke:#000000;stroke-width:0.8;" x="226.942369" xlink:href="#mae723d2667" y="89.376169"/>
      </g>
     </g>
     <g id="text_1">
      <!-- $f$ -->
      <defs>
       <path d="M 9.71875 -16.5 
Q 11.578125 -17.921875 14.203125 -17.921875 
Q 17.78125 -17.921875 20.015625 -10.015625 
Q 20.953125 -6.203125 25.09375 15.09375 
L 29.6875 39.59375 
L 21.09375 39.59375 
Q 20.125 39.59375 20.125 40.921875 
Q 20.515625 43.109375 21.390625 43.109375 
L 30.328125 43.109375 
L 31.5 49.609375 
Q 32.078125 52.640625 32.5625 54.8125 
Q 33.0625 56.984375 33.625 58.828125 
Q 34.1875 60.6875 35.296875 62.984375 
Q 37.015625 66.265625 39.921875 68.390625 
Q 42.828125 70.515625 46.1875 70.515625 
Q 48.390625 70.515625 50.46875 69.703125 
Q 52.546875 68.890625 53.859375 67.28125 
Q 55.171875 65.671875 55.171875 63.484375 
Q 55.171875 60.9375 53.484375 59.046875 
Q 51.8125 57.171875 49.421875 57.171875 
Q 47.796875 57.171875 46.65625 58.171875 
Q 45.515625 59.1875 45.515625 60.796875 
Q 45.515625 62.984375 47 64.625 
Q 48.484375 66.265625 50.6875 66.5 
Q 48.828125 67.921875 46.09375 67.921875 
Q 44.578125 67.921875 43.234375 66.5 
Q 41.890625 65.09375 41.5 63.484375 
Q 40.875 60.9375 38.71875 49.703125 
L 37.5 43.109375 
L 47.796875 43.109375 
Q 48.78125 43.109375 48.78125 41.796875 
Q 48.734375 41.546875 48.578125 40.9375 
Q 48.4375 40.328125 48.171875 39.953125 
Q 47.90625 39.59375 47.515625 39.59375 
L 36.8125 39.59375 
L 32.171875 15.1875 
Q 31.296875 9.859375 30.140625 4.359375 
Q 29 -1.125 26.921875 -6.90625 
Q 24.859375 -12.703125 21.625 -16.609375 
Q 18.40625 -20.515625 14.015625 -20.515625 
Q 10.640625 -20.515625 7.984375 -18.578125 
Q 5.328125 -16.65625 5.328125 -13.484375 
Q 5.328125 -10.9375 6.953125 -9.046875 
Q 8.59375 -7.171875 11.078125 -7.171875 
Q 12.75 -7.171875 13.859375 -8.171875 
Q 14.984375 -9.1875 14.984375 -10.796875 
Q 14.984375 -12.9375 13.390625 -14.71875 
Q 11.8125 -16.5 9.71875 -16.5 
z
" id="Cmmi10-66"/>
      </defs>
      <g transform="translate(224.492369 103.954294)scale(0.1 -0.1)">
       <use transform="translate(0 0.484375)" xlink:href="#Cmmi10-66"/>
      </g>
     </g>
    </g>
    <g id="xtick_3">
     <g id="line2d_5">
      <path clip-path="url(#p75310d3705)" d="M 280.158397 91.079231 
L 280.158397 2.52 
" style="fill:none;stroke:#000000;stroke-dasharray:0.5,0.825;stroke-dashoffset:0;stroke-width:0.5;"/>
     </g>
     <g id="line2d_6">
      <g>
       <use style="stroke:#000000;stroke-width:0.8;" x="280.158397" xlink:href="#mae723d2667" y="89.376169"/>
      </g>
     </g>
     <g id="text_2">
      <!-- $1$ -->
      <defs>
       <path d="M 9.28125 0 
L 9.28125 3.515625 
Q 21.78125 3.515625 21.78125 6.6875 
L 21.78125 59.1875 
Q 16.609375 56.6875 8.6875 56.6875 
L 8.6875 60.203125 
Q 20.953125 60.203125 27.203125 66.609375 
L 28.609375 66.609375 
Q 28.953125 66.609375 29.265625 66.328125 
Q 29.59375 66.0625 29.59375 65.71875 
L 29.59375 6.6875 
Q 29.59375 3.515625 42.09375 3.515625 
L 42.09375 0 
z
" id="Cmr10-31"/>
      </defs>
      <g transform="translate(277.658397 103.974606)scale(0.1 -0.1)">
       <use transform="translate(0 0.390625)" xlink:href="#Cmr10-31"/>
      </g>
     </g>
    </g>
   </g>
   <g id="matplotlib.axis_2">
    <g id="ytick_1">
     <g id="line2d_7">
      <path clip-path="url(#p75310d3705)" d="M 8.756652 89.376169 
L 285.48 89.376169 
" style="fill:none;stroke:#000000;stroke-dasharray:0.5,0.825;stroke-dashoffset:0;stroke-width:0.5;"/>
     </g>
     <g id="line2d_8">
      <defs>
       <path d="M 0 0 
L -3.5 0 
" id="m4b382bf382" style="stroke:#000000;stroke-width:0.8;"/>
      </defs>
      <g>
       <use style="stroke:#000000;stroke-width:0.8;" x="14.078255" xlink:href="#m4b382bf382" y="89.376169"/>
      </g>
     </g>
    </g>
    <g id="ytick_2">
     <g id="line2d_9">
      <path clip-path="url(#p75310d3705)" d="M 8.756652 4.223062 
L 285.48 4.223062 
" style="fill:none;stroke:#000000;stroke-dasharray:0.5,0.825;stroke-dashoffset:0;stroke-width:0.5;"/>
     </g>
     <g id="line2d_10">
      <g>
       <use style="stroke:#000000;stroke-width:0.8;" x="14.078255" xlink:href="#m4b382bf382" y="4.223062"/>
      </g>
     </g>
     <g id="text_3">
      <!-- $1$ -->
      <g transform="translate(2.078255 8.022281)scale(0.1 -0.1)">
       <use transform="translate(0 0.390625)" xlink:href="#Cmr10-31"/>
      </g>
     </g>
    </g>
   </g>
   <g id="patch_3">
    <path d="M 14.078255 91.079231 
L 14.078255 2.52 
" style="fill:none;stroke:#000000;stroke-linecap:square;stroke-linejoin:miter;stroke-width:0.8;"/>
   </g>
   <g id="patch_4">
    <path d="M 8.756652 89.376169 
L 285.48 89.376169 
" style="fill:none;stroke:#000000;stroke-linecap:square;stroke-linejoin:miter;stroke-width:0.8;"/>
   </g>
  </g>
  <g id="axes_2">
   <g id="patch_5">
    <path d="M 296.756652 91.079231 
L 573.48 91.079231 
L 573.48 2.52 
L 296.756652 2.52 
z
" style="fill:#ffffff;"/>
   </g>
   <g id="line2d_11">
    <path clip-path="url(#pa5da6d7d02)" d="M 514.942369 4.223062 
L 568.158397 89.376169 
L 568.158397 89.376169 
" style="fill:none;stroke:#ff0000;stroke-linecap:square;"/>
   </g>
   <g id="line2d_12">
    <path clip-path="url(#pa5da6d7d02)" d="M 302.078255 89.376169 
L 514.942369 4.223062 
L 514.942369 4.223062 
" style="fill:none;stroke:#00ffff;stroke-linecap:square;"/>
   </g>
   <g id="matplotlib.axis_3">
    <g id="xtick_4">
     <g id="line2d_13">
      <path clip-path="url(#pa5da6d7d02)" d="M 302.078255 91.079231 
L 302.078255 2.52 
" style="fill:none;stroke:#000000;stroke-dasharray:0.5,0.825;stroke-dashoffset:0;stroke-width:0.5;"/>
     </g>
     <g id="line2d_14">
      <g>
       <use style="stroke:#000000;stroke-width:0.8;" x="302.078255" xlink:href="#mae723d2667" y="89.376169"/>
      </g>
     </g>
    </g>
    <g id="xtick_5">
     <g id="line2d_15">
      <path clip-path="url(#pa5da6d7d02)" d="M 514.942369 91.079231 
L 514.942369 2.52 
" style="fill:none;stroke:#000000;stroke-dasharray:0.5,0.825;stroke-dashoffset:0;stroke-width:0.5;"/>
     </g>
     <g id="line2d_16">
      <g>
       <use style="stroke:#000000;stroke-width:0.8;" x="514.942369" xlink:href="#mae723d2667" y="89.376169"/>
      </g>
     </g>
     <g id="text_4">
      <!-- $f$ -->
      <g transform="translate(512.492369 103.954294)scale(0.1 -0.1)">
       <use transform="translate(0 0.484375)" xlink:href="#Cmmi10-66"/>
      </g>
     </g>
    </g>
    <g id="xtick_6">
     <g id="line2d_17">
      <path clip-path="url(#pa5da6d7d02)" d="M 568.158397 91.079231 
L 568.158397 2.52 
" style="fill:none;stroke:#000000;stroke-dasharray:0.5,0.825;stroke-dashoffset:0;stroke-width:0.5;"/>
     </g>
     <g id="line2d_18">
      <g>
       <use style="stroke:#000000;stroke-width:0.8;" x="568.158397" xlink:href="#mae723d2667" y="89.376169"/>
      </g>
     </g>
     <g id="text_5">
      <!-- $1$ -->
      <g transform="translate(565.658397 103.974606)scale(0.1 -0.1)">
       <use transform="translate(0 0.390625)" xlink:href="#Cmr10-31"/>
      </g>
     </g>
    </g>
   </g>
   <g id="matplotlib.axis_4">
    <g id="ytick_3">
     <g id="line2d_19">
      <path clip-path="url(#pa5da6d7d02)" d="M 296.756652 89.376169 
L 573.48 89.376169 
" style="fill:none;stroke:#000000;stroke-dasharray:0.5,0.825;stroke-dashoffset:0;stroke-width:0.5;"/>
     </g>
     <g id="line2d_20">
      <g>
       <use style="stroke:#000000;stroke-width:0.8;" x="302.078255" xlink:href="#m4b382bf382" y="89.376169"/>
      </g>
     </g>
    </g>
    <g id="ytick_4">
     <g id="line2d_21">
      <path clip-path="url(#pa5da6d7d02)" d="M 296.756652 4.223062 
L 573.48 4.223062 
" style="fill:none;stroke:#000000;stroke-dasharray:0.5,0.825;stroke-dashoffset:0;stroke-width:0.5;"/>
     </g>
     <g id="line2d_22">
      <g>
       <use style="stroke:#000000;stroke-width:0.8;" x="302.078255" xlink:href="#m4b382bf382" y="4.223062"/>
      </g>
     </g>
     <g id="text_6">
      <!-- $1$ -->
      <g transform="translate(290.078255 8.022281)scale(0.1 -0.1)">
       <use transform="translate(0 0.390625)" xlink:href="#Cmr10-31"/>
      </g>
     </g>
    </g>
   </g>
   <g id="patch_6">
    <path d="M 302.078255 91.079231 
L 302.078255 2.52 
" style="fill:none;stroke:#000000;stroke-linecap:square;stroke-linejoin:miter;stroke-width:0.8;"/>
   </g>
   <g id="patch_7">
    <path d="M 296.756652 89.376169 
L 573.48 89.376169 
" style="fill:none;stroke:#000000;stroke-linecap:square;stroke-linejoin:miter;stroke-width:0.8;"/>
   </g>
  </g>
 </g>
 <defs>
  <clipPath id="p75310d3705">
   <rect height="88.559231" width="276.723348" x="8.756652" y="2.52"/>
  </clipPath>
  <clipPath id="pa5da6d7d02">
   <rect height="88.559231" width="276.723348" x="296.756652" y="2.52"/>
  </clipPath>
 </defs>
</svg>
