<?xml version="1.0" encoding="utf-8" standalone="no"?>
<!DOCTYPE svg PUBLIC "-//W3C//DTD SVG 1.1//EN"
  "http://www.w3.org/Graphics/SVG/1.1/DTD/svg11.dtd">
<!-- Created with matplotlib (http://matplotlib.org/) -->
<svg height="108pt" version="1.1" viewBox="0 0 576 108" width="576pt" xmlns="http://www.w3.org/2000/svg" xmlns:xlink="http://www.w3.org/1999/xlink">
 <defs>
  <style type="text/css">
*{stroke-linecap:butt;stroke-linejoin:round;}
  </style>
 </defs>
 <g id="figure_1">
  <g id="patch_1">
   <path d="M 0 108 
L 576 108 
L 576 0 
L 0 0 
z
" style="fill:#ffffff;"/>
  </g>
  <g id="axes_1">
   <g id="patch_2">
    <path d="M 8.756652 91.079231 
L 285.48 91.079231 
L 285.48 2.52 
L 8.756652 2.52 
z
" style="fill:#ffffff;"/>
   </g>
   <g id="line2d_1">
    <path clip-path="url(#p0dfd352856)" d="M 226.942369 4.223062 
L 280.158397 89.376169 
L 280.158397 89.376169 
" style="fill:none;stroke:#ff0000;stroke-linecap:square;"/>
   </g>
   <g id="line2d_2">
    <path clip-path="url(#p0dfd352856)" d="M 14.078255 89.376169 
L 15.034071 88.993809 
L 16.551688 88.386709 
L 17.737431 87.91237 
L 18.760018 87.503299 
L 19.18354 87.333876 
L 20.960119 86.623182 
L 21.35753 86.464203 
L 22.565712 85.980888 
L 23.813679 85.481658 
L 24.859069 85.063465 
L 26.011909 84.602289 
L 26.808056 84.283802 
L 28.446763 83.628262 
L 28.809736 83.48306 
L 29.854593 83.065081 
L 31.238789 82.511354 
L 32.080885 82.174486 
L 33.499225 81.6071 
L 34.758203 81.103464 
L 35.119018 80.959126 
L 36.291627 80.490041 
L 37.762142 79.901784 
L 38.760679 79.502334 
L 39.226672 79.31592 
L 40.7362 78.712056 
L 41.925921 78.236126 
L 42.613648 77.961011 
L 44.482219 77.213517 
L 45.412528 76.841361 
L 45.886163 76.651891 
L 47.27828 76.094995 
L 47.855814 75.863961 
L 49.382004 75.253431 
L 50.217108 74.919361 
L 52.007899 74.202981 
L 52.52562 73.995875 
L 53.150187 73.746026 
L 54.789641 73.090187 
L 55.561888 72.781261 
L 56.724034 72.316362 
L 58.371303 71.657397 
L 59.374878 71.255932 
L 60.572423 70.776872 
L 61.087117 70.570976 
L 62.355154 70.063717 
L 63.006231 69.803263 
L 64.427433 69.234733 
L 65.803022 68.684449 
L 65.989742 68.609754 
L 67.716745 67.918893 
L 68.247125 67.706722 
L 69.501839 67.204793 
L 70.63634 66.750952 
L 71.477672 66.41439 
L 72.504614 66.003577 
L 74.378878 65.253806 
L 74.966313 65.018811 
L 75.679426 64.733541 
L 76.773982 64.29568 
L 77.779882 63.893285 
L 79.332569 63.272156 
L 80.606051 62.762718 
L 81.397689 62.446035 
L 82.605035 61.963055 
L 83.72676 61.514325 
L 84.893981 61.047396 
L 85.429079 60.833338 
L 86.660287 60.340812 
L 87.836663 59.87022 
L 89.175513 59.334633 
L 90.23086 58.912458 
L 90.915917 58.638411 
L 91.758796 58.30123 
L 93.670857 57.536338 
L 94.378222 57.253367 
L 95.248604 56.905184 
L 96.20023 56.5245 
L 98.046899 55.785768 
L 98.806018 55.482094 
L 99.792066 55.08764 
L 100.909307 54.640704 
L 101.725241 54.314302 
L 103.282985 53.69115 
L 103.943178 53.42705 
L 104.480259 53.212198 
L 105.627827 52.753131 
L 106.645282 52.346113 
L 108.350006 51.664164 
L 109.451688 51.223453 
L 110.875283 50.653964 
L 111.822882 50.274892 
L 112.535683 49.989747 
" style="fill:none;stroke:#00ffff;stroke-linecap:square;"/>
   </g>
   <g id="line2d_3">
    <path clip-path="url(#p0dfd352856)" d="M 116.063347 48.578557 
L 117.08827 48.168552 
L 117.408329 48.040517 
L 119.433815 47.230252 
L 120.504486 46.801946 
L 120.565466 46.777552 
L 122.634718 45.949779 
L 123.5006 45.603395 
L 124.196824 45.324881 
L 125.325706 44.873289 
L 126.384244 44.449836 
L 127.078294 44.172192 
L 128.190066 43.727445 
L 130.03418 42.989734 
L 130.878936 42.651802 
L 131.659647 42.33949 
L 132.481118 42.010873 
L 133.35528 41.661178 
L 134.742199 41.106362 
L 135.786505 40.688603 
L 137.05185 40.18242 
L 137.793603 39.885693 
L 139.24823 39.303791 
L 140.061124 38.978605 
L 141.780795 38.290677 
L 142.920575 37.834724 
L 143.556079 37.580501 
L 145.07841 36.971515 
L 145.595879 36.764509 
L 146.391403 36.446272 
L 148.305317 35.680639 
L 149.310982 35.278338 
L 150.293616 34.88525 
L 151.166708 34.535983 
L 151.810856 34.278301 
L 153.473778 33.613074 
L 154.397626 33.243502 
L 155.685619 32.728259 
L 156.292105 32.485644 
L 157.210355 32.118312 
L 158.448003 31.623209 
L 159.443821 31.224847 
L 160.109838 30.958417 
L 161.342563 30.465284 
L 162.946353 29.823711 
L 163.328907 29.670676 
L 165.049602 28.982338 
L 166.199554 28.522317 
L 167.370495 28.0539 
L 167.854264 27.860375 
L 169.352183 27.261155 
L 170.518024 26.794778 
L 171.394225 26.444267 
L 172.37629 26.051406 
L 173.333945 25.668311 
L 174.704401 25.12008 
L 175.346622 24.863169 
L 176.87221 24.252881 
L 177.394353 24.044005 
L 178.658798 23.538183 
L 179.715461 23.115481 
L 180.502872 22.800489 
L 182.41034 22.037435 
L 182.996558 21.802927 
L 183.68952 21.525718 
L 184.742738 21.104394 
L 186.095645 20.563183 
L 187.870468 19.853192 
L 188.847974 19.462155 
L 189.355697 19.259048 
L 190.409554 18.837469 
L 191.920128 18.233186 
L 192.840233 17.865112 
L 193.950214 17.42108 
L 195.101159 16.960662 
L 196.011238 16.596599 
L 197.516145 15.994583 
L 197.58533 15.966906 
L 199.332912 15.267813 
L 200.385103 14.846899 
L 200.844376 14.663174 
L 202.408952 14.037289 
L 203.501522 13.600222 
L 204.158052 13.337588 
L 205.973906 12.611182 
L 207.055848 12.178367 
L 208.164805 11.734746 
L 208.678117 11.529403 
L 209.574737 11.170724 
L 210.997018 10.601761 
L 212.465671 10.014248 
L 213.381423 9.647916 
L 213.76673 9.49378 
L 215.228669 8.908953 
L 216.640875 8.344021 
L 217.685405 7.926172 
L 218.037276 7.785411 
L 219.733118 7.107015 
L 220.785953 6.685844 
L 221.167579 6.53318 
L 222.982268 5.807241 
L 223.874547 5.450298 
L 224.283577 5.286672 
L 225.364051 4.854445 
L 226.942369 4.223062 
" style="fill:none;stroke:#00ffff;stroke-linecap:square;"/>
   </g>
   <g id="matplotlib.axis_1">
    <g id="xtick_1">
     <g id="line2d_4">
      <path clip-path="url(#p0dfd352856)" d="M 14.078255 91.079231 
L 14.078255 2.52 
" style="fill:none;stroke:#000000;stroke-dasharray:0.5,0.825;stroke-dashoffset:0;stroke-width:0.5;"/>
     </g>
     <g id="line2d_5">
      <defs>
       <path d="M 0 0 
L 0 3.5 
" id="ma568d5661f" style="stroke:#000000;stroke-width:0.8;"/>
      </defs>
      <g>
       <use style="stroke:#000000;stroke-width:0.8;" x="14.078255" xlink:href="#ma568d5661f" y="89.376169"/>
      </g>
     </g>
    </g>
    <g id="xtick_2">
     <g id="line2d_6">
      <path clip-path="url(#p0dfd352856)" d="M 226.942369 91.079231 
L 226.942369 2.52 
" style="fill:none;stroke:#000000;stroke-dasharray:0.5,0.825;stroke-dashoffset:0;stroke-width:0.5;"/>
     </g>
     <g id="line2d_7">
      <g>
       <use style="stroke:#000000;stroke-width:0.8;" x="226.942369" xlink:href="#ma568d5661f" y="89.376169"/>
      </g>
     </g>
     <g id="text_1">
      <!-- $f$ -->
      <defs>
       <path d="M 9.71875 -16.5 
Q 11.578125 -17.921875 14.203125 -17.921875 
Q 17.78125 -17.921875 20.015625 -10.015625 
Q 20.953125 -6.203125 25.09375 15.09375 
L 29.6875 39.59375 
L 21.09375 39.59375 
Q 20.125 39.59375 20.125 40.921875 
Q 20.515625 43.109375 21.390625 43.109375 
L 30.328125 43.109375 
L 31.5 49.609375 
Q 32.078125 52.640625 32.5625 54.8125 
Q 33.0625 56.984375 33.625 58.828125 
Q 34.1875 60.6875 35.296875 62.984375 
Q 37.015625 66.265625 39.921875 68.390625 
Q 42.828125 70.515625 46.1875 70.515625 
Q 48.390625 70.515625 50.46875 69.703125 
Q 52.546875 68.890625 53.859375 67.28125 
Q 55.171875 65.671875 55.171875 63.484375 
Q 55.171875 60.9375 53.484375 59.046875 
Q 51.8125 57.171875 49.421875 57.171875 
Q 47.796875 57.171875 46.65625 58.171875 
Q 45.515625 59.1875 45.515625 60.796875 
Q 45.515625 62.984375 47 64.625 
Q 48.484375 66.265625 50.6875 66.5 
Q 48.828125 67.921875 46.09375 67.921875 
Q 44.578125 67.921875 43.234375 66.5 
Q 41.890625 65.09375 41.5 63.484375 
Q 40.875 60.9375 38.71875 49.703125 
L 37.5 43.109375 
L 47.796875 43.109375 
Q 48.78125 43.109375 48.78125 41.796875 
Q 48.734375 41.546875 48.578125 40.9375 
Q 48.4375 40.328125 48.171875 39.953125 
Q 47.90625 39.59375 47.515625 39.59375 
L 36.8125 39.59375 
L 32.171875 15.1875 
Q 31.296875 9.859375 30.140625 4.359375 
Q 29 -1.125 26.921875 -6.90625 
Q 24.859375 -12.703125 21.625 -16.609375 
Q 18.40625 -20.515625 14.015625 -20.515625 
Q 10.640625 -20.515625 7.984375 -18.578125 
Q 5.328125 -16.65625 5.328125 -13.484375 
Q 5.328125 -10.9375 6.953125 -9.046875 
Q 8.59375 -7.171875 11.078125 -7.171875 
Q 12.75 -7.171875 13.859375 -8.171875 
Q 14.984375 -9.1875 14.984375 -10.796875 
Q 14.984375 -12.9375 13.390625 -14.71875 
Q 11.8125 -16.5 9.71875 -16.5 
z
" id="Cmmi10-66"/>
      </defs>
      <g transform="translate(224.492369 103.954294)scale(0.1 -0.1)">
       <use transform="translate(0 0.484375)" xlink:href="#Cmmi10-66"/>
      </g>
     </g>
    </g>
    <g id="xtick_3">
     <g id="line2d_8">
      <path clip-path="url(#p0dfd352856)" d="M 280.158397 91.079231 
L 280.158397 2.52 
" style="fill:none;stroke:#000000;stroke-dasharray:0.5,0.825;stroke-dashoffset:0;stroke-width:0.5;"/>
     </g>
     <g id="line2d_9">
      <g>
       <use style="stroke:#000000;stroke-width:0.8;" x="280.158397" xlink:href="#ma568d5661f" y="89.376169"/>
      </g>
     </g>
     <g id="text_2">
      <!-- $1$ -->
      <defs>
       <path d="M 9.28125 0 
L 9.28125 3.515625 
Q 21.78125 3.515625 21.78125 6.6875 
L 21.78125 59.1875 
Q 16.609375 56.6875 8.6875 56.6875 
L 8.6875 60.203125 
Q 20.953125 60.203125 27.203125 66.609375 
L 28.609375 66.609375 
Q 28.953125 66.609375 29.265625 66.328125 
Q 29.59375 66.0625 29.59375 65.71875 
L 29.59375 6.6875 
Q 29.59375 3.515625 42.09375 3.515625 
L 42.09375 0 
z
" id="Cmr10-31"/>
      </defs>
      <g transform="translate(277.658397 103.974606)scale(0.1 -0.1)">
       <use transform="translate(0 0.390625)" xlink:href="#Cmr10-31"/>
      </g>
     </g>
    </g>
   </g>
   <g id="matplotlib.axis_2">
    <g id="ytick_1">
     <g id="line2d_10">
      <path clip-path="url(#p0dfd352856)" d="M 8.756652 89.376169 
L 285.48 89.376169 
" style="fill:none;stroke:#000000;stroke-dasharray:0.5,0.825;stroke-dashoffset:0;stroke-width:0.5;"/>
     </g>
     <g id="line2d_11">
      <defs>
       <path d="M 0 0 
L -3.5 0 
" id="mb89aac4285" style="stroke:#000000;stroke-width:0.8;"/>
      </defs>
      <g>
       <use style="stroke:#000000;stroke-width:0.8;" x="14.078255" xlink:href="#mb89aac4285" y="89.376169"/>
      </g>
     </g>
    </g>
    <g id="ytick_2">
     <g id="line2d_12">
      <path clip-path="url(#p0dfd352856)" d="M 8.756652 4.223062 
L 285.48 4.223062 
" style="fill:none;stroke:#000000;stroke-dasharray:0.5,0.825;stroke-dashoffset:0;stroke-width:0.5;"/>
     </g>
     <g id="line2d_13">
      <g>
       <use style="stroke:#000000;stroke-width:0.8;" x="14.078255" xlink:href="#mb89aac4285" y="4.223062"/>
      </g>
     </g>
     <g id="text_3">
      <!-- $1$ -->
      <g transform="translate(2.078255 8.022281)scale(0.1 -0.1)">
       <use transform="translate(0 0.390625)" xlink:href="#Cmr10-31"/>
      </g>
     </g>
    </g>
   </g>
   <g id="patch_3">
    <path d="M 14.078255 91.079231 
L 14.078255 2.52 
" style="fill:none;stroke:#000000;stroke-linecap:square;stroke-linejoin:miter;stroke-width:0.8;"/>
   </g>
   <g id="patch_4">
    <path d="M 8.756652 89.376169 
L 285.48 89.376169 
" style="fill:none;stroke:#000000;stroke-linecap:square;stroke-linejoin:miter;stroke-width:0.8;"/>
   </g>
  </g>
  <g id="axes_2">
   <g id="patch_5">
    <path d="M 296.756652 91.079231 
L 573.48 91.079231 
L 573.48 2.52 
L 296.756652 2.52 
z
" style="fill:#ffffff;"/>
   </g>
   <g id="line2d_14">
    <path clip-path="url(#p30cfd0c5d4)" d="M 355.294283 4.223062 
L 568.158397 89.376169 
L 568.158397 89.376169 
" style="fill:none;stroke:#ff0000;stroke-linecap:square;"/>
   </g>
   <g id="line2d_15">
    <path clip-path="url(#p30cfd0c5d4)" d="M 302.078255 89.376169 
L 355.294283 4.223062 
L 355.294283 4.223062 
" style="fill:none;stroke:#00ffff;stroke-linecap:square;"/>
   </g>
   <g id="matplotlib.axis_3">
    <g id="xtick_4">
     <g id="line2d_16">
      <path clip-path="url(#p30cfd0c5d4)" d="M 302.078255 91.079231 
L 302.078255 2.52 
" style="fill:none;stroke:#000000;stroke-dasharray:0.5,0.825;stroke-dashoffset:0;stroke-width:0.5;"/>
     </g>
     <g id="line2d_17">
      <g>
       <use style="stroke:#000000;stroke-width:0.8;" x="302.078255" xlink:href="#ma568d5661f" y="89.376169"/>
      </g>
     </g>
    </g>
    <g id="xtick_5">
     <g id="line2d_18">
      <path clip-path="url(#p30cfd0c5d4)" d="M 355.294283 91.079231 
L 355.294283 2.52 
" style="fill:none;stroke:#000000;stroke-dasharray:0.5,0.825;stroke-dashoffset:0;stroke-width:0.5;"/>
     </g>
     <g id="line2d_19">
      <g>
       <use style="stroke:#000000;stroke-width:0.8;" x="355.294283" xlink:href="#ma568d5661f" y="89.376169"/>
      </g>
     </g>
     <g id="text_4">
      <!-- $f$ -->
      <g transform="translate(352.844283 103.954294)scale(0.1 -0.1)">
       <use transform="translate(0 0.484375)" xlink:href="#Cmmi10-66"/>
      </g>
     </g>
    </g>
    <g id="xtick_6">
     <g id="line2d_20">
      <path clip-path="url(#p30cfd0c5d4)" d="M 568.158397 91.079231 
L 568.158397 2.52 
" style="fill:none;stroke:#000000;stroke-dasharray:0.5,0.825;stroke-dashoffset:0;stroke-width:0.5;"/>
     </g>
     <g id="line2d_21">
      <g>
       <use style="stroke:#000000;stroke-width:0.8;" x="568.158397" xlink:href="#ma568d5661f" y="89.376169"/>
      </g>
     </g>
     <g id="text_5">
      <!-- $1$ -->
      <g transform="translate(565.658397 103.974606)scale(0.1 -0.1)">
       <use transform="translate(0 0.390625)" xlink:href="#Cmr10-31"/>
      </g>
     </g>
    </g>
   </g>
   <g id="matplotlib.axis_4">
    <g id="ytick_3">
     <g id="line2d_22">
      <path clip-path="url(#p30cfd0c5d4)" d="M 296.756652 89.376169 
L 573.48 89.376169 
" style="fill:none;stroke:#000000;stroke-dasharray:0.5,0.825;stroke-dashoffset:0;stroke-width:0.5;"/>
     </g>
     <g id="line2d_23">
      <g>
       <use style="stroke:#000000;stroke-width:0.8;" x="302.078255" xlink:href="#mb89aac4285" y="89.376169"/>
      </g>
     </g>
    </g>
    <g id="ytick_4">
     <g id="line2d_24">
      <path clip-path="url(#p30cfd0c5d4)" d="M 296.756652 4.223062 
L 573.48 4.223062 
" style="fill:none;stroke:#000000;stroke-dasharray:0.5,0.825;stroke-dashoffset:0;stroke-width:0.5;"/>
     </g>
     <g id="line2d_25">
      <g>
       <use style="stroke:#000000;stroke-width:0.8;" x="302.078255" xlink:href="#mb89aac4285" y="4.223062"/>
      </g>
     </g>
     <g id="text_6">
      <!-- $1$ -->
      <g transform="translate(290.078255 8.022281)scale(0.1 -0.1)">
       <use transform="translate(0 0.390625)" xlink:href="#Cmr10-31"/>
      </g>
     </g>
    </g>
   </g>
   <g id="patch_6">
    <path d="M 302.078255 91.079231 
L 302.078255 2.52 
" style="fill:none;stroke:#000000;stroke-linecap:square;stroke-linejoin:miter;stroke-width:0.8;"/>
   </g>
   <g id="patch_7">
    <path d="M 296.756652 89.376169 
L 573.48 89.376169 
" style="fill:none;stroke:#000000;stroke-linecap:square;stroke-linejoin:miter;stroke-width:0.8;"/>
   </g>
  </g>
 </g>
 <defs>
  <clipPath id="p0dfd352856">
   <rect height="88.559231" width="276.723348" x="8.756652" y="2.52"/>
  </clipPath>
  <clipPath id="p30cfd0c5d4">
   <rect height="88.559231" width="276.723348" x="296.756652" y="2.52"/>
  </clipPath>
 </defs>
</svg>
