<?xml version="1.0" encoding="utf-8" standalone="no"?>
<!DOCTYPE svg PUBLIC "-//W3C//DTD SVG 1.1//EN"
  "http://www.w3.org/Graphics/SVG/1.1/DTD/svg11.dtd">
<!-- Created with matplotlib (http://matplotlib.org/) -->
<svg height="108pt" version="1.1" viewBox="0 0 576 108" width="576pt" xmlns="http://www.w3.org/2000/svg" xmlns:xlink="http://www.w3.org/1999/xlink">
 <defs>
  <style type="text/css">
*{stroke-linecap:butt;stroke-linejoin:round;}
  </style>
 </defs>
 <g id="figure_1">
  <g id="patch_1">
   <path d="M 0 108 
L 576 108 
L 576 0 
L 0 0 
z
" style="fill:#ffffff;"/>
  </g>
  <g id="axes_1">
   <g id="patch_2">
    <path d="M 8.756652 91.079231 
L 285.48 91.079231 
L 285.48 2.52 
L 8.756652 2.52 
z
" style="fill:#ffffff;"/>
   </g>
   <g id="line2d_1">
    <path clip-path="url(#p42dc043ba2)" d="M 114.59742 23.145975 
L 232.855261 70.453256 
L 232.855261 70.453256 
" style="fill:none;stroke:#ff0000;stroke-linecap:square;"/>
   </g>
   <g id="line2d_2">
    <path clip-path="url(#p42dc043ba2)" d="M 67.294283 4.223062 
L 67.432857 4.4448 
L 67.538868 4.614431 
L 67.785014 5.0083 
L 67.904984 5.200268 
L 68.005435 5.361004 
L 68.173268 5.629561 
L 68.353181 5.917447 
L 68.494269 6.143207 
L 68.610283 6.328846 
L 68.748107 6.549383 
L 68.865884 6.737843 
L 69.078919 7.07873 
L 69.211216 7.290423 
L 69.440163 7.656771 
L 69.511869 7.77151 
L 69.619302 7.943417 
L 69.843496 8.30216 
L 70.004172 8.559264 
L 70.104981 8.720572 
L 70.216315 8.898722 
L 70.365286 9.137097 
L 70.53896 9.414999 
L 70.764697 9.776211 
L 70.908735 10.006691 
L 71.065251 10.257139 
L 71.126044 10.354416 
L 71.373184 10.749875 
L 71.472157 10.908246 
L 71.663731 11.214791 
L 71.792175 11.420319 
L 71.943995 11.663252 
L 72.068064 11.86178 
L 72.252015 12.156128 
L 72.415313 12.417428 
L 72.488604 12.534704 
L 72.578098 12.677906 
L 72.826504 13.075391 
L 72.897952 13.189718 
L 73.107843 13.525573 
L 73.177367 13.636821 
L 73.413683 14.01496 
L 73.583551 14.286772 
L 73.611407 14.331346 
L 73.855485 14.721905 
L 73.991527 14.939591 
L 74.073445 15.070671 
L 74.242984 15.341958 
L 74.43516 15.649466 
L 74.607682 15.925525 
L 74.762101 16.172617 
L 74.912359 16.413051 
L 75.067782 16.66175 
L 75.139556 16.776598 
L 75.36418 17.136028 
L 75.415014 17.21737 
L 75.616062 17.539075 
L 75.700854 17.674753 
L 75.929008 18.039833 
L 75.991565 18.139932 
L 76.140497 18.378245 
L 76.429587 18.840828 
L 76.559496 19.048701 
L 76.634562 19.168817 
L 76.817881 19.462154 
L 76.955372 19.682159 
L 77.141875 19.98059 
L 77.310057 20.249704 
L 77.357845 20.326172 
L 77.499171 20.552313 
L 77.699688 20.873169 
L 77.869358 21.144664 
L 78.032907 21.406365 
L 78.093854 21.50389 
L 78.255445 21.762457 
L 78.371317 21.947868 
L 78.613807 22.335888 
L 78.71329 22.495073 
L 78.8997 22.793356 
L 79.097503 23.109868 
L 79.141506 23.18028 
L 79.372552 23.549985 
L 79.488019 23.734749 
L 79.691476 24.060308 
L 79.776085 24.195695 
L 79.927236 24.437558 
L 80.039855 24.617764 
L 80.202106 24.877387 
L 80.431931 25.245141 
L 80.473469 25.311607 
L 80.598207 25.511205 
L 80.809434 25.849199 
L 80.975201 26.114448 
L 81.153889 26.400374 
L 81.266251 26.580169 
L 81.365447 26.738897 
L 81.591521 27.100647 
L 81.692948 27.262944 
L 81.848187 27.511348 
L 82.058095 27.84723 
L 82.090337 27.898822 
L 82.240816 28.13961 
L 82.46006 28.49043 
L 82.61577 28.739589 
L 82.811255 29.052392 
L 82.920503 29.227205 
" style="fill:none;stroke:#00ff00;stroke-linecap:square;"/>
   </g>
   <g id="line2d_3">
    <path clip-path="url(#p42dc043ba2)" d="M 83.365321 29.938976 
L 83.477633 30.118691 
L 83.57068 30.267579 
L 83.853736 30.720508 
L 83.883374 30.767932 
L 84.045646 31.027591 
L 84.257345 31.366339 
L 84.368598 31.54436 
L 84.499482 31.753792 
L 84.705908 32.084102 
L 84.826998 32.277864 
L 85.040576 32.619618 
L 85.105697 32.723821 
L 85.196406 32.868968 
L 85.373174 33.151823 
L 85.624646 33.554213 
L 85.686268 33.652816 
L 85.852888 33.919432 
L 86.064832 34.258572 
L 86.17915 34.441497 
L 86.297585 34.631009 
L 86.522921 34.991579 
L 86.662194 35.214434 
L 86.78836 35.416317 
L 86.885835 35.572291 
L 87.077515 35.879006 
L 87.13249 35.966975 
L 87.350282 36.315472 
L 87.452296 36.478709 
L 87.621464 36.749401 
L 87.72977 36.922706 
L 87.911939 37.214202 
L 88.131828 37.566056 
L 88.298961 37.83349 
L 88.413987 38.017548 
L 88.47924 38.121962 
L 88.741288 38.541276 
L 88.811477 38.653588 
L 89.021927 38.990339 
L 89.163735 39.217251 
L 89.289647 39.418728 
L 89.496723 39.750078 
L 89.523783 39.793379 
L 89.690676 40.060431 
L 89.895502 40.38818 
L 90.045322 40.627914 
L 90.121931 40.750498 
L 90.379477 41.162609 
L 90.534548 41.410744 
L 90.594194 41.506186 
L 90.801753 41.838309 
L 90.948134 42.072539 
L 91.034032 42.209988 
L 91.179067 42.442064 
L 91.30451 42.642791 
L 91.546055 43.029298 
L 91.622906 43.152269 
L 91.879449 43.562774 
L 91.957394 43.687497 
L 92.094525 43.906925 
L 92.249561 44.155005 
L 92.377374 44.359524 
L 92.510718 44.572893 
L 92.628112 44.760739 
L 92.849693 45.1153 
L 93.066331 45.461952 
L 93.186127 45.653642 
L 93.350899 45.917301 
L 93.425332 46.036404 
L 93.65217 46.399376 
L 93.727292 46.519582 
L 93.890745 46.781129 
L 93.981718 46.926699 
L 94.163976 47.218338 
L 94.324457 47.47513 
L 94.506715 47.766767 
L 94.629769 47.963672 
L 94.733739 48.130038 
L 94.997361 48.551871 
L 95.07017 48.668375 
L 95.292274 49.023772 
L 95.308421 49.049611 
L 95.479792 49.323828 
L 95.60191 49.519234 
L 95.818293 49.865476 
L 95.931839 50.047165 
L 96.119489 50.347433 
L 96.282503 50.608278 
L 96.403373 50.801687 
L 96.577532 51.080366 
L 96.640323 51.180839 
L 96.858744 51.530344 
" style="fill:none;stroke:#00ff00;stroke-linecap:square;"/>
   </g>
   <g id="line2d_4">
    <path clip-path="url(#p42dc043ba2)" d="M 250.593937 42.068887 
L 280.158397 89.376169 
L 280.158397 89.376169 
" style="fill:none;stroke:#00ff00;stroke-linecap:square;"/>
   </g>
   <g id="line2d_5">
    <path clip-path="url(#p42dc043ba2)" d="M 14.078255 89.376169 
L 67.294283 4.223062 
L 67.294283 4.223062 
" style="fill:none;stroke:#0000ff;stroke-linecap:square;"/>
   </g>
   <g id="line2d_6">
    <path clip-path="url(#p42dc043ba2)" d="M 96.858744 51.530344 
L 114.59742 23.145975 
L 114.59742 23.145975 
" style="fill:none;stroke:#0000ff;stroke-linecap:square;"/>
   </g>
   <g id="line2d_7">
    <path clip-path="url(#p42dc043ba2)" d="M 232.855261 70.453256 
L 250.593937 42.068887 
L 250.593937 42.068887 
" style="fill:none;stroke:#0000ff;stroke-linecap:square;"/>
   </g>
   <g id="matplotlib.axis_1">
    <g id="xtick_1">
     <g id="line2d_8">
      <path clip-path="url(#p42dc043ba2)" d="M 14.078255 91.079231 
L 14.078255 2.52 
" style="fill:none;stroke:#000000;stroke-dasharray:0.5,0.825;stroke-dashoffset:0;stroke-width:0.5;"/>
     </g>
     <g id="line2d_9">
      <defs>
       <path d="M 0 0 
L 0 3.5 
" id="mf88ffe8ed6" style="stroke:#000000;stroke-width:0.8;"/>
      </defs>
      <g>
       <use style="stroke:#000000;stroke-width:0.8;" x="14.078255" xlink:href="#mf88ffe8ed6" y="89.376169"/>
      </g>
     </g>
    </g>
    <g id="xtick_2">
     <g id="line2d_10">
      <path clip-path="url(#p42dc043ba2)" d="M 67.294283 91.079231 
L 67.294283 2.52 
" style="fill:none;stroke:#000000;stroke-dasharray:0.5,0.825;stroke-dashoffset:0;stroke-width:0.5;"/>
     </g>
     <g id="line2d_11">
      <g>
       <use style="stroke:#000000;stroke-width:0.8;" x="67.294283" xlink:href="#mf88ffe8ed6" y="89.376169"/>
      </g>
     </g>
     <g id="text_1">
      <!-- $f$ -->
      <defs>
       <path d="M 9.71875 -16.5 
Q 11.578125 -17.921875 14.203125 -17.921875 
Q 17.78125 -17.921875 20.015625 -10.015625 
Q 20.953125 -6.203125 25.09375 15.09375 
L 29.6875 39.59375 
L 21.09375 39.59375 
Q 20.125 39.59375 20.125 40.921875 
Q 20.515625 43.109375 21.390625 43.109375 
L 30.328125 43.109375 
L 31.5 49.609375 
Q 32.078125 52.640625 32.5625 54.8125 
Q 33.0625 56.984375 33.625 58.828125 
Q 34.1875 60.6875 35.296875 62.984375 
Q 37.015625 66.265625 39.921875 68.390625 
Q 42.828125 70.515625 46.1875 70.515625 
Q 48.390625 70.515625 50.46875 69.703125 
Q 52.546875 68.890625 53.859375 67.28125 
Q 55.171875 65.671875 55.171875 63.484375 
Q 55.171875 60.9375 53.484375 59.046875 
Q 51.8125 57.171875 49.421875 57.171875 
Q 47.796875 57.171875 46.65625 58.171875 
Q 45.515625 59.1875 45.515625 60.796875 
Q 45.515625 62.984375 47 64.625 
Q 48.484375 66.265625 50.6875 66.5 
Q 48.828125 67.921875 46.09375 67.921875 
Q 44.578125 67.921875 43.234375 66.5 
Q 41.890625 65.09375 41.5 63.484375 
Q 40.875 60.9375 38.71875 49.703125 
L 37.5 43.109375 
L 47.796875 43.109375 
Q 48.78125 43.109375 48.78125 41.796875 
Q 48.734375 41.546875 48.578125 40.9375 
Q 48.4375 40.328125 48.171875 39.953125 
Q 47.90625 39.59375 47.515625 39.59375 
L 36.8125 39.59375 
L 32.171875 15.1875 
Q 31.296875 9.859375 30.140625 4.359375 
Q 29 -1.125 26.921875 -6.90625 
Q 24.859375 -12.703125 21.625 -16.609375 
Q 18.40625 -20.515625 14.015625 -20.515625 
Q 10.640625 -20.515625 7.984375 -18.578125 
Q 5.328125 -16.65625 5.328125 -13.484375 
Q 5.328125 -10.9375 6.953125 -9.046875 
Q 8.59375 -7.171875 11.078125 -7.171875 
Q 12.75 -7.171875 13.859375 -8.171875 
Q 14.984375 -9.1875 14.984375 -10.796875 
Q 14.984375 -12.9375 13.390625 -14.71875 
Q 11.8125 -16.5 9.71875 -16.5 
z
" id="Cmmi10-66"/>
      </defs>
      <g transform="translate(64.844283 103.954294)scale(0.1 -0.1)">
       <use transform="translate(0 0.484375)" xlink:href="#Cmmi10-66"/>
      </g>
     </g>
    </g>
    <g id="xtick_3">
     <g id="line2d_12">
      <path clip-path="url(#p42dc043ba2)" d="M 280.158397 91.079231 
L 280.158397 2.52 
" style="fill:none;stroke:#000000;stroke-dasharray:0.5,0.825;stroke-dashoffset:0;stroke-width:0.5;"/>
     </g>
     <g id="line2d_13">
      <g>
       <use style="stroke:#000000;stroke-width:0.8;" x="280.158397" xlink:href="#mf88ffe8ed6" y="89.376169"/>
      </g>
     </g>
     <g id="text_2">
      <!-- $1$ -->
      <defs>
       <path d="M 9.28125 0 
L 9.28125 3.515625 
Q 21.78125 3.515625 21.78125 6.6875 
L 21.78125 59.1875 
Q 16.609375 56.6875 8.6875 56.6875 
L 8.6875 60.203125 
Q 20.953125 60.203125 27.203125 66.609375 
L 28.609375 66.609375 
Q 28.953125 66.609375 29.265625 66.328125 
Q 29.59375 66.0625 29.59375 65.71875 
L 29.59375 6.6875 
Q 29.59375 3.515625 42.09375 3.515625 
L 42.09375 0 
z
" id="Cmr10-31"/>
      </defs>
      <g transform="translate(277.658397 103.974606)scale(0.1 -0.1)">
       <use transform="translate(0 0.390625)" xlink:href="#Cmr10-31"/>
      </g>
     </g>
    </g>
   </g>
   <g id="matplotlib.axis_2">
    <g id="ytick_1">
     <g id="line2d_14">
      <path clip-path="url(#p42dc043ba2)" d="M 8.756652 89.376169 
L 285.48 89.376169 
" style="fill:none;stroke:#000000;stroke-dasharray:0.5,0.825;stroke-dashoffset:0;stroke-width:0.5;"/>
     </g>
     <g id="line2d_15">
      <defs>
       <path d="M 0 0 
L -3.5 0 
" id="mad064327a9" style="stroke:#000000;stroke-width:0.8;"/>
      </defs>
      <g>
       <use style="stroke:#000000;stroke-width:0.8;" x="14.078255" xlink:href="#mad064327a9" y="89.376169"/>
      </g>
     </g>
    </g>
    <g id="ytick_2">
     <g id="line2d_16">
      <path clip-path="url(#p42dc043ba2)" d="M 8.756652 4.223062 
L 285.48 4.223062 
" style="fill:none;stroke:#000000;stroke-dasharray:0.5,0.825;stroke-dashoffset:0;stroke-width:0.5;"/>
     </g>
     <g id="line2d_17">
      <g>
       <use style="stroke:#000000;stroke-width:0.8;" x="14.078255" xlink:href="#mad064327a9" y="4.223062"/>
      </g>
     </g>
     <g id="text_3">
      <!-- $1$ -->
      <g transform="translate(2.078255 8.022281)scale(0.1 -0.1)">
       <use transform="translate(0 0.390625)" xlink:href="#Cmr10-31"/>
      </g>
     </g>
    </g>
   </g>
   <g id="patch_3">
    <path d="M 14.078255 91.079231 
L 14.078255 2.52 
" style="fill:none;stroke:#000000;stroke-linecap:square;stroke-linejoin:miter;stroke-width:0.8;"/>
   </g>
   <g id="patch_4">
    <path d="M 8.756652 89.376169 
L 285.48 89.376169 
" style="fill:none;stroke:#000000;stroke-linecap:square;stroke-linejoin:miter;stroke-width:0.8;"/>
   </g>
  </g>
  <g id="axes_2">
   <g id="patch_5">
    <path d="M 296.756652 91.079231 
L 573.48 91.079231 
L 573.48 2.52 
L 296.756652 2.52 
z
" style="fill:#ffffff;"/>
   </g>
   <g id="line2d_18">
    <path clip-path="url(#p0f5dcd9e04)" d="M 376.3179 17.88961 
L 428.87694 52.05598 
L 428.87694 52.05598 
" style="fill:none;stroke:#ff0000;stroke-linecap:square;"/>
   </g>
   <g id="line2d_19">
    <path clip-path="url(#p0f5dcd9e04)" d="M 494.575741 41.543251 
L 547.134781 75.709621 
L 547.134781 75.709621 
" style="fill:none;stroke:#ff0000;stroke-linecap:square;"/>
   </g>
   <g id="line2d_20">
    <path clip-path="url(#p0f5dcd9e04)" d="M 302.078255 89.376169 
L 355.294283 4.223062 
L 355.294283 4.223062 
" style="fill:none;stroke:#00ff00;stroke-linecap:square;"/>
   </g>
   <g id="line2d_21">
    <path clip-path="url(#p0f5dcd9e04)" d="M 368.434043 30.504885 
L 376.3179 17.88961 
L 376.3179 17.88961 
" style="fill:none;stroke:#00ff00;stroke-linecap:square;"/>
   </g>
   <g id="line2d_22">
    <path clip-path="url(#p0f5dcd9e04)" d="M 428.87694 52.05598 
L 436.760796 39.440705 
L 436.760796 39.440705 
" style="fill:none;stroke:#00ff00;stroke-linecap:square;"/>
   </g>
   <g id="line2d_23">
    <path clip-path="url(#p0f5dcd9e04)" d="M 449.900556 65.722528 
L 473.552124 27.876703 
L 473.552124 27.876703 
" style="fill:none;stroke:#00ff00;stroke-linecap:square;"/>
   </g>
   <g id="line2d_24">
    <path clip-path="url(#p0f5dcd9e04)" d="M 486.691884 54.158526 
L 494.575741 41.543251 
L 494.575741 41.543251 
" style="fill:none;stroke:#00ff00;stroke-linecap:square;"/>
   </g>
   <g id="line2d_25">
    <path clip-path="url(#p0f5dcd9e04)" d="M 547.134781 75.709621 
L 555.018637 63.094346 
L 555.018637 63.094346 
" style="fill:none;stroke:#00ff00;stroke-linecap:square;"/>
   </g>
   <g id="line2d_26">
    <path clip-path="url(#p0f5dcd9e04)" d="M 355.294283 4.223062 
L 368.434043 30.504885 
L 368.434043 30.504885 
" style="fill:none;stroke:#0000ff;stroke-linecap:square;"/>
   </g>
   <g id="line2d_27">
    <path clip-path="url(#p0f5dcd9e04)" d="M 436.760796 39.440705 
L 449.900556 65.722528 
L 449.900556 65.722528 
" style="fill:none;stroke:#0000ff;stroke-linecap:square;"/>
   </g>
   <g id="line2d_28">
    <path clip-path="url(#p0f5dcd9e04)" d="M 473.552124 27.876703 
L 486.691884 54.158526 
L 486.691884 54.158526 
" style="fill:none;stroke:#0000ff;stroke-linecap:square;"/>
   </g>
   <g id="line2d_29">
    <path clip-path="url(#p0f5dcd9e04)" d="M 555.018637 63.094346 
L 568.158397 89.376169 
L 568.158397 89.376169 
" style="fill:none;stroke:#0000ff;stroke-linecap:square;"/>
   </g>
   <g id="matplotlib.axis_3">
    <g id="xtick_4">
     <g id="line2d_30">
      <path clip-path="url(#p0f5dcd9e04)" d="M 302.078255 91.079231 
L 302.078255 2.52 
" style="fill:none;stroke:#000000;stroke-dasharray:0.5,0.825;stroke-dashoffset:0;stroke-width:0.5;"/>
     </g>
     <g id="line2d_31">
      <g>
       <use style="stroke:#000000;stroke-width:0.8;" x="302.078255" xlink:href="#mf88ffe8ed6" y="89.376169"/>
      </g>
     </g>
    </g>
    <g id="xtick_5">
     <g id="line2d_32">
      <path clip-path="url(#p0f5dcd9e04)" d="M 355.294283 91.079231 
L 355.294283 2.52 
" style="fill:none;stroke:#000000;stroke-dasharray:0.5,0.825;stroke-dashoffset:0;stroke-width:0.5;"/>
     </g>
     <g id="line2d_33">
      <g>
       <use style="stroke:#000000;stroke-width:0.8;" x="355.294283" xlink:href="#mf88ffe8ed6" y="89.376169"/>
      </g>
     </g>
     <g id="text_4">
      <!-- $f$ -->
      <g transform="translate(352.844283 103.954294)scale(0.1 -0.1)">
       <use transform="translate(0 0.484375)" xlink:href="#Cmmi10-66"/>
      </g>
     </g>
    </g>
    <g id="xtick_6">
     <g id="line2d_34">
      <path clip-path="url(#p0f5dcd9e04)" d="M 568.158397 91.079231 
L 568.158397 2.52 
" style="fill:none;stroke:#000000;stroke-dasharray:0.5,0.825;stroke-dashoffset:0;stroke-width:0.5;"/>
     </g>
     <g id="line2d_35">
      <g>
       <use style="stroke:#000000;stroke-width:0.8;" x="568.158397" xlink:href="#mf88ffe8ed6" y="89.376169"/>
      </g>
     </g>
     <g id="text_5">
      <!-- $1$ -->
      <g transform="translate(565.658397 103.974606)scale(0.1 -0.1)">
       <use transform="translate(0 0.390625)" xlink:href="#Cmr10-31"/>
      </g>
     </g>
    </g>
   </g>
   <g id="matplotlib.axis_4">
    <g id="ytick_3">
     <g id="line2d_36">
      <path clip-path="url(#p0f5dcd9e04)" d="M 296.756652 89.376169 
L 573.48 89.376169 
" style="fill:none;stroke:#000000;stroke-dasharray:0.5,0.825;stroke-dashoffset:0;stroke-width:0.5;"/>
     </g>
     <g id="line2d_37">
      <g>
       <use style="stroke:#000000;stroke-width:0.8;" x="302.078255" xlink:href="#mad064327a9" y="89.376169"/>
      </g>
     </g>
    </g>
    <g id="ytick_4">
     <g id="line2d_38">
      <path clip-path="url(#p0f5dcd9e04)" d="M 296.756652 4.223062 
L 573.48 4.223062 
" style="fill:none;stroke:#000000;stroke-dasharray:0.5,0.825;stroke-dashoffset:0;stroke-width:0.5;"/>
     </g>
     <g id="line2d_39">
      <g>
       <use style="stroke:#000000;stroke-width:0.8;" x="302.078255" xlink:href="#mad064327a9" y="4.223062"/>
      </g>
     </g>
     <g id="text_6">
      <!-- $1$ -->
      <g transform="translate(290.078255 8.022281)scale(0.1 -0.1)">
       <use transform="translate(0 0.390625)" xlink:href="#Cmr10-31"/>
      </g>
     </g>
    </g>
   </g>
   <g id="patch_6">
    <path d="M 302.078255 91.079231 
L 302.078255 2.52 
" style="fill:none;stroke:#000000;stroke-linecap:square;stroke-linejoin:miter;stroke-width:0.8;"/>
   </g>
   <g id="patch_7">
    <path d="M 296.756652 89.376169 
L 573.48 89.376169 
" style="fill:none;stroke:#000000;stroke-linecap:square;stroke-linejoin:miter;stroke-width:0.8;"/>
   </g>
  </g>
 </g>
 <defs>
  <clipPath id="p42dc043ba2">
   <rect height="88.559231" width="276.723348" x="8.756652" y="2.52"/>
  </clipPath>
  <clipPath id="p0f5dcd9e04">
   <rect height="88.559231" width="276.723348" x="296.756652" y="2.52"/>
  </clipPath>
 </defs>
</svg>
